<svg viewBox="0 0 330 200" xmlns="http://www.w3.org/2000/svg"><g><g><g><g><g><line x1="41.140000343322754" y1="177.95999908447266" x2="36.140000343322754" y2="177.95999908447266" style="visibility: inherit;" fill="rgb(0, 0, 0)" stroke="rgb(204, 204, 204)" stroke-width="1px"></line><line x1="41.140000343322754" y1="161.7818173495206" x2="36.140000343322754" y2="161.7818173495206" style="visibility: inherit;" fill="rgb(0, 0, 0)" stroke="rgb(204, 204, 204)" stroke-width="1px"></line><line x1="41.140000343322754" y1="145.60363561456853" x2="36.140000343322754" y2="145.60363561456853" style="visibility: inherit;" fill="rgb(0, 0, 0)" stroke="rgb(204, 204, 204)" stroke-width="1px"></line><line x1="41.140000343322754" y1="129.42545387961647" x2="36.140000343322754" y2="129.42545387961647" style="visibility: inherit;" fill="rgb(0, 0, 0)" stroke="rgb(204, 204, 204)" stroke-width="1px"></line><line x1="41.140000343322754" y1="113.24727214466444" x2="36.140000343322754" y2="113.24727214466444" style="visibility: inherit;" fill="rgb(0, 0, 0)" stroke="rgb(204, 204, 204)" stroke-width="1px"></line><line x1="41.140000343322754" y1="97.06909040971236" x2="36.140000343322754" y2="97.06909040971236" style="visibility: inherit;" fill="rgb(0, 0, 0)" stroke="rgb(204, 204, 204)" stroke-width="1px"></line><line x1="41.140000343322754" y1="80.89090867476028" x2="36.140000343322754" y2="80.89090867476028" style="visibility: inherit;" fill="rgb(0, 0, 0)" stroke="rgb(204, 204, 204)" stroke-width="1px"></line><line x1="41.140000343322754" y1="64.71272693980822" x2="36.140000343322754" y2="64.71272693980822" style="visibility: inherit;" fill="rgb(0, 0, 0)" stroke="rgb(204, 204, 204)" stroke-width="1px"></line><line x1="41.140000343322754" y1="48.534545204856215" x2="36.140000343322754" y2="48.534545204856215" style="visibility: inherit;" fill="rgb(0, 0, 0)" stroke="rgb(204, 204, 204)" stroke-width="1px"></line><line x1="41.140000343322754" y1="32.35636346990415" x2="36.140000343322754" y2="32.35636346990415" style="visibility: inherit;" fill="rgb(0, 0, 0)" stroke="rgb(204, 204, 204)" stroke-width="1px"></line><line x1="41.140000343322754" y1="16.178181734952062" x2="36.140000343322754" y2="16.178181734952062" style="visibility: inherit;" fill="rgb(0, 0, 0)" stroke="rgb(204, 204, 204)" stroke-width="1px"></line><line x1="41.140000343322754" y1="0" x2="36.140000343322754" y2="0" style="visibility: inherit;" fill="rgb(0, 0, 0)" stroke="rgb(204, 204, 204)" stroke-width="1px"></line></g><g transform="translate(31.140000343322754, 0)"><text style="text-anchor: end; visibility: hidden; font-family: &quot;Helvetica Neue&quot;, sans-serif; font-size: 12px; font-weight: 200;" x="0" y="177.95999908447266" dx="0em" dy="0.3em" fill="rgb(50, 49, 63)" stroke="none" stroke-width="1px">1.5</text><text style="text-anchor: end; visibility: inherit; font-family: &quot;Helvetica Neue&quot;, sans-serif; font-size: 12px; font-weight: 200;" x="0" y="161.7818173495206" dx="0em" dy="0.3em" fill="rgb(50, 49, 63)" stroke="none" stroke-width="1px">1.6</text><text style="text-anchor: end; visibility: hidden; font-family: &quot;Helvetica Neue&quot;, sans-serif; font-size: 12px; font-weight: 200;" x="0" y="145.60363561456853" dx="0em" dy="0.3em" fill="rgb(50, 49, 63)" stroke="none" stroke-width="1px">1.7</text><text style="text-anchor: end; visibility: inherit; font-family: &quot;Helvetica Neue&quot;, sans-serif; font-size: 12px; font-weight: 200;" x="0" y="129.42545387961647" dx="0em" dy="0.3em" fill="rgb(50, 49, 63)" stroke="none" stroke-width="1px">1.8</text><text style="text-anchor: end; visibility: hidden; font-family: &quot;Helvetica Neue&quot;, sans-serif; font-size: 12px; font-weight: 200;" x="0" y="113.24727214466444" dx="0em" dy="0.3em" fill="rgb(50, 49, 63)" stroke="none" stroke-width="1px">1.9</text><text style="text-anchor: end; visibility: inherit; font-family: &quot;Helvetica Neue&quot;, sans-serif; font-size: 12px; font-weight: 200;" x="0" y="97.06909040971236" dx="0em" dy="0.3em" fill="rgb(50, 49, 63)" stroke="none" stroke-width="1px">2</text><text style="text-anchor: end; visibility: hidden; font-family: &quot;Helvetica Neue&quot;, sans-serif; font-size: 12px; font-weight: 200;" x="0" y="80.89090867476028" dx="0em" dy="0.3em" fill="rgb(50, 49, 63)" stroke="none" stroke-width="1px">2.1</text><text style="text-anchor: end; visibility: inherit; font-family: &quot;Helvetica Neue&quot;, sans-serif; font-size: 12px; font-weight: 200;" x="0" y="64.71272693980822" dx="0em" dy="0.3em" fill="rgb(50, 49, 63)" stroke="none" stroke-width="1px">2.2</text><text style="text-anchor: end; visibility: hidden; font-family: &quot;Helvetica Neue&quot;, sans-serif; font-size: 12px; font-weight: 200;" x="0" y="48.534545204856215" dx="0em" dy="0.3em" fill="rgb(50, 49, 63)" stroke="none" stroke-width="1px">2.3</text><text style="text-anchor: end; visibility: inherit; font-family: &quot;Helvetica Neue&quot;, sans-serif; font-size: 12px; font-weight: 200;" x="0" y="32.35636346990415" dx="0em" dy="0.3em" fill="rgb(50, 49, 63)" stroke="none" stroke-width="1px">2.4</text><text style="text-anchor: end; visibility: hidden; font-family: &quot;Helvetica Neue&quot;, sans-serif; font-size: 12px; font-weight: 200;" x="0" y="16.178181734952062" dx="0em" dy="0.3em" fill="rgb(50, 49, 63)" stroke="none" stroke-width="1px">2.5</text><text style="text-anchor: end; visibility: hidden; font-family: &quot;Helvetica Neue&quot;, sans-serif; font-size: 12px; font-weight: 200;" x="0" y="0" dx="0em" dy="0.3em" fill="rgb(50, 49, 63)" stroke="none" stroke-width="1px">2.6</text></g><line x1="41.140000343322754" y1="0" x2="41.140000343322754" y2="177.95999908447266" fill="rgb(0, 0, 0)" stroke="rgb(204, 204, 204)" stroke-width="1px"></line></g></g><g transform="translate(41, 0)" clip-path="url(#clip_0)"><clipPath id="clip_0"><rect width="288" height="177"></rect></clipPath><g><g><g><line x1="0" y1="0" x2="0" y2="177.95999908447266" fill="rgb(0, 0, 0)" stroke="rgb(60, 60, 60)" stroke-width="1px" opacity="0.25"></line><line x1="32.095555517408584" y1="0" x2="32.095555517408584" y2="177.95999908447266" fill="rgb(0, 0, 0)" stroke="rgb(60, 60, 60)" stroke-width="1px" opacity="0.25"></line><line x1="64.19111103481717" y1="0" x2="64.19111103481717" y2="177.95999908447266" fill="rgb(0, 0, 0)" stroke="rgb(60, 60, 60)" stroke-width="1px" opacity="0.25"></line><line x1="96.28666655222574" y1="0" x2="96.28666655222574" y2="177.95999908447266" fill="rgb(0, 0, 0)" stroke="rgb(60, 60, 60)" stroke-width="1px" opacity="0.25"></line><line x1="128.38222206963434" y1="0" x2="128.38222206963434" y2="177.95999908447266" fill="rgb(0, 0, 0)" stroke="rgb(60, 60, 60)" stroke-width="1px" opacity="0.25"></line><line x1="160.4777775870429" y1="0" x2="160.4777775870429" y2="177.95999908447266" fill="rgb(0, 0, 0)" stroke="rgb(60, 60, 60)" stroke-width="1px" opacity="0.25"></line><line x1="192.57333310445148" y1="0" x2="192.57333310445148" y2="177.95999908447266" fill="rgb(0, 0, 0)" stroke="rgb(60, 60, 60)" stroke-width="1px" opacity="0.25"></line><line x1="224.66888862186008" y1="0" x2="224.66888862186008" y2="177.95999908447266" fill="rgb(0, 0, 0)" stroke="rgb(60, 60, 60)" stroke-width="1px" opacity="0.25"></line><line x1="256.7644441392687" y1="0" x2="256.7644441392687" y2="177.95999908447266" fill="rgb(0, 0, 0)" stroke="rgb(60, 60, 60)" stroke-width="1px" opacity="0.25"></line><line x1="288.85999965667725" y1="0" x2="288.85999965667725" y2="177.95999908447266" fill="rgb(0, 0, 0)" stroke="rgb(60, 60, 60)" stroke-width="1px" opacity="0.25"></line></g><g><line x1="0" y1="177.95999908447266" x2="288.85999965667725" y2="177.95999908447266" fill="rgb(0, 0, 0)" stroke="rgb(60, 60, 60)" stroke-width="1px" opacity="0.25"></line><line x1="0" y1="161.7818173495206" x2="288.85999965667725" y2="161.7818173495206" fill="rgb(0, 0, 0)" stroke="rgb(60, 60, 60)" stroke-width="1px" opacity="0.25"></line><line x1="0" y1="145.60363561456853" x2="288.85999965667725" y2="145.60363561456853" fill="rgb(0, 0, 0)" stroke="rgb(60, 60, 60)" stroke-width="1px" opacity="0.25"></line><line x1="0" y1="129.42545387961647" x2="288.85999965667725" y2="129.42545387961647" fill="rgb(0, 0, 0)" stroke="rgb(60, 60, 60)" stroke-width="1px" opacity="0.25"></line><line x1="0" y1="113.24727214466444" x2="288.85999965667725" y2="113.24727214466444" fill="rgb(0, 0, 0)" stroke="rgb(60, 60, 60)" stroke-width="1px" opacity="0.25"></line><line x1="0" y1="97.06909040971236" x2="288.85999965667725" y2="97.06909040971236" fill="rgb(0, 0, 0)" stroke="rgb(60, 60, 60)" stroke-width="1px" opacity="0.25"></line><line x1="0" y1="80.89090867476028" x2="288.85999965667725" y2="80.89090867476028" fill="rgb(0, 0, 0)" stroke="rgb(60, 60, 60)" stroke-width="1px" opacity="0.25"></line><line x1="0" y1="64.71272693980822" x2="288.85999965667725" y2="64.71272693980822" fill="rgb(0, 0, 0)" stroke="rgb(60, 60, 60)" stroke-width="1px" opacity="0.25"></line><line x1="0" y1="48.534545204856215" x2="288.85999965667725" y2="48.534545204856215" fill="rgb(0, 0, 0)" stroke="rgb(60, 60, 60)" stroke-width="1px" opacity="0.25"></line><line x1="0" y1="32.35636346990415" x2="288.85999965667725" y2="32.35636346990415" fill="rgb(0, 0, 0)" stroke="rgb(60, 60, 60)" stroke-width="1px" opacity="0.25"></line><line x1="0" y1="16.178181734952062" x2="288.85999965667725" y2="16.178181734952062" fill="rgb(0, 0, 0)" stroke="rgb(60, 60, 60)" stroke-width="1px" opacity="0.25"></line><line x1="0" y1="0" x2="288.85999965667725" y2="0" fill="rgb(0, 0, 0)" stroke="rgb(60, 60, 60)" stroke-width="1px" opacity="0.25"></line></g></g></g><g><g><line x1="0" y1="420.63272510875356" x2="288.85999965667725" y2="420.63272510875356" fill="rgb(0, 0, 0)" stroke="rgb(153, 153, 153)" stroke-width="1.5px"></line></g></g><g><g><line x1="32.095555517408584" y1="0" x2="32.095555517408584" y2="177.95999908447266" fill="rgb(0, 0, 0)" stroke="rgb(153, 153, 153)" stroke-width="1.5px"></line></g></g><g><g><g><g><g><path style="fill: none;" stroke="rgb(0, 119, 187)" stroke-width="2px" d="M33.05842218293084,193.791404989466L33.37937773810493,176.179197350907L33.700333293279016,158.89795496516888L33.860811070866056,156.5727124013991L34.021288848453096,143.6523581362453L34.181766626040144,132.61951446450556L34.342244403627184,127.12401782526237L34.50272218121423,116.5349426091725L34.663199958801265,113.97788358139091L34.82367773638831,116.11802012007038L34.98415551397536,115.20861300326396L35.1446332915624,123.9916798203586L35.30511106914944,114.2578954982784L35.62606662432353,112.438946263397L35.94702217949761,113.68684013227258L36.107499957084656,105.80448249311006L36.909888845019864,109.12493512280345L37.07036662260691,104.14628119729176L37.23084440019395,103.25868642830541L37.391322177781,102.30931893600544L37.55179995536805,94.21817219206821L37.872755510542135,94.59957006164372L38.354188843303255,90.9074396537111L38.514666620890296,93.45649503485666L38.83562217606438,86.68510140645958L38.99609995365143,88.05355140815863L39.15657773123848,83.2870037614491L39.31705550882551,84.66023666523424L39.6380110639996,84.69433412849321L39.95896661917369,85.83038908931518L40.11944439676073,77.19636367271002L40.600877729521855,77.52136958381877L40.761355507108895,78.12289666472797L40.92183328469594,73.79367598456852L41.08231106228298,78.09049636027372L41.24278883987003,76.96119146287974L41.72422217263115,71.50714021308424L41.8846999502182,72.15803918649513L42.205655505392286,62.72156622957351L42.36613328297933,66.70059361909016L42.526611060566374,66.77345573232114L42.687088838153414,61.031041772883015L42.84756661574046,64.34825437213097L43.008044393327495,61.21965783095584L43.16852217091454,56.5653155243146L43.48947772608863,57.049237214413154L43.64995550367567,54.54388367248977L43.81043328126272,55.64098112438462L43.97091105884976,50.544297518361105L44.29186661402384,47.271365335200585L44.612822169197926,48.69339155462214L44.773299946784974,40.90624838158493L45.09425550195906,43.71994482089775L45.2547332795461,40.85159215371394L45.57568883472018,37.95041489237471L45.73616661230723,35.70283662981754L45.89664438989427,34.99797572077395L46.05712216748132,34.806659637329915L46.21759994506836,27.757549113610878L46.378077722655405,33.9801432994189L46.699033277829486,27.331137963918593L46.859511055416526,24.123392107576706L47.01998883300357,23.14544291813317L47.180466610590614,28.290456978300938L47.98285549852583,12.301099589093212L48.14333327611287,17.245386048808797L48.46428883128696,15.710113050961496L48.785244386461045,7.0738118986863014L48.94572216404809,14.86523654052641L49.10619994163513,11.308184544735099L49.58763327439626,22.40945457373894L50.229544384744436,18.936720513110657L50.71097771750556,21.297545554093574L51.031933272679645,16.866186771321253L51.19241105026669,20.720164414360966L51.35288882785373,16.76590011467721L51.9947999382019,23.639971850761384L52.15527771578895,30.64954628868807L52.31575549337599,23.69420378893122L52.476233270963036,25.291924516434932L52.79718882613712,13.992318338022017L52.95766660372416,27.56538445076447L53.43909993648529,21.124088209890374L53.92053326924642,28.297939905758227L54.08101104683347,21.57310242911859L54.40196660200755,26.185478627133392L54.722922157181635,29.51788851204202L54.883399934768676,23.810652026011354L55.04387771235572,25.237384003936967L55.20435548994276,26.619758422193144L55.36483326752981,33.61008553640238L55.525311045116844,23.076013694302702L55.84626660029093,27.427413154296858L56.00674437787798,26.229527612474755L56.16722215546502,25.565977091610307L56.32769993305207,34.167949349880416L56.648655488226154,30.343440555177636L56.80913326581319,24.859071877642833L56.969611043400235,27.04771244352611L57.29056659857432,31.194527123966452L57.45104437616136,25.510202281799792L57.61152215374841,29.819674204958602L57.93247770892249,26.581418061922307L58.09295548650953,33.56553511777781L58.41391104168362,29.32514527233039L58.574388819270666,32.48961357915124L58.895344374444754,35.89345842102327L59.055822152031794,34.82694839940484L59.216299929618835,27.65120668577717L59.53725548479292,32.460839023052614L60.1791665951411,27.778493596133075L60.33964437272814,31.944324169544757L60.50012215031518,36.326696777725545L60.66059992790222,35.87818399178056L60.981555483076306,38.98294316610719L61.142033260663354,29.54276731724798L61.46298881583744,36.40885469259163L61.78394437101152,37.76195312146595L61.94442214859856,41.261726007597076L62.10489992618561,30.347914882935612L62.26537770377265,37.793851992636945L62.58633325894674,32.49833080392108L62.746811036533785,40.457157018774694L63.87015547964308,39.757580445100444L64.51206658999125,39.74118743391824L64.99349992275238,43.15918812309346L65.15397770033942,33.37950336970309L65.31445547792647,39.26555867888834L65.4749332555135,43.902659394945005L66.11684436586168,37.59007722069444L66.27732214344873,35.79209175423074L66.43779992103578,39.00813054564125L66.59827769862281,42.56032249576444L67.07971103138394,34.71219732112942L67.24018880897098,37.78872194443167L67.40066658655803,45.46551122336945L67.56114436414506,40.72997529663752L67.72162214173211,34.62436935298385L67.88209991931915,43.80730992755113L68.20305547449324,44.55633553730911L68.36353325208029,45.23948052801015L68.52401102966732,42.29232569177873L68.84496658484142,40.18900592762492L69.00544436242846,44.66661228782655L69.1659221400155,40.991916329433565L69.32639991760253,40.682493421895686L69.48687769518958,41.77939801483544L69.64735547277662,41.93846808098931L70.12878880553775,42.32615315250058L70.2892665831248,38.541913307619495L70.61022213829888,40.33507730020608L71.25213324864706,47.37446773258887L71.4126110262341,44.3980754787666L71.73356658140818,40.524619081263324L71.89404435899522,43.43663501587832L72.05452213658226,49.941806142676484L72.21499991416931,39.36526675866713L72.37547769175634,51.0568009056032L72.5359554693434,45.4800142167918L73.01738880210452,50.17678549355168L73.49882213486565,52.2853510212838L73.6592999124527,45.88008083321952L73.81977769003973,45.844633357274944L73.98025546762679,48.5143413007215L74.30121102280087,42.38709658230735L74.94312213314903,54.769297219192765L75.26407768832313,51.00688900802727L75.58503324349721,50.38692461101196L75.74551102108427,45.2849180978281L75.9059887986713,44.986796725058156L76.06646657625834,44.12290432165176L76.22694435384538,45.62284555892754L76.54789990901948,45.80127866417189L76.70837768660651,46.117567350510825L77.02933324178059,47.831003451065385L77.35028879695469,50.228895983215565L77.67124435212877,56.49897204376548L78.47363324006399,46.89714181875422L78.79458879523807,48.723593266988416L78.9550665728251,51.40329130430838L79.2760221279992,44.99713396505072L79.43649990558625,44.86930704962057L79.59697768317328,47.08969219951081L79.75745546076033,52.509954560375434L79.91793323834737,52.861382148330776L80.0784110159344,42.08126085133401L80.23888879352145,50.05813866438356L80.3993665711085,55.03332112870372L80.55984434869555,55.60638222784243L80.72032212628258,46.744358954536125L81.36223323663076,48.57725189187016L81.52271101421779,55.87518903943949L81.84366656939189,50.94282126314813L82.32509990215301,52.07687049083721L82.96701101250119,55.70493315389072L83.12748879008824,54.12395258368832L83.28796656767527,56.31390459046618L83.4484443452623,48.16939377365699L83.7693999004364,57.06458878723788L83.92987767802344,56.27170705109364L84.09035545561048,47.480925875795634L84.25083323319754,53.298207681597646L84.41131101078457,47.704796550857935L84.57178878837162,52.7922229270374L85.05322212113275,55.17476388636287L85.21369989871978,52.626209938500494L85.53465545389388,55.240798792583846L85.85561100906796,53.72438740054382L86.17656656424205,47.69584789534204L86.49752211941613,52.92660704694043L86.81847767459023,59.55910365588551L86.97895545217726,56.83674521770081L87.13943322976431,56.66780077304662L87.29991100735134,52.46382269831916L87.46038878493839,57.90379524439349L87.62086656252544,53.43941900851068L87.78134434011247,55.03983976138561L87.94182211769952,62.03221118051873L88.10229989528656,61.227102186622105L88.42325545046064,61.090288043885025L88.74421100563474,60.99038710515114L88.90468878322177,60.292739121027736L89.22564433839585,63.79625347088752L89.54659989356995,59.2054774758422L89.70707767115698,63.65820503083789L89.86755544874403,54.344467512932184L90.02803322633108,64.7094406232136L90.18851100391812,59.71477940442989L90.34898878150516,54.64559748540144L90.5094665590922,62.851128875599414L90.66994433667925,56.87053410663165L90.8304221142663,59.243586405366926L90.99089989185333,58.17989212449274L91.15137766944036,62.69117165825216L91.47233322461446,64.50099866455805L91.6328110022015,59.346225941263L91.9537665573756,61.96185623370383L92.27472211254967,62.934135369867874L92.43519989013672,61.69262513240558L92.59567766772376,56.81545358905947L92.75615544531081,59.777959998115634L92.91663322289784,60.11102741354692L93.23758877807194,67.47283944704031L93.39806655565897,64.42613081819417L93.71902211083305,69.6275368368287L93.87949988842011,60.4126202475084L94.03997766600715,61.661536268845936L94.2004554435942,67.5144584095476L94.36093322118123,62.862468982158404L94.68188877635532,65.66501817386731L94.84236655394236,65.44365466522109L95.0028443315294,64.80085576792376L95.16332210911645,63.94544915854105L95.96571099705166,58.529622553643364L96.1261887746387,66.85692508808181L96.60762210739983,65.92931208591538L96.76809988498688,66.0074199627247L97.08905544016098,67.38343003546305L97.24953321774801,63.20822651683426L97.57048877292209,64.49228143978823L97.89144432809618,59.16489995169238L98.6938332160314,70.91556465425741L98.85431099361843,64.34300860855267L99.33574432637957,68.48700754824876L99.4962221039666,66.99967928663551L99.65669988155364,62.3340740170173L99.8171776591407,63.2716385412661L99.97765543672773,68.45464581558554L100.13813321431478,64.71194778962972L100.45908876948887,71.16080410154312L100.78004432466295,70.21502378580772L101.10099987983703,76.89241795949653L101.42195543501111,69.71960770198613L101.90338876777226,74.76298509282424L102.06386654535929,73.88462826778647L102.54529987812042,70.5651399328685L102.70577765570746,69.36976155746248L102.86625543329451,69.21427866787319L103.02673321088156,66.65993895135828L103.34768876605563,67.92100508686616L103.50816654364269,73.10867954789865L103.9895998764038,69.97780727105355L104.15007765399086,70.63152198520865L104.47103320916494,69.02863263770865L104.95246654192607,72.00641347600752L105.43389987468719,73.5543380213084L105.59437765227425,71.71045212353452L105.75485542986128,64.62257694984345L105.91533320744831,72.24660001867002L106.07581098503537,74.34984263924179L106.39676654020946,79.5268327141626L106.55724431779649,74.63442531336477L106.71772209538355,74.90195925585827L106.87819987297058,82.70078968157362L107.03867765055763,78.81653318258562L107.19915542814466,80.10737674075857L107.3596332057317,75.99365665701076L107.68058876090579,81.8539845815877L108.00154431607987,78.23078196420235L108.16202209366693,76.00503533536077L108.64345542642806,77.15312469498002L108.8039332040151,72.03295086822718L109.44584431436327,70.27990153829823L109.92727764712438,77.33367924873033L110.08775542471145,72.32254787518238L110.40871097988553,76.05433008428041L110.56918875747256,76.39688616030189L110.89014431264665,80.40225808308308L111.05062209023369,79.3503667702601L111.21109986782075,84.30144186519465L111.69253320058186,81.55493748583336L111.85301097816892,80.96849197521178L112.17396653334299,78.81209742661866L112.81587764369117,76.55661194690303L113.29731097645231,78.15128550291644L113.45778875403934,81.93787822704955L113.61826653162638,74.32403811105146L113.77874430921342,83.14575386274507L113.93922208680047,82.24691541667728L114.09969986438752,76.1016576718582L114.26017764197455,80.12157115985279L114.58113319714865,76.8504904226611L114.74161097473568,79.94830667460471L114.90208875232273,80.90731711465891L115.06256652990976,82.30041449081779L115.22304430749682,81.09172884751091L115.38352208508385,80.70107374809133L115.5439998626709,81.90235360752294L116.18591097301906,81.10368610272616L116.34638875060611,86.27107180168375L117.30925541612837,84.75763043755202L117.63021097130245,82.33578482318032L117.79068874888951,81.47571102708456L117.95116652647654,83.92158686725982L118.11164430406359,78.37218615007045L118.27212208165062,81.9673470753865L118.43259985923767,80.05503482034858L118.59307763682472,84.23930270986635L118.75355541441175,83.3199826427686L118.9140331919988,84.48242070864613L119.07451096958584,82.52077513289757L119.23498874717289,81.30688229780341L119.39546652475993,81.67748006589417L119.55594430234696,85.58580536247676L119.71642207993402,81.50201698855811L119.87689985752105,80.24573375513634L120.0373776351081,84.2371041177784L120.19785541269513,89.74681446201133L120.51881096786923,81.32933108017527L120.67928874545628,76.91656390067313L120.83976652304331,84.23656411270416L121.1607220782174,79.59028331038546L121.48167763339148,81.07699442334244L121.80263318856558,84.12115731398147L121.96311096615261,89.14810312184638L122.44454429891374,83.06351880429695L122.60502207650079,83.67376310997597L122.76549985408782,86.37085702504457L123.08645540926192,88.58827214702647L123.24693318684896,87.09805100108696L123.407410964436,81.48253823409456L123.72836651961009,90.33854430800223L124.04932207478417,74.61637371516886L124.20979985237122,79.65450534242866L124.5307554075453,82.80543495060259L124.69123318513233,83.59106519003565L124.8517109627194,87.54405662061585L125.01218874030643,82.34812779630573L125.17266651789348,89.57952860437085L125.33314429548051,87.67905788917514L125.49362207306757,95.63367977880792L125.6540998506546,82.57581707867875L125.81457762824164,81.30051795228562L126.13553318341573,84.30379474444668L126.29601096100278,88.84350168818558L126.45648873858981,79.03515809406963L126.93792207135095,93.65544833292205L127.09839984893799,88.42384060192126L127.25887762652502,86.01537939903243L127.57983318169912,84.67238677940458L127.74031095928616,85.53415773430508L127.9007887368732,85.97541902353889L128.06126651446024,88.09999184454303L128.38222206963434,81.65769273710248L128.7031776248084,87.71373392929938L128.86365540239547,86.44483772021506L129.0241331799825,82.82097938238242L129.3450887351566,92.84154497067358L129.6660442903307,89.82654235404335L129.98699984550476,87.0102616047324L130.1474776230918,87.12894700569153L130.30795540067885,87.78015455343056L130.78938873343998,91.92180061387461L131.43129984378814,92.96829187595525L131.5917776213752,83.30239390606486L131.75225539896223,92.5902497521982L131.91273317654927,88.46040665980533L132.0732109541363,95.94113552500394L132.3941665093104,88.2558990238335L132.55464428689746,90.34382864337155L133.03607761965858,90.79878291841636L133.19655539724562,86.87618605915752L133.5175109524197,89.84089106030164L133.83846650759378,89.73366148127455L133.99894428518084,84.56346004157272L134.48037761794197,91.51131961387232L134.80133317311606,88.04761135234202L134.9618109507031,84.22830974942653L135.12228872829013,91.0718326270253L135.44324428346422,88.0717187217276L135.60372206105126,92.00823999754358L135.7641998386383,87.64700473084007L135.92467761622535,89.3537679115487L136.08515539381239,91.97464396756781L136.24563317139945,90.16801841991632L136.40611094898648,95.07431166548022L136.5665887265735,85.85441931511875L136.72706650416058,90.74933388233265L137.36897761450874,90.30552685489172L137.52945539209577,90.94524000890769L137.85041094726986,94.68450514546302L138.17136650244396,95.56606342915521L138.331844280031,94.56990835435168L138.49232205761803,90.93632992518278L138.65279983520506,90.89455667551144L138.81327761279212,90.04250581194721L138.97375539037915,89.37428810436971L139.13423316796622,90.27034938148428L139.29471094555325,88.58568783702835L139.45518872314028,93.51682131600717L139.77614427831438,96.25580419612017L139.93662205590144,87.27571267051098L140.09709983348847,93.5107269730265L140.2575776110755,89.75672741230268L140.41805538866254,93.64403108278103L140.73901094383663,91.17520502695069L140.89948872142367,95.90950665637006L141.05996649901073,92.4711786333289L141.38092205418482,97.12945526265388L141.54139983177186,85.92107136999601L141.7018776093589,89.5095208036751L141.86235538694595,95.46531391101897L142.02283316453298,87.13361419240458L142.18331094212002,95.54793468737725L142.34378871970705,87.6910151443904L142.5042664972941,86.92767940016513L142.66474427488114,91.93329500759765L143.1461776076423,94.03295045160486L143.46713316281637,95.51927584665167L143.78808871799043,94.42865845564765L144.2695220507516,88.0755759008293L144.42999982833862,92.86947094736983L144.59047760592566,96.42212575898522L144.7509553835127,97.75823331391653L144.91143316109975,91.62564640244653L145.0719109386868,98.64848953648305L145.23238871627385,93.47493235096276L145.39286649386088,89.80744931748997L145.55334427144794,91.34970380951134L145.71382204903497,97.47548279986685L145.874299826622,95.29162513606967L146.03477760420904,92.21899626366015L146.19525538179607,94.74838003138709L146.67668871455723,94.862051099514L146.83716649214426,94.24767961219617L147.3185998249054,93.99083005581436L147.47907760249242,96.04250219179647L147.80003315766655,97.14881830174438L147.96051093525358,94.61226018088828L148.1209887128406,97.5388562525077L148.28146649042765,98.06242974377166L148.44194426801468,98.10584229456121L148.60242204560174,98.07882275495385L149.08385537836287,95.03678131282075L149.24433315594993,95.08704035651581L149.40481093353696,98.76757994124786L150.04672204388513,96.57502433857636L150.2071998214722,93.36527274910159L150.52815537664625,94.49257191336272L150.6886331542333,100.40749820812412L150.84911093182035,98.16136638773011L151.00958870940738,95.6409312755191L151.33054426458145,100.58033840367105L151.8119775973426,98.89505971055885L151.97245537492964,93.59693492594934L152.29341093010373,102.22174168450148L152.45388870769077,98.84933285230827L152.6143664852778,105.35772472365633L152.77484426286483,101.74599721409852L152.93532204045192,100.04285978174548L153.09579981803896,94.41866836177427L153.256277595626,93.41773038488465L153.41675537321302,96.40210699944741L153.89818870597415,93.89274199125828L154.05866648356118,101.61901887807075L154.3796220387353,100.08287801492556L154.70057759390937,98.90233049316554L154.8610553714964,97.49110437522872L155.02153314908344,97.75944832533358L155.1820109266705,103.14765752786315L155.5029664818446,105.85773085060895L155.66344425943163,97.80172300828814L155.82392203701866,97.0844612684326L155.98439981460572,103.98061535487399L156.14487759219276,101.21526865560091L156.3053553697798,99.2535266503748L156.46583314736682,105.0227480045697L156.6263109249539,99.70095942617131L157.107744257715,100.94468754161707L157.26822203530205,103.88736805009054L157.74965536806317,103.92406910924316L157.9101331456502,101.66121641744328L158.0706109232373,103.10922073811477L158.39156647841136,102.76760967097321L158.71252203358543,98.17043075861908L158.8729998111725,100.36011276285981L159.03347758875952,98.56347730908172L159.19395536634656,100.56114893764013L159.35443314393362,104.39327566106873L159.51491092152065,95.47005824131405L159.6753886991077,100.09508598678242L159.83586647669475,104.03957233744339L160.1568220318688,94.83007508476096L160.31729980945587,100.38026652366617L160.4777775870429,98.30589488867058L160.798733142217,106.25226241502573L161.28016647497813,101.43670930782918L161.44064425256516,106.94776966474771L161.6011220301522,103.83473684124792L161.7615998077393,100.75123072377161L161.92207758532632,106.65699621816648L162.2430331405004,110.15561195056713L162.40351091808742,100.6640199042823L162.56398869567448,104.76734489035104L162.88494425084855,102.41893996607558L163.04542202843558,103.69130763635143L163.3663775836097,111.0801392094522L163.8478109163708,105.92565577458979L164.1687664715449,107.17669324443325L164.32924424913193,110.99209909645603L164.489722026719,107.05457495407362L164.97115535948012,109.57931082098301L165.13163313706715,112.91908791797587L165.45258869224125,103.26994939128237L165.61306646982828,104.24741643333817L165.93402202500238,103.4756527527757L166.0944998025894,106.79957684366062L166.25497758017647,109.64619430660638L166.57593313535054,105.838502812787L166.73641091293757,102.19526214996834L167.21784424569873,107.97703862213926L167.37832202328576,109.27089078001156L167.69927757845986,108.4377208081501L167.8597553560469,107.8503110027531L168.02023313363392,110.76103478236904L168.18071091122096,104.5564536229659L168.50166646639508,106.77508375636486L168.6621442439821,110.99908059063009L168.82262202156915,104.74360395298011L168.98309979915618,105.31396502674762L169.30405535433027,112.75735639824185L169.62501090950437,106.82129276200315L169.94596646467846,111.94902665979531L170.1064442422655,110.4223937431358L170.26692201985253,106.55105879413847L170.42739979743956,111.75356410881696L170.5878775750266,108.5611119676133L171.22978868537479,107.69397953376145L171.39026646296185,115.46847115934511L171.55074424054888,101.91660024576645L171.7112220181359,105.95419889994231L172.19265535089707,113.27645556174784L172.3531331284841,107.41275260545693L172.51361090607114,110.23778915132871L172.67408868365817,101.83783664850986L172.83456646124523,112.64686750287382L173.1555220164193,110.86587291035309L173.31599979400633,107.81324351158584L173.47647757159336,107.24402030565332L173.63695534918045,112.96169046115409L173.95791090435452,116.2113831402269L174.27886645952861,106.68438218978852L174.43934423711565,115.88560579329781L174.59982201470268,111.08731356258134L174.76029979228971,111.05863543596026L174.92077756987678,106.44182348197849L175.24173312505087,113.7091924851669L175.4022109026379,112.5705532143468L175.56268868022494,110.82328965307038L175.88364423539903,120.17837613094625L176.0441220129861,110.74730322476701L176.36507756816016,117.8957939680412L176.52555534574722,111.81709184862187L177.16746645609535,111.45233770687017L177.32794423368244,113.8011669208468L177.6488997888565,114.17485043221893L177.80937756644354,115.93416767818815L177.9698553440306,112.56764104412501L178.13033312161764,118.44906773838821L178.29081089920467,111.55436009410997L178.4512886767917,117.70827720601235L178.61176645437874,114.72970564599763L178.93272200955286,116.08047048151539L179.0931997871399,113.42644197111721L179.25367756472693,118.6855899609041L179.73511089748806,110.65203090095517L179.8955886750751,119.23130366021178L180.05606645266215,112.93470949333775L180.2165442302492,112.07615928298716L180.53749978542328,114.79541269199498L181.50036645094553,116.06444390234786L181.6608442285326,124.15564850397162L181.82132200611963,120.39235314161274L181.98179978370666,119.59281777151807L182.1422775612937,111.73651537718749L182.78418867164189,118.7821351538195L183.265622004403,117.58889751281492L183.42609978199005,113.5798612698871L183.7470553371641,116.21281029649452L184.22848866992527,116.73235303559721L184.3889664475123,119.84901160745258L184.7099220026864,116.03140716334185L184.87039978027343,114.67167438641263L185.03087755786046,122.74592668588446L185.19135533544753,116.7569039805795L185.51231089062162,113.15613085967048L185.67278866820865,119.61518941030789L185.8332664457957,121.5800750165019L185.99374422338272,116.67117817504435L186.15422200096978,123.50245450899523L186.31469977855684,122.19327006419371L186.47517755614388,116.09186844576091L186.6356553337309,117.02492007046071L186.79613311131794,113.83755940567129L187.11708866649204,125.69121079025156L187.27756644407907,118.7254153351291L187.5985219992532,116.0451772927349L187.91947755442726,118.38152853231756L188.0799553320143,119.31122441119888L188.4009108871884,124.10589089355976L188.72186644236245,120.19775845593226L188.8823442199495,122.63366348812966L189.04282199753658,126.07579083258597L189.2032997751236,112.70297017290797L189.6847331078847,118.5678881406159L189.84521088547177,124.17559011992738L190.0056886630588,122.97620027825559L190.16616644064584,118.00105638572646L190.48712199581996,121.90504235581963L190.647599773407,116.08698911419727L190.96855532858106,119.4831581696569L191.1290331061681,126.81808566481149L191.93142199410332,123.21559609920223L192.09189977169038,120.80507130549401L192.41285532686445,120.3260289469591L192.57333310445148,123.19536519481385L192.8942886596256,119.36744279660607L193.05476643721263,123.31169771652094L193.21524421479967,120.19311055511471L193.3757219923867,120.95906918112914L193.6966775475608,121.04988646307854L193.85715532514783,121.9901510126985L194.01763310273486,123.7202694128679L194.33858865790899,120.90761441191253L194.49906643549602,120.7904911684896L194.65954421308305,119.39166588136473L194.82002199067009,117.1776643628878L195.3014553234312,128.06956671025165L195.6224108786053,123.00001835920855L196.10384421136644,120.73380992159021L196.42479976654053,126.25381893402466L196.58527754412756,117.52644978315848L196.74575532171463,123.71213076496332L196.90623309930166,118.39695724872433L197.22718865447575,124.00413850885707L197.54814420964982,124.22517415727967L197.70862198723685,124.27520177022862L197.86909976482394,121.14162946801233L198.190055319998,115.83928107228647L198.35053309758504,126.57874770155138L198.51101087517208,122.4461852978918L198.67148865275914,123.45369976514982L198.83196643034617,123.06140536461201L199.31339976310727,120.07951663056983L199.47387754069436,124.37201696568115L199.6343553182814,122.49609719546773L200.4367442062166,123.80094231377983L200.59722198380365,120.44319076217306L200.75769976139068,119.58757200793977L200.91817753897774,125.00858651872923L201.2391330941518,116.91094042800566L201.39961087173884,121.41641490721702L201.5600886493259,123.73974816733144L201.72056642691294,120.98209654036626L201.8810442045,128.64054493267545L202.6834330924352,122.92146690680255L202.84391087002223,119.83059357724201L203.00438864760926,123.70175495317976L203.16486642519635,123.88086306476694L203.32534420278338,121.34272350047914L203.48582198037042,127.81643933170298L203.8067775355445,121.6376819863857L203.96725531313155,119.50041904613698L204.12773309071858,125.25920673086182L204.2882108683056,124.0440024548731L204.44868864589264,124.29452623752812L204.60916642347973,122.89510308764247L204.76964420106677,123.06379681565507L204.9301219786538,125.59348915771014L205.09059975624083,126.89150706901225L205.41155531141493,123.29887259600781L205.57203308900196,122.85155553558434L205.73251086658902,122.08854765158273L205.89298864417606,123.1469768829831L206.05346642176312,130.43245534205397L206.21394419935015,120.01622032151104L206.37442197693719,120.74694361643148L206.69537753211125,125.30281214060646L207.01633308728537,129.29015175108725L207.33728864245944,123.58465099565232L207.4977664200465,125.0743128506221L207.65824419763354,118.5205219812471L207.9791997528076,128.88119433683013L208.30015530798173,125.302869998293L208.46063308556876,127.1578067141932L208.78158864074283,118.74992770832037L209.10254419591692,127.43749077085704L209.26302197350395,122.85390841483638L209.423499751091,120.02676970635416L209.7444553062651,128.6609494101234L210.2258886390262,128.10125343657208L210.38636641661327,123.64200724889452L210.86779974937437,129.86373356940467L211.1887553045485,125.11381036462345L211.6701886373096,124.36324188322479L212.15162197007075,132.81893062406314L212.31209974765778,127.28814079603944L212.47257752524482,129.1112943561417L212.63305530283188,127.40138757446519L212.7935330804189,128.85726054050411L212.95401085800594,127.94235694347779L213.11448863559298,130.2369542192846L213.27496641318,128.11666286708333L213.4354441907671,125.06800636279084L213.59592196835413,126.77174165790464L213.9168775235282,132.050136971409L214.07735530111526,134.01967047842052L214.2378330787023,125.36117126041509L214.7192664114634,129.45361900141705L214.87974418905048,133.43011993862208L215.20069974422455,131.50502113486206L215.36117752181158,132.27705481796164L215.52165529939862,130.089841408346L215.68213307698568,129.06134388677475L216.00308863215974,130.7369024885507L216.4845219649209,124.29348479917067L216.64499974250793,126.81542421123132L216.80547752009497,129.09457348473586L216.965955297682,128.38492967360617L217.12643307526906,127.7294792288553L217.28691085285612,129.06271318535588L217.44738863044316,128.38961614621473L217.6078664080302,130.67696192531037L217.76834418561725,128.81542943314625L217.92882196320429,125.34063178169859L218.08929974079132,130.6460852066013L218.24977751837835,128.21361306380442L218.41025529596538,126.22629796113407L218.57073307355247,132.88494624438863L218.89168862872654,129.48825646975027L219.05216640631357,133.36167429546254L219.2126441839006,125.7710158258656L219.37312196148767,134.62607689089336L220.9778997373581,126.94251826263215L221.45933307011924,131.74136978431835L221.61981084770628,126.7700830708909L221.7802886252933,128.02283698543465L221.94076640288034,132.32253095957063L222.26172195805444,134.74131011655646L222.4221997356415,126.86921257380445L222.58267751322853,138.9712084348473L222.74315529081557,130.5317584180271L222.9036330684026,125.35825909019331L223.2245886235767,130.4450683177165L223.38506640116373,130.44431616779167L223.54554417875076,131.36411838227718L223.70602195633785,131.3072442764227L223.86649973392488,131.36062763519013L224.02697751151192,137.6130763872453L224.18745528909895,132.35144051693783L224.34793306668598,133.121449181009L224.50841084427304,134.20485364709285L224.66888862186008,135.95942656276696L224.8293663994471,140.1437330240758L225.15032195462123,134.79062415137162L225.31079973220827,129.4234751467373L225.63175528738233,136.4831350552995L225.79223306496937,135.15233112163298L225.95271084255643,130.93969367982226L226.2736663977305,127.3269440178025L226.43414417531756,136.26719088329116L226.59462195290462,134.6038595392676L226.75509973049165,140.1296157485636L226.91557750807868,131.07448280353097L227.07605528566572,132.45020358783668L227.7179663960139,137.27898681935204L228.03892195118797,132.29209781645824L228.5203552839491,144.91793717130219L228.68083306153613,134.60052307934464L229.00178861671026,137.7032765205384L229.1622663942973,136.30364122580215L229.32274417188432,133.28800217462017L229.64369972705842,132.21360422173876L229.80417750464545,134.92516255843873L229.96465528223248,132.94390322695804L230.12513305981952,134.88404502921466L230.2856108374066,135.0968456002551L230.44608861499364,136.0692018800012L230.60656639258067,138.58684053736346L230.7670441701677,135.554229898134L230.92752194775474,136.49233442745702L231.40895528051587,134.1075177324616L231.56943305810293,134.65267214079955L231.72991083568996,137.48075585816167L232.05086639086406,137.2021132398553L232.2113441684511,137.4291275158855L232.37182194603812,130.94519016004216L232.5322997236252,141.80523220802604L232.69277750121222,143.05792826488323L233.17421083397335,138.84228222337316L233.3346886115604,137.43774831117778L233.49516638914744,131.26587603055702L233.65564416673448,139.3013636800568L233.8161219443215,132.02128527172832L233.9765997219086,137.32791513625705L234.13707749949563,138.52306208091696L234.4580330546697,140.1453530392985L234.61851083225673,135.14650678118943L234.7789886098438,135.37014602550568L234.93946638743083,137.69264999211322L235.09994416501786,138.57152753632977L235.2604219426049,141.37290028841267L235.42089972019193,137.31588073745974L235.58137749777902,136.91718341961314L236.06281083054012,140.50491927515841L236.22328860812718,133.64982486025457L236.54424416330124,137.56380092422114L237.18615527364943,138.70930597384228L237.34663305123647,142.36612390709888L237.66758860641056,140.37358232674575L237.8280663839976,135.29730319817017L238.30949971675872,135.375430360875L238.63045527193282,139.63738183750087L238.79093304951985,134.12271501812228L238.95141082710688,146.18247476800158L239.272366382281,139.61531877303918L239.43284415986804,129.73212661845488L239.59332193745507,149.7841928977905L239.7537997150421,134.5564740940033L240.0747552702162,143.37080334771716L240.23523304780323,140.61658461015247L240.39571082539027,138.72699114002353L240.5561886029773,142.49362296230538L240.7166663805644,137.04198244944845L241.03762193573846,140.37878951853304L241.1980997133255,138.39421301302485L241.35857749091255,134.03176273490433L241.67953304608662,136.21166679012225L241.84001082367368,135.5264582086018L242.3214441564348,141.77209903954247L242.64239971160887,136.60938052729796L242.8028774891959,139.73523847131088L243.12383304437003,136.10754224027204L243.28431082195706,142.45913978113623L243.4447885995441,133.04390059516945L243.60526637713116,136.1700671135105L243.7657441547182,142.94589649787451L243.92622193230522,138.097422367045L244.08669970989226,140.0242569014008L244.56813304265341,142.7766820506832L244.72861082024045,145.43913849741858L244.88908859782748,138.16069939020832L245.04956637541454,141.1678719332621L245.21004415300158,135.4423909900804L245.3705219305886,139.72625124400392L245.53099970817564,147.70584836832015L245.85195526334977,147.0343134867152L246.0124330409368,140.80577924509055L246.17291081852383,146.55444183467344L246.33338859611086,142.76815768486847L246.49386637369793,141.8090315294412L246.65434415128496,143.13391469318663L247.1357774840461,141.49268498541576L247.45673303922018,147.33814348455564L247.61721081680722,141.61329897592572L247.77768859439425,135.706742759815L247.93816637198128,136.74156605511303L248.09864414956834,139.75184362734365L248.2591219271554,143.23358420117438L248.41959970474244,143.84851497946198L248.58007748232947,142.17071921380705L248.74055525991653,143.8888610728657L248.90103303750357,142.455147600766L249.38246637026467,138.20818126495016L249.54294414785176,146.88120276227346L250.02437748061286,145.54926096077196L250.18485525819992,145.24894099591404L250.50581081337398,142.13467387510173L250.66628859096102,144.19415679876477L250.82676636854805,138.69952802481947L251.14772192372217,139.9616163127893L251.3081997013092,141.45608035574068L251.46867747889624,138.0744142937034L251.78963303407033,145.088270200433L251.95011081165737,139.66891427665723L252.1105885892444,140.47772616249148L252.43154414441852,146.31610673797977L252.59202192200556,145.12844272077712L252.7524996995926,140.1653910847318L253.07345525476666,142.71733935020364L253.23393303235372,137.67826271406392L253.39441080994078,146.42769492939178L253.71536636511485,146.21325505723308L253.8758441427019,145.45909939926986L254.19679969787597,141.64099352187588L254.357277475463,140.11283701947121L254.51775525305004,134.9291933106L254.67823303063713,143.61286062224397L254.83871080822416,144.10013805816098L254.9991885858112,145.80969769371836L255.32014414098526,145.63919109152795L255.48062191857233,143.9724461439994L255.96205525133342,145.85181808950884L256.28301080650755,146.374678002639L256.7644441392687,143.19433740381464L257.4063552496168,144.2704710872918L258.20874413755206,142.97226031703462L258.6901774703132,144.76127784208688L258.8506552479002,143.39466000046113L259.01113302548725,141.86557777507204L259.1716108030743,140.67710375025803L259.3320885806614,148.86234637838112L259.4925663582484,144.39690941824534L259.8135219134225,143.90573623143558L259.9739996910095,144.50286612816888L260.2949552461836,146.0664508206226L260.45543302377064,145.293279269688L260.77638857894476,145.99545943925594L260.93686635653177,140.32397900349795L261.0973441341188,146.75389656602204L261.2578219117059,143.1434804973588L261.57877746687996,144.57295107244664L261.73925524446696,147.06526734900632L261.899733022054,147.75269380851023L262.0602107996411,142.45067327300802L262.22068857722815,145.58312699328485L262.38116635481515,145.58393700089619L262.5416441324022,148.22271036794717L262.7021219099893,145.60563363334322L262.8625996875763,140.124890704164L263.1835552427504,143.31057349604419L263.50451079792447,146.45058728736032L263.66498857551153,140.24648827534492L263.9859441306856,145.92493091938144L264.4673774634467,138.78799242751683L264.7883330186208,145.63618249182863L265.430244128969,146.99014878600082L265.590721906556,143.07050266875476L265.7511996841431,150.5098054304012L265.9116774617301,150.52783774270162L266.39311079449124,151.86303886054404L266.5535885720783,147.32863553807L266.7140663496653,137.78765231338798L267.1954996824265,145.15787299732307L267.3559774600135,142.69759059320296L267.67693301518756,147.23776039843406L267.8374107927746,143.84936355886435L267.9978885703617,148.50426515647533L268.4793219031228,142.67340608023534L268.63979968070987,146.78321112719493L269.12123301347094,142.38081975947634L269.281710791058,148.33653572323817L269.44218856864507,143.36893261585283L269.6026663462321,148.88539302351373L269.76314412381913,148.02690067084967L269.9236219014062,146.09653681761583L270.08409967899325,146.5891950183797L270.4050552341673,150.76607640991776L270.5655330117543,143.52520622715798L270.7260107893414,147.4252193027764L270.88648856692845,147.8878879360246L271.0469663445155,147.7403701212803L271.2074441221025,146.77756035981093L271.3679218996896,153.3016123783119L271.5283996772766,146.2809292645723L271.68887745486364,144.48620311444955L272.33078856521183,150.55609157962152L272.6517441203859,148.24317270308165" fill="none"></path></g></g></g></g></g></g><g transform="translate(41, 177)" clip-path="url(#clip_1)"><clipPath id="clip_1"><rect width="288" height="22"></rect></clipPath><g><g><line x1="0" y1="0" x2="0" y2="5" style="visibility: inherit;" fill="rgb(0, 0, 0)" stroke="rgb(204, 204, 204)" stroke-width="1px"></line><line x1="32.095555517408584" y1="0" x2="32.095555517408584" y2="5" style="visibility: inherit;" fill="rgb(0, 0, 0)" stroke="rgb(204, 204, 204)" stroke-width="1px"></line><line x1="64.19111103481717" y1="0" x2="64.19111103481717" y2="5" style="visibility: inherit;" fill="rgb(0, 0, 0)" stroke="rgb(204, 204, 204)" stroke-width="1px"></line><line x1="96.28666655222574" y1="0" x2="96.28666655222574" y2="5" style="visibility: inherit;" fill="rgb(0, 0, 0)" stroke="rgb(204, 204, 204)" stroke-width="1px"></line><line x1="128.38222206963434" y1="0" x2="128.38222206963434" y2="5" style="visibility: inherit;" fill="rgb(0, 0, 0)" stroke="rgb(204, 204, 204)" stroke-width="1px"></line><line x1="160.4777775870429" y1="0" x2="160.4777775870429" y2="5" style="visibility: inherit;" fill="rgb(0, 0, 0)" stroke="rgb(204, 204, 204)" stroke-width="1px"></line><line x1="192.57333310445148" y1="0" x2="192.57333310445148" y2="5" style="visibility: inherit;" fill="rgb(0, 0, 0)" stroke="rgb(204, 204, 204)" stroke-width="1px"></line><line x1="224.66888862186008" y1="0" x2="224.66888862186008" y2="5" style="visibility: inherit;" fill="rgb(0, 0, 0)" stroke="rgb(204, 204, 204)" stroke-width="1px"></line><line x1="256.7644441392687" y1="0" x2="256.7644441392687" y2="5" style="visibility: inherit;" fill="rgb(0, 0, 0)" stroke="rgb(204, 204, 204)" stroke-width="1px"></line><line x1="288.85999965667725" y1="0" x2="288.85999965667725" y2="5" style="visibility: inherit;" fill="rgb(0, 0, 0)" stroke="rgb(204, 204, 204)" stroke-width="1px"></line></g><g transform="translate(0, 8)"><text style="text-anchor: middle; visibility: hidden; font-family: &quot;Helvetica Neue&quot;, sans-serif; font-size: 12px; font-weight: 200;" x="0" y="0" dx="0em" dy="0.95em" fill="rgb(50, 49, 63)" stroke="none" stroke-width="1px">-200</text><text style="text-anchor: middle; visibility: inherit; font-family: &quot;Helvetica Neue&quot;, sans-serif; font-size: 12px; font-weight: 200;" x="32.095555517408584" y="0" dx="0em" dy="0.95em" fill="rgb(50, 49, 63)" stroke="none" stroke-width="1px">0</text><text style="text-anchor: middle; visibility: hidden; font-family: &quot;Helvetica Neue&quot;, sans-serif; font-size: 12px; font-weight: 200;" x="64.19111103481717" y="0" dx="0em" dy="0.95em" fill="rgb(50, 49, 63)" stroke="none" stroke-width="1px">200</text><text style="text-anchor: middle; visibility: inherit; font-family: &quot;Helvetica Neue&quot;, sans-serif; font-size: 12px; font-weight: 200;" x="96.28666655222574" y="0" dx="0em" dy="0.95em" fill="rgb(50, 49, 63)" stroke="none" stroke-width="1px">400</text><text style="text-anchor: middle; visibility: hidden; font-family: &quot;Helvetica Neue&quot;, sans-serif; font-size: 12px; font-weight: 200;" x="128.38222206963434" y="0" dx="0em" dy="0.95em" fill="rgb(50, 49, 63)" stroke="none" stroke-width="1px">600</text><text style="text-anchor: middle; visibility: inherit; font-family: &quot;Helvetica Neue&quot;, sans-serif; font-size: 12px; font-weight: 200;" x="160.4777775870429" y="0" dx="0em" dy="0.95em" fill="rgb(50, 49, 63)" stroke="none" stroke-width="1px">800</text><text style="text-anchor: middle; visibility: hidden; font-family: &quot;Helvetica Neue&quot;, sans-serif; font-size: 12px; font-weight: 200;" x="192.57333310445148" y="0" dx="0em" dy="0.95em" fill="rgb(50, 49, 63)" stroke="none" stroke-width="1px">1k</text><text style="text-anchor: middle; visibility: inherit; font-family: &quot;Helvetica Neue&quot;, sans-serif; font-size: 12px; font-weight: 200;" x="224.66888862186008" y="0" dx="0em" dy="0.95em" fill="rgb(50, 49, 63)" stroke="none" stroke-width="1px">1.2k</text><text style="text-anchor: middle; visibility: hidden; font-family: &quot;Helvetica Neue&quot;, sans-serif; font-size: 12px; font-weight: 200;" x="256.7644441392687" y="0" dx="0em" dy="0.95em" fill="rgb(50, 49, 63)" stroke="none" stroke-width="1px">1.4k</text><text style="text-anchor: middle; visibility: hidden; font-family: &quot;Helvetica Neue&quot;, sans-serif; font-size: 12px; font-weight: 200;" x="288.85999965667725" y="0" dx="0em" dy="0.95em" fill="rgb(50, 49, 63)" stroke="none" stroke-width="1px">1.6k</text></g><line x1="0" y1="0" x2="288.85999965667725" y2="0" fill="rgb(0, 0, 0)" stroke="rgb(204, 204, 204)" stroke-width="1px"></line></g></g></g></g></svg>