<svg viewBox="0 0 330 200" xmlns="http://www.w3.org/2000/svg"><g><g><g><g><g><line x1="72.28000068664551" y1="177.95999908447266" x2="67.28000068664551" y2="177.95999908447266" style="visibility: inherit;" fill="rgb(0, 0, 0)" stroke="rgb(204, 204, 204)" stroke-width="1px"></line><line x1="72.28000068664551" y1="161.78181734952057" x2="67.28000068664551" y2="161.78181734952057" style="visibility: inherit;" fill="rgb(0, 0, 0)" stroke="rgb(204, 204, 204)" stroke-width="1px"></line><line x1="72.28000068664551" y1="145.60363561456853" x2="67.28000068664551" y2="145.60363561456853" style="visibility: inherit;" fill="rgb(0, 0, 0)" stroke="rgb(204, 204, 204)" stroke-width="1px"></line><line x1="72.28000068664551" y1="129.4254538796165" x2="67.28000068664551" y2="129.4254538796165" style="visibility: inherit;" fill="rgb(0, 0, 0)" stroke="rgb(204, 204, 204)" stroke-width="1px"></line><line x1="72.28000068664551" y1="113.24727214466438" x2="67.28000068664551" y2="113.24727214466438" style="visibility: inherit;" fill="rgb(0, 0, 0)" stroke="rgb(204, 204, 204)" stroke-width="1px"></line><line x1="72.28000068664551" y1="97.06909040971235" x2="67.28000068664551" y2="97.06909040971235" style="visibility: inherit;" fill="rgb(0, 0, 0)" stroke="rgb(204, 204, 204)" stroke-width="1px"></line><line x1="72.28000068664551" y1="80.89090867476024" x2="67.28000068664551" y2="80.89090867476024" style="visibility: inherit;" fill="rgb(0, 0, 0)" stroke="rgb(204, 204, 204)" stroke-width="1px"></line><line x1="72.28000068664551" y1="64.7127269398082" x2="67.28000068664551" y2="64.7127269398082" style="visibility: inherit;" fill="rgb(0, 0, 0)" stroke="rgb(204, 204, 204)" stroke-width="1px"></line><line x1="72.28000068664551" y1="48.53454520485619" x2="67.28000068664551" y2="48.53454520485619" style="visibility: inherit;" fill="rgb(0, 0, 0)" stroke="rgb(204, 204, 204)" stroke-width="1px"></line><line x1="72.28000068664551" y1="32.35636346990407" x2="67.28000068664551" y2="32.35636346990407" style="visibility: inherit;" fill="rgb(0, 0, 0)" stroke="rgb(204, 204, 204)" stroke-width="1px"></line><line x1="72.28000068664551" y1="16.178181734951977" x2="67.28000068664551" y2="16.178181734951977" style="visibility: inherit;" fill="rgb(0, 0, 0)" stroke="rgb(204, 204, 204)" stroke-width="1px"></line><line x1="72.28000068664551" y1="0" x2="67.28000068664551" y2="0" style="visibility: inherit;" fill="rgb(0, 0, 0)" stroke="rgb(204, 204, 204)" stroke-width="1px"></line></g><g transform="translate(62.28000068664551, 0)"><text style="text-anchor: end; visibility: hidden; font-family: &quot;Helvetica Neue&quot;, sans-serif; font-size: 12px; font-weight: 200;" x="0" y="177.95999908447266" dx="0em" dy="0.3em" fill="rgb(50, 49, 63)" stroke="none" stroke-width="1px">6.2e-3</text><text style="text-anchor: end; visibility: inherit; font-family: &quot;Helvetica Neue&quot;, sans-serif; font-size: 12px; font-weight: 200;" x="0" y="161.78181734952057" dx="0em" dy="0.3em" fill="rgb(50, 49, 63)" stroke="none" stroke-width="1px">6.4e-3</text><text style="text-anchor: end; visibility: hidden; font-family: &quot;Helvetica Neue&quot;, sans-serif; font-size: 12px; font-weight: 200;" x="0" y="145.60363561456853" dx="0em" dy="0.3em" fill="rgb(50, 49, 63)" stroke="none" stroke-width="1px">6.6e-3</text><text style="text-anchor: end; visibility: inherit; font-family: &quot;Helvetica Neue&quot;, sans-serif; font-size: 12px; font-weight: 200;" x="0" y="129.4254538796165" dx="0em" dy="0.3em" fill="rgb(50, 49, 63)" stroke="none" stroke-width="1px">6.8e-3</text><text style="text-anchor: end; visibility: hidden; font-family: &quot;Helvetica Neue&quot;, sans-serif; font-size: 12px; font-weight: 200;" x="0" y="113.24727214466438" dx="0em" dy="0.3em" fill="rgb(50, 49, 63)" stroke="none" stroke-width="1px">7e-3</text><text style="text-anchor: end; visibility: inherit; font-family: &quot;Helvetica Neue&quot;, sans-serif; font-size: 12px; font-weight: 200;" x="0" y="97.06909040971235" dx="0em" dy="0.3em" fill="rgb(50, 49, 63)" stroke="none" stroke-width="1px">7.2e-3</text><text style="text-anchor: end; visibility: hidden; font-family: &quot;Helvetica Neue&quot;, sans-serif; font-size: 12px; font-weight: 200;" x="0" y="80.89090867476024" dx="0em" dy="0.3em" fill="rgb(50, 49, 63)" stroke="none" stroke-width="1px">7.4e-3</text><text style="text-anchor: end; visibility: inherit; font-family: &quot;Helvetica Neue&quot;, sans-serif; font-size: 12px; font-weight: 200;" x="0" y="64.7127269398082" dx="0em" dy="0.3em" fill="rgb(50, 49, 63)" stroke="none" stroke-width="1px">7.6e-3</text><text style="text-anchor: end; visibility: hidden; font-family: &quot;Helvetica Neue&quot;, sans-serif; font-size: 12px; font-weight: 200;" x="0" y="48.53454520485619" dx="0em" dy="0.3em" fill="rgb(50, 49, 63)" stroke="none" stroke-width="1px">7.8e-3</text><text style="text-anchor: end; visibility: inherit; font-family: &quot;Helvetica Neue&quot;, sans-serif; font-size: 12px; font-weight: 200;" x="0" y="32.35636346990407" dx="0em" dy="0.3em" fill="rgb(50, 49, 63)" stroke="none" stroke-width="1px">8e-3</text><text style="text-anchor: end; visibility: hidden; font-family: &quot;Helvetica Neue&quot;, sans-serif; font-size: 12px; font-weight: 200;" x="0" y="16.178181734951977" dx="0em" dy="0.3em" fill="rgb(50, 49, 63)" stroke="none" stroke-width="1px">8.2e-3</text><text style="text-anchor: end; visibility: hidden; font-family: &quot;Helvetica Neue&quot;, sans-serif; font-size: 12px; font-weight: 200;" x="0" y="0" dx="0em" dy="0.3em" fill="rgb(50, 49, 63)" stroke="none" stroke-width="1px">8.4e-3</text></g><line x1="72.28000068664551" y1="0" x2="72.28000068664551" y2="177.95999908447266" fill="rgb(0, 0, 0)" stroke="rgb(204, 204, 204)" stroke-width="1px"></line></g></g><g transform="translate(72, 0)" clip-path="url(#clip_0)"><clipPath id="clip_0"><rect width="257" height="177"></rect></clipPath><g><g><g><line x1="0" y1="0" x2="0" y2="177.95999908447266" fill="rgb(0, 0, 0)" stroke="rgb(60, 60, 60)" stroke-width="1px" opacity="0.25"></line><line x1="28.63555547926161" y1="0" x2="28.63555547926161" y2="177.95999908447266" fill="rgb(0, 0, 0)" stroke="rgb(60, 60, 60)" stroke-width="1px" opacity="0.25"></line><line x1="57.27111095852322" y1="0" x2="57.27111095852322" y2="177.95999908447266" fill="rgb(0, 0, 0)" stroke="rgb(60, 60, 60)" stroke-width="1px" opacity="0.25"></line><line x1="85.90666643778482" y1="0" x2="85.90666643778482" y2="177.95999908447266" fill="rgb(0, 0, 0)" stroke="rgb(60, 60, 60)" stroke-width="1px" opacity="0.25"></line><line x1="114.54222191704643" y1="0" x2="114.54222191704643" y2="177.95999908447266" fill="rgb(0, 0, 0)" stroke="rgb(60, 60, 60)" stroke-width="1px" opacity="0.25"></line><line x1="143.17777739630804" y1="0" x2="143.17777739630804" y2="177.95999908447266" fill="rgb(0, 0, 0)" stroke="rgb(60, 60, 60)" stroke-width="1px" opacity="0.25"></line><line x1="171.81333287556964" y1="0" x2="171.81333287556964" y2="177.95999908447266" fill="rgb(0, 0, 0)" stroke="rgb(60, 60, 60)" stroke-width="1px" opacity="0.25"></line><line x1="200.44888835483127" y1="0" x2="200.44888835483127" y2="177.95999908447266" fill="rgb(0, 0, 0)" stroke="rgb(60, 60, 60)" stroke-width="1px" opacity="0.25"></line><line x1="229.08444383409287" y1="0" x2="229.08444383409287" y2="177.95999908447266" fill="rgb(0, 0, 0)" stroke="rgb(60, 60, 60)" stroke-width="1px" opacity="0.25"></line><line x1="257.7199993133545" y1="0" x2="257.7199993133545" y2="177.95999908447266" fill="rgb(0, 0, 0)" stroke="rgb(60, 60, 60)" stroke-width="1px" opacity="0.25"></line></g><g><line x1="0" y1="177.95999908447266" x2="257.7199993133545" y2="177.95999908447266" fill="rgb(0, 0, 0)" stroke="rgb(60, 60, 60)" stroke-width="1px" opacity="0.25"></line><line x1="0" y1="161.78181734952057" x2="257.7199993133545" y2="161.78181734952057" fill="rgb(0, 0, 0)" stroke="rgb(60, 60, 60)" stroke-width="1px" opacity="0.25"></line><line x1="0" y1="145.60363561456853" x2="257.7199993133545" y2="145.60363561456853" fill="rgb(0, 0, 0)" stroke="rgb(60, 60, 60)" stroke-width="1px" opacity="0.25"></line><line x1="0" y1="129.4254538796165" x2="257.7199993133545" y2="129.4254538796165" fill="rgb(0, 0, 0)" stroke="rgb(60, 60, 60)" stroke-width="1px" opacity="0.25"></line><line x1="0" y1="113.24727214466438" x2="257.7199993133545" y2="113.24727214466438" fill="rgb(0, 0, 0)" stroke="rgb(60, 60, 60)" stroke-width="1px" opacity="0.25"></line><line x1="0" y1="97.06909040971235" x2="257.7199993133545" y2="97.06909040971235" fill="rgb(0, 0, 0)" stroke="rgb(60, 60, 60)" stroke-width="1px" opacity="0.25"></line><line x1="0" y1="80.89090867476024" x2="257.7199993133545" y2="80.89090867476024" fill="rgb(0, 0, 0)" stroke="rgb(60, 60, 60)" stroke-width="1px" opacity="0.25"></line><line x1="0" y1="64.7127269398082" x2="257.7199993133545" y2="64.7127269398082" fill="rgb(0, 0, 0)" stroke="rgb(60, 60, 60)" stroke-width="1px" opacity="0.25"></line><line x1="0" y1="48.53454520485619" x2="257.7199993133545" y2="48.53454520485619" fill="rgb(0, 0, 0)" stroke="rgb(60, 60, 60)" stroke-width="1px" opacity="0.25"></line><line x1="0" y1="32.35636346990407" x2="257.7199993133545" y2="32.35636346990407" fill="rgb(0, 0, 0)" stroke="rgb(60, 60, 60)" stroke-width="1px" opacity="0.25"></line><line x1="0" y1="16.178181734951977" x2="257.7199993133545" y2="16.178181734951977" fill="rgb(0, 0, 0)" stroke="rgb(60, 60, 60)" stroke-width="1px" opacity="0.25"></line><line x1="0" y1="0" x2="257.7199993133545" y2="0" fill="rgb(0, 0, 0)" stroke="rgb(60, 60, 60)" stroke-width="1px" opacity="0.25"></line></g></g></g><g><g><line x1="0" y1="679.4836328679866" x2="257.7199993133545" y2="679.4836328679866" fill="rgb(0, 0, 0)" stroke="rgb(153, 153, 153)" stroke-width="1.5px"></line></g></g><g><g><line x1="28.63555547926161" y1="0" x2="28.63555547926161" y2="177.95999908447266" fill="rgb(0, 0, 0)" stroke="rgb(153, 153, 153)" stroke-width="1.5px"></line></g></g><g><g><g><g><g><path style="fill: none;" stroke="rgb(0, 119, 187)" stroke-width="2px" d="M34.64902212990655,-11.427245538509283L34.79219990730286,3.322019729240253L34.93537768469917,-14.548999202884318L35.07855546209547,0.8113125432605557L35.36491101688809,6.762894695857L35.65126657168071,20.640452553729546L35.79444434907701,2.4645507344066004L36.223977681265936,11.429478724672236L36.367155458662246,19.170129027796634L36.51033323605855,11.348719037230524L36.65351101345486,40.847400243788286L36.79668879085117,36.73091625014044L37.22622212304009,32.65729817268132L37.3693999004364,36.66318960927279L37.65575545522902,13.53744217085395L37.79893323262532,38.24478371202605L37.942111010021634,41.1765411714309L38.085288787417944,20.791424954506795L38.228466564814255,41.46424755794203L38.37164434221055,31.93166635417512L38.51482211960686,24.29656112764198L38.80117767439948,35.45925251505065L38.94435545179579,36.131697449849895L39.0875332291921,45.51240222648761L39.23071100658841,32.92247923592279L39.51706656138102,25.725224105855403L39.803422116173635,44.48467493536825L39.946599893569946,17.741993398288542L40.23295544836257,34.91736405258021L40.37613322575887,39.82795986089522L40.662488780551485,29.09859843819251L40.805666557947795,32.01430942985007L40.9488443353441,39.69687603986108L41.09202211274041,38.25126256754842L41.23519989013672,22.727548058286857L41.37837766753303,54.63553482834615L41.66473322232564,29.95983420949264L41.80791099972195,25.184088998678277L41.95108877711826,27.550754652579087L42.09426655451457,50.17231906095715L42.81015544149611,29.096187701253967L42.95333321889241,41.295797314360215L43.23968877368503,47.854847507708826L43.526044328477646,14.8872288498589L43.669222105873956,44.343194811286565L43.81239988327027,24.79550833839434L44.241933215459184,56.94694187148342L44.81464432504442,53.979324700117516L45.244177657233344,47.601343451513486L45.53053321202596,37.71916772389088L45.67371098942227,47.28813598832417L45.81688876681858,29.353081856269142L46.38959987640381,57.105937506134325L46.53277765380012,77.85074320784433L46.67595543119643,57.174643508883236L46.81913320859273,60.10658930711142L47.10548876338535,18.28908001228274L47.248666540781656,59.504733763294325L47.67819987297058,41.912945970631284L48.107733205159505,58.01470999644165L48.250910982555816,35.098169322972126L48.53726653734843,52.57902554869682L48.82362209214104,64.83148303562805L48.966799869537354,45.73147794577912L49.109977646933665,49.45079302879941L49.253155424329975,47.872815031453996L49.39633320172628,74.91619833385427L49.53951097912258,36.99978875431907L49.8258665339152,52.881422363427276L49.96904431131151,51.27349849317322L50.11222208870782,43.504936376432056L50.25539986610413,76.90174154487478L50.54175542089675,61.5264756961579L50.684933198293045,41.55126009431814L50.828110975689356,48.6434221609702L51.11446653048198,64.42436983512893L51.25764430787828,40.59713561535415L51.40082208527459,59.60218027048265L51.687177640067205,42.121926728992605L51.830355417463515,73.92131733352278L52.11671097225613,51.91317247271394L52.25988874965244,58.323434995635836L52.546244304445054,71.63431900188841L52.689422081841364,74.27927410113409L52.83259985923767,45.56054162972944L53.11895541403029,61.99415866223832L53.691666523615524,39.39832133712645L53.83484430101183,54.89898317441303L53.97802207840813,70.33839722635437L54.12119985580444,79.35639909703296L54.40755541059706,79.72934763498097L54.550733187993366,47.18628235267008L54.83708874278599,63.0496094281511L55.123444297578594,71.51596688531103L55.266622074974904,87.82648566289475L55.409799852371215,40.471701959019754L55.552977629767526,80.3477016597213L55.83933318456014,50.60926513107093L55.98251096195645,80.94816349624577L56.98475540373061,75.27841155887272L57.55746651331584,78.92977399443738L57.98699984550476,83.8839137387051L58.13017762290107,51.456149484033716L58.27335540029738,74.03104353199186L58.41653317769368,85.53240579150336L58.989244287278915,62.18200780462257L59.132422064675225,51.350717410736436L59.275599842071536,73.21847451263888L59.418777619467846,75.26014269301021L59.848310951656764,51.24916511719965L59.991488729053074,63.58253296263126L60.134666506449385,87.84091241676143L60.27784428384569,73.28525945938989L60.421022061242,54.29565858777403L60.5641998386383,82.7889118198941L60.85055539343092,81.67356930816398L60.99373317082723,85.18250992553034L61.13691094822354,79.9683119340156L61.42326650301616,64.59553215776661L61.56644428041246,84.72759633167138L61.709622057808765,70.57065666327867L61.852799835205076,73.30123059160785L61.995977612601386,71.3892901927427L62.1391553899977,73.06407434527712L62.56868872218662,78.82886205289991L62.71186649958293,59.96450649879512L62.99822205437554,55.57530788897279L63.570933163960774,88.26945857535493L63.714110941357085,81.23986266581139L64.0004664961497,58.74761169352821L64.143644273546,68.92966049564873L64.28682205094232,93.72435358307891L64.42999982833862,59.93489963576843L64.57317760573493,100.4130185546397L64.71635538313124,84.117453879628L65.14588871532015,88.65114603470518L65.57542204750908,95.72485089667143L65.7185998249054,72.49088397037009L65.8617776023017,75.74888193953835L66.00495537969802,84.58634221417769L66.29131093449064,59.813797772370506L66.86402204407585,105.10627136083777L67.15037759886847,92.4175458235567L67.4367331536611,89.05501980744312L67.57991093105741,69.8240062320894L67.7230887084537,65.90610669375532L67.86626648585,67.37729657827552L68.00944426324632,65.77118076072536L68.29579981803894,71.75033571705656L68.43897759543525,80.07600407319279L68.72533315022787,80.32698438915556L69.01168870502048,80.89087082619032L69.2980442598131,107.48502836719602L70.01393314679464,70.01151636459167L70.30028870158725,70.69575130973105L70.44346647898355,85.4220015732703L70.72982203377617,61.76875475848307L70.87299981117249,57.684024690447785L71.0161775885688,60.90427955942174L71.1593553659651,89.28920030036531L71.30253314336142,89.84182407576526L71.44571092075772,45.438272065626904L71.58888869815402,76.70504047779426L71.73206647555033,93.28586313461386L71.87524425294664,97.32064574670338L72.01842203034295,58.78995026101164L72.59113313992819,65.43420493803242L72.73431091732449,96.5650680552885L73.0206664721171,74.64574378355971L73.45019980430602,77.49757024634546L74.02291091389127,89.79281831393612L74.16608869128757,81.12490064805387L74.30926646868387,97.15931471064326L74.45244424608018,62.176206968864165L74.7387998008728,96.97357496308022L74.88197757826912,97.94868038696261L75.02515535566542,63.089499590931325L75.16833313306174,79.37398994313152L75.31151091045804,63.267969459914L75.45468868785434,78.10910640568144L75.88422202004327,84.41374851648274L76.02739979743957,74.5600119511822L76.31375535223219,79.94642696274524L76.60011090702481,76.1373495965283L76.88646646181742,59.73115469669554L77.17282201661004,71.96184021565043L77.45917757140266,100.16456197890949L77.60235534879897,86.61000520303917L77.74553312619528,88.42235203213009L77.88871090359159,67.8860750756054L78.03188868098788,84.54871211727736L78.1750664583842,72.12705103147103L78.3182442357805,76.9024572324034L78.46142201317681,100.47234528398705L78.60459979057312,100.08632603170032L78.89095534536574,90.41734985208151L79.17731090015836,94.36786967461546L79.32048867755465,93.021849772077L79.60684423234727,105.38930694453043L79.89319978713989,88.8437789832019L80.0363775645362,99.07826131373608L80.17955534193251,66.25340348396645L80.32273311932882,98.87285899301794L80.46591089672513,80.74042577411839L80.60908867412142,66.15283055231095L80.75226645151774,93.38632306297536L80.89544422891404,77.61400130692492L81.03862200631036,86.34678286356026L81.18179978370667,88.31676928777414L81.32497756110297,93.72849703719206L81.61133311589559,101.50839715109737L81.75451089329191,87.25141189975447L82.04086644808451,91.94843148241902L82.32722200287712,89.5481285146724L82.47039978027344,91.56651801648077L82.61357755766974,73.08015848078907L82.75675533506606,81.65025296183637L82.89993311246236,77.68688843155167L83.18628866725497,104.43412776815583L83.32946644465127,93.53819949010457L83.6158219994439,115.84919317881986L83.75899977684021,79.9437902192187L83.90217755423652,85.59293788932L84.04535533163283,103.90553602661214L84.18853310902914,92.70280380536461L84.47488866382174,103.64762484195101L84.61806644121805,97.40890131931343L84.76124421861437,86.15674899082543L84.90442199601067,89.15201430145545L85.62031088299221,66.90788089502051L85.76348866038852,101.23007003798783L86.19302199257744,96.2292599333002L86.33619976997376,92.54444852271303L86.62255532476638,92.48858722771486L86.76573310216268,82.5352570926401L87.05208865695529,87.69939462491509L87.33844421174791,67.51881437012185L88.05433309872946,111.26788896920613L88.19751087612576,80.46929320405985L88.62704420831469,93.75870658445338L88.77022198571099,85.80372670038523L88.9133997631073,73.44033764651562L89.05657754050361,71.98029742033627L89.19975531789991,91.71153891044095L89.34293309529623,74.92979639689833L89.62928865008884,100.28935528324457L89.91564420488146,95.96596225829197L90.20199975967407,127.12413450493017L90.48835531446669,91.62546806818148L90.91788864665561,120.443831777125L91.06106642405192,104.50102571820084L91.49059975624084,88.59603809500031L91.63377753363716,90.79259612367406L91.77695531103346,80.46846451323722L91.92013308842978,84.34440216173451L92.20648864322237,88.55803132045335L92.34966642061869,100.87780110284092L92.77919975280761,83.7758072541166L92.92237753020393,88.12236595433818L93.20873308499655,84.44546477433066L93.63826641718546,90.89727484167804L94.06779974937439,99.45682234861914L94.2109775267707,90.11039523782658L94.35415530416701,91.64618533874722L94.49733308156331,92.58023289914476L94.64051085895963,93.3975857246102L94.92686641375224,110.80717453958874L95.07004419114854,99.6480239220586L95.21322196854486,94.31279940267525L95.35639974594116,125.25588871307639L95.49957752333748,110.82672410944987L95.64275530073378,106.13113590184258L95.78593307813009,90.76419462911666L96.07228863292269,118.41222088991921L96.35864418771531,103.96885553901397L96.50182196511163,98.82852403400726L96.93135529730056,103.51744504726884L97.07453307469686,79.67589707692136L97.64724418428209,76.01963783195023L98.07677751647101,108.97222705169882L98.21995529386733,80.58952870887049L98.50631084865995,93.2547495610006L98.64948862605624,93.2611907487583L98.93584418084886,110.07675891497009L99.07902195824516,103.18943415256618L99.22219973564148,119.55430751456146L99.6517330678304,110.22652594727805L99.79491084522672,102.50128175990163L100.08126640001932,99.18870319973381L100.65397750960456,84.7138852653333L101.0835108417935,95.8170615845713L101.22668861918979,107.94920823116259L101.36986639658609,81.30736330009104L101.51304417398241,110.64531615482332L101.65622195137871,107.29469315234387L101.79939972877503,87.06540847783879L101.94257750617133,104.54242259156766L102.22893306096395,93.93235497955894L102.37211083836026,100.53291504956835L102.51528861575656,104.25874665587567L102.65846639315286,108.28230427409503L102.80164417054918,109.2864515445341L102.94482194794548,101.00202939070603L103.0879997253418,96.36979836326525L103.66071083492703,97.9705276904683L103.80388861232333,121.6843819386015L104.66295527670118,110.20407595953772L104.9493108314938,106.99674113384386L105.09248860889011,99.94379121020803L105.23566638628641,107.00039490701636L105.37884416368273,88.24245078809012L105.52202194107903,95.78014717519962L105.66519971847534,95.40991071630751L105.80837749587165,110.2074283905929L105.95155527326796,103.55582849946245L106.09473305066427,110.20162755483449L106.23791082806058,102.0212437670111L106.38108860545688,102.74077340764158L106.52426638285318,107.48318264672743L106.66744416024949,112.99917476873802L106.8106219376458,96.46133103140114L106.95379971504211,90.19349032667753L107.09697749243843,109.76927695200985L107.24015526983473,119.26347470358313L107.52651082462735,96.5675541277564L107.66968860202365,75.85201627919106L107.81286637941996,106.45138723702425L108.09922193421258,92.43664338024185L108.3855774890052,99.96044036218996L108.67193304379782,102.94869946859228L108.81511082119412,121.22645492356932L109.24464415338304,104.31279989816993L109.38782193077935,104.17907933360924L109.53099970817566,114.13335116280061L109.81735526296828,119.19781978977207L109.9605330403646,113.28518610583922L110.1037108177609,95.89672890683774L110.3900663725535,125.08770214384725L110.67642192734613,70.60184557242125L110.81959970474243,82.86081958263955L111.10595525953505,105.01756377505173L111.24913303693135,103.99473329333881L111.39231081432767,109.74965204661937L111.53548859172396,91.07608372054271L111.67866636912028,115.93281561637612L111.82184414651658,115.16476989485714L111.9650219239129,139.97253369662607L112.1081997013092,97.24900165831058L112.2513774787055,93.8967966097152L112.53773303349813,95.80749397234639L112.68091081089445,111.58241480415873L112.82408858829073,82.77802583590591L113.25362192047967,132.5231305498913L113.39679969787598,113.3175803834511L113.53997747527228,108.76317095780817L113.8263330300649,105.91119382396376L113.96951080746122,103.83543631657061L114.11268858485751,104.97789961885951L114.25586636225383,109.66787532953171L114.54222191704643,87.13253243447178L114.82857747183905,106.82377075850226L114.97175524923537,97.54356357799074L115.11493302663168,89.2264081366688L115.40128858142428,126.16767462455695L115.6876441362169,119.15111176158749L115.97399969100952,101.61462024745262L116.11717746840583,105.55357606623441L116.26035524580215,107.01474632535373L116.68988857799106,116.76075308371242L117.2625996875763,128.50816118201558L117.4057774649726,94.98241925512464L117.54895524236892,126.37514867233166L117.69213301976522,110.19578905131142L117.83531079716153,127.53211406401658L118.12166635195413,100.05815054373092L118.26484412935045,117.89184072107248L118.69437746153937,117.30987375699851L118.83755523893569,99.62429323031965L119.1239107937283,108.34343905614628L119.4102663485209,109.97806937154783L119.55344412591722,93.06388699744312L119.98297745810615,117.79567491788279L120.26933301289877,97.97064069376229L120.41251079029507,89.27861565849446L120.55568856769138,111.62196595705696L120.842044122484,99.29526530597104L120.9852218998803,112.27309093705583L121.1283996772766,94.00844386418221L121.27157745467292,109.5605222002365L121.41475523206923,114.98113954211536L121.55793300946554,110.56361477326497L121.70111078686185,126.65486949273382L121.84428856425815,95.0719555317333L121.98746634165445,106.72963901460449L122.5601774512397,104.49831363914495L122.703355228636,108.53938676793352L122.98971078342862,127.63995687425242L123.27606633822123,119.35157960513452L123.41924411561753,122.84421008040096L123.56242189301385,111.46711377651921L123.70559967041015,104.77419234755128L123.84877744780647,103.06437717387844L123.99195522520277,107.83051710470323L124.13513300259909,103.98207692441139L124.2783107799954,100.19567555252276L124.42148855739168,112.51446597302903L124.7078441121843,125.64224697524511L124.85102188958062,87.26478395621054L124.99419966697693,121.31346745994543L125.13737744437324,104.03484946270703L125.28055522176955,114.39774120298412L125.56691077656217,98.67242881723557L125.71008855395846,124.68096562099478L125.85326633135477,116.28323883105443L126.1396218861474,121.62219245913961L126.2827996635437,93.01522024549597L126.42597744094002,101.13902705079256L126.56915521833632,121.45811167625895L126.71233299573262,92.0853914747409L126.85551077312894,122.34213644518141L126.99868855052523,91.20260974205239L127.14186632792155,88.99644643338908L127.28504410531785,105.02799774586393L127.71457743750679,113.80918238009379L128.0009329922994,117.84027355124613L128.287288547092,114.38926595593449L128.71682187928096,87.61968963488398L128.85999965667725,98.36095407122083L129.00317743407354,114.96897285412857L129.14635521146985,125.35265720050074L129.28953298886617,106.7039119313383L129.4327107662625,126.85650503698545L129.57588854365878,109.23767178929296L129.7190663210551,94.32952389018651L129.8622440984514,101.9160377003018L130.00542187584773,121.52802304747715L130.14859965324402,110.71748759192141L130.2917774306403,100.41994942333807L130.43495520803663,111.1882216469397L130.86448854022555,102.57126846664916L131.00766631762187,103.56505710180537L131.4371996498108,107.86694183313426L131.58037742720708,117.70399157868823L131.86673298199972,111.80710302038534L132.00991075939604,106.07086747837862L132.15308853679232,116.54431410794743L132.29626631418864,115.48249748980626L132.43944409158493,116.80783778954364L132.58262186898128,118.99599590669709L133.01215520117017,104.2491413758861L133.1553329785665,107.55166264288837L133.2985107559628,119.80189773170437L133.87122186554805,111.21828052314235L134.01439964294434,94.32711315324795L134.30075519773695,107.66666232841055L134.44393297513324,124.802820839686L134.58711075252958,113.08701599593675L134.73028852992587,106.10544648634107L135.01664408471848,123.16261569511403L135.4461774169074,118.28512985193956L135.58935519430372,97.5717767337248L135.87571074909636,124.84681678881469L136.01888852649265,117.84291029477268L136.16206630388896,138.33507829887466L136.30524408128525,128.17126069485198L136.4484218586816,113.74752024933721L136.5915996360779,98.79334234181016L136.73477741347418,92.13646896362661L136.8779551908705,102.69410304722166L137.30748852305942,86.91289169871028L137.45066630045574,123.29272015426687L137.73702185524837,117.20805778910906L138.02337741004095,114.67090783233456L138.16655518743727,99.57879057060435L138.30973296483356,109.70591977184334L138.4529107422299,120.92462312530881L138.7392662970225,133.84609778045478L138.8824440744188,103.45310850522105L139.02562185181512,100.2062978621583L139.16879962921143,133.17312549695023L139.31197740660772,119.53954175081279L139.45515518400404,109.17450294794978L139.59833296140033,124.23351024453947L139.74151073879668,111.7605833310241L140.17104407098557,108.29300191925988L140.3142218483819,124.91695416662088L140.74375518057082,119.22072179068837L140.8869329579671,111.99295577124236L141.03011073536345,117.39737597431528L141.31646629015606,119.07781029154944L141.60282184494866,97.79269817348492L141.74599962234498,111.42059408715797L141.88917739974127,99.49878423845594L142.0323551771376,111.13040162817896L142.17553295453388,120.88627734087987L142.3187107319302,89.90386288416849L142.4618885093265,110.94903134131707L142.60506628672283,121.77418188956281L142.89142184151544,90.20787941277955L143.03459961891176,101.099626568953L143.17777739630804,93.62460934224605L143.46413295110065,121.45231084050054L143.8936662832896,111.829628343655L144.0368440606859,130.81655480397967L144.1800218380822,121.68796037624466L144.32319961547853,106.63057279353558L144.46637739287482,124.18842193023548L144.75273294766743,135.29333096664806L144.89591072506374,97.85356928118354L145.03908850246006,111.16746670860928L145.32544405725267,108.01840391485216L145.46862183464899,109.85282405403676L145.7549773894416,137.96122573457473L146.18451072163052,122.0258025575249L146.47086627642315,117.87379786179795L146.61404405381944,136.5132768608528L146.75722183121576,117.35149663695333L147.18675516340468,128.3144358683436L147.32993294080097,142.10505652536935L147.6162884955936,97.35462207043119L147.75946627298993,113.2118469680365L148.04582182778253,104.93503370267075L148.18899960517882,118.0003615510723L148.33217738257514,125.10231723653727L148.61853293736775,113.38530702431875L148.76171071476406,92.14140344079773L149.191244046953,119.4846598176959L149.3344218243493,122.40982541828438L149.6207773791419,122.2135010288505L149.76395515653823,120.18343451999598L149.90713293393452,124.74741155786381L150.05031071133084,101.76148686188138L150.33666626612347,115.27016430038975L150.47984404351976,115.16974203979292L150.62302182091608,101.26058092736646L150.76619959831237,102.36710918216497L151.052555153105,127.99233881269332L151.3389107078976,110.78246448596852L151.62526626269025,124.91119099862715L151.76844404008654,126.10525913850708L151.91162181748285,113.42120440404447L152.05479959487914,116.66323124099478L152.19797737227543,109.81990242771957L152.77068848186067,111.09134015622136L152.91386625925702,142.67979127862765L153.0570440366533,83.70096140572728L153.20022181404963,100.57751368293168L153.62975514623855,123.57948484666139L153.77293292363484,111.13371639146948L153.91611070103116,119.34366937455488L154.05928847842745,85.31140901621393L154.2024662558238,128.5620260854865L154.4888218106164,117.37790173998349L154.6319995880127,105.36184714408967L154.77517736540898,107.679318697338L154.91835514280532,120.82107444024479L155.20471069759793,137.02333606218133L155.49106625239057,95.94829607666409L155.63424402978686,135.212608946971L155.77742180718317,108.47030408753795L155.92059958457946,113.57616958787621L156.06377736197575,100.3955030440705L156.3501329167684,120.40156854517089L156.4933106941647,124.19904423987101L156.636488471561,108.52450800089085L156.92284402635363,145.46272339984114L157.06602180374995,107.66150184465147L157.35237735854253,135.0958012087449L157.49555513593887,115.44456605078864L158.0682662455241,110.59954982075536L158.2114440229204,117.13599935530496L158.497799577713,117.37428563457564L158.6409773551093,127.68922631043421L158.78415513250565,109.25982043491595L158.92733290990193,134.5917311819981L159.07051068729825,102.15458765392513L159.21368846469454,133.2330925782969L159.35686624209086,116.06668685199546L159.6432217968835,126.30293956746888L159.78639957427978,115.90460246064205L159.92957735167607,128.7647916626781L160.35911068386503,105.7150577733532L160.50228846126132,136.77288309492388L160.64546623865763,103.49375202329456L160.78864401605395,105.66601434375939L161.07499957084656,111.60283073260715L161.9340662352244,118.85146469367756L162.07724401262072,143.10683072663454L162.22042179001704,130.26023958764253L162.36359956741333,131.46229329363143L162.50677734480962,99.34622979156276L163.07948845439486,117.75552108074992L163.50902178658382,119.23183378126454L163.6521995639801,104.5583937237856L163.9385551187727,114.37672259030106L164.36808845096164,111.33068113290265L164.51126622835795,125.69087605942761L164.7976217831506,104.33314049108901L164.94079956054688,105.69351181196483L165.08397733794317,137.32460284397186L165.22715511533949,110.38872334192547L165.51351067013212,94.8044390670826L165.6566884475284,122.06094658195732L165.79986622492473,130.5195068118316L165.94304400232102,106.2616923741714L166.08622177971736,132.68856737229993L166.22939955711365,128.98978122102204L166.37257733450994,108.89723053225084L166.51575511190626,115.10789157021301L166.65893288930255,106.6471089422235L166.94528844409518,143.51183453231243L167.0884662214915,120.01328922700425L167.37482177628414,105.77965798975364L167.66117733107671,116.32945717829838L167.80435510847303,121.94937466301965L168.09071066326567,136.35416822290793L168.37706621805827,116.5360648674858L168.52024399545456,125.50743404550914L168.6634217728509,143.09861915393756L168.8065995502472,97.68986517594952L169.2361328824361,114.64815650247692L169.37931065983244,134.07225503950335L169.52248843722873,127.88442066692815L169.66566621462505,111.2629921597997L169.95202176941768,125.71434307681389L170.09519954681397,103.87510047276284L170.38155510160658,117.31876334945946L170.52473287900287,146.29811908458112L171.24062176598443,129.32061719807456L171.38379954338075,124.09425251857303L171.67015509817335,126.12077825754905L171.81333287556964,125.96611441583462L172.09968843036228,112.23500882697954L172.2428662077586,136.01044987033998L172.38604398515488,122.43291575802402L172.5292217625512,119.05464461628047L172.8155773173438,120.68053601027974L172.95875509474013,120.41320788445236L173.10193287213642,136.5472908523453L173.38828842692905,125.80263631718861L173.53146620432537,123.63790754965677L173.67464398172166,118.82569994264671L173.81782175911798,113.88417889954177L174.2473550913069,143.87615715215213L174.5337106460995,129.6936410715519L174.96324397828843,121.35972347495402L175.24959953308107,148.34679346918014L175.39277731047736,114.49884148334493L175.53595508787367,121.41987889512399L175.67913286526996,109.69857455773366L175.9654884200626,133.80187582473812L176.2518439748552,135.4571104074114L176.39502175225152,127.36840995878256L176.53819952964784,124.96049810257361L176.82455508444045,103.59809173141656L176.96773286183674,142.93133661106037L177.11091063923305,128.24060704960021L177.25408841662937,123.76594028175305L177.3972661940257,127.62741350861899L177.8267995262146,119.79545654394667L177.9699773036109,133.42052737526984L178.11315508100722,120.93351271776976L178.82904396798875,122.70472634784653L178.97222174538507,114.31897790706964L179.11539952278136,111.7648774561959L179.25857730017768,132.90365030853695L179.54493285497028,103.51055184633515L179.6881106323666,115.94675268930217L179.83128840976292,126.37100521821851L179.97446618715924,116.92841230423625L180.11764396455553,148.73326473464283L180.83353285153706,123.54128973329111L180.97671062893338,112.37889968799976L181.11988840632966,122.43140904743741L181.263066183726,128.58003127699635L181.4062439611223,119.46910303088927L181.54942173851862,140.85930821236906L181.83577729331122,116.85239875514232L181.97895507070754,115.12872184407276L182.12213284810383,129.22855718123336L182.26531062550015,128.96134205869998L182.40848840289644,128.99520537913378L182.55166618029278,128.52590269917278L182.69484395768907,123.26661639335404L182.8380217350854,128.2967696867157L182.98119951248168,137.142554537346L183.26755506727432,116.10721736677499L183.4107328446706,121.37057179117753L183.55391062206692,120.06489406459528L183.6970883994632,120.99864028287551L183.84026617685956,148.29978409887823L183.98344395425585,104.74296577064402L184.12662173165216,113.16001612385749L184.41297728644474,131.41257184427366L184.69933284123738,145.972631930111L184.98568839602999,123.97804746458155L185.12886617342633,124.38354095120009L185.27204395082262,103.43645935323913L185.55839950561523,135.99952621858714L185.84475506040786,123.06656289521834L185.98793283780415,129.86062227231173L186.27428839259676,101.95698256049263L186.5606439473894,140.37896887736122L186.7038217247857,120.46873016956854L186.846999502182,110.31342548036017L187.13335505697464,139.82510206572732L187.56288838916353,129.7511597481953L187.70606616655988,111.1390652140519L188.13559949874877,141.12931074948767L188.4219550535414,116.94121934422233L188.8514883857303,116.82539096787752L189.28102171791926,152.05198314045106L189.42419949531555,131.844395098393L189.56737727271184,130.59661272610083L189.71055505010818,121.85912269888235L189.85373282750447,132.41129495660098L189.9969106049008,124.25652524874977L190.14008838229708,137.1696753279048L190.2832661596934,131.20366642144165L190.42644393708972,118.98021311330245L190.56962171448603,125.92697760834771L190.8559772692786,138.4815305678921L190.99915504667496,149.7589579664703L191.14233282407125,117.76682141014942L191.57186615626017,132.53996804069655L191.7150439336565,151.061885946232L192.0013994884491,140.87569368999834L192.14457726584538,140.73726465485453L192.2877550432417,135.98788687930565L192.43093282063802,136.38983959604568L192.71728837543063,133.51635416857755L193.14682170761958,112.28198052951677L193.28999948501587,122.20340606792027L193.43317726241216,120.21409608043328L193.57635503980848,120.27131341495937L193.7195328172048,127.50450359251715L193.8627105946011,132.4128770027169L194.0058883719974,118.22271436588969L194.14906614939372,127.0032963158849L194.29224392679004,129.31850780325334L194.43542170418635,113.54181658650174L194.57859948158264,127.54906455811582L194.72177725897893,125.68646893096181L194.86495503637525,117.30663432923734L195.00813281377157,133.14419665368752L195.29448836856417,130.61574795055063L195.4376661459605,136.94909289802666L195.58084392335678,111.58716094250651L195.72402170075313,141.0196598865479L197.1557994747162,112.76424092052252L197.58533280690511,126.89989830187952L197.72851058430143,108.27187030328282L197.87168836169772,109.88815641729252L198.01486613909404,125.08092194620755L198.30122169388667,137.6026286149641L198.44439947128296,112.37675262541387L198.58757724867925,150.0107669732557L198.73075502607557,122.84485043240025L198.87393280347186,103.45054709722383L199.1602883582645,115.99180333584148L199.3034661356608,123.42764608729685L199.4466439130571,120.406503022342L199.58982169045345,117.89217973095447L199.73299946784974,125.05798227752659L199.87617724524603,139.20693637981032L200.01935502264234,124.55402525407379L200.16253280003863,123.83057816591815L200.30571057743498,125.56103527462741L200.44888835483127,137.65781189019827L200.5920661322276,152.91287990186922L200.87842168702022,125.88674843568552L201.0215994644165,109.04308011703365L201.30795501920912,136.04853198041627L201.4511327966054,126.20123660287345L201.59431057400175,114.19068150062071L201.88066612879436,104.7961149865863L202.02384390619065,132.33712712797563L202.167021683587,131.75150639072916L202.31019946098328,146.6757007575829L202.45337723837957,118.27495955548002L202.5965550157759,121.07156507526692L203.16926612536113,135.89959363893092L203.45562168015374,116.55422073005431L203.88515501234266,156.949319895604L204.02833278973895,124.73437851128973L204.3146883445316,136.99892735067843L204.4578661219279,126.78143318200816L204.6010438993242,115.87627630161398L204.88739945411683,114.3812050542962L205.03057723151312,122.18837662981895L205.17375500890944,113.52799251686969L205.31693278630573,121.65744948686604L205.46011056370207,126.22508029790637L205.60328834109836,132.51544632589966L205.74646611849468,131.51495282863308L205.88964389589097,129.01999076828335L206.0328216732873,129.0527617235419L206.4623550054762,116.30798655243933L206.6055327828725,115.12092461678711L206.74871056026882,128.86046778492715L207.03506611506145,125.63682281713336L207.17824389245774,128.99742777724902L207.32142166985406,103.57432337191295L207.46459944725038,139.22490390355551L207.60777722464667,147.09878509029997L208.0373105568356,130.54380252004051L208.1804883342319,126.0873669502912L208.32366611162823,102.57156980876648L208.46684388902452,132.61033142509075L208.61002166642083,105.57101624127431L208.75319944381715,122.13910719363716L208.89637722121344,136.39759915556667L209.18273277600605,128.13532564736158L209.32591055340237,115.77427199490121L209.46908833079868,113.83400543700802L209.612266108195,123.81170661582101L209.7554438855913,123.23923192844262L209.8986216629876,141.36145718311795L210.0417994403839,124.03970959533814L210.18497721778022,115.71697932484577L210.61451054996914,136.3207569156501L210.75768832736546,104.62190157501077L211.04404388215806,126.14646767305057L211.6167549917433,123.3654189400703L211.7599327691396,136.24188061644162L212.04628832393223,123.46798826325303L212.18946610132855,115.26895893192048L212.61899943351744,122.84537778110557L212.90535498831008,120.16610734825008L213.04853276570637,104.34862194236632L213.1917105431027,149.77470309210025L213.47806609789532,126.79344919893629L213.6212438752916,91.11179276144512L213.76442165268793,157.8013270645612L213.90759943008422,104.27520746903427L214.19395498487685,134.46170205837458L214.33713276227314,127.99312983575129L214.48031053966946,116.41345629350128L214.62348831706575,136.61878426967942L214.7666660944621,115.55052547279122L215.0530216492547,131.93792415805615L215.196199426651,118.07871050157546L215.3393772040473,98.43485822549353L215.62573275883992,107.00962350935929L215.76891053623623,113.11108569755768L216.19844386842516,131.89468156422078L216.48479942321777,117.96224177323134L216.62797720061405,130.72046433631928L216.9143327554067,108.95158511666241L217.057510532803,134.92426220846056L217.2006883101993,98.6433493029142L217.34386608759564,112.29987271773263L217.48704386499193,132.7253687783776L217.63022164238825,114.68412921773198L217.77339941978454,125.02310192744682L218.20293275197346,134.0317245247238L218.34611052936978,143.91506795305105L218.48928830676607,115.16439321721049L218.63246608416242,132.05733097204416L218.7756438615587,108.87127744239667L218.91882163895502,125.97820576829209L219.0619994163513,154.25227027782663L219.34835497114395,146.0858988984586L219.49153274854024,130.7649876341533L219.63471052593655,146.942049521529L219.77788830333284,139.1827536748954L219.9210660807292,130.0842181233631L220.06424385812548,141.55292243091003L220.49377719031438,136.4429511442233L220.780132745107,151.57902668731754L220.92331052250333,129.41380724785574L221.06648829989962,110.94635693002584L221.20966607729594,117.45410362790074L221.35284385469225,124.96121379010225L221.49602163208857,131.4434970790636L221.63919940948486,135.92057458384932L221.78237718688115,132.55307642279996L221.9255549642775,136.99587626174056L222.06873274167378,136.99222248856807L222.4982660738627,117.56544954025043L222.64144385125903,145.3972568248534L223.07097718344792,143.6980262930514L223.21415496084427,134.33803878697947L223.50051051563688,138.8547804479574L223.64368829303316,138.35948701037756L223.78686607042948,119.87840096173895L224.07322162522212,120.421231118326L224.2163994026184,131.52625315803257L224.3595771800147,111.80774337238465L224.64593273480733,137.69627067792123L224.78911051220365,120.24358994016595L224.93228828959994,122.52633181439317L225.21864384439257,140.4802198287807L225.3618216217889,141.5475736083276L225.50499939918518,126.34738752977357L225.7913549539778,134.19260354760797L225.9345327313741,114.62713788979386L226.07771050877042,139.49294771691154L226.36406606356303,136.50992442979765L226.50724384095935,139.1635054471516L226.79359939575195,125.01963649309764L226.93677717314824,121.33648246415572L227.07995495054456,107.0687618998833L227.22313272794088,134.98754405309774L227.3663105053372,135.0903017151038L227.50948828273349,134.26824041905525L227.7958438375261,139.04812908398276L227.93902161492244,131.22683209671064L228.36855494711133,138.09939109536586L228.65491050190397,141.7631462255053L229.08444383409287,126.18692285230074L229.6571549436781,135.0743682506505L230.37304383065964,128.00702924091266L230.80257716284856,134.3322002834564L230.94575494024488,132.65169063069288L231.08893271764117,124.03161102593516L231.23211049503752,115.07432959189651L231.3752882724338,153.18777924839424L231.51846604983012,133.48075813096915L231.80482160462276,132.05401620875364L231.94799938201905,128.99686276077904L232.23435493681166,133.83788620775783L232.37753271420794,136.62044165132468L232.66388826900058,140.9018727864405L232.8070660463969,118.14089998103734L232.9502438237932,137.2429014624135L233.09342160118953,121.71044803174966L233.3797771559821,128.77138352149447L233.52295493337843,142.097899650083L233.66613271077472,137.791193444877L233.80931048817106,127.51102011580419L233.95248826556735,132.59289125005085L234.09566604296367,130.37098281575757L234.23884382035996,137.7409446468139L234.3820215977563,132.53183180352892L234.5251993751526,108.62285853443112L234.8115549299452,117.6805622290666L235.09791048473784,135.67791884387753L235.24108826213413,111.11021170631852L235.52744381692673,131.39803208711297L235.95697714911566,111.79945646415835L236.24333270390827,135.0612598685471L236.8160438134935,133.6362506635062L236.95922159088983,123.70047370676531L237.10239936828614,150.65341670620495L237.24557714568243,153.45220695634242L237.67511047787139,152.50765008960335L237.81828825526767,134.12894502532413L237.961466032664,106.36316933217887L238.39099936485292,133.75245571749764L238.5341771422492,121.30130077195864L238.8205326970418,137.77970477665417L238.96371047443813,116.49323661906172L239.10688825183445,137.9963320912425L239.53642158402337,117.37880576633543L239.6795993614197,136.24500704090883L240.1091326936086,114.42753640483411L240.2523104710049,141.9383766667268L240.39548824840122,120.99415781888038L240.53866602579754,142.90545885673555L240.68184380319383,132.9535977644827L240.82502158059015,134.03492628472034L240.96819935798646,127.6954791593686L241.25455491277907,147.93787221597708L241.39773269017536,117.5361063515764L241.54091046757168,132.30409249836444L241.684088244968,134.9703675524105L241.8272660223643,137.26403307839058L241.9704437997606,130.01306371591093L242.11362157715692,155.14032549756823L242.2567993545532,129.154841365784L242.39997713194953,131.67383545998996L242.97268824153477,150.07073405460235L243.25904379632738,134.75445592535084" fill="none"></path></g></g></g></g></g></g><g transform="translate(72, 177)" clip-path="url(#clip_1)"><clipPath id="clip_1"><rect width="257" height="22"></rect></clipPath><g><g><line x1="0" y1="0" x2="0" y2="5" style="visibility: inherit;" fill="rgb(0, 0, 0)" stroke="rgb(204, 204, 204)" stroke-width="1px"></line><line x1="28.63555547926161" y1="0" x2="28.63555547926161" y2="5" style="visibility: inherit;" fill="rgb(0, 0, 0)" stroke="rgb(204, 204, 204)" stroke-width="1px"></line><line x1="57.27111095852322" y1="0" x2="57.27111095852322" y2="5" style="visibility: inherit;" fill="rgb(0, 0, 0)" stroke="rgb(204, 204, 204)" stroke-width="1px"></line><line x1="85.90666643778482" y1="0" x2="85.90666643778482" y2="5" style="visibility: inherit;" fill="rgb(0, 0, 0)" stroke="rgb(204, 204, 204)" stroke-width="1px"></line><line x1="114.54222191704643" y1="0" x2="114.54222191704643" y2="5" style="visibility: inherit;" fill="rgb(0, 0, 0)" stroke="rgb(204, 204, 204)" stroke-width="1px"></line><line x1="143.17777739630804" y1="0" x2="143.17777739630804" y2="5" style="visibility: inherit;" fill="rgb(0, 0, 0)" stroke="rgb(204, 204, 204)" stroke-width="1px"></line><line x1="171.81333287556964" y1="0" x2="171.81333287556964" y2="5" style="visibility: inherit;" fill="rgb(0, 0, 0)" stroke="rgb(204, 204, 204)" stroke-width="1px"></line><line x1="200.44888835483127" y1="0" x2="200.44888835483127" y2="5" style="visibility: inherit;" fill="rgb(0, 0, 0)" stroke="rgb(204, 204, 204)" stroke-width="1px"></line><line x1="229.08444383409287" y1="0" x2="229.08444383409287" y2="5" style="visibility: inherit;" fill="rgb(0, 0, 0)" stroke="rgb(204, 204, 204)" stroke-width="1px"></line><line x1="257.7199993133545" y1="0" x2="257.7199993133545" y2="5" style="visibility: inherit;" fill="rgb(0, 0, 0)" stroke="rgb(204, 204, 204)" stroke-width="1px"></line></g><g transform="translate(0, 8)"><text style="text-anchor: middle; visibility: hidden; font-family: &quot;Helvetica Neue&quot;, sans-serif; font-size: 12px; font-weight: 200;" x="0" y="0" dx="0em" dy="0.95em" fill="rgb(50, 49, 63)" stroke="none" stroke-width="1px">-200</text><text style="text-anchor: middle; visibility: inherit; font-family: &quot;Helvetica Neue&quot;, sans-serif; font-size: 12px; font-weight: 200;" x="28.63555547926161" y="0" dx="0em" dy="0.95em" fill="rgb(50, 49, 63)" stroke="none" stroke-width="1px">0</text><text style="text-anchor: middle; visibility: hidden; font-family: &quot;Helvetica Neue&quot;, sans-serif; font-size: 12px; font-weight: 200;" x="57.27111095852322" y="0" dx="0em" dy="0.95em" fill="rgb(50, 49, 63)" stroke="none" stroke-width="1px">200</text><text style="text-anchor: middle; visibility: inherit; font-family: &quot;Helvetica Neue&quot;, sans-serif; font-size: 12px; font-weight: 200;" x="85.90666643778482" y="0" dx="0em" dy="0.95em" fill="rgb(50, 49, 63)" stroke="none" stroke-width="1px">400</text><text style="text-anchor: middle; visibility: hidden; font-family: &quot;Helvetica Neue&quot;, sans-serif; font-size: 12px; font-weight: 200;" x="114.54222191704643" y="0" dx="0em" dy="0.95em" fill="rgb(50, 49, 63)" stroke="none" stroke-width="1px">600</text><text style="text-anchor: middle; visibility: inherit; font-family: &quot;Helvetica Neue&quot;, sans-serif; font-size: 12px; font-weight: 200;" x="143.17777739630804" y="0" dx="0em" dy="0.95em" fill="rgb(50, 49, 63)" stroke="none" stroke-width="1px">800</text><text style="text-anchor: middle; visibility: hidden; font-family: &quot;Helvetica Neue&quot;, sans-serif; font-size: 12px; font-weight: 200;" x="171.81333287556964" y="0" dx="0em" dy="0.95em" fill="rgb(50, 49, 63)" stroke="none" stroke-width="1px">1k</text><text style="text-anchor: middle; visibility: inherit; font-family: &quot;Helvetica Neue&quot;, sans-serif; font-size: 12px; font-weight: 200;" x="200.44888835483127" y="0" dx="0em" dy="0.95em" fill="rgb(50, 49, 63)" stroke="none" stroke-width="1px">1.2k</text><text style="text-anchor: middle; visibility: hidden; font-family: &quot;Helvetica Neue&quot;, sans-serif; font-size: 12px; font-weight: 200;" x="229.08444383409287" y="0" dx="0em" dy="0.95em" fill="rgb(50, 49, 63)" stroke="none" stroke-width="1px">1.4k</text><text style="text-anchor: middle; visibility: hidden; font-family: &quot;Helvetica Neue&quot;, sans-serif; font-size: 12px; font-weight: 200;" x="257.7199993133545" y="0" dx="0em" dy="0.95em" fill="rgb(50, 49, 63)" stroke="none" stroke-width="1px">1.6k</text></g><line x1="0" y1="0" x2="257.7199993133545" y2="0" fill="rgb(0, 0, 0)" stroke="rgb(204, 204, 204)" stroke-width="1px"></line></g></g></g></g></svg>