<svg viewBox="0 0 330 200" xmlns="http://www.w3.org/2000/svg"><g><g><g><g><g><line x1="51.52000045776367" y1="177.95999908447266" x2="46.52000045776367" y2="177.95999908447266" style="visibility: inherit;" fill="rgb(0, 0, 0)" stroke="rgb(204, 204, 204)" stroke-width="1px"></line><line x1="51.52000045776367" y1="158.18666585286456" x2="46.52000045776367" y2="158.18666585286456" style="visibility: inherit;" fill="rgb(0, 0, 0)" stroke="rgb(204, 204, 204)" stroke-width="1px"></line><line x1="51.52000045776367" y1="138.41333262125647" x2="46.52000045776367" y2="138.41333262125647" style="visibility: inherit;" fill="rgb(0, 0, 0)" stroke="rgb(204, 204, 204)" stroke-width="1px"></line><line x1="51.52000045776367" y1="118.63999938964844" x2="46.52000045776367" y2="118.63999938964844" style="visibility: inherit;" fill="rgb(0, 0, 0)" stroke="rgb(204, 204, 204)" stroke-width="1px"></line><line x1="51.52000045776367" y1="98.86666615804035" x2="46.52000045776367" y2="98.86666615804035" style="visibility: inherit;" fill="rgb(0, 0, 0)" stroke="rgb(204, 204, 204)" stroke-width="1px"></line><line x1="51.52000045776367" y1="79.09333292643225" x2="46.52000045776367" y2="79.09333292643225" style="visibility: inherit;" fill="rgb(0, 0, 0)" stroke="rgb(204, 204, 204)" stroke-width="1px"></line><line x1="51.52000045776367" y1="59.31999969482416" x2="46.52000045776367" y2="59.31999969482416" style="visibility: inherit;" fill="rgb(0, 0, 0)" stroke="rgb(204, 204, 204)" stroke-width="1px"></line><line x1="51.52000045776367" y1="39.54666646321607" x2="46.52000045776367" y2="39.54666646321607" style="visibility: inherit;" fill="rgb(0, 0, 0)" stroke="rgb(204, 204, 204)" stroke-width="1px"></line><line x1="51.52000045776367" y1="19.773333231608092" x2="46.52000045776367" y2="19.773333231608092" style="visibility: inherit;" fill="rgb(0, 0, 0)" stroke="rgb(204, 204, 204)" stroke-width="1px"></line><line x1="51.52000045776367" y1="0" x2="46.52000045776367" y2="0" style="visibility: inherit;" fill="rgb(0, 0, 0)" stroke="rgb(204, 204, 204)" stroke-width="1px"></line></g><g transform="translate(41.52000045776367, 0)"><text style="text-anchor: end; visibility: hidden; font-family: &quot;Helvetica Neue&quot;, sans-serif; font-size: 12px; font-weight: 200;" x="0" y="177.95999908447266" dx="0em" dy="0.3em" fill="rgb(50, 49, 63)" stroke="none" stroke-width="1px">0.42</text><text style="text-anchor: end; visibility: inherit; font-family: &quot;Helvetica Neue&quot;, sans-serif; font-size: 12px; font-weight: 200;" x="0" y="158.18666585286456" dx="0em" dy="0.3em" fill="rgb(50, 49, 63)" stroke="none" stroke-width="1px">0.44</text><text style="text-anchor: end; visibility: hidden; font-family: &quot;Helvetica Neue&quot;, sans-serif; font-size: 12px; font-weight: 200;" x="0" y="138.41333262125647" dx="0em" dy="0.3em" fill="rgb(50, 49, 63)" stroke="none" stroke-width="1px">0.46</text><text style="text-anchor: end; visibility: inherit; font-family: &quot;Helvetica Neue&quot;, sans-serif; font-size: 12px; font-weight: 200;" x="0" y="118.63999938964844" dx="0em" dy="0.3em" fill="rgb(50, 49, 63)" stroke="none" stroke-width="1px">0.48</text><text style="text-anchor: end; visibility: hidden; font-family: &quot;Helvetica Neue&quot;, sans-serif; font-size: 12px; font-weight: 200;" x="0" y="98.86666615804035" dx="0em" dy="0.3em" fill="rgb(50, 49, 63)" stroke="none" stroke-width="1px">0.5</text><text style="text-anchor: end; visibility: inherit; font-family: &quot;Helvetica Neue&quot;, sans-serif; font-size: 12px; font-weight: 200;" x="0" y="79.09333292643225" dx="0em" dy="0.3em" fill="rgb(50, 49, 63)" stroke="none" stroke-width="1px">0.52</text><text style="text-anchor: end; visibility: hidden; font-family: &quot;Helvetica Neue&quot;, sans-serif; font-size: 12px; font-weight: 200;" x="0" y="59.31999969482416" dx="0em" dy="0.3em" fill="rgb(50, 49, 63)" stroke="none" stroke-width="1px">0.54</text><text style="text-anchor: end; visibility: inherit; font-family: &quot;Helvetica Neue&quot;, sans-serif; font-size: 12px; font-weight: 200;" x="0" y="39.54666646321607" dx="0em" dy="0.3em" fill="rgb(50, 49, 63)" stroke="none" stroke-width="1px">0.56</text><text style="text-anchor: end; visibility: hidden; font-family: &quot;Helvetica Neue&quot;, sans-serif; font-size: 12px; font-weight: 200;" x="0" y="19.773333231608092" dx="0em" dy="0.3em" fill="rgb(50, 49, 63)" stroke="none" stroke-width="1px">0.58</text><text style="text-anchor: end; visibility: hidden; font-family: &quot;Helvetica Neue&quot;, sans-serif; font-size: 12px; font-weight: 200;" x="0" y="0" dx="0em" dy="0.3em" fill="rgb(50, 49, 63)" stroke="none" stroke-width="1px">0.6</text></g><line x1="51.52000045776367" y1="0" x2="51.52000045776367" y2="177.95999908447266" fill="rgb(0, 0, 0)" stroke="rgb(204, 204, 204)" stroke-width="1px"></line></g></g><g transform="translate(51, 0)" clip-path="url(#clip_0)"><clipPath id="clip_0"><rect width="278" height="177"></rect></clipPath><g><g><g><line x1="0" y1="0" x2="0" y2="177.95999908447266" fill="rgb(0, 0, 0)" stroke="rgb(60, 60, 60)" stroke-width="1px" opacity="0.25"></line><line x1="30.94222217135959" y1="0" x2="30.94222217135959" y2="177.95999908447266" fill="rgb(0, 0, 0)" stroke="rgb(60, 60, 60)" stroke-width="1px" opacity="0.25"></line><line x1="61.88444434271918" y1="0" x2="61.88444434271918" y2="177.95999908447266" fill="rgb(0, 0, 0)" stroke="rgb(60, 60, 60)" stroke-width="1px" opacity="0.25"></line><line x1="92.82666651407877" y1="0" x2="92.82666651407877" y2="177.95999908447266" fill="rgb(0, 0, 0)" stroke="rgb(60, 60, 60)" stroke-width="1px" opacity="0.25"></line><line x1="123.76888868543836" y1="0" x2="123.76888868543836" y2="177.95999908447266" fill="rgb(0, 0, 0)" stroke="rgb(60, 60, 60)" stroke-width="1px" opacity="0.25"></line><line x1="154.71111085679797" y1="0" x2="154.71111085679797" y2="177.95999908447266" fill="rgb(0, 0, 0)" stroke="rgb(60, 60, 60)" stroke-width="1px" opacity="0.25"></line><line x1="185.65333302815753" y1="0" x2="185.65333302815753" y2="177.95999908447266" fill="rgb(0, 0, 0)" stroke="rgb(60, 60, 60)" stroke-width="1px" opacity="0.25"></line><line x1="216.59555519951715" y1="0" x2="216.59555519951715" y2="177.95999908447266" fill="rgb(0, 0, 0)" stroke="rgb(60, 60, 60)" stroke-width="1px" opacity="0.25"></line><line x1="247.5377773708767" y1="0" x2="247.5377773708767" y2="177.95999908447266" fill="rgb(0, 0, 0)" stroke="rgb(60, 60, 60)" stroke-width="1px" opacity="0.25"></line><line x1="278.4799995422363" y1="0" x2="278.4799995422363" y2="177.95999908447266" fill="rgb(0, 0, 0)" stroke="rgb(60, 60, 60)" stroke-width="1px" opacity="0.25"></line></g><g><line x1="0" y1="177.95999908447266" x2="278.4799995422363" y2="177.95999908447266" fill="rgb(0, 0, 0)" stroke="rgb(60, 60, 60)" stroke-width="1px" opacity="0.25"></line><line x1="0" y1="158.18666585286456" x2="278.4799995422363" y2="158.18666585286456" fill="rgb(0, 0, 0)" stroke="rgb(60, 60, 60)" stroke-width="1px" opacity="0.25"></line><line x1="0" y1="138.41333262125647" x2="278.4799995422363" y2="138.41333262125647" fill="rgb(0, 0, 0)" stroke="rgb(60, 60, 60)" stroke-width="1px" opacity="0.25"></line><line x1="0" y1="118.63999938964844" x2="278.4799995422363" y2="118.63999938964844" fill="rgb(0, 0, 0)" stroke="rgb(60, 60, 60)" stroke-width="1px" opacity="0.25"></line><line x1="0" y1="98.86666615804035" x2="278.4799995422363" y2="98.86666615804035" fill="rgb(0, 0, 0)" stroke="rgb(60, 60, 60)" stroke-width="1px" opacity="0.25"></line><line x1="0" y1="79.09333292643225" x2="278.4799995422363" y2="79.09333292643225" fill="rgb(0, 0, 0)" stroke="rgb(60, 60, 60)" stroke-width="1px" opacity="0.25"></line><line x1="0" y1="59.31999969482416" x2="278.4799995422363" y2="59.31999969482416" fill="rgb(0, 0, 0)" stroke="rgb(60, 60, 60)" stroke-width="1px" opacity="0.25"></line><line x1="0" y1="39.54666646321607" x2="278.4799995422363" y2="39.54666646321607" fill="rgb(0, 0, 0)" stroke="rgb(60, 60, 60)" stroke-width="1px" opacity="0.25"></line><line x1="0" y1="19.773333231608092" x2="278.4799995422363" y2="19.773333231608092" fill="rgb(0, 0, 0)" stroke="rgb(60, 60, 60)" stroke-width="1px" opacity="0.25"></line><line x1="0" y1="0" x2="278.4799995422363" y2="0" fill="rgb(0, 0, 0)" stroke="rgb(60, 60, 60)" stroke-width="1px" opacity="0.25"></line></g></g></g><g><g><line x1="0" y1="593.1999969482422" x2="278.4799995422363" y2="593.1999969482422" fill="rgb(0, 0, 0)" stroke="rgb(153, 153, 153)" stroke-width="1.5px"></line></g></g><g><g><line x1="30.94222217135959" y1="0" x2="30.94222217135959" y2="177.95999908447266" fill="rgb(0, 0, 0)" stroke="rgb(153, 153, 153)" stroke-width="1.5px"></line></g></g><g><g><g><g><g><path style="fill: none;" stroke="rgb(51, 187, 238)" stroke-width="2px" d="M37.44008882734511,-8.576627377256074L37.59479993820191,0.9033599171258402L37.749511049058704,0.7449584286829349L37.9042221599155,3.6568232904498075L38.213644381629095,5.122213845922175L38.52306660334269,12.385876742857022L38.67777771419949,13.361978772086331L39.141911046769884,15.846018185156908L39.29662215762668,16.217094886319472L39.45133326848348,23.386294395615238L39.606044379340275,18.28916078536315L39.76075549019708,23.62802166704111L40.22488882276747,26.282719826588902L40.37959993362426,25.601499139684137L40.68902215533786,28.279651091047498L40.84373326619466,29.17572736830303L40.99844437705146,31.369481910811942L41.15315548790826,34.539868844676676L41.30786659876506,34.17492077253124L41.46257770962185,32.60899712952775L41.61728882047865,34.46667887122203L41.926711042192245,38.415283832012676L42.08142215304905,39.01241265730732L42.23613326390584,40.32700358148301L42.390844374762644,39.344655064986284L42.70026659647623,44.52670554460076L43.00968881818983,39.53428898976654L43.16439992904663,44.338426989699315L43.47382215076023,46.88534377932075L43.62853326161703,47.06884907508385L43.93795548333062,49.216521041713946L44.09266659418741,45.556963439856474L44.247377705044215,49.35824558773521L44.40208881590102,51.20255041801707L44.55679992675781,53.482871845393035L44.71151103761461,52.59422063790831L45.0209332593282,52.90047530138962L45.175644370185005,55.11803721046512L45.3303554810418,54.42709321790818L45.4850665918986,56.769525943207825L46.25862214618259,57.68481311526706L46.41333325703938,56.89569320018562L46.72275547875299,60.16525785170262L47.03217770046658,61.2032354623549L47.18688881132338,56.14829510572082L47.34159992218018,59.934668184932875L47.80573325475057,62.34987837981102L48.424577698177764,60.5011538651418L48.888711030748155,63.943852286392925L49.19813325246175,66.41905233068881L49.35284436331855,68.7667886772533L49.50755547417535,67.03598134203881L50.126399917602534,66.66973682913975L50.281111028459335,69.35772994440562L50.43582213931614,68.33672392180078L50.59053325017293,67.4916213378128L50.899955471886535,71.75196137072513L51.05466658274332,66.449518688399L51.51879991531372,69.76840701767892L51.98293324788412,69.55962112722013L52.137644358740914,71.72562005177646L52.4470665804545,65.35661913309313L52.75648880216811,69.12083486124325L52.9111999130249,71.28288553441352L53.065911023881704,69.06172894870296L53.2206221347385,73.24799507128317L53.3753332455953,70.79565952755121L53.53004435645209,75.71140929054609L53.83946657816569,70.97445049330113L53.994177689022486,71.92586121908636L54.14888879987929,73.70905654657233L54.30359991073609,71.6511336375682L54.613022132449686,72.05285348381643L54.76773324330647,71.8043493629966L54.922444354163275,75.69756094613238L55.23186657587687,74.71450528013366L55.38657768673367,77.13602089140444L55.54128879759047,75.40450640668797L55.85071101930406,76.59410865638921L56.00542213016086,81.06270421763382L56.314844351874456,76.57448525770934L56.46955546273126,80.13934375542702L56.778977684444854,78.38201831388838L56.933688795301656,77.98966819854132L57.08839990615844,78.45621008247082L57.39782212787204,74.95788256706417L58.01666657129924,82.87654269020548L58.171377682156034,82.99180805902778L58.32608879301283,79.49483591349991L58.480799903869624,82.37800229131152L58.79022212558323,80.87913999274555L58.94493323644002,80.94036735379176L59.25435545815362,80.50947759058694L59.563777679867215,80.7638156947981L59.71848879072401,81.58098587345798L59.87319990158081,81.41056284348146L60.027911012437606,77.34415856148641L60.33733323415121,82.02554719370102L60.492044345008004,80.92828688313298L61.57502212100559,81.21892532844564L62.19386656443278,82.97354003022669L62.65799989700317,81.22511288658792L62.812711007859974,86.75337197654545L62.967422118716776,85.47826356623014L63.12213322957356,82.92504136021608L63.740977673000764,84.56327103979673L63.89568878385756,87.5165630765544L64.05039989471436,83.32941301709674L64.20511100557115,81.50791375825366L64.66924433814155,83.83166595087609L64.82395544899835,87.08938584823498L64.97866655985514,85.1235102327382L65.13337767071194,84.46438796777024L65.28808878156875,87.84851083860755L65.44279989242553,87.34154357481503L65.75222211413913,89.53217487369025L65.90693322499592,84.96634625592377L66.06164433585273,85.27878847754738L66.37106655756632,86.28718366736695L66.52577766842313,85.05420958154444L66.68048877927991,85.72016762503151L66.83519989013672,88.30739193626563L66.98991100099352,89.74343578740594L67.14462211185031,89.07099554015075L67.60875544442071,89.0869653330704L67.7634665552775,86.41818311260823L68.0728887769911,86.52602341165975L68.6917332204183,86.97965981717817L68.8464443312751,87.52416493370065L69.15586655298868,88.71364932515156L69.31057766384548,87.26829467223521L69.46528877470229,85.89495141027022L69.61999988555908,89.30199771079666L69.77471099641588,91.41702294208545L69.92942210727269,86.09589972708208L70.39355543984307,91.05366595631946L70.85768877241345,88.19377658294795L71.01239988327026,87.61868725046496L71.16711099412706,92.62029674882491L71.32182210498387,88.15641551759349L71.63124432669746,91.79693901202273L72.25008877012463,91.90483824019942L72.55951099183824,89.55674831888395L72.86893321355184,91.76717980381453L73.02364432440865,92.61293060817931L73.17835543526543,93.04853470139732L73.33306654612223,97.15489293025406L73.48777765697903,90.89997879788976L73.79719987869264,93.88303004285564L73.95191098954942,90.18192740775702L74.26133321126302,95.74059392629957L74.57075543297661,94.59848855148113L74.88017765469021,97.03662217604837L75.6537332089742,90.51800020857169L75.9631554306878,89.8910532459437L76.11786654154459,90.2607156481023L76.42728876325819,92.77775537126519L76.581999874115,93.24129186981128L76.7367109849718,97.07869757141603L76.89142209582857,95.49556662386445L77.04613320668538,95.58236922523214L77.20084431754218,96.69406717146555L77.35555542839899,91.99140512506648L77.51026653925578,92.02352149828128L77.66497765011258,93.54695724204095L77.81968876096937,96.48310090337569L78.43853320439656,97.5395822593297L78.59324431525336,92.73408888951809L78.90266653696696,96.8577722811733L79.36679986953735,94.04579228656074L79.98564431296454,96.83702922911529L80.14035542382135,98.7549954658531L80.29506653467814,96.25563448023966L80.44977764553494,99.04309995878367L80.75919986724853,95.35820283310537L80.91391097810533,96.63225051916771L81.06862208896213,98.11302157630809L81.22333319981894,100.58645374684903L81.37804431067572,97.19278435773502L81.53275542153253,100.06236757219614L81.99688875410293,99.90199195806021L82.1515998649597,99.23927501645719L82.46102208667331,94.49783760569969L82.77044430838691,101.11746409370879L83.0798665301005,100.3267236276853L83.3892887518141,100.06422383963883L83.6987109735277,97.31512122157707L83.85342208438449,97.83204750752246L84.0081331952413,100.57835099213888L84.1628443060981,100.543347091791L84.31755541695489,100.09469019734901L84.47226652781168,99.47175041523222L84.62697763866848,97.7754166182391L84.78168874952529,100.00005002233439L84.93639986038208,102.24516129742443L85.24582208209567,101.78029889356213L85.55524430380927,101.9666917164583L85.70995541466607,99.39646845783422L86.01937763637966,98.15686484543068L86.32879985809326,99.04330621072174L86.48351096895006,98.747806112583L86.63822207980687,103.59122037443814L86.79293319066365,102.6812957527689L86.94764430152046,98.49771090538371L87.10235541237725,104.94974296142419L87.25706652323406,102.17329722928599L87.41177763409084,102.09182771374569L87.56648874494765,104.0317450496074L87.72119985580444,100.13496825439914L87.87591096666124,102.80018526278883L88.18533318837483,104.34442298773166L88.34004429923164,105.91597436218836L88.64946652094524,104.18943938854831L88.95888874265881,105.22853665257873L89.11359985351562,104.17950983095805L89.26831096437242,104.51684960796378L89.42302207522923,99.53845818491874L89.57773318608602,102.03018784882335L89.88715540779961,101.7219885242116L90.0418665186564,103.59549273601259L90.35128874037001,101.79464813553976L90.5059998512268,103.69953210649099L90.6607109620836,104.5360605027675L90.81542207294041,103.28891396234286L90.9701331837972,104.32668532105707L91.27955540551079,102.22105928523204L91.43426651636759,103.57967026590585L91.5889776272244,107.80368049315408L91.74368873808119,103.95787739121334L92.51724429236518,106.0604391125298L92.67195540322199,107.04075457420836L93.13608873579237,104.52563004761333L93.29079984664918,104.82569715295236L93.60022206836277,108.05015155915572L93.75493317921956,105.73335300330274L94.06435540093317,104.00024743220682L94.37377762264676,107.40526067791505L95.14733317693074,108.4258836612063L95.30204428778754,106.39368331533659L95.76617762035794,106.68090387138969L95.92088873121473,108.6553831391605L96.07559984207153,107.41793043982547L96.23031095292833,109.42932880451202L96.38502206378513,109.062377142111L96.53973317464192,109.58887941089566L96.84915539635553,107.67194443384822L97.15857761806913,108.24712216001898L97.4679998397827,110.12153977326001L97.77742206149631,107.53213508439481L98.24155539406671,105.47262108901121L98.3962665049235,111.85812216274066L98.86039983749389,109.63413697902219L99.0151109483507,111.12748940438524L99.16982205920749,111.8250923880858L99.3245331700643,112.82338123293961L99.63395539177787,112.13037472100191L99.78866650263468,108.53614005438959L100.25279983520507,114.09698695056323L100.40751094606188,111.72517805636895L100.71693316777548,108.74737150354271L101.18106650034586,112.74703855128865L101.64519983291626,109.33088770092428L101.79991094377307,118.42786514629778L101.95462205462985,111.68619644007245L102.10933316548665,112.85879763716365L102.26404427634345,113.20494731838151L102.57346649805704,113.1290171406067L102.72817760891384,113.28329359028807L102.88288871977065,115.48980628839519L103.03759983062744,110.37419839740397L103.19231094148425,111.96148384827967L103.34702205234103,111.05320924211506L103.50173316319783,109.9894206746406L103.81115538491143,113.44019238603927L104.12057760662502,114.30474158133164L104.27528871748183,113.46768282292865L104.73942205005223,114.36646983994174L104.894133160909,114.52136504543734L105.51297760433621,114.98239705616393L105.9771109369066,112.45749029479155L106.13182204776341,117.30343850902877L106.441244269477,114.61217482731625L106.59595538033379,114.50353898507498L106.9053776020474,116.18670212259377L107.06008871290418,116.67466474352067L107.21479982376098,118.76196382141944L107.67893315633138,117.90009590132208L107.83364426718819,116.18570032746597L108.14306648890177,118.91880368804547L108.76191093232896,118.90754822513901L109.22604426489937,117.31395735787069L109.38075537575615,118.2595341002646L109.53546648661295,118.56876468456673L109.69017759746976,114.54926798620285L109.84488870832655,115.92490948404927L109.99959981918336,118.9209251365514L110.15431093004014,117.5720374615298L110.46373315175374,115.16434073011015L110.61844426261054,118.41384001450857L110.77315537346735,119.64737392702013L110.92786648432413,113.90246190839433L111.08257759518094,117.23269409426847L111.23728870603773,118.68615150189497L111.39199981689454,119.92213097310088L112.01084426032172,120.63375908859066L112.16555537117853,117.79284489352219L113.09382203631931,121.73741320923907L113.4032442580329,117.1490147365345L113.55795536888971,119.94054632471486L113.7126664797465,121.91181395516422L113.86737759060331,118.85079947760534L114.02208870146009,121.3245262937721L114.17679981231689,124.28409428235983L114.3315109231737,122.3010997560027L114.48622203403049,120.93108598960951L114.6409331448873,120.51009631943239L114.79564425574408,120.48782111012011L114.95035536660089,121.07289892931854L115.10506647745768,119.22228868264405L115.25977758831448,123.63540247254603L115.41448869917127,122.90332595062408L115.56919981002807,121.88912624197579L115.72391092088488,122.38642912924128L115.87862203174167,122.32755893320167L116.18804425345526,123.34511760198437L116.34275536431207,124.38975420378026L116.49746647516886,123.18203124809087L116.80688869688247,122.08200126864007L117.11631091859606,123.34517653110953L117.42573314030966,123.37375715681445L117.58044425116645,124.5054615410413L118.04457758373684,125.6295640681219L118.19928869459365,126.12559997919635L118.35399980545044,123.74901782586372L118.66342202716403,127.03381565623582L118.81813313802084,123.99825856074811L118.97284424887764,127.97830220981417L119.28226647059122,124.46373972042463L119.59168869230483,128.8574658281474L119.74639980316162,127.78704773409191L120.05582202487521,123.26152663793813L120.210533135732,126.872231995034L120.36524424658882,125.77794760528678L120.51995535744561,126.16346194211472L120.67466646830242,125.67983061188744L120.8293775791592,126.95703100614611L120.98408869001601,124.99519203572314L121.1387998008728,125.70661389927483L121.2935109117296,124.34868060354043L121.60293313344319,127.00812255766397L121.7576442443,126.75923539753056L121.91235535515679,125.23049603250605L122.37648868772719,127.2330255638553L122.53119979858398,125.45531064500966L122.68591090944078,129.439567726525L122.99533313115437,124.8955428850695L123.15004424201118,127.57519752912457L123.30475535286797,129.04341668260483L123.45946646372478,129.14845784821105L123.76888868543836,128.24333595024274L124.07831090715196,129.28249214339831L124.23302201800877,127.21375573992644L124.38773312886556,124.42805813513736L124.69715535057915,129.84691530422648L125.00657757229276,132.80171003367587L125.31599979400634,125.15500782317L125.47071090486314,129.54702498626298L125.62542201571995,129.50391833120494L126.08955534829033,130.0557011946853L126.70839979171754,129.81774538726992L126.86311090257432,130.10473022682237L127.01782201343113,125.4796483737027L127.17253312428792,128.7990376005465L127.32724423514472,128.5956437250403L127.63666645685831,132.2125366402785L127.79137756771512,130.53391104539742L128.25551090028551,127.66317871299557L128.4102220111423,128.56668006002184L128.7196442328559,130.23390286918357L129.0290664545695,128.55928445481368L129.1837775654263,131.82905535826876L129.6479108979967,128.7564318430524L129.95733311971028,131.90333552053895L130.11204423056708,130.62330652827237L130.26675534142387,131.62507219151087L130.5761775631375,131.13366221676188L130.7308886739943,130.99199659986576L130.88559978485105,130.11480710722554L131.04031089570788,133.21347729576473L131.19502200656467,131.27806803797813L131.34973311742147,130.91141102120292L131.50444422827826,131.50909967318663L131.65915533913508,131.65450728953067L131.81386644999185,131.51154523188097L132.43271089341906,130.8495943689051L132.58742200427585,130.55309247563852L132.89684422598944,130.041469810958L133.20626644770303,132.02019197574066L133.36097755855982,127.40341912926925L133.51568866941665,131.22700595102287L133.67039978027344,128.90690736416065L133.82511089113024,129.64042764964915L133.97982200198703,128.4486450223168L134.13453311284383,134.5803383539616L134.28924422370062,130.31702240022847L134.44395533455742,133.0761724341308L134.753377556271,127.37757870788451L134.90808866712783,132.4855258126043L135.06279977798462,128.5782890976793L135.21751088884142,133.09576636824806L135.3722219996982,128.80316263930806L135.6816442214118,133.18757794525482L135.8363553322686,136.29249462106142L135.99106644312542,129.45577323594532L136.300488664839,136.45823278558734L136.4551997756958,131.87740670546643L136.6099108865526,134.05368876236403L136.7646219974094,131.8060435348919L136.9193331082662,134.48608121826052L137.07404421912298,132.14294134345892L137.22875532997978,133.11191294854325L137.3834664408366,135.44359110850033L137.5381775516934,131.90849181899085L138.00231088426378,132.16527548189634L138.31173310597737,129.4166442968359L138.62115532769096,135.60708996627L139.08528866026137,133.84469661996718L139.23999977111816,133.81997585196055L139.39471088197496,131.65627516328564L139.54942199283175,131.68933440250308L139.70413310368858,130.07718086080786L139.85884421454537,131.78521208914617L140.01355532540214,133.4517277488059L140.16826643625893,133.18268682786612L140.32297754711576,135.4317168897796L140.47768865797255,132.33837978706788L140.63239976882934,136.1235742837766L140.78711087968614,133.88488628332954L140.94182199054293,133.48664325546602L141.40595532311335,134.3805980842156L141.5606664339701,132.48010433308914L142.02479976654053,132.0000676794969L142.17951087739732,131.6325856549694L142.48893309911094,133.34869017345528L142.64364420996773,134.04263955139564L142.79835532082453,134.24514949002437L142.95306643168132,132.62598338243453L143.1077775425381,133.07307865505965L143.2624886533949,132.23896635291487L143.7266219859653,137.03002208706113L143.88133309682212,134.4164269923158L144.0360442076789,134.5239431811789L144.6548886511061,134.09411414222706L144.8095997619629,135.64710284225686L145.11902198367648,132.71137168479828L145.27373309453327,131.9411680188947L145.4284442053901,135.77085400510288L145.5831553162469,132.9782911572321L145.89257753796048,133.87719603249553L146.35671087053086,133.54563130975595L146.51142198138766,133.61608107889043L146.82084420310127,133.27679664075427L146.97555531395807,135.50800064230543L147.13026642481486,133.64360098034237L147.28497753567166,133.7293723220197L147.43968864652848,135.6726191534532L147.59439975738528,136.89483867393315L147.74911086824204,135.6062354939551L147.90382197909884,134.98058497208072L148.36795531166925,133.88641844058384L148.52266642252604,136.8435703350398L148.83208864423966,136.75576593854427L149.14151086595322,133.67934149475482L149.29622197681002,136.20743042888608L149.4509330876668,135.79751943423994L149.60564419852363,134.12793946007164L149.91506642023722,133.79186665925695L150.06977753109402,137.73378316434142L150.2244886419508,134.3899678151168L150.37919975280764,135.82070804499227L150.53391086366443,134.99737977275268L150.6886219745212,137.9631647840453L150.843333085378,136.85081861743507L150.99804419623482,135.29765313002977L151.4621775288052,133.39117807269906L151.616888639662,134.77415624662854L152.0810219722324,135.6082390842107L152.23573308308917,139.02978194952766L152.390444193946,135.61262930403547L152.69986641565959,134.31103225195858L153.00928863737317,135.22611317207975L153.16399974823,138.0892731118979L153.3187108590868,134.61204222330022L153.4734219699436,132.57674809835936L153.62813308080035,135.01747460443386L153.78284419165715,136.97648497684895L153.93755530251397,134.99858781981857L154.09226641337077,134.55169879913151L154.40168863508435,132.51537341450026L154.55639974594118,136.79486541309112L154.71111085679797,136.25513355570698L155.02053307851156,132.2896748651192L155.48466641108195,135.05622050422969L155.63937752193874,132.48425883641323L155.79408863279554,136.2289984886964L155.94879974365236,135.1004173481033L156.10351085450915,133.862699467705L156.41293307622274,132.54501476445813L156.56764418707954,138.5701937023676L156.72235529793633,136.2442022029889L157.03177751964992,137.42525972954127L157.18648863050672,135.4720244113923L157.49591085222033,134.3014857336819L157.96004418479072,137.197174550591L158.2694664065043,133.96886028668933L158.4241775173611,134.68057679586687L158.5788886282179,137.4554609061882L159.0430219607883,138.44629521670865L159.1977330716451,137.3555760390339L159.50715529335872,136.430742348698L159.66186640421552,136.51011988029495L159.97128862592908,136.788029634572L160.12599973678587,138.07383368110473L160.2807108476427,136.3554603913L160.59013306935628,137.09475573105465L160.74484418021308,140.1272190474712L161.20897751278346,138.04808165340773L161.36368862364026,138.58186166915021L161.67311084535388,136.17537298479647L161.82782195621067,137.2385133318941L161.98253306706746,136.76840623589214L162.13724417792426,139.15482955312729L162.44666639963788,138.24611297852394L162.60137751049467,139.8111821492125L162.75608862135144,137.0290792210585L162.91079973220823,136.7380282718697L163.22022195392185,138.58233310215152L163.52964417563544,135.70939092755603L163.83906639734906,134.50567515237782L163.99377750820585,135.425057898636L164.14848861906265,136.51238865161378L164.3031997299194,136.0801140539676L164.4579108407762,140.9374945184868L165.07675528420341,136.35062820303648L165.23146639506024,136.69813325413315L165.38617750591703,139.52793930910804L165.54088861677383,137.47113605348204L166.0050219493442,136.78475906812537L166.159733060201,135.43466334603787L166.3144441710578,138.464474851822L166.4691552819146,138.5044582632463L166.62386639277142,137.1462008573235L166.933288614485,136.6958644828143L167.0879997253418,136.96758667894906L167.24271083619857,137.5064640640183L167.3974219470554,138.66321332644017L167.70684416876898,135.6878523323083L168.0162663904826,137.86463528676978L168.1709775013394,138.85585263660383L168.3256886121962,139.36476456152678L168.48039972305298,135.87928359540606L168.63511083390978,139.8465101597488L168.94453305562337,135.8454288129989L169.09924416648016,136.66386596784983L169.25395527733696,139.8437994199912L169.56337749905057,138.117912666728L169.71808860990737,137.43012138236733L170.02751083162096,138.78269212771175L170.18222194247778,136.51456902924488L170.80106638590493,134.59675011532L170.95577749676175,135.1294988713721L171.26519971847534,137.85800576018875L171.41991082933214,137.90933302820727L171.57462194018896,133.70724443552032L171.72933305104576,140.48008664895784L171.88404416190252,139.03375966547628L172.03875527275932,139.25492067221967L172.1934663836161,136.58051072030426L172.50288860532973,138.7714366648053L172.65759971618652,137.63065719530306L172.81231082704332,136.88650020272232L173.27644415961373,135.75155471661142L173.4311552704705,138.08423467169632L173.5858663813273,136.09646688620083L173.74057749218412,140.0962223276345L174.0499997138977,137.4144462350735L174.97826637903847,135.55691181619218L175.1329774898953,137.76454416767743L175.2876886007521,138.11458317115617L175.44239971160889,135.86428613305162L175.59711082246568,134.74330684960475L176.2159552658929,139.70216326765768L176.68008859846327,142.8076103055908L176.83479970932007,139.08694320093747L177.14422193103366,136.41271003639758L177.60835526360407,141.66258793907673L177.76306637446086,133.72784016476544L178.07248859617445,139.4803540405375L178.22719970703125,140.0989036028295L178.38191081788804,138.7485132351162L178.53662192874484,137.44137684527382L178.84604415045845,139.35374481512096L179.00075526131525,138.47964910155193L179.15546637217204,137.5802433287246L179.3101774830288,139.12857662786638L179.46488859388563,136.66218648778263L179.61959970474243,138.10044018111662L179.77431081559922,139.17583778624854L179.92902192645602,136.76204189037435L180.0837330373128,137.10356563526676L180.39315525902643,137.12766764745916L180.54786636988322,139.35368588599582L180.85728859159684,138.797984235692L181.1667108133104,140.52419509914367L181.3214219241672,138.6645097671938L181.63084414588081,137.78178093678812L181.9402663675944,138.51989769403946L182.0949774784512,141.07709761600213L182.24968858930802,136.75582486766945L182.40439970016482,137.435719649258L182.86853303273517,137.650486845921L183.023244143592,136.73891220874717L183.1779552544488,138.97424124905984L183.33266636530558,139.2071586162736L183.6420885870192,138.80505573071179L183.796799697876,139.7483047726617L184.10622191958956,139.45631095747027L184.26093303044635,136.60806008631877L185.03448858473035,137.36500469906028L185.18919969558718,139.9883525640204L185.49862191730074,137.73584568372218L185.65333302815753,140.7235228650135L185.96275524987115,139.71621786400948L186.11746636072795,137.24478928372415L186.27217747158474,139.6387555289804L186.42688858244153,141.64243417827038L186.73631080415515,138.7466864322361L186.89102191501195,135.6547046994031L187.0457330258687,137.07312874211917L187.35515524758233,133.58543793380477L187.50986635843913,139.85364058389374L187.66457746929592,139.77986131918743L187.81928858015272,136.53398617598668L188.28342191272313,137.9554156040861L188.5928441344367,134.8728919958421L189.0569774670071,139.34393311578103L189.36639968872072,138.50383950743205L189.5211107995775,139.17731101437766L189.6758219104343,138.00524017941294L189.8305330212911,140.40194662898935L190.1399552430047,136.7828144069949L190.44937746471828,139.56606645308966L190.60408857557508,139.99262492559484L190.7587996864319,135.23795792623787L191.0682219081455,133.8749272611767L191.22293301900228,135.3775610237532L191.37764412985908,136.57034544621334L191.53235524071587,142.06913997358848L191.68706635157267,138.55372301188405L192.15119968414305,138.65799809886312L192.30591079499987,136.90541645190024L192.46062190585667,136.8416846030345L193.23417746014064,140.42398612180097L193.38888857099744,139.2076595138375L193.54359968185423,136.20162591005737L193.69831079271106,138.4537202864794L194.00773301442464,138.54933279205926L194.16244412528144,139.04996517489658L194.31715523613826,138.53863715584185L194.47186634699506,135.72438838991047L194.62657745785182,138.4472380827113L195.40013301213583,140.09943396495598L195.55484412299262,135.5440063377811L195.70955523384941,141.4180909987681L195.86426634470624,137.66701646552974L196.018977455563,136.4685159179286L196.1736885664198,139.26305289149238L196.48311078813342,138.85190438521778L196.6378218989902,137.0111353024458L196.792533009847,135.26453496168716L196.9472441207038,137.5925005867589L197.1019552315606,137.62461695997368L197.25666634241742,135.25269020752904L197.4113774532742,136.33079855241854L197.56608856413098,138.1374182071575L197.72079967498777,139.85325754458017L198.0302218967014,141.8285618201033L198.1849330075582,136.76590174807262L198.33964411841498,138.2473504901524L198.49435522927178,139.00314598495316L198.6490663401286,137.23695171007722L198.8037774509854,137.79123906137707L198.9584885618422,137.17307253839863L199.26791078355575,138.674233072846L199.57733300526937,139.63633943484865L199.88675522698296,136.8469292951742L200.04146633783978,137.4713423054201L200.19617744869657,139.64488415799752L200.50559967041013,140.42154056310665L200.81502189212375,139.21909176411947L200.96973300298055,135.98055329700173L201.27915522469414,137.23904369402058L201.58857744640775,136.23907536909957L201.74328855726455,139.72084380033493L201.89799966812134,139.68955243487244L202.20742188983493,139.60985079308708L202.67155522240532,137.15898847748423L202.82626633326214,141.90770363519957L203.29039966583252,132.72433609233454L203.59982188754614,138.80702985640482L204.0639552201165,138.70054492723207L204.5280885526869,138.47175259877983L204.6827996635437,137.0807895283906L204.8375107744005,139.075687738031L204.99222188525732,137.85246642242328L205.1469329961141,136.1474995085935L205.30164410697088,135.37228686705095L205.45635521782768,139.19513707474L205.61106632868447,137.24543750410095L205.7657774395413,140.03912000534984L205.9204885503981,133.71086857671798L206.22991077211168,138.6011314930791L206.3846218829685,135.65576542365608L206.5393329938253,141.4630833858314L207.00346632639565,134.70105466686164L207.15817743725248,138.13311638102047L207.46759965896607,139.81348038509395L207.62231076982286,134.30139733999414L207.77702188067965,137.62700358954285L207.93173299153648,135.66604855599735L208.24115521325004,137.6003086958432L208.70528854582045,133.5363499725425L208.85999965667725,137.7293340153915L209.01471076753404,138.95753484207563L209.16942187839084,138.03228864786357L209.32413298924766,138.2970277426663L209.47884410010445,135.43080348833956L209.63355521096122,140.61636025090138L209.788266321818,136.458822076839L209.94297743267484,133.77457096102108L210.09768854353163,134.7755705456325L210.25239965438843,137.956977225903L210.40711076524522,134.69466085678124L210.56182187610202,135.43439816497462L210.71653298695884,138.35622204889432L211.02595520867243,133.02605321317816L211.1806663195292,136.9938101396474L211.335377430386,134.98403232590286L211.4900885412428,133.6360875168839L213.0371996498108,134.93951137184087L213.5013329823812,135.7186133356443L213.656044093238,136.23662981040525L213.8107552040948,138.945866875293L213.96546631495158,135.07086439183314L214.27488853666517,132.5338476952394L214.42959964752197,136.86540357591335L214.58431075837876,135.40021927237905L214.73902186923556,135.42950704758596L214.89373298009235,139.22027034662278L215.20315520180597,136.62983439806717L215.35786631266276,136.6292745713781L215.51257742351956,134.13415648277652L215.66728853437638,136.05996029316125L215.82199964523315,136.58242591687213L215.97671075608994,136.93994891924677L216.13142186694674,132.09585697245225L216.28613297780353,136.72886479290656L216.44084408866036,137.7316617158355L216.59555519951715,137.08992354279113L216.75026631037395,132.42320826274255L217.05968853208756,137.26099479314445L217.21439964294436,136.40089474680204L217.52382186465792,133.75123502745583L217.6785329755147,137.2757860035608L217.83324408637154,134.8012636442043L218.14266630808513,141.10782915477557L218.29737741894192,133.03492204651545L218.45208852979874,135.82830990213853L218.60679964065554,136.1199206780164L218.7615107515123,134.89938063760366L218.9162218623691,138.83926408786994L219.5350663057963,136.64777831667985L219.8444885275099,136.11617867856845L220.30862186008028,135.27976814054225L220.46333297093707,137.34496879650425L220.7727551926507,133.48620128702728L220.9274663035075,131.95964229963388L221.08217741436428,134.85359270735063L221.3915996360779,138.3622328196611L221.5463107469347,136.74456940476298L221.7010218577915,132.49519018913134L221.85573296864825,135.5558805565018L222.01044407950508,136.4392576072843L222.16515519036187,135.03456405073166L222.31986630121867,135.0288184610281L222.47457741207546,134.03203230886598L222.62928852293226,133.0853653776565L223.09342185550267,136.20351164206264L223.24813296635944,135.6687592957549L223.40284407721623,136.53056828672712L223.71226629892985,134.32046091198495L223.86697740978664,135.096557490405L224.02168852064344,134.71714231803162L224.17639963150026,136.6498408360606L224.33111074235705,132.09576857876448L224.7952440749274,133.72347940950323L224.94995518578423,133.0958842264984L225.10466629664103,137.57390844776938L225.25937740749782,135.2087880092813L225.41408851835462,136.2028634216858L225.56879962921144,135.31503722195336L225.72351074006824,134.43811291037642L226.03293296178182,139.13435168213255L226.18764407263862,133.89858730493034L226.3423551834954,135.53519643356896L226.4970662943522,132.66947307680613L226.651777405209,138.33542006771114L226.8064885160658,137.5416152871791L226.9611996269226,134.44954516065837L227.11591073777942,137.4420839947758L227.5800440703498,130.11336334365902L227.73475518120662,132.34934060434853L228.04417740292018,134.27408369048027L228.6630218463474,134.2708720531588L228.81773295720419,132.25643883852626L229.1271551789178,137.40769885024216L229.2818662897746,131.21324600029686L229.74599962234495,129.3763662397858L230.05542184405857,135.4118577745991L230.21013295491537,136.48230533321717L230.36484406577216,132.48246149809574L230.67426628748578,135.95229678148522L230.82897739834254,134.89183770958257L230.98368850919934,132.1729068036052L231.13839962005613,133.8535065241793L231.44782184176975,139.19437099611284L231.60253295262655,137.30150856669522L231.75724406348334,134.005926706418L231.91195517434014,132.59869919748323L232.06666628519696,133.404024621985L232.37608850691052,135.94142435789232L232.53079961776731,136.30875905960693L232.68551072862414,134.53870492703268L232.99493295033773,135.18397884758693L233.14964406119452,133.94343236918075L233.61377739376493,131.6099863354687L233.9231996154785,133.15463656428767L234.0779107263353,136.4111484145807L234.3873329480489,133.07578939481724L234.5420440589057,138.19858663907854L234.6967551697625,138.43333080917242L234.85146628061932,134.6647837903227L235.00617739147611,136.65269889863112L235.1608885023329,134.3105018898321L235.31559961318968,133.2846047498386L235.7797329457601,137.99816868439316L235.93444405661688,135.86508167624135L236.08915516747368,136.45142647163084L236.2438662783305,133.15139546240363L236.3985773891873,137.0189139469676L236.5532885000441,135.75621011749945L236.70799961090088,129.74859205888907L237.01742183261447,136.55075151209604L237.17213294347127,138.04940755872394L237.32684405432806,132.84069164997237L237.48155516518486,134.23716459356456L237.63626627604168,134.84236670900674L237.79097738689848,136.74630781395535L238.25511071946886,133.89602388798568L238.56453294118245,132.2816310395342L238.71924405203924,136.35207196660303L238.87395516289604,136.89778513019138L239.02866627375283,136.9370908566763L239.18337738460966,136.5672516671422L239.33808849546645,137.0916324874209L239.49279960632325,135.29732901984136L239.64751071718004,135.52553205704194L239.80222182803686,135.0647652273786L239.95693293889363,137.0478186828609L240.421066271464,138.23385572048966L240.57577738232084,135.7959283478605L241.03991071489122,135.82707239051007L241.19462182574804,133.66643601634374L241.5040440474616,133.5472223961354L241.6587551583184,136.00020616024418L241.8134662691752,136.10280176715605L242.1228884908888,134.07584611342597L242.2775996017456,133.48637807440278L242.4323107126024,135.0692733054537L242.74173293431602,136.72288348670233L242.8964440451728,135.31695241852123L243.05115515602958,134.95182755900032L243.3605773777432,135.8154928174152L243.5152884886,137.00332719336149L243.6699995994568,133.55229030089959L243.97942182117038,133.63868039839113L244.1341329320272,137.07230373436687L244.288844042884,136.3671578226452L244.59826626459756,135.8490824187591L244.75297737545438,135.48593168493122L245.06239959716797,133.4963665611182L245.21711070802476,141.13859015811158L245.37182181888156,131.07110895039943L245.52653292973838,135.07139475395962L245.68124404059517,133.73335003796834L245.83595515145197,134.1721952330704L246.14537737316553,136.0674442920572L246.30008848402235,135.28875483212988L246.76422181659274,132.20128117737204L247.07364403830636,129.83492322725547L247.5377773708767,134.83367466304495L248.15662181430392,136.1661211121456L248.9301773685879,136.31671449150417L249.3943107011583,133.44503929309968L249.5490218120151,137.92433049056172L249.7037329228719,137.38692633362157L249.85844403372872,136.831843439132L250.0131551445855,135.23412753310214L250.1678662554423,135.7987569458684L250.47728847715592,133.67716111712372L250.6319995880127,137.97271130232198L250.94142180972628,136.25955324009433L251.09613292058307,133.43905798689545L251.4055551422967,135.11379425951569L251.5602662531535,131.16401071622172L251.71497736401028,134.9482034178027L251.8696884748671,136.61342263670878L252.17911069658066,136.1965285407306L252.33382180743746,136.51568868262302L252.48853291829425,130.13283941952596L252.64324402915108,134.50767874263343L252.79795514000787,133.44872236342246L252.95266625086467,134.89616900028219L253.10737736172146,132.7180306759419L253.26208847257828,134.521114583171L253.41679958343508,136.21400102634195L253.72622180514864,134.0707782086618L254.03564402686226,137.53483843778514L254.19035513771905,134.83025677378538L254.49977735943264,136.2525701387623L254.96391069200305,134.8804054593006L255.27333291371662,134.52600570055967L255.89217735714382,136.68404919321875L256.0468884680006,136.4600301239049L256.20159957885744,130.41979479451584L256.35631068971423,134.82893086846917L256.8204440222846,134.48711247795092L256.9751551331414,134.24971649722465L257.1298662439982,136.47296506687854L257.5939995765686,133.35355182628138L257.7487106874254,134.6602757122476L258.058132909139,135.6778049164677L258.21284401999577,138.386511619229L258.3675551308526,136.25422015426693L258.83168846342295,137.31005328984412L258.9863995742798,138.06988542971868L259.4505329068502,138.19036602611806L259.605244017707,137.01313889270142L259.7599551285638,135.4751181904635L259.91466623942057,135.37800299219194L260.06937735027736,136.58416432606447L260.22408846113416,134.0741371687962L260.378799571991,138.17118459587692L260.68822179370454,134.0453502911532L260.84293290456134,134.50246351505635L260.99764401541813,133.33283823878594L261.152355126275,135.69474703995257L261.3070662371318,132.59448576503397L261.4617773479886,135.28978609182028L261.61648845884537,137.47900309169154L261.7711995697021,134.91414238345743L261.92591068055896,136.4008063531143L262.54475512398614,136.36288546107076L262.8541773456997,132.9264629916497" fill="none"></path></g></g></g></g></g><g><g opacity="0.592086"><span style="white-space: normal;" fill="rgb(0, 0, 0)" stroke="none" stroke-width="1px">Alt + Scroll to Zoom</span></g></g></g><g transform="translate(51, 177)" clip-path="url(#clip_1)"><clipPath id="clip_1"><rect width="278" height="22"></rect></clipPath><g><g><line x1="0" y1="0" x2="0" y2="5" style="visibility: inherit;" fill="rgb(0, 0, 0)" stroke="rgb(204, 204, 204)" stroke-width="1px"></line><line x1="30.94222217135959" y1="0" x2="30.94222217135959" y2="5" style="visibility: inherit;" fill="rgb(0, 0, 0)" stroke="rgb(204, 204, 204)" stroke-width="1px"></line><line x1="61.88444434271918" y1="0" x2="61.88444434271918" y2="5" style="visibility: inherit;" fill="rgb(0, 0, 0)" stroke="rgb(204, 204, 204)" stroke-width="1px"></line><line x1="92.82666651407877" y1="0" x2="92.82666651407877" y2="5" style="visibility: inherit;" fill="rgb(0, 0, 0)" stroke="rgb(204, 204, 204)" stroke-width="1px"></line><line x1="123.76888868543836" y1="0" x2="123.76888868543836" y2="5" style="visibility: inherit;" fill="rgb(0, 0, 0)" stroke="rgb(204, 204, 204)" stroke-width="1px"></line><line x1="154.71111085679797" y1="0" x2="154.71111085679797" y2="5" style="visibility: inherit;" fill="rgb(0, 0, 0)" stroke="rgb(204, 204, 204)" stroke-width="1px"></line><line x1="185.65333302815753" y1="0" x2="185.65333302815753" y2="5" style="visibility: inherit;" fill="rgb(0, 0, 0)" stroke="rgb(204, 204, 204)" stroke-width="1px"></line><line x1="216.59555519951715" y1="0" x2="216.59555519951715" y2="5" style="visibility: inherit;" fill="rgb(0, 0, 0)" stroke="rgb(204, 204, 204)" stroke-width="1px"></line><line x1="247.5377773708767" y1="0" x2="247.5377773708767" y2="5" style="visibility: inherit;" fill="rgb(0, 0, 0)" stroke="rgb(204, 204, 204)" stroke-width="1px"></line><line x1="278.4799995422363" y1="0" x2="278.4799995422363" y2="5" style="visibility: inherit;" fill="rgb(0, 0, 0)" stroke="rgb(204, 204, 204)" stroke-width="1px"></line></g><g transform="translate(0, 8)"><text style="text-anchor: middle; visibility: hidden; font-family: &quot;Helvetica Neue&quot;, sans-serif; font-size: 12px; font-weight: 200;" x="0" y="0" dx="0em" dy="0.95em" fill="rgb(50, 49, 63)" stroke="none" stroke-width="1px">-200</text><text style="text-anchor: middle; visibility: inherit; font-family: &quot;Helvetica Neue&quot;, sans-serif; font-size: 12px; font-weight: 200;" x="30.94222217135959" y="0" dx="0em" dy="0.95em" fill="rgb(50, 49, 63)" stroke="none" stroke-width="1px">0</text><text style="text-anchor: middle; visibility: hidden; font-family: &quot;Helvetica Neue&quot;, sans-serif; font-size: 12px; font-weight: 200;" x="61.88444434271918" y="0" dx="0em" dy="0.95em" fill="rgb(50, 49, 63)" stroke="none" stroke-width="1px">200</text><text style="text-anchor: middle; visibility: inherit; font-family: &quot;Helvetica Neue&quot;, sans-serif; font-size: 12px; font-weight: 200;" x="92.82666651407877" y="0" dx="0em" dy="0.95em" fill="rgb(50, 49, 63)" stroke="none" stroke-width="1px">400</text><text style="text-anchor: middle; visibility: hidden; font-family: &quot;Helvetica Neue&quot;, sans-serif; font-size: 12px; font-weight: 200;" x="123.76888868543836" y="0" dx="0em" dy="0.95em" fill="rgb(50, 49, 63)" stroke="none" stroke-width="1px">600</text><text style="text-anchor: middle; visibility: inherit; font-family: &quot;Helvetica Neue&quot;, sans-serif; font-size: 12px; font-weight: 200;" x="154.71111085679797" y="0" dx="0em" dy="0.95em" fill="rgb(50, 49, 63)" stroke="none" stroke-width="1px">800</text><text style="text-anchor: middle; visibility: hidden; font-family: &quot;Helvetica Neue&quot;, sans-serif; font-size: 12px; font-weight: 200;" x="185.65333302815753" y="0" dx="0em" dy="0.95em" fill="rgb(50, 49, 63)" stroke="none" stroke-width="1px">1k</text><text style="text-anchor: middle; visibility: inherit; font-family: &quot;Helvetica Neue&quot;, sans-serif; font-size: 12px; font-weight: 200;" x="216.59555519951715" y="0" dx="0em" dy="0.95em" fill="rgb(50, 49, 63)" stroke="none" stroke-width="1px">1.2k</text><text style="text-anchor: middle; visibility: hidden; font-family: &quot;Helvetica Neue&quot;, sans-serif; font-size: 12px; font-weight: 200;" x="247.5377773708767" y="0" dx="0em" dy="0.95em" fill="rgb(50, 49, 63)" stroke="none" stroke-width="1px">1.4k</text><text style="text-anchor: middle; visibility: hidden; font-family: &quot;Helvetica Neue&quot;, sans-serif; font-size: 12px; font-weight: 200;" x="278.4799995422363" y="0" dx="0em" dy="0.95em" fill="rgb(50, 49, 63)" stroke="none" stroke-width="1px">1.6k</text></g><line x1="0" y1="0" x2="278.4799995422363" y2="0" fill="rgb(0, 0, 0)" stroke="rgb(204, 204, 204)" stroke-width="1px"></line></g></g></g></g></svg>