<svg viewBox="0 0 330 200" xmlns="http://www.w3.org/2000/svg"><g><g><g><g><g><line x1="39.15625" y1="177" x2="34.15625" y2="177" style="visibility: inherit;" fill="rgb(0, 0, 0)" stroke="rgb(204, 204, 204)" stroke-width="1px"></line><line x1="39.15625" y1="159.29999999999998" x2="34.15625" y2="159.29999999999998" style="visibility: inherit;" fill="rgb(0, 0, 0)" stroke="rgb(204, 204, 204)" stroke-width="1px"></line><line x1="39.15625" y1="141.60000000000002" x2="34.15625" y2="141.60000000000002" style="visibility: inherit;" fill="rgb(0, 0, 0)" stroke="rgb(204, 204, 204)" stroke-width="1px"></line><line x1="39.15625" y1="123.89999999999999" x2="34.15625" y2="123.89999999999999" style="visibility: inherit;" fill="rgb(0, 0, 0)" stroke="rgb(204, 204, 204)" stroke-width="1px"></line><line x1="39.15625" y1="106.20000000000002" x2="34.15625" y2="106.20000000000002" style="visibility: inherit;" fill="rgb(0, 0, 0)" stroke="rgb(204, 204, 204)" stroke-width="1px"></line><line x1="39.15625" y1="88.5" x2="34.15625" y2="88.5" style="visibility: inherit;" fill="rgb(0, 0, 0)" stroke="rgb(204, 204, 204)" stroke-width="1px"></line><line x1="39.15625" y1="70.79999999999998" x2="34.15625" y2="70.79999999999998" style="visibility: inherit;" fill="rgb(0, 0, 0)" stroke="rgb(204, 204, 204)" stroke-width="1px"></line><line x1="39.15625" y1="53.099999999999966" x2="34.15625" y2="53.099999999999966" style="visibility: inherit;" fill="rgb(0, 0, 0)" stroke="rgb(204, 204, 204)" stroke-width="1px"></line><line x1="39.15625" y1="35.400000000000034" x2="34.15625" y2="35.400000000000034" style="visibility: inherit;" fill="rgb(0, 0, 0)" stroke="rgb(204, 204, 204)" stroke-width="1px"></line><line x1="39.15625" y1="17.700000000000017" x2="34.15625" y2="17.700000000000017" style="visibility: inherit;" fill="rgb(0, 0, 0)" stroke="rgb(204, 204, 204)" stroke-width="1px"></line><line x1="39.15625" y1="0" x2="34.15625" y2="0" style="visibility: inherit;" fill="rgb(0, 0, 0)" stroke="rgb(204, 204, 204)" stroke-width="1px"></line></g><g transform="translate(29.15625, 0)"><text x="0" y="177" dx="0em" dy="0.3em" style="text-anchor: end; visibility: hidden; font-family: &quot;Helvetica Neue&quot;, sans-serif; font-size: 12px; font-weight: 200;" fill="rgb(50, 49, 63)" stroke="none" stroke-width="1px">1.5</text><text x="0" y="159.29999999999998" dx="0em" dy="0.3em" style="text-anchor: end; visibility: inherit; font-family: &quot;Helvetica Neue&quot;, sans-serif; font-size: 12px; font-weight: 200;" fill="rgb(50, 49, 63)" stroke="none" stroke-width="1px">1.6</text><text x="0" y="141.60000000000002" dx="0em" dy="0.3em" style="text-anchor: end; visibility: hidden; font-family: &quot;Helvetica Neue&quot;, sans-serif; font-size: 12px; font-weight: 200;" fill="rgb(50, 49, 63)" stroke="none" stroke-width="1px">1.7</text><text x="0" y="123.89999999999999" dx="0em" dy="0.3em" style="text-anchor: end; visibility: inherit; font-family: &quot;Helvetica Neue&quot;, sans-serif; font-size: 12px; font-weight: 200;" fill="rgb(50, 49, 63)" stroke="none" stroke-width="1px">1.8</text><text x="0" y="106.20000000000002" dx="0em" dy="0.3em" style="text-anchor: end; visibility: hidden; font-family: &quot;Helvetica Neue&quot;, sans-serif; font-size: 12px; font-weight: 200;" fill="rgb(50, 49, 63)" stroke="none" stroke-width="1px">1.9</text><text x="0" y="88.5" dx="0em" dy="0.3em" style="text-anchor: end; visibility: inherit; font-family: &quot;Helvetica Neue&quot;, sans-serif; font-size: 12px; font-weight: 200;" fill="rgb(50, 49, 63)" stroke="none" stroke-width="1px">2</text><text x="0" y="70.79999999999998" dx="0em" dy="0.3em" style="text-anchor: end; visibility: hidden; font-family: &quot;Helvetica Neue&quot;, sans-serif; font-size: 12px; font-weight: 200;" fill="rgb(50, 49, 63)" stroke="none" stroke-width="1px">2.1</text><text x="0" y="53.099999999999966" dx="0em" dy="0.3em" style="text-anchor: end; visibility: inherit; font-family: &quot;Helvetica Neue&quot;, sans-serif; font-size: 12px; font-weight: 200;" fill="rgb(50, 49, 63)" stroke="none" stroke-width="1px">2.2</text><text x="0" y="35.400000000000034" dx="0em" dy="0.3em" style="text-anchor: end; visibility: hidden; font-family: &quot;Helvetica Neue&quot;, sans-serif; font-size: 12px; font-weight: 200;" fill="rgb(50, 49, 63)" stroke="none" stroke-width="1px">2.3</text><text x="0" y="17.700000000000017" dx="0em" dy="0.3em" style="text-anchor: end; visibility: inherit; font-family: &quot;Helvetica Neue&quot;, sans-serif; font-size: 12px; font-weight: 200;" fill="rgb(50, 49, 63)" stroke="none" stroke-width="1px">2.4</text><text x="0" y="0" dx="0em" dy="0.3em" style="text-anchor: end; visibility: hidden; font-family: &quot;Helvetica Neue&quot;, sans-serif; font-size: 12px; font-weight: 200;" fill="rgb(50, 49, 63)" stroke="none" stroke-width="1px">2.5</text></g><line x1="39.15625" y1="0" x2="39.15625" y2="177" fill="rgb(0, 0, 0)" stroke="rgb(204, 204, 204)" stroke-width="1px"></line></g></g><g transform="translate(39, 0)" clip-path="url(#clip_0)"><clipPath id="clip_0"><rect width="290" height="177"></rect></clipPath><g><g><g><line x1="0" y1="0" x2="0" y2="177" fill="rgb(0, 0, 0)" stroke="rgb(60, 60, 60)" stroke-width="1px" opacity="0.25"></line><line x1="29.084375" y1="0" x2="29.084375" y2="177" fill="rgb(0, 0, 0)" stroke="rgb(60, 60, 60)" stroke-width="1px" opacity="0.25"></line><line x1="58.16875" y1="0" x2="58.16875" y2="177" fill="rgb(0, 0, 0)" stroke="rgb(60, 60, 60)" stroke-width="1px" opacity="0.25"></line><line x1="87.253125" y1="0" x2="87.253125" y2="177" fill="rgb(0, 0, 0)" stroke="rgb(60, 60, 60)" stroke-width="1px" opacity="0.25"></line><line x1="116.3375" y1="0" x2="116.3375" y2="177" fill="rgb(0, 0, 0)" stroke="rgb(60, 60, 60)" stroke-width="1px" opacity="0.25"></line><line x1="145.421875" y1="0" x2="145.421875" y2="177" fill="rgb(0, 0, 0)" stroke="rgb(60, 60, 60)" stroke-width="1px" opacity="0.25"></line><line x1="174.50625" y1="0" x2="174.50625" y2="177" fill="rgb(0, 0, 0)" stroke="rgb(60, 60, 60)" stroke-width="1px" opacity="0.25"></line><line x1="203.590625" y1="0" x2="203.590625" y2="177" fill="rgb(0, 0, 0)" stroke="rgb(60, 60, 60)" stroke-width="1px" opacity="0.25"></line><line x1="232.675" y1="0" x2="232.675" y2="177" fill="rgb(0, 0, 0)" stroke="rgb(60, 60, 60)" stroke-width="1px" opacity="0.25"></line><line x1="261.75937500000003" y1="0" x2="261.75937500000003" y2="177" fill="rgb(0, 0, 0)" stroke="rgb(60, 60, 60)" stroke-width="1px" opacity="0.25"></line><line x1="290.84375" y1="0" x2="290.84375" y2="177" fill="rgb(0, 0, 0)" stroke="rgb(60, 60, 60)" stroke-width="1px" opacity="0.25"></line></g><g><line x1="0" y1="177" x2="290.84375" y2="177" fill="rgb(0, 0, 0)" stroke="rgb(60, 60, 60)" stroke-width="1px" opacity="0.25"></line><line x1="0" y1="159.29999999999998" x2="290.84375" y2="159.29999999999998" fill="rgb(0, 0, 0)" stroke="rgb(60, 60, 60)" stroke-width="1px" opacity="0.25"></line><line x1="0" y1="141.60000000000002" x2="290.84375" y2="141.60000000000002" fill="rgb(0, 0, 0)" stroke="rgb(60, 60, 60)" stroke-width="1px" opacity="0.25"></line><line x1="0" y1="123.89999999999999" x2="290.84375" y2="123.89999999999999" fill="rgb(0, 0, 0)" stroke="rgb(60, 60, 60)" stroke-width="1px" opacity="0.25"></line><line x1="0" y1="106.20000000000002" x2="290.84375" y2="106.20000000000002" fill="rgb(0, 0, 0)" stroke="rgb(60, 60, 60)" stroke-width="1px" opacity="0.25"></line><line x1="0" y1="88.5" x2="290.84375" y2="88.5" fill="rgb(0, 0, 0)" stroke="rgb(60, 60, 60)" stroke-width="1px" opacity="0.25"></line><line x1="0" y1="70.79999999999998" x2="290.84375" y2="70.79999999999998" fill="rgb(0, 0, 0)" stroke="rgb(60, 60, 60)" stroke-width="1px" opacity="0.25"></line><line x1="0" y1="53.099999999999966" x2="290.84375" y2="53.099999999999966" fill="rgb(0, 0, 0)" stroke="rgb(60, 60, 60)" stroke-width="1px" opacity="0.25"></line><line x1="0" y1="35.400000000000034" x2="290.84375" y2="35.400000000000034" fill="rgb(0, 0, 0)" stroke="rgb(60, 60, 60)" stroke-width="1px" opacity="0.25"></line><line x1="0" y1="17.700000000000017" x2="290.84375" y2="17.700000000000017" fill="rgb(0, 0, 0)" stroke="rgb(60, 60, 60)" stroke-width="1px" opacity="0.25"></line><line x1="0" y1="0" x2="290.84375" y2="0" fill="rgb(0, 0, 0)" stroke="rgb(60, 60, 60)" stroke-width="1px" opacity="0.25"></line></g></g></g><g><g><line x1="0" y1="442.5" x2="290.84375" y2="442.5" fill="rgb(0, 0, 0)" stroke="rgb(153, 153, 153)" stroke-width="1.5px"></line></g></g><g><g><line x1="29.084375" y1="0" x2="29.084375" y2="177" fill="rgb(0, 0, 0)" stroke="rgb(153, 153, 153)" stroke-width="1.5px"></line></g></g><g><g><g><g><g><path stroke="rgb(0, 119, 187)" stroke-width="2px" d="M30.53859375,180.92038822174072L30.684015625,173.34810984134674L30.829437499999997,161.3054916858673L30.974859374999998,152.6361587047577L31.120281249999998,145.3140424489975L31.265703124999998,132.28487062454224L31.411125,121.63489758968353L31.556546875,123.92338728904724L31.70196875,118.71602296829224L31.847390625,121.31234121322632L31.9928125,114.82061719894409L32.28365625,116.2383291721344L32.5745,108.68518853187561L32.719921875000004,113.74571764469147L33.44703125,109.55866706371307L33.592453125,109.71166348457336L33.737875,96.48410904407501L33.883296875,89.39126586914062L34.02871875,102.89757299423218L34.319562499999996,95.29611325263977L34.755828125,94.32774782180786L34.90125,92.94149601459503L35.19209375,97.23005890846252L35.337515625,90.90576374530792L35.4829375,82.90207386016846L35.628359375,80.29955220222473L35.919203125,83.94741225242615L36.210046875,77.73247861862183L36.35546875,73.89176416397095L36.791734375,77.070485830307L36.93715625,68.37022018432617L37.082578125,77.25338101387024L37.228,67.16680026054382L37.373421875,70.39000082015991L37.8096875,64.49198985099792L37.955109375,64.75595140457153L38.245953125,53.53351306915283L38.536796875,62.243653535842896L38.682218750000004,65.1994321346283L38.827640625,60.059250354766846L38.973062500000005,54.73980259895325L39.118484375,49.01291298866272L39.409328125,51.07729911804199L39.554750000000006,47.9620041847229L39.700171875,47.40184020996094L39.845593750000006,45.55330753326416L40.13643750000001,41.720484495162964L40.42728125000001,38.688239336013794L40.572703125000004,42.08754086494446L40.863546875000004,41.94110655784607L41.299812499999994,30.209355354309082L41.445234375,35.072662353515625L41.590656249999995,31.022424459457397L41.736078125,34.247777223587036L41.881499999999996,28.155223846435547L42.026921875,31.818275928497314L42.317765625,26.77165174484253L42.75403125,17.427117347717285L43.481140624999995,14.122344017028809L43.91740625,10.462752342224121L44.20825,15.51258373260498L44.353671874999996,2.760392189025879L44.49909375,11.106641292572021L45.517046875,18.307664394378662L45.9533125,20.022802591323853L46.24415625,18.4129958152771L46.389578125,21.52086353302002L46.535000000000004,10.552976131439209L47.116687500000005,19.232648134231567L47.262109375,19.617090940475464L47.407531250000005,18.872259378433228L47.843796875,24.040082216262817L47.98921875,20.262625694274902L48.425484375,18.94674253463745L49.007171875000004,23.395729064941406L49.298015625000005,22.902241230010986L49.588859375000006,17.363648414611816L49.73428125,23.518067121505737L49.879703125000006,24.67536234855652L50.025124999999996,28.098084926605225L50.170546875,27.779052257537842L50.315968749999996,24.962533950805664L50.6068125,24.612568616867065L50.89765625,24.867499351501465L51.333921874999994,25.516663312911987L51.47934375,29.18735361099243L51.624765624999995,27.417819499969482L51.915609374999995,28.83418107032776L52.06103125,26.132320404052734L52.206453124999996,27.325105905532837L52.497296874999996,33.15234732627869L52.64271875,31.307654857635498L52.9335625,31.223212480545044L53.078984375,32.939194679260254L53.369828125,27.616286516189575L53.51525,33.193703413009644L53.660671875,33.15762233734131L53.951515625,28.940398693084717L54.533203125,29.419454097747803L54.678625,33.25788974761963L54.824046875,32.58040952682495L54.96946875,33.48534822463989L55.2603125,31.93386197090149L55.405734375,30.81766963005066L55.696578125,33.035199880599976L55.987421875,46.634220600128174L56.13284375,38.27889847755432L56.278265625,39.49801683425903L56.4236875,35.047595500946045L56.71453125,38.92401123046875L56.859953125000004,30.52256441116333L57.87790625,33.04013729095459L58.45959375,35.888938665390015L59.041281250000004,43.20255160331726L59.186703124999994,36.33474040031433L59.332125,45.790809631347656L59.9138125,39.15817952156067L60.059234374999996,44.76214027404785L60.20465625,34.658215284347534L60.350078124999996,37.81609010696411L60.78634375,41.83569073677063L60.931765625,39.668842792510986L61.222609375,37.1802613735199L61.36803125,42.13092255592346L61.513453125,43.93282413482666L61.804296875,41.687230825424194L61.949718749999995,40.5466468334198L62.095140625,45.0106143951416L62.385984375,38.37984108924866L62.531406249999996,43.682408809661865L62.676828125,42.996826171875L62.82225,38.421239376068115L62.967671875,40.966495513916016L63.11309375,47.686479806900024L63.549359375,47.54097390174866L63.69478125,43.23112106323242L63.985625,41.29519200325012L64.5673125,41.61316967010498L64.712734375,43.157735109329224L65.003578125,48.9689404964447L65.149,39.78392243385315L65.294421875,44.24924039840698L65.43984375000001,45.541786909103394L65.585265625,42.954752683639526L66.166953125,43.28775358200073L66.60321875,45.2135124206543L66.74864062500001,42.88145112991333L66.8940625,49.70642924308777L67.039484375,47.107874393463135L67.33032812500001,45.153335094451904L67.91201562500001,44.5005841255188L68.202859375,51.86331796646118L68.493703125,53.25043487548828L68.63912499999999,47.366687536239624L68.78454687499999,49.20180058479309L68.92996875,52.687063694000244L69.075390625,43.81652069091797L69.36623437499999,46.758288860321045L69.51165625,43.738619327545166L69.8025,47.49615740776062L70.09334375,47.791093826293945L70.3841875,51.477566957473755L71.111296875,47.81772208213806L71.402140625,55.043474435806274L71.5475625,55.52759385108948L71.983828125,58.403361082077026L72.12925,47.66550636291504L72.274671875,46.41271233558655L72.42009375,52.807207345962524L72.565515625,53.66690754890442L72.7109375,47.74378752708435L72.856359375,52.504337310791016L73.00178125,48.490307092666626L73.147203125,53.5148184299469L73.728890625,51.78815960884094L73.8743125,51.293954372406006L74.16515625,55.04212403297424L74.601421875,49.22939944267273L75.183109375,58.57714104652405L75.32853125,56.03926992416382L75.47395312500001,56.938385009765625L75.619375,51.81411266326904L75.91021875,54.40291929244995L76.2010625,53.51962924003601L76.346484375,55.38677215576172L76.49190625,58.68492007255554L76.63732812500001,50.55435562133789L77.07359375,61.53418564796448L77.219015625,55.64609169960022L77.509859375,54.57256364822388L78.091546875,57.724910259246826L78.382390625,58.37719702720642L78.673234375,59.40341877937317L78.81865625,53.975305795669556L78.964078125,56.60728311538696L79.10950000000001,59.24972605705261L79.25492187500001,57.79546880722046L79.545765625,61.020272970199585L79.69118750000001,54.25931239128113L80.127453125,55.37630653381348L80.41829687500001,59.54791188240051L80.56371875,62.42709732055664L80.85456250000001,55.514554023742676L81.14540625000001,59.57107973098755L81.290828125,62.778117656707764L81.43625,60.57704544067383L81.72709375000001,54.805001735687256L81.87251562499999,58.937023401260376L82.01793749999999,59.37282371520996L82.163359375,60.01434946060181L82.45420312499999,65.01611495018005L82.59962499999999,58.917526960372925L82.89046875,59.61433482170105L83.035890625,59.091306924819946L83.32673437499999,63.213706970214844L83.617578125,59.03391480445862L83.76299999999999,64.22114968299866L83.90842187499999,70.25373673439026L84.05384375,64.25507855415344L84.199265625,61.91571664810181L84.49010937499999,61.355215072631836L84.63553125,60.05026173591614L85.07179687499999,69.22384357452393L85.21721875,53.01234197616577L85.362640625,68.04565930366516L85.5080625,64.1751937866211L85.79890625,64.83621597290039L85.944328125,53.73780369758606L86.08975,59.571332931518555L86.23517187499999,59.275805711746216L86.96228124999999,63.24582123756409L87.54396874999999,67.78317475318909L87.689390625,69.81422281265259L87.980234375,64.7675564289093L88.12565624999999,63.3845751285553L88.4165,66.43627452850342L89.434453125,69.96728253364563L89.579875,69.93727827072144L90.016140625,64.8580334186554L90.1615625,74.96043920516968L90.306984375,68.03088927268982L90.45240625,70.20600843429565L90.74325,69.48599052429199L91.03409375,67.85499930381775L91.3249375,70.51297187805176L91.61578125,74.57553219795227L91.906625,69.76054430007935L92.342890625,69.43712282180786L92.924578125,73.137775182724L93.07000000000001,79.39891791343689L93.215421875,76.06907773017883L93.36084375,71.78019833564758L93.65168750000001,72.5632631778717L93.797109375,75.0175359249115L94.23337500000001,73.78938674926758L94.378796875,74.29629421234131L94.669640625,67.94226908683777L95.10590625,75.45620584487915L95.54217187500001,79.01717591285706L95.68759375,75.73831343650818L95.833015625,71.0288257598877L95.9784375,81.01256489753723L96.12385937500001,79.56392025947571L96.414703125,76.2319700717926L96.560125,76.7418737411499L96.70554687500001,74.41943407058716L96.85096875,84.47187495231628L96.996390625,75.319899559021L97.1418125,77.9602324962616L97.28723437500001,74.45319414138794L97.578078125,79.74673104286194L97.86892187500001,84.00404477119446L98.01434375000001,82.20784020423889L98.45060937500001,74.96343541145325L98.59603125000001,75.50828075408936L99.17771875000001,75.22613096237183L99.613984375,82.01756000518799L99.75940625000001,82.58574199676514L100.05024999999999,80.77050518989563L100.19567187499999,80.74096512794495L100.486515625,74.34157490730286L100.77735937499999,81.48073267936707L101.213625,83.58748769760132L101.35904687499999,84.49960041046143L102.231578125,83.9668242931366L102.66784374999999,83.69134211540222L102.813265625,82.79024362564087L102.9586875,83.82368159294128L103.24953124999999,80.23405766487122L103.394953125,77.24523639678955L103.540375,76.07232713699341L103.83121874999999,79.20213890075684L103.976640625,83.93407702445984L104.1220625,84.53103947639465L104.267484375,83.13451194763184L104.41290624999999,83.67707848548889L104.558328125,81.95932388305664L104.70375,79.12470173835754L105.2854375,75.65813326835632L105.430859375,91.5809018611908L106.30339062499999,83.75801825523376L106.594234375,85.9116575717926L106.73965625,82.45762252807617L106.88507812499999,83.50397372245789L107.0305,81.94691705703735L107.175921875,84.26804852485657L107.32134375,79.21184492111206L107.466765625,86.79355502128601L107.6121875,81.45326042175293L107.757609375,78.05619549751282L107.90303125,82.89350724220276L108.048453125,80.75586175918579L108.193875,85.25645899772644L108.48471875,85.81054615974426L108.630140625,89.32140362262726L108.7755625,81.154061794281L108.920984375,87.47681665420532L109.211828125,84.70038843154907L109.35725,85.05419397354126L109.502671875,83.85765266418457L109.793515625,84.79808163642883L110.084359375,85.324147939682L110.375203125,82.28493976593018L110.520625,87.93776822090149L110.956890625,84.38861417770386L111.1023125,81.28108406066895L111.24773437500001,88.51732313632965L111.538578125,86.91032266616821L111.684,82.16981792449951L111.82942187500001,80.15404629707336L112.120265625,87.1086208820343L112.41110937500001,84.86336517333984L112.55653125,83.19903588294983L112.847375,83.34669399261475L112.99279687500001,84.44609069824219L113.13821875000001,90.1769471168518L113.283640625,84.84644293785095L113.4290625,83.14312076568604L113.574484375,83.85613346099854L113.71990625000001,83.62597417831421L113.865328125,86.34897708892822L114.01075,87.82319498062134L114.30159375000001,88.0243628025055L114.447015625,87.4760148525238L114.5924375,84.65067672729492L115.028703125,88.7594883441925L115.174125,88.18181133270264L115.319546875,81.92822241783142L115.61039062500001,91.09032583236694L115.7558125,86.76047015190125L115.901234375,87.15461897850037L116.04665625000001,81.12532353401184L116.3375,88.97034108638763L116.62834375000001,86.39328718185425L116.77376562500001,84.43250226974487L116.9191875,92.41602051258087L117.21003125000001,87.78175449371338L117.50087500000001,89.95527005195618L117.79171875,83.12476372718811L117.93714062500001,86.57044315338135L118.08256250000001,88.4910957813263L118.518828125,95.12619459629059L119.10051562499999,88.19134855270386L119.2459375,90.46042621135712L119.391359375,86.81794667243958L119.53678124999999,87.94148182868958L119.68220312499999,84.61442685127258L119.973046875,87.43647336959839L120.554734375,90.14339804649353L120.70015624999999,85.49429869651794L120.991,91.10910487174988L121.28184375,87.64945721626282L121.86353125,90.2522953748703L122.299796875,89.44699108600616L122.44521875,92.9856162071228L122.7360625,90.13099122047424L122.881484375,87.40638470649719L123.02690625,91.05783176422119L123.17232812499999,94.1239002943039L123.31774999999999,89.33066654205322L123.463171875,90.5587946176529L123.60859375,96.386394739151L123.754015625,87.43731737136841L123.89943749999999,90.6738953590393L124.48112499999999,83.45337581634521L124.626546875,95.15826666355133L124.917390625,89.59490239620209L125.208234375,97.03382849693298L125.35365625,91.64215528964996L125.499078125,91.99657273292542L125.6445,87.94219923019409L125.789921875,95.40294277667999L125.93534375,91.69600260257721L126.080765625,87.04261994361877L126.2261875,92.713045835495L126.371609375,94.53189074993134L126.662453125,94.64633738994598L126.807875,95.8634090423584L126.953296875,100.1569093465805L127.09871875,87.08304762840271L127.244140625,87.78589010238647L127.534984375,89.67098915576935L127.68040625,97.08121919631958L127.825828125,100.21522986888885L128.116671875,88.9516464471817L128.26209375,94.53389525413513L128.407515625,87.50918412208557L128.5529375,92.07434749603271L128.698359375,94.0704116821289L128.84378125,91.42271482944489L128.989203125,95.91700315475464L129.134625,88.26199150085449L129.280046875,90.04834234714508L129.71631250000002,91.70043361186981L130.00715625,95.43241953849792L130.298,87.26311540603638L130.734265625,91.67629516124725L130.87968750000002,94.9949734210968L131.025109375,99.05635213851929L131.17053125,90.44540297985077L131.315953125,94.34118854999542L131.461375,95.47335362434387L131.60679687500001,90.19998836517334L131.75221875,92.30161607265472L131.897640625,92.35457718372345L132.0430625,82.92292070388794L132.188484375,91.69547510147095L132.33390625,93.92055916786194L132.91559375,94.30869448184967L133.061015625,89.81286585330963L133.49728125000001,90.47597694396973L133.642703125,96.54831647872925L133.93354687500002,95.92489457130432L134.07896875,101.86957883834839L134.224390625,95.09329962730408L134.3698125,96.35052466392517L134.515234375,90.16259908676147L134.66065625000002,89.00684416294098L135.09692187500002,91.21344459056854L135.24234375,95.10047364234924L135.38776562500001,96.170330286026L135.969453125,91.9373871088028L136.114875,93.51410901546478L136.40571875,94.6945298910141L136.551140625,93.44536507129669L136.6965625,95.74081778526306L136.84198437499998,99.7373138666153L137.132828125,95.63548636436462L137.56909374999998,99.64443147182465L137.714515625,92.3482049703598L138.00535937499998,96.0751690864563L138.15078125,96.73925077915192L138.296203125,95.7985897064209L138.441625,99.29598534107208L138.587046875,93.18585562705994L138.73246874999998,96.84453999996185L139.0233125,92.62315964698792L139.459578125,99.15683054924011L139.605,93.04807233810425L139.89584374999998,95.19230103492737L140.1866875,96.1467193365097L140.332109375,98.2206426858902L140.47753125,97.7390763759613L140.622953125,100.08008408546448L140.913796875,100.44085264205933L141.05921874999999,103.45725166797638L141.204640625,92.82945477962494L141.3500625,95.54874408245087L141.495484375,99.40760457515717L141.64090625,101.9997661113739L141.78632812499998,94.33371913433075L141.93175,87.47977066040039L142.368015625,94.40989029407501L142.5134375,96.78484797477722L142.94970312499998,97.0020307302475L143.095125,98.99427580833435L143.240546875,98.6680269241333L143.531390625,99.14720892906189L143.822234375,97.08318150043488L143.96765625,98.53779745101929L144.113078125,93.8584406375885L144.2585,90.50663530826569L144.403921875,100.45201456546783L144.54934375,99.379035115242L144.694765625,96.33535373210907L144.8401875,93.08601021766663L145.13103125,92.45718669891357L145.276453125,94.27111530303955L145.421875,102.42007899284363L145.71271875,94.39940357208252L146.148984375,94.70269560813904L146.29440625,93.24210834503174L146.439828125,99.12264847755432L146.58525,95.57324123382568L146.73067187499998,96.64651608467102L147.02151562499998,102.1530579328537L147.1669375,100.1931803226471L147.31235937499997,95.78052806854248L147.603203125,96.86323463916779L147.748625,96.56023800373077L148.03946875,100.29823744297028L148.47573437499997,97.98541939258575L148.766578125,100.55776798725128L148.912,98.04093360900879L149.057421875,97.01053404808044L149.4936875,96.9003496170044L149.929953125,100.102787733078L150.075375,100.03203928470612L150.36621875,98.45698428153992L150.51164062499998,91.64935040473938L150.6570625,103.32271778583527L150.94790625000002,97.02361607551575L151.093328125,101.95570921897888L151.675015625,96.05170583724976L151.96585937499998,108.48490691184998L152.11128125000002,95.48905205726624L152.256703125,99.18333220481873L152.402125,101.3557505607605L152.69296875,103.13971710205078L152.838390625,101.59875977039337L152.9838125,94.94199120998383L153.12923437499998,104.26641726493835L153.420078125,102.53072762489319L153.710921875,98.5338306427002L154.001765625,103.09667301177979L154.1471875,105.10953283309937L154.29260937499998,105.78002893924713L154.43803125,99.82574415206909L154.583453125,99.205930352211L155.165140625,103.72864043712616L155.3105625,103.47594630718231L155.45598437499999,101.88152146339417L155.60140625,101.91454303264618L156.037671875,96.46541440486908L156.18309375,103.90031039714813L156.328515625,103.57454681396484L156.4739375,102.90569651126862L156.619359375,94.41552400588989L156.91020312499998,101.25660145282745L157.05562500000002,101.9627777338028L157.201046875,105.18281328678131L157.34646875,97.43960344791412L157.6373125,104.34769463539124L157.92815625,101.93764758110046L158.07357812499998,108.36113405227661L158.21900000000002,103.39399373531342L158.364421875,101.86683583259583L158.50984375000002,105.30181753635406L158.8006875,101.9434711933136L158.946109375,99.70127499103546L159.09153125,99.53068113327026L159.38237500000002,104.82404923439026L159.527796875,97.9828451871872L159.818640625,101.55727708339691L159.9640625,98.41176688671112L160.54575000000003,109.35872304439545L160.691171875,102.26258826255798L160.982015625,110.41543436050415L161.1274375,100.14281451702118L161.272859375,107.24886631965637L161.41828125,97.6135733127594L161.563703125,103.29860043525696L161.70912500000003,107.06746923923492L161.854546875,105.07906436920166L162.145390625,104.67098951339722L162.29081250000002,104.10308182239532L162.436234375,99.50025486946106L162.8725,99.30193555355072L163.017921875,98.05462753772736L163.16334375000002,98.5599524974823L163.308765625,103.66586780548096L163.599609375,110.04139387607574L164.472140625,102.04270470142365L164.6175625,103.67361152172089L164.762984375,103.60552167892456L165.053828125,106.57330620288849L165.635515625,107.16324234008789L166.07178125,105.95456850528717L166.508046875,105.6208291053772L166.9443125,104.27272617816925L167.089734375,104.59882736206055L167.380578125,108.24848091602325L167.52599999999998,107.35265743732452L167.671421875,108.3477988243103L167.81684374999998,103.67365372180939L168.1076875,110.4674037694931L168.253109375,108.41789317131042L168.39853125,102.27788579463959L168.543953125,106.72596502304077L168.68937499999998,105.25984954833984L168.834796875,110.23819398880005L168.98021874999998,101.56936740875244L169.12564062500002,98.63918316364288L169.2710625,109.15711212158203L169.56190625,102.67931413650513L169.707328125,111.54175472259521L169.998171875,104.44376313686371L170.28901562500002,106.0205272436142L170.4344375,109.10600781440735L170.72528125,106.75493538379669L171.016125,106.75485098361969L171.161546875,111.00064408779144L171.30696874999998,105.03028106689453L171.45239062500002,105.21893656253815L171.88865625,108.11386263370514L172.034078125,101.29743003845215L172.1795,110.9167503118515L172.324921875,108.32199347019196L172.615765625,105.5970915555954L172.7611875,111.63712692260742L173.05203125,110.26047563552856L173.92456249999998,111.68591022491455L174.06998437500002,111.15507531166077L174.360828125,105.83385515213013L174.50625,105.46903538703918L174.79709375,104.7610867023468L174.942515625,107.87146532535553L175.08793749999998,109.15272331237793L175.23335937500002,105.07070875167847L175.524203125,106.16295254230499L175.669625,111.87547302246094L175.815046875,106.35890865325928L176.105890625,105.21866226196289L176.25131249999998,109.43339610099792L176.39673437500002,109.42067277431488L176.54215625,107.64820575714111L176.978421875,106.07291865348816L177.269265625,107.50854456424713L177.996375,112.62030458450317L178.141796875,107.60203886032104L178.28721875,104.85677540302277L178.432640625,103.70545148849487L178.72348437500003,103.17613577842712L179.01432812500002,106.03464317321777L179.15975,108.9611349105835L179.305171875,107.30746114253998L179.596015625,110.68332052230835L179.7414375,111.76655459403992L179.88685937500003,107.22960197925568L180.03228125,103.99059748649597L180.17770312500002,101.82374954223633L180.61396875,110.97810924053192L180.759390625,110.0999253988266L180.9048125,107.33845710754395L181.63192187500002,106.02459955215454L181.77734375,108.62925231456757L181.92276562499998,113.08281755447388L182.0681875,107.60893857479095L182.35903125,105.78032433986664L182.504453125,115.31674253940582L182.649875,108.02199304103851L182.795296875,108.53620111942291L182.94071875,108.32469427585602L183.66782812499997,109.44455802440643L183.81325,111.0461357831955L183.958671875,115.9681009054184L184.10409375,112.74108123779297L184.249515625,105.99885749816895L184.3949375,110.91385960578918L184.976625,111.92621862888336L185.122046875,108.70012736320496L185.26746875,113.78456282615662L185.412890625,113.49053370952606L185.5583125,111.56785547733307L185.70373437499998,114.19881999492645L185.84915625,112.86424219608307L186.14000000000001,106.89497637748718L186.285421875,110.28522598743439L186.43084375,110.00889980792999L186.576265625,114.11184561252594L186.7216875,110.86613130569458L186.86710937499998,110.3979424238205L187.01253125,109.47118628025055L187.59421875,111.81886160373688L187.8850625,108.95811760425568L188.030484375,112.1718020439148L188.46675000000002,105.62859392166138L188.75759375,109.82026541233063L188.903015625,110.62369179725647L189.193859375,114.22089064121246L189.48470312499998,106.95534360408783L189.63012500000002,108.269686460495L189.775546875,104.48566782474518L190.066390625,111.19197928905487L190.50265625,107.70452177524567L190.64807812499998,110.23692798614502L191.08434375000002,110.36449885368347L191.3751875,109.45080363750458L191.81145312499999,110.83355283737183L192.24771875000002,114.78962123394012L192.393140625,109.26065003871918L192.5385625,108.04334628582001L192.683984375,109.382777094841L192.82940625,111.521857380867L192.974828125,117.07349002361298L193.12025,113.91088879108429L193.26567187499998,111.27699136734009L193.41109375000002,112.78043282032013L193.556515625,112.5028406381607L193.847359375,110.65365386009216L193.99278125,107.85108268260956L194.138203125,113.81239378452301L194.57446875000002,116.21545672416687L194.719890625,112.80026686191559L195.010734375,120.64794301986694L195.15615625,110.55589735507965L195.447,110.90925979614258L195.73784375000002,113.18460416793823L196.174109375,114.63253140449524L196.31953125,112.04511737823486L196.464953125,111.17695605754852L196.610375,113.05426919460297L196.755796875,112.26236343383789L196.90121875000003,117.92010819911957L197.046640625,112.30707442760468L197.19206250000002,120.0496301651001L197.337484375,112.09379518032074L197.48290625,117.62683868408203L197.628328125,111.36272084712982L197.77375,112.38679039478302L197.919171875,109.17226195335388L198.06459375000003,112.91616940498352L198.35543750000002,109.6547988653183L198.500859375,111.50022983551025L198.64628125000002,117.6987898349762L198.791703125,116.54248631000519L200.245921875,118.15786349773407L200.6821875,114.11264741420746L200.827609375,115.12646234035492L200.97303125,115.89967346191406L201.118453125,115.62170147895813L201.409296875,114.57754468917847L201.55471874999998,113.12159943580627L201.700140625,112.85314357280731L201.990984375,116.58517169952393L202.281828125,108.68288862705231L202.42725,116.28130996227264L202.572671875,110.05396950244904L202.71809374999998,116.49366080760956L202.863515625,111.75891637802124L203.00893749999997,114.10057818889618L203.154359375,117.8998943567276L203.29978125,117.38420927524567L203.445203125,113.3973981142044L203.736046875,118.80173134803772L204.026890625,116.38716888427734L204.17231249999998,116.23292756080627L204.46315625,117.19171357154846L204.754,114.0149542093277L205.04484374999998,117.7573846578598L205.190265625,112.43861210346222L205.33568749999998,116.57189977169037L205.48110937500002,117.08688855171204L205.62653125,118.60256803035736L205.771953125,117.11347460746765L206.353640625,113.15331280231476L206.64448437500002,119.69436872005463L207.08075,117.42332875728607L207.226171875,117.28185296058655L207.517015625,121.93753552436829L207.66243749999998,114.20829391479492L207.80785937500002,118.96217608451843L208.244125,121.70982384681702L208.389546875,114.47385907173157L208.53496875,119.1401127576828L208.680390625,120.02853012084961L208.82581249999998,118.62691748142242L208.971234375,119.22816324234009L209.11665625,119.17779743671417L209.26207812500002,112.16678023338318L209.69834375,116.3812608718872L209.843765625,121.40771341323853L209.98918749999999,123.80687284469604L210.28003124999998,122.47746455669403L210.42545312500002,119.52774167060852L210.716296875,122.58876729011536L210.86171875,117.65684294700623L211.297984375,117.56018364429474L211.44340624999998,124.20509397983551L211.58882812500002,118.43271267414093L211.73425,111.13424956798553L211.879671875,123.86479246616364L212.02509375,119.02072870731354L212.170515625,126.10637676715851L212.461359375,115.81318438053131L212.60678124999998,125.71623694896698L212.75220312500002,120.49815380573273L212.897625,119.41348493099213L213.04304687500002,121.75554764270782L213.18846875,119.53922009468079L213.4793125,119.32598304748535L213.91557812500002,118.37759935855865L214.061,120.24640917778015L214.35184375,119.83267951011658L214.93353125,122.1692351102829L215.07895312500003,125.2938562631607L215.36979687500002,124.84649312496185L215.51521875,124.64838480949402L215.951484375,119.16788041591644L216.24232812500003,120.71023035049438L216.38775,120.02207350730896L216.53317187500002,122.89769303798676L216.82401562500002,121.83079040050507L216.9694375,126.49826788902283L217.114859375,129.70914602279663L217.26028125,126.99340152740479L217.551125,121.56997275352478L217.69654687500002,124.53501427173615L217.84196875,121.44244408607483L217.98739062500002,124.21752190589905L218.1328125,124.71103084087372L218.42365625,129.4937356710434L218.56907812499998,123.35218799114227L218.7145,122.00045585632324L219.00534375,127.95197653770447L219.150765625,124.86255025863647L219.58703125,127.02448189258575L219.877875,130.69434928894043L220.02329687499997,128.9821228981018L220.314140625,124.89730203151703L220.4595625,126.76208174228668L220.604984375,126.22438931465149L220.75040625,120.34327948093414L220.89582812499998,130.15899896621704L221.04125,126.1235944032669L221.18667187499997,123.18330323696136L221.6229375,125.7540271282196L221.768359375,132.97600257396698L221.91378125,128.97800838947296L222.05920312499998,128.0353217124939L222.204625,132.60628759860992L222.35004687499998,126.40373969078064L222.49546875000001,131.0084867477417L222.7863125,124.4270031452179L222.931734375,133.99671721458435L223.07715625,128.71822464466095L223.22257812499998,128.16143667697906L223.368,130.37983202934265L223.51342187499998,126.17803251743317L223.9496875,118.80251204967499L224.385953125,131.39212775230408L224.67679687499998,131.92159116268158L224.967640625,128.77766346931458L225.1130625,127.164754986763L225.258484375,135.92441725730896L225.40390625,125.82004916667938L225.549328125,131.73380076885223L226.131015625,131.79387259483337L226.712703125,134.91786074638367L227.00354687499998,123.77452647686005L227.14896875,138.50052165985107L227.294390625,131.40675008296967L227.585234375,130.3060451745987L227.73065625,134.13403630256653L227.876078125,133.6945012807846L228.31234375,133.94242680072784L228.45776562499998,130.03788471221924L228.748609375,136.45647597312927L228.89403125,135.12772178649902L229.039453125,133.0139193534851L229.330296875,133.08527970314026L229.47571875,131.41238379478455L229.62114062499998,131.0792351961136L229.911984375,132.6829229593277L230.05740625,137.14568781852722L230.34825,135.14278721809387L230.493671875,135.20600295066833L230.63909375,135.81881153583527L230.78451562499998,135.44673335552216L230.92993750000002,134.11662876605988L231.075359375,138.81746542453766L231.366203125,138.3866869211197L231.511625,131.63646626472473L231.94789062499999,138.6224799156189L232.675,143.55185115337372L233.25668750000003,139.71060919761658L234.42006250000003,138.8347885608673L234.565484375,140.59524965286255L234.71090625000002,134.15091633796692L234.856328125,140.5648022890091L235.00175000000002,138.32209968566895L235.438015625,140.86203861236572L235.5834375,140.44550263881683L235.87428125000002,141.3708872795105L236.019703125,138.89580988883972L236.310546875,141.19911181926727L236.45596874999998,141.6373175382614L236.601390625,138.81219041347504L236.74681249999998,139.72533702850342L237.03765625,142.45177924633026L237.183078125,138.77954864501953L237.3285,137.416485786438L237.473921875,143.02017223834991L237.61934374999998,138.08774149417877L237.91018749999998,144.37137687206268L238.055609375,140.884552359581L238.20103124999997,141.05455541610718L238.491875,145.07322764396667L238.78271875,145.17590045928955L238.928140625,148.03151714801788L239.65525,143.2960764169693L239.94609375,144.28912889957428L240.52778124999998,142.9094181060791L240.67320312500001,146.26126563549042L240.818625,143.09421229362488L241.40031249999998,147.42702198028564L241.69115624999998,147.77430760860443L242.127421875,149.15135979652405L242.27284375,146.7362698316574L242.709109375,147.71744298934937L242.85453124999998,151.1757824420929L243.290796875,145.4911984205246L243.43621875,148.27724826335907L243.872484375,145.46235466003418L244.01790624999998,155.0282918214798L244.16332812500002,148.88457083702087L244.30875,143.64388954639435L244.45417187500001,149.27382445335388L244.59959375,148.97787523269653L244.745015625,146.17984056472778L245.035859375,146.30675733089447L245.18128124999998,150.14223897457123L245.326703125,147.6326630115509L245.472125,147.05515480041504L245.61754687500002,148.1192511320114L245.76296875,146.04927349090576L245.908390625,147.4790335893631L246.0538125,149.88614773750305L246.199234375,142.4986846446991L246.78092187500002,153.7255117893219L247.2171875,150.02749693393707L247.362609375,151.82011449337006L247.50803125,148.79922115802765L247.653453125,151.93291532993317L247.94429687500002,152.76683127880096L248.08971875,148.90503787994385L248.235140625,151.86889779567719L248.3805625,149.10162699222565L248.525984375,144.03858697414398L248.67140625,151.9067723751068L248.816828125,149.52379667758942L248.96224999999998,146.8693689107895L249.10767187500002,151.38769018650055L249.5439375,146.1161184310913L249.83478125,143.41130375862122L249.980203125,148.4757785797119L250.56189062500002,147.46388375759125L250.7073125,150.86390268802643L250.852734375,152.74151122570038L251.143578125,148.75294876098633L251.289,148.3070204257965L251.72526562500002,149.99430656433105L252.16153125,149.34151339530945L252.452375,153.0292525291443L253.0340625,156.07924282550812L253.17948437500002,153.27928805351257L253.32490625,141.2784057855606L253.470328125,146.00709450244904L253.90659375,148.0734851360321L254.1974375,147.17152154445648L254.34285937500002,148.30151331424713L254.48828125,152.27606534957886L254.63370312499998,148.92799472808838L254.779125,151.82922971248627L255.06996875,152.99521815776825L255.215390625,148.5352807044983L255.65165625,153.28194665908813L255.79707812499998,147.87708592414856L255.9425,148.65612065792084L256.087921875,144.1107702255249L256.23334375,156.21582341194153L256.37876562499997,152.43336617946625L257.105875,148.1591513156891L257.251296875,152.18358385562897L257.39671875,150.92547261714935L258.123828125,148.30349671840668L258.414671875,150.2144011259079L258.56009375,149.40816843509674L258.705515625,147.0313539505005L258.8509375,146.62490379810333L259.14178125,152.7062108516693L259.28720312499996,153.08075773715973L259.43262500000003,152.91170418262482L259.578046875,149.08160305023193L259.72346875,149.35216891765594L259.868890625,150.85921847820282L260.0143125,151.3494358062744L260.30515625,150.0886870622635L260.596,149.59431302547455L260.741421875,144.4414290189743L260.88684375,146.67343389987946L261.1776875,150.67379128932953L261.323109375,150.65412604808807L261.61395312499997,151.007404088974L261.904796875,150.6116305589676L262.05021875,150.96471869945526" style="fill: none;" fill="none"></path></g></g></g></g></g></g><g transform="translate(39, 177)" clip-path="url(#clip_1)"><clipPath id="clip_1"><rect width="290" height="23"></rect></clipPath><g><g><line x1="0" y1="0" x2="0" y2="5" style="visibility: inherit;" fill="rgb(0, 0, 0)" stroke="rgb(204, 204, 204)" stroke-width="1px"></line><line x1="29.084375" y1="0" x2="29.084375" y2="5" style="visibility: inherit;" fill="rgb(0, 0, 0)" stroke="rgb(204, 204, 204)" stroke-width="1px"></line><line x1="58.16875" y1="0" x2="58.16875" y2="5" style="visibility: inherit;" fill="rgb(0, 0, 0)" stroke="rgb(204, 204, 204)" stroke-width="1px"></line><line x1="87.253125" y1="0" x2="87.253125" y2="5" style="visibility: inherit;" fill="rgb(0, 0, 0)" stroke="rgb(204, 204, 204)" stroke-width="1px"></line><line x1="116.3375" y1="0" x2="116.3375" y2="5" style="visibility: inherit;" fill="rgb(0, 0, 0)" stroke="rgb(204, 204, 204)" stroke-width="1px"></line><line x1="145.421875" y1="0" x2="145.421875" y2="5" style="visibility: inherit;" fill="rgb(0, 0, 0)" stroke="rgb(204, 204, 204)" stroke-width="1px"></line><line x1="174.50625" y1="0" x2="174.50625" y2="5" style="visibility: inherit;" fill="rgb(0, 0, 0)" stroke="rgb(204, 204, 204)" stroke-width="1px"></line><line x1="203.590625" y1="0" x2="203.590625" y2="5" style="visibility: inherit;" fill="rgb(0, 0, 0)" stroke="rgb(204, 204, 204)" stroke-width="1px"></line><line x1="232.675" y1="0" x2="232.675" y2="5" style="visibility: inherit;" fill="rgb(0, 0, 0)" stroke="rgb(204, 204, 204)" stroke-width="1px"></line><line x1="261.75937500000003" y1="0" x2="261.75937500000003" y2="5" style="visibility: inherit;" fill="rgb(0, 0, 0)" stroke="rgb(204, 204, 204)" stroke-width="1px"></line><line x1="290.84375" y1="0" x2="290.84375" y2="5" style="visibility: inherit;" fill="rgb(0, 0, 0)" stroke="rgb(204, 204, 204)" stroke-width="1px"></line></g><g transform="translate(0, 8)"><text x="0" y="0" dx="0em" dy="0.95em" style="text-anchor: middle; visibility: hidden; font-family: &quot;Helvetica Neue&quot;, sans-serif; font-size: 12px; font-weight: 200;" fill="rgb(50, 49, 63)" stroke="none" stroke-width="1px">-200</text><text x="29.084375" y="0" dx="0em" dy="0.95em" style="text-anchor: middle; visibility: inherit; font-family: &quot;Helvetica Neue&quot;, sans-serif; font-size: 12px; font-weight: 200;" fill="rgb(50, 49, 63)" stroke="none" stroke-width="1px">0</text><text x="58.16875" y="0" dx="0em" dy="0.95em" style="text-anchor: middle; visibility: inherit; font-family: &quot;Helvetica Neue&quot;, sans-serif; font-size: 12px; font-weight: 200;" fill="rgb(50, 49, 63)" stroke="none" stroke-width="1px">200</text><text x="87.253125" y="0" dx="0em" dy="0.95em" style="text-anchor: middle; visibility: inherit; font-family: &quot;Helvetica Neue&quot;, sans-serif; font-size: 12px; font-weight: 200;" fill="rgb(50, 49, 63)" stroke="none" stroke-width="1px">400</text><text x="116.3375" y="0" dx="0em" dy="0.95em" style="text-anchor: middle; visibility: inherit; font-family: &quot;Helvetica Neue&quot;, sans-serif; font-size: 12px; font-weight: 200;" fill="rgb(50, 49, 63)" stroke="none" stroke-width="1px">600</text><text x="145.421875" y="0" dx="0em" dy="0.95em" style="text-anchor: middle; visibility: inherit; font-family: &quot;Helvetica Neue&quot;, sans-serif; font-size: 12px; font-weight: 200;" fill="rgb(50, 49, 63)" stroke="none" stroke-width="1px">800</text><text x="174.50625" y="0" dx="0em" dy="0.95em" style="text-anchor: middle; visibility: inherit; font-family: &quot;Helvetica Neue&quot;, sans-serif; font-size: 12px; font-weight: 200;" fill="rgb(50, 49, 63)" stroke="none" stroke-width="1px">1k</text><text x="203.590625" y="0" dx="0em" dy="0.95em" style="text-anchor: middle; visibility: inherit; font-family: &quot;Helvetica Neue&quot;, sans-serif; font-size: 12px; font-weight: 200;" fill="rgb(50, 49, 63)" stroke="none" stroke-width="1px">1.2k</text><text x="232.675" y="0" dx="0em" dy="0.95em" style="text-anchor: middle; visibility: inherit; font-family: &quot;Helvetica Neue&quot;, sans-serif; font-size: 12px; font-weight: 200;" fill="rgb(50, 49, 63)" stroke="none" stroke-width="1px">1.4k</text><text x="261.75937500000003" y="0" dx="0em" dy="0.95em" style="text-anchor: middle; visibility: inherit; font-family: &quot;Helvetica Neue&quot;, sans-serif; font-size: 12px; font-weight: 200;" fill="rgb(50, 49, 63)" stroke="none" stroke-width="1px">1.6k</text><text x="290.84375" y="0" dx="0em" dy="0.95em" style="text-anchor: middle; visibility: hidden; font-family: &quot;Helvetica Neue&quot;, sans-serif; font-size: 12px; font-weight: 200;" fill="rgb(50, 49, 63)" stroke="none" stroke-width="1px">1.8k</text></g><line x1="0" y1="0" x2="290.84375" y2="0" fill="rgb(0, 0, 0)" stroke="rgb(204, 204, 204)" stroke-width="1px"></line></g></g></g></g></svg>