<svg viewBox="0 0 330 200" xmlns="http://www.w3.org/2000/svg"><g><g><g><g><g><line x1="68.3125" y1="177" x2="63.3125" y2="177" style="visibility: inherit;" fill="rgb(0, 0, 0)" stroke="rgb(204, 204, 204)" stroke-width="1px"></line><line x1="68.3125" y1="162.24999999999997" x2="63.3125" y2="162.24999999999997" style="visibility: inherit;" fill="rgb(0, 0, 0)" stroke="rgb(204, 204, 204)" stroke-width="1px"></line><line x1="68.3125" y1="147.5" x2="63.3125" y2="147.5" style="visibility: inherit;" fill="rgb(0, 0, 0)" stroke="rgb(204, 204, 204)" stroke-width="1px"></line><line x1="68.3125" y1="132.75" x2="63.3125" y2="132.75" style="visibility: inherit;" fill="rgb(0, 0, 0)" stroke="rgb(204, 204, 204)" stroke-width="1px"></line><line x1="68.3125" y1="117.99999999999997" x2="63.3125" y2="117.99999999999997" style="visibility: inherit;" fill="rgb(0, 0, 0)" stroke="rgb(204, 204, 204)" stroke-width="1px"></line><line x1="68.3125" y1="103.25" x2="63.3125" y2="103.25" style="visibility: inherit;" fill="rgb(0, 0, 0)" stroke="rgb(204, 204, 204)" stroke-width="1px"></line><line x1="68.3125" y1="88.49999999999996" x2="63.3125" y2="88.49999999999996" style="visibility: inherit;" fill="rgb(0, 0, 0)" stroke="rgb(204, 204, 204)" stroke-width="1px"></line><line x1="68.3125" y1="73.75" x2="63.3125" y2="73.75" style="visibility: inherit;" fill="rgb(0, 0, 0)" stroke="rgb(204, 204, 204)" stroke-width="1px"></line><line x1="68.3125" y1="59.00000000000003" x2="63.3125" y2="59.00000000000003" style="visibility: inherit;" fill="rgb(0, 0, 0)" stroke="rgb(204, 204, 204)" stroke-width="1px"></line><line x1="68.3125" y1="44.24999999999997" x2="63.3125" y2="44.24999999999997" style="visibility: inherit;" fill="rgb(0, 0, 0)" stroke="rgb(204, 204, 204)" stroke-width="1px"></line><line x1="68.3125" y1="29.499999999999943" x2="63.3125" y2="29.499999999999943" style="visibility: inherit;" fill="rgb(0, 0, 0)" stroke="rgb(204, 204, 204)" stroke-width="1px"></line><line x1="68.3125" y1="14.750000000000057" x2="63.3125" y2="14.750000000000057" style="visibility: inherit;" fill="rgb(0, 0, 0)" stroke="rgb(204, 204, 204)" stroke-width="1px"></line><line x1="68.3125" y1="0" x2="63.3125" y2="0" style="visibility: inherit;" fill="rgb(0, 0, 0)" stroke="rgb(204, 204, 204)" stroke-width="1px"></line></g><g transform="translate(58.3125, 0)"><text x="0" y="177" dx="0em" dy="0.3em" style="text-anchor: end; visibility: hidden; font-family: &quot;Helvetica Neue&quot;, sans-serif; font-size: 12px; font-weight: 200;" fill="rgb(50, 49, 63)" stroke="none" stroke-width="1px">6.2e-3</text><text x="0" y="162.24999999999997" dx="0em" dy="0.3em" style="text-anchor: end; visibility: inherit; font-family: &quot;Helvetica Neue&quot;, sans-serif; font-size: 12px; font-weight: 200;" fill="rgb(50, 49, 63)" stroke="none" stroke-width="1px">6.4e-3</text><text x="0" y="147.5" dx="0em" dy="0.3em" style="text-anchor: end; visibility: hidden; font-family: &quot;Helvetica Neue&quot;, sans-serif; font-size: 12px; font-weight: 200;" fill="rgb(50, 49, 63)" stroke="none" stroke-width="1px">6.6e-3</text><text x="0" y="132.75" dx="0em" dy="0.3em" style="text-anchor: end; visibility: inherit; font-family: &quot;Helvetica Neue&quot;, sans-serif; font-size: 12px; font-weight: 200;" fill="rgb(50, 49, 63)" stroke="none" stroke-width="1px">6.8e-3</text><text x="0" y="117.99999999999997" dx="0em" dy="0.3em" style="text-anchor: end; visibility: hidden; font-family: &quot;Helvetica Neue&quot;, sans-serif; font-size: 12px; font-weight: 200;" fill="rgb(50, 49, 63)" stroke="none" stroke-width="1px">7e-3</text><text x="0" y="103.25" dx="0em" dy="0.3em" style="text-anchor: end; visibility: inherit; font-family: &quot;Helvetica Neue&quot;, sans-serif; font-size: 12px; font-weight: 200;" fill="rgb(50, 49, 63)" stroke="none" stroke-width="1px">7.2e-3</text><text x="0" y="88.49999999999996" dx="0em" dy="0.3em" style="text-anchor: end; visibility: hidden; font-family: &quot;Helvetica Neue&quot;, sans-serif; font-size: 12px; font-weight: 200;" fill="rgb(50, 49, 63)" stroke="none" stroke-width="1px">7.4e-3</text><text x="0" y="73.75" dx="0em" dy="0.3em" style="text-anchor: end; visibility: inherit; font-family: &quot;Helvetica Neue&quot;, sans-serif; font-size: 12px; font-weight: 200;" fill="rgb(50, 49, 63)" stroke="none" stroke-width="1px">7.6e-3</text><text x="0" y="59.00000000000003" dx="0em" dy="0.3em" style="text-anchor: end; visibility: hidden; font-family: &quot;Helvetica Neue&quot;, sans-serif; font-size: 12px; font-weight: 200;" fill="rgb(50, 49, 63)" stroke="none" stroke-width="1px">7.8e-3</text><text x="0" y="44.24999999999997" dx="0em" dy="0.3em" style="text-anchor: end; visibility: inherit; font-family: &quot;Helvetica Neue&quot;, sans-serif; font-size: 12px; font-weight: 200;" fill="rgb(50, 49, 63)" stroke="none" stroke-width="1px">8e-3</text><text x="0" y="29.499999999999943" dx="0em" dy="0.3em" style="text-anchor: end; visibility: hidden; font-family: &quot;Helvetica Neue&quot;, sans-serif; font-size: 12px; font-weight: 200;" fill="rgb(50, 49, 63)" stroke="none" stroke-width="1px">8.2e-3</text><text x="0" y="14.750000000000057" dx="0em" dy="0.3em" style="text-anchor: end; visibility: inherit; font-family: &quot;Helvetica Neue&quot;, sans-serif; font-size: 12px; font-weight: 200;" fill="rgb(50, 49, 63)" stroke="none" stroke-width="1px">8.4e-3</text><text x="0" y="0" dx="0em" dy="0.3em" style="text-anchor: end; visibility: hidden; font-family: &quot;Helvetica Neue&quot;, sans-serif; font-size: 12px; font-weight: 200;" fill="rgb(50, 49, 63)" stroke="none" stroke-width="1px">8.6e-3</text></g><line x1="68.3125" y1="0" x2="68.3125" y2="177" fill="rgb(0, 0, 0)" stroke="rgb(204, 204, 204)" stroke-width="1px"></line></g></g><g transform="translate(68, 0)" clip-path="url(#clip_0)"><clipPath id="clip_0"><rect width="261" height="177"></rect></clipPath><g><g><g><line x1="0" y1="0" x2="0" y2="177" fill="rgb(0, 0, 0)" stroke="rgb(60, 60, 60)" stroke-width="1px" opacity="0.25"></line><line x1="26.168750000000003" y1="0" x2="26.168750000000003" y2="177" fill="rgb(0, 0, 0)" stroke="rgb(60, 60, 60)" stroke-width="1px" opacity="0.25"></line><line x1="52.337500000000006" y1="0" x2="52.337500000000006" y2="177" fill="rgb(0, 0, 0)" stroke="rgb(60, 60, 60)" stroke-width="1px" opacity="0.25"></line><line x1="78.50625" y1="0" x2="78.50625" y2="177" fill="rgb(0, 0, 0)" stroke="rgb(60, 60, 60)" stroke-width="1px" opacity="0.25"></line><line x1="104.67500000000001" y1="0" x2="104.67500000000001" y2="177" fill="rgb(0, 0, 0)" stroke="rgb(60, 60, 60)" stroke-width="1px" opacity="0.25"></line><line x1="130.84375" y1="0" x2="130.84375" y2="177" fill="rgb(0, 0, 0)" stroke="rgb(60, 60, 60)" stroke-width="1px" opacity="0.25"></line><line x1="157.0125" y1="0" x2="157.0125" y2="177" fill="rgb(0, 0, 0)" stroke="rgb(60, 60, 60)" stroke-width="1px" opacity="0.25"></line><line x1="183.18124999999998" y1="0" x2="183.18124999999998" y2="177" fill="rgb(0, 0, 0)" stroke="rgb(60, 60, 60)" stroke-width="1px" opacity="0.25"></line><line x1="209.35000000000002" y1="0" x2="209.35000000000002" y2="177" fill="rgb(0, 0, 0)" stroke="rgb(60, 60, 60)" stroke-width="1px" opacity="0.25"></line><line x1="235.51875" y1="0" x2="235.51875" y2="177" fill="rgb(0, 0, 0)" stroke="rgb(60, 60, 60)" stroke-width="1px" opacity="0.25"></line><line x1="261.6875" y1="0" x2="261.6875" y2="177" fill="rgb(0, 0, 0)" stroke="rgb(60, 60, 60)" stroke-width="1px" opacity="0.25"></line></g><g><line x1="0" y1="177" x2="261.6875" y2="177" fill="rgb(0, 0, 0)" stroke="rgb(60, 60, 60)" stroke-width="1px" opacity="0.25"></line><line x1="0" y1="162.24999999999997" x2="261.6875" y2="162.24999999999997" fill="rgb(0, 0, 0)" stroke="rgb(60, 60, 60)" stroke-width="1px" opacity="0.25"></line><line x1="0" y1="147.5" x2="261.6875" y2="147.5" fill="rgb(0, 0, 0)" stroke="rgb(60, 60, 60)" stroke-width="1px" opacity="0.25"></line><line x1="0" y1="132.75" x2="261.6875" y2="132.75" fill="rgb(0, 0, 0)" stroke="rgb(60, 60, 60)" stroke-width="1px" opacity="0.25"></line><line x1="0" y1="117.99999999999997" x2="261.6875" y2="117.99999999999997" fill="rgb(0, 0, 0)" stroke="rgb(60, 60, 60)" stroke-width="1px" opacity="0.25"></line><line x1="0" y1="103.25" x2="261.6875" y2="103.25" fill="rgb(0, 0, 0)" stroke="rgb(60, 60, 60)" stroke-width="1px" opacity="0.25"></line><line x1="0" y1="88.49999999999996" x2="261.6875" y2="88.49999999999996" fill="rgb(0, 0, 0)" stroke="rgb(60, 60, 60)" stroke-width="1px" opacity="0.25"></line><line x1="0" y1="73.75" x2="261.6875" y2="73.75" fill="rgb(0, 0, 0)" stroke="rgb(60, 60, 60)" stroke-width="1px" opacity="0.25"></line><line x1="0" y1="59.00000000000003" x2="261.6875" y2="59.00000000000003" fill="rgb(0, 0, 0)" stroke="rgb(60, 60, 60)" stroke-width="1px" opacity="0.25"></line><line x1="0" y1="44.24999999999997" x2="261.6875" y2="44.24999999999997" fill="rgb(0, 0, 0)" stroke="rgb(60, 60, 60)" stroke-width="1px" opacity="0.25"></line><line x1="0" y1="29.499999999999943" x2="261.6875" y2="29.499999999999943" fill="rgb(0, 0, 0)" stroke="rgb(60, 60, 60)" stroke-width="1px" opacity="0.25"></line><line x1="0" y1="14.750000000000057" x2="261.6875" y2="14.750000000000057" fill="rgb(0, 0, 0)" stroke="rgb(60, 60, 60)" stroke-width="1px" opacity="0.25"></line><line x1="0" y1="0" x2="261.6875" y2="0" fill="rgb(0, 0, 0)" stroke="rgb(60, 60, 60)" stroke-width="1px" opacity="0.25"></line></g></g></g><g><g><line x1="0" y1="634.25" x2="261.6875" y2="634.25" fill="rgb(0, 0, 0)" stroke="rgb(153, 153, 153)" stroke-width="1.5px"></line></g></g><g><g><line x1="26.168750000000003" y1="0" x2="26.168750000000003" y2="177" fill="rgb(0, 0, 0)" stroke="rgb(153, 153, 153)" stroke-width="1.5px"></line></g></g><g><g><g><g><g><path stroke="rgb(0, 119, 187)" stroke-width="2px" d="M31.4025,-6.846271574497223L31.6641875,18.232422295957804L31.795031249999997,2.886055151000619L31.925874999999998,-14.261989274993539L32.05671875,-14.542842403054237L32.31840625,6.859141282737255L32.58009375,0.8225504979491234L32.7109375,-8.773985903710127L33.10346875,18.302481036633253L33.2343125,-5.698681928217411L33.36515625,31.450789535418153L33.496,1.757491260766983L33.62684375,12.176805755123496L34.019375000000004,9.871735816821456L34.15021875,18.918173734098673L34.41190625,-3.1945627443492413L34.67359375,33.309544084593654L34.8044375,46.39081598445773L34.93528125,34.931747356429696L35.066125,24.39628645963967L35.19696875,17.563017897307873L35.458656250000004,24.23982193879783L35.5895,27.45215256884694L35.720343750000005,30.38727037794888L35.8511875,26.787830863147974L36.112875,23.830939896404743L36.3745625,28.21256464533508L36.50540625,44.021731588989496L36.76709375,47.80407936498523L37.159625,29.760931499302387L37.290468749999995,49.461930172517896L37.4213125,42.45701769553125L37.552156249999996,58.23692481219767L37.683,45.401682725176215L37.81384375,60.671294338069856L38.07553125,52.544308707118034L38.468062499999995,37.714384377002716L39.12228125,59.01103955414146L39.5148125,53.0641170889139L39.7765,72.46770953945814L39.90734375,24.167702646926045L40.0381875,40.715027714148164L40.95409375,64.34697424713521L41.346625,71.58510677702725L41.608312500000004,63.36429738160221L41.73915625,66.100949767977L41.87,33.231037084013224L42.393375,66.16616621334106L42.52421875,56.387923538684845L42.6550625,51.86357127688825L43.047593750000004,67.90458457265049L43.1784375,59.76643762271851L43.570968750000006,60.05144619569181L44.09434375,68.63906804658473L44.35603125,61.80943979136646L44.61771875,58.60356555506587L44.748562500000006,62.321005968376994L44.87940625,68.54088278207928L45.01025,80.40347601938993L45.141093749999996,68.755351819098L45.2719375,63.45214554760605L45.533624999999994,61.71225045993923L45.795312499999994,63.689177620224655L46.18784375,54.98221551254392L46.318687499999996,70.4784877570346L46.44953125,67.08352360595018L46.71121875,69.30445437040179L46.8420625,63.37240221630782L46.97290625,66.43949832953513L47.234593749999995,79.89575620461255L47.3654375,77.69058865681289L47.627125,71.23185961693525L47.757968749999996,77.6236550854519L48.01965625,67.43773235660046L48.1505,79.83332150336355L48.28134375,76.66975725162774L48.54303125,64.02315862663089L49.06640625,66.40769715607166L49.19725,76.03194797132163L49.32809375,76.865921725519L49.4589375,72.95437738951296L49.720625,71.09661877341567L49.85146875,67.34943773783743L50.11315625,71.08617864735425L50.374843750000004,120.73859397508203L50.5056875,85.33578307554126L50.636531250000004,89.33555334527044L50.767375,77.95876939501612L51.0290625,87.82022399548441L51.15990625,56.50139122456312L52.075812500000005,67.42667406518011L52.599187500000006,75.34671167097984L53.1225625,92.28506067022681L53.25340625,73.42411437723784L53.384249999999994,104.21918937657028L53.907624999999996,84.58876458182931L54.03846875,99.1805922212079L54.1693125,67.09399807453154L54.30015625,73.76723049394786L54.6926875,90.4496590346098L54.823531249999995,84.53014190029353L55.085218749999996,69.77978918887675L55.2160625,85.79398097656667L55.346906249999996,86.67720190435648L55.60859375,82.68962322920561L55.7394375,83.73020158335567L55.87028125,91.35746920667587L56.13196875,75.36068907659501L56.2628125,85.03085584100336L56.39365625,83.3327212575823L56.524499999999996,71.92344928346574L56.65534375,80.13079641107468L56.7861875,95.00601852498947L57.17871875,96.55016124900429L57.3095625,84.32618167437612L57.57125,82.22345786355436L58.094625,75.79598051682115L58.22546875,79.723940577358L58.48715625,97.26884716376662L58.618,70.54439105279742L58.74884375,77.4961413089186L58.8796875,88.79404049087314L59.01053125,76.34807086735964L59.53390625,79.81639064103365L59.926437500000006,82.51873484998941L60.05728125,73.03034304361789L60.188125,96.31024440471082L60.31896875,83.25912523735313L60.580656250000004,77.82703148853034L61.104031250000006,81.10392605606467L61.36571875,102.42699063103645L61.62740625,108.32696687150745L61.75825,84.6798409447074L61.889093749999994,91.53580991271882L62.0199375,97.16516709607093L62.150781249999994,68.66547744441776L62.412468749999995,82.75106199737638L62.5433125,72.42265215329826L62.805,85.04861092381178L63.0666875,83.01106921583414L63.328375,91.08908241335301L63.98259375,82.38531416002661L64.24428125,105.78105284087358L64.375125,104.82073295582084L64.76765625,113.4390913620591L64.8985,81.4704294288531L65.02934375,80.40893648006022L65.1601875,90.55375121254473L65.29103125,94.22283735778183L65.421875,79.91052348818629L65.55271875,91.00113121978939L65.6835625,80.6758465450257L65.81440625,96.487898260355L66.33778125,85.92959958780555L66.468625,92.1549025196582L66.7303125,102.3661013431847L67.12284375,74.88449569512159L67.64621875,100.94861383270471L67.7770625,94.78341031074524L67.90790625,105.44267599191515L68.03875000000001,89.15453392267226L68.3004375,92.9098197929561L68.56212500000001,89.54844262637198L68.69296875,89.3193780183792L68.8238125,106.94296331796794L68.95465625,76.01103337667881L69.3471875,115.3330126516521L69.47803125,92.85349806025624L69.73971875000001,88.59643363114445L70.26309375000001,99.32816202938557L70.52478125,99.3400101987645L70.78646875000001,99.98303954210131L70.91731250000001,83.52737466059625L71.04815625,90.58376657497138L71.179,100.483272687532L71.30984375,96.12122317496687L71.57153125,104.10393587965517L71.702375,89.3117883214727L72.09490625000001,86.58691541943698L72.35659375,98.9219587035477L72.48743750000001,111.06090619880705L72.749125,85.09998733364046L73.0108125,102.51130151748657L73.14165625000001,116.69187748059629L73.27250000000001,96.14344278536736L73.5341875,79.49686783552168L73.66503125,98.83414488006383L73.795875,95.42726387456058L73.92671874999999,100.09118413738906L74.18840625,114.63688977248965L74.31925,91.40341949835418L74.58093749999999,95.39110120106487L74.71178124999999,97.6185570443049L74.97346875,99.68738478794693L75.23515624999999,94.45255447365342L75.366,102.84119576402009L75.49684375,122.58828209899366L75.6276875,99.77063105627893L75.75853124999999,95.92502435855566L76.02021875,94.44836468622088L76.1510625,93.87237194180487L76.54359375,119.2570576649159L76.6744375,71.27550895977765L76.80528125,108.39760943502186L76.93612499999999,102.43461467046289L77.1978125,97.43252361379562L77.32865625,80.54349047318101L77.45949999999999,82.65140000451356L77.59034375,84.76013375632463L78.2445625,96.01039986312388L78.7679375,105.1094848634675L78.89878125,111.3338605472818L79.16046874999999,89.57406214624642L79.2913125,96.45832935068756L79.553,97.13336592260748L80.46890625,109.34130754042417L80.59975,104.89048261381684L80.99228125,93.1059155818075L81.123125,121.45360524021088L81.25396875,103.18517044372855L81.3848125,99.23633013106881L81.6465,103.77012658584862L81.9081875,93.7820167718455L82.169875,102.48612845037131L82.4315625,121.58287048526108L82.69325,99.65517150424421L83.08578125,96.74666914809494L83.60915625,110.37601332366467L83.74,129.71212272252887L83.87084375,115.76459509972483L84.0016875,100.20262561459093L84.263375,106.32225661259143L84.39421875000001,111.17440822720526L84.78675,108.06895151920615L84.91759375000001,109.91194285172968L85.17928125,89.48878966923803L85.57181250000001,106.03309259470552L85.96434375,118.56598313618451L86.09518750000001,113.34749986138193L86.22603125,99.37974449433385L86.356875,122.98706744052468L86.48771875,116.99385125841944L86.74940625,107.40466415602712L86.88025,108.2106830989942L87.01109375,100.77854967396705L87.14193750000001,137.5265914220363L87.27278125000001,107.77882591076194L87.403625,108.7796356268227L87.53446875,97.37414132989943L87.79615625000001,110.24479055497794L88.05784375,130.67488092649728L88.1886875,120.97136757522821L88.58121875,102.73827123176306L88.7120625,106.51818068884312L89.2354375,101.47903405316173L89.62796875000001,116.46621278207749L89.7588125,116.53548164479433L90.0205,115.5911310315132L90.15134375,110.59501557331531L90.41303124999999,96.14862850587815L90.67471875,117.82978253625333L91.06724999999999,114.72305515501648L91.19809375,125.5070872111246L91.98315625,122.46255413349716L92.3756875,118.16012323554604L92.50653125,119.19166950695217L92.63737499999999,120.52718142233788L92.8990625,110.65614525880665L93.02990625,100.21615656744689L93.16075,89.88925779424608L93.4224375,105.85056210123001L93.55328125,119.29895553924143L93.684125,123.28155454900116L93.81496874999999,113.93101361766458L93.9458125,115.70167960319667L94.07665625,110.85110774450003L94.2075,104.93327339366078L94.730875,92.2087859334424L94.86171875,135.8310668701306L95.64678125,117.082420617342L95.90846875,117.78345447685568L96.0393125,110.3452767683193L96.17015625,114.39285182580352L96.301,108.88729942683129L96.43184375,106.4282032866031L96.5626875,107.25087835174054L96.69353124999999,119.63362339604645L96.824375,107.52898407820611L96.95521875,103.10841491166501L97.0860625,112.34006203897296L97.21690625,99.6202451614663L97.34775,118.56017925031482L97.6094375,120.60967215523124L97.74028125,130.4346893420443L97.871125,102.18645562138408L98.00196875,124.83905651327223L98.26365625,116.50398955401033L98.3945,115.2369909659028L98.52534375,109.17876439355312L98.78703125,112.29658440873025L99.04871875,115.77431403286754L99.31040625,110.26656371261923L99.44125,124.32594492286444L99.83378125,113.6514311628416L99.964625,104.96322007104753L100.09546875,123.9112933371216L100.35715625,117.50483361259103L100.488,104.71547313220799L100.61884375,100.01604270376264L100.88053125,119.96145709138362L101.14221875,109.23371242545544L101.27306250000001,112.92962007876484L101.53475,102.210117617622L101.66559375,120.80628308188169L101.79643750000001,128.16392758116126L101.92728125000001,109.35617785155772L102.058125,105.69924895837902L102.18896875,112.00405482389033L102.3198125,108.3759393049404L102.45065625000001,108.05353172775357L102.5815,117.60274413693695L102.8431875,116.96146626211703L102.97403125000001,118.1418186724186L103.104875,113.31755318399519L103.49740625000001,118.93255519401282L103.62825000000001,121.71381851378828L103.75909375,104.87348306644706L104.02078125,128.77755972743034L104.15162500000001,117.56386840436608L104.28246875,113.33754053059965L104.4133125,92.79161283932625L104.67500000000001,123.99368104245514L104.9366875,114.38007640838623L105.06753125,103.33885322045533L105.19837500000001,121.20170285645871L105.4600625,115.04920606687664L105.72175,121.68157088756561L105.98343750000001,99.35412497445941L106.11428125,110.22154066897927L106.245125,116.98117886856197L106.63765624999999,134.7783656064421L107.16103125,115.19979801680893L107.29187499999999,123.76286496594547L107.42271874999999,112.60886094253509L107.5535625,109.88450317829846L107.68440625,104.93334207870065L107.94609374999999,114.86461502220482L108.46946874999999,121.99164950009435L108.6003125,105.8973709559068L108.862,121.80626857746391L109.12368749999999,115.87407905329019L109.64706249999999,120.47786556370556L110.03959375,113.47209452372044L110.17043749999999,130.6785212336108L110.432125,119.45256963092834L110.56296875,107.83875360805541L110.69381249999999,119.61638345103711L110.82465624999999,129.64903551340103L110.9555,111.59630608465521L111.08634375,124.92999550607055L111.2171875,136.30746630672365L111.34803124999999,106.45516216475515L111.478875,123.82189975772052L112.00225,94.17489519994704L112.13309375,133.24710132740438L112.39478125,115.19760009553283L112.65646875,135.4359218357131L112.7873125,124.94314869120716L112.91815625,118.61031932942569L113.04899999999999,104.63493992295115L113.17984375,130.89961837697774L113.3106875,126.85314228013158L113.44153125,104.67752464767544L113.572375,125.09332853090018L113.70321875,129.48573683109134L113.96490625,126.94277625717223L114.09575,131.8469911320135L114.22659375,145.19232266768813L114.3574375,101.41048638336359L114.48828125,103.18389977049081L114.74996875,108.56928769219665L114.8808125,131.03922072052956L115.01165625,144.81706195231527L115.27334375,106.61567910294978L115.4041875,128.27684578672051L115.53503125,106.10541794169694L115.665875,123.01965849194676L115.79671875,129.88953618053347L115.92756250000001,119.18662115652114L116.05840625,131.84956682100892L116.18925,110.2879591025412L116.32009375,111.84635397233068L116.712625,117.95959726162255L116.9743125,131.70498481206596L117.236,104.3129444560036L117.62853125000001,121.18580226972699L117.759375,126.1761138420552L117.89021875,136.0034663202241L118.0210625,116.5213325265795L118.15190625000001,127.18918383773416L118.28275000000001,127.82393663376568L118.41359375,107.29390952922402L118.5444375,113.79254457727075L118.67528125,119.50126732420176L118.80612500000001,87.04092353302985L118.93696875,111.10335355345158L119.0678125,125.74109714198856L119.5911875,123.28952201362699L119.72203125,106.8339258171618L120.1145625,112.5715649658814L120.24540625,129.30533557385206L120.50709375000001,123.08470322471112L120.6379375,144.03312524966896L120.76878125,126.15169631037861L120.899625,131.7723991787061L121.03046875000001,107.90225292742251L121.16131250000001,100.4211127264425L121.55384375000001,116.83786753285675L121.68468750000001,118.99275763146579L121.81553125,128.40762210264802L122.33890625000001,112.88243345636873L122.46975,113.56660513859242L122.7314375,121.4728370513767L122.86228125,116.07948166504501L122.99312499999999,125.88145502097905L123.12396874999999,134.31845057941973L123.38565625,118.49695467110723L123.77818749999999,141.64910185802728L123.90903125,108.86109608411789L124.17071874999999,124.1761771934107L124.30156249999999,127.39613186288624L124.43240625,125.03800273127854L124.56325,134.11205203458667L124.69409375,116.89085804112256L124.82493749999999,127.46728956419975L125.086625,113.79999690409748L125.47915624999999,134.84550523292273L125.61,115.29595707263796L125.8716875,120.0093992492184L126.133375,130.09614078048617L126.26421875,129.77215344738215L126.3950625,129.44445712212473L126.52590624999999,136.29424443654716L126.78759375,131.42086914461106L126.9184375,147.56995835062116L127.04928124999999,111.0367977498099L127.18012499999999,122.0916892606765L127.31096875,136.98480382747948L127.4418125,138.31839256174862L127.57265625,118.91538393404335L127.70349999999999,106.1831694068387L128.09603125,108.55294065270573L128.226875,119.12305315211415L128.61940625,123.36349580157548L128.75025,128.0940405530855L128.88109375,135.43520064279437L129.14278124999998,130.90428895968944L129.40446875,125.07488659769297L129.5353125,130.47669024392962L129.66615625,114.61123591009526L129.797,97.52919780742377L129.92784375,136.88260048814118L130.0586875,126.25877628754824L130.18953125,118.11667994782329L130.320375,109.74198172055185L130.5820625,103.95025310292839L130.71290625,110.40836397744715L130.84375,135.22193359397352L131.1054375,114.8410560535267L131.49796874999998,113.13862865511328L131.6288125,117.70941200386733L131.75965624999998,130.20545302145183L131.8905,116.07199499569833L132.02134375,122.02135577984154L132.28303125,136.46818930003792L132.413875,131.04186509456486L132.54471875,109.40638661570846L132.80640624999998,113.49239095300436L132.93725,115.45317712891845L133.1989375,131.75368250533938L133.59146875,117.40369489137082L133.85315624999998,127.29482142906636L133.984,116.90469807665795L134.11484374999998,122.61781666614114L134.507375,110.58958945516497L134.89990625,128.39240836631507L135.03075,126.16794032230972L135.2924375,119.69904589653014L135.42328125,99.88986828550696L135.554125,139.19052085559815L135.8158125,120.49070966616272L135.94665625,133.19136341754347L136.47003124999998,110.18527496792375L136.73171875,149.28286021761596L136.8625625,110.66390666831283L136.99340625,123.36428567953408L137.12425000000002,134.63787035737187L137.3859375,133.11508868075907L137.51678124999998,127.50180379673839L137.647625,106.03673290181904L137.77846875,142.03026948682964L138.04015625,134.10676328651607L138.30184375,120.85329799167812L138.56353124999998,125.53507636487484L138.694375,131.23579730466008L138.82521875,142.90572900511324L138.9560625,124.37756173033267L139.08690625,117.07407538499683L139.61028124999999,133.74094676412642L139.741125,139.8428226793185L139.87196874999998,135.2057926096022L140.0028125,128.223134085536L140.39534375,105.17542250175028L140.52618750000002,134.6038712626323L140.65703125,131.05797173641622L140.787875,132.3036779621616L140.91871874999998,100.9899622267112L141.18040625,126.94267322961241L141.31125,133.8181830914691L141.44209375,139.97418281808496L141.57293750000002,114.5381550276652L141.83462500000002,132.899692395702L142.0963125,123.65344969741999L142.22715625,145.82961681019515L142.358,126.29432079568505L142.48884375,123.01594949979335L142.6196875,128.83109971601516L142.88137500000002,128.0587707851082L143.01221875,123.91101859696208L143.1430625,118.60286700259894L143.40475,130.70280139520764L143.53559375,117.85838985536247L143.79728125,123.69500414654613L143.92812500000002,109.73191936220972L144.4515,150.46929125394672L144.58234375,125.63250609394161L144.84403125,151.60231967177242L144.97487500000003,117.45105322636664L145.10571875,140.14074403978884L145.23656250000002,112.09207470249383L145.36740625,129.48240560665727L145.49825,137.30803562514484L145.62909375,133.7683520950377L145.89078125,133.09894769638777L146.021625,128.3662393661216L146.15246875,114.73837191890924L146.54500000000002,116.30964523367582L146.67584375,110.14018323924392L146.8066875,117.52547346707432L146.93753125,117.38504690304397L147.19921875,148.67729856353253L147.98428125,123.60866705141962L148.11512499999998,127.72108078654854L148.24596875,123.57185187004505L148.50765625,136.77744369208813L149.03103125,134.76641440950334L149.42356249999997,131.05886464193463L149.81609375,123.02992690540849L150.20862499999998,132.28884199354798L150.33946875,128.20606585312635L150.60115625,140.00052353087813L150.732,137.36092310585082L150.86284375,132.57179001532495L150.9936875,139.60462296102196L151.255375,140.3953594826162L151.38621875,134.81542118545622L151.51706249999998,110.51135719474404L151.64790625,136.06840802542865L151.77875,122.8259666794911L151.90959375,145.6814288366586L152.0404375,115.8144947811961L152.17128125,111.27650853898375L152.302125,137.84419104643166L152.56381249999998,122.20735486783086L152.69465625,142.878873154521L152.95634375,126.19716580677778L153.21803125,126.77800084650517L153.348875,135.42115455213934L153.6105625,126.52736913599074L153.87224999999998,133.15516640152782L154.00309375,145.0532354619354L154.1339375,127.11572518758476L154.26478125,125.88272569421679L154.6573125,133.68366344086826L154.78815625000001,114.12982246559113L154.91899999999998,145.30960237327963L155.04984375,126.21605419274418L155.31153125,126.63781468011439L155.442375,142.2089879605919L155.7040625,139.1963934265077L156.489125,141.90443849377334L156.61996875,146.3026506798342L156.88165625000002,128.53214807994664L157.0125,122.49332503136247L157.27418749999998,124.0799837950617L157.40503125,132.5618650270626L157.535875,131.29452301375568L157.66671875,118.97356016281992L157.92840625000002,123.32592508476226L158.05925,143.24252609815449L158.19009375000002,119.39113086275756L158.45178125,126.23168003931642L158.582625,129.7449541715905L158.71346875,136.63083547446877L158.8443125,133.41922603733838L159.23684375000002,119.35675400029868L159.49853125,132.11173761822283L160.15275,141.74436800833791L160.28359375000002,129.64797089528292L160.4144375,121.35693104658276L160.54528125000002,114.09599508345126L160.80696875,119.00931072607636L161.06865625,120.4786897841841L161.1995,134.6182264359668L161.33034375000003,120.96391524840145L161.59203125000002,134.53504885267466L161.722875,138.03262845333666L161.85371875,129.14526508841664L161.9845625,121.31664727069438L162.11540625,106.09480610303581L162.5079375,140.24971285555512L162.63878125000002,136.10017485637218L162.769625,130.0576428156346L163.42384375,120.33637438155709L163.5546875,129.61802421789616L163.68553125,145.5837243674323L163.816375,121.96105031482875L164.0780625,115.15333258733153L164.20890624999998,150.16158227529377L164.33975,124.52461640071124L164.47059374999998,127.65260180179028L164.6014375,128.7911937078461L165.25565625,133.40710312779993L165.3865,138.5254092719406L165.51734374999998,148.13801797293127L165.6481875,136.32436282653362L165.77903124999997,119.28696999978274L165.909875,138.43835098389536L166.43325000000002,138.15351412352175L166.56409374999998,131.88538606930524L166.6949375,139.0556577797979L166.82578124999998,146.50606142543256L166.956625,137.32146355044097L167.08746875,147.56721094902605L167.2183125,138.27786838822067L167.48,124.79949393030256L167.61084375,127.84838850796223L167.7416875,131.5476960707456L167.87253124999998,141.21903048083186L168.003375,131.9236092939973L168.13421875,128.07089369464666L168.2650625,125.54967193584888L168.78843750000001,144.11911891959608L169.050125,129.2999094557017L169.18096874999998,133.2878658985719L169.5735,116.86795158032326L169.83518750000002,130.78319723438472L169.96603125,130.1553472848609L170.22771874999998,145.04100952483714L170.48940625,125.45090284850448L170.62025,124.8079078476876L170.75109375,109.06285838875918L171.01278125,129.68598806485534L171.4053125,124.62922371644525L171.53615625,126.27179210260509L171.9286875,130.52329304348677L172.19037500000002,129.02970250882208L172.58290624999998,132.3024416314438L172.9754375,144.05592868290842L173.10628125,130.8703928925097L173.23712500000002,121.83820712100713L173.36796875,122.70745064318179L173.4988125,133.0714736804366L173.62965624999998,152.02916285209358L173.7605,142.38035713508725L173.89134375,126.0283379787579L174.0221875,134.03656717576087L174.15303125,140.09905222058296L174.41471875,125.59500406216829L174.54556250000002,122.74189619068056L174.67640624999999,132.0356002515182L175.0689375,149.59826192073524L175.19978125,135.09957119543105L175.46146875,159.898751296103L175.59231250000002,126.1950709130615L175.854,125.43263262789695L176.1156875,135.74847310967743L176.50821875,138.82175087649375L176.63906250000002,132.646004200913L176.76990625,129.57224563881755L176.90075000000002,128.87323798798025L177.03159374999998,121.31441500689833L177.1624375,149.2506125913933L177.29328125,128.36380104720592L177.424125,157.22765878029168L177.55496875,125.44537370279431L177.68581250000003,145.21059288829565L177.81665625,123.96716861706226L177.94750000000002,126.94727512728423L178.07834375,119.23088866472243L178.2091875,135.1586059872061L178.470875,116.95944005344062L178.60171875,128.17629088833928L178.7325625,145.73125983309L178.86340625,142.4924854626879L180.17184375,148.2368900878355L180.56437499999998,128.0464074779302L180.69521875,134.78846230730414L180.82606249999998,134.89894219394773L180.95690625,137.80995155405253L181.21859375,126.97093712352215L181.3494375,127.35735915787518L181.48028125,124.92360779736191L181.74196875,134.65988391265273L182.00365625,110.92834407184273L182.13449999999997,135.10214688442647L182.26534375,117.04601754620671L182.3961875,138.76402110047638L182.52703125,120.44159986265004L182.657875,133.3053118987009L182.78871875000002,139.380160250701L182.91956249999998,137.19652546290308L183.05040625,127.72231711726634L183.31209375,141.74872950837016L183.57378125,133.81148630008101L183.704625,126.96805235184728L183.9663125,136.59381423797458L184.22799999999998,124.8731586355716L184.4896875,132.89357942715287L184.62053125,120.41814392153174L184.751375,131.61274080350995L184.88221875,133.00247955787927L185.0130625,141.56829390861094L185.14390625000001,138.02854169346392L185.66728125,121.95311719272286L185.92896875,138.95826239325106L186.3215,123.67965304013342L186.45234375,130.43860438931733L186.71403125,141.27157453633845L186.844875,125.773482138291L186.97571875,137.01025163475424L187.36825,146.25075913220644L187.49909375000001,120.22424605395645L187.62993749999998,137.34272157028317L187.76078125,139.0614616656676L187.891625,134.00607101805508L188.02246875,135.5414907420054L188.1533125,130.855591266416L188.28415625,114.45415322389454L188.67668749999999,123.52579855080693L188.80753125,138.88521585334092L188.93837499999998,143.41561239864677L189.2000625,143.80368287395686L189.33090625,122.44490207824856L189.59259375000002,141.76177966594696L189.7234375,123.80682339146733L190.11596875,125.1682982519269L190.2468125,143.1674876920879L190.37765625,128.97949374467134L190.5085,108.14776760246603L190.63934375000002,141.9216097537428L190.7701875,128.0758733600378L190.90103125000002,157.5117057627067L191.16271875,122.99441673979163L191.2935625,145.20897878985852L191.42440625,134.09755949117243L191.55525,129.71140152961016L191.68609375,137.22612871509045L191.8169375,125.09092455450445L192.078625,127.52835056465118L192.47115625,122.42714699544013L192.602,126.3772579813376L192.8636875,127.7165475739166L193.38706249999998,136.02486171014607L193.51790625,149.996085671708L193.77959375,143.34184466581792L193.9104375,141.6747900629416L194.30296875000002,129.49569616187364L194.56465625,128.9975235676393L194.6955,126.08647986501455L194.82634375,131.2858000136912L195.08803125,130.505160192959L195.218875,144.6526299668476L195.34971875000002,151.1852984521538L195.4805625,149.55993566848338L195.74225,128.1491602975875L195.87309375,129.05786337517202L196.0039375,127.51052679680288L196.13478125,135.20064123161137L196.265625,135.23591099958867L196.5273125,150.11339971981943L196.65815625,123.77746053691953L196.789,125.20916585065423L197.0506875,141.09433279093355L197.18153124999998,139.44056874327362L197.5740625,141.882699678652L197.83575,150.1635397989303L197.96659375,143.63045920338482L198.22828124999998,128.79576126299798L198.359125,138.4303491767496L198.48996874999997,128.85191128309816L198.6208125,118.25037537794559L198.75165625,146.1635978166014L198.8825,127.84787337016314L199.01334375,129.811613002792L199.405875,130.34045346733183L199.53671874999998,153.03536434378475L199.6675625,137.11836188752204L199.79840625,134.40732902102172L199.92925,145.40139992907643L200.06009375,130.61011093389243L200.1909375,140.92464639991522L200.452625,121.01099884323774L200.58346874999998,149.73607845325023L200.7143125,138.27275135274976L200.84515625,134.60239453427494L200.976,139.1826220760122L201.10684375,127.96209659148006L201.49937500000001,105.04495526850224L201.89190624999998,139.95172281004488L202.15359375,138.81838530953974L202.41528125,127.63979204185306L202.54612500000002,125.85545773338525L202.67696875,152.09915290772915L202.8078125,121.24651984497903L202.93865624999998,140.04633645247668L203.46203125,136.9335991302505L203.98540624999998,146.1107790209353L204.24709375,114.7044758517295L204.3779375,152.29232958238572L204.50878125,138.9732013894245L204.77046875,131.91389036085457L204.90131250000002,145.17824223451316L205.03215624999999,132.28812080062926L205.4246875,140.5111624598503L205.55553125,133.80492687877268L205.81721875,146.31807047128677L205.94806250000002,139.2840355373919L206.07890625,132.03096401132643L206.34059374999998,135.209845026955L206.4714375,129.87638299539685L206.60228125,126.73524440918118L206.86396875,129.83352353051305L206.99481250000002,144.09555995091796L207.25650000000002,132.40055821090937L207.38734374999999,135.8963176580146L207.5181875,136.878204645589L207.64903125,141.0134218139574L207.779875,128.37015441339463L207.91071875,145.09056578110904L208.17240625,140.72642137482762L208.30325000000002,125.1414080588147L208.69578125,142.46631646249443L209.35000000000002,151.3456093352288L209.873375,145.52115229610354L210.920125,139.41508659347892L211.05096875,140.1245687128976L211.1818125,120.98908831551671L211.31265625,142.50069332495332L211.4435,132.16802500840276L211.83603125,138.67019733600318L211.96687500000002,139.14024340640754L212.2285625,138.42025247588754L212.35940625,136.50709937512875L212.62109375,138.92007351107895L212.7519375,139.63697361480445L212.88278125,125.72564300801604L213.013625,131.17343128845096L213.27531249999998,141.56980497948825L213.40615625,123.06629563402383L213.53699999999998,131.55703723616898L213.66784375,141.37552934419364L213.7986875,126.51102209649979L214.060375,143.1020651916042L214.19121875,127.99345131218433L214.3220625,133.383441131562L214.58374999999998,147.97540614102036L214.84543749999997,139.51079919654876L214.97628125,154.75049847457555L215.63049999999998,136.1103402422741L215.89218749999998,136.83877943269908L216.4155625,132.75359931588173L216.54640625,138.9024901408702L216.67725,134.48343204520643L217.200625,146.04776049684733L217.4623125,141.0409301724285L217.85484375000001,148.5792163265869L217.98568749999998,141.5533549124375L218.37821875,137.27434561308473L218.5090625,151.75672364141792L218.90159375000002,134.33881569374353L219.0324375,140.12577070109546L219.42496875,131.90743396710604L219.5558125,161.98399476427585L219.68665625,146.40488836169243L219.8175,133.2318532485515L219.94834375000002,147.13291544187814L220.0791875,140.20338479615748L220.21003125000001,136.06147083640099L220.47171875,133.00000689644367L220.6025625,142.2133838031441L220.73340625,136.17122953012586L220.86425,140.61322842910886L220.99509375,141.72541093733162L221.1259375,130.88649953436106L221.25678125000002,140.17893292196095L221.38762499999999,143.29507015366107L221.51846875,120.91758718900383L222.04184375,157.72988379187882L222.434375,143.3890999732539L222.56521875,149.35013721417636L222.69606249999998,139.84921038802713L222.82690625,149.0194874322042L223.08859375,149.76128586288542L223.2194375,139.44956648349762L223.35028125000002,146.8804979203269L223.481125,141.88895001728088L223.61196875000002,148.83417519461364L223.74281249999999,149.21760942973197L223.87365625,140.98502054996789L224.0045,135.16059785336256L224.13534375,145.84273565281183L224.527875,130.8062754077837L224.7895625,122.17685871012507L224.92040625,139.8174435570836L225.44378125,134.07252379413694L225.574625,146.87386981397867L225.70546875000002,147.84500759281218L225.96715625000002,139.83306940365583L226.09799999999998,135.0410515414551L226.49053125,138.0253478391096L226.8830625,142.2333024647087L227.14475,156.80483367480338L227.668125,166.63912334199992L227.79896875,153.49593187868595L227.9298125,119.00464014336465L228.06065625000002,129.1843812186271L228.4531875,136.81164884194732L228.714875,132.66815512627363L228.84571875,136.04783685598522L228.9765625,149.4464679826051L229.10740625,135.28041890542954L229.23825,151.5854574944824L229.4999375,151.80068206693977L229.63078124999998,139.79694107268006L230.0233125,146.90120645985007L230.15415625,137.78477848693728L230.285,138.77013406902552L230.41584375,128.50886385142803L230.5466875,162.85244840849188L230.67753125,145.7154622739181L231.33175,135.25047222804278L231.46259375,149.53531208168715L231.5934375,145.1193791553378L232.24765624999998,140.86983573809266L232.50934375,146.10538724530488L232.6401875,137.8242036998272L232.77103125,129.75968711264431L232.901875,131.1943802256137L233.1635625,154.24940676614642L233.29440624999998,152.3511239765212L233.42525,149.26318195369095L233.55609375,142.977298816666L233.6869375,138.91821901500225L233.81778125,142.0493639279157L233.948625,140.37224696669728L234.21031250000001,141.97030744701624L234.472,131.78009190317243L234.60284374999998,123.81599284429103L234.7336875,124.10227209050208L234.995375,139.30429762415588L235.12621875,144.95467242971063L235.38790625,143.2008342789486L235.64959374999998,137.09387567080557L235.7804375,143.52138736005872" style="fill: none;" fill="none"></path></g></g></g></g></g><g><g opacity="0.0115517"><span style="white-space: normal;" fill="rgb(0, 0, 0)" stroke="none" stroke-width="1px">Alt + Scroll to Zoom</span></g></g></g><g transform="translate(68, 177)" clip-path="url(#clip_1)"><clipPath id="clip_1"><rect width="261" height="23"></rect></clipPath><g><g><line x1="0" y1="0" x2="0" y2="5" style="visibility: inherit;" fill="rgb(0, 0, 0)" stroke="rgb(204, 204, 204)" stroke-width="1px"></line><line x1="26.168750000000003" y1="0" x2="26.168750000000003" y2="5" style="visibility: inherit;" fill="rgb(0, 0, 0)" stroke="rgb(204, 204, 204)" stroke-width="1px"></line><line x1="52.337500000000006" y1="0" x2="52.337500000000006" y2="5" style="visibility: inherit;" fill="rgb(0, 0, 0)" stroke="rgb(204, 204, 204)" stroke-width="1px"></line><line x1="78.50625" y1="0" x2="78.50625" y2="5" style="visibility: inherit;" fill="rgb(0, 0, 0)" stroke="rgb(204, 204, 204)" stroke-width="1px"></line><line x1="104.67500000000001" y1="0" x2="104.67500000000001" y2="5" style="visibility: inherit;" fill="rgb(0, 0, 0)" stroke="rgb(204, 204, 204)" stroke-width="1px"></line><line x1="130.84375" y1="0" x2="130.84375" y2="5" style="visibility: inherit;" fill="rgb(0, 0, 0)" stroke="rgb(204, 204, 204)" stroke-width="1px"></line><line x1="157.0125" y1="0" x2="157.0125" y2="5" style="visibility: inherit;" fill="rgb(0, 0, 0)" stroke="rgb(204, 204, 204)" stroke-width="1px"></line><line x1="183.18124999999998" y1="0" x2="183.18124999999998" y2="5" style="visibility: inherit;" fill="rgb(0, 0, 0)" stroke="rgb(204, 204, 204)" stroke-width="1px"></line><line x1="209.35000000000002" y1="0" x2="209.35000000000002" y2="5" style="visibility: inherit;" fill="rgb(0, 0, 0)" stroke="rgb(204, 204, 204)" stroke-width="1px"></line><line x1="235.51875" y1="0" x2="235.51875" y2="5" style="visibility: inherit;" fill="rgb(0, 0, 0)" stroke="rgb(204, 204, 204)" stroke-width="1px"></line><line x1="261.6875" y1="0" x2="261.6875" y2="5" style="visibility: inherit;" fill="rgb(0, 0, 0)" stroke="rgb(204, 204, 204)" stroke-width="1px"></line></g><g transform="translate(0, 8)"><text x="0" y="0" dx="0em" dy="0.95em" style="text-anchor: middle; visibility: hidden; font-family: &quot;Helvetica Neue&quot;, sans-serif; font-size: 12px; font-weight: 200;" fill="rgb(50, 49, 63)" stroke="none" stroke-width="1px">-200</text><text x="26.168750000000003" y="0" dx="0em" dy="0.95em" style="text-anchor: middle; visibility: inherit; font-family: &quot;Helvetica Neue&quot;, sans-serif; font-size: 12px; font-weight: 200;" fill="rgb(50, 49, 63)" stroke="none" stroke-width="1px">0</text><text x="52.337500000000006" y="0" dx="0em" dy="0.95em" style="text-anchor: middle; visibility: hidden; font-family: &quot;Helvetica Neue&quot;, sans-serif; font-size: 12px; font-weight: 200;" fill="rgb(50, 49, 63)" stroke="none" stroke-width="1px">200</text><text x="78.50625" y="0" dx="0em" dy="0.95em" style="text-anchor: middle; visibility: inherit; font-family: &quot;Helvetica Neue&quot;, sans-serif; font-size: 12px; font-weight: 200;" fill="rgb(50, 49, 63)" stroke="none" stroke-width="1px">400</text><text x="104.67500000000001" y="0" dx="0em" dy="0.95em" style="text-anchor: middle; visibility: hidden; font-family: &quot;Helvetica Neue&quot;, sans-serif; font-size: 12px; font-weight: 200;" fill="rgb(50, 49, 63)" stroke="none" stroke-width="1px">600</text><text x="130.84375" y="0" dx="0em" dy="0.95em" style="text-anchor: middle; visibility: inherit; font-family: &quot;Helvetica Neue&quot;, sans-serif; font-size: 12px; font-weight: 200;" fill="rgb(50, 49, 63)" stroke="none" stroke-width="1px">800</text><text x="157.0125" y="0" dx="0em" dy="0.95em" style="text-anchor: middle; visibility: hidden; font-family: &quot;Helvetica Neue&quot;, sans-serif; font-size: 12px; font-weight: 200;" fill="rgb(50, 49, 63)" stroke="none" stroke-width="1px">1k</text><text x="183.18124999999998" y="0" dx="0em" dy="0.95em" style="text-anchor: middle; visibility: inherit; font-family: &quot;Helvetica Neue&quot;, sans-serif; font-size: 12px; font-weight: 200;" fill="rgb(50, 49, 63)" stroke="none" stroke-width="1px">1.2k</text><text x="209.35000000000002" y="0" dx="0em" dy="0.95em" style="text-anchor: middle; visibility: hidden; font-family: &quot;Helvetica Neue&quot;, sans-serif; font-size: 12px; font-weight: 200;" fill="rgb(50, 49, 63)" stroke="none" stroke-width="1px">1.4k</text><text x="235.51875" y="0" dx="0em" dy="0.95em" style="text-anchor: middle; visibility: inherit; font-family: &quot;Helvetica Neue&quot;, sans-serif; font-size: 12px; font-weight: 200;" fill="rgb(50, 49, 63)" stroke="none" stroke-width="1px">1.6k</text><text x="261.6875" y="0" dx="0em" dy="0.95em" style="text-anchor: middle; visibility: hidden; font-family: &quot;Helvetica Neue&quot;, sans-serif; font-size: 12px; font-weight: 200;" fill="rgb(50, 49, 63)" stroke="none" stroke-width="1px">1.8k</text></g><line x1="0" y1="0" x2="261.6875" y2="0" fill="rgb(0, 0, 0)" stroke="rgb(204, 204, 204)" stroke-width="1px"></line></g></g></g></g></svg>