<svg viewBox="0 0 330 200" xmlns="http://www.w3.org/2000/svg"><g><g><g><g><g><line x1="48.875" y1="177" x2="43.875" y2="177" style="visibility: inherit;" fill="rgb(0, 0, 0)" stroke="rgb(204, 204, 204)" stroke-width="1px"></line><line x1="48.875" y1="157.33333333333337" x2="43.875" y2="157.33333333333337" style="visibility: inherit;" fill="rgb(0, 0, 0)" stroke="rgb(204, 204, 204)" stroke-width="1px"></line><line x1="48.875" y1="137.66666666666669" x2="43.875" y2="137.66666666666669" style="visibility: inherit;" fill="rgb(0, 0, 0)" stroke="rgb(204, 204, 204)" stroke-width="1px"></line><line x1="48.875" y1="117.99999999999999" x2="43.875" y2="117.99999999999999" style="visibility: inherit;" fill="rgb(0, 0, 0)" stroke="rgb(204, 204, 204)" stroke-width="1px"></line><line x1="48.875" y1="98.33333333333334" x2="43.875" y2="98.33333333333334" style="visibility: inherit;" fill="rgb(0, 0, 0)" stroke="rgb(204, 204, 204)" stroke-width="1px"></line><line x1="48.875" y1="78.66666666666666" x2="43.875" y2="78.66666666666666" style="visibility: inherit;" fill="rgb(0, 0, 0)" stroke="rgb(204, 204, 204)" stroke-width="1px"></line><line x1="48.875" y1="58.99999999999997" x2="43.875" y2="58.99999999999997" style="visibility: inherit;" fill="rgb(0, 0, 0)" stroke="rgb(204, 204, 204)" stroke-width="1px"></line><line x1="48.875" y1="39.333333333333286" x2="43.875" y2="39.333333333333286" style="visibility: inherit;" fill="rgb(0, 0, 0)" stroke="rgb(204, 204, 204)" stroke-width="1px"></line><line x1="48.875" y1="19.666666666666572" x2="43.875" y2="19.666666666666572" style="visibility: inherit;" fill="rgb(0, 0, 0)" stroke="rgb(204, 204, 204)" stroke-width="1px"></line></g><g transform="translate(38.875, 0)"><text x="0" y="177" dx="0em" dy="0.3em" style="text-anchor: end; visibility: hidden; font-family: &quot;Helvetica Neue&quot;, sans-serif; font-size: 12px; font-weight: 200;" fill="rgb(50, 49, 63)" stroke="none" stroke-width="1px">0.4</text><text x="0" y="157.33333333333337" dx="0em" dy="0.3em" style="text-anchor: end; visibility: inherit; font-family: &quot;Helvetica Neue&quot;, sans-serif; font-size: 12px; font-weight: 200;" fill="rgb(50, 49, 63)" stroke="none" stroke-width="1px">0.42</text><text x="0" y="137.66666666666669" dx="0em" dy="0.3em" style="text-anchor: end; visibility: hidden; font-family: &quot;Helvetica Neue&quot;, sans-serif; font-size: 12px; font-weight: 200;" fill="rgb(50, 49, 63)" stroke="none" stroke-width="1px">0.44</text><text x="0" y="117.99999999999999" dx="0em" dy="0.3em" style="text-anchor: end; visibility: inherit; font-family: &quot;Helvetica Neue&quot;, sans-serif; font-size: 12px; font-weight: 200;" fill="rgb(50, 49, 63)" stroke="none" stroke-width="1px">0.46</text><text x="0" y="98.33333333333334" dx="0em" dy="0.3em" style="text-anchor: end; visibility: hidden; font-family: &quot;Helvetica Neue&quot;, sans-serif; font-size: 12px; font-weight: 200;" fill="rgb(50, 49, 63)" stroke="none" stroke-width="1px">0.48</text><text x="0" y="78.66666666666666" dx="0em" dy="0.3em" style="text-anchor: end; visibility: inherit; font-family: &quot;Helvetica Neue&quot;, sans-serif; font-size: 12px; font-weight: 200;" fill="rgb(50, 49, 63)" stroke="none" stroke-width="1px">0.5</text><text x="0" y="58.99999999999997" dx="0em" dy="0.3em" style="text-anchor: end; visibility: hidden; font-family: &quot;Helvetica Neue&quot;, sans-serif; font-size: 12px; font-weight: 200;" fill="rgb(50, 49, 63)" stroke="none" stroke-width="1px">0.52</text><text x="0" y="39.333333333333286" dx="0em" dy="0.3em" style="text-anchor: end; visibility: inherit; font-family: &quot;Helvetica Neue&quot;, sans-serif; font-size: 12px; font-weight: 200;" fill="rgb(50, 49, 63)" stroke="none" stroke-width="1px">0.54</text><text x="0" y="19.666666666666572" dx="0em" dy="0.3em" style="text-anchor: end; visibility: hidden; font-family: &quot;Helvetica Neue&quot;, sans-serif; font-size: 12px; font-weight: 200;" fill="rgb(50, 49, 63)" stroke="none" stroke-width="1px">0.56</text></g><line x1="48.875" y1="0" x2="48.875" y2="177" fill="rgb(0, 0, 0)" stroke="rgb(204, 204, 204)" stroke-width="1px"></line></g></g><g transform="translate(48, 0)" clip-path="url(#clip_0)"><clipPath id="clip_0"><rect width="281" height="177"></rect></clipPath><g><g><g><line x1="0" y1="0" x2="0" y2="177" fill="rgb(0, 0, 0)" stroke="rgb(60, 60, 60)" stroke-width="1px" opacity="0.25"></line><line x1="28.1125" y1="0" x2="28.1125" y2="177" fill="rgb(0, 0, 0)" stroke="rgb(60, 60, 60)" stroke-width="1px" opacity="0.25"></line><line x1="56.225" y1="0" x2="56.225" y2="177" fill="rgb(0, 0, 0)" stroke="rgb(60, 60, 60)" stroke-width="1px" opacity="0.25"></line><line x1="84.33749999999999" y1="0" x2="84.33749999999999" y2="177" fill="rgb(0, 0, 0)" stroke="rgb(60, 60, 60)" stroke-width="1px" opacity="0.25"></line><line x1="112.45" y1="0" x2="112.45" y2="177" fill="rgb(0, 0, 0)" stroke="rgb(60, 60, 60)" stroke-width="1px" opacity="0.25"></line><line x1="140.5625" y1="0" x2="140.5625" y2="177" fill="rgb(0, 0, 0)" stroke="rgb(60, 60, 60)" stroke-width="1px" opacity="0.25"></line><line x1="168.67499999999998" y1="0" x2="168.67499999999998" y2="177" fill="rgb(0, 0, 0)" stroke="rgb(60, 60, 60)" stroke-width="1px" opacity="0.25"></line><line x1="196.7875" y1="0" x2="196.7875" y2="177" fill="rgb(0, 0, 0)" stroke="rgb(60, 60, 60)" stroke-width="1px" opacity="0.25"></line><line x1="224.9" y1="0" x2="224.9" y2="177" fill="rgb(0, 0, 0)" stroke="rgb(60, 60, 60)" stroke-width="1px" opacity="0.25"></line><line x1="253.01250000000002" y1="0" x2="253.01250000000002" y2="177" fill="rgb(0, 0, 0)" stroke="rgb(60, 60, 60)" stroke-width="1px" opacity="0.25"></line><line x1="281.125" y1="0" x2="281.125" y2="177" fill="rgb(0, 0, 0)" stroke="rgb(60, 60, 60)" stroke-width="1px" opacity="0.25"></line></g><g><line x1="0" y1="177" x2="281.125" y2="177" fill="rgb(0, 0, 0)" stroke="rgb(60, 60, 60)" stroke-width="1px" opacity="0.25"></line><line x1="0" y1="157.33333333333337" x2="281.125" y2="157.33333333333337" fill="rgb(0, 0, 0)" stroke="rgb(60, 60, 60)" stroke-width="1px" opacity="0.25"></line><line x1="0" y1="137.66666666666669" x2="281.125" y2="137.66666666666669" fill="rgb(0, 0, 0)" stroke="rgb(60, 60, 60)" stroke-width="1px" opacity="0.25"></line><line x1="0" y1="117.99999999999999" x2="281.125" y2="117.99999999999999" fill="rgb(0, 0, 0)" stroke="rgb(60, 60, 60)" stroke-width="1px" opacity="0.25"></line><line x1="0" y1="98.33333333333334" x2="281.125" y2="98.33333333333334" fill="rgb(0, 0, 0)" stroke="rgb(60, 60, 60)" stroke-width="1px" opacity="0.25"></line><line x1="0" y1="78.66666666666666" x2="281.125" y2="78.66666666666666" fill="rgb(0, 0, 0)" stroke="rgb(60, 60, 60)" stroke-width="1px" opacity="0.25"></line><line x1="0" y1="58.99999999999997" x2="281.125" y2="58.99999999999997" fill="rgb(0, 0, 0)" stroke="rgb(60, 60, 60)" stroke-width="1px" opacity="0.25"></line><line x1="0" y1="39.333333333333286" x2="281.125" y2="39.333333333333286" fill="rgb(0, 0, 0)" stroke="rgb(60, 60, 60)" stroke-width="1px" opacity="0.25"></line><line x1="0" y1="19.666666666666572" x2="281.125" y2="19.666666666666572" fill="rgb(0, 0, 0)" stroke="rgb(60, 60, 60)" stroke-width="1px" opacity="0.25"></line></g></g></g><g><g><line x1="0" y1="570.3333333333335" x2="281.125" y2="570.3333333333335" fill="rgb(0, 0, 0)" stroke="rgb(153, 153, 153)" stroke-width="1.5px"></line></g></g><g><g><line x1="28.1125" y1="0" x2="28.1125" y2="177" fill="rgb(0, 0, 0)" stroke="rgb(153, 153, 153)" stroke-width="1.5px"></line></g></g><g><g><g><g><g><path stroke="rgb(51, 187, 238)" stroke-width="2px" d="M28.5341875,32.47954897085822L28.815312499999997,27.939874450365664L28.955875,26.504895607630374L29.237,29.08402434984839L29.518124999999998,30.062949180603L29.6586875,26.222272237141908L29.79925,12.88874399662015L29.9398125,3.4552658796309856L30.080375,20.835899829864474L30.220937499999998,4.325291037559481L30.3615,-11.456897338231443L30.642625,-8.61683138211572L30.7831875,15.45556437969205L30.923750000000002,15.049857417742373L31.204875,15.312318523724826L31.486,-2.833602309227018L31.626562500000002,7.331344008445683L32.329375,24.147844831148745L32.4699375,14.626860141754122L32.6105,-19.406339009602902L32.891625000000005,-5.192294200261472L33.17275,11.457926551500918L33.5944375,20.20811490217841L33.735,13.358806093533815L34.016125,4.601877450942965L34.1566875,14.158204714457156L34.29725,4.575619618097903L34.4378125,7.809670289357456L34.7189375,0.0913913249968914L35.0000625,19.58255720138547L35.140625,16.57105338573453L35.5623125,16.13861970106757L35.702875,13.428084572156223L35.8434375,23.4198933045069L35.984,24.706175446510287L36.1245625,28.41046404838559L36.54625,35.07374080022174L36.6868125,32.72565754254654L36.967937500000005,40.81775895754495L37.2490625,33.91939254601792L37.389625,36.87339874108628L37.530187500000004,42.746771891911806L37.670750000000005,41.603618383407564L37.8113125,44.7366232872009L38.0924375,40.453548749287876L38.233000000000004,39.306878566741915L38.373562500000006,38.89349353313443L38.514125,42.99780380725858L38.79525,44.67209231853482L39.076375000000006,46.15999710559842L39.2169375,42.50089776515958L39.4980625,47.197415947914095L39.91974999999999,53.33875966072081L40.060312499999995,50.915243744850144L40.200874999999996,51.54965174198148L40.3414375,50.471498092015565L40.482,55.54857901732126L40.622562499999994,46.65959926446277L40.9036875,57.359490315119416L41.325375,59.582086920738206L42.0281875,61.16189412275948L42.449875,59.48262365659076L42.731,59.02346324920653L42.871562499999996,65.2983233531316L43.012125,61.72667197386423L43.9960625,65.21052372455596L44.41775,69.02828367551166L44.698875,66.82620100180306L44.8394375,71.93973811467487L44.980000000000004,71.79057252407073L45.54225,75.35765222708383L45.682812500000004,74.90054321289062L45.823375,76.93945221106209L46.2450625,75.28532596429189L46.385625000000005,75.75398139158884L46.8073125,80.18279276291527L47.3695625,80.03758343060811L47.650687500000004,81.85892752806343L47.93181250000001,81.92070376873015L48.072375,82.30545721451439L48.2129375,79.49956160783768L48.3535,79.39628861347832L48.4940625,83.14576647679009L48.634625,81.86200461784998L48.915749999999996,84.58604963620503L49.196875,80.38104526201883L49.618562499999996,84.87758191426593L49.759125,85.76035501559574L49.8996875,87.58096647262573L50.180812499999995,86.11952465772629L50.321374999999996,88.33646527926126L50.4619375,86.89500989516574L50.7430625,87.71380883455276L50.883624999999995,88.1506383617719L51.16475,85.43488683303195L51.3053125,88.78824067115782L51.5864375,86.48777904113132L51.727,87.66214303175607L51.8675625,86.2720603942871L52.1486875,87.37579784790672L52.7109375,91.15094743172327L52.8515,89.54872143268585L52.9920625,88.86847945054372L53.132625,88.69235269228616L53.41375,90.18263123432794L53.5543125,89.63291647036868L53.8354375,91.92361932992934L54.1165625,91.71097777287164L54.257125,93.72714561223982L54.3976875,93.45366559425989L54.538250000000005,92.49132774273554L54.819375,92.1317478219668L54.9599375,94.27639148632684L55.943875000000006,97.65483093261719L56.506125000000004,97.04161089658737L57.068375,97.74304083983102L57.2089375,99.3093674580256L57.3495,96.79761232932408L57.91175,95.26610078414281L58.0523125,98.62443657716115L58.192874999999994,98.20694875717162L58.333437499999995,98.64919982353845L58.755125,101.57349012295404L58.8956875,100.75583410263062L59.1768125,100.1035789847374L59.317375,103.14447633425395L59.4579375,102.16859928766887L59.739062499999996,100.26308945814768L59.879625,102.83870152632394L60.0201875,99.12386290232341L60.3013125,103.64513349533081L60.441874999999996,99.16193089882532L60.5824375,101.72183515628178L60.723,100.11313261588414L60.8635625,102.9995307524999L61.004125,101.01700576146443L61.4258125,101.37714248895645L61.566375,102.55786579847336L61.847500000000004,106.01088804006577L62.40975,105.39816619952519L62.550312500000004,106.48602000872293L62.8314375,105.9735526839892L62.972,107.00220914681752L63.1125625,106.32817995548248L63.253125000000004,101.99335169792175L63.3936875,104.98727214336395L63.955937500000005,104.49751667181651L64.37762500000001,105.65060478448868L64.5181875,105.56819738944371L64.65875,105.50363711516061L64.7993125,108.39111955960591L65.0804375,106.10835852225621L65.64268750000001,107.62811851501465L65.9238125,103.89944763978322L66.2049375,106.76949324210484L66.3455,106.83768741289775L66.4860625,105.6802327632904L66.62662499999999,104.46103117863336L66.76718749999999,109.7063849568367L67.0483125,108.31495426098506L67.188875,109.02233324448268L67.47,106.78068798780441L67.751125,107.91754078865051L68.03225,107.90165714422862L68.7350625,108.33872111638387L69.0161875,108.06524109840393L69.15675,108.99833194414775L69.57843749999999,110.03701092799504L69.719,104.7451491355896L69.8595625,114.02922721703848L70.000125,107.70774187644322L70.1406875,110.48348200321198L70.28125,109.51715858777364L70.4218125,111.3357186516126L70.562375,111.89009300867717L70.7029375,108.44940843184789L71.2651875,110.09603244066238L71.40575,108.6417705019315L71.686875,108.98300510644913L72.1085625,113.24653279781342L72.6708125,114.62653430302939L72.811375,111.26594197750092L72.9519375,109.50889440377553L73.0925,112.99330296119054L73.373625,114.11503406365712L73.65475,109.08443184693654L73.79531250000001,110.18327526251474L73.93587500000001,112.80091158548991L74.0764375,113.27759675184885L74.498125,110.41382255156834L74.6386875,114.14454481999078L74.9198125,113.18915239969888L75.4820625,113.50067110856375L75.7631875,115.89918933312097L76.0443125,113.93073103825252L76.184875,117.17840882142386L76.3254375,115.86926829814911L76.46600000000001,112.97639362017313L76.60656250000001,115.07819247245789L76.88768750000001,113.39707575241724L77.02825,116.18670674165091L77.4499375,112.24768014748891L77.73106250000001,112.63700526952744L77.87162500000001,115.59279910723369L78.15275000000001,114.35082705815633L78.433875,114.38385448853175L78.5744375,114.90060043334961L78.715,116.98803953329723L78.996125,115.6230131983757L79.1366875,117.72970608870189L79.27725,116.14318790038428L79.4178125,113.56221290429433L79.6989375,114.57724225521088L79.83949999999999,115.22650820016861L80.12062499999999,117.61916530132294L80.26118749999999,117.03149976332983L80.5423125,115.77798130114873L80.8234375,113.55087163050969L80.964,118.22168878714244L81.1045625,119.63187507788341L81.24512499999999,117.12612760066986L81.38568749999999,115.90976866086325L81.66681249999999,117.92716733614603L81.807375,117.19921580950418L82.2290625,114.92679965496063L82.369625,115.94097914298375L82.5101875,117.5533155798912L82.65075,118.86216304699579L82.93187499999999,119.73160209258397L83.07243749999999,118.34424487749736L83.213,120.9711124698321L83.3535625,118.45088801781337L84.056375,117.60627082983653L84.618625,118.99078540007274L84.7591875,118.70904119809468L85.0403125,122.82088301579158L85.180875,115.56229195992152L85.462,119.98588693141937L86.4459375,122.01928647359213L86.5865,122.09958386421204L87.0081875,124.30908085902533L87.14874999999999,123.74688190221786L87.2893125,120.37588608264923L87.429875,121.03089592854182L87.711,120.51113150517145L87.992125,119.73901641368866L88.27325,122.96829026937485L88.55437500000001,122.35917301972708L88.8355,124.0163177450498L89.2571875,124.44945476452509L89.8194375,125.51506561040878L89.96000000000001,123.75637692213058L90.1005625,125.32961966594061L90.241125,122.02922107776007L90.52225,124.97437697649002L90.6628125,124.83842821915945L91.0845,123.37666404247284L91.2250625,123.27585271994273L91.50618750000001,126.12213146686554L91.927875,123.43041054407756L92.3495625,124.50097403923671L92.490125,125.79748384157818L92.63068750000001,123.72774533430736L92.77125000000001,124.9276345173518L92.91181250000001,125.54841540257137L93.1929375,125.61048469940823L93.3335,126.15173014005026L93.4740625,124.38706310590109L93.614625,123.60776813824972L93.7551875,127.24286617835364L93.89575,128.57946606477103L94.03631250000001,128.06907943884534L94.31743750000001,126.69974517822266L94.5985625,127.97779244184494L94.739125,127.54263333479564L95.1608125,127.69065600633621L95.30137500000001,125.36836169163388L95.86362500000001,126.9977833032608L96.2853125,128.71151717503867L96.425875,125.46090883016586L96.707,129.13090986013412L96.8475625,128.29663755496344L97.1286875,129.81941602627438L97.40981249999999,129.44263370831808L97.83149999999999,130.41684033473334L97.97206249999999,131.16577468315762L98.81543749999999,128.9620508948962L99.23712499999999,130.65547597408295L99.3776875,128.6755591829618L99.51825,131.7383185227712L99.799375,131.7243983546893L99.9399375,130.68138213952383L100.0805,133.94465051094693L100.36162499999999,132.2297444144885L100.50218749999999,129.85531540711722L100.64274999999999,131.6035126845042L100.7833125,132.63199331363043L100.923875,132.33506880203885L101.0644375,131.63519205649695L101.205,131.6799417336782L101.76724999999999,135.765467107296L101.90781249999999,131.02625064055127L102.7511875,133.28199189901352L103.0323125,130.64146788915L103.172875,131.50340469678244L103.31343749999999,135.19066673517227L103.454,134.25649158159894L103.5945625,133.59148852030438L103.735125,129.31213579575223L103.8756875,133.02430760860443L104.01625,131.30743803580603L104.1568125,130.06616932153702L104.297375,131.00450587272644L104.4379375,136.82419113318127L104.5785,130.14547032117844L104.859625,132.12392183144888L105.0001875,131.0091947714488L105.14075,133.97383890549344L105.2813125,130.39591612418494L105.5624375,130.51477970679602L105.703,130.82990300655365L105.8435625,133.22628192106885L106.12468750000001,133.23138109842938L106.4058125,131.2341446876526L106.6869375,132.5779830614726L106.8275,131.8808903495471L107.2491875,134.7512876192729L107.38975,132.8355501294136L107.53031250000001,134.97764420509338L107.8114375,136.60750540097555L107.952,134.30721960465115L108.0925625,136.11883423725766L108.3736875,136.22398279110593L108.6548125,138.89410547415417L108.795375,133.461986998717L109.07650000000001,136.10608629385632L109.2170625,135.13888370990753L109.357625,134.54667580127716L109.4981875,135.7881789604823L109.63875,137.1419226328532L109.7793125,133.67193243900937L109.919875,139.1102637052536L110.0604375,138.85498247543973L110.20100000000001,136.07842179139456L110.48212500000001,136.44251477718353L110.6226875,132.9618866443634L110.76325,135.04068058729172L111.1849375,135.13428272803625L111.3255,138.02035850286484L111.4660625,137.6613646944364L111.74718750000001,136.0159129103025L111.88775000000001,137.18708258867264L112.02831250000001,138.76990826924643L112.168875,139.9310261209806L112.45,136.48957959810895L112.731125,137.53710887829465L112.87168750000001,137.16149878501892L113.01225000000001,136.51076755921048L113.29337500000001,137.80185582240424L113.5745,137.67839125792187L113.855625,136.22963877518973L113.9961875,139.64125217994055L114.13675,135.7260803580284L114.5584375,135.89830946922302L115.12068749999999,136.18858160575232L115.26124999999999,137.67877223094305L115.40181249999999,136.34902985890707L115.54237499999999,137.68741738796234L115.6829375,138.1395444472631L115.9640625,134.66269673903784L116.52631249999999,137.9043961763382L116.66687499999999,138.2192264199257L116.948,138.33140832185745L117.229125,139.04834093650183L117.791375,135.63760670026144L118.21306249999999,137.40822277466458L118.353625,136.28303360939026L118.63475,137.74620445569357L118.7753125,140.32498153050742L118.915875,136.74181304375333L119.0564375,138.86263124148053L119.197,139.93474793434143L119.33756249999999,137.51703453063965L119.47812499999999,134.76374250650406L119.6186875,140.84254803260168L119.75925,138.98067426681519L120.3215,139.87399739027023L120.4620625,136.75922058025998L120.7431875,142.00609825054806L121.0243125,136.52568411827087L121.164875,140.11137288808823L121.3054375,139.71847248077393L121.446,140.14985116322836L121.5865625,138.69265866279602L121.727125,138.8579716483752L121.8676875,141.10275260607403L122.00825,141.5871451497078L122.1488125,136.73870664834976L122.4299375,137.1586268345515L122.5705,140.10351898272833L122.7110625,137.79608261585236L122.851625,139.2993142406146L122.9921875,138.99049164851507L123.2733125,139.2695690393448L123.413875,140.1497339407603L123.5544375,136.52908356984457L123.8355625,139.55858103434247L123.976125,139.64403621355694L124.1166875,140.0410687128703L124.25725,139.3516247669856L124.3978125,140.64590734243393L124.538375,139.8731182217598L124.6789375,137.67232499519986L124.8195,139.10147202014923L124.9600625,143.60829494396847L125.38175,137.26814192533493L125.662875,140.22513729333878L125.944,141.15295312802L126.3656875,141.12713487943014L126.50625000000001,139.00529098510742L126.64681250000001,139.5733803709348L126.787375,142.490842461586L126.9279375,138.7869348327319L127.0685,140.3732478817304L127.2090625,141.2531783382098L127.349625,138.75721893707913L127.4901875,135.06189785401028L127.63075,141.20596698919934L127.77131250000001,141.30557678143185L127.91187500000001,139.4741808573405L128.47412500000002,140.12508791685104L128.6146875,144.54074106613797L129.036375,140.5277470946312L129.1769375,139.08561768134436L129.4580625,141.00589754184088L129.598625,142.50423512856167L129.7391875,140.60142141580582L129.87975,140.0014768242836L130.02031250000002,140.37037593126297L130.160875,144.7964911858241L130.5825625,141.19579794009528L130.723125,142.7817007104556L130.8636875,143.11505210399628L131.4259375,140.31372817357382L131.56650000000002,139.19226082166037L131.847625,142.472702284654L131.98818749999998,141.99053696791333L132.12875,141.92498030265173L132.26931249999998,139.86919126907986L132.5504375,142.89244663715363L132.972125,140.13997517029446L133.1126875,144.8934634725253L133.3938125,143.0106948018074L133.53437499999998,138.1868437131246L133.6749375,142.1134154200554L133.8155,143.8167751034101L133.9560625,141.35689091682434L134.096625,137.40538012981415L134.37775,144.0678949356079L134.79943749999998,140.47798615694046L134.94,143.26726547876996L135.221125,143.20724757512411L135.50225,141.02134160200757L135.6428125,142.8439165353775L135.783375,142.81481605768204L135.9239375,141.0838211774826L136.2050625,142.5777629216512L136.34562499999998,141.71058040857315L136.4861875,142.00876506169638L136.62675,142.18251806497574L136.7673125,140.65856736898422L136.907875,141.38021818796796L137.0484375,143.321715315183L137.189,141.13979490598044L137.61068749999998,142.75667371352515L137.75125,140.82956564426422L138.1729375,142.97092707951865L138.3135,144.947180668513L138.4540625,141.22935287157696L138.7351875,140.60757559537888L139.0163125,144.29313790798187L139.15687499999999,138.05338593324026L139.2974375,144.74066398541135L139.438,143.92212879657745L139.5785625,141.15518035491309L139.719125,146.0868761142095L139.8596875,144.3148826758067L140.00025,142.1077887415886L140.281375,143.08305037021637L140.4219375,142.8933844168981L140.5625,143.57544334729513L140.843625,140.10299148162207L141.2653125,144.2891523440679L141.405875,140.8826088110606L141.5464375,142.25871266921362L141.687,142.42590121428174L141.8275625,143.21516009171805L142.10868749999997,141.26340599854788L142.24925,139.16553409894308L142.38981249999998,141.5750712354978L142.67093749999998,142.31536042690277L142.8115,142.05624016125998L143.092625,145.73834441105527L143.5143125,145.37392906347912L143.7954375,142.09463051954907L143.936,143.43404374519986L144.0765625,140.94731561342877L144.49825,141.09463495016098L144.91993749999997,145.99702509244284L145.0605,139.21875309944153L145.341625,143.71493808428448L145.48218749999998,144.38002906243008L145.62275,141.63072260220846L145.903875,143.23643596967062L146.0444375,142.29680997133255L146.6066875,145.37486684322357L146.8878125,143.02449774742126L147.028375,146.45891092220944L147.1689375,142.410369237264L147.3095,142.42853871981305L147.59062500000002,141.03124690055847L147.7311875,143.9403275847435L147.87175000000002,145.83971254030865L148.01231249999998,142.48128883043927L148.29343749999998,143.48087412118912L148.57456249999998,144.496518890063L148.8556875,147.2692112326622L148.99625,146.347373743852L149.1368125,143.9310377041499L149.277375,146.5703015724818L149.4179375,145.9313218990962L149.9801875,141.65724418560666L150.12075000000002,142.68124105532965L150.2613125,147.08778015772504L150.40187500000002,144.94284343719482L150.82356249999998,147.82220822572708L150.964125,148.2076943119367L151.10468749999998,147.34616778294247L151.24525,142.72684059540433L151.3858125,143.19784047206244L151.6669375,144.9830214381218L151.8075,142.86255490779877L151.9480625,143.52574102083844L152.088625,143.67777856191L152.36975,142.3592602411906L152.650875,144.677627603213L152.7914375,144.48693595329922L152.93200000000002,144.3961764574051L153.0725625,146.94339138269424L153.21312500000002,146.12602841854095L153.49425000000002,142.89728206396103L153.6348125,146.5308269063632L153.77537500000003,145.64315976699194L154.0565,145.57361753781638L154.1970625,145.66754204034805L154.4781875,145.0610622962316L154.61875,147.30859798192978L155.181,145.14783622821173L155.3215625,145.4342400232951L155.6026875,143.58854295810065L155.74325000000002,144.28053649266562L155.8838125,145.24187795321149L156.02437500000002,143.62198066711426L156.1649375,145.91740173101425L156.30550000000002,143.0140649477641L156.4460625,142.5457318822543L156.72718749999999,144.61717011531195L156.86775,148.20274166266125L157.0083125,143.26304546991986L157.43,148.39947026968002L157.5705625,146.55356806516647L157.711125,143.36690457661948L157.8516875,149.01031655073166L158.1328125,139.46978501478833L158.9761875,146.7636307279269L159.11675,145.49959154923758L159.2573125,145.31763297319412L159.53843750000001,144.29726999998093L160.1006875,143.57558987538022L160.52237499999998,145.8937227924665L160.9440625,143.8956658244133L161.36575,145.15571943918866L161.5063125,147.24397909641266L161.7874375,145.19188257058462L161.928,144.7289417386055L162.0685625,146.59940205017728L162.209125,143.22436205546063L162.49024999999997,145.39288979768753L162.6308125,146.47602540254593L162.77137499999998,148.6885408759117L162.9119375,147.08619765440625L163.05249999999998,145.64893297354382L163.1930625,144.6311195890109L163.33362499999998,148.12414399782818L163.4741875,147.37430117527646L163.61475,144.37056334813437L163.895875,145.04796268542609L164.0364375,144.65714297691983L164.3175625,145.2757259408633L164.5986875,146.9445343017578L164.73925,147.86537539958954L165.020375,145.42225402593613L165.3015,144.09131012360257L165.44206250000002,143.1643734574318L165.58262499999998,144.1330120166143L165.7231875,146.39420411984128L166.14487499999998,143.8411280711492L166.2854375,147.33649692932767L166.426,146.4498261809349L166.5665625,145.54944040377936L166.8476875,146.830213089784L166.98825,143.6041335463524L167.269375,144.85035490989685L168.11275,144.3796773950259L168.25331250000002,144.210877041022L168.5344375,144.55800207455954L168.67499999999998,145.5682546099027L168.956125,146.22581404447556L169.0966875,145.27604830265045L169.23725,142.8547596136729L169.3778125,145.98049672444662L169.6589375,146.87059623003006L169.7995,145.41158678134283L169.9400625,144.09875375032425L170.2211875,142.14418631792068L170.36175,147.53527692953747L170.50231250000002,148.10535909732184L170.642875,145.83804212013882L171.06456250000002,147.6031487385432L171.34568750000003,146.62378432353339L172.0485,144.97601739565533L172.1890625,144.7100103100141L172.329625,148.2350364526113L172.4701875,148.1734946568807L172.7513125,145.184556166331L173.03243750000001,145.4229866663615L173.173,147.67128429810208L173.31356250000002,149.62412269910178L173.59468750000002,145.90327642361325L173.73525,144.53572980562848L173.87581250000002,144.23868807156882L174.016375,143.74084424972534L174.15693750000003,145.49595765272778L174.578625,147.38359105587006L174.7191875,141.72283015648526L174.85975,146.33861136436462L175.5625625,146.8950078090032L175.703125,147.05709717671078L175.8436875,144.3877364397049L175.98425,146.68728959560394L176.265375,145.28404873609543L176.4059375,144.8781952460607L176.5465,143.49057428042096L176.6870625,144.87646621465683L176.827625,145.56265723705292L177.53043749999998,147.47188887993497L177.671,144.97927031914395L177.81156249999998,146.55128222703934L177.952125,146.53701039155325L178.09268749999998,146.4310412804286L178.23325,149.42645631233853L178.7955,144.83892571926117L178.9360625,146.2989022533099L179.076625,148.83038006226224L179.2171875,148.3241548339526L179.35775,144.18423823515576L179.4983125,146.0470204750697L179.638875,148.35990768671036L179.92000000000002,145.53335162003836L180.06056249999997,149.5177140037219L180.201125,148.05205217997235L180.34168749999998,144.43535806735358L180.48225,144.8552782535553L180.62281249999998,148.55165433883667L180.763375,147.16309559345245L181.325625,149.8046159942945L181.60675,148.27776404221854L181.7473125,146.49513266483945L182.169,147.61281959215802L182.450125,145.2592268784841L182.5906875,148.53204888105392L182.8718125,143.35172426700592L183.15293749999998,146.2162018020948L183.2935,147.71102271477383L183.43406249999998,146.3250721693039L183.71518749999998,144.11238086223602L184.136875,143.92523519198102L184.2774375,149.1393784880638L184.699125,146.07556414604187L184.98025,146.53337649504346L185.4019375,150.5852004090945L185.82362500000002,146.4707503914833L185.96418749999998,145.31083407004675L186.10475,149.05996026595435L186.24531249999998,147.8920435110728L186.385875,145.87936304012936L186.5264375,146.2152054111163L186.667,147.63720186551413L186.8075625,150.0347823103269L186.948125,147.46963234742483L187.0886875,145.68442207574844L187.3698125,145.57845296462378L187.510375,146.0464636683464L187.6509375,150.29607119162878L188.07262500000002,148.7319718003273L188.2131875,147.09765615065893L188.4943125,143.88344538211823L188.63487500000002,150.70819608370465L188.91600000000003,149.1521850426992L189.197125,146.7129613161087L189.6188125,147.31993925571442L189.759375,145.61130456129712L189.8999375,149.80479182799658L190.0405,148.22914602359137L190.1810625,147.20374248425168L190.321625,146.77749228477478L190.4621875,146.1351131598155L190.60275000000001,144.34254717826843L190.7433125,147.7822060585022L190.88387500000002,148.42306129137677L191.0244375,148.7898796995481L191.16500000000002,148.06356928745907L191.3055625,148.61234627167386L191.44612500000002,147.38435300191244L191.72725000000003,146.653177857399L191.86781249999999,147.05970537662506L192.008375,147.90441048145294L192.1489375,148.4158814152082L193.5545625,146.43699032068253L193.97625,147.72804927825928L194.1168125,145.87857178846997L194.257375,148.1783300836881L194.3979375,147.11482924222946L194.67906250000001,148.59962763388953L194.81962499999997,144.38017559051514L194.9601875,149.49438673257828L195.2413125,146.42910710970563L195.5224375,150.43377828598022L195.66299999999998,149.20220973094305L195.8035625,150.2890378435453L195.94412499999999,148.54728780190152L196.0846875,149.45816498994827L196.22525,149.5344475110372L196.3658125,148.15450461705527L196.506375,149.92075415452322L196.6469375,149.60882516702017L196.9280625,148.51654620965323L197.2091875,148.24464869499207L197.34975,146.92850412925085L197.63087499999997,149.87981420755386L197.91199999999998,145.37580462296805L198.19312499999998,148.93752139806747L198.3336875,150.0906681219737L198.47424999999998,150.15443714459738L198.6148125,148.4191636443138L198.755375,146.62879558404288L198.8959375,148.54198348522186L199.4581875,145.3668371041616L199.7393125,145.6048280199369L200.161,147.20696610212326L200.30156250000002,148.81437919537228L200.58268750000002,147.70416520039242L200.72324999999998,148.98127468427023L200.8638125,145.79847953716916L201.28549999999998,150.62997939189276L201.4260625,146.48950598637265L201.566625,148.82363977034888L201.7071875,150.21386893590292L201.84775,148.0960692167282L201.9883125,149.564222017924L202.128875,147.62799990177155L202.2694375,147.34517139196396L202.691125,150.2084180911382L202.83168750000002,146.83191281557083L202.97225,149.0293065905571L203.253375,147.89904755353928L203.39393750000002,147.53477873404822L203.6750625,145.1119661529859L203.81562499999998,148.07716709375381L204.2373125,150.19033652544022L204.377875,148.74454391002655L204.5184375,148.88503503799438L204.659,150.18119317293167L204.7995625,148.65211399396262L204.940125,147.28987169265747L205.0806875,147.10498255491257L205.3618125,147.16400406757992L205.502375,151.74751979112625L205.64293750000002,150.85246763626736L205.7835,151.07850186030072L205.92406250000002,148.49157782395682L206.064625,147.68693349758786L206.34575,149.62728770573935L206.7674375,150.3781855305036L206.908,147.32735357681912L207.189125,148.4917829632759L207.751375,146.8252311348915L207.8919375,148.14779363075894L208.17306250000001,149.42798020442328L208.313625,148.26932402451834L208.73531250000002,151.05825167894363L209.01643750000002,149.51223385334015L209.157,145.36710085471472L209.29756250000003,146.40988262494406L209.5786875,149.33634154001874L209.71925,148.6295486688614L209.8598125,145.13397467136383L210.000375,150.4178067247073L210.2815,150.1208822131157L210.4220625,150.4600361188253L210.562625,151.4844139615695L210.7031875,146.8413199186325L210.84375,149.21624712149304L211.124875,147.96308032671612L211.2654375,148.63233270247778L211.406,152.20480463902157L211.687125,145.54100038607916L211.8276875,149.45872179667157L212.24937500000001,145.8084141413371L212.5305,147.30220935742062L212.67106249999998,151.42703356345496L212.95218749999998,149.43296215931576L213.09275,146.19516036907834L213.23331249999998,148.74978961547217L213.373875,147.53861776987713L213.51443749999999,148.11488342285156L213.655,149.60316918293637L213.7955625,146.82857197523117L214.21725,147.76157490412396L214.3578125,149.74430503447851L214.498375,147.7699270049731L214.6389375,148.51376217603683L214.7795,147.92996497948965L214.9200625,150.76616259415945L215.06062500000002,147.42640656232834L215.34175,148.88644170761108L215.48231249999998,147.37283589442572L215.622875,147.0666508078575L215.76343749999998,148.29836589097977L215.904,145.99046063423157L216.04456249999998,149.0278999209404L216.46625,150.481605052948L216.8879375,148.41476780176163L217.1690625,146.72711592912674L217.4501875,147.48914988835654L217.59075,148.99358304341635L217.7313125,145.7323953708013L217.87187500000002,147.51699022452038L218.0124375,146.8638266324997L218.57468749999998,145.4115281701088L219.1369375,148.19623581568402L219.4180625,143.26544853051504L219.558625,146.62091237306595L219.6991875,147.176283121109L219.9803125,146.41345791021985L220.120875,146.76489086945853L220.2614375,149.59352763493857L220.68312500000002,146.2639113465945L220.8236875,144.71185656388602L221.10481249999998,141.92990364631018L221.245375,149.26981778939566L221.38593749999998,148.0690494378408L221.6670625,148.33467555046082L221.807625,144.9416126012802L221.9481875,149.70377536614737L222.2293125,145.48405957221985L222.369875,143.9004719456037L222.651,145.33773662646612L222.7915625,149.59490499893826L222.932125,144.11560448010763L223.0726875,146.70636755228043L223.21325000000002,147.9855870405833L223.3538125,146.15158291657767L223.6349375,147.5226462086042L223.77550000000002,146.24163907766342L224.19718749999998,148.2788776556651L224.9,145.79812786976498L225.46225,144.70851572354636L226.58675000000002,143.51911795139313L226.7273125,147.6969267129898L226.86787500000003,146.405779838562L227.00843749999999,144.75654762983322L227.149,145.0874373515447L227.5706875,148.47798001766205L227.71125,148.36688242355984L227.992375,147.90259353319806L228.1329375,148.0290472706159L228.4140625,147.78273355960846L228.554625,146.36460544665655L228.6951875,146.7744738062223L228.83575,147.30045102039975L229.116875,147.34130305051804L229.2574375,144.79605160156888L229.398,145.65842799345654L229.5385625,147.4834059874217L229.679125,144.3203335205714L229.96024999999997,150.37071259816489L230.1008125,146.38233534495038L230.24137499999998,144.82972375551861L230.52249999999998,147.41055222352347L230.80362499999998,144.1473424633344L230.9441875,143.56404346227646L231.647,141.66565489768982L231.928125,145.15618832906088L232.490375,142.44169694185257L232.63093750000002,145.79159271717072L232.77149999999997,142.04249582688016L233.33374999999998,144.84203211466473L233.61487499999998,145.28182150920233L234.0365625,144.79467423756918L234.177125,144.59565979242325L234.5988125,145.75419874986014L234.739375,141.61375464995703L235.1610625,145.5635950167974L235.301625,145.63299071788788L235.72331250000002,150.15112560987473L235.86387499999998,145.87839595476788L236.0044375,143.11232668161392L236.14499999999998,147.6794312596321L236.2855625,147.90763409932455L236.42612499999998,147.8769511183103L236.5666875,145.08386206626892L236.8478125,146.58976050217947L236.988375,146.1630707184474L237.1289375,148.9099741180738L237.2695,143.2402163942655L237.4100625,147.19084801276526L237.550625,146.04696186383566L237.6911875,149.97634690999985L237.83175,145.15091331799826L237.97231250000002,145.8398004571597L238.53456250000002,142.08419771989188L238.95624999999998,143.89455221096676L239.0968125,146.19806162516278L239.237375,144.25720922152203L239.3779375,144.00957675774893L239.6590625,144.890825966994L239.799625,145.09479306141537L239.9401875,142.00032504399618L240.08075,146.83138531446457L240.2213125,137.4820729295413L240.361875,149.44474301735562L240.5024375,149.3797138532003L240.643,145.09743056694668L240.78356250000002,148.5315506855647L241.20525,150.40998212496442L241.486375,144.90377904971442L241.62693750000003,145.5772807399432L242.1891875,147.20186692476273L242.32975,145.77447823683423L242.4703125,146.71460243066153L242.7514375,145.0290898680687L242.892,147.66703498363495L243.31368750000001,147.30203352371853L243.735375,146.04658089081448L244.0165,143.8409522374471L244.57874999999999,141.09416606028876L244.7193125,146.29544419050217L244.859875,147.13188511133194L245.0004375,147.24263103803L245.422125,146.25016701221466L245.70325,146.06624495983124L245.8438125,149.6867488026619L245.984375,145.42471569776535L246.1249375,147.17458339532217L246.2655,146.39736912647885L246.546625,147.73719263076782L246.6871875,144.41522510846457L247.108875,147.98130842049918L247.2494375,144.18359351158142L247.39000000000001,146.91525799036026L247.53056249999997,147.75125932693481L247.671125,143.7246675491333L247.81168749999998,147.09062280257544L248.5145,145.40716163317364L248.65506249999999,145.68401179711026L248.795625,144.5148642063141L249.4984375,145.5672289133072L249.7795625,146.8238244652748L249.920125,149.4974345167478L250.0606875,146.76978490749997L250.20125000000002,149.50555217266083L250.482375,147.25054355462393L250.62293749999998,146.42690918842953L250.7635,146.48513944943747L250.90406249999998,145.52749049663544L251.044625,148.34232431650162L251.18518749999998,149.4485820531845L251.32575,144.88769026597342L251.606875,147.75269530216855L251.888,147.5795870224635L252.0285625,148.13765388727188L252.169125,148.00352207819623L252.45025,145.6640253663063L252.5908125,143.61011189222336L252.8719375,148.46734207868576L253.1530625,144.88534581661224L253.29362500000002,146.8837544520696" style="fill: none;" fill="none"></path></g></g></g></g></g></g><g transform="translate(48, 177)" clip-path="url(#clip_1)"><clipPath id="clip_1"><rect width="281" height="23"></rect></clipPath><g><g><line x1="0" y1="0" x2="0" y2="5" style="visibility: inherit;" fill="rgb(0, 0, 0)" stroke="rgb(204, 204, 204)" stroke-width="1px"></line><line x1="28.1125" y1="0" x2="28.1125" y2="5" style="visibility: inherit;" fill="rgb(0, 0, 0)" stroke="rgb(204, 204, 204)" stroke-width="1px"></line><line x1="56.225" y1="0" x2="56.225" y2="5" style="visibility: inherit;" fill="rgb(0, 0, 0)" stroke="rgb(204, 204, 204)" stroke-width="1px"></line><line x1="84.33749999999999" y1="0" x2="84.33749999999999" y2="5" style="visibility: inherit;" fill="rgb(0, 0, 0)" stroke="rgb(204, 204, 204)" stroke-width="1px"></line><line x1="112.45" y1="0" x2="112.45" y2="5" style="visibility: inherit;" fill="rgb(0, 0, 0)" stroke="rgb(204, 204, 204)" stroke-width="1px"></line><line x1="140.5625" y1="0" x2="140.5625" y2="5" style="visibility: inherit;" fill="rgb(0, 0, 0)" stroke="rgb(204, 204, 204)" stroke-width="1px"></line><line x1="168.67499999999998" y1="0" x2="168.67499999999998" y2="5" style="visibility: inherit;" fill="rgb(0, 0, 0)" stroke="rgb(204, 204, 204)" stroke-width="1px"></line><line x1="196.7875" y1="0" x2="196.7875" y2="5" style="visibility: inherit;" fill="rgb(0, 0, 0)" stroke="rgb(204, 204, 204)" stroke-width="1px"></line><line x1="224.9" y1="0" x2="224.9" y2="5" style="visibility: inherit;" fill="rgb(0, 0, 0)" stroke="rgb(204, 204, 204)" stroke-width="1px"></line><line x1="253.01250000000002" y1="0" x2="253.01250000000002" y2="5" style="visibility: inherit;" fill="rgb(0, 0, 0)" stroke="rgb(204, 204, 204)" stroke-width="1px"></line><line x1="281.125" y1="0" x2="281.125" y2="5" style="visibility: inherit;" fill="rgb(0, 0, 0)" stroke="rgb(204, 204, 204)" stroke-width="1px"></line></g><g transform="translate(0, 8)"><text x="0" y="0" dx="0em" dy="0.95em" style="text-anchor: middle; visibility: hidden; font-family: &quot;Helvetica Neue&quot;, sans-serif; font-size: 12px; font-weight: 200;" fill="rgb(50, 49, 63)" stroke="none" stroke-width="1px">-200</text><text x="28.1125" y="0" dx="0em" dy="0.95em" style="text-anchor: middle; visibility: inherit; font-family: &quot;Helvetica Neue&quot;, sans-serif; font-size: 12px; font-weight: 200;" fill="rgb(50, 49, 63)" stroke="none" stroke-width="1px">0</text><text x="56.225" y="0" dx="0em" dy="0.95em" style="text-anchor: middle; visibility: inherit; font-family: &quot;Helvetica Neue&quot;, sans-serif; font-size: 12px; font-weight: 200;" fill="rgb(50, 49, 63)" stroke="none" stroke-width="1px">200</text><text x="84.33749999999999" y="0" dx="0em" dy="0.95em" style="text-anchor: middle; visibility: inherit; font-family: &quot;Helvetica Neue&quot;, sans-serif; font-size: 12px; font-weight: 200;" fill="rgb(50, 49, 63)" stroke="none" stroke-width="1px">400</text><text x="112.45" y="0" dx="0em" dy="0.95em" style="text-anchor: middle; visibility: inherit; font-family: &quot;Helvetica Neue&quot;, sans-serif; font-size: 12px; font-weight: 200;" fill="rgb(50, 49, 63)" stroke="none" stroke-width="1px">600</text><text x="140.5625" y="0" dx="0em" dy="0.95em" style="text-anchor: middle; visibility: inherit; font-family: &quot;Helvetica Neue&quot;, sans-serif; font-size: 12px; font-weight: 200;" fill="rgb(50, 49, 63)" stroke="none" stroke-width="1px">800</text><text x="168.67499999999998" y="0" dx="0em" dy="0.95em" style="text-anchor: middle; visibility: inherit; font-family: &quot;Helvetica Neue&quot;, sans-serif; font-size: 12px; font-weight: 200;" fill="rgb(50, 49, 63)" stroke="none" stroke-width="1px">1k</text><text x="196.7875" y="0" dx="0em" dy="0.95em" style="text-anchor: middle; visibility: inherit; font-family: &quot;Helvetica Neue&quot;, sans-serif; font-size: 12px; font-weight: 200;" fill="rgb(50, 49, 63)" stroke="none" stroke-width="1px">1.2k</text><text x="224.9" y="0" dx="0em" dy="0.95em" style="text-anchor: middle; visibility: inherit; font-family: &quot;Helvetica Neue&quot;, sans-serif; font-size: 12px; font-weight: 200;" fill="rgb(50, 49, 63)" stroke="none" stroke-width="1px">1.4k</text><text x="253.01250000000002" y="0" dx="0em" dy="0.95em" style="text-anchor: middle; visibility: inherit; font-family: &quot;Helvetica Neue&quot;, sans-serif; font-size: 12px; font-weight: 200;" fill="rgb(50, 49, 63)" stroke="none" stroke-width="1px">1.6k</text><text x="281.125" y="0" dx="0em" dy="0.95em" style="text-anchor: middle; visibility: hidden; font-family: &quot;Helvetica Neue&quot;, sans-serif; font-size: 12px; font-weight: 200;" fill="rgb(50, 49, 63)" stroke="none" stroke-width="1px">1.8k</text></g><line x1="0" y1="0" x2="281.125" y2="0" fill="rgb(0, 0, 0)" stroke="rgb(204, 204, 204)" stroke-width="1px"></line></g></g></g></g></svg>