<svg viewBox="0 0 330 200" xmlns="http://www.w3.org/2000/svg"><g><g><g><g><g><line x1="29.4375" y1="177" x2="24.4375" y2="177" style="visibility: inherit;" fill="rgb(0, 0, 0)" stroke="rgb(204, 204, 204)" stroke-width="1px"></line><line x1="29.4375" y1="160.9090909090909" x2="24.4375" y2="160.9090909090909" style="visibility: inherit;" fill="rgb(0, 0, 0)" stroke="rgb(204, 204, 204)" stroke-width="1px"></line><line x1="29.4375" y1="144.8181818181818" x2="24.4375" y2="144.8181818181818" style="visibility: inherit;" fill="rgb(0, 0, 0)" stroke="rgb(204, 204, 204)" stroke-width="1px"></line><line x1="29.4375" y1="128.72727272727275" x2="24.4375" y2="128.72727272727275" style="visibility: inherit;" fill="rgb(0, 0, 0)" stroke="rgb(204, 204, 204)" stroke-width="1px"></line><line x1="29.4375" y1="112.63636363636364" x2="24.4375" y2="112.63636363636364" style="visibility: inherit;" fill="rgb(0, 0, 0)" stroke="rgb(204, 204, 204)" stroke-width="1px"></line><line x1="29.4375" y1="96.54545454545455" x2="24.4375" y2="96.54545454545455" style="visibility: inherit;" fill="rgb(0, 0, 0)" stroke="rgb(204, 204, 204)" stroke-width="1px"></line><line x1="29.4375" y1="80.45454545454547" x2="24.4375" y2="80.45454545454547" style="visibility: inherit;" fill="rgb(0, 0, 0)" stroke="rgb(204, 204, 204)" stroke-width="1px"></line><line x1="29.4375" y1="64.36363636363636" x2="24.4375" y2="64.36363636363636" style="visibility: inherit;" fill="rgb(0, 0, 0)" stroke="rgb(204, 204, 204)" stroke-width="1px"></line><line x1="29.4375" y1="48.27272727272728" x2="24.4375" y2="48.27272727272728" style="visibility: inherit;" fill="rgb(0, 0, 0)" stroke="rgb(204, 204, 204)" stroke-width="1px"></line><line x1="29.4375" y1="32.18181818181819" x2="24.4375" y2="32.18181818181819" style="visibility: inherit;" fill="rgb(0, 0, 0)" stroke="rgb(204, 204, 204)" stroke-width="1px"></line><line x1="29.4375" y1="16.090909090909093" x2="24.4375" y2="16.090909090909093" style="visibility: inherit;" fill="rgb(0, 0, 0)" stroke="rgb(204, 204, 204)" stroke-width="1px"></line><line x1="29.4375" y1="0" x2="24.4375" y2="0" style="visibility: inherit;" fill="rgb(0, 0, 0)" stroke="rgb(204, 204, 204)" stroke-width="1px"></line></g><g transform="translate(19.4375, 0)"><text x="0" y="177" dx="0em" dy="0.3em" style="text-anchor: end; visibility: hidden; font-family: &quot;Helvetica Neue&quot;, sans-serif; font-size: 12px; font-weight: 200;" fill="rgb(50, 49, 63)" stroke="none" stroke-width="1px">35</text><text x="0" y="160.9090909090909" dx="0em" dy="0.3em" style="text-anchor: end; visibility: inherit; font-family: &quot;Helvetica Neue&quot;, sans-serif; font-size: 12px; font-weight: 200;" fill="rgb(50, 49, 63)" stroke="none" stroke-width="1px">40</text><text x="0" y="144.8181818181818" dx="0em" dy="0.3em" style="text-anchor: end; visibility: hidden; font-family: &quot;Helvetica Neue&quot;, sans-serif; font-size: 12px; font-weight: 200;" fill="rgb(50, 49, 63)" stroke="none" stroke-width="1px">45</text><text x="0" y="128.72727272727275" dx="0em" dy="0.3em" style="text-anchor: end; visibility: inherit; font-family: &quot;Helvetica Neue&quot;, sans-serif; font-size: 12px; font-weight: 200;" fill="rgb(50, 49, 63)" stroke="none" stroke-width="1px">50</text><text x="0" y="112.63636363636364" dx="0em" dy="0.3em" style="text-anchor: end; visibility: hidden; font-family: &quot;Helvetica Neue&quot;, sans-serif; font-size: 12px; font-weight: 200;" fill="rgb(50, 49, 63)" stroke="none" stroke-width="1px">55</text><text x="0" y="96.54545454545455" dx="0em" dy="0.3em" style="text-anchor: end; visibility: inherit; font-family: &quot;Helvetica Neue&quot;, sans-serif; font-size: 12px; font-weight: 200;" fill="rgb(50, 49, 63)" stroke="none" stroke-width="1px">60</text><text x="0" y="80.45454545454547" dx="0em" dy="0.3em" style="text-anchor: end; visibility: hidden; font-family: &quot;Helvetica Neue&quot;, sans-serif; font-size: 12px; font-weight: 200;" fill="rgb(50, 49, 63)" stroke="none" stroke-width="1px">65</text><text x="0" y="64.36363636363636" dx="0em" dy="0.3em" style="text-anchor: end; visibility: inherit; font-family: &quot;Helvetica Neue&quot;, sans-serif; font-size: 12px; font-weight: 200;" fill="rgb(50, 49, 63)" stroke="none" stroke-width="1px">70</text><text x="0" y="48.27272727272728" dx="0em" dy="0.3em" style="text-anchor: end; visibility: hidden; font-family: &quot;Helvetica Neue&quot;, sans-serif; font-size: 12px; font-weight: 200;" fill="rgb(50, 49, 63)" stroke="none" stroke-width="1px">75</text><text x="0" y="32.18181818181819" dx="0em" dy="0.3em" style="text-anchor: end; visibility: inherit; font-family: &quot;Helvetica Neue&quot;, sans-serif; font-size: 12px; font-weight: 200;" fill="rgb(50, 49, 63)" stroke="none" stroke-width="1px">80</text><text x="0" y="16.090909090909093" dx="0em" dy="0.3em" style="text-anchor: end; visibility: hidden; font-family: &quot;Helvetica Neue&quot;, sans-serif; font-size: 12px; font-weight: 200;" fill="rgb(50, 49, 63)" stroke="none" stroke-width="1px">85</text><text x="0" y="0" dx="0em" dy="0.3em" style="text-anchor: end; visibility: hidden; font-family: &quot;Helvetica Neue&quot;, sans-serif; font-size: 12px; font-weight: 200;" fill="rgb(50, 49, 63)" stroke="none" stroke-width="1px">90</text></g><line x1="29.4375" y1="0" x2="29.4375" y2="177" fill="rgb(0, 0, 0)" stroke="rgb(204, 204, 204)" stroke-width="1px"></line></g></g><g transform="translate(29, 0)" clip-path="url(#clip_0)"><clipPath id="clip_0"><rect width="300" height="177"></rect></clipPath><g><g><g><line x1="0" y1="0" x2="0" y2="177" fill="rgb(0, 0, 0)" stroke="rgb(60, 60, 60)" stroke-width="1px" opacity="0.25"></line><line x1="33.39583333333333" y1="0" x2="33.39583333333333" y2="177" fill="rgb(0, 0, 0)" stroke="rgb(60, 60, 60)" stroke-width="1px" opacity="0.25"></line><line x1="66.79166666666666" y1="0" x2="66.79166666666666" y2="177" fill="rgb(0, 0, 0)" stroke="rgb(60, 60, 60)" stroke-width="1px" opacity="0.25"></line><line x1="100.1875" y1="0" x2="100.1875" y2="177" fill="rgb(0, 0, 0)" stroke="rgb(60, 60, 60)" stroke-width="1px" opacity="0.25"></line><line x1="133.58333333333331" y1="0" x2="133.58333333333331" y2="177" fill="rgb(0, 0, 0)" stroke="rgb(60, 60, 60)" stroke-width="1px" opacity="0.25"></line><line x1="166.97916666666669" y1="0" x2="166.97916666666669" y2="177" fill="rgb(0, 0, 0)" stroke="rgb(60, 60, 60)" stroke-width="1px" opacity="0.25"></line><line x1="200.375" y1="0" x2="200.375" y2="177" fill="rgb(0, 0, 0)" stroke="rgb(60, 60, 60)" stroke-width="1px" opacity="0.25"></line><line x1="233.77083333333334" y1="0" x2="233.77083333333334" y2="177" fill="rgb(0, 0, 0)" stroke="rgb(60, 60, 60)" stroke-width="1px" opacity="0.25"></line><line x1="267.16666666666663" y1="0" x2="267.16666666666663" y2="177" fill="rgb(0, 0, 0)" stroke="rgb(60, 60, 60)" stroke-width="1px" opacity="0.25"></line><line x1="300.5625" y1="0" x2="300.5625" y2="177" fill="rgb(0, 0, 0)" stroke="rgb(60, 60, 60)" stroke-width="1px" opacity="0.25"></line></g><g><line x1="0" y1="177" x2="300.5625" y2="177" fill="rgb(0, 0, 0)" stroke="rgb(60, 60, 60)" stroke-width="1px" opacity="0.25"></line><line x1="0" y1="160.9090909090909" x2="300.5625" y2="160.9090909090909" fill="rgb(0, 0, 0)" stroke="rgb(60, 60, 60)" stroke-width="1px" opacity="0.25"></line><line x1="0" y1="144.8181818181818" x2="300.5625" y2="144.8181818181818" fill="rgb(0, 0, 0)" stroke="rgb(60, 60, 60)" stroke-width="1px" opacity="0.25"></line><line x1="0" y1="128.72727272727275" x2="300.5625" y2="128.72727272727275" fill="rgb(0, 0, 0)" stroke="rgb(60, 60, 60)" stroke-width="1px" opacity="0.25"></line><line x1="0" y1="112.63636363636364" x2="300.5625" y2="112.63636363636364" fill="rgb(0, 0, 0)" stroke="rgb(60, 60, 60)" stroke-width="1px" opacity="0.25"></line><line x1="0" y1="96.54545454545455" x2="300.5625" y2="96.54545454545455" fill="rgb(0, 0, 0)" stroke="rgb(60, 60, 60)" stroke-width="1px" opacity="0.25"></line><line x1="0" y1="80.45454545454547" x2="300.5625" y2="80.45454545454547" fill="rgb(0, 0, 0)" stroke="rgb(60, 60, 60)" stroke-width="1px" opacity="0.25"></line><line x1="0" y1="64.36363636363636" x2="300.5625" y2="64.36363636363636" fill="rgb(0, 0, 0)" stroke="rgb(60, 60, 60)" stroke-width="1px" opacity="0.25"></line><line x1="0" y1="48.27272727272728" x2="300.5625" y2="48.27272727272728" fill="rgb(0, 0, 0)" stroke="rgb(60, 60, 60)" stroke-width="1px" opacity="0.25"></line><line x1="0" y1="32.18181818181819" x2="300.5625" y2="32.18181818181819" fill="rgb(0, 0, 0)" stroke="rgb(60, 60, 60)" stroke-width="1px" opacity="0.25"></line><line x1="0" y1="16.090909090909093" x2="300.5625" y2="16.090909090909093" fill="rgb(0, 0, 0)" stroke="rgb(60, 60, 60)" stroke-width="1px" opacity="0.25"></line><line x1="0" y1="0" x2="300.5625" y2="0" fill="rgb(0, 0, 0)" stroke="rgb(60, 60, 60)" stroke-width="1px" opacity="0.25"></line></g></g></g><g><g><line x1="0" y1="289.6363636363636" x2="300.5625" y2="289.6363636363636" fill="rgb(0, 0, 0)" stroke="rgb(153, 153, 153)" stroke-width="1.5px"></line></g></g><g><g><line x1="33.39583333333333" y1="0" x2="33.39583333333333" y2="177" fill="rgb(0, 0, 0)" stroke="rgb(153, 153, 153)" stroke-width="1.5px"></line></g></g><g><g><g><g><g><path stroke="rgb(204, 51, 17)" stroke-width="2px" d="M36.735416666666666,194.66781744523482L40.075,170.37054103504528L43.414583333333326,170.8532732183283L46.75416666666667,168.27873021906072L50.09375,150.16036314530805L53.43333333333334,146.20200098211114L56.77291666666667,150.99708501642402L60.112500000000004,137.67381425337356L63.452083333333334,117.07745798284358L66.79166666666666,101.11526683460582L70.13125,86.66563734574751L73.47083333333333,101.53363390835848L76.81041666666665,98.21891056407581L80.15,95.06509385542437L83.48958333333334,67.74273709383878L86.82916666666665,80.39019262140447L90.16875,86.8587326743386L93.50833333333334,86.27945896495473L96.84791666666668,92.13654889193448L100.1875,88.1459980357777L103.52708333333334,81.32344374223189L106.86666666666667,72.24817199707032L110.20625,69.25526192405007L113.54583333333333,81.38782112815163L116.88541666666667,57.734189675071036L120.22500000000001,71.34708501642402L123.56458333333333,67.61400687477806L126.90416666666667,52.7459980357777L130.24375,63.140736111727634L133.58333333333331,55.38490614457564L136.92291666666665,68.51509385542435L140.2625,53.808003928444606L143.60208333333335,59.53636363636363L146.94166666666666,59.76163538152521L150.28125,65.65091400146484L153.6208333333333,54.48381916392934L156.96041666666667,56.092910073020235L160.3,54.83782112815163L163.63958333333332,58.79617101495917L166.97916666666669,58.345627524636015L170.31875,62.336190657182186L173.6583333333333,53.679273709383864L176.99791666666667,58.21689730557529L180.3375,49.206002946333456L183.67708333333334,52.424184764515275L187.01666666666668,46.95326094193891L190.35625,43.606373457475144L193.69583333333335,60.27655625776811L197.03541666666666,69.44836952903054L200.375,31.280731201171875L201.04291666666666,39.293997053666544L201.71083333333334,40.098542508212006L202.37875,39.58364618474786L203.04666666666668,45.24762850674716L203.71458333333334,66.32672923694957L204.38250000000002,51.6839921431108L205.05041666666665,34.04836952903054L205.71833333333333,41.61109189120205L206.38625,44.475271745161564L207.05416666666667,38.65037051114169L207.72208333333333,51.587450617009935L208.39000000000001,60.308720397949216L209.05791666666667,39.551457491788L209.72583333333336,39.61581032492899L210.39374999999998,45.69817199707032L211.06166666666667,38.811264870383525L211.72958333333332,54.773443742231876L212.3975,50.39673905806107L213.06541666666666,44.86146240234376L213.73333333333335,30.63708010586825L214.40125,36.88036069003019L215.06916666666666,42.15817690762606L215.73708333333332,44.507460438121456L216.405,40.002000982111156L217.07291666666666,45.73036069003018L217.74083333333334,38.425098765980124L218.40875,39.519268798828136L219.07666666666668,53.19654152610086L219.74458333333334,49.91400687477807L220.4125,42.930533669211655L221.08041666666665,54.93436265425248L221.74833333333333,47.146368546919376L222.41625,64.78199116099965L223.08416666666668,46.11655134721235L223.75208333333333,56.15726290616121L224.42000000000002,45.79473807594994L225.08791666666667,36.751630470969474L225.75583333333333,48.497999017888844L226.42374999999998,71.3149208762429L227.09166666666667,31.21635381525212L227.75958333333332,78.78110171231357L228.4275,57.251457491788L229.09541666666667,39.06872530850498L229.76333333333335,76.43181818181817L230.43125,65.94053857976739L231.09916666666666,37.0090909090909L231.76708333333332,43.15582996715199L232.435,61.17764323841442L233.10291666666666,39.32618574662641L233.77083333333334,35.17472825483841L234.43875,37.5883646184748L235.10666666666668,57.991625560413695L235.77458333333334,44.21781130704014L236.4425,40.677816217595876L237.11041666666665,50.58982211026279L237.77833333333334,42.930533669211655L238.44625,37.942366582697076L239.11416666666668,40.677816217595876L239.78208333333333,45.44073611172763L240.45000000000002,69.35182800292968L241.11791666666664,84.15545945601029L241.78583333333333,50.203631453080604L242.45374999999999,52.778186728737566L243.12166666666667,41.32144276012073L243.78958333333333,49.688735129616475L244.4575,31.92435774369673L245.12541666666667,42.99491105513138L245.79333333333335,50.39673905806107L246.46124999999998,37.29871548739348L247.12916666666666,57.44454054398969L247.79708333333332,50.622010803222665L248.465,45.50508894486862L249.13291666666666,55.64236658269708L249.80083333333334,32.76109189120206L250.46875,28.770553311434668L251.13666666666668,34.016180836070674L251.8045833333333,35.65746043812146L252.4725,52.16672432639382L253.14041666666665,50.0105484008789L253.80833333333334,33.17944668856535L254.47625,47.37164029208097L255.14416666666668,30.991082070090556L255.81208333333333,46.63144767067649L256.48,42.96272236217152L257.1479166666667,62.014352833140975L257.81583333333333,53.96889828768643L258.48375,51.329990178888494L259.15166666666664,45.15108698064631L259.81958333333336,58.08819163929333L260.4875,38.618181818181824L261.15541666666667,42.96272236217152L261.8233333333333,44.18564716685901L262.49125,60.759263888272386L263.15916666666664,68.74036560058595L263.82708333333335,54.61254938299005L264.495,39.58364618474786L265.16291666666666,39.84108207009055L265.8308333333333,40.42035577947442L266.49875000000003,74.91926879882813L267.16666666666663,71.15400196422229L267.83458333333334,59.375444724343026L268.5025,56.99399705366656L269.17041666666665,32.5036314530806L269.8383333333333,45.82690221613103L270.50625,72.4734437422319L271.1741666666667,39.77672923694956L271.84208333333333,49.592193603515625L272.51,37.942366582697076L273.17791666666665,65.32910073020241L273.8458333333333,39.64799901788885L274.51375,58.76400687477805L275.1816666666667,68.54728254838423L275.8495833333333,44.31435283314099L276.5175,48.111808360706675L277.1854166666667,55.320553311434665L277.8533333333333,55.063092873313224L278.52125,44.53962457830255L279.18916666666667,42.57655625776812L279.8570833333333,70.25291498357599L280.525,50.33236167214133L281.1929166666667,56.73653661554509L281.86083333333335,42.80182800292968L282.52875,50.75071646950461L283.19666666666666,53.936734147505334L283.8645833333333,58.95708992697976L284.53249999999997,50.815093855424365L285.2004166666667,76.85017297918145L285.86833333333334,51.78053366921165L286.53625,41.03181818181818L287.2041666666667,54.74127960205078L287.8720833333333,36.68727763782849L288.53999999999996,30.669268798828114L289.2079166666667,36.78381916392934L289.87583333333333,51.94145258123224L290.54375,59.11800883900037L291.2116666666667,103.75418721979315" style="fill: none;" fill="none"></path></g><g><path stroke="rgb(0, 153, 136)" stroke-width="2px" d="M36.735416666666666,192.83304353193805L40.075,159.77447017322888L43.414583333333326,161.27010269165038L46.75416666666667,150.1624746842818L50.09375,143.96721933538265L53.43333333333334,139.56414496681907L56.77291666666667,123.25404094349254L60.112500000000004,128.36626094471325L63.452083333333334,117.40690716830167L66.79166666666666,95.01113912409002L70.13125,83.07189622358842L73.47083333333333,89.12532244595614L76.81041666666665,83.18149982799183L80.15,72.35750552090731L83.48958333333334,67.01965775923296L86.82916666666665,62.345815346457755L90.16875,56.94994936856355L93.50833333333334,63.06140608354049L96.84791666666668,66.4394755970348L100.1875,63.441753179376775L103.52708333333334,55.183573358709154L106.86666666666667,65.61428125554865L110.20625,58.1103627985174L113.54583333333333,61.72050517689098L116.88541666666667,48.19536146684126L120.22500000000001,57.194936995072794L123.56458333333333,47.118771223588425L126.90416666666667,57.182046786221605L130.24375,48.343635697798305L133.58333333333331,37.358501503684295L136.92291666666665,33.89017597545276L140.2625,41.88406968550248L143.60208333333335,43.3925924127752L146.94166666666666,50.1744873046875L150.28125,47.74410594593394L153.6208333333333,42.79306266091086L156.96041666666667,37.17798947420988L160.3,41.8324842973189L163.63958333333332,40.124126503684295L166.97916666666669,45.57157786976208L170.31875,35.75972276167437L173.6583333333333,36.45596590909091L176.99791666666667,34.528400906649495L180.3375,35.20532101717862L183.67708333333334,36.17876503684303L187.01666666666668,26.586092584783387L190.35625,24.987313842773432L193.69583333333335,31.530703041770238L197.03541666666666,27.38548195578835L200.375,31.524245660955245L201.04291666666666,24.20727206143465L201.71083333333334,27.843194857510667L202.37875,27.572451366077757L203.04666666666668,27.00513485995205L203.71458333333334,23.485248496315705L204.38250000000002,34.34791342995385L205.05041666666665,29.280809159712362L205.71833333333333,27.437067343971933L206.38625,21.763975941051143L207.05416666666667,27.063153076171886L207.72208333333333,25.806050803444606L208.39000000000001,32.336549793590194L209.05791666666667,31.492032415216613L209.72583333333336,24.297528076171886L210.39374999999998,23.453010697798305L211.06166666666667,21.228921786221605L211.72958333333332,27.13406150124291L212.3975,24.43291209827771L213.06541666666666,33.85150534889914L213.73333333333335,26.250873496315705L214.40125,31.814361294833105L215.06916666666666,30.099546120383536L215.73708333333332,29.712741643732244L216.405,23.259608459472645L217.07291666666666,31.556483459472645L217.74083333333334,30.518563842773432L218.40875,29.029388705166895L219.07666666666668,26.86331800981L219.74458333333334,26.173507690429688L220.4125,30.982734125310714L221.08041666666665,35.75972276167437L221.74833333333333,38.312597933682525L222.41625,28.38473094593394L223.08416666666668,29.13253492875532L223.75208333333333,29.300156749378544L224.42000000000002,33.6645604913885L225.08791666666667,26.025233459472645L225.75583333333333,31.827251503684295L226.42374999999998,30.396094582297593L227.09166666666667,31.775666115500712L227.75958333333332,23.34986447420988L228.4275,23.55615692138673L229.09541666666667,23.38210227272728L229.76333333333335,31.64673947420988L230.43125,38.009616643732244L231.09916666666666,27.06961045698685L231.76708333333332,26.360477100719095L232.435,21.963835560191768L233.10291666666666,23.710888533158737L233.77083333333334,29.37106517444957L234.43875,28.919809653542245L235.10666666666668,22.382877835360432L235.77458333333334,29.080974093350505L236.4425,23.646412936123937L237.11041666666665,23.659303144975155L237.77833333333334,29.89968650124291L238.44625,28.597456221147013L239.11416666666668,19.12084475430575L239.78208333333333,19.63014304421165L240.45000000000002,26.97289706143465L241.11791666666664,20.706733287464488L241.78583333333333,27.79806685014205L242.45374999999999,32.02708657004615L243.12166666666667,23.008188004927206L243.78958333333333,25.457941506125707L244.4575,22.46021908846768L245.12541666666667,23.504596085981888L245.79333333333335,20.58423947420988L246.46124999999998,25.7802703857422L247.12916666666666,23.852705383300787L247.79708333333332,26.154184653542245L248.465,29.809430486505676L249.13291666666666,23.25317563143645L249.80083333333334,24.387784090909093L250.46875,20.893678144975155L251.13666666666668,21.50612265846945L251.8045833333333,25.864069019664413L252.4725,27.03737265846945L253.14041666666665,24.43291209827771L253.80833333333334,26.373367309570312L254.47625,24.362003673206686L255.14416666666668,21.53836045698685L255.81208333333333,21.022629339044755L256.48,22.61495070023969L257.1479166666667,28.474986960671174L257.81583333333333,24.942210388183582L258.48375,25.825398393110788L259.15166666666664,25.361228110573506L259.81958333333336,30.956953707608307L260.4875,37.93870821866122L261.15541666666667,21.899359963156968L261.8233333333333,30.795789267800075L262.49125,25.251649058948857L263.15916666666664,32.49125685258346L263.82708333333335,34.12870622114701L264.495,36.71384374445134L265.16291666666666,33.20039020885122L265.8308333333333,32.66531150124291L266.49875000000003,30.85380748401988L267.16666666666663,28.887571855024845L267.83458333333334,34.92166276411578L268.5025,26.90844601717862L269.17041666666665,28.4814197887074L269.8383333333333,33.68388352827591L270.50625,34.21896223588422L271.1741666666667,27.19207971746272L271.84208333333333,26.457165943492555L272.51,40.31107136119496L273.17791666666665,28.191328707608307L273.8458333333333,25.503069513494324L274.51375,34.65089471990413L275.1816666666667,30.157564336603343L275.8495833333333,29.190553144975155L276.5175,38.428658918900936L277.1854166666667,33.5356092973189L277.8533333333333,31.85303192138673L278.52125,37.97094601717862L279.18916666666667,28.152633528275913L279.8570833333333,32.897408918900936L280.525,37.087733459472645L281.1929166666667,29.32593716708098L281.86083333333335,31.846599093350505L282.52875,33.98688937100496L283.19666666666666,26.7666046142578L283.8645833333333,33.432463073730474L284.53249999999997,40.03387048894709L285.2004166666667,29.461321189186776L285.86833333333334,24.155711226029837L286.53625,39.11198730468749L287.2041666666667,28.56524297540838L287.8720833333333,33.82572493119673L288.53999999999996,21.39651905406606L289.2079166666667,25.883416609330624L289.87583333333333,23.814034756747162L290.54375,25.438593916459524L291.2116666666667,37.8613424127752" style="fill: none;" fill="none"></path></g><g><path stroke="rgb(0, 119, 187)" stroke-width="2px" d="M38.071250000000006,177.51490859985353L38.73916666666666,176.1310894359242L39.40708333333334,168.31090663563123L40.075,160.9090909090909L40.74291666666667,157.62654398137872L41.410833333333336,148.4869071266868L42.07875000000001,153.08890810879794L42.74666666666667,147.81109189120207L43.414583333333326,163.03309041803533L44.0825,147.26399459838868L44.750416666666666,149.3236412741921L45.41833333333334,152.63836461847478L46.08625,149.3236412741921L46.75416666666667,151.0292737093839L47.42208333333333,140.60235921686348L48.09,142.6620058926669L48.75791666666667,144.62508648959073L49.42583333333334,143.88490614457564L50.09375,144.1101778897372L50.76166666666667,140.44145258123223L51.42958333333333,152.92800147316672L52.097500000000004,149.87072629061612L52.76541666666667,144.8181818181818L53.43333333333334,140.28054594560103L54.10125,139.12199852683327L54.76916666666667,125.41254938299005L55.437083333333334,128.34109434647993L56.105000000000004,127.76182063709606L56.77291666666667,124.51145012595437L57.44083333333334,141.92181327126244L58.10875,131.94545454545454L58.77666666666667,123.7069046714089L59.444583333333334,132.5247282548384L60.112500000000004,127.82618574662642L60.78041666666667,117.10963439941406L61.44833333333334,110.09399705366654L62.11625,110.48018771084872L62.78416666666667,111.89618329134855L63.452083333333334,119.45890565352006L64.12,106.65054349032316L64.78791666666666,102.49908599853515L65.45583333333333,96.86726781671697L66.12375,106.61836707375267L66.79166666666666,97.06036314530806L67.45958333333333,89.91599558049982L68.1275,102.7887228532271L68.79541666666667,100.95436019897461L69.46333333333332,83.9945405439897L70.13125,84.83127469149503L70.79916666666666,87.47018280029296L71.46708333333333,80.42235676158559L72.13499999999999,83.801457491788L72.80291666666668,84.76690958196465L73.47083333333333,91.5572751825506L74.13875,78.10526192405007L74.80666666666666,80.77635872580788L75.47458333333334,70.34945650967684L76.14250000000001,76.68927861993964L76.81041666666665,85.63582014604049L77.47833333333332,74.7583744395863L78.14625000000001,74.0825346513228L78.81416666666668,67.32435774369674L79.48208333333332,76.52835970791904L80.15,73.56763832785866L80.81791666666668,77.49382407448509L81.48583333333335,69.28745061700995L82.15374999999999,68.74036560058595L82.82166666666667,67.09908599853516L83.48958333333334,69.57709974809127L84.15750000000001,70.34945650967684L84.82541666666667,79.07072629061614L85.49333333333334,65.3934535633434L86.16125000000001,72.85963439941406L86.82916666666665,64.52455527565697L87.49708333333334,64.0740117853338L88.165,69.51272236217152L88.83291666666668,64.78199116099965L89.50083333333333,71.21835479736329L90.16875,59.568552329323495L90.83666666666667,60.27655625776811L91.50458333333334,62.23962457830255L92.1725,63.33381916392932L92.84041666666667,65.71526683460583L93.50833333333334,65.3934535633434L94.17625000000001,66.42327076305043L94.84416666666667,56.28599312522195L95.51208333333334,53.389624578302545L96.18,57.83073120117187L96.84791666666668,69.7379941073331L97.51583333333333,63.59127960205079L98.18375,66.8416255604137L98.85166666666667,70.12418476451528L99.51958333333334,63.623443742231885L100.1875,66.61635381525214L100.85541666666667,66.71291989413174L101.52333333333334,76.81800883900036L102.19125000000001,65.87618574662642L102.85916666666667,65.97272727272727L103.52708333333334,58.635276655717334L104.19500000000001,63.237277637828484L104.86291666666668,63.07635872580788L105.53083333333333,71.79762850674715L106.19875,71.50800392844461L106.86666666666667,67.74273709383878L107.53458333333333,73.05271745161576L108.2025,56.54345356334339L108.87041666666667,63.494738075949925L109.53833333333334,46.727989196777344L110.20625,61.53164520263671L110.87416666666667,61.01672432639383L111.54208333333334,66.8416255604137L112.21000000000001,63.17290025190873L112.87791666666666,63.55909090909091L113.54583333333333,62.43273218328302L114.21375,59.8259882146662L114.88166666666667,51.78053366921165L115.54958333333333,53.2609189120206L116.2175,52.520726290616125L116.88541666666667,51.13690712668679L117.55333333333334,55.38490614457564L118.22125,51.13690712668679L118.88916666666667,59.021442760120735L119.55708333333334,65.87618574662642L120.22500000000001,61.209807378595514L120.89291666666666,56.60780639648438L121.56083333333333,56.253828985040826L122.22875,57.991625560413695L122.89666666666668,54.1620058926669L123.56458333333333,49.431274691495034L124.2325,48.304915965687144L124.90041666666667,51.329990178888494L125.56833333333334,52.48853759765625L126.23625,45.24762850674716L126.90416666666667,60.66272236217151L127.57208333333334,55.28836461847479L128.24,51.42655625776811L128.90791666666667,46.95326094193891L129.57583333333332,47.339451599121105L130.24375,52.48853759765625L130.91166666666666,45.762549382990045L131.57958333333332,41.67544472434304L132.2475,39.26180836070668L132.91541666666666,42.60872039794921L133.58333333333331,39.77672923694956L134.25125,36.10800392844459L134.91916666666665,39.77672923694956L135.58708333333334,44.92581523548472L136.255,52.07018280029297L136.92291666666665,36.78381916392934L137.59083333333334,48.304915965687144L138.25875,46.2130928733132L138.92666666666665,51.844911055131405L139.59458333333333,42.80182800292968L140.2625,46.9854496348988L140.93041666666667,55.54582505659623L141.59833333333333,45.53727763782848L142.26624999999999,45.60163047096947L142.93416666666667,46.59928353049537L143.60208333333335,47.049827020818526L144.26999999999998,55.063092873313224L144.93791666666667,49.141625560413715L145.60583333333335,51.587450617009935L146.27375,43.25237149325284L146.94166666666666,54.90217396129262L147.60958333333332,49.23819163929332L148.2775,56.83310269442471L148.9454166666667,50.9116353815252L149.61333333333332,45.762549382990045L150.28125,52.16672432639382L150.94916666666668,47.50037051114168L151.61708333333334,45.11889828768645L152.28500000000003,42.67309778386897L152.95291666666665,52.778186728737566L153.6208333333333,47.339451599121105L154.28875,58.249085998535165L154.95666666666665,61.95L155.62458333333333,45.762549382990045L156.29250000000002,43.38110171231355L156.96041666666667,41.22490123401988L157.62833333333336,41.12835970791903L158.29625,51.00817690762605L158.96416666666664,35.94708501642401L159.63208333333333,48.91635381525214L160.3,45.762549382990045L160.96791666666667,50.33236167214133L161.63583333333335,47.59691203724253L162.30375,55.64236658269708L162.9716666666667,52.359807378595534L163.63958333333332,42.96272236217152L164.30749999999998,40.99962948885832L164.97541666666666,45.98782112815164L165.64333333333335,44.53962457830255L166.31125,51.10471843372693L166.97916666666669,48.78764814897016L167.64708333333334,46.59928353049537L168.31500000000003,48.24053857976739L168.98291666666665,43.220182800292974L169.65083333333334,42.833992143110805L170.31875,39.905459456010306L170.98666666666668,40.388191639293325L171.65458333333333,40.93527665571733L172.32250000000002,37.07344374223189L172.99041666666668,33.2759882146662L173.6583333333333,41.09617101495917L174.32625,33.147282548384226L174.99416666666667,37.52401178533381L175.66208333333333,36.558547418767745L176.33,41.28927861993964L176.99791666666667,38.39291007302023L177.66583333333335,45.21546436656604L178.33375,38.425098765980124L179.00166666666667,36.68727763782849L179.66958333333332,31.763463384454894L180.3375,39.197455527565694L181.00541666666666,33.98399214311078L181.67333333333335,39.58364618474786L182.34125,38.521640292080974L183.0091666666667,31.795627524636018L183.67708333333334,39.84108207009055L184.345,38.10326094193891L185.01291666666665,32.98636363636365L185.68083333333334,38.038908108797926L186.34875,35.271269780939264L187.01666666666668,29.381991160999632L187.68458333333334,28.99582505659623L188.35250000000002,33.88745061700993L189.02041666666668,45.50508894486862L189.68833333333333,32.82544472434304L190.35625,28.126902216131043L191.02416666666667,45.183275673606175L191.69208333333333,35.46435283314099L192.36,34.08053366921166L193.02791666666667,38.00671941583806L193.69583333333335,35.43218869295987L194.36374999999998,37.42744570645419L195.03166666666667,32.60017297918145L195.69958333333332,33.37255429354582L196.3675,28.706175925514913L197.03541666666666,31.05545945601031L197.70333333333335,32.21400687477805L198.37125,35.91492087624289L199.0391666666667,28.320009821111512L199.70708333333332,32.88982211026277L200.375,35.33564716685902L200.70895833333333,28.159090909090907L201.04291666666666,27.483275673606187L201.376875,26.678730219060725L201.71083333333334,31.345084034312862L202.0447916666667,27.6120058926669L202.37875,31.92435774369673L202.71270833333332,27.547628506747145L203.04666666666668,30.5405385797674L203.38062499999998,40.581274691495025L203.71458333333334,26.64654152610086L204.04854166666667,33.01855232932351L204.38250000000002,38.84345356334339L204.71645833333332,32.1174653486772L205.05041666666665,32.98636363636365L205.384375,29.639451599121088L205.71833333333333,30.991082070090556L206.05229166666666,33.95182800292969L206.38625,25.198369529030543L206.72020833333335,34.33799410733309L207.05416666666667,30.3474555275657L207.38812499999997,33.533448652787655L207.72208333333333,28.867094837535518L208.05604166666666,33.88745061700993L208.39000000000001,34.75637345747515L208.72395833333331,33.05071646950461L209.05791666666667,35.94708501642401L209.391875,28.706175925514913L209.72583333333336,27.644170032848024L210.05979166666665,27.22581523548473L210.39374999999998,26.163809342817814L210.72770833333334,30.154372475364L211.06166666666667,24.232905162464476L211.39562500000002,28.19127960205077L211.72958333333332,30.476185746626413L212.06354166666668,32.95417494340376L212.3975,27.12927370938388L212.7314583333333,35.882732183283025L213.06541666666666,38.93999508944424L213.399375,28.706175925514913L213.73333333333335,28.545281566273076L214.06729166666665,32.3105484008789L214.40125,35.882732183283025L214.73520833333333,35.206916947798305L215.06916666666666,32.95417494340376L215.403125,37.68490614457565L215.73708333333332,34.37018280029298L216.07104166666667,24.329446688565355L216.405,25.198369529030543L216.73895833333336,30.411808360706686L217.07291666666666,34.72418476451526L217.406875,29.800370511141693L217.74083333333334,34.112722362171525L218.07479166666664,36.62290025190873L218.40875,32.60017297918145L218.74270833333333,32.95417494340376L219.07666666666668,29.5750987659801L219.41062499999998,37.49182309237395L219.74458333333334,30.765810324928964L220.07854166666667,32.95417494340376L220.4125,35.65746043812146L220.74645833333335,36.268898287686426L221.08041666666665,39.422727272727286L221.414375,42.06163538152521L221.74833333333333,43.67072629061613L222.0822916666667,33.79090909090908L222.41625,31.82781621759588L222.75020833333335,31.21635381525212L223.08416666666668,32.79328058416192L223.41812499999997,28.867094837535518L223.75208333333333,33.30817690762606L224.08604166666666,36.10800392844459L224.42000000000002,37.42744570645419L224.75395833333332,28.770553311434668L225.08791666666667,30.25091400146485L225.421875,27.676358725807887L225.75583333333333,35.07818672873756L226.08979166666668,43.316724326393825L226.42374999999998,32.53582014604049L226.75770833333334,32.664550365101206L227.09166666666667,35.85054349032316L227.42562500000003,32.82544472434304L227.75958333333332,25.74545454545455L228.09354166666665,23.428359707919043L228.4275,27.933819163929343L228.7614583333333,26.389081087979406L229.09541666666667,26.195998035777706L229.429375,31.699085998535168L229.76333333333335,34.917267816716986L230.09729166666665,39.3583744395863L230.43125,42.2869071266868L230.76520833333333,34.08053366921166L231.09916666666666,30.283102694424713L231.43312500000002,26.64654152610086L231.76708333333332,29.83253465132279L232.10104166666667,30.05780639648438L232.435,24.200716469504613L232.76895833333336,27.41889828768643L233.10291666666666,26.80746043812144L233.436875,26.32472825483842L233.77083333333334,33.17944668856535L234.10479166666664,32.1174653486772L234.43875,32.27835970791904L234.77270833333333,31.31291989413174L235.10666666666668,25.35926388827238L235.440625,27.064920876242894L235.77458333333334,33.17944668856535L236.10854166666667,27.644170032848024L236.4425,26.099456509676855L236.77645833333335,25.713265852494686L237.11041666666665,25.8419960715554L237.444375,31.699085998535168L237.77833333333334,33.66217887184837L238.1122916666667,30.797999017888856L238.44625,32.63236167214134L238.78020833333332,25.584535633433944L239.11416666666668,22.14108207009056L239.44812499999998,28.223443742231893L239.78208333333333,22.977816217595887L240.11604166666666,25.391452581232244L240.45000000000002,32.37490123401989L240.78395833333335,30.862351851029842L241.11791666666664,23.8789031982422L241.451875,33.46909581964667L241.78583333333333,31.087648148970175L242.11979166666669,32.34273709383879L242.45374999999999,34.72418476451526L242.78770833333334,30.44399705366655L243.12166666666667,25.8419960715554L243.45562500000003,22.752544472434295L243.78958333333333,29.349827020818537L244.12354166666665,24.36163538152522L244.4575,25.294911055131394L244.79145833333334,25.55237149325285L245.12541666666667,27.644170032848024L245.459375,27.740736111727614L245.79333333333335,22.881274691495037L246.12729166666668,27.451086980646295L246.46124999999998,30.154372475364L246.79520833333333,39.390538579767394L247.12916666666666,27.22581523548473L247.46312500000002,23.78236167214135L247.79708333333332,30.154372475364L248.13104166666668,25.713265852494686L248.465,33.147282548384226L248.7989583333333,23.653631453080607L249.13291666666666,25.874184764515263L249.466875,31.763463384454894L249.80083333333334,26.55000000000001L250.13479166666667,23.524901234019893L250.46875,24.36163538152522L250.80270833333333,22.52727272727273L251.13666666666668,25.101828002929693L251.470625,25.101828002929693L251.8045833333333,29.15671941583807L252.13854166666667,29.639451599121088L252.4725,31.31291989413174L252.80645833333335,26.871813271262425L253.14041666666665,26.93619065718218L253.474375,27.386734147505337L253.80833333333334,29.47855723987925L254.14229166666667,26.51781130704012L254.47625,26.871813271262425L254.81020833333332,36.91254938299005L255.14416666666668,23.267465348677206L255.478125,23.39617101495915L255.81208333333333,22.269812289151275L256.1460416666667,27.772900251908737L256.48,24.651284512606537L256.81395833333335,34.46672432639383L257.1479166666667,32.08527665571734L257.481875,27.51546436656605L257.81583333333333,28.770553311434668L258.14979166666666,33.340365600585926L258.48375,29.349827020818537L258.81770833333337,31.02327076305042L259.15166666666664,27.772900251908737L259.48562499999997,36.655088944868595L259.81958333333336,35.271269780939264L260.1535416666667,24.200716469504613L260.4875,43.09145258123223L260.82145833333334,32.34273709383879L261.15541666666667,24.36163538152522L261.489375,31.05545945601031L261.8233333333333,32.08527665571734L262.15729166666665,34.56326585249468L262.49125,28.159090909090907L262.82520833333336,32.88982211026277L263.15916666666664,36.172356761585576L263.493125,29.929100730202407L263.82708333333335,36.97690221613104L264.1610416666667,37.5883646184748L264.495,39.84108207009055L264.82895833333333,39.519268798828136L265.16291666666666,35.2390810879794L265.496875,34.788537597656244L265.8308333333333,37.33090418035334L266.16479166666664,32.76109189120206L266.49875000000003,33.69436756480823L266.83270833333336,26.45345847389916L267.16666666666663,31.570355779474426L267.500625,35.56091891202058L267.83458333333334,38.16763832785867L268.16854166666667,33.40471843372691L268.5025,30.05780639648438L268.8364583333333,32.27835970791904L269.17041666666665,31.795627524636018L269.504375,39.16526683460583L269.8383333333333,37.62055331143466L270.17229166666664,36.655088944868595L270.50625,39.3583744395863L270.84020833333335,30.991082070090556L271.1741666666667,29.703828985040843L271.508125,28.09473807594992L271.84208333333333,29.06017788973722L272.17604166666666,46.374011785333806L272.51,43.54199607155539L272.8439583333333,37.42744570645419L273.17791666666665,31.345084034312862L273.51187500000003,29.510721380060374L273.8458333333333,28.126902216131043L274.1797916666667,28.89928353049538L274.51375,40.13073120117187L274.84770833333334,38.68253465132281L275.1816666666667,33.919639309969824L275.515625,32.5036314530806L275.8495833333333,32.246171014959174L276.18354166666666,44.475271745161564L276.5175,43.63853759765624L276.8514583333333,35.786190657182175L277.1854166666667,37.33090418035334L277.519375,38.135449634898805L277.8533333333333,34.917267816716986L278.1872916666667,40.99962948885832L278.52125,42.22255429354581L278.85520833333334,29.67164029208098L279.18916666666667,31.40946142023259L279.523125,30.765810324928964L279.8570833333333,36.848171997070324L280.19104166666665,46.11655134721235L280.525,41.32144276012073L280.8589583333333,38.135449634898805L281.1929166666667,33.37255429354582L281.526875,38.65037051114169L281.86083333333335,36.52635872580788L282.1947916666667,40.870899269797576L282.52875,38.45726290616122L282.86270833333333,38.521640292080974L283.19666666666666,29.639451599121088L283.530625,28.3843626542525L283.8645833333333,38.521640292080974L284.1985416666667,34.14491105513139L284.53249999999997,43.86380934281783L284.86645833333336,25.584535633433944L285.2004166666667,32.92201080322266L285.534375,27.579817199707037L285.86833333333334,26.80746043812144L286.20229166666667,28.609634399414062L286.53625,41.61109189120205L286.8702083333333,31.345084034312862L287.2041666666667,31.92435774369673L287.538125,40.80654643665662L287.8720833333333,38.10326094193891L288.2060416666667,27.8050889448686L288.53999999999996,24.007633417302912L288.87395833333335,24.39382407448508L289.2079166666667,28.770553311434668L289.541875,25.0696393099698L289.87583333333333,27.579817199707037L290.20979166666666,27.354545454545445L290.54375,28.834906144575626L290.8777083333333,39.93764814897017L291.2116666666667,41.48236167214134L291.545625,36.39762850674717" style="fill: none;" fill="none"></path></g></g></g></g></g></g><g transform="translate(29, 177)" clip-path="url(#clip_1)"><clipPath id="clip_1"><rect width="300" height="23"></rect></clipPath><g><g><line x1="0" y1="0" x2="0" y2="5" style="visibility: inherit;" fill="rgb(0, 0, 0)" stroke="rgb(204, 204, 204)" stroke-width="1px"></line><line x1="33.39583333333333" y1="0" x2="33.39583333333333" y2="5" style="visibility: inherit;" fill="rgb(0, 0, 0)" stroke="rgb(204, 204, 204)" stroke-width="1px"></line><line x1="66.79166666666666" y1="0" x2="66.79166666666666" y2="5" style="visibility: inherit;" fill="rgb(0, 0, 0)" stroke="rgb(204, 204, 204)" stroke-width="1px"></line><line x1="100.1875" y1="0" x2="100.1875" y2="5" style="visibility: inherit;" fill="rgb(0, 0, 0)" stroke="rgb(204, 204, 204)" stroke-width="1px"></line><line x1="133.58333333333331" y1="0" x2="133.58333333333331" y2="5" style="visibility: inherit;" fill="rgb(0, 0, 0)" stroke="rgb(204, 204, 204)" stroke-width="1px"></line><line x1="166.97916666666669" y1="0" x2="166.97916666666669" y2="5" style="visibility: inherit;" fill="rgb(0, 0, 0)" stroke="rgb(204, 204, 204)" stroke-width="1px"></line><line x1="200.375" y1="0" x2="200.375" y2="5" style="visibility: inherit;" fill="rgb(0, 0, 0)" stroke="rgb(204, 204, 204)" stroke-width="1px"></line><line x1="233.77083333333334" y1="0" x2="233.77083333333334" y2="5" style="visibility: inherit;" fill="rgb(0, 0, 0)" stroke="rgb(204, 204, 204)" stroke-width="1px"></line><line x1="267.16666666666663" y1="0" x2="267.16666666666663" y2="5" style="visibility: inherit;" fill="rgb(0, 0, 0)" stroke="rgb(204, 204, 204)" stroke-width="1px"></line><line x1="300.5625" y1="0" x2="300.5625" y2="5" style="visibility: inherit;" fill="rgb(0, 0, 0)" stroke="rgb(204, 204, 204)" stroke-width="1px"></line></g><g transform="translate(0, 8)"><text x="0" y="0" dx="0em" dy="0.95em" style="text-anchor: middle; visibility: hidden; font-family: &quot;Helvetica Neue&quot;, sans-serif; font-size: 12px; font-weight: 200;" fill="rgb(50, 49, 63)" stroke="none" stroke-width="1px">-100</text><text x="33.39583333333333" y="0" dx="0em" dy="0.95em" style="text-anchor: middle; visibility: inherit; font-family: &quot;Helvetica Neue&quot;, sans-serif; font-size: 12px; font-weight: 200;" fill="rgb(50, 49, 63)" stroke="none" stroke-width="1px">0</text><text x="66.79166666666666" y="0" dx="0em" dy="0.95em" style="text-anchor: middle; visibility: inherit; font-family: &quot;Helvetica Neue&quot;, sans-serif; font-size: 12px; font-weight: 200;" fill="rgb(50, 49, 63)" stroke="none" stroke-width="1px">100</text><text x="100.1875" y="0" dx="0em" dy="0.95em" style="text-anchor: middle; visibility: inherit; font-family: &quot;Helvetica Neue&quot;, sans-serif; font-size: 12px; font-weight: 200;" fill="rgb(50, 49, 63)" stroke="none" stroke-width="1px">200</text><text x="133.58333333333331" y="0" dx="0em" dy="0.95em" style="text-anchor: middle; visibility: inherit; font-family: &quot;Helvetica Neue&quot;, sans-serif; font-size: 12px; font-weight: 200;" fill="rgb(50, 49, 63)" stroke="none" stroke-width="1px">300</text><text x="166.97916666666669" y="0" dx="0em" dy="0.95em" style="text-anchor: middle; visibility: inherit; font-family: &quot;Helvetica Neue&quot;, sans-serif; font-size: 12px; font-weight: 200;" fill="rgb(50, 49, 63)" stroke="none" stroke-width="1px">400</text><text x="200.375" y="0" dx="0em" dy="0.95em" style="text-anchor: middle; visibility: inherit; font-family: &quot;Helvetica Neue&quot;, sans-serif; font-size: 12px; font-weight: 200;" fill="rgb(50, 49, 63)" stroke="none" stroke-width="1px">500</text><text x="233.77083333333334" y="0" dx="0em" dy="0.95em" style="text-anchor: middle; visibility: inherit; font-family: &quot;Helvetica Neue&quot;, sans-serif; font-size: 12px; font-weight: 200;" fill="rgb(50, 49, 63)" stroke="none" stroke-width="1px">600</text><text x="267.16666666666663" y="0" dx="0em" dy="0.95em" style="text-anchor: middle; visibility: inherit; font-family: &quot;Helvetica Neue&quot;, sans-serif; font-size: 12px; font-weight: 200;" fill="rgb(50, 49, 63)" stroke="none" stroke-width="1px">700</text><text x="300.5625" y="0" dx="0em" dy="0.95em" style="text-anchor: middle; visibility: hidden; font-family: &quot;Helvetica Neue&quot;, sans-serif; font-size: 12px; font-weight: 200;" fill="rgb(50, 49, 63)" stroke="none" stroke-width="1px">800</text></g><line x1="0" y1="0" x2="300.5625" y2="0" fill="rgb(0, 0, 0)" stroke="rgb(204, 204, 204)" stroke-width="1px"></line></g></g></g></g></svg>