<svg viewBox="0 0 330 200" xmlns="http://www.w3.org/2000/svg"><g><g><g><g><g><line x1="39.15625" y1="177" x2="34.15625" y2="177" style="visibility: inherit;" fill="rgb(0, 0, 0)" stroke="rgb(204, 204, 204)" stroke-width="1px"></line><line x1="39.15625" y1="159.3" x2="34.15625" y2="159.3" style="visibility: inherit;" fill="rgb(0, 0, 0)" stroke="rgb(204, 204, 204)" stroke-width="1px"></line><line x1="39.15625" y1="141.6" x2="34.15625" y2="141.6" style="visibility: inherit;" fill="rgb(0, 0, 0)" stroke="rgb(204, 204, 204)" stroke-width="1px"></line><line x1="39.15625" y1="123.9" x2="34.15625" y2="123.9" style="visibility: inherit;" fill="rgb(0, 0, 0)" stroke="rgb(204, 204, 204)" stroke-width="1px"></line><line x1="39.15625" y1="106.2" x2="34.15625" y2="106.2" style="visibility: inherit;" fill="rgb(0, 0, 0)" stroke="rgb(204, 204, 204)" stroke-width="1px"></line><line x1="39.15625" y1="88.5" x2="34.15625" y2="88.5" style="visibility: inherit;" fill="rgb(0, 0, 0)" stroke="rgb(204, 204, 204)" stroke-width="1px"></line><line x1="39.15625" y1="70.8" x2="34.15625" y2="70.8" style="visibility: inherit;" fill="rgb(0, 0, 0)" stroke="rgb(204, 204, 204)" stroke-width="1px"></line><line x1="39.15625" y1="53.10000000000001" x2="34.15625" y2="53.10000000000001" style="visibility: inherit;" fill="rgb(0, 0, 0)" stroke="rgb(204, 204, 204)" stroke-width="1px"></line><line x1="39.15625" y1="35.400000000000006" x2="34.15625" y2="35.400000000000006" style="visibility: inherit;" fill="rgb(0, 0, 0)" stroke="rgb(204, 204, 204)" stroke-width="1px"></line><line x1="39.15625" y1="17.69999999999999" x2="34.15625" y2="17.69999999999999" style="visibility: inherit;" fill="rgb(0, 0, 0)" stroke="rgb(204, 204, 204)" stroke-width="1px"></line><line x1="39.15625" y1="0" x2="34.15625" y2="0" style="visibility: inherit;" fill="rgb(0, 0, 0)" stroke="rgb(204, 204, 204)" stroke-width="1px"></line></g><g transform="translate(29.15625, 0)"><text x="0" y="177" dx="0em" dy="0.3em" style="text-anchor: end; visibility: hidden; font-family: &quot;Helvetica Neue&quot;, sans-serif; font-size: 12px; font-weight: 200;" fill="rgb(50, 49, 63)" stroke="none" stroke-width="1px">60</text><text x="0" y="159.3" dx="0em" dy="0.3em" style="text-anchor: end; visibility: inherit; font-family: &quot;Helvetica Neue&quot;, sans-serif; font-size: 12px; font-weight: 200;" fill="rgb(50, 49, 63)" stroke="none" stroke-width="1px">65</text><text x="0" y="141.6" dx="0em" dy="0.3em" style="text-anchor: end; visibility: hidden; font-family: &quot;Helvetica Neue&quot;, sans-serif; font-size: 12px; font-weight: 200;" fill="rgb(50, 49, 63)" stroke="none" stroke-width="1px">70</text><text x="0" y="123.9" dx="0em" dy="0.3em" style="text-anchor: end; visibility: inherit; font-family: &quot;Helvetica Neue&quot;, sans-serif; font-size: 12px; font-weight: 200;" fill="rgb(50, 49, 63)" stroke="none" stroke-width="1px">75</text><text x="0" y="106.2" dx="0em" dy="0.3em" style="text-anchor: end; visibility: hidden; font-family: &quot;Helvetica Neue&quot;, sans-serif; font-size: 12px; font-weight: 200;" fill="rgb(50, 49, 63)" stroke="none" stroke-width="1px">80</text><text x="0" y="88.5" dx="0em" dy="0.3em" style="text-anchor: end; visibility: inherit; font-family: &quot;Helvetica Neue&quot;, sans-serif; font-size: 12px; font-weight: 200;" fill="rgb(50, 49, 63)" stroke="none" stroke-width="1px">85</text><text x="0" y="70.8" dx="0em" dy="0.3em" style="text-anchor: end; visibility: hidden; font-family: &quot;Helvetica Neue&quot;, sans-serif; font-size: 12px; font-weight: 200;" fill="rgb(50, 49, 63)" stroke="none" stroke-width="1px">90</text><text x="0" y="53.10000000000001" dx="0em" dy="0.3em" style="text-anchor: end; visibility: inherit; font-family: &quot;Helvetica Neue&quot;, sans-serif; font-size: 12px; font-weight: 200;" fill="rgb(50, 49, 63)" stroke="none" stroke-width="1px">95</text><text x="0" y="35.400000000000006" dx="0em" dy="0.3em" style="text-anchor: end; visibility: hidden; font-family: &quot;Helvetica Neue&quot;, sans-serif; font-size: 12px; font-weight: 200;" fill="rgb(50, 49, 63)" stroke="none" stroke-width="1px">100</text><text x="0" y="17.69999999999999" dx="0em" dy="0.3em" style="text-anchor: end; visibility: inherit; font-family: &quot;Helvetica Neue&quot;, sans-serif; font-size: 12px; font-weight: 200;" fill="rgb(50, 49, 63)" stroke="none" stroke-width="1px">105</text><text x="0" y="0" dx="0em" dy="0.3em" style="text-anchor: end; visibility: hidden; font-family: &quot;Helvetica Neue&quot;, sans-serif; font-size: 12px; font-weight: 200;" fill="rgb(50, 49, 63)" stroke="none" stroke-width="1px">110</text></g><line x1="39.15625" y1="0" x2="39.15625" y2="177" fill="rgb(0, 0, 0)" stroke="rgb(204, 204, 204)" stroke-width="1px"></line></g></g><g transform="translate(39, 0)" clip-path="url(#clip_0)"><clipPath id="clip_0"><rect width="290" height="177"></rect></clipPath><g><g><g><line x1="0" y1="0" x2="0" y2="177" fill="rgb(0, 0, 0)" stroke="rgb(60, 60, 60)" stroke-width="1px" opacity="0.25"></line><line x1="32.31597222222222" y1="0" x2="32.31597222222222" y2="177" fill="rgb(0, 0, 0)" stroke="rgb(60, 60, 60)" stroke-width="1px" opacity="0.25"></line><line x1="64.63194444444444" y1="0" x2="64.63194444444444" y2="177" fill="rgb(0, 0, 0)" stroke="rgb(60, 60, 60)" stroke-width="1px" opacity="0.25"></line><line x1="96.94791666666666" y1="0" x2="96.94791666666666" y2="177" fill="rgb(0, 0, 0)" stroke="rgb(60, 60, 60)" stroke-width="1px" opacity="0.25"></line><line x1="129.26388888888889" y1="0" x2="129.26388888888889" y2="177" fill="rgb(0, 0, 0)" stroke="rgb(60, 60, 60)" stroke-width="1px" opacity="0.25"></line><line x1="161.57986111111111" y1="0" x2="161.57986111111111" y2="177" fill="rgb(0, 0, 0)" stroke="rgb(60, 60, 60)" stroke-width="1px" opacity="0.25"></line><line x1="193.89583333333331" y1="0" x2="193.89583333333331" y2="177" fill="rgb(0, 0, 0)" stroke="rgb(60, 60, 60)" stroke-width="1px" opacity="0.25"></line><line x1="226.21180555555557" y1="0" x2="226.21180555555557" y2="177" fill="rgb(0, 0, 0)" stroke="rgb(60, 60, 60)" stroke-width="1px" opacity="0.25"></line><line x1="258.52777777777777" y1="0" x2="258.52777777777777" y2="177" fill="rgb(0, 0, 0)" stroke="rgb(60, 60, 60)" stroke-width="1px" opacity="0.25"></line><line x1="290.84375" y1="0" x2="290.84375" y2="177" fill="rgb(0, 0, 0)" stroke="rgb(60, 60, 60)" stroke-width="1px" opacity="0.25"></line></g><g><line x1="0" y1="177" x2="290.84375" y2="177" fill="rgb(0, 0, 0)" stroke="rgb(60, 60, 60)" stroke-width="1px" opacity="0.25"></line><line x1="0" y1="159.3" x2="290.84375" y2="159.3" fill="rgb(0, 0, 0)" stroke="rgb(60, 60, 60)" stroke-width="1px" opacity="0.25"></line><line x1="0" y1="141.6" x2="290.84375" y2="141.6" fill="rgb(0, 0, 0)" stroke="rgb(60, 60, 60)" stroke-width="1px" opacity="0.25"></line><line x1="0" y1="123.9" x2="290.84375" y2="123.9" fill="rgb(0, 0, 0)" stroke="rgb(60, 60, 60)" stroke-width="1px" opacity="0.25"></line><line x1="0" y1="106.2" x2="290.84375" y2="106.2" fill="rgb(0, 0, 0)" stroke="rgb(60, 60, 60)" stroke-width="1px" opacity="0.25"></line><line x1="0" y1="88.5" x2="290.84375" y2="88.5" fill="rgb(0, 0, 0)" stroke="rgb(60, 60, 60)" stroke-width="1px" opacity="0.25"></line><line x1="0" y1="70.8" x2="290.84375" y2="70.8" fill="rgb(0, 0, 0)" stroke="rgb(60, 60, 60)" stroke-width="1px" opacity="0.25"></line><line x1="0" y1="53.10000000000001" x2="290.84375" y2="53.10000000000001" fill="rgb(0, 0, 0)" stroke="rgb(60, 60, 60)" stroke-width="1px" opacity="0.25"></line><line x1="0" y1="35.400000000000006" x2="290.84375" y2="35.400000000000006" fill="rgb(0, 0, 0)" stroke="rgb(60, 60, 60)" stroke-width="1px" opacity="0.25"></line><line x1="0" y1="17.69999999999999" x2="290.84375" y2="17.69999999999999" fill="rgb(0, 0, 0)" stroke="rgb(60, 60, 60)" stroke-width="1px" opacity="0.25"></line><line x1="0" y1="0" x2="290.84375" y2="0" fill="rgb(0, 0, 0)" stroke="rgb(60, 60, 60)" stroke-width="1px" opacity="0.25"></line></g></g></g><g><g><line x1="0" y1="389.4" x2="290.84375" y2="389.4" fill="rgb(0, 0, 0)" stroke="rgb(153, 153, 153)" stroke-width="1.5px"></line></g></g><g><g><line x1="32.31597222222222" y1="0" x2="32.31597222222222" y2="177" fill="rgb(0, 0, 0)" stroke="rgb(153, 153, 153)" stroke-width="1.5px"></line></g></g><g><g><g><g><g><path stroke="rgb(0, 153, 136)" stroke-width="2px" d="M32.31597222222222,39.22164001464844L32.63913194444444,35.48372497558594L32.962291666666665,35.702490234375006L33.28545138888889,36.113012695312506L33.60861111111111,36.61806335449219L33.93177083333333,36.26155700683594L34.25493055555555,36.285864257812506L34.578090277777775,36.415502929687506L34.90125,36.93945922851563L35.22440972222223,37.20143737792969L35.54756944444444,37.506628417968756L35.87072916666667,37.38239135742188L36.193888888888885,37.05559387207032L36.517048611111115,36.32097473144532L36.84020833333334,35.89424743652344L37.16336805555555,36.15892639160157L37.48652777777777,36.21564331054688L37.8096875,36.36958923339844L38.132847222222225,36.29126586914063L38.45600694444444,36.20213928222657L38.77916666666667,36.62616577148438L39.10232638888889,36.81792297363282L39.42548611111111,36.41010131835938L39.74864583333333,35.96986999511719L40.07180555555556,36.069799804687506L40.39496527777778,35.77001037597657L40.718125,36.048193359375006L41.04128472222222,35.88884582519532L41.364444444444445,35.79161682128907L41.68760416666667,36.10761108398438L42.01076388888888,36.10761108398438L42.33392361111111,35.85913696289063L42.65708333333333,35.821325683593756L42.980243055555555,35.70789184570313L43.30340277777778,36.026586914062506L43.6265625,35.72949829101563L43.94972222222222,35.713293457031256L44.27288194444445,35.734899902343756L44.596041666666665,35.66737976074219L44.91920138888889,35.896948242187506L45.24236111111111,35.62956848144532L45.56552083333334,35.59175720214844L45.88868055555555,35.72139587402344L46.211840277777775,36.23454895019532L46.535000000000004,36.13731994628907L46.858159722222226,35.89424743652344L47.18131944444444,35.85913696289063L47.50447916666666,35.72139587402344L47.82763888888889,35.950964355468756L48.150798611111114,35.86183776855469L48.47395833333333,35.98607482910157L48.79711805555556,35.67818298339844L49.12027777777778,35.85913696289063L49.4434375,36.02928771972657L49.76659722222222,35.61876525878907L50.089756944444446,35.90505065917969L50.41291666666667,35.972570800781256L50.73607638888889,35.92395629882813L51.05923611111111,36.48302307128907L51.382395833333334,36.296667480468756L51.705555555555556,36.09410705566407L52.02871527777777,35.95906677246094L52.351875,35.94826354980469L52.67503472222222,35.85103454589844L52.998194444444444,36.16972961425782L53.321354166666666,35.540441894531256L53.64451388888889,35.91585388183594L53.96767361111111,35.99147644042969L54.29083333333334,36.12921752929688L54.613993055555554,36.25075378417969L54.937152777777776,36.35878601074219L55.2603125,35.67548217773438L55.58347222222223,35.88074340820313L55.90663194444444,35.76190795898438L56.229791666666664,35.940161132812506L56.55295138888889,36.27236022949219L56.876111111111115,36.07790222167969L57.19927083333333,35.91585388183594L57.52243055555555,35.799719238281256L57.84559027777778,35.670080566406256L58.16875,35.66467895507813L58.49190972222222,36.037390136718756L58.81506944444445,35.74030151367188L59.13822916666667,35.680883789062506L59.46138888888889,35.680883789062506L59.784548611111106,35.88344421386719L60.107708333333335,36.01038208007813L60.43086805555556,35.57825317382813L60.75402777777778,35.81592407226563L61.0771875,36.15082397460938L61.40034722222222,35.96986999511719L61.723506944444445,35.74030151367188L62.046666666666674,36.36688842773438L62.36982638888889,35.75920715332032L62.69298611111111,35.74030151367188L63.01614583333333,35.52693786621094L63.339305555555555,35.84833374023438L63.66246527777778,35.99687805175782L63.985625,35.51613464355469L64.30878472222223,35.518835449218756L64.63194444444444,35.529638671875006L64.95510416666667,35.58635559082032L65.27826388888889,35.57825317382813L65.60142361111112,35.67548217773438L65.92458333333333,35.61876525878907L66.24774305555556,35.540441894531256L66.57090277777777,35.49992980957032L66.8940625,35.626867675781256L67.21722222222222,35.810522460937506L67.54038194444445,35.61876525878907L67.86354166666666,35.680883789062506L68.18670138888889,35.529638671875006L68.5098611111111,35.49992980957032L68.83302083333334,35.62416687011719L69.15618055555555,35.51073303222657L69.47934027777778,35.55394592285157L69.8025,35.680883789062506L70.12565972222222,35.67818298339844L70.44881944444445,35.98877563476563L70.77197916666667,35.60796203613282L71.09513888888888,35.48102416992188L71.41829861111111,35.443212890625006L71.74145833333334,35.52423706054688L72.06461805555556,35.605261230468756L72.38777777777777,35.49182739257813L72.7109375,35.486425781250006L73.03409722222223,35.48912658691407L73.35725694444444,35.44051208496094L73.68041666666667,35.81322326660157L74.00357638888889,35.43781127929688L74.3267361111111,35.50533142089844L74.64989583333333,35.767309570312506L74.97305555555555,35.43781127929688L75.29621527777778,35.64037170410157L75.619375,35.57555236816407L75.94253472222222,35.58905639648438L76.26569444444445,35.47022094726563L76.58885416666666,35.47832336425782L76.91201388888888,35.50533142089844L77.23517361111111,35.61066284179688L77.55833333333334,35.45131530761719L77.88149305555555,35.497229003906256L78.20465277777778,35.84563293457032L78.52781250000001,35.61336364746094L78.85097222222223,35.52153625488282L79.17413194444444,35.443212890625006L79.49729166666665,35.61876525878907L79.82045138888888,35.46752014160157L80.14361111111111,35.43511047363282L80.46677083333333,35.55664672851563L80.78993055555556,35.42430725097657L81.11309027777779,35.56744995117188L81.43625,35.55394592285157L81.75940972222222,35.443212890625006L82.08256944444445,35.52423706054688L82.40572916666666,35.47022094726563L82.72888888888889,35.497229003906256L83.05204861111112,35.44861450195313L83.37520833333333,35.42970886230469L83.69836805555556,35.42430725097657L84.02152777777776,35.49992980957032L84.34468749999999,35.54584350585938L84.66784722222222,35.69708862304688L84.99100694444444,35.68358459472657L85.31416666666667,35.47292175292969L85.6373263888889,35.45131530761719L85.96048611111111,35.45941772460938L86.28364583333334,35.44591369628907L86.60680555555555,35.54854431152344L86.92996527777777,35.48372497558594L87.253125,35.55934753417969L87.57628472222223,35.80782165527344L87.89944444444444,35.50263061523438L88.22260416666667,35.57015075683594L88.5457638888889,35.443212890625006L88.86892361111111,35.44591369628907L89.19208333333333,35.49452819824219L89.51524305555554,35.44861450195313L89.83840277777777,35.51343383789063L90.1615625,35.49992980957032L90.48472222222222,35.52693786621094L90.80788194444445,35.46752014160157L91.13104166666668,35.42700805664063L91.45420138888889,35.67278137207032L91.7773611111111,35.52423706054688L92.10052083333333,35.497229003906256L92.42368055555555,35.44861450195313L92.74684027777778,35.52693786621094L93.07000000000001,35.41620483398438L93.39315972222222,35.47832336425782L93.71631944444445,35.562048339843756L94.03947916666665,35.42970886230469L94.36263888888888,35.41890563964844L94.68579861111111,35.52423706054688L95.00895833333333,35.46752014160157L95.33211805555555,35.41890563964844L95.65527777777778,35.49452819824219L95.9784375,35.42430725097657L96.30159722222223,35.47022094726563L96.62475694444444,35.44861450195313L96.94791666666666,35.45671691894532L97.27107638888889,35.432409667968756L97.59423611111112,35.47022094726563L97.91739583333333,35.49992980957032L98.24055555555556,35.48912658691407L98.56371527777779,35.48102416992188L98.886875,35.53233947753907L99.21003472222222,35.41890563964844L99.53319444444443,35.443212890625006L99.85635416666666,35.46211853027344L100.17951388888889,35.464819335937506L100.5026736111111,35.56744995117188L100.82583333333334,35.49452819824219L101.14899305555556,35.63226928710938L101.47215277777778,35.47832336425782L101.7953125,35.44861450195313L102.11847222222222,35.42970886230469L102.44163194444444,35.46752014160157L102.76479166666667,35.50263061523438L103.0879513888889,35.44591369628907L103.41111111111111,35.518835449218756L103.73427083333334,35.44861450195313L104.05743055555554,35.49182739257813L104.38059027777777,35.42700805664063L104.70375,35.57825317382813L105.02690972222221,35.562048339843756L105.35006944444444,35.680883789062506L105.67322916666667,35.475622558593756L105.99638888888889,35.74840393066407L106.31954861111112,35.78081359863282L106.64270833333333,35.51613464355469L106.96586805555555,35.44591369628907L107.28902777777778,35.52693786621094L107.6121875,35.56744995117188L107.93534722222222,35.54314270019532L108.25850694444445,35.43511047363282L108.58166666666668,35.53774108886719L108.90482638888889,35.508032226562506L109.22798611111111,35.49182739257813L109.55114583333332,35.54854431152344L109.87430555555555,35.508032226562506L110.19746527777778,35.51613464355469L110.520625,35.83753051757813L110.84378472222222,35.518835449218756L111.16694444444445,35.40540161132813L111.49010416666667,35.59175720214844L111.81326388888888,35.443212890625006L112.13642361111111,35.48372497558594L112.45958333333333,35.486425781250006L112.78274305555556,35.529638671875006L113.10590277777779,35.71599426269532L113.4290625,35.55394592285157L113.75222222222223,35.64577331542969L114.07538194444446,35.47022094726563L114.39854166666666,35.45131530761719L114.72170138888889,35.42970886230469L115.0448611111111,35.51343383789063L115.36802083333333,35.54584350585938L115.69118055555556,35.51073303222657L116.01434027777778,35.62416687011719L116.3375,35.49182739257813L116.66065972222222,35.40810241699219L116.98381944444444,35.44051208496094L117.30697916666666,35.454016113281256L117.6301388888889,35.443212890625006L117.95329861111111,35.45941772460938L118.27645833333334,35.49182739257813L118.59961805555557,35.50263061523438L118.92277777777778,35.47832336425782L119.2459375,35.40270080566407L119.56909722222221,35.41890563964844L119.89225694444444,35.69438781738282L120.21541666666667,35.45671691894532L120.53857638888888,35.57555236816407L120.86173611111111,35.49992980957032L121.18489583333334,35.49452819824219L121.50805555555556,35.454016113281256L121.83121527777777,35.41350402832032L122.154375,35.410803222656256L122.47753472222222,35.44591369628907L122.80069444444445,35.51343383789063L123.12385416666667,35.42700805664063L123.44701388888889,35.65117492675782L123.77017361111112,35.41350402832032L124.09333333333335,35.41620483398438L124.41649305555555,35.594458007812506L124.73965277777778,35.74030151367188L125.06281249999999,35.45941772460938L125.38597222222222,35.46211853027344L125.70913194444445,35.67548217773438L126.03229166666667,35.43511047363282L126.3554513888889,35.47022094726563L126.67861111111111,35.48912658691407L127.00177083333332,35.64037170410157L127.32493055555555,35.47832336425782L127.64809027777778,35.421606445312506L127.97125,35.40540161132813L128.2944097222222,35.40540161132813L128.61756944444446,35.43511047363282L128.94072916666667,35.41890563964844L129.26388888888889,35.43781127929688L129.5870486111111,35.454016113281256L129.91020833333334,35.42700805664063L130.23336805555556,35.43781127929688L130.55652777777777,35.400000000000006L130.87968750000002,35.41890563964844L131.20284722222223,35.40810241699219L131.52600694444445,35.40270080566407L131.84916666666666,35.41620483398438L132.17232638888888,35.61876525878907L132.49548611111112,35.42970886230469L132.81864583333333,35.410803222656256L133.14180555555555,35.40810241699219L133.4649652777778,35.43781127929688L133.788125,35.443212890625006L134.11128472222222,35.400000000000006L134.43444444444444,35.42970886230469L134.75760416666665,35.42700805664063L135.0807638888889,35.40540161132813L135.4039236111111,35.410803222656256L135.72708333333333,35.42970886230469L136.05024305555557,35.48102416992188L136.37340277777778,35.41350402832032L136.6965625,35.59715881347657L137.0197222222222,35.40270080566407L137.34288194444443,35.48102416992188L137.66604166666667,35.40270080566407L137.9892013888889,35.44591369628907L138.3123611111111,35.41620483398438L138.63552083333335,35.50263061523438L138.95868055555556,35.41620483398438L139.28184027777777,35.42430725097657L139.605,35.42700805664063L139.92815972222223,35.40540161132813L140.25131944444445,35.43511047363282L140.57447916666666,35.41620483398438L140.8976388888889,35.464819335937506L141.22079861111112,35.40540161132813L141.54395833333334,35.40270080566407L141.86711805555555,35.400000000000006L142.19027777777777,35.41350402832032L142.5134375,35.41620483398438L142.83659722222222,35.464819335937506L143.15975694444444,35.45941772460938L143.48291666666668,35.40270080566407L143.8060763888889,35.40810241699219L144.1292361111111,35.44591369628907L144.45239583333333,35.421606445312506L144.77555555555554,35.464819335937506L145.09871527777779,35.410803222656256L145.421875,35.464819335937506L145.74503472222221,35.40540161132813L146.06819444444446,35.41350402832032L146.39135416666664,35.410803222656256L146.7145138888889,35.40810241699219L147.0376736111111,35.42700805664063L147.36083333333335,35.40270080566407L147.68399305555556,35.40270080566407L148.00715277777778,35.44591369628907L148.3303125,35.400000000000006L148.6534722222222,35.40270080566407L148.97663194444445,35.40810241699219L149.29979166666666,35.421606445312506L149.6229513888889,35.410803222656256L149.9461111111111,35.50263061523438L150.26927083333334,35.48912658691407L150.59243055555555,35.47292175292969L150.91559027777777,35.49182739257813L151.23875,35.400000000000006L151.56190972222223,35.40270080566407L151.88506944444444,35.86183776855469L152.20822916666665,35.454016113281256L152.5313888888889,35.40810241699219L152.8545486111111,35.41620483398438L153.17770833333333,35.40810241699219L153.50086805555557,35.400000000000006L153.82402777777776,35.40540161132813L154.1471875,35.41890563964844L154.47034722222222,35.410803222656256L154.79350694444446,35.53504028320313L155.11666666666667,35.40540161132813L155.43982638888892,35.45131530761719L155.7629861111111,35.42970886230469L156.08614583333332,35.41890563964844L156.40930555555556,35.41350402832032L156.73246527777778,35.46211853027344L157.05562500000002,35.41890563964844L157.3787847222222,35.464819335937506L157.70194444444445,35.42700805664063L158.02510416666667,35.43511047363282L158.34826388888888,35.40810241699219L158.67142361111112,35.410803222656256L158.9945833333333,35.40270080566407L159.31774305555555,35.49452819824219L159.64090277777777,35.41890563964844L159.9640625,35.55934753417969L160.28722222222223,35.40810241699219L160.61038194444444,35.44051208496094L160.93354166666666,35.42430725097657L161.25670138888887,35.40270080566407L161.57986111111111,35.41890563964844L161.90302083333333,35.443212890625006L162.22618055555557,35.40270080566407L162.5493402777778,35.40810241699219L162.8725,35.41890563964844L163.19565972222222,35.42430725097657L163.51881944444443,35.41890563964844L163.84197916666668,35.42430725097657L164.1651388888889,35.40270080566407L164.48829861111113,35.41350402832032L164.81145833333332,35.400000000000006L165.13461805555556,35.400000000000006L165.45777777777778,35.41890563964844L165.7809375,35.421606445312506L166.10409722222224,35.41890563964844L166.42725694444442,35.41350402832032L166.75041666666667,35.42700805664063L167.07357638888888,35.52423706054688L167.39673611111112,35.42970886230469L167.71989583333334,35.42700805664063L168.04305555555553,35.41890563964844L168.36621527777777,35.44591369628907L168.68937499999998,35.44051208496094L169.01253472222223,35.410803222656256L169.33569444444444,35.400000000000006L169.65885416666669,35.46211853027344L169.98201388888887,35.46752014160157L170.30517361111112,35.443212890625006L170.62833333333333,35.432409667968756L170.95149305555555,35.42430725097657L171.2746527777778,35.400000000000006L171.5978125,35.51073303222657L171.92097222222222,35.47022094726563L172.24413194444443,35.400000000000006L172.56729166666668,35.400000000000006L172.8904513888889,35.45671691894532L173.2136111111111,35.454016113281256L173.53677083333335,35.443212890625006L173.85993055555554,35.410803222656256L174.18309027777778,35.40810241699219L174.50625,35.45131530761719L174.82940972222224,35.454016113281256L175.15256944444445,35.50263061523438L175.4757291666667,35.40270080566407L175.79888888888888,35.41890563964844L176.1220486111111,35.421606445312506L176.44520833333334,35.43511047363282L176.76836805555556,35.44861450195313L177.0915277777778,35.44591369628907L177.41468749999999,35.45131530761719L177.73784722222223,35.40810241699219L178.06100694444444,35.48102416992188L178.38416666666666,35.44051208496094L178.7073263888889,35.46211853027344L179.0304861111111,35.40540161132813L179.35364583333333,35.45941772460938L179.67680555555555,35.41890563964844L179.9999652777778,35.508032226562506L180.323125,35.46752014160157L180.64628472222222,35.41620483398438L180.96944444444443,35.42700805664063L181.29260416666665,35.41350402832032L181.6157638888889,35.41620483398438L181.9389236111111,35.42970886230469L182.26208333333335,35.400000000000006L182.58524305555557,35.45671691894532L182.90840277777778,35.65657653808594L183.2315625,35.40540161132813L183.5547222222222,35.48912658691407L183.87788194444445,35.44591369628907L184.20104166666667,35.42970886230469L184.5242013888889,35.497229003906256L184.8473611111111,35.47292175292969L185.17052083333334,35.40270080566407L185.49368055555556,35.41350402832032L185.81684027777777,35.54314270019532L186.14000000000001,35.43781127929688L186.4631597222222,35.562048339843756L186.78631944444444,35.40270080566407L187.10947916666666,35.42970886230469L187.4326388888889,35.45131530761719L187.75579861111112,35.454016113281256L188.0789583333333,35.57015075683594L188.40211805555555,35.40540161132813L188.72527777777776,35.432409667968756L189.0484375,35.51073303222657L189.37159722222222,35.432409667968756L189.69475694444446,35.42700805664063L190.01791666666665,35.49992980957032L190.3410763888889,35.400000000000006L190.6642361111111,35.400000000000006L190.98739583333332,35.40540161132813L191.31055555555557,35.49992980957032L191.63371527777778,35.41620483398438L191.956875,35.45941772460938L192.2800347222222,35.454016113281256L192.60319444444445,35.44861450195313L192.92635416666667,35.43511047363282L193.24951388888888,35.421606445312506L193.57267361111113,35.400000000000006L193.89583333333331,35.400000000000006L194.21899305555556,35.40270080566407L194.54215277777777,35.44591369628907L194.86531250000002,35.400000000000006L195.18847222222223,35.41890563964844L195.51163194444447,35.400000000000006L195.83479166666666,35.45941772460938L196.15795138888888,35.58635559082032L196.48111111111112,35.40540161132813L196.80427083333333,35.40810241699219L197.12743055555558,35.410803222656256L197.45059027777776,35.60796203613282L197.77375,35.41890563964844L198.09690972222222,35.42700805664063L198.42006944444444,35.40270080566407L198.74322916666668,35.443212890625006L199.06638888888887,35.41620483398438L199.3895486111111,35.40270080566407L199.71270833333332,35.41620483398438L200.03586805555557,35.410803222656256L200.35902777777778,35.400000000000006L200.6821875,35.46752014160157L201.0053472222222,35.43511047363282L201.32850694444443,35.46211853027344L201.65166666666667,35.443212890625006L201.97482638888889,35.410803222656256L202.29798611111113,35.46752014160157L202.62114583333334,35.41620483398438L202.94430555555556,35.44051208496094L203.26746527777777,35.42700805664063L203.590625,35.42700805664063L203.91378472222223,35.48372497558594L204.23694444444445,35.40270080566407L204.5601041666667,35.41890563964844L204.88326388888888,35.41620483398438L205.20642361111112,35.75920715332032L205.52958333333333,35.53233947753907L205.85274305555555,35.46211853027344L206.1759027777778,35.410803222656256L206.49906249999998,35.40540161132813L206.82222222222222,35.40540161132813L207.14538194444444,35.44051208496094L207.46854166666668,35.42430725097657L207.7917013888889,35.42970886230469L208.11486111111108,35.40270080566407L208.43802083333333,35.400000000000006L208.76118055555554,35.42970886230469L209.08434027777778,35.443212890625006L209.4075,35.42430725097657L209.73065972222224,35.497229003906256L210.05381944444443,35.40810241699219L210.37697916666667,35.41350402832032L210.7001388888889,35.421606445312506L211.0232986111111,35.421606445312506L211.34645833333335,35.432409667968756L211.66961805555556,35.40540161132813L211.99277777777777,35.410803222656256L212.3159375,35.46211853027344L212.63909722222223,35.45131530761719L212.96225694444445,35.40270080566407L213.28541666666666,35.41890563964844L213.6085763888889,35.41350402832032L213.9317361111111,35.42970886230469L214.25489583333334,35.410803222656256L214.57805555555555,35.410803222656256L214.9012152777778,35.43511047363282L215.224375,35.42430725097657L215.54753472222222,35.40810241699219L215.87069444444444,35.43781127929688L216.19385416666665,35.44861450195313L216.5170138888889,35.40810241699219L216.8401736111111,35.59175720214844L217.16333333333336,35.45941772460938L217.48649305555554,35.43511047363282L217.80965277777779,35.475622558593756L218.1328125,35.59985961914063L218.45597222222221,35.49182739257813L218.77913194444446,35.43511047363282L219.10229166666664,35.45941772460938L219.4254513888889,35.52693786621094L219.7486111111111,35.45131530761719L220.07177083333335,35.43781127929688L220.39493055555556,35.40810241699219L220.71809027777778,35.49452819824219L221.04125,35.44861450195313L221.3644097222222,35.40540161132813L221.68756944444445,35.40540161132813L222.01072916666666,35.518835449218756L222.3338888888889,35.443212890625006L222.6570486111111,35.443212890625006L222.98020833333334,35.43511047363282L223.30336805555555,35.46211853027344L223.62652777777777,35.41350402832032L223.9496875,35.41890563964844L224.27284722222223,35.42970886230469L224.59600694444444,35.42700805664063L224.91916666666665,35.44861450195313L225.2423263888889,35.41890563964844L225.5654861111111,35.432409667968756L225.88864583333333,35.410803222656256L226.21180555555557,35.45941772460938L226.53496527777776,35.44051208496094L226.858125,35.47832336425782L227.18128472222222,35.454016113281256L227.50444444444446,35.43781127929688L227.82760416666667,35.410803222656256L228.15076388888892,35.41620483398438L228.4739236111111,35.41890563964844L228.79708333333332,35.40270080566407L229.12024305555556,35.41890563964844L229.44340277777778,35.400000000000006L229.76656250000002,35.443212890625006L230.0897222222222,35.50533142089844L230.41288194444445,35.432409667968756L230.73604166666667,35.400000000000006L231.05920138888888,35.41350402832032L231.38236111111112,35.40540161132813L231.7055208333333,35.42970886230469L232.02868055555555,35.410803222656256L232.35184027777777,35.410803222656256L232.675,35.443212890625006L232.99815972222223,35.40270080566407L233.32131944444444,35.47832336425782L233.64447916666666,35.43511047363282L233.96763888888887,35.432409667968756L234.29079861111111,35.41620483398438L234.61395833333333,35.45941772460938L234.93711805555557,35.40540161132813L235.2602777777778,35.40540161132813L235.5834375,35.540441894531256L235.90659722222222,35.40810241699219L236.22975694444443,35.40810241699219L236.55291666666668,35.41350402832032L236.8760763888889,35.41890563964844L237.19923611111113,35.42700805664063L237.52239583333332,35.40540161132813L237.84555555555556,35.40810241699219L238.16871527777778,35.49452819824219L238.491875,35.51613464355469L238.81503472222224,35.52423706054688L239.13819444444442,35.44591369628907L239.46135416666667,35.45671691894532L239.78451388888888,35.41620483398438L240.10767361111112,35.42970886230469L240.43083333333334,35.43511047363282L240.75399305555553,35.454016113281256L241.07715277777777,35.400000000000006L241.40031249999998,35.508032226562506L241.72347222222223,35.432409667968756L242.04663194444444,35.40810241699219L242.36979166666669,35.400000000000006L242.69295138888887,35.43781127929688L243.01611111111112,35.400000000000006L243.33927083333333,35.40270080566407L243.66243055555555,35.400000000000006L243.9855902777778,35.400000000000006L244.30875,35.40270080566407L244.63190972222222,35.41350402832032L244.95506944444443,35.47022094726563L245.27822916666668,35.44591369628907L245.6013888888889,35.48912658691407L245.9245486111111,35.44861450195313L246.24770833333335,35.40270080566407L246.57086805555554,35.41620483398438L246.89402777777778,35.42700805664063L247.2171875,35.41890563964844L247.54034722222224,35.58095397949219L247.86350694444445,35.42430725097657L248.1866666666667,35.41620483398438L248.50982638888888,35.51343383789063L248.8329861111111,35.47022094726563L249.15614583333334,35.42430725097657L249.47930555555556,35.49992980957032L249.8024652777778,35.49992980957032L250.12562499999999,35.41890563964844L250.44878472222223,35.421606445312506L250.77194444444444,35.41620483398438L251.09510416666666,35.45671691894532L251.4182638888889,35.48912658691407L251.7414236111111,35.42970886230469L252.06458333333333,35.432409667968756L252.38774305555555,35.43781127929688L252.7109027777778,35.400000000000006L253.0340625,35.41350402832032L253.35722222222222,35.45941772460938L253.68038194444443,35.443212890625006L254.00354166666665,35.454016113281256L254.3267013888889,35.45941772460938L254.6498611111111,35.42430725097657L254.97302083333335,35.44591369628907L255.29618055555557,35.583654785156256L255.61934027777778,35.443212890625006L255.9425,35.41890563964844L256.2656597222222,35.43781127929688L256.5888194444444,35.55934753417969L256.91197916666664,35.43781127929688L257.2351388888889,35.53233947753907L257.5582986111111,35.464819335937506L257.88145833333334,35.49452819824219L258.20461805555556,35.40810241699219L258.52777777777777,35.47292175292969L258.8509375,35.43781127929688L259.1740972222222,35.46752014160157L259.4972569444445,35.45671691894532L259.8204166666667,35.42430725097657L260.1435763888889,35.53774108886719L260.4667361111111,35.41350402832032L260.78989583333333,35.41620483398438L261.11305555555555,35.47292175292969L261.43621527777776,35.40540161132813L261.75937500000003,35.400000000000006L262.0825347222222,35.40270080566407L262.40569444444446,35.49182739257813L262.7288541666667,35.44591369628907L263.0520138888889,35.41350402832032L263.3751736111111,35.443212890625006L263.6983333333333,35.40810241699219L264.02149305555554,35.41620483398438L264.34465277777775,35.42430725097657L264.6678125,35.43511047363282L264.99097222222224,35.72679748535157L265.31413194444445,35.41350402832032L265.63729166666667,35.46752014160157L265.9604513888889,35.475622558593756L266.2836111111111,35.44591369628907L266.6067708333333,35.57555236816407L266.9299305555556,35.43781127929688L267.25309027777774,35.529638671875006L267.57625,35.42970886230469L267.89940972222223,35.43781127929688L268.22256944444445,35.41350402832032L268.54572916666666,35.42970886230469L268.8688888888889,35.44861450195313L269.1920486111111,35.42970886230469L269.5152083333333,35.410803222656256L269.8383680555556,35.49992980957032L270.1615277777778,35.410803222656256L270.4846875,35.778112792968756L270.8078472222222,35.61876525878907L271.13100694444444,35.46211853027344L271.45416666666665,35.497229003906256L271.77732638888887,35.41620483398438L272.10048611111114,35.63497009277344L272.42364583333335,35.47292175292969L272.74680555555557,35.45941772460938L273.0699652777778,35.44051208496094L273.393125,35.60256042480469L273.7162847222222,35.69978942871094L274.0394444444444,35.58635559082032L274.3626041666667,35.486425781250006L274.68576388888886,35.454016113281256L275.00892361111113,35.47022094726563L275.33208333333334,35.42430725097657L275.65524305555556,35.61876525878907L275.9784027777778,35.52693786621094L276.3015625,35.75920715332032L276.6247222222222,35.400000000000006L276.9478819444444,35.421606445312506L277.2710416666667,35.44051208496094L277.5942013888889,35.50263061523438L277.9173611111111,35.53774108886719L278.24052083333333,35.43511047363282L278.56368055555555,35.61066284179688L278.88684027777776,35.43781127929688L279.21,35.40810241699219L279.53315972222225,35.400000000000006L279.85631944444447,35.44861450195313L280.1794791666667,35.44591369628907L280.5026388888889,35.46211853027344L280.8257986111111,35.540441894531256L281.1489583333333,35.51613464355469L281.47211805555554,35.50263061523438L281.7952777777778,35.43781127929688L282.11843749999997,35.464819335937506" style="fill: none;" fill="none"></path></g><g><path stroke="rgb(255, 112, 67)" stroke-width="2px" d="M61.40034722222222,182.84100540161134L64.63194444444444,156.7866032409668L67.86354166666666,152.22L71.09513888888888,147.83040756225586L74.3267361111111,156.57421188354493L77.55833333333334,151.1933967590332L80.78993055555556,130.87380432128907L84.02152777777776,136.5732064819336L87.253125,148.18440216064454L90.48472222222222,143.86559783935547L93.71631944444445,144.78600540161133L96.94791666666666,141.70619567871094L100.17951388888889,142.87440216064454L103.41111111111111,124.96201080322265L106.64270833333333,119.97059783935546L109.87430555555555,139.29899459838867L113.10590277777779,119.7582064819336L116.3375,133.81201080322265L119.56909722222221,127.33380432128905L122.80069444444445,117.20940216064453L126.03229166666667,121.74059783935547L129.26388888888889,109.66921188354492L132.49548611111112,122.05921188354492L135.72708333333333,112.43040756225587L138.95868055555556,114.90839675903321L142.19027777777777,120.60779891967773L145.421875,122.05921188354492L148.6534722222222,115.26239135742188L151.88506944444444,119.22720108032226L155.11666666666667,114.80220108032228L158.34826388888888,116.9616032409668L161.57986111111111,124.67880432128906L164.81145833333332,118.41298919677735L168.04305555555553,105.27959243774414L171.2746527777778,109.56298919677734L174.50625,111.6516032409668L177.73784722222223,111.58078811645508L180.96944444444443,110.83739135742188L184.20104166666667,105.24421188354492L187.4326388888889,108.14701080322266L190.6642361111111,112.78440216064453L193.89583333333331,97.45619567871094L194.54215277777777,97.81019027709961L195.18847222222223,99.4032064819336L195.83479166666666,106.09380432128906L196.48111111111112,110.87279891967773L197.12743055555558,118.73160324096679L197.77375,110.34179351806641L198.42006944444444,91.82760864257813L199.06638888888887,106.66019027709962L199.71270833333332,96.50040756225586L200.35902777777778,106.8017935180664L201.0053472222222,108.99660324096679L201.65166666666667,119.58119567871094L202.29798611111113,95.58L202.94430555555556,99.43858703613282L203.590625,109.95239135742187L204.23694444444445,100.1466032409668L204.88326388888888,114.62519027709962L205.52958333333333,110.23559783935546L206.1759027777778,101.13779891967773L206.82222222222222,96.3233967590332L207.46854166666668,102.9432064819336L208.11486111111108,103.79279891967774L208.76118055555554,107.68679351806641L209.4075,99.36779891967774L210.05381944444443,106.09380432128906L210.7001388888889,96.96059783935547L211.34645833333335,105.49201080322266L211.99277777777777,114.94380432128906L212.63909722222223,114.23578811645507L213.28541666666666,106.12921188354493L213.9317361111111,111.54540756225586L214.57805555555555,105.4566032409668L215.224375,122.09459243774414L215.87069444444444,104.46540756225586L216.5170138888889,115.33320648193359L217.16333333333336,99.82798919677734L217.80965277777779,99.36779891967774L218.45597222222221,116.78459243774415L219.10229166666664,119.0501902770996L219.7486111111111,93.84540756225586L220.39493055555556,109.95239135742187L221.04125,104.11141296386718L221.68756944444445,100.85459243774415L222.3338888888889,125.45760864257812L222.98020833333334,112.1117935180664L223.62652777777777,99.65100540161133L224.27284722222223,97.88100540161133L224.91916666666665,109.38600540161133L225.5654861111111,96.8898097229004L226.21180555555557,97.45619567871094L226.858125,98.34119567871093L227.50444444444446,115.86421188354493L228.15076388888892,106.9433967590332L228.79708333333332,97.91641296386719L229.44340277777778,103.12019027709961L230.0897222222222,96.465L230.73604166666667,99.89880432128906L231.38236111111112,95.61540756225585L232.02868055555555,105.70440216064453L232.675,108.92578811645508L233.32131944444444,115.15619567871094L233.96763888888887,106.76641296386718L234.61395833333333,110.55421188354492L235.2602777777778,96.85440216064453L235.90659722222222,106.34160324096679L236.55291666666668,92.53559783935548L237.19923611111113,101.20858703613281L237.84555555555556,102.1998097229004L238.491875,97.6332064819336L239.13819444444442,107.085L239.78451388888888,113.13839675903321L240.43083333333334,101.95201080322266L241.07715277777777,108.99660324096679L241.72347222222223,92.81880432128906L242.36979166666669,95.19059783935546L243.01611111111112,94.4117935180664L243.66243055555555,96.11100540161132L244.30875,103.22641296386719L244.95506944444443,102.9432064819336L245.6013888888889,98.55358703613281L246.24770833333335,102.16440216064453L246.89402777777778,95.82779891967773L247.54034722222224,101.56260864257813L248.1866666666667,98.62440216064454L248.8329861111111,113.63399459838868L249.47930555555556,114.09421188354492L250.12562499999999,103.43880432128907L250.77194444444444,102.48298919677734L251.4182638888889,107.19119567871094L252.06458333333333,102.76619567871094L252.7109027777778,100.78380432128907L253.35722222222222,104.81940216064453L254.00354166666665,117.28019027709962L254.6498611111111,115.82880432128906L255.29618055555557,109.5983967590332L255.9425,101.31480972290039L256.5888194444444,102.27059783935547L257.2351388888889,100.67760864257812L257.88145833333334,113.59858703613281L258.52777777777777,129.42239135742187L259.1740972222222,112.07641296386718L259.8204166666667,104.00519027709962L260.4667361111111,98.44739135742188L261.11305555555555,106.16459243774415L261.75937500000003,113.49239135742187L262.40569444444446,101.4917935180664L263.0520138888889,111.29760864257813L263.6983333333333,102.76619567871094L264.34465277777775,111.75779891967774L264.99097222222224,99.61559783935547L265.63729166666667,119.0148097229004L266.2836111111111,110.30641296386719L266.9299305555556,104.25298919677735L267.57625,106.48320648193359L268.22256944444445,108.07619567871093L268.8688888888889,115.75798919677734L269.5152083333333,104.00519027709962L270.1615277777778,100.3235870361328L270.8078472222222,120.39540756225585L271.45416666666665,111.51L272.10048611111114,117.45720108032226L272.74680555555557,104.2883967590332L273.393125,112.1117935180664L274.0394444444444,99.26160324096679L274.68576388888886,109.49220108032226L275.33208333333334,106.58940216064452L275.9784027777778,131.97119567871093L276.6247222222222,108.60720108032227L277.2710416666667,100.85459243774415L277.9173611111111,103.29720108032227L278.56368055555555,102.48298919677734L279.21,94.76578811645508L279.85631944444447,100.25279891967773L280.5026388888889,108.64260864257812L281.1489583333333,112.32421188354492L281.7952777777778,155.1582064819336" style="fill: none;" fill="none"></path></g><g><path stroke="rgb(51, 187, 238)" stroke-width="2px" d="M58.16875,195.30276580810548L61.40034722222222,169.37680046081542L64.63194444444444,153.86803161621094L67.86354166666666,140.6852101135254L71.09513888888888,142.31622665405274L74.3267361111111,138.39471084594726L77.55833333333334,129.84255569458008L80.78993055555556,127.12657150268555L84.02152777777776,125.74375900268555L87.253125,121.21947738647461L90.48472222222222,126.34652481079101L93.71631944444445,125.89268142700195L96.94791666666666,122.6661099243164L100.17951388888889,119.94302261352539L103.41111111111111,120.40396911621093L106.64270833333333,121.61657684326173L109.87430555555555,122.006600189209L113.10590277777779,113.071524810791L116.3375,119.99976654052733L119.56909722222221,110.39097518920899L122.80069444444445,112.15673492431641L126.03229166666667,111.62489227294923L129.26388888888889,98.7966325378418L132.49548611111112,97.74712646484375L135.72708333333333,102.4132273864746L138.95868055555556,106.04400146484375L142.19027777777777,107.26371231079102L145.421875,103.19327407836914L148.6534722222222,106.72476654052734L151.88506944444444,100.08016342163086L155.11666666666667,105.78869430541992L158.34826388888888,104.10806396484375L161.57986111111111,105.85251434326172L164.81145833333332,101.21477188110352L168.04305555555553,98.95263107299805L171.2746527777778,94.05960845947266L174.50625,93.78304595947266L177.73784722222223,97.2010775756836L180.96944444444443,92.28677261352539L184.20104166666667,91.84003234863282L187.4326388888889,92.79025680541992L190.6642361111111,92.44987426757812L193.89583333333331,92.1591325378418L194.54215277777777,89.25168823242187L195.18847222222223,90.22319503784179L195.83479166666666,91.78328842163086L196.48111111111112,92.52079742431641L197.12743055555558,89.68424926757812L197.77375,95.00275680541992L198.42006944444444,92.42861892700195L199.06638888888887,91.30816268920898L199.71270833333332,89.53532684326171L200.35902777777778,92.0953125L201.0053472222222,92.6484375L201.65166666666667,95.27931930541992L202.29798611111113,91.52090515136719L202.94430555555556,87.8830549621582L203.590625,88.79074172973633L204.23694444444445,87.85469650268554L204.88326388888888,90.82596084594726L205.52958333333333,91.16634338378907L206.1759027777778,94.77583511352539L206.82222222222222,92.53497665405274L207.46854166666668,96.44938934326171L208.11486111111108,95.18003768920899L208.76118055555554,95.30060165405274L209.4075,90.04591415405274L210.05381944444443,92.31513107299804L210.7001388888889,96.78269577026367L211.34645833333335,92.25131103515625L211.99277777777777,92.49951507568359L212.63909722222223,93.10938400268554L213.28541666666666,97.88894577026367L213.9317361111111,99.54121765136719L214.57805555555555,99.30721984863281L215.224375,92.84700073242188L215.87069444444444,93.38594650268554L216.5170138888889,94.61983657836915L217.16333333333336,95.52042022705078L217.80965277777779,88.14543823242188L218.45597222222221,97.31453842163086L219.10229166666664,97.61945938110351L219.7486111111111,91.73364761352539L220.39493055555556,90.46429595947265L221.04125,88.67020477294922L221.68756944444445,88.2305406188965L222.3338888888889,96.4990301513672L222.98020833333334,95.88918823242187L223.62652777777777,90.4359375L224.27284722222223,90.06009338378907L224.91916666666665,89.2658674621582L225.5654861111111,88.74820404052734L226.21180555555557,92.4569773864746L226.858125,91.59893142700196L227.50444444444446,89.06022811889649L228.15076388888892,91.93931396484375L228.79708333333332,89.1169450378418L229.44340277777778,88.9893049621582L230.0897222222222,90.63450073242187L230.73604166666667,90.54229522705079L231.38236111111112,86.64206176757813L232.02868055555555,87.81213180541991L232.675,89.7977101135254L233.32131944444444,88.80492095947265L233.96763888888887,92.77607757568359L234.61395833333333,91.99603088378906L235.2602777777778,89.15948272705079L235.90659722222222,91.84710845947265L236.55291666666668,86.96826507568359L237.19923611111113,88.08161819458007L237.84555555555556,87.54267242431641L238.491875,88.65599853515624L239.13819444444442,89.68424926757812L239.78451388888888,89.16658584594727L240.43083333333334,92.91082077026367L241.07715277777777,88.3723599243164L241.72347222222223,87.45049392700196L242.36979166666669,86.80516342163087L243.01611111111112,87.11008438110352L243.66243055555555,88.08161819458007L244.30875,89.71260772705078L244.95506944444443,90.94652481079102L245.6013888888889,91.30108657836914L246.24770833333335,90.08137573242188L246.89402777777778,87.93269577026366L247.54034722222224,87.31575073242186L248.1866666666667,88.39364227294922L248.8329861111111,91.27980422973633L249.47930555555556,89.02476654052734L250.12562499999999,89.84027481079102L250.77194444444444,89.88991561889648L251.4182638888889,93.09520477294922L252.06458333333333,96.22957077026368L252.7109027777778,88.3723599243164L253.35722222222222,92.36477188110352L254.00354166666665,90.30829742431641L254.6498611111111,93.19445938110351L255.29618055555557,95.85372665405274L255.9425,99.22211746215821L256.5888194444444,96.65505569458008L257.2351388888889,97.17271911621094L257.88145833333334,94.27945404052734L258.52777777777777,93.59158584594726L259.1740972222222,96.37849319458007L259.8204166666667,92.98174392700196L260.4667361111111,94.44255569458008L261.11305555555555,96.1799299621582L261.75937500000003,93.34338180541992L262.40569444444446,91.42872665405274L263.0520138888889,91.67693069458008L263.6983333333333,100.9453125L264.34465277777775,91.80457077026367L264.99097222222224,88.15961746215821L265.63729166666667,96.00972518920898L266.2836111111111,95.26514007568359L266.9299305555556,94.86804061889649L267.57625,97.8818426513672L268.22256944444445,95.00275680541992L268.8688888888889,94.56309265136719L269.5152083333333,98.15132904052734L270.1615277777778,91.98185165405273L270.8078472222222,93.44266342163085L271.45416666666665,102.5195851135254L272.10048611111114,94.5205549621582L272.74680555555557,94.13760772705078L273.393125,99.15119430541992L274.0394444444444,93.34338180541992L274.68576388888886,94.30070938110352L275.33208333333334,96.7117726135254L275.9784027777778,89.81188934326173L276.6247222222222,89.29422592163085L277.2710416666667,91.25852188110352L277.9173611111111,93.1377424621582L278.56368055555555,97.73292022705078L279.21,87.81213180541991L279.85631944444447,88.47871765136719L280.5026388888889,89.33679061889649L281.1489583333333,91.65564834594727L281.7952777777778,99.98798492431641" style="fill: none;" fill="none"></path></g><g><path stroke="rgb(187, 187, 187)" stroke-width="2px" d="M58.16875,194.77080162048338L58.81506944444445,173.07059783935546L59.46138888888889,167.0525951385498L60.107708333333335,165.2117935180664L60.75402777777778,165.77820648193358L61.40034722222222,172.61039405822754L62.046666666666674,164.3975951385498L62.69298611111111,160.78679351806642L63.339305555555555,151.58279891967774L63.985625,161.45940216064452L64.63194444444444,154.5917935180664L65.27826388888889,145.0692118835449L65.92458333333333,154.30858703613282L66.57090277777777,152.29078811645508L67.21722222222222,140.715L67.86354166666666,141.84779891967773L68.5098611111111,142.66201080322264L69.15618055555555,139.61760864257812L69.8025,143.90100540161131L70.44881944444445,141.1751902770996L71.09513888888888,144.14880432128905L71.74145833333334,137.3166032409668L72.38777777777777,138.76798919677734L73.03409722222223,132.25440216064453L73.68041666666667,135.33421188354492L74.3267361111111,140.53798919677735L74.97305555555555,136.29L75.619375,133.84739135742188L76.26569444444445,133.24559783935547L76.91201388888888,132.96239135742186L77.55833333333334,130.94459243774412L78.20465277777778,132.2898097229004L78.85097222222223,128.1833967590332L79.49729166666665,129.6701902770996L80.14361111111111,126.23641296386718L80.78993055555556,127.72320648193359L81.43625,131.51100540161133L82.08256944444445,134.3783967590332L82.72888888888889,128.00641296386718L83.37520833333333,127.08600540161132L84.02152777777776,126.16559783935547L84.66784722222222,128.6082064819336L85.31416666666667,128.3957881164551L85.96048611111111,126.6966032409668L86.60680555555555,124.785L87.253125,122.20078811645507L87.89944444444444,123.22739135742188L88.5457638888889,125.56380432128907L89.19208333333333,124.00619567871094L89.83840277777777,125.98858703613281L90.48472222222222,128.00641296386718L91.13104166666668,124.785L91.7773611111111,119.40421188354492L92.42368055555555,111.6516032409668L93.07000000000001,118.41298919677735L93.71631944444445,129.8117935180664L94.36263888888888,124.21858703613282L95.00895833333333,128.67899459838867L95.65527777777778,124.28940216064453L96.30159722222223,123.05040756225586L96.94791666666666,124.46641296386719L97.59423611111112,124.9266032409668L98.24055555555556,132.8916032409668L98.886875,125.88239135742188L99.53319444444443,124.14779891967774L100.17951388888889,122.34239135742187L100.82583333333334,123.79380432128906L101.47215277777778,124.21858703613282L102.11847222222222,128.3957881164551L102.76479166666667,126.4133967590332L103.41111111111111,122.30701080322265L104.05743055555554,125.35141296386718L104.70375,117.17399459838867L105.35006944444444,119.97059783935546L105.99638888888889,115.15619567871094L106.64270833333333,123.68760864257813L107.28902777777778,117.95279891967773L107.93534722222222,120.60779891967773L108.58166666666668,122.66100540161133L109.22798611111111,123.12119567871093L109.87430555555555,122.8733967590332L110.520625,122.76720108032227L111.16694444444445,111.2267935180664L111.81326388888888,115.89959243774415L112.45958333333333,114.23578811645507L113.10590277777779,114.27119567871094L113.75222222222223,118.55459243774413L114.39854166666666,115.935L115.0448611111111,120.78480972290039L115.69118055555556,124.3601902770996L116.3375,122.4132064819336L116.98381944444444,117.28019027709962L117.6301388888889,114.97921188354492L118.27645833333334,115.86421188354493L118.92277777777778,113.63399459838868L119.56909722222221,111.86399459838867L120.21541666666667,110.16480972290039L120.86173611111111,111.9701902770996L121.50805555555556,113.13839675903321L122.154375,106.97880432128906L122.80069444444445,115.33320648193359L123.44701388888889,111.3683967590332L124.09333333333335,109.06739135742187L124.73965277777778,107.085L125.38597222222222,114.0233967590332L126.03229166666667,112.96141296386719L126.67861111111111,109.17358703613282L127.32493055555555,103.58040756225586L127.97125,102.73078811645507L128.61756944444446,100.11119567871094L129.26388888888889,99.43858703613282L129.91020833333334,101.84578811645508L130.55652777777777,104.43L131.20284722222223,103.4033967590332L131.84916666666666,105.4566032409668L132.49548611111112,98.44739135742188L133.14180555555555,103.50959243774415L133.788125,103.01399459838868L134.43444444444444,105.13798919677734L135.0807638888889,101.13779891967773L135.72708333333333,105.03179351806641L136.37340277777778,111.61619567871094L137.0197222222222,105.98760864257812L137.66604166666667,104.07600540161133L138.3123611111111,106.02298919677735L138.95868055555556,110.20019027709961L139.605,114.69600540161133L140.25131944444445,110.0232064819336L140.8976388888889,106.9433967590332L141.54395833333334,106.48320648193359L142.19027777777777,109.98779891967773L142.83659722222222,113.06760864257814L143.48291666666668,112.395L144.1292361111111,109.63380432128906L144.77555555555554,108.43019027709961L145.421875,106.27078811645508L146.06819444444446,106.34160324096679L146.7145138888889,104.53619567871094L147.36083333333335,101.9166032409668L148.00715277777778,108.46559783935547L148.6534722222222,109.95239135742187L149.29979166666666,108.7133967590332L149.9461111111111,115.72260864257812L150.59243055555555,105.24421188354492L151.23875,102.9432064819336L151.88506944444444,102.34141296386719L152.5313888888889,101.84578811645508L153.17770833333333,106.55399459838867L153.82402777777776,99.33239135742187L154.47034722222222,107.04959243774414L155.11666666666667,107.8283967590332L155.7629861111111,108.74880432128906L156.40930555555556,109.38600540161133L157.05562500000002,109.56298919677734L157.70194444444445,110.625L158.34826388888888,105.77519027709961L158.9945833333333,101.70421188354493L159.64090277777777,106.9433967590332L160.28722222222223,107.79298919677734L160.93354166666666,107.58059783935546L161.57986111111111,108.74880432128906L162.22618055555557,104.78399459838867L162.8725,106.16459243774415L163.51881944444443,104.00519027709962L164.1651388888889,100.71298919677734L164.81145833333332,102.02279891967774L165.45777777777778,101.95201080322266L166.10409722222224,101.59798919677735L166.75041666666667,96.85440216064453L167.39673611111112,95.96940216064453L168.04305555555553,102.73078811645507L168.68937499999998,97.03141296386718L169.33569444444444,95.61540756225585L169.98201388888887,98.02260864257812L170.62833333333333,102.27059783935547L171.2746527777778,96.1817935180664L171.92097222222222,103.19100540161133L172.56729166666668,100.46519027709961L173.2136111111111,97.59779891967773L173.85993055555554,91.8983967590332L174.50625,95.86320648193359L175.15256944444445,95.40298919677734L175.79888888888888,102.0582064819336L176.44520833333334,97.95179351806641L177.0915277777778,96.25260864257812L177.73784722222223,99.19078811645508L178.38416666666666,98.16421188354492L179.0304861111111,95.65078811645508L179.67680555555555,99.47399459838867L180.323125,98.51820648193359L180.96944444444443,93.98701080322266L181.6157638888889,94.9782064819336L182.26208333333335,96.57119567871094L182.90840277777778,102.30600540161133L183.5547222222222,96.67739135742187L184.20104166666667,93.27899459838868L184.8473611111111,98.41201080322266L185.49368055555556,99.7217935180664L186.14000000000001,98.51820648193359L186.78631944444444,95.40298919677734L187.4326388888889,94.16399459838867L188.0789583333333,100.46519027709961L188.72527777777776,96.07559783935547L189.37159722222222,95.11980972290038L190.01791666666665,93.70380432128906L190.6642361111111,93.03119567871094L191.31055555555557,95.68619567871093L191.956875,96.99600540161133L192.60319444444445,91.82760864257813L193.24951388888888,93.52679351806641L193.89583333333331,94.30559783935547L194.21899305555556,90.12839675903321L194.54215277777777,89.91600540161133L194.86531250000002,88.78320648193359L195.18847222222223,91.93380432128906L195.51163194444447,90.97798919677734L195.83479166666666,93.98701080322266L196.15795138888888,90.12839675903321L196.48111111111112,94.05779891967774L196.80427083333333,97.4916032409668L197.12743055555558,90.16380432128906L197.45059027777776,97.13760864257813L197.77375,97.98720108032227L198.09690972222222,95.58L198.42006944444444,94.51798919677735L198.74322916666668,93.31440216064453L199.06638888888887,92.25239135742187L199.3895486111111,93.95160324096679L199.71270833333332,90.34078811645507L200.03586805555557,96.11100540161132L200.35902777777778,94.51798919677735L200.6821875,96.78358703613281L201.0053472222222,93.84540756225586L201.32850694444443,95.4383967590332L201.65166666666667,96.57119567871094L201.97482638888889,97.0667935180664L202.29798611111113,94.48260864257813L202.62114583333334,89.91600540161133L202.94430555555556,88.42921188354492L203.26746527777777,88.99559783935547L203.590625,90.27L203.91378472222223,91.11959243774415L204.23694444444445,87.7566032409668L204.5601041666667,90.02220108032226L204.88326388888888,92.25239135742187L205.20642361111112,93.88078811645508L205.52958333333333,91.65059783935547L205.85274305555555,94.62421188354492L206.1759027777778,97.24380432128906L206.49906249999998,89.17260864257813L206.82222222222222,94.02239135742188L207.14538194444444,94.2348097229004L207.46854166666668,98.3766032409668L207.7917013888889,98.41201080322266L208.11486111111108,96.64201080322266L208.43802083333333,98.05798919677734L208.76118055555554,96.3233967590332L209.08434027777778,91.61519027709961L209.4075,90.37619567871094L209.73065972222224,91.65059783935547L210.05381944444443,93.42059783935547L210.37697916666667,93.70380432128906L210.7001388888889,99.04921188354493L211.0232986111111,98.34119567871093L211.34645833333335,92.53559783935548L211.66961805555556,91.79220108032227L211.99277777777777,94.05779891967774L212.3159375,98.44739135742188L212.63909722222223,95.01358703613282L212.96225694444445,97.13760864257813L213.28541666666666,100.39440216064453L213.6085763888889,98.235L213.9317361111111,102.16440216064453L214.25489583333334,100.39440216064453L214.57805555555555,101.70421188354493L214.9012152777778,96.60660324096679L215.224375,93.59760864257812L215.54753472222222,92.46480972290038L215.87069444444444,94.5533967590332L216.19385416666665,92.25239135742187L216.5170138888889,96.53578811645508L216.8401736111111,98.58899459838867L217.16333333333336,97.24380432128906L217.48649305555554,92.14619567871094L217.80965277777779,88.96019027709961L218.1328125,93.34980972290039L218.45597222222221,98.27040756225585L218.77913194444446,102.34141296386719L219.10229166666664,98.27040756225585L219.4254513888889,96.9251902770996L219.7486111111111,93.03119567871094L220.07177083333335,93.63298919677734L220.39493055555556,91.22578811645508L220.71809027777778,89.8451902770996L221.04125,89.17260864257813L221.3644097222222,88.92480972290039L221.68756944444445,88.74779891967773L222.01072916666666,94.80119567871094L222.3338888888889,98.12880432128907L222.6570486111111,101.73959243774414L222.98020833333334,98.41201080322266L223.30336805555555,95.11980972290038L223.62652777777777,91.93380432128906L223.9496875,89.27880432128906L224.27284722222223,91.155L224.59600694444444,92.67720108032226L224.91916666666665,89.42040756225586L225.2423263888889,89.8451902770996L225.5654861111111,88.42921188354492L225.88864583333333,89.20798919677735L226.21180555555557,93.84540756225586L226.53496527777776,91.68600540161133L226.858125,93.20820648193359L227.18128472222222,89.88059783935547L227.50444444444446,89.45578811645508L227.82760416666667,90.51779891967773L228.15076388888892,94.80119567871094L228.4739236111111,88.42921188354492L228.79708333333332,90.12839675903321L229.12024305555556,88.21679351806641L229.44340277777778,89.88059783935547L229.76656250000002,91.68600540161133L230.0897222222222,91.33201080322266L230.41288194444445,90.94260864257812L230.73604166666667,91.08421188354492L231.05920138888888,88.6416032409668L231.38236111111112,88.07519027709961L231.7055208333333,86.34059783935547L232.02868055555555,89.73899459838867L232.35184027777777,88.81858703613281L232.675,91.8983967590332L232.99815972222223,90.90720108032227L233.32131944444444,90.16380432128906L233.64447916666666,94.65959243774414L233.96763888888887,93.45600540161132L234.29079861111111,92.39399459838867L234.61395833333333,93.0666032409668L234.93711805555557,92.81880432128906L235.2602777777778,89.56201080322266L235.5834375,89.8451902770996L235.90659722222222,93.0666032409668L236.22975694444443,87.1901902770996L236.55291666666668,87.29641296386718L236.8760763888889,89.56201080322266L237.19923611111113,88.71239135742188L237.52239583333332,89.6682064819336L237.84555555555556,88.78320648193359L238.16871527777778,91.33201080322266L238.491875,89.9867935180664L238.81503472222224,94.8366032409668L239.13819444444442,90.73019027709961L239.46135416666667,88.92480972290039L239.78451388888888,89.6682064819336L240.10767361111112,89.59739135742187L240.43083333333334,95.93399459838867L240.75399305555553,88.71239135742188L241.07715277777777,88.60619567871093L241.40031249999998,92.35858703613282L241.72347222222223,88.18141296386719L242.04663194444444,88.46459243774414L242.36979166666669,87.9335870361328L242.69295138888887,87.29641296386718L243.01611111111112,88.57078811645508L243.33927083333333,89.42040756225586L243.66243055555555,89.20798919677735L243.9855902777778,90.48239135742188L244.30875,91.72141296386718L244.63190972222222,88.78320648193359L244.95506944444443,92.64179351806641L245.27822916666668,92.85421188354492L245.6013888888889,92.60641296386719L245.9245486111111,91.5798097229004L246.24770833333335,91.65059783935547L246.57086805555554,91.5798097229004L246.89402777777778,88.57078811645508L247.2171875,89.385L247.54034722222224,87.0132064819336L247.86350694444445,89.13720108032227L248.1866666666667,88.92480972290039L248.50982638888888,93.13739135742188L248.8329861111111,92.88959243774414L249.15614583333334,90.5532064819336L249.47930555555556,91.22578811645508L249.8024652777778,94.02239135742188L250.12562499999999,91.36739135742188L250.44878472222223,92.64179351806641L250.77194444444444,90.30540756225587L251.09510416666666,96.00480972290039L251.4182638888889,95.54459243774414L251.7414236111111,90.5532064819336L252.06458333333333,98.8014129638672L252.38774305555555,93.03119567871094L252.7109027777778,87.04858703613282L253.0340625,91.47358703613281L253.35722222222222,93.56220108032227L253.68038194444443,92.99578811645507L254.00354166666665,91.33201080322266L254.3267013888889,93.34980972290039L254.6498611111111,94.19940216064452L254.97302083333335,94.12858703613281L255.29618055555557,97.95179351806641L255.61934027777778,98.41201080322266L255.9425,101.06701080322266L256.2656597222222,98.69519027709961L256.5888194444444,97.81019027709961L256.91197916666664,96.85440216064453L257.2351388888889,100.2882064819336L257.5582986111111,95.36760864257812L257.88145833333334,95.33220108032226L258.20461805555556,92.14619567871094L258.52777777777777,95.1551902770996L258.8509375,97.27921188354492L259.1740972222222,97.98720108032227L259.4972569444445,95.19059783935546L259.8204166666667,92.88959243774414L260.1435763888889,97.91641296386719L260.4667361111111,95.29679351806641L260.78989583333333,99.33239135742187L261.11305555555555,98.44739135742188L261.43621527777776,94.90739135742187L261.75937500000003,95.68619567871093L262.0825347222222,92.78339675903321L262.40569444444446,91.65059783935547L262.7288541666667,92.99578811645507L263.0520138888889,92.53559783935548L263.3751736111111,103.75739135742188L263.6983333333333,102.97858703613281L264.02149305555554,96.81899459838867L264.34465277777775,92.67720108032226L264.6678125,92.5001902770996L264.99097222222224,90.02220108032226L265.31413194444445,93.63298919677734L265.63729166666667,98.8014129638672L265.9604513888889,100.46519027709961L266.2836111111111,97.98720108032227L266.6067708333333,94.4117935180664L266.9299305555556,96.53578811645508L267.25309027777774,100.18201080322265L267.57625,101.56260864257813L267.89940972222223,97.4916032409668L268.22256944444445,97.17298919677734L268.54572916666666,99.19078811645508L268.8688888888889,97.17298919677734L269.1920486111111,101.70421188354493L269.5152083333333,101.70421188354493L269.8383680555556,92.60641296386719L270.1615277777778,94.51798919677735L270.4846875,93.20820648193359L270.8078472222222,95.79239135742188L271.13100694444444,103.6866032409668L271.45416666666665,105.73980972290039L271.77732638888887,98.8367935180664L272.10048611111114,96.85440216064453L272.42364583333335,101.31480972290039L272.74680555555557,97.10220108032226L273.0699652777778,100.42980972290039L273.393125,101.81040756225586L273.7162847222222,103.22641296386719L274.0394444444444,95.11980972290038L274.3626041666667,92.39399459838867L274.68576388888886,97.56239135742187L275.00892361111113,94.87201080322265L275.33208333333334,99.82798919677734L275.65524305555556,90.44701080322265L275.9784027777778,91.40279891967774L276.3015625,92.5001902770996L276.6247222222222,90.44701080322265L276.9478819444444,90.34078811645507L277.2710416666667,94.19940216064452L277.5942013888889,93.77459243774415L277.9173611111111,94.05779891967774L278.24052083333333,98.02260864257812L278.56368055555555,100.18201080322265L278.88684027777776,91.33201080322266L279.21,88.57078811645508L279.53315972222225,88.6416032409668L279.85631944444447,90.5532064819336L280.1794791666667,87.36720108032226L280.5026388888889,91.72141296386718L280.8257986111111,92.74798919677734L281.1489583333333,94.8366032409668L281.47211805555554,101.42100540161132L281.7952777777778,102.27059783935547L282.11843749999997,98.41201080322266" style="fill: none;" fill="none"></path></g></g></g></g></g></g><g transform="translate(39, 177)" clip-path="url(#clip_1)"><clipPath id="clip_1"><rect width="290" height="23"></rect></clipPath><g><g><line x1="0" y1="0" x2="0" y2="5" style="visibility: inherit;" fill="rgb(0, 0, 0)" stroke="rgb(204, 204, 204)" stroke-width="1px"></line><line x1="32.31597222222222" y1="0" x2="32.31597222222222" y2="5" style="visibility: inherit;" fill="rgb(0, 0, 0)" stroke="rgb(204, 204, 204)" stroke-width="1px"></line><line x1="64.63194444444444" y1="0" x2="64.63194444444444" y2="5" style="visibility: inherit;" fill="rgb(0, 0, 0)" stroke="rgb(204, 204, 204)" stroke-width="1px"></line><line x1="96.94791666666666" y1="0" x2="96.94791666666666" y2="5" style="visibility: inherit;" fill="rgb(0, 0, 0)" stroke="rgb(204, 204, 204)" stroke-width="1px"></line><line x1="129.26388888888889" y1="0" x2="129.26388888888889" y2="5" style="visibility: inherit;" fill="rgb(0, 0, 0)" stroke="rgb(204, 204, 204)" stroke-width="1px"></line><line x1="161.57986111111111" y1="0" x2="161.57986111111111" y2="5" style="visibility: inherit;" fill="rgb(0, 0, 0)" stroke="rgb(204, 204, 204)" stroke-width="1px"></line><line x1="193.89583333333331" y1="0" x2="193.89583333333331" y2="5" style="visibility: inherit;" fill="rgb(0, 0, 0)" stroke="rgb(204, 204, 204)" stroke-width="1px"></line><line x1="226.21180555555557" y1="0" x2="226.21180555555557" y2="5" style="visibility: inherit;" fill="rgb(0, 0, 0)" stroke="rgb(204, 204, 204)" stroke-width="1px"></line><line x1="258.52777777777777" y1="0" x2="258.52777777777777" y2="5" style="visibility: inherit;" fill="rgb(0, 0, 0)" stroke="rgb(204, 204, 204)" stroke-width="1px"></line><line x1="290.84375" y1="0" x2="290.84375" y2="5" style="visibility: inherit;" fill="rgb(0, 0, 0)" stroke="rgb(204, 204, 204)" stroke-width="1px"></line></g><g transform="translate(0, 8)"><text x="0" y="0" dx="0em" dy="0.95em" style="text-anchor: middle; visibility: hidden; font-family: &quot;Helvetica Neue&quot;, sans-serif; font-size: 12px; font-weight: 200;" fill="rgb(50, 49, 63)" stroke="none" stroke-width="1px">-100</text><text x="32.31597222222222" y="0" dx="0em" dy="0.95em" style="text-anchor: middle; visibility: inherit; font-family: &quot;Helvetica Neue&quot;, sans-serif; font-size: 12px; font-weight: 200;" fill="rgb(50, 49, 63)" stroke="none" stroke-width="1px">0</text><text x="64.63194444444444" y="0" dx="0em" dy="0.95em" style="text-anchor: middle; visibility: inherit; font-family: &quot;Helvetica Neue&quot;, sans-serif; font-size: 12px; font-weight: 200;" fill="rgb(50, 49, 63)" stroke="none" stroke-width="1px">100</text><text x="96.94791666666666" y="0" dx="0em" dy="0.95em" style="text-anchor: middle; visibility: inherit; font-family: &quot;Helvetica Neue&quot;, sans-serif; font-size: 12px; font-weight: 200;" fill="rgb(50, 49, 63)" stroke="none" stroke-width="1px">200</text><text x="129.26388888888889" y="0" dx="0em" dy="0.95em" style="text-anchor: middle; visibility: inherit; font-family: &quot;Helvetica Neue&quot;, sans-serif; font-size: 12px; font-weight: 200;" fill="rgb(50, 49, 63)" stroke="none" stroke-width="1px">300</text><text x="161.57986111111111" y="0" dx="0em" dy="0.95em" style="text-anchor: middle; visibility: inherit; font-family: &quot;Helvetica Neue&quot;, sans-serif; font-size: 12px; font-weight: 200;" fill="rgb(50, 49, 63)" stroke="none" stroke-width="1px">400</text><text x="193.89583333333331" y="0" dx="0em" dy="0.95em" style="text-anchor: middle; visibility: inherit; font-family: &quot;Helvetica Neue&quot;, sans-serif; font-size: 12px; font-weight: 200;" fill="rgb(50, 49, 63)" stroke="none" stroke-width="1px">500</text><text x="226.21180555555557" y="0" dx="0em" dy="0.95em" style="text-anchor: middle; visibility: inherit; font-family: &quot;Helvetica Neue&quot;, sans-serif; font-size: 12px; font-weight: 200;" fill="rgb(50, 49, 63)" stroke="none" stroke-width="1px">600</text><text x="258.52777777777777" y="0" dx="0em" dy="0.95em" style="text-anchor: middle; visibility: inherit; font-family: &quot;Helvetica Neue&quot;, sans-serif; font-size: 12px; font-weight: 200;" fill="rgb(50, 49, 63)" stroke="none" stroke-width="1px">700</text><text x="290.84375" y="0" dx="0em" dy="0.95em" style="text-anchor: middle; visibility: hidden; font-family: &quot;Helvetica Neue&quot;, sans-serif; font-size: 12px; font-weight: 200;" fill="rgb(50, 49, 63)" stroke="none" stroke-width="1px">800</text></g><line x1="0" y1="0" x2="290.84375" y2="0" fill="rgb(0, 0, 0)" stroke="rgb(204, 204, 204)" stroke-width="1px"></line></g></g></g></g></svg>