<svg viewBox="0 0 330 200" xmlns="http://www.w3.org/2000/svg"><g><g><g><g><g><line x1="39.15625" y1="177" x2="34.15625" y2="177" style="visibility: inherit;" fill="rgb(0, 0, 0)" stroke="rgb(204, 204, 204)" stroke-width="1px"></line><line x1="39.15625" y1="159.3" x2="34.15625" y2="159.3" style="visibility: inherit;" fill="rgb(0, 0, 0)" stroke="rgb(204, 204, 204)" stroke-width="1px"></line><line x1="39.15625" y1="141.6" x2="34.15625" y2="141.6" style="visibility: inherit;" fill="rgb(0, 0, 0)" stroke="rgb(204, 204, 204)" stroke-width="1px"></line><line x1="39.15625" y1="123.9" x2="34.15625" y2="123.9" style="visibility: inherit;" fill="rgb(0, 0, 0)" stroke="rgb(204, 204, 204)" stroke-width="1px"></line><line x1="39.15625" y1="106.2" x2="34.15625" y2="106.2" style="visibility: inherit;" fill="rgb(0, 0, 0)" stroke="rgb(204, 204, 204)" stroke-width="1px"></line><line x1="39.15625" y1="88.5" x2="34.15625" y2="88.5" style="visibility: inherit;" fill="rgb(0, 0, 0)" stroke="rgb(204, 204, 204)" stroke-width="1px"></line><line x1="39.15625" y1="70.8" x2="34.15625" y2="70.8" style="visibility: inherit;" fill="rgb(0, 0, 0)" stroke="rgb(204, 204, 204)" stroke-width="1px"></line><line x1="39.15625" y1="53.10000000000001" x2="34.15625" y2="53.10000000000001" style="visibility: inherit;" fill="rgb(0, 0, 0)" stroke="rgb(204, 204, 204)" stroke-width="1px"></line><line x1="39.15625" y1="35.400000000000006" x2="34.15625" y2="35.400000000000006" style="visibility: inherit;" fill="rgb(0, 0, 0)" stroke="rgb(204, 204, 204)" stroke-width="1px"></line><line x1="39.15625" y1="17.69999999999999" x2="34.15625" y2="17.69999999999999" style="visibility: inherit;" fill="rgb(0, 0, 0)" stroke="rgb(204, 204, 204)" stroke-width="1px"></line><line x1="39.15625" y1="0" x2="34.15625" y2="0" style="visibility: inherit;" fill="rgb(0, 0, 0)" stroke="rgb(204, 204, 204)" stroke-width="1px"></line></g><g transform="translate(29.15625, 0)"><text x="0" y="177" dx="0em" dy="0.3em" style="text-anchor: end; visibility: hidden; font-family: &quot;Helvetica Neue&quot;, sans-serif; font-size: 12px; font-weight: 200;" fill="rgb(50, 49, 63)" stroke="none" stroke-width="1px">92</text><text x="0" y="159.3" dx="0em" dy="0.3em" style="text-anchor: end; visibility: inherit; font-family: &quot;Helvetica Neue&quot;, sans-serif; font-size: 12px; font-weight: 200;" fill="rgb(50, 49, 63)" stroke="none" stroke-width="1px">93</text><text x="0" y="141.6" dx="0em" dy="0.3em" style="text-anchor: end; visibility: hidden; font-family: &quot;Helvetica Neue&quot;, sans-serif; font-size: 12px; font-weight: 200;" fill="rgb(50, 49, 63)" stroke="none" stroke-width="1px">94</text><text x="0" y="123.9" dx="0em" dy="0.3em" style="text-anchor: end; visibility: inherit; font-family: &quot;Helvetica Neue&quot;, sans-serif; font-size: 12px; font-weight: 200;" fill="rgb(50, 49, 63)" stroke="none" stroke-width="1px">95</text><text x="0" y="106.2" dx="0em" dy="0.3em" style="text-anchor: end; visibility: hidden; font-family: &quot;Helvetica Neue&quot;, sans-serif; font-size: 12px; font-weight: 200;" fill="rgb(50, 49, 63)" stroke="none" stroke-width="1px">96</text><text x="0" y="88.5" dx="0em" dy="0.3em" style="text-anchor: end; visibility: inherit; font-family: &quot;Helvetica Neue&quot;, sans-serif; font-size: 12px; font-weight: 200;" fill="rgb(50, 49, 63)" stroke="none" stroke-width="1px">97</text><text x="0" y="70.8" dx="0em" dy="0.3em" style="text-anchor: end; visibility: hidden; font-family: &quot;Helvetica Neue&quot;, sans-serif; font-size: 12px; font-weight: 200;" fill="rgb(50, 49, 63)" stroke="none" stroke-width="1px">98</text><text x="0" y="53.10000000000001" dx="0em" dy="0.3em" style="text-anchor: end; visibility: inherit; font-family: &quot;Helvetica Neue&quot;, sans-serif; font-size: 12px; font-weight: 200;" fill="rgb(50, 49, 63)" stroke="none" stroke-width="1px">99</text><text x="0" y="35.400000000000006" dx="0em" dy="0.3em" style="text-anchor: end; visibility: hidden; font-family: &quot;Helvetica Neue&quot;, sans-serif; font-size: 12px; font-weight: 200;" fill="rgb(50, 49, 63)" stroke="none" stroke-width="1px">100</text><text x="0" y="17.69999999999999" dx="0em" dy="0.3em" style="text-anchor: end; visibility: inherit; font-family: &quot;Helvetica Neue&quot;, sans-serif; font-size: 12px; font-weight: 200;" fill="rgb(50, 49, 63)" stroke="none" stroke-width="1px">101</text><text x="0" y="0" dx="0em" dy="0.3em" style="text-anchor: end; visibility: hidden; font-family: &quot;Helvetica Neue&quot;, sans-serif; font-size: 12px; font-weight: 200;" fill="rgb(50, 49, 63)" stroke="none" stroke-width="1px">102</text></g><line x1="39.15625" y1="0" x2="39.15625" y2="177" fill="rgb(0, 0, 0)" stroke="rgb(204, 204, 204)" stroke-width="1px"></line></g></g><g transform="translate(39, 0)" clip-path="url(#clip_0)"><clipPath id="clip_0"><rect width="290" height="177"></rect></clipPath><g><g><g><line x1="0" y1="0" x2="0" y2="177" fill="rgb(0, 0, 0)" stroke="rgb(60, 60, 60)" stroke-width="1px" opacity="0.25"></line><line x1="32.31597222222222" y1="0" x2="32.31597222222222" y2="177" fill="rgb(0, 0, 0)" stroke="rgb(60, 60, 60)" stroke-width="1px" opacity="0.25"></line><line x1="64.63194444444444" y1="0" x2="64.63194444444444" y2="177" fill="rgb(0, 0, 0)" stroke="rgb(60, 60, 60)" stroke-width="1px" opacity="0.25"></line><line x1="96.94791666666666" y1="0" x2="96.94791666666666" y2="177" fill="rgb(0, 0, 0)" stroke="rgb(60, 60, 60)" stroke-width="1px" opacity="0.25"></line><line x1="129.26388888888889" y1="0" x2="129.26388888888889" y2="177" fill="rgb(0, 0, 0)" stroke="rgb(60, 60, 60)" stroke-width="1px" opacity="0.25"></line><line x1="161.57986111111111" y1="0" x2="161.57986111111111" y2="177" fill="rgb(0, 0, 0)" stroke="rgb(60, 60, 60)" stroke-width="1px" opacity="0.25"></line><line x1="193.89583333333331" y1="0" x2="193.89583333333331" y2="177" fill="rgb(0, 0, 0)" stroke="rgb(60, 60, 60)" stroke-width="1px" opacity="0.25"></line><line x1="226.21180555555557" y1="0" x2="226.21180555555557" y2="177" fill="rgb(0, 0, 0)" stroke="rgb(60, 60, 60)" stroke-width="1px" opacity="0.25"></line><line x1="258.52777777777777" y1="0" x2="258.52777777777777" y2="177" fill="rgb(0, 0, 0)" stroke="rgb(60, 60, 60)" stroke-width="1px" opacity="0.25"></line><line x1="290.84375" y1="0" x2="290.84375" y2="177" fill="rgb(0, 0, 0)" stroke="rgb(60, 60, 60)" stroke-width="1px" opacity="0.25"></line></g><g><line x1="0" y1="177" x2="290.84375" y2="177" fill="rgb(0, 0, 0)" stroke="rgb(60, 60, 60)" stroke-width="1px" opacity="0.25"></line><line x1="0" y1="159.3" x2="290.84375" y2="159.3" fill="rgb(0, 0, 0)" stroke="rgb(60, 60, 60)" stroke-width="1px" opacity="0.25"></line><line x1="0" y1="141.6" x2="290.84375" y2="141.6" fill="rgb(0, 0, 0)" stroke="rgb(60, 60, 60)" stroke-width="1px" opacity="0.25"></line><line x1="0" y1="123.9" x2="290.84375" y2="123.9" fill="rgb(0, 0, 0)" stroke="rgb(60, 60, 60)" stroke-width="1px" opacity="0.25"></line><line x1="0" y1="106.2" x2="290.84375" y2="106.2" fill="rgb(0, 0, 0)" stroke="rgb(60, 60, 60)" stroke-width="1px" opacity="0.25"></line><line x1="0" y1="88.5" x2="290.84375" y2="88.5" fill="rgb(0, 0, 0)" stroke="rgb(60, 60, 60)" stroke-width="1px" opacity="0.25"></line><line x1="0" y1="70.8" x2="290.84375" y2="70.8" fill="rgb(0, 0, 0)" stroke="rgb(60, 60, 60)" stroke-width="1px" opacity="0.25"></line><line x1="0" y1="53.10000000000001" x2="290.84375" y2="53.10000000000001" fill="rgb(0, 0, 0)" stroke="rgb(60, 60, 60)" stroke-width="1px" opacity="0.25"></line><line x1="0" y1="35.400000000000006" x2="290.84375" y2="35.400000000000006" fill="rgb(0, 0, 0)" stroke="rgb(60, 60, 60)" stroke-width="1px" opacity="0.25"></line><line x1="0" y1="17.69999999999999" x2="290.84375" y2="17.69999999999999" fill="rgb(0, 0, 0)" stroke="rgb(60, 60, 60)" stroke-width="1px" opacity="0.25"></line><line x1="0" y1="0" x2="290.84375" y2="0" fill="rgb(0, 0, 0)" stroke="rgb(60, 60, 60)" stroke-width="1px" opacity="0.25"></line></g></g></g><g><g><line x1="0" y1="1805.3999999999999" x2="290.84375" y2="1805.3999999999999" fill="rgb(0, 0, 0)" stroke="rgb(153, 153, 153)" stroke-width="1.5px"></line></g></g><g><g><line x1="32.31597222222222" y1="0" x2="32.31597222222222" y2="177" fill="rgb(0, 0, 0)" stroke="rgb(153, 153, 153)" stroke-width="1.5px"></line></g></g><g><g><g><g><g><path stroke="rgb(187, 187, 187)" stroke-width="2px" d="M32.31597222222222,37.15552368164063L32.63913194444444,35.400000000000006L32.962291666666665,35.400000000000006L33.28545138888889,35.400000000000006L33.60861111111111,35.400000000000006L33.93177083333333,35.400000000000006L34.25493055555555,35.400000000000006L34.578090277777775,35.400000000000006L34.90125,35.400000000000006L35.22440972222223,35.400000000000006L35.54756944444444,35.400000000000006L35.87072916666667,35.400000000000006L36.193888888888885,35.400000000000006L36.517048611111115,35.400000000000006L36.84020833333334,35.400000000000006L37.16336805555555,35.400000000000006L37.48652777777777,35.400000000000006L37.8096875,35.400000000000006L38.132847222222225,35.400000000000006L38.45600694444444,35.400000000000006L38.77916666666667,35.400000000000006L39.10232638888889,35.400000000000006L39.42548611111111,35.400000000000006L39.74864583333333,35.400000000000006L40.07180555555556,35.400000000000006L40.39496527777778,35.400000000000006L40.718125,35.400000000000006L41.04128472222222,35.400000000000006L41.364444444444445,35.400000000000006L41.68760416666667,35.400000000000006L42.01076388888888,35.400000000000006L42.33392361111111,35.400000000000006L42.65708333333333,35.400000000000006L42.980243055555555,35.400000000000006L43.30340277777778,35.400000000000006L43.6265625,35.400000000000006L43.94972222222222,35.400000000000006L44.27288194444445,35.400000000000006L44.596041666666665,35.400000000000006L44.91920138888889,35.400000000000006L45.24236111111111,35.400000000000006L45.56552083333334,35.400000000000006L45.88868055555555,35.400000000000006L46.211840277777775,35.400000000000006L46.535000000000004,35.400000000000006L46.858159722222226,35.400000000000006L47.18131944444444,35.400000000000006L47.50447916666666,35.400000000000006L47.82763888888889,35.400000000000006L48.150798611111114,35.400000000000006L48.47395833333333,35.400000000000006L48.79711805555556,35.400000000000006L49.12027777777778,35.400000000000006L49.4434375,35.400000000000006L49.76659722222222,35.400000000000006L50.089756944444446,35.400000000000006L50.41291666666667,35.400000000000006L50.73607638888889,35.400000000000006L51.05923611111111,35.400000000000006L51.382395833333334,35.400000000000006L51.705555555555556,35.400000000000006L52.02871527777777,35.400000000000006L52.351875,35.400000000000006L52.67503472222222,35.400000000000006L52.998194444444444,35.400000000000006L53.321354166666666,35.400000000000006L53.64451388888889,35.400000000000006L53.96767361111111,35.400000000000006L54.29083333333334,35.400000000000006L54.613993055555554,35.400000000000006L54.937152777777776,35.400000000000006L55.2603125,35.400000000000006L55.58347222222223,35.400000000000006L55.90663194444444,35.400000000000006L56.229791666666664,35.400000000000006L56.55295138888889,35.400000000000006L56.876111111111115,35.400000000000006L57.19927083333333,35.400000000000006L57.52243055555555,35.400000000000006L57.84559027777778,35.400000000000006L58.16875,35.400000000000006L58.49190972222222,35.400000000000006L58.81506944444445,35.400000000000006L59.13822916666667,35.400000000000006L59.46138888888889,35.400000000000006L59.784548611111106,35.400000000000006L60.107708333333335,35.42700805664063L60.43086805555556,35.400000000000006L60.75402777777778,35.400000000000006L61.0771875,35.400000000000006L61.40034722222222,35.400000000000006L61.723506944444445,35.400000000000006L62.046666666666674,35.400000000000006L62.36982638888889,35.400000000000006L62.69298611111111,35.400000000000006L63.01614583333333,35.400000000000006L63.339305555555555,35.400000000000006L63.66246527777778,35.400000000000006L63.985625,35.400000000000006L64.30878472222223,35.400000000000006L64.63194444444444,35.400000000000006L64.95510416666667,35.400000000000006L65.27826388888889,35.400000000000006L65.60142361111112,35.400000000000006L65.92458333333333,35.400000000000006L66.24774305555556,35.400000000000006L66.57090277777777,35.400000000000006L66.8940625,35.400000000000006L67.21722222222222,35.400000000000006L67.54038194444445,35.400000000000006L67.86354166666666,35.400000000000006L68.18670138888889,35.400000000000006L68.5098611111111,35.400000000000006L68.83302083333334,35.400000000000006L69.15618055555555,35.400000000000006L69.47934027777778,35.400000000000006L69.8025,35.400000000000006L70.12565972222222,35.400000000000006L70.44881944444445,35.400000000000006L70.77197916666667,35.400000000000006L71.09513888888888,35.400000000000006L71.41829861111111,35.400000000000006L71.74145833333334,35.400000000000006L72.06461805555556,35.400000000000006L72.38777777777777,35.400000000000006L72.7109375,35.400000000000006L73.03409722222223,35.400000000000006L73.35725694444444,35.400000000000006L73.68041666666667,35.400000000000006L74.00357638888889,35.400000000000006L74.3267361111111,35.400000000000006L74.64989583333333,35.400000000000006L74.97305555555555,35.400000000000006L75.29621527777778,35.400000000000006L75.619375,35.400000000000006L75.94253472222222,35.400000000000006L76.26569444444445,35.400000000000006L76.58885416666666,35.400000000000006L76.91201388888888,35.400000000000006L77.23517361111111,35.44051208496094L77.55833333333334,35.400000000000006L77.88149305555555,35.400000000000006L78.20465277777778,35.400000000000006L78.52781250000001,35.400000000000006L78.85097222222223,35.400000000000006L79.17413194444444,35.400000000000006L79.49729166666665,35.400000000000006L79.82045138888888,35.400000000000006L80.14361111111111,35.400000000000006L80.46677083333333,35.400000000000006L80.78993055555556,35.400000000000006L81.11309027777779,35.400000000000006L81.43625,35.400000000000006L81.75940972222222,35.400000000000006L82.08256944444445,35.400000000000006L82.40572916666666,35.400000000000006L82.72888888888889,35.400000000000006L83.05204861111112,35.400000000000006L83.37520833333333,35.400000000000006L83.69836805555556,35.400000000000006L84.02152777777776,35.400000000000006L84.34468749999999,35.400000000000006L84.66784722222222,35.400000000000006L84.99100694444444,35.400000000000006L85.31416666666667,35.400000000000006L85.6373263888889,35.400000000000006L85.96048611111111,35.400000000000006L86.28364583333334,35.400000000000006L86.60680555555555,35.400000000000006L86.92996527777777,35.400000000000006L87.253125,35.400000000000006L87.57628472222223,35.400000000000006L87.89944444444444,35.400000000000006L88.22260416666667,35.400000000000006L88.5457638888889,35.400000000000006L88.86892361111111,35.400000000000006L89.19208333333333,35.400000000000006L89.51524305555554,35.400000000000006L89.83840277777777,35.400000000000006L90.1615625,35.400000000000006L90.48472222222222,35.400000000000006L90.80788194444445,35.400000000000006L91.13104166666668,35.400000000000006L91.45420138888889,35.400000000000006L91.7773611111111,35.400000000000006L92.10052083333333,35.400000000000006L92.42368055555555,35.400000000000006L92.74684027777778,35.400000000000006L93.07000000000001,35.400000000000006L93.39315972222222,35.400000000000006L93.71631944444445,35.400000000000006L94.03947916666665,35.400000000000006L94.36263888888888,35.400000000000006L94.68579861111111,35.400000000000006L95.00895833333333,35.400000000000006L95.33211805555555,35.400000000000006L95.65527777777778,35.400000000000006L95.9784375,35.400000000000006L96.30159722222223,35.400000000000006L96.62475694444444,35.400000000000006L96.94791666666666,35.400000000000006L97.27107638888889,35.400000000000006L97.59423611111112,35.400000000000006L97.91739583333333,35.400000000000006L98.24055555555556,35.400000000000006L98.56371527777779,35.400000000000006L98.886875,35.400000000000006L99.21003472222222,35.400000000000006L99.53319444444443,35.400000000000006L99.85635416666666,35.400000000000006L100.17951388888889,35.400000000000006L100.5026736111111,35.400000000000006L100.82583333333334,35.400000000000006L101.14899305555556,35.42700805664063L101.47215277777778,35.400000000000006L101.7953125,35.400000000000006L102.11847222222222,35.400000000000006L102.44163194444444,35.400000000000006L102.76479166666667,35.400000000000006L103.0879513888889,35.400000000000006L103.41111111111111,35.400000000000006L103.73427083333334,35.400000000000006L104.05743055555554,35.400000000000006L104.38059027777777,35.400000000000006L104.70375,35.400000000000006L105.02690972222221,35.400000000000006L105.35006944444444,35.41350402832032L105.67322916666667,35.400000000000006L105.99638888888889,35.400000000000006L106.31954861111112,35.400000000000006L106.64270833333333,35.400000000000006L106.96586805555555,35.400000000000006L107.28902777777778,35.400000000000006L107.6121875,35.400000000000006L107.93534722222222,35.400000000000006L108.25850694444445,35.400000000000006L108.58166666666668,35.400000000000006L108.90482638888889,35.400000000000006L109.22798611111111,35.400000000000006L109.55114583333332,35.400000000000006L109.87430555555555,35.400000000000006L110.19746527777778,35.400000000000006L110.520625,35.400000000000006L110.84378472222222,35.400000000000006L111.16694444444445,35.400000000000006L111.49010416666667,35.400000000000006L111.81326388888888,35.400000000000006L112.13642361111111,35.400000000000006L112.45958333333333,35.400000000000006L112.78274305555556,35.400000000000006L113.10590277777779,35.400000000000006L113.4290625,35.400000000000006L113.75222222222223,35.400000000000006L114.07538194444446,35.400000000000006L114.39854166666666,35.400000000000006L114.72170138888889,35.400000000000006L115.0448611111111,35.400000000000006L115.36802083333333,35.400000000000006L115.69118055555556,35.400000000000006L116.01434027777778,35.400000000000006L116.3375,35.400000000000006L116.66065972222222,35.400000000000006L116.98381944444444,35.400000000000006L117.30697916666666,35.400000000000006L117.6301388888889,35.400000000000006L117.95329861111111,35.400000000000006L118.27645833333334,35.400000000000006L118.59961805555557,35.400000000000006L118.92277777777778,35.400000000000006L119.2459375,35.400000000000006L119.56909722222221,35.400000000000006L119.89225694444444,35.400000000000006L120.21541666666667,35.400000000000006L120.53857638888888,35.400000000000006L120.86173611111111,35.400000000000006L121.18489583333334,35.400000000000006L121.50805555555556,35.400000000000006L121.83121527777777,35.400000000000006L122.154375,35.400000000000006L122.47753472222222,35.400000000000006L122.80069444444445,35.400000000000006L123.12385416666667,35.400000000000006L123.44701388888889,35.400000000000006L123.77017361111112,35.400000000000006L124.09333333333335,35.400000000000006L124.41649305555555,35.400000000000006L124.73965277777778,35.400000000000006L125.06281249999999,35.400000000000006L125.38597222222222,35.400000000000006L125.70913194444445,35.400000000000006L126.03229166666667,35.400000000000006L126.3554513888889,35.400000000000006L126.67861111111111,35.400000000000006L127.00177083333332,35.400000000000006L127.32493055555555,35.400000000000006L127.64809027777778,35.400000000000006L127.97125,35.400000000000006L128.2944097222222,35.400000000000006L128.61756944444446,35.400000000000006L128.94072916666667,35.400000000000006L129.26388888888889,35.400000000000006L129.5870486111111,35.400000000000006L129.91020833333334,35.400000000000006L130.23336805555556,35.400000000000006L130.55652777777777,35.400000000000006L130.87968750000002,35.400000000000006L131.20284722222223,35.400000000000006L131.52600694444445,35.400000000000006L131.84916666666666,35.400000000000006L132.17232638888888,35.400000000000006L132.49548611111112,35.400000000000006L132.81864583333333,35.400000000000006L133.14180555555555,35.400000000000006L133.4649652777778,35.400000000000006L133.788125,35.400000000000006L134.11128472222222,35.400000000000006L134.43444444444444,35.400000000000006L134.75760416666665,35.400000000000006L135.0807638888889,35.400000000000006L135.4039236111111,35.400000000000006L135.72708333333333,35.400000000000006L136.05024305555557,35.400000000000006L136.37340277777778,35.400000000000006L136.6965625,35.400000000000006L137.0197222222222,35.400000000000006L137.34288194444443,35.400000000000006L137.66604166666667,35.400000000000006L137.9892013888889,35.400000000000006L138.3123611111111,35.400000000000006L138.63552083333335,35.400000000000006L138.95868055555556,35.400000000000006L139.28184027777777,35.400000000000006L139.605,35.400000000000006L139.92815972222223,35.400000000000006L140.25131944444445,35.400000000000006L140.57447916666666,35.400000000000006L140.8976388888889,35.400000000000006L141.22079861111112,35.400000000000006L141.54395833333334,35.400000000000006L141.86711805555555,35.400000000000006L142.19027777777777,35.400000000000006L142.5134375,35.400000000000006L142.83659722222222,35.400000000000006L143.15975694444444,35.400000000000006L143.48291666666668,35.400000000000006L143.8060763888889,35.400000000000006L144.1292361111111,35.400000000000006L144.45239583333333,35.400000000000006L144.77555555555554,35.400000000000006L145.09871527777779,35.400000000000006L145.421875,35.400000000000006L145.74503472222221,35.400000000000006L146.06819444444446,35.400000000000006L146.39135416666664,35.400000000000006L146.7145138888889,35.400000000000006L147.0376736111111,35.400000000000006L147.36083333333335,35.400000000000006L147.68399305555556,35.400000000000006L148.00715277777778,35.400000000000006L148.3303125,35.400000000000006L148.6534722222222,35.400000000000006L148.97663194444445,35.400000000000006L149.29979166666666,35.400000000000006L149.6229513888889,35.400000000000006L149.9461111111111,35.400000000000006L150.26927083333334,35.400000000000006L150.59243055555555,35.400000000000006L150.91559027777777,35.400000000000006L151.23875,35.400000000000006L151.56190972222223,35.400000000000006L151.88506944444444,35.400000000000006L152.20822916666665,35.400000000000006L152.5313888888889,35.400000000000006L152.8545486111111,35.400000000000006L153.17770833333333,35.400000000000006L153.50086805555557,35.400000000000006L153.82402777777776,35.400000000000006L154.1471875,35.400000000000006L154.47034722222222,35.400000000000006L154.79350694444446,35.400000000000006L155.11666666666667,35.400000000000006L155.43982638888892,35.400000000000006L155.7629861111111,35.400000000000006L156.08614583333332,35.400000000000006L156.40930555555556,35.400000000000006L156.73246527777778,35.400000000000006L157.05562500000002,35.400000000000006L157.3787847222222,35.400000000000006L157.70194444444445,35.400000000000006L158.02510416666667,35.400000000000006L158.34826388888888,35.400000000000006L158.67142361111112,35.400000000000006L158.9945833333333,35.400000000000006L159.31774305555555,35.400000000000006L159.64090277777777,35.400000000000006L159.9640625,35.400000000000006L160.28722222222223,35.400000000000006L160.61038194444444,35.400000000000006L160.93354166666666,35.400000000000006L161.25670138888887,35.400000000000006L161.57986111111111,35.400000000000006L161.90302083333333,35.400000000000006L162.22618055555557,35.400000000000006L162.5493402777778,35.400000000000006L162.8725,35.400000000000006L163.19565972222222,35.400000000000006L163.51881944444443,35.400000000000006L163.84197916666668,35.400000000000006L164.1651388888889,35.400000000000006L164.48829861111113,35.400000000000006L164.81145833333332,35.400000000000006L165.13461805555556,35.400000000000006L165.45777777777778,35.400000000000006L165.7809375,35.400000000000006L166.10409722222224,35.400000000000006L166.42725694444442,35.400000000000006L166.75041666666667,35.400000000000006L167.07357638888888,35.400000000000006L167.39673611111112,35.400000000000006L167.71989583333334,35.400000000000006L168.04305555555553,35.400000000000006L168.36621527777777,35.400000000000006L168.68937499999998,35.400000000000006L169.01253472222223,35.400000000000006L169.33569444444444,35.400000000000006L169.65885416666669,35.400000000000006L169.98201388888887,35.400000000000006L170.30517361111112,35.400000000000006L170.62833333333333,35.400000000000006L170.95149305555555,35.400000000000006L171.2746527777778,35.400000000000006L171.5978125,35.400000000000006L171.92097222222222,35.400000000000006L172.24413194444443,35.400000000000006L172.56729166666668,35.400000000000006L172.8904513888889,35.400000000000006L173.2136111111111,35.400000000000006L173.53677083333335,35.400000000000006L173.85993055555554,35.400000000000006L174.18309027777778,35.400000000000006L174.50625,35.400000000000006L174.82940972222224,35.400000000000006L175.15256944444445,35.400000000000006L175.4757291666667,35.400000000000006L175.79888888888888,35.400000000000006L176.1220486111111,35.400000000000006L176.44520833333334,35.400000000000006L176.76836805555556,35.400000000000006L177.0915277777778,35.400000000000006L177.41468749999999,35.400000000000006L177.73784722222223,35.400000000000006L178.06100694444444,35.400000000000006L178.38416666666666,35.400000000000006L178.7073263888889,35.400000000000006L179.0304861111111,35.400000000000006L179.35364583333333,35.400000000000006L179.67680555555555,35.400000000000006L179.9999652777778,35.400000000000006L180.323125,35.400000000000006L180.64628472222222,35.400000000000006L180.96944444444443,35.400000000000006L181.29260416666665,35.400000000000006L181.6157638888889,35.400000000000006L181.9389236111111,35.400000000000006L182.26208333333335,35.400000000000006L182.58524305555557,35.400000000000006L182.90840277777778,35.400000000000006L183.2315625,35.400000000000006L183.5547222222222,35.400000000000006L183.87788194444445,35.400000000000006L184.20104166666667,35.400000000000006L184.5242013888889,35.400000000000006L184.8473611111111,35.400000000000006L185.17052083333334,35.400000000000006L185.49368055555556,35.400000000000006L185.81684027777777,35.400000000000006L186.14000000000001,35.400000000000006L186.4631597222222,35.400000000000006L186.78631944444444,35.400000000000006L187.10947916666666,35.400000000000006L187.4326388888889,35.400000000000006L187.75579861111112,35.400000000000006L188.0789583333333,35.400000000000006L188.40211805555555,35.400000000000006L188.72527777777776,35.400000000000006L189.0484375,35.400000000000006L189.37159722222222,35.400000000000006L189.69475694444446,35.400000000000006L190.01791666666665,35.400000000000006L190.3410763888889,35.400000000000006L190.6642361111111,35.400000000000006L190.98739583333332,35.400000000000006L191.31055555555557,35.400000000000006L191.63371527777778,35.400000000000006L191.956875,35.400000000000006L192.2800347222222,35.400000000000006L192.60319444444445,35.400000000000006L192.92635416666667,35.400000000000006L193.24951388888888,35.400000000000006L193.57267361111113,35.400000000000006L193.89583333333331,35.400000000000006L194.21899305555556,35.400000000000006L194.54215277777777,35.400000000000006L194.86531250000002,35.400000000000006L195.18847222222223,35.400000000000006L195.51163194444447,35.400000000000006L195.83479166666666,35.400000000000006L196.15795138888888,35.400000000000006L196.48111111111112,35.400000000000006L196.80427083333333,35.400000000000006L197.12743055555558,35.400000000000006L197.45059027777776,35.400000000000006L197.77375,35.400000000000006L198.09690972222222,35.400000000000006L198.42006944444444,35.400000000000006L198.74322916666668,35.400000000000006L199.06638888888887,35.400000000000006L199.3895486111111,35.400000000000006L199.71270833333332,35.400000000000006L200.03586805555557,35.400000000000006L200.35902777777778,35.400000000000006L200.6821875,35.41350402832032L201.0053472222222,35.400000000000006L201.32850694444443,35.400000000000006L201.65166666666667,35.400000000000006L201.97482638888889,35.400000000000006L202.29798611111113,35.400000000000006L202.62114583333334,35.400000000000006L202.94430555555556,35.400000000000006L203.26746527777777,35.400000000000006L203.590625,35.400000000000006L203.91378472222223,35.400000000000006L204.23694444444445,35.400000000000006L204.5601041666667,35.400000000000006L204.88326388888888,35.400000000000006L205.20642361111112,35.400000000000006L205.52958333333333,35.400000000000006L205.85274305555555,35.400000000000006L206.1759027777778,35.400000000000006L206.49906249999998,35.400000000000006L206.82222222222222,35.400000000000006L207.14538194444444,35.400000000000006L207.46854166666668,35.400000000000006L207.7917013888889,35.400000000000006L208.11486111111108,35.400000000000006L208.43802083333333,35.400000000000006L208.76118055555554,35.400000000000006L209.08434027777778,35.400000000000006L209.4075,35.400000000000006L209.73065972222224,35.400000000000006L210.05381944444443,35.400000000000006L210.37697916666667,35.400000000000006L210.7001388888889,35.400000000000006L211.0232986111111,35.400000000000006L211.34645833333335,35.400000000000006L211.66961805555556,35.400000000000006L211.99277777777777,35.400000000000006L212.3159375,35.400000000000006L212.63909722222223,35.400000000000006L212.96225694444445,35.400000000000006L213.28541666666666,35.400000000000006L213.6085763888889,35.400000000000006L213.9317361111111,35.400000000000006L214.25489583333334,35.400000000000006L214.57805555555555,35.400000000000006L214.9012152777778,35.400000000000006L215.224375,35.400000000000006L215.54753472222222,35.400000000000006L215.87069444444444,35.400000000000006L216.19385416666665,35.400000000000006L216.5170138888889,35.400000000000006L216.8401736111111,35.400000000000006L217.16333333333336,35.400000000000006L217.48649305555554,35.400000000000006L217.80965277777779,35.400000000000006L218.1328125,35.400000000000006L218.45597222222221,35.400000000000006L218.77913194444446,35.400000000000006L219.10229166666664,35.400000000000006L219.4254513888889,35.400000000000006L219.7486111111111,35.400000000000006L220.07177083333335,35.400000000000006L220.39493055555556,35.400000000000006L220.71809027777778,35.400000000000006L221.04125,35.400000000000006L221.3644097222222,35.400000000000006L221.68756944444445,35.400000000000006L222.01072916666666,35.400000000000006L222.3338888888889,35.400000000000006L222.6570486111111,35.400000000000006L222.98020833333334,35.400000000000006L223.30336805555555,35.400000000000006L223.62652777777777,35.400000000000006L223.9496875,35.400000000000006L224.27284722222223,35.400000000000006L224.59600694444444,35.400000000000006L224.91916666666665,35.400000000000006L225.2423263888889,35.400000000000006L225.5654861111111,35.400000000000006L225.88864583333333,35.400000000000006L226.21180555555557,35.400000000000006L226.53496527777776,35.400000000000006L226.858125,35.400000000000006L227.18128472222222,35.400000000000006L227.50444444444446,35.400000000000006L227.82760416666667,35.400000000000006L228.15076388888892,35.400000000000006L228.4739236111111,35.400000000000006L228.79708333333332,35.400000000000006L229.12024305555556,35.400000000000006L229.44340277777778,35.400000000000006L229.76656250000002,35.400000000000006L230.0897222222222,35.400000000000006L230.41288194444445,35.400000000000006L230.73604166666667,35.400000000000006L231.05920138888888,35.400000000000006L231.38236111111112,35.400000000000006L231.7055208333333,35.400000000000006L232.02868055555555,35.400000000000006L232.35184027777777,35.400000000000006L232.675,35.400000000000006L232.99815972222223,35.400000000000006L233.32131944444444,35.400000000000006L233.64447916666666,35.400000000000006L233.96763888888887,35.400000000000006L234.29079861111111,35.400000000000006L234.61395833333333,35.400000000000006L234.93711805555557,35.400000000000006L235.2602777777778,35.400000000000006L235.5834375,35.400000000000006L235.90659722222222,35.400000000000006L236.22975694444443,35.400000000000006L236.55291666666668,35.400000000000006L236.8760763888889,35.400000000000006L237.19923611111113,35.400000000000006L237.52239583333332,35.400000000000006L237.84555555555556,35.400000000000006L238.16871527777778,35.400000000000006L238.491875,35.400000000000006L238.81503472222224,35.400000000000006L239.13819444444442,35.400000000000006L239.46135416666667,35.400000000000006L239.78451388888888,35.400000000000006L240.10767361111112,35.400000000000006L240.43083333333334,35.400000000000006L240.75399305555553,35.400000000000006L241.07715277777777,35.400000000000006L241.40031249999998,35.400000000000006L241.72347222222223,35.400000000000006L242.04663194444444,35.400000000000006L242.36979166666669,35.400000000000006L242.69295138888887,35.400000000000006L243.01611111111112,35.400000000000006L243.33927083333333,35.400000000000006L243.66243055555555,35.400000000000006L243.9855902777778,35.400000000000006L244.30875,35.400000000000006L244.63190972222222,35.400000000000006L244.95506944444443,35.400000000000006L245.27822916666668,35.400000000000006L245.6013888888889,35.400000000000006L245.9245486111111,35.400000000000006L246.24770833333335,35.400000000000006L246.57086805555554,35.400000000000006L246.89402777777778,35.41350402832032L247.2171875,35.400000000000006L247.54034722222224,35.400000000000006L247.86350694444445,35.400000000000006L248.1866666666667,35.400000000000006L248.50982638888888,35.400000000000006L248.8329861111111,35.400000000000006L249.15614583333334,35.400000000000006L249.47930555555556,35.400000000000006L249.8024652777778,35.400000000000006L250.12562499999999,35.400000000000006L250.44878472222223,35.400000000000006L250.77194444444444,35.400000000000006L251.09510416666666,35.400000000000006L251.4182638888889,35.400000000000006L251.7414236111111,35.400000000000006L252.06458333333333,35.400000000000006L252.38774305555555,35.400000000000006L252.7109027777778,35.400000000000006L253.0340625,35.400000000000006L253.35722222222222,35.400000000000006L253.68038194444443,35.400000000000006L254.00354166666665,35.400000000000006L254.3267013888889,35.400000000000006L254.6498611111111,35.400000000000006L254.97302083333335,35.400000000000006L255.29618055555557,35.400000000000006L255.61934027777778,35.400000000000006L255.9425,35.400000000000006L256.2656597222222,35.400000000000006L256.5888194444444,35.400000000000006L256.91197916666664,35.400000000000006L257.2351388888889,35.400000000000006L257.5582986111111,35.400000000000006L257.88145833333334,35.400000000000006L258.20461805555556,35.400000000000006L258.52777777777777,35.400000000000006L258.8509375,35.400000000000006L259.1740972222222,35.400000000000006L259.4972569444445,35.400000000000006L259.8204166666667,35.400000000000006L260.1435763888889,35.400000000000006L260.4667361111111,35.400000000000006L260.78989583333333,35.400000000000006L261.11305555555555,35.400000000000006L261.43621527777776,35.400000000000006L261.75937500000003,35.400000000000006L262.0825347222222,35.400000000000006L262.40569444444446,35.400000000000006L262.7288541666667,35.400000000000006L263.0520138888889,35.400000000000006L263.3751736111111,35.400000000000006L263.6983333333333,35.400000000000006L264.02149305555554,35.400000000000006L264.34465277777775,35.400000000000006L264.6678125,35.400000000000006L264.99097222222224,35.41350402832032L265.31413194444445,35.400000000000006L265.63729166666667,35.400000000000006L265.9604513888889,35.400000000000006L266.2836111111111,35.400000000000006L266.6067708333333,35.400000000000006L266.9299305555556,35.400000000000006L267.25309027777774,35.400000000000006L267.57625,35.400000000000006L267.89940972222223,35.400000000000006L268.22256944444445,35.400000000000006L268.54572916666666,35.400000000000006L268.8688888888889,35.400000000000006L269.1920486111111,35.400000000000006L269.5152083333333,35.400000000000006L269.8383680555556,35.400000000000006L270.1615277777778,35.400000000000006L270.4846875,35.400000000000006L270.8078472222222,35.400000000000006L271.13100694444444,35.400000000000006L271.45416666666665,35.400000000000006L271.77732638888887,35.400000000000006L272.10048611111114,35.400000000000006L272.42364583333335,35.400000000000006L272.74680555555557,35.400000000000006L273.0699652777778,35.400000000000006L273.393125,35.400000000000006L273.7162847222222,35.400000000000006L274.0394444444444,35.400000000000006L274.3626041666667,35.400000000000006L274.68576388888886,35.400000000000006L275.00892361111113,35.400000000000006L275.33208333333334,35.400000000000006L275.65524305555556,35.400000000000006L275.9784027777778,35.400000000000006L276.3015625,35.400000000000006L276.6247222222222,35.400000000000006L276.9478819444444,35.400000000000006L277.2710416666667,35.400000000000006L277.5942013888889,35.400000000000006L277.9173611111111,35.400000000000006L278.24052083333333,35.400000000000006L278.56368055555555,35.41350402832032L278.88684027777776,35.400000000000006L279.21,35.400000000000006L279.53315972222225,35.400000000000006L279.85631944444447,35.400000000000006L280.1794791666667,35.41350402832032L280.5026388888889,35.400000000000006L280.8257986111111,35.400000000000006L281.1489583333333,35.400000000000006L281.47211805555554,35.400000000000006L281.7952777777778,35.400000000000006L282.11843749999997,35.400000000000006" style="fill: none;" fill="none"></path></g><g><path stroke="rgb(0, 119, 187)" stroke-width="2px" d="M61.40034722222222,327.2729621887207L64.63194444444444,129.74103240966798L67.86354166666666,214.34701080322264L71.09513888888888,154.52105941772462L74.3267361111111,162.13206481933594L77.55833333333334,133.28097839355468L80.78993055555556,107.26195678710937L84.02152777777776,163.01698379516603L87.253125,141.95394058227538L90.48472222222222,171.68994598388673L93.71631944444445,109.73994598388671L96.94791666666666,167.6190216064453L100.17951388888889,164.2559783935547L103.41111111111111,114.5190216064453L106.64270833333333,93.2789405822754L109.87430555555555,126.20095138549806L113.10590277777779,100.35896759033203L116.3375,166.38002700805663L119.56909722222221,129.38695678710937L122.80069444444445,99.82798919677734L126.03229166666667,109.91698379516602L129.26388888888889,71.508016204834L132.49548611111112,141.77703781127929L135.72708333333333,118.76698379516603L138.95868055555556,104.07595138549804L142.19027777777777,111.15597839355469L145.421875,150.8039405822754L148.6534722222222,113.28002700805663L151.88506944444444,118.23600540161132L155.11666666666667,121.24497299194337L158.34826388888888,135.05095138549805L161.57986111111111,195.40801620483398L164.81145833333332,98.41195678710938L168.04305555555553,92.925L171.2746527777778,105.66902160644531L174.50625,115.2270378112793L177.73784722222223,129.38695678710937L180.96944444444443,111.86399459838867L184.20104166666667,87.08396759033202L187.4326388888889,73.63206481933594L190.6642361111111,100.00502700805664L193.89583333333331,84.42894058227539L194.54215277777777,77.34904861450195L195.18847222222223,87.96902160644531L195.83479166666666,89.38505401611329L196.48111111111112,115.58097839355469L197.12743055555558,111.15597839355469L197.77375,123.54605941772462L198.42006944444444,76.46399459838868L199.06638888888887,105.31494598388672L199.71270833333332,94.87201080322265L200.35902777777778,102.30597839355468L201.0053472222222,100.71304321289062L201.65166666666667,96.64198379516601L202.29798611111113,89.38505401611329L202.94430555555556,89.38505401611329L203.590625,132.39605941772462L204.23694444444445,101.9520378112793L204.88326388888888,125.66997299194335L205.52958333333333,94.51793518066407L206.1759027777778,104.43002700805664L206.82222222222222,101.775L207.46854166666668,118.05896759033203L208.11486111111108,106.2L208.76118055555554,140.7149459838867L209.4075,93.45597839355469L210.05381944444443,88.1460594177246L210.7001388888889,100.00502700805664L211.34645833333335,104.96100540161133L211.99277777777777,109.73994598388671L212.63909722222223,108.14701080322266L213.28541666666666,96.81902160644532L213.9317361111111,109.91698379516602L214.57805555555555,75.5789405822754L215.224375,132.75L215.87069444444444,112.21793518066406L216.5170138888889,155.0520378112793L217.16333333333336,74.6940216064453L217.80965277777779,104.60706481933593L218.45597222222221,181.9559783935547L219.10229166666664,144.60896759033204L219.7486111111111,74.33994598388672L220.39493055555556,70.6229621887207L221.04125,69.91494598388671L221.68756944444445,102.12894058227539L222.3338888888889,127.43994598388673L222.98020833333334,105.13804321289062L223.62652777777777,106.3770378112793L224.27284722222223,85.13695678710938L224.91916666666665,113.81100540161134L225.5654861111111,86.55298919677735L226.21180555555557,99.29701080322266L226.858125,96.28804321289063L227.50444444444446,113.28002700805663L228.15076388888892,129.21005401611328L228.79708333333332,89.73899459838867L229.44340277777778,83.366983795166L230.0897222222222,84.96005401611329L230.73604166666667,114.34198379516602L231.38236111111112,80.35801620483399L232.02868055555555,94.34103240966797L232.675,77.52595138549805L233.32131944444444,91.86304321289063L233.96763888888887,102.83695678710937L234.61395833333333,112.39497299194336L235.2602777777778,97.7039405822754L235.90659722222222,119.12105941772461L236.55291666666668,68.32201080322265L237.19923611111113,91.68600540161133L237.84555555555556,91.50896759033203L238.491875,103.01399459838868L239.13819444444442,78.94198379516602L239.78451388888888,98.41195678710938L240.43083333333334,93.1020378112793L241.07715277777777,115.75801620483398L241.72347222222223,84.2520378112793L242.36979166666669,103.72201080322266L243.01611111111112,91.33206481933594L243.66243055555555,91.33206481933594L244.30875,96.64198379516601L244.95506944444443,101.06698379516601L245.6013888888889,104.43002700805664L246.24770833333335,102.48301620483399L246.89402777777778,97.1729621887207L247.54034722222224,91.33206481933594L248.1866666666667,106.0229621887207L248.8329861111111,91.86304321289063L249.47930555555556,123.3690216064453L250.12562499999999,101.9520378112793L250.77194444444444,93.63301620483398L251.4182638888889,96.46494598388672L252.06458333333333,138.06005401611327L252.7109027777778,107.96997299194337L253.35722222222222,102.48301620483399L254.00354166666665,119.475L254.6498611111111,113.45706481933593L255.29618055555557,100.53600540161133L255.9425,114.6960594177246L256.5888194444444,117.52798919677736L257.2351388888889,132.9270378112793L257.88145833333334,100.35896759033203L258.52777777777777,155.22894058227538L259.1740972222222,95.22595138549805L259.8204166666667,113.63396759033202L260.4667361111111,117.52798919677736L261.11305555555555,99.47404861450195L261.75937500000003,94.34103240966797L262.40569444444446,104.07595138549804L263.0520138888889,117.88206481933594L263.6983333333333,104.07595138549804L264.34465277777775,147.0869567871094L264.99097222222224,95.93396759033203L265.63729166666667,136.8210594177246L266.2836111111111,98.94293518066407L266.9299305555556,106.2L267.57625,123.72296218872071L268.22256944444445,115.2270378112793L268.8688888888889,143.01603240966796L269.5152083333333,109.56304321289062L270.1615277777778,96.46494598388672L270.8078472222222,194.1690216064453L271.45416666666665,126.55502700805664L272.10048611111114,135.93600540161134L272.74680555555557,118.41304321289061L273.393125,158.06100540161134L274.0394444444444,107.26195678710937L274.68576388888886,111.33301620483398L275.33208333333334,124.60801620483397L275.9784027777778,206.02798919677736L276.6247222222222,121.77595138549805L277.2710416666667,97.35L277.9173611111111,119.475L278.56368055555555,105.66902160644531L279.21,93.1020378112793L279.85631944444447,105.49198379516602L280.5026388888889,111.68695678710938L281.1489583333333,153.9899459838867L281.7952777777778,140.00706481933594" style="fill: none;" fill="none"></path></g><g><path stroke="rgb(238, 51, 119)" stroke-width="2px" d="M58.16875,229.24195404052733L61.40034722222222,161.80324172973633L64.63194444444444,177.61699905395508L67.86354166666666,143.54309463500977L71.09513888888888,145.63500366210937L74.3267361111111,137.12530517578125L77.55833333333334,127.80023345947265L80.78993055555556,107.12894210815429L84.02152777777776,137.23171691894532L87.253125,96.03106155395508L90.48472222222222,131.77136306762696L93.71631944444445,109.32726287841797L96.94791666666666,87.23777847290039L100.17951388888889,104.36331710815429L103.41111111111111,97.20105056762695L106.64270833333333,115.99312133789061L109.87430555555555,110.60366363525391L113.10590277777779,105.24972152709961L116.3375,119.92887039184569L119.56909722222221,91.27980422973633L122.80069444444445,88.15956344604491L126.03229166666667,90.81891174316407L129.26388888888889,91.03160018920899L132.49548611111112,82.02562866210938L135.72708333333333,93.12350921630859L138.95868055555556,99.15116729736329L142.19027777777777,96.52746963500977L145.421875,78.58628768920899L148.6534722222222,91.27980422973633L151.88506944444444,92.62710113525391L155.11666666666667,99.71847152709961L158.34826388888888,103.68960113525391L161.57986111111111,103.44153213500977L164.81145833333332,94.11632537841797L168.04305555555553,95.32182998657227L171.2746527777778,78.19629135131835L174.50625,77.69988327026367L177.73784722222223,81.06832809448242L180.96944444444443,98.30027847290039L184.20104166666667,83.51471786499023L187.4326388888889,69.93479690551759L190.6642361111111,85.3585578918457L193.89583333333331,88.37238693237305L194.54215277777777,91.10249633789063L195.18847222222223,72.59414520263671L195.83479166666666,75.99797058105469L196.48111111111112,91.31531982421875L197.12743055555558,89.89699172973633L197.77375,87.94687499999999L198.42006944444444,71.88491363525391L199.06638888888887,83.37292556762695L199.71270833333332,81.60011672973633L200.35902777777778,73.83503036499023L201.0053472222222,84.1530532836914L201.65166666666667,92.66261672973633L202.29798611111113,70.96312866210938L202.94430555555556,84.01112594604491L203.590625,84.93304595947266L204.23694444444445,85.81945037841797L204.88326388888888,89.79057998657227L205.52958333333333,76.17527847290039L206.1759027777778,74.9697738647461L206.82222222222222,95.81823806762695L207.46854166666668,95.64093017578125L208.11486111111108,92.13082809448242L208.76118055555554,99.3639907836914L209.4075,85.60676193237305L210.05381944444443,84.08215713500977L210.7001388888889,90.74801559448242L211.34645833333335,69.97031249999999L211.99277777777777,93.40722885131837L212.63909722222223,99.71847152709961L213.28541666666666,98.05207443237305L213.9317361111111,95.49913787841797L214.57805555555555,89.61340713500977L215.224375,78.37359924316407L215.87069444444444,84.57843017578125L216.5170138888889,88.69148712158203L217.16333333333336,84.72035751342774L217.80965277777779,89.08148345947265L218.45597222222221,100.81769943237305L219.10229166666664,105.88792190551757L219.7486111111111,77.55809097290039L220.39493055555556,93.19440536499023L221.04125,91.88262405395508L221.68756944444445,83.79843749999999L222.3338888888889,86.42227020263671L222.98020833333334,92.16620864868165L223.62652777777777,82.16742095947266L224.27284722222223,92.87530517578125L224.91916666666665,92.83992462158203L225.5654861111111,82.27383270263671L226.21180555555557,78.83449172973633L226.858125,71.99132537841797L227.50444444444446,84.54304962158203L228.15076388888892,91.91800460815429L228.79708333333332,86.95405883789063L229.44340277777778,81.03281249999999L230.0897222222222,73.30324172973633L230.73604166666667,75.89155883789063L231.38236111111112,93.478125L232.02868055555555,90.00340347290039L232.675,93.12350921630859L233.32131944444444,94.61273345947265L233.96763888888887,84.04664154052735L234.61395833333333,79.40179595947266L235.2602777777778,96.45643844604493L235.90659722222222,101.91679229736329L236.55291666666668,87.62777481079102L237.19923611111113,85.64214248657227L237.84555555555556,85.74855422973633L238.491875,78.90538787841797L239.13819444444442,95.99554595947265L239.78451388888888,73.62234191894531L240.43083333333334,101.9523078918457L241.07715277777777,81.45832443237305L241.72347222222223,82.48652114868163L242.36979166666669,80.28820037841797L243.01611111111112,92.59172058105469L243.66243055555555,81.13922424316407L244.30875,77.30988693237305L244.95506944444443,95.64093017578125L245.6013888888889,85.46496963500977L246.24770833333335,83.72754135131835L246.89402777777778,95.96003036499023L247.54034722222224,73.12593383789063L248.1866666666667,85.89034652709961L248.8329861111111,92.52082443237305L249.47930555555556,85.3585578918457L250.12562499999999,98.90296325683593L250.77194444444444,87.20226287841797L251.4182638888889,85.03945770263671L252.06458333333333,85.57124633789063L252.7109027777778,91.95352020263672L253.35722222222222,83.72754135131835L254.00354166666665,87.02495498657227L254.6498611111111,87.30867462158203L255.29618055555557,92.30800094604493L255.9425,114.39762039184569L256.5888194444444,98.93847885131837L257.2351388888889,110.4264907836914L257.88145833333334,96.70464248657227L258.52777777777777,94.15184097290039L259.1740972222222,99.47026748657227L259.8204166666667,84.47215347290039L260.4667361111111,95.2155532836914L261.11305555555555,85.71303863525391L261.75937500000003,84.86214981079102L262.40569444444446,90.78339614868165L263.0520138888889,102.16499633789063L263.6983333333333,112.12840347290039L264.34465277777775,91.77621231079101L264.99097222222224,90.67698440551757L265.63729166666667,102.41320037841797L266.2836111111111,109.43367462158203L266.9299305555556,93.97453308105469L267.57625,106.66804962158203L268.22256944444445,92.91082077026367L268.8688888888889,98.26476287841797L269.5152083333333,111.66737594604493L270.1615277777778,88.37238693237305L270.8078472222222,93.72632904052735L271.45416666666665,111.66737594604493L272.10048611111114,105.85254135131837L272.74680555555557,76.77796325683595L273.393125,104.00883636474609L274.0394444444444,92.34351654052735L274.68576388888886,89.36520309448242L275.33208333333334,85.21676559448242L275.9784027777778,92.76902847290039L276.6247222222222,99.61219482421875L277.2710416666667,102.30678863525391L277.9173611111111,83.79843749999999L278.56368055555555,96.24375L279.21,93.08812866210937L279.85631944444447,92.69813232421875L280.5026388888889,102.87409286499023L281.1489583333333,101.59769210815429L281.7952777777778,103.3351203918457" style="fill: none;" fill="none"></path></g><g><path stroke="rgb(255, 112, 67)" stroke-width="2px" d="M58.16875,236.11793518066406L58.81506944444445,166.38002700805663L59.46138888888889,143.01603240966796L60.107708333333335,172.3979621887207L60.75402777777778,184.7880432128906L61.40034722222222,163.5479621887207L62.046666666666674,182.66399459838868L62.69298611111111,148.14904861450196L63.339305555555555,128.325L63.985625,169.0350540161133L64.63194444444444,179.12404861450196L65.27826388888889,146.2020378112793L65.92458333333333,144.25502700805663L66.57090277777777,145.67105941772462L67.21722222222222,132.21902160644532L67.86354166666666,145.316983795166L68.5098611111111,129.56399459838866L69.15618055555555,132.5729621887207L69.8025,164.07894058227538L70.44881944444445,126.55502700805664L71.09513888888888,145.316983795166L71.74145833333334,142.48505401611328L72.38777777777777,138.59103240966797L73.03409722222223,132.21902160644532L73.68041666666667,140.7149459838867L74.3267361111111,134.51997299194335L74.97305555555555,130.44904861450195L75.619375,112.92595138549805L76.26569444444445,146.55597839355468L76.91201388888888,127.9710594177246L77.55833333333334,126.90896759033203L78.20465277777778,107.79293518066406L78.85097222222223,127.26304321289064L79.49729166666665,119.82894058227538L80.14361111111111,114.5190216064453L80.78993055555556,107.26195678710937L81.43625,150.2729621887207L82.08256944444445,127.08600540161132L82.72888888888889,134.69701080322267L83.37520833333333,114.87296218872069L84.02152777777776,140.18396759033203L84.66784722222222,151.15801620483398L85.31416666666667,115.58097839355469L85.96048611111111,123.54605941772462L86.60680555555555,95.04904861450196L87.253125,93.2789405822754L87.89944444444444,109.56304321289062L88.5457638888889,122.13002700805663L89.19208333333333,113.63396759033202L89.83840277777777,104.96100540161133L90.48472222222222,131.15706481933594L91.13104166666668,92.925L91.7773611111111,91.86304321289063L92.42368055555555,101.5979621887207L93.07000000000001,113.10298919677734L93.71631944444445,110.625L94.36263888888888,107.26195678710937L95.00895833333333,118.41304321289061L95.65527777777778,103.36793518066406L96.30159722222223,104.60706481933593L96.94791666666666,87.79198379516602L97.59423611111112,117.17404861450194L98.24055555555556,113.28002700805663L98.886875,107.08505401611328L99.53319444444443,86.73002700805664L100.17951388888889,106.0229621887207L100.82583333333334,116.81997299194336L101.47215277777778,101.06698379516601L102.11847222222222,119.12105941772461L102.76479166666667,116.46603240966797L103.41111111111111,98.05801620483399L104.05743055555554,101.4210594177246L104.70375,83.54402160644531L105.35006944444444,92.3940216064453L105.99638888888889,123.3690216064453L106.64270833333333,112.92595138549805L107.28902777777778,91.33206481933594L107.93534722222222,103.19103240966797L108.58166666666668,104.43002700805664L109.22798611111111,96.81902160644532L109.87430555555555,110.27105941772462L110.520625,113.10298919677734L111.16694444444445,83.72105941772462L111.81326388888888,108.50095138549804L112.45958333333333,106.90801620483398L113.10590277777779,103.19103240966797L113.75222222222223,87.43804321289063L114.39854166666666,127.79402160644531L115.0448611111111,114.34198379516602L115.69118055555556,135.40502700805663L116.3375,120.18301620483399L116.98381944444444,112.92595138549805L117.6301388888889,87.08396759033202L118.27645833333334,102.83695678710937L118.92277777777778,109.38600540161133L119.56909722222221,90.97798919677734L120.21541666666667,107.08505401611328L120.86173611111111,98.05801620483399L121.50805555555556,112.92595138549805L122.154375,94.69497299194336L122.80069444444445,93.63301620483398L123.44701388888889,89.73899459838867L124.09333333333335,76.99497299194336L124.73965277777778,81.59701080322266L125.38597222222222,119.65203781127929L126.03229166666667,87.79198379516602L126.67861111111111,105.13804321289062L127.32493055555555,74.33994598388672L127.97125,93.63301620483398L128.61756944444446,75.5789405822754L129.26388888888889,89.38505401611329L129.91020833333334,89.20801620483398L130.55652777777777,96.28804321289063L131.20284722222223,78.58804321289062L131.84916666666666,86.37595138549806L132.49548611111112,80.88899459838866L133.14180555555555,89.73899459838867L133.788125,86.02201080322266L134.43444444444444,74.87105941772461L135.0807638888889,90.80095138549805L135.72708333333333,93.81005401611328L136.37340277777778,106.3770378112793L137.0197222222222,101.06698379516601L137.66604166666667,94.16399459838867L138.3123611111111,90.26997299194336L138.95868055555556,100.71304321289062L139.605,95.58002700805665L140.25131944444445,115.93505401611327L140.8976388888889,70.26902160644532L141.54395833333334,104.60706481933593L142.19027777777777,96.11100540161132L142.83659722222222,102.66005401611328L143.48291666666668,103.19103240966797L144.1292361111111,104.60706481933593L144.77555555555554,121.77595138549805L145.421875,75.0479621887207L146.06819444444446,88.5L146.7145138888889,82.48206481933595L147.36083333333335,79.64999999999999L148.00715277777778,94.69497299194336L148.6534722222222,93.45597839355469L149.29979166666666,87.26100540161133L149.9461111111111,104.25298919677735L150.59243055555555,90.09293518066406L151.23875,81.06603240966797L151.88506944444444,92.7479621887207L152.5313888888889,87.96902160644531L153.17770833333333,96.81902160644532L153.82402777777776,87.43804321289063L154.47034722222222,103.54497299194335L155.11666666666667,101.9520378112793L155.7629861111111,124.43097839355468L156.40930555555556,118.05896759033203L157.05562500000002,103.19103240966797L157.70194444444445,86.73002700805664L158.34826388888888,107.79293518066406L158.9945833333333,91.50896759033203L159.64090277777777,112.57201080322265L160.28722222222223,123.3690216064453L160.93354166666666,125.84701080322264L161.57986111111111,105.8460594177246L162.22618055555557,109.73994598388671L162.8725,83.366983795166L163.51881944444443,92.21698379516602L164.1651388888889,83.18994598388672L164.81145833333332,101.5979621887207L165.45777777777778,102.66005401611328L166.10409722222224,84.78301620483398L166.75041666666667,79.4729621887207L167.39673611111112,85.84497299194335L168.04305555555553,90.80095138549805L168.68937499999998,79.4729621887207L169.33569444444444,71.33097839355469L169.98201388888887,78.41100540161132L170.62833333333333,96.28804321289063L171.2746527777778,81.41997299194337L171.92097222222222,92.7479621887207L172.56729166666668,92.57105941772461L173.2136111111111,76.64103240966797L173.85993055555554,64.60502700805664L174.50625,75.0479621887207L175.15256944444445,81.77404861450195L175.79888888888888,85.49103240966797L176.44520833333334,90.80095138549805L177.0915277777778,82.65896759033204L177.73784722222223,79.2960594177246L178.38416666666666,84.075L179.0304861111111,87.26100540161133L179.67680555555555,83.01304321289062L180.323125,80.35801620483399L180.96944444444443,96.81902160644532L181.6157638888889,94.51793518066407L182.26208333333335,93.45597839355469L182.90840277777778,85.31399459838867L183.5547222222222,89.73899459838867L184.20104166666667,81.06603240966797L184.8473611111111,73.98600540161134L185.49368055555556,100.71304321289062L186.14000000000001,93.45597839355469L186.78631944444444,84.78301620483398L187.4326388888889,70.44605941772461L188.0789583333333,86.19904861450196L188.72527777777776,74.51698379516601L189.37159722222222,84.2520378112793L190.01791666666665,94.51793518066407L190.6642361111111,84.96005401611329L191.31055555555557,95.04904861450196L191.956875,91.50896759033203L192.60319444444445,82.65896759033204L193.24951388888888,87.08396759033202L193.89583333333331,85.31399459838867L194.21899305555556,71.68505401611328L194.54215277777777,90.09293518066406L194.86531250000002,80.00394058227539L195.18847222222223,72.39293518066405L195.51163194444447,85.66793518066406L195.83479166666666,74.16304321289063L196.15795138888888,85.66793518066406L196.48111111111112,85.84497299194335L196.80427083333333,76.11005401611328L197.12743055555558,89.91603240966796L197.45059027777776,99.47404861450195L197.77375,86.90706481933593L198.09690972222222,88.1460594177246L198.42006944444444,73.27798919677734L198.74322916666668,69.91494598388671L199.06638888888887,82.83600540161133L199.3895486111111,73.63206481933594L199.71270833333332,81.24293518066406L200.03586805555557,78.41100540161132L200.35902777777778,73.27798919677734L200.6821875,86.55298919677735L201.0053472222222,85.84497299194335L201.32850694444443,71.15394058227538L201.65166666666667,93.1020378112793L201.97482638888889,88.1460594177246L202.29798611111113,70.6229621887207L202.62114583333334,76.64103240966797L202.94430555555556,83.01304321289062L203.26746527777777,76.11005401611328L203.590625,82.30502700805664L203.91378472222223,83.366983795166L204.23694444444445,84.78301620483398L204.5601041666667,96.46494598388672L204.88326388888888,86.19904861450196L205.20642361111112,79.64999999999999L205.52958333333333,76.99497299194336L205.85274305555555,78.94198379516602L206.1759027777778,74.51698379516601L206.49906249999998,86.19904861450196L206.82222222222222,97.7039405822754L207.14538194444444,85.49103240966797L207.46854166666668,96.46494598388672L207.7917013888889,91.68600540161133L208.11486111111108,88.3229621887207L208.43802083333333,97.5270378112793L208.76118055555554,99.29701080322266L209.08434027777778,85.31399459838867L209.4075,84.42894058227539L209.73065972222224,89.20801620483398L210.05381944444443,82.48206481933595L210.37697916666667,83.18994598388672L210.7001388888889,93.63301620483398L211.0232986111111,81.41997299194337L211.34645833333335,68.49904861450194L211.66961805555556,85.84497299194335L211.99277777777777,95.58002700805665L212.3159375,88.1460594177246L212.63909722222223,100.71304321289062L212.96225694444445,87.43804321289063L213.28541666666666,107.43899459838867L213.6085763888889,91.86304321289063L213.9317361111111,100.18206481933593L214.25489583333334,90.97798919677734L214.57805555555555,92.57105941772461L214.9012152777778,86.19904861450196L215.224375,78.58804321289062L215.54753472222222,70.8L215.87069444444444,86.73002700805664L216.19385416666665,89.38505401611329L216.5170138888889,89.91603240966796L216.8401736111111,96.46494598388672L217.16333333333336,85.84497299194335L217.48649305555554,98.23505401611328L217.80965277777779,87.61494598388673L218.1328125,104.60706481933593L218.45597222222221,101.775L218.77913194444446,87.43804321289063L219.10229166666664,109.38600540161133L219.4254513888889,80.88899459838866L219.7486111111111,77.70298919677735L220.07177083333335,73.98600540161134L220.39493055555556,92.57105941772461L220.71809027777778,76.64103240966797L221.04125,89.56195678710938L221.3644097222222,76.28695678710938L221.68756944444445,84.075L222.01072916666666,87.08396759033202L222.3338888888889,84.96005401611329L222.6570486111111,89.73899459838867L222.98020833333334,87.96902160644531L223.30336805555555,84.60597839355468L223.62652777777777,81.95095138549804L223.9496875,88.3229621887207L224.27284722222223,94.51793518066407L224.59600694444444,85.84497299194335L224.91916666666665,90.97798919677734L225.2423263888889,74.87105941772461L225.5654861111111,81.95095138549804L225.88864583333333,85.13695678710938L226.21180555555557,78.76494598388672L226.53496527777776,75.75597839355468L226.858125,73.10095138549805L227.18128472222222,74.33994598388672L227.50444444444446,85.84497299194335L227.82760416666667,94.16399459838867L228.15076388888892,94.69497299194336L228.4739236111111,81.59701080322266L228.79708333333332,91.15502700805663L229.12024305555556,95.75706481933594L229.44340277777778,84.96005401611329L229.76656250000002,93.98695678710938L230.0897222222222,73.98600540161134L230.41288194444445,81.95095138549804L230.73604166666667,76.11005401611328L231.05920138888888,93.45597839355469L231.38236111111112,92.57105941772461L231.7055208333333,72.03899459838867L232.02868055555555,89.38505401611329L232.35184027777777,79.8270378112793L232.675,93.1020378112793L232.99815972222223,75.0479621887207L233.32131944444444,93.2789405822754L233.64447916666666,89.03097839355469L233.96763888888887,83.01304321289062L234.29079861111111,88.3229621887207L234.61395833333333,78.41100540161132L234.93711805555557,87.26100540161133L235.2602777777778,95.93396759033203L235.5834375,92.57105941772461L235.90659722222222,103.89904861450195L236.22975694444443,84.78301620483398L236.55291666666668,89.56195678710938L236.8760763888889,90.97798919677734L237.19923611111113,86.19904861450196L237.52239583333332,83.01304321289062L237.84555555555556,86.90706481933593L238.16871527777778,93.81005401611328L238.491875,80.71195678710937L238.81503472222224,78.58804321289062L239.13819444444442,95.04904861450196L239.46135416666667,83.18994598388672L239.78451388888888,73.98600540161134L240.10767361111112,93.1020378112793L240.43083333333334,101.24402160644532L240.75399305555553,85.31399459838867L241.07715277777777,78.58804321289062L241.40031249999998,87.26100540161133L241.72347222222223,84.42894058227539L242.04663194444444,98.41195678710938L242.36979166666669,80.35801620483399L242.69295138888887,77.17201080322265L243.01611111111112,90.80095138549805L243.33927083333333,77.52595138549805L243.66243055555555,78.58804321289062L243.9855902777778,77.17201080322265L244.30875,74.16304321289063L244.63190972222222,76.64103240966797L244.95506944444443,90.97798919677734L245.27822916666668,111.33301620483398L245.6013888888889,85.13695678710938L245.9245486111111,97.88097839355468L246.24770833333335,86.19904861450196L246.57086805555554,87.26100540161133L246.89402777777778,95.75706481933594L247.2171875,98.41195678710938L247.54034722222224,74.16304321289063L247.86350694444445,90.26997299194336L248.1866666666667,88.1460594177246L248.50982638888888,89.56195678710938L248.8329861111111,93.45597839355469L249.15614583333334,95.75706481933594L249.47930555555556,87.43804321289063L249.8024652777778,94.87201080322265L250.12562499999999,97.1729621887207L250.44878472222223,88.85394058227538L250.77194444444444,88.1460594177246L251.09510416666666,88.5L251.4182638888889,86.90706481933593L251.7414236111111,105.8460594177246L252.06458333333333,89.03097839355469L252.38774305555555,86.73002700805664L252.7109027777778,90.80095138549805L253.0340625,88.5L253.35722222222222,85.49103240966797L253.68038194444443,97.7039405822754L254.00354166666665,87.43804321289063L254.3267013888889,88.5L254.6498611111111,87.43804321289063L254.97302083333335,99.65095138549805L255.29618055555557,98.05801620483399L255.61934027777778,101.9520378112793L255.9425,115.2270378112793L256.2656597222222,110.09402160644531L256.5888194444444,98.94293518066407L256.91197916666664,106.0229621887207L257.2351388888889,107.43899459838867L257.5582986111111,93.81005401611328L257.88145833333334,97.7039405822754L258.20461805555556,107.08505401611328L258.52777777777777,91.50896759033203L258.8509375,100.71304321289062L259.1740972222222,101.4210594177246L259.4972569444445,100.35896759033203L259.8204166666667,87.26100540161133L260.1435763888889,105.8460594177246L260.4667361111111,96.11100540161132L260.78989583333333,92.925L261.11305555555555,86.55298919677735L261.43621527777776,87.26100540161133L261.75937500000003,82.65896759033204L262.0825347222222,89.56195678710938L262.40569444444446,94.87201080322265L262.7288541666667,107.79293518066406L263.0520138888889,101.24402160644532L263.3751736111111,92.03994598388672L263.6983333333333,118.23600540161132L264.02149305555554,96.11100540161132L264.34465277777775,92.925L264.6678125,88.67703781127929L264.99097222222224,90.97798919677734L265.31413194444445,92.03994598388672L265.63729166666667,104.43002700805664L265.9604513888889,113.28002700805663L266.2836111111111,112.92595138549805L266.6067708333333,84.60597839355468L266.9299305555556,96.64198379516601L267.25309027777774,98.41195678710938L267.57625,108.67798919677735L267.89940972222223,101.06698379516601L268.22256944444445,93.81005401611328L268.54572916666666,111.51005401611329L268.8688888888889,99.11997299194336L269.1920486111111,117.17404861450194L269.5152083333333,113.98804321289063L269.8383680555556,91.68600540161133L270.1615277777778,92.7479621887207L270.4846875,94.34103240966797L270.8078472222222,90.97798919677734L271.13100694444444,109.20896759033204L271.45416666666665,113.63396759033202L271.77732638888887,92.7479621887207L272.10048611111114,109.73994598388671L272.42364583333335,108.67798919677735L272.74680555555557,82.48206481933595L273.0699652777778,103.36793518066406L273.393125,112.92595138549805L273.7162847222222,106.3770378112793L274.0394444444444,94.87201080322265L274.3626041666667,97.7039405822754L274.68576388888886,89.38505401611329L275.00892361111113,100.00502700805664L275.33208333333334,86.02201080322266L275.65524305555556,93.63301620483398L275.9784027777778,93.2789405822754L276.3015625,101.775L276.6247222222222,101.5979621887207L276.9478819444444,95.93396759033203L277.2710416666667,99.47404861450195L277.5942013888889,89.91603240966796L277.9173611111111,83.72105941772462L278.24052083333333,92.925L278.56368055555555,98.41195678710938L278.88684027777776,97.35L279.21,94.69497299194336L279.53315972222225,81.41997299194337L279.85631944444447,92.21698379516602L280.1794791666667,89.03097839355469L280.5026388888889,101.24402160644532L280.8257986111111,101.24402160644532L281.1489583333333,99.47404861450195L281.47211805555554,94.16399459838867L281.7952777777778,110.44796218872071L282.11843749999997,83.72105941772462" style="fill: none;" fill="none"></path></g></g></g></g></g></g><g transform="translate(39, 177)" clip-path="url(#clip_1)"><clipPath id="clip_1"><rect width="290" height="23"></rect></clipPath><g><g><line x1="0" y1="0" x2="0" y2="5" style="visibility: inherit;" fill="rgb(0, 0, 0)" stroke="rgb(204, 204, 204)" stroke-width="1px"></line><line x1="32.31597222222222" y1="0" x2="32.31597222222222" y2="5" style="visibility: inherit;" fill="rgb(0, 0, 0)" stroke="rgb(204, 204, 204)" stroke-width="1px"></line><line x1="64.63194444444444" y1="0" x2="64.63194444444444" y2="5" style="visibility: inherit;" fill="rgb(0, 0, 0)" stroke="rgb(204, 204, 204)" stroke-width="1px"></line><line x1="96.94791666666666" y1="0" x2="96.94791666666666" y2="5" style="visibility: inherit;" fill="rgb(0, 0, 0)" stroke="rgb(204, 204, 204)" stroke-width="1px"></line><line x1="129.26388888888889" y1="0" x2="129.26388888888889" y2="5" style="visibility: inherit;" fill="rgb(0, 0, 0)" stroke="rgb(204, 204, 204)" stroke-width="1px"></line><line x1="161.57986111111111" y1="0" x2="161.57986111111111" y2="5" style="visibility: inherit;" fill="rgb(0, 0, 0)" stroke="rgb(204, 204, 204)" stroke-width="1px"></line><line x1="193.89583333333331" y1="0" x2="193.89583333333331" y2="5" style="visibility: inherit;" fill="rgb(0, 0, 0)" stroke="rgb(204, 204, 204)" stroke-width="1px"></line><line x1="226.21180555555557" y1="0" x2="226.21180555555557" y2="5" style="visibility: inherit;" fill="rgb(0, 0, 0)" stroke="rgb(204, 204, 204)" stroke-width="1px"></line><line x1="258.52777777777777" y1="0" x2="258.52777777777777" y2="5" style="visibility: inherit;" fill="rgb(0, 0, 0)" stroke="rgb(204, 204, 204)" stroke-width="1px"></line><line x1="290.84375" y1="0" x2="290.84375" y2="5" style="visibility: inherit;" fill="rgb(0, 0, 0)" stroke="rgb(204, 204, 204)" stroke-width="1px"></line></g><g transform="translate(0, 8)"><text x="0" y="0" dx="0em" dy="0.95em" style="text-anchor: middle; visibility: hidden; font-family: &quot;Helvetica Neue&quot;, sans-serif; font-size: 12px; font-weight: 200;" fill="rgb(50, 49, 63)" stroke="none" stroke-width="1px">-100</text><text x="32.31597222222222" y="0" dx="0em" dy="0.95em" style="text-anchor: middle; visibility: inherit; font-family: &quot;Helvetica Neue&quot;, sans-serif; font-size: 12px; font-weight: 200;" fill="rgb(50, 49, 63)" stroke="none" stroke-width="1px">0</text><text x="64.63194444444444" y="0" dx="0em" dy="0.95em" style="text-anchor: middle; visibility: inherit; font-family: &quot;Helvetica Neue&quot;, sans-serif; font-size: 12px; font-weight: 200;" fill="rgb(50, 49, 63)" stroke="none" stroke-width="1px">100</text><text x="96.94791666666666" y="0" dx="0em" dy="0.95em" style="text-anchor: middle; visibility: inherit; font-family: &quot;Helvetica Neue&quot;, sans-serif; font-size: 12px; font-weight: 200;" fill="rgb(50, 49, 63)" stroke="none" stroke-width="1px">200</text><text x="129.26388888888889" y="0" dx="0em" dy="0.95em" style="text-anchor: middle; visibility: inherit; font-family: &quot;Helvetica Neue&quot;, sans-serif; font-size: 12px; font-weight: 200;" fill="rgb(50, 49, 63)" stroke="none" stroke-width="1px">300</text><text x="161.57986111111111" y="0" dx="0em" dy="0.95em" style="text-anchor: middle; visibility: inherit; font-family: &quot;Helvetica Neue&quot;, sans-serif; font-size: 12px; font-weight: 200;" fill="rgb(50, 49, 63)" stroke="none" stroke-width="1px">400</text><text x="193.89583333333331" y="0" dx="0em" dy="0.95em" style="text-anchor: middle; visibility: inherit; font-family: &quot;Helvetica Neue&quot;, sans-serif; font-size: 12px; font-weight: 200;" fill="rgb(50, 49, 63)" stroke="none" stroke-width="1px">500</text><text x="226.21180555555557" y="0" dx="0em" dy="0.95em" style="text-anchor: middle; visibility: inherit; font-family: &quot;Helvetica Neue&quot;, sans-serif; font-size: 12px; font-weight: 200;" fill="rgb(50, 49, 63)" stroke="none" stroke-width="1px">600</text><text x="258.52777777777777" y="0" dx="0em" dy="0.95em" style="text-anchor: middle; visibility: inherit; font-family: &quot;Helvetica Neue&quot;, sans-serif; font-size: 12px; font-weight: 200;" fill="rgb(50, 49, 63)" stroke="none" stroke-width="1px">700</text><text x="290.84375" y="0" dx="0em" dy="0.95em" style="text-anchor: middle; visibility: hidden; font-family: &quot;Helvetica Neue&quot;, sans-serif; font-size: 12px; font-weight: 200;" fill="rgb(50, 49, 63)" stroke="none" stroke-width="1px">800</text></g><line x1="0" y1="0" x2="290.84375" y2="0" fill="rgb(0, 0, 0)" stroke="rgb(204, 204, 204)" stroke-width="1px"></line></g></g></g></g></svg>