<svg viewBox="0 0 330 200" xmlns="http://www.w3.org/2000/svg"><g><g><g><g><g><line x1="48.875" y1="177" x2="43.875" y2="177" style="visibility: inherit;" fill="rgb(0, 0, 0)" stroke="rgb(204, 204, 204)" stroke-width="1px"></line><line x1="48.875" y1="164.35714285714286" x2="43.875" y2="164.35714285714286" style="visibility: inherit;" fill="rgb(0, 0, 0)" stroke="rgb(204, 204, 204)" stroke-width="1px"></line><line x1="48.875" y1="151.7142857142857" x2="43.875" y2="151.7142857142857" style="visibility: inherit;" fill="rgb(0, 0, 0)" stroke="rgb(204, 204, 204)" stroke-width="1px"></line><line x1="48.875" y1="139.0714285714286" x2="43.875" y2="139.0714285714286" style="visibility: inherit;" fill="rgb(0, 0, 0)" stroke="rgb(204, 204, 204)" stroke-width="1px"></line><line x1="48.875" y1="126.42857142857139" x2="43.875" y2="126.42857142857139" style="visibility: inherit;" fill="rgb(0, 0, 0)" stroke="rgb(204, 204, 204)" stroke-width="1px"></line><line x1="48.875" y1="113.7857142857143" x2="43.875" y2="113.7857142857143" style="visibility: inherit;" fill="rgb(0, 0, 0)" stroke="rgb(204, 204, 204)" stroke-width="1px"></line><line x1="48.875" y1="101.1428571428571" x2="43.875" y2="101.1428571428571" style="visibility: inherit;" fill="rgb(0, 0, 0)" stroke="rgb(204, 204, 204)" stroke-width="1px"></line><line x1="48.875" y1="88.5" x2="43.875" y2="88.5" style="visibility: inherit;" fill="rgb(0, 0, 0)" stroke="rgb(204, 204, 204)" stroke-width="1px"></line><line x1="48.875" y1="75.8571428571429" x2="43.875" y2="75.8571428571429" style="visibility: inherit;" fill="rgb(0, 0, 0)" stroke="rgb(204, 204, 204)" stroke-width="1px"></line><line x1="48.875" y1="63.21428571428571" x2="43.875" y2="63.21428571428571" style="visibility: inherit;" fill="rgb(0, 0, 0)" stroke="rgb(204, 204, 204)" stroke-width="1px"></line><line x1="48.875" y1="50.57142857142861" x2="43.875" y2="50.57142857142861" style="visibility: inherit;" fill="rgb(0, 0, 0)" stroke="rgb(204, 204, 204)" stroke-width="1px"></line><line x1="48.875" y1="37.92857142857139" x2="43.875" y2="37.92857142857139" style="visibility: inherit;" fill="rgb(0, 0, 0)" stroke="rgb(204, 204, 204)" stroke-width="1px"></line><line x1="48.875" y1="25.285714285714306" x2="43.875" y2="25.285714285714306" style="visibility: inherit;" fill="rgb(0, 0, 0)" stroke="rgb(204, 204, 204)" stroke-width="1px"></line><line x1="48.875" y1="12.642857142857224" x2="43.875" y2="12.642857142857224" style="visibility: inherit;" fill="rgb(0, 0, 0)" stroke="rgb(204, 204, 204)" stroke-width="1px"></line><line x1="48.875" y1="0" x2="43.875" y2="0" style="visibility: inherit;" fill="rgb(0, 0, 0)" stroke="rgb(204, 204, 204)" stroke-width="1px"></line></g><g transform="translate(38.875, 0)"><text x="0" y="177" dx="0em" dy="0.3em" style="text-anchor: end; visibility: hidden; font-family: &quot;Helvetica Neue&quot;, sans-serif; font-size: 12px; font-weight: 200;" fill="rgb(50, 49, 63)" stroke="none" stroke-width="1px">1.9</text><text x="0" y="164.35714285714286" dx="0em" dy="0.3em" style="text-anchor: end; visibility: inherit; font-family: &quot;Helvetica Neue&quot;, sans-serif; font-size: 12px; font-weight: 200;" fill="rgb(50, 49, 63)" stroke="none" stroke-width="1px">1.95</text><text x="0" y="151.7142857142857" dx="0em" dy="0.3em" style="text-anchor: end; visibility: hidden; font-family: &quot;Helvetica Neue&quot;, sans-serif; font-size: 12px; font-weight: 200;" fill="rgb(50, 49, 63)" stroke="none" stroke-width="1px">2</text><text x="0" y="139.0714285714286" dx="0em" dy="0.3em" style="text-anchor: end; visibility: inherit; font-family: &quot;Helvetica Neue&quot;, sans-serif; font-size: 12px; font-weight: 200;" fill="rgb(50, 49, 63)" stroke="none" stroke-width="1px">2.05</text><text x="0" y="126.42857142857139" dx="0em" dy="0.3em" style="text-anchor: end; visibility: hidden; font-family: &quot;Helvetica Neue&quot;, sans-serif; font-size: 12px; font-weight: 200;" fill="rgb(50, 49, 63)" stroke="none" stroke-width="1px">2.1</text><text x="0" y="113.7857142857143" dx="0em" dy="0.3em" style="text-anchor: end; visibility: inherit; font-family: &quot;Helvetica Neue&quot;, sans-serif; font-size: 12px; font-weight: 200;" fill="rgb(50, 49, 63)" stroke="none" stroke-width="1px">2.15</text><text x="0" y="101.1428571428571" dx="0em" dy="0.3em" style="text-anchor: end; visibility: hidden; font-family: &quot;Helvetica Neue&quot;, sans-serif; font-size: 12px; font-weight: 200;" fill="rgb(50, 49, 63)" stroke="none" stroke-width="1px">2.2</text><text x="0" y="88.5" dx="0em" dy="0.3em" style="text-anchor: end; visibility: inherit; font-family: &quot;Helvetica Neue&quot;, sans-serif; font-size: 12px; font-weight: 200;" fill="rgb(50, 49, 63)" stroke="none" stroke-width="1px">2.25</text><text x="0" y="75.8571428571429" dx="0em" dy="0.3em" style="text-anchor: end; visibility: hidden; font-family: &quot;Helvetica Neue&quot;, sans-serif; font-size: 12px; font-weight: 200;" fill="rgb(50, 49, 63)" stroke="none" stroke-width="1px">2.3</text><text x="0" y="63.21428571428571" dx="0em" dy="0.3em" style="text-anchor: end; visibility: inherit; font-family: &quot;Helvetica Neue&quot;, sans-serif; font-size: 12px; font-weight: 200;" fill="rgb(50, 49, 63)" stroke="none" stroke-width="1px">2.35</text><text x="0" y="50.57142857142861" dx="0em" dy="0.3em" style="text-anchor: end; visibility: hidden; font-family: &quot;Helvetica Neue&quot;, sans-serif; font-size: 12px; font-weight: 200;" fill="rgb(50, 49, 63)" stroke="none" stroke-width="1px">2.4</text><text x="0" y="37.92857142857139" dx="0em" dy="0.3em" style="text-anchor: end; visibility: inherit; font-family: &quot;Helvetica Neue&quot;, sans-serif; font-size: 12px; font-weight: 200;" fill="rgb(50, 49, 63)" stroke="none" stroke-width="1px">2.45</text><text x="0" y="25.285714285714306" dx="0em" dy="0.3em" style="text-anchor: end; visibility: hidden; font-family: &quot;Helvetica Neue&quot;, sans-serif; font-size: 12px; font-weight: 200;" fill="rgb(50, 49, 63)" stroke="none" stroke-width="1px">2.5</text><text x="0" y="12.642857142857224" dx="0em" dy="0.3em" style="text-anchor: end; visibility: inherit; font-family: &quot;Helvetica Neue&quot;, sans-serif; font-size: 12px; font-weight: 200;" fill="rgb(50, 49, 63)" stroke="none" stroke-width="1px">2.55</text><text x="0" y="0" dx="0em" dy="0.3em" style="text-anchor: end; visibility: hidden; font-family: &quot;Helvetica Neue&quot;, sans-serif; font-size: 12px; font-weight: 200;" fill="rgb(50, 49, 63)" stroke="none" stroke-width="1px">2.6</text></g><line x1="48.875" y1="0" x2="48.875" y2="177" fill="rgb(0, 0, 0)" stroke="rgb(204, 204, 204)" stroke-width="1px"></line></g></g><g transform="translate(48, 0)" clip-path="url(#clip_0)"><clipPath id="clip_0"><rect width="281" height="177"></rect></clipPath><g><g><g><line x1="0" y1="0" x2="0" y2="177" fill="rgb(0, 0, 0)" stroke="rgb(60, 60, 60)" stroke-width="1px" opacity="0.25"></line><line x1="31.23611111111111" y1="0" x2="31.23611111111111" y2="177" fill="rgb(0, 0, 0)" stroke="rgb(60, 60, 60)" stroke-width="1px" opacity="0.25"></line><line x1="62.47222222222222" y1="0" x2="62.47222222222222" y2="177" fill="rgb(0, 0, 0)" stroke="rgb(60, 60, 60)" stroke-width="1px" opacity="0.25"></line><line x1="93.70833333333333" y1="0" x2="93.70833333333333" y2="177" fill="rgb(0, 0, 0)" stroke="rgb(60, 60, 60)" stroke-width="1px" opacity="0.25"></line><line x1="124.94444444444444" y1="0" x2="124.94444444444444" y2="177" fill="rgb(0, 0, 0)" stroke="rgb(60, 60, 60)" stroke-width="1px" opacity="0.25"></line><line x1="156.18055555555557" y1="0" x2="156.18055555555557" y2="177" fill="rgb(0, 0, 0)" stroke="rgb(60, 60, 60)" stroke-width="1px" opacity="0.25"></line><line x1="187.41666666666666" y1="0" x2="187.41666666666666" y2="177" fill="rgb(0, 0, 0)" stroke="rgb(60, 60, 60)" stroke-width="1px" opacity="0.25"></line><line x1="218.65277777777777" y1="0" x2="218.65277777777777" y2="177" fill="rgb(0, 0, 0)" stroke="rgb(60, 60, 60)" stroke-width="1px" opacity="0.25"></line><line x1="249.88888888888889" y1="0" x2="249.88888888888889" y2="177" fill="rgb(0, 0, 0)" stroke="rgb(60, 60, 60)" stroke-width="1px" opacity="0.25"></line><line x1="281.125" y1="0" x2="281.125" y2="177" fill="rgb(0, 0, 0)" stroke="rgb(60, 60, 60)" stroke-width="1px" opacity="0.25"></line></g><g><line x1="0" y1="177" x2="281.125" y2="177" fill="rgb(0, 0, 0)" stroke="rgb(60, 60, 60)" stroke-width="1px" opacity="0.25"></line><line x1="0" y1="164.35714285714286" x2="281.125" y2="164.35714285714286" fill="rgb(0, 0, 0)" stroke="rgb(60, 60, 60)" stroke-width="1px" opacity="0.25"></line><line x1="0" y1="151.7142857142857" x2="281.125" y2="151.7142857142857" fill="rgb(0, 0, 0)" stroke="rgb(60, 60, 60)" stroke-width="1px" opacity="0.25"></line><line x1="0" y1="139.0714285714286" x2="281.125" y2="139.0714285714286" fill="rgb(0, 0, 0)" stroke="rgb(60, 60, 60)" stroke-width="1px" opacity="0.25"></line><line x1="0" y1="126.42857142857139" x2="281.125" y2="126.42857142857139" fill="rgb(0, 0, 0)" stroke="rgb(60, 60, 60)" stroke-width="1px" opacity="0.25"></line><line x1="0" y1="113.7857142857143" x2="281.125" y2="113.7857142857143" fill="rgb(0, 0, 0)" stroke="rgb(60, 60, 60)" stroke-width="1px" opacity="0.25"></line><line x1="0" y1="101.1428571428571" x2="281.125" y2="101.1428571428571" fill="rgb(0, 0, 0)" stroke="rgb(60, 60, 60)" stroke-width="1px" opacity="0.25"></line><line x1="0" y1="88.5" x2="281.125" y2="88.5" fill="rgb(0, 0, 0)" stroke="rgb(60, 60, 60)" stroke-width="1px" opacity="0.25"></line><line x1="0" y1="75.8571428571429" x2="281.125" y2="75.8571428571429" fill="rgb(0, 0, 0)" stroke="rgb(60, 60, 60)" stroke-width="1px" opacity="0.25"></line><line x1="0" y1="63.21428571428571" x2="281.125" y2="63.21428571428571" fill="rgb(0, 0, 0)" stroke="rgb(60, 60, 60)" stroke-width="1px" opacity="0.25"></line><line x1="0" y1="50.57142857142861" x2="281.125" y2="50.57142857142861" fill="rgb(0, 0, 0)" stroke="rgb(60, 60, 60)" stroke-width="1px" opacity="0.25"></line><line x1="0" y1="37.92857142857139" x2="281.125" y2="37.92857142857139" fill="rgb(0, 0, 0)" stroke="rgb(60, 60, 60)" stroke-width="1px" opacity="0.25"></line><line x1="0" y1="25.285714285714306" x2="281.125" y2="25.285714285714306" fill="rgb(0, 0, 0)" stroke="rgb(60, 60, 60)" stroke-width="1px" opacity="0.25"></line><line x1="0" y1="12.642857142857224" x2="281.125" y2="12.642857142857224" fill="rgb(0, 0, 0)" stroke="rgb(60, 60, 60)" stroke-width="1px" opacity="0.25"></line><line x1="0" y1="0" x2="281.125" y2="0" fill="rgb(0, 0, 0)" stroke="rgb(60, 60, 60)" stroke-width="1px" opacity="0.25"></line></g></g></g><g><g><line x1="0" y1="657.4285714285713" x2="281.125" y2="657.4285714285713" fill="rgb(0, 0, 0)" stroke="rgb(153, 153, 153)" stroke-width="1.5px"></line></g></g><g><g><line x1="31.23611111111111" y1="0" x2="31.23611111111111" y2="177" fill="rgb(0, 0, 0)" stroke="rgb(153, 153, 153)" stroke-width="1.5px"></line></g></g><g><g><g><g><g><path stroke="rgb(0, 119, 187)" stroke-width="2px" d="M37.17097222222222,182.81813223021368L37.483333333333334,172.94554209709165L37.79569444444444,178.67673611640927L38.10805555555556,178.95682413237432L38.42041666666666,169.31419433866228L38.73277777777778,159.89835987772258L39.04513888888889,166.30240416526792L39.3575,166.7151813166482L39.66986111111111,171.95763802528379L39.98222222222222,167.4450318472726L40.294583333333335,159.84542890957422L40.60694444444444,148.3153700147356L40.91930555555555,150.37268461499895L41.23166666666667,137.90677847181047L41.54402777777778,132.9967378888811L41.85638888888889,141.22237913949147L42.168749999999996,133.49536207744052L42.48111111111111,136.46739373888286L42.79347222222223,134.47205298287525L43.10583333333333,132.79568461009433L43.418194444444445,130.96625048773626L43.730555555555554,130.13936989648L44.04291666666667,126.30386413846696L44.35527777777777,134.4406440598624L44.66763888888889,123.06211362566266L44.980000000000004,122.02031401225497L45.29236111111111,115.74232741764612L45.60472222222222,127.27844503947665L45.91708333333333,118.27415187018258L46.22944444444445,109.05029766900198L46.541805555555555,110.22918728419712L46.854166666666664,102.35024990354265L47.16652777777778,104.94374677113123L47.47888888888889,104.90534469059534L47.791250000000005,110.39491306032453L48.10361111111111,92.65628671646118L48.41597222222222,107.63189240864344L48.72833333333333,87.5104079246521L49.04069444444445,90.78441136223928L49.35305555555556,80.66911043439593L49.665416666666665,83.70510537283761L49.97777777777778,82.82457038334438L50.29013888888888,86.2248123713902L50.6025,82.5793878691537L50.91486111111111,71.7803852217538L51.227222222222224,74.99319853101458L51.53958333333333,85.16323900222778L51.85194444444444,84.58762979507446L52.16430555555556,79.19445848464966L52.47666666666667,67.34129762649536L52.789027777777775,53.206980841500425L53.101388888888884,60.87883635929653L53.41375,61.894532203674316L53.726111111111116,58.241993972233374L54.03847222222222,60.43706171853202L54.350833333333334,53.67636639731272L54.66319444444444,54.20549522127425L54.97555555555556,41.04865305764335L55.28791666666666,46.86195639201574L55.60027777777778,41.232826301029775L55.91263888888889,47.38674463544575L56.225,39.52643557957242L56.53736111111111,38.239754881177646L56.84972222222222,41.02797501427787L57.162083333333335,33.26659502301899L57.47444444444445,29.88510193143574L57.78680555555555,38.23963430949621L58.09916666666667,36.521427563258584L58.41152777777778,38.50645944050382L58.723888888888894,28.82841171537129L59.036249999999995,33.848232814243886L59.34861111111111,24.7797955104283L59.66097222222223,33.20715318407332L59.973333333333336,10.800594193594804L60.285694444444445,14.53572402681624L60.598055555555554,17.049040726252997L60.91041666666667,25.229166167122997L61.22277777777777,21.221062047140947L61.53513888888889,10.997487749372226L61.847500000000004,15.512053217206699L62.15986111111111,18.15504476002286L62.47222222222222,3.53759724753246L62.78458333333333,7.150829110826777L63.096944444444446,12.980289050510976L63.409305555555555,13.642468724932002L63.721666666666664,15.381353514535107L64.03402777777778,-4.5112256322588L64.3463888888889,7.857138020651689L64.65875,11.769689083099394L64.97111111111111,15.713046210152783L65.28347222222222,13.587066037314287L65.59583333333333,8.224580219813788L65.90819444444445,15.520372663225459L66.22055555555555,19.0051956857954L66.53291666666667,24.715229375021806L66.84527777777778,14.001531192234609L67.1576388888889,17.499737671443427L67.47,23.2430491447449L67.78236111111111,22.303735460553867L68.09472222222223,22.6509819030762L68.40708333333333,25.073869841439404L68.71944444444445,15.447969368525946L69.03180555555555,26.819868360246943L69.34416666666667,16.13167108808247L69.65652777777778,34.729732377188554L69.96888888888888,24.90470777239119L70.28125,26.18035616193501L70.59361111111112,24.005544458116816L70.90597222222223,28.215847287859248L71.21833333333333,27.16566794259211L71.53069444444444,35.21551568167553L71.84305555555555,27.708059651511064L72.15541666666667,23.181015014648466L72.46777777777777,30.385655266898027L72.78013888888889,20.763914516993964L73.0925,25.92522648402624L73.40486111111112,28.773069313594277L73.71722222222223,35.34651681355069L74.02958333333332,31.1940281050546L74.34194444444444,36.38301127297538L74.65430555555555,30.394336427961093L74.96666666666667,34.00473485674178L75.27902777777778,24.656450680324042L75.59138888888889,34.3904436656407L75.90375,34.66160937717984L76.21611111111112,40.96539831161502L76.52847222222222,38.36466714314054L76.84083333333332,31.50148589270458L77.15319444444444,28.062721252441435L77.46555555555555,36.224278654371005L77.77791666666667,38.09108999797277L78.09027777777779,31.997336932591054L78.40263888888889,42.30645683833532L78.715,34.41027770723616L79.0273611111111,40.128811700003496L79.33972222222222,43.58783238274711L79.65208333333334,44.83152927671162L79.96444444444444,51.11445931025915L80.27680555555555,46.98337207521712L80.58916666666667,44.30607788903373L80.90152777777779,45.35866866792952L81.21388888888887,47.85685362134663L81.52624999999999,48.999632017953076L81.8386111111111,47.11449377877372L82.15097222222222,44.31445762089322L82.46333333333334,44.40627295630321L82.77569444444444,50.135417257036494L83.08805555555556,42.484601497650175L83.40041666666667,43.30298178536552L83.71277777777777,49.50524936403548L84.02513888888889,45.76131779806957L84.33749999999999,48.708813122340615L84.64986111111111,37.86640466962544L84.96222222222222,52.56963893345424L85.27458333333334,50.377947194235674L85.58694444444446,45.143568788255976L85.89930555555556,47.966031278882724L86.21166666666666,50.72151620047434L86.52402777777777,46.866296972547275L86.83638888888889,46.866116115025136L87.14874999999999,56.74286597115653L87.46111111111111,52.097419943128315L87.77347222222222,50.527034078325556L88.08583333333334,46.16022920608523L88.39819444444446,48.56647825241092L88.71055555555554,48.75927237101965L89.02291666666666,69.02508115768433L89.33527777777778,58.246153695242754L89.64763888888889,56.8249752862113L89.96000000000001,55.13998603820801L90.27236111111111,52.07867104666575L90.58472222222223,59.31031935555595L90.89708333333333,47.18581192834037L91.20944444444444,56.71778706141882L91.52180555555555,51.11946303503855L91.83416666666666,53.130236966269365L92.14652777777778,57.03597572871618L92.4588888888889,53.81725440706526L92.77125000000001,63.15004512241909L93.08361111111111,50.330984524318154L93.39597222222221,56.12559924806868L93.70833333333333,57.66421447481429L94.02069444444444,58.531004292624345L94.33305555555556,57.4451357296535L94.64541666666666,59.79839352199011L94.95777777777778,55.756770474570146L95.2701388888889,61.99918842315674L95.58250000000001,64.76793622970581L95.8948611111111,57.271753651755205L96.20722222222221,67.19582789284843L96.51958333333333,63.166141441890176L96.83194444444445,57.85948031289237L97.14430555555556,64.44275440488543L97.45666666666666,60.121465342385434L97.76902777777778,68.05188683101109L98.0813888888889,56.124272959572934L98.39375,62.06447798865183L98.70611111111111,63.19839436667307L99.01847222222221,68.25245782307216L99.33083333333333,65.28338016782489L99.64319444444445,62.81419270379203L99.95555555555556,57.20965923581805L100.26791666666668,61.26924746377128L100.58027777777777,65.30586678641184L100.89263888888888,64.43232495444163L101.205,63.31329917907715L101.51736111111111,66.92526503971645L101.82972222222222,60.57035371235439L102.14208333333333,67.77849054336548L102.45444444444445,62.508543491363525L102.76680555555556,54.005587373461054L103.07916666666667,67.78072111947196L103.39152777777777,67.01159436362131L103.70388888888888,60.55546310969763L104.01625,62.117710386003765L104.32861111111112,69.28069312231882L104.64097222222223,68.34608173370361L104.95333333333333,71.02192905970982L105.26569444444445,70.282523223332L105.57805555555555,64.25405972344535L105.89041666666667,64.93046685627529L106.20277777777777,64.27672719955444L106.51513888888888,64.23048795972552L106.8275,66.35526241574969L107.13986111111112,59.83347988128662L107.45222222222223,67.68552977698191L107.76458333333333,64.82954835891724L108.07694444444444,74.99048566818237L108.38930555555555,75.88579068865096L108.70166666666667,62.749686854226255L109.01402777777778,71.43844393321446L109.32638888888889,64.69836636951992L109.63875,65.31237765720913L109.95111111111112,64.89604364122664L110.26347222222223,66.99103689193726L110.57583333333332,75.93486336299351L110.88819444444444,64.34696020398822L111.20055555555555,69.1383582523891L111.51291666666667,72.07096297400338L111.82527777777779,66.52026476178851L112.13763888888889,70.23194340297154L112.45,74.1009680884225L112.7623611111111,70.90467309951782L113.07472222222222,66.28828484671457L113.38708333333334,73.5019679750715L113.69944444444444,70.06525305339268L114.01180555555555,80.28623506001064L114.32416666666667,74.5407532964434L114.63652777777779,70.22983339854649L114.9488888888889,74.19254228046962L115.26124999999999,78.84715175628662L115.5736111111111,68.93543611254012L115.88597222222222,79.60217162540981L116.19833333333334,71.55606160845076L116.51069444444444,73.84764698573521L116.82305555555556,82.1741464478629L117.13541666666667,68.54828044346401L117.44777777777779,77.32583856582642L117.76013888888889,73.27252006530762L118.07249999999999,66.43345315115793L118.3848611111111,80.82754162379673L118.69722222222222,74.71106079646519L119.00958333333334,79.0146861076355L119.32194444444445,74.05840628487724L119.63430555555556,81.16737290791103L119.94666666666667,81.37433419908797L120.25902777777777,76.29103210994175L120.57138888888889,78.67533711024693L120.88374999999999,76.6637191772461L121.19611111111111,76.53121089935303L121.50847222222222,77.15462677819389L121.82083333333334,80.28050790514266L122.13319444444446,84.83642945970807L122.44555555555554,84.6515930720738L122.75791666666666,75.44552319390434L123.07027777777778,78.92178562709263L123.38263888888889,85.24052545002529L123.69500000000001,77.49813549859184L124.00736111111111,78.24483592169625L124.31972222222223,84.97321803229195L124.63208333333334,83.22764151436942L124.94444444444444,79.19126333509173L125.25680555555554,79.47207478114537L125.56916666666666,72.59358092716762L125.88152777777778,80.4164524759565L126.19388888888889,80.7793732370649L126.50625000000001,87.88068355832782L126.81861111111111,81.51992450441634L127.13097222222223,78.27256740842547L127.44333333333333,80.27996533257621L127.75569444444444,87.129401411329L128.06805555555556,87.59312009811401L128.38041666666666,91.76285055705479L128.6927777777778,93.19735213688442L129.0051388888889,78.38494021551949L129.3175,86.46595573425293L129.62986111111113,92.52275357927596L129.94222222222223,99.35868562970842L130.25458333333333,91.22636686052596L130.56694444444443,89.97416966302053L130.87930555555556,89.55934279305593L131.19166666666666,79.03488186427525L131.5040277777778,77.37467009680611L131.8163888888889,84.53656768798828L132.12875,77.51929582868304L132.4411111111111,87.33600098746163L132.75347222222223,86.54529190063477L133.06583333333333,90.75173643657139L133.37819444444443,78.39024536950248L133.69055555555556,89.09176581246511L134.00291666666666,86.77480009623936L134.3152777777778,94.20551225117275L134.6276388888889,86.13456446783883L134.94,90.89316701889038L135.2523611111111,84.10558421271188L135.56472222222223,90.4191997391837L135.87708333333333,88.92374917439052L136.18944444444446,89.21788379124233L136.50180555555556,91.351881980896L136.81416666666667,98.64610699244908L137.12652777777777,91.47016280038015L137.4388888888889,93.7581913130624L137.75125,92.77432639258248L138.0636111111111,83.12551730019706L138.37597222222223,86.06125688552856L138.68833333333333,91.8674464906965L139.00069444444446,90.49443646839687L139.31305555555556,101.97382511411394L139.62541666666667,93.65992539269583L139.93777777777777,85.19247763497489L140.2501388888889,90.53675712857927L140.5625,94.76219170434133L140.8748611111111,88.86997420447214L141.18722222222223,86.34273147583008L141.49958333333333,95.58865029471261L141.81194444444446,95.5213110106332L142.12430555555554,93.95152800423757L142.43666666666667,87.72635180609566L142.74902777777777,86.882169178554L143.06138888888887,95.20191662652151L143.37375,97.10839605331421L143.6861111111111,93.72575753075735L143.99847222222223,102.88866274697439L144.31083333333333,92.51557956423079L144.62319444444447,96.71943180901663L144.93555555555554,92.85625485011509L145.24791666666667,92.29155738013131L145.56027777777777,84.7599870136806L145.87263888888887,103.99484763826642L146.185,92.02786711284092L146.4973611111111,91.94889266150338L146.80972222222223,89.37932927267893L147.12208333333334,92.41116448811123L147.43444444444447,96.32172611781529L147.74680555555557,98.17189856937952L148.05916666666664,97.25772408076695L148.37152777777777,97.35948657989502L148.68388888888887,100.3185567855835L148.99625,110.29236684526715L149.3086111111111,102.09433650970459L149.62097222222224,97.38854435511998L149.93333333333334,93.71134921482631L150.24569444444447,94.87347936630249L150.55805555555557,96.11542797088623L150.87041666666664,98.37186670303345L151.18277777777777,96.55545432226998L151.49513888888887,106.03630706242151L151.8075,84.77584218978882L152.1198611111111,104.5860708781651L152.43222222222224,97.51321547372L152.74458333333334,100.63927745819092L153.05694444444444,100.34845856257847L153.36930555555557,86.3435754776001L153.68166666666664,95.37144041061401L153.99402777777777,91.21021025521414L154.30638888888888,99.98035321916853L154.61875,101.64430270876204L154.9311111111111,98.32936518532888L155.2434722222222,95.9396344593593L155.55583333333334,100.76738486971175L155.86819444444444,99.66728884833199L156.18055555555557,103.34761885234288L156.49291666666667,117.29384381430489L156.80527777777777,105.64891024998255L157.11763888888888,109.71561220714024L157.43,100.77823632104055L157.7423611111111,101.72713545390538L158.0547222222222,101.01069852284022L158.36708333333334,101.81081220081873L158.67944444444444,104.79652874810354L158.99180555555557,103.91502918515886L159.30416666666667,100.95029211044312L159.6165277777778,112.1425392968314L159.92888888888888,106.8551093510219L160.24124999999998,104.53983163833618L160.5536111111111,107.53501306261334L160.8659722222222,108.13341031755719L161.17833333333334,109.14060585839407L161.49069444444444,117.78806713649205L161.80305555555557,106.87144681385584L162.11541666666668,101.07200922284807L162.42777777777775,114.5030916758946L162.74013888888888,105.75465161459786L163.05249999999998,108.80330657958983L163.3648611111111,102.6130358832223L163.6772222222222,108.25084713527134L163.98958333333334,100.58930049623763L164.30194444444444,104.161598273686L164.61430555555557,106.46753168106079L164.92666666666668,109.97068159920828L165.23902777777778,105.70280579158238L165.55138888888888,114.62559250422886L165.86374999999998,111.98163638796125L166.1761111111111,109.92715522221155L166.4884722222222,106.77420575278146L166.80083333333334,114.19346359797886L167.11319444444445,109.16182647432599L167.42555555555555,115.0629059927804L167.73791666666668,110.14725882666451L168.05027777777778,109.05885825838361L168.3626388888889,112.32773739950997L168.67499999999998,117.02376324789864L168.9873611111111,110.91397414888654L169.29972222222221,108.21606220517839L169.61208333333335,114.55047634669712L169.92444444444445,109.44727993011473L170.23680555555555,111.76225621359688L170.54916666666668,112.35384116853986L170.86152777777778,104.05887120110647L171.1738888888889,109.31748451505388L171.48624999999998,110.23599958419798L171.79861111111111,109.53547811508177L172.11097222222222,103.84811190196446L172.42333333333332,107.72581774847848L172.73569444444445,117.94770404270716L173.04805555555555,114.97084951400757L173.36041666666668,109.86023793901715L173.67277777777778,104.79737274987356L173.9851388888889,115.89973374775477L174.29749999999999,111.36840881620134L174.6098611111111,110.10168273108346L174.92222222222222,120.18430873325892L175.23458333333332,117.22572081429618L175.54694444444445,116.37285702569145L175.85930555555555,115.29645333971295L176.17166666666668,114.48066534314836L176.48402777777778,111.5027859551566L176.7963888888889,121.73588541575839L177.10875000000001,112.94114582879202L177.4211111111111,114.45841986792428L177.73347222222222,111.82109519413538L178.04583333333332,113.49336412974766L178.35819444444445,117.09827654702323L178.67055555555555,115.0439762387957L178.98291666666668,126.01774753843034L179.29527777777778,120.41429921558924L179.60763888888889,111.06806475775582L179.92000000000002,103.72464650017874L180.2323611111111,112.90232174737112L180.54472222222222,111.459018434797L180.85708333333332,116.77026128768921L181.16944444444445,113.73981264659336L181.48180555555555,108.1907421520778L181.79416666666665,111.26779174804686L182.10652777777779,113.07932097571236L182.4188888888889,112.79175751549856L182.73125000000002,117.81694405419486L183.0436111111111,122.28014598573957L183.35597222222222,117.34544849395752L183.66833333333332,116.7856341770717L183.98069444444445,120.93402344839913L184.29305555555555,128.63873474938526L184.60541666666666,114.15047979354858L184.9177777777778,116.14172111238751L185.2301388888889,118.12874242237635L185.54250000000002,119.31751891544886L185.85486111111112,116.4023368018014L186.16722222222222,125.85346862248011L186.47958333333332,125.79493107114519L186.79194444444443,111.19400187901087L187.10430555555556,122.05105979101998L187.41666666666666,121.93904869897025L187.7290277777778,118.62941632952008L188.0413888888889,116.28200626373291L188.35375000000002,125.5028461728777L188.66611111111112,123.26569890975952L188.97847222222225,126.861508165087L189.29083333333332,122.83574029377527L189.60319444444443,123.69173894609723L189.91555555555556,121.27674845286776L190.22791666666666,121.85898910249982L190.5402777777778,121.1453856059483L190.8526388888889,109.88151884078978L191.16500000000002,113.13755709784371L191.47736111111112,123.34931537083216L191.7897222222222,118.10896866662162L192.10208333333333,124.64148208073206L192.41444444444443,125.32705266135079L192.72680555555556,125.61093868528093L193.03916666666666,128.4303868838719L193.3515277777778,123.10509743009294L193.6638888888889,120.32754789079938L193.97625,120.02461154120309L194.28861111111112,124.82661989756991L194.60097222222223,123.58418900626046L194.91333333333333,110.86863919666834L195.22569444444443,129.8689879008702L195.53805555555556,122.95203168051583L195.85041666666666,133.98771653856548L196.1627777777778,125.36406816755022L196.4751388888889,124.77121720995221L196.7875,127.1279715810503L197.09986111111112,126.26027747562952L197.41222222222223,124.08739491871424L197.72458333333336,127.89510890415735L198.03694444444443,124.84175164358956L198.34930555555556,125.91007702691212L198.66166666666666,122.09277759279523L198.97402777777776,124.25227669307162L199.2863888888889,119.74458381107874L199.59875,133.410660471235L199.91111111111113,125.58013262067522L200.22347222222223,121.09733779089791L200.53583333333336,122.88300439289637L200.84819444444443,119.64354474203927L201.16055555555553,126.92281886509485L201.47291666666666,129.14718552998133L201.78527777777776,129.25467518397738L202.0976388888889,133.95027903148105L202.41,121.10222094399589L202.72236111111113,132.85337815965923L203.03472222222223,129.73810734067644L203.34708333333336,128.34749385288782L203.65944444444443,127.99916226523263L203.97180555555553,126.1529083933149L204.28416666666666,135.13260493959697L204.59652777777777,128.37522533961703L204.9088888888889,125.55107484545026L205.22125,127.1982648713248L205.53361111111113,128.26351567677088L205.84597222222223,125.68810456139698L206.15833333333333,130.81197902134485L206.47069444444446,127.62677662713185L206.78305555555553,123.0760999407087L207.09541666666667,128.08362272807528L207.40777777777777,120.97447524751935L207.7201388888889,133.72704056331088L208.0325,115.97581447873796L208.34486111111113,130.68791076115198L208.65722222222223,126.44981615883961L208.96958333333333,120.3537722315107L209.28194444444446,130.14340904780795L209.59430555555554,128.44099719183785L209.90666666666667,127.98511566434587L210.21902777777777,128.49989645821705L210.5313888888889,130.3065425327846L210.84375,128.21902472632271L211.1561111111111,122.50694131851196L211.46847222222223,127.43175193241663L211.78083333333333,131.07452385766163L212.09319444444446,123.35226937702723L212.40555555555554,126.77976056507654L212.71791666666667,127.07311146599903L213.03027777777777,127.15262848990304L213.34263888888887,131.8198377064296L213.655,134.7704678944179L213.9673611111111,138.57920673915316L214.27972222222223,133.7413885934012L214.59208333333333,131.61185155596053L214.90444444444447,127.43796137401034L215.21680555555554,130.6194863319397L215.52916666666667,138.39642007010323L215.84152777777777,133.82199076243808L216.15388888888887,135.7354030609131L216.46625,128.04582350594654L216.7786111111111,136.5328641619001L217.09097222222223,135.9385060582842L217.40333333333334,129.946636063712L217.71569444444447,135.1054160254342L218.02805555555557,125.49121100561959L218.34041666666664,130.16348423276628L218.65277777777777,135.69531297683716L218.96513888888887,131.86595637457708L219.2775,132.37597458703175L219.5898611111111,129.3950206211635L219.90222222222224,139.82332563400269L220.21458333333334,134.485255581992L220.52694444444447,133.32680286679948L220.83930555555557,129.35432767868042L221.15166666666664,138.9703412737165L221.46402777777777,140.55640145710535L221.77638888888887,129.4254046848842L222.08875,132.71291215079168L222.4011111111111,136.36050694329396L222.71347222222224,128.7713635989598L223.02583333333334,139.0822317940848L223.33819444444444,144.79437548773626L223.65055555555557,134.7497898510524L223.96291666666664,140.68294143676758L224.27527777777777,143.49147789818898L224.58763888888888,136.97367422921315L224.9,138.08655084882463L225.2123611111111,135.25932577678134L225.5247222222222,135.25576891217912L225.83708333333334,130.02729851858953L226.14944444444444,133.85816226686748L226.46180555555557,137.10051563807895L226.77416666666667,141.72371619088307L227.08652777777777,146.6837337357657L227.39888888888888,136.43917996542794L227.71125,141.23069858551025L228.0236111111111,132.88677651541573L228.3359722222222,138.18590191432406L228.64833333333334,142.01628337587627L228.96069444444444,138.61326823915752L229.27305555555557,134.7543715749468L229.58541666666667,139.127566746303L229.8977777777778,142.58725057329448L230.21013888888888,134.64796706608362L230.52249999999998,138.66445091792514L230.8348611111111,132.9432040623256L231.1472222222222,140.37542336327687L231.45958333333334,138.55286182676042L231.77194444444444,141.7372805050441L232.08430555555557,138.5189208984375L232.39666666666668,138.11000204086304L232.70902777777775,134.23567220142908L233.02138888888888,143.3735587937491L233.33374999999998,144.67356266294206L233.6461111111111,141.42915957314625L233.9584722222222,145.09459897450037L234.27083333333334,152.1687203816005L234.58319444444444,136.58959313801356L234.89555555555557,144.92471347536357L235.20791666666668,136.4233850751604L235.52027777777778,146.3141212463379L235.83263888888888,137.25195366995675L236.14499999999998,131.79493965421403L236.4573611111111,148.21849066870553L236.7697222222222,136.71848426546367L237.08208333333334,137.4217788832528L237.39444444444445,135.8708050591605L237.70680555555555,151.30036313193185L238.01916666666668,143.08599533353532L238.33152777777778,141.2445040430341L238.6438888888889,139.5882108552115L238.95624999999998,148.66858475548878L239.2686111111111,142.38535329273768L239.58097222222221,134.32911525453838L239.89333333333335,145.38216243471416L240.20569444444445,145.12540503910608L240.51805555555555,143.1266882760184L240.83041666666668,144.7652574266706L241.14277777777778,147.95407697132654L241.4551388888889,143.88092442921229L241.76749999999998,136.65988642828805L242.07986111111111,133.84688881465365L242.39222222222222,132.97883299418856L242.70458333333332,133.9689676421029L243.01694444444445,147.0315830366952L243.32930555555555,153.2842194352831L243.64166666666668,148.24784987313404L243.95402777777778,138.34680482319422L244.2663888888889,147.35212285178048L244.57874999999999,138.05001762935092L244.8911111111111,143.2424973760332L245.20347222222222,143.51752138137817L245.51583333333332,140.54374143055506L245.82819444444445,147.8428495952061L246.14055555555555,138.37242630549838L246.45291666666668,140.26238741193498L246.76527777777778,127.6895341873169L247.0776388888889,137.954585143498L247.39000000000001,140.46325983319963L247.7023611111111,134.64067247935702L248.01472222222222,146.37157365253992L248.32708333333332,139.80415473665508L248.63944444444445,134.55729716164723L248.95180555555555,146.76379333223613L249.26416666666668,130.9140429496765L249.57652777777778,143.5261422566005L249.88888888888889,141.14461040496826L250.20125000000002,151.1822028841291L250.5136111111111,132.59969534192766L250.82597222222222,142.67092732020785L251.13833333333332,147.15486758095875L251.45069444444445,139.8998886517116L251.76305555555555,142.24989100864954L252.07541666666665,141.14762469700403L252.38777777777779,129.9816621371678L252.7001388888889,142.06933491570607L253.01250000000002,145.42442280905587L253.3248611111111,140.0472272464207L253.63722222222222,145.71433741705758L253.94958333333332,142.73374516623358L254.26194444444445,147.61665712084087L254.57430555555555,141.11072976248602L254.88666666666666,141.133638381958L255.1990277777778,143.11149624415805L255.5113888888889,141.70261614663258L255.82375000000002,150.89687000002178L256.1361111111111,148.79259272984095L256.4484722222222,144.9690235682896L256.7608333333333,153.87360395703996L257.0731944444444,143.11258138929094L257.3855555555556,149.0615278652736L257.69791666666663,138.0668976647513L258.0102777777778,137.6485139301845L258.3226388888889,138.713041305542L258.635,145.4330436842782L258.9473611111111,142.03298255375452L259.25972222222225,146.72346210479736L259.57208333333335,148.1295690536499L259.88444444444445,148.16471569878712L260.19680555555556,146.08527619498116L260.50916666666666,151.33165148326327L260.82152777777776,146.09799650737216L261.13388888888886,146.76722962515694L261.44625,141.22551400320867L261.7586111111111,142.44901514053345L262.0709722222222,145.4853115081787L262.3833333333333,140.27155085972376L262.6956944444444,150.4659468105861L263.0080555555556,145.22150066920688L263.3204166666667,143.15671062469482L263.6327777777778,152.27970661435808L263.9451388888889,153.50890476363045L264.2575,150.52412264687672L264.5698611111111,138.35970599310738L264.8822222222222,143.42673090526034L265.19458333333336,151.87434462138583L265.50694444444446,144.66482121603826L265.81930555555556,143.31610638754705L266.13166666666666,152.683862890516L266.4440277777778,145.53782047544206L266.75638888888886,154.67407935006275L267.06874999999997,146.12633085250854L267.3811111111111,148.7496692112514L267.6934722222222,151.0591594832284L268.0058333333333,159.52883781705583L268.31819444444443,146.82697289330616L268.6305555555556,144.62816742488315L268.9429166666667,149.48111731665475L269.2552777777778,146.2196533339364L269.5676388888889,148.16507741383143L269.88,151.6431484222412L270.1923611111111,153.6266128676278L270.5047222222222,153.53766110965182L270.81708333333336,155.6362715108054L271.12944444444446,139.88481719153265L271.44180555555556,151.54886136736187L271.75416666666666,154.04746832166398L272.06652777777776,141.0175278527396L272.3788888888889,145.14192335946217L272.69124999999997,147.88613482883997" style="fill: none;" fill="none"></path></g></g></g></g></g></g><g transform="translate(48, 177)" clip-path="url(#clip_1)"><clipPath id="clip_1"><rect width="281" height="23"></rect></clipPath><g><g><line x1="0" y1="0" x2="0" y2="5" style="visibility: inherit;" fill="rgb(0, 0, 0)" stroke="rgb(204, 204, 204)" stroke-width="1px"></line><line x1="31.23611111111111" y1="0" x2="31.23611111111111" y2="5" style="visibility: inherit;" fill="rgb(0, 0, 0)" stroke="rgb(204, 204, 204)" stroke-width="1px"></line><line x1="62.47222222222222" y1="0" x2="62.47222222222222" y2="5" style="visibility: inherit;" fill="rgb(0, 0, 0)" stroke="rgb(204, 204, 204)" stroke-width="1px"></line><line x1="93.70833333333333" y1="0" x2="93.70833333333333" y2="5" style="visibility: inherit;" fill="rgb(0, 0, 0)" stroke="rgb(204, 204, 204)" stroke-width="1px"></line><line x1="124.94444444444444" y1="0" x2="124.94444444444444" y2="5" style="visibility: inherit;" fill="rgb(0, 0, 0)" stroke="rgb(204, 204, 204)" stroke-width="1px"></line><line x1="156.18055555555557" y1="0" x2="156.18055555555557" y2="5" style="visibility: inherit;" fill="rgb(0, 0, 0)" stroke="rgb(204, 204, 204)" stroke-width="1px"></line><line x1="187.41666666666666" y1="0" x2="187.41666666666666" y2="5" style="visibility: inherit;" fill="rgb(0, 0, 0)" stroke="rgb(204, 204, 204)" stroke-width="1px"></line><line x1="218.65277777777777" y1="0" x2="218.65277777777777" y2="5" style="visibility: inherit;" fill="rgb(0, 0, 0)" stroke="rgb(204, 204, 204)" stroke-width="1px"></line><line x1="249.88888888888889" y1="0" x2="249.88888888888889" y2="5" style="visibility: inherit;" fill="rgb(0, 0, 0)" stroke="rgb(204, 204, 204)" stroke-width="1px"></line><line x1="281.125" y1="0" x2="281.125" y2="5" style="visibility: inherit;" fill="rgb(0, 0, 0)" stroke="rgb(204, 204, 204)" stroke-width="1px"></line></g><g transform="translate(0, 8)"><text x="0" y="0" dx="0em" dy="0.95em" style="text-anchor: middle; visibility: hidden; font-family: &quot;Helvetica Neue&quot;, sans-serif; font-size: 12px; font-weight: 200;" fill="rgb(50, 49, 63)" stroke="none" stroke-width="1px">-100</text><text x="31.23611111111111" y="0" dx="0em" dy="0.95em" style="text-anchor: middle; visibility: inherit; font-family: &quot;Helvetica Neue&quot;, sans-serif; font-size: 12px; font-weight: 200;" fill="rgb(50, 49, 63)" stroke="none" stroke-width="1px">0</text><text x="62.47222222222222" y="0" dx="0em" dy="0.95em" style="text-anchor: middle; visibility: inherit; font-family: &quot;Helvetica Neue&quot;, sans-serif; font-size: 12px; font-weight: 200;" fill="rgb(50, 49, 63)" stroke="none" stroke-width="1px">100</text><text x="93.70833333333333" y="0" dx="0em" dy="0.95em" style="text-anchor: middle; visibility: inherit; font-family: &quot;Helvetica Neue&quot;, sans-serif; font-size: 12px; font-weight: 200;" fill="rgb(50, 49, 63)" stroke="none" stroke-width="1px">200</text><text x="124.94444444444444" y="0" dx="0em" dy="0.95em" style="text-anchor: middle; visibility: inherit; font-family: &quot;Helvetica Neue&quot;, sans-serif; font-size: 12px; font-weight: 200;" fill="rgb(50, 49, 63)" stroke="none" stroke-width="1px">300</text><text x="156.18055555555557" y="0" dx="0em" dy="0.95em" style="text-anchor: middle; visibility: inherit; font-family: &quot;Helvetica Neue&quot;, sans-serif; font-size: 12px; font-weight: 200;" fill="rgb(50, 49, 63)" stroke="none" stroke-width="1px">400</text><text x="187.41666666666666" y="0" dx="0em" dy="0.95em" style="text-anchor: middle; visibility: inherit; font-family: &quot;Helvetica Neue&quot;, sans-serif; font-size: 12px; font-weight: 200;" fill="rgb(50, 49, 63)" stroke="none" stroke-width="1px">500</text><text x="218.65277777777777" y="0" dx="0em" dy="0.95em" style="text-anchor: middle; visibility: inherit; font-family: &quot;Helvetica Neue&quot;, sans-serif; font-size: 12px; font-weight: 200;" fill="rgb(50, 49, 63)" stroke="none" stroke-width="1px">600</text><text x="249.88888888888889" y="0" dx="0em" dy="0.95em" style="text-anchor: middle; visibility: inherit; font-family: &quot;Helvetica Neue&quot;, sans-serif; font-size: 12px; font-weight: 200;" fill="rgb(50, 49, 63)" stroke="none" stroke-width="1px">700</text><text x="281.125" y="0" dx="0em" dy="0.95em" style="text-anchor: middle; visibility: hidden; font-family: &quot;Helvetica Neue&quot;, sans-serif; font-size: 12px; font-weight: 200;" fill="rgb(50, 49, 63)" stroke="none" stroke-width="1px">800</text></g><line x1="0" y1="0" x2="281.125" y2="0" fill="rgb(0, 0, 0)" stroke="rgb(204, 204, 204)" stroke-width="1px"></line></g></g></g></g></svg>