<svg viewBox="0 0 330 200" xmlns="http://www.w3.org/2000/svg"><g><g><g><g><g><line x1="58.59375" y1="177" x2="53.59375" y2="177" style="visibility: inherit;" fill="rgb(0, 0, 0)" stroke="rgb(204, 204, 204)" stroke-width="1px"></line><line x1="58.59375" y1="151.71428571428572" x2="53.59375" y2="151.71428571428572" style="visibility: inherit;" fill="rgb(0, 0, 0)" stroke="rgb(204, 204, 204)" stroke-width="1px"></line><line x1="58.59375" y1="126.42857142857142" x2="53.59375" y2="126.42857142857142" style="visibility: inherit;" fill="rgb(0, 0, 0)" stroke="rgb(204, 204, 204)" stroke-width="1px"></line><line x1="58.59375" y1="101.14285714285712" x2="53.59375" y2="101.14285714285712" style="visibility: inherit;" fill="rgb(0, 0, 0)" stroke="rgb(204, 204, 204)" stroke-width="1px"></line><line x1="58.59375" y1="75.85714285714285" x2="53.59375" y2="75.85714285714285" style="visibility: inherit;" fill="rgb(0, 0, 0)" stroke="rgb(204, 204, 204)" stroke-width="1px"></line><line x1="58.59375" y1="50.57142857142857" x2="53.59375" y2="50.57142857142857" style="visibility: inherit;" fill="rgb(0, 0, 0)" stroke="rgb(204, 204, 204)" stroke-width="1px"></line><line x1="58.59375" y1="25.285714285714278" x2="53.59375" y2="25.285714285714278" style="visibility: inherit;" fill="rgb(0, 0, 0)" stroke="rgb(204, 204, 204)" stroke-width="1px"></line><line x1="58.59375" y1="0" x2="53.59375" y2="0" style="visibility: inherit;" fill="rgb(0, 0, 0)" stroke="rgb(204, 204, 204)" stroke-width="1px"></line></g><g transform="translate(48.59375, 0)"><text x="0" y="177" dx="0em" dy="0.3em" style="text-anchor: end; visibility: hidden; font-family: &quot;Helvetica Neue&quot;, sans-serif; font-size: 12px; font-weight: 200;" fill="rgb(50, 49, 63)" stroke="none" stroke-width="1px">-0.05</text><text x="0" y="151.71428571428572" dx="0em" dy="0.3em" style="text-anchor: end; visibility: inherit; font-family: &quot;Helvetica Neue&quot;, sans-serif; font-size: 12px; font-weight: 200;" fill="rgb(50, 49, 63)" stroke="none" stroke-width="1px">0</text><text x="0" y="126.42857142857142" dx="0em" dy="0.3em" style="text-anchor: end; visibility: inherit; font-family: &quot;Helvetica Neue&quot;, sans-serif; font-size: 12px; font-weight: 200;" fill="rgb(50, 49, 63)" stroke="none" stroke-width="1px">0.05</text><text x="0" y="101.14285714285712" dx="0em" dy="0.3em" style="text-anchor: end; visibility: inherit; font-family: &quot;Helvetica Neue&quot;, sans-serif; font-size: 12px; font-weight: 200;" fill="rgb(50, 49, 63)" stroke="none" stroke-width="1px">0.1</text><text x="0" y="75.85714285714285" dx="0em" dy="0.3em" style="text-anchor: end; visibility: inherit; font-family: &quot;Helvetica Neue&quot;, sans-serif; font-size: 12px; font-weight: 200;" fill="rgb(50, 49, 63)" stroke="none" stroke-width="1px">0.15</text><text x="0" y="50.57142857142857" dx="0em" dy="0.3em" style="text-anchor: end; visibility: inherit; font-family: &quot;Helvetica Neue&quot;, sans-serif; font-size: 12px; font-weight: 200;" fill="rgb(50, 49, 63)" stroke="none" stroke-width="1px">0.2</text><text x="0" y="25.285714285714278" dx="0em" dy="0.3em" style="text-anchor: end; visibility: inherit; font-family: &quot;Helvetica Neue&quot;, sans-serif; font-size: 12px; font-weight: 200;" fill="rgb(50, 49, 63)" stroke="none" stroke-width="1px">0.25</text><text x="0" y="0" dx="0em" dy="0.3em" style="text-anchor: end; visibility: hidden; font-family: &quot;Helvetica Neue&quot;, sans-serif; font-size: 12px; font-weight: 200;" fill="rgb(50, 49, 63)" stroke="none" stroke-width="1px">0.3</text></g><line x1="58.59375" y1="0" x2="58.59375" y2="177" fill="rgb(0, 0, 0)" stroke="rgb(204, 204, 204)" stroke-width="1px"></line></g></g><g transform="translate(58, 0)" clip-path="url(#clip_0)"><clipPath id="clip_0"><rect width="271" height="177"></rect></clipPath><g><g><g><line x1="0" y1="0" x2="0" y2="177" fill="rgb(0, 0, 0)" stroke="rgb(60, 60, 60)" stroke-width="1px" opacity="0.25"></line><line x1="30.15625" y1="0" x2="30.15625" y2="177" fill="rgb(0, 0, 0)" stroke="rgb(60, 60, 60)" stroke-width="1px" opacity="0.25"></line><line x1="60.3125" y1="0" x2="60.3125" y2="177" fill="rgb(0, 0, 0)" stroke="rgb(60, 60, 60)" stroke-width="1px" opacity="0.25"></line><line x1="90.46875" y1="0" x2="90.46875" y2="177" fill="rgb(0, 0, 0)" stroke="rgb(60, 60, 60)" stroke-width="1px" opacity="0.25"></line><line x1="120.625" y1="0" x2="120.625" y2="177" fill="rgb(0, 0, 0)" stroke="rgb(60, 60, 60)" stroke-width="1px" opacity="0.25"></line><line x1="150.78125" y1="0" x2="150.78125" y2="177" fill="rgb(0, 0, 0)" stroke="rgb(60, 60, 60)" stroke-width="1px" opacity="0.25"></line><line x1="180.9375" y1="0" x2="180.9375" y2="177" fill="rgb(0, 0, 0)" stroke="rgb(60, 60, 60)" stroke-width="1px" opacity="0.25"></line><line x1="211.09375" y1="0" x2="211.09375" y2="177" fill="rgb(0, 0, 0)" stroke="rgb(60, 60, 60)" stroke-width="1px" opacity="0.25"></line><line x1="241.25" y1="0" x2="241.25" y2="177" fill="rgb(0, 0, 0)" stroke="rgb(60, 60, 60)" stroke-width="1px" opacity="0.25"></line><line x1="271.40625" y1="0" x2="271.40625" y2="177" fill="rgb(0, 0, 0)" stroke="rgb(60, 60, 60)" stroke-width="1px" opacity="0.25"></line></g><g><line x1="0" y1="177" x2="271.40625" y2="177" fill="rgb(0, 0, 0)" stroke="rgb(60, 60, 60)" stroke-width="1px" opacity="0.25"></line><line x1="0" y1="151.71428571428572" x2="271.40625" y2="151.71428571428572" fill="rgb(0, 0, 0)" stroke="rgb(60, 60, 60)" stroke-width="1px" opacity="0.25"></line><line x1="0" y1="126.42857142857142" x2="271.40625" y2="126.42857142857142" fill="rgb(0, 0, 0)" stroke="rgb(60, 60, 60)" stroke-width="1px" opacity="0.25"></line><line x1="0" y1="101.14285714285712" x2="271.40625" y2="101.14285714285712" fill="rgb(0, 0, 0)" stroke="rgb(60, 60, 60)" stroke-width="1px" opacity="0.25"></line><line x1="0" y1="75.85714285714285" x2="271.40625" y2="75.85714285714285" fill="rgb(0, 0, 0)" stroke="rgb(60, 60, 60)" stroke-width="1px" opacity="0.25"></line><line x1="0" y1="50.57142857142857" x2="271.40625" y2="50.57142857142857" fill="rgb(0, 0, 0)" stroke="rgb(60, 60, 60)" stroke-width="1px" opacity="0.25"></line><line x1="0" y1="25.285714285714278" x2="271.40625" y2="25.285714285714278" fill="rgb(0, 0, 0)" stroke="rgb(60, 60, 60)" stroke-width="1px" opacity="0.25"></line><line x1="0" y1="0" x2="271.40625" y2="0" fill="rgb(0, 0, 0)" stroke="rgb(60, 60, 60)" stroke-width="1px" opacity="0.25"></line></g></g></g><g><g><line x1="0" y1="151.71428571428572" x2="271.40625" y2="151.71428571428572" fill="rgb(0, 0, 0)" stroke="rgb(153, 153, 153)" stroke-width="1.5px"></line></g></g><g><g><line x1="30.15625" y1="0" x2="30.15625" y2="177" fill="rgb(0, 0, 0)" stroke="rgb(153, 153, 153)" stroke-width="1.5px"></line></g></g><g><g><g><g><g><path stroke="rgb(204, 51, 17)" stroke-width="2px" d="M33.775,-1.5477847031184524L34.0765625,1.9395100389207869L34.378125000000004,4.516096728188643L34.6796875,7.584555591855747L34.981249999999996,10.022936991282847L35.2828125,11.839304157665794L35.584375,14.5741261073521L35.8859375,17.460401160376392L36.1875,18.72185223443165L36.4890625,21.219780973025706L36.790625000000006,23.680935348783237L37.092187499999994,25.264162097658414L37.39375,27.43783590623309L37.6953125,28.701404520443504L37.996875,29.942147408212918L38.2984375,30.802803141730152L38.6,34.029987088271554L38.901562500000004,34.09574386903216L39.20312499999999,34.90039405652453L39.504687499999996,36.294669909136616L39.80625,37.31863998515266L40.1078125,38.22282209566663L40.409375,39.68650202240261L40.7109375,40.11844253540039L41.0125,43.10805505514145L41.314062500000006,44.117285243102486L41.615624999999994,44.1594551886831L41.9171875,45.5481395295688L42.21875,45.800902988229495L42.5203125,46.84510649953569L42.821875,47.85732837234224L43.1234375,47.741624772548676L43.425000000000004,49.7732651403972L43.7265625,50.07967546156475L44.028124999999996,50.34570934091295L44.3296875,51.13830989599228L44.63125,52.36104238884789L44.932812500000004,53.302157112530296L45.234375,53.75552924190248L45.5359375,53.70767735583442L45.8375,55.5217838031905L46.1390625,54.72541538306645L46.440625,55.65701247964586L46.7421875,56.85649724517549L47.04375,57.0413185613496L47.345312500000006,58.24179804325104L47.646875,57.10916273934501L47.9484375,58.94551466192517L48.25,59.55006107262203L48.551562499999996,59.75581664698464L48.853125,60.033131514276775L49.1546875,60.10079483475003L49.456250000000004,61.102926364966805L49.7578125,61.17691969871521L50.059374999999996,61.9301535998072L50.3609375,61.54014188902718L50.6625,62.64758524724415L50.9640625,62.8794144477163L51.265625,63.09044503314155L51.5671875,64.38691464492253L51.868750000000006,64.20184464965547L52.170312499999994,64.24618488550186L52.471875,65.37451728752681L52.7734375,65.63571322815758L53.075,64.45424639327186L53.3765625,66.46676861388343L53.678125,66.19481918641499L53.979687500000004,66.33818645136697L54.28125,66.91718673706055L54.582812499999996,66.71675138814109L54.884375,68.19213430370603L55.1859375,67.19013841663089L55.487500000000004,68.52458057233265L55.7890625,68.95667179993221L56.090625,69.54295160089221L56.3921875,69.3276783994266L56.69375,69.81262523787362L56.9953125,69.32316449710301L57.296875,70.93981974465507L57.5984375,71.14192802565438L57.900000000000006,71.14998372112002L58.2015625,72.1535244328635L58.503125,71.95138600894383L58.8046875,71.71815516267505L59.106249999999996,71.27685527290616L59.4078125,72.00193568638393L59.709375,71.93337561403003L60.010937500000004,72.92242511681148L60.3125,73.00383360896792L60.614062499999996,73.53804151500974L60.915625,73.46380703789848L61.2171875,74.47769430705479L61.51875,73.46431946754456L61.8203125,74.58917789799827L62.121875,74.85124798331942L62.423437500000006,73.70686447620392L62.724999999999994,74.21351421730859L63.0265625,74.72763186693192L63.328125,75.52546975442341L63.6296875,74.64124225718635L63.93125,74.0296800817762L64.2328125,75.63430830410549L64.534375,75.96216531310763L64.8359375,76.00968562705177L65.1375,75.73787937845502L65.4390625,75.91323581763676L65.74062500000001,75.82588163443974L66.0421875,76.37483696426663L66.34375,76.58625940765653L66.6453125,76.20079927785056L66.946875,75.91473542792457L67.24843750000001,76.87032628910882L67.55,75.78969505855015L67.8515625,76.8170788202967L68.153125,77.8655776977539L68.4546875,76.30255424124854L68.75625000000001,76.79888003213065L69.0578125,77.86088293790817L69.359375,76.96205873148782L69.6609375,77.30959153175354L69.96249999999999,77.25348048550742L70.2640625,77.18097169058663L70.565625,77.8167537025043L70.8671875,78.41047880479267L71.16875,78.46141280446734L71.47031249999999,76.98604496036258L71.771875,78.10720334734235L72.0734375,78.00474756104606L72.375,78.97501802444458L72.6765625,75.54612519059863L72.978125,78.65193866831916L73.27968750000001,78.32073579515729L73.58125000000001,78.41677113941738L73.8828125,79.37039517504829L74.18437499999999,78.85236648150853L74.48593749999999,78.69050653491702L74.7875,79.15293661185673L75.0890625,78.9807225721223L75.390625,79.4491058758327L75.6921875,79.97283158132008L75.99375,80.16160162006106L76.2953125,80.05298914228167L76.596875,79.44125364507947L76.8984375,81.05359845502036L77.2,79.93915440355029L77.5015625,80.56103299345288L77.80312500000001,80.48143307651792L78.10468750000001,79.90467090266091L78.40624999999999,80.39753779343197L78.70781249999999,79.6389233810561L79.00937499999999,80.34545082705361L79.3109375,79.84849203484399L79.6125,80.37815589564187L79.9140625,81.51734728472573L80.215625,80.78283967290606L80.5171875,79.98399199758258L80.81875,80.63718908173698L81.1203125,80.46952662297657L81.421875,80.40995667661939L81.7234375,80.24440422228405L82.025,81.38350518260684L82.32656250000001,82.08801305294037L82.62812500000001,81.0740881051336L82.9296875,80.60636794567108L83.23124999999999,81.85928103753498L83.53281249999999,81.15869174684796L83.834375,81.57860523462296L84.1359375,81.7982190166201L84.4375,80.88170091594968L84.7390625,80.64321766580854L85.040625,81.53171038627625L85.34218750000001,81.08160876376289L85.64375,81.2679146187646L85.9453125,81.37477880716324L86.246875,83.0247419817107L86.5484375,82.06508182627815L86.85000000000001,81.873350245612L87.1515625,82.2706640788487L87.453125,82.63346426827567L87.75468749999999,82.41221523284912L88.05624999999999,81.4021259716579L88.3578125,82.2961197750909L88.659375,82.57427110842296L88.9609375,81.95914453268051L89.2625,82.46316430398396L89.5640625,82.5831783413887L89.86562500000001,82.30626286779132L90.1671875,83.26492830685207L90.46875,83.17163596834455L90.7703125,82.59357764891216L91.071875,82.51563559259687L91.3734375,82.35396403925759L91.675,83.27682722466332L91.9765625,82.62366028342929L92.278125,82.21656507253647L92.57968749999999,83.1349218913487L92.88125,82.0741171666554L93.1828125,82.47669847522464L93.484375,82.53507777622768L93.7859375,82.51066954646792L94.0875,82.62087206329618L94.38906250000001,83.26722670452935L94.69062500000001,83.59555092879704L94.9921875,82.91484089408603L95.29375,83.65996634960175L95.59531249999999,83.97553258282798L95.896875,83.79161555426461L96.1984375,84.10165809733527L96.5,83.5057777762413L96.8015625,83.68191039562225L97.10312499999999,83.16312059334346L97.4046875,83.76826232671738L97.70625,83.70545955215182L98.0078125,84.11369265828814L98.309375,83.55566430943352L98.6109375,83.78476557561329L98.91250000000001,84.29119678054538L99.21406250000001,83.57633481706891L99.515625,84.82365639720645L99.81718749999999,85.27445884261813L100.11874999999999,84.0329322389194L100.4203125,83.94484708990369L100.721875,84.10726468052182L101.0234375,84.55109657560077L101.325,84.44716378620693L101.6265625,84.46900233200618L101.928125,83.92657294443676L102.2296875,84.37584563664028L102.53125,84.40729977403369L102.8328125,83.92269957917077L103.134375,84.08350452354976L103.43593750000001,84.48600293908801L103.73750000000001,84.53900172880718L104.0390625,84.78566124609539L104.34062499999999,84.46937911851066L104.64218749999999,85.21879994017738L104.94375,84.06888520717621L105.2453125,84.29185992479324L105.546875,84.49856500114713L105.8484375,85.23219846827644L106.15,85.05708317245755L106.45156250000001,85.40851194517953L106.753125,85.25937231097903L107.0546875,84.58393728733063L107.35625,84.98645077432904L107.6578125,85.18023207357952L107.95937500000001,85.25168586628777L108.2609375,85.35658322913307L108.5625,85.19308802911213L108.86406249999999,85.47374876056399L109.16562499999999,84.45388565744672L109.4671875,85.84670711415154L109.76875,85.32640263012478L110.0703125,84.70679983070919L110.371875,85.87729464258466L110.6734375,85.93779901947293L110.97500000000001,86.06377381937844L111.2765625,85.73388216325215L111.578125,85.60718393325806L111.8796875,85.789465708392L112.18125,85.98617087091718L112.4828125,85.18399240289416L112.784375,86.25118742670331L113.0859375,86.20130089351109L113.3875,85.86936705453056L113.68906249999999,85.72067956413541L113.990625,85.72544968128204L114.2921875,86.43139687606266L114.59375,85.90024847643716L114.8953125,85.84886233295713L115.196875,86.00343522855214L115.49843750000001,86.48404148646763L115.80000000000001,86.72995496647698L116.1015625,86.9668933919498L116.403125,86.67121395042965L116.70468749999999,86.62373131513596L117.00625,86.40560207196644L117.3078125,87.09117265258517L117.609375,86.13505429029465L117.9109375,86.62550221170697L118.21249999999999,86.47010038580213L118.5140625,86.72678242410932L118.815625,86.84747467722211L119.1171875,86.18970340490341L119.41875,86.21742735590253L119.7203125,86.36427612815585L120.02187500000001,86.94681820699147L120.32343750000001,87.40055958713803L120.625,86.34998838390622L120.92656249999999,87.68582464967456L121.22812499999999,86.66317332642419L121.5296875,86.16120327370507L121.83125,87.41573654753822L122.1328125,87.37914304222379L122.434375,87.41639215605599L122.7359375,87.04771409715924L123.0375,86.72956310851234L123.3390625,87.39407132353101L123.640625,87.30080159221377L123.9421875,87.89664423465729L124.24375,87.24195507594517L124.54531250000001,88.15787785393852L124.84687500000001,87.54821468251092L125.14843750000001,87.5113348194531L125.44999999999999,87.69231291328158L125.75156249999999,88.42495919976916L126.053125,87.79936549493245L126.3546875,87.09308672802788L126.65625,87.42599267618996L126.9578125,87.10059231519699L127.259375,88.10701921156475L127.5609375,86.9299909217017L127.8625,88.29712307453156L128.1640625,88.45440883295876L128.465625,87.7171054652759L128.7671875,87.5261425290789L129.06875,87.71040620122638L129.3703125,88.53079476101057L129.671875,87.91300430468151L129.9734375,88.07667282649449L130.275,87.86016376529422L130.5765625,88.4742654817445L130.878125,87.72493508883885L131.1796875,88.31333242995399L131.48125000000002,88.37777799367905L131.7828125,88.18335615737098L132.084375,89.60051048653467L132.38593749999998,89.07450145483017L132.6875,88.42595391614097L132.9890625,89.29755152974809L133.290625,88.76027658155986L133.5921875,88.65086908425604L133.89375,89.02964502147266L134.1953125,88.75086822254316L134.49687500000002,89.11254558818682L134.7984375,89.09614783951214L135.1,88.32233762741089L135.4015625,89.62311014107296L135.703125,88.56390299115861L136.0046875,89.0481037923268L136.30625,89.18606793880463L136.6078125,88.55532733031681L136.909375,88.42117626326424L137.2109375,89.01688703043119L137.51250000000002,88.89382102234022L137.8140625,88.63017220156534L138.115625,88.82763093709946L138.4171875,88.99363553524017L138.71875,89.3340847492218L139.02031250000002,89.53048471467837L139.321875,90.17545278157507L139.62343750000002,89.30905482172966L139.92499999999998,89.33700484463147L140.2265625,89.94773808973177L140.528125,89.42880887644633L140.82968749999998,89.47492000886372L141.13125,89.43518787196705L141.43281249999998,89.55753421783447L141.734375,88.93434064303125L142.0359375,89.59610208443233L142.3375,89.64653872592108L142.6390625,90.06025784356252L142.94062499999998,90.32270094752312L143.2421875,90.0719043144158L143.54375,90.22425416963442L143.8453125,89.97804302828654L144.146875,90.00219881108829L144.4484375,89.81009044391767L144.75,90.15042662194797L145.05156250000002,90.13542675120489L145.353125,90.17359899197305L145.6546875,89.63981685468129L145.95625,90.48537098509924L146.2578125,90.57156843372753L146.55937500000002,89.64522374102047L146.8609375,89.94909075328282L147.16250000000002,89.8927272600787L147.4640625,90.45589120898927L147.765625,90.52006548643112L148.06718750000002,87.69915535620281L148.36874999999998,91.0448085154806L148.6703125,90.63065232549394L148.97187499999998,90.6196049451828L149.2734375,90.9439804468836L149.575,90.57013664501055L149.87656249999998,90.96891240988458L150.178125,91.2160692853587L150.47968749999998,91.03016659191677L150.78125,91.00007265380451L151.0828125,91.03529088837759L151.384375,91.85864099008695L151.6859375,91.29842351164137L151.9875,91.04713328821317L152.2890625,91.30950103487288L152.590625,90.50769181762422L152.8921875,90.8377831705979L153.19375,91.8480796643666L153.4953125,91.66270447203091L153.796875,90.89545788083757L154.09843750000002,92.060135109084L154.4,92.02814593485424L154.7015625,91.89338447366441L155.003125,91.72491945964948L155.3046875,90.93943640163967L155.60625000000002,91.3749300113746L155.9078125,91.66783630422184L156.20937500000002,91.90544540967261L156.5109375,91.79406355108534L156.81249999999997,91.6485109244074L157.1140625,91.64504072070122L157.41562499999998,92.37146626199996L157.7171875,91.93578049114772L158.01874999999998,91.60310815061843L158.3203125,91.46558484435081L158.621875,92.60775284682L158.9234375,92.2049869128636L159.225,92.77572803837911L159.52656249999998,92.27414607575962L159.828125,91.60080221721104L160.1296875,91.82632777946337L160.43125,92.9320002411093L160.7328125,92.4903687792165L161.034375,92.6540222295693L161.3359375,92.7565458374364L161.6375,92.27735252891267L161.9390625,92.61217255251749L162.240625,91.66952053989684L162.5421875,92.31146677902767L162.84375,92.24027296900749L163.14531250000002,92.40366266880716L163.446875,92.48992417114123L163.74843750000002,93.06494559134757L164.05,92.32142901420593L164.3515625,93.28619085890905L164.65312500000002,92.60026233111108L164.9546875,93.26414884839738L165.25625000000002,92.76973336509296L165.55781249999998,92.65954968758992L165.859375,93.1499184838363L166.1609375,92.71584159135818L166.46249999999998,93.70658663340977L166.7640625,94.04743900895119L167.06562499999998,92.9606397833143L167.3671875,92.8848529458046L167.66875,93.05950479422296L167.9703125,93.0446895488671L168.271875,93.2146014230592L168.57343749999998,92.70137298958643L168.875,93.2619597188064L169.1765625,93.45917354311263L169.478125,93.18306816049984L169.7796875,94.36471208504268L170.08125,93.87002908332006L170.3828125,94.00153887697628L170.68437500000002,93.07595152514322L170.9859375,93.79333042246954L171.2875,93.25631922483444L171.5890625,93.72283366748265L171.890625,94.00667070916721L172.19218750000002,94.04762740220343L172.49375,94.1182484967368L172.79531250000002,93.83208291445459L173.096875,93.8183528142316L173.3984375,94.06899496487209L173.70000000000002,94.2739065374647L174.00156249999998,93.64796995690891L174.303125,93.69310521227972L174.60468749999998,94.43902568731988L174.90625,93.8988833938326L175.2078125,95.1179233789444L175.50937499999998,94.52364816835949L175.8109375,93.4913322712694L176.11249999999998,93.44687523160661L176.4140625,94.59032430819103L176.715625,94.56443153960363L177.0171875,94.27646491783007L177.31875,94.74076008796692L177.6203125,95.24045435019902L177.921875,94.22430636201585L178.2234375,94.77952011568205L178.525,94.11438266720091L178.8265625,94.70786662612642L179.128125,94.4042633644172L179.4296875,94.81737208792141L179.73125000000002,94.79998715860502L180.0328125,94.93787971564701L180.334375,94.34077107054846L180.6359375,94.53687337466648L180.9375,94.82154688239098L181.23906250000002,93.24691086581775L181.540625,94.85558577520506L181.84218750000002,95.18715036341122L182.14375,94.71943773967878L182.44531250000003,95.15278743420328L182.746875,94.96404753838266L183.04843749999998,94.65578342761313L183.35,94.94138006227358L183.65156249999998,95.16568860411644L183.953125,94.41625647885458L184.2546875,94.96518543362617L184.55625,94.98073164480074L184.8578125,95.0744836628437L185.15937499999998,95.24933520810946L185.4609375,95.26873971308981L185.7625,95.0975806755679L186.0640625,95.56804007291794L186.365625,95.57574535693442L186.6671875,94.84689707841193L186.96875,95.7151450599943L187.2703125,95.7985053062439L187.571875,95.75043488400324L187.8734375,95.87951817257063L188.175,95.67652821115085L188.4765625,95.71205917852267L188.77812500000002,95.35479398284639L189.0796875,95.91729855537415L189.38125000000002,96.08412831595966L189.6828125,95.98820223978588L189.984375,95.47500018136843L190.28593750000002,96.05846538714L190.5875,95.54021815742766L190.88906250000002,95.68408654843057L191.19062499999998,95.57292322601592L191.4921875,95.76631643516676L191.79375,95.90498517240798L192.09531249999998,96.42835669858114L192.396875,95.2626583789076L192.69843749999998,96.61864141907012L193,95.81090535010611L193.3015625,95.60080542734691L193.603125,95.95406538248062L193.9046875,96.53719148039818L194.20624999999998,96.20224334938185L194.5078125,95.49473625847271L194.809375,96.72419815829822L195.1109375,96.20705491304398L195.4125,95.67464804649353L195.7140625,96.32334629978453L196.015625,96.57849481701851L196.31718750000002,96.37831191505705L196.61875,96.62076649495533L196.9203125,96.26732191443443L197.221875,96.61163695795194L197.5234375,96.77222336615836L197.82500000000002,96.88655169521058L198.1265625,96.81105498330935L198.42812500000002,96.72729157549993L198.7296875,96.6318816968373L199.03125,95.67373622315272L199.33281250000002,96.5248705617019L199.63437499999998,96.0122374509062L199.9359375,97.16815439292363L200.23749999999998,96.13748128499304L200.5390625,97.12734841448919L200.840625,96.50017597419874L201.1421875,96.37773166384017L201.44375,96.87481102773121L201.74531249999998,96.50883829593658L202.046875,98.01713728053228L202.3484375,97.29212092076028L202.65,97.23252083148276L202.9515625,96.97948231867382L203.253125,96.37763746721403L203.5546875,96.37931793502399L203.85625,96.9966901583331L204.1578125,95.28701385855675L204.459375,96.91039851307869L204.7609375,96.67309837256158L205.0625,97.34157791733742L205.36406250000002,97.05268816862787L205.665625,97.47914267012051L205.9671875,97.18546019707406L206.26875,97.33451317037856L206.5703125,97.07515971575464L206.87187500000002,97.31035361971175L207.1734375,97.50992612753595L207.47500000000002,97.79393649101257L207.77656249999998,97.43949719411985L208.078125,97.53490330491746L208.3796875,97.57955250569752L208.68124999999998,97.4853747189045L208.9828125,97.3776552251407L209.28437499999998,97.42345739262446L209.5859375,97.32992767861911L209.8875,98.12376032556807L210.1890625,98.6073771076543L210.490625,97.22423906411444L210.79218749999998,97.6327359208039L211.09375,97.91603038992201L211.3953125,97.83776429721287L211.696875,97.54297407184328L211.9984375,98.50720841544016L212.3,98.7335779794625L212.6015625,98.7314981179578L212.90312500000002,98.18084348099573L213.2046875,97.5931205877236L213.50625,97.89621518765176L213.8078125,98.6306172992502L214.109375,98.32478346143449L214.41093750000002,98.45432266167232L214.7125,97.60796974386489L215.01406250000002,98.42495215364865L215.315625,98.12571207966124L215.6171875,98.59277286274092L215.91875000000002,98.63692470533506L216.22031249999998,97.69145432966097L216.521875,98.96498517904962L216.82343749999998,98.69339369876043L217.125,98.40242785641125L217.4265625,98.787699592965L217.72812499999998,98.72292622498104L218.0296875,98.57289737462997L218.33124999999998,98.07018882036209L218.6328125,98.62354501656124L218.934375,98.13992823447501L219.2359375,98.75144519550459L219.5375,98.75220630424364L219.8390625,98.87016308733395L220.140625,98.93431475758553L220.4421875,99.10329596911157L220.74375,98.89985763175146L221.0453125,98.26431676319667L221.346875,99.19674279008592L221.6484375,98.87390457732336L221.95000000000002,98.61155943785394L222.2515625,99.12600489173616L222.553125,99.04765590599605L222.8546875,98.90521553584507L223.15625,98.65317927513803L223.45781250000002,99.28047228710993L223.759375,98.15118661522865L224.06093750000002,99.22529943925993L224.3625,99.5266570534025L224.66406249999997,99.04813819272177L224.965625,99.3295638007777L225.26718749999998,99.51397818752697L225.56875,100.04990800789425L225.87031249999998,99.3647481245654L226.171875,99.67927442703927L226.4734375,98.76857014213289L226.775,99.6696136210646L227.0765625,99.25777466808046L227.37812499999998,98.88914935929434L227.6796875,99.12311117138182L227.98125,99.20290324943407L228.2828125,99.20081585219928L228.584375,99.5297240955489L228.8859375,99.37778870548522L229.1875,99.24398428201675L229.4890625,99.56668308377266L229.790625,99.73438698904856L230.0921875,99.45804423093796L230.39375,100.54524661813463L230.6953125,99.5055984556675L230.99687500000002,99.20430866309574L231.2984375,99.41351183397428L231.60000000000002,99.48857900926045L231.9015625,100.60344129375049L232.203125,99.96464875766209L232.50468750000002,100.25967259066447L232.80625,99.56849919472421L233.10781250000002,99.39745696101869L233.40937499999998,99.9747993860926L233.7109375,100.05514910817146L234.0125,100.43560928106308L234.31406249999998,99.67593609860965L234.615625,100.17239753263338L234.91718749999998,100.14998627134732L235.21875,99.67625259927341L235.5203125,100.27305227943829L235.821875,100.28978536810195L236.1234375,100.48586129716465L236.42499999999998,100.16668168136052L236.7265625,99.6183141384806L237.028125,100.07519038234437L237.3296875,99.43514691506113L237.63125,100.45572591253689L237.9328125,100.63427750127657L238.234375,99.11586933476583L238.53593750000002,100.10545010651862L238.8375,100.02184871690615L239.1390625,99.27673833285058L239.440625,100.02508908084461L239.7421875,100.4683520283018L240.04375000000002,100.98241692781448L240.3453125,100.02185625263623L240.64687500000002,100.29718922291482L240.9484375,100.46823899235045L241.25,99.90149557164737L241.55156250000002,100.83251241700991L241.85312499999998,100.52569893428257L242.1546875,101.02534798213414L242.45624999999998,100.83865026916777L242.7578125,100.72270175814629L243.059375,100.11133551171848L243.36093749999998,100.4395278607096L243.6625,100.94443308029855L243.96406249999998,100.99382979103497L244.265625,100.69126269221306L244.5671875,100.66300747224263L244.86875,101.12958220073155L245.1703125,100.76885056921414L245.471875,100.9666484126023L245.7734375,101.0498579442501L246.075,101.43415380375727L246.3765625,100.8513969566141L246.678125,101.0350653060845L246.9796875,100.64973705155509L247.28125,100.36471690024649L247.58281250000002,100.29032794066838L247.884375,101.2207381597587L248.1859375,101.16685392175401L248.4875,100.50229295662471L248.7890625,100.5755930032049L249.09062500000002,101.84071774567877L249.3921875,101.16221944774901L249.69375000000002,100.95378868920463L249.9953125,100.95754148278917L250.29687500000003,101.41162950651987L250.5984375,101.16431061284884L250.89999999999998,100.85170215368271L251.2015625,101.70893289787429L251.50312499999998,100.83981077160155L251.8046875,101.46051378761018L252.10625,100.8384505723204L252.4078125,101.00033689396723L252.709375,101.10686197451183L253.01093749999998,101.49595432622093L253.3125,100.91085009915489L253.6140625,101.54133449281966L253.915625,101.83502450159618L254.2171875,101.41320447410857L254.51875,100.54810642770359L254.8203125,102.03269046970776L255.121875,100.6633503479617L255.4234375,101.99494022982462L255.725,101.16535431146622L256.0265625,101.99263806428229L256.328125,101.2243590780667L256.6296875,100.5377711738859L256.93125,102.40274756721088L257.2328125,101.70762544870377L257.534375,101.37913543837412L257.8359375,101.28552659920284L258.1375,101.69575667381287L258.4390625,101.51898351737431L258.740625,101.65631843038967L259.0421875,101.62110396368163L259.34375,102.40589750238827L259.6453125,102.30459468279565L259.946875,101.74976525136402L260.2484375,100.6962098990168L260.55,99.9784052329404L260.8515625,102.18804708123207L261.153125,102.26510745712689L261.45468750000003,101.33994587404388L261.75625,101.8160646046911L262.0578125,101.96933381898063L262.359375,101.64725294709206L262.6609375,102.2859889652048L262.96250000000003,101.68071912441934L263.26406249999997,101.38883769086429" style="fill: none;" fill="none"></path></g><g><path stroke="rgb(255, 112, 67)" stroke-width="2px" d="M36.1875,-18.70887269292558L39.20312499999999,20.727230582918423L42.21875,18.92409615857258L45.234375,-53.178462624549866L48.25,26.833703960691196L51.265625,5.91890302726199L54.28125,42.4548881139074L57.296875,32.88771358558108L60.3125,48.89815587656838L63.328125,37.36091543095452L66.34375,36.4276680094855L69.359375,26.16480995076043L72.375,31.660550083432895L75.390625,32.989129441125044L78.40624999999999,47.39129621641976L81.421875,32.95925780705045L84.4375,40.57548456532615L87.453125,11.962091343743452L90.46875,36.09452845369066L93.484375,55.06873571021217L96.5,19.553299478122142L99.515625,61.89237698486873L102.53125,42.39919153281619L105.546875,61.58543916259492L108.5625,57.214203281061984L111.578125,16.549346464020857L114.59375,56.08971410138267L117.609375,54.29423597880772L120.625,48.221537743295926L123.640625,45.588320042405826L126.65625,43.634584052222095L129.671875,13.856423173631924L132.6875,29.13646482569831L135.703125,57.0882812312671L138.71875,45.51086780854632L141.734375,34.14801169293267L144.75,60.98572315488542L147.765625,49.327594527176444L150.78125,74.24597814253399L153.796875,61.90873705489295L156.81249999999997,46.96857943705152L159.828125,47.52000648634774L162.84375,66.03497127975736L165.859375,51.95733825649533L168.875,64.09123520340238L171.890625,40.89775759833199L174.90625,32.276731661387856L177.921875,52.03632777929306L180.9375,50.35231817620141L181.540625,36.938650795391624L182.14375,48.07751486982616L182.746875,40.503684129033786L183.35,27.0315244112696L183.953125,17.48540471281322L184.55625,53.88161707775933L185.15937499999998,33.54461071320941L185.7625,45.43341557468685L186.365625,23.407961062022622L186.96875,67.33884851421628L187.571875,62.2326528770583L188.175,22.29217565059662L188.77812500000002,46.26747771671842L189.38125000000002,50.142847486904685L189.984375,42.623492538928986L190.5875,46.00558095318931L191.19062499999998,61.83687633275986L191.79375,57.02438577583858L192.396875,53.81703587089265L193,68.58421834026065L193.603125,27.520495329584378L194.20624999999998,28.23115235567093L194.809375,59.74789659466062L195.4125,32.37590940509523L196.015625,17.602163314819336L196.61875,52.30973160266876L197.221875,-45.18850886821747L197.82500000000002,42.95813924074173L198.42812500000002,52.936048737594064L199.03125,66.1230262858527L199.63437499999998,47.58877002341407L200.23749999999998,68.13528475591114L200.840625,39.1165446128164L201.44375,52.613278346402296L202.046875,42.245206424168174L202.65,47.432350873947144L203.253125,30.680603742599487L203.85625,18.040170090539107L204.459375,15.948025345802307L205.0625,52.424304842948914L205.665625,41.55298932961057L206.26875,41.98546487944466L206.87187500000002,56.866436873163494L207.47500000000002,37.992085576057434L208.078125,22.564200435365933L208.68124999999998,43.86724218300412L209.28437499999998,58.70880984408515L209.8875,26.447007971150526L210.490625,41.92012256383896L211.09375,54.4515443444252L211.696875,57.69352092913219L212.3,36.01989458288463L212.90312500000002,49.81165968520301L213.50625,72.46329568965095L214.109375,56.49947696072715L214.7125,47.60933503082822L215.315625,57.86506428888866L215.91875000000002,65.48225562061582L216.521875,27.066098340920036L217.125,63.42463959114892L217.72812499999998,43.93419714484895L218.33124999999998,62.57753310033253L218.934375,45.71663845436913L219.5375,53.28200657027108L220.140625,50.844182814870564L220.74375,76.64500042370388L221.346875,40.35874943222316L221.95000000000002,35.459319157259785L222.553125,78.4885338970593L223.15625,43.124038338661194L223.759375,48.297776724611026L224.3625,31.908648925168166L224.965625,35.39277866056989L225.56875,57.468255349567954L226.171875,66.18183512347085L226.775,67.84664368629456L227.37812499999998,58.07023207630429L227.98125,51.72019636631012L228.584375,49.910973072052L229.1875,62.59440560000283L229.790625,32.57918572425842L230.39375,50.53958106892449L230.99687500000002,65.65044558048248L231.60000000000002,46.74320082153591L232.203125,66.30912114041192L232.80625,56.74025107281548L233.40937499999998,47.04557199137551L234.0125,57.57438103641782L234.615625,43.02024872813905L235.21875,56.82889386585781L235.821875,68.42977355207715L236.42499999999998,66.23675552436283L237.028125,67.00548288651875L237.63125,8.909758942467818L238.234375,72.07126440320697L238.8375,57.08698508569172L239.440625,52.56267591885158L240.04375000000002,73.89239415100643L240.64687500000002,68.24008415426526L241.25,43.76469596794675L241.85312499999998,62.61797736372266L242.45624999999998,48.887568175792694L243.059375,58.50739485025406L243.6625,53.42131961243493L244.265625,66.47462838036674L244.86875,45.89251485892703L245.471875,48.16304540634155L246.075,74.04261139460972L246.678125,77.86868241855076L247.28125,52.61437856299537L247.884375,51.62223941087723L248.4875,28.938312802995938L249.09062500000002,61.58656198637826L249.69375000000002,43.992757303374134L250.29687500000003,54.51727098226547L250.89999999999998,62.41956159046718L251.50312499999998,60.89529439381191L252.10625,59.54203552007675L252.709375,55.1242589695113L253.3125,50.474562789712635L253.915625,36.88581025600433L254.51875,65.23164738076073L255.121875,49.13235883201871L255.725,70.83410852296012L256.328125,45.92927415030343L256.93125,73.66215498958316L257.534375,54.407400037561146L258.1375,72.12663694790432L258.740625,56.38078167608806L259.34375,59.631868958473206L259.946875,54.39492086853299L260.55,27.82140456778663L261.153125,74.28598533357892L261.75625,52.89100014311927L262.359375,55.03355138642448L262.96250000000003,18.490987607410972" style="fill: none;" fill="none"></path></g><g><path stroke="rgb(51, 187, 238)" stroke-width="2px" d="M36.1875,-18.424624953951167L39.20312499999999,36.05155972072055L42.21875,35.54973284687313L45.234375,-1.9104191064834595L48.25,39.90412637165616L51.265625,61.37694058247975L54.28125,44.538057804107666L57.296875,46.14702660696847L60.3125,55.1479211619922L63.328125,51.989576109818046L66.34375,41.63882129532951L69.359375,40.71413446324212L72.375,64.87583281312669L75.390625,61.25839601244245L78.40624999999999,65.61344514574323L81.421875,64.04147677762168L84.4375,59.26612983431134L87.453125,61.97680730479104L90.46875,57.86217810426439L93.484375,68.54065428461347L96.5,61.40996968746185L99.515625,63.77086117437908L102.53125,56.187286734580994L105.546875,69.17600675991604L108.5625,77.47089383431843L111.578125,60.77150495563234L114.59375,68.07798306431089L117.609375,76.08057424000332L120.625,91.67296436854771L123.640625,90.79785510471889L126.65625,61.81015463386262L129.671875,70.4510447553226L132.6875,67.08120943818774L135.703125,83.10245796612331L138.71875,62.67802959680557L141.734375,66.30903071165085L144.75,60.255209480013164L147.765625,72.0406391961234L150.78125,65.18378795896257L153.796875,84.30941817590168L156.81249999999997,59.87917654854911L159.828125,83.71077977759498L162.84375,67.89864775964192L165.859375,80.48636897972652L168.875,81.72017146008355L171.890625,53.02347827809197L174.90625,66.95787214381355L177.921875,77.71603113412857L180.9375,54.363820910453796L181.540625,88.59631039840833L182.14375,74.64736127001899L182.746875,67.83712605919156L183.35,73.8485211304256L183.953125,92.6222139128617L184.55625,88.29970782995224L185.15937499999998,76.73806669030871L185.7625,73.8365769982338L186.365625,80.15802214826856L186.96875,77.8400541799409L187.571875,78.99942625420434L188.175,82.07016090835843L188.77812500000002,76.87838198457446L189.38125000000002,78.97433980873653L189.984375,76.28926121337074L190.5875,69.18349727562496L191.19062499999998,86.14068348067147L191.79375,80.5989226443427L192.396875,78.91429511138371L193,76.08761261190686L193.603125,65.52697264296668L194.20624999999998,74.51478517055511L194.809375,63.33534118958882L195.4125,85.08678148474011L196.015625,75.22893123967307L196.61875,69.78715447017125L197.221875,50.263682918889174L197.82500000000002,80.05364475079945L198.42812500000002,64.27820420265198L199.03125,85.29079630545208L199.63437499999998,49.894952109881814L200.23749999999998,52.86785791601453L200.840625,76.08600750139782L201.44375,67.9678031546729L202.046875,77.43077360732215L202.65,64.28794790165765L203.253125,37.9729523573603L203.85625,80.01789524725505L204.459375,67.14878986563001L205.0625,70.964747939791L205.665625,87.41949687685285L206.26875,88.48567457709994L206.87187500000002,88.05618317638125L207.47500000000002,83.94419148138591L208.078125,73.28402712515422L208.68124999999998,78.03171040330615L209.28437499999998,75.92419276918683L209.8875,55.405047808374675L210.490625,75.52579379081726L211.09375,72.47243653024945L211.696875,63.8849521279335L212.3,75.86662732703346L212.90312500000002,89.37877916438238L213.50625,88.05724571432386L214.109375,87.97746493986675L214.7125,83.27129599877766L215.315625,76.55704338209969L215.91875000000002,78.1582955973489L216.521875,88.56468670708792L217.125,89.20450787033354L217.72812499999998,89.66805700319155L218.33124999999998,82.64854326418468L218.934375,88.57052689790726L219.5375,77.7078624027116L220.140625,80.84976449183056L220.74375,82.85260329927716L221.346875,71.07472438471657L221.95000000000002,82.11471968037742L222.553125,85.94874843529293L223.15625,84.2967506136213L223.759375,67.10094551529203L224.3625,87.95041166884559L224.965625,65.21125569513866L225.56875,91.6032664009503L226.171875,84.10895268406186L226.775,82.36435581105096L227.37812499999998,72.9956950204713L227.98125,80.96997445821762L228.584375,91.9619257066931L229.1875,76.83696561200279L229.790625,90.13110124213354L230.39375,90.72810438701084L230.99687500000002,74.09044067348752L231.60000000000002,78.47631847858429L232.203125,84.98766402687345L232.80625,98.48014760868891L233.40937499999998,92.50361659271375L234.0125,96.44245981744358L234.615625,82.67710368122373L235.21875,73.97913040433612L235.821875,84.7057825071471L236.42499999999998,81.31193835394723L237.028125,94.78719148891314L237.63125,60.68204830374036L238.234375,96.95190531441143L238.8375,86.56038596800396L239.440625,86.1856341106551L240.04375000000002,94.25600541063717L240.64687500000002,86.67619506801877L241.25,73.51963172640119L241.85312499999998,89.22146326303482L242.45624999999998,94.42033707669803L243.059375,83.8587589093617L243.6625,86.30181246144431L244.265625,69.98273680891309L244.86875,79.33889582327434L245.471875,87.90554393189294L246.075,90.14116897753307L246.678125,98.92108955127851L247.28125,87.5886212672506L247.884375,75.55468577998025L248.4875,82.3210027558463L249.09062500000002,90.14274771298682L249.69375000000002,81.98500715834754L250.29687500000003,88.31004685163498L250.89999999999998,94.60099113413266L251.50312499999998,60.40443954297474L252.10625,88.84944687570845L252.709375,74.4199856860297L253.3125,89.35165053606033L253.915625,90.84501747148379L254.51875,87.18097594806126L255.121875,84.76982114144734L255.725,78.47758448123932L256.328125,78.76321879455021L256.93125,92.80350850735391L257.534375,92.82539980326379L258.1375,101.78935044152396L258.740625,61.87123172623771L259.34375,93.2744426556996L259.946875,96.17725486840521L260.55,76.95642954111099L261.153125,78.66117747340884L261.75625,88.90938984070505L262.359375,78.62710843767438L262.96250000000003,84.9632482613836" style="fill: none;" fill="none"></path></g><g><path stroke="rgb(187, 187, 187)" stroke-width="2px" d="M36.790625000000006,-27.628042255129145L37.39375,15.91428034646168L37.996875,16.959651895931785L38.6,-37.43782961368561L39.20312499999999,38.37156233617236L39.80625,-18.803114533424377L40.409375,-6.296183875628884L41.0125,19.26389729976654L41.615624999999994,21.1964804955891L42.21875,34.87877404689789L42.821875,14.2189972911562L43.425000000000004,4.766599467822459L44.028124999999996,37.04106136730741L44.63125,19.88054609298706L45.234375,-3.296767371041426L45.8375,12.667450751577121L46.440625,25.425366435732144L47.04375,10.428931985582608L47.646875,35.334158216203946L48.25,40.08028913395745L48.853125,34.512296421187244L49.456250000000004,47.91422313451767L50.059374999999996,21.588172674179077L50.6625,44.20080373968395L51.265625,57.69879594019481L51.868750000000006,10.06869394438607L52.471875,29.278234515871304L53.075,49.90937549727303L53.678125,46.009115210601266L54.28125,43.16825046709607L54.884375,45.41355892590116L55.487500000000004,49.88511044638497L56.090625,70.3926277756691L56.69375,39.46584077392305L57.296875,44.74020376375745L57.900000000000006,44.15691564764293L58.503125,22.229176947048728L59.106249999999996,51.55722866739545L59.709375,47.85233218329293L60.3125,58.51697276319776L60.915625,70.52237044061933L61.51875,44.60754477126258L62.121875,11.012423566409495L62.724999999999994,57.12750470638275L63.328125,51.09057104587555L63.93125,54.940786549023215L64.534375,25.066816398075645L65.1375,51.46533797468457L65.74062500000001,44.9002475993974L66.34375,39.71673537152154L66.946875,23.48782472951072L67.55,51.28458595275879L68.153125,65.95921458516801L68.75625000000001,53.20605394669941L69.359375,39.860577387469135L69.96249999999999,65.73799569266183L70.565625,44.18580010107587L71.16875,66.01246205398014L71.771875,31.766276376587996L72.375,60.534724780491416L72.978125,47.33370816707611L73.58125000000001,60.76087957620621L74.18437499999999,55.151907563209534L74.7875,46.68011168922695L75.390625,59.007594006402144L75.99375,38.59330119405473L76.596875,45.044082079614896L77.2,42.554284393787384L77.80312500000001,54.825964629650116L78.40624999999999,61.47271971191678L79.00937499999999,69.61010249171939L79.6125,65.7071293422154L80.215625,44.330584083284634L80.81875,77.7955933724131L81.421875,63.067197305815554L82.025,48.59928128549029L82.62812500000001,48.34314935547965L83.23124999999999,57.09027066401073L83.834375,64.86893762009484L84.4375,57.22340440750122L85.040625,65.33343248707908L85.64375,38.21736622708184L86.246875,61.98432796342033L86.85000000000001,52.26358279160091L87.453125,60.70827264445168L88.05624999999999,51.19818127155304L88.659375,53.30350600821632L89.2625,51.988144321101046L89.86562500000001,63.298174968787606L90.46875,54.659002993788036L91.071875,59.11474455254418L91.675,63.53365899835313L92.278125,47.21838888951709L92.88125,61.00859409570694L93.484375,66.14102160930634L94.0875,60.09350778375352L94.69062500000001,56.77259442635945L95.29375,57.13757997751236L95.896875,58.24862541471208L96.5,63.61375627347401L97.10312499999999,51.68892308643886L97.70625,64.80143254995346L98.309375,81.41118391922542L98.91250000000001,52.11628187554223L99.515625,62.66218195642743L100.11874999999999,72.7443784219878L100.721875,61.95135160854885L101.325,47.83975504977363L101.928125,72.6354871221951L102.53125,54.58357033559254L103.134375,59.57654916388648L103.73750000000001,52.0233587878091L104.34062499999999,58.22756304911205L104.94375,63.30155851159776L105.546875,68.98744018588748L106.15,72.01799432720456L106.753125,52.19694433041981L107.35625,63.665014309542514L107.95937500000001,60.20008561440876L108.5625,76.31694748571941L109.16562499999999,47.04215076991488L109.76875,67.61228248051235L110.371875,67.86374225786754L110.97500000000001,64.38574660675866L111.578125,60.47413751057216L112.18125,69.45785813672202L112.784375,67.33859983512333L113.3875,71.33229563917432L113.990625,59.180832905428744L114.59375,65.10311796835491L115.196875,59.81669781037739L115.80000000000001,73.86326101848057L116.403125,72.33354548897061L117.00625,49.37060847452709L117.609375,72.24436765909195L118.21249999999999,71.0667741894722L118.815625,71.73799674000058L119.41875,68.26647428103855L120.02187500000001,54.181086991514476L120.625,87.93033648388726L121.22812499999999,62.991538575717385L121.83125,63.82820054462978L122.434375,48.09725848266055L123.0375,53.6492754476411L123.640625,87.02339629616056L124.24375,57.44567076648984L124.84687500000001,62.07031064374107L125.44999999999999,51.063653417995994L126.053125,52.63159017051969L126.65625,60.57094149930137L127.259375,71.17920728240695L127.8625,70.98852316822324L128.465625,39.69563532727105L129.06875,59.9698389172554L129.671875,68.28972954409463L130.275,46.608816146850586L130.878125,73.16204626219613L131.48125000000002,62.94137322051185L132.084375,67.28980598279408L132.6875,67.42424340759005L133.290625,56.98605151687349L133.89375,65.67065640858242L134.49687500000002,55.828261945928844L135.1,68.83723801374435L135.703125,77.92862161568233L136.30625,72.08036002942494L136.909375,80.59000787564686L137.51250000000002,61.521257349422996L138.115625,67.26810308013644L138.71875,61.589651635714944L139.321875,59.216032300676616L139.92499999999998,72.11944032566888L140.528125,73.20822521618435L141.13125,59.99542272090912L141.734375,61.19416144915989L142.3375,63.447940068585524L142.94062499999998,48.4076702765056L143.54375,55.47980978659221L144.146875,72.48460673434394L144.75,56.35362290484565L145.353125,71.06494300706046L145.95625,75.59929730210986L146.55937500000002,72.58815520150321L147.16250000000002,63.975712461130954L147.765625,67.71209322554725L148.36874999999998,61.019566118717194L148.97187499999998,73.12277003696987L149.575,70.23969766923359L150.178125,54.31357266221727L150.78125,63.027853259018485L151.384375,59.98899474314281L151.9875,69.5635467512267L152.590625,61.353421568870544L153.19375,68.41212487220764L153.796875,81.76520498309817L154.4,71.10220719235284L155.003125,65.27780372755868L155.60625000000002,64.54226372071675L156.20937500000002,55.19163593224117L156.81249999999997,60.34170458997998L157.41562499999998,62.999782664435244L158.01874999999998,65.86237291778836L158.621875,48.459809992994565L159.225,69.91970042671475L159.828125,82.59642615488598L160.43125,72.03650961603437L161.034375,76.8458200948579L161.6375,73.63454407453537L162.240625,66.68030106169837L162.84375,63.504405294145855L163.446875,76.51158032246998L164.05,62.468694550650454L164.65312500000002,54.484814592770164L165.25625000000002,78.42166182824543L165.859375,77.94635318858283L166.46249999999998,79.7298645717757L167.06562499999998,69.92496036631721L167.66875,78.92489788361958L168.271875,79.0185444014413L168.875,77.73370995691845L169.478125,81.0827391232763L170.08125,63.85923268113817L170.68437500000002,55.91217230047498L171.2875,74.89045638697488L171.890625,52.077600972993025L172.49375,79.00435462168285L173.096875,78.48191752604076L173.70000000000002,87.73858229603086L174.303125,75.56139257975987L174.90625,63.90138001952852L175.50937499999998,72.16873907191413L176.11249999999998,58.53004725490297L176.715625,79.63367097718375L177.31875,73.33637030635562L177.921875,72.71931458371026L178.525,74.72139228241784L179.128125,71.35727658442089L179.73125000000002,78.54199990204403L180.334375,72.85564347675869L180.9375,54.956649260861525L181.23906250000002,79.29162418842316L181.540625,85.14525875023433L181.84218750000002,82.75947674683162L182.14375,73.74552277156285L182.44531250000003,64.40347817965916L182.746875,66.11907756328583L183.04843749999998,56.75621174914497L183.35,70.03724274465016L183.65156249999998,65.90708994013923L183.953125,89.06592202612332L184.2546875,80.74756492035729L184.55625,86.64869718892234L184.8578125,77.0906936441149L185.15937499999998,72.94253044469016L185.4609375,85.18597429990768L185.7625,71.01160510948726L186.0640625,67.81876902069364L186.365625,76.75215096984591L186.6671875,74.47344415528434L186.96875,76.03536739519664L187.2703125,78.3393942628588L187.571875,75.78308622326169L187.8734375,66.87353225265231L188.175,79.22911530733109L188.4765625,74.84844469172614L188.77812500000002,73.06185119492667L189.0796875,63.73000244583402L189.38125000000002,74.40459772518703L189.6828125,66.32595596143177L189.984375,71.46611513410296L190.28593750000002,71.82532078027725L190.5875,66.66557624510357L190.88906250000002,66.7973158785275L191.19062499999998,84.17374489137104L191.4921875,64.0067747405597L191.79375,78.3183017543384L192.09531249999998,52.35862341948918L192.396875,73.50027997153146L192.69843749999998,62.1542209982872L193,72.30628875323704L193.3015625,73.01633538518634L193.603125,62.200565738337374L193.9046875,77.53855715479169L194.20624999999998,72.69617989233562L194.5078125,52.29706404038838L194.809375,61.56469329765865L195.1109375,70.40228858164379L195.4125,82.30424329212734L195.7140625,62.79144233465195L196.015625,72.07880766902652L196.31718750000002,74.10902378388813L196.61875,67.69992302145276L196.9203125,74.15174383776528L197.221875,49.69258761405945L197.5234375,73.39404878446034L197.82500000000002,76.76012377228055L198.1265625,79.0622365645L198.42812500000002,56.74791491031647L198.7296875,72.30899408033916L199.03125,81.22047719785145L199.33281250000002,64.76217893191746L199.63437499999998,47.171185076236725L199.9359375,76.26212504931858L200.23749999999998,53.897698325770236L200.5390625,71.02138648714337L200.840625,72.16664413894925L201.1421875,79.98048034736088L201.44375,63.220669984817505L201.74531249999998,65.3504255584308L202.046875,71.23996787411826L202.3484375,71.99892893007824L202.65,64.2954911674772L202.9515625,88.1154215506145L203.253125,40.553178804261336L203.5546875,89.39932910033635L203.85625,78.0442573939051L204.1578125,59.966214231082375L204.459375,63.22373702696392L204.7609375,61.578747434275485L205.0625,68.56755684103284L205.36406250000002,65.80773133890969L205.665625,81.01262669052396L205.9671875,77.42983917679105L206.26875,84.678397664002L206.5703125,77.34589867932456L206.87187500000002,86.51071797098432L207.1734375,74.02745704139981L207.47500000000002,80.06942456960678L207.77656249999998,71.1976170710155L208.078125,69.9793758732932L208.3796875,83.15919447796685L208.68124999999998,75.04742564473834L208.9828125,76.04728892019817L209.28437499999998,70.45781937667302L209.5859375,71.93852251768112L209.8875,54.746515427316936L210.1890625,75.42301396812711L210.490625,71.51240712404251L210.79218749999998,76.82261758191245L211.09375,69.13232213258743L211.3953125,91.17851120659283L211.696875,60.962927571364816L211.9984375,77.50042636053902L212.3,70.30793370519366L212.6015625,83.10367121866771L212.90312500000002,84.6623164159911L213.2046875,87.45640688283103L213.50625,86.73977402278355L213.8078125,76.7538766520364L214.109375,81.57317950895855L214.41093750000002,84.7060764006206L214.7125,81.29398824487414L215.01406250000002,63.91954112904412L215.315625,72.70575780527932L215.6171875,76.63185811042786L215.91875000000002,73.1258898292269L216.22031249999998,84.00172678061894L216.521875,84.73490810394287L216.82343749999998,68.55217641592026L217.125,85.24593610422951L217.4265625,69.26713634388787L217.72812499999998,86.8206022637231L218.0296875,83.75313811642783L218.33124999999998,76.48613969768796L218.6328125,84.43506140368325L218.934375,84.0039046066148L219.2359375,81.67301286118371L219.5375,76.7250524844442L219.8390625,70.73339349031448L220.140625,75.27065657717841L220.4421875,78.60508903435299L220.74375,77.36112085410527L221.0453125,84.84581144366946L221.346875,68.63712670121875L221.6484375,81.52855291536876L221.95000000000002,76.96761256456375L222.2515625,83.89518662861416L222.553125,83.03656554222107L222.8546875,69.42682600021362L223.15625,79.90091057334628L223.45781250000002,77.11615687608719L223.759375,64.38306388684681L224.06093750000002,80.62372273206711L224.3625,86.69356492587498L224.66406249999997,82.67875400611332L224.965625,61.92735784394401L225.26718749999998,77.48415671927589L225.56875,86.65955617598125L225.87031249999998,78.65315192086356L226.171875,80.38746252230236L226.4734375,69.1986214859145L226.775,78.79536621911186L227.0765625,70.0103251167706L227.37812499999998,69.8859252844538L227.6796875,76.29525965452194L227.98125,78.6764297911099L228.2828125,71.65334034817559L228.584375,89.06761002966336L228.8859375,75.03616726398468L229.1875,70.90854646478381L229.4890625,83.62358384472984L229.790625,82.903635263443L230.0921875,73.94514426163265L230.39375,87.48272165230343L230.6953125,85.97138576848167L230.99687500000002,72.31791638476508L231.2984375,78.5571693267141L231.60000000000002,74.18920395203999L231.9015625,82.98345371655056L232.203125,79.84060966117042L232.50468750000002,80.92010299648557L232.80625,95.1476179233619L233.10781250000002,80.43210418735232L233.40937499999998,89.05182267512595L233.7109375,80.8523040328707L234.0125,92.23168223670551L234.31406249999998,72.85993884290967L234.615625,75.9789925983974L234.91718749999998,97.51748823268072L235.21875,74.30651266234261L235.5203125,77.2976097209113L235.821875,82.76497782979693L236.1234375,83.66463096652713L236.42499999999998,77.29954640354428L236.7265625,89.83346627865518L237.028125,92.3356790798051L237.3296875,84.6423618027142L237.63125,56.391505020005354L237.9328125,65.0831784265382L238.234375,92.7105289016451L238.53593750000002,77.66484091963086L238.8375,84.14954766205379L239.1390625,86.99683284759521L239.440625,81.2085029227393L239.7421875,83.82206743955612L240.04375000000002,90.34074525322234L240.3453125,68.35498896666935L240.64687500000002,83.71221156631198L240.9484375,75.93421529020581L241.25,69.47866428749902L241.55156250000002,74.90447284494128L241.85312499999998,84.42796274593898L242.1546875,83.48121883187976L242.45624999999998,90.32857881699289L242.7578125,75.84244516917637L243.059375,79.0293355669294L243.36093749999998,81.592591549669L243.6625,82.81772794042315L243.96406249999998,75.4355383515358L244.265625,66.49606753247124L244.5671875,78.13750451803207L244.86875,76.25064813239234L245.1703125,91.08993623512133L245.471875,83.03614354133606L245.7734375,76.02829134464264L246.075,84.31311821937561L246.3765625,76.66846668720245L246.678125,90.46648644549505L246.9796875,81.14281396354947L247.28125,82.05257251432964L247.58281250000002,76.24577251502446L247.884375,67.55091149466378L248.1859375,80.05070581606456L248.4875,75.60193480764117L248.7890625,64.47171421561922L249.09062500000002,82.84341724429812L249.3921875,58.611078960554934L249.69375000000002,78.9412579536438L249.9953125,71.6453223313604L250.29687500000003,81.5496906382697L250.5984375,83.51051021473748L250.89999999999998,89.32923173904419L251.2015625,79.94362309149334L251.50312499999998,55.84663405588695L251.8046875,66.93818128108978L252.10625,84.56377920934132L252.4078125,87.33942220892224L252.709375,70.53946901219231L253.01093749999998,67.26584989683968L253.3125,83.14153072663716L253.6140625,70.16259961468833L253.915625,87.30558678082058L254.2171875,83.95655761446271L254.51875,81.45322575739452L254.8203125,76.357346534729L255.121875,79.4696256688663L255.4234375,65.1148435643741L255.725,76.24941980838776L256.0265625,73.73144602775574L256.328125,74.82862572159085L256.6296875,82.6975029025759L256.93125,85.92736956902912L257.2328125,89.27346733638218L257.534375,88.95860946178436L257.8359375,70.87361835581916L258.1375,97.62278498922075L258.4390625,75.99831421034676L258.740625,61.21535192217145L259.0421875,83.05574397529874L259.34375,89.55614387563297L259.6453125,88.10077962705067L259.946875,91.68037199122564L260.2484375,55.58313971757889L260.55,70.38885991062436L260.8515625,81.47562948295048L261.153125,71.91828154666084L261.45468750000003,71.29679481472287L261.75625,84.18950963871819L262.0578125,76.408898464271L262.359375,75.37138668128422L262.6609375,77.98067090341023L262.96250000000003,78.91262217930385L263.26406249999997,83.4472176177161" style="fill: none;" fill="none"></path></g></g></g></g></g></g><g transform="translate(58, 177)" clip-path="url(#clip_1)"><clipPath id="clip_1"><rect width="271" height="23"></rect></clipPath><g><g><line x1="0" y1="0" x2="0" y2="5" style="visibility: inherit;" fill="rgb(0, 0, 0)" stroke="rgb(204, 204, 204)" stroke-width="1px"></line><line x1="30.15625" y1="0" x2="30.15625" y2="5" style="visibility: inherit;" fill="rgb(0, 0, 0)" stroke="rgb(204, 204, 204)" stroke-width="1px"></line><line x1="60.3125" y1="0" x2="60.3125" y2="5" style="visibility: inherit;" fill="rgb(0, 0, 0)" stroke="rgb(204, 204, 204)" stroke-width="1px"></line><line x1="90.46875" y1="0" x2="90.46875" y2="5" style="visibility: inherit;" fill="rgb(0, 0, 0)" stroke="rgb(204, 204, 204)" stroke-width="1px"></line><line x1="120.625" y1="0" x2="120.625" y2="5" style="visibility: inherit;" fill="rgb(0, 0, 0)" stroke="rgb(204, 204, 204)" stroke-width="1px"></line><line x1="150.78125" y1="0" x2="150.78125" y2="5" style="visibility: inherit;" fill="rgb(0, 0, 0)" stroke="rgb(204, 204, 204)" stroke-width="1px"></line><line x1="180.9375" y1="0" x2="180.9375" y2="5" style="visibility: inherit;" fill="rgb(0, 0, 0)" stroke="rgb(204, 204, 204)" stroke-width="1px"></line><line x1="211.09375" y1="0" x2="211.09375" y2="5" style="visibility: inherit;" fill="rgb(0, 0, 0)" stroke="rgb(204, 204, 204)" stroke-width="1px"></line><line x1="241.25" y1="0" x2="241.25" y2="5" style="visibility: inherit;" fill="rgb(0, 0, 0)" stroke="rgb(204, 204, 204)" stroke-width="1px"></line><line x1="271.40625" y1="0" x2="271.40625" y2="5" style="visibility: inherit;" fill="rgb(0, 0, 0)" stroke="rgb(204, 204, 204)" stroke-width="1px"></line></g><g transform="translate(0, 8)"><text x="0" y="0" dx="0em" dy="0.95em" style="text-anchor: middle; visibility: hidden; font-family: &quot;Helvetica Neue&quot;, sans-serif; font-size: 12px; font-weight: 200;" fill="rgb(50, 49, 63)" stroke="none" stroke-width="1px">-100</text><text x="30.15625" y="0" dx="0em" dy="0.95em" style="text-anchor: middle; visibility: inherit; font-family: &quot;Helvetica Neue&quot;, sans-serif; font-size: 12px; font-weight: 200;" fill="rgb(50, 49, 63)" stroke="none" stroke-width="1px">0</text><text x="60.3125" y="0" dx="0em" dy="0.95em" style="text-anchor: middle; visibility: inherit; font-family: &quot;Helvetica Neue&quot;, sans-serif; font-size: 12px; font-weight: 200;" fill="rgb(50, 49, 63)" stroke="none" stroke-width="1px">100</text><text x="90.46875" y="0" dx="0em" dy="0.95em" style="text-anchor: middle; visibility: inherit; font-family: &quot;Helvetica Neue&quot;, sans-serif; font-size: 12px; font-weight: 200;" fill="rgb(50, 49, 63)" stroke="none" stroke-width="1px">200</text><text x="120.625" y="0" dx="0em" dy="0.95em" style="text-anchor: middle; visibility: inherit; font-family: &quot;Helvetica Neue&quot;, sans-serif; font-size: 12px; font-weight: 200;" fill="rgb(50, 49, 63)" stroke="none" stroke-width="1px">300</text><text x="150.78125" y="0" dx="0em" dy="0.95em" style="text-anchor: middle; visibility: inherit; font-family: &quot;Helvetica Neue&quot;, sans-serif; font-size: 12px; font-weight: 200;" fill="rgb(50, 49, 63)" stroke="none" stroke-width="1px">400</text><text x="180.9375" y="0" dx="0em" dy="0.95em" style="text-anchor: middle; visibility: inherit; font-family: &quot;Helvetica Neue&quot;, sans-serif; font-size: 12px; font-weight: 200;" fill="rgb(50, 49, 63)" stroke="none" stroke-width="1px">500</text><text x="211.09375" y="0" dx="0em" dy="0.95em" style="text-anchor: middle; visibility: inherit; font-family: &quot;Helvetica Neue&quot;, sans-serif; font-size: 12px; font-weight: 200;" fill="rgb(50, 49, 63)" stroke="none" stroke-width="1px">600</text><text x="241.25" y="0" dx="0em" dy="0.95em" style="text-anchor: middle; visibility: inherit; font-family: &quot;Helvetica Neue&quot;, sans-serif; font-size: 12px; font-weight: 200;" fill="rgb(50, 49, 63)" stroke="none" stroke-width="1px">700</text><text x="271.40625" y="0" dx="0em" dy="0.95em" style="text-anchor: middle; visibility: hidden; font-family: &quot;Helvetica Neue&quot;, sans-serif; font-size: 12px; font-weight: 200;" fill="rgb(50, 49, 63)" stroke="none" stroke-width="1px">800</text></g><line x1="0" y1="0" x2="271.40625" y2="0" fill="rgb(0, 0, 0)" stroke="rgb(204, 204, 204)" stroke-width="1px"></line></g></g></g></g></svg>