<svg viewBox="0 0 330 200" xmlns="http://www.w3.org/2000/svg"><g><g><g><g><g><line x1="58.59375" y1="177" x2="53.59375" y2="177" style="visibility: inherit;" fill="rgb(0, 0, 0)" stroke="rgb(204, 204, 204)" stroke-width="1px"></line><line x1="58.59375" y1="165.2" x2="53.59375" y2="165.2" style="visibility: inherit;" fill="rgb(0, 0, 0)" stroke="rgb(204, 204, 204)" stroke-width="1px"></line><line x1="58.59375" y1="153.4" x2="53.59375" y2="153.4" style="visibility: inherit;" fill="rgb(0, 0, 0)" stroke="rgb(204, 204, 204)" stroke-width="1px"></line><line x1="58.59375" y1="141.6" x2="53.59375" y2="141.6" style="visibility: inherit;" fill="rgb(0, 0, 0)" stroke="rgb(204, 204, 204)" stroke-width="1px"></line><line x1="58.59375" y1="129.8" x2="53.59375" y2="129.8" style="visibility: inherit;" fill="rgb(0, 0, 0)" stroke="rgb(204, 204, 204)" stroke-width="1px"></line><line x1="58.59375" y1="118" x2="53.59375" y2="118" style="visibility: inherit;" fill="rgb(0, 0, 0)" stroke="rgb(204, 204, 204)" stroke-width="1px"></line><line x1="58.59375" y1="106.2" x2="53.59375" y2="106.2" style="visibility: inherit;" fill="rgb(0, 0, 0)" stroke="rgb(204, 204, 204)" stroke-width="1px"></line><line x1="58.59375" y1="94.39999999999999" x2="53.59375" y2="94.39999999999999" style="visibility: inherit;" fill="rgb(0, 0, 0)" stroke="rgb(204, 204, 204)" stroke-width="1px"></line><line x1="58.59375" y1="82.6" x2="53.59375" y2="82.6" style="visibility: inherit;" fill="rgb(0, 0, 0)" stroke="rgb(204, 204, 204)" stroke-width="1px"></line><line x1="58.59375" y1="70.79999999999998" x2="53.59375" y2="70.79999999999998" style="visibility: inherit;" fill="rgb(0, 0, 0)" stroke="rgb(204, 204, 204)" stroke-width="1px"></line><line x1="58.59375" y1="58.999999999999986" x2="53.59375" y2="58.999999999999986" style="visibility: inherit;" fill="rgb(0, 0, 0)" stroke="rgb(204, 204, 204)" stroke-width="1px"></line><line x1="58.59375" y1="47.19999999999999" x2="53.59375" y2="47.19999999999999" style="visibility: inherit;" fill="rgb(0, 0, 0)" stroke="rgb(204, 204, 204)" stroke-width="1px"></line><line x1="58.59375" y1="35.400000000000006" x2="53.59375" y2="35.400000000000006" style="visibility: inherit;" fill="rgb(0, 0, 0)" stroke="rgb(204, 204, 204)" stroke-width="1px"></line><line x1="58.59375" y1="23.599999999999994" x2="53.59375" y2="23.599999999999994" style="visibility: inherit;" fill="rgb(0, 0, 0)" stroke="rgb(204, 204, 204)" stroke-width="1px"></line><line x1="58.59375" y1="11.800000000000011" x2="53.59375" y2="11.800000000000011" style="visibility: inherit;" fill="rgb(0, 0, 0)" stroke="rgb(204, 204, 204)" stroke-width="1px"></line><line x1="58.59375" y1="0" x2="53.59375" y2="0" style="visibility: inherit;" fill="rgb(0, 0, 0)" stroke="rgb(204, 204, 204)" stroke-width="1px"></line></g><g transform="translate(48.59375, 0)"><text x="0" y="177" dx="0em" dy="0.3em" style="text-anchor: end; visibility: hidden; font-family: &quot;Helvetica Neue&quot;, sans-serif; font-size: 12px; font-weight: 200;" fill="rgb(50, 49, 63)" stroke="none" stroke-width="1px">-0.04</text><text x="0" y="165.2" dx="0em" dy="0.3em" style="text-anchor: end; visibility: inherit; font-family: &quot;Helvetica Neue&quot;, sans-serif; font-size: 12px; font-weight: 200;" fill="rgb(50, 49, 63)" stroke="none" stroke-width="1px">-0.02</text><text x="0" y="153.4" dx="0em" dy="0.3em" style="text-anchor: end; visibility: hidden; font-family: &quot;Helvetica Neue&quot;, sans-serif; font-size: 12px; font-weight: 200;" fill="rgb(50, 49, 63)" stroke="none" stroke-width="1px">0</text><text x="0" y="141.6" dx="0em" dy="0.3em" style="text-anchor: end; visibility: hidden; font-family: &quot;Helvetica Neue&quot;, sans-serif; font-size: 12px; font-weight: 200;" fill="rgb(50, 49, 63)" stroke="none" stroke-width="1px">0.02</text><text x="0" y="129.8" dx="0em" dy="0.3em" style="text-anchor: end; visibility: inherit; font-family: &quot;Helvetica Neue&quot;, sans-serif; font-size: 12px; font-weight: 200;" fill="rgb(50, 49, 63)" stroke="none" stroke-width="1px">0.04</text><text x="0" y="118" dx="0em" dy="0.3em" style="text-anchor: end; visibility: hidden; font-family: &quot;Helvetica Neue&quot;, sans-serif; font-size: 12px; font-weight: 200;" fill="rgb(50, 49, 63)" stroke="none" stroke-width="1px">0.06</text><text x="0" y="106.2" dx="0em" dy="0.3em" style="text-anchor: end; visibility: hidden; font-family: &quot;Helvetica Neue&quot;, sans-serif; font-size: 12px; font-weight: 200;" fill="rgb(50, 49, 63)" stroke="none" stroke-width="1px">0.08</text><text x="0" y="94.39999999999999" dx="0em" dy="0.3em" style="text-anchor: end; visibility: inherit; font-family: &quot;Helvetica Neue&quot;, sans-serif; font-size: 12px; font-weight: 200;" fill="rgb(50, 49, 63)" stroke="none" stroke-width="1px">0.1</text><text x="0" y="82.6" dx="0em" dy="0.3em" style="text-anchor: end; visibility: hidden; font-family: &quot;Helvetica Neue&quot;, sans-serif; font-size: 12px; font-weight: 200;" fill="rgb(50, 49, 63)" stroke="none" stroke-width="1px">0.12</text><text x="0" y="70.79999999999998" dx="0em" dy="0.3em" style="text-anchor: end; visibility: hidden; font-family: &quot;Helvetica Neue&quot;, sans-serif; font-size: 12px; font-weight: 200;" fill="rgb(50, 49, 63)" stroke="none" stroke-width="1px">0.14</text><text x="0" y="58.999999999999986" dx="0em" dy="0.3em" style="text-anchor: end; visibility: inherit; font-family: &quot;Helvetica Neue&quot;, sans-serif; font-size: 12px; font-weight: 200;" fill="rgb(50, 49, 63)" stroke="none" stroke-width="1px">0.16</text><text x="0" y="47.19999999999999" dx="0em" dy="0.3em" style="text-anchor: end; visibility: hidden; font-family: &quot;Helvetica Neue&quot;, sans-serif; font-size: 12px; font-weight: 200;" fill="rgb(50, 49, 63)" stroke="none" stroke-width="1px">0.18</text><text x="0" y="35.400000000000006" dx="0em" dy="0.3em" style="text-anchor: end; visibility: hidden; font-family: &quot;Helvetica Neue&quot;, sans-serif; font-size: 12px; font-weight: 200;" fill="rgb(50, 49, 63)" stroke="none" stroke-width="1px">0.2</text><text x="0" y="23.599999999999994" dx="0em" dy="0.3em" style="text-anchor: end; visibility: inherit; font-family: &quot;Helvetica Neue&quot;, sans-serif; font-size: 12px; font-weight: 200;" fill="rgb(50, 49, 63)" stroke="none" stroke-width="1px">0.22</text><text x="0" y="11.800000000000011" dx="0em" dy="0.3em" style="text-anchor: end; visibility: hidden; font-family: &quot;Helvetica Neue&quot;, sans-serif; font-size: 12px; font-weight: 200;" fill="rgb(50, 49, 63)" stroke="none" stroke-width="1px">0.24</text><text x="0" y="0" dx="0em" dy="0.3em" style="text-anchor: end; visibility: hidden; font-family: &quot;Helvetica Neue&quot;, sans-serif; font-size: 12px; font-weight: 200;" fill="rgb(50, 49, 63)" stroke="none" stroke-width="1px">0.26</text></g><line x1="58.59375" y1="0" x2="58.59375" y2="177" fill="rgb(0, 0, 0)" stroke="rgb(204, 204, 204)" stroke-width="1px"></line></g></g><g transform="translate(58, 0)" clip-path="url(#clip_0)"><clipPath id="clip_0"><rect width="271" height="177"></rect></clipPath><g><g><g><line x1="0" y1="0" x2="0" y2="177" fill="rgb(0, 0, 0)" stroke="rgb(60, 60, 60)" stroke-width="1px" opacity="0.25"></line><line x1="30.15625" y1="0" x2="30.15625" y2="177" fill="rgb(0, 0, 0)" stroke="rgb(60, 60, 60)" stroke-width="1px" opacity="0.25"></line><line x1="60.3125" y1="0" x2="60.3125" y2="177" fill="rgb(0, 0, 0)" stroke="rgb(60, 60, 60)" stroke-width="1px" opacity="0.25"></line><line x1="90.46875" y1="0" x2="90.46875" y2="177" fill="rgb(0, 0, 0)" stroke="rgb(60, 60, 60)" stroke-width="1px" opacity="0.25"></line><line x1="120.625" y1="0" x2="120.625" y2="177" fill="rgb(0, 0, 0)" stroke="rgb(60, 60, 60)" stroke-width="1px" opacity="0.25"></line><line x1="150.78125" y1="0" x2="150.78125" y2="177" fill="rgb(0, 0, 0)" stroke="rgb(60, 60, 60)" stroke-width="1px" opacity="0.25"></line><line x1="180.9375" y1="0" x2="180.9375" y2="177" fill="rgb(0, 0, 0)" stroke="rgb(60, 60, 60)" stroke-width="1px" opacity="0.25"></line><line x1="211.09375" y1="0" x2="211.09375" y2="177" fill="rgb(0, 0, 0)" stroke="rgb(60, 60, 60)" stroke-width="1px" opacity="0.25"></line><line x1="241.25" y1="0" x2="241.25" y2="177" fill="rgb(0, 0, 0)" stroke="rgb(60, 60, 60)" stroke-width="1px" opacity="0.25"></line><line x1="271.40625" y1="0" x2="271.40625" y2="177" fill="rgb(0, 0, 0)" stroke="rgb(60, 60, 60)" stroke-width="1px" opacity="0.25"></line></g><g><line x1="0" y1="177" x2="271.40625" y2="177" fill="rgb(0, 0, 0)" stroke="rgb(60, 60, 60)" stroke-width="1px" opacity="0.25"></line><line x1="0" y1="165.2" x2="271.40625" y2="165.2" fill="rgb(0, 0, 0)" stroke="rgb(60, 60, 60)" stroke-width="1px" opacity="0.25"></line><line x1="0" y1="153.4" x2="271.40625" y2="153.4" fill="rgb(0, 0, 0)" stroke="rgb(60, 60, 60)" stroke-width="1px" opacity="0.25"></line><line x1="0" y1="141.6" x2="271.40625" y2="141.6" fill="rgb(0, 0, 0)" stroke="rgb(60, 60, 60)" stroke-width="1px" opacity="0.25"></line><line x1="0" y1="129.8" x2="271.40625" y2="129.8" fill="rgb(0, 0, 0)" stroke="rgb(60, 60, 60)" stroke-width="1px" opacity="0.25"></line><line x1="0" y1="118" x2="271.40625" y2="118" fill="rgb(0, 0, 0)" stroke="rgb(60, 60, 60)" stroke-width="1px" opacity="0.25"></line><line x1="0" y1="106.2" x2="271.40625" y2="106.2" fill="rgb(0, 0, 0)" stroke="rgb(60, 60, 60)" stroke-width="1px" opacity="0.25"></line><line x1="0" y1="94.39999999999999" x2="271.40625" y2="94.39999999999999" fill="rgb(0, 0, 0)" stroke="rgb(60, 60, 60)" stroke-width="1px" opacity="0.25"></line><line x1="0" y1="82.6" x2="271.40625" y2="82.6" fill="rgb(0, 0, 0)" stroke="rgb(60, 60, 60)" stroke-width="1px" opacity="0.25"></line><line x1="0" y1="70.79999999999998" x2="271.40625" y2="70.79999999999998" fill="rgb(0, 0, 0)" stroke="rgb(60, 60, 60)" stroke-width="1px" opacity="0.25"></line><line x1="0" y1="58.999999999999986" x2="271.40625" y2="58.999999999999986" fill="rgb(0, 0, 0)" stroke="rgb(60, 60, 60)" stroke-width="1px" opacity="0.25"></line><line x1="0" y1="47.19999999999999" x2="271.40625" y2="47.19999999999999" fill="rgb(0, 0, 0)" stroke="rgb(60, 60, 60)" stroke-width="1px" opacity="0.25"></line><line x1="0" y1="35.400000000000006" x2="271.40625" y2="35.400000000000006" fill="rgb(0, 0, 0)" stroke="rgb(60, 60, 60)" stroke-width="1px" opacity="0.25"></line><line x1="0" y1="23.599999999999994" x2="271.40625" y2="23.599999999999994" fill="rgb(0, 0, 0)" stroke="rgb(60, 60, 60)" stroke-width="1px" opacity="0.25"></line><line x1="0" y1="11.800000000000011" x2="271.40625" y2="11.800000000000011" fill="rgb(0, 0, 0)" stroke="rgb(60, 60, 60)" stroke-width="1px" opacity="0.25"></line><line x1="0" y1="0" x2="271.40625" y2="0" fill="rgb(0, 0, 0)" stroke="rgb(60, 60, 60)" stroke-width="1px" opacity="0.25"></line></g></g></g><g><g><line x1="0" y1="153.4" x2="271.40625" y2="153.4" fill="rgb(0, 0, 0)" stroke="rgb(153, 153, 153)" stroke-width="1.5px"></line></g></g><g><g><line x1="30.15625" y1="0" x2="30.15625" y2="177" fill="rgb(0, 0, 0)" stroke="rgb(153, 153, 153)" stroke-width="1.5px"></line></g></g><g><g><g><g><g><path stroke="rgb(0, 153, 136)" stroke-width="2px" d="M31.0609375,-19.494676923751825L31.362499999999997,4.166033530235296L31.6640625,16.32133823037148L31.965625,23.994255030155188L32.2671875,35.2439722061157L32.56875,47.855029070377356L32.870312500000004,50.52664633989335L33.171875,52.35517617464066L33.4734375,54.38572134971618L33.775,56.144058370590216L34.0765625,56.85525294542312L34.378125000000004,58.54597311615943L34.6796875,60.09937595725059L34.981249999999996,60.88769998550414L35.2828125,61.820462608337394L35.584375,62.997141742706305L35.8859375,64.62720807790755L36.1875,65.49113180637359L36.4890625,66.28081854581832L36.790625000000006,68.128751629591L37.092187499999994,68.8294928908348L37.39375,70.5165557205677L37.6953125,71.23060759305953L37.996875,71.82730805277824L38.2984375,72.68003117442132L38.6,74.03742339611054L38.901562500000004,74.30236082673073L39.20312499999999,74.95278727412223L39.504687499999996,75.62771614789962L39.80625,76.7144299685955L40.1078125,78.02422400712967L40.409375,78.18977143764495L40.7109375,79.69977412521838L41.0125,79.82810195684432L41.314062500000006,80.8653361737728L41.615624999999994,81.27934981286525L41.9171875,81.70960169434547L42.21875,82.38338325321673L42.5203125,82.8362649321556L42.821875,83.40578589737414L43.1234375,83.68485156595708L43.425000000000004,84.09730907678603L43.7265625,84.47914075255393L44.028124999999996,84.94052399098872L44.3296875,85.3816379994154L44.63125,86.02147925794124L44.932812500000004,86.34173397123813L45.234375,86.86505023539067L45.5359375,87.01150212585925L45.8375,87.64604199826718L46.1390625,87.58322101235389L46.440625,88.08987703323363L46.7421875,88.26526675522327L47.04375,88.49454950690269L47.345312500000006,88.60914912223815L47.646875,88.99040054678916L47.9484375,89.64384693801402L48.25,90.18518176078796L48.551562499999996,90.02724792957305L48.853125,90.287868642807L49.1546875,90.87407622635364L49.456250000000004,90.70442747473716L49.7578125,91.49376254677772L50.059374999999996,91.4416190624237L50.3609375,91.76223863065242L50.6625,92.05836456418037L50.9640625,92.23112117648124L51.265625,92.74357091784476L51.5671875,93.50428026318549L51.868750000000006,93.31913177073001L52.170312499999994,93.71843252480029L52.471875,94.13833659291267L52.7734375,94.00814931988715L53.075,93.99862352907657L53.3765625,95.11084642410277L53.678125,94.79784485101699L53.979687500000004,95.37120338678359L54.28125,95.57677056789397L54.582812499999996,95.99690321981906L54.884375,95.62806565463542L55.1859375,95.97654167711734L55.487500000000004,96.1632638812065L55.7890625,96.57700058221816L56.090625,96.82160284519195L56.3921875,97.03177686929702L56.69375,97.07807827889918L56.9953125,96.84778887927531L57.296875,97.20971178412437L57.5984375,97.55537007153033L57.900000000000006,97.78951462507247L58.2015625,98.16580314338206L58.503125,98.34719758629798L58.8046875,98.11192330121993L59.106249999999996,98.24547339379787L59.4078125,98.15345961749553L59.709375,98.39712117016315L60.010937500000004,98.81853740811347L60.3125,98.78195081055163L60.614062499999996,99.08611674010753L60.915625,99.39587857723235L61.2171875,99.71600141525268L61.51875,99.50131725668906L61.8203125,99.81473203897475L62.121875,99.72850758731364L62.423437500000006,99.67014838159083L62.724999999999994,99.62557014226913L63.0265625,99.92628533542155L63.328125,100.02087067961692L63.6296875,100.45579534173011L63.93125,100.13320643603801L64.2328125,100.5464156359434L64.534375,100.81134867072105L64.8359375,100.322188103199L65.1375,100.64583640694617L65.4390625,100.30878957509994L65.74062500000001,100.59797007739543L66.0421875,101.29838604629039L66.34375,101.11169021725654L66.6453125,101.15723993778228L66.946875,100.983859115839L67.24843750000001,101.5336911022663L67.55,101.26498643457889L67.8515625,101.2379563987255L68.153125,101.63218435049056L68.4546875,101.24326657652854L68.75625000000001,101.35354068279266L69.0578125,101.60204645395278L69.359375,101.58864792585372L69.6609375,101.3755726456642L69.96249999999999,102.09230158627032L70.2640625,101.97592165470122L70.565625,101.93918559849261L70.8671875,101.87273804247378L71.16875,102.16511432230472L71.47031249999999,102.14447584152221L71.771875,102.45208811163901L72.0734375,102.25788857936858L72.375,102.35858854055404L72.6765625,102.76819314956664L72.978125,102.63409797251224L73.27968750000001,102.49614324569701L73.58125000000001,102.34588895142078L73.8828125,102.95196134746074L74.18437499999999,102.17985797822475L74.48593749999999,102.56630528867244L74.7875,102.86386866271495L75.0890625,102.1979732453823L75.390625,103.51164881289004L75.6921875,102.87979919612407L75.99375,102.88409393429755L76.2953125,103.48264064788818L76.596875,103.11586473286151L76.8984375,103.44963226616382L77.2,103.43127962350844L77.5015625,103.52833103537559L77.80312500000001,103.4107730180025L78.10468750000001,103.24940163791179L78.40624999999999,103.50379783809184L78.70781249999999,103.28882794976234L79.00937499999999,103.7035932779312L79.3109375,103.33593379855155L79.6125,103.57907664179801L79.9140625,103.82370967566966L80.215625,103.88170402646064L80.5171875,103.42530127763747L80.81875,104.10587880909442L81.1203125,103.81755110025405L81.421875,104.19675406217574L81.7234375,103.7743927180767L82.025,103.81318602859973L82.32656250000001,104.40475214421748L82.62812500000001,104.22302801311015L82.9296875,104.16229065656661L83.23124999999999,103.95067479610442L83.53281249999999,104.21224061548709L83.834375,104.41651102304458L84.1359375,104.24841839969157L84.4375,104.19343080520629L84.7390625,104.55121722221374L85.040625,104.29040309190749L85.34218750000001,104.35926836133002L85.64375,104.33121849000453L85.9453125,104.70043409764766L86.246875,104.79476887881755L86.5484375,104.52293876707553L86.85000000000001,104.64905988574027L87.1515625,104.63054459691047L87.453125,105.00753645002841L87.75468749999999,104.9068233013153L88.05624999999999,104.67629652619361L88.3578125,105.13282235860824L88.659375,104.94540561139583L88.9609375,104.72419802248477L89.2625,104.98546932041644L89.5640625,105.24206344187259L89.86562500000001,105.37287052869796L90.1671875,105.41303094625472L90.46875,105.02737928330897L90.7703125,104.89073891341685L91.071875,104.97650180160998L91.3734375,105.0727927327156L91.675,105.22237446308135L91.9765625,105.31386073827743L92.278125,105.52903283536433L92.57968749999999,105.70062454938888L92.88125,105.45731905996799L93.1828125,105.63630897700786L93.484375,105.60736235380172L93.7859375,105.70866014957427L94.0875,105.35239029824733L94.38906250000001,105.81949252784251L94.69062500000001,105.74860956668853L94.9921875,105.72291147112846L95.29375,105.60895364880561L95.59531249999999,105.63251976072787L95.896875,105.66817443966865L96.1984375,105.90469714403152L96.5,106.18311222791671L96.8015625,106.07968244850635L97.10312499999999,105.7722020536661L97.4046875,106.26066368222236L97.70625,105.95146451294421L98.0078125,105.84935788214206L98.309375,105.92572685480117L98.6109375,105.85643958449363L98.91250000000001,106.02807965278625L99.21406250000001,105.9315337628126L99.515625,106.35669086277484L99.81718749999999,106.22389685511588L100.11874999999999,106.4418998748064L100.4203125,106.31126422584056L100.721875,106.29538644254207L101.0234375,105.91688241958617L101.325,106.48722101151942L101.6265625,106.33695352971553L101.928125,106.37641940414905L102.2296875,106.15678992271422L102.53125,106.76068637669086L102.8328125,106.37479294240474L103.134375,106.4941268801689L103.43593750000001,106.53492469489574L103.73750000000001,106.41641277968883L104.0390625,106.88675914108752L104.34062499999999,106.9809664428234L104.64218749999999,106.74616251289844L104.94375,106.7193214982748L105.2453125,106.94315780103206L105.546875,106.65852259993552L105.8484375,106.83739822506904L106.15,106.7848063647747L106.45156250000001,107.08780739605426L106.753125,106.83781143426894L107.0546875,106.81036818921565L107.35625,106.91838283240794L107.6578125,106.86539095044135L107.95937500000001,106.7065515756607L108.2609375,107.1851709127426L108.5625,106.9208225250244L108.86406249999999,107.31064144670962L109.16562499999999,106.69597517848014L109.4671875,107.04978775382041L109.76875,107.31610547900199L110.0703125,107.02415559589862L110.371875,107.44212988913058L110.6734375,107.22977992296218L110.97500000000001,107.07690131068229L111.2765625,107.07199555039405L111.578125,107.17060748636722L111.8796875,107.31990788280963L112.18125,107.73811075985431L112.4828125,107.5300731152296L112.784375,107.46095728278159L113.0859375,107.2345582038164L113.3875,107.57690642178058L113.68906249999999,107.67619531750678L113.990625,107.65875701010226L114.2921875,107.90210645794868L114.59375,107.81266424953937L114.8953125,107.17616822719573L115.196875,107.75658209025859L115.49843750000001,107.93915022313594L115.80000000000001,108.00006780922412L116.1015625,107.78522540032863L116.403125,107.74076145291328L116.70468749999999,107.87137512266635L117.00625,107.87011791169643L117.3078125,107.79588971436023L117.609375,107.93409940004348L117.9109375,107.76085484921931L118.21249999999999,108.11575319766997L118.5140625,107.84123722612857L118.815625,108.20333156883716L119.1171875,108.20645261704921L119.41875,108.43432869911193L119.7203125,108.23593553304671L120.02187500000001,108.24686359763145L120.32343750000001,108.30229956805705L120.625,108.59678585231303L120.92656249999999,108.41526832580566L121.22812499999999,107.9548565685749L121.5296875,108.33129454553126L121.83125,108.69536262154578L122.1328125,108.37909933328628L122.434375,108.55813760459422L122.7359375,108.45263298749923L123.0375,108.29429913461207L123.3390625,108.6688381075859L123.640625,108.74694343805312L123.9421875,108.94704219102859L124.24375,108.6262995392084L124.54531250000001,109.05958015620708L124.84687500000001,108.56986571252345L125.14843750000001,109.13713161051272L125.44999999999999,108.90593227148055L125.75156249999999,108.97911865413188L126.053125,108.86860717236995L126.3546875,108.81018202900886L126.65625,108.75366468131541L126.9578125,108.27237267196178L127.259375,109.02178470194339L127.5609375,108.99180945158004L127.8625,108.93163915872573L128.1640625,109.20888055264949L128.465625,109.07766025662421L128.7671875,109.09206982851028L129.06875,109.07743606865405L129.3703125,109.16171316206454L129.671875,109.27340272963046L129.9734375,108.96238368153571L130.275,109.13499523103236L130.5765625,109.2683606982231L130.878125,109.13227860033511L131.1796875,109.34992995262145L131.48125000000002,109.25591167211532L131.7828125,109.20379016697406L132.084375,109.5138729006052L132.38593749999998,109.45975128710269L132.6875,109.19410172998904L132.9890625,109.74610086679458L133.290625,109.552815669775L133.5921875,109.21409841775893L133.89375,109.54931218326091L134.1953125,109.5469691991806L134.49687500000002,109.6429392337799L134.7984375,109.76924058198928L135.1,109.76326663196086L135.4015625,109.50054910182952L135.703125,109.62461736202239L136.0046875,109.65524759292602L136.30625,109.7058964908123L136.6078125,109.98825904130935L136.909375,109.48277231454848L137.2109375,109.42726161479949L137.51250000000002,109.92454569935798L137.8140625,109.88024879395961L138.115625,110.07706824839114L138.4171875,109.89779699742793L138.71875,109.69225619137286L139.02031250000002,109.85345173776149L139.321875,110.23594278991222L139.62343750000002,109.7766212016344L139.92499999999998,110.20015623569488L140.2265625,110.23726154267787L140.528125,110.65734584033488L140.82968749999998,109.97179661095142L141.13125,110.04508409798144L141.43281249999998,110.40558274984359L141.734375,110.06758202016353L142.0359375,110.38290459811687L142.3375,110.0650016605854L142.6390625,110.52758935987949L142.94062499999998,110.34645427167415L143.2421875,110.51997136473655L143.54375,110.28867531716823L143.8453125,110.22811819016933L144.146875,110.28888631761073L144.4484375,110.47879990339278L144.75,110.53484250009059L145.05156250000002,110.20094748735427L145.353125,110.64514737725257L145.6546875,110.71096632778644L145.95625,110.45192372202872L146.2578125,110.33438328802585L146.55937500000002,110.52556287646293L146.8609375,110.8257505685091L147.16250000000002,110.0674369573593L147.4640625,110.62348026931285L147.765625,110.74481431543826L148.06718750000002,110.88267672955989L148.36874999999998,110.92208985388278L148.6703125,110.8085496366024L148.97187499999998,111.19000766575336L149.2734375,110.82823421955108L149.575,110.81578519344329L149.87656249999998,111.24005872905254L150.178125,111.1347607165575L150.47968749999998,110.863396564126L150.78125,111.0642733812332L151.0828125,111.02522511184215L151.384375,110.96550759077071L151.6859375,111.37787278890609L151.9875,110.8166116118431L152.2890625,111.49029646217822L152.590625,111.16724159717559L152.8921875,111.39545615911483L153.19375,110.9703078508377L153.4953125,111.25121537744998L153.796875,111.29300225675105L154.09843750000002,111.46952610611915L154.4,111.22855480909347L154.7015625,111.42780956029891L155.003125,111.6383308559656L155.3046875,111.52700174748897L155.60625000000002,111.6064214348793L155.9078125,111.24563705325126L156.20937500000002,111.86729271113872L156.5109375,111.53699789345264L156.81249999999997,111.66736100018024L157.1140625,111.59728687405585L157.41562499999998,112.10023719966411L157.7171875,111.86814990043639L158.01874999999998,111.84130888581275L158.3203125,111.57997604608535L158.621875,111.98680248260497L158.9234375,112.03830417394637L159.225,112.12713096439838L159.52656249999998,112.32655715346336L159.828125,111.92660581469535L160.1296875,111.94072086513042L160.43125,111.72669168710708L160.7328125,112.64198523163795L161.034375,112.08629798293113L161.3359375,112.4268351137638L161.6375,112.00853113234042L161.9390625,112.42471631765365L162.240625,111.85767021179198L162.5421875,112.14623529613017L162.84375,112.23223116397857L163.14531250000002,112.36676152944564L163.446875,112.1395404279232L163.74843750000002,112.50647019743919L164.05,112.04716619253158L164.3515625,112.15599846243857L164.65312500000002,112.15536985695361L164.9546875,112.45647188425063L165.25625000000002,112.3656801521778L165.55781249999998,111.90560247898101L165.859375,112.30796713531016L166.1609375,112.52972420454024L166.46249999999998,112.68220719099044L166.7640625,112.69533317685126L167.06562499999998,112.71273631751536L167.3671875,112.4806446224451L167.66875,112.68798332810401L167.9703125,112.89887827038764L168.271875,112.68023785352706L168.57343749999998,112.81814422607421L168.875,112.76567984521388L169.1765625,112.77217690050601L169.478125,112.86701280772685L169.7796875,112.91545938849448L170.08125,113.00708633065223L170.3828125,112.45795328319072L170.68437500000002,112.60781634747981L170.9859375,113.56714304685592L171.2875,113.14731810390948L171.5890625,113.24694108366965L171.890625,112.7979189544916L172.19218750000002,113.25307328402995L172.49375,113.56549460589885L172.79531250000002,113.0038729697466L173.096875,113.07917814850806L173.3984375,113.31673827171325L173.70000000000002,113.08545541167258L174.00156249999998,113.17437891066074L174.303125,113.07142827808856L174.60468749999998,113.08574553728103L174.90625,112.85391759276389L175.2078125,113.55303678810596L175.50937499999998,113.22135728001594L175.8109375,113.27852960824967L176.11249999999998,113.05325146913528L176.4140625,113.269966506958L176.715625,113.48769698441029L177.0171875,113.14471136927604L177.31875,113.2036640137434L177.6203125,113.43748327493667L177.921875,113.1965383529663L178.2234375,113.31264134645461L178.525,113.2755756020546L178.8265625,113.55066303312778L179.128125,113.9995049327612L179.4296875,113.34496397674083L179.73125000000002,113.65072559714316L180.0328125,113.55714250504971L180.334375,113.44265278577804L180.6359375,113.47232472300529L180.9375,113.80061503648757L181.23906250000002,113.68161957859994L181.540625,113.60595394074916L181.84218750000002,113.53335660099982L182.14375,113.55249170362949L182.44531250000003,113.56003936529159L182.746875,113.89938961863517L183.04843749999998,113.28847300410271L183.35,113.99732019901275L183.65156249999998,113.79024084806441L183.953125,113.46555072963237L184.2546875,113.73165745437144L184.55625,113.83524108827115L184.8578125,114.19390227794648L185.15937499999998,113.72556481659412L185.4609375,113.33798777461051L185.7625,113.87352008521556L186.0640625,113.571108096838L186.365625,114.21935420632363L186.6671875,113.80385477244855L186.96875,113.84361077249049L187.2703125,114.17414296567439L187.571875,114.06026866436004L187.8734375,113.8221722483635L188.175,114.28130921125413L188.4765625,114.22718320190906L188.77812500000002,113.93213864564895L189.0796875,113.81504219174384L189.38125000000002,114.14447982013225L189.6828125,114.1373497635126L189.984375,114.03491344451905L190.28593750000002,114.01537392437457L190.5875,114.14458092451096L190.88906250000002,113.93849942982197L191.19062499999998,114.33514509499072L191.4921875,114.21141531467438L191.79375,114.49307892620563L192.09531249999998,114.3991881251335L192.396875,114.29052729308606L192.69843749999998,114.4362934321165L193,114.56949625313283L193.3015625,114.17377371490001L193.603125,114.14501171708106L193.9046875,114.55506909787655L194.20624999999998,114.01339579522609L194.5078125,114.26797222495078L194.809375,114.41586155593396L195.1109375,114.40414223968982L195.4125,114.23583422005176L195.7140625,114.1625862956047L196.015625,114.52064525485038L196.31718750000002,114.34229273498057L196.61875,114.81055986285209L196.9203125,114.22075208425522L197.221875,114.49917156398296L197.5234375,114.45859793722629L197.82500000000002,114.7029144704342L198.1265625,114.49718903899193L198.42812500000002,114.46256298720836L198.7296875,114.81094230115413L199.03125,114.40503019988536L199.33281250000002,114.43896610438824L199.63437499999998,114.43139206767081L199.9359375,114.45153821408748L200.23749999999998,114.26806014180183L200.5390625,114.67689547836781L200.840625,114.39974200129508L201.1421875,114.93157740831374L201.44375,114.85359076559543L201.74531249999998,114.60754666626453L202.046875,115.01855794489384L202.3484375,114.67436347305775L202.65,114.71121821701526L202.9515625,114.60775327086449L203.253125,114.8456870406866L203.5546875,114.83130823969842L203.85625,114.68291338682174L204.1578125,114.89228736758233L204.459375,114.636352622509L204.7609375,114.48300365507602L205.0625,114.79211051166057L205.36406250000002,114.62994348406791L205.665625,115.07507089674472L205.9671875,114.99101359546184L206.26875,114.8689850062132L206.5703125,114.77183248996735L206.87187500000002,114.63433932662011L207.1734375,114.78517387211322L207.47500000000002,114.84799046218396L207.77656249999998,114.92168236672879L208.078125,114.92197249233723L208.3796875,115.01950305104255L208.68124999999998,114.88518808186053L208.9828125,115.01848321557044L209.28437499999998,114.76801250278949L209.5859375,114.94239557683467L209.8875,114.95895471572875L210.1890625,114.87052355110644L210.490625,115.28700765371322L210.79218749999998,115.2989335745573L211.09375,115.22383060455321L211.3953125,115.33209581077098L211.696875,115.03423791527749L211.9984375,115.28668236136436L212.3,115.58661069869996L212.6015625,115.48158083260059L212.90312500000002,115.18073376417159L213.2046875,114.88332424461841L213.50625,115.21862153112887L213.8078125,115.18691871464252L214.109375,115.32124247550964L214.41093750000002,115.50523046553135L214.7125,115.16478125154973L215.01406250000002,115.43565746545791L215.315625,115.52978564202786L215.6171875,115.04454616606235L215.91875000000002,115.24909351170062L216.22031249999998,115.32357227206231L216.521875,115.61052408218383L216.82343749999998,115.08905846774579L217.125,115.144125187397L217.4265625,115.37171993553639L217.72812499999998,115.3972290098667L218.0296875,115.41315514743329L218.33124999999998,115.49367379546165L218.6328125,115.2775302171707L218.934375,115.40980551540852L219.2359375,115.56233685612678L219.5375,115.61523642539977L219.8390625,115.56092579066753L220.140625,115.5905142068863L220.4421875,115.57168241739274L220.74375,115.38999345302581L221.0453125,115.73654409646987L221.346875,115.64486000835896L221.6484375,115.88229265213012L221.95000000000002,115.73113281428815L222.2515625,115.50371829569339L222.553125,115.59310335814952L222.8546875,115.76783809959888L223.15625,115.71694303452969L223.45781250000002,115.72069268822669L223.759375,115.19180689156055L224.06093750000002,115.7063226789236L224.3625,115.62319729626178L224.66406249999997,115.86896006166934L224.965625,115.98774012327193L225.26718749999998,115.5785882860422L225.56875,115.9273324549198L225.87031249999998,115.88194098472594L226.171875,116.01549986898898L226.4734375,116.01495918035506L226.775,115.94735112190246L227.0765625,115.75736280679703L227.37812499999998,116.21405568122863L227.6796875,115.58398198485374L227.98125,116.07472945153712L228.2828125,115.88011231422425L228.584375,116.07918683588504L228.8859375,115.82071129381656L229.1875,115.46920653581618L229.4890625,116.09761420786381L229.790625,115.80984916687012L230.0921875,116.12876754403113L230.39375,116.0372768729925L230.6953125,115.83436478078366L230.99687500000002,115.62161479294299L231.2984375,115.83636488914489L231.60000000000002,116.33129719793797L231.9015625,116.05016108751296L232.203125,116.1867267280817L232.50468750000002,115.93961883485316L232.80625,115.90161677598952L233.10781250000002,115.93616370260715L233.40937499999998,116.31151590645314L233.7109375,116.52322407960891L234.0125,116.10137704908847L234.31406249999998,116.35022569596767L234.615625,116.06907200217246L234.91718749999998,115.94993587732314L235.21875,116.05418328344821L235.5203125,116.30958613157271L235.821875,115.98318163454532L236.1234375,116.42004046738147L236.42499999999998,116.1315852791071L236.7265625,116.12647731006145L237.028125,116.45180482566357L237.3296875,116.11453380584717L237.63125,116.40628148019314L237.9328125,116.18980381786822L238.234375,116.03423934578895L238.53593750000002,116.21797677278519L238.8375,116.30106259286403L239.1390625,116.25606235265732L239.440625,116.3726928472519L239.7421875,116.35479737222195L240.04375000000002,116.52605060636998L240.3453125,116.28808166980744L240.64687500000002,116.3293454438448L240.9484375,116.4597349256277L241.25,116.26611124873162L241.55156250000002,116.43559735417367L241.85312499999998,116.34593974947929L242.1546875,116.39355551600457L242.45624999999998,116.1816143631935L242.7578125,116.92469198405742L243.059375,116.17091488242149L243.36093749999998,116.11568551659583L243.6625,116.30172196924686L243.96406249999998,116.78757906109095L244.265625,116.50113497078418L244.5671875,116.60139095187188L244.86875,116.44721996188163L245.1703125,116.48432966470718L245.471875,116.63053538799286L245.7734375,116.6354125753045L246.075,116.7443833142519L246.3765625,116.63800172656774L246.678125,116.69277832061051L246.9796875,116.83615971505641L247.28125,116.67452018857001L247.58281250000002,116.35156203210353L247.884375,116.79055504649877L248.1859375,116.5876341626048L248.4875,116.42714854478835L248.7890625,116.67347178012132L249.09062500000002,117.16094873994588L249.3921875,116.5163753569126L249.69375000000002,116.58535711616277L249.9953125,116.43910963237285L250.29687500000003,116.52715835869313L250.5984375,116.54603190869092L250.89999999999998,116.65401578098536L251.2015625,116.96086317449809L251.50312499999998,116.72645267248153L251.8046875,116.7561795577407L252.10625,116.71211782991885L252.4078125,116.77298486381768L252.709375,116.57934580147266L253.01093749999998,116.91584535092115L253.3125,116.79487396180629L253.6140625,116.92832075208425L253.915625,117.35642526447772L254.2171875,116.62990898042918L254.51875,116.63193546384572L254.8203125,116.59314874708653L255.121875,116.70359429121018L255.4234375,117.07108892649411L255.725,117.1337912246585L256.0265625,116.99571121633053L256.328125,116.88026320338248L256.6296875,116.93088133037091L256.93125,116.88690971732139L257.2328125,116.93766411542892L257.534375,117.25593410581351L257.8359375,116.92413371205329L258.1375,117.15549349933862L258.4390625,117.06146642714738L258.740625,116.81473437845706L259.0421875,117.1190431728959L259.34375,117.25589454323054L259.6453125,116.83396179378032L259.946875,117.0216664686799L260.2484375,117.06182029247285L260.55,117.12212905436753L260.8515625,117.08163235485553L261.153125,117.17197571098805L261.45468750000003,117.10577212423085L261.75625,117.33961336463689L262.0578125,117.39942319840192L262.359375,117.19855297505855L262.6609375,117.21615392863751L262.96250000000003,117.25796278715133L263.26406249999997,117.07346048355102" style="fill: none;" fill="none"></path></g><g><path stroke="rgb(51, 187, 238)" stroke-width="2px" d="M30.15625,-91.84301856756213L33.171875,7.242885941267019L36.1875,-136.54769990444186L39.20312499999999,12.25137706995011L42.21875,16.81112300753594L45.234375,-61.330226993560785L48.25,15.394756162166601L51.265625,58.982576990127555L54.28125,43.52694403529168L57.296875,7.477861309051519L60.3125,-27.69879612922668L63.328125,-55.742284691333765L66.34375,56.30049761533736L69.359375,70.3433419406414L72.375,72.98805665373801L75.390625,67.14064534902572L78.40624999999999,81.2433434665203L81.421875,63.62812977433204L84.4375,81.24921191632747L87.453125,36.501218342781044L90.46875,57.92840119600295L93.484375,72.0149050295353L96.5,68.25224843025207L99.515625,83.54599129557609L102.53125,85.1973554879427L105.546875,84.34529174268245L108.5625,74.54685758948327L111.578125,56.32936071753501L114.59375,74.30278282761574L117.609375,75.94873573780059L120.625,80.45039501190185L123.640625,76.28012072443963L126.65625,70.00448402166366L129.671875,55.021087640523916L132.6875,75.30822631120682L135.703125,78.86068251132966L138.71875,90.1327745258808L141.734375,31.908178293704992L144.75,79.06028013825416L147.765625,86.73410687744617L150.78125,98.25230453312396L153.796875,81.15547057390214L156.81249999999997,67.4244673192501L159.828125,88.34051039218903L162.84375,82.44129847884177L165.859375,77.67007734775542L168.875,88.92441895008086L171.890625,87.85282243192196L174.90625,54.74295389056205L177.921875,90.41313696801662L180.9375,93.78445368409156L181.540625,57.152297610044485L182.14375,88.07168703675269L182.746875,85.13103980720042L183.35,65.53788598775863L183.953125,59.47851594686507L184.55625,70.23335795998572L185.15937499999998,76.10179897546769L185.7625,69.92621164917946L186.365625,55.534495675563804L186.96875,84.30645007789134L187.571875,90.10658849179744L188.175,60.97959067821502L188.77812500000002,73.09834834337234L189.38125000000002,82.2451823592186L189.984375,83.90559759140015L190.5875,55.74978646039962L191.19062499999998,82.31300581395627L191.79375,75.18905501961707L192.396875,80.1389627546072L193,68.15671797990798L193.603125,51.2435818850994L194.20624999999998,65.57741340398789L194.809375,85.25123533010482L195.4125,77.27725606560708L196.015625,58.86150669455529L196.61875,89.0754732877016L197.221875,73.2996339738369L197.82500000000002,88.17324858307838L198.42812500000002,88.69874078929423L199.03125,76.80281277894973L199.63437499999998,92.46583279371261L200.23749999999998,81.8882179647684L200.840625,82.01569300293923L201.44375,72.14033600091933L202.046875,83.64436585605145L202.65,80.90461742281914L203.253125,86.00777302086352L203.85625,66.15294348597527L204.459375,64.60572999119759L205.0625,78.40812172889709L205.665625,89.06418915987014L206.26875,48.12641959786413L206.87187500000002,79.89737164378165L207.47500000000002,68.32206320166587L208.078125,67.83279713392258L208.68124999999998,73.15690975785255L209.28437499999998,83.8211226850748L209.8875,82.78952833414077L210.490625,67.09748696684838L211.09375,85.16192060112954L211.696875,86.39409724771977L212.3,45.250465983152395L212.90312500000002,65.5020159125328L213.50625,100.05332958102225L214.109375,92.84572590291499L214.7125,71.49271410107612L215.315625,90.48977848291396L215.91875000000002,80.60403410494328L216.521875,69.26627259850501L217.125,94.59590424001216L217.72812499999998,80.97158368825913L218.33124999999998,92.32468228936195L218.934375,84.8902926981449L219.5375,94.07737504839896L220.140625,95.1079671472311L220.74375,93.18020556271075L221.346875,80.4508873462677L221.95000000000002,74.30042665600776L222.553125,90.75363453626632L223.15625,74.5095280945301L223.759375,80.27276780605315L224.3625,78.95610746145249L224.965625,70.00262897610664L225.56875,76.23951193094253L226.171875,78.60120471715928L226.775,65.84537517428397L227.37812499999998,89.89154387414455L227.98125,92.22025465369224L228.584375,69.27017610669135L229.1875,79.4999259352684L229.790625,87.18885678946972L230.39375,65.65194051861762L230.99687500000002,82.97149423658847L231.60000000000002,51.15508478283883L232.203125,72.8164341688156L232.80625,80.83300914764405L233.40937499999998,77.20283445119857L234.0125,89.10675410330295L234.615625,69.85428687334061L235.21875,77.58308362364768L235.821875,80.73048491179942L236.42499999999998,78.07976108193397L237.028125,76.87910702228545L237.63125,63.446730935573584L238.234375,78.26011371016502L238.8375,78.866441065073L239.440625,71.83612611293792L240.04375000000002,80.50035376250744L240.64687500000002,92.07197848856448L241.25,68.00892975330353L241.85312499999998,89.90439731776713L242.45624999999998,84.76659368872642L243.059375,89.09865696132182L243.6625,87.20292788147927L244.265625,83.18428378701209L244.86875,61.31130095720292L245.471875,75.04361417293548L246.075,96.16028349995612L246.678125,75.6364902496338L247.28125,83.9724847316742L247.884375,93.19013137519359L248.4875,76.4736081302166L249.09062500000002,80.52978392839431L249.69375000000002,74.12665899991988L250.29687500000003,75.6433565557003L250.89999999999998,83.08716204166412L251.50312499999998,50.366031044721595L252.10625,89.17221259474753L252.709375,55.8201638996601L253.3125,73.373686337471L253.915625,56.883711630105964L254.51875,89.64333262443542L255.121875,79.26971566081046L255.725,93.90629764795302L256.328125,93.5524718850851L256.93125,90.22833574712276L257.534375,66.04084070920943L258.1375,75.35031210780143L258.740625,71.48144316077233L259.34375,59.52284362316131L259.946875,64.31753855347633L260.55,79.73834324777125L261.153125,83.5602118462324L261.75625,71.84539254903794L262.359375,86.99082408249377L262.96250000000003,73.25875263810158" style="fill: none;" fill="none"></path></g><g><path stroke="rgb(187, 187, 187)" stroke-width="2px" d="M42.21875,-134.2501688361168L45.234375,7.777525895833975L48.25,-24.84179738759994L51.265625,23.50107666254044L54.28125,34.522799068689324L57.296875,22.24729444980622L60.3125,39.17551707625387L63.328125,-8.461446201801294L66.34375,59.89692103266715L69.359375,78.1959080338478L72.375,77.54794325828553L75.390625,86.65549602508544L78.40624999999999,87.37728018462658L81.421875,47.31909673810006L84.4375,88.28198854029178L87.453125,82.05327306091785L90.46875,64.37465813159943L93.484375,82.02174168229102L96.5,88.79695270359515L99.515625,86.48687150478364L102.53125,93.78898140192031L105.546875,87.6610054463148L108.5625,92.06353847086429L111.578125,95.14773193895816L114.59375,93.19440413415431L117.609375,96.06195729374885L120.625,105.75083386301993L123.640625,104.84363306462764L126.65625,86.53561260700226L129.671875,77.8195096194744L132.6875,91.81306336224078L135.703125,87.6795031517744L138.71875,88.54223121106624L141.734375,89.36716821193694L144.75,82.46570859253406L147.765625,87.01579246819018L150.78125,96.76866810917853L153.796875,98.23677402138709L156.81249999999997,88.4061535090208L159.828125,98.71224593520164L162.84375,86.26487266421319L165.859375,78.6958120405674L168.875,94.87285111248492L171.890625,76.94082465171813L174.90625,83.71062439084052L177.921875,94.73349411189555L180.9375,96.13280069231986L181.540625,86.25956688225268L182.14375,94.18549958765506L182.746875,87.8968907535076L183.35,88.68495103120803L183.953125,97.54708830416202L184.55625,89.60564706623553L185.15937499999998,91.88338805139064L185.7625,89.31408841311931L186.365625,89.30245701372623L186.96875,89.8155089855194L187.571875,98.52680292129516L188.175,99.50988914966582L188.77812500000002,92.63295393586158L189.38125000000002,91.81729216277598L189.984375,88.20828784406184L190.5875,72.06507038474084L191.19062499999998,97.82627266049384L191.79375,82.38056112229823L192.396875,98.62934034466743L193,83.60215697586536L193.603125,79.30926066040992L194.20624999999998,81.31156694293021L194.809375,87.98881221711636L195.4125,97.42755215764045L196.015625,97.31786269843577L196.61875,96.47021237909793L197.221875,96.08076710402965L197.82500000000002,93.00382677614688L198.42812500000002,92.38768790066241L199.03125,82.27572467327118L199.63437499999998,94.5735513806343L200.23749999999998,81.15602445006371L200.840625,95.22169638574123L201.44375,91.57927926778792L202.046875,104.61161609888076L202.65,96.78233917951583L203.253125,92.18395378589629L203.85625,94.7585240393877L204.459375,87.17875074744224L205.0625,81.22786570489406L205.665625,96.32264834046363L206.26875,89.61628940105437L206.87187500000002,104.94370002448558L207.47500000000002,98.36163792908191L208.078125,88.17868624031544L208.68124999999998,96.40517588853835L209.28437499999998,94.0430523097515L209.8875,90.70252847075461L210.490625,84.89061799049377L211.09375,99.26623199284076L211.696875,84.44068592190742L212.3,76.07136216163636L212.90312500000002,98.8883961379528L213.50625,94.95168615281581L214.109375,102.3210920035839L214.7125,97.16937113702296L215.315625,96.44653637111186L215.91875000000002,95.22483941316604L216.521875,101.36286426484584L217.125,92.44903627932071L217.72812499999998,100.76813314259051L218.33124999999998,97.4549250692129L218.934375,101.83097753822803L219.5375,103.03540323078632L220.140625,98.55734083950519L220.74375,105.03408733904361L221.346875,91.84449803233146L221.95000000000002,90.33751528859138L222.553125,88.09007484614848L223.15625,90.12338940203189L223.759375,96.34160321354865L224.3625,93.22698172330855L224.965625,91.81959558427333L225.56875,88.10816373825072L226.171875,90.00327300429343L226.775,91.1664041519165L227.37812499999998,98.48818984031676L227.98125,101.23226378262042L228.584375,89.16718375086784L229.1875,93.10461905002593L229.790625,101.59897815585136L230.39375,86.7708033710718L230.99687500000002,97.32920397222041L231.60000000000002,76.63781922459603L232.203125,88.41170106232165L232.80625,85.2507869541645L233.40937499999998,92.89984312057494L234.0125,100.37287216782569L234.615625,90.21785605847835L235.21875,71.22767117023467L235.821875,93.80211617946624L236.42499999999998,85.71108002364635L237.028125,90.49686458110808L237.63125,80.87556090354919L238.234375,81.94407593607902L238.8375,86.95103731155395L239.440625,85.61035808324813L240.04375000000002,88.50732382535934L240.64687500000002,100.38374308645724L241.25,92.59871471822261L241.85312499999998,102.17978324890136L242.45624999999998,102.73674089610576L243.059375,100.43793503344058L243.6625,102.03538421690463L244.265625,83.46911680102349L244.86875,91.99517872333526L245.471875,88.63244708776473L246.075,98.90219908356666L246.678125,87.94732425510884L247.28125,94.61845491230487L247.884375,92.88735013604163L248.4875,100.18770169615745L249.09062500000002,95.70770952999591L249.69375000000002,92.1477496266365L250.29687500000003,84.84277364015578L250.89999999999998,99.57953248322009L251.50312499999998,56.26017015576362L252.10625,96.68475587069987L252.709375,91.65220189988612L253.3125,88.5675073057413L253.915625,96.37157406806945L254.51875,91.07466731369495L255.121875,80.63675675690173L255.725,85.02148222327232L256.328125,102.0922576278448L256.93125,86.02228369712829L257.534375,89.78557769358157L258.1375,88.0544948965311L258.740625,81.17110219001769L259.34375,99.50206015408038L259.946875,86.4861857533455L260.55,89.03489526510238L261.153125,98.62710725665092L261.75625,83.77277281284333L262.359375,86.9200510174036L262.96250000000003,64.3925228357315" style="fill: none;" fill="none"></path></g><g><path stroke="rgb(204, 51, 17)" stroke-width="2px" d="M40.409375,-51.40488926172256L41.0125,13.469429874420172L41.615624999999994,18.98868274092675L42.21875,-132.33606073856356L42.821875,48.61283715963364L43.425000000000004,-152.3500505447388L44.63125,-60.628720855712885L45.234375,9.258414918184286L45.8375,12.287897729873663L46.440625,-57.65750054121017L47.04375,3.0134787797927913L47.646875,39.57120444774628L48.25,-25.01919600963592L48.853125,24.255236202478414L49.456250000000004,29.21990078091622L50.059374999999996,-78.1177035331726L50.6625,21.71003457307816L51.265625,26.157835984230047L51.868750000000006,30.544860476255394L52.471875,9.688899779319769L53.075,-29.519659614562983L53.678125,-36.284615135192865L54.28125,32.97964733242986L54.884375,7.948691213130957L55.487500000000004,5.705897176265722L56.090625,9.519545549154287L56.69375,-18.500495588779444L57.296875,23.080174738168722L57.900000000000006,36.663591974973684L58.503125,-40.94429615736007L59.106249999999996,25.26268419027329L59.709375,17.27171939015389L60.3125,40.1919325828552L60.915625,77.5151063144207L61.51875,53.90106212496757L62.121875,17.790842020511633L62.724999999999994,74.94076024889945L63.328125,-8.740494287014002L63.93125,44.352773392200476L64.534375,57.88937490582467L65.1375,44.01371326446534L65.74062500000001,72.1318168580532L66.34375,57.76178117990493L66.946875,89.27225757539271L67.55,62.425849252939216L68.153125,65.44521283507346L68.75625000000001,33.78665369153023L69.359375,77.10081573724746L69.96249999999999,58.61082937717437L70.565625,56.015734934806815L71.16875,81.1480811625719L71.771875,72.24743630886077L72.375,77.97477957010268L72.978125,67.95256626009942L73.58125000000001,72.42782410383224L74.18437499999999,71.76843013763428L74.7875,80.5896992623806L75.390625,85.45502219498157L75.99375,45.259178543090826L76.596875,85.93143921494485L77.2,79.28924199342727L77.80312500000001,61.23170104026795L78.40624999999999,88.18524483740329L79.00937499999999,78.12704276442527L79.6125,60.7816019296646L80.215625,87.88074482381343L80.81875,53.65402456521987L81.421875,49.953111970424644L82.025,73.8870943725109L82.62812500000001,79.06190659999847L83.23124999999999,65.71750011444091L83.834375,92.15104650855064L84.4375,88.22373043894767L85.040625,79.70689539015292L85.64375,66.2671035170555L86.246875,74.08851187825204L86.85000000000001,74.31405376791953L87.453125,80.86077328920364L88.05624999999999,78.14450305104255L88.659375,89.41891607046126L89.2625,83.25329411923884L89.86562500000001,74.14100703001021L90.46875,64.03863113522529L91.071875,65.68461921215057L91.675,78.07595428228377L92.278125,93.44840470850467L92.88125,76.67275738120078L93.484375,81.06448982059956L94.0875,69.41787641644477L94.69062500000001,66.54749673008918L95.29375,86.50147449374198L95.896875,65.81605490446091L96.5,87.38227386176585L97.10312499999999,62.422482037544256L97.70625,88.98825977146625L98.309375,83.77093974649907L98.91250000000001,73.22166931033135L99.515625,86.90325450301171L100.11874999999999,98.73189095556735L100.721875,71.20997350811957L101.325,90.41662726700305L101.928125,90.47731626927852L102.53125,92.51240234971046L103.134375,95.64305987358092L103.73750000000001,81.31768595576285L104.34062499999999,96.50835070908069L104.94375,70.06651815176009L105.546875,87.69931960999966L106.15,104.40148163735866L106.753125,89.45764783918857L107.35625,76.85294296741485L107.95937500000001,97.31258768737315L108.5625,91.89467657506465L109.16562499999999,79.2592887222767L109.76875,93.25946260392665L110.371875,94.29305706322192L110.97500000000001,95.4751342922449L111.578125,94.88076362907886L112.18125,102.6392411082983L112.784375,98.25914006829261L113.3875,68.1432667016983L113.990625,83.8055042564869L114.59375,92.5581630706787L115.196875,70.62853541374206L115.80000000000001,90.35595145225524L116.403125,86.87642667591571L117.00625,68.12056657075881L117.609375,95.98332885801791L118.21249999999999,88.85753620564937L118.815625,102.10035476982593L119.41875,88.44991851747035L120.02187500000001,86.34194497168063L120.625,105.01617428064345L121.22812499999999,87.15620886683463L121.83125,90.849551820755L122.434375,79.29483350515365L123.0375,97.55093466639518L123.640625,104.26776010692119L124.24375,74.14566662311555L124.84687500000001,91.4880831182003L125.44999999999999,76.2497190773487L126.053125,89.99463077783584L126.65625,84.8311422407627L127.259375,85.61770353615283L127.8625,83.35340064167976L128.465625,91.31031964123248L129.06875,83.38917400836945L129.671875,77.03441213965415L130.275,84.64379582703114L130.878125,94.48232006430625L131.48125000000002,95.87060187160968L132.084375,94.08853169679641L132.6875,92.91538242399692L133.290625,95.72914365828036L133.89375,78.46301701068877L134.49687500000002,93.19894503951072L135.1,73.5486936211586L135.703125,86.49371143579482L136.30625,87.54253748953342L136.909375,102.67945867180823L137.51250000000002,98.91384806632995L138.115625,87.47438434660434L138.71875,89.10372097194194L139.321875,72.24997710585593L139.92499999999998,91.70340027809142L140.528125,84.03723988831042L141.13125,89.81264729201793L141.734375,89.02604643404483L142.3375,91.68330688178538L142.94062499999998,79.2868506550789L143.54375,89.15845800340175L144.146875,98.2301538825035L144.75,80.94716038703919L145.353125,76.7156432211399L145.95625,74.06609308123589L146.55937500000002,71.55045788884162L147.16250000000002,80.88083151876926L147.765625,87.37028639912604L148.36874999999998,80.2183560669422L148.97187499999998,83.1021298855543L149.575,53.44548579454421L150.178125,91.17875646948814L150.78125,97.66943778991698L151.384375,82.1429042905569L151.9875,91.97068069279193L152.590625,83.04591585099698L153.19375,99.3172061830759L153.796875,97.44369808733462L154.4,81.37419011592864L155.003125,86.899825745821L155.60625000000002,72.36535918116569L156.20937500000002,65.54093670248986L156.81249999999997,89.90211587548255L157.41562499999998,80.95298487842082L158.01874999999998,80.10538291335105L158.621875,76.95312421917914L159.225,89.50061280429362L159.828125,98.85055232942103L160.43125,89.63138472437858L161.034375,85.25414098203183L161.6375,84.8118357002735L162.240625,75.26799556016921L162.84375,84.77819431722163L163.446875,71.83711078166962L164.05,72.72489514350892L164.65312500000002,72.38623064160346L165.25625000000002,94.86791018545627L165.859375,77.21407022476195L166.46249999999998,91.56568732261657L167.06562499999998,85.47634203135966L167.66875,89.2729389309883L168.271875,78.01753353476524L168.875,92.10406374335288L169.478125,82.7340615928173L170.08125,81.5968131661415L170.68437500000002,83.87285735607146L171.2875,69.11105539798736L171.890625,77.44937088489532L172.49375,81.9579052567482L173.096875,80.38744654655456L173.70000000000002,80.66707488298415L174.303125,74.85428523421288L174.90625,82.69950147867202L175.50937499999998,83.49536437690257L176.11249999999998,83.31957463324069L176.715625,88.88945441842078L177.31875,83.01261294782161L177.921875,93.7338487446308L178.525,94.75964937508105L179.128125,90.80597583353519L179.73125000000002,92.18549672663211L180.334375,94.64819718301295L180.9375,96.03422831892966L181.23906250000002,86.6476406544447L181.540625,84.6140667438507L181.84218750000002,85.2803621828556L182.14375,92.79742878079414L182.44531250000003,79.75787397623061L182.746875,88.81971877217292L183.04843749999998,93.8152289777994L183.35,87.53983844220637L183.65156249999998,89.04271986484527L183.953125,97.60933783054351L184.2546875,92.75110978782176L184.55625,88.89239963293075L184.8578125,85.2545761704445L185.15937499999998,90.85320037007331L185.4609375,95.30787248313426L185.7625,87.82676827311515L186.0640625,85.1972719669342L186.365625,87.31107439994811L186.6671875,82.29236293733119L186.96875,88.85743949711322L187.2703125,74.88697271943091L187.571875,98.33290230631827L187.8734375,89.42593183517455L188.175,98.87410085797309L188.4765625,92.29256626367568L188.77812500000002,91.174448543787L189.0796875,88.80946766734122L189.38125000000002,91.33737165629863L189.6828125,89.96614571809768L189.984375,87.36440476179122L190.28593750000002,84.99718640148639L190.5875,73.60270094275474L190.88906250000002,87.10368734002112L191.19062499999998,97.7509367108345L191.4921875,91.8835111349821L191.79375,81.14710088968276L192.09531249999998,88.83804064393043L192.396875,98.4085987150669L192.69843749999998,77.24927213191987L193,82.11554896235467L193.3015625,96.16993677020072L193.603125,77.8744224846363L193.9046875,96.65830169022082L194.20624999999998,79.87977948188781L194.5078125,91.61848578751086L194.809375,84.99325651824473L195.1109375,93.69024638235568L195.4125,94.88345828056335L195.7140625,74.43276789188384L196.015625,96.0303819566965L196.31718750000002,89.32950463294982L196.61875,95.65114382803439L196.9203125,102.81250763833522L197.221875,94.79036312699317L197.5234375,83.29914715290069L197.82500000000002,91.42256748080253L198.1265625,92.53206934928893L198.42812500000002,92.98186075091361L198.7296875,90.65916348397731L199.03125,82.14161191284656L199.33281250000002,102.64781300127505L199.63437499999998,96.12682234644889L199.9359375,85.13315420746802L200.23749999999998,80.04780177175998L200.5390625,96.30280111134051L200.840625,93.92799113094806L201.1421875,103.36830038726329L201.44375,88.68463453054427L201.74531249999998,89.10400230586528L202.046875,103.81064523160457L202.3484375,98.70611373484134L202.65,94.81285225749015L202.9515625,104.40383780896663L203.253125,92.26245913803577L203.5546875,98.03939629495143L203.85625,91.60214644074439L204.1578125,80.17462182939053L204.459375,86.19263138771058L204.7609375,85.1441438138485L205.0625,78.89510195851327L205.36406250000002,87.35452290773391L205.665625,95.6680678218603L205.9671875,93.39470509588718L206.26875,89.34020411372184L206.5703125,103.71511478126048L206.87187500000002,105.02966512143611L207.1734375,104.90403194129466L207.47500000000002,97.76041854321956L207.77656249999998,97.92047117054462L208.078125,87.33555924296378L208.3796875,95.31403985023498L208.68124999999998,96.49778749942779L208.9828125,92.13276859521865L209.28437499999998,91.78097371160983L209.5859375,103.47055647671222L209.8875,89.77424521148204L210.1890625,100.31490419209003L210.490625,83.97464748620988L210.79218749999998,93.28336719572543L211.09375,98.38837783932685L211.3953125,103.88337444663047L211.696875,83.03358990848064L211.9984375,94.01502881348132L212.3,75.17667632699012L212.6015625,98.39668598175048L212.90312500000002,98.42085871994495L213.2046875,96.32628809809684L213.50625,94.14431933462619L213.8078125,90.2735997378826L214.109375,102.05642711520194L214.41093750000002,83.70188106000423L214.7125,96.68728787600993L215.01406250000002,91.83025989830493L215.315625,96.43190700709819L215.6171875,101.04355465769767L215.91875000000002,95.89109089374541L216.22031249999998,98.94157264530658L216.521875,101.43781777620315L216.82343749999998,94.48748517930507L217.125,91.08350735306739L217.4265625,85.74948650002479L217.72812499999998,99.40579999387263L218.0296875,74.63358756303786L218.33124999999998,95.88498506844043L218.6328125,103.39606892466544L218.934375,100.86404603123664L219.2359375,92.10201088488101L219.5375,102.67180111408233L219.8390625,93.80749669075011L220.140625,98.71672090291976L220.4421875,88.64446092545985L220.74375,103.80977045893668L221.0453125,99.8203719049692L221.346875,90.50974439978599L221.6484375,91.48903701603412L221.95000000000002,88.93823068737983L222.2515625,98.25746525228023L222.553125,88.38318962752818L222.8546875,92.23581593632697L223.15625,87.6726632207632L223.45781250000002,90.31195785999297L223.759375,95.92753242850303L224.06093750000002,98.84130787253379L224.3625,92.47225511968135L224.66406249999997,100.82450982332229L224.965625,91.41912114024161L225.26718749999998,100.23458775281905L225.56875,88.2102132230997L225.87031249999998,98.8365076124668L226.171875,88.1906121611595L226.4734375,51.01171877384185L226.775,91.26103345453738L227.0765625,75.08176129460334L227.37812499999998,97.63067964613437L227.6796875,95.04294824004172L227.98125,100.73466319739818L228.2828125,92.74369400143622L228.584375,87.16072779297829L228.8859375,61.365633571147924L229.1875,90.29129300415515L229.4890625,92.02161971628665L229.790625,99.51157715320586L230.0921875,89.8589750766754L230.39375,84.79015100896359L230.6953125,69.49367832541465L230.99687500000002,97.04172026515006L231.2984375,87.79000144600867L231.60000000000002,75.00792872309684L231.9015625,82.44122814536095L232.203125,86.2277014195919L232.50468750000002,81.21020760536193L232.80625,85.71207348406314L233.10781250000002,82.56541948914527L233.40937499999998,91.69057320952415L233.7109375,91.86291221678256L234.0125,99.9991112589836L234.31406249999998,81.19079556465148L234.615625,88.95934391915797L234.91718749999998,102.9736152678728L235.21875,70.29388871192931L235.5203125,95.10040190219878L235.821875,92.06229444742202L236.1234375,97.5726017743349L236.42499999999998,85.70808205902577L236.7265625,95.49410235285758L237.028125,87.78409343361854L237.3296875,101.78001213967799L237.63125,81.97123784720898L237.9328125,85.07708963155746L238.234375,79.59343429803849L238.53593750000002,100.54586175978183L238.8375,86.74763288497924L239.1390625,101.9817065834999L239.440625,83.25062144696712L239.7421875,100.69628309607505L240.04375000000002,87.78421651721L240.3453125,90.5785832941532L240.64687500000002,99.21783816218375L240.9484375,90.75949419438838L241.25,90.09698797166347L241.55156250000002,93.18788070380687L241.85312499999998,100.18919628262519L242.1546875,104.06583707928657L242.45624999999998,100.24392891824245L242.7578125,86.05774056315421L243.059375,99.24945306181907L243.36093749999998,99.8833379536867L243.6625,101.30222361683845L243.96406249999998,99.4170929133892L244.265625,85.02066020071506L244.5671875,94.58031658232211L244.86875,89.64666906893252L245.1703125,85.6654863446951L245.471875,88.98932356536388L245.7734375,86.69818844795228L246.075,96.74081605076789L246.3765625,91.73245679736137L246.678125,86.74941759705543L246.9796875,89.1226626574993L247.28125,94.33695394694804L247.58281250000002,73.43599300980569L247.884375,92.06200871765613L248.1859375,92.75653425753116L248.4875,97.51837026476859L248.7890625,87.4333579480648L249.09062500000002,94.63923406004905L249.3921875,88.349521869421L249.69375000000002,90.08285973370074L249.9953125,90.93149911761283L250.29687500000003,83.05059742331505L250.5984375,103.6013811469078L250.89999999999998,97.70135160684585L251.2015625,85.35111326873302L251.50312499999998,54.75273024439811L251.8046875,87.62539032995701L252.10625,97.04774696528911L252.4078125,95.45946311354636L252.709375,89.79856301248073L253.01093749999998,90.68919588029384L253.3125,87.23520655333995L253.6140625,79.12253406047822L253.915625,94.04453810453414L254.2171875,97.55748007595538L254.51875,90.61261590719222L254.8203125,88.43604963421821L255.121875,79.68583051264285L255.4234375,70.47491829991341L255.725,84.04064666628837L256.0265625,83.75703569650649L256.328125,101.1721594274044L256.6296875,85.39839495122432L256.93125,84.63085007071494L257.2328125,71.13607060313224L257.534375,88.5176057010889L257.8359375,80.60024928450585L258.1375,88.47765188813209L258.4390625,88.47038556039332L258.740625,80.04123438298701L259.0421875,89.5760102957487L259.34375,96.59787643849849L259.6453125,83.37644804418088L259.946875,84.9419878065586L260.2484375,92.34426576793193L260.55,86.33467864394187L260.8515625,99.8292163401842L261.153125,97.16327849924564L261.45468750000003,77.36492674946786L261.75625,82.75995750129223L262.0578125,69.26051404476165L262.359375,86.3735378921032L262.6609375,77.12667208313941L262.96250000000003,65.28914284110068L263.26406249999997,84.84764862954617" style="fill: none;" fill="none"></path></g></g></g></g></g></g><g transform="translate(58, 177)" clip-path="url(#clip_1)"><clipPath id="clip_1"><rect width="271" height="23"></rect></clipPath><g><g><line x1="0" y1="0" x2="0" y2="5" style="visibility: inherit;" fill="rgb(0, 0, 0)" stroke="rgb(204, 204, 204)" stroke-width="1px"></line><line x1="30.15625" y1="0" x2="30.15625" y2="5" style="visibility: inherit;" fill="rgb(0, 0, 0)" stroke="rgb(204, 204, 204)" stroke-width="1px"></line><line x1="60.3125" y1="0" x2="60.3125" y2="5" style="visibility: inherit;" fill="rgb(0, 0, 0)" stroke="rgb(204, 204, 204)" stroke-width="1px"></line><line x1="90.46875" y1="0" x2="90.46875" y2="5" style="visibility: inherit;" fill="rgb(0, 0, 0)" stroke="rgb(204, 204, 204)" stroke-width="1px"></line><line x1="120.625" y1="0" x2="120.625" y2="5" style="visibility: inherit;" fill="rgb(0, 0, 0)" stroke="rgb(204, 204, 204)" stroke-width="1px"></line><line x1="150.78125" y1="0" x2="150.78125" y2="5" style="visibility: inherit;" fill="rgb(0, 0, 0)" stroke="rgb(204, 204, 204)" stroke-width="1px"></line><line x1="180.9375" y1="0" x2="180.9375" y2="5" style="visibility: inherit;" fill="rgb(0, 0, 0)" stroke="rgb(204, 204, 204)" stroke-width="1px"></line><line x1="211.09375" y1="0" x2="211.09375" y2="5" style="visibility: inherit;" fill="rgb(0, 0, 0)" stroke="rgb(204, 204, 204)" stroke-width="1px"></line><line x1="241.25" y1="0" x2="241.25" y2="5" style="visibility: inherit;" fill="rgb(0, 0, 0)" stroke="rgb(204, 204, 204)" stroke-width="1px"></line><line x1="271.40625" y1="0" x2="271.40625" y2="5" style="visibility: inherit;" fill="rgb(0, 0, 0)" stroke="rgb(204, 204, 204)" stroke-width="1px"></line></g><g transform="translate(0, 8)"><text x="0" y="0" dx="0em" dy="0.95em" style="text-anchor: middle; visibility: hidden; font-family: &quot;Helvetica Neue&quot;, sans-serif; font-size: 12px; font-weight: 200;" fill="rgb(50, 49, 63)" stroke="none" stroke-width="1px">-100</text><text x="30.15625" y="0" dx="0em" dy="0.95em" style="text-anchor: middle; visibility: inherit; font-family: &quot;Helvetica Neue&quot;, sans-serif; font-size: 12px; font-weight: 200;" fill="rgb(50, 49, 63)" stroke="none" stroke-width="1px">0</text><text x="60.3125" y="0" dx="0em" dy="0.95em" style="text-anchor: middle; visibility: inherit; font-family: &quot;Helvetica Neue&quot;, sans-serif; font-size: 12px; font-weight: 200;" fill="rgb(50, 49, 63)" stroke="none" stroke-width="1px">100</text><text x="90.46875" y="0" dx="0em" dy="0.95em" style="text-anchor: middle; visibility: inherit; font-family: &quot;Helvetica Neue&quot;, sans-serif; font-size: 12px; font-weight: 200;" fill="rgb(50, 49, 63)" stroke="none" stroke-width="1px">200</text><text x="120.625" y="0" dx="0em" dy="0.95em" style="text-anchor: middle; visibility: inherit; font-family: &quot;Helvetica Neue&quot;, sans-serif; font-size: 12px; font-weight: 200;" fill="rgb(50, 49, 63)" stroke="none" stroke-width="1px">300</text><text x="150.78125" y="0" dx="0em" dy="0.95em" style="text-anchor: middle; visibility: inherit; font-family: &quot;Helvetica Neue&quot;, sans-serif; font-size: 12px; font-weight: 200;" fill="rgb(50, 49, 63)" stroke="none" stroke-width="1px">400</text><text x="180.9375" y="0" dx="0em" dy="0.95em" style="text-anchor: middle; visibility: inherit; font-family: &quot;Helvetica Neue&quot;, sans-serif; font-size: 12px; font-weight: 200;" fill="rgb(50, 49, 63)" stroke="none" stroke-width="1px">500</text><text x="211.09375" y="0" dx="0em" dy="0.95em" style="text-anchor: middle; visibility: inherit; font-family: &quot;Helvetica Neue&quot;, sans-serif; font-size: 12px; font-weight: 200;" fill="rgb(50, 49, 63)" stroke="none" stroke-width="1px">600</text><text x="241.25" y="0" dx="0em" dy="0.95em" style="text-anchor: middle; visibility: inherit; font-family: &quot;Helvetica Neue&quot;, sans-serif; font-size: 12px; font-weight: 200;" fill="rgb(50, 49, 63)" stroke="none" stroke-width="1px">700</text><text x="271.40625" y="0" dx="0em" dy="0.95em" style="text-anchor: middle; visibility: hidden; font-family: &quot;Helvetica Neue&quot;, sans-serif; font-size: 12px; font-weight: 200;" fill="rgb(50, 49, 63)" stroke="none" stroke-width="1px">800</text></g><line x1="0" y1="0" x2="271.40625" y2="0" fill="rgb(0, 0, 0)" stroke="rgb(204, 204, 204)" stroke-width="1px"></line></g></g></g></g></svg>