<svg viewBox="0 0 330 200" xmlns="http://www.w3.org/2000/svg"><g><g><g><g><g><line x1="58.59375" y1="177" x2="53.59375" y2="177" style="visibility: inherit;" fill="rgb(0, 0, 0)" stroke="rgb(204, 204, 204)" stroke-width="1px"></line><line x1="58.59375" y1="157.33333333333334" x2="53.59375" y2="157.33333333333334" style="visibility: inherit;" fill="rgb(0, 0, 0)" stroke="rgb(204, 204, 204)" stroke-width="1px"></line><line x1="58.59375" y1="137.66666666666666" x2="53.59375" y2="137.66666666666666" style="visibility: inherit;" fill="rgb(0, 0, 0)" stroke="rgb(204, 204, 204)" stroke-width="1px"></line><line x1="58.59375" y1="118" x2="53.59375" y2="118" style="visibility: inherit;" fill="rgb(0, 0, 0)" stroke="rgb(204, 204, 204)" stroke-width="1px"></line><line x1="58.59375" y1="98.33333333333333" x2="53.59375" y2="98.33333333333333" style="visibility: inherit;" fill="rgb(0, 0, 0)" stroke="rgb(204, 204, 204)" stroke-width="1px"></line><line x1="58.59375" y1="78.66666666666666" x2="53.59375" y2="78.66666666666666" style="visibility: inherit;" fill="rgb(0, 0, 0)" stroke="rgb(204, 204, 204)" stroke-width="1px"></line><line x1="58.59375" y1="58.999999999999986" x2="53.59375" y2="58.999999999999986" style="visibility: inherit;" fill="rgb(0, 0, 0)" stroke="rgb(204, 204, 204)" stroke-width="1px"></line><line x1="58.59375" y1="39.33333333333334" x2="53.59375" y2="39.33333333333334" style="visibility: inherit;" fill="rgb(0, 0, 0)" stroke="rgb(204, 204, 204)" stroke-width="1px"></line><line x1="58.59375" y1="19.666666666666657" x2="53.59375" y2="19.666666666666657" style="visibility: inherit;" fill="rgb(0, 0, 0)" stroke="rgb(204, 204, 204)" stroke-width="1px"></line><line x1="58.59375" y1="0" x2="53.59375" y2="0" style="visibility: inherit;" fill="rgb(0, 0, 0)" stroke="rgb(204, 204, 204)" stroke-width="1px"></line></g><g transform="translate(48.59375, 0)"><text x="0" y="177" dx="0em" dy="0.3em" style="text-anchor: end; visibility: hidden; font-family: &quot;Helvetica Neue&quot;, sans-serif; font-size: 12px; font-weight: 200;" fill="rgb(50, 49, 63)" stroke="none" stroke-width="1px">-0.02</text><text x="0" y="157.33333333333334" dx="0em" dy="0.3em" style="text-anchor: end; visibility: inherit; font-family: &quot;Helvetica Neue&quot;, sans-serif; font-size: 12px; font-weight: 200;" fill="rgb(50, 49, 63)" stroke="none" stroke-width="1px">0</text><text x="0" y="137.66666666666666" dx="0em" dy="0.3em" style="text-anchor: end; visibility: hidden; font-family: &quot;Helvetica Neue&quot;, sans-serif; font-size: 12px; font-weight: 200;" fill="rgb(50, 49, 63)" stroke="none" stroke-width="1px">0.02</text><text x="0" y="118" dx="0em" dy="0.3em" style="text-anchor: end; visibility: inherit; font-family: &quot;Helvetica Neue&quot;, sans-serif; font-size: 12px; font-weight: 200;" fill="rgb(50, 49, 63)" stroke="none" stroke-width="1px">0.04</text><text x="0" y="98.33333333333333" dx="0em" dy="0.3em" style="text-anchor: end; visibility: hidden; font-family: &quot;Helvetica Neue&quot;, sans-serif; font-size: 12px; font-weight: 200;" fill="rgb(50, 49, 63)" stroke="none" stroke-width="1px">0.06</text><text x="0" y="78.66666666666666" dx="0em" dy="0.3em" style="text-anchor: end; visibility: inherit; font-family: &quot;Helvetica Neue&quot;, sans-serif; font-size: 12px; font-weight: 200;" fill="rgb(50, 49, 63)" stroke="none" stroke-width="1px">0.08</text><text x="0" y="58.999999999999986" dx="0em" dy="0.3em" style="text-anchor: end; visibility: hidden; font-family: &quot;Helvetica Neue&quot;, sans-serif; font-size: 12px; font-weight: 200;" fill="rgb(50, 49, 63)" stroke="none" stroke-width="1px">0.1</text><text x="0" y="39.33333333333334" dx="0em" dy="0.3em" style="text-anchor: end; visibility: inherit; font-family: &quot;Helvetica Neue&quot;, sans-serif; font-size: 12px; font-weight: 200;" fill="rgb(50, 49, 63)" stroke="none" stroke-width="1px">0.12</text><text x="0" y="19.666666666666657" dx="0em" dy="0.3em" style="text-anchor: end; visibility: hidden; font-family: &quot;Helvetica Neue&quot;, sans-serif; font-size: 12px; font-weight: 200;" fill="rgb(50, 49, 63)" stroke="none" stroke-width="1px">0.14</text><text x="0" y="0" dx="0em" dy="0.3em" style="text-anchor: end; visibility: hidden; font-family: &quot;Helvetica Neue&quot;, sans-serif; font-size: 12px; font-weight: 200;" fill="rgb(50, 49, 63)" stroke="none" stroke-width="1px">0.16</text></g><line x1="58.59375" y1="0" x2="58.59375" y2="177" fill="rgb(0, 0, 0)" stroke="rgb(204, 204, 204)" stroke-width="1px"></line></g></g><g transform="translate(58, 0)" clip-path="url(#clip_0)"><clipPath id="clip_0"><rect width="271" height="177"></rect></clipPath><g><g><g><line x1="0" y1="0" x2="0" y2="177" fill="rgb(0, 0, 0)" stroke="rgb(60, 60, 60)" stroke-width="1px" opacity="0.25"></line><line x1="30.15625" y1="0" x2="30.15625" y2="177" fill="rgb(0, 0, 0)" stroke="rgb(60, 60, 60)" stroke-width="1px" opacity="0.25"></line><line x1="60.3125" y1="0" x2="60.3125" y2="177" fill="rgb(0, 0, 0)" stroke="rgb(60, 60, 60)" stroke-width="1px" opacity="0.25"></line><line x1="90.46875" y1="0" x2="90.46875" y2="177" fill="rgb(0, 0, 0)" stroke="rgb(60, 60, 60)" stroke-width="1px" opacity="0.25"></line><line x1="120.625" y1="0" x2="120.625" y2="177" fill="rgb(0, 0, 0)" stroke="rgb(60, 60, 60)" stroke-width="1px" opacity="0.25"></line><line x1="150.78125" y1="0" x2="150.78125" y2="177" fill="rgb(0, 0, 0)" stroke="rgb(60, 60, 60)" stroke-width="1px" opacity="0.25"></line><line x1="180.9375" y1="0" x2="180.9375" y2="177" fill="rgb(0, 0, 0)" stroke="rgb(60, 60, 60)" stroke-width="1px" opacity="0.25"></line><line x1="211.09375" y1="0" x2="211.09375" y2="177" fill="rgb(0, 0, 0)" stroke="rgb(60, 60, 60)" stroke-width="1px" opacity="0.25"></line><line x1="241.25" y1="0" x2="241.25" y2="177" fill="rgb(0, 0, 0)" stroke="rgb(60, 60, 60)" stroke-width="1px" opacity="0.25"></line><line x1="271.40625" y1="0" x2="271.40625" y2="177" fill="rgb(0, 0, 0)" stroke="rgb(60, 60, 60)" stroke-width="1px" opacity="0.25"></line></g><g><line x1="0" y1="177" x2="271.40625" y2="177" fill="rgb(0, 0, 0)" stroke="rgb(60, 60, 60)" stroke-width="1px" opacity="0.25"></line><line x1="0" y1="157.33333333333334" x2="271.40625" y2="157.33333333333334" fill="rgb(0, 0, 0)" stroke="rgb(60, 60, 60)" stroke-width="1px" opacity="0.25"></line><line x1="0" y1="137.66666666666666" x2="271.40625" y2="137.66666666666666" fill="rgb(0, 0, 0)" stroke="rgb(60, 60, 60)" stroke-width="1px" opacity="0.25"></line><line x1="0" y1="118" x2="271.40625" y2="118" fill="rgb(0, 0, 0)" stroke="rgb(60, 60, 60)" stroke-width="1px" opacity="0.25"></line><line x1="0" y1="98.33333333333333" x2="271.40625" y2="98.33333333333333" fill="rgb(0, 0, 0)" stroke="rgb(60, 60, 60)" stroke-width="1px" opacity="0.25"></line><line x1="0" y1="78.66666666666666" x2="271.40625" y2="78.66666666666666" fill="rgb(0, 0, 0)" stroke="rgb(60, 60, 60)" stroke-width="1px" opacity="0.25"></line><line x1="0" y1="58.999999999999986" x2="271.40625" y2="58.999999999999986" fill="rgb(0, 0, 0)" stroke="rgb(60, 60, 60)" stroke-width="1px" opacity="0.25"></line><line x1="0" y1="39.33333333333334" x2="271.40625" y2="39.33333333333334" fill="rgb(0, 0, 0)" stroke="rgb(60, 60, 60)" stroke-width="1px" opacity="0.25"></line><line x1="0" y1="19.666666666666657" x2="271.40625" y2="19.666666666666657" fill="rgb(0, 0, 0)" stroke="rgb(60, 60, 60)" stroke-width="1px" opacity="0.25"></line><line x1="0" y1="0" x2="271.40625" y2="0" fill="rgb(0, 0, 0)" stroke="rgb(60, 60, 60)" stroke-width="1px" opacity="0.25"></line></g></g></g><g><g><line x1="0" y1="157.33333333333334" x2="271.40625" y2="157.33333333333334" fill="rgb(0, 0, 0)" stroke="rgb(153, 153, 153)" stroke-width="1.5px"></line></g></g><g><g><line x1="30.15625" y1="0" x2="30.15625" y2="177" fill="rgb(0, 0, 0)" stroke="rgb(153, 153, 153)" stroke-width="1.5px"></line></g></g><g><g><g><g><g><path stroke="rgb(238, 51, 119)" stroke-width="2px" d="M32.2671875,-4.116219490766525L32.56875,3.726564387480437L32.870312500000004,6.924701025088638L33.171875,9.494129608074843L33.4734375,12.393099854389817L33.775,14.910173952579498L34.0765625,15.981777797142655L34.378125000000004,18.64559977253279L34.6796875,20.70008470614752L34.981249999999996,22.002499590317427L35.2828125,23.537381281455367L35.584375,25.009182631969452L35.8859375,27.633647163709014L36.1875,28.52233999967575L36.4890625,29.86594392855963L36.790625000000006,32.69869813323021L37.092187499999994,33.92496237158775L37.39375,35.66158393025398L37.6953125,37.21016599734625L37.996875,37.911478718121856L38.2984375,39.29438147942227L38.6,41.37132916847864L38.901562500000004,41.59041796127954L39.20312499999999,42.42732777198157L39.504687499999996,43.14492708941302L39.80625,44.493798702955246L40.1078125,46.35373829801878L40.409375,46.3626178999742L40.7109375,48.3479635566473L41.0125,48.90695354839167L41.314062500000006,50.33730943004289L41.615624999999994,50.73469359676044L41.9171875,51.13231220841408L42.21875,52.28192027906577L42.5203125,53.130684211850166L42.821875,53.705528542399406L43.1234375,54.06170901159446L43.425000000000004,54.653433377544076L43.7265625,55.3757142672936L44.028124999999996,55.917809570829064L44.3296875,56.567441835999475L44.63125,57.41709959010282L44.932812500000004,57.86220795412858L45.234375,58.49076948066552L45.5359375,58.971117849151284L45.8375,59.743789747357354L46.1390625,59.92456877231598L46.440625,60.59294930597146L46.7421875,60.78577293952304L47.04375,61.3003575950861L47.345312500000006,61.83106034000714L47.646875,62.170617197950676L47.9484375,63.009622360269205L48.25,63.94444956382114L48.551562499999996,63.85378531118232L48.853125,64.04455755154291L49.1546875,65.07417377332845L49.456250000000004,64.6883286933104L49.7578125,65.78131098548569L50.059374999999996,65.58949106931685L50.3609375,65.75802034636338L50.6625,66.32073215146859L50.9640625,66.42495757838088L51.265625,66.93337340156235L51.5671875,68.0091386437416L51.868750000000006,67.84136398633319L52.170312499999994,67.96837453047434L52.471875,68.60236492256323L52.7734375,68.22687937815984L53.075,68.11573049922782L53.3765625,69.69098800420761L53.678125,69.38920608659585L53.979687500000004,69.94763927161692L54.28125,70.10134723285832L54.582812499999996,71.27105163037777L54.884375,70.41635331014791L55.1859375,70.65742131570974L55.487500000000004,70.98357818027337L55.7890625,71.42314778268337L56.090625,71.97273067136605L56.3921875,72.25740543504554L56.69375,72.15958328545092L56.9953125,71.9984976351261L57.296875,72.02554671963055L57.5984375,72.97324641545613L57.900000000000006,72.80216754972935L58.2015625,73.50615440805753L58.503125,73.87847494582334L58.8046875,73.50566353897253L59.106249999999996,73.85902334252992L59.4078125,73.46904617051281L59.709375,73.64331202208994L60.010937500000004,74.45511424541473L60.3125,74.52938200533389L60.614062499999996,74.7521193474531L60.915625,75.09787434339523L61.2171875,75.28274150192738L61.51875,75.50397693117458L61.8203125,75.63717096050578L62.121875,75.4808401465416L62.423437500000006,75.65568478405476L62.724999999999994,75.53965651988983L63.0265625,76.01103736956912L63.328125,76.21741485098997L63.6296875,76.58820417026678L63.93125,76.2646481792132L64.2328125,76.9189766695102L64.534375,77.37963898976642L64.8359375,76.64677144587039L65.1375,76.81156425674756L65.4390625,76.65082294742265L65.74062500000001,77.04491023222606L66.0421875,77.57269706825414L66.34375,77.67584551374117L66.6453125,77.90178449451923L66.946875,77.52676783998807L67.24843750000001,78.41839856406052L67.55,77.79232801496983L67.8515625,77.85978954533735L68.153125,78.30423120657602L68.4546875,78.021534572045L68.75625000000001,77.82441033919652L69.0578125,78.33397640784581L69.359375,78.42708767950533L69.6609375,77.84051377574603L69.96249999999999,79.08028057714303L70.2640625,78.73876024285951L70.565625,78.75880528489748L70.8671875,78.88914934297401L71.16875,78.87515591084957L71.47031249999999,79.12904512385526L71.771875,79.81558781365553L72.0734375,79.06945947806041L72.375,79.2232626825571L72.6765625,79.95204941928387L72.978125,79.80373369157313L73.27968750000001,79.24068487187226L73.58125000000001,79.31295984983443L73.8828125,80.19782830278078L74.18437499999999,79.27552192409833L74.48593749999999,79.98890123267968L74.7875,80.07842989265917L75.0890625,79.21533551315466L75.390625,80.73982836306095L75.6921875,80.20657602945963L75.99375,80.13537803292274L76.2953125,81.04278983175755L76.596875,80.25077622632185L76.8984375,80.96106379230817L77.2,81.03664297858874L77.5015625,81.216227799654L77.80312500000001,80.93403668701647L78.10468750000001,80.7095849663019L78.40624999999999,81.09984054168063L78.70781249999999,80.77992577354112L79.00937499999999,81.06606581807137L79.3109375,80.9311720629533L79.6125,81.06803662081559L79.9140625,81.42886203030744L80.215625,81.87948717673618L80.5171875,81.01004080474377L80.81875,81.66002473731835L81.1203125,81.21206640203792L81.421875,82.31688083708285L81.7234375,81.42944081624348L82.025,81.69568234682082L82.32656250000001,82.46542368332544L82.62812500000001,82.08402573068935L82.9296875,82.00029958287874L83.23124999999999,81.70826178292432L83.53281249999999,81.9175258676211L83.834375,82.271911367774L84.1359375,82.19206821421783L84.4375,81.70696500937144L84.7390625,82.129075790445L85.040625,82.43990581731L85.34218750000001,82.07491168379784L85.64375,82.12056250870228L85.9453125,82.83054236570995L86.246875,82.57027918100356L86.5484375,82.44694649179775L86.85000000000001,82.63696411252022L87.1515625,82.6243553707997L87.453125,83.03671470781167L87.75468749999999,82.92823996643224L88.05624999999999,82.69176561633745L88.3578125,83.38786926368871L88.659375,82.84541496634483L88.9609375,82.735108623902L89.2625,82.71460201839605L89.5640625,83.44248760739961L89.86562500000001,83.63134765624999L90.1671875,83.65569329758485L90.46875,83.10887978971004L90.7703125,82.99096863965194L91.071875,83.25041859348615L91.3734375,83.18103021879989L91.675,83.208387012283L91.9765625,83.25427960852781L92.278125,83.6584333727757L92.57968749999999,83.79702696204185L92.88125,83.61962540944417L93.1828125,83.94177473088105L93.484375,84.10658219456673L93.7859375,83.94966526826221L94.0875,83.786777322491L94.38906250000001,84.3283304721117L94.69062500000001,84.0217204540968L94.9921875,84.1118645320336L95.29375,83.88462877770264L95.59531249999999,84.2887898683548L95.896875,83.9998950958252L96.1984375,84.34592849512894L96.5,84.68690667549768L96.8015625,84.56762548784414L97.10312499999999,84.35823685427506L97.4046875,84.55678973595302L97.70625,83.97626011570294L98.0078125,84.26144772768019L98.309375,84.1262755692005L98.6109375,84.07992140948771L98.91250000000001,84.57687141001225L99.21406250000001,84.53543326755364L99.515625,85.14092394709586L99.81718749999999,84.77650859951973L100.11874999999999,84.88465365270773L100.4203125,84.55248913665612L100.721875,84.91619382301965L101.0234375,84.81834236780801L101.325,85.13809595505397L101.6265625,85.00104823708534L101.928125,84.73351725935936L102.2296875,84.77196622888246L102.53125,85.50480446716148L102.8328125,85.1016324410836L103.134375,85.03692563871542L103.43593750000001,85.12241744995117L103.73750000000001,85.33720564345518L104.0390625,85.48463487625122L104.34062499999999,85.64651177823544L104.64218749999999,85.63480418423812L104.94375,85.69836806754272L105.2453125,85.60149835050105L105.546875,85.53885026772817L105.8484375,85.79880574345589L106.15,85.49588090678056L106.45156250000001,85.66614654163519L106.753125,85.3097682595253L107.0546875,85.7371027668317L107.35625,85.71779036521912L107.6578125,85.6676777601242L107.95937500000001,85.57433204352854L108.2609375,86.06492272516091L108.5625,85.89233462015787L108.86406249999999,86.17558073500791L109.16562499999999,85.50946406026681L109.4671875,85.99401778479417L109.76875,86.14943279822667L110.0703125,86.15561628341675L110.371875,86.45007179677486L110.6734375,86.03223230938116L110.97500000000001,86.09668268760045L111.2765625,85.93271776040395L111.578125,86.41457536816596L111.8796875,86.28602627913156L112.18125,86.88884282112122L112.4828125,86.53823041915894L112.784375,86.73351572453974L113.0859375,86.26746849715708L113.3875,86.97990269958973L113.68906249999999,86.61986854175726L113.990625,86.89710700511931L114.2921875,86.95659740765889L114.59375,86.98317027588685L114.8953125,86.24897665282089L115.196875,87.04994312425454L115.49843750000001,87.26206450661023L115.80000000000001,87.25932443141937L116.1015625,87.38127243022123L116.403125,87.0910076200962L116.70468749999999,87.10862029592195L117.00625,87.1564031044642L117.3078125,87.38038593530655L117.609375,87.42669613659382L117.9109375,86.80540240307649L118.21249999999999,87.48948342104752L118.5140625,87.43223489820957L118.815625,87.90345456699531L119.1171875,87.44372270007928L119.41875,87.57563460866609L119.7203125,87.51618083814779L120.02187500000001,87.40110500653583L120.32343750000001,87.60115980108577L120.625,87.94899549583593L120.92656249999999,87.9334488660097L121.22812499999999,87.20724102358022L121.5296875,87.84511440992355L121.83125,88.08874665697415L122.1328125,87.92713350554307L122.434375,88.11658699313799L122.7359375,88.00636124114195L123.0375,88.10942176977792L123.3390625,88.20541231830913L123.640625,88.15318238238493L123.9421875,88.5418041696151L124.24375,88.20933194458483L124.54531250000001,88.64841067790985L124.84687500000001,88.38067456086475L125.14843750000001,88.68951180577278L125.44999999999999,88.6394578119119L125.75156249999999,88.65695326526959L126.053125,88.63640270133813L126.3546875,88.64841067790985L126.65625,88.81340862810612L126.9578125,87.7481494496266L127.259375,88.88517808417478L127.5609375,88.72363819678624L127.8625,88.73126498361428L128.1640625,89.08701319495836L128.465625,89.21754041314125L128.7671875,88.91293782989183L129.06875,88.85249499479929L129.3703125,89.16752305130163L129.671875,88.98310280342896L129.9734375,89.13589496413866L130.275,88.9326678365469L130.5765625,89.39152786135674L130.878125,89.2682464569807L131.1796875,88.93345176180203L131.48125000000002,89.11680235465367L131.7828125,89.09063976506391L132.084375,89.66793111463387L132.38593749999998,89.0980540861686L132.6875,89.18382430076599L132.9890625,89.71380173166592L133.290625,89.78005440533161L133.5921875,88.98040668666363L133.89375,89.33663111428419L134.1953125,89.27538970112799L134.49687500000002,89.78423045575617L134.7984375,89.74858017265797L135.1,89.77250820895036L135.4015625,89.65475823978582L135.703125,90.17894781132539L136.0046875,89.744653219978L136.30625,89.96428416669369L136.6078125,90.00057917336622L136.909375,89.60174437860647L137.2109375,89.54533839225768L137.51250000000002,90.40290866295496L137.8140625,90.20093435049057L138.115625,90.50795464714368L138.4171875,90.28961314757665L138.71875,89.91766625642776L139.02031250000002,90.00700442989667L139.321875,90.77048169076443L139.62343750000002,89.84772840142249L139.92499999999998,90.60933010280132L140.2265625,90.52764069537321L140.528125,91.59621873497963L140.82968749999998,90.58649370074271L141.13125,90.61207750439642L141.43281249999998,91.00384231905142L141.734375,90.28422091404596L142.0359375,90.73954961200555L142.3375,90.26210249960423L142.6390625,90.96947415669759L142.94062499999998,90.9654592871666L143.2421875,91.24080753823121L143.54375,90.6712528715531L143.8453125,90.95831604301928L144.146875,90.843577226003L144.4484375,91.02830518285433L144.75,90.99295528233051L145.05156250000002,90.82482163111368L145.353125,91.4877439936002L145.6546875,91.10999459028244L145.95625,91.52188503742217L146.2578125,90.86892658472061L146.55937500000002,91.23174477616945L146.8609375,91.24478577574094L147.16250000000002,90.3198052595059L147.4640625,90.97509350876012L147.765625,91.61776568988958L148.06718750000002,91.83930882811545L148.36874999999998,91.85273812711239L148.6703125,91.61202911535898L148.97187499999998,92.15830779572327L149.2734375,91.52402434746423L149.575,91.3910574366649L149.87656249999998,92.29187547167142L150.178125,92.01497402290502L150.47968749999998,91.87700317800045L150.78125,92.30733418464659L151.0828125,92.12323629856108L151.384375,91.98566840589046L151.6859375,92.35581300159295L151.9875,91.84321380158265L152.2890625,92.65340421597162L152.590625,92.08857508003712L152.8921875,92.07259619235991L153.19375,91.7508937815825L153.4953125,92.33505729834238L153.796875,92.25265722970167L154.09843750000002,92.67963274319966L154.4,92.85461658239363L154.7015625,92.2121934990088L155.003125,92.77873701353867L155.3046875,92.93433518707751L155.60625000000002,92.70704082151254L155.9078125,92.22280945877233L156.20937500000002,93.12380332748094L156.5109375,92.66418135662873L156.81249999999997,93.16782036423682L157.1140625,92.92438593010107L157.41562499999998,93.45490551491578L157.7171875,93.25252825021744L158.01874999999998,93.20595429837704L158.3203125,93.01080819467703L158.621875,93.36632928748925L158.9234375,93.2971020936966L159.225,93.67053624490896L159.52656249999998,93.64430771768093L159.828125,93.51413949330647L160.1296875,93.48833589752515L160.43125,93.2130535840988L160.7328125,93.99831224481264L161.034375,93.70354169607162L161.3359375,93.86053188641866L161.6375,93.79104826847711L161.9390625,93.68441245456536L162.240625,93.18661991755167L162.5421875,93.728451470534L162.84375,93.70346843202908L163.14531250000002,93.98958649734655L163.446875,93.71310998002687L163.74843750000002,94.22895477712153L164.05,93.63846124708652L164.3515625,94.04353081186612L164.65312500000002,93.80967198808987L164.9546875,94.4971378048261L165.25625000000002,94.28505305449167L165.55781249999998,93.577065979441L165.859375,94.13971184690793L166.1609375,94.14039320250352L166.46249999999998,94.66549857457478L166.7640625,94.74847010274728L167.06562499999998,94.63502073287964L167.3671875,94.08880066374937L167.66875,94.40049520631631L167.9703125,94.82270123064518L168.271875,94.4199980944395L168.57343749999998,94.82706776758035L168.875,94.68387319644292L169.1765625,94.66942552725473L169.478125,95.18589306871095L169.7796875,94.88369354605675L170.08125,95.07989465196927L170.3828125,94.32036632299423L170.68437500000002,94.48882966240247L170.9859375,95.49370461702345L171.2875,95.37089942892392L171.5890625,95.202589944005L171.890625,94.8985881259044L172.19218750000002,95.62075911959012L172.49375,95.49955841402212L172.79531250000002,95.38054097692171L173.096875,95.0716084887584L173.3984375,95.51073850691319L173.70000000000002,95.2094328055779L174.00156249999998,95.70857340097427L174.303125,95.024514362216L174.60468749999998,95.40912127991517L174.90625,95.07568929592767L175.2078125,96.18482630948225L175.50937499999998,95.84419247011343L175.8109375,95.61079520980516L176.11249999999998,95.18621543049812L176.4140625,95.50940510133901L176.715625,95.85814927021661L177.0171875,95.17137213548024L177.31875,95.59176853795846L177.6203125,95.76736779510975L177.921875,95.52134714027245L178.2234375,95.55068938930829L178.525,95.50432057678698L178.8265625,95.64140492677687L179.128125,96.86566539357105L179.4296875,95.854376172026L179.73125000000002,95.99675751229127L180.0328125,96.13712042818466L180.334375,95.91544541468222L180.6359375,95.72728503743807L180.9375,96.46501731375852L181.23906250000002,96.23730167994896L181.540625,96.07419027884801L181.84218750000002,95.8667504688104L182.14375,96.12660703808068L182.44531250000003,96.12430288394292L182.746875,96.41468125333388L183.04843749999998,96.0613507553935L183.35,96.53946090737978L183.65156249999998,96.35282075901826L183.953125,96.03806744267543L184.2546875,96.1727853640914L184.55625,96.51085496197143L184.8578125,96.68320495883623L185.15937499999998,96.17638995498417L185.4609375,96.04393222928047L185.7625,96.41600000609954L186.0640625,96.47157444556554L186.365625,97.12193568795918L186.6671875,96.51270121584335L186.96875,96.73335053275028L187.2703125,96.95844331383704L187.571875,96.7111185590426L187.8734375,96.595965800186L188.175,96.99476396292448L188.4765625,96.8150142977635L188.77812500000002,96.86421842873095L189.0796875,96.76695308585961L189.38125000000002,97.16405518601337L189.6828125,96.93964009732008L189.984375,96.64253242562214L190.28593750000002,97.06069061160088L190.5875,97.03789084156354L190.88906250000002,96.70982178548971L191.19062499999998,97.24991698066393L191.4921875,97.38272637377182L191.79375,97.47058827678362L192.09531249999998,97.51769705613454L192.396875,97.29402193427086L192.69843749999998,97.59294289102156L193,97.46585175643364L193.3015625,97.27240537852047L193.603125,97.01858942955732L193.9046875,97.811093904078L194.20624999999998,96.97577392309904L194.5078125,97.47006810208161L194.809375,97.65398282806078L195.1109375,97.42456380526224L195.4125,97.33731732020775L195.7140625,97.54320026934147L196.015625,97.55324110637108L196.31718750000002,97.12303464859724L196.61875,97.83427831033865L196.9203125,97.82598482072352L197.221875,97.7601900473237L197.5234375,97.6534260213375L197.82500000000002,98.0655435870091L198.1265625,97.77902256945768L198.42812500000002,97.69332561890283L198.7296875,98.03693031519651L199.03125,97.60561024397612L199.33281250000002,97.34955241531132L199.63437499999998,97.55814613401888L199.9359375,97.89993388205765L200.23749999999998,97.51920629541078L200.5390625,98.02292589346567L200.840625,98.28717464208603L201.1421875,98.44006937245527L201.44375,98.08566555629173L201.74531249999998,97.8447477420171L202.046875,98.79867488145828L202.3484375,98.26796481013297L202.65,98.08695134023824L202.9515625,97.9478119338552L203.253125,98.29046053439379L203.5546875,98.31526773919661L203.85625,98.27595059076944L204.1578125,98.24504415442546L204.459375,98.14762495706478L204.7609375,97.70803703864415L205.0625,98.40468283991018L205.36406250000002,98.2176800345381L205.665625,98.62069454292455L205.9671875,98.58536295841137L206.26875,98.18496763954559L206.5703125,98.29684915890296L206.87187500000002,98.22377926607926L207.1734375,98.11400042474268L207.47500000000002,98.35122939447561L207.77656249999998,98.36525945862134L208.078125,98.4205151995023L208.3796875,98.66256494323412L208.68124999999998,98.43044980367024L208.9828125,98.61780793964863L209.28437499999998,98.10573990394671L209.5859375,98.59640751282373L209.8875,98.68107876678307L210.1890625,98.655542584757L210.490625,98.64426358540852L210.79218749999998,98.9548298617204L211.09375,98.88304941604534L211.3953125,98.78090102473894L211.696875,98.80006689826646L211.9984375,99.27805616458257L212.3,99.42054373770952L212.6015625,99.53094532340765L212.90312500000002,98.91472878803809L213.2046875,98.50154523054758L213.50625,98.77806204309066L213.8078125,98.88373443484306L214.109375,99.04668465505043L214.41093750000002,98.97787506630023L214.7125,99.01659511278072L215.01406250000002,99.12291589130957L215.315625,99.1491004601121L215.6171875,98.86851383000612L215.91875000000002,99.14587317903836L216.22031249999998,99.16230264057715L216.521875,99.85372837881246L216.82343749999998,98.8702062293887L217.125,99.23177160571018L217.4265625,99.53746215999125L217.72812499999998,99.35005640238523L218.0296875,99.1691381757458L218.33124999999998,99.38880575448273L218.6328125,99.01871610681215L218.934375,99.52393761773904L219.2359375,99.64948654423156L219.5375,99.59385349353154L219.8390625,99.68452140937248L220.140625,99.78376854459444L220.4421875,99.50668759892383L220.74375,99.58703993757565L221.0453125,99.58731467773516L221.346875,99.48945955932139L221.6484375,99.8062166472276L221.95000000000002,99.98888954768577L222.2515625,99.65990469108024L222.553125,99.73239213476577L222.8546875,99.89732048412164L223.15625,100.03839406122763L223.45781250000002,99.74357955406109L223.759375,99.10624832163253L224.06093750000002,99.6740483144919L224.3625,99.699412326018L224.66406249999997,99.95891722788413L224.965625,100.30560267716645L225.26718749999998,99.56116674095391L225.56875,100.07063390314578L225.87031249999998,100.11754853278397L226.171875,100.30139365792274L226.4734375,100.44096532215674L226.775,99.75196828693151L227.0765625,99.9472902243336L227.37812499999998,100.48567836731671L227.6796875,99.78599577148755L227.98125,100.24050391217072L228.2828125,100.1290912826856L228.584375,100.35314371436833L228.8859375,99.84358130892117L229.1875,99.50615277141333L229.4890625,100.29243346552053L229.790625,100.14250959207614L230.0921875,100.1656683559219L230.39375,100.31959977249304L230.6953125,100.1254170909524L230.99687500000002,100.05579793453215L231.2984375,100.09779654691616L231.60000000000002,100.4984739323457L231.9015625,100.27318700154622L232.203125,100.31590360154708L232.50468750000002,100.33419763296843L232.80625,100.12756739060083L233.10781250000002,100.2348882233103L233.40937499999998,100.85830661406119L233.7109375,100.90907493233681L234.0125,100.5411978587508L234.31406249999998,100.50837190449238L234.615625,100.56132349123557L234.91718749999998,100.13904786606629L235.21875,100.42901229361692L235.5203125,100.44696564724048L235.821875,100.3186107079188L236.1234375,100.48922068377335L236.42499999999998,100.22963519146045L236.7265625,100.61259000500043L237.028125,100.742501805226L237.3296875,100.23771987855433L237.63125,100.53691557546456L237.9328125,100.61785768965879L238.234375,100.203366369009L238.53593750000002,100.64129119366406L238.8375,100.94723084568977L239.1390625,100.74001449098189L239.440625,101.05362855146328L239.7421875,100.84120678653319L240.04375000000002,100.86481978744267L240.3453125,100.87509873261054L240.64687500000002,100.88890534142652L240.9484375,100.9981530184547L241.25,100.80468466132878L241.55156250000002,101.03947393844524L241.85312499999998,100.64002006252606L242.1546875,100.98951152463754L242.45624999999998,101.18905713409185L242.7578125,101.47851237654686L243.059375,100.38688913236061L243.36093749999998,100.6443133354187L243.6625,100.68852818508942L243.96406249999998,101.47931828101476L244.265625,101.022136002779L244.5671875,101.07713165630896L244.86875,100.74844718227783L245.1703125,101.35113184899092L245.471875,101.34699609378973L245.7734375,101.16350629925728L246.075,101.61662974953651L246.3765625,101.19856680681308L246.678125,101.1792580684026L246.9796875,101.58991401642561L247.28125,101.14576907455921L247.58281250000002,100.83873778829971L247.884375,101.58322867254415L248.1859375,101.09626089781521L248.4875,101.07172110676765L248.7890625,101.05328787366548L249.09062500000002,101.79488116502762L249.3921875,101.06208688517411L249.69375000000002,101.12836153805256L249.9953125,101.07198119411865L250.29687500000003,101.36989477028449L250.5984375,100.89393491794665L250.89999999999998,101.23385076969862L251.2015625,101.6779517531395L251.50312499999998,101.40366949389377L251.8046875,101.69846568504968L252.10625,101.65932437032461L252.4078125,101.66049659500518L252.709375,101.04446321974197L253.01093749999998,101.63407025486231L253.3125,101.34492272138596L253.6140625,101.84784007817507L253.915625,102.0732991794745L254.2171875,101.45119221508503L254.51875,101.14689001441002L254.8203125,101.27662964413562L255.121875,101.181060363849L255.4234375,101.51349962006012L255.725,102.05214785039425L256.0265625,101.82898924003044L256.328125,101.72661373019218L256.6296875,101.61584582428137L256.93125,101.89518696566422L257.2328125,101.90555382768312L257.534375,101.97209955751896L257.8359375,101.61082723736763L258.1375,102.17142171164353L258.4390625,101.91425026953219L258.740625,101.78627264002958L259.0421875,101.77702305465937L259.34375,101.95681667824586L259.6453125,101.73442001392444L259.946875,102.04027174909909L260.2484375,102.01117859780787L260.55,101.99780058364072L260.8515625,102.43095225592454L261.153125,101.99568325281142L261.45468750000003,101.84400470554829L261.75625,102.25798684110244L262.0578125,102.25489876170953L262.359375,102.15179061144589L262.6609375,102.17911443610986L262.96250000000003,102.02704026301701L263.26406249999997,102.13338302075863" style="fill: none;" fill="none"></path></g><g><path stroke="rgb(204, 51, 17)" stroke-width="2px" d="M39.20312499999999,-58.39882340033847L42.21875,25.35268842180571L45.234375,-36.92672968904179L48.25,-11.196940104166686L51.265625,4.18742452065149L54.28125,41.439823721845954L57.296875,36.67432744304338L60.3125,26.2028443713983L63.328125,25.697278519471496L66.34375,33.67000350356102L69.359375,38.73150849342346L72.375,42.02851495643458L75.390625,26.773600568374007L78.40624999999999,32.07412217060724L81.421875,-1.4854982097943434L84.4375,40.91142146786055L87.453125,3.7293923795223236L90.46875,32.86206229527792L93.484375,44.03929056227207L96.5,30.253759811321885L99.515625,35.15267723798752L102.53125,32.92827833692232L105.546875,31.05204481879872L108.5625,9.95954676469168L111.578125,-14.515434910853685L114.59375,29.481703331073135L117.609375,26.609269320964813L120.625,23.561997999747604L123.640625,28.368309676647186L126.65625,34.42099657158059L129.671875,-12.260235806306184L132.6875,25.476402084032685L135.703125,51.593406786521285L138.71875,47.29557687044144L141.734375,0.15955794850984262L144.75,48.901553988456726L147.765625,42.328567842642485L150.78125,66.73723823328811L153.796875,40.59108176827431L156.81249999999997,30.284897029399872L159.828125,42.966338659326226L162.84375,38.95634851356348L165.859375,44.11328724523386L168.875,58.11943068106969L171.890625,52.10323660572371L174.90625,18.39040645956993L177.921875,40.78666745622954L180.9375,56.414898773034395L181.540625,35.637245615323394L182.14375,39.726983671387046L182.746875,51.54347001512845L183.35,44.94790389140448L183.953125,32.21477447946867L184.55625,38.247782652576774L185.15937499999998,50.682522272070244L185.7625,38.165463174382865L186.365625,29.017868677775084L186.96875,64.6998970856269L187.571875,50.11029346783957L188.175,38.815285926063865L188.77812500000002,52.67796371380487L189.38125000000002,44.29216873149076L189.984375,27.77780149380365L190.5875,42.694301942984254L191.19062499999998,55.39089457690716L191.79375,27.084958096345275L192.396875,45.40098338325819L193,51.36950454612574L193.603125,23.34485803047818L194.20624999999998,36.32772258420786L194.809375,69.54155133664608L195.4125,37.8521421700716L196.015625,34.02266729871434L196.61875,51.21295394003391L197.221875,35.01529250542325L197.82500000000002,43.27594517668089L198.42812500000002,50.468583941459656L199.03125,44.72757693628472L199.63437499999998,49.2791788429022L200.23749999999998,51.07001579304537L200.840625,30.38270452618599L201.44375,48.26655987898508L202.046875,15.55308057864508L202.65,38.783738429347665L203.253125,43.6512988458077L203.85625,49.226501996318504L204.459375,16.611907174189895L205.0625,43.23411140839258L205.665625,33.57010065515837L206.26875,20.480732162793487L206.87187500000002,47.97174537181854L207.47500000000002,15.473867495854705L208.078125,9.398988922437042L208.68124999999998,42.75138928492865L209.28437499999998,43.21833033363026L209.8875,40.352702553073556L210.490625,32.016639202833176L211.09375,50.86975585917631L211.696875,26.236150205135345L212.3,39.97580301264921L212.90312500000002,48.03551439444223L213.50625,54.89801805714765L214.109375,23.175354341665894L214.7125,39.64733100434145L215.315625,51.54938242336115L215.91875000000002,46.798663501938194L216.521875,15.191610445578902L217.125,46.143653656045615L217.72812499999998,43.29914789895216L218.33124999999998,58.11217021445431L218.934375,43.40767392516136L219.5375,40.6269738227129L220.140625,57.752919981877L220.74375,55.75744923452535L221.346875,21.53347784280777L221.95000000000002,33.37970206141472L222.553125,58.24340809384981L223.15625,53.608365769187614L223.759375,47.76376340786615L224.3625,18.331516822179168L224.965625,52.73475799957912L225.56875,32.483829349279404L226.171875,47.51432864864668L226.775,33.078352401653916L227.37812499999998,35.83247963587442L227.98125,49.645044818520546L228.584375,44.42154570420584L229.1875,54.43307711680728L229.790625,15.003409773111343L230.39375,29.729350447654724L230.99687500000002,56.63152589400609L231.60000000000002,9.780489444732666L232.203125,47.282719030976295L232.80625,28.456680764754623L233.40937499999998,37.152653723955154L234.0125,37.984742760658264L234.615625,31.816291352113097L235.21875,40.05936797956625L235.821875,44.61584194501242L236.42499999999998,57.071813484032944L237.028125,47.8882316897313L237.63125,39.31059481203556L238.234375,16.033927142620087L238.8375,54.05657320221266L239.440625,64.27401320636272L240.04375000000002,51.55823271969955L240.64687500000002,61.024393926064164L241.25,48.94891919195652L241.85312499999998,40.558384026090295L242.45624999999998,35.99124281605086L243.059375,55.91643953323363L243.6625,33.92654487490654L244.265625,46.32771491010985L244.86875,36.21200202902159L245.471875,41.08055151005587L246.075,63.94203185041745L246.678125,48.41634088754654L247.28125,53.79287393391134L247.884375,47.57381172478199L248.4875,40.754072283705085L249.09062500000002,42.51456326742968L249.69375000000002,45.44261933863163L250.29687500000003,48.1023238748312L250.89999999999998,52.45382702847323L251.50312499999998,55.595367193222046L252.10625,26.367322146892548L252.709375,47.74497118095556L253.3125,35.39371593793234L253.915625,8.863472729921341L254.51875,30.43114671111107L255.121875,51.18526745835939L255.725,43.57028346757093L256.328125,33.88062297304472L256.93125,61.25382027526696L257.534375,35.421380440394074L258.1375,54.80087726314861L258.740625,59.46924740076065L259.34375,21.844000160694122L259.946875,45.585366999109596L260.55,40.20887058476609L261.153125,50.00299095114073L261.75625,54.48248638709386L262.359375,33.44609393676123L262.96250000000003,37.867622862259566" style="fill: none;" fill="none"></path></g><g><path stroke="rgb(0, 153, 136)" stroke-width="2px" d="M42.21875,-45.363509118556976L45.234375,8.672194967667252L48.25,-13.811176975568145L51.265625,-23.94674441218376L54.28125,33.88135561347008L57.296875,53.63601561884086L60.3125,32.566485842069L63.328125,27.537480781475693L66.34375,44.47491123278937L69.359375,39.600522607564926L72.375,69.02253420650958L75.390625,57.60832606752713L78.40624999999999,41.29038705428442L81.421875,53.619479924440384L84.4375,56.225474591056496L87.453125,53.29727199176948L90.46875,43.76440387467542L93.484375,48.37669038772583L96.5,47.23273830115795L99.515625,39.7936979085207L102.53125,45.182810390989005L105.546875,47.175313944617926L108.5625,41.02292201419672L111.578125,43.73460738857588L114.59375,47.39156741897264L117.609375,38.4389578451713L120.625,61.885598093271255L123.640625,63.12445642054081L126.65625,50.53787707289061L129.671875,23.857383966445923L132.6875,50.86744804183641L135.703125,61.36643443504968L138.71875,65.04110238452752L141.734375,51.758653834462166L144.75,53.05511235197386L147.765625,50.38202247520289L150.78125,59.50346170862515L153.796875,54.408416440089525L156.81249999999997,57.889872456590325L159.828125,59.174594074487686L162.84375,54.29668144881724L165.859375,57.788760751485825L168.875,70.7559174944957L171.890625,54.32885168989499L174.90625,46.50461826721826L177.921875,67.6474340657393L180.9375,54.12251816689968L181.540625,63.64863866567612L182.14375,52.251076117157936L182.746875,65.48165372510749L183.35,64.44437408447266L183.953125,71.01989516615868L184.55625,64.1278148094813L185.15937499999998,60.230453476309776L185.7625,65.28887404998143L186.365625,64.01951590180396L186.96875,69.00315586725868L187.571875,62.391215230027825L188.175,67.19846468667188L188.77812500000002,60.16571736832459L189.38125000000002,56.11107278863588L189.984375,52.41601545612018L190.5875,53.07878396411738L191.19062499999998,63.60732507208982L191.79375,70.9694748520851L192.396875,58.01670716702938L193,57.166287466883645L193.603125,51.50892601907255L194.20624999999998,52.449526429176345L194.809375,66.03258467217286L195.4125,56.40142551561196L196.015625,67.4393934905529L196.61875,73.05421050886312L197.221875,57.85413425664106L197.82500000000002,68.54437643289566L198.42812500000002,55.18116160233815L199.03125,65.68600179255009L199.63437499999998,50.160772393147155L200.23749999999998,46.50137999653816L200.840625,44.44876329600811L201.44375,56.93364482621351L202.046875,52.8750366618236L202.65,49.01895229021707L203.253125,39.174426262577384L203.85625,60.880576610565186L204.459375,69.73586955666542L205.0625,56.95188757280508L205.665625,62.55112865567207L206.26875,55.89341264466444L206.87187500000002,52.39063679178555L207.47500000000002,63.64959109822908L208.078125,63.82728570699692L208.68124999999998,58.93970222771168L209.28437499999998,64.80803481241065L209.8875,59.99287283917266L210.490625,50.068884630997985L211.09375,58.64945939679939L211.696875,48.91928388675055L212.3,63.320239921410874L212.90312500000002,69.51333002746105L213.50625,71.20915816724299L214.109375,67.50498678783573L214.7125,63.092029755314186L215.315625,55.51786848902702L215.91875000000002,59.99555430312951L216.521875,70.91911314924558L217.125,67.23451059559979L217.72812499999998,68.39043402671814L218.33124999999998,61.46679152051607L218.934375,68.62315725783505L219.5375,65.23310546080269L220.140625,64.85241084297496L220.74375,62.22941159208614L221.346875,57.527222772439316L221.95000000000002,70.30253029366334L222.553125,61.697697803378105L223.15625,62.471776371200875L223.759375,59.77701499064763L224.3625,55.37876205146313L224.965625,57.67693784336248L225.56875,52.328428293267876L226.171875,56.11001046001911L226.775,66.75232329964638L227.37812499999998,55.33986617128053L227.98125,61.601091836889566L228.584375,62.4269973884026L229.1875,65.58890495697655L229.790625,74.93641504645346L230.39375,53.091048364837974L230.99687500000002,64.31131925682226L231.60000000000002,46.125865146517754L232.203125,62.137047613660485L232.80625,64.22968846062818L233.40937499999998,57.470501750707626L234.0125,58.04772716263929L234.615625,41.043663064638764L235.21875,53.30986608068149L235.821875,62.76231225828329L236.42499999999998,59.922385503848375L237.028125,67.58970200022061L237.63125,59.19813381135464L238.234375,51.926040192445114L238.8375,57.90327244997023L239.440625,70.9271062562863L240.04375000000002,67.52866572638352L240.64687500000002,78.40197276572387L241.25,59.590294251839296L241.85312499999998,59.516561319430664L242.45624999999998,58.4969676186641L243.059375,61.409499039252594L243.6625,59.349533955256135L244.265625,49.20662546157837L244.86875,59.574351996183395L245.471875,54.87037553389865L246.075,79.06483651697634L246.678125,65.39603736499943L247.28125,56.80901536345482L247.884375,51.185194194316864L248.4875,79.49098414679368L249.09062500000002,68.09509934484959L249.69375000000002,62.82547318935394L250.29687500000003,59.489834596713365L250.89999999999998,65.94269701838493L251.50312499999998,55.79534872372943L252.10625,49.3689419478178L252.709375,69.11170387268066L253.3125,72.87486013273397L253.915625,42.628943090637534L254.51875,74.34189932048321L255.121875,60.94551053146519L255.725,71.41386522849399L256.328125,54.60082979500294L256.93125,67.02722464005151L257.534375,64.43559705217679L258.1375,73.93851482868193L258.740625,59.226999844113976L259.34375,54.15314253667988L259.946875,63.137761170665414L260.55,71.69856929779053L261.153125,53.022114227215454L261.75625,72.46176082889238L262.359375,60.37828566133976L262.96250000000003,56.33585419754186" style="fill: none;" fill="none"></path></g><g><path stroke="rgb(0, 119, 187)" stroke-width="2px" d="M37.996875,-64.71233761310577L38.6,6.288651913404465L39.20312499999999,-81.65381223956746L40.409375,-92.96049074331921L41.0125,0.4604533712069099L41.615624999999994,1.9827482998371124L42.21875,-44.55023428797722L42.821875,24.92363953590393L43.425000000000004,-59.65793923536938L44.63125,-53.794046451648086L45.234375,10.22548058629036L45.8375,24.54162616531056L46.440625,-37.26906325419745L48.853125,-9.233639597892761L49.456250000000004,19.755198349555343L50.059374999999996,-38.94190113743147L50.6625,26.55776469906172L51.265625,-21.712117850780487L51.868750000000006,-6.326859404643386L52.471875,41.284577215711295L53.075,-6.351373553276062L53.678125,-49.794034868478775L54.28125,30.599800537029893L54.884375,4.009935051202774L55.487500000000004,22.88733873764673L56.090625,27.29708680510521L56.69375,6.888918866713851L57.296875,53.34567754467328L57.900000000000006,44.192712793747575L58.503125,19.261677106221526L59.106249999999996,30.78665315111479L59.709375,18.305141766866058L60.3125,34.45135719080767L60.915625,44.763315136233985L61.51875,39.34006893634796L62.121875,33.72254847486815L62.724999999999994,39.739394600192725L63.328125,27.15753345688185L63.93125,47.132923369606345L64.534375,19.49122800429663L65.1375,58.971037258704484L65.74062500000001,56.135183985034615L66.34375,41.348631968100875L66.946875,51.32997126877309L67.55,32.8771253824234L68.153125,27.617148101329803L68.75625000000001,26.364362279574067L69.359375,37.17146793007851L69.96249999999999,51.10156328976156L70.565625,48.9505529801051L71.16875,62.97842653095721L71.771875,55.01671313246091L72.375,68.60679739713667L72.978125,56.09492539366086L73.58125000000001,58.978993733723954L74.18437499999999,58.95226701100667L74.7875,57.113420133789376L75.390625,57.44662499924499L75.99375,34.694850236177444L76.596875,45.48864381015301L77.2,51.79826037585737L77.80312500000001,40.36556771894297L78.40624999999999,42.80614683032036L79.00937499999999,48.653782323002815L79.6125,67.89308840036391L80.215625,40.452568769454956L80.81875,46.06632345914841L81.421875,54.34155567487079L82.025,49.65285476545493L82.62812500000001,36.55213034649691L83.23124999999999,30.759032607078552L83.834375,48.3536708255609L84.4375,57.105060706535966L85.040625,48.25785611073175L85.64375,47.46033304929733L86.246875,39.72080018619698L86.85000000000001,29.439781645933778L87.453125,52.819942101836205L88.05624999999999,67.66851945718129L88.659375,37.87535221874714L89.2625,48.76726099848747L89.86562500000001,48.54124875366688L90.46875,44.42636647820473L91.071875,35.10238879919052L91.675,58.649539987246186L92.278125,46.243717685341835L92.88125,46.28829152882099L93.484375,47.74993848303953L94.0875,49.10594601432483L94.69062500000001,46.596623251835496L95.29375,48.561484282215446L95.896875,57.71376035114129L96.5,47.11136908829212L97.10312499999999,34.02238889535269L97.70625,60.31335174043973L98.309375,53.127541184425354L98.91250000000001,57.10972029964127L99.515625,41.10538069407144L100.11874999999999,57.503470569849014L100.721875,35.64287229379019L101.325,41.39608508845171L101.928125,42.104775498310744L102.53125,44.853078241149575L103.134375,53.542530700564384L103.73750000000001,25.15386446317038L104.34062499999999,49.34804704288641L104.94375,48.03959520161152L105.546875,48.36685102681318L106.15,58.409021462003366L106.753125,35.30930110812187L107.35625,51.815147737662L107.95937500000001,58.09268197913963L108.5625,41.708255847295135L109.16562499999999,53.080337161819145L109.76875,42.62248852849007L110.371875,52.84099086125691L110.97500000000001,45.41579737265906L111.578125,44.65690644085407L112.18125,57.40031479795773L112.784375,55.78950225313504L113.3875,37.12737762928009L113.990625,51.20871927837531L114.59375,48.887164930502564L115.196875,38.133314912517875L115.80000000000001,58.04555854698022L116.403125,29.396658430496842L117.00625,45.22621200978756L117.609375,39.5309877047936L118.21249999999999,35.116858447591454L118.815625,65.1346971988678L119.41875,48.240968748927116L120.02187500000001,45.92940029005209L120.625,62.090385744969026L121.22812499999999,37.27602304518223L121.83125,58.146384522318826L122.434375,33.060666461785644L123.0375,45.912820637226105L123.640625,63.88507638374962L124.24375,30.344050417343766L124.84687500000001,62.90007796386877L125.44999999999999,48.31914880871773L126.053125,53.878819982210786L126.65625,49.630545864502594L127.259375,39.363293637832015L127.8625,63.24808216591674L128.465625,51.371665835380554L129.06875,42.67526794473332L129.671875,25.048217713832855L130.275,60.360753575960786L130.878125,54.35179066161314L131.48125000000002,59.576022416353226L132.084375,61.869802365700394L132.6875,52.81707015136878L133.290625,63.07735496759415L133.89375,55.923494860529885L134.49687500000002,59.72420626878737L135.1,59.9046043207248L135.703125,61.56977145870525L136.30625,64.7133776694536L136.909375,64.20976796746254L137.51250000000002,65.75393221278985L138.115625,60.7573025325934L138.71875,66.59994141757488L139.321875,21.65112524231276L139.92499999999998,55.063865870237336L140.528125,44.40021854142347L141.13125,58.46256282428898L141.734375,52.994002814094216L142.3375,58.32613785068192L142.94062499999998,39.944695100188255L143.54375,57.35735276341438L144.146875,62.057438905040414L144.75,53.283564289410904L145.353125,58.70522798597813L145.95625,41.675865814089775L146.55937500000002,61.22756244242191L147.16250000000002,53.79743828376135L147.765625,51.191099276145295L148.36874999999998,52.866677234570176L148.97187499999998,54.62965919574101L149.575,31.355768233537674L150.178125,64.32814068098861L150.78125,62.20872182647386L151.384375,57.69120235244432L151.9875,53.071596761544555L152.590625,52.97465378046037L153.19375,63.64540772140026L153.796875,56.11667016148567L154.4,54.51970452070236L155.003125,59.30423479775587L155.60625000000002,52.74683191378911L156.20937500000002,49.80424025654794L156.81249999999997,59.708293318748474L157.41562499999998,48.572166179617255L158.01874999999998,53.25103505452475L158.621875,65.75351460774738L159.225,62.628400241335214L159.828125,60.15238331258297L160.43125,64.09890481829642L161.034375,61.9654485732317L161.6375,56.04761880139509L162.240625,51.778537695606545L162.84375,54.37823165456453L163.446875,57.69409628212452L164.05,42.803663179278374L164.65312500000002,54.20271298786004L165.25625000000002,58.57863504687944L165.859375,58.21899651487668L166.46249999999998,59.16386821866034L167.06562499999998,63.48535509407519L167.66875,58.30614409347375L168.271875,60.83339456717172L168.875,71.19313532114028L169.478125,62.89927938580513L170.08125,58.89536282916863L170.68437500000002,65.80726110935211L171.2875,68.00620808204013L171.890625,56.155734548966066L172.49375,55.81896905104318L173.096875,64.53334593772888L173.70000000000002,64.82688565055528L174.303125,69.12305247286955L174.90625,47.356466616193444L175.50937499999998,58.22589798768361L176.11249999999998,66.90444143116474L176.715625,69.22516789535679L177.31875,72.85703499118486L177.921875,68.71230494479336L178.525,68.91907072563966L179.128125,59.720689594745636L179.73125000000002,51.39092695216337L180.334375,60.08848974108696L180.9375,55.95695454875627L181.23906250000002,59.672371958692864L181.540625,63.7683228055636L181.84218750000002,61.08723249534765L182.14375,52.3650896201531L182.44531250000003,62.59083044032255L182.746875,66.9690529902776L183.04843749999998,63.27127756178379L183.35,63.373041316866875L183.65156249999998,47.21612201631069L183.953125,72.49067814648151L184.2546875,65.38758269449075L184.55625,65.77208704253037L184.8578125,62.591577733556406L185.15937499999998,61.0110671967268L185.4609375,64.9120038151741L185.7625,65.31186430652934L186.0640625,54.22165906925996L186.365625,63.84752856194973L186.6671875,45.444963787992805L186.96875,69.29026299715042L187.2703125,50.36067333320777L187.571875,63.13722634315491L187.8734375,64.33480038245517L188.175,68.00151918331781L188.4765625,68.69220129152139L188.77812500000002,61.518669789036096L189.0796875,58.52210451165833L189.38125000000002,57.52100265522796L189.6828125,60.028962706526116L189.984375,53.344483340779945L190.28593750000002,54.0398470213016L190.5875,55.3656477878491L190.88906250000002,59.4978423565626L191.19062499999998,64.0428211937348L191.4921875,51.33912194768588L191.79375,71.8225540369749L192.09531249999998,46.544598455230386L192.396875,59.86686601241428L192.69843749999998,45.12544464568299L193,58.63628652195135L193.3015625,62.151656463742256L193.603125,52.1434439122677L193.9046875,65.74037836492062L194.20624999999998,53.57653254270555L194.5078125,61.552737568815544L194.809375,65.1319131652514L195.1109375,69.3800627340873L195.4125,56.6948333531618L195.7140625,54.14180126289524L196.015625,69.2722327162822L196.31718750000002,57.80004341403642L196.61875,72.60080865522224L196.9203125,64.79306696852046L197.221875,58.509627645214394L197.5234375,53.19968428711097L197.82500000000002,68.60922243694463L198.1265625,59.68796987334886L198.42812500000002,58.084461753567055L198.7296875,55.79212510585785L199.03125,67.31098360319932L199.33281250000002,65.13912234703699L199.63437499999998,52.1058301528295L199.9359375,55.820632144808755L200.23749999999998,47.70315206547579L200.5390625,65.34026144941647L200.840625,43.737332810958236L201.1421875,66.55453236401081L201.44375,57.23919251561165L201.74531249999998,65.43757807711758L202.046875,52.6592960357666L202.3484375,65.70647909243901L202.65,49.32655137280622L202.9515625,74.00144864122072L203.253125,41.04548001289368L203.5546875,66.6985987772544L203.85625,61.22554768125214L204.1578125,46.8869246939818L204.459375,71.51088880002497L204.7609375,57.96531976759432L205.0625,57.19336585700512L205.36406250000002,65.27937903006871L205.665625,64.47419987618923L205.9671875,62.94960445662339L206.26875,55.856194511055946L206.5703125,67.92538319031397L206.87187500000002,53.81881673137346L207.1734375,67.83044764399527L207.47500000000002,63.76570727924505L207.77656249999998,67.64980049431324L208.078125,64.79040015737213L208.3796875,68.41708748539288L208.68124999999998,60.80181776483853L208.9828125,69.83432177702585L209.28437499999998,64.4197573661804L209.5859375,74.98575837910175L209.8875,61.089093402028084L210.1890625,65.60525016486643L210.490625,51.06427921851477L210.79218749999998,63.07229242225486L211.09375,59.014695301651955L211.3953125,70.79913595318794L211.696875,50.508212462067604L211.9984375,59.846271490057305L212.3,64.30441778401533L212.6015625,59.87856628000735L212.90312500000002,71.45767712593077L213.2046875,58.49379528562227L213.50625,71.45746466020742L213.8078125,60.923150345683084L214.109375,67.96320941547552L214.41093750000002,53.25195818146071L214.7125,64.3403098384539L215.01406250000002,47.0919174849987L215.315625,58.17957313358784L215.6171875,70.99658254782356L215.91875000000002,61.406715005636215L216.22031249999998,64.81256253023942L216.521875,71.82329400380452L216.82343749999998,59.031743844350174L217.125,67.43223559359708L217.4265625,54.39683339496453L217.72812499999998,69.02369177838165L218.0296875,57.043570195635155L218.33124999999998,61.81631961464882L218.6328125,63.241349200407655L218.934375,69.36104338864484L219.2359375,71.44140518208344L219.5375,64.62523369987805L219.8390625,63.42719809710978L220.140625,66.84054785966873L220.4421875,65.23992634316284L220.74375,62.63747032980122L221.0453125,64.35068402687708L221.346875,56.78212745984395L221.6484375,50.120858142773315L221.95000000000002,69.2601734548807L222.2515625,55.601558004816354L222.553125,62.33447955548762L222.8546875,53.34856414794922L223.15625,61.51244967182477L223.45781250000002,65.41135687629381L223.759375,59.47254428267479L224.06093750000002,55.159453466534615L224.3625,55.0900431126356L224.66406249999997,68.24691709379353L224.965625,57.555414776007325L225.26718749999998,62.9698473115762L225.56875,53.255804543693856L225.87031249999998,71.69062014917532L226.171875,56.29754442969957L226.4734375,58.95080905656019L226.775,68.66481519242127L227.0765625,68.99555105964342L227.37812499999998,56.438819482922554L227.6796875,53.86876082917054L227.98125,62.957341139515236L228.2828125,70.40087261795998L228.584375,62.164448365569115L228.8859375,54.202786251902566L229.1875,64.58905591567355L229.4890625,49.909769783417374L229.790625,73.72172652681668L230.0921875,55.81213351587452L230.39375,53.48035883406797L230.6953125,73.9836088468631L230.99687500000002,66.00665652751923L231.2984375,69.81352211534976L231.60000000000002,46.49592915177345L231.9015625,57.67496704061824L232.203125,61.56598370770611L232.50468750000002,62.59616406261921L232.80625,65.04198155303794L233.10781250000002,65.7233591278394L233.40937499999998,57.220334351062775L233.7109375,62.00110618273415L234.0125,59.7089526951313L234.31406249999998,66.21348824600378L234.615625,41.95148514211178L234.91718749999998,69.0650273511807L235.21875,53.74910599490008L235.5203125,62.58209004004796L235.821875,63.73054053882757L236.1234375,49.9964851041635L236.42499999999998,61.60838893552621L236.7265625,66.52609126269817L237.028125,65.83869138360023L237.3296875,68.79395039379597L237.63125,59.686233515540735L237.9328125,60.92755351463953L238.234375,51.82478928565979L238.53593750000002,66.77512306968369L238.8375,58.77516584098338L239.1390625,63.33292192717393L239.440625,69.68360298871994L239.7421875,55.05613651374975L240.04375000000002,66.84183730681737L240.3453125,57.279648919900254L240.64687500000002,78.19529490172863L240.9484375,50.6393404453993L241.25,58.752461314201355L241.55156250000002,65.5562804788351L241.85312499999998,58.24360590676466L242.1546875,58.72413010895251L242.45624999999998,57.161188289523125L242.7578125,69.67609342435995L243.059375,60.25798610349496L243.36093749999998,66.23562131325401L243.6625,58.64885130524635L243.96406249999998,64.36083842317262L244.265625,52.37484839061895L244.5671875,65.83260314166544L244.86875,59.52565338710943L245.1703125,61.746132661898926L245.471875,56.94138150910534L245.7734375,61.862725059191376L246.075,78.49273226161796L246.3765625,62.48987991611162L246.678125,65.6758840282758L246.9796875,53.8251027862231L247.28125,57.02304893732071L247.58281250000002,65.44434767464796L247.884375,51.238728230198234L248.1859375,49.69421964387098L248.4875,78.52598681052525L248.7890625,47.85583433012167L249.09062500000002,68.73209356268246L249.3921875,50.80710044999918L249.69375000000002,62.369932025671005L249.9953125,64.05204513669014L250.29687500000003,59.21159241596857L250.5984375,64.83271746834119L250.89999999999998,65.92010238766669L251.2015625,60.69660327335198L251.50312499999998,56.209268584847436L251.8046875,56.591846088568346L252.10625,51.09595126410325L252.4078125,70.26834529141584L252.709375,69.29363314310709L253.01093749999998,63.10896107554436L253.3125,72.89935962855816L253.6140625,64.19387699663639L253.915625,41.315677801767976L254.2171875,65.65420519808927L254.51875,74.72752460837363L254.8203125,45.27730635305247L255.121875,62.849262023965494L255.4234375,47.984984184304864L255.725,71.21296789745489L256.0265625,69.39846666157246L256.328125,55.94063132007916L256.6296875,72.2811356584231L256.93125,68.36724595725535L257.2328125,72.04266119996706L257.534375,64.21396599709986L257.8359375,62.41474031408627L258.1375,74.75472022096315L258.4390625,59.98569296300411L258.740625,59.41359603404999L259.0421875,69.42485636969406L259.34375,53.98786618312201L259.6453125,59.51813649634519L259.946875,63.400105054179804L260.2484375,74.9140475342671L260.55,70.47855448226133L260.8515625,50.98684645195803L261.153125,53.62391972541809L261.45468750000003,65.18968186279136L261.75625,71.79744644959767L262.0578125,69.35922644038995L262.359375,62.65529547135034L262.6609375,68.979132587711L262.96250000000003,58.12934330602485L263.26406249999997,55.702310716112436" style="fill: none;" fill="none"></path></g></g></g></g></g></g><g transform="translate(58, 177)" clip-path="url(#clip_1)"><clipPath id="clip_1"><rect width="271" height="23"></rect></clipPath><g><g><line x1="0" y1="0" x2="0" y2="5" style="visibility: inherit;" fill="rgb(0, 0, 0)" stroke="rgb(204, 204, 204)" stroke-width="1px"></line><line x1="30.15625" y1="0" x2="30.15625" y2="5" style="visibility: inherit;" fill="rgb(0, 0, 0)" stroke="rgb(204, 204, 204)" stroke-width="1px"></line><line x1="60.3125" y1="0" x2="60.3125" y2="5" style="visibility: inherit;" fill="rgb(0, 0, 0)" stroke="rgb(204, 204, 204)" stroke-width="1px"></line><line x1="90.46875" y1="0" x2="90.46875" y2="5" style="visibility: inherit;" fill="rgb(0, 0, 0)" stroke="rgb(204, 204, 204)" stroke-width="1px"></line><line x1="120.625" y1="0" x2="120.625" y2="5" style="visibility: inherit;" fill="rgb(0, 0, 0)" stroke="rgb(204, 204, 204)" stroke-width="1px"></line><line x1="150.78125" y1="0" x2="150.78125" y2="5" style="visibility: inherit;" fill="rgb(0, 0, 0)" stroke="rgb(204, 204, 204)" stroke-width="1px"></line><line x1="180.9375" y1="0" x2="180.9375" y2="5" style="visibility: inherit;" fill="rgb(0, 0, 0)" stroke="rgb(204, 204, 204)" stroke-width="1px"></line><line x1="211.09375" y1="0" x2="211.09375" y2="5" style="visibility: inherit;" fill="rgb(0, 0, 0)" stroke="rgb(204, 204, 204)" stroke-width="1px"></line><line x1="241.25" y1="0" x2="241.25" y2="5" style="visibility: inherit;" fill="rgb(0, 0, 0)" stroke="rgb(204, 204, 204)" stroke-width="1px"></line><line x1="271.40625" y1="0" x2="271.40625" y2="5" style="visibility: inherit;" fill="rgb(0, 0, 0)" stroke="rgb(204, 204, 204)" stroke-width="1px"></line></g><g transform="translate(0, 8)"><text x="0" y="0" dx="0em" dy="0.95em" style="text-anchor: middle; visibility: hidden; font-family: &quot;Helvetica Neue&quot;, sans-serif; font-size: 12px; font-weight: 200;" fill="rgb(50, 49, 63)" stroke="none" stroke-width="1px">-100</text><text x="30.15625" y="0" dx="0em" dy="0.95em" style="text-anchor: middle; visibility: inherit; font-family: &quot;Helvetica Neue&quot;, sans-serif; font-size: 12px; font-weight: 200;" fill="rgb(50, 49, 63)" stroke="none" stroke-width="1px">0</text><text x="60.3125" y="0" dx="0em" dy="0.95em" style="text-anchor: middle; visibility: inherit; font-family: &quot;Helvetica Neue&quot;, sans-serif; font-size: 12px; font-weight: 200;" fill="rgb(50, 49, 63)" stroke="none" stroke-width="1px">100</text><text x="90.46875" y="0" dx="0em" dy="0.95em" style="text-anchor: middle; visibility: inherit; font-family: &quot;Helvetica Neue&quot;, sans-serif; font-size: 12px; font-weight: 200;" fill="rgb(50, 49, 63)" stroke="none" stroke-width="1px">200</text><text x="120.625" y="0" dx="0em" dy="0.95em" style="text-anchor: middle; visibility: inherit; font-family: &quot;Helvetica Neue&quot;, sans-serif; font-size: 12px; font-weight: 200;" fill="rgb(50, 49, 63)" stroke="none" stroke-width="1px">300</text><text x="150.78125" y="0" dx="0em" dy="0.95em" style="text-anchor: middle; visibility: inherit; font-family: &quot;Helvetica Neue&quot;, sans-serif; font-size: 12px; font-weight: 200;" fill="rgb(50, 49, 63)" stroke="none" stroke-width="1px">400</text><text x="180.9375" y="0" dx="0em" dy="0.95em" style="text-anchor: middle; visibility: inherit; font-family: &quot;Helvetica Neue&quot;, sans-serif; font-size: 12px; font-weight: 200;" fill="rgb(50, 49, 63)" stroke="none" stroke-width="1px">500</text><text x="211.09375" y="0" dx="0em" dy="0.95em" style="text-anchor: middle; visibility: inherit; font-family: &quot;Helvetica Neue&quot;, sans-serif; font-size: 12px; font-weight: 200;" fill="rgb(50, 49, 63)" stroke="none" stroke-width="1px">600</text><text x="241.25" y="0" dx="0em" dy="0.95em" style="text-anchor: middle; visibility: inherit; font-family: &quot;Helvetica Neue&quot;, sans-serif; font-size: 12px; font-weight: 200;" fill="rgb(50, 49, 63)" stroke="none" stroke-width="1px">700</text><text x="271.40625" y="0" dx="0em" dy="0.95em" style="text-anchor: middle; visibility: hidden; font-family: &quot;Helvetica Neue&quot;, sans-serif; font-size: 12px; font-weight: 200;" fill="rgb(50, 49, 63)" stroke="none" stroke-width="1px">800</text></g><line x1="0" y1="0" x2="271.40625" y2="0" fill="rgb(0, 0, 0)" stroke="rgb(204, 204, 204)" stroke-width="1px"></line></g></g></g></g></svg>