<svg viewBox="0 0 330 200" xmlns="http://www.w3.org/2000/svg"><g><g><g><g><g><line x1="29.4375" y1="177" x2="24.4375" y2="177" style="visibility: inherit;" fill="rgb(0, 0, 0)" stroke="rgb(204, 204, 204)" stroke-width="1px"></line><line x1="29.4375" y1="162.25" x2="24.4375" y2="162.25" style="visibility: inherit;" fill="rgb(0, 0, 0)" stroke="rgb(204, 204, 204)" stroke-width="1px"></line><line x1="29.4375" y1="147.5" x2="24.4375" y2="147.5" style="visibility: inherit;" fill="rgb(0, 0, 0)" stroke="rgb(204, 204, 204)" stroke-width="1px"></line><line x1="29.4375" y1="132.75" x2="24.4375" y2="132.75" style="visibility: inherit;" fill="rgb(0, 0, 0)" stroke="rgb(204, 204, 204)" stroke-width="1px"></line><line x1="29.4375" y1="118" x2="24.4375" y2="118" style="visibility: inherit;" fill="rgb(0, 0, 0)" stroke="rgb(204, 204, 204)" stroke-width="1px"></line><line x1="29.4375" y1="103.25" x2="24.4375" y2="103.25" style="visibility: inherit;" fill="rgb(0, 0, 0)" stroke="rgb(204, 204, 204)" stroke-width="1px"></line><line x1="29.4375" y1="88.5" x2="24.4375" y2="88.5" style="visibility: inherit;" fill="rgb(0, 0, 0)" stroke="rgb(204, 204, 204)" stroke-width="1px"></line><line x1="29.4375" y1="73.75" x2="24.4375" y2="73.75" style="visibility: inherit;" fill="rgb(0, 0, 0)" stroke="rgb(204, 204, 204)" stroke-width="1px"></line><line x1="29.4375" y1="59" x2="24.4375" y2="59" style="visibility: inherit;" fill="rgb(0, 0, 0)" stroke="rgb(204, 204, 204)" stroke-width="1px"></line><line x1="29.4375" y1="44.25" x2="24.4375" y2="44.25" style="visibility: inherit;" fill="rgb(0, 0, 0)" stroke="rgb(204, 204, 204)" stroke-width="1px"></line><line x1="29.4375" y1="29.5" x2="24.4375" y2="29.5" style="visibility: inherit;" fill="rgb(0, 0, 0)" stroke="rgb(204, 204, 204)" stroke-width="1px"></line><line x1="29.4375" y1="14.75" x2="24.4375" y2="14.75" style="visibility: inherit;" fill="rgb(0, 0, 0)" stroke="rgb(204, 204, 204)" stroke-width="1px"></line><line x1="29.4375" y1="0" x2="24.4375" y2="0" style="visibility: inherit;" fill="rgb(0, 0, 0)" stroke="rgb(204, 204, 204)" stroke-width="1px"></line></g><g transform="translate(19.4375, 0)"><text x="0" y="177" dx="0em" dy="0.3em" style="text-anchor: end; visibility: hidden; font-family: &quot;Helvetica Neue&quot;, sans-serif; font-size: 12px; font-weight: 200;" fill="rgb(50, 49, 63)" stroke="none" stroke-width="1px">84</text><text x="0" y="162.25" dx="0em" dy="0.3em" style="text-anchor: end; visibility: inherit; font-family: &quot;Helvetica Neue&quot;, sans-serif; font-size: 12px; font-weight: 200;" fill="rgb(50, 49, 63)" stroke="none" stroke-width="1px">85</text><text x="0" y="147.5" dx="0em" dy="0.3em" style="text-anchor: end; visibility: hidden; font-family: &quot;Helvetica Neue&quot;, sans-serif; font-size: 12px; font-weight: 200;" fill="rgb(50, 49, 63)" stroke="none" stroke-width="1px">86</text><text x="0" y="132.75" dx="0em" dy="0.3em" style="text-anchor: end; visibility: inherit; font-family: &quot;Helvetica Neue&quot;, sans-serif; font-size: 12px; font-weight: 200;" fill="rgb(50, 49, 63)" stroke="none" stroke-width="1px">87</text><text x="0" y="118" dx="0em" dy="0.3em" style="text-anchor: end; visibility: hidden; font-family: &quot;Helvetica Neue&quot;, sans-serif; font-size: 12px; font-weight: 200;" fill="rgb(50, 49, 63)" stroke="none" stroke-width="1px">88</text><text x="0" y="103.25" dx="0em" dy="0.3em" style="text-anchor: end; visibility: inherit; font-family: &quot;Helvetica Neue&quot;, sans-serif; font-size: 12px; font-weight: 200;" fill="rgb(50, 49, 63)" stroke="none" stroke-width="1px">89</text><text x="0" y="88.5" dx="0em" dy="0.3em" style="text-anchor: end; visibility: hidden; font-family: &quot;Helvetica Neue&quot;, sans-serif; font-size: 12px; font-weight: 200;" fill="rgb(50, 49, 63)" stroke="none" stroke-width="1px">90</text><text x="0" y="73.75" dx="0em" dy="0.3em" style="text-anchor: end; visibility: inherit; font-family: &quot;Helvetica Neue&quot;, sans-serif; font-size: 12px; font-weight: 200;" fill="rgb(50, 49, 63)" stroke="none" stroke-width="1px">91</text><text x="0" y="59" dx="0em" dy="0.3em" style="text-anchor: end; visibility: hidden; font-family: &quot;Helvetica Neue&quot;, sans-serif; font-size: 12px; font-weight: 200;" fill="rgb(50, 49, 63)" stroke="none" stroke-width="1px">92</text><text x="0" y="44.25" dx="0em" dy="0.3em" style="text-anchor: end; visibility: inherit; font-family: &quot;Helvetica Neue&quot;, sans-serif; font-size: 12px; font-weight: 200;" fill="rgb(50, 49, 63)" stroke="none" stroke-width="1px">93</text><text x="0" y="29.5" dx="0em" dy="0.3em" style="text-anchor: end; visibility: hidden; font-family: &quot;Helvetica Neue&quot;, sans-serif; font-size: 12px; font-weight: 200;" fill="rgb(50, 49, 63)" stroke="none" stroke-width="1px">94</text><text x="0" y="14.75" dx="0em" dy="0.3em" style="text-anchor: end; visibility: inherit; font-family: &quot;Helvetica Neue&quot;, sans-serif; font-size: 12px; font-weight: 200;" fill="rgb(50, 49, 63)" stroke="none" stroke-width="1px">95</text><text x="0" y="0" dx="0em" dy="0.3em" style="text-anchor: end; visibility: hidden; font-family: &quot;Helvetica Neue&quot;, sans-serif; font-size: 12px; font-weight: 200;" fill="rgb(50, 49, 63)" stroke="none" stroke-width="1px">96</text></g><line x1="29.4375" y1="0" x2="29.4375" y2="177" fill="rgb(0, 0, 0)" stroke="rgb(204, 204, 204)" stroke-width="1px"></line></g></g><g transform="translate(29, 0)" clip-path="url(#clip_0)"><clipPath id="clip_0"><rect width="300" height="177"></rect></clipPath><g><g><g><line x1="0" y1="0" x2="0" y2="177" fill="rgb(0, 0, 0)" stroke="rgb(60, 60, 60)" stroke-width="1px" opacity="0.25"></line><line x1="30.056250000000002" y1="0" x2="30.056250000000002" y2="177" fill="rgb(0, 0, 0)" stroke="rgb(60, 60, 60)" stroke-width="1px" opacity="0.25"></line><line x1="60.112500000000004" y1="0" x2="60.112500000000004" y2="177" fill="rgb(0, 0, 0)" stroke="rgb(60, 60, 60)" stroke-width="1px" opacity="0.25"></line><line x1="90.16875" y1="0" x2="90.16875" y2="177" fill="rgb(0, 0, 0)" stroke="rgb(60, 60, 60)" stroke-width="1px" opacity="0.25"></line><line x1="120.22500000000001" y1="0" x2="120.22500000000001" y2="177" fill="rgb(0, 0, 0)" stroke="rgb(60, 60, 60)" stroke-width="1px" opacity="0.25"></line><line x1="150.28125" y1="0" x2="150.28125" y2="177" fill="rgb(0, 0, 0)" stroke="rgb(60, 60, 60)" stroke-width="1px" opacity="0.25"></line><line x1="180.3375" y1="0" x2="180.3375" y2="177" fill="rgb(0, 0, 0)" stroke="rgb(60, 60, 60)" stroke-width="1px" opacity="0.25"></line><line x1="210.39374999999998" y1="0" x2="210.39374999999998" y2="177" fill="rgb(0, 0, 0)" stroke="rgb(60, 60, 60)" stroke-width="1px" opacity="0.25"></line><line x1="240.45000000000002" y1="0" x2="240.45000000000002" y2="177" fill="rgb(0, 0, 0)" stroke="rgb(60, 60, 60)" stroke-width="1px" opacity="0.25"></line><line x1="270.50625" y1="0" x2="270.50625" y2="177" fill="rgb(0, 0, 0)" stroke="rgb(60, 60, 60)" stroke-width="1px" opacity="0.25"></line><line x1="300.5625" y1="0" x2="300.5625" y2="177" fill="rgb(0, 0, 0)" stroke="rgb(60, 60, 60)" stroke-width="1px" opacity="0.25"></line></g><g><line x1="0" y1="177" x2="300.5625" y2="177" fill="rgb(0, 0, 0)" stroke="rgb(60, 60, 60)" stroke-width="1px" opacity="0.25"></line><line x1="0" y1="162.25" x2="300.5625" y2="162.25" fill="rgb(0, 0, 0)" stroke="rgb(60, 60, 60)" stroke-width="1px" opacity="0.25"></line><line x1="0" y1="147.5" x2="300.5625" y2="147.5" fill="rgb(0, 0, 0)" stroke="rgb(60, 60, 60)" stroke-width="1px" opacity="0.25"></line><line x1="0" y1="132.75" x2="300.5625" y2="132.75" fill="rgb(0, 0, 0)" stroke="rgb(60, 60, 60)" stroke-width="1px" opacity="0.25"></line><line x1="0" y1="118" x2="300.5625" y2="118" fill="rgb(0, 0, 0)" stroke="rgb(60, 60, 60)" stroke-width="1px" opacity="0.25"></line><line x1="0" y1="103.25" x2="300.5625" y2="103.25" fill="rgb(0, 0, 0)" stroke="rgb(60, 60, 60)" stroke-width="1px" opacity="0.25"></line><line x1="0" y1="88.5" x2="300.5625" y2="88.5" fill="rgb(0, 0, 0)" stroke="rgb(60, 60, 60)" stroke-width="1px" opacity="0.25"></line><line x1="0" y1="73.75" x2="300.5625" y2="73.75" fill="rgb(0, 0, 0)" stroke="rgb(60, 60, 60)" stroke-width="1px" opacity="0.25"></line><line x1="0" y1="59" x2="300.5625" y2="59" fill="rgb(0, 0, 0)" stroke="rgb(60, 60, 60)" stroke-width="1px" opacity="0.25"></line><line x1="0" y1="44.25" x2="300.5625" y2="44.25" fill="rgb(0, 0, 0)" stroke="rgb(60, 60, 60)" stroke-width="1px" opacity="0.25"></line><line x1="0" y1="29.5" x2="300.5625" y2="29.5" fill="rgb(0, 0, 0)" stroke="rgb(60, 60, 60)" stroke-width="1px" opacity="0.25"></line><line x1="0" y1="14.75" x2="300.5625" y2="14.75" fill="rgb(0, 0, 0)" stroke="rgb(60, 60, 60)" stroke-width="1px" opacity="0.25"></line><line x1="0" y1="0" x2="300.5625" y2="0" fill="rgb(0, 0, 0)" stroke="rgb(60, 60, 60)" stroke-width="1px" opacity="0.25"></line></g></g></g><g><g><line x1="0" y1="1416" x2="300.5625" y2="1416" fill="rgb(0, 0, 0)" stroke="rgb(153, 153, 153)" stroke-width="1.5px"></line></g></g><g><g><line x1="30.056250000000002" y1="0" x2="30.056250000000002" y2="177" fill="rgb(0, 0, 0)" stroke="rgb(153, 153, 153)" stroke-width="1.5px"></line></g></g><g><g><g><g><g><path stroke="rgb(204, 51, 17)" stroke-width="2px" d="M45.084375,197.79755401611328L48.09,147.0575180053711L51.095625000000005,167.11752700805664L54.10125,151.1875L57.106875,143.6649684906006L60.112500000000004,139.09250450134277L63.118125,160.47995948791504L66.12375,123.16247749328613L69.129375,120.06499099731445L72.13499999999999,144.2549819946289L75.140625,121.39254951477051L78.14625000000001,127.73505401611328L81.151875,110.625L84.15750000000001,146.31997299194336L87.163125,133.93002700805664L90.16875,134.66745948791504L93.174375,130.09499549865723L96.18,147.7949504852295L99.185625,131.56997299194336L102.19125000000001,159.30004501342773L105.19687499999999,114.3125L108.2025,173.0175495147705L111.208125,107.52751350402832L114.21375,132.01245498657227L117.219375,113.72248649597168L120.22500000000001,141.59997749328613L123.23062499999999,236.4424819946289L126.23625,111.21501350402832L129.241875,149.71252250671387L132.2475,317.86254501342773L135.253125,120.65500450134277L138.25875,120.06499099731445L141.264375,124.34250450134277L144.26999999999998,105.46252250671387L147.275625,112.09997749328613L150.28125,145.72995948791504L153.286875,161.06997299194336L156.29250000000002,98.82495498657227L159.298125,138.20754051208496L162.30375,116.22995948791504L165.30937500000002,138.94497299194336L168.31500000000003,88.35246849060059L171.32062499999998,153.40002250671387L174.32625,98.23505401611328L177.331875,112.54245948791504L180.3375,116.96750450134277L180.938625,92.03996849060059L181.53975,112.09997749328613L182.140875,97.79245948791504L182.742,100.44746398925781L183.343125,118.4424819946289L183.94424999999998,134.96252250671387L184.545375,93.66247749328613L185.1465,115.49252700805664L185.747625,104.43002700805664L186.34875,87.31997299194336L186.949875,106.64254951477051L187.551,105.46252250671387L188.152125,114.7549819946289L188.75325,89.23754501342773L189.354375,97.79245948791504L189.9555,87.17255401611328L190.556625,161.8075180053711L191.15775,158.8574504852295L191.75887500000002,89.97497749328613L192.36,81.71501350402832L192.961125,80.09250450134277L193.56225,77.4375L194.163375,113.13247299194336L194.7645,121.2450180053711L195.365625,93.66247749328613L195.96675000000002,102.36503601074219L196.56787500000002,97.34997749328613L197.169,113.8700180053711L197.770125,80.6825180053711L198.37125,100.0049819946289L198.972375,104.43002700805664L199.57350000000002,143.6649684906006L200.17462500000002,93.51494598388672L200.77575000000002,152.51494598388672L201.376875,113.42753601074219L201.978,114.60745048522949L202.579125,137.91247749328613L203.18025,176.5575180053711L203.78137500000003,123.75249099731445L204.38250000000002,81.71501350402832L204.98362500000002,96.16995048522949L205.58475,100.30004501342773L206.185875,140.2725315093994L206.78699999999998,99.41496849060059L207.38812499999997,108.11752700805664L207.98925,87.61503601074219L208.590375,150.8925495147705L209.1915,105.61005401611328L209.792625,97.34997749328613L210.39374999999998,81.41995048522949L210.99487499999998,97.34997749328613L211.59599999999998,103.98754501342773L212.197125,140.71501350402832L212.79825,119.62250900268555L213.399375,137.46999549865723L214.0005,110.625L214.60162499999998,89.97497749328613L215.20274999999998,115.49252700805664L215.803875,122.57246398925781L216.405,82.89504051208496L217.006125,108.85495948791504L217.60725,129.3574504852295L218.208375,93.36752700805664L218.80949999999999,93.21999549865723L219.41062499999998,93.51494598388672L220.01175,86.58254051208496L220.612875,128.7675495147705L221.214,160.92255401611328L221.815125,134.81499099731445L222.41625,105.31499099731445L223.017375,112.09997749328613L223.6185,120.94995498657227L224.219625,88.5L224.82075,97.20244598388672L225.421875,98.08752250671387L226.023,96.16995048522949L226.624125,109.29755401611328L227.22525,79.79755401611328L227.826375,121.6875L228.4275,89.09001350402832L229.028625,92.6299819946289L229.62975,147.5L230.230875,121.09748649597168L230.832,126.11254501342773L231.43312500000002,117.26245498657227L232.03425000000001,92.6299819946289L232.635375,110.77253150939941L233.2365,84.07495498657227L233.837625,113.72248649597168L234.43875,85.2549819946289L235.039875,113.28000450134277L235.64100000000002,102.95504951477051L236.24212500000002,204.72995948791504L236.84325,100.44746398925781L237.444375,101.33254051208496L238.0455,93.07246398925781L238.646625,79.79755401611328L239.24775000000002,131.8650360107422L239.84887500000002,70.0625L240.45000000000002,132.6024684906006L241.051125,90.27004051208496L241.65225,69.76754951477051L242.253375,102.8075180053711L242.8545,135.25747299194336L243.45562500000003,100.44746398925781L244.05675000000002,81.27253150939941L244.657875,78.91247749328613L245.259,68.73505401611328L245.86012499999998,83.48505401611328L246.46124999999998,121.39254951477051L247.06237499999997,94.99003601074219L247.6635,101.18500900268555L248.264625,119.32744598388672L248.86575,112.54245948791504L249.466875,93.21999549865723L250.06799999999998,88.79495048522949L250.66912499999998,138.65002250671387L251.27024999999998,99.26754951477051L251.871375,150.44995498657227L252.4725,93.07246398925781L253.073625,117.5575180053711L253.67475,155.7599639892578L254.27587499999998,92.1875L254.87699999999998,94.99003601074219L255.478125,97.05502700805664L256.07925,114.16496849060059L256.68037499999997,119.03249549865723L257.2815,86.43500900268555L257.882625,76.84748649597168L258.48375,77.58503150939941L259.084875,95.28498649597168L259.686,118.73754501342773L260.287125,109.59250450134277L260.88824999999997,83.92753601074219L261.489375,97.34997749328613L262.0905,124.34250450134277L262.691625,102.06997299194336L263.29275,85.84499549865723L263.893875,92.92504501342773L264.495,100.44746398925781L265.09612500000003,101.03747749328613L265.69725,109.00249099731445L266.298375,92.77751350402832L266.8995,169.9199504852295L267.500625,110.77253150939941L268.10175,108.11752700805664L268.702875,81.125L269.30400000000003,91.00747299194336L269.905125,85.2549819946289L270.50625,98.38247299194336L271.107375,208.12250900268555L271.7085,115.49252700805664L272.309625,139.38745498657227" style="fill: none;" fill="none"></path></g><g><path stroke="rgb(0, 153, 136)" stroke-width="2px" d="M33.061875,206.33457565307617L36.067499999999995,161.18633270263672L39.073125000000005,122.68623542785645L42.07875000000001,123.63174247741699L45.084375,96.00497627258301L48.09,82.70868492126465L51.095625000000005,90.53877067565918L54.10125,71.0376033782959L57.106875,79.25165367126465L60.112500000000004,84.39297485351562L63.118125,83.00419807434082L66.12375,65.65996170043945L69.129375,58.302629470825195L72.13499999999999,69.47158622741699L75.140625,62.29160690307617L78.14625000000001,60.04599952697754L81.151875,58.391305923461914L84.15750000000001,55.40702819824219L87.163125,57.59355545043945L90.16875,54.343360900878906L93.174375,65.54180145263672L96.18,58.302629470825195L99.185625,51.240922927856445L102.19125000000001,51.59540367126465L105.19687499999999,55.76162147521973L108.2025,56.94356155395508L111.208125,68.05332565307617L114.21375,79.72440719604492L117.219375,61.848337173461914L120.22500000000001,51.35908317565918L123.23062499999999,52.18642997741699L126.23625,60.01640319824219L129.241875,54.697954177856445L132.2475,42.73124694824219L135.253125,67.5805721282959L138.25875,51.59540367126465L141.264375,45.50868797302246L144.26999999999998,46.42471122741699L147.275625,47.84297180175781L150.28125,54.047847747802734L153.286875,55.64346122741699L156.29250000000002,51.06357002258301L159.298125,45.715524673461914L162.30375,46.30643844604492L165.30937500000002,45.981441497802734L168.31500000000003,40.69247627258301L171.32062499999998,38.35830497741699L174.32625,40.869829177856445L177.331875,39.599212646484375L180.3375,43.23359680175781L180.938625,47.9907283782959L181.53975,38.86054229736328L182.140875,56.26397132873535L182.742,40.54471969604492L183.343125,42.84940719604492L183.94424999999998,42.87900352478027L184.545375,38.68330192565918L185.1465,38.565141677856445L185.747625,50.20673942565918L186.34875,38.09238815307617L186.949875,33.926170349121094L187.551,39.15605545043945L188.152125,30.941892623901367L188.75325,40.219722747802734L189.354375,34.753517150878906L189.9555,34.66484069824219L190.556625,41.4311466217041L191.15775,34.42852020263672L191.75887500000002,37.53095817565918L192.36,43.7358341217041L192.961125,36.142181396484375L193.56225,35.4921875L194.163375,52.80694007873535L194.7645,35.344430923461914L195.365625,36.85136795043945L195.96675000000002,34.103410720825195L196.56787500000002,37.146881103515625L197.169,41.756256103515625L197.770125,41.54941940307617L198.37125,43.942670822143555L198.972375,52.30459022521973L199.57350000000002,42.96767997741699L200.17462500000002,30.587299346923828L200.77575000000002,36.99912452697754L201.376875,36.762691497802734L201.978,35.728620529174805L202.579125,34.842193603515625L203.18025,40.57431602478027L203.78137500000003,43.144920349121094L204.38250000000002,33.926170349121094L204.98362500000002,40.249319076538086L205.58475,30.8828125L206.185875,33.926170349121094L206.78699999999998,36.142181396484375L207.38812499999997,46.07011795043945L207.98925,42.73124694824219L208.590375,34.221683502197266L209.1915,30.735055923461914L209.792625,37.50136184692383L210.39374999999998,38.94921875L210.99487499999998,38.41738510131836L211.59599999999998,28.784961700439453L212.197125,30.941892623901367L212.79825,39.1264591217041L213.399375,35.96494102478027L214.0005,29.021282196044922L214.60162499999998,49.556745529174805L215.20274999999998,33.51249694824219L215.803875,46.07011795043945L216.405,44.03134727478027L217.006125,35.93534469604492L217.60725,27.662214279174805L218.208375,33.71933364868164L218.80949999999999,35.16719055175781L219.41062499999998,38.94921875L220.01175,31.976076126098633L220.612875,34.01484680175781L221.214,31.089649200439453L221.815125,33.86709022521973L222.41625,32.33066940307617L223.017375,32.36015319824219L223.6185,29.582712173461914L224.219625,35.78770065307617L224.82075,37.70819854736328L225.421875,28.637205123901367L226.023,32.59658622741699L226.624125,34.36944007873535L227.22525,45.03593444824219L227.826375,38.033308029174805L228.4275,35.93534469604492L229.028625,36.61493492126465L229.62975,35.43310737609863L230.230875,34.04433059692383L230.832,36.96952819824219L231.43312500000002,34.31024742126465L232.03425000000001,35.96494102478027L232.635375,30.97148895263672L233.2365,30.941892623901367L233.837625,35.994537353515625L234.43875,27.07118797302246L235.039875,38.41738510131836L235.64100000000002,28.60772132873535L236.24212500000002,33.66025352478027L236.84325,39.599212646484375L237.444375,32.03515625L238.0455,37.560441970825195L238.646625,42.5834903717041L239.24775000000002,44.208587646484375L239.84887500000002,30.587299346923828L240.45000000000002,35.876264572143555L241.051125,36.260454177856445L241.65225,44.09042739868164L242.253375,35.905860900878906L242.8545,39.51064872741699L243.45562500000003,30.8828125L244.05675000000002,30.291898727416992L244.657875,30.675975799560547L245.259,31.41464614868164L245.86012499999998,32.30107307434082L246.46124999999998,33.48301315307617L247.06237499999997,32.62607002258301L247.6635,31.296485900878906L248.264625,29.671388626098633L248.86575,34.1626033782959L249.466875,46.30643844604492L250.06799999999998,32.03515625L250.66912499999998,41.667579650878906L251.27024999999998,29.523632049560547L251.871375,30.7055721282959L252.4725,30.08506202697754L253.073625,35.905860900878906L253.67475,40.19023895263672L254.27587499999998,38.32870864868164L254.87699999999998,43.144920349121094L255.478125,35.40351104736328L256.07925,34.63535690307617L256.68037499999997,34.458003997802734L257.2815,35.43310737609863L257.882625,31.296485900878906L258.48375,30.557815551757812L259.084875,33.80801010131836L259.686,50.02949905395508L260.287125,54.166120529174805L260.88824999999997,48.07929229736328L261.489375,43.706350326538086L262.0905,38.68330192565918L262.691625,28.578125L263.29275,24.618743896484375L263.893875,36.11269760131836L264.495,36.17177772521973L265.09612500000003,26.066600799560547L265.69725,34.842193603515625L266.298375,35.876264572143555L266.8995,30.557815551757812L267.500625,31.385162353515625L268.10175,33.423933029174805L268.702875,33.15790367126465L269.30400000000003,34.04433059692383L269.905125,35.728620529174805L270.50625,32.33066940307617L271.107375,39.599212646484375L271.7085,45.59736442565918L272.309625,28.016695022583008" style="fill: none;" fill="none"></path></g><g><path stroke="rgb(0, 119, 187)" stroke-width="2px" d="M36.067499999999995,186.88247299194336L36.668625,172.28000450134277L37.26975,162.98754501342773L37.870875,150.44995498657227L38.472,142.18999099731445L39.073125000000005,151.4824504852295L39.67425,129.65251350402832L40.275375000000004,140.2725315093994L40.8765,134.66745948791504L41.477625,129.0625L42.07875000000001,146.6150360107422L42.679874999999996,122.42504501342773L43.281,127.29245948791504L43.882124999999995,118L44.48325,119.91745948791504L45.084375,120.80253601074219L45.6855,119.77004051208496L46.286625,115.93500900268555L46.88775,108.70754051208496L47.488875,119.18002700805664L48.09,102.95504951477051L48.691125,102.65998649597168L49.29225,111.65749549865723L49.893375000000006,95.72746849060059L50.4945,97.20244598388672L51.095625000000005,114.60745048522949L51.696749999999994,101.92255401611328L52.297875,122.27751350402832L52.898999999999994,94.54755401611328L53.500125,117.40998649597168L54.10125,93.36752700805664L54.702374999999996,94.54755401611328L55.3035,107.08503150939941L55.904625,101.77502250671387L56.50575,108.85495948791504L57.106875,107.82246398925781L57.708,108.70754051208496L58.309125,102.65998649597168L58.910250000000005,102.8075180053711L59.511375,93.07246398925781L60.112500000000004,110.77253150939941L60.713625,95.72746849060059L61.31475,93.07246398925781L61.915875,87.17255401611328L62.516999999999996,99.85745048522949L63.118125,108.85495948791504L63.719249999999995,98.82495498657227L64.320375,96.61254501342773L64.9215,90.12250900268555L65.522625,92.33503150939941L66.12375,90.86005401611328L66.724875,98.08752250671387L67.32600000000001,87.76245498657227L67.927125,87.76245498657227L68.52825,83.92753601074219L69.129375,78.46999549865723L69.7305,85.99252700805664L70.331625,86.13994598388672L70.93275,96.46501350402832L71.533875,88.79495048522949L72.13499999999999,90.71252250671387L72.736125,103.54495048522949L73.33725,79.20754051208496L73.938375,96.16995048522949L74.5395,124.78498649597168L75.140625,87.31997299194336L75.74175,83.33752250671387L76.342875,94.10495948791504L76.944,90.71252250671387L77.545125,86.28747749328613L78.14625000000001,84.96003150939941L78.747375,80.97746849060059L79.3485,93.36752700805664L79.949625,88.79495048522949L80.55075000000001,79.50249099731445L81.151875,84.51754951477051L81.753,98.97248649597168L82.35412500000001,80.83004951477051L82.95525,80.97746849060059L83.556375,85.2549819946289L84.15750000000001,75.66745948791504L84.758625,94.40002250671387L85.35974999999999,90.56499099731445L85.96087499999999,87.17255401611328L86.562,84.96003150939941L87.163125,83.92753601074219L87.76424999999999,93.81000900268555L88.365375,97.20244598388672L88.9665,80.53498649597168L89.56762499999999,86.58254051208496L90.16875,80.53498649597168L90.769875,79.06000900268555L91.371,93.21999549865723L91.97212499999999,83.04245948791504L92.57325,83.78000450134277L93.174375,88.79495048522949L93.7755,75.66745948791504L94.376625,77.14254951477051L94.97775,81.27253150939941L95.578875,84.96003150939941L96.18,82.45244598388672L96.781125,102.65998649597168L97.38225,69.03000450134277L97.98337500000001,77.28996849060059L98.5845,83.78000450134277L99.185625,76.55253601074219L99.78675000000001,81.41995048522949L100.38787500000001,81.86254501342773L100.989,80.97746849060059L101.590125,77.28996849060059L102.19125000000001,77.14254951477051L102.792375,102.51245498657227L103.39349999999999,75.81499099731445L103.994625,78.46999549865723L104.59575,86.72995948791504L105.19687499999999,81.5674819946289L105.79799999999999,70.65251350402832L106.399125,78.61752700805664L107.00025,86.43500900268555L107.60137499999999,75.52004051208496L108.2025,81.125L108.803625,91.59748649597168L109.40474999999999,75.96252250671387L110.005875,85.2549819946289L110.607,81.125L111.208125,96.3174819946289L111.80925,78.32246398925781L112.410375,97.79245948791504L113.0115,77.4375L113.612625,82.00996398925781L114.21375,108.70754051208496L114.814875,80.09250450134277L115.416,82.30502700805664L116.01712500000001,102.51245498657227L116.61825,73.45504951477051L117.219375,89.68002700805664L117.82050000000001,76.84748649597168L118.421625,101.77502250671387L119.02275,74.93002700805664L119.62387500000001,96.46501350402832L120.22500000000001,75.96252250671387L120.826125,81.27253150939941L121.42725,79.94497299194336L122.02837500000001,82.74750900268555L122.6295,98.38247299194336L123.23062499999999,80.6825180053711L123.83175,77.4375L124.432875,86.58254051208496L125.03399999999999,85.55004501342773L125.63512499999999,99.26754951477051L126.23625,83.18999099731445L126.837375,77.4375L127.43849999999999,79.65002250671387L128.039625,73.60246849060059L128.64075,70.21003150939941L129.241875,86.28747749328613L129.843,100.74252700805664L130.44412499999999,85.99252700805664L131.04525,76.25747299194336L131.646375,98.23505401611328L132.2475,68.73505401611328L132.848625,96.75996398925781L133.44975,82.45244598388672L134.050875,92.77751350402832L134.65200000000002,70.94746398925781L135.253125,90.41745948791504L135.85425,77.28996849060059L136.455375,81.71501350402832L137.0565,86.87749099731445L137.657625,67.25996398925781L138.25875,79.65002250671387L138.85987500000002,80.53498649597168L139.461,79.20754051208496L140.062125,68.43999099731445L140.66325,67.40749549865723L141.264375,69.03000450134277L141.8655,78.76494598388672L142.466625,65.49003601074219L143.06775,89.82744598388672L143.66887499999999,66.375L144.26999999999998,67.25996398925781L144.871125,65.9325180053711L145.47225,76.11005401611328L146.073375,84.22248649597168L146.6745,78.46999549865723L147.275625,69.6200180053711L147.87675,68.43999099731445L148.477875,92.1875L149.079,74.78249549865723L149.680125,77.58503150939941L150.28125,76.40500450134277L150.882375,78.61752700805664L151.4835,72.12749099731445L152.084625,76.11005401611328L152.68575,67.84997749328613L153.286875,80.38745498657227L153.888,84.96003150939941L154.489125,76.55253601074219L155.09025,69.76754951477051L155.691375,66.22746849060059L156.29250000000002,71.24252700805664L156.89362500000001,77.73245048522949L157.49475,67.99750900268555L158.095875,71.09499549865723L158.697,70.80004501342773L159.298125,67.25996398925781L159.89925,68.58752250671387L160.50037500000002,67.84997749328613L161.10150000000002,71.09499549865723L161.702625,69.32495498657227L162.30375,65.9325180053711L162.904875,67.99750900268555L163.506,63.71999549865723L164.10712500000002,76.25747299194336L164.70825000000002,66.8174819946289L165.30937500000002,70.21003150939941L165.9105,67.55502700805664L166.511625,64.45754051208496L167.11275,91.59748649597168L167.713875,67.11254501342773L168.31500000000003,64.16247749328613L168.91612500000002,66.22746849060059L169.51725,68.29245948791504L170.118375,62.09748649597168L170.71949999999998,65.63745498657227L171.32062499999998,63.425045013427734L171.92174999999997,67.84997749328613L172.522875,67.55502700805664L173.124,72.71750450134277L173.725125,59.59001350402832L174.32625,65.49003601074219L174.92737499999998,66.96501350402832L175.52849999999998,64.60495948791504L176.12962499999998,67.11254501342773L176.73075,61.36005401611328L177.331875,61.36005401611328L177.933,62.39254951477051L178.534125,68.73505401611328L179.13524999999998,64.75249099731445L179.73637499999998,62.09748649597168L180.3375,65.19497299194336L180.6380625,70.94746398925781L180.938625,71.53747749328613L181.23918749999999,69.17753601074219L181.53975,60.77004051208496L181.84031249999998,64.01494598388672L182.140875,82.59997749328613L182.4414375,70.5049819946289L182.742,60.03249549865723L183.0425625,76.11005401611328L183.343125,65.49003601074219L183.6436875,60.18002700805664L183.94424999999998,60.32744598388672L184.2448125,65.9325180053711L184.545375,58.557518005371094L184.8459375,53.54245948791504L185.1465,58.852468490600586L185.4470625,57.96750450134277L185.747625,71.24252700805664L186.0481875,52.362545013427734L186.34875,55.754981994628906L186.6493125,69.91496849060059L186.949875,53.09997749328613L187.2504375,61.21252250671387L187.551,61.65500450134277L187.8515625,67.25996398925781L188.152125,47.34748649597168L188.4526875,59.737545013427734L188.75325,58.40998649597168L189.0538125,58.852468490600586L189.354375,58.852468490600586L189.6549375,75.37250900268555L189.9555,60.77004051208496L190.2560625,59.442481994628906L190.556625,65.9325180053711L190.8571875,62.39254951477051L191.15775,58.852468490600586L191.4583125,57.67255401611328L191.75887500000002,55.60745048522949L192.0594375,61.949954986572266L192.36,67.25996398925781L192.6605625,60.91745948791504L192.961125,60.62250900268555L193.2616875,71.53747749328613L193.56225,52.95244598388672L193.86281250000002,92.77751350402832L194.163375,80.09250450134277L194.46393750000001,69.47248649597168L194.7645,60.77004051208496L195.0650625,59.147531509399414L195.365625,62.6875L195.6661875,54.870018005371094L195.96675000000002,50.887454986572266L196.2673125,53.09997749328613L196.56787500000002,57.37749099731445L196.8684375,66.66995048522949L197.169,63.71999549865723L197.4695625,56.34499549865723L197.770125,64.60495948791504L198.07068750000002,70.65251350402832L198.37125,68.73505401611328L198.67181250000002,52.067481994628906L198.972375,75.66745948791504L199.2729375,56.63994598388672L199.57350000000002,71.24252700805664L199.8740625,47.9375L200.17462500000002,49.70754051208496L200.4751875,63.27751350402832L200.77575000000002,58.262454986572266L201.0763125,52.80502700805664L201.376875,55.754981994628906L201.67743750000002,56.49252700805664L201.978,55.164968490600586L202.27856250000002,46.61005401611328L202.579125,57.81997299194336L202.87968750000002,65.78498649597168L203.18025,62.245018005371094L203.4808125,62.245018005371094L203.78137500000003,70.94746398925781L204.0819375,59L204.38250000000002,49.56000900268555L204.6830625,65.19497299194336L204.98362500000002,62.6875L205.2841875,52.50996398925781L205.58475,52.362545013427734L205.88531250000003,74.78249549865723L206.185875,56.49252700805664L206.48643750000002,54.28000450134277L206.78699999999998,63.27751350402832L207.0875625,67.99750900268555L207.38812499999997,69.76754951477051L207.6886875,55.01754951477051L207.98925,70.94746398925781L208.28981249999998,49.26494598388672L208.590375,57.67255401611328L208.89093749999998,53.39504051208496L209.1915,46.61005401611328L209.49206249999997,53.09997749328613L209.792625,64.45754051208496L210.0931875,51.625L210.39374999999998,58.852468490600586L210.6943125,72.42255401611328L210.99487499999998,59.59001350402832L211.2954375,52.21501350402832L211.59599999999998,49.56000900268555L211.8965625,63.86752700805664L212.197125,53.98505401611328L212.49768749999998,55.460031509399414L212.79825,57.08254051208496L213.09881249999998,61.36005401611328L213.399375,54.870018005371094L213.69993749999998,43.21750450134277L214.0005,46.61005401611328L214.3010625,54.72248649597168L214.60162499999998,73.3075180053711L214.9021875,60.18002700805664L215.20274999999998,52.80502700805664L215.5033125,71.68500900268555L215.803875,78.17504501342773L216.1044375,57.52502250671387L216.405,66.8174819946289L216.70556249999998,59.442481994628906L217.006125,57.08254051208496L217.30668749999998,49.70754051208496L217.60725,50.00249099731445L217.9078125,56.49252700805664L218.208375,50.29755401611328L218.5089375,55.01754951477051L218.80949999999999,58.262454986572266L219.1100625,67.70244598388672L219.41062499999998,58.557518005371094L219.7111875,47.34748649597168L220.01175,48.82246398925781L220.3123125,62.39254951477051L220.612875,52.80502700805664L220.9134375,46.31499099731445L221.214,50.44497299194336L221.51456249999998,58.852468490600586L221.815125,57.96750450134277L222.1156875,57.81997299194336L222.41625,56.93500900268555L222.7168125,58.70504951477051L223.017375,54.42753601074219L223.3179375,53.83752250671387L223.6185,51.772531509399414L223.9190625,50.15002250671387L224.219625,61.50747299194336L224.5201875,55.754981994628906L224.82075,59L225.1213125,49.11752700805664L225.421875,51.625L225.7224375,47.9375L226.023,55.3125L226.3235625,57.22995948791504L226.624125,51.33004951477051L226.9246875,65.34250450134277L227.22525,69.32495498657227L227.5258125,49.85495948791504L227.826375,62.98245048522949L228.1269375,57.37749099731445L228.4275,62.39254951477051L228.7280625,51.33004951477051L229.028625,58.557518005371094L229.32918750000002,53.98505401611328L229.62975,57.96750450134277L229.9303125,48.96999549865723L230.230875,53.83752250671387L230.5314375,64.16247749328613L230.832,57.22995948791504L231.1325625,64.75249099731445L231.43312500000002,57.08254051208496L231.7336875,58.70504951477051L232.03425000000001,58.557518005371094L232.3348125,50.59250450134277L232.635375,50.00249099731445L232.9359375,51.477468490600586L233.2365,46.75747299194336L233.53706250000002,52.21501350402832L233.837625,61.949954986572266L234.13818750000002,55.01754951477051L234.43875,45.43002700805664L234.7393125,65.34250450134277L235.039875,70.5049819946289L235.3404375,61.65500450134277L235.64100000000002,47.64254951477051L235.9415625,55.60745048522949L236.24212500000002,51.91995048522949L236.5426875,67.11254501342773L236.84325,58.557518005371094L237.14381250000002,57.22995948791504L237.444375,49.85495948791504L237.74493750000002,58.852468490600586L238.0455,62.39254951477051L238.34606250000002,56.49252700805664L238.646625,66.52253150939941L238.9471875,62.539968490600586L239.24775000000002,65.63745498657227L239.5483125,62.09748649597168L239.84887500000002,51.477468490600586L240.1494375,66.22746849060059L240.45000000000002,57.81997299194336L240.7505625,45.28249549865723L241.051125,56.19746398925781L241.35168750000003,105.02004051208496L241.65225,66.8174819946289L241.95281250000002,61.80253601074219L242.253375,58.11503601074219L242.55393750000002,56.78747749328613L242.8545,61.949954986572266L243.1550625,57.81997299194336L243.45562500000003,52.362545013427734L243.7561875,60.32744598388672L244.05675000000002,47.495018005371094L244.35731249999998,56.19746398925781L244.657875,48.96999549865723L244.95843749999997,51.91995048522949L245.259,51.772531509399414L245.5595625,62.245018005371094L245.86012499999998,54.574954986572266L246.1606875,59.442481994628906L246.46124999999998,53.68999099731445L246.7618125,52.21501350402832L247.06237499999997,55.60745048522949L247.3629375,59.147531509399414L247.6635,58.557518005371094L247.96406249999998,59.737545013427734L248.264625,50.00249099731445L248.56518749999998,57.52502250671387L248.86575,64.31000900268555L249.16631249999998,52.80502700805664L249.466875,75.07744598388672L249.7674375,58.262454986572266L250.06799999999998,56.49252700805664L250.3685625,56.34499549865723L250.66912499999998,62.09748649597168L250.9696875,67.25996398925781L251.27024999999998,52.067481994628906L251.5708125,96.61254501342773L251.871375,53.24750900268555L252.17193749999998,51.477468490600586L252.4725,53.24750900268555L252.77306249999998,66.8174819946289L253.073625,61.06499099731445L253.3741875,73.15998649597168L253.67475,59.59001350402832L253.9753125,56.19746398925781L254.27587499999998,62.245018005371094L254.5764375,57.08254051208496L254.87699999999998,66.96501350402832L255.1775625,50.74003601074219L255.478125,53.98505401611328L255.7786875,49.41247749328613L256.07925,57.08254051208496L256.3798125,57.37749099731445L256.68037499999997,59.29495048522949L256.9809375,52.067481994628906L257.2815,58.40998649597168L257.5820625,62.39254951477051L257.882625,51.477468490600586L258.1831875,54.13247299194336L258.48375,53.24750900268555L258.7843125,50.887454986572266L259.084875,55.90251350402832L259.3854375,47.9375L259.686,76.84748649597168L259.9865625,59.737545013427734L260.287125,78.91247749328613L260.5876875,66.08004951477051L260.88824999999997,72.71750450134277L261.1888125,55.60745048522949L261.489375,72.27502250671387L261.7899375,55.164968490600586L262.0905,62.539968490600586L262.3910625,68.73505401611328L262.691625,52.80502700805664L262.9921875,54.28000450134277L263.29275,44.987545013427734L263.5933125,66.375L263.893875,62.39254951477051L264.1944375,66.375L264.495,60.18002700805664L264.7955625,51.03498649597168L265.09612500000003,43.06997299194336L265.3966875,51.33004951477051L265.69725,58.40998649597168L265.9978125,67.70244598388672L266.298375,61.06499099731445L266.5989375,44.84001350402832L266.8995,47.789968490600586L267.2000625,57.67255401611328L267.500625,49.26494598388672L267.8011875,65.04755401611328L268.10175,56.19746398925781L268.4023125,56.34499549865723L268.702875,61.50747299194336L269.0034375,68.14504051208496L269.30400000000003,58.11503601074219L269.6045625,43.95504951477051L269.905125,60.77004051208496L270.2056875,48.23245048522949L270.50625,54.870018005371094L270.80681250000004,51.182518005371094L271.107375,67.84997749328613L271.4079375,59.737545013427734L271.7085,68.73505401611328L272.0090625,55.460031509399414L272.309625,51.91995048522949" style="fill: none;" fill="none"></path></g></g></g></g></g></g><g transform="translate(29, 177)" clip-path="url(#clip_1)"><clipPath id="clip_1"><rect width="300" height="23"></rect></clipPath><g><g><line x1="0" y1="0" x2="0" y2="5" style="visibility: inherit;" fill="rgb(0, 0, 0)" stroke="rgb(204, 204, 204)" stroke-width="1px"></line><line x1="30.056250000000002" y1="0" x2="30.056250000000002" y2="5" style="visibility: inherit;" fill="rgb(0, 0, 0)" stroke="rgb(204, 204, 204)" stroke-width="1px"></line><line x1="60.112500000000004" y1="0" x2="60.112500000000004" y2="5" style="visibility: inherit;" fill="rgb(0, 0, 0)" stroke="rgb(204, 204, 204)" stroke-width="1px"></line><line x1="90.16875" y1="0" x2="90.16875" y2="5" style="visibility: inherit;" fill="rgb(0, 0, 0)" stroke="rgb(204, 204, 204)" stroke-width="1px"></line><line x1="120.22500000000001" y1="0" x2="120.22500000000001" y2="5" style="visibility: inherit;" fill="rgb(0, 0, 0)" stroke="rgb(204, 204, 204)" stroke-width="1px"></line><line x1="150.28125" y1="0" x2="150.28125" y2="5" style="visibility: inherit;" fill="rgb(0, 0, 0)" stroke="rgb(204, 204, 204)" stroke-width="1px"></line><line x1="180.3375" y1="0" x2="180.3375" y2="5" style="visibility: inherit;" fill="rgb(0, 0, 0)" stroke="rgb(204, 204, 204)" stroke-width="1px"></line><line x1="210.39374999999998" y1="0" x2="210.39374999999998" y2="5" style="visibility: inherit;" fill="rgb(0, 0, 0)" stroke="rgb(204, 204, 204)" stroke-width="1px"></line><line x1="240.45000000000002" y1="0" x2="240.45000000000002" y2="5" style="visibility: inherit;" fill="rgb(0, 0, 0)" stroke="rgb(204, 204, 204)" stroke-width="1px"></line><line x1="270.50625" y1="0" x2="270.50625" y2="5" style="visibility: inherit;" fill="rgb(0, 0, 0)" stroke="rgb(204, 204, 204)" stroke-width="1px"></line><line x1="300.5625" y1="0" x2="300.5625" y2="5" style="visibility: inherit;" fill="rgb(0, 0, 0)" stroke="rgb(204, 204, 204)" stroke-width="1px"></line></g><g transform="translate(0, 8)"><text x="0" y="0" dx="0em" dy="0.95em" style="text-anchor: middle; visibility: hidden; font-family: &quot;Helvetica Neue&quot;, sans-serif; font-size: 12px; font-weight: 200;" fill="rgb(50, 49, 63)" stroke="none" stroke-width="1px">-100</text><text x="30.056250000000002" y="0" dx="0em" dy="0.95em" style="text-anchor: middle; visibility: inherit; font-family: &quot;Helvetica Neue&quot;, sans-serif; font-size: 12px; font-weight: 200;" fill="rgb(50, 49, 63)" stroke="none" stroke-width="1px">0</text><text x="60.112500000000004" y="0" dx="0em" dy="0.95em" style="text-anchor: middle; visibility: inherit; font-family: &quot;Helvetica Neue&quot;, sans-serif; font-size: 12px; font-weight: 200;" fill="rgb(50, 49, 63)" stroke="none" stroke-width="1px">100</text><text x="90.16875" y="0" dx="0em" dy="0.95em" style="text-anchor: middle; visibility: inherit; font-family: &quot;Helvetica Neue&quot;, sans-serif; font-size: 12px; font-weight: 200;" fill="rgb(50, 49, 63)" stroke="none" stroke-width="1px">200</text><text x="120.22500000000001" y="0" dx="0em" dy="0.95em" style="text-anchor: middle; visibility: inherit; font-family: &quot;Helvetica Neue&quot;, sans-serif; font-size: 12px; font-weight: 200;" fill="rgb(50, 49, 63)" stroke="none" stroke-width="1px">300</text><text x="150.28125" y="0" dx="0em" dy="0.95em" style="text-anchor: middle; visibility: inherit; font-family: &quot;Helvetica Neue&quot;, sans-serif; font-size: 12px; font-weight: 200;" fill="rgb(50, 49, 63)" stroke="none" stroke-width="1px">400</text><text x="180.3375" y="0" dx="0em" dy="0.95em" style="text-anchor: middle; visibility: inherit; font-family: &quot;Helvetica Neue&quot;, sans-serif; font-size: 12px; font-weight: 200;" fill="rgb(50, 49, 63)" stroke="none" stroke-width="1px">500</text><text x="210.39374999999998" y="0" dx="0em" dy="0.95em" style="text-anchor: middle; visibility: inherit; font-family: &quot;Helvetica Neue&quot;, sans-serif; font-size: 12px; font-weight: 200;" fill="rgb(50, 49, 63)" stroke="none" stroke-width="1px">600</text><text x="240.45000000000002" y="0" dx="0em" dy="0.95em" style="text-anchor: middle; visibility: inherit; font-family: &quot;Helvetica Neue&quot;, sans-serif; font-size: 12px; font-weight: 200;" fill="rgb(50, 49, 63)" stroke="none" stroke-width="1px">700</text><text x="270.50625" y="0" dx="0em" dy="0.95em" style="text-anchor: middle; visibility: inherit; font-family: &quot;Helvetica Neue&quot;, sans-serif; font-size: 12px; font-weight: 200;" fill="rgb(50, 49, 63)" stroke="none" stroke-width="1px">800</text><text x="300.5625" y="0" dx="0em" dy="0.95em" style="text-anchor: middle; visibility: hidden; font-family: &quot;Helvetica Neue&quot;, sans-serif; font-size: 12px; font-weight: 200;" fill="rgb(50, 49, 63)" stroke="none" stroke-width="1px">900</text></g><line x1="0" y1="0" x2="300.5625" y2="0" fill="rgb(0, 0, 0)" stroke="rgb(204, 204, 204)" stroke-width="1px"></line></g></g></g></g></svg>