<svg viewBox="0 0 330 200" xmlns="http://www.w3.org/2000/svg"><g><g><g><g><g><line x1="58.59375" y1="177" x2="53.59375" y2="177" style="visibility: inherit;" fill="rgb(0, 0, 0)" stroke="rgb(204, 204, 204)" stroke-width="1px"></line><line x1="58.59375" y1="160.9090909090909" x2="53.59375" y2="160.9090909090909" style="visibility: inherit;" fill="rgb(0, 0, 0)" stroke="rgb(204, 204, 204)" stroke-width="1px"></line><line x1="58.59375" y1="144.8181818181818" x2="53.59375" y2="144.8181818181818" style="visibility: inherit;" fill="rgb(0, 0, 0)" stroke="rgb(204, 204, 204)" stroke-width="1px"></line><line x1="58.59375" y1="128.72727272727275" x2="53.59375" y2="128.72727272727275" style="visibility: inherit;" fill="rgb(0, 0, 0)" stroke="rgb(204, 204, 204)" stroke-width="1px"></line><line x1="58.59375" y1="112.63636363636364" x2="53.59375" y2="112.63636363636364" style="visibility: inherit;" fill="rgb(0, 0, 0)" stroke="rgb(204, 204, 204)" stroke-width="1px"></line><line x1="58.59375" y1="96.54545454545453" x2="53.59375" y2="96.54545454545453" style="visibility: inherit;" fill="rgb(0, 0, 0)" stroke="rgb(204, 204, 204)" stroke-width="1px"></line><line x1="58.59375" y1="80.45454545454544" x2="53.59375" y2="80.45454545454544" style="visibility: inherit;" fill="rgb(0, 0, 0)" stroke="rgb(204, 204, 204)" stroke-width="1px"></line><line x1="58.59375" y1="64.36363636363639" x2="53.59375" y2="64.36363636363639" style="visibility: inherit;" fill="rgb(0, 0, 0)" stroke="rgb(204, 204, 204)" stroke-width="1px"></line><line x1="58.59375" y1="48.27272727272728" x2="53.59375" y2="48.27272727272728" style="visibility: inherit;" fill="rgb(0, 0, 0)" stroke="rgb(204, 204, 204)" stroke-width="1px"></line><line x1="58.59375" y1="32.18181818181819" x2="53.59375" y2="32.18181818181819" style="visibility: inherit;" fill="rgb(0, 0, 0)" stroke="rgb(204, 204, 204)" stroke-width="1px"></line><line x1="58.59375" y1="16.090909090909093" x2="53.59375" y2="16.090909090909093" style="visibility: inherit;" fill="rgb(0, 0, 0)" stroke="rgb(204, 204, 204)" stroke-width="1px"></line><line x1="58.59375" y1="0" x2="53.59375" y2="0" style="visibility: inherit;" fill="rgb(0, 0, 0)" stroke="rgb(204, 204, 204)" stroke-width="1px"></line></g><g transform="translate(48.59375, 0)"><text x="0" y="177" dx="0em" dy="0.3em" style="text-anchor: end; visibility: hidden; font-family: &quot;Helvetica Neue&quot;, sans-serif; font-size: 12px; font-weight: 200;" fill="rgb(50, 49, 63)" stroke="none" stroke-width="1px">-0.02</text><text x="0" y="160.9090909090909" dx="0em" dy="0.3em" style="text-anchor: end; visibility: inherit; font-family: &quot;Helvetica Neue&quot;, sans-serif; font-size: 12px; font-weight: 200;" fill="rgb(50, 49, 63)" stroke="none" stroke-width="1px">0</text><text x="0" y="144.8181818181818" dx="0em" dy="0.3em" style="text-anchor: end; visibility: hidden; font-family: &quot;Helvetica Neue&quot;, sans-serif; font-size: 12px; font-weight: 200;" fill="rgb(50, 49, 63)" stroke="none" stroke-width="1px">0.02</text><text x="0" y="128.72727272727275" dx="0em" dy="0.3em" style="text-anchor: end; visibility: inherit; font-family: &quot;Helvetica Neue&quot;, sans-serif; font-size: 12px; font-weight: 200;" fill="rgb(50, 49, 63)" stroke="none" stroke-width="1px">0.04</text><text x="0" y="112.63636363636364" dx="0em" dy="0.3em" style="text-anchor: end; visibility: hidden; font-family: &quot;Helvetica Neue&quot;, sans-serif; font-size: 12px; font-weight: 200;" fill="rgb(50, 49, 63)" stroke="none" stroke-width="1px">0.06</text><text x="0" y="96.54545454545453" dx="0em" dy="0.3em" style="text-anchor: end; visibility: inherit; font-family: &quot;Helvetica Neue&quot;, sans-serif; font-size: 12px; font-weight: 200;" fill="rgb(50, 49, 63)" stroke="none" stroke-width="1px">0.08</text><text x="0" y="80.45454545454544" dx="0em" dy="0.3em" style="text-anchor: end; visibility: hidden; font-family: &quot;Helvetica Neue&quot;, sans-serif; font-size: 12px; font-weight: 200;" fill="rgb(50, 49, 63)" stroke="none" stroke-width="1px">0.1</text><text x="0" y="64.36363636363639" dx="0em" dy="0.3em" style="text-anchor: end; visibility: inherit; font-family: &quot;Helvetica Neue&quot;, sans-serif; font-size: 12px; font-weight: 200;" fill="rgb(50, 49, 63)" stroke="none" stroke-width="1px">0.12</text><text x="0" y="48.27272727272728" dx="0em" dy="0.3em" style="text-anchor: end; visibility: hidden; font-family: &quot;Helvetica Neue&quot;, sans-serif; font-size: 12px; font-weight: 200;" fill="rgb(50, 49, 63)" stroke="none" stroke-width="1px">0.14</text><text x="0" y="32.18181818181819" dx="0em" dy="0.3em" style="text-anchor: end; visibility: inherit; font-family: &quot;Helvetica Neue&quot;, sans-serif; font-size: 12px; font-weight: 200;" fill="rgb(50, 49, 63)" stroke="none" stroke-width="1px">0.16</text><text x="0" y="16.090909090909093" dx="0em" dy="0.3em" style="text-anchor: end; visibility: hidden; font-family: &quot;Helvetica Neue&quot;, sans-serif; font-size: 12px; font-weight: 200;" fill="rgb(50, 49, 63)" stroke="none" stroke-width="1px">0.18</text><text x="0" y="0" dx="0em" dy="0.3em" style="text-anchor: end; visibility: hidden; font-family: &quot;Helvetica Neue&quot;, sans-serif; font-size: 12px; font-weight: 200;" fill="rgb(50, 49, 63)" stroke="none" stroke-width="1px">0.2</text></g><line x1="58.59375" y1="0" x2="58.59375" y2="177" fill="rgb(0, 0, 0)" stroke="rgb(204, 204, 204)" stroke-width="1px"></line></g></g><g transform="translate(58, 0)" clip-path="url(#clip_0)"><clipPath id="clip_0"><rect width="271" height="177"></rect></clipPath><g><g><g><line x1="0" y1="0" x2="0" y2="177" fill="rgb(0, 0, 0)" stroke="rgb(60, 60, 60)" stroke-width="1px" opacity="0.25"></line><line x1="27.140625" y1="0" x2="27.140625" y2="177" fill="rgb(0, 0, 0)" stroke="rgb(60, 60, 60)" stroke-width="1px" opacity="0.25"></line><line x1="54.28125" y1="0" x2="54.28125" y2="177" fill="rgb(0, 0, 0)" stroke="rgb(60, 60, 60)" stroke-width="1px" opacity="0.25"></line><line x1="81.421875" y1="0" x2="81.421875" y2="177" fill="rgb(0, 0, 0)" stroke="rgb(60, 60, 60)" stroke-width="1px" opacity="0.25"></line><line x1="108.5625" y1="0" x2="108.5625" y2="177" fill="rgb(0, 0, 0)" stroke="rgb(60, 60, 60)" stroke-width="1px" opacity="0.25"></line><line x1="135.703125" y1="0" x2="135.703125" y2="177" fill="rgb(0, 0, 0)" stroke="rgb(60, 60, 60)" stroke-width="1px" opacity="0.25"></line><line x1="162.84375" y1="0" x2="162.84375" y2="177" fill="rgb(0, 0, 0)" stroke="rgb(60, 60, 60)" stroke-width="1px" opacity="0.25"></line><line x1="189.984375" y1="0" x2="189.984375" y2="177" fill="rgb(0, 0, 0)" stroke="rgb(60, 60, 60)" stroke-width="1px" opacity="0.25"></line><line x1="217.125" y1="0" x2="217.125" y2="177" fill="rgb(0, 0, 0)" stroke="rgb(60, 60, 60)" stroke-width="1px" opacity="0.25"></line><line x1="244.265625" y1="0" x2="244.265625" y2="177" fill="rgb(0, 0, 0)" stroke="rgb(60, 60, 60)" stroke-width="1px" opacity="0.25"></line><line x1="271.40625" y1="0" x2="271.40625" y2="177" fill="rgb(0, 0, 0)" stroke="rgb(60, 60, 60)" stroke-width="1px" opacity="0.25"></line></g><g><line x1="0" y1="177" x2="271.40625" y2="177" fill="rgb(0, 0, 0)" stroke="rgb(60, 60, 60)" stroke-width="1px" opacity="0.25"></line><line x1="0" y1="160.9090909090909" x2="271.40625" y2="160.9090909090909" fill="rgb(0, 0, 0)" stroke="rgb(60, 60, 60)" stroke-width="1px" opacity="0.25"></line><line x1="0" y1="144.8181818181818" x2="271.40625" y2="144.8181818181818" fill="rgb(0, 0, 0)" stroke="rgb(60, 60, 60)" stroke-width="1px" opacity="0.25"></line><line x1="0" y1="128.72727272727275" x2="271.40625" y2="128.72727272727275" fill="rgb(0, 0, 0)" stroke="rgb(60, 60, 60)" stroke-width="1px" opacity="0.25"></line><line x1="0" y1="112.63636363636364" x2="271.40625" y2="112.63636363636364" fill="rgb(0, 0, 0)" stroke="rgb(60, 60, 60)" stroke-width="1px" opacity="0.25"></line><line x1="0" y1="96.54545454545453" x2="271.40625" y2="96.54545454545453" fill="rgb(0, 0, 0)" stroke="rgb(60, 60, 60)" stroke-width="1px" opacity="0.25"></line><line x1="0" y1="80.45454545454544" x2="271.40625" y2="80.45454545454544" fill="rgb(0, 0, 0)" stroke="rgb(60, 60, 60)" stroke-width="1px" opacity="0.25"></line><line x1="0" y1="64.36363636363639" x2="271.40625" y2="64.36363636363639" fill="rgb(0, 0, 0)" stroke="rgb(60, 60, 60)" stroke-width="1px" opacity="0.25"></line><line x1="0" y1="48.27272727272728" x2="271.40625" y2="48.27272727272728" fill="rgb(0, 0, 0)" stroke="rgb(60, 60, 60)" stroke-width="1px" opacity="0.25"></line><line x1="0" y1="32.18181818181819" x2="271.40625" y2="32.18181818181819" fill="rgb(0, 0, 0)" stroke="rgb(60, 60, 60)" stroke-width="1px" opacity="0.25"></line><line x1="0" y1="16.090909090909093" x2="271.40625" y2="16.090909090909093" fill="rgb(0, 0, 0)" stroke="rgb(60, 60, 60)" stroke-width="1px" opacity="0.25"></line><line x1="0" y1="0" x2="271.40625" y2="0" fill="rgb(0, 0, 0)" stroke="rgb(60, 60, 60)" stroke-width="1px" opacity="0.25"></line></g></g></g><g><g><line x1="0" y1="160.9090909090909" x2="271.40625" y2="160.9090909090909" fill="rgb(0, 0, 0)" stroke="rgb(153, 153, 153)" stroke-width="1.5px"></line></g></g><g><g><line x1="27.140625" y1="0" x2="27.140625" y2="177" fill="rgb(0, 0, 0)" stroke="rgb(153, 153, 153)" stroke-width="1.5px"></line></g></g><g><g><g><g><g><path stroke="rgb(51, 187, 238)" stroke-width="2px" d="M28.7690625,-6.0046793655915565L29.04046875,7.385816330259502L29.311875,11.254137795079856L29.58328125,14.504515691237032L29.8546875,16.53582654216072L30.12609375,18.138758540153503L30.3975,20.07702538912946L30.66890625,20.89628256180069L30.9403125,22.55234830758789L31.211718750000003,23.582114387642264L31.483125,24.63744029402733L31.754531250000003,26.28294402902776L32.0259375,38.04017641327599L32.297343749999996,42.863826358860194L32.56875,44.373726343566716L32.84015625,46.10497298565778L33.1115625,47.881596711548895L33.382968749999996,48.93034084276721L33.654375,50.98199645226653L33.92578125,52.08900547840379L34.1971875,53.07205174456945L34.468593750000004,54.15431617335841L34.74,55.590569810433834L35.01140625,56.750556731765926L35.2828125,57.44424466382375L35.554218750000004,58.03067004138774L35.825625,59.16254355148837L36.09703125,60.8806745978919L36.3684375,60.68971320309423L36.639843750000004,61.838580640879556L36.91125,62.697676135735094L37.18265625,63.903939290480196L37.454062500000006,63.77388029613279L37.725468750000005,64.54035738652404L37.996875,65.43306908824228L38.268281249999994,65.84700160405855L38.5396875,66.52825129980391L38.81109375,66.92831293425779L39.082499999999996,67.76380275460808L39.353906249999994,68.54420467533849L39.6253125,68.87301769446245L39.89671875,68.82575239647518L40.168124999999996,69.85592009669001L40.43953125,70.02786148000847L40.7109375,71.16719793189655L40.98234375,71.29705911332911L41.25375,72.24320427937943L41.52515625,72.39916477691045L41.7965625,72.83337611366402L42.06796875,73.39452939277346L42.339375,74.05507467009805L42.61078125,74.07897406681019L42.8821875,74.54244972629982L43.15359375,74.81482612138446L43.425000000000004,75.5747993629087L43.69640625,75.27194179594517L43.9678125,75.57596825740556L44.23921875,76.10340342602949L44.510625000000005,76.09224797649819L44.78203125,76.48318024521524L45.0534375,76.66276440024376L45.32484375,76.90274743193929L45.596250000000005,77.41262520578775L45.86765625,77.54548954692754L46.1390625,78.08499729768798L46.41046875000001,78.28576541759752L46.681875,78.55639746243303L46.953281249999996,78.68238031186841L47.224687499999995,78.46996520730582L47.49609375,79.14475301449949L47.7675,79.28268855945632L48.03890625,79.6642097288912L48.310312499999995,80.06505662067369L48.58171875,79.79395102370869L48.853125,79.81446961787614L49.12453125,80.24227900938556L49.395937499999995,80.23732169785283L49.66734375,80.30140708793293L49.93875,81.20400943539359L50.21015625,80.84087887270883L50.4815625,80.87175567041744L50.75296875,81.50062090971254L51.024375,81.3776292313229L51.29578125,81.72876513817094L51.5671875,82.06358447670937L51.83859375,81.63850250569257L52.11,82.09814179350029L52.381406250000005,82.35811591825701L52.6528125,82.12343786927786L52.92421875,82.23221698945218L53.195625,82.83081085844472L53.467031250000005,82.65710114755414L53.7384375,82.93926029042765L54.00984375,82.89029260250655L54.28125,83.75634152103554L54.552656250000005,83.45862708985806L54.824062500000004,83.45839331095868L55.09546875,84.11187726665626L55.36687499999999,83.78115205602214L55.63828125,84.36528759923848L55.9096875,83.78747607496652L56.181093749999995,83.89227495952085L56.4525,84.4304040142081L56.72390625,84.6427651697939L56.9953125,84.29433270611547L57.266718749999995,85.12923508205198L57.538125,85.03601125018164L57.80953125,85.03721011633222L58.0809375,85.33817946910858L58.352343749999996,85.0746806778691L58.62375,85.31867391683839L58.89515625,85.35955525257371L59.1665625,85.41077680885792L59.43796875,86.09299758618528L59.709375,85.98254604773089L59.98078125,86.30191200158812L60.2521875,85.79615832729772L60.52359375,86.706025803631L60.795,86.366536881436L61.06640625,86.1270453848622L61.3378125,86.78641577335921L61.609218750000004,86.16365276277065L61.880625,86.18447107347575L62.15203125,86.94097359749404L62.423437500000006,86.34746292098L62.694843750000004,86.49157862094316L62.96625,86.89191000028089L63.23765625,87.4028008160266L63.509062500000006,86.83458022095941L63.78046875,87.17786355452105L64.051875,86.81064485826276L64.32328125,86.95583953776143L64.59468749999999,87.26199998096988L64.86609374999999,87.15454560789195L65.1375,87.02971966429189L65.40890625,87.72148941050877L65.6803125,87.65154156495224L65.95171875,87.45637214996599L66.223125,87.5129346549511L66.49453125,87.86978315900673L66.76593749999999,87.68223253840749L67.03734375,87.79311566867612L67.30875,87.8790803660046L67.58015625,87.49217628755353L67.8515625,87.79880428856069L68.12296875,88.2761148634282L68.394375,88.36948855356738L68.66578125,88.92557662319054L68.93718750000001,88.5020292008465L69.20859375,88.31411892040208L69.48,88.54596764526583L69.75140625,88.65056871690533L70.0228125,88.47251911054958L70.29421875,88.20239658382806L70.565625,88.46071627329697L70.83703125000001,88.87184344232082L71.10843750000001,88.57070624828339L71.37984375,88.93231425095688L71.65125,89.09815340556881L71.92265625,89.32211359116164L72.1940625,89.3414572965015L72.46546875,88.60461018302223L72.736875,88.91850930723277L73.00828125000001,89.38875856047326L73.27968750000001,89.16174126619643L73.55109375,89.25739280202171L73.8225,89.2985858429562L74.09390625,89.88368047909303L74.3653125,89.43564621562308L74.63671875,89.41934763030572L74.90812500000001,89.1784294830127L75.17953125000001,89.2808905785734L75.45093750000001,89.72767202691598L75.72234375000001,89.85233012925495L75.99375,89.5095323364843L76.26515625,89.45095573636618L76.53656249999999,89.72914663228121L76.80796874999999,89.99042152681133L77.079375,89.58624778146094L77.35078125,90.21664756942879L77.6221875,90.08223069662398L77.89359375,89.93509984829208L78.16499999999999,89.94645910506898L78.43640624999999,90.36617615006186L78.70781249999999,90.58291916142811L78.97921875,90.74526362121105L79.250625,89.94045877998525L79.52203125,90.59491381726481L79.7934375,90.13172588565132L80.06484375,90.46043700115247L80.33624999999999,90.35192762586203L80.60765624999999,90.51046568561684L80.8790625,90.69281322712249L81.15046875,90.45749378475276L81.421875,90.60186724093828L81.69328125,90.65681727095082L81.9646875,90.76421170072122L82.23609375,90.5840281126174L82.5075,91.0358447987925L82.77890624999999,90.5134148963473L83.0503125,91.29310349171811L83.32171875,91.15106782452627L83.593125,91.09775424680926L83.86453125,90.88970301503485L84.1359375,91.48978947238489L84.40734375,91.51177667758681L84.67875,91.18150104175915L84.95015625,91.41971574588254L85.2215625,91.25216820700601L85.49296875,91.36076749725774L85.764375,91.73820652744986L86.03578125,91.763634478504L86.3071875,91.45975787531246L86.57859375,91.48245840587398L86.85000000000001,91.76953889429569L87.12140625,91.64311845871535L87.3928125,91.47678776898167L87.66421875,92.17979688536037L87.935625,91.728423779661L88.20703125,92.23199551755732L88.4784375,91.84566090052778L88.74984375,92.25374894385988L89.02125000000001,92.51343534074046L89.29265625000001,91.93340591408989L89.5640625,92.22929207438773L89.83546875,91.82106016711755L90.106875,91.93157764321023L90.37828125,92.20282710411331L90.6496875,92.30401740155436L90.92109375000001,92.12499071928588L91.19250000000001,92.95901792293245L91.46390625000001,92.64979437670924L91.7353125,92.09186604754491L92.00671875,92.46911325915292L92.278125,92.72565862671895L92.54953125,92.28257568045095L92.82093750000001,92.2120463848114L93.09234375000001,92.66995930536226L93.36375,92.50531901690093L93.63515625,93.276483673941L93.90656249999999,93.13041382215239L94.17796874999999,92.86966043439779L94.44937499999999,92.91610450907186L94.72078124999999,92.65740118243477L94.9921875,93.19277883930638L95.26359375,93.13579673116857L95.535,92.87147671661593L95.80640625,92.94432581825689L96.0778125,93.15239503302357L96.34921874999999,93.28702170740475L96.62062499999999,93.13789474693212L96.89203125,92.89542406797409L97.1634375,93.1169265779582L97.43484375,93.70711639523506L97.70625,93.48614138635722L97.97765625,93.41277077794075L98.2490625,93.29240461642092L98.52046874999999,93.33790158683604L98.79187499999999,94.10081804476L99.06328125,93.03623689169234L99.3346875,94.16872182352975L99.60609375,93.79457368092103L99.8775,93.32925176755948L100.14890625,93.26112619855186L100.4203125,93.91634851016781L100.69171874999999,93.80717975849456L100.963125,94.19313673268665L101.23453125,93.86919111013412L101.5059375,94.42583065818657L101.77734375,94.14524802430108L102.04875,94.1580459204587L102.32015625,93.96200133318251L102.5915625,94.34498511932112L102.86296875000001,94.28718178787014L103.134375,94.78001168505712L103.40578125,93.87924959713763L103.6771875,94.3838583542542L103.94859375,94.4869548488747L104.22,94.9294503507289L104.49140625,94.3862440978939L104.76281250000001,94.0004909309474L105.03421875000001,94.54589710316874L105.305625,95.09296370500869L105.57703125,95.06480233913118L105.8484375,94.7172150760889L106.11984375,94.56828592853113L106.39125,95.00787417997013L106.66265625,95.00048916448246L106.93406250000001,95.08221586996859L107.20546875000001,95.16523735089734L107.476875,94.73251860250126L107.74828125,94.79385259476575L108.0196875,94.98738555745645L108.29109375,94.88655491986057L108.5625,95.27017410505901L108.83390625000001,95.11004754765466L109.10531250000001,95.35568922758102L109.37671875000001,95.31673806634817L109.64812500000001,95.45362460342321L109.91953125,95.39992139420725L110.1909375,95.4327163777568L110.46234374999999,95.83683017979969L110.73374999999999,95.5773356015032L111.00515625,95.41761665859005L111.2765625,95.3758361732418L111.54796875,95.70204765281893L111.819375,95.52852376618168L112.09078124999999,96.33654156869108L112.36218749999999,95.69474056363106L112.63359374999999,96.32661495696415L112.905,96.08242390508002L113.17640625,96.22710307213393L113.4478125,95.8135122331706L113.71921875,96.06819935820319L113.990625,96.03233527730812L114.26203124999999,95.97499950365587L114.53343749999999,95.93887766653842L114.80484375,96.11978656866333L115.07625,95.85552649741823L115.34765625,96.46649266508493L115.6190625,96.40211954712868L115.89046875,96.91000120883638L116.161875,96.65658488192341L116.43328125,96.0239731859077L116.70468749999999,96.0486158796332L116.97609375,96.46290206096388L117.2475,96.39718021858822L117.51890625,96.98576954955405L117.7903125,96.71980109404434L118.06171875,96.11951682377945L118.333125,96.01585686206818L118.60453125,96.47760615430094L118.8759375,96.82238207622007L119.14734375,97.19068574634466L119.41875,96.85860581696033L119.69015625,97.01424861496145L119.9615625,96.9809561019594L120.23296875,96.87866884199056L120.504375,96.84499269182032L120.77578125000001,96.88542445274916L121.0471875,97.72223902019587L121.31859375,97.06803574480793L121.59,97.36184786666523L121.86140625,97.1999349986965L122.1328125,97.565571191636L122.40421875,97.11657184091482L122.675625,97.2707640108737L122.94703125000001,97.4638773704117L123.21843750000001,97.29594619436696L123.48984375,97.67155095934868L123.76125,97.84538655118509L124.03265625,98.44335101544857L124.3040625,97.70766080780461L124.57546875,97.27521180429241L124.84687500000001,97.89120721546087L125.11828125000001,97.97563136978582L125.38968750000001,97.74076749655333L125.66109375,98.10706306587566L125.9325,98.13187360086224L126.20390625,98.0558475039222L126.4753125,98.35612750866196L126.74671875000001,97.96548896215178L127.01812500000001,98.11395055191083L127.28953125,98.73617407273163L127.5609375,98.36473536762324L127.83234374999999,98.49478836763988L128.10375,98.08271409435704L128.37515625,98.39738049290396L128.6465625,98.89116348868066L128.91796875,99.12843708287586L129.18937499999998,98.78914597359571L129.46078125,99.06653962352058L129.73218749999998,98.82282212376595L130.00359375,98.33491357212716L130.275,98.6592668091709L130.54640625,98.72845936905254L130.8178125,98.90185138041323L131.08921875,98.76830368556759L131.360625,99.20651324093342L131.63203124999998,99.58895154297352L131.9034375,98.7508242170919L132.17484375,99.07553111965007L132.44625,98.86663468723947L132.71765625,98.8159825923768L132.9890625,99.29369478740475L133.26046875,99.7276183962822L133.53187499999999,99.67717610299587L133.80328125,99.78493019261143L134.0746875,99.82237078249454L134.34609375,99.87160821529952L134.6175,99.53744225881316L134.88890625,100.30083826319738L135.1603125,99.62157269093123L135.43171875,99.43020368164235L135.703125,100.31018941917202L135.97453125,99.58516912026838L136.2459375,99.79201549156144L136.51734375,100.40678206492554L136.78875,100.0463909113949L137.06015625,100.47547110102393L137.3315625,100.15635091472755L137.60296875,100.101424862038L137.87437500000001,100.2408529953523L138.14578125,100.4810458286242L138.4171875,100.41093613613735L138.68859375,100.77563121914864L138.96,100.62253001738678L139.23140625,100.42410568080165L139.5028125,100.65508522770621L139.77421875000002,100.98741691898216L140.045625,101.1182851479812L140.31703125,100.90883723714134L140.5884375,101.29155127839608L140.85984375,101.06005621904677L141.13125,100.88553727350451L141.40265625,101.30080053074792L141.67406250000002,101.1603953215209L141.94546875,101.29627481102943L142.21687500000002,101.47348521107978L142.48828125,101.14251423288475L142.7596875,101.72073936597867L143.03109375,101.75113661722703L143.3025,101.87309727072716L143.57390625,101.65243396704847L143.8453125,101.2076006762006L144.11671875000002,101.38598596507853L144.388125,101.78983002223751L144.65953125000001,101.70362555167891L144.9309375,102.09424012086608L145.20234375,101.63008710200137L145.47375,102.01217173852703L145.74515625,101.84362314641476L146.01656250000002,101.70349967073311L146.28796875,101.93267492408103L146.55937500000002,101.90545466813174L146.83078125,102.3233254592527L147.1021875,102.30559422888538L147.37359375,102.95126157728109L147.645,102.0344346829436L147.91640625000002,102.49508101831783L148.1878125,102.47633075172251L148.45921875000002,102.7849069102244L148.730625,102.96347802335566L149.00203125000002,102.4511665512215L149.2734375,102.32747353613377L149.54484375,102.5647171586752L149.81625000000003,102.73333768275651L150.08765625,103.06877443736249L150.35906250000002,102.3130751536651L150.63046875,102.43293779140168L150.90187500000002,103.23946300555359L151.17328125,103.00935863093896L151.44468750000001,102.69506388089873L151.71609375000003,103.53952721438624L151.9875,102.79702744700691L152.25890625000002,103.37018737061456L152.5303125,102.9489117996259L152.80171875,103.33274678073145L153.07312499999998,103.29884884032336L153.34453125,103.3911795169115L153.61593749999997,103.60978077081117L153.88734374999999,103.3235634660179L154.15875,103.33412547680464L154.43015624999998,103.17669636823913L154.7015625,103.52473920041865L154.97296874999998,103.34212191402912L155.244375,103.63421965729107L155.51578124999997,103.6461723528125L155.7871875,103.56592025269161L156.05859375,103.73948609964414L156.32999999999998,103.92788791521028L156.60140625,103.69448066435076L156.87281249999998,103.63863148472525L157.14421875,104.24920202656224L157.41562499999998,103.88566984371705L157.68703125,104.47542207484895L157.9584375,103.97085527804765L158.22984375,104.04432179575616L158.50125,104.19994661076501L158.77265624999998,104.15880152447656L159.0440625,104.2063365673477L159.31546874999998,104.17774360965599L159.586875,104.14645919745618L159.85828125,104.23003215681423L160.1296875,104.32351374490693L160.40109375,104.18284478512678L160.67249999999999,104.46375710720366L160.94390625,104.39795134419745L161.21531249999998,104.93962904269046L161.48671875,104.61685231463476L161.758125,104.37982448800042L162.02953125,104.45827828889543L162.3009375,104.46605293588205L162.57234375,104.34246182441711L162.84375,104.78130677884275L163.11515624999998,104.80362966656685L163.3865625,104.73958024247125L163.65796874999998,104.70293090424754L163.929375,104.60928746922448L164.20078125,104.6170501275496L164.4721875,104.48267521506006L164.74359375,104.71013009548187L165.015,104.72356938503005L165.28640625,104.66801392761144L165.55781249999998,104.25237902186133L165.82921875,104.69083434478803L166.100625,104.64117730883035L166.37203125,104.49644419279966L166.6434375,105.12812676754865L166.91484375,104.54406915063208L167.18625,104.78776866739446L167.45765624999999,104.32414914396676L167.7290625,105.11502915485337L168.00046875,104.6010512587699L168.271875,104.90742749788544L168.54328125,105.25352217257023L168.8146875,104.82548499649221L169.08609375,104.73518040369858L169.3575,105.18574427474628L169.62890625,104.79993116449226L169.9003125,104.9989129738374L170.17171875,105.25779013606635L170.443125,105.2638264271346L170.71453125,104.93107513270594L170.9859375,105.05053015595132L171.25734375,104.94081592017955L171.52875,105.16201271929523L171.80015625000001,104.69118201597169L172.0715625,105.43554002588445L172.34296875,105.35158942368898L172.614375,105.14100858433679L172.88578125,105.5500017716126L173.1571875,105.21417538550767L173.42859375,105.55877747183496L173.70000000000002,105.04599844190207L173.97140625,105.10355600579217L174.2428125,104.87875661389394L174.51421875,105.52704348482868L174.785625,105.75364717028357L175.05703125,105.30089536851102L175.3284375,105.94753979281946L175.59984375000002,105.47952043061906L175.87125,105.14769226312637L176.14265625000002,105.48990261148323L176.4140625,105.30766296793114L176.68546875,105.63365265727043L176.956875,105.50793355838819L177.22828125,105.71914979680017L177.4996875,105.5270554734902L177.77109375,105.82182668826796L178.04250000000002,106.08009242876008L178.31390625,105.4510473595424L178.58531250000001,105.50446284088221L178.85671875,105.65192937173626L179.128125,105.55195592343807L179.39953125,105.86261810904199L179.6709375,105.57556759227406L179.94234375000002,105.30266969041391L180.21375,105.43310033326799L180.48515625000002,105.60670814053579L180.7565625,105.8079378239133L181.02796875,105.86409271440722L181.299375,105.5163855647499L181.57078125,105.79643470319834L181.84218750000002,105.83956391296603L182.11359375,105.68764359436251L182.38500000000002,105.69095246493816L182.65640625,105.65835529430345L182.92781250000002,105.80796180123633L183.19921875,106.06821166520768L183.470625,105.94387725672938L183.74203125000003,105.60464009642601L184.0134375,105.95008138905872L184.28484375000002,105.70012379099022L184.55625,105.95370196483351L184.82765625000002,106.14976453510198L185.0990625,106.06247509067708L185.37046875000001,106.06952442364259L185.64187500000003,106.1924801360477L185.91328125,105.70146652107888L186.18468750000002,105.80866913226518L186.45609375,106.48431412875652L186.7275,105.90969758277589L186.99890624999998,105.9850523146716L187.2703125,106.05642081661657L187.54171874999997,106.37556498023596L187.81312499999999,105.9473180025816L188.08453125,105.67023605785586L188.35593749999998,105.97100160338661L188.62734375,105.8629358085719L188.89874999999998,105.96021180803126L189.17015625,106.49911413138562L189.44156249999997,106.34993921626697L189.71296875,106.24506839974359L189.984375,106.06684495779601L190.25578124999998,106.44004599614576L190.5271875,106.00034385242245L190.79859374999998,106.31269643929872L191.07,106.55658178031445L191.34140624999998,106.5771123631434L191.6128125,106.45769930021329L191.88421875,106.01459237662229L192.155625,106.09682860022241L192.42703125,106.32966039532965L192.69843749999998,106.52315139770508L192.96984375,106.37782484292984L193.24124999999998,106.30369295450774L193.51265625,106.33012195879763L193.7840625,106.11896566369316L194.05546875,106.49058419872414L194.326875,105.82860627634957L194.59828124999999,106.07664568857713L194.8696875,106.65117231959647L195.14109374999998,106.48702956058762L195.4125,106.6312291811813L195.68390625,106.16704019633207L195.9553125,106.38873452490026L196.22671875,106.86925206672062L196.498125,106.70971295373006L196.76953125,106.56548336148262L197.04093749999998,106.4672602577643L197.31234375,106.72670088708401L197.58374999999998,106.85623238032514L197.85515625,106.07960089363834L198.1265625,106.91555227745663L198.39796875,106.3244393332438L198.669375,106.46105612543496L198.94078125,106.73977452245626L199.2121875,106.6152542897246L199.48359374999998,106.47170205685225L199.755,107.16590550135483L200.02640625,106.80145019157365L200.2978125,106.57520616596395L200.56921875,106.96062964471903L200.840625,107.00714565136215L201.11203125,106.63875806060705L201.38343749999999,106.71266815879127L201.65484375,106.83721236884594L201.92625,106.73909116875042L202.19765625,106.61981597542763L202.4690625,106.84210374274036L202.74046875,106.97278015315533L203.011875,107.16579760340127L203.28328125,106.77092106504873L203.5546875,106.6832539777864L203.82609375,107.35021918334743L204.0975,106.43207953057505L204.36890625,106.89057390120897L204.6403125,106.66271140629595L204.91171875,107.08513189445843L205.183125,107.08516786044294L205.45453125,107.16510226103392L205.72593750000001,107.17458529228514L205.99734375,107.1496009217067L206.26875,107.05981184135784L206.54015625,107.1613198383288L206.8115625,106.83736822144552L207.08296875,107.19094981524077L207.354375,107.46728846295312L207.62578125000002,106.31984767588702L207.8971875,106.72393150627613L208.16859375,106.71295588666743L208.44,107.40843612362038L208.71140625,107.05507032573223L208.9828125,107.56623088636181L209.25421875,107.02117238532414L209.52562500000002,107.21568841825832L209.79703125,106.9195325130766L210.06843750000002,107.11320334537461L210.33984375,107.2138301757249L210.61125,107.37340525469996L210.88265625,107.35610561614686L211.1540625,107.27662678469311L211.42546875,106.83081641793251L211.696875,107.47723905200309L211.96828125000002,107.38520809195258L212.2396875,107.26113143969665L212.51109375000001,107.49805736270818L212.7825,107.03118891201235L213.05390625,107.07167462191798L213.3253125,107.40822032771327L213.59671875,107.26247416978532L213.86812500000002,107.19802312552929L214.13953125,107.85332336344501L214.41093750000002,107.0641397481615L214.68234375,106.96119311180982L214.95375,107.44622438468716L215.22515625,107.15876025909728L215.4965625,107.34704218804836L215.76796875000002,107.0592663572593L216.039375,107.19269416548988L216.31078125000002,107.5378177585927L216.5821875,107.17925487594171L216.85359375000002,107.83798986537889L217.125,107.08221265538171L217.39640625,107.80874352563511L217.66781250000003,107.49178729274055L217.93921875,107.51704140820286L218.21062500000002,107.43155026300386L218.48203125,107.54444149407473L218.75343750000002,107.55066960372707L219.02484375,107.11454008113255L219.29625000000001,107.65052316541022L219.56765625000003,108.02051723680712L219.8390625,108.03395053202456L220.11046875000002,107.53778778693892L220.381875,107.65007359060374L220.65328125,108.03902773017234L220.92468749999998,107.22161081704226L221.19609375,107.96583095734769L221.46749999999997,107.83659918064421L221.73890624999999,107.87816986441612L222.0103125,107.50652135773137L222.28171874999998,107.73868178779429L222.553125,108.06813020597805L222.82453124999998,107.52680617299947L223.0959375,107.88326504555616L223.36734374999997,107.81512149355628L223.63875,107.52976137806068L223.91015625,107.75403926318342L224.18156249999998,108.22894611141898L224.45296875,108.00405680455944L224.72437499999998,107.85760331560265L224.99578125,108.00421265715903L225.26718749999998,107.70965723828836L225.53859375,107.77266364883293L225.81,107.8132452680306L226.08140625,108.03195441988382L226.3528125,108.02805211056362L226.62421874999998,108.0874259566719L226.895625,108.26429467986931L227.16703124999998,107.86006698554212L227.4384375,108.38668093085289L227.70984375,108.24238540096715L227.98125,107.81281967054714L228.25265625,107.94945444573055L228.52406249999999,108.38392353870651L228.79546875,108.09228735891256L229.06687499999998,107.68131604248828L229.33828125,107.68005723303014L229.6096875,107.9637149585919L229.88109375,108.08616714721376L230.1525,108.39528878981417L230.42390625,108.14530122009191L230.6953125,108.36685767905279L230.96671874999998,108.14330510795116L231.238125,108.05834745818919L231.50953124999998,108.2127134637399L231.7809375,107.93048838322812L232.05234375,108.29825855791569L232.32375,108.35806399583817L232.59515625,108.13900717280127L232.8665625,108.09739452871409L233.13796875,108.2473786784844L233.40937499999998,108.16077258776535L233.68078125,108.13448145308277L233.9521875,108.07723559439182L234.22359375,108.50731683725661L234.495,108.17343860864639L234.76640625,108.499080626802L235.0378125,108.26371922411701L235.30921874999999,107.77793865989555L235.580625,108.68153007193044L235.85203125,108.32598233764821L236.1234375,108.4737126190554L236.39484375,108.26019455763426L236.66625,108.49058666012503L236.93765625,108.05452307516879L237.2090625,108.47184238786048L237.48046875,108.21963092142886L237.751875,108.44212849031796L238.02328125,108.39689527045597L238.2946875,108.24282898144288L238.56609375,108.49739022552967L238.8375,108.27552206136963L239.10890625,108.37325362996621L239.3803125,109.04094414954835L239.65171875000001,108.40505954894152L239.923125,108.37246237830682L240.19453125,108.03301541642709L240.4659375,108.52868662639096L240.73734375,108.79907889799638L241.00875,109.24827006730166L241.28015625,109.01316042650829L241.55156250000002,108.29460201615638L241.82296875,109.24215584993362L242.094375,108.68157203224573L242.36578125,108.4629527953538L242.6371875,109.26011486486955L242.90859375,108.64732042632319L243.18,109.07107165591283L243.45140625000002,108.90567608177662L243.7228125,108.78813325004144L243.99421875000002,108.61515484750271L244.265625,108.92811286178502L244.53703125,109.23766010186888L244.8084375,108.55126727033745L245.07984375,109.09862759438428L245.35125,108.86938640339807L245.62265625,108.71713639660314L245.89406250000002,109.00970169766381" style="fill: none;" fill="none"></path></g><g><path stroke="rgb(0, 119, 187)" stroke-width="2px" d="M37.996875,-14.406848861412556L40.7109375,27.750955630432486L43.425000000000004,21.714041151783675L46.1390625,33.66812735795975L48.853125,36.78182252428749L51.5671875,47.47528898445043L54.28125,54.28554406220263L56.9953125,49.34747433120555L59.709375,40.35673348741099L62.423437500000006,17.6897232234478L65.1375,23.404094752940267L67.8515625,15.537159050052821L70.565625,33.668187301267295L73.27968750000001,45.64535168084234L75.99375,20.269455394961625L78.70781249999999,15.679668269374162L81.421875,33.13943937420845L84.1359375,13.604191189462483L86.85000000000001,39.550675831057816L89.5640625,33.044105537913055L92.278125,-2.5266847420822387L94.9921875,39.19210695407608L97.70625,28.245499906214803L100.4203125,30.496766729788362L103.134375,35.82355682145467L105.8484375,40.14519355513832L108.5625,30.502317480065614L111.2765625,24.402318664572448L113.990625,13.531432002782822L116.70468749999999,17.104916315187126L119.41875,33.07600736618042L122.1328125,30.752496868371964L124.84687500000001,44.137729541821926L127.5609375,41.526742929762065L130.275,37.59934134104034L132.9890625,48.71840528466484L135.703125,40.893705636262894L138.4171875,50.56705688888377L141.13125,53.854971284216106L143.8453125,57.12630536068569L146.55937500000002,51.37487687847833L149.2734375,53.796958151188775L151.9875,59.5241095938466L154.7015625,51.99936625632374L157.41562499999998,40.566606995734304L160.1296875,55.61315644871107L162.84375,47.68463499166748L163.3865625,44.655196138403625L163.929375,54.67882011424413L164.4721875,65.89693437923084L165.015,60.99919450553982L165.55781249999998,60.556549145416795L166.100625,52.122058218175724L166.6434375,53.86823074384171L167.18625,51.65486007928848L167.7290625,49.430867460641L168.271875,51.01916130293499L168.8146875,46.05695839632642L169.3575,56.9452525946227L169.9003125,50.72589466517623L170.443125,48.48391905426979L170.9859375,61.22515080327338L171.52875,63.20582754232667L172.0715625,43.337318545038045L172.614375,29.797839752652436L173.1571875,53.6441386829723L173.70000000000002,61.2531563165513L174.2428125,60.62870889902115L174.785625,69.69698041677475L175.3284375,64.0769836306572L175.87125,55.73162840171295L176.4140625,61.79664430293171L176.956875,41.082263304428636L177.4996875,56.68487085537478L178.04250000000002,61.98042448948732L178.58531250000001,62.48965487561445L179.128125,55.98796996203336L179.6709375,64.46768811480567L180.21375,67.97635572877797L180.7565625,56.94603185762058L181.299375,60.4046767814593L181.84218750000002,66.6715457764539L182.38500000000002,67.59143577380615L182.92781250000002,40.36821862513369L183.470625,46.66525109247729L184.0134375,41.09817225824705L184.55625,59.51281627470797L185.0990625,66.52040472084826L185.64187500000003,57.555103816769346L186.18468750000002,66.84398468922487L186.7275,51.92340609702198L187.2703125,60.68893394009635L187.81312499999999,70.50372142683378L188.35593749999998,56.076674068515956L188.89874999999998,58.50045773116025L189.44156249999997,51.21703416109085L189.984375,47.05302434888753L190.5271875,62.83666668290442L191.07,54.867197952487274L191.6128125,43.29546612772077L192.155625,59.68464976007289L192.69843749999998,63.96380467171019L193.24124999999998,73.09137810360303L193.7840625,59.93651954965159L194.326875,62.34612062573433L194.8696875,69.57633252170953L195.4125,60.70259501988238L195.9553125,48.47000021826139L196.498125,44.71649416468361L197.04093749999998,48.09705693613401L197.58374999999998,50.35462979565969L198.1265625,61.9873359528455L198.669375,51.40940422361548L199.2121875,48.11374515295029L199.755,46.199839264154434L200.2978125,61.88757230612366L200.840625,68.73492629690605L201.38343749999999,57.353370609608575L201.92625,63.52275979789822L202.4690625,57.936978651718675L203.011875,60.58328985490583L203.5546875,51.86167647892779L204.0975,60.68985706703231L204.6403125,60.46960137784481L205.183125,64.17813196778297L205.72593750000001,55.47971065748821L206.26875,53.789764954285204L206.8115625,67.51189699904486L207.354375,57.76309510523623L207.8971875,52.99208737232469L208.44,49.44196896119553L208.9828125,56.172379553318024L209.52562500000002,66.81164527481253L210.06843750000002,68.24141904034398L210.61125,66.63421308452433L211.1540625,70.21737824109468L211.696875,58.49153816699982L212.2396875,57.64180581678043L212.7825,70.82610852339052L213.3253125,53.40012146668002L213.86812500000002,44.248756536028594L214.41093750000002,68.68284155699341L214.95375,61.667112809690565L215.4965625,66.74619917165151L216.039375,69.07360598444939L216.5821875,50.73216473514384L217.125,66.16218351505022L217.66781250000003,71.04658600281587L218.21062500000002,61.987677629698425L218.75343750000002,56.54582635922867L219.29625000000001,49.857699776237666L219.8390625,40.27867531234568L220.381875,54.76814763112503L220.92468749999998,67.83153869211674L221.46749999999997,67.12607190012932L222.0103125,68.13296361403033L222.553125,49.32165075432172L223.0959375,53.91805562106046L223.63875,58.00487044182691L224.18156249999998,62.12519956583327L224.72437499999998,61.064035181294784L225.26718749999998,56.63161722096531L225.81,58.62364122813399L226.3528125,56.91875765269454L226.895625,56.386533013798996L227.4384375,66.77538556808776L227.98125,64.11996298215608L228.52406249999999,64.70624449578199L229.06687499999998,52.86148289387877L229.6096875,63.33914745260368L230.1525,73.98817793889481L230.6953125,69.22974031757226L231.238125,47.205663987181396L231.7809375,53.72965380549431L232.32375,61.814579340544626L232.8665625,65.59448442675851L233.40937499999998,75.12317449531774L233.9521875,64.37578903003174L234.495,62.77099878950554L235.0378125,60.14790362932466L235.580625,50.0271595066244L236.1234375,73.74311171472073L236.66625,65.50287306986074L237.2090625,60.54427275603469L237.751875,61.84723046015611L238.2946875,70.4852828654376L238.8375,61.699823872609585L239.3803125,42.107042101296514L239.923125,56.01285842331974L240.4659375,50.404095013033256L241.00875,54.33257558129053L241.55156250000002,53.456588062373086L242.094375,59.92955413731663L242.6371875,45.98133391954681L243.18,55.262332247062176L243.7228125,64.45020864632997L244.265625,64.17078891261059L244.8084375,67.7625499394807L245.35125,54.3252984637564L245.89406250000002,61.62899486043237" style="fill: none;" fill="none"></path></g><g><path stroke="rgb(238, 51, 119)" stroke-width="2px" d="M35.2828125,-110.77469522302806L37.996875,14.155705584721147L40.7109375,36.12278182398191L43.425000000000004,8.147072358564913L46.1390625,32.864419479261755L48.853125,46.86699628829956L51.5671875,49.889265921982854L54.28125,55.098675028844326L56.9953125,44.10673885182902L59.709375,60.72130932049319L62.423437500000006,41.54008631001821L65.1375,42.60788042436948L67.8515625,29.931777078997015L70.565625,44.94124560193583L73.27968750000001,36.730882701548666L75.99375,37.73554452440956L78.70781249999999,34.816425334323554L81.421875,37.55729710513896L84.1359375,30.493901439688415L86.85000000000001,35.7198309221051L89.5640625,33.19408369335264L92.278125,33.689742914655L94.9921875,55.45092588121241L97.70625,38.74958148056811L100.4203125,35.47182148153132L103.134375,22.182342247529476L105.8484375,44.11781637506053L108.5625,54.655753929506645L111.2765625,47.57123424248263L113.990625,46.00929147817871L116.70468749999999,40.916196365248084L119.41875,55.38296215913515L122.1328125,35.80788764086637L124.84687500000001,51.113284284418285L127.5609375,56.8529279123653L130.275,56.79427938027817L132.9890625,52.87674445997587L135.703125,64.67610500075601L138.4171875,66.97247316891497L141.13125,59.34252932667732L143.8453125,64.578990848227L146.55937500000002,68.83057183840059L149.2734375,57.609724158590495L151.9875,63.742751736532554L154.7015625,69.7040777043863L157.41562499999998,61.79487597535959L160.1296875,71.67641033503143L162.84375,72.76835560798645L163.3865625,55.76405773108657L163.929375,73.07301746850665L164.4721875,77.59676505218853L165.015,66.35088504715401L165.55781249999998,75.11362552642822L166.100625,74.00102378969844L166.6434375,70.87077228183097L167.18625,71.67830454354937L167.7290625,69.81298270550641L168.271875,74.66986522078514L168.8146875,66.27494287084451L169.3575,72.29326293549757L169.9003125,74.58427217196336L170.443125,68.2913398268548L170.9859375,61.78430797024208L171.52875,72.23137746480378L172.0715625,73.73000810769472L172.614375,81.10720698806372L173.1571875,71.56366296789865L173.70000000000002,66.75799002024262L174.2428125,63.76921670680697L174.785625,79.15328294716097L175.3284375,80.64901233396746L175.87125,78.64802080799232L176.4140625,70.36830949512395L176.956875,74.25360690463673L177.4996875,75.00500825318424L178.04250000000002,76.63610761138526L178.58531250000001,71.4278853820129L179.128125,78.63099690865387L179.6709375,82.85621483217587L180.21375,70.3304313190959L180.7565625,70.70451951839708L181.299375,78.58727426014163L181.84218750000002,66.01812775839458L182.38500000000002,68.13510359010915L182.92781250000002,69.26451942460105L183.470625,64.66606449674478L184.0134375,73.74007858335972L184.55625,72.33457586304709L185.0990625,78.25404341925274L185.64187500000003,77.38604034889828L186.18468750000002,71.96452784267339L186.7275,73.26535156504676L187.2703125,74.28342870013282L187.81312499999999,78.98430875756524L188.35593749999998,74.39122475006364L188.89874999999998,79.96052148667249L189.44156249999997,69.59066496653992L189.984375,63.39198747819121L190.5271875,72.20546397295865L191.07,67.20532294701448L191.6128125,73.30557951873L192.155625,73.5878405652263L192.69843749999998,80.18891747702251L193.24124999999998,83.59240856360306L193.7840625,72.06850550391458L194.326875,76.86884349720046L194.8696875,73.71098210188477L195.4125,83.19834125990216L195.9553125,63.29103095964953L196.498125,70.286432931369L197.04093749999998,62.425275763327434L197.58374999999998,79.85765877095136L198.1265625,82.07559711553834L198.669375,68.17266406660731L199.2121875,81.40379448505965L199.755,78.55147611688484L200.2978125,82.86547607318923L200.840625,77.56733288819139L201.38343749999999,78.48108469085261L201.92625,71.9182875752449L202.4690625,73.79413545809011L203.011875,72.97813920134848L203.5546875,67.92796349660918L204.0975,78.20345726202835L204.6403125,78.38726142590696L205.183125,77.55131004208867L205.72593750000001,73.80821014669809L206.26875,72.98728655007753L206.8115625,76.7293194545941L207.354375,71.36459723792295L207.8971875,69.25437102263625L208.44,66.61995856599376L208.9828125,78.239501172846L209.52562500000002,82.40876201878895L210.06843750000002,71.92018777809362L210.61125,80.80394180660898L211.1540625,76.25256035815588L211.696875,76.62949586456472L212.2396875,63.52316741238943L212.7825,75.75088282877749L213.3253125,72.59777493774891L213.86812500000002,76.23603998260066L214.41093750000002,74.07210456376727L214.95375,67.61541309681806L215.4965625,73.89095588841222L216.039375,72.42727219381116L216.5821875,69.51614344661887L217.125,81.26644039018586L217.66781250000003,80.44771071862091L218.21062500000002,63.97816708819434L218.75343750000002,76.14405697719619L219.29625000000001,71.45179077305578L219.8390625,71.01478008384055L220.381875,80.40810617533597L220.92468749999998,81.37245612388307L221.46749999999997,80.83564582196149L222.0103125,75.7157620448958L222.553125,81.72751831737432L223.0959375,70.9030097926205L223.63875,79.62857942689548L224.18156249999998,79.71858430315147L224.72437499999998,77.6632241972468L225.26718749999998,70.81143440170723L225.81,69.86822645772587L226.3528125,79.64951762421563L226.895625,77.36167339438741L227.4384375,79.08309532837436L227.98125,64.76359225809574L228.52406249999999,78.73654508455232L229.06687499999998,73.00341729413381L229.6096875,79.99534255401656L230.1525,79.70087105577642L230.6953125,81.88465370373294L231.238125,72.55278149111706L231.7809375,69.8502854257822L232.32375,68.83854429830204L232.8665625,70.91390748592941L233.40937499999998,80.97658452662554L233.9521875,76.3892191106623L234.495,73.95022183656693L235.0378125,78.2044703039256L235.580625,74.75365997038107L236.1234375,78.17494822496717L236.66625,73.35741849108177L237.2090625,77.15853751383044L237.751875,77.14080028913237L238.2946875,81.16742004047741L238.8375,59.476934210820644L239.3803125,75.9178848835555L239.923125,77.34177221628752L240.4659375,61.82411632077262L241.00875,84.8762263696302L241.55156250000002,71.95571617646652L242.094375,70.08551495319064L242.6371875,79.07998427071355L243.18,73.01019088788468L243.7228125,79.21768004244024L244.265625,81.07228401709686L244.8084375,77.08094689656387L245.35125,75.79108081080697L245.89406250000002,76.65566111830148" style="fill: none;" fill="none"></path></g><g><path stroke="rgb(255, 112, 67)" stroke-width="2px" d="M30.9403125,-22.83751540563324L31.483125,1.33088289336726L32.0259375,-89.5166164365682L32.56875,-130.34220489588654L33.1115625,11.471791944720536L33.654375,-86.50492080233312L36.3684375,-35.723839930512696L36.91125,6.997119946913301L37.454062500000006,0.3584226153113548L37.996875,16.438047018918127L38.5396875,-20.475053746591897L39.082499999999996,-15.626539317044319L39.6253125,32.59299618276685L40.168124999999996,17.510624609210282L40.7109375,36.17994376204231L41.25375,3.046004785732805L41.7965625,50.97669746388088L42.339375,43.03289046341723L42.8821875,27.29810791936788L43.425000000000004,6.343701928853989L43.9678125,35.516683052886634L44.510625000000005,26.307772547006607L45.0534375,36.94494025273758L45.596250000000005,20.618625161322683L46.1390625,34.95626108212906L46.681875,2.182965021241813L47.224687499999995,61.167940910566955L47.7675,43.89190203764221L48.310312499999995,22.978149598295033L48.853125,46.76304260438138L49.395937499999995,16.258013289083152L49.93875,23.33259437571874L50.4815625,27.70384019071406L51.024375,64.0086662430655L51.5671875,50.30110042203556L52.11,36.10403155738658L52.6528125,42.01073718341917L53.195625,65.30140361325309L53.7384375,56.305909265171394L54.28125,57.41288232532415L54.824062500000004,64.35595378957014L55.36687499999999,67.53279323604974L55.9096875,50.08870929479599L56.4525,58.62975544550203L56.9953125,45.03419369459152L57.538125,50.03400503234431L58.0809375,47.5615354153243L58.62375,47.19427475875074L59.1665625,62.32585978778927L59.709375,60.38191630759023L60.2521875,51.83567307212137L60.795,50.62093393369156L61.3378125,33.98532336408442L61.880625,52.52451758493076L62.423437500000006,41.99222669005394L62.96625,57.045753544027164L63.509062500000006,50.955393612384796L64.051875,41.03284604170105L64.59468749999999,38.79993385889313L65.1375,44.71957525069064L65.6803125,40.19512633031064L66.223125,42.392875768921584L66.76593749999999,35.98401306705043L67.30875,42.23701118068263L67.8515625,31.016427251425682L68.394375,40.95596275546333L68.93718750000001,47.62542299248955L69.48,50.762675878676504L70.0228125,43.33778610283679L70.565625,46.12176910042763L71.10843750000001,44.36258887702769L71.65125,39.39475129951131L72.1940625,40.56669091636485L72.736875,48.316329555078L73.27968750000001,38.146336010911256L73.8225,31.95505552671173L74.3653125,44.41506324843928L74.90812500000001,33.43874829736623L75.45093750000001,38.98725669492376L75.99375,38.480400063774795L76.53656249999999,40.2030508355661L77.079375,49.05640161850236L77.6221875,44.26319088448179L78.16499999999999,49.48888059366833L78.70781249999999,34.89683328704402L79.250625,40.36829055710274L79.7934375,35.81945669921964L80.33624999999999,36.38294776732272L80.8790625,33.693651218305945L81.421875,39.01929039846769L81.9646875,49.104667969725355L82.5075,44.06645694916898L83.0503125,33.99762373078954L83.593125,52.308985428376644L84.1359375,30.936522822488456L84.67875,50.39629039439289L85.2215625,47.89279412139547L85.764375,35.96495109525594L86.3071875,24.870140213858008L86.85000000000001,36.9331194324927L87.3928125,32.13155260140246L87.935625,25.960389091209947L88.4784375,49.62975935502487L89.02125000000001,35.536812015555114L89.5640625,34.26685310222885L90.106875,36.87180941755122L90.6496875,19.80332424694842L91.19250000000001,36.841406171972096L91.7353125,45.212884694337845L92.278125,35.04958082329145L92.82093750000001,28.729218420657247L93.36375,41.44363752820274L93.90656249999999,46.39808377081698L94.44937499999999,47.7116094800559L94.9921875,57.1705315329812L95.535,40.79845572059804L96.0778125,32.88555548949677L96.62062499999999,44.51233924789864L97.1634375,47.44264385916969L97.70625,40.75864137573677L98.2490625,33.35103924978864L98.79187499999999,20.717279856855214L99.3346875,35.18819372762334L99.8775,35.43283435431394L100.4203125,37.13912060314959L100.963125,41.64726494388148L101.5059375,44.36728843233803L102.04875,31.755791983821183L102.5915625,37.875823852690786L103.134375,23.081863508983105L103.6771875,52.13797916065565L104.22,42.52403172579679L104.76281250000001,37.3246331512928L105.305625,48.07402671738106L105.8484375,46.563922925428926L106.39125,42.61471396142787L106.93406250000001,38.30426264892927L107.476875,52.0248301733624L108.0196875,43.52436564185402L108.5625,55.96406457099049L109.10531250000001,55.91258525848389L109.64812500000001,53.808647096157074L110.1909375,54.63347899642858L110.73374999999999,38.268896097486675L111.2765625,48.02034149115735L111.819375,50.50085550004786L112.36218749999999,51.18019300428304L112.905,45.22314698858696L113.4478125,53.5775176909837L113.990625,47.55785489624196L114.53343749999999,48.669767284935176L115.07625,50.099379203536316L115.6190625,51.213449551300585L116.161875,49.08091843128204L116.70468749999999,42.67947671088308L117.2475,53.84315046397123L117.7903125,54.107548404823646L118.333125,55.59179265390745L118.8759375,53.24200301007792L119.41875,56.91408207470721L119.9615625,54.481414813886985L120.504375,50.00586764378983L121.0471875,53.301502737132L121.59,58.648889349265545L122.1328125,37.8024052896283L122.675625,44.75485788150269L123.21843750000001,54.44671962748876L123.76125,57.36218227581546L124.3040625,66.3206856088205L124.84687500000001,52.60327110236342L125.38968750000001,46.021064343777596L125.9325,60.98941775208171L126.4753125,56.6472864015536L127.01812500000001,63.49288405342537L127.5609375,58.62643458626489L128.10375,53.32868103276601L128.6465625,53.39054252613674L129.18937499999998,62.30259579013696L129.73218749999998,47.24716873331505L130.275,57.96867667274043L130.8178125,59.716887270862415L131.360625,60.554229339415386L131.9034375,57.249836528843105L132.44625,32.565482204610646L132.9890625,55.15242019837554L133.53187499999999,61.35386107320136L134.0746875,56.45985566756944L134.6175,60.73395735838197L135.1603125,72.9048225419088L135.703125,65.964610373432L136.2459375,48.75600172714755L136.78875,69.75365081971343L137.3315625,65.81824080510575L137.87437500000001,58.664019040086075L138.4171875,68.6147519539703L138.96,64.69565850767223L139.5028125,67.11652293123983L140.045625,59.910432222214624L140.5884375,67.67084866762161L141.13125,60.43790335682306L141.67406250000002,62.14202565225689L142.21687500000002,66.75806794654241L142.7596875,74.04777956957167L143.3025,59.47465636513452L143.8453125,66.47476388649508L144.388125,62.990996722470626L144.9309375,69.2853197523139L145.47375,68.86309108273551L146.01656250000002,60.33521447669378L146.55937500000002,69.02222258123486L147.1021875,60.11968232013963L147.645,57.447961148890585L148.1878125,73.32173424010928L148.730625,65.63619298013775L149.2734375,59.17400471188806L149.81625000000003,70.5372956733812L150.35906250000002,67.59264662861824L150.90187500000002,60.25806743990293L151.44468750000001,62.833465710282326L151.9875,65.65027366307649L152.5303125,66.43994281915101L153.07312499999998,64.53794766556135L153.61593749999997,61.21300628916785L154.15875,66.0961739447984L154.7015625,70.85587037557906L155.244375,66.05199572714893L155.7871875,67.17376279560003L156.32999999999998,70.5992410873825L156.87281249999998,69.82226792384277L157.41562499999998,63.011934919790804L157.9584375,76.29314797168429L158.50125,60.46246812424879L159.0440625,76.97825801643458L159.586875,65.63694227148186L160.1296875,72.84775651314042L160.67249999999999,60.65809910270302L161.21531249999998,73.40657799758695L161.758125,73.51451191712509L162.3009375,68.78548847680743L162.84375,72.32837772504851L163.11515624999998,64.10379027778453L163.3865625,57.03190663998778L163.65796874999998,75.69671805609356L163.929375,73.37851853533226L164.20078125,60.34093306823212L164.4721875,79.25945453345776L164.74359375,69.41796829754657L165.015,66.82805175808343L165.28640625,72.59248194369404L165.55781249999998,76.2658018347892L165.82921875,70.21079047159716L166.100625,74.95951727709989L166.37203125,69.02211468328129L166.6434375,70.5115320398049L166.91484375,69.6088577603752L167.18625,72.4062081155452L167.45765624999999,72.80130644413559L167.7290625,70.86911784654315L168.00046875,68.98477000269024L168.271875,74.63226278397171L168.54328125,63.77471950243822L168.8146875,66.3679688898L169.08609375,76.94022398780693L169.3575,72.67043821513653L169.62890625,72.45723185891455L169.9003125,75.38908900185066L170.17171875,64.18866400691597L170.443125,68.60887750983238L170.71453125,74.78783365000378L170.9859375,64.08801319924268L171.25734375,74.07294976440343L171.52875,73.17534668879077L171.80015625000001,70.35100985657087L172.0715625,74.57925491712312L172.34296875,64.4428236308423L172.614375,81.58063923093405L172.88578125,76.89810182560574L173.1571875,71.82658030905507L173.42859375,80.54023920812391L173.70000000000002,68.32553748380056L173.97140625,68.44012511047451L174.2428125,63.82594105872242L174.51421875,71.05438462712549L174.785625,80.41757721792568L175.05703125,63.148353899067104L175.3284375,82.14272163131021L175.59984375000002,62.92139055376704L175.87125,80.56861037557775L176.14265625000002,77.83725760199808L176.4140625,71.40077901834792L176.68546875,75.2140605381944L176.956875,77.06807706843723L177.22828125,71.92463557151231L177.4996875,75.34537234766918L177.77109375,70.77028931541878L178.04250000000002,76.59123405136846L178.31390625,69.25086433914575L178.58531250000001,74.05116037211637L178.85671875,71.89787088470027L179.128125,79.94416295804761L179.39953125,78.55285481295802L179.6709375,83.37321387095884L179.94234375000002,76.36408488181505L180.21375,70.86456814950164L180.48515625000002,66.46179814907639L180.7565625,71.2537560679696L181.02796875,81.07523922215809L181.299375,78.9688254012303L181.57078125,82.3487887396054L181.84218750000002,67.80229235237296L182.11359375,75.6831768629226L182.38500000000002,68.18917844783178L182.65640625,64.8337019505826L182.92781250000002,69.90793290463361L183.19921875,70.31609287993476L183.470625,65.71566581726074L183.74203125000003,65.05585184828803L184.0134375,75.40291792289779L184.28484375000002,77.65477818521586L184.55625,73.22948748415168L184.82765625000002,79.24581743099473L185.0990625,79.86612876030532L185.37046875000001,53.05822881785306L185.64187500000003,77.49326094307683L185.91328125,81.24786995351315L186.18468750000002,73.90072664753959L186.45609375,76.29056441512975L186.7275,73.2430106943304L186.99890624999998,75.94008788466454L187.2703125,75.2801360460845L187.54171874999997,76.41804584725338L187.81312499999999,81.40167848630384L188.08453125,71.49818089875309L188.35593749999998,76.11686069856992L188.62734375,79.93417640301314L188.89874999999998,81.05957603590056L189.17015625,67.18705822121015L189.44156249999997,70.16138519753109L189.71296875,68.21265224706045L189.984375,64.3483589725061L190.25578124999998,71.41482972963291L190.5271875,73.24849550696938L190.79859374999998,80.79493232748725L191.07,69.87859065559778L191.34140624999998,72.79476662928408L191.6128125,74.93166162209079L191.88421875,75.93843344937673L192.155625,75.9850693426349L192.42703125,77.33614953404123L192.69843749999998,82.15568137439814L192.96984375,75.32082556323573L193.24124999999998,84.98242193324998L193.51265625,73.30046635459772L193.7840625,73.33253602412614L194.05546875,78.19724713536826L194.326875,77.71564461968161L194.59828124999999,78.74271325089715L194.8696875,74.16930863125759L195.14109374999998,71.05785534463148L195.4125,83.45197338272224L195.68390625,79.39404524185441L195.9553125,66.37145759029823L196.22671875,76.5551002255895L196.498125,71.82523158463566L196.76953125,77.11461705240336L197.04093749999998,63.4207362884825L197.31234375,74.37117970802568L197.58374999999998,79.29500690915368L197.85515625,70.75191669166088L198.1265625,82.53457702696323L198.39796875,76.82744065468961L198.669375,70.06507428532298L198.94078125,76.66265650229022L199.2121875,81.43673932687804L199.48359374999998,72.70936539904639L199.755,80.24290241978385L200.02640625,78.61006470566446L200.2978125,83.0183195187287L200.56921875,80.25945876132359L200.840625,77.91270824318582L201.11203125,81.60944199020211L201.38343749999999,79.29833975705233L201.65484375,81.67392900044267L201.92625,73.15090780231087L202.19765625,66.06417021290824L202.4690625,74.13560250943358L202.74046875,81.69512495398521L203.011875,73.13010747459802L203.28328125,81.97107996452938L203.5546875,68.04544039070606L203.82609375,74.63999547064304L204.0975,79.7571578215469L204.36890625,56.39599206772718L204.6403125,79.2036233368245L204.91171875,83.85455263609235L205.183125,78.89733701267026L205.45453125,71.66119672358036L205.72593750000001,75.51491599868646L205.99734375,72.67535356635398L206.26875,72.59100733832881L206.54015625,83.79324861548163L206.8115625,78.22193178940903L207.08296875,75.68430979143491L207.354375,72.3760206658732L207.62578125000002,72.38796137273312L207.8971875,71.66029157963666L208.16859375,80.75464443049647L208.44,66.97009341960604L208.71140625,73.43449359590358L208.9828125,79.13374142890626L209.25421875,77.17544152655385L209.52562500000002,81.70076561922376L209.79703125,80.56458218531176L210.06843750000002,72.49311991713266L210.33984375,70.92211372473024L210.61125,80.71867844597861L210.88265625,77.30155625126578L211.1540625,76.26179162751546L211.42546875,75.32619048925964L211.696875,77.19823197207667L211.96828125000002,82.1590381996198L212.2396875,63.62586228684947L212.51109375000001,68.450693115592L212.7825,76.88864876600829L213.05390625,75.72932122105902L213.3253125,72.02362594956702L213.59671875,80.02719043330714L213.86812500000002,75.50761490382932L214.13953125,71.89759514548562L214.41093750000002,73.84325899861078L214.68234375,77.80888044021346L214.95375,67.62538766319102L215.22515625,73.7180913781578L215.4965625,73.39195183054969L215.76796875000002,73.13457924533974L216.039375,73.88632227074018L216.31078125000002,75.0058294764974L216.5821875,71.21885107999499L216.85359375000002,64.25999654287642L217.125,82.57796998728405L217.39640625,67.20588641410525L217.66781250000003,79.85531498762694L217.93921875,71.10446726056664L218.21062500000002,63.394846773960396L218.48203125,70.05947558039969L218.75343750000002,75.1259318874641L219.02484375,70.05885217000137L219.29625000000001,71.09867673705926L219.56765625000003,70.90826682069086L219.8390625,71.57501623034477L220.11046875000002,68.64894961091606L220.381875,80.62099483202805L220.65328125,85.53831818428907L220.92468749999998,82.3531346294013L221.19609375,66.98403023860673L221.46749999999997,81.12840294160627L221.73890624999999,73.33856632086365L222.0103125,75.4914781654423L222.28171874999998,84.25183889540759L222.553125,82.25864599374208L222.82453124999998,68.5815433615988L223.0959375,72.31924236498098L223.36734374999997,75.69651424884796L223.63875,79.93321131576191L223.91015625,78.7749327786944L224.18156249999998,79.09548561004075L224.45296875,73.4865663471547L224.72437499999998,78.16990099847317L224.99578125,79.9553064189174L225.26718749999998,70.23093142292718L225.53859375,82.0726179331541L225.81,70.81756060773677L226.08140625,72.28876718743282L226.3528125,79.17727225883439L226.62421874999998,72.20480459657583L226.895625,77.59832357818429L227.16703124999998,76.25874650749294L227.4384375,79.35999144884673L227.70984375,82.0956301689148L227.98125,65.70791514759715L228.25265625,73.2840478826653L228.52406249999999,78.27537724240258L228.79546875,62.44765859435907L229.06687499999998,73.00778716125272L229.33828125,70.67179646681657L229.6096875,81.0321999273517L229.88109375,84.43263989957896L230.1525,80.93017042360522L230.42390625,77.15450932356444L230.6953125,82.34502429989251L230.96671874999998,83.42823583294044L231.238125,74.34433110058308L231.50953124999998,63.0056348781694L231.7809375,71.34482194076887L232.05234375,77.52589407969604L232.32375,69.29259087551723L232.59515625,80.97856265577403L232.8665625,72.90543995797634L233.13796875,70.16856640577316L233.40937499999998,80.72564385831356L233.68078125,72.90530208836904L233.9521875,78.43573158437555L234.22359375,80.51095690239559L234.495,73.80794639614496L234.76640625,83.5788134214553L235.0378125,78.0128375440836L235.30921874999999,76.01994435895573L235.580625,74.72324473614043L235.85203125,66.82180566543883L236.1234375,78.91456471925432L236.39484375,71.7020660706542L236.66625,72.97078415751457L236.93765625,82.09201558747075L237.2090625,78.2576819780198L237.48046875,77.67695121467113L237.751875,76.8958239799196L238.02328125,79.80318229306828L238.2946875,82.16301244090904L238.56609375,78.09476805681531L238.8375,60.65497605638072L239.10890625,81.910956827077L239.3803125,77.08485520021483L239.65171875000001,72.62623602016407L239.923125,79.1993014243516L240.19453125,85.53426601670004L240.4659375,61.69283448295161L240.73734375,76.61018812520936L241.00875,84.79339071295477L241.28015625,71.37939124622129L241.55156250000002,72.41382690993223L241.82296875,77.20182257619771L242.094375,70.55315067822283L242.36578125,80.53040850568901L242.6371875,80.7946565882726L242.90859375,78.99422338063066L243.18,74.53667119145393L243.45140625000002,82.75042088871652L243.7228125,78.88920870016922L243.99421875000002,76.72722143883054L244.265625,80.41586283933033L244.53703125,80.46020889824086L244.8084375,76.67319453575395L245.07984375,75.2856688133695L245.35125,74.88449223339558L245.62265625,80.93567321923646L245.89406250000002,76.36464235457508" style="fill: none;" fill="none"></path></g></g></g></g></g></g><g transform="translate(58, 177)" clip-path="url(#clip_1)"><clipPath id="clip_1"><rect width="271" height="23"></rect></clipPath><g><g><line x1="0" y1="0" x2="0" y2="5" style="visibility: inherit;" fill="rgb(0, 0, 0)" stroke="rgb(204, 204, 204)" stroke-width="1px"></line><line x1="27.140625" y1="0" x2="27.140625" y2="5" style="visibility: inherit;" fill="rgb(0, 0, 0)" stroke="rgb(204, 204, 204)" stroke-width="1px"></line><line x1="54.28125" y1="0" x2="54.28125" y2="5" style="visibility: inherit;" fill="rgb(0, 0, 0)" stroke="rgb(204, 204, 204)" stroke-width="1px"></line><line x1="81.421875" y1="0" x2="81.421875" y2="5" style="visibility: inherit;" fill="rgb(0, 0, 0)" stroke="rgb(204, 204, 204)" stroke-width="1px"></line><line x1="108.5625" y1="0" x2="108.5625" y2="5" style="visibility: inherit;" fill="rgb(0, 0, 0)" stroke="rgb(204, 204, 204)" stroke-width="1px"></line><line x1="135.703125" y1="0" x2="135.703125" y2="5" style="visibility: inherit;" fill="rgb(0, 0, 0)" stroke="rgb(204, 204, 204)" stroke-width="1px"></line><line x1="162.84375" y1="0" x2="162.84375" y2="5" style="visibility: inherit;" fill="rgb(0, 0, 0)" stroke="rgb(204, 204, 204)" stroke-width="1px"></line><line x1="189.984375" y1="0" x2="189.984375" y2="5" style="visibility: inherit;" fill="rgb(0, 0, 0)" stroke="rgb(204, 204, 204)" stroke-width="1px"></line><line x1="217.125" y1="0" x2="217.125" y2="5" style="visibility: inherit;" fill="rgb(0, 0, 0)" stroke="rgb(204, 204, 204)" stroke-width="1px"></line><line x1="244.265625" y1="0" x2="244.265625" y2="5" style="visibility: inherit;" fill="rgb(0, 0, 0)" stroke="rgb(204, 204, 204)" stroke-width="1px"></line><line x1="271.40625" y1="0" x2="271.40625" y2="5" style="visibility: inherit;" fill="rgb(0, 0, 0)" stroke="rgb(204, 204, 204)" stroke-width="1px"></line></g><g transform="translate(0, 8)"><text x="0" y="0" dx="0em" dy="0.95em" style="text-anchor: middle; visibility: hidden; font-family: &quot;Helvetica Neue&quot;, sans-serif; font-size: 12px; font-weight: 200;" fill="rgb(50, 49, 63)" stroke="none" stroke-width="1px">-100</text><text x="27.140625" y="0" dx="0em" dy="0.95em" style="text-anchor: middle; visibility: inherit; font-family: &quot;Helvetica Neue&quot;, sans-serif; font-size: 12px; font-weight: 200;" fill="rgb(50, 49, 63)" stroke="none" stroke-width="1px">0</text><text x="54.28125" y="0" dx="0em" dy="0.95em" style="text-anchor: middle; visibility: inherit; font-family: &quot;Helvetica Neue&quot;, sans-serif; font-size: 12px; font-weight: 200;" fill="rgb(50, 49, 63)" stroke="none" stroke-width="1px">100</text><text x="81.421875" y="0" dx="0em" dy="0.95em" style="text-anchor: middle; visibility: inherit; font-family: &quot;Helvetica Neue&quot;, sans-serif; font-size: 12px; font-weight: 200;" fill="rgb(50, 49, 63)" stroke="none" stroke-width="1px">200</text><text x="108.5625" y="0" dx="0em" dy="0.95em" style="text-anchor: middle; visibility: inherit; font-family: &quot;Helvetica Neue&quot;, sans-serif; font-size: 12px; font-weight: 200;" fill="rgb(50, 49, 63)" stroke="none" stroke-width="1px">300</text><text x="135.703125" y="0" dx="0em" dy="0.95em" style="text-anchor: middle; visibility: inherit; font-family: &quot;Helvetica Neue&quot;, sans-serif; font-size: 12px; font-weight: 200;" fill="rgb(50, 49, 63)" stroke="none" stroke-width="1px">400</text><text x="162.84375" y="0" dx="0em" dy="0.95em" style="text-anchor: middle; visibility: inherit; font-family: &quot;Helvetica Neue&quot;, sans-serif; font-size: 12px; font-weight: 200;" fill="rgb(50, 49, 63)" stroke="none" stroke-width="1px">500</text><text x="189.984375" y="0" dx="0em" dy="0.95em" style="text-anchor: middle; visibility: inherit; font-family: &quot;Helvetica Neue&quot;, sans-serif; font-size: 12px; font-weight: 200;" fill="rgb(50, 49, 63)" stroke="none" stroke-width="1px">600</text><text x="217.125" y="0" dx="0em" dy="0.95em" style="text-anchor: middle; visibility: inherit; font-family: &quot;Helvetica Neue&quot;, sans-serif; font-size: 12px; font-weight: 200;" fill="rgb(50, 49, 63)" stroke="none" stroke-width="1px">700</text><text x="244.265625" y="0" dx="0em" dy="0.95em" style="text-anchor: middle; visibility: inherit; font-family: &quot;Helvetica Neue&quot;, sans-serif; font-size: 12px; font-weight: 200;" fill="rgb(50, 49, 63)" stroke="none" stroke-width="1px">800</text><text x="271.40625" y="0" dx="0em" dy="0.95em" style="text-anchor: middle; visibility: hidden; font-family: &quot;Helvetica Neue&quot;, sans-serif; font-size: 12px; font-weight: 200;" fill="rgb(50, 49, 63)" stroke="none" stroke-width="1px">900</text></g><line x1="0" y1="0" x2="271.40625" y2="0" fill="rgb(0, 0, 0)" stroke="rgb(204, 204, 204)" stroke-width="1px"></line></g></g></g></g></svg>