<svg viewBox="0 0 330 200" xmlns="http://www.w3.org/2000/svg"><g><g><g><g><g><line x1="48.875" y1="177" x2="43.875" y2="177" style="visibility: inherit;" fill="rgb(0, 0, 0)" stroke="rgb(204, 204, 204)" stroke-width="1px"></line><line x1="48.875" y1="162.25" x2="43.875" y2="162.25" style="visibility: inherit;" fill="rgb(0, 0, 0)" stroke="rgb(204, 204, 204)" stroke-width="1px"></line><line x1="48.875" y1="147.49999999999997" x2="43.875" y2="147.49999999999997" style="visibility: inherit;" fill="rgb(0, 0, 0)" stroke="rgb(204, 204, 204)" stroke-width="1px"></line><line x1="48.875" y1="132.75" x2="43.875" y2="132.75" style="visibility: inherit;" fill="rgb(0, 0, 0)" stroke="rgb(204, 204, 204)" stroke-width="1px"></line><line x1="48.875" y1="118" x2="43.875" y2="118" style="visibility: inherit;" fill="rgb(0, 0, 0)" stroke="rgb(204, 204, 204)" stroke-width="1px"></line><line x1="48.875" y1="103.24999999999999" x2="43.875" y2="103.24999999999999" style="visibility: inherit;" fill="rgb(0, 0, 0)" stroke="rgb(204, 204, 204)" stroke-width="1px"></line><line x1="48.875" y1="88.49999999999999" x2="43.875" y2="88.49999999999999" style="visibility: inherit;" fill="rgb(0, 0, 0)" stroke="rgb(204, 204, 204)" stroke-width="1px"></line><line x1="48.875" y1="73.74999999999997" x2="43.875" y2="73.74999999999997" style="visibility: inherit;" fill="rgb(0, 0, 0)" stroke="rgb(204, 204, 204)" stroke-width="1px"></line><line x1="48.875" y1="59.00000000000004" x2="43.875" y2="59.00000000000004" style="visibility: inherit;" fill="rgb(0, 0, 0)" stroke="rgb(204, 204, 204)" stroke-width="1px"></line><line x1="48.875" y1="44.25000000000003" x2="43.875" y2="44.25000000000003" style="visibility: inherit;" fill="rgb(0, 0, 0)" stroke="rgb(204, 204, 204)" stroke-width="1px"></line><line x1="48.875" y1="29.5" x2="43.875" y2="29.5" style="visibility: inherit;" fill="rgb(0, 0, 0)" stroke="rgb(204, 204, 204)" stroke-width="1px"></line><line x1="48.875" y1="14.75" x2="43.875" y2="14.75" style="visibility: inherit;" fill="rgb(0, 0, 0)" stroke="rgb(204, 204, 204)" stroke-width="1px"></line><line x1="48.875" y1="0" x2="43.875" y2="0" style="visibility: inherit;" fill="rgb(0, 0, 0)" stroke="rgb(204, 204, 204)" stroke-width="1px"></line></g><g transform="translate(38.875, 0)"><text x="0" y="177" dx="0em" dy="0.3em" style="text-anchor: end; visibility: hidden; font-family: &quot;Helvetica Neue&quot;, sans-serif; font-size: 12px; font-weight: 200;" fill="rgb(50, 49, 63)" stroke="none" stroke-width="1px">0.42</text><text x="0" y="162.25" dx="0em" dy="0.3em" style="text-anchor: end; visibility: inherit; font-family: &quot;Helvetica Neue&quot;, sans-serif; font-size: 12px; font-weight: 200;" fill="rgb(50, 49, 63)" stroke="none" stroke-width="1px">0.44</text><text x="0" y="147.49999999999997" dx="0em" dy="0.3em" style="text-anchor: end; visibility: hidden; font-family: &quot;Helvetica Neue&quot;, sans-serif; font-size: 12px; font-weight: 200;" fill="rgb(50, 49, 63)" stroke="none" stroke-width="1px">0.46</text><text x="0" y="132.75" dx="0em" dy="0.3em" style="text-anchor: end; visibility: inherit; font-family: &quot;Helvetica Neue&quot;, sans-serif; font-size: 12px; font-weight: 200;" fill="rgb(50, 49, 63)" stroke="none" stroke-width="1px">0.48</text><text x="0" y="118" dx="0em" dy="0.3em" style="text-anchor: end; visibility: hidden; font-family: &quot;Helvetica Neue&quot;, sans-serif; font-size: 12px; font-weight: 200;" fill="rgb(50, 49, 63)" stroke="none" stroke-width="1px">0.5</text><text x="0" y="103.24999999999999" dx="0em" dy="0.3em" style="text-anchor: end; visibility: inherit; font-family: &quot;Helvetica Neue&quot;, sans-serif; font-size: 12px; font-weight: 200;" fill="rgb(50, 49, 63)" stroke="none" stroke-width="1px">0.52</text><text x="0" y="88.49999999999999" dx="0em" dy="0.3em" style="text-anchor: end; visibility: hidden; font-family: &quot;Helvetica Neue&quot;, sans-serif; font-size: 12px; font-weight: 200;" fill="rgb(50, 49, 63)" stroke="none" stroke-width="1px">0.54</text><text x="0" y="73.74999999999997" dx="0em" dy="0.3em" style="text-anchor: end; visibility: inherit; font-family: &quot;Helvetica Neue&quot;, sans-serif; font-size: 12px; font-weight: 200;" fill="rgb(50, 49, 63)" stroke="none" stroke-width="1px">0.56</text><text x="0" y="59.00000000000004" dx="0em" dy="0.3em" style="text-anchor: end; visibility: hidden; font-family: &quot;Helvetica Neue&quot;, sans-serif; font-size: 12px; font-weight: 200;" fill="rgb(50, 49, 63)" stroke="none" stroke-width="1px">0.58</text><text x="0" y="44.25000000000003" dx="0em" dy="0.3em" style="text-anchor: end; visibility: inherit; font-family: &quot;Helvetica Neue&quot;, sans-serif; font-size: 12px; font-weight: 200;" fill="rgb(50, 49, 63)" stroke="none" stroke-width="1px">0.6</text><text x="0" y="29.5" dx="0em" dy="0.3em" style="text-anchor: end; visibility: hidden; font-family: &quot;Helvetica Neue&quot;, sans-serif; font-size: 12px; font-weight: 200;" fill="rgb(50, 49, 63)" stroke="none" stroke-width="1px">0.62</text><text x="0" y="14.75" dx="0em" dy="0.3em" style="text-anchor: end; visibility: inherit; font-family: &quot;Helvetica Neue&quot;, sans-serif; font-size: 12px; font-weight: 200;" fill="rgb(50, 49, 63)" stroke="none" stroke-width="1px">0.64</text><text x="0" y="0" dx="0em" dy="0.3em" style="text-anchor: end; visibility: hidden; font-family: &quot;Helvetica Neue&quot;, sans-serif; font-size: 12px; font-weight: 200;" fill="rgb(50, 49, 63)" stroke="none" stroke-width="1px">0.66</text></g><line x1="48.875" y1="0" x2="48.875" y2="177" fill="rgb(0, 0, 0)" stroke="rgb(204, 204, 204)" stroke-width="1px"></line></g></g><g transform="translate(48, 0)" clip-path="url(#clip_0)"><clipPath id="clip_0"><rect width="281" height="177"></rect></clipPath><g><g><g><line x1="0" y1="0" x2="0" y2="177" fill="rgb(0, 0, 0)" stroke="rgb(60, 60, 60)" stroke-width="1px" opacity="0.25"></line><line x1="28.1125" y1="0" x2="28.1125" y2="177" fill="rgb(0, 0, 0)" stroke="rgb(60, 60, 60)" stroke-width="1px" opacity="0.25"></line><line x1="56.225" y1="0" x2="56.225" y2="177" fill="rgb(0, 0, 0)" stroke="rgb(60, 60, 60)" stroke-width="1px" opacity="0.25"></line><line x1="84.33749999999999" y1="0" x2="84.33749999999999" y2="177" fill="rgb(0, 0, 0)" stroke="rgb(60, 60, 60)" stroke-width="1px" opacity="0.25"></line><line x1="112.45" y1="0" x2="112.45" y2="177" fill="rgb(0, 0, 0)" stroke="rgb(60, 60, 60)" stroke-width="1px" opacity="0.25"></line><line x1="140.5625" y1="0" x2="140.5625" y2="177" fill="rgb(0, 0, 0)" stroke="rgb(60, 60, 60)" stroke-width="1px" opacity="0.25"></line><line x1="168.67499999999998" y1="0" x2="168.67499999999998" y2="177" fill="rgb(0, 0, 0)" stroke="rgb(60, 60, 60)" stroke-width="1px" opacity="0.25"></line><line x1="196.7875" y1="0" x2="196.7875" y2="177" fill="rgb(0, 0, 0)" stroke="rgb(60, 60, 60)" stroke-width="1px" opacity="0.25"></line><line x1="224.9" y1="0" x2="224.9" y2="177" fill="rgb(0, 0, 0)" stroke="rgb(60, 60, 60)" stroke-width="1px" opacity="0.25"></line><line x1="253.01250000000002" y1="0" x2="253.01250000000002" y2="177" fill="rgb(0, 0, 0)" stroke="rgb(60, 60, 60)" stroke-width="1px" opacity="0.25"></line><line x1="281.125" y1="0" x2="281.125" y2="177" fill="rgb(0, 0, 0)" stroke="rgb(60, 60, 60)" stroke-width="1px" opacity="0.25"></line></g><g><line x1="0" y1="177" x2="281.125" y2="177" fill="rgb(0, 0, 0)" stroke="rgb(60, 60, 60)" stroke-width="1px" opacity="0.25"></line><line x1="0" y1="162.25" x2="281.125" y2="162.25" fill="rgb(0, 0, 0)" stroke="rgb(60, 60, 60)" stroke-width="1px" opacity="0.25"></line><line x1="0" y1="147.49999999999997" x2="281.125" y2="147.49999999999997" fill="rgb(0, 0, 0)" stroke="rgb(60, 60, 60)" stroke-width="1px" opacity="0.25"></line><line x1="0" y1="132.75" x2="281.125" y2="132.75" fill="rgb(0, 0, 0)" stroke="rgb(60, 60, 60)" stroke-width="1px" opacity="0.25"></line><line x1="0" y1="118" x2="281.125" y2="118" fill="rgb(0, 0, 0)" stroke="rgb(60, 60, 60)" stroke-width="1px" opacity="0.25"></line><line x1="0" y1="103.24999999999999" x2="281.125" y2="103.24999999999999" fill="rgb(0, 0, 0)" stroke="rgb(60, 60, 60)" stroke-width="1px" opacity="0.25"></line><line x1="0" y1="88.49999999999999" x2="281.125" y2="88.49999999999999" fill="rgb(0, 0, 0)" stroke="rgb(60, 60, 60)" stroke-width="1px" opacity="0.25"></line><line x1="0" y1="73.74999999999997" x2="281.125" y2="73.74999999999997" fill="rgb(0, 0, 0)" stroke="rgb(60, 60, 60)" stroke-width="1px" opacity="0.25"></line><line x1="0" y1="59.00000000000004" x2="281.125" y2="59.00000000000004" fill="rgb(0, 0, 0)" stroke="rgb(60, 60, 60)" stroke-width="1px" opacity="0.25"></line><line x1="0" y1="44.25000000000003" x2="281.125" y2="44.25000000000003" fill="rgb(0, 0, 0)" stroke="rgb(60, 60, 60)" stroke-width="1px" opacity="0.25"></line><line x1="0" y1="29.5" x2="281.125" y2="29.5" fill="rgb(0, 0, 0)" stroke="rgb(60, 60, 60)" stroke-width="1px" opacity="0.25"></line><line x1="0" y1="14.75" x2="281.125" y2="14.75" fill="rgb(0, 0, 0)" stroke="rgb(60, 60, 60)" stroke-width="1px" opacity="0.25"></line><line x1="0" y1="0" x2="281.125" y2="0" fill="rgb(0, 0, 0)" stroke="rgb(60, 60, 60)" stroke-width="1px" opacity="0.25"></line></g></g></g><g><g><line x1="0" y1="486.74999999999994" x2="281.125" y2="486.74999999999994" fill="rgb(0, 0, 0)" stroke="rgb(153, 153, 153)" stroke-width="1.5px"></line></g></g><g><g><line x1="28.1125" y1="0" x2="28.1125" y2="177" fill="rgb(0, 0, 0)" stroke="rgb(153, 153, 153)" stroke-width="1.5px"></line></g></g><g><g><g><g><g><path stroke="rgb(51, 187, 238)" stroke-width="2px" d="M35.984,-3.8274354934692383L36.265125,0.6361469924449921L36.54625,1.1026777625084208L36.827375,3.353700816631317L37.1085,6.6351533234119415L37.389625,12.967848062515287L37.670750000000005,12.12463754415515L37.951875,17.230452626943617L38.233000000000004,21.670649230480194L38.514125,21.14345583319667L38.79525,20.91570723056796L39.076375000000006,24.857722997665434L39.3575,26.780904114246397L39.638625,34.132862865924835L39.91974999999999,27.140264242887525L40.200874999999996,33.19061401486397L40.482,38.01078724861145L40.763124999999995,37.35158669948578L41.04425,36.022943288087845L41.325375,35.93898269534114L41.6065,42.05984178185466L41.887625,42.39709082245827L42.168749999999996,46.20279151201248L42.449875,46.32442447543147L42.731,44.14074572920799L43.012125,49.01731762290002L43.29325,49.89301341772081L43.574374999999996,50.52144306898117L43.8555,54.38244345784189L44.136625,56.16803470253946L44.41775,57.2868645489216L44.698875,57.780913293361664L44.980000000000004,60.24284887313844L45.261125,58.66887348890306L45.54225,61.221671134233475L45.823375,63.496695488691344L46.1045,61.40524151921272L46.385625000000005,62.79089900851251L46.66675,65.6035349071026L46.947875,65.08051756024362L47.229000000000006,66.64609688520432L47.510125,67.72593560814857L47.791250000000005,67.0890219807625L48.072375,69.49425119161606L48.3535,69.75281465053558L48.634625,69.20830163359642L48.915749999999996,67.24274459481241L49.196875,69.3519138097763L49.477999999999994,72.73636090755463L49.759125,74.19789063930513L50.04025,71.4370817244053L50.321374999999996,72.51582148671152L50.6025,75.8167475759983L50.883624999999995,76.70985090732576L51.16475,76.006252348423L51.445875,76.42117592692377L51.727,82.47271257638931L52.008125,79.67889088392259L52.28925,79.50784865021707L52.570375,77.79962423443794L52.8515,82.98315781354906L53.132625,79.03696599602699L53.41375,83.01946747303009L53.694875,81.08384612202644L53.976,85.54540652036667L54.257125,85.74124130606651L54.538250000000005,86.1244269013405L54.819375,80.66246065497398L55.100500000000004,85.0771174132824L55.381625,86.69861185550691L55.66275,84.69845953583719L55.943875000000006,83.99670723080635L56.225,84.6815795004368L56.506125000000004,83.61730206012726L56.78725,88.63542008399965L57.068375,85.11347103118898L57.3495,87.3705603480339L57.630624999999995,88.70461064577103L57.91175,87.91674378514291L58.192874999999994,86.84450986981392L58.474,89.03667259216309L58.755125,85.8844138979912L59.036249999999995,89.95852473378183L59.317375,90.03743010759354L59.5985,89.8912683427334L59.879625,91.34554493427277L60.16075,90.05466181039812L60.441874999999996,92.4386151432991L60.723,93.60087591409683L61.004125,92.33408200740814L61.28525,92.22343865036964L61.566375,95.0295687019825L61.847500000000004,94.99862197041512L62.128625,95.31771618127823L62.40975,96.14562916755676L62.690875,93.3859631717205L62.972,97.02216017246246L63.253125000000004,95.66692191362381L63.53425,93.7402241230011L63.815375,96.14540937542915L64.0965,95.29112133383751L64.37762500000001,95.43042558431625L64.65875,95.33714580535889L64.939875,96.72592434287071L65.221,95.11985930800438L65.502125,97.93966042995453L65.78325000000001,98.32587915658951L66.064375,99.62797167897224L66.3455,97.06176671385765L66.62662499999999,99.40250891447067L66.90775,96.28247174620628L67.188875,100.2897657752037L67.47,99.05084151029587L67.751125,100.4185200035572L68.03225,99.66089653968811L68.313375,99.9290429353714L68.5945,99.26966655254364L68.875625,100.05832466483116L69.15675,99.1561219394207L69.437875,101.22010189294815L69.719,100.78315514326096L70.000125,99.62313625216484L70.28125,102.08542349934578L70.562375,101.04963111877441L70.8435,101.11077728867531L71.124625,104.35987639427185L71.40575,103.23493632674217L71.686875,101.05829092860222L71.968,103.03593653440475L72.249125,104.93287447094917L72.53025,103.75790971517563L72.811375,103.36527305841446L73.0925,104.20615378022194L73.373625,104.2418919801712L73.65475,104.78737208247185L73.93587500000001,103.7367217540741L74.217,103.35397574305534L74.498125,105.71669715642929L74.77925,107.11334425210953L75.06037500000001,104.16773411631584L75.34150000000001,103.62585860490799L75.622625,104.6746187210083L75.90375,103.33784300088882L76.184875,102.42394733428955L76.46600000000001,103.89409291744232L76.74712500000001,105.70276233553886L77.02825,102.90524813532829L77.309375,105.19033896923065L77.5905,103.33441424369812L77.87162500000001,105.03138530254364L78.15275000000001,105.53739073872566L78.433875,105.04030886292458L78.715,104.13973259925842L78.996125,105.53189593553543L79.27725,107.63772431015968L79.558375,105.601438164711L79.83949999999999,106.44319805502892L80.12062499999999,107.48879316449165L80.40174999999999,106.49049732089043L80.682875,106.14687430858612L80.964,107.19400796294212L81.24512499999999,107.56651166081429L81.52624999999999,107.96512666344643L81.807375,108.56858792901039L82.0885,107.36223685741425L82.369625,105.92325779795647L82.65075,107.90776091814041L82.93187499999999,108.67246168851852L83.213,107.80564549565315L83.494125,106.15355598926544L83.77525,110.21979826688766L84.056375,109.09797924757004L84.33749999999999,109.93987101316452L84.618625,109.3525864481926L84.89975,107.39665630459785L85.180875,108.9729614853859L85.462,109.4914071559906L85.74312499999999,108.5301682651043L86.02425,111.60475242137909L86.305375,111.12490224838257L86.5865,109.69080257415771L86.867625,108.3887540102005L87.14874999999999,110.50478073954582L87.429875,107.37450125813484L87.711,107.00120630860329L87.992125,110.32565015554428L88.27325,110.23065599799156L88.55437500000001,109.71374887228012L88.8355,109.08760505914688L89.116625,109.29891321063042L89.39775,113.19398137927055L89.678875,112.3966194987297L89.96000000000001,111.82177516818047L90.241125,111.58145445585251L90.52225,112.1481664776802L90.803375,110.7336722612381L91.0845,113.7384504377842L91.36562500000001,112.04363334178925L91.64675,112.36571672558784L91.927875,111.5623325407505L92.209,112.06974464654922L92.490125,113.14927566051483L92.77125000000001,111.94327625632286L93.052375,112.15920004248619L93.3335,111.16573962569237L93.614625,113.05375400185585L93.89575,112.58546489477158L94.17687500000001,114.70382142066956L94.45800000000001,113.92074602842331L94.739125,113.53202167153358L95.02025,113.48085406422615L95.30137500000001,114.42886146903038L95.58250000000001,115.02713564038277L95.86362500000001,112.97590363025665L96.14475,113.01287266612053L96.425875,111.25910732150078L96.707,115.47107177972794L96.988125,113.92188894748688L97.26925,112.90526244044304L97.55037499999999,113.24422585964203L97.83149999999999,114.7322625219822L98.112625,114.04308232665062L98.39375,113.82935646176338L98.674875,114.4065745472908L98.95599999999999,114.3019534945488L99.23712499999999,114.25232443213463L99.51825,115.47665449976921L99.799375,115.90296331048012L100.0805,115.53828421235085L100.36162499999999,111.06612983345985L100.64274999999999,114.39967307448387L100.923875,115.60272726416588L101.205,115.44372963905334L101.486125,114.77077010273933L101.76724999999999,113.35697922110558L102.048375,115.6061999797821L102.3295,115.9489877820015L102.610625,115.46201634407043L102.89175,114.59524410963058L103.172875,115.87803888320923L103.454,117.7181385755539L103.735125,114.85275256633759L104.01625,116.65548759698868L104.297375,115.85540029406548L104.5785,117.385417252779L104.859625,115.40236476063728L105.14075,116.79848435521126L105.421875,116.4436959028244L105.703,114.76562696695328L105.984125,117.02763962745667L106.26525,116.96561428904533L106.546375,116.56295511126518L106.8275,117.48093891143799L107.108625,117.54700842499733L107.38975,117.98865872621536L107.670875,117.6129460632801L107.952,117.94795322418213L108.233125,117.80662688612938L108.51425,116.59064891934395L108.795375,118.0580471009016L109.07650000000001,117.39407706260681L109.357625,117.62613359093666L109.63875,118.56396462023258L109.919875,119.89148709177971L110.20100000000001,120.76085287332535L110.48212500000001,120.64935232698917L110.76325,119.67103558778763L111.044375,118.61218701303005L111.3255,116.6207164824009L111.60662500000001,122.27660532295704L111.88775000000001,118.81753879785538L112.168875,120.64273658394814L112.45,119.20109803974628L112.731125,120.6655949652195L113.01225000000001,119.14535875618458L113.29337500000001,117.23389256000519L113.5745,120.4667490273714L113.855625,119.27571746706963L114.13675,119.07146464288235L114.417875,122.22647073864937L114.699,119.69105865061283L114.98012499999999,120.44725346565247L115.26124999999999,120.70269587635994L115.54237499999999,119.18232779204845L115.8235,115.77737408876419L116.104625,123.24125099182129L116.38574999999999,120.74548940360546L116.66687499999999,119.62789039313793L116.948,120.55732536315918L117.229125,120.34122574329376L117.51025,119.34411677718163L117.791375,120.88138687610626L118.07249999999999,120.6824090629816L118.353625,119.97329372167587L118.63475,119.78983323276043L118.915875,120.47107893228531L119.197,121.97639125585556L119.47812499999999,122.03226241469383L119.75925,121.30633297562599L120.040375,122.79834787547588L120.3215,122.71753031015396L120.602625,119.82192288339138L120.88374999999999,119.06157399713993L121.164875,119.78108550608158L121.446,121.23228500783443L121.727125,124.05569072067738L122.00825,122.31293696165085L122.28937499999999,122.19295243918896L122.5705,118.11051148176193L122.851625,122.50995862483978L123.13275,121.20388786494732L123.413875,123.76035603880882L123.69500000000001,119.707499101758L123.976125,123.6055124849081L124.25725,124.00828155875206L124.538375,125.75995887815952L124.8195,121.21270152926445L125.10062500000001,122.48164939880371L125.38175,121.34721431136131L125.662875,120.228032797575L125.944,123.52887097001076L126.225125,122.4000405818224L126.50625000000001,124.23075515031815L126.787375,122.8938475549221L127.0685,123.63837140798569L127.349625,123.22142574191093L127.63075,123.45170195400715L127.91187500000001,122.57857772707939L128.193,125.79147706925869L128.47412500000002,122.30425517261028L128.75525000000002,121.20067889988422L129.036375,122.60824966430664L129.3175,123.55197112262249L129.598625,122.44619692862034L129.87975,123.7544656097889L130.160875,125.06521794199944L130.442,124.60859979689121L130.723125,124.51560574769974L131.00425,124.71719908714294L131.28537500000002,122.43369075655937L131.56650000000002,126.2424245774746L131.847625,123.53337670862675L132.12875,125.52018764615059L132.409875,124.57952129840851L132.691,125.55366198718548L132.972125,125.11891315877438L133.25324999999998,127.92937311530113L133.53437499999998,125.31353908777237L133.8155,127.03429165482521L134.096625,124.72689191997051L134.37775,123.58757744729519L134.658875,124.50382488965988L134.94,125.38136693835258L135.221125,126.17176140844822L135.50225,126.80929045379162L135.783375,125.77760818600655L136.0645,124.58888444304466L136.34562499999998,125.99124613404274L136.62675,124.83142505586147L136.907875,124.36293813586235L137.189,124.96160793304443L137.470125,123.23285493254662L137.75125,127.49506387114525L138.032375,129.26432456076145L138.3135,129.65069714188576L138.594625,127.41145494580269L138.87575,126.20574127137661L139.15687499999999,127.87974405288696L139.438,126.25572200119495L139.719125,129.48585304617882L140.00025,127.3845084309578L140.281375,126.4828332066536L140.5625,126.04058946669102L140.843625,125.07022920250893L141.12475,127.78039801120758L141.405875,125.97357484698296L141.687,126.31792317330837L141.96812500000001,128.47030352056026L142.24925,125.50528573989868L142.530375,128.47054529190063L142.8115,128.8495768159628L143.092625,128.09272262454033L143.37375,128.55202223360538L143.654875,126.72106589376926L143.936,125.81580805778503L144.217125,126.09843875467777L144.49825,126.71917568147182L144.77937500000002,127.38244238495827L145.0605,127.38547551631927L145.341625,128.50034910440445L145.62275,126.9633647352457L145.903875,130.93162368237972L146.185,127.58535447716713L146.466125,128.81797070801258L146.74725,129.587331071496L147.028375,130.49483078718185L147.3095,128.21448746323586L147.59062500000002,128.45645661652088L147.87175000000002,129.9179204106331L148.152875,131.56313042342663L148.434,127.70747098326683L148.715125,130.03328929841518L148.99625,130.0481252670288L149.277375,129.92123927176L149.5585,129.21814623475075L149.839625,130.98804432153702L150.12075000000002,131.31584230065346L150.40187500000002,131.19023109972477L150.68300000000002,129.6177063435316L150.964125,129.67252250015736L151.24525,130.35728487372398L151.526375,130.1559552848339L151.8075,128.0421704351902L152.088625,131.8030555099249L152.36975,130.9322610795498L152.650875,130.48553358018398L152.93200000000002,130.2918087989092L153.21312500000002,131.65438811481L153.49425000000002,130.42733262479305L153.77537500000003,130.16454915702343L154.0565,129.5715280175209L154.337625,129.16842925548553L154.61875,130.2214313596487L154.899875,131.97403180599213L155.181,131.2356621325016L155.46212500000001,129.58515512943268L155.74325000000002,127.7726833075285L156.02437500000002,132.8455735296011L156.30550000000002,134.73567593097687L156.58662500000003,128.6680504977703L156.86775,131.58878016471863L157.148875,132.71565440297127L157.43,132.40234072506428L157.711125,132.40009884536266L157.99225,130.32253573834896L158.273375,132.52019326388836L158.5545,131.76419626176357L158.835625,131.5574597865343L159.11675,131.21377083659172L159.397875,130.14254796504974L159.67899999999997,132.55289833247662L159.96012499999998,131.4430579841137L160.24124999999998,133.41285701096058L160.52237499999998,133.15686511993408L160.80349999999999,131.93961235880852L161.084625,131.80109935998917L161.36575,131.64579424262047L161.646875,132.7040493786335L161.928,134.42878018319607L162.209125,132.47739973664284L162.49024999999997,134.22813194990158L162.77137499999998,135.7956234663725L163.05249999999998,133.63247330486774L163.33362499999998,135.416438087821L163.61475,134.31464213132858L163.895875,133.13117142021656L164.177,132.19485695660114L164.458125,132.13566693663597L164.73925,132.11797367036343L165.020375,132.09159861505032L165.3015,132.82282504439354L165.58262499999998,134.31914786994457L165.86374999999998,131.5077428072691L166.14487499999998,134.5027841925621L166.426,133.43953977525234L166.707125,134.1920640617609L166.98825,134.543797403574L167.269375,134.1015536636114L167.5505,132.9480625987053L167.831625,135.41083338856697L168.11275,135.2779031097889L168.39387499999998,133.84556177258492L168.67499999999998,134.82229600846767L168.956125,132.85515646636486L169.23725,135.87545196712017L169.518375,133.82793444395065L169.7995,133.23994654417038L170.080625,133.72039015591145L170.36175,136.03038343787193L170.642875,134.9172242283821L170.924,135.2691773623228L171.205125,132.0485193580389L171.48624999999998,134.4702769368887L171.767375,134.63692332804203L172.0485,136.382578343153L172.329625,135.84285679459572L172.61075,135.37124882638454L172.891875,134.50972962379456L173.173,135.6502749323845L173.454125,134.7471271008253L173.73525,136.73815804719925L174.016375,135.16594099998474L174.29749999999999,136.43262501060963L174.578625,135.47452914714813L174.85975,133.63623175024986L175.140875,135.3995140939951L175.422,137.68746222555637L175.703125,134.03289060294628L175.98425,134.27022214233875L176.265375,134.47095829248428L176.5465,135.6805842667818L176.827625,136.49796921014786L177.10875000000001,135.94075220823288L177.389875,136.15192848443985L177.671,136.3638960123062L177.952125,134.53628051280975L178.23325,134.96109473705292L178.514375,136.86746175587177L178.7955,136.35930235683918L179.076625,137.50938664376736L179.35775,135.30869598686695L179.638875,136.71261820197105L179.92000000000002,136.6111181974411L180.201125,137.1947542130947L180.48225,137.59427036345005L180.763375,138.59036828577518L181.0445,136.8527576625347L181.325625,137.90138590335846L181.60675,139.55793718993664L181.887875,135.4253836274147L182.169,137.07276958227158L182.450125,137.10512298345566L182.73125000000002,138.13315670192242L183.01237500000002,137.59763318300247L183.2935,136.5062114149332L183.574625,135.1535886824131L183.85575,134.03278070688248L184.136875,136.98674294352531L184.418,139.33671641349792L184.699125,135.81894341111183L184.98025,137.1982489079237L185.26137500000002,134.8705403804779L185.54250000000002,136.88807825744152L185.82362500000002,138.93513421714306L186.10475,139.148244664073L186.385875,137.83558014035225L186.667,137.5680271834135L186.948125,136.64771358668804L187.22925,138.24239338934422L187.510375,136.44820827245712L187.7915,136.92260760068893L188.07262500000002,138.60384154319763L188.35375000000002,138.56929022073746L188.63487500000002,138.88434025645256L188.91600000000003,140.70081229507923L189.197125,138.6931870430708L189.47825,137.79267671704292L189.759375,138.0726479291916L190.0405,138.18557712435722L190.321625,136.7415648251772L190.60275000000001,136.73134449124336L190.88387500000002,138.8618115633726L191.16500000000002,138.66911980509758L191.44612500000002,138.9784772247076L191.72725000000003,137.9516523629427L192.008375,140.7166373282671L192.2895,140.02914953231812L192.570625,137.81217227876186L192.85175,137.1553894430399L193.132875,139.3743008673191L193.414,139.43823839724064L193.695125,138.35993821918964L193.97625,137.01905238628387L194.257375,139.43063358962536L194.5385,140.5084502249956L194.81962499999997,138.42688690125942L195.10074999999998,140.2474031150341L195.38187499999998,138.63551358878613L195.66299999999998,139.41810543835163L195.94412499999999,139.309220418334L196.22525,141.52654933929443L196.506375,141.5794972628355L196.7875,140.00673073530197L197.068625,139.92197889089584L197.34975,139.2665807455778L197.63087499999997,139.62991911172867L197.91199999999998,138.59869840741158L198.19312499999998,141.35262782871723L198.47424999999998,139.13323286175728L198.755375,140.45759032666683L199.0365,139.75043113529682L199.317625,138.8908461034298L199.59875,139.31981439888477L199.879875,139.12081460654736L200.161,139.31166011095047L200.442125,139.92986942827702L200.72324999999998,138.74626684188843L201.00437499999998,138.02187594771385L201.28549999999998,140.30430729687214L201.566625,138.93473859131336L201.84775,140.26256877183914L202.128875,141.29811938107014L202.41,139.78867496550083L202.691125,140.2203467041254L202.97225,141.45199584960938L203.253375,139.50481343269348L203.53449999999998,142.1433959454298L203.81562499999998,136.40730495750904L204.09675,140.6265884935856L204.377875,140.62417078018188L204.659,141.19426760077477L204.940125,140.52809964120388L205.22125,141.4142355620861L205.502375,141.45184199512005L205.7835,141.83744530379772L206.064625,142.21544380486012L206.34575,141.58842082321644L206.62687499999998,138.78831307590008L206.908,140.48743809759617L207.189125,139.48626297712326L207.47025,141.74625355005264L207.751375,141.76689203083515L208.0325,142.18977208435535L208.313625,141.91903214156628L208.59475,142.09383282065392L208.875875,141.72198849916458L209.157,140.33800143003464L209.43812499999999,141.3128234744072L209.71925,141.19787219166756L210.000375,139.54666185379028L210.2815,140.74123206734657L210.562625,139.58257588744164L210.84375,142.44519251585007L211.124875,142.86875392496586L211.406,140.78086058795452L211.687125,142.39611293375492L211.96825,140.29048237204552L212.24937500000001,142.0051906555891L212.5305,141.21176305413246L212.811625,141.33137392997742L213.09275,143.79056210815907L213.373875,143.38379281759262L213.655,141.66365566849709L213.936125,139.7557281255722L214.21725,138.68336233496666L214.498375,141.2706893235445L214.7795,142.06145744025707L215.06062500000002,138.12717835605145L215.34175,140.80290573835373L215.622875,142.68861229717731L215.904,141.39990511536598L216.185125,143.56815445423126L216.46625,142.03853312134743L216.747375,142.47106204926968L217.0285,143.34328512847424L217.309625,141.04746843874454L217.59075,143.1489009708166L217.87187500000002,143.60789287090302L218.15300000000002,145.36453749239445L218.434125,144.8397618085146L218.71525,143.64286179840565L218.996375,142.42086152732372L219.2775,142.6419943869114L219.558625,143.9610328823328L219.83975,142.23669770359993L220.120875,142.85941275954247L220.40200000000002,142.4137842208147L220.68312500000002,144.52726136147976L220.96425000000002,142.281095713377L221.245375,143.26653371751308L221.5265,141.82962070405483L221.807625,142.19997043907642L222.08875,143.3397684544325L222.369875,142.19333271682262L222.651,144.44626796245575L222.932125,143.73770210146904L223.21325000000002,144.83437690138817L223.49437500000002,143.77319853007793L223.77550000000002,142.74483512341976L224.05662500000003,142.93093311786652L224.33775,141.74348416924477L224.618875,142.10365752875805L224.9,141.52687902748585L225.181125,145.35743820667267L225.46225,143.76335184276104L225.74337500000001,142.03778582811356L226.02450000000002,144.4531034976244L226.30562500000002,145.67125740647316L226.58675000000002,145.96931751072407L226.86787500000003,143.10861307382584L227.149,145.66235582530499L227.430125,147.13030348718166L227.71125,143.49852430820465L227.992375,143.0794466584921L228.2735,144.2852042913437L228.554625,147.1489638388157L228.83575,145.7115672826767L229.116875,144.54548212885857L229.398,144.76182352006435L229.679125,145.79328599572182L229.96024999999997,145.3678343743086L230.24137499999998,145.07766480743885L230.52249999999998,144.30891986191273L230.80362499999998,143.46010464429855L231.08474999999999,145.2066168487072L231.365875,143.68877637386322L231.647,142.69107396900654L231.928125,143.06406120955944L232.20925,147.49155382812023L232.490375,144.08279772102833L232.77149999999997,146.08143347501755L233.05262499999998,144.90103985369205L233.33374999999998,144.33804231882095L233.61487499999998,143.58077052235603L233.896,144.26137882471085L234.177125,144.65555402636528L234.45825,143.509799644351L234.739375,144.7780002206564L235.0205,142.63735677301884L235.301625,146.02615575492382L235.58275,146.05642113089561L235.86387499999998,144.16737373173237L236.14499999999998,144.9977044314146L236.42612499999998,144.78360491991043L236.70725,144.6248270869255L236.988375,145.69279703497887L237.2695,144.4173872768879L237.550625,143.70275515317917L237.83175,145.72631533443928L238.112875,144.6905888915062L238.394,146.55818457901478L238.67512499999998,146.23319993913174L238.95624999999998,144.36826373636723L239.237375,144.31694227457047L239.5185,146.92055585980415L239.799625,144.74887776374817L240.08075,145.5555368512869L240.361875,142.8059593141079L240.643,147.12946827709675L240.924125,147.37427274882793L241.20525,146.72032523155212L241.486375,143.78344084322453L241.76749999999998,146.18379066884518L242.048625,145.53531597554684L242.32975,144.25795006752014L242.610875,144.57304406166077L242.892,144.18559449911118L243.173125,146.32505106925964L243.45425,146.97381149232388L243.735375,146.93996350467205L244.0165,144.7325472086668L244.297625,145.24573984742165L244.57874999999999,145.22096927464008L244.859875,144.4224424958229L245.141,145.1255575120449L245.422125,145.13210731744766L245.70325,145.3925170302391L245.984375,146.28709296882153L246.2655,145.4623889476061L246.546625,146.27172949910164L246.82775,145.19076983630657L247.108875,145.84157432615757L247.39000000000001,144.18572637438774L247.671125,144.58330835402012L247.95225,147.35552448034286L248.233375,146.55431623756886L248.5145,145.3460529744625L248.795625,143.71011818945408L249.07675,143.82922354340553L249.357875,142.93113093078136L249.639,146.34511809051037L249.920125,144.4191895723343L250.20125000000002,142.59770627319813L250.482375,147.1044119745493L250.7635,147.19544987380505L251.044625,144.9914623349905L251.32575,144.9152384251356L251.606875,145.22655199468136L251.888,146.5865817219019L252.169125,144.56653821468353L252.45025,145.70277559757233L252.731375,146.64469476044178L253.01250000000002,145.405858412385L253.29362500000002,145.0619936287403L253.57475,145.7005337178707L253.855875,146.63840870559216L254.137,146.1887799501419L254.418125,148.22229671478271L254.69925,146.07242199778557" style="fill: none;" fill="none"></path></g></g></g></g></g></g><g transform="translate(48, 177)" clip-path="url(#clip_1)"><clipPath id="clip_1"><rect width="281" height="23"></rect></clipPath><g><g><line x1="0" y1="0" x2="0" y2="5" style="visibility: inherit;" fill="rgb(0, 0, 0)" stroke="rgb(204, 204, 204)" stroke-width="1px"></line><line x1="28.1125" y1="0" x2="28.1125" y2="5" style="visibility: inherit;" fill="rgb(0, 0, 0)" stroke="rgb(204, 204, 204)" stroke-width="1px"></line><line x1="56.225" y1="0" x2="56.225" y2="5" style="visibility: inherit;" fill="rgb(0, 0, 0)" stroke="rgb(204, 204, 204)" stroke-width="1px"></line><line x1="84.33749999999999" y1="0" x2="84.33749999999999" y2="5" style="visibility: inherit;" fill="rgb(0, 0, 0)" stroke="rgb(204, 204, 204)" stroke-width="1px"></line><line x1="112.45" y1="0" x2="112.45" y2="5" style="visibility: inherit;" fill="rgb(0, 0, 0)" stroke="rgb(204, 204, 204)" stroke-width="1px"></line><line x1="140.5625" y1="0" x2="140.5625" y2="5" style="visibility: inherit;" fill="rgb(0, 0, 0)" stroke="rgb(204, 204, 204)" stroke-width="1px"></line><line x1="168.67499999999998" y1="0" x2="168.67499999999998" y2="5" style="visibility: inherit;" fill="rgb(0, 0, 0)" stroke="rgb(204, 204, 204)" stroke-width="1px"></line><line x1="196.7875" y1="0" x2="196.7875" y2="5" style="visibility: inherit;" fill="rgb(0, 0, 0)" stroke="rgb(204, 204, 204)" stroke-width="1px"></line><line x1="224.9" y1="0" x2="224.9" y2="5" style="visibility: inherit;" fill="rgb(0, 0, 0)" stroke="rgb(204, 204, 204)" stroke-width="1px"></line><line x1="253.01250000000002" y1="0" x2="253.01250000000002" y2="5" style="visibility: inherit;" fill="rgb(0, 0, 0)" stroke="rgb(204, 204, 204)" stroke-width="1px"></line><line x1="281.125" y1="0" x2="281.125" y2="5" style="visibility: inherit;" fill="rgb(0, 0, 0)" stroke="rgb(204, 204, 204)" stroke-width="1px"></line></g><g transform="translate(0, 8)"><text x="0" y="0" dx="0em" dy="0.95em" style="text-anchor: middle; visibility: hidden; font-family: &quot;Helvetica Neue&quot;, sans-serif; font-size: 12px; font-weight: 200;" fill="rgb(50, 49, 63)" stroke="none" stroke-width="1px">-100</text><text x="28.1125" y="0" dx="0em" dy="0.95em" style="text-anchor: middle; visibility: inherit; font-family: &quot;Helvetica Neue&quot;, sans-serif; font-size: 12px; font-weight: 200;" fill="rgb(50, 49, 63)" stroke="none" stroke-width="1px">0</text><text x="56.225" y="0" dx="0em" dy="0.95em" style="text-anchor: middle; visibility: inherit; font-family: &quot;Helvetica Neue&quot;, sans-serif; font-size: 12px; font-weight: 200;" fill="rgb(50, 49, 63)" stroke="none" stroke-width="1px">100</text><text x="84.33749999999999" y="0" dx="0em" dy="0.95em" style="text-anchor: middle; visibility: inherit; font-family: &quot;Helvetica Neue&quot;, sans-serif; font-size: 12px; font-weight: 200;" fill="rgb(50, 49, 63)" stroke="none" stroke-width="1px">200</text><text x="112.45" y="0" dx="0em" dy="0.95em" style="text-anchor: middle; visibility: inherit; font-family: &quot;Helvetica Neue&quot;, sans-serif; font-size: 12px; font-weight: 200;" fill="rgb(50, 49, 63)" stroke="none" stroke-width="1px">300</text><text x="140.5625" y="0" dx="0em" dy="0.95em" style="text-anchor: middle; visibility: inherit; font-family: &quot;Helvetica Neue&quot;, sans-serif; font-size: 12px; font-weight: 200;" fill="rgb(50, 49, 63)" stroke="none" stroke-width="1px">400</text><text x="168.67499999999998" y="0" dx="0em" dy="0.95em" style="text-anchor: middle; visibility: inherit; font-family: &quot;Helvetica Neue&quot;, sans-serif; font-size: 12px; font-weight: 200;" fill="rgb(50, 49, 63)" stroke="none" stroke-width="1px">500</text><text x="196.7875" y="0" dx="0em" dy="0.95em" style="text-anchor: middle; visibility: inherit; font-family: &quot;Helvetica Neue&quot;, sans-serif; font-size: 12px; font-weight: 200;" fill="rgb(50, 49, 63)" stroke="none" stroke-width="1px">600</text><text x="224.9" y="0" dx="0em" dy="0.95em" style="text-anchor: middle; visibility: inherit; font-family: &quot;Helvetica Neue&quot;, sans-serif; font-size: 12px; font-weight: 200;" fill="rgb(50, 49, 63)" stroke="none" stroke-width="1px">700</text><text x="253.01250000000002" y="0" dx="0em" dy="0.95em" style="text-anchor: middle; visibility: inherit; font-family: &quot;Helvetica Neue&quot;, sans-serif; font-size: 12px; font-weight: 200;" fill="rgb(50, 49, 63)" stroke="none" stroke-width="1px">800</text><text x="281.125" y="0" dx="0em" dy="0.95em" style="text-anchor: middle; visibility: hidden; font-family: &quot;Helvetica Neue&quot;, sans-serif; font-size: 12px; font-weight: 200;" fill="rgb(50, 49, 63)" stroke="none" stroke-width="1px">900</text></g><line x1="0" y1="0" x2="281.125" y2="0" fill="rgb(0, 0, 0)" stroke="rgb(204, 204, 204)" stroke-width="1px"></line></g></g></g></g></svg>