<svg viewBox="0 0 330 200" xmlns="http://www.w3.org/2000/svg"><g><g><g><g><g><line x1="58.59375" y1="177" x2="53.59375" y2="177" style="visibility: inherit;" fill="rgb(0, 0, 0)" stroke="rgb(204, 204, 204)" stroke-width="1px"></line><line x1="58.59375" y1="157.33333333333334" x2="53.59375" y2="157.33333333333334" style="visibility: inherit;" fill="rgb(0, 0, 0)" stroke="rgb(204, 204, 204)" stroke-width="1px"></line><line x1="58.59375" y1="137.66666666666666" x2="53.59375" y2="137.66666666666666" style="visibility: inherit;" fill="rgb(0, 0, 0)" stroke="rgb(204, 204, 204)" stroke-width="1px"></line><line x1="58.59375" y1="118" x2="53.59375" y2="118" style="visibility: inherit;" fill="rgb(0, 0, 0)" stroke="rgb(204, 204, 204)" stroke-width="1px"></line><line x1="58.59375" y1="98.33333333333333" x2="53.59375" y2="98.33333333333333" style="visibility: inherit;" fill="rgb(0, 0, 0)" stroke="rgb(204, 204, 204)" stroke-width="1px"></line><line x1="58.59375" y1="78.66666666666666" x2="53.59375" y2="78.66666666666666" style="visibility: inherit;" fill="rgb(0, 0, 0)" stroke="rgb(204, 204, 204)" stroke-width="1px"></line><line x1="58.59375" y1="58.999999999999986" x2="53.59375" y2="58.999999999999986" style="visibility: inherit;" fill="rgb(0, 0, 0)" stroke="rgb(204, 204, 204)" stroke-width="1px"></line><line x1="58.59375" y1="39.33333333333334" x2="53.59375" y2="39.33333333333334" style="visibility: inherit;" fill="rgb(0, 0, 0)" stroke="rgb(204, 204, 204)" stroke-width="1px"></line><line x1="58.59375" y1="19.666666666666657" x2="53.59375" y2="19.666666666666657" style="visibility: inherit;" fill="rgb(0, 0, 0)" stroke="rgb(204, 204, 204)" stroke-width="1px"></line><line x1="58.59375" y1="0" x2="53.59375" y2="0" style="visibility: inherit;" fill="rgb(0, 0, 0)" stroke="rgb(204, 204, 204)" stroke-width="1px"></line></g><g transform="translate(48.59375, 0)"><text x="0" y="177" dx="0em" dy="0.3em" style="text-anchor: end; visibility: hidden; font-family: &quot;Helvetica Neue&quot;, sans-serif; font-size: 12px; font-weight: 200;" fill="rgb(50, 49, 63)" stroke="none" stroke-width="1px">-0.02</text><text x="0" y="157.33333333333334" dx="0em" dy="0.3em" style="text-anchor: end; visibility: inherit; font-family: &quot;Helvetica Neue&quot;, sans-serif; font-size: 12px; font-weight: 200;" fill="rgb(50, 49, 63)" stroke="none" stroke-width="1px">0</text><text x="0" y="137.66666666666666" dx="0em" dy="0.3em" style="text-anchor: end; visibility: hidden; font-family: &quot;Helvetica Neue&quot;, sans-serif; font-size: 12px; font-weight: 200;" fill="rgb(50, 49, 63)" stroke="none" stroke-width="1px">0.02</text><text x="0" y="118" dx="0em" dy="0.3em" style="text-anchor: end; visibility: inherit; font-family: &quot;Helvetica Neue&quot;, sans-serif; font-size: 12px; font-weight: 200;" fill="rgb(50, 49, 63)" stroke="none" stroke-width="1px">0.04</text><text x="0" y="98.33333333333333" dx="0em" dy="0.3em" style="text-anchor: end; visibility: hidden; font-family: &quot;Helvetica Neue&quot;, sans-serif; font-size: 12px; font-weight: 200;" fill="rgb(50, 49, 63)" stroke="none" stroke-width="1px">0.06</text><text x="0" y="78.66666666666666" dx="0em" dy="0.3em" style="text-anchor: end; visibility: inherit; font-family: &quot;Helvetica Neue&quot;, sans-serif; font-size: 12px; font-weight: 200;" fill="rgb(50, 49, 63)" stroke="none" stroke-width="1px">0.08</text><text x="0" y="58.999999999999986" dx="0em" dy="0.3em" style="text-anchor: end; visibility: hidden; font-family: &quot;Helvetica Neue&quot;, sans-serif; font-size: 12px; font-weight: 200;" fill="rgb(50, 49, 63)" stroke="none" stroke-width="1px">0.1</text><text x="0" y="39.33333333333334" dx="0em" dy="0.3em" style="text-anchor: end; visibility: inherit; font-family: &quot;Helvetica Neue&quot;, sans-serif; font-size: 12px; font-weight: 200;" fill="rgb(50, 49, 63)" stroke="none" stroke-width="1px">0.12</text><text x="0" y="19.666666666666657" dx="0em" dy="0.3em" style="text-anchor: end; visibility: hidden; font-family: &quot;Helvetica Neue&quot;, sans-serif; font-size: 12px; font-weight: 200;" fill="rgb(50, 49, 63)" stroke="none" stroke-width="1px">0.14</text><text x="0" y="0" dx="0em" dy="0.3em" style="text-anchor: end; visibility: hidden; font-family: &quot;Helvetica Neue&quot;, sans-serif; font-size: 12px; font-weight: 200;" fill="rgb(50, 49, 63)" stroke="none" stroke-width="1px">0.16</text></g><line x1="58.59375" y1="0" x2="58.59375" y2="177" fill="rgb(0, 0, 0)" stroke="rgb(204, 204, 204)" stroke-width="1px"></line></g></g><g transform="translate(58, 0)" clip-path="url(#clip_0)"><clipPath id="clip_0"><rect width="271" height="177"></rect></clipPath><g><g><g><line x1="0" y1="0" x2="0" y2="177" fill="rgb(0, 0, 0)" stroke="rgb(60, 60, 60)" stroke-width="1px" opacity="0.25"></line><line x1="27.140625" y1="0" x2="27.140625" y2="177" fill="rgb(0, 0, 0)" stroke="rgb(60, 60, 60)" stroke-width="1px" opacity="0.25"></line><line x1="54.28125" y1="0" x2="54.28125" y2="177" fill="rgb(0, 0, 0)" stroke="rgb(60, 60, 60)" stroke-width="1px" opacity="0.25"></line><line x1="81.421875" y1="0" x2="81.421875" y2="177" fill="rgb(0, 0, 0)" stroke="rgb(60, 60, 60)" stroke-width="1px" opacity="0.25"></line><line x1="108.5625" y1="0" x2="108.5625" y2="177" fill="rgb(0, 0, 0)" stroke="rgb(60, 60, 60)" stroke-width="1px" opacity="0.25"></line><line x1="135.703125" y1="0" x2="135.703125" y2="177" fill="rgb(0, 0, 0)" stroke="rgb(60, 60, 60)" stroke-width="1px" opacity="0.25"></line><line x1="162.84375" y1="0" x2="162.84375" y2="177" fill="rgb(0, 0, 0)" stroke="rgb(60, 60, 60)" stroke-width="1px" opacity="0.25"></line><line x1="189.984375" y1="0" x2="189.984375" y2="177" fill="rgb(0, 0, 0)" stroke="rgb(60, 60, 60)" stroke-width="1px" opacity="0.25"></line><line x1="217.125" y1="0" x2="217.125" y2="177" fill="rgb(0, 0, 0)" stroke="rgb(60, 60, 60)" stroke-width="1px" opacity="0.25"></line><line x1="244.265625" y1="0" x2="244.265625" y2="177" fill="rgb(0, 0, 0)" stroke="rgb(60, 60, 60)" stroke-width="1px" opacity="0.25"></line><line x1="271.40625" y1="0" x2="271.40625" y2="177" fill="rgb(0, 0, 0)" stroke="rgb(60, 60, 60)" stroke-width="1px" opacity="0.25"></line></g><g><line x1="0" y1="177" x2="271.40625" y2="177" fill="rgb(0, 0, 0)" stroke="rgb(60, 60, 60)" stroke-width="1px" opacity="0.25"></line><line x1="0" y1="157.33333333333334" x2="271.40625" y2="157.33333333333334" fill="rgb(0, 0, 0)" stroke="rgb(60, 60, 60)" stroke-width="1px" opacity="0.25"></line><line x1="0" y1="137.66666666666666" x2="271.40625" y2="137.66666666666666" fill="rgb(0, 0, 0)" stroke="rgb(60, 60, 60)" stroke-width="1px" opacity="0.25"></line><line x1="0" y1="118" x2="271.40625" y2="118" fill="rgb(0, 0, 0)" stroke="rgb(60, 60, 60)" stroke-width="1px" opacity="0.25"></line><line x1="0" y1="98.33333333333333" x2="271.40625" y2="98.33333333333333" fill="rgb(0, 0, 0)" stroke="rgb(60, 60, 60)" stroke-width="1px" opacity="0.25"></line><line x1="0" y1="78.66666666666666" x2="271.40625" y2="78.66666666666666" fill="rgb(0, 0, 0)" stroke="rgb(60, 60, 60)" stroke-width="1px" opacity="0.25"></line><line x1="0" y1="58.999999999999986" x2="271.40625" y2="58.999999999999986" fill="rgb(0, 0, 0)" stroke="rgb(60, 60, 60)" stroke-width="1px" opacity="0.25"></line><line x1="0" y1="39.33333333333334" x2="271.40625" y2="39.33333333333334" fill="rgb(0, 0, 0)" stroke="rgb(60, 60, 60)" stroke-width="1px" opacity="0.25"></line><line x1="0" y1="19.666666666666657" x2="271.40625" y2="19.666666666666657" fill="rgb(0, 0, 0)" stroke="rgb(60, 60, 60)" stroke-width="1px" opacity="0.25"></line><line x1="0" y1="0" x2="271.40625" y2="0" fill="rgb(0, 0, 0)" stroke="rgb(60, 60, 60)" stroke-width="1px" opacity="0.25"></line></g></g></g><g><g><line x1="0" y1="157.33333333333334" x2="271.40625" y2="157.33333333333334" fill="rgb(0, 0, 0)" stroke="rgb(153, 153, 153)" stroke-width="1.5px"></line></g></g><g><g><line x1="27.140625" y1="0" x2="27.140625" y2="177" fill="rgb(0, 0, 0)" stroke="rgb(153, 153, 153)" stroke-width="1.5px"></line></g></g><g><g><g><g><g><path stroke="rgb(238, 51, 119)" stroke-width="2px" d="M28.7690625,-19.181592474381148L29.04046875,0.7662135263284142L29.311875,7.089002966880798L29.58328125,11.834769239028304L29.8546875,15.208930065234512L30.12609375,17.7683068215847L30.3975,20.7260348300139L30.66890625,22.3400416870912L30.9403125,24.531852742036193L31.211718750000003,26.76662583152455L31.483125,28.380559424559266L31.754531250000003,30.156245370705932L32.0259375,31.80845209956169L32.297343749999996,33.91159901022911L32.56875,34.76143259803456L32.84015625,36.3599880685409L33.1115625,38.14340337117514L33.382968749999996,39.10448840757212L33.654375,40.475698227683694L33.92578125,41.88822164138159L34.1971875,42.88352831204733L34.468593750000004,43.43511130909124L34.74,45.36243184407553L35.01140625,45.98308085401854L35.2828125,47.08857664465904L35.554218750000004,47.90120675166449L35.825625,49.115763396024704L36.09703125,50.64865230520567L36.3684375,50.9138022015492L36.639843750000004,52.19087505340576L36.91125,52.92997736732164L37.18265625,54.16583186884719L37.454062500000006,54.299853781859056L37.725468750000005,55.325403849283845L37.996875,56.03241651256879L38.268281249999994,56.82919960717359L38.5396875,57.475102732578904L38.81109375,58.06066559255122L39.082499999999996,59.3083375841379L39.353906249999994,60.06447378794351L39.6253125,60.4252479126056L39.89671875,60.6391056527694L40.168124999999996,62.16131266454855L40.43953125,62.23229086895783L40.7109375,63.590173959732056L40.98234375,63.42061165968575L41.25375,64.65455396970113L41.52515625,64.95671686033407L41.7965625,65.65556790928044L42.06796875,65.71927832067013L42.339375,66.66911732653776L42.61078125,67.26273190478481L42.8821875,67.30208202203114L43.15359375,67.55578807493049L43.425000000000004,68.55911715825398L43.69640625,68.41489689052105L43.9678125,68.46907564997673L44.23921875,69.61894014477728L44.510625000000005,69.27359542747337L44.78203125,69.79760183890659L45.0534375,70.14566465218861L45.32484375,70.14115891357262L45.596250000000005,71.09063159922758L45.86765625,71.11084514856337L46.1390625,71.13677329321702L46.41046875000001,72.0588232477506L46.681875,71.8935468941927L46.953281249999996,71.91351867218812L47.224687499999995,72.20200316607952L47.49609375,72.73318212727703L47.7675,72.32214154303074L48.03890625,73.41578321158886L48.310312499999995,73.23320189118385L48.58171875,73.61932537456353L48.853125,73.77929008503754L49.12453125,74.21274213989575L49.395937499999995,74.05477753778298L49.66734375,74.1062162220478L49.93875,74.72609595954418L50.21015625,74.43698872129121L50.4815625,74.6683126091957L50.75296875,75.77470954755941L51.024375,75.24210926393668L51.29578125,75.53632300595443L51.5671875,75.33807783325511L51.83859375,75.12654988964397L52.11,76.09721786280471L52.381406250000005,76.30607899526755L52.6528125,76.07238867878912L52.92421875,75.72819420695303L53.195625,76.72869529823461L53.467031250000005,76.56898701190948L53.7384375,76.69292046626408L54.00984375,76.72446796298027L54.28125,77.3628908296426L54.552656250000005,77.60090372463067L54.824062500000004,77.12549335261185L55.09546875,78.27211225032806L55.36687499999999,78.00065431992212L55.63828125,78.26047059396903L55.9096875,77.98343726992607L56.181093749999995,77.93208650251229L56.4525,78.4045077015956L56.72390625,78.53658811748028L56.9953125,78.08579446375369L57.266718749999995,79.45936338603497L57.538125,78.56819422543047L57.80953125,79.06238949795564L58.0809375,79.81767583886781L58.352343749999996,78.76940659185249L58.62375,79.35256639122963L58.89515625,79.35735785961151L59.1665625,79.20090982317924L59.43796875,80.04190776745479L59.709375,80.20718412101269L59.98078125,80.29588489731152L60.2521875,79.68221795062225L60.52359375,80.48755095899105L60.795,80.25612450142701L61.06640625,80.36698765059312L61.3378125,80.83718894918759L61.609218750000004,80.61984384059905L61.880625,80.27778135240078L62.15203125,80.84803935388723L62.423437500000006,80.39552399516104L62.694843750000004,80.33742560942967L62.96625,81.03829874595006L63.23765625,81.44440133372943L63.509062500000006,80.97791452209154L63.78046875,81.31372758746147L64.051875,80.80490148564178L64.32328125,81.15584357579549L64.59468749999999,81.66369526584943L64.86609374999999,81.29747762282689L65.1375,81.32027739286423L65.40890625,81.70453264315923L65.6803125,81.68361575901507L65.95171875,81.67338077227274L66.223125,81.20977323750654L66.49453125,81.80958595375219L66.76593749999999,81.59780891239643L67.03734375,82.22116136550903L67.30875,81.97996148467064L67.58015625,81.46640985210736L67.8515625,82.56766365468502L68.12296875,82.23708164195219L68.394375,82.41525979340075L68.66578125,82.87027345597744L68.93718750000001,82.52002004782358L69.20859375,82.47009792923927L69.48,82.88453063865502L69.75140625,82.87243474523225L70.0228125,82.60775373876095L70.29421875,82.56148016949493L70.565625,82.58881498376529L70.83703125000001,82.93083351353805L71.10843750000001,82.86758466561635L71.37984375,83.1550800949335L71.65125,83.27442722022532L71.92265625,83.42357083161671L72.1940625,83.5358406503995L72.46546875,82.57523183027904L72.736875,83.125891700387L73.00828125000001,83.90488628546396L73.27968750000001,83.72064919769764L73.55109375,83.41809800763924L73.8225,83.43890499571958L74.09390625,84.0180352727572L74.3653125,83.5590287198623L74.63671875,83.60878233114877L74.90812500000001,83.4797716786464L75.17953125000001,83.60689944525559L75.45093750000001,83.78514353434244L75.72234375000001,83.88133922219276L75.99375,83.91235921780267L76.26515625,83.52397187550861L76.53656249999999,84.20481462279956L76.80796874999999,84.19693141182262L77.079375,84.1366277784109L77.35078125,84.6423841168483L77.6221875,84.33702691396077L77.89359375,84.382758329312L78.16499999999999,84.11491231620312L78.43640624999999,84.65171795586744L78.70781249999999,85.33907387653987L78.97921875,85.51335438092549L79.250625,84.78858251372972L79.52203125,85.12682061890762L79.7934375,84.48544521133105L80.06484375,84.83489271501699L80.33624999999999,84.79110279679298L80.60765624999999,85.11180149018764L80.8790625,85.12174342075984L81.15046875,84.90146775046983L81.421875,85.02299814422923L81.69328125,84.72652054329713L81.9646875,84.87904895345369L82.23609375,84.98687897125879L82.5075,85.43426584700742L82.77890624999999,84.69643832743166L83.0503125,85.51259976128736L83.32171875,85.65800690650939L83.593125,85.39886466165383L83.86453125,85.3853401194016L84.1359375,86.07504781583944L84.40734375,85.88680318494637L84.67875,85.4390426625808L84.95015625,86.14845838646094L85.2215625,85.71098413566747L85.49296875,85.8151729305585L85.764375,85.875498543183L86.03578125,86.25387069086233L86.3071875,86.1611550450325L86.57859375,86.02442236244677L86.85000000000001,86.11961433291435L87.12140625,85.8898949275414L87.3928125,86.31744190057118L87.66421875,86.7676421155532L87.935625,86.42944796880084L88.20703125,86.56504505872725L88.4784375,86.34314292669296L88.74984375,86.5021698574225L89.02125000000001,87.02119431396325L89.29265625000001,86.32438000539939L89.5640625,86.54795255760351L89.83546875,86.41128581265609L90.106875,86.71755148967107L90.37828125,86.81605499486128L90.6496875,86.53782746692498L90.92109375000001,86.62452080845831L91.19250000000001,87.39331703881422L91.46390625000001,86.85447465876737L91.7353125,86.73569166660307L92.00671875,87.0539799729983L92.278125,87.35950568318367L92.54953125,86.85518531997998L92.82093750000001,86.94652360181013L93.09234375000001,87.09196737905343L93.36375,87.11171936492124L93.63515625,87.4651304533084L93.90656249999999,87.55199962854384L94.17796874999999,86.9885844886303L94.44937499999999,87.34194429218769L94.72078124999999,87.33655938506126L94.9921875,87.45592848956584L95.26359375,87.2729588697354L95.535,87.44265304505825L95.80640625,87.09271467228729L96.0778125,87.82030720512073L96.34921874999999,87.36653170486291L96.62062499999999,87.6903367936611L96.89203125,87.02075472970803L97.1634375,87.73212660352388L97.43484375,87.89674358069897L97.70625,88.02544652422269L97.97765625,88.05950697759786L98.2490625,87.6895015835762L98.52046874999999,88.03218681613603L98.79187499999999,88.51821314791837L99.06328125,87.72858062386511L99.3346875,88.4898892690738L99.60609375,88.00955555339654L99.8775,87.87609044710796L100.14890625,87.7702751904726L100.4203125,88.30390849709511L100.69171874999999,88.30357148249944L100.963125,88.83740992844105L101.23453125,88.18941877782343L101.5059375,88.94905700286229L101.77734375,88.6647412329912L102.04875,88.79176642994085L102.32015625,88.37213929990928L102.5915625,89.21499815086523L102.86296875000001,88.9575263261795L103.134375,89.02607216437657L103.40578125,88.45495697359245L103.6771875,88.98122724394003L103.94859375,88.96421533326307L104.22,89.48416291673978L104.49140625,88.95707208911577L104.76281250000001,88.61075296004613L105.03421875000001,89.09557776153086L105.305625,89.6453584631284L105.57703125,89.3166227042675L105.8484375,89.64008345206578L106.11984375,88.70195204019547L106.39125,89.12709595263003L106.66265625,89.20903445780277L106.93406250000001,89.57754526535669L107.20546875000001,89.49493273099263L107.476875,89.5237328261137L107.74828125,89.3627204398314L108.0196875,89.32711411515871L108.29109375,89.32093795637289L108.5625,89.2070856342713L108.83390625000001,89.586710597078L109.10531250000001,89.86439597109953L109.37671875000001,89.65168114999929L109.64812500000001,90.01997949182987L109.91953125,90.16913775602976L110.1909375,90.17354825139046L110.46234374999999,90.04987854758897L110.73374999999999,89.73289434115091L111.00515625,89.91001749038696L111.2765625,89.92985739310582L111.54796875,90.32922701537609L111.819375,90.07411429286003L112.09078124999999,90.88676637907822L112.36218749999999,89.95378542939821L112.63359374999999,90.7256807287534L112.905,90.42307092746098L113.17640625,90.58722634116808L113.4478125,90.1109880854686L113.71921875,90.38216028610864L113.990625,90.34382853905359L114.26203124999999,90.4454457660516L114.53343749999999,90.41109958291052L114.80484375,90.63425453007221L115.07625,90.25016778707504L115.34765625,90.82536378502846L115.6190625,90.9180281460285L115.89046875,91.1358861029148L116.161875,91.10306381185849L116.43328125,90.42666819194952L116.70468749999999,90.96052129069963L116.97609375,90.83075601855913L117.2475,90.87691236535707L117.51890625,91.49725366632143L117.7903125,91.44756599267323L118.06171875,90.60220151146252L118.333125,90.72703611354032L118.60453125,91.05999188125132L118.8759375,91.11538682381311L119.14734375,91.66784898936749L119.41875,91.59708325068155L119.69015625,91.66625915964444L119.9615625,91.62099663416544L120.23296875,91.44750005503495L120.504375,91.59163240591684L120.77578125000001,91.62707754969597L121.0471875,91.90507063269615L121.31859375,91.5941673417886L121.59,91.96960892776647L121.86140625,91.7108623087406L122.1328125,91.89375866452852L122.40421875,91.67321191728114L122.675625,92.04192053774992L122.94703125000001,92.26857750614484L123.21843750000001,91.55495642622311L123.48984375,91.91970878839493L123.76125,92.45621404548486L124.03265625,92.39078192909558L124.3040625,92.12600567936896L124.57546875,91.83205568790434L124.84687500000001,91.90844077865282L125.11828125000001,92.34066199759641L125.38968750000001,92.08071384827295L125.66109375,92.48009079694747L125.9325,92.82950899501641L126.20390625,92.6778084685405L126.4753125,92.97344353298345L126.74671875000001,92.29239564637342L127.01812500000001,92.6947984000047L127.28953125,92.73682998120785L127.5609375,93.17506617804368L127.83234374999999,92.99043346444765L128.10375,92.0478329459826L128.37515625,92.86896168192227L128.6465625,93.21406462788582L128.91796875,93.52107759813467L129.18937499999998,93.12427221735318L129.46078125,93.5465808113416L129.73218749999998,92.86619962751865L130.00359375,93.21085566282272L130.275,93.30496332546075L130.54640625,93.40987010796864L130.8178125,93.93637482325235L131.08921875,93.48388877014318L131.360625,93.60043720901011L131.63203124999998,93.69477199018002L131.9034375,93.2078884691L132.17484375,93.31483931839466L132.44625,93.60867208739121L132.71765625,93.17480242749055L132.9890625,93.56483821074167L133.26046875,94.11601825555165L133.53187499999999,94.53533767660458L133.80328125,94.06792041162649L134.0746875,94.57013809680939L134.34609375,94.393351962169L134.6175,94.16484873990217L134.88890625,94.65526358783245L135.1603125,94.21291727821031L135.43171875,94.12575504680474L135.703125,94.87063789367676L135.97453125,94.21230918665727L136.2459375,94.24848697086175L136.51734375,94.97146386901537L136.78875,94.02226958672205L137.06015625,95.18103566269079L137.3315625,94.21477818489073L137.60296875,94.13911108175913L137.87437500000001,94.51861149569352L138.14578125,95.42866812646389L138.4171875,94.9248532851537L138.68859375,95.2505559126536L138.96,95.0957416643699L139.23140625,95.02199407915273L139.5028125,95.17094720403352L139.77421875000002,95.3624007999897L140.045625,95.41141444444655L140.31703125,95.45812759796777L140.5884375,95.92682332048813L140.85984375,95.21253920098145L141.13125,95.16934272150198L141.40265625,96.14099609603484L141.67406250000002,96.03263125071922L141.94546875,95.77973476548989L142.21687500000002,95.91863606373468L142.48828125,95.922024525702L142.7596875,96.363616215686L143.03109375,96.14923830082019L143.3025,96.31871268401542L143.57390625,95.87851667404173L143.8453125,95.65364002188046L144.11671875000002,96.39350428183873L144.388125,96.27643200506766L144.65953125000001,96.14185328533252L144.9309375,96.50962778925896L145.20234375,96.26614573349555L145.47375,96.34431480367978L145.74515625,96.21045040835936L146.01656250000002,96.17249230792125L146.28796875,96.69139954199393L146.55937500000002,96.17518476148446L146.83078125,96.97160519907871L147.1021875,96.87272438406943L147.37359375,97.31363105525573L147.645,96.41565932830174L147.91640625000002,96.73348240802684L148.1878125,97.12001983324686L148.45921875000002,97.38499023268619L148.730625,96.99571639547744L149.00203125000002,96.95266644408305L149.2734375,96.61952385306357L149.54484375,96.81779833137988L149.81625000000003,97.42490448306003L150.08765625,97.00765477120876L150.35906250000002,96.82101828604937L150.63046875,96.8233590722084L150.90187500000002,97.65059436609347L151.17328125,97.80455875148375L151.44468750000001,97.08384204904237L151.71609375000003,97.67483011136451L151.9875,97.43862317502499L152.25890625000002,98.08748616774876L152.5303125,98.03661894301572L152.80171875,97.82081604252258L153.07312499999998,97.80845273534456L153.34453125,97.28427781661351L153.61593749999997,98.09975056846936L153.88734374999999,97.67390332122643L154.15875,97.76289715369542L154.43015624999998,97.94250761717558L154.7015625,97.97982832044363L154.97296874999998,98.0969152500232L155.244375,98.1139198342959L155.51578124999997,97.82393342753251L155.7871875,97.94817459086576L156.05859375,97.93322506298621L156.32999999999998,98.36102846016486L156.60140625,98.27449263632296L156.87281249999998,97.75908009707928L157.14421875,98.70216782142718L157.41562499999998,98.38334468752146L157.68703125,98.78926045199235L157.9584375,98.52316178629795L158.22984375,98.54008578012386L158.50125,98.59541844824949L158.77265624999998,98.34854060411452L159.0440625,98.48159909496704L159.31546874999998,98.51232603440681L159.586875,98.64202536890903L159.85828125,98.68387012680371L160.1296875,98.38531549026568L160.40109375,98.47717760999997L160.67249999999999,99.34618073453505L160.94390625,98.55856297165155L161.21531249999998,99.51947583754857L161.48671875,99.05621630698441L161.758125,98.65092328687508L162.02953125,98.84587157766023L162.3009375,98.93858722349007L162.57234375,98.96709059923887L162.84375,99.24427045136689L163.11515624999998,98.9267770598332L163.3865625,99.04942106703916L163.65796874999998,98.85054582357407L163.929375,98.88476379464069L164.20078125,99.04040958980718L164.4721875,99.10083777209123L164.74359375,98.91644682983556L165.015,99.05329307168722L165.28640625,99.36436853309472L165.55781249999998,99.16083003332217L165.82921875,98.75280426442622L166.100625,99.23534689098597L166.37203125,99.54557981590429L166.6434375,99.40659792721272L166.91484375,99.08204920838276L167.18625,99.03198056171337L167.45765624999999,98.79145837326844L167.7290625,99.99513897051413L168.00046875,98.89995143065849L168.271875,99.48193900535503L168.54328125,99.74296413610378L168.8146875,99.29511203368504L169.08609375,99.1591962451736L169.3575,99.3763178984324L169.62890625,99.34878893444935L169.9003125,99.05209886779387L170.17171875,99.80249483386675L170.443125,99.82925452540317L170.71453125,99.38920504351456L170.9859375,99.2606889232993L171.25734375,99.56245252490042L171.52875,99.7288315022985L171.80015625000001,99.40093095352252L172.0715625,99.76984837651253L172.34296875,99.99842852602401L172.614375,99.44973213225602L172.88578125,99.99795230974753L173.1571875,99.85851252079009L173.42859375,99.93698563675085L173.70000000000002,99.76619616399208L173.97140625,99.59491215894619L174.2428125,99.50381931165853L174.51421875,100.15322079509495L174.785625,100.03047421822944L175.05703125,99.99495581040779L175.3284375,100.52351924528678L175.59984375000002,100.18673909455538L175.87125,99.86153832574685L176.14265625000002,100.11978308608134L176.4140625,100.13239549100399L176.68546875,100.07522023220857L176.956875,100.30960289388895L177.22828125,100.3399854923288L177.4996875,100.23899467289448L177.77109375,100.11285597085953L178.04250000000002,100.38359225044647L178.31390625,99.82641920695701L178.58531250000001,100.19530366112788L178.85671875,100.35031938552856L179.128125,100.12212387224038L179.39953125,100.406772993505L179.6709375,99.74890951315561L179.94234375000002,99.96768693377574L180.21375,99.95123549302419L180.48515625000002,100.18384516487518L180.7565625,100.69425010681152L181.02796875,100.40321968744198L181.299375,100.07317982862392L181.57078125,100.02484021335839L181.84218750000002,100.63059098025163L182.11359375,100.518672828873L182.38500000000002,100.56708570818105L182.65640625,100.16312243044376L182.92781250000002,100.66391146679719L183.19921875,100.50221772491932L183.470625,100.64580792188643L183.74203125000003,100.94045392175515L184.0134375,100.49907836069663L184.28484375000002,100.46813529233137L184.55625,100.42935663461685L184.82765625000002,100.83309645702441L185.0990625,100.8540060147643L185.37046875000001,100.73786785453558L185.64187500000003,100.8153116106987L185.91328125,99.99555291235447L186.18468750000002,100.74912121146917L186.45609375,100.8455366914471L186.7275,100.45632146547237L186.99890624999998,100.9619569182396L187.2703125,101.11569052189589L187.54171874999997,100.92976103474696L187.81312499999999,100.55081010113159L188.08453125,100.65610884626706L188.35593749999998,101.11415564020474L188.62734375,100.47972566386063L188.89874999999998,101.18177102506161L189.17015625,100.8788901468118L189.44156249999997,101.1740819637974L189.71296875,100.47012074788411L189.984375,100.70926190912724L190.25578124999998,101.10402322312196L190.5271875,100.66430709262688L190.79859374999998,101.06396610786517L191.07,101.49256075670321L191.34140624999998,101.17163494477668L191.6128125,100.95706654340027L191.88421875,100.87252350151539L192.155625,100.79593327144781L192.42703125,100.99027347067991L192.69843749999998,101.17176682005325L192.96984375,101.39909415443738L193.24124999999998,101.07427069544791L193.51265625,100.93235824505487L193.7840625,100.87298872818549L194.05546875,100.8066115056475L194.326875,100.91688854247332L194.59828124999999,101.11284421384333L194.8696875,101.1897348264853L195.14109374999998,101.09142913420995L195.4125,101.68691560874382L195.68390625,101.1738218764464L195.9553125,101.48198509216309L196.22671875,101.68653463572262L196.498125,101.50004834185043L196.76953125,101.32275302211443L197.04093749999998,101.63871153195699L197.31234375,101.40903608500956L197.58374999999998,101.63513258347908L197.85515625,101.311331157883L198.1265625,101.651305620869L198.39796875,101.3412961512804L198.669375,101.306305244565L198.94078125,101.82442855338255L199.2121875,101.42346543818712L199.48359374999998,101.12014863888422L199.755,101.79365399231513L200.02640625,101.74908014883597L200.2978125,101.45247433582941L200.56921875,101.85514084001382L200.840625,101.91869739691415L201.11203125,101.73570213466883L201.38343749999999,101.6866262157758L201.65484375,101.64222820599873L201.92625,101.72825118154287L202.19765625,101.88085285574196L202.4690625,101.94135796527067L202.74046875,101.38591395318508L203.011875,102.01078663518031L203.28328125,101.7674547707041L203.5546875,101.65430944661298L203.82609375,102.09015723566213L204.0975,101.74713865170875L204.36890625,101.77297521630922L204.6403125,101.9371819148461L204.91171875,101.67530692120393L205.183125,102.16643609354892L205.45453125,102.23320894191662L205.72593750000001,102.11238188296556L205.99734375,102.07400984068711L206.26875,101.7269727240006L206.54015625,101.94891881446043L206.8115625,101.81143517543872L207.08296875,101.78536782910426L207.354375,102.22345017145076L207.62578125000002,101.37214031318823L207.8971875,101.6790323977669L208.16859375,101.5687443713347L208.44,101.98963164289792L208.71140625,102.09837746123472L208.9828125,102.79281068841615L209.25421875,102.18322454889615L209.52562500000002,101.98291699339946L209.79703125,101.85603099813063L210.06843750000002,102.09659714500108L210.33984375,102.21168762942155L210.61125,102.21436176697412L210.88265625,102.0552688986063L211.1540625,102.20302049318948L211.42546875,101.9589266826709L211.696875,102.25053588797648L211.96828125000002,102.28725582609573L212.2396875,102.06388475000858L212.51109375000001,102.3532337596019L212.7825,102.23848395297924L213.05390625,102.38325370103121L213.3253125,102.6570817232132L213.59671875,102.09496335685253L213.86812500000002,102.35832927376032L214.13953125,102.55872108290592L214.41093750000002,101.9330168540279L214.68234375,101.83289787669976L214.95375,102.78598614285389L215.22515625,102.39159481227398L215.4965625,102.56523791948953L215.76796875000002,102.25190958877404L216.039375,102.28585281968117L216.31078125000002,102.56097761541605L216.5821875,102.60989967981973L216.85359375000002,102.65931261330842L217.125,102.32056898623705L217.39640625,102.6141966159145L217.66781250000003,102.78801922003427L217.93921875,102.59926540404558L218.21062500000002,102.29834433893362L218.48203125,103.12005918721357L218.75343750000002,102.42786417653163L219.02484375,102.23749855160713L219.29625000000001,102.60551849007607L219.56765625000003,103.53345154722531L219.8390625,102.83409497638543L220.11046875000002,102.74604991326729L220.381875,102.46051429708798L220.65328125,103.17493761827548L220.92468749999998,102.42545378953218L221.19609375,103.02550095071395L221.46749999999997,103.07453291118145L221.73890624999999,103.31961212307213L222.0103125,102.7177516768376L222.28171874999998,102.73879310985406L222.553125,103.16037272661923L222.82453124999998,103.2256656413277L223.0959375,103.03175769994655L223.36734374999997,103.02976491798957L223.63875,102.49899623543024L223.91015625,102.78120200087626L224.18156249999998,103.12594595303138L224.45296875,103.03094813227654L224.72437499999998,103.1265796869993L224.99578125,102.67338663587967L225.26718749999998,103.0665507937471L225.53859375,103.12521697580814L225.81,102.68459969758986L226.08140625,102.83358945449193L226.3528125,102.92855796962976L226.62421874999998,103.07526921480894L226.895625,102.96605450659989L227.16703124999998,103.12957984954117L227.4384375,103.09576116750637L227.70984375,103.18461213509241L227.98125,103.25810695936282L228.25265625,103.19130114217599L228.52406249999999,103.25256087134281L228.79546875,103.31290846318007L229.06687499999998,102.6938785885771L229.33828125,102.7259059647719L229.6096875,102.85367112855116L229.88109375,102.57916175077358L230.1525,103.53336729357639L230.42390625,103.2998015259703L230.6953125,103.3455439309279L230.96671874999998,103.31808823098739L231.238125,103.26645906021197L231.50953124999998,103.45243616898854L231.7809375,103.48482986539602L232.05234375,103.3830624471108L232.32375,103.47371571014324L232.59515625,103.4104851782322L232.8665625,102.78009571383396L233.13796875,103.38184992720683L233.40937499999998,103.58428213993707L233.68078125,103.3468407044808L233.9521875,103.51711732894182L234.22359375,103.55714147537947L234.495,103.11052020887533L234.76640625,103.76868407179911L235.0378125,103.43548286954561L235.30921874999999,102.73400896787643L235.580625,103.62088119238614L235.85203125,103.57062205920616L236.1234375,103.77044607202211L236.39484375,103.45454617341359L236.66625,103.77322644243637L236.93765625,103.70213101555903L237.2090625,103.6040890738368L237.48046875,103.50164396315813L237.751875,103.93613636742035L238.02328125,103.42622962097326L238.2946875,103.40620655814806L238.56609375,103.9108895783623L238.8375,103.49466556310654L239.10890625,103.56847908596197L239.3803125,104.28726528088251L239.65171875000001,103.88234224418798L239.923125,103.5592771222194L240.19453125,103.21570173154274L240.4659375,103.5350743457675L240.73734375,103.99452780932188L241.00875,104.4907268534104L241.28015625,104.08013317982355L241.55156250000002,103.45842916766802L241.82296875,104.2738506346941L242.094375,104.03725539892912L242.36578125,103.48264659692843L242.6371875,104.11155246446529L242.90859375,103.69461778799692L243.18,104.45484945178032L243.45140625000002,103.95575281480947L243.7228125,103.87386925766864L243.99421875000002,103.72197824468215L244.265625,104.41818446169296L244.53703125,104.52148676166931L244.8084375,103.93672980616489L245.07984375,104.25193735957144L245.35125,104.19559364765881L245.62265625,104.22554765144983L245.89406250000002,103.89659576366344" style="fill: none;" fill="none"></path></g><g><path stroke="rgb(204, 51, 17)" stroke-width="2px" d="M37.996875,-53.83501570423442L40.7109375,29.974623809258162L43.425000000000004,30.109473605950683L46.1390625,10.968084921439498L48.853125,46.8273463745912L51.5671875,39.900656084219605L54.28125,50.57892691592376L56.9953125,50.10570713877679L59.709375,25.31358007589975L62.423437500000006,-18.5991433362166L65.1375,39.85740831991038L67.8515625,28.309185594320297L70.565625,27.15236101547879L73.27968750000001,41.99645461142063L75.99375,23.792310843865096L78.70781249999999,1.859547485907882L81.421875,35.45819562176865L84.1359375,3.4657150904337755L86.85000000000001,27.643786907196045L89.5640625,28.570577045281738L92.278125,-16.730763723452895L94.9921875,37.777713229258865L97.70625,25.79192100962004L100.4203125,21.24348410964012L103.134375,30.4499169588089L105.8484375,29.240210394064604L108.5625,17.751719842354447L111.2765625,11.055752674738557L113.990625,-7.001621236403764L116.70468749999999,9.315863539775222L119.41875,24.1973437766234L122.1328125,24.468450039625168L124.84687500000001,33.404040376345336L127.5609375,25.062064617872238L130.275,34.62465595702329L132.9890625,50.22931823134422L135.703125,42.37826284269491L138.4171875,43.663702448209136L141.13125,54.37322039405504L143.8453125,59.96414600809415L146.55937500000002,50.4163613319397L149.2734375,51.446094776193306L151.9875,63.27444989482561L154.7015625,54.870609978834764L157.41562499999998,32.82702743013701L160.1296875,43.90438948074976L162.84375,39.902590254942595L163.3865625,61.60225673516591L163.929375,45.16426726182303L164.4721875,55.22583068907261L165.015,64.67054751018682L165.55781249999998,60.184157927830995L166.100625,52.41350982586543L166.6434375,44.4419863720735L167.18625,48.46250456074873L167.7290625,52.28416215876739L168.271875,49.517873093485846L168.8146875,40.61309028665224L169.3575,59.85397154092787L169.9003125,41.28845288356146L170.443125,57.62464929620424L170.9859375,57.961121737957L171.52875,66.75477031866708L172.0715625,38.1852444658677L172.614375,-1.4120729863643646L173.1571875,51.05820562938848L173.70000000000002,49.00394781430562L174.2428125,57.504254495104135L174.785625,67.89524236321449L175.3284375,61.80947675307591L175.87125,56.24318251013756L176.4140625,55.3229934622844L176.956875,42.80388297140598L177.4996875,63.55094839135805L178.04250000000002,69.7486394792795L178.58531250000001,59.28106870750585L179.128125,66.77694734434286L179.6709375,67.51759552955627L180.21375,55.424009924133614L180.7565625,50.514923448363945L181.299375,55.23871050775051L181.84218750000002,59.52965360383192L182.38500000000002,56.533886904517786L182.92781250000002,38.225290591518075L183.470625,46.481591378649085L184.0134375,27.052209069331496L184.55625,62.10843800505002L185.0990625,59.13108988602956L185.64187500000003,52.0416948099931L186.18468750000002,59.32659498353799L186.7275,52.44450051585834L187.2703125,54.824351062377275L187.81312499999999,66.27546229958534L188.35593749999998,32.91062170267105L188.89874999999998,56.72769960264364L189.44156249999997,52.22922145326932L189.984375,55.82221464812754L190.5271875,53.8515877376L191.07,42.63012264172235L191.6128125,28.704489062229783L192.155625,47.25440247853598L192.69843749999998,48.91735704243183L193.24124999999998,60.58573279778162L193.7840625,58.67798108855881L194.326875,59.4471143335104L194.8696875,68.2165784537792L195.4125,48.13828186690807L195.9553125,53.32854108512403L196.498125,44.06425162156424L197.04093749999998,49.1892032722632L197.58374999999998,40.85113248725733L198.1265625,70.27330526709555L198.669375,57.13723827401796L199.2121875,57.19614256421724L199.755,30.32832795381546L200.2978125,47.384592682123184L200.840625,68.08129639923573L201.38343749999999,56.580541446805L201.92625,54.35097743074098L202.4690625,48.37520312766233L203.011875,50.24771483242512L203.5546875,53.954472432533905L204.0975,52.0355479568243L204.6403125,60.48051830629505L205.183125,64.5369285494089L205.72593750000001,54.554153273502976L206.26875,46.718417396148055L206.8115625,69.2312341580788L207.354375,54.448484544952706L207.8971875,43.8381514598926L208.44,53.08003677924475L208.9828125,41.32394198576611L209.52562500000002,65.81439702709515L210.06843750000002,55.225903953115136L210.61125,53.42754278580347L211.1540625,67.96476993958153L211.696875,64.3050991396109L212.2396875,56.70430639386177L212.7825,69.17697480817635L213.3253125,58.65729864935079L213.86812500000002,28.38603957494101L214.41093750000002,59.94315585990745L214.95375,54.34239821135998L215.4965625,62.35629758735497L216.039375,53.85911928117275L216.5821875,52.139231229821846L217.125,46.39517644047737L217.66781250000003,59.68092187245685L218.21062500000002,59.0554740677277L218.75343750000002,51.119439716140434L219.29625000000001,44.505403727293015L219.8390625,43.991134107112885L220.381875,46.44021917382875L220.92468749999998,65.52272554735342L221.46749999999997,64.52156507968901L222.0103125,59.94139019648233L222.553125,39.32801700135073L223.0959375,53.772689690192536L223.63875,52.78543473780155L224.18156249999998,53.090726003050804L224.72437499999998,55.71260431408882L225.26718749999998,45.85167446732521L225.81,50.60054713487625L226.3528125,56.53206262985864L226.895625,58.19946432113646L227.4384375,63.06311243772507L227.98125,66.32960442701975L228.52406249999999,57.215476945042596L229.06687499999998,50.23411702613035L229.6096875,50.841138924161584L230.1525,68.06118541955948L230.6953125,56.218331346909196L231.238125,42.687122066815704L231.7809375,48.28199661274752L232.32375,58.492630387345926L232.8665625,64.92253185808657L233.40937499999998,68.03272966543832L233.9521875,47.34434874355793L234.495,49.65843748549621L235.0378125,46.510398800174414L235.580625,44.81232878069082L236.1234375,69.3391154607137L236.66625,70.13326104978718L237.2090625,63.29819477101165L237.751875,51.670465906461075L238.2946875,58.616886203487695L238.8375,62.187709699074404L239.3803125,41.19415473441282L239.923125,47.71806129813194L240.4659375,45.25104119380316L241.00875,47.0239138007164L241.55156250000002,43.94088962674141L242.094375,51.873150880138084L242.6371875,33.88189776738486L243.18,44.262723912795394L243.7228125,61.424657369653374L244.265625,61.693814809123666L244.8084375,59.28968455890812L245.35125,45.190473809838295L245.89406250000002,43.004721691211074" style="fill: none;" fill="none"></path></g><g><path stroke="rgb(0, 153, 136)" stroke-width="2px" d="M37.996875,-17.81628773609799L40.7109375,22.10848335425058L43.425000000000004,12.002338757117599L46.1390625,27.546433647473663L48.853125,32.02600234746933L51.5671875,60.87925785779953L54.28125,43.76381776233515L56.9953125,49.1310169696808L59.709375,64.41437978545824L62.423437500000006,32.325124780337006L65.1375,56.914610827962534L67.8515625,47.59612062573433L70.565625,47.99061086277166L73.27968750000001,40.26194305717945L75.99375,40.95097672442594L78.70781249999999,28.799908151229232L81.421875,35.73868700861931L84.1359375,22.836229741573334L86.85000000000001,27.194942077000945L89.5640625,32.24066599210104L92.278125,25.409292221069336L94.9921875,52.428887948393836L97.70625,38.52624462544918L100.4203125,17.06881104906401L103.134375,16.657433450222015L105.8484375,29.769572407007217L108.5625,46.18323089182377L111.2765625,40.778593758742005L113.990625,37.29674944281578L116.70468749999999,37.686199113726616L119.41875,54.345892906188965L122.1328125,24.333380450805038L124.84687500000001,49.77058275540671L127.5609375,42.542938431104034L130.275,42.26644726097584L132.9890625,58.929313386480004L135.703125,65.34470857679844L138.4171875,61.444035708904266L141.13125,62.18226618071395L143.8453125,70.65042459964752L146.55937500000002,63.38150331377982L149.2734375,70.45936662952104L151.9875,71.11922655502953L154.7015625,76.42661299804847L157.41562499999998,49.6007713576158L160.1296875,72.86808320879935L162.84375,67.4409100562334L163.3865625,63.11397233605385L163.929375,71.4762422343095L164.4721875,68.1201116889715L165.015,73.89819029966989L165.55781249999998,78.01072812577087L166.100625,79.02219684422016L166.6434375,74.15081937114397L167.18625,73.84346938629943L167.7290625,71.95686167975265L168.271875,76.3785151541233L168.8146875,64.69295898079872L169.3575,73.83858267466226L169.9003125,72.23201944430667L170.443125,81.45434326430161L170.9859375,64.05909313758214L171.52875,72.44676367938519L172.0715625,79.87079226970671L172.614375,73.50509207944074L173.1571875,74.31893836955228L173.70000000000002,65.42356266578037L174.2428125,72.75756440063317L174.785625,79.80236365397771L175.3284375,81.34184632698694L175.87125,84.61382579306762L176.4140625,70.07160203158854L176.956875,81.8730838994185L177.4996875,79.8252000560363L178.04250000000002,85.31896289686362L178.58531250000001,70.41862449546655L179.128125,76.33608794709046L179.6709375,85.69316632052262L180.21375,61.967573230465234L180.7565625,76.14897890885669L181.299375,73.47197673221427L181.84218750000002,68.56283897161484L182.38500000000002,72.54001415272552L182.92781250000002,67.17789214352766L183.470625,69.16445398330688L184.0134375,78.96990829706192L184.55625,72.89240687092145L185.0990625,77.97432322303453L185.64187500000003,80.20994617541629L186.18468750000002,63.322848121325165L186.7275,78.71615095933278L187.2703125,73.32659889260927L187.81312499999999,72.00758237640062L188.35593749999998,73.19459174076715L188.89874999999998,82.84693153202534L189.44156249999997,78.12127623955409L189.984375,76.41352071364719L190.5271875,68.27242763340472L191.07,66.58344968159993L191.6128125,62.35411431888738L192.155625,68.03432682156561L192.69843749999998,72.31874209145704L193.24124999999998,75.79662282268205L193.7840625,68.89752377072968L194.326875,75.7642034838597L194.8696875,62.4721646706263L195.4125,71.87391213079292L195.9553125,67.08288333316642L196.498125,72.94396277765432L197.04093749999998,68.28804752727349L197.58374999999998,76.85223312675951L198.1265625,87.39134623606998L198.669375,73.96736620863277L199.2121875,86.39352660874525L199.755,74.23823802669841L200.2978125,77.45663949847221L200.840625,69.09311678508917L201.38343749999999,84.91847233474255L201.92625,64.16418308019637L202.4690625,75.79627848168212L203.011875,66.96319919327894L203.5546875,72.51837928096452L204.0975,75.67247690260409L204.6403125,85.82302683591843L205.183125,81.42260528107482L205.72593750000001,72.93491466840106L206.26875,73.25064605971177L206.8115625,71.23118133842944L207.354375,74.26965364813803L207.8971875,66.22343750298023L208.44,74.81959553062916L208.9828125,73.6448066085577L209.52562500000002,78.00245661536853L210.06843750000002,64.58455750346184L210.61125,80.5110101054112L211.1540625,81.60698889692624L211.696875,79.64711714784303L212.2396875,61.96275245646635L212.7825,66.80036985874175L213.3253125,74.58853539327781L213.86812500000002,77.9965954919656L214.41093750000002,72.41996369262536L214.95375,55.52384683489798L215.4965625,73.96209852397442L216.039375,71.17359580099583L216.5821875,81.22585469484329L217.125,75.57548263669013L217.66781250000003,69.30791963140167L218.21062500000002,59.54092161357403L218.75343750000002,78.62222645680109L219.29625000000001,62.75055337945618L219.8390625,71.11876499156155L220.381875,75.9462792823712L220.92468749999998,81.95580632984637L221.46749999999997,83.25351033608118L222.0103125,65.12589818735917L222.553125,82.55589012304941L223.0959375,69.32855811218418L223.63875,76.26110219955443L224.18156249999998,75.98814968268076L224.72437499999998,73.25631669660409L225.26718749999998,72.00977297127245L225.81,63.54898491501807L226.3528125,69.04204442103703L226.895625,82.71686587731044L227.4384375,73.07490760087967L227.98125,64.49672124286492L228.52406249999999,79.95556609332561L229.06687499999998,71.07034478584924L229.6096875,67.07634085416794L230.1525,77.47921214997768L230.6953125,84.85997832318147L231.238125,69.60750362773734L231.7809375,61.228287756443024L232.32375,65.08177858094372L232.8665625,65.96689613163471L233.40937499999998,74.6903138011694L233.9521875,66.85827775796254L234.495,71.4511786053578L235.0378125,71.50384079913296L235.580625,71.95089798669018L236.1234375,74.96872448921202L236.66625,73.09008058408895L237.2090625,83.24720962842305L237.751875,63.71007056534289L238.2946875,69.46391343077023L238.8375,52.63552185396354L239.3803125,75.04140974581242L239.923125,82.25499470035234L240.4659375,62.60456012189387L241.00875,82.58599431812763L241.55156250000002,49.33807580669722L242.094375,70.56635411083698L242.6371875,69.12478150427341L243.18,66.52872144182523L243.7228125,77.25500952700773L244.265625,80.48648130397001L244.8084375,75.39276211460431L245.35125,71.18342050909996L245.89406250000002,70.36607219775517" style="fill: none;" fill="none"></path></g><g><path stroke="rgb(0, 119, 187)" stroke-width="2px" d="M36.3684375,-37.75070106983185L36.91125,8.706804901361465L37.454062500000006,3.7935423751672204L37.996875,-15.612358808517456L39.082499999999996,-27.427299280961364L39.6253125,36.5068531682094L40.168124999999996,8.111475944519043L40.7109375,22.8520547747612L41.25375,7.851198107004166L41.7965625,37.09240870177746L42.339375,-1.8075229823589325L42.8821875,-3.0069579283396592L43.425000000000004,12.331924378871918L43.9678125,-22.826976786057145L44.510625000000005,18.93704413374266L45.0534375,38.836649720867484L45.596250000000005,27.84009058276814L46.1390625,28.80505128701529L46.681875,14.467073023319244L47.224687499999995,35.777868618567794L47.7675,11.512436757485062L48.310312499999995,19.9645576775074L48.853125,30.535958250363677L49.395937499999995,10.53062532345453L49.93875,36.91670687496662L50.4815625,-5.8796703418096L51.024375,36.60101211567721L51.5671875,61.16607925792535L52.11,37.5767133285602L52.6528125,32.12936325867972L53.195625,44.28713549176851L53.7384375,50.956478506326675L54.28125,44.471570392449706L54.824062500000004,53.898308217525496L55.36687499999999,68.18219563861686L55.9096875,28.11072795589766L56.4525,46.06787665685019L56.9953125,48.02618055542311L57.538125,55.19999778767425L58.0809375,38.81702228387198L58.62375,25.279175281524658L59.1665625,48.038159226377815L59.709375,62.9735617985328L60.2521875,61.13005532821019L60.795,59.38055395086606L61.3378125,7.23512077331543L61.880625,63.34429983297983L62.423437500000006,30.190635512272536L62.96625,53.7121516118447L63.509062500000006,65.72481708228588L64.051875,33.66270640492439L64.59468749999999,62.31481548647085L65.1375,58.819805622100816L65.6803125,41.65541781981787L66.223125,64.90835526585577L66.76593749999999,53.84064941604933L67.30875,39.88003225624561L67.8515625,48.67749056716761L68.394375,44.09778457383314L68.93718750000001,48.33705454071364L69.48,54.430417632063225L70.0228125,53.690179725488036L70.565625,49.33058822154999L71.10843750000001,43.474131738146156L71.65125,43.326123719414085L72.1940625,40.832486788431794L72.736875,47.78197684884071L73.27968750000001,41.14267209172249L73.8225,40.00040507813296L74.3653125,41.18846211830774L74.90812500000001,27.219500184059143L75.45093750000001,47.52742825945219L75.99375,42.7772661447525L76.53656249999999,40.0441437115272L77.079375,53.97633442282677L77.6221875,37.61026826004189L78.16499999999999,40.40230230987072L78.70781249999999,29.55363396803537L79.250625,44.4519429554542L79.7934375,45.348782752950996L80.33624999999999,43.83881816267967L80.8790625,37.48470834394297L81.421875,36.90944640835127L81.9646875,39.702616050839424L82.5075,43.236741587519646L83.0503125,52.28848473727703L83.593125,57.03255861004193L84.1359375,24.572206576665252L84.67875,17.93838196992874L85.2215625,50.871799925963074L85.764375,36.5604604681333L86.3071875,20.88122272491455L86.85000000000001,28.836027324199677L87.3928125,19.63418080409369L87.935625,28.577625046173722L88.4784375,46.940173000097275L89.02125000000001,23.65269888440767L89.5640625,32.52717235684395L90.106875,38.70273770391941L90.6496875,29.736295878887177L91.19250000000001,37.97181898355484L91.7353125,43.713690504431725L92.278125,25.615882168213545L92.82093750000001,36.67908960580826L93.36375,35.32307474811873L93.90656249999999,43.643217821915954L94.44937499999999,46.792729114492744L94.9921875,53.90407409767309L95.535,29.59328446785608L96.0778125,16.196617275476456L96.62062499999999,46.57440959413847L97.1634375,47.60269973675409L97.70625,40.006779049833625L98.2490625,33.70689927538237L98.79187499999999,21.82647540171942L99.3346875,42.280140310525894L99.8775,21.63796702027321L100.4203125,19.073857406775147L100.963125,41.67755088706812L101.5059375,38.12351951003075L102.04875,35.29431128501892L102.5915625,37.63801335295042L103.134375,19.204882820447295L103.6771875,51.80139607687792L104.22,39.899952749411284L104.76281250000001,22.879528790712357L105.305625,38.63107081751028L105.8484375,31.837347437938064L106.39125,37.66294510662556L106.93406250000001,33.94809915622076L107.476875,44.0353049983581L108.0196875,46.12358663479486L108.5625,47.77122168739638L109.10531250000001,40.86078136165938L109.64812500000001,51.78593736390273L110.1909375,38.39639876286188L110.73374999999999,25.38252153992653L111.2765625,43.03908985356489L111.819375,38.08306310574213L112.36218749999999,39.844631070892035L112.905,24.978778054316848L113.4478125,43.099496056636184L113.990625,37.49422534306845L114.53343749999999,47.5013316075007L115.07625,40.216446086764336L115.6190625,58.27892650167145L116.161875,36.795000647505134L116.70468749999999,39.66514149308205L117.2475,43.00408429404101L117.7903125,38.65663264195126L118.333125,46.84690054754415L118.8759375,39.827106311917305L119.41875,55.1053406447172L119.9615625,48.42354274292788L120.504375,48.537277842561394L121.0471875,56.10932910442352L121.59,58.31618126730122L122.1328125,27.240688145160675L122.675625,53.32373496393363L123.21843750000001,56.81377752621968L123.76125,47.27130449314913L124.3040625,67.31455156207083L124.84687500000001,51.533213049173355L125.38968750000001,49.71399360895157L125.9325,51.832071731487915L126.4753125,52.60995270311834L127.01812500000001,62.6262536048889L127.5609375,45.62454128265381L128.10375,55.63497373461723L128.6465625,45.873470519979804L129.18937499999998,56.87807404994963L129.73218749999998,38.62335611383119L130.275,43.4958838323752L130.8178125,51.11196678380172L131.360625,53.97808543344338L131.9034375,48.70395353933176L132.44625,13.723428338766098L132.9890625,61.43122915426889L133.53187499999999,53.84352869292101L134.0746875,55.96868412196636L134.6175,51.33951024711132L135.1603125,69.59981822967528L135.703125,66.30098016560078L136.2459375,45.2158085157474L136.78875,59.60136444866656L137.3315625,56.90407545864582L137.87437500000001,55.9437377154827L138.4171875,62.70548866689205L138.96,60.52949531873067L139.5028125,52.52415318290393L140.045625,58.86249657968679L140.5884375,59.433604444066674L141.13125,61.67119819919267L141.67406250000002,67.41466687619686L142.21687500000002,55.04167419175306L142.7596875,76.64625859757264L143.3025,44.60954123735428L143.8453125,71.64052219688891L144.388125,66.523226638635L144.9309375,67.36548472444215L145.47375,69.22776876886684L146.01656250000002,59.61200238764286L146.55937500000002,62.35367473463215L147.1021875,63.969776943325996L147.645,61.927219395836175L148.1878125,71.5977433224519L148.730625,63.707630872726426L149.2734375,71.40025276939072L149.81625000000003,73.7994963079691L150.35906250000002,66.69518467287222L150.90187500000002,57.210839331150055L151.44468750000001,59.386715456843376L151.9875,70.66745116313297L152.5303125,61.98686365286507L153.07312499999998,66.09702772398789L153.61593749999997,64.18729055921236L154.15875,78.0155782053868L154.7015625,76.60466660062471L155.244375,69.4012726744016L155.7871875,69.54284811019896L156.32999999999998,59.06876416504383L156.87281249999998,71.18750864267349L157.41562499999998,50.23976568380992L157.9584375,72.35563053687413L158.50125,64.27514879902203L159.0440625,69.96952324112256L159.586875,69.47816328704356L160.1296875,72.11469440658887L160.67249999999999,60.950052902102456L161.21531249999998,75.25415387252966L161.758125,71.19758244852224L162.3009375,71.90715935329595L162.84375,66.26978433628877L163.11515624999998,59.60209708909191L163.3865625,64.86397923529147L163.65796874999998,81.73380895455678L163.929375,71.2334158917268L164.20078125,68.06578640143074L164.4721875,70.4987533787886L164.74359375,74.79089067876338L165.015,73.19591781993707L165.28640625,74.02939154704411L165.55781249999998,79.72109185159206L165.82921875,59.145178561409296L166.100625,79.68136076132457L166.37203125,67.39194037020206L166.6434375,74.29125921428204L166.91484375,68.59587372839451L167.18625,72.87228856484094L167.45765624999999,65.40920291344324L167.7290625,71.99884197612603L168.00046875,65.59137395521003L168.271875,76.11907252669333L168.54328125,68.20969896018505L168.8146875,66.05545037984848L169.08609375,74.34303491314252L169.3575,74.84918687740962L169.62890625,74.62569491565228L169.9003125,73.44631233811378L170.17171875,70.86803345878917L170.443125,79.88318121929963L170.71453125,70.41268278161684L170.9859375,65.3285611818234L171.25734375,75.01784070332845L171.52875,73.43878812094529L171.80015625000001,69.41618190705775L172.0715625,80.23373501002789L172.34296875,65.11534816523393L172.614375,72.21365947524704L172.88578125,81.55407760540643L173.1571875,73.2837027957042L173.42859375,82.74638396004835L173.70000000000002,66.99712777137755L173.97140625,67.9334056029717L174.2428125,71.47728991011778L174.51421875,75.77591107785702L174.785625,79.90895550946394L175.05703125,77.3118770768245L175.3284375,81.54550571242967L175.59984375000002,61.28192436198391L175.87125,85.61683251460391L176.14265625000002,74.62721148133278L176.4140625,70.82574545343716L176.68546875,65.58025247355302L176.956875,82.02384664614995L177.22828125,82.0013326058785L177.4996875,79.87038199106851L177.77109375,69.12553612391152L178.04250000000002,85.48521366218725L178.31390625,60.29673545559247L178.58531250000001,71.64164313673972L178.85671875,71.238822778066L179.128125,78.00037591656047L179.39953125,82.04049223661423L179.6709375,86.51086629927158L179.94234375000002,72.22141081094742L180.21375,62.22840054829915L180.48515625000002,71.58640204866727L180.7565625,75.11796334385872L181.02796875,82.44624315698941L181.299375,74.04012472927569L181.57078125,84.25765997668105L181.84218750000002,67.96737081309158L182.11359375,80.7805778235197L182.38500000000002,73.81175338228542L182.65640625,84.58078370988368L182.92781250000002,66.34861644605795L183.19921875,69.44192689160505L183.470625,68.50951740145683L183.74203125000003,73.12041189769903L184.0134375,79.27765390773612L184.28484375000002,75.022969186306L184.55625,74.15678306420644L184.82765625000002,77.65906804800034L185.0990625,78.13545283178489L185.37046875000001,62.79876111944516L185.64187500000003,78.87414486706255L185.91328125,84.23154134551683L186.18468750000002,64.38584344089031L186.45609375,70.3670319567124L186.7275,78.89941363533337L186.99890624999998,66.21578873693943L187.2703125,74.61155495544274L187.54171874999997,70.41500525176524L187.81312499999999,74.51054581999779L188.08453125,72.45890353123346L188.35593749999998,73.01591539382933L188.62734375,77.6174613982439L188.89874999999998,82.78703817725182L189.17015625,65.57987882693608L189.44156249999997,76.69786578913529L189.71296875,75.63446019093195L189.984375,76.2492554038763L190.25578124999998,71.50304222106932L190.5271875,70.12224946419396L190.79859374999998,83.93085106213887L191.07,67.68558997909226L191.34140624999998,81.74044667681058L191.6128125,64.0386451433102L191.88421875,75.682352895538L192.155625,69.29221182068189L192.42703125,79.49272783100605L192.69843749999998,74.84359683096409L192.96984375,77.87997378905612L193.24124999999998,77.29542197287083L193.51265625,78.35946496824423L193.7840625,70.49485573172568L194.05546875,80.4096932609876L194.326875,77.55015372236568L194.59828124999999,66.72536213199297L194.8696875,65.19338169693947L195.14109374999998,73.77706285814443L195.4125,72.28001471857229L195.68390625,73.29962307214737L195.9553125,69.73783303300537L196.22671875,83.7951367497444L196.498125,73.35553086300689L196.76953125,78.43297810852528L197.04093749999998,68.67464722692965L197.31234375,72.02227914333344L197.58374999999998,75.23075333734353L197.85515625,69.93459827204545L198.1265625,87.61623021463554L198.39796875,72.59531385203202L198.669375,73.85719906787077L198.94078125,69.4762144635121L199.2121875,86.00745441019535L199.48359374999998,73.71831242243448L199.755,74.01303901274999L200.02640625,79.79171838859716L200.2978125,78.62114214897154L200.56921875,81.64776033659776L200.840625,70.30014921228089L201.11203125,72.36725754042465L201.38343749999999,84.23572472234567L201.65484375,81.447075471282L201.92625,64.94404950737953L202.19765625,79.85594164828458L202.4690625,75.43445668121178L202.74046875,85.15055816868941L203.011875,67.05228826900321L203.28328125,68.0160767485698L203.5546875,72.347827916344L203.82609375,68.53937249879041L204.0975,76.45584535102049L204.36890625,67.24342682957649L204.6403125,85.35966839889684L204.91171875,82.25042302409808L205.183125,83.02705118060112L205.45453125,77.06670628488064L205.72593750000001,72.66129544874032L205.99734375,73.66529123485088L206.26875,71.82901592552662L206.54015625,74.40309677521387L206.8115625,70.34558757146199L207.08296875,75.77707597613335L207.354375,75.35324349006015L207.62578125000002,81.08410342534383L207.8971875,68.45941212276617L208.16859375,79.75019965569179L208.44,74.58498941361904L208.71140625,67.27353835105895L208.9828125,74.41884854435921L209.25421875,74.84184582034746L209.52562500000002,78.60874587297438L209.79703125,78.65364207824071L210.06843750000002,64.64318339029947L210.33984375,58.679475675026566L210.61125,79.33405989408492L210.88265625,69.95466529329616L211.1540625,81.21353168288866L211.42546875,65.6821114718914L211.696875,80.35517748693626L211.96828125000002,71.62327584127584L212.2396875,62.21802635987599L212.51109375000001,67.03017718096574L212.7825,68.68174651265144L213.05390625,85.07008494436741L213.3253125,73.06495834390321L213.59671875,81.9223319888115L213.86812500000002,76.73458572725454L214.13953125,69.8186212927103L214.41093750000002,71.67234077056247L214.68234375,65.52107710639635L214.95375,55.837482874592126L215.22515625,66.61975201467672L215.4965625,74.16471756001312L215.76796875000002,67.4098241229852L216.039375,71.4424528578917L216.31078125000002,69.16151609520116L216.5821875,82.22598946591216L216.85359375000002,64.33921820422012L217.125,74.89391457537809L217.39640625,69.8157127102216L217.66781250000003,68.41886780162652L217.93921875,65.15926263233025L218.21062500000002,57.94933355351287L218.48203125,61.73156044383843L218.75343750000002,78.06512667735416L219.02484375,75.1127176384131L219.29625000000001,63.6633061269919L219.56765625000003,75.61382903655368L219.8390625,71.52960776289304L220.11046875000002,67.90873027344544L220.381875,75.28622154394786L220.65328125,82.16368572413921L220.92468749999998,82.19192901253699L221.19609375,64.75846436123052L221.46749999999997,82.98452140390873L221.73890624999999,73.19413017729917L222.0103125,65.76594018936156L222.28171874999998,79.00416656335194L222.553125,80.95055040220419L222.82453124999998,61.5995386391878L223.0959375,68.26756290098031L223.36734374999997,68.99725811183453L223.63875,75.88597564895947L223.91015625,78.67209729055563L224.18156249999998,74.80034906665483L224.45296875,72.72783385217188L224.72437499999998,72.7737117956082L224.99578125,73.95897747576237L225.26718749999998,72.57715169588724L225.53859375,76.156613022089L225.81,63.986561735471085L226.08140625,78.98005536695321L226.3528125,69.36980576813221L226.62421874999998,75.97992213070393L226.895625,84.22779022653896L227.16703124999998,73.28143161038557L227.4384375,74.44551665584247L227.70984375,77.3502674351136L227.98125,62.73549761871496L228.25265625,61.88371520737806L228.52406249999999,79.26810760299364L228.79546875,62.27458620071411L229.06687499999998,70.50073150793709L229.33828125,64.08790055910744L229.6096875,67.57285859684148L229.88109375,75.82276343305905L230.1525,77.39330273369947L230.42390625,57.2156527787447L230.6953125,85.30184109012285L230.96671874999998,83.17219457527L231.238125,71.58852670590082L231.50953124999998,58.5325739433368L231.7809375,62.59928511083125L232.05234375,76.02916289369264L232.32375,66.39926387866338L232.59515625,63.37079211076099L232.8665625,66.65515320003033L233.13796875,65.27563523749508L233.40937499999998,73.85610743363698L233.68078125,68.18982975184917L233.9521875,67.26133988797663L234.22359375,72.6785711099704L234.495,70.94636004666486L234.76640625,77.66520757476488L235.0378125,72.08433378736177L235.30921874999999,57.77938295404114L235.580625,70.86086823542912L235.85203125,69.10464121898015L236.1234375,75.79594879349071L236.39484375,65.56091076632339L236.66625,72.08166697621346L236.93765625,72.63435626029968L237.2090625,82.68008732795715L237.48046875,84.53169680138427L237.751875,63.33956697583197L238.02328125,80.31861872971058L238.2946875,69.9433899571498L238.56609375,75.50174237787724L238.8375,52.55367126564184L239.10890625,83.24855036040145L239.3803125,74.45652824143569L239.65171875000001,77.08963060379028L239.923125,82.34258186320463L240.19453125,80.07178484400113L240.4659375,61.92806193232536L240.73734375,69.15758914252122L241.00875,80.98231769104798L241.28015625,68.68568079173565L241.55156250000002,50.96536543468633L241.82296875,75.08418129384516L242.094375,70.7186187704404L242.36578125,72.97534176707268L242.6371875,69.90152688324451L242.90859375,86.06246837973593L243.18,69.29336206614971L243.45140625000002,73.52678556243578L243.7228125,75.06184308727582L243.99421875000002,72.65286275744437L244.265625,80.17618610461551L244.53703125,62.84291735788186L244.8084375,74.18979584177335L245.07984375,68.24072628219922L245.35125,69.89302825431028L245.62265625,72.91171927253404L245.89406250000002,70.07007081309953" style="fill: none;" fill="none"></path></g></g></g></g></g></g><g transform="translate(58, 177)" clip-path="url(#clip_1)"><clipPath id="clip_1"><rect width="271" height="23"></rect></clipPath><g><g><line x1="0" y1="0" x2="0" y2="5" style="visibility: inherit;" fill="rgb(0, 0, 0)" stroke="rgb(204, 204, 204)" stroke-width="1px"></line><line x1="27.140625" y1="0" x2="27.140625" y2="5" style="visibility: inherit;" fill="rgb(0, 0, 0)" stroke="rgb(204, 204, 204)" stroke-width="1px"></line><line x1="54.28125" y1="0" x2="54.28125" y2="5" style="visibility: inherit;" fill="rgb(0, 0, 0)" stroke="rgb(204, 204, 204)" stroke-width="1px"></line><line x1="81.421875" y1="0" x2="81.421875" y2="5" style="visibility: inherit;" fill="rgb(0, 0, 0)" stroke="rgb(204, 204, 204)" stroke-width="1px"></line><line x1="108.5625" y1="0" x2="108.5625" y2="5" style="visibility: inherit;" fill="rgb(0, 0, 0)" stroke="rgb(204, 204, 204)" stroke-width="1px"></line><line x1="135.703125" y1="0" x2="135.703125" y2="5" style="visibility: inherit;" fill="rgb(0, 0, 0)" stroke="rgb(204, 204, 204)" stroke-width="1px"></line><line x1="162.84375" y1="0" x2="162.84375" y2="5" style="visibility: inherit;" fill="rgb(0, 0, 0)" stroke="rgb(204, 204, 204)" stroke-width="1px"></line><line x1="189.984375" y1="0" x2="189.984375" y2="5" style="visibility: inherit;" fill="rgb(0, 0, 0)" stroke="rgb(204, 204, 204)" stroke-width="1px"></line><line x1="217.125" y1="0" x2="217.125" y2="5" style="visibility: inherit;" fill="rgb(0, 0, 0)" stroke="rgb(204, 204, 204)" stroke-width="1px"></line><line x1="244.265625" y1="0" x2="244.265625" y2="5" style="visibility: inherit;" fill="rgb(0, 0, 0)" stroke="rgb(204, 204, 204)" stroke-width="1px"></line><line x1="271.40625" y1="0" x2="271.40625" y2="5" style="visibility: inherit;" fill="rgb(0, 0, 0)" stroke="rgb(204, 204, 204)" stroke-width="1px"></line></g><g transform="translate(0, 8)"><text x="0" y="0" dx="0em" dy="0.95em" style="text-anchor: middle; visibility: hidden; font-family: &quot;Helvetica Neue&quot;, sans-serif; font-size: 12px; font-weight: 200;" fill="rgb(50, 49, 63)" stroke="none" stroke-width="1px">-100</text><text x="27.140625" y="0" dx="0em" dy="0.95em" style="text-anchor: middle; visibility: inherit; font-family: &quot;Helvetica Neue&quot;, sans-serif; font-size: 12px; font-weight: 200;" fill="rgb(50, 49, 63)" stroke="none" stroke-width="1px">0</text><text x="54.28125" y="0" dx="0em" dy="0.95em" style="text-anchor: middle; visibility: inherit; font-family: &quot;Helvetica Neue&quot;, sans-serif; font-size: 12px; font-weight: 200;" fill="rgb(50, 49, 63)" stroke="none" stroke-width="1px">100</text><text x="81.421875" y="0" dx="0em" dy="0.95em" style="text-anchor: middle; visibility: inherit; font-family: &quot;Helvetica Neue&quot;, sans-serif; font-size: 12px; font-weight: 200;" fill="rgb(50, 49, 63)" stroke="none" stroke-width="1px">200</text><text x="108.5625" y="0" dx="0em" dy="0.95em" style="text-anchor: middle; visibility: inherit; font-family: &quot;Helvetica Neue&quot;, sans-serif; font-size: 12px; font-weight: 200;" fill="rgb(50, 49, 63)" stroke="none" stroke-width="1px">300</text><text x="135.703125" y="0" dx="0em" dy="0.95em" style="text-anchor: middle; visibility: inherit; font-family: &quot;Helvetica Neue&quot;, sans-serif; font-size: 12px; font-weight: 200;" fill="rgb(50, 49, 63)" stroke="none" stroke-width="1px">400</text><text x="162.84375" y="0" dx="0em" dy="0.95em" style="text-anchor: middle; visibility: inherit; font-family: &quot;Helvetica Neue&quot;, sans-serif; font-size: 12px; font-weight: 200;" fill="rgb(50, 49, 63)" stroke="none" stroke-width="1px">500</text><text x="189.984375" y="0" dx="0em" dy="0.95em" style="text-anchor: middle; visibility: inherit; font-family: &quot;Helvetica Neue&quot;, sans-serif; font-size: 12px; font-weight: 200;" fill="rgb(50, 49, 63)" stroke="none" stroke-width="1px">600</text><text x="217.125" y="0" dx="0em" dy="0.95em" style="text-anchor: middle; visibility: inherit; font-family: &quot;Helvetica Neue&quot;, sans-serif; font-size: 12px; font-weight: 200;" fill="rgb(50, 49, 63)" stroke="none" stroke-width="1px">700</text><text x="244.265625" y="0" dx="0em" dy="0.95em" style="text-anchor: middle; visibility: inherit; font-family: &quot;Helvetica Neue&quot;, sans-serif; font-size: 12px; font-weight: 200;" fill="rgb(50, 49, 63)" stroke="none" stroke-width="1px">800</text><text x="271.40625" y="0" dx="0em" dy="0.95em" style="text-anchor: middle; visibility: hidden; font-family: &quot;Helvetica Neue&quot;, sans-serif; font-size: 12px; font-weight: 200;" fill="rgb(50, 49, 63)" stroke="none" stroke-width="1px">900</text></g><line x1="0" y1="0" x2="271.40625" y2="0" fill="rgb(0, 0, 0)" stroke="rgb(204, 204, 204)" stroke-width="1px"></line></g></g></g></g></svg>