<svg viewBox="0 0 330 200" xmlns="http://www.w3.org/2000/svg"><g><g><g><g><g><line x1="68.3125" y1="177" x2="63.3125" y2="177" style="visibility: inherit;" fill="rgb(0, 0, 0)" stroke="rgb(204, 204, 204)" stroke-width="1px"></line><line x1="68.3125" y1="160.90909090909093" x2="63.3125" y2="160.90909090909093" style="visibility: inherit;" fill="rgb(0, 0, 0)" stroke="rgb(204, 204, 204)" stroke-width="1px"></line><line x1="68.3125" y1="144.8181818181818" x2="63.3125" y2="144.8181818181818" style="visibility: inherit;" fill="rgb(0, 0, 0)" stroke="rgb(204, 204, 204)" stroke-width="1px"></line><line x1="68.3125" y1="128.72727272727275" x2="63.3125" y2="128.72727272727275" style="visibility: inherit;" fill="rgb(0, 0, 0)" stroke="rgb(204, 204, 204)" stroke-width="1px"></line><line x1="68.3125" y1="112.63636363636363" x2="63.3125" y2="112.63636363636363" style="visibility: inherit;" fill="rgb(0, 0, 0)" stroke="rgb(204, 204, 204)" stroke-width="1px"></line><line x1="68.3125" y1="96.54545454545456" x2="63.3125" y2="96.54545454545456" style="visibility: inherit;" fill="rgb(0, 0, 0)" stroke="rgb(204, 204, 204)" stroke-width="1px"></line><line x1="68.3125" y1="80.4545454545455" x2="63.3125" y2="80.4545454545455" style="visibility: inherit;" fill="rgb(0, 0, 0)" stroke="rgb(204, 204, 204)" stroke-width="1px"></line><line x1="68.3125" y1="64.36363636363639" x2="63.3125" y2="64.36363636363639" style="visibility: inherit;" fill="rgb(0, 0, 0)" stroke="rgb(204, 204, 204)" stroke-width="1px"></line><line x1="68.3125" y1="48.27272727272725" x2="63.3125" y2="48.27272727272725" style="visibility: inherit;" fill="rgb(0, 0, 0)" stroke="rgb(204, 204, 204)" stroke-width="1px"></line><line x1="68.3125" y1="32.181818181818244" x2="63.3125" y2="32.181818181818244" style="visibility: inherit;" fill="rgb(0, 0, 0)" stroke="rgb(204, 204, 204)" stroke-width="1px"></line><line x1="68.3125" y1="16.090909090909122" x2="63.3125" y2="16.090909090909122" style="visibility: inherit;" fill="rgb(0, 0, 0)" stroke="rgb(204, 204, 204)" stroke-width="1px"></line><line x1="68.3125" y1="0" x2="63.3125" y2="0" style="visibility: inherit;" fill="rgb(0, 0, 0)" stroke="rgb(204, 204, 204)" stroke-width="1px"></line></g><g transform="translate(58.3125, 0)"><text x="0" y="177" dx="0em" dy="0.3em" style="text-anchor: end; visibility: hidden; font-family: &quot;Helvetica Neue&quot;, sans-serif; font-size: 12px; font-weight: 200;" fill="rgb(50, 49, 63)" stroke="none" stroke-width="1px">6.6e-3</text><text x="0" y="160.90909090909093" dx="0em" dy="0.3em" style="text-anchor: end; visibility: inherit; font-family: &quot;Helvetica Neue&quot;, sans-serif; font-size: 12px; font-weight: 200;" fill="rgb(50, 49, 63)" stroke="none" stroke-width="1px">6.8e-3</text><text x="0" y="144.8181818181818" dx="0em" dy="0.3em" style="text-anchor: end; visibility: hidden; font-family: &quot;Helvetica Neue&quot;, sans-serif; font-size: 12px; font-weight: 200;" fill="rgb(50, 49, 63)" stroke="none" stroke-width="1px">7e-3</text><text x="0" y="128.72727272727275" dx="0em" dy="0.3em" style="text-anchor: end; visibility: inherit; font-family: &quot;Helvetica Neue&quot;, sans-serif; font-size: 12px; font-weight: 200;" fill="rgb(50, 49, 63)" stroke="none" stroke-width="1px">7.2e-3</text><text x="0" y="112.63636363636363" dx="0em" dy="0.3em" style="text-anchor: end; visibility: hidden; font-family: &quot;Helvetica Neue&quot;, sans-serif; font-size: 12px; font-weight: 200;" fill="rgb(50, 49, 63)" stroke="none" stroke-width="1px">7.4e-3</text><text x="0" y="96.54545454545456" dx="0em" dy="0.3em" style="text-anchor: end; visibility: inherit; font-family: &quot;Helvetica Neue&quot;, sans-serif; font-size: 12px; font-weight: 200;" fill="rgb(50, 49, 63)" stroke="none" stroke-width="1px">7.6e-3</text><text x="0" y="80.4545454545455" dx="0em" dy="0.3em" style="text-anchor: end; visibility: hidden; font-family: &quot;Helvetica Neue&quot;, sans-serif; font-size: 12px; font-weight: 200;" fill="rgb(50, 49, 63)" stroke="none" stroke-width="1px">7.8e-3</text><text x="0" y="64.36363636363639" dx="0em" dy="0.3em" style="text-anchor: end; visibility: inherit; font-family: &quot;Helvetica Neue&quot;, sans-serif; font-size: 12px; font-weight: 200;" fill="rgb(50, 49, 63)" stroke="none" stroke-width="1px">8e-3</text><text x="0" y="48.27272727272725" dx="0em" dy="0.3em" style="text-anchor: end; visibility: hidden; font-family: &quot;Helvetica Neue&quot;, sans-serif; font-size: 12px; font-weight: 200;" fill="rgb(50, 49, 63)" stroke="none" stroke-width="1px">8.2e-3</text><text x="0" y="32.181818181818244" dx="0em" dy="0.3em" style="text-anchor: end; visibility: inherit; font-family: &quot;Helvetica Neue&quot;, sans-serif; font-size: 12px; font-weight: 200;" fill="rgb(50, 49, 63)" stroke="none" stroke-width="1px">8.4e-3</text><text x="0" y="16.090909090909122" dx="0em" dy="0.3em" style="text-anchor: end; visibility: hidden; font-family: &quot;Helvetica Neue&quot;, sans-serif; font-size: 12px; font-weight: 200;" fill="rgb(50, 49, 63)" stroke="none" stroke-width="1px">8.6e-3</text><text x="0" y="0" dx="0em" dy="0.3em" style="text-anchor: end; visibility: hidden; font-family: &quot;Helvetica Neue&quot;, sans-serif; font-size: 12px; font-weight: 200;" fill="rgb(50, 49, 63)" stroke="none" stroke-width="1px">8.8e-3</text></g><line x1="68.3125" y1="0" x2="68.3125" y2="177" fill="rgb(0, 0, 0)" stroke="rgb(204, 204, 204)" stroke-width="1px"></line></g></g><g transform="translate(68, 0)" clip-path="url(#clip_0)"><clipPath id="clip_0"><rect width="261" height="177"></rect></clipPath><g><g><g><line x1="0" y1="0" x2="0" y2="177" fill="rgb(0, 0, 0)" stroke="rgb(60, 60, 60)" stroke-width="1px" opacity="0.25"></line><line x1="26.168750000000003" y1="0" x2="26.168750000000003" y2="177" fill="rgb(0, 0, 0)" stroke="rgb(60, 60, 60)" stroke-width="1px" opacity="0.25"></line><line x1="52.337500000000006" y1="0" x2="52.337500000000006" y2="177" fill="rgb(0, 0, 0)" stroke="rgb(60, 60, 60)" stroke-width="1px" opacity="0.25"></line><line x1="78.50625" y1="0" x2="78.50625" y2="177" fill="rgb(0, 0, 0)" stroke="rgb(60, 60, 60)" stroke-width="1px" opacity="0.25"></line><line x1="104.67500000000001" y1="0" x2="104.67500000000001" y2="177" fill="rgb(0, 0, 0)" stroke="rgb(60, 60, 60)" stroke-width="1px" opacity="0.25"></line><line x1="130.84375" y1="0" x2="130.84375" y2="177" fill="rgb(0, 0, 0)" stroke="rgb(60, 60, 60)" stroke-width="1px" opacity="0.25"></line><line x1="157.0125" y1="0" x2="157.0125" y2="177" fill="rgb(0, 0, 0)" stroke="rgb(60, 60, 60)" stroke-width="1px" opacity="0.25"></line><line x1="183.18124999999998" y1="0" x2="183.18124999999998" y2="177" fill="rgb(0, 0, 0)" stroke="rgb(60, 60, 60)" stroke-width="1px" opacity="0.25"></line><line x1="209.35000000000002" y1="0" x2="209.35000000000002" y2="177" fill="rgb(0, 0, 0)" stroke="rgb(60, 60, 60)" stroke-width="1px" opacity="0.25"></line><line x1="235.51875" y1="0" x2="235.51875" y2="177" fill="rgb(0, 0, 0)" stroke="rgb(60, 60, 60)" stroke-width="1px" opacity="0.25"></line><line x1="261.6875" y1="0" x2="261.6875" y2="177" fill="rgb(0, 0, 0)" stroke="rgb(60, 60, 60)" stroke-width="1px" opacity="0.25"></line></g><g><line x1="0" y1="177" x2="261.6875" y2="177" fill="rgb(0, 0, 0)" stroke="rgb(60, 60, 60)" stroke-width="1px" opacity="0.25"></line><line x1="0" y1="160.90909090909093" x2="261.6875" y2="160.90909090909093" fill="rgb(0, 0, 0)" stroke="rgb(60, 60, 60)" stroke-width="1px" opacity="0.25"></line><line x1="0" y1="144.8181818181818" x2="261.6875" y2="144.8181818181818" fill="rgb(0, 0, 0)" stroke="rgb(60, 60, 60)" stroke-width="1px" opacity="0.25"></line><line x1="0" y1="128.72727272727275" x2="261.6875" y2="128.72727272727275" fill="rgb(0, 0, 0)" stroke="rgb(60, 60, 60)" stroke-width="1px" opacity="0.25"></line><line x1="0" y1="112.63636363636363" x2="261.6875" y2="112.63636363636363" fill="rgb(0, 0, 0)" stroke="rgb(60, 60, 60)" stroke-width="1px" opacity="0.25"></line><line x1="0" y1="96.54545454545456" x2="261.6875" y2="96.54545454545456" fill="rgb(0, 0, 0)" stroke="rgb(60, 60, 60)" stroke-width="1px" opacity="0.25"></line><line x1="0" y1="80.4545454545455" x2="261.6875" y2="80.4545454545455" fill="rgb(0, 0, 0)" stroke="rgb(60, 60, 60)" stroke-width="1px" opacity="0.25"></line><line x1="0" y1="64.36363636363639" x2="261.6875" y2="64.36363636363639" fill="rgb(0, 0, 0)" stroke="rgb(60, 60, 60)" stroke-width="1px" opacity="0.25"></line><line x1="0" y1="48.27272727272725" x2="261.6875" y2="48.27272727272725" fill="rgb(0, 0, 0)" stroke="rgb(60, 60, 60)" stroke-width="1px" opacity="0.25"></line><line x1="0" y1="32.181818181818244" x2="261.6875" y2="32.181818181818244" fill="rgb(0, 0, 0)" stroke="rgb(60, 60, 60)" stroke-width="1px" opacity="0.25"></line><line x1="0" y1="16.090909090909122" x2="261.6875" y2="16.090909090909122" fill="rgb(0, 0, 0)" stroke="rgb(60, 60, 60)" stroke-width="1px" opacity="0.25"></line><line x1="0" y1="0" x2="261.6875" y2="0" fill="rgb(0, 0, 0)" stroke="rgb(60, 60, 60)" stroke-width="1px" opacity="0.25"></line></g></g></g><g><g><line x1="0" y1="707.9999999999999" x2="261.6875" y2="707.9999999999999" fill="rgb(0, 0, 0)" stroke="rgb(153, 153, 153)" stroke-width="1.5px"></line></g></g><g><g><line x1="26.168750000000003" y1="0" x2="26.168750000000003" y2="177" fill="rgb(0, 0, 0)" stroke="rgb(153, 153, 153)" stroke-width="1.5px"></line></g></g><g><g><g><g><g><path stroke="rgb(0, 119, 187)" stroke-width="2px" d="M26.168750000000003,25.37587914209479L26.4304375,-173.9391400637951L31.925874999999998,-13.514139917086425L32.1875625,2.8622967709194995L32.44925,-9.649744738909277L32.7109375,8.175296904688594L32.972625,30.27751832794064L33.2343125,46.865704749795555L33.496,10.511512386527954L33.7576875,24.019212234426675L34.019375000000004,26.07331952520397L34.281062500000004,55.597571428526564L34.542750000000005,18.72606832127684L34.8044375,-8.19574488563967L35.066125,38.803779461844414L35.3278125,9.617083309049008L35.5895,20.812994572926698L35.8511875,25.3214805905115L36.112875,30.096339680931834L36.3745625,33.447320430116264L36.636250000000004,36.6374283277176L36.8979375,49.651569967242835L37.159625,70.52427922392437L37.4213125,53.046459189192845L37.683,37.2047917334871L37.9446875,38.35465423017743L38.206374999999994,65.43164567446169L38.468062499999995,67.76014345545663L38.729749999999996,45.84314685247165L38.991437499999996,51.27873105013916L39.253125,41.09166565198794L39.5148125,57.87197037447585L39.7765,57.60207563232295L40.0381875,68.97939033061267L40.299875,42.07338717105716L40.5615625,80.14222038164736L40.82325,43.48490220511505L41.0849375,57.071577360684245L41.346625,58.60814912007616L41.608312500000004,56.120277070186376L41.87,51.3598043735732L42.1316875,66.86983548037033L42.393375,66.37934936650777L42.6550625,30.042915208095877L42.91675,60.5988663631407L43.1784375,79.10876029526648L43.440125,93.53673977201638L43.7018125,79.04402152313429L43.9635,64.2238629568707L44.225187500000004,56.14792592078449L44.486875000000005,69.49670107459482L44.748562500000006,67.55378861928531L45.01025,72.06602109359072L45.2719375,68.62422623349865L45.533624999999994,57.946824579753695L45.795312499999994,83.28369927101517L46.056999999999995,59.16951819509269L46.318687499999996,74.40246136283335L46.580375,67.1254187578505L46.8420625,85.94720521196724L47.10375,72.18238603933294L47.3654375,88.27038302441892L47.627125,87.37670323828405L47.8888125,73.67557382990016L48.1505,66.42842794954778L48.4121875,84.21439404954967L48.673875,77.54131773249672L48.9355625,98.29676289382307L49.19725,82.79508638551292L49.4589375,105.08714077079838L49.720625,92.96570483866064L49.9823125,89.64529517631641L50.244,71.80017252469608L50.5056875,63.163166130130975L50.767375,72.25709038634194L51.0290625,93.06108962676744L51.29075,107.13611541586845L51.5524375,80.37944602119653L51.814125000000004,92.19007590379229L52.075812500000005,98.22655429487881L52.337500000000006,57.63998977433555L52.599187500000006,84.24593921513723L52.860875,88.67136628722605L53.1225625,84.91374512558636L53.384249999999994,111.2312173989009L53.645937499999995,52.57777745344424L53.907624999999996,74.05966057289733L54.1693125,96.92878168685871L54.431,94.61032440987502L54.6926875,99.75851791250436L54.954375,79.00618231025612L55.2160625,95.49175328253347L55.47775,101.77538542347877L55.7394375,96.24209363453768L56.001125,70.4425315382806L56.2628125,70.63629827987066L56.524499999999996,102.51553541320293L56.7861875,101.79992471499878L57.047875,99.07381548224527L57.3095625,98.43283420191571L57.57125,58.1886958256364L57.8329375,79.1785942485387L58.094625,65.85432092168116L58.3563125,103.28037455271593L58.618,95.63659129935233L58.8796875,82.08314721489498L59.141375000000004,74.72428199513395L59.403062500000004,90.93445093387909L59.664750000000005,89.89660749313508L59.926437500000006,93.5429963547398L60.188125,84.52280236679046L60.4498125,86.70425172150136L60.7115,91.14207956533542L60.9731875,85.92937207797712L61.234875,85.51025596464225L61.496562499999996,76.57817863876173L61.75825,96.25449440628292L62.0199375,96.61081990498035L62.281625,95.5433045270091L62.5433125,85.22451371056115L62.805,85.61976489458574L63.0666875,81.62514288080013L63.328375,83.65665903755212L63.590062499999995,97.4096394069493L63.851749999999996,110.6591709222306L64.1134375,89.2817390161482L64.375125,86.71781389482999L64.6368125,72.24270399253479L64.8985,89.25266651199624L65.1601875,107.15672092783181L65.421875,91.20236005397007L65.6835625,105.48744967139582L65.94525,69.00396708669992L66.2069375,79.92897206511012L66.468625,90.77676257050852L66.7303125,91.22180416435005L66.992,103.72710205208173L67.2536875,90.15897185727955L67.515375,85.94207256626001L67.7770625,88.69541853937238L68.03875000000001,92.26732784137131L68.3004375,104.95897448638625L68.56212500000001,103.09623620489783L68.8238125,107.08400220288473L69.08550000000001,95.4375420537862L69.3471875,102.9357005344196L69.608875,86.79840017889036L69.8705625,90.35637266188861L70.13225,105.21111102368346L70.3939375,100.63204176148233L70.655625,103.36762952973899L70.91731250000001,85.4751891297373L71.179,120.25841726091777L71.44068750000001,96.26910558749331L71.702375,90.27994494478813L71.96406250000001,89.92770308391616L72.22575,95.20091584731234L72.48743750000001,102.8121423917738L72.749125,97.0829109163447L73.0108125,119.6982095874846L73.27250000000001,92.27875453436918L73.5341875,89.80215931920844L73.795875,87.35085268691184L74.05756249999999,93.9322157434442L74.31925,90.17736695977777L74.58093749999999,149.16585252975875L74.842625,109.62155226888983L75.10431249999999,117.52799960293555L75.366,99.86162040145561L75.6276875,101.31809291616084L75.889375,114.15424039688979L76.1510625,74.81569553911687L76.41274999999999,98.10861583731393L76.6744375,82.8983761973002L76.93612499999999,81.73480166901244L77.1978125,116.49641274491495L77.45949999999999,98.58299218727785L77.7211875,108.9153077124872L77.98287499999999,89.38045815073633L78.2445625,96.43226377767597L78.50625,107.03881993483415L78.7679375,103.95777139236984L79.029625,98.70906045592646L79.2913125,109.15350743078373L79.553,91.70760720731184L79.8146875,115.67878603020853L80.076375,119.40684764832258L80.33806249999999,97.70856918868695L80.59975,128.32933404499835L80.8614375,113.10714320804587L81.123125,94.6083013232459L81.3848125,114.5453704785217L81.6465,106.3892218040472L81.9081875,120.62380918487906L82.169875,86.56791816143829L82.4315625,89.70055541294545L82.69325,102.15696204047313L82.9549375,114.99531993066724L83.21662500000001,117.879604566165L83.4783125,107.56800694662063L83.74,84.01167327639735L84.0016875,90.97082902863623L84.263375,108.6515571593561L84.5250625,108.61915030872282L84.78675,108.57464240288195L85.0484375,107.50491661544552L85.310125,106.52739112790337L85.57181250000001,113.41892333633521L85.8335,115.74790815670383L86.09518750000001,95.71856377239934L86.356875,110.02189863405447L86.61856250000001,102.08120868558235L86.88025,91.72180627828297L87.14193750000001,102.26699547435751L87.403625,118.4229157197882L87.6653125,107.41192955963992L87.927,110.10866657170384L88.1886875,118.38309088484809L88.45037500000001,109.62795870988208L88.7120625,103.22769937122412L88.97375000000001,98.40956870568071L89.2354375,101.09592803262852L89.49712500000001,114.66375851089305L89.7588125,98.61026639220391L90.0205,99.02990700947969L90.28218749999999,98.9308132292195L90.543875,123.60085608877921L90.8055625,118.20558376542547L91.06724999999999,87.02974388138817L91.3289375,97.74727008661088L91.59062499999999,109.97222061793914L91.8523125,91.98589401251893L92.11399999999999,109.36945319615982L92.3756875,101.59918956390838L92.63737499999999,129.65902646427804L92.8990625,99.61529087207536L93.16075,118.22270507263868L93.4224375,116.26270877468316L93.684125,101.72698120264846L93.9458125,93.14497279274194L94.2075,119.34836545891383L94.46918749999999,104.43645616756245L94.730875,103.87905833666977L94.99256249999999,96.38925445452334L95.25425,102.96046461334285L95.51593749999999,126.66575740277767L95.777625,105.74839038198647L96.0393125,98.76664349572226L96.301,107.36476166952741L96.5626875,128.37144421853804L96.824375,98.46407965096562L97.0860625,131.653452699496L97.34775,105.26974307136103L97.6094375,115.66001628203827L97.871125,121.67543958635494L98.1328125,86.22759003293788L98.3945,112.70241348851812L98.6561875,98.57392576201397L98.917875,91.1444023685022L99.1795625,113.4500189271163L99.44125,105.39285163920036L99.7029375,123.34433619711888L99.964625,102.54217272048649L100.2263125,119.7251091467386L100.488,112.78067696941172L100.74968750000001,114.03278027000754L101.011375,106.15787810154937L101.27306250000001,95.10864061828366L101.53475,115.05005566335538L101.79643750000001,104.75265711478214L102.058125,107.93748250840741L102.3198125,133.85415884175086L102.5815,133.9162376296114L102.8431875,117.97180486605927L103.104875,117.93966026739642L103.3665625,139.63924998688427L103.62825000000001,102.19693673368207L103.8899375,104.47081117569047L104.15162500000001,112.92675131694838L104.4133125,111.4773221408779L104.67500000000001,94.23013398186728L104.9366875,110.8335684825751L105.19837500000001,96.69717573239046L105.4600625,116.71505595912988L105.72175,108.15822373838589L105.98343750000001,127.0727349963378L106.245125,110.99331739714202L106.5068125,107.21389185738836L106.76849999999999,112.38812323422596L107.0301875,127.9055723253299L107.29187499999999,126.10007990253243L107.5535625,133.82381254231387L107.81524999999999,119.32843430916017L108.0769375,92.59682870994916L108.338625,116.16882256926462L108.6003125,130.1475644206459L108.862,144.96157879788768L109.12368749999999,121.90865651721305L109.385375,114.66199767623436L109.64706249999999,131.70080791244453L109.90875,109.95345086976887L110.17043749999999,106.36966529996559L110.432125,108.75844356959519L110.69381249999999,111.77778796987101L110.9555,113.40438708425924L111.2171875,108.55939432402906L111.478875,127.54561276361346L111.7405625,94.37811902233148L112.00225,123.23096841675316L112.2639375,100.48068490996958L112.525625,140.39760775627062L112.7873125,109.80164444344966L113.04899999999999,125.760838246481L113.3106875,109.10045760361987L113.572375,135.10510074076328L113.8340625,122.40742230042815L114.09575,118.73859216306698L114.3574375,124.74592312086713L114.619125,137.5503381131725L114.8808125,128.31101387163454L115.1425,124.11292179335248L115.4041875,121.40022487565875L115.665875,102.31015465577897L115.92756250000001,106.39405473321678L116.18925,119.29134438762611L116.4509375,113.56540979411116L116.712625,139.87051876024768L116.9743125,121.34687533195725L117.236,109.9119401293045L117.4976875,100.45723209089856L117.759375,122.82979783111L118.0210625,99.34719442914835L118.28275000000001,106.32807963036679L118.5444375,120.91269846260548L118.80612500000001,135.27871154519647L119.0678125,124.68429390781307L119.32950000000001,101.8092908568003L119.5911875,104.77966906773774L119.85287500000001,127.80808952145958L120.1145625,137.9087990922007L120.37625,109.67280379682781L120.6379375,135.70385945385152L120.899625,102.00961389765145L121.16131250000001,122.03120311654428L121.423,116.83988789706069L121.68468750000001,123.82107281481679L121.946375,89.52053816752002L122.20806250000001,138.92880939895457L122.46975,115.46224083175714L122.7314375,105.40776253694838L122.99312499999999,117.22569801014934L123.2548125,118.04823258315976L123.5165,120.3975981280885L123.77818749999999,118.17287719825453L124.039875,115.12123834104702L124.30156249999999,115.20085054636002L124.56325,121.35227022963493L124.82493749999999,146.5233267464421L125.086625,120.17835548079827L125.34831249999999,117.37697993252766L125.61,122.63453250683168L125.8716875,112.46751065213573L126.133375,113.7260203937238L126.3950625,128.40415078570896L126.65675,105.2872390242463L126.9184375,143.72637201710182L127.18012499999999,90.51848184418951L127.4418125,129.73118322071704L127.70349999999999,121.62164046784694L127.9651875,128.3974820927463L128.226875,113.25318009101534L128.4885625,100.91613557460634L128.75025,101.55370757932015L129.0119375,101.15781949765305L129.273625,116.31047609787097L129.5353125,117.98105861415918L129.797,113.11332486163488L130.0586875,105.66548129475932L130.320375,119.53066804293883L130.5820625,113.77783389016986L130.84375,116.02653214301577L131.1054375,157.5919334109534L131.367125,124.99689825658095L131.6288125,133.66814726557246L131.8905,120.53430633382365L132.1521875,104.69293859465557L132.413875,118.36739323118871L132.6755625,120.4079383486374L132.93725,114.82927696880971L133.1989375,120.24837675690651L133.460625,122.73598655482586L133.72231250000002,143.63031286678532L133.984,112.65565770864488L134.2456875,119.25320545821029L134.507375,115.1149817583236L134.7690625,125.6720846867697L135.03075,121.0657412196425L135.2924375,165.56169586357746L135.554125,120.29063678871503L135.8158125,109.77200997078961L136.07750000000001,142.84434371136808L136.3391875,126.90523091635922L136.600875,119.35282374241137L136.8625625,114.15937304259703L137.12425000000002,125.43339792909948L137.3859375,119.77321365103126L137.647625,112.04138866473329L137.9093125,120.64808622442865L138.17100000000002,125.4432511102747L138.43268750000001,117.31677437302743L138.694375,140.30922884223136L138.9560625,134.191714592278L139.21775,120.11777527562597L139.47943750000002,109.21176483278927L139.741125,125.87454320795158L140.0028125,112.79060507972133L140.2645,132.64506486430764L140.52618750000002,119.20693671771073L140.787875,131.8608565435491L141.0495625,129.18828417733312L141.31125,154.27459584312007L141.57293750000002,140.79360823163933L141.83462500000002,117.19044385240838L142.0963125,132.67668495902961L142.358,126.22191467508674L142.6196875,132.72276637669316L142.88137500000002,134.84176229787144L143.1430625,102.9069277468053L143.40475,130.55971212448046L143.6664375,127.9196964671666L143.92812500000002,115.4350040913983L144.18981250000002,102.58536936647515L144.4515,111.46990415657109L144.7131875,135.82895364375278L144.97487500000003,122.88816762681714L145.23656250000002,124.76735285330903L145.49825,109.87754765660927L145.7599375,135.4736771529371L146.021625,131.2441523027691L146.28331250000002,119.00803733041342L146.54500000000002,139.9490070285445L146.8066875,137.2866624891758L147.068375,129.9304947182536L147.3300625,125.69535018300469L147.59175,130.69068825143304L147.85343749999998,124.1357002502138L148.11512499999998,163.96776585179296L148.3768125,126.83431049063802L148.6385,123.2759258974005L148.9001875,113.15097675167704L149.16187499999998,125.67785423011944L149.42356249999997,130.68956431441688L149.68525,122.91911335932939L149.9469375,154.35349622165614L150.20862499999998,139.6894899715077L150.47031249999998,116.29020776701246L150.732,113.39532065899536L150.9936875,123.38356159898369L151.255375,128.75275858356196L151.51706249999998,125.06186181611636L151.77875,131.390264114873L152.0404375,96.56612467630345L152.302125,120.7518630755896L152.56381249999998,121.14288076351991L152.82549999999998,138.381976576014L153.0871875,134.3671986250715L153.348875,138.50017728554934L153.6105625,131.97827049717307L153.87224999999998,134.63121143017304L154.1339375,132.9324555593458L154.395625,154.5477500026199L154.6573125,114.82583022862673L154.91899999999998,141.38168954307383L155.1806875,138.37564506415617L155.442375,131.65944703024897L155.7040625,126.80018026991326L155.96574999999999,136.43153374269605L156.22743749999998,143.61498985879803L156.489125,114.29548181525686L156.7508125,135.32381888411263L157.0125,127.65231185101652L157.27418749999998,127.55205666917293L157.535875,117.92842089723459L157.7975625,142.96479229493576L158.05925,133.75735040009022L158.32093749999999,134.1041598987173L158.582625,138.92360182411292L158.8443125,142.31178488853303L159.106,141.69223334064537L159.3676875,128.76755708760837L159.629375,130.2137643108991L159.8910625,114.31972139023924L160.15275,105.08103404634379L160.4144375,139.09425292773682L160.67612499999998,124.4611549455334L160.9378125,137.83780373734507L161.1995,142.69849415123463L161.4611875,134.57096840610558L161.722875,138.26291418143296L161.9845625,132.0559720095586L162.24625,127.14129515432501L162.5079375,121.11459501527929L162.769625,133.057175103575L163.0313125,144.31782513958487L163.293,108.56726188314234L163.5546875,156.90644422478297L163.816375,119.5035436962816L164.0780625,149.12366742708465L164.33975,125.8875808773393L164.6014375,131.66660276258534L164.863125,139.46305412731388L165.1248125,140.9634725793519L165.3865,128.96761787648907L165.6481875,137.3227034028281L165.909875,129.85609008778226L166.1715625,133.60771691866898L166.43325000000002,126.32704025066712L166.6949375,124.9433239254762L166.956625,125.55485805598174L167.2183125,140.6343838210133L167.48,126.33929116414353L167.7416875,123.628991978751L168.003375,131.34122299640018L168.2650625,113.24400127204983L168.52675,141.7081183171408L168.78843750000001,137.65152990919623L169.050125,146.00474220717496L169.3118125,157.32780821215022L169.5735,117.13803092288701L169.83518750000002,147.16127339682797L170.096875,140.1643533608453L170.3585625,139.7488338459622L170.62025,138.10807312517005L170.88193750000002,129.1225713264536L171.14362500000001,156.12380941584706L171.4053125,130.5202619352124L171.667,128.53778689693323L171.9286875,135.6474003510719L172.19037500000002,135.52466642890465L172.4520625,128.913444112309L172.71375,149.2840907038613L172.9754375,134.31864454597235L173.23712500000002,131.17225779830056L173.4988125,132.90750415758654L173.7605,128.60934422029692L174.0221875,150.57058647715232L174.28387500000002,99.12836389209738L174.54556250000002,139.0997227545489L174.80725,123.43571227653462L175.0689375,118.61923005194828L175.330625,123.32785178754818L175.59231250000002,138.54745756936344L175.854,128.1619423587214L176.1156875,126.13769432800738L176.377375,137.59656938910484L176.63906250000002,142.18998758054593L176.90075000000002,115.76158272373407L177.1624375,142.5844894732264L177.424125,150.59591252458367L177.68581250000003,127.51616561378947L177.94750000000002,121.51126985285771L178.2091875,133.1708800650456L178.470875,123.22171466865325L178.7325625,127.23240898177028L178.99425000000002,139.85373463413933L179.25593750000002,153.61173525554213L179.517625,135.89358002218336L179.7793125,138.88456374508414L180.041,133.34887422384188L180.3026875,132.332685302943L180.56437499999998,151.44242442060602L180.82606249999998,142.35217169198123L181.08775,142.27342117171398L181.3494375,121.42214164747435L181.611125,144.6124464960938L181.87281249999998,150.09336282008073L182.13449999999997,140.6366691596129L182.3961875,129.6011437079446L182.657875,110.37597625871953L182.91956249999998,117.97963496060535L183.18124999999998,146.71203577145934L183.4429375,131.17727805030617L183.704625,133.0430509617383L183.9663125,119.14991564642301L184.22799999999998,140.46590566228738L184.4896875,129.73369334671986L184.751375,135.02331559055233L185.0130625,127.16527247733691L185.27474999999998,141.7804249318486L185.53643749999998,150.51064316962254L185.798125,120.72147931158543L186.0598125,126.72637507251719L186.3215,139.7678658461029L186.58318749999998,116.44669726423243L186.844875,143.44830999929798L187.1065625,155.7918733504008L187.36825,122.9859126826579L187.62993749999998,148.86175263774666L187.891625,144.56490396030927L188.1533125,140.33534164557403L188.415,141.87805759398776L188.67668749999999,132.27611380646175L188.93837499999998,130.88707751272756L189.2000625,122.3269484100694L189.46175,138.7435845786875L189.7234375,130.4901029586115L189.98512499999998,153.14545125209472L190.2468125,158.39007855071264L190.5085,131.68447336114266L190.7701875,141.85224450718275L191.03187499999999,121.31079695373774L191.2935625,127.61668304760349L191.55525,138.87474802847615L191.8169375,139.00711034441537L192.078625,132.97317954389888L192.3403125,131.49621391093189L192.602,143.05444500426L192.8636875,120.36073299395768L193.125375,139.61216310479426L193.38706249999998,136.97053647109055L193.64875,148.8368761651218L193.9104375,134.31261275065216L194.172125,156.08630738407373L194.4338125,140.03363948586312L194.6955,136.82434972985226L194.9571875,120.32514165511186L195.218875,144.20153512297708L195.4805625,151.78406380895865L195.74225,126.2638000612232L196.0039375,143.50458177924156L196.265625,159.1303783987056L196.5273125,118.92329247939317L196.789,145.7479975281114L197.0506875,120.47215261682868L197.312375,144.10854806717145L197.5740625,132.01820772581482L197.83575,108.59191356836396L198.0974375,155.89898454804313L198.359125,129.75620955161074L198.6208125,135.9650249518454L198.8825,133.83606345579028L199.14418750000002,159.88877363265917L199.405875,141.83842008188367L199.6675625,139.0433011163365L199.92925,119.94480136883531L200.1909375,148.15595765615052L200.452625,148.18480537289923L200.7143125,117.97206711802971L200.976,142.19508276168597L201.2376875,150.76236759668046L201.49937500000001,156.52145833217284L201.7610625,146.562926793979L202.02275,151.06530608710918L202.2844375,169.41511392356318L202.54612500000002,121.17244030704553L202.8078125,122.16382768445396L203.0695,113.99018305709417L203.3311875,131.0340884744444L203.59287500000002,150.4100508066741L203.85456250000001,167.81050651012495L204.11625,153.0241409834813L204.3779375,122.8028608072888L204.639625,148.21844855425033L204.90131250000002,120.77138211510399L205.163,139.90206392583522L205.4246875,151.19721882824194L205.686375,138.4516981355846L205.94806250000002,156.98560685528952L206.20975,132.3038750507615L206.4714375,129.90217150544578L206.733125,125.28803540833974L206.99481250000002,131.24486412954602L207.25650000000002,138.18584956668997L207.5181875,124.33493681861597L207.779875,155.59495958516544L208.0415625,136.49211394786835L208.30325000000002,121.4261878207326L208.5649375,152.48101715269414L208.826625,115.08373630927369L209.0883125,144.0535875470801L209.35000000000002,146.44169145449996L209.61168750000002,162.14170538159934L209.873375,132.6851519512182L210.1350625,149.53810046951878L210.39675000000003,144.88009336421436L210.65843750000002,123.53012298589404L210.920125,135.13953067802572L211.1818125,140.9250339333984L211.4435,102.94154500690375L211.70518750000002,128.31288709999487L211.96687500000002,146.92696999352086L212.2285625,120.65063381499866L212.49025,142.5532440241765L212.7519375,145.46521497483957L213.013625,145.90523631667548L213.27531249999998,125.29365509342065L213.53699999999998,126.01630913025954L213.7986875,135.86368329755285L214.060375,132.80376477099279L214.3220625,151.2507931593467L214.58374999999998,146.9546937732534L214.84543749999997,139.69559669596228L215.107125,165.81274592842567L215.3688125,150.5331219099462L215.63049999999998,155.91486952453852L215.89218749999998,123.40251866998999L216.153875,117.43800971250644L216.4155625,128.63317168504L216.67725,148.56357214735314L216.93893749999998,135.54860628734937L217.200625,135.79332484033975L217.4623125,148.2243679558689L217.724,146.3268625560132L217.98568749999998,132.40596599639818L218.24737499999998,166.64341031251982L218.5090625,131.03952083668926L218.77075,133.95306529917502L219.0324375,130.11320941251788L219.29412499999998,142.54271648079157L219.5558125,133.60513186353177L219.8175,144.3903190771287L220.0791875,154.48638304153627L220.34087499999998,145.47611716389656L220.6025625,137.97900769114494L220.86425,168.48419435762546L221.1259375,158.1892684704878L221.38762499999999,169.57890901138836L221.64931249999998,126.31984705376355L221.911,136.92482969909906L222.1726875,148.44612072916195L222.434375,145.3845537616448L222.69606249999998,143.25218298997393L222.95775,162.54624777829105L223.2194375,129.83998032388362L223.481125,151.72048643840986L223.74281249999999,152.59232438186353L224.0045,128.73264011097226L224.2661875,138.05536047911102L224.527875,164.67992980981415L224.7895625,154.72585655511782L225.05125,133.7608720694076L225.3129375,151.96602921187878L225.574625,143.12911188670182L225.8363125,142.21149224212223L226.09799999999998,152.06141399998558L226.3596875,150.9737801494246L226.621375,147.60856286470187L226.8830625,161.49877594377506L227.14475,119.13961289044133L227.4064375,153.41306065564805L227.668125,169.43129861659625L227.9298125,134.36704876680267L228.1915,141.67069121450186L228.4531875,163.01976244320923L228.714875,158.72594839571553L228.9765625,139.8786111067642L229.23825,126.12222146175125L229.4999375,134.39263706620446L229.761625,127.25481279295954L230.0233125,125.5265723077411L230.285,141.52915007959714L230.5466875,135.75795828889719L230.808375,117.57951338284397L231.0700625,143.79388316720724L231.33175,146.8898051428524L231.5934375,154.3551446626132L231.85512500000002,149.10684583640912L232.1168125,155.42738057605246L232.3785,114.31140425631946L232.6401875,143.7689692300152L232.901875,153.6470268778503L233.1635625,135.62698216194457L233.42525,112.43570323457773L233.6869375,162.5422016050328L233.948625,138.60481582175603L234.21031250000001,137.3801740489223L234.472,126.75503546642987L234.7336875,151.915901620957L234.995375,117.30182601071218L235.25706250000002,127.88129528578034L235.51875,153.34124108031392L235.7804375,140.67731821503153L236.042125,134.28013097088447L236.30381250000002,163.44854441488332L236.56550000000001,127.36664452606982L236.8271875,132.72778662869877L237.088875,143.18369776112112" style="fill: none;" fill="none"></path></g></g></g></g></g></g><g transform="translate(68, 177)" clip-path="url(#clip_1)"><clipPath id="clip_1"><rect width="261" height="23"></rect></clipPath><g><g><line x1="0" y1="0" x2="0" y2="5" style="visibility: inherit;" fill="rgb(0, 0, 0)" stroke="rgb(204, 204, 204)" stroke-width="1px"></line><line x1="26.168750000000003" y1="0" x2="26.168750000000003" y2="5" style="visibility: inherit;" fill="rgb(0, 0, 0)" stroke="rgb(204, 204, 204)" stroke-width="1px"></line><line x1="52.337500000000006" y1="0" x2="52.337500000000006" y2="5" style="visibility: inherit;" fill="rgb(0, 0, 0)" stroke="rgb(204, 204, 204)" stroke-width="1px"></line><line x1="78.50625" y1="0" x2="78.50625" y2="5" style="visibility: inherit;" fill="rgb(0, 0, 0)" stroke="rgb(204, 204, 204)" stroke-width="1px"></line><line x1="104.67500000000001" y1="0" x2="104.67500000000001" y2="5" style="visibility: inherit;" fill="rgb(0, 0, 0)" stroke="rgb(204, 204, 204)" stroke-width="1px"></line><line x1="130.84375" y1="0" x2="130.84375" y2="5" style="visibility: inherit;" fill="rgb(0, 0, 0)" stroke="rgb(204, 204, 204)" stroke-width="1px"></line><line x1="157.0125" y1="0" x2="157.0125" y2="5" style="visibility: inherit;" fill="rgb(0, 0, 0)" stroke="rgb(204, 204, 204)" stroke-width="1px"></line><line x1="183.18124999999998" y1="0" x2="183.18124999999998" y2="5" style="visibility: inherit;" fill="rgb(0, 0, 0)" stroke="rgb(204, 204, 204)" stroke-width="1px"></line><line x1="209.35000000000002" y1="0" x2="209.35000000000002" y2="5" style="visibility: inherit;" fill="rgb(0, 0, 0)" stroke="rgb(204, 204, 204)" stroke-width="1px"></line><line x1="235.51875" y1="0" x2="235.51875" y2="5" style="visibility: inherit;" fill="rgb(0, 0, 0)" stroke="rgb(204, 204, 204)" stroke-width="1px"></line><line x1="261.6875" y1="0" x2="261.6875" y2="5" style="visibility: inherit;" fill="rgb(0, 0, 0)" stroke="rgb(204, 204, 204)" stroke-width="1px"></line></g><g transform="translate(0, 8)"><text x="0" y="0" dx="0em" dy="0.95em" style="text-anchor: middle; visibility: hidden; font-family: &quot;Helvetica Neue&quot;, sans-serif; font-size: 12px; font-weight: 200;" fill="rgb(50, 49, 63)" stroke="none" stroke-width="1px">-100</text><text x="26.168750000000003" y="0" dx="0em" dy="0.95em" style="text-anchor: middle; visibility: inherit; font-family: &quot;Helvetica Neue&quot;, sans-serif; font-size: 12px; font-weight: 200;" fill="rgb(50, 49, 63)" stroke="none" stroke-width="1px">0</text><text x="52.337500000000006" y="0" dx="0em" dy="0.95em" style="text-anchor: middle; visibility: inherit; font-family: &quot;Helvetica Neue&quot;, sans-serif; font-size: 12px; font-weight: 200;" fill="rgb(50, 49, 63)" stroke="none" stroke-width="1px">100</text><text x="78.50625" y="0" dx="0em" dy="0.95em" style="text-anchor: middle; visibility: inherit; font-family: &quot;Helvetica Neue&quot;, sans-serif; font-size: 12px; font-weight: 200;" fill="rgb(50, 49, 63)" stroke="none" stroke-width="1px">200</text><text x="104.67500000000001" y="0" dx="0em" dy="0.95em" style="text-anchor: middle; visibility: inherit; font-family: &quot;Helvetica Neue&quot;, sans-serif; font-size: 12px; font-weight: 200;" fill="rgb(50, 49, 63)" stroke="none" stroke-width="1px">300</text><text x="130.84375" y="0" dx="0em" dy="0.95em" style="text-anchor: middle; visibility: inherit; font-family: &quot;Helvetica Neue&quot;, sans-serif; font-size: 12px; font-weight: 200;" fill="rgb(50, 49, 63)" stroke="none" stroke-width="1px">400</text><text x="157.0125" y="0" dx="0em" dy="0.95em" style="text-anchor: middle; visibility: inherit; font-family: &quot;Helvetica Neue&quot;, sans-serif; font-size: 12px; font-weight: 200;" fill="rgb(50, 49, 63)" stroke="none" stroke-width="1px">500</text><text x="183.18124999999998" y="0" dx="0em" dy="0.95em" style="text-anchor: middle; visibility: inherit; font-family: &quot;Helvetica Neue&quot;, sans-serif; font-size: 12px; font-weight: 200;" fill="rgb(50, 49, 63)" stroke="none" stroke-width="1px">600</text><text x="209.35000000000002" y="0" dx="0em" dy="0.95em" style="text-anchor: middle; visibility: inherit; font-family: &quot;Helvetica Neue&quot;, sans-serif; font-size: 12px; font-weight: 200;" fill="rgb(50, 49, 63)" stroke="none" stroke-width="1px">700</text><text x="235.51875" y="0" dx="0em" dy="0.95em" style="text-anchor: middle; visibility: inherit; font-family: &quot;Helvetica Neue&quot;, sans-serif; font-size: 12px; font-weight: 200;" fill="rgb(50, 49, 63)" stroke="none" stroke-width="1px">800</text><text x="261.6875" y="0" dx="0em" dy="0.95em" style="text-anchor: middle; visibility: hidden; font-family: &quot;Helvetica Neue&quot;, sans-serif; font-size: 12px; font-weight: 200;" fill="rgb(50, 49, 63)" stroke="none" stroke-width="1px">900</text></g><line x1="0" y1="0" x2="261.6875" y2="0" fill="rgb(0, 0, 0)" stroke="rgb(204, 204, 204)" stroke-width="1px"></line></g></g></g></g></svg>