<svg viewBox="0 0 330 200" xmlns="http://www.w3.org/2000/svg"><g><g><g><g><g><line x1="48.875" y1="176.63995666178374" x2="43.875" y2="176.63995666178374" style="visibility: inherit;" fill="rgb(0, 0, 0)" stroke="rgb(204, 204, 204)" stroke-width="1px"></line><line x1="48.875" y1="158.41082505293315" x2="43.875" y2="158.41082505293315" style="visibility: inherit;" fill="rgb(0, 0, 0)" stroke="rgb(204, 204, 204)" stroke-width="1px"></line><line x1="48.875" y1="140.18169344408255" x2="43.875" y2="140.18169344408255" style="visibility: inherit;" fill="rgb(0, 0, 0)" stroke="rgb(204, 204, 204)" stroke-width="1px"></line><line x1="48.875" y1="121.95256183523199" x2="43.875" y2="121.95256183523199" style="visibility: inherit;" fill="rgb(0, 0, 0)" stroke="rgb(204, 204, 204)" stroke-width="1px"></line><line x1="48.875" y1="103.72343022638141" x2="43.875" y2="103.72343022638141" style="visibility: inherit;" fill="rgb(0, 0, 0)" stroke="rgb(204, 204, 204)" stroke-width="1px"></line><line x1="48.875" y1="85.49429861753082" x2="43.875" y2="85.49429861753082" style="visibility: inherit;" fill="rgb(0, 0, 0)" stroke="rgb(204, 204, 204)" stroke-width="1px"></line><line x1="48.875" y1="67.26516700868025" x2="43.875" y2="67.26516700868025" style="visibility: inherit;" fill="rgb(0, 0, 0)" stroke="rgb(204, 204, 204)" stroke-width="1px"></line><line x1="48.875" y1="49.03603539982966" x2="43.875" y2="49.03603539982966" style="visibility: inherit;" fill="rgb(0, 0, 0)" stroke="rgb(204, 204, 204)" stroke-width="1px"></line><line x1="48.875" y1="30.806903790979106" x2="43.875" y2="30.806903790979106" style="visibility: inherit;" fill="rgb(0, 0, 0)" stroke="rgb(204, 204, 204)" stroke-width="1px"></line><line x1="48.875" y1="12.577772182128513" x2="43.875" y2="12.577772182128513" style="visibility: inherit;" fill="rgb(0, 0, 0)" stroke="rgb(204, 204, 204)" stroke-width="1px"></line></g><g transform="translate(38.875, 0)"><text x="0" y="176.63995666178374" dx="0em" dy="0.3em" style="text-anchor: end; visibility: hidden; font-family: &quot;Helvetica Neue&quot;, sans-serif; font-size: 12px; font-weight: 200;" fill="rgb(50, 49, 63)" stroke="none" stroke-width="1px">0</text><text x="0" y="158.41082505293315" dx="0em" dy="0.3em" style="text-anchor: end; visibility: inherit; font-family: &quot;Helvetica Neue&quot;, sans-serif; font-size: 12px; font-weight: 200;" fill="rgb(50, 49, 63)" stroke="none" stroke-width="1px">0.02</text><text x="0" y="140.18169344408255" dx="0em" dy="0.3em" style="text-anchor: end; visibility: hidden; font-family: &quot;Helvetica Neue&quot;, sans-serif; font-size: 12px; font-weight: 200;" fill="rgb(50, 49, 63)" stroke="none" stroke-width="1px">0.04</text><text x="0" y="121.95256183523199" dx="0em" dy="0.3em" style="text-anchor: end; visibility: inherit; font-family: &quot;Helvetica Neue&quot;, sans-serif; font-size: 12px; font-weight: 200;" fill="rgb(50, 49, 63)" stroke="none" stroke-width="1px">0.06</text><text x="0" y="103.72343022638141" dx="0em" dy="0.3em" style="text-anchor: end; visibility: hidden; font-family: &quot;Helvetica Neue&quot;, sans-serif; font-size: 12px; font-weight: 200;" fill="rgb(50, 49, 63)" stroke="none" stroke-width="1px">0.08</text><text x="0" y="85.49429861753082" dx="0em" dy="0.3em" style="text-anchor: end; visibility: inherit; font-family: &quot;Helvetica Neue&quot;, sans-serif; font-size: 12px; font-weight: 200;" fill="rgb(50, 49, 63)" stroke="none" stroke-width="1px">0.1</text><text x="0" y="67.26516700868025" dx="0em" dy="0.3em" style="text-anchor: end; visibility: hidden; font-family: &quot;Helvetica Neue&quot;, sans-serif; font-size: 12px; font-weight: 200;" fill="rgb(50, 49, 63)" stroke="none" stroke-width="1px">0.12</text><text x="0" y="49.03603539982966" dx="0em" dy="0.3em" style="text-anchor: end; visibility: inherit; font-family: &quot;Helvetica Neue&quot;, sans-serif; font-size: 12px; font-weight: 200;" fill="rgb(50, 49, 63)" stroke="none" stroke-width="1px">0.14</text><text x="0" y="30.806903790979106" dx="0em" dy="0.3em" style="text-anchor: end; visibility: hidden; font-family: &quot;Helvetica Neue&quot;, sans-serif; font-size: 12px; font-weight: 200;" fill="rgb(50, 49, 63)" stroke="none" stroke-width="1px">0.16</text><text x="0" y="12.577772182128513" dx="0em" dy="0.3em" style="text-anchor: end; visibility: inherit; font-family: &quot;Helvetica Neue&quot;, sans-serif; font-size: 12px; font-weight: 200;" fill="rgb(50, 49, 63)" stroke="none" stroke-width="1px">0.18</text></g><line x1="48.875" y1="0" x2="48.875" y2="177" fill="rgb(0, 0, 0)" stroke="rgb(204, 204, 204)" stroke-width="1px"></line></g></g><g transform="translate(48, 0)" clip-path="url(#clip_0)"><clipPath id="clip_0"><rect width="281" height="177"></rect></clipPath><g><g><g><line x1="19.82416397807423" y1="0" x2="19.82416397807423" y2="177" fill="rgb(0, 0, 0)" stroke="rgb(60, 60, 60)" stroke-width="1px" opacity="0.25"></line><line x1="51.672362203452366" y1="0" x2="51.672362203452366" y2="177" fill="rgb(0, 0, 0)" stroke="rgb(60, 60, 60)" stroke-width="1px" opacity="0.25"></line><line x1="83.52056042883049" y1="0" x2="83.52056042883049" y2="177" fill="rgb(0, 0, 0)" stroke="rgb(60, 60, 60)" stroke-width="1px" opacity="0.25"></line><line x1="115.36875865420863" y1="0" x2="115.36875865420863" y2="177" fill="rgb(0, 0, 0)" stroke="rgb(60, 60, 60)" stroke-width="1px" opacity="0.25"></line><line x1="147.21695687958677" y1="0" x2="147.21695687958677" y2="177" fill="rgb(0, 0, 0)" stroke="rgb(60, 60, 60)" stroke-width="1px" opacity="0.25"></line><line x1="179.0651551049649" y1="0" x2="179.0651551049649" y2="177" fill="rgb(0, 0, 0)" stroke="rgb(60, 60, 60)" stroke-width="1px" opacity="0.25"></line><line x1="210.91335333034306" y1="0" x2="210.91335333034306" y2="177" fill="rgb(0, 0, 0)" stroke="rgb(60, 60, 60)" stroke-width="1px" opacity="0.25"></line><line x1="242.76155155572118" y1="0" x2="242.76155155572118" y2="177" fill="rgb(0, 0, 0)" stroke="rgb(60, 60, 60)" stroke-width="1px" opacity="0.25"></line><line x1="274.6097497810993" y1="0" x2="274.6097497810993" y2="177" fill="rgb(0, 0, 0)" stroke="rgb(60, 60, 60)" stroke-width="1px" opacity="0.25"></line></g><g><line x1="0" y1="176.63995666178374" x2="281.125" y2="176.63995666178374" fill="rgb(0, 0, 0)" stroke="rgb(60, 60, 60)" stroke-width="1px" opacity="0.25"></line><line x1="0" y1="158.41082505293315" x2="281.125" y2="158.41082505293315" fill="rgb(0, 0, 0)" stroke="rgb(60, 60, 60)" stroke-width="1px" opacity="0.25"></line><line x1="0" y1="140.18169344408255" x2="281.125" y2="140.18169344408255" fill="rgb(0, 0, 0)" stroke="rgb(60, 60, 60)" stroke-width="1px" opacity="0.25"></line><line x1="0" y1="121.95256183523199" x2="281.125" y2="121.95256183523199" fill="rgb(0, 0, 0)" stroke="rgb(60, 60, 60)" stroke-width="1px" opacity="0.25"></line><line x1="0" y1="103.72343022638141" x2="281.125" y2="103.72343022638141" fill="rgb(0, 0, 0)" stroke="rgb(60, 60, 60)" stroke-width="1px" opacity="0.25"></line><line x1="0" y1="85.49429861753082" x2="281.125" y2="85.49429861753082" fill="rgb(0, 0, 0)" stroke="rgb(60, 60, 60)" stroke-width="1px" opacity="0.25"></line><line x1="0" y1="67.26516700868025" x2="281.125" y2="67.26516700868025" fill="rgb(0, 0, 0)" stroke="rgb(60, 60, 60)" stroke-width="1px" opacity="0.25"></line><line x1="0" y1="49.03603539982966" x2="281.125" y2="49.03603539982966" fill="rgb(0, 0, 0)" stroke="rgb(60, 60, 60)" stroke-width="1px" opacity="0.25"></line><line x1="0" y1="30.806903790979106" x2="281.125" y2="30.806903790979106" fill="rgb(0, 0, 0)" stroke="rgb(60, 60, 60)" stroke-width="1px" opacity="0.25"></line><line x1="0" y1="12.577772182128513" x2="281.125" y2="12.577772182128513" fill="rgb(0, 0, 0)" stroke="rgb(60, 60, 60)" stroke-width="1px" opacity="0.25"></line></g></g></g><g><g><line x1="0" y1="176.63995666178374" x2="281.125" y2="176.63995666178374" fill="rgb(0, 0, 0)" stroke="rgb(153, 153, 153)" stroke-width="1.5px"></line></g></g><g><g><line x1="19.82416397807423" y1="0" x2="19.82416397807423" y2="177" fill="rgb(0, 0, 0)" stroke="rgb(153, 153, 153)" stroke-width="1.5px"></line></g></g><g><g><g><g><g><path stroke="rgb(0, 153, 136)" stroke-width="2px" d="M22.0535378538507,-30.803887908452452L22.372019836104478,3.6509899842660047L22.69050181835826,18.382569751228118L23.008983800612043,23.985779754721676L23.327465782865826,27.40948375684175L23.645947765119605,30.902835031556265L23.964429747373387,33.10629926008582L24.282911729627166,35.71697185970072L24.60139371188095,37.96051586619947L24.91987569413473,39.77627513305194L25.238357676388514,41.540600269382765L25.556839658642293,43.53031473658413L25.875321640896075,45.80004437911293L26.193803623149854,47.31970766510918L26.512285605403637,49.033454321888215L26.83076758765742,50.922541518681626L27.149249569911202,52.51796386991414L27.46773155216498,54.036554196757706L27.786213534418764,55.359363432640166L28.104695516672543,56.461469045344174L28.423177498926325,57.372981799951944L28.741659481180108,59.03043205561869L29.06014146343389,59.76467566008954L29.37862344568767,60.76687383574118L29.69710542794145,62.01433145923015L30.01558741019523,63.14570576780798L30.334069392449013,64.9875623892412L30.652551374702796,64.99870622449156L30.97103335695658,66.6440075945624L31.289515339210357,67.00686472370994L31.60799732146414,68.45670417421323L31.92647930371792,68.43797492520626L32.2449612859717,70.13315531411546L32.563443268225484,70.86080497341378L32.88192525047926,71.70051774624109L33.20040723273305,72.20036052113497L33.51888921498683,72.58627948118448L33.83737119724061,73.9620168413455L34.155853179494386,74.37629451925328L34.47433516174817,74.70173389567117L34.79281714400195,75.12481255498322L35.11129912625574,76.09824455993382L35.429781108509516,76.68236216447832L35.7482630907633,77.79428739069358L36.066745073017074,77.99340959496554L36.38522705527086,79.35732403180492L36.70370903752464,79.35491326915172L37.022191019778425,79.94106134702947L37.340673002032204,80.66913883181276L37.65915498428598,81.32744680814876L37.97763696653977,81.64193249397631L38.29611894879354,81.70928444888965L38.61460093104733,82.40249755209145L38.93308291330111,83.30232320099185L39.25156489555489,83.11654507732128L39.57004687780868,82.938644375278L39.88852886006245,84.37990015255983L40.20701084231624,83.84050049751164L40.525492824570016,84.39803180406403L40.8439748068238,84.73902908819584L41.16245678907758,85.1248258123925L41.48093877133136,85.9286419897699L41.799420753585146,85.83054771786799L42.11790273583892,86.04478642260749L42.436384718092704,86.80307653568372L42.75486670034648,86.46348496385954L43.07334868260027,86.81430865238333L43.391830664854055,87.39575744080754L43.71031264710783,87.81136613133509L44.02879462936161,87.50966088300977L44.34727661161539,89.02832590954117L44.66575859386918,88.51498286378947L44.98424057612296,89.3626952940969L45.302722558376736,89.78503374741122L45.62120454063052,90.3348981496384L45.939686522884294,90.11873762565706L46.25816850513808,90.50523381056719L46.576650487391866,91.60510522351656L46.895132469645645,91.47151501812682L47.21361445189943,91.60511201439728L47.5320964341532,92.50800035049932L47.85057841640699,92.02607191892682L48.16906039866077,92.51042469491392L48.48754238091455,92.66439433332394L48.80602436316833,92.09283985809884L49.12450634542211,93.67673808476108L49.4429883276759,93.59215087459766L49.76147030992967,93.73819555521538L50.07995229218346,93.36931491487525L50.39843427443724,94.1760375891979L50.71691625669102,94.13883035377037L51.03539823894481,94.39141037101652L51.35388022119858,94.67685146003377L51.672362203452366,94.98564638782366L51.990844185706145,95.58452736703862L52.309326167959924,95.2019563111807L52.62780815021371,96.39715810758173L52.94629013246749,95.82296877063992L53.264772114721275,96.38494810405943L53.58325409697505,96.42049157371224L53.90173607922883,95.94724188769118L54.22021806148262,96.97475646664157L54.5387000437364,96.7805304873638L54.857182025990184,96.29433059182271L55.175664008243956,97.69712961162577L55.49414599049774,97.1140510118304L55.81262797275152,97.60888890763866L56.1311099550053,98.03693849163277L56.449591937259086,97.18590532065659L56.768073919512865,97.7935193724687L57.08655590176665,97.55553295787517L57.40503788402042,97.31748542535523L57.72351986627421,99.08365768124004L58.042001848527995,98.85958578122782L58.360483830781774,98.58738690960129L58.67896581303555,98.26864334156659L58.99744779528933,99.20828392408838L59.31592977754312,98.81720389469685L59.6344117597969,99.29175063893413L59.95289374205068,99.39464606350028L60.27137572430446,99.02823051285904L60.58985770655824,98.92068333500434L60.90833968881203,99.44373734017589L61.2268216710658,99.15766469925232L61.545303653319586,99.38619820789307L61.86378563557337,99.7381763461381L62.18226761782715,100.44319879090011L62.50074960008093,99.77323087237956L62.81923158233471,99.99889183847864L63.137713564588495,99.7101571723155L63.456195546842274,100.20437030709816L63.77467752909605,100.66466978359918L64.09315951134984,100.23504471527961L64.41164149360361,100.26614694894599L64.7301234758574,100.57498941290088L65.04860545811118,100.84093388339058L65.36708744036497,100.9029617878248L65.68556942261874,100.18386863822506L66.00405140487253,100.59191228763812L66.32253338712631,100.51908009198924L66.64101536938009,101.10892240897493L66.95949735163387,100.73860889280432L67.27797933388764,100.51112117979338L67.59646131614143,101.55815954079418L67.91494329839522,100.94184637078848L68.23342528064899,101.5777987678167L68.55190726290277,101.93894459502452L68.87038924515656,101.97432508354021L69.18887122741035,101.55123284246673L69.50735320966412,101.95502540055334L69.8258351919179,102.11463826083602L70.14431717417169,101.72750373313883L70.46279915642548,101.39114462053413L70.78128113867923,101.60211691165061L71.09976312093302,102.00864619466464L71.4182451031868,101.97177171239206L71.73672708544059,102.17555925171398L72.05520906769438,102.23215445157766L72.37369104994815,102.55226298663571L72.69217303220194,102.39871438282991L73.01065501445572,101.6589294196971L73.3291369967095,102.20313701829022L73.64761897896328,103.10819843622049L73.96610096121705,102.39626287489244L74.28458294347084,102.30226350406056L74.60306492572462,102.27167058644767L74.92154690797841,102.8962482582813L75.2400288902322,102.3189147435693L75.55851087248597,102.4359487817803L75.87699285473974,102.79962760749413L76.19547483699353,102.55102704634591L76.51395681924731,102.9515667725709L76.83243880150108,102.96159690338428L77.15092078375487,103.17203950580512L77.46940276600866,102.95102350211386L77.78788474826244,103.15557162007566L78.10636673051623,103.21326015173415L78.42484871276999,103.36854043012181L78.74333069502377,103.7124713747217L79.06181267727756,103.50635456331516L79.38029465953134,103.55262762449479L79.69877664178513,103.32348293658983L80.0172586240389,104.06296910097126L80.33574060629269,104.46433731464326L80.65422258854647,104.687709753942L80.97270457080025,103.7505274702384L81.29118655305403,104.22479578836642L81.6096685353078,103.57363181854066L81.92815051756159,104.08054390025697L82.24663249981538,104.05086096065965L82.56511448206916,104.27881045355909L82.88359646432295,104.43647433107706L83.20207844657672,104.19276320404234L83.52056042883049,104.30144445897612L83.83904241108428,103.7084511733395L84.15752439333806,104.11057317477066L84.47600637559184,104.05213764623372L84.79448835784562,104.69340730286036L85.11297034009941,103.96516683693999L85.4314523223532,104.91598520911568L85.74993430460698,105.19126034970529L86.06841628686074,104.56056409434908L86.38689826911452,104.71198036161093L86.70538025136831,105.27287994499704L87.0238622336221,105.59246558224018L87.34234421587588,104.46982434625951L87.66082619812966,105.5929952709358L87.97930818038344,104.9848107851438L88.29779016263723,104.92376755841299L88.616272144891,105.0359121625105L88.93475412714479,105.10150527931914L89.25323610939856,105.43920219542434L89.57171809165234,104.89769736735508L89.89020007390613,105.4173423504086L90.20868205615992,105.0202048554209L90.5271640384137,105.27906643732675L90.84564602066747,105.77818258798432L91.16412800292125,105.69117103340629L91.48260998517503,105.71243328091929L91.80109196742882,105.74606172221097L92.11957394968259,105.7694155609836L92.43805593193638,106.07523608302112L92.75653791419016,105.24728511558905L93.07501989644395,106.07643127802663L93.39350187869773,105.70541151026185L93.71198386095149,106.05338302888609L94.03046584320528,106.3380839119056L94.34894782545906,105.73212683498751L94.66742980771285,105.80944780278783L94.98591178996664,106.7086962268276L95.30439377222041,106.21647282009391L95.6228757544742,105.97496872929095L95.94135773672798,106.2667932461786L96.25983971898175,106.93484613633805L96.57832170123554,106.01492627140733L96.89680368348931,106.24639344051619L97.2152856657431,106.2732377919754L97.53376764799688,106.13832336484658L97.85224963025067,106.99006957829765L98.17073161250445,107.0123504579176L98.48921359475823,106.32998918209549L98.807695577012,106.88003014722122L99.12617755926578,106.77627228080449L99.44465954151957,106.75408647351452L99.76314152377336,106.71074028192227L100.08162350602713,106.76714533712598L100.40010548828091,106.7850325169245L100.7185874705347,107.45024002806511L101.03706945278849,106.76562417984623L101.35555143504224,107.03847497602122L101.67403341729603,106.15744648493492L101.99251539954982,107.0547391353293L102.3109973818036,107.08832004045598L102.62947936405739,107.13455914723205L102.94796134631116,107.4020179841208L103.26644332856495,107.17601747398605L103.58492531081873,107.41835684311671L103.9034072930725,107.97735497990314L104.22188927532629,107.06988959020042L104.54037125758006,107.74903198856448L104.85885323983385,107.66676725960497L105.17733522208763,107.23249043799689L105.49581720434142,106.97143540162068L105.8142991865952,107.5412446205025L106.13278116884898,107.44193478095289L106.45126315110275,108.37281512735467L106.76974513335654,107.5728222158188L107.08822711561032,108.41072182349566L107.40670909786411,108.07912311827091L107.72519108011788,108.19237463592468L108.04367306237167,107.76323851101647L108.36215504462545,108.25317339094981L108.68063702687924,108.35385498840347L108.999119009133,108.69510353512166L109.31760099138678,107.85086124485868L109.63608297364057,107.68375125226865L109.95456495589436,108.44558620507716L110.27304693814814,108.5578462541468L110.59152892040191,108.26206944468409L110.9100109026557,108.08830438899514L111.22849288490949,108.49440584652423L111.54697486716326,108.96455889094008L111.86545684941704,108.5201976114729L112.18393883167082,109.1952858540512L112.5024208139246,108.06806756446986L112.82090279617839,108.90122713740892L113.13938477843217,108.23218277866536L113.45786676068596,108.83371220135845L113.77634874293973,109.06380082168253L114.0948307251935,109.12320744616147L114.41331270744729,108.90990588296037L114.73179468970108,108.8155533863314L115.05027667195486,108.84432634791315L115.36875865420863,108.76344016773842L115.68724063646242,109.03020633479443L116.0057226187162,109.17316116468764L116.32420460096999,109.04627355856181L116.64268658322375,109.70661200823108L116.96116856547754,109.81212192187182L117.27965054773132,109.79402422477118L117.59813252998511,109.84091525609571L117.9166145122389,109.19943508216696L118.23509649449267,109.5543604626415L118.55357847674645,109.6951354198258L118.87206045900024,109.9499564277073L119.19054244125401,109.25612535436062L119.5090244235078,110.38140824293872L119.82750640576157,109.42292975731854L120.14598838801535,110.52591139363454L120.46447037026914,109.84890133181442L120.78295235252293,109.97098778527602L121.10143433477671,109.47589862688137L121.41991631703047,110.09446636928385L121.73839829928426,109.68412061130903L122.05688028153804,109.7772439585289L122.37536226379183,109.95765728643605L122.69384424604561,110.08402199474698L123.01232622829939,109.66575127897985L123.33080821055317,110.48424254957845L123.64929019280696,110.1360537227714L123.96777217506074,110.99355181218651L124.2862541573145,110.88169242507895L124.60473613956829,110.16590643438654L124.92321812182207,110.7101411965025L125.24170010407586,110.2534001414952L125.56018208632965,110.4195729925468L125.87866406858342,111.23210866075993L126.1971460508372,110.7699484829435L126.51562803309099,110.5021908473034L126.83411001534476,110.47456554456217L127.15259199759855,110.40219512880176L127.47107397985232,110.67197644689442L127.7895559621061,110.93178875210012L128.1080379443599,110.98456068612226L128.42651992661368,111.47612537742677L128.74500190886747,111.20525751842001L129.06348389112122,110.84949685961774L129.381965873375,111.12278906303911L129.7004478556288,111.13448975050792L130.01892983788258,111.75128507304426L130.33741182013637,111.1897946830361L130.65589380239012,111.70702890343644L130.9743757846439,111.36772254860222L131.2928577668977,111.66064039728468L131.61133974915148,111.40683802151017L131.92982173140527,111.38259457736409L132.24830371365906,111.37608212276015L132.56678569591284,111.47741564476227L132.88526767816663,111.7042718058669L133.20374966042039,111.71391485647962L133.52223164267417,112.09672359316248L133.84071362492796,111.2328624485191L134.15919560718174,111.32874968418926L134.47767758943553,111.74843969402544L134.79615957168932,111.95213895189809L135.11464155394307,111.7624356991753L135.43312353619686,112.26162654952073L135.75160551845065,112.46760754331301L136.07008750070443,112.42882482356002L136.38856948295822,112.45293924097253L136.70705146521198,111.96915010808462L137.02553344746576,112.2258657716851L137.34401542971955,112.71406218615587L137.66249741197333,112.92466097883312L137.98097939422712,112.60347269374168L138.29946137648088,111.93583404730573L138.61794335873466,112.31486705431209L138.93642534098845,112.9040914011529L139.25490732324224,112.8911683551557L139.57338930549602,112.49225164942115L139.8918712877498,113.07226077113417L140.2103532700036,112.39814362449785L140.52883525225738,112.73145363166233L140.84731723451114,113.16928887476413L141.16579921676492,113.17381839219982L141.4842811990187,113.35067329861327L141.8027631812725,113.35801424066423L142.12124516352625,113.06151759784592L142.43972714578007,113.40413111158745L142.75820912803383,112.22837160666826L143.07669111028764,113.17953631376034L143.3951730925414,113.23979179832841L143.71365507479516,112.88134195076373L144.03213705704897,113.15900748136437L144.35061903930273,114.02174133980937L144.66910102155654,113.88821904322674L144.9875830038103,113.77731037941905L145.3060649860641,114.08541942825688L145.62454696831787,114.14355615804246L145.94302895057163,113.67878828203217L146.26151093282544,114.15401411434075L146.5799929150792,113.63834858738517L146.898474897333,113.69651927157429L147.21695687958677,114.3775902800609L147.53543886184056,113.52882526324294L147.85392084409435,113.89784851207804L148.17240282634813,114.66536064116278L148.4908848086019,113.58986169909303L148.80936679085568,114.513421476086L149.12784877310946,113.72227029123869L149.44633075536325,113.8610011933283L149.76481273761704,113.89156694741835L150.0832947198708,115.21062082626642L150.4017767021246,114.79200377558294L150.72025868437836,114.73031541518438L151.03874066663212,114.45409634217563L151.35722264888594,114.57150387882587L151.6757046311397,115.0605559442665L151.9941866133935,114.98367638371255L152.31266859564727,115.0318644732533L152.63115057790105,114.76708803424627L152.94963256015484,115.62424657962572L153.2681145424086,115.08553280352959L153.5865965246624,114.6995730981958L153.90507850691617,115.3510766120572L154.22356048916996,115.44307946395942L154.54204247142374,115.16446321005893L154.86052445367753,115.30917008717614L155.1790064359313,115.29100448126837L155.4974884181851,115.84183997943757L155.81597040043886,115.852365844543L156.13445238269264,115.83396934869099L156.45293436494643,115.4939159969783L156.77141634720022,115.0109553515374L157.089898329454,115.9048457706945L157.40838031170776,115.72942374011151L157.72686229396157,115.77651170697672L158.04534427621533,116.17142858397122L158.36382625846915,116.06610881499044L158.6823082407229,115.99517806594125L159.00079022297666,115.8230088672199L159.31927220523048,116.11526800047318L159.63775418748423,116.3322841754244L159.95623616973805,115.70363876604355L160.2747181519918,116.38056733729513L160.5932001342456,116.54266565991882L160.91168211649938,116.95981588036827L161.23016409875314,116.058353629216L161.54864608100695,116.66943782107253L161.8671280632607,116.30587444033083L162.1856100455145,116.72487857121497L162.50409202776828,116.77267278967436L162.82257401002207,116.48067850076887L163.14105599227585,116.18956023547543L163.4595379745296,116.32731325074235L163.7780199567834,117.15930479219875L164.09650193903718,116.61433661496577L164.41498392129097,116.44640492580945L164.73346590354475,116.58290841902516L165.05194788579854,117.26423748097886L165.3704298680523,116.92843522059266L165.6889118503061,116.77752147850357L166.00739383255987,117.0392080667861L166.32587581481366,117.22573997821584L166.64435779706744,117.5991161815881L166.9628397793212,117.34508970675003L167.28132176157501,117.46240896195098L167.59980374382877,117.2680132106554L167.91828572608256,116.89479319753954L168.23676770833634,118.0137198217701L168.5552496905901,117.37918671881093L168.87373167284392,116.90668402966833L169.19221365509767,117.67319789928823L169.51069563735146,117.23397731652092L169.82917761960525,117.82856645912514L170.14765960185903,117.52815147813533L170.46614158411282,117.44507863437094L170.7846235663666,117.64440456506432L171.10310554862036,117.54723385293937L171.42158753087415,117.67234224831836L171.74006951312793,117.88188845448506L172.05855149538172,117.71257142566326L172.3770334776355,118.14189090435073L172.69551545988926,118.05365699124432L173.01399744214308,118.21393535783689L173.33247942439684,117.69845997554125L173.65096140665065,118.09868732125345L173.9694433889044,118.19303302700172L174.28792537115817,117.70053119415878L174.60640735341198,118.11846236589024L174.92488933566574,118.14129330684796L175.24337131791955,118.0605429442875L175.5618533001733,117.99134386982016L175.8803352824271,117.91361544917706L176.19881726468088,117.8913821057221L176.51729924693464,118.88707461765051L176.83578122918846,118.33960739631507L177.1542632114422,119.07764031222386L177.472745193696,118.71407014060145L177.79122717594979,118.14752733534266L178.10970915820357,118.18884984448239L178.42819114045736,118.62424716140816L178.74667312271112,117.99922129144744L179.0651551049649,118.58361053122047L179.3836370872187,118.47816173550615L179.70211906947247,118.68718504385794L180.02060105172626,118.48880983646441L180.33908303398005,118.53571444955038L180.6575650162338,118.6509489043724L180.97604699848762,118.6329191160789L181.29452898074138,118.2456216072446L181.61301096299516,118.8423091319892L181.93149294524895,118.77052273197013L182.2499749275027,118.7006106150279L182.56845690975652,118.6176803797585L182.88693889201028,118.9654142175578L183.20542087426406,118.97348178384505L183.52390285651785,119.04383530803364L183.8423848387716,118.78917049040854L184.16086682102542,118.36480156376098L184.47934880327918,118.36367427756258L184.79783078553297,119.46060523916314L185.11631276778675,118.5000826984483L185.43479475004054,119.11921408394997L185.75327673229432,119.55384403135517L186.0717587145481,118.98659497450221L186.39024069680187,118.98512135338746L186.70872267905565,119.23703586432372L187.02720466130944,118.80186264646147L187.34568664356323,118.96002225827152L187.664168625817,119.43712916453767L187.98265060807077,119.22800399297518L188.30113259032458,119.3031179245437L188.61961457257834,118.8205715228263L188.93809655483216,119.27941095997397L189.25657853708591,119.3390688470393L189.57506051933967,119.06092795478872L189.8935425015935,119.41000638696921L190.21202448384724,119.37658167209892L190.53050646610106,119.0490235408985L190.84898844835482,119.51127200016421L191.16747043060857,119.19559111933114L191.4859524128624,119.79495764651709L191.80443439511615,119.28047712824595L192.12291637736996,119.40772465104959L192.44139835962372,119.14721967601115L192.7598803418775,119.64646485340226L193.0783623241313,119.6273756877175L193.39684430638508,119.46277832099136L193.71532628863886,120.30435519057443L194.03380827089262,120.17117583346783L194.3522902531464,119.38213661252232L194.6707722354002,119.33460044753002L194.98925421765398,119.64165690985732L195.30773619990777,119.89097390892081L195.62621818216155,120.07359087761938L195.9447001644153,119.90608361850764L196.26318214666912,119.51700350348614L196.58166412892288,119.97597536280773L196.90014611117667,120.19431915493836L197.21862809343045,119.22362387491518L197.5371100756842,119.81288217615955L197.85559205793803,119.99441939482473L198.17407404019178,119.77151213085483L198.49255602244557,120.09465279415133L198.81103800469936,119.68022571686785L199.1295199869531,119.48442085782429L199.44800196920693,119.64604381879805L199.76648395146069,120.00630004063245L200.08496593371447,120.23659578281828L200.40344791596826,119.98306504227229L200.72192989822204,120.28868523332875L201.04041188047583,119.47379992038886L201.35889386272962,120.12308960713779L201.67737584498337,119.86826520381592L201.99585782723716,120.105504621531L202.31433980949095,119.54602772765429L202.63282179174473,120.21385991419055L202.95130377399852,120.19396263370092L203.26978575625228,120.0876921414203L203.5882677385061,120.37996485643501L203.90674972075985,120.04981260880217L204.22523170301363,120.13129978192L204.54371368526742,120.64447984653458L204.86219566752118,120.70614443885066L205.180677649775,120.4654858126965L205.49915963202875,120.29158154395293L205.81764161428256,120.0651090676086L206.13612359653632,119.826769527218L206.45460557879008,119.91496269504012L206.7730875610439,120.77430450856889L207.09156954329765,119.94701565200634L207.41005152555147,120.60789058125195L207.72853350780522,120.7363027400979L208.047015490059,120.41073094150609L208.3654974723128,120.34890676349326L208.68397945456658,120.20568708925222L209.00246143682037,120.79157032278215L209.32094341907413,119.99814079745556L209.6394254013279,120.6407007214177L209.9579073835817,120.37617554499707L210.27638936583548,120.96578357659816L210.59487134808927,119.93409260600916L210.91335333034306,120.68302828090297L211.23183531259681,120.8743002270705L211.55031729485063,120.1413910306598L211.8687992771044,120.84006060651464L212.18728125935817,121.21511415742305L212.50576324161196,120.94751950292004L212.82424522386572,120.50322952770037L213.14272720611953,120.44428128766958L213.4612091883733,120.38457925987963L213.7796911706271,120.45654561823758L214.09817315288086,121.06795916780871L214.41665513513462,121.04877492979398L214.73513711738843,120.50322273681965L215.0536190996422,120.58742965766314L215.37210108189598,120.5728835911755L215.69058306414976,120.43405082587518L216.00906504640355,120.49539285135737L216.32754702865734,120.80316575159992L216.64602901091112,120.61232502635767L216.96451099316488,121.14556195715863L217.28299297541867,120.85540799692643L217.60147495767245,120.45001618643187L217.91995693992624,120.77451163043062L218.23843892218002,121.2683784302969L218.55692090443378,121.10416135289071L218.8754028866876,120.79617793534604L219.19388486894135,120.935102377536L219.51236685119514,121.22494395725539L219.83084883344893,121.20745404397859L220.14933081570268,120.76153425738774L220.4678127979565,121.04861873953757L220.78629478021026,120.95805555434656L221.10477676246407,121.05380357696208L221.42325874471783,121.53536530097608L221.74174072697159,121.35540356663635L222.0602227092254,120.82675048031679L222.37870469147916,121.36134898270075L222.69718667373297,121.13742648206423L223.01566865598673,120.98220053072228L223.33415063824052,121.36244231449557L223.6526326204943,121.45207514902887L223.9711146027481,121.15341221526307L224.28959658500187,121.21444865111317L224.60807856725563,121.42816785347813L224.92656054950942,121.43010664992173L225.2450425317632,121.78136835025151L225.563524514017,121.58371297621359L225.88200649627078,121.0313766934068L226.20048847852456,121.85267259773994L226.51897046077832,121.69077460609729L226.83745244303213,121.04578354683983L227.1559344252859,121.55287219145467L227.47441640753968,121.2599475518915L227.79289838979346,121.53544339610428L228.11138037204722,121.07750714609146L228.42986235430104,121.16084483420366L228.7483443365548,121.56087863981551L229.0668263188086,121.63113369623375L229.38530830106237,121.50488443289495L229.70379028331612,121.60441158062737L230.02227226556994,121.24443038946187L230.3407542478237,121.57981840612459L230.65923623007748,121.34574693426222L230.97771821233127,121.48799551256127L231.29620019458505,121.97409354489167L231.61468217683884,120.8492384817985L231.9331641590926,121.11526783829711L232.25164614134638,121.0545607601616L232.57012812360017,121.52842841632756L232.88861010585396,121.9221908436008L233.20709208810774,122.33906603338136L233.52557407036153,121.68332840539529L233.8440560526153,121.79747292386284L234.1625380348691,121.40132689745926L234.48102001712286,121.60272404677016L234.79950199937664,121.69865542316494L235.11798398163043,121.53477449435402L235.4364659638842,121.72672213315252L235.754947946138,121.7489860355707L236.07342992839176,121.34294909140837L236.39191191064558,121.79232204084187L236.71039389289933,122.21744815068897L237.0288758751531,121.65284753731416L237.3473578574069,122.11390759245506L237.66583983966066,121.67989901063513L237.98432182191448,121.92634346715693L238.30280380416824,122.19475981822622L238.62128578642202,121.78298797530161L238.9397677686758,121.92494454573L239.2582497509296,121.96208047691005L239.57673173318338,121.86045834247761L239.89521371543714,121.65249101607671L240.21369569769092,122.23085334921679L240.5321776799447,122.08520593512077L240.8506596621985,122.01236015771045L241.16914164445228,121.78592842665041L241.48762362670607,121.75279911509115L241.80610560895983,122.4457100241012L242.12458759121364,122.05409351513333L242.4430695734674,122.17446187577451L242.76155155572118,121.56400584038394L243.08003353797497,122.3111623045309L243.39851552022873,122.32872352205518L243.71699750248254,122.31297886512166L244.0354794847363,121.79355119025098L244.3539614669901,123.10851356346936L244.67244344924387,121.86362628833031L244.99092543149763,121.9210805346042L245.30940741375144,122.3895392542821L245.6278893960052,122.90781927031227L245.946371378259,122.5327079969178L246.26485336051277,122.02956145855694L246.58333534276656,122.18445465674395L246.90181732502035,122.70954592612946L247.2202993072741,121.91008609872955L247.5387812895279,122.10406081542094L247.85726327178168,122.49985371602742L248.17574525403546,122.80316500764141L248.49422723628925,122.2426321318138L248.81270921854303,122.27771721701846L249.1311912007968,122.33731059071701L249.4496731830506,122.21325478184858L249.76815516530436,122.46035795379953L250.08663714755815,122.5795616783984L250.40511912981194,122.05165898439765L250.7236011120657,122.38599101910947L251.0420830943195,122.47763395433388L251.36056507657327,122.96225497010916L251.67904705882708,122.22092168617375L251.99752904108084,122.46902311758956L252.3160110233346,122.32846546858809L252.6344930055884,122.82162941230055L252.95297498784217,122.41661449568556L253.27145697009598,122.77758715543519L253.58993895234974,122.35840306621216L253.90842093460353,122.89130045297746L254.2269029168573,122.3657440082631L254.5453848991111,122.62840848336833L254.86386688136488,123.05953433632553L255.18234886361864,122.65961937112613L255.50083084587243,122.83381904318071L255.81931282812621,122.36374069845272L256.13779481038,123.19629927844868L256.4562767926338,122.64791868365731L256.7747587748876,122.05144507165518L257.09324075714136,122.108451119802L257.41172273939515,122.58588059290203L257.7302047216489,122.60598499525341L258.0486867039027,122.99920075662924L258.36716868615645,123.11822112744885L258.68565066841023,122.59471892415023L259.004132650664,122.77591999422012L259.3226146329178,122.85605917751639L259.6410966151716,122.97891300049861L259.9595785974254,122.91925511343328L260.27806057967916,123.06267511865536L260.59654256193295,123.07628404360457L260.91502454418674,123.00621913184631L261.23350652644046,122.32125694871104L261.5519885086943,122.88276092048062L261.87047049094804,123.05342933456436L262.1889524732019,122.61631732025852L262.5074344554556,122.96900850097842L262.8259164377094,122.92352318196151L263.1443984199632,122.45909484998688L263.46288040221697,122.96645512983027L263.78136238447075,122.7953351221791L264.09984436672454,122.36645365529765L264.4183263489783,123.1787448518051L264.7368083312321,123.2843668149776L265.05529031348584,123.09192344188705L265.3737722957397,123.23390038495758L265.6922542779934,123.42287361800369L266.0107362602472,123.24513929253789L266.329218242501,123.15995108943136L266.6477002247548,122.81983661979228L266.96618220700856,123.16580143316577L267.28466418926234,123.16311224440335L267.60314617151613,123.00758409886967L267.9216281537699,123.37743243971143L268.2401101360237,122.8279619085656L268.5585921182775,123.13887898657836L268.8770741005313,123.49858175163462L269.195556082785,123.21861750791255L269.51403806503885,122.90899069723531L269.8325200472926,122.7522435886136L270.1510020295464,122.91877296090266L270.46948401180015,123.08003260975826L270.78796599405393,123.81864275052769L271.1064479763077,123.44587433097925L271.4249299585615,122.94888033054454L271.7434119408153,123.37907583284402L272.0618939230691,123.41788571611986L272.38037590532286,123.30141871644841L272.69885788757665,123.4669192703094L273.0173398698304,123.33736624350365L273.3358218520842,123.62523507237586L273.65430383433795,123.42733862207261L273.97278581659174,123.33362786367104L274.2912677988455,123.32901685566678L274.6097497810993,123.88750228095935L274.9282317633531,124.11121426429378L275.2467137456069,123.11750129409324L275.56519572786067,123.36942938679093L275.88367771011445,123.8415755546961L276.20215969236824,123.53813863178891L276.520641674622,123.120822034762" style="fill: none;" fill="none"></path></g><g><path stroke="rgb(51, 187, 238)" stroke-width="2px" d="M32.563443268225484,-156.21147590989625L35.7482630907633,25.461139334945074L38.93308291330111,37.039984822004584L42.11790273583892,-79.23977668642772L45.302722558376736,34.69165752610138L48.48754238091455,58.74717083931037L51.672362203452366,43.036726362827096L54.857182025990184,62.13364723336079L58.042001848527995,57.103614725582815L61.2268216710658,14.378394847506513L64.41164149360361,64.80800471230393L67.59646131614143,39.98743077794768L70.78128113867923,47.351937184973934L73.96610096121705,67.32992729187823L77.15092078375487,56.06008724991074L80.33574060629269,22.417833306854675L83.52056042883049,72.16762847609742L86.70538025136831,48.598267522264536L89.89020007390613,59.987715346233344L93.07501989644395,74.54473552446308L96.25983971898175,13.865058592635535L99.44465954151957,82.32534635630896L102.62947936405739,66.81876411883546L105.8142991865952,73.90399555653207L108.999119009133,50.550577818497715L112.18393883167082,19.163846995518497L115.36875865420863,33.51972807790443L118.55357847674645,55.593159873833656L121.73839829928426,33.72220497724874L124.92321812182207,52.51323741693777L128.1080379443599,51.25439827737348L131.2928577668977,63.29781470490258L134.47767758943553,49.68400711244976L137.66249741197333,51.098547565005916L140.84731723451114,63.613291859314245L144.03213705704897,51.44842732111057L147.21695687958677,67.86417945934582L150.4017767021246,78.49048169052845L153.5865965246624,72.43738942154793L156.77141634720022,52.615901951559664L159.95623616973805,65.39894036108446L163.14105599227585,77.80995395249889L166.32587581481366,74.3382927507823L169.51069563735146,65.82174738516798L172.69551545988926,61.93001588429529L175.8803352824271,72.66195026497148L179.0651551049649,48.063662228999874L179.70211906947247,65.96682776072443L180.33908303398005,8.71336066600017L180.97604699848762,57.09713622538243L181.61301096299516,81.43087871229126L182.2499749275027,61.170469458287116L182.88693889201028,73.41389090458088L183.52390285651785,70.44055811135912L184.16086682102542,70.93961993497099L184.79783078553297,62.80244032951798L185.43479475004054,51.39078632561707L186.0717587145481,25.868714413588947L186.70872267905565,74.39232778861711L187.34568664356323,62.16666449538829L187.98265060807077,76.54818115246651L188.61961457257834,57.68352877496585L189.25657853708591,80.45342650595846L189.8935425015935,19.753784384834177L190.53050646610106,-14.080760136496366L191.16747043060857,74.25270728115404L191.80443439511615,57.29676095482718L192.44139835962372,67.48549278725584L193.0783623241313,68.14100292073803L193.71532628863886,62.14850568036124L194.3522902531464,73.53222200100812L194.98925421765398,59.13924912816675L195.62621818216155,45.826895521452855L196.26318214666912,38.68580908989034L196.90014611117667,66.84300756298154L197.5371100756842,55.1157881232197L198.17407404019178,70.96030495762335L198.81103800469936,72.75374939045231L199.44800196920693,87.88381124678332L200.08496593371447,61.11512378047466L200.72192989822204,48.60739446594306L201.35889386272962,61.83702156380893L201.99585782723716,68.35672203747303L202.63282179174473,59.30066836271912L203.26978575625228,58.62117283855795L203.90674972075985,50.26849821543348L204.54371368526742,76.88201405744591L205.180677649775,37.48561599616511L205.81764161428256,76.59681064925363L206.45460557879008,71.09651644296838L207.09156954329765,67.81425290434248L207.72853350780522,65.1890138655978L208.3654974723128,75.3818338082158L209.00246143682037,54.388919415203375L209.6394254013279,63.04376785742238L210.27638936583548,60.789419559708946L210.91335333034306,57.83931157852628L211.55031729485063,51.48368557377343L212.18728125935817,40.80813587565876L212.82424522386572,56.6549004915785L213.4612091883733,77.23801918795384L214.09817315288086,56.90873003087586L214.73513711738843,78.97354419918005L215.37210108189598,60.872376958501206L216.00906504640355,53.52498357087215L216.64602901091112,60.58483748734356L217.28299297541867,36.24016847336722L217.91995693992624,72.09287446120669L218.55692090443378,16.64815165355816L219.19388486894135,40.87832641871023L219.83084883344893,73.33075694289009L220.4678127979565,34.9549263895901L221.10477676246407,44.78048871235839L221.74174072697159,35.44653182617887L222.37870469147916,26.986955158867488L223.01566865598673,58.617845307008494L223.6526326204943,58.364817091635274L224.28959658500187,79.8033898223311L224.92656054950942,53.3713059403328L225.563524514017,77.01768227233389L226.20048847852456,83.65309256246992L226.83745244303213,37.303253685493274L227.47441640753968,31.150023089516168L228.11138037204722,62.056312683799064L228.7483443365548,85.036286309654L229.38530830106237,66.06471151532426L230.02227226556994,61.78246362815922L230.65923623007748,68.9474200054286L231.29620019458505,45.65238346888546L231.9331641590926,39.83159364734155L232.57012812360017,75.7712025356676L233.20709208810774,8.076308146296412L233.8440560526153,63.91632812025935L234.48102001712286,52.41972698951723L235.11798398163043,64.1885881098123L235.754947946138,65.45558988799382L236.39191191064558,50.464007671166044L237.0288758751531,21.786064092345782L237.66583983966066,50.74184976466523L238.30280380416824,67.87439973481916L238.9397677686758,63.617950403483476L239.57673173318338,45.493626259572665L240.21369569769092,85.36329437951667L240.8506596621985,65.16537480983521L241.48762362670607,57.567241733633296L242.12458759121364,55.31442138408032L242.76155155572118,61.58105968796761L243.39851552022873,59.60460101991838L244.0354794847363,68.43894602114825L244.67244344924387,41.90565085300065L245.30940741375144,48.82421370535357L245.946371378259,49.67200083534887L246.58333534276656,35.82088591637384L247.2202993072741,57.65138074566964L247.85726327178168,67.85408821060602L248.49422723628925,66.84495654574623L249.1311912007968,51.82222455908706L249.76815516530436,50.01077071060675L250.40511912981194,57.12334902493534L251.0420830943195,63.50842028846054L251.67904705882708,65.74225333553946L252.3160110233346,75.59090465273259L252.95297498784217,45.982949960241825L253.58993895234974,23.930501985716347L254.2269029168573,73.47902903238173L254.86386688136488,59.67734493411798L255.50083084587243,72.6058643811613L256.13779481038,84.41658449017244L256.7747587748876,50.5204398898926L257.41172273939515,60.055148791715254L258.0486867039027,66.12263093692701L258.68565066841023,67.0887423724688L259.3226146329178,56.125415522371554L259.9595785974254,81.64422781165736L260.59654256193295,57.1231860437982L261.23350652644046,68.49831869122362L261.87047049094804,59.584337031870234L262.5074344554556,58.96245533967972L263.1443984199632,61.00922678663328L263.78136238447075,58.536463392541705L264.4183263489783,45.422417084414235L265.05529031348584,74.27858053667127L265.6922542779934,60.8221651865079L266.329218242501,36.394552355500764L266.96618220700856,71.63362757121624L267.60314617151613,48.99652551256992L268.2401101360237,51.37962211772461L268.8770741005313,71.5723738271833L269.51403806503885,52.55179603762724L270.1510020295464,76.08809219326761L270.78796599405393,66.42487945570939L271.4249299585615,35.15217431078523L272.0618939230691,62.08935710934942L272.69885788757665,57.449596516158095L273.3358218520842,75.81401224768351L273.97278581659174,52.1994579827044L274.6097497810993,56.82817660385609L275.2467137456069,73.31890685604557L275.88367771011445,72.61867877306709L276.520641674622,4.0580217924527915" style="fill: none;" fill="none"></path></g><g><path stroke="rgb(187, 187, 187)" stroke-width="2px" d="M45.302722558376736,-7.670155161489561L48.48754238091455,42.83157385648184L51.672362203452366,35.32307361481321L54.857182025990184,64.83950760793239L58.042001848527995,89.80063919129012L61.2268216710658,35.14515254012781L64.41164149360361,81.20836871484309L67.59646131614143,76.43620632038684L70.78128113867923,80.61851281609596L73.96610096121705,71.56470013197742L77.15092078375487,74.78051490282482L80.33574060629269,60.75728511217416L83.52056042883049,74.66735166662032L86.70538025136831,71.42336153169391L89.89020007390613,59.35515838956171L93.07501989644395,85.47482780434999L96.25983971898175,85.4500071353433L99.44465954151957,98.16125914484901L102.62947936405739,93.86264523516519L105.8142991865952,67.98039859187124L108.999119009133,56.2510196520426L112.18393883167082,44.74658863583818L115.36875865420863,83.0158566889869L118.55357847674645,94.42804717246415L121.73839829928426,82.84490305791321L124.92321812182207,76.34596909747006L128.1080379443599,99.15659174009963L131.2928577668977,40.86083310999308L134.47767758943553,60.387834037854105L137.66249741197333,82.79035870402492L140.84731723451114,44.15344595082587L144.03213705704897,74.86267097769291L147.21695687958677,97.52929299479943L150.4017767021246,97.638476774906L153.5865965246624,99.25904575741943L156.77141634720022,78.37406562246234L159.95623616973805,96.82707518377197L163.14105599227585,88.70359957559815L166.32587581481366,89.04461723237209L169.51069563735146,92.44338512051338L172.69551545988926,56.01028293076024L175.8803352824271,91.50292284142529L179.0651551049649,27.536975751351065L179.70211906947247,82.13124940376474L180.33908303398005,62.90282312822025L180.97604699848762,49.99794952782025L181.61301096299516,93.20016765807128L182.2499749275027,84.34761630564934L182.88693889201028,87.37693311947059L183.52390285651785,85.52698855910795L184.16086682102542,81.80864861548496L184.79783078553297,96.66815499332203L185.43479475004054,68.56736836631526L186.0717587145481,62.24086165806054L186.70872267905565,84.93455891657052L187.34568664356323,86.46931153951147L187.98265060807077,85.61510702724223L188.61961457257834,69.65320302883049L189.25657853708591,88.06713107163573L189.8935425015935,91.740596875506L190.53050646610106,80.01829403338051L191.16747043060857,97.08642570908916L191.80443439511615,66.68238965235331L192.44139835962372,77.87110583332111L193.0783623241313,91.78656434705354L193.71532628863886,72.51689705293788L194.3522902531464,70.57215179781919L194.98925421765398,56.802914527603036L195.62621818216155,93.74660945641902L196.26318214666912,77.86824687254087L196.90014611117667,72.80769614683783L197.5371100756842,72.04478144399592L198.17407404019178,93.84363756004899L198.81103800469936,84.84988342495784L199.44800196920693,98.68200425057807L200.08496593371447,80.21912074871149L200.72192989822204,68.44899652460377L201.35889386272962,78.30109081831847L201.99585782723716,81.57737838191679L202.63282179174473,94.84752666499821L203.26978575625228,60.79166055034429L203.90674972075985,69.49801103189209L204.54371368526742,93.1275527706052L205.180677649775,94.21174403998782L205.81764161428256,87.90719903995954L206.45460557879008,83.74567263923275L207.09156954329765,96.9017341263327L207.72853350780522,94.14675531156266L208.3654974723128,93.1506757194336L209.00246143682037,85.79904482223952L209.6394254013279,76.03692290709377L210.27638936583548,82.96868044067241L210.91335333034306,67.16702085444967L211.55031729485063,80.31340533653332L212.18728125935817,75.03425616067291L212.82424522386572,63.46898564415909L213.4612091883733,79.61622635899505L214.09817315288086,71.70502010015393L214.73513711738843,83.48141230715991L215.37210108189598,69.53040353289398L216.00906504640355,62.508449521682834L216.64602901091112,65.43711869245398L217.28299297541867,47.62738888846212L217.91995693992624,97.95042946222752L218.55692090443378,58.883069944142605L219.19388486894135,59.841874392037L219.83084883344893,58.23976981418272L220.4678127979565,82.29831186018978L221.10477676246407,63.61456175400761L221.74174072697159,79.45399221875708L222.37870469147916,77.50961367119692L223.01566865598673,91.36847698506568L223.6526326204943,82.00140097364797L224.28959658500187,102.97303274650527L224.92656054950942,62.02238544375601L225.563524514017,65.85918551053976L226.20048847852456,68.45235121967606L226.83745244303213,79.6033304765207L227.47441640753968,69.19146388561826L228.11138037204722,79.25468666070586L228.7483443365548,84.94535641690449L229.38530830106237,74.15886410057857L230.02227226556994,67.4503907248494L230.65923623007748,79.52626077130678L231.29620019458505,52.075700972587356L231.9331641590926,60.267282323433676L232.57012812360017,80.69520902287066L233.20709208810774,69.76537479645086L233.8440560526153,88.79393187084492L234.48102001712286,61.59772450923778L235.11798398163043,80.7706964528784L235.754947946138,72.13266223130523L236.39191191064558,95.0728684597038L237.0288758751531,76.35989040293207L237.66583983966066,33.83683504368727L238.30280380416824,76.17511053872634L238.9397677686758,99.3310902109056L239.57673173318338,61.517456299207936L240.21369569769092,83.37283291543683L240.8506596621985,83.74251487970112L241.48762362670607,76.94499268517997L242.12458759121364,54.472773210249755L242.76155155572118,74.47656187298342L243.39851552022873,50.59785593002289L244.0354794847363,42.78449947137804L244.67244344924387,68.02847802732057L245.30940741375144,59.39227734353997L245.946371378259,85.51060216394704L246.58333534276656,94.24575956148016L247.2202993072741,83.55371481411319L247.85726327178168,90.71887491780396L248.49422723628925,82.44568076254657L249.1311912007968,82.85129327666434L249.76815516530436,83.28994342545171L250.40511912981194,91.21743421624305L251.0420830943195,71.01061859282733L251.67904705882708,71.30111209709519L252.3160110233346,81.47434034885565L252.95297498784217,72.01924773251436L253.58993895234974,37.444490422566076L254.2269029168573,86.28229747555109L254.86386688136488,61.3026335787271L255.50083084587243,82.73607919448445L256.13779481038,91.30806531024119L256.7747587748876,72.74179064951639L257.41172273939515,84.862168128168L258.0486867039027,39.64489875477469L258.68565066841023,79.18527706893641L259.3226146329178,72.56538394123001L259.9595785974254,83.47212917322501L260.59654256193295,47.60933872752645L261.23350652644046,69.75810176320702L261.87047049094804,81.19777494093053L262.5074344554556,63.744749728160045L263.1443984199632,73.14653393090283L263.78136238447075,81.7180718485325L264.4183263489783,95.64711891457203L265.05529031348584,88.96079060084855L265.6922542779934,72.33242956924497L266.329218242501,82.36662812016442L266.96618220700856,60.99492519185131L267.60314617151613,61.832987780665306L268.2401101360237,93.57445383945911L268.8770741005313,83.98270833052644L269.51403806503885,75.19211018285087L270.1510020295464,83.16622036973821L270.78796599405393,84.84244061969619L271.4249299585615,31.91247601246954L272.0618939230691,92.57267669841168L272.69885788757665,26.616485452440457L273.3358218520842,87.32100342591681L273.97278581659174,94.5500521353572L274.6097497810993,82.36041446431184L275.2467137456069,70.8609136275052L275.88367771011445,83.15391529388593L276.520641674622,73.34709580188601" style="fill: none;" fill="none"></path></g><g><path stroke="rgb(204, 51, 17)" stroke-width="2px" d="M36.38522705527086,-46.57085967599227L37.022191019778425,42.80743906642718L37.65915498428598,-65.4897915630334L39.57004687780868,-29.044126243960875L40.20701084231624,20.772647381755974L40.8439748068238,17.69367564815994L41.48093877133136,-5.550816363234958L42.11790273583892,-16.05414932646326L42.75486670034648,23.567040468185354L43.391830664854055,65.15503229850904L44.02879462936161,-37.76790891629943L44.66575859386918,43.615825506524544L45.302722558376736,-6.678401360374835L45.939686522884294,-37.32464096862708L46.576650487391866,5.240585759846596L47.21361445189943,43.76006381287257L47.85057841640699,24.832072890960035L48.48754238091455,43.45124172155985L49.12450634542211,58.171141173695275L49.76147030992967,-4.255007669068107L50.39843427443724,67.29749404559206L51.03539823894481,49.112866880948175L51.672362203452366,35.94115241380433L52.309326167959924,50.41558869168104L52.94629013246749,62.28085994546119L53.58325409697505,42.308852604465244L54.22021806148262,81.44198859313803L54.857182025990184,63.92027362195371L55.49414599049774,91.47260834992163L56.1311099550053,86.33807776972918L56.768073919512865,45.54770883357247L57.40503788402042,74.50257773699563L58.042001848527995,88.0384192279804L58.67896581303555,74.05808063991421L59.31592977754312,69.28940196726381L59.95289374205068,63.02169749510453L60.58985770655824,45.89321526249782L61.2268216710658,34.95912315387085L61.86378563557337,58.26812853204096L62.50074960008093,72.91846899303128L63.137713564588495,70.4822133736538L63.77467752909605,40.18489600732562L64.41164149360361,82.60762968579458L65.04860545811118,69.78404292753139L65.68556942261874,90.4975601153613L66.32253338712631,81.12144544171436L66.95949735163387,48.05668120362674L67.59646131614143,76.31922660922153L68.23342528064899,67.68834997592006L68.87038924515656,75.53628559915646L69.50735320966412,40.04418895894847L70.14431717417169,71.60124186109505L70.78128113867923,81.75251519550979L71.4182451031868,77.17577397533681L72.05520906769438,72.37421385827318L72.69217303220194,31.45035657993742L73.3291369967095,52.15071304094516L73.96610096121705,72.73176051870301L74.60306492572462,65.46989827365651L75.2400288902322,68.31321286474365L75.87699285473974,63.88638712719492L76.51395681924731,74.29125232008207L77.15092078375487,75.12342721531773L77.78788474826244,72.90697882286459L78.42484871276999,83.6926426517435L79.06181267727756,88.40900437937954L79.69877664178513,65.88583292645829L80.33574060629269,60.09870550060961L80.97270457080025,52.41418563085527L81.6096685353078,69.270550482404L82.24663249981538,44.12154239323533L82.88359646432295,66.07347175144429L83.52056042883049,75.17333339767892L84.15752439333806,73.79866899667059L84.79448835784562,70.64144594461652L85.4314523223532,86.0963020436977L86.06841628686074,87.29280768919567L86.70538025136831,73.17170772570661L87.34234421587588,67.65393379246565L87.97930818038344,86.80885557517064L88.616272144891,92.48557007150367L89.25323610939856,-19.00607726367707L89.89020007390613,59.58797694393249L90.5271640384137,20.911004785406362L91.16412800292125,71.95865949479133L91.80109196742882,73.25776176610408L92.43805593193638,81.17700842770961L93.07501989644395,85.74260581263223L93.71198386095149,75.58195427195261L94.34894782545906,75.6626163530638L94.98591178996664,86.61775340102093L95.6228757544742,92.37563929451866L96.25983971898175,85.245092309823L96.89680368348931,27.786676435174826L97.53376764799688,78.30385470676873L98.17073161250445,74.44875321646295L98.807695577012,62.83653055069816L99.44465954151957,98.17175105555089L100.08162350602713,76.42923208589438L100.7185874705347,57.198822873181655L101.35555143504224,75.81120761394897L101.99251539954982,89.66698786797394L102.62947936405739,93.79210835719735L103.26644332856495,71.10715775304594L103.9034072930725,26.690071435848523L104.54037125758006,85.61794561538035L105.17733522208763,50.67277292605074L105.8142991865952,71.22033457101188L106.45126315110275,75.58511882236496L107.08822711561032,81.30755631853985L107.72519108011788,73.54452707686039L108.36215504462545,76.22908445863474L108.999119009133,58.87671367979506L109.63608297364057,76.42503532161363L110.27304693814814,77.50982418849902L110.9100109026557,69.99820014170236L111.54697486716326,69.76725587040839L112.18393883167082,47.66866386143684L112.82090279617839,77.47982207750819L113.45786676068596,70.46861123958529L114.0948307251935,75.80134725515343L114.73179468970108,74.37715017022313L115.36875865420863,84.39507098007307L116.0057226187162,74.90990834393382L116.64268658322375,92.36152105351594L117.27965054773132,87.33753922045341L117.9166145122389,49.554749488955025L118.55357847674645,95.2621710504645L119.19054244125401,80.51866649697003L119.82750640576157,82.10975626630751L120.46447037026914,63.26564630296424L121.10143433477671,86.39681888789822L121.73839829928426,80.24579532815287L122.37536226379183,86.87636372034041L123.01232622829939,84.77220933136044L123.64929019280696,92.87493879895548L124.2862541573145,67.36528740775178L124.92321812182207,76.66809452409991L125.56018208632965,88.50211414483799L126.1971460508372,80.73882684969142L126.83411001534476,83.07630910909566L127.47107397985232,60.839196715336584L128.1080379443599,98.07196585435136L128.74500190886747,73.3903605029097L129.381965873375,74.7882904612414L130.01892983788258,81.34380603978683L130.65589380239012,93.21639107209506L131.2928577668977,44.5218512295161L131.92982173140527,69.89286000007944L132.56678569591284,83.72974802396034L133.20374966042039,77.62125575012166L133.84071362492796,102.72484642908056L134.47767758943553,61.19598958800725L135.11464155394307,94.8952597655312L135.75160551845065,43.20458335229557L136.38856948295822,75.43589600957344L137.02553344746576,84.6954384248979L137.66249741197333,84.92509921973705L138.29946137648088,83.14643174334L138.93642534098845,76.77037197852117L139.57338930549602,84.23556677388181L140.2103532700036,61.96136258966733L140.84731723451114,44.65427340342319L141.4842811990187,81.92384232502269L142.12124516352625,62.48525187316659L142.75820912803383,67.23382953890595L143.3951730925414,56.59270960600715L144.03213705704897,77.84281502426998L144.66910102155654,95.15792424063642L145.3060649860641,98.82356015904439L145.94302895057163,59.15554724187838L146.5799929150792,78.75006989667061L147.21695687958677,95.74365807479064L147.85392084409435,71.48765079940563L148.4908848086019,92.98030610410125L149.12784877310946,86.81483155019825L149.76481273761704,85.2694647807026L150.4017767021246,97.0675402698258L151.03874066663212,95.65428329372443L151.6757046311397,78.33224737903056L152.31266859564727,97.4901775218915L152.94963256015484,91.30145099242655L153.5865965246624,99.99127247031846L154.22356048916996,82.05756834802672L154.86052445367753,72.76104958721898L155.4974884181851,89.7114681366453L156.13445238269264,89.40837754865449L156.77141634720022,78.35890837671052L157.40838031170776,83.14440806088747L158.04534427621533,92.38987977137421L158.6823082407229,87.67747033631325L159.31927220523048,72.50390609813356L159.95623616973805,94.80175612899136L160.5932001342456,80.76092437553213L161.23016409875314,87.37045461927022L161.8671280632607,88.17381580763985L162.50409202776828,89.70420868516291L163.14105599227585,89.47574987620999L163.7780199567834,90.85650569721804L164.41498392129097,85.08445402655263L165.05194788579854,75.495974931243L165.6889118503061,89.38484035610259L166.32587581481366,87.67822412407241L166.9628397793212,80.8499664034434L167.59980374382877,64.01671091896162L168.23676770833634,94.8348956268717L168.87373167284392,99.71824511124491L169.51069563735146,92.20460417287642L170.14765960185903,74.57198053788437L170.7846235663666,97.07606282512084L171.42158753087415,65.82411740253688L172.05855149538172,88.47558217389157L172.69551545988926,54.29343963237601L173.33247942439684,82.67399696300451L173.9694433889044,87.41890076227807L174.60640735341198,72.95137081008666L175.24337131791955,89.4620119245272L175.8803352824271,89.18360618792882L176.51729924693464,72.10932876517474L177.1542632114422,72.51387511102051L177.79122717594979,90.7320356446261L178.42819114045736,54.15036935751064L179.0651551049649,26.769823538944138L179.3836370872187,87.44447521904392L179.70211906947247,83.36659888694213L180.02060105172626,90.9394087689646L180.33908303398005,61.54972656435699L180.6575650162338,75.58325133016882L180.97604699848762,52.86179974218406L181.29452898074138,63.15921962042721L181.61301096299516,90.70994490966612L181.93149294524895,72.17350258791431L182.2499749275027,83.21251380356L182.56845690975652,65.26439264151415L182.88693889201028,85.44508374682624L183.20542087426406,70.98766541601675L183.52390285651785,82.52867890662311L183.8423848387716,76.32738245695805L184.16086682102542,79.26087994391628L184.47934880327918,81.9645332822561L184.79783078553297,94.22798782665376L185.11631276778675,73.7518594559146L185.43479475004054,65.26609036169243L185.75327673229432,100.96966181818968L186.0717587145481,63.85797408229095L186.39024069680187,77.21442087747555L186.70872267905565,84.69979137943504L187.02720466130944,84.86358063135633L187.34568664356323,84.0788672014251L187.664168625817,55.92113224875757L187.98265060807077,82.41027990138876L188.30113259032458,86.03212143007741L188.61961457257834,69.45632860607456L188.93809655483216,67.65574016673536L189.25657853708591,87.88885687115322L189.57506051933967,93.47690962889493L189.8935425015935,91.11889174621405L190.21202448384724,93.54370473158981L190.53050646610106,76.06890116437215L190.84898844835482,85.2984075143022L191.16747043060857,95.61840028003597L191.4859524128624,75.4850619859369L191.80443439511615,66.40674101332446L192.12291637736996,68.4475296943697L192.44139835962372,73.2011665662404L192.7598803418775,82.75569125798413L193.0783623241313,89.3496092669626L193.39684430638508,81.32583736941974L193.71532628863886,69.93093646823826L194.03380827089262,72.09087794227702L194.3522902531464,68.94777313122566L194.6707722354002,100.04073045455257L194.98925421765398,56.33686996601867L195.30773619990777,93.73700036020986L195.62621818216155,92.60329677954743L195.9447001644153,93.3686154541618L196.26318214666912,76.40846557267346L196.58166412892288,56.949285170495L196.90014611117667,72.14787380410277L197.21862809343045,68.58427086841039L197.5371100756842,73.59500369320149L197.85559205793803,70.44074146513837L198.17407404019178,93.8299403536505L198.49255602244557,69.40223924119405L198.81103800469936,84.89470323766486L199.1295199869531,76.13650438187189L199.44800196920693,94.7896140342762L199.76648395146069,71.05184602963708L200.08496593371447,77.97806899543447L200.40344791596826,75.05221124927857L200.72192989822204,67.41192038560919L201.04041188047583,78.363940419319L201.35889386272962,77.3287046089977L201.67737584498337,86.95817346029213L201.99585782723716,79.78626322117245L202.31433980949095,86.98749648321164L202.63282179174473,93.10563180766304L202.95130377399852,77.53970406363703L203.26978575625228,58.36085121729877L203.5882677385061,64.17538663770588L203.90674972075985,68.10738806120777L204.22523170301363,56.85811080603979L204.54371368526742,93.33056614952582L204.86219566752118,73.0562152174175L205.180677649775,93.32401974051832L205.49915963202875,65.75368917866045L205.81764161428256,85.52089713910823L206.13612359653632,69.12007135668057L206.45460557879008,84.01459151547482L206.7730875610439,92.80886352961622L207.09156954329765,94.87956604020302L207.41005152555147,85.43544748709425L207.72853350780522,93.86356879494218L208.047015490059,90.66650364574389L208.3654974723128,92.82795948618167L208.68397945456658,69.45416231512708L209.00246143682037,84.41663881721816L209.32094341907413,83.41076677510067L209.6394254013279,74.2134831541547L209.9579073835817,64.00631408058975L210.27638936583548,81.83266116968677L210.59487134808927,81.04231809964432L210.91335333034306,65.57655584613777L211.23183531259681,83.42693586207876L211.55031729485063,81.40402077907063L211.8687992771044,84.35671608580502L212.18728125935817,75.53274075942417L212.50576324161196,73.28192371968159L212.82424522386572,64.36309337149898L213.14272720611953,76.15167520938515L213.4612091883733,79.59361272622014L213.7796911706271,73.66671539353271L214.09817315288086,74.3685325425981L214.41665513513462,100.357728766244L214.73513711738843,84.44404002089586L215.0536190996422,82.11323998811339L215.37210108189598,68.30005892880223L215.69058306414976,81.26444101689185L216.00906504640355,61.782966153332L216.32754702865734,74.23361132458857L216.64602901091112,69.10039138437375L216.96451099316488,89.62468068113081L217.28299297541867,46.43694749944103L217.60147495767245,64.05810812778918L217.91995693992624,98.71294350310735L218.23843892218002,97.89503624825008L218.55692090443378,57.135165157376264L218.8754028866876,69.13000641516396L219.19388486894135,59.94358820335907L219.51236685119514,62.88206340588005L219.83084883344893,55.93942688139889L220.14933081570268,68.66076334876367L220.4678127979565,81.52403601391472L220.78629478021026,83.07000717179383L221.10477676246407,61.22212089699158L221.42325874471783,69.83817303769618L221.74174072697159,78.15879470385443L222.0602227092254,75.49814801307122L222.37870469147916,74.07329221271172L222.69718667373297,70.43399812059019L223.01566865598673,90.39365284956888L223.33415063824052,60.2114612839713L223.6526326204943,79.66539912623921L223.9711146027481,53.409715161646574L224.28959658500187,102.1688770250922L224.60807856725563,80.0147899389325L224.92656054950942,61.96425550485114L225.2450425317632,57.77134844434873L225.563524514017,64.6812665055538L225.88200649627078,86.54931490519348L226.20048847852456,69.1607758956754L226.51897046077832,65.9874109201661L226.83745244303213,76.3138550225774L227.1559344252859,59.20916803598969L227.47441640753968,65.86177283609149L227.79289838979346,89.11794516231305L228.11138037204722,76.1818335106324L228.42986235430104,79.9462292072522L228.7483443365548,83.92201143871199L229.0668263188086,56.04733397593138L229.38530830106237,72.45410177898307L229.70379028331612,83.06429604111405L230.02227226556994,63.730142543745984L230.3407542478237,66.17197347618901L230.65923623007748,77.77942894369313L230.97771821233127,83.8361000068095L231.29620019458505,54.6298462811457L231.61468217683884,57.38959229417641L231.9331641590926,63.74538807094709L232.25164614134638,76.73546685165542L232.57012812360017,79.237139024943L232.88861010585396,54.559574247525674L233.20709208810774,66.17330448880878L233.52557407036153,77.01688773929045L233.8440560526153,86.03287521783656L234.1625380348691,80.67043589002895L234.48102001712286,62.15623370261285L234.79950199937664,76.39742360063384L235.11798398163043,78.07091391654511L235.4364659638842,61.278784005662374L235.754947946138,67.34831699684953L236.07342992839176,65.40512006253346L236.39191191064558,94.72587482790225L236.71039389289933,83.07752467674332L237.0288758751531,73.9355391974448L237.3473578574069,48.0891144499129L237.66583983966066,35.83497020297298L237.98432182191448,71.5924612523329L238.30280380416824,72.92907634870527L238.62128578642202,84.81757920540522L238.9397677686758,96.67853145905178L239.2582497509296,79.19574181611543L239.57673173318338,58.64362349019575L239.89521371543714,78.33738807573043L240.21369569769092,83.4388063215654L240.5321776799447,82.73801459548771L240.8506596621985,81.16084613161223L241.16914164445228,63.80802036376478L241.48762362670607,76.6205447773462L241.80610560895983,68.99541115942864L242.12458759121364,56.766827787493185L242.4430695734674,71.35006076527583L242.76155155572118,73.63726334387964L243.08003353797497,87.83799317461147L243.39851552022873,48.74621364948197L243.71699750248254,78.4155035765742L244.0354794847363,38.690073762978216L244.3539614669901,90.5739507325039L244.67244344924387,67.2008801856856L244.99092543149763,85.7809539160196L245.30940741375144,60.22251683777239L245.6278893960052,79.20507248621534L245.946371378259,84.69061689959155L246.26485336051277,88.88367335946964L246.58333534276656,91.11082417992678L246.90181732502035,80.31292997488342L247.2202993072741,83.40384686765393L247.5387812895279,86.68490842039361L247.85726327178168,88.4524660159439L248.17574525403546,45.336444534585326L248.49422723628925,79.54504434735945L248.81270921854303,76.41171161365438L249.1311912007968,80.43104376312782L249.4496731830506,62.45876743838518L249.76815516530436,79.41151525989612L250.08663714755815,77.55754370727057L250.40511912981194,88.34087826406487L250.7236011120657,72.0667635248645L251.0420830943195,69.70059658532779L251.36056507657327,79.41421803041997L251.67904705882708,68.07375282903537L251.99752904108084,58.76091558187386L252.3160110233346,79.83826778567402L252.6344930055884,63.57469249334051L252.95297498784217,68.8725777090886L253.27145697009598,94.21841268484818L253.58993895234974,35.172750679346166L253.90842093460353,66.37705807372716L254.2269029168573,85.4084876906629L254.5453848991111,100.21021725539221L254.86386688136488,60.35176087950569L255.18234886361864,75.46054690656231L255.50083084587243,80.86964637575021L255.81931282812621,55.87210209000838L256.13779481038,87.44871951948966L256.4562767926338,49.803893320560306L256.7747587748876,72.0685698991342L257.09324075714136,47.85913448368021L257.41172273939515,82.93671576515545L257.7302047216489,48.116671843847L258.0486867039027,35.29130587483695L258.36716868615645,69.99201364937264L258.68565066841023,78.42484103755481L259.004132650664,81.0753761069561L259.3226146329178,73.49297750136662L259.6410966151716,70.22510383897196L259.9595785974254,82.44648208647074L260.27806057967916,77.01774339026032L260.59654256193295,47.29224534350507L260.91502454418674,55.66310594517944L261.23350652644046,68.23351508869372L261.5519885086943,71.05844676569028L261.87047049094804,77.64768585785737L262.1889524732019,91.15205840761723L262.5074344554556,61.603184377331175L262.8259164377094,57.56080397871719L263.1443984199632,70.60805518414979L263.46288040221697,89.69379826502959L263.78136238447075,79.86979784482533L264.09984436672454,55.93393984978263L264.4183263489783,92.80742386290501L264.7368083312321,85.93195593955795L265.05529031348584,86.58326251787868L265.3737722957397,74.63687419397957L265.6922542779934,69.55976730109779L266.0107362602472,63.43663388844148L266.329218242501,79.87918284197093L266.6477002247548,85.98563106071494L266.96618220700856,57.99605868714798L267.28466418926234,74.90628880451368L267.60314617151613,58.60943819668559L267.9216281537699,62.57330243249373L268.2401101360237,90.33040258660628L268.5585921182775,64.11520585282564L268.8770741005313,81.62587885197034L269.195556082785,70.82258589676L269.51403806503885,70.9859269505542L269.8325200472926,83.45612985826473L270.1510020295464,81.89822033209185L270.46948401180015,84.42447549356118L270.78796599405393,82.3397362325402L271.1064479763077,87.46359154825153L271.4249299585615,35.42288597953558L271.7434119408153,81.54654778347891L272.0618939230691,91.8008659418355L272.38037590532286,59.75594258749237L272.69885788757665,28.15986249388712L273.0173398698304,62.93740229281178L273.3358218520842,88.18124503114005L273.65430383433795,61.8108902548246L273.97278581659174,90.08426032427623L274.2912677988455,76.2322150546435L274.6097497810993,81.0665683346711L274.9282317633531,83.83474183066687L275.2467137456069,68.67860978327792L275.56519572786067,88.50633128176088L275.88367771011445,78.32401004072547L276.20215969236824,58.61280647351931L276.520641674622,70.29288361937023" style="fill: none;" fill="none"></path></g></g></g></g></g></g><g transform="translate(48, 177)" clip-path="url(#clip_1)"><clipPath id="clip_1"><rect width="281" height="23"></rect></clipPath><g><g><line x1="19.82416397807423" y1="0" x2="19.82416397807423" y2="5" style="visibility: inherit;" fill="rgb(0, 0, 0)" stroke="rgb(204, 204, 204)" stroke-width="1px"></line><line x1="51.672362203452366" y1="0" x2="51.672362203452366" y2="5" style="visibility: inherit;" fill="rgb(0, 0, 0)" stroke="rgb(204, 204, 204)" stroke-width="1px"></line><line x1="83.52056042883049" y1="0" x2="83.52056042883049" y2="5" style="visibility: inherit;" fill="rgb(0, 0, 0)" stroke="rgb(204, 204, 204)" stroke-width="1px"></line><line x1="115.36875865420863" y1="0" x2="115.36875865420863" y2="5" style="visibility: inherit;" fill="rgb(0, 0, 0)" stroke="rgb(204, 204, 204)" stroke-width="1px"></line><line x1="147.21695687958677" y1="0" x2="147.21695687958677" y2="5" style="visibility: inherit;" fill="rgb(0, 0, 0)" stroke="rgb(204, 204, 204)" stroke-width="1px"></line><line x1="179.0651551049649" y1="0" x2="179.0651551049649" y2="5" style="visibility: inherit;" fill="rgb(0, 0, 0)" stroke="rgb(204, 204, 204)" stroke-width="1px"></line><line x1="210.91335333034306" y1="0" x2="210.91335333034306" y2="5" style="visibility: inherit;" fill="rgb(0, 0, 0)" stroke="rgb(204, 204, 204)" stroke-width="1px"></line><line x1="242.76155155572118" y1="0" x2="242.76155155572118" y2="5" style="visibility: inherit;" fill="rgb(0, 0, 0)" stroke="rgb(204, 204, 204)" stroke-width="1px"></line><line x1="274.6097497810993" y1="0" x2="274.6097497810993" y2="5" style="visibility: inherit;" fill="rgb(0, 0, 0)" stroke="rgb(204, 204, 204)" stroke-width="1px"></line></g><g transform="translate(0, 8)"><text x="19.82416397807423" y="0" dx="0em" dy="0.95em" style="text-anchor: middle; visibility: inherit; font-family: &quot;Helvetica Neue&quot;, sans-serif; font-size: 12px; font-weight: 200;" fill="rgb(50, 49, 63)" stroke="none" stroke-width="1px">0</text><text x="51.672362203452366" y="0" dx="0em" dy="0.95em" style="text-anchor: middle; visibility: inherit; font-family: &quot;Helvetica Neue&quot;, sans-serif; font-size: 12px; font-weight: 200;" fill="rgb(50, 49, 63)" stroke="none" stroke-width="1px">100</text><text x="83.52056042883049" y="0" dx="0em" dy="0.95em" style="text-anchor: middle; visibility: inherit; font-family: &quot;Helvetica Neue&quot;, sans-serif; font-size: 12px; font-weight: 200;" fill="rgb(50, 49, 63)" stroke="none" stroke-width="1px">200</text><text x="115.36875865420863" y="0" dx="0em" dy="0.95em" style="text-anchor: middle; visibility: inherit; font-family: &quot;Helvetica Neue&quot;, sans-serif; font-size: 12px; font-weight: 200;" fill="rgb(50, 49, 63)" stroke="none" stroke-width="1px">300</text><text x="147.21695687958677" y="0" dx="0em" dy="0.95em" style="text-anchor: middle; visibility: inherit; font-family: &quot;Helvetica Neue&quot;, sans-serif; font-size: 12px; font-weight: 200;" fill="rgb(50, 49, 63)" stroke="none" stroke-width="1px">400</text><text x="179.0651551049649" y="0" dx="0em" dy="0.95em" style="text-anchor: middle; visibility: inherit; font-family: &quot;Helvetica Neue&quot;, sans-serif; font-size: 12px; font-weight: 200;" fill="rgb(50, 49, 63)" stroke="none" stroke-width="1px">500</text><text x="210.91335333034306" y="0" dx="0em" dy="0.95em" style="text-anchor: middle; visibility: inherit; font-family: &quot;Helvetica Neue&quot;, sans-serif; font-size: 12px; font-weight: 200;" fill="rgb(50, 49, 63)" stroke="none" stroke-width="1px">600</text><text x="242.76155155572118" y="0" dx="0em" dy="0.95em" style="text-anchor: middle; visibility: inherit; font-family: &quot;Helvetica Neue&quot;, sans-serif; font-size: 12px; font-weight: 200;" fill="rgb(50, 49, 63)" stroke="none" stroke-width="1px">700</text><text x="274.6097497810993" y="0" dx="0em" dy="0.95em" style="text-anchor: middle; visibility: hidden; font-family: &quot;Helvetica Neue&quot;, sans-serif; font-size: 12px; font-weight: 200;" fill="rgb(50, 49, 63)" stroke="none" stroke-width="1px">800</text></g><line x1="0" y1="0" x2="281.125" y2="0" fill="rgb(0, 0, 0)" stroke="rgb(204, 204, 204)" stroke-width="1px"></line></g></g></g></g></svg>