<svg viewBox="0 0 330 200" xmlns="http://www.w3.org/2000/svg"><g><g><g><g><g><line x1="48.875" y1="177" x2="43.875" y2="177" style="visibility: inherit;" fill="rgb(0, 0, 0)" stroke="rgb(204, 204, 204)" stroke-width="1px"></line><line x1="48.875" y1="160.9090909090907" x2="43.875" y2="160.9090909090907" style="visibility: inherit;" fill="rgb(0, 0, 0)" stroke="rgb(204, 204, 204)" stroke-width="1px"></line><line x1="48.875" y1="144.81818181818255" x2="43.875" y2="144.81818181818255" style="visibility: inherit;" fill="rgb(0, 0, 0)" stroke="rgb(204, 204, 204)" stroke-width="1px"></line><line x1="48.875" y1="128.72727272727326" x2="43.875" y2="128.72727272727326" style="visibility: inherit;" fill="rgb(0, 0, 0)" stroke="rgb(204, 204, 204)" stroke-width="1px"></line><line x1="48.875" y1="112.63636363636395" x2="43.875" y2="112.63636363636395" style="visibility: inherit;" fill="rgb(0, 0, 0)" stroke="rgb(204, 204, 204)" stroke-width="1px"></line><line x1="48.875" y1="96.54545454545465" x2="43.875" y2="96.54545454545465" style="visibility: inherit;" fill="rgb(0, 0, 0)" stroke="rgb(204, 204, 204)" stroke-width="1px"></line><line x1="48.875" y1="80.45454545454534" x2="43.875" y2="80.45454545454534" style="visibility: inherit;" fill="rgb(0, 0, 0)" stroke="rgb(204, 204, 204)" stroke-width="1px"></line><line x1="48.875" y1="64.36363636363718" x2="43.875" y2="64.36363636363718" style="visibility: inherit;" fill="rgb(0, 0, 0)" stroke="rgb(204, 204, 204)" stroke-width="1px"></line><line x1="48.875" y1="48.272727272727906" x2="43.875" y2="48.272727272727906" style="visibility: inherit;" fill="rgb(0, 0, 0)" stroke="rgb(204, 204, 204)" stroke-width="1px"></line><line x1="48.875" y1="32.18181818181861" x2="43.875" y2="32.18181818181861" style="visibility: inherit;" fill="rgb(0, 0, 0)" stroke="rgb(204, 204, 204)" stroke-width="1px"></line><line x1="48.875" y1="16.090909090909292" x2="43.875" y2="16.090909090909292" style="visibility: inherit;" fill="rgb(0, 0, 0)" stroke="rgb(204, 204, 204)" stroke-width="1px"></line><line x1="48.875" y1="0" x2="43.875" y2="0" style="visibility: inherit;" fill="rgb(0, 0, 0)" stroke="rgb(204, 204, 204)" stroke-width="1px"></line></g><g transform="translate(38.875, 0)"><text x="0" y="177" dx="0em" dy="0.3em" style="text-anchor: end; visibility: hidden; font-family: &quot;Helvetica Neue&quot;, sans-serif; font-size: 12px; font-weight: 200;" fill="rgb(50, 49, 63)" stroke="none" stroke-width="1px">98.2</text><text x="0" y="160.9090909090907" dx="0em" dy="0.3em" style="text-anchor: end; visibility: inherit; font-family: &quot;Helvetica Neue&quot;, sans-serif; font-size: 12px; font-weight: 200;" fill="rgb(50, 49, 63)" stroke="none" stroke-width="1px">98.4</text><text x="0" y="144.81818181818255" dx="0em" dy="0.3em" style="text-anchor: end; visibility: hidden; font-family: &quot;Helvetica Neue&quot;, sans-serif; font-size: 12px; font-weight: 200;" fill="rgb(50, 49, 63)" stroke="none" stroke-width="1px">98.6</text><text x="0" y="128.72727272727326" dx="0em" dy="0.3em" style="text-anchor: end; visibility: inherit; font-family: &quot;Helvetica Neue&quot;, sans-serif; font-size: 12px; font-weight: 200;" fill="rgb(50, 49, 63)" stroke="none" stroke-width="1px">98.8</text><text x="0" y="112.63636363636395" dx="0em" dy="0.3em" style="text-anchor: end; visibility: hidden; font-family: &quot;Helvetica Neue&quot;, sans-serif; font-size: 12px; font-weight: 200;" fill="rgb(50, 49, 63)" stroke="none" stroke-width="1px">99</text><text x="0" y="96.54545454545465" dx="0em" dy="0.3em" style="text-anchor: end; visibility: inherit; font-family: &quot;Helvetica Neue&quot;, sans-serif; font-size: 12px; font-weight: 200;" fill="rgb(50, 49, 63)" stroke="none" stroke-width="1px">99.2</text><text x="0" y="80.45454545454534" dx="0em" dy="0.3em" style="text-anchor: end; visibility: hidden; font-family: &quot;Helvetica Neue&quot;, sans-serif; font-size: 12px; font-weight: 200;" fill="rgb(50, 49, 63)" stroke="none" stroke-width="1px">99.4</text><text x="0" y="64.36363636363718" dx="0em" dy="0.3em" style="text-anchor: end; visibility: inherit; font-family: &quot;Helvetica Neue&quot;, sans-serif; font-size: 12px; font-weight: 200;" fill="rgb(50, 49, 63)" stroke="none" stroke-width="1px">99.6</text><text x="0" y="48.272727272727906" dx="0em" dy="0.3em" style="text-anchor: end; visibility: hidden; font-family: &quot;Helvetica Neue&quot;, sans-serif; font-size: 12px; font-weight: 200;" fill="rgb(50, 49, 63)" stroke="none" stroke-width="1px">99.8</text><text x="0" y="32.18181818181861" dx="0em" dy="0.3em" style="text-anchor: end; visibility: inherit; font-family: &quot;Helvetica Neue&quot;, sans-serif; font-size: 12px; font-weight: 200;" fill="rgb(50, 49, 63)" stroke="none" stroke-width="1px">100</text><text x="0" y="16.090909090909292" dx="0em" dy="0.3em" style="text-anchor: end; visibility: hidden; font-family: &quot;Helvetica Neue&quot;, sans-serif; font-size: 12px; font-weight: 200;" fill="rgb(50, 49, 63)" stroke="none" stroke-width="1px">100</text><text x="0" y="0" dx="0em" dy="0.3em" style="text-anchor: end; visibility: hidden; font-family: &quot;Helvetica Neue&quot;, sans-serif; font-size: 12px; font-weight: 200;" fill="rgb(50, 49, 63)" stroke="none" stroke-width="1px">100</text></g><line x1="48.875" y1="0" x2="48.875" y2="177" fill="rgb(0, 0, 0)" stroke="rgb(204, 204, 204)" stroke-width="1px"></line></g></g><g transform="translate(48, 0)" clip-path="url(#clip_0)"><clipPath id="clip_0"><rect width="281" height="177"></rect></clipPath><g><g><g><line x1="0" y1="0" x2="0" y2="177" fill="rgb(0, 0, 0)" stroke="rgb(60, 60, 60)" stroke-width="1px" opacity="0.25"></line><line x1="28.1125" y1="0" x2="28.1125" y2="177" fill="rgb(0, 0, 0)" stroke="rgb(60, 60, 60)" stroke-width="1px" opacity="0.25"></line><line x1="56.225" y1="0" x2="56.225" y2="177" fill="rgb(0, 0, 0)" stroke="rgb(60, 60, 60)" stroke-width="1px" opacity="0.25"></line><line x1="84.33749999999999" y1="0" x2="84.33749999999999" y2="177" fill="rgb(0, 0, 0)" stroke="rgb(60, 60, 60)" stroke-width="1px" opacity="0.25"></line><line x1="112.45" y1="0" x2="112.45" y2="177" fill="rgb(0, 0, 0)" stroke="rgb(60, 60, 60)" stroke-width="1px" opacity="0.25"></line><line x1="140.5625" y1="0" x2="140.5625" y2="177" fill="rgb(0, 0, 0)" stroke="rgb(60, 60, 60)" stroke-width="1px" opacity="0.25"></line><line x1="168.67499999999998" y1="0" x2="168.67499999999998" y2="177" fill="rgb(0, 0, 0)" stroke="rgb(60, 60, 60)" stroke-width="1px" opacity="0.25"></line><line x1="196.7875" y1="0" x2="196.7875" y2="177" fill="rgb(0, 0, 0)" stroke="rgb(60, 60, 60)" stroke-width="1px" opacity="0.25"></line><line x1="224.9" y1="0" x2="224.9" y2="177" fill="rgb(0, 0, 0)" stroke="rgb(60, 60, 60)" stroke-width="1px" opacity="0.25"></line><line x1="253.01250000000002" y1="0" x2="253.01250000000002" y2="177" fill="rgb(0, 0, 0)" stroke="rgb(60, 60, 60)" stroke-width="1px" opacity="0.25"></line><line x1="281.125" y1="0" x2="281.125" y2="177" fill="rgb(0, 0, 0)" stroke="rgb(60, 60, 60)" stroke-width="1px" opacity="0.25"></line></g><g><line x1="0" y1="177" x2="281.125" y2="177" fill="rgb(0, 0, 0)" stroke="rgb(60, 60, 60)" stroke-width="1px" opacity="0.25"></line><line x1="0" y1="160.9090909090907" x2="281.125" y2="160.9090909090907" fill="rgb(0, 0, 0)" stroke="rgb(60, 60, 60)" stroke-width="1px" opacity="0.25"></line><line x1="0" y1="144.81818181818255" x2="281.125" y2="144.81818181818255" fill="rgb(0, 0, 0)" stroke="rgb(60, 60, 60)" stroke-width="1px" opacity="0.25"></line><line x1="0" y1="128.72727272727326" x2="281.125" y2="128.72727272727326" fill="rgb(0, 0, 0)" stroke="rgb(60, 60, 60)" stroke-width="1px" opacity="0.25"></line><line x1="0" y1="112.63636363636395" x2="281.125" y2="112.63636363636395" fill="rgb(0, 0, 0)" stroke="rgb(60, 60, 60)" stroke-width="1px" opacity="0.25"></line><line x1="0" y1="96.54545454545465" x2="281.125" y2="96.54545454545465" fill="rgb(0, 0, 0)" stroke="rgb(60, 60, 60)" stroke-width="1px" opacity="0.25"></line><line x1="0" y1="80.45454545454534" x2="281.125" y2="80.45454545454534" fill="rgb(0, 0, 0)" stroke="rgb(60, 60, 60)" stroke-width="1px" opacity="0.25"></line><line x1="0" y1="64.36363636363718" x2="281.125" y2="64.36363636363718" fill="rgb(0, 0, 0)" stroke="rgb(60, 60, 60)" stroke-width="1px" opacity="0.25"></line><line x1="0" y1="48.272727272727906" x2="281.125" y2="48.272727272727906" fill="rgb(0, 0, 0)" stroke="rgb(60, 60, 60)" stroke-width="1px" opacity="0.25"></line><line x1="0" y1="32.18181818181861" x2="281.125" y2="32.18181818181861" fill="rgb(0, 0, 0)" stroke="rgb(60, 60, 60)" stroke-width="1px" opacity="0.25"></line><line x1="0" y1="16.090909090909292" x2="281.125" y2="16.090909090909292" fill="rgb(0, 0, 0)" stroke="rgb(60, 60, 60)" stroke-width="1px" opacity="0.25"></line><line x1="0" y1="0" x2="281.125" y2="0" fill="rgb(0, 0, 0)" stroke="rgb(60, 60, 60)" stroke-width="1px" opacity="0.25"></line></g></g></g><g><g><line x1="0" y1="8077.636363636354" x2="281.125" y2="8077.636363636354" fill="rgb(0, 0, 0)" stroke="rgb(153, 153, 153)" stroke-width="1.5px"></line></g></g><g><g><line x1="28.1125" y1="0" x2="28.1125" y2="177" fill="rgb(0, 0, 0)" stroke="rgb(153, 153, 153)" stroke-width="1.5px"></line></g></g><g><g><g><g><g><path stroke="rgb(187, 187, 187)" stroke-width="2px" d="M28.1125,235.72435413707402L28.393625,32.243200128729114L28.67475,32.18181818181861L28.955875,32.18181818181861L29.237,32.18181818181861L29.518124999999998,32.18181818181861L29.79925,32.243200128729114L30.080375,32.18181818181861L30.3615,32.18181818181861L30.642625,32.18181818181861L30.923750000000002,32.18181818181861L31.204875,32.18181818181861L31.486,32.18181818181861L31.767125,32.18181818181861L32.04825,32.18181818181861L32.329375,32.18181818181861L32.6105,32.18181818181861L32.891625000000005,32.18181818181861L33.17275,32.18181818181861L33.453875,32.18181818181861L33.735,32.243200128729114L34.016125,32.18181818181861L34.29725,32.18181818181861L34.578375,32.18181818181861L34.8595,32.18181818181861L35.140625,32.18181818181861L35.42175,32.18181818181861L35.702875,32.18181818181861L35.984,32.18181818181861L36.265125,32.18181818181861L36.54625,32.48872791637115L36.827375,32.61149181019218L37.1085,32.18181818181861L37.389625,32.427345969460646L37.670750000000005,32.18181818181861L37.951875,32.18181818181861L38.233000000000004,32.18181818181861L38.514125,32.18181818181861L38.79525,32.18181818181861L39.076375000000006,32.18181818181861L39.3575,32.304582075639615L39.638625,32.18181818181861L39.91974999999999,32.18181818181861L40.200874999999996,32.18181818181861L40.482,32.243200128729114L40.763124999999995,32.18181818181861L41.04425,32.18181818181861L41.325375,32.18181818181861L41.6065,32.18181818181861L41.887625,32.18181818181861L42.168749999999996,32.365964022550145L42.449875,32.18181818181861L42.731,32.18181818181861L43.012125,32.18181818181861L43.29325,32.18181818181861L43.574374999999996,32.18181818181861L43.8555,32.18181818181861L44.136625,32.18181818181861L44.41775,32.18181818181861L44.698875,32.18181818181861L44.980000000000004,32.18181818181861L45.261125,32.18181818181861L45.54225,32.18181818181861L45.823375,32.18181818181861L46.1045,32.18181818181861L46.385625000000005,32.18181818181861L46.66675,32.18181818181861L46.947875,32.18181818181861L47.229000000000006,32.18181818181861L47.510125,32.18181818181861L47.791250000000005,32.18181818181861L48.072375,32.18181818181861L48.3535,32.18181818181861L48.634625,32.18181818181861L48.915749999999996,32.18181818181861L49.196875,32.18181818181861L49.477999999999994,32.18181818181861L49.759125,32.18181818181861L50.04025,32.18181818181861L50.321374999999996,32.18181818181861L50.6025,32.18181818181861L50.883624999999995,32.18181818181861L51.16475,32.18181818181861L51.445875,32.18181818181861L51.727,32.18181818181861L52.008125,32.18181818181861L52.28925,32.18181818181861L52.570375,32.243200128729114L52.8515,32.18181818181861L53.132625,32.18181818181861L53.41375,32.18181818181861L53.694875,32.18181818181861L53.976,32.18181818181861L54.257125,32.18181818181861L54.538250000000005,32.18181818181861L54.819375,32.18181818181861L55.100500000000004,32.18181818181861L55.381625,32.18181818181861L55.66275,32.18181818181861L55.943875000000006,32.18181818181861L56.225,32.18181818181861L56.506125000000004,32.18181818181861L56.78725,32.18181818181861L57.068375,32.18181818181861L57.3495,32.18181818181861L57.630624999999995,32.18181818181861L57.91175,32.18181818181861L58.192874999999994,32.18181818181861L58.474,32.18181818181861L58.755125,32.18181818181861L59.036249999999995,32.18181818181861L59.317375,32.18181818181861L59.5985,32.18181818181861L59.879625,32.18181818181861L60.16075,32.18181818181861L60.441874999999996,32.18181818181861L60.723,32.18181818181861L61.004125,32.18181818181861L61.28525,32.18181818181861L61.566375,32.18181818181861L61.847500000000004,32.18181818181861L62.128625,32.18181818181861L62.40975,32.18181818181861L62.690875,32.18181818181861L62.972,32.18181818181861L63.253125000000004,32.18181818181861L63.53425,32.18181818181861L63.815375,32.18181818181861L64.0965,32.18181818181861L64.37762500000001,32.18181818181861L64.65875,32.18181818181861L64.939875,32.18181818181861L65.221,32.18181818181861L65.502125,32.18181818181861L65.78325000000001,32.18181818181861L66.064375,32.18181818181861L66.3455,32.243200128729114L66.62662499999999,32.18181818181861L66.90775,32.18181818181861L67.188875,32.18181818181861L67.47,32.18181818181861L67.751125,32.18181818181861L68.03225,32.18181818181861L68.313375,32.18181818181861L68.5945,32.18181818181861L68.875625,32.18181818181861L69.15675,32.18181818181861L69.437875,32.18181818181861L69.719,32.18181818181861L70.000125,32.18181818181861L70.28125,32.18181818181861L70.562375,32.18181818181861L70.8435,32.18181818181861L71.124625,32.243200128729114L71.40575,32.18181818181861L71.686875,32.18181818181861L71.968,32.18181818181861L72.249125,32.18181818181861L72.53025,32.18181818181861L72.811375,32.18181818181861L73.0925,32.18181818181861L73.373625,32.18181818181861L73.65475,32.18181818181861L73.93587500000001,32.18181818181861L74.217,32.18181818181861L74.498125,32.18181818181861L74.77925,32.18181818181861L75.06037500000001,32.18181818181861L75.34150000000001,32.18181818181861L75.622625,32.18181818181861L75.90375,32.18181818181861L76.184875,32.18181818181861L76.46600000000001,32.18181818181861L76.74712500000001,32.18181818181861L77.02825,32.18181818181861L77.309375,32.18181818181861L77.5905,32.18181818181861L77.87162500000001,32.243200128729114L78.15275000000001,32.304582075639615L78.433875,32.427345969460646L78.715,32.18181818181861L78.996125,32.18181818181861L79.27725,32.18181818181861L79.558375,32.18181818181861L79.83949999999999,32.18181818181861L80.12062499999999,32.18181818181861L80.40174999999999,32.18181818181861L80.682875,32.18181818181861L80.964,32.18181818181861L81.24512499999999,32.18181818181861L81.52624999999999,32.18181818181861L81.807375,32.18181818181861L82.0885,32.18181818181861L82.369625,32.18181818181861L82.65075,32.18181818181861L82.93187499999999,32.18181818181861L83.213,32.18181818181861L83.494125,32.18181818181861L83.77525,32.18181818181861L84.056375,32.18181818181861L84.33749999999999,32.18181818181861L84.618625,32.18181818181861L84.89975,32.18181818181861L85.180875,32.18181818181861L85.462,32.18181818181861L85.74312499999999,32.18181818181861L86.02425,32.18181818181861L86.305375,32.18181818181861L86.5865,32.18181818181861L86.867625,32.18181818181861L87.14874999999999,32.18181818181861L87.429875,32.18181818181861L87.711,32.18181818181861L87.992125,32.18181818181861L88.27325,32.18181818181861L88.55437500000001,32.18181818181861L88.8355,32.18181818181861L89.116625,32.18181818181861L89.39775,32.18181818181861L89.678875,32.18181818181861L89.96000000000001,32.18181818181861L90.241125,32.18181818181861L90.52225,32.18181818181861L90.803375,32.18181818181861L91.0845,32.18181818181861L91.36562500000001,32.243200128729114L91.64675,32.18181818181861L91.927875,32.18181818181861L92.209,32.18181818181861L92.490125,32.18181818181861L92.77125000000001,32.18181818181861L93.052375,32.18181818181861L93.3335,32.18181818181861L93.614625,32.18181818181861L93.89575,32.18181818181861L94.17687500000001,32.18181818181861L94.45800000000001,32.18181818181861L94.739125,32.18181818181861L95.02025,32.18181818181861L95.30137500000001,32.18181818181861L95.58250000000001,32.18181818181861L95.86362500000001,32.18181818181861L96.14475,32.18181818181861L96.425875,32.18181818181861L96.707,32.18181818181861L96.988125,32.18181818181861L97.26925,32.18181818181861L97.55037499999999,32.18181818181861L97.83149999999999,32.18181818181861L98.112625,32.18181818181861L98.39375,32.18181818181861L98.674875,32.18181818181861L98.95599999999999,32.18181818181861L99.23712499999999,32.18181818181861L99.51825,32.18181818181861L99.799375,32.18181818181861L100.0805,32.18181818181861L100.36162499999999,32.18181818181861L100.64274999999999,32.18181818181861L100.923875,32.18181818181861L101.205,32.18181818181861L101.486125,32.365964022550145L101.76724999999999,32.18181818181861L102.048375,32.365964022550145L102.3295,32.18181818181861L102.610625,32.18181818181861L102.89175,32.18181818181861L103.172875,32.18181818181861L103.454,32.18181818181861L103.735125,32.18181818181861L104.01625,32.18181818181861L104.297375,32.18181818181861L104.5785,32.18181818181861L104.859625,32.18181818181861L105.14075,32.18181818181861L105.421875,32.18181818181861L105.703,32.18181818181861L105.984125,32.18181818181861L106.26525,32.18181818181861L106.546375,32.18181818181861L106.8275,32.18181818181861L107.108625,32.18181818181861L107.38975,32.18181818181861L107.670875,32.18181818181861L107.952,32.18181818181861L108.233125,32.18181818181861L108.51425,32.18181818181861L108.795375,32.18181818181861L109.07650000000001,32.18181818181861L109.357625,32.18181818181861L109.63875,32.18181818181861L109.919875,32.18181818181861L110.20100000000001,32.18181818181861L110.48212500000001,32.18181818181861L110.76325,32.18181818181861L111.044375,32.18181818181861L111.3255,32.18181818181861L111.60662500000001,32.18181818181861L111.88775000000001,32.18181818181861L112.168875,32.18181818181861L112.45,32.18181818181861L112.731125,32.18181818181861L113.01225000000001,32.18181818181861L113.29337500000001,32.18181818181861L113.5745,32.18181818181861L113.855625,32.18181818181861L114.13675,32.18181818181861L114.417875,32.18181818181861L114.699,32.18181818181861L114.98012499999999,32.18181818181861L115.26124999999999,32.18181818181861L115.54237499999999,32.18181818181861L115.8235,32.18181818181861L116.104625,32.18181818181861L116.38574999999999,32.18181818181861L116.66687499999999,32.18181818181861L116.948,32.18181818181861L117.229125,32.18181818181861L117.51025,32.18181818181861L117.791375,32.18181818181861L118.07249999999999,32.18181818181861L118.353625,32.18181818181861L118.63475,32.18181818181861L118.915875,32.18181818181861L119.197,32.18181818181861L119.47812499999999,32.18181818181861L119.75925,32.18181818181861L120.040375,32.18181818181861L120.3215,32.18181818181861L120.602625,32.18181818181861L120.88374999999999,32.18181818181861L121.164875,32.18181818181861L121.446,32.18181818181861L121.727125,32.18181818181861L122.00825,32.18181818181861L122.28937499999999,32.18181818181861L122.5705,32.18181818181861L122.851625,32.18181818181861L123.13275,32.18181818181861L123.413875,32.18181818181861L123.69500000000001,32.18181818181861L123.976125,32.18181818181861L124.25725,32.18181818181861L124.538375,32.18181818181861L124.8195,32.18181818181861L125.10062500000001,32.243200128729114L125.38175,32.18181818181861L125.662875,32.18181818181861L125.944,32.18181818181861L126.225125,32.18181818181861L126.50625000000001,32.18181818181861L126.787375,32.18181818181861L127.0685,32.18181818181861L127.349625,32.18181818181861L127.63075,32.18181818181861L127.91187500000001,32.18181818181861L128.193,32.18181818181861L128.47412500000002,32.18181818181861L128.75525000000002,32.18181818181861L129.036375,32.18181818181861L129.3175,32.18181818181861L129.598625,32.18181818181861L129.87975,32.18181818181861L130.160875,32.18181818181861L130.442,32.18181818181861L130.723125,32.18181818181861L131.00425,32.18181818181861L131.28537500000002,32.18181818181861L131.56650000000002,32.18181818181861L131.847625,32.18181818181861L132.12875,32.18181818181861L132.409875,32.18181818181861L132.691,32.18181818181861L132.972125,32.18181818181861L133.25324999999998,32.18181818181861L133.53437499999998,32.18181818181861L133.8155,32.18181818181861L134.096625,32.18181818181861L134.37775,32.18181818181861L134.658875,32.18181818181861L134.94,32.18181818181861L135.221125,32.18181818181861L135.50225,32.18181818181861L135.783375,32.18181818181861L136.0645,32.18181818181861L136.34562499999998,32.18181818181861L136.62675,32.18181818181861L136.907875,32.18181818181861L137.189,32.18181818181861L137.470125,32.304582075639615L137.75125,32.18181818181861L138.032375,32.18181818181861L138.3135,32.18181818181861L138.594625,32.18181818181861L138.87575,32.18181818181861L139.15687499999999,32.18181818181861L139.438,32.18181818181861L139.719125,32.18181818181861L140.00025,32.18181818181861L140.281375,32.18181818181861L140.5625,32.18181818181861L140.843625,32.18181818181861L141.12475,32.18181818181861L141.405875,32.18181818181861L141.687,32.18181818181861L141.96812500000001,32.18181818181861L142.24925,32.18181818181861L142.530375,32.18181818181861L142.8115,32.18181818181861L143.092625,32.18181818181861L143.37375,32.18181818181861L143.654875,32.18181818181861L143.936,32.18181818181861L144.217125,32.18181818181861L144.49825,32.18181818181861L144.77937500000002,32.18181818181861L145.0605,32.18181818181861L145.341625,32.18181818181861L145.62275,32.18181818181861L145.903875,32.18181818181861L146.185,32.18181818181861L146.466125,32.18181818181861L146.74725,32.18181818181861L147.028375,32.18181818181861L147.3095,32.18181818181861L147.59062500000002,32.18181818181861L147.87175000000002,32.18181818181861L148.152875,32.18181818181861L148.434,32.18181818181861L148.715125,32.18181818181861L148.99625,32.18181818181861L149.277375,32.18181818181861L149.5585,32.18181818181861L149.839625,32.18181818181861L150.12075000000002,32.18181818181861L150.40187500000002,32.18181818181861L150.68300000000002,32.18181818181861L150.964125,32.18181818181861L151.24525,32.18181818181861L151.526375,32.18181818181861L151.8075,32.18181818181861L152.088625,32.18181818181861L152.36975,32.18181818181861L152.650875,32.18181818181861L152.93200000000002,32.18181818181861L153.21312500000002,32.18181818181861L153.49425000000002,32.18181818181861L153.77537500000003,32.18181818181861L154.0565,32.18181818181861L154.337625,32.18181818181861L154.61875,32.18181818181861L154.899875,32.18181818181861L155.181,32.18181818181861L155.46212500000001,32.18181818181861L155.74325000000002,32.18181818181861L156.02437500000002,32.18181818181861L156.30550000000002,32.18181818181861L156.58662500000003,32.18181818181861L156.86775,32.18181818181861L157.148875,32.18181818181861L157.43,32.18181818181861L157.711125,32.18181818181861L157.99225,32.18181818181861L158.273375,32.243200128729114L158.5545,32.18181818181861L158.835625,32.18181818181861L159.11675,32.18181818181861L159.397875,32.18181818181861L159.67899999999997,32.18181818181861L159.96012499999998,32.18181818181861L160.24124999999998,32.18181818181861L160.52237499999998,32.18181818181861L160.80349999999999,32.18181818181861L161.084625,32.18181818181861L161.36575,32.18181818181861L161.646875,32.18181818181861L161.928,32.18181818181861L162.209125,32.18181818181861L162.49024999999997,32.18181818181861L162.77137499999998,32.18181818181861L163.05249999999998,32.18181818181861L163.33362499999998,32.18181818181861L163.61475,32.18181818181861L163.895875,32.18181818181861L164.177,32.18181818181861L164.458125,32.18181818181861L164.73925,32.18181818181861L165.020375,32.18181818181861L165.3015,32.18181818181861L165.58262499999998,32.18181818181861L165.86374999999998,32.18181818181861L166.14487499999998,32.18181818181861L166.426,32.18181818181861L166.707125,32.18181818181861L166.98825,32.18181818181861L167.269375,32.18181818181861L167.5505,32.18181818181861L167.831625,32.18181818181861L168.11275,32.18181818181861L168.39387499999998,32.18181818181861L168.67499999999998,32.18181818181861L168.956125,32.18181818181861L169.23725,32.18181818181861L169.518375,32.18181818181861L169.7995,32.18181818181861L170.080625,32.18181818181861L170.36175,32.18181818181861L170.642875,32.18181818181861L170.924,32.18181818181861L171.205125,32.18181818181861L171.48624999999998,32.18181818181861L171.767375,32.18181818181861L172.0485,32.18181818181861L172.329625,32.18181818181861L172.61075,32.18181818181861L172.891875,32.18181818181861L173.173,32.18181818181861L173.454125,32.18181818181861L173.73525,32.18181818181861L174.016375,32.18181818181861L174.29749999999999,32.18181818181861L174.578625,32.18181818181861L174.85975,32.18181818181861L175.140875,32.18181818181861L175.422,32.18181818181861L175.703125,32.18181818181861L175.98425,32.18181818181861L176.265375,32.18181818181861L176.5465,32.18181818181861L176.827625,32.18181818181861L177.10875000000001,32.18181818181861L177.389875,32.18181818181861L177.671,32.18181818181861L177.952125,32.18181818181861L178.23325,32.18181818181861L178.514375,32.18181818181861L178.7955,32.18181818181861L179.076625,32.18181818181861L179.35775,32.18181818181861L179.638875,32.18181818181861L179.92000000000002,32.18181818181861L180.201125,32.18181818181861L180.48225,32.18181818181861L180.763375,32.18181818181861L181.0445,32.18181818181861L181.325625,32.18181818181861L181.60675,32.243200128729114L181.887875,32.18181818181861L182.169,32.243200128729114L182.450125,32.18181818181861L182.73125000000002,32.18181818181861L183.01237500000002,32.18181818181861L183.2935,32.18181818181861L183.574625,32.18181818181861L183.85575,32.18181818181861L184.136875,32.18181818181861L184.418,32.18181818181861L184.699125,32.18181818181861L184.98025,32.18181818181861L185.26137500000002,32.18181818181861L185.54250000000002,32.18181818181861L185.82362500000002,32.18181818181861L186.10475,32.18181818181861L186.385875,32.18181818181861L186.667,32.18181818181861L186.948125,32.18181818181861L187.22925,32.18181818181861L187.510375,32.18181818181861L187.7915,32.18181818181861L188.07262500000002,32.18181818181861L188.35375000000002,32.18181818181861L188.63487500000002,32.18181818181861L188.91600000000003,32.18181818181861L189.197125,32.18181818181861L189.47825,32.18181818181861L189.759375,32.18181818181861L190.0405,32.18181818181861L190.321625,32.18181818181861L190.60275000000001,32.365964022550145L190.88387500000002,32.18181818181861L191.16500000000002,32.18181818181861L191.44612500000002,32.18181818181861L191.72725000000003,32.18181818181861L192.008375,32.18181818181861L192.2895,32.18181818181861L192.570625,32.18181818181861L192.85175,32.18181818181861L193.132875,32.18181818181861L193.414,32.18181818181861L193.695125,32.18181818181861L193.97625,32.18181818181861L194.257375,32.18181818181861L194.5385,32.18181818181861L194.81962499999997,32.18181818181861L195.10074999999998,32.18181818181861L195.38187499999998,32.18181818181861L195.66299999999998,32.18181818181861L195.94412499999999,32.18181818181861L196.22525,32.18181818181861L196.506375,32.18181818181861L196.7875,32.18181818181861L197.068625,32.18181818181861L197.34975,32.18181818181861L197.63087499999997,32.18181818181861L197.91199999999998,32.18181818181861L198.19312499999998,32.18181818181861L198.47424999999998,32.18181818181861L198.755375,32.18181818181861L199.0365,32.18181818181861L199.317625,32.18181818181861L199.59875,32.18181818181861L199.879875,32.18181818181861L200.161,32.18181818181861L200.442125,32.18181818181861L200.72324999999998,32.18181818181861L201.00437499999998,32.18181818181861L201.28549999999998,32.18181818181861L201.566625,32.18181818181861L201.84775,32.18181818181861L202.128875,32.18181818181861L202.41,32.18181818181861L202.691125,32.18181818181861L202.97225,32.18181818181861L203.253375,32.18181818181861L203.53449999999998,32.18181818181861L203.81562499999998,32.18181818181861L204.09675,32.18181818181861L204.377875,32.18181818181861L204.659,32.18181818181861L204.940125,32.18181818181861L205.22125,32.18181818181861L205.502375,32.18181818181861L205.7835,32.18181818181861L206.064625,32.18181818181861L206.34575,32.18181818181861L206.62687499999998,32.18181818181861L206.908,32.18181818181861L207.189125,32.18181818181861L207.47025,32.18181818181861L207.751375,32.18181818181861L208.0325,32.18181818181861L208.313625,32.18181818181861L208.59475,32.18181818181861L208.875875,32.18181818181861L209.157,32.18181818181861L209.43812499999999,32.18181818181861L209.71925,32.18181818181861L210.000375,32.18181818181861L210.2815,32.18181818181861L210.562625,32.18181818181861L210.84375,32.18181818181861L211.124875,32.18181818181861L211.406,32.18181818181861L211.687125,32.18181818181861L211.96825,32.18181818181861L212.24937500000001,32.18181818181861L212.5305,32.18181818181861L212.811625,32.18181818181861L213.09275,32.18181818181861L213.373875,32.18181818181861L213.655,32.18181818181861L213.936125,32.18181818181861L214.21725,32.18181818181861L214.498375,32.18181818181861L214.7795,32.18181818181861L215.06062500000002,32.18181818181861L215.34175,32.18181818181861L215.622875,32.18181818181861L215.904,32.18181818181861L216.185125,32.18181818181861L216.46625,32.18181818181861L216.747375,32.18181818181861L217.0285,32.18181818181861L217.309625,32.18181818181861L217.59075,32.18181818181861L217.87187500000002,32.18181818181861L218.15300000000002,32.18181818181861L218.434125,32.18181818181861L218.71525,32.18181818181861L218.996375,32.18181818181861L219.2775,32.18181818181861L219.558625,32.18181818181861L219.83975,32.18181818181861L220.120875,32.18181818181861L220.40200000000002,32.18181818181861L220.68312500000002,32.18181818181861L220.96425000000002,32.18181818181861L221.245375,32.18181818181861L221.5265,32.18181818181861L221.807625,32.18181818181861L222.08875,32.18181818181861L222.369875,32.18181818181861L222.651,32.18181818181861L222.932125,32.18181818181861L223.21325000000002,32.18181818181861L223.49437500000002,32.18181818181861L223.77550000000002,32.18181818181861L224.05662500000003,32.18181818181861L224.33775,32.18181818181861L224.618875,32.18181818181861L224.9,32.18181818181861L225.181125,32.18181818181861L225.46225,32.18181818181861L225.74337500000001,32.18181818181861L226.02450000000002,32.18181818181861L226.30562500000002,32.18181818181861L226.58675000000002,32.18181818181861L226.86787500000003,32.18181818181861L227.149,32.18181818181861L227.430125,32.18181818181861L227.71125,32.18181818181861L227.992375,32.18181818181861L228.2735,32.18181818181861L228.554625,32.18181818181861L228.83575,32.18181818181861L229.116875,32.18181818181861L229.398,32.18181818181861L229.679125,32.18181818181861L229.96024999999997,32.48872791637115L230.24137499999998,32.18181818181861L230.52249999999998,32.18181818181861L230.80362499999998,32.18181818181861L231.08474999999999,32.18181818181861L231.365875,32.18181818181861L231.647,32.18181818181861L231.928125,32.18181818181861L232.20925,32.18181818181861L232.490375,32.18181818181861L232.77149999999997,32.18181818181861L233.05262499999998,32.18181818181861L233.33374999999998,32.18181818181861L233.61487499999998,32.18181818181861L233.896,32.18181818181861L234.177125,32.18181818181861L234.45825,32.18181818181861L234.739375,32.18181818181861L235.0205,32.18181818181861L235.301625,32.18181818181861L235.58275,32.18181818181861L235.86387499999998,32.18181818181861L236.14499999999998,32.18181818181861L236.42612499999998,32.18181818181861L236.70725,32.18181818181861L236.988375,32.18181818181861L237.2695,32.18181818181861L237.550625,32.18181818181861L237.83175,32.18181818181861L238.112875,32.18181818181861L238.394,32.18181818181861L238.67512499999998,32.18181818181861L238.95624999999998,32.18181818181861L239.237375,32.18181818181861L239.5185,32.18181818181861L239.799625,32.18181818181861L240.08075,32.18181818181861L240.361875,32.18181818181861L240.643,32.18181818181861L240.924125,32.18181818181861L241.20525,32.18181818181861L241.486375,32.18181818181861L241.76749999999998,32.18181818181861L242.048625,32.18181818181861L242.32975,32.18181818181861L242.610875,32.18181818181861L242.892,32.18181818181861L243.173125,32.18181818181861L243.45425,32.18181818181861L243.735375,32.18181818181861L244.0165,32.18181818181861L244.297625,32.18181818181861L244.57874999999999,32.18181818181861L244.859875,32.18181818181861L245.141,32.18181818181861L245.422125,32.18181818181861L245.70325,32.18181818181861L245.984375,32.18181818181861L246.2655,32.18181818181861L246.546625,32.18181818181861L246.82775,32.18181818181861L247.108875,32.18181818181861L247.39000000000001,32.18181818181861L247.671125,32.18181818181861L247.95225,32.18181818181861L248.233375,32.18181818181861L248.5145,32.18181818181861L248.795625,32.18181818181861L249.07675,32.18181818181861L249.357875,32.18181818181861L249.639,32.18181818181861L249.920125,32.18181818181861L250.20125000000002,32.18181818181861L250.482375,32.18181818181861L250.7635,32.18181818181861L251.044625,32.18181818181861L251.32575,32.18181818181861L251.606875,32.18181818181861L251.888,32.18181818181861L252.169125,32.18181818181861L252.45025,32.18181818181861L252.731375,32.18181818181861L253.01250000000002,32.18181818181861L253.29362500000002,32.18181818181861L253.57475,32.18181818181861L253.855875,32.18181818181861L254.137,32.18181818181861L254.418125,32.18181818181861L254.69925,32.18181818181861" style="fill: none;" fill="none"></path></g><g><path stroke="rgb(0, 119, 187)" stroke-width="2px" d="M42.168749999999996,214.00926277854245L44.980000000000004,135.96825547651838L47.791250000000005,248.6047418767757L50.6025,173.78199005126976L53.41375,221.24987723610636L56.225,222.85931188409995L59.036249999999995,151.25481553511213L61.847500000000004,126.31348904696407L64.65875,118.26815726540335L67.47,223.66341538862764L70.28125,103.78631453080644L73.0925,172.17255540327616L75.90375,127.11820637096088L78.715,124.70466821843956L81.52624999999999,156.88660916415154L84.33749999999999,107.00457000732453L87.14874999999999,112.63636363636395L89.96000000000001,135.96825547651838L92.77125000000001,78.8456018621275L95.58250000000001,105.39574917880003L98.39375,123.09523357044597L101.205,116.65933643687886L104.01625,99.76334173029153L106.8275,82.06385733864559L109.63875,119.07287458940016L112.45,102.98159720680962L115.26124999999999,99.76334173029153L118.07249999999999,86.8909336436882L120.88374999999999,92.52272727272761L123.69500000000001,116.65933643687886L126.50625000000001,84.47739549116689L129.3175,105.39574917880003L132.12875,137.5770763050429L134.94,144.0135872580791L137.75125,86.8909336436882L140.5625,140.795331781561L143.37375,180.21788718483688L146.185,125.50938554243638L148.99625,94.13154810125211L151.8075,113.44108096036075L154.61875,120.68169541792466L157.43,101.37277637828512L160.24124999999998,71.60437358509448L163.05249999999998,98.15452090176701L165.86374999999998,80.454422690652L168.67499999999998,191.4820882623848L169.23725,105.39574917880003L169.7995,112.63636363636395L170.36175,136.7729728005152L170.924,97.34980357777022L171.48624999999998,97.34980357777022L172.0485,137.5770763050429L172.61075,114.24518446488844L173.173,147.23184273459722L173.73525,135.1635381525216L174.29749999999999,104.59103185480323L174.85975,70.80027008056678L175.422,93.32744459672442L175.98425,114.24518446488844L176.5465,147.23184273459722L177.10875000000001,143.20886993408232L177.671,111.83164631236716L178.23325,159.30014731667285L178.7955,112.63636363636395L179.35775,102.17749370228192L179.92000000000002,119.07287458940016L180.48225,113.44108096036075L181.0445,178.60906635631238L181.60675,121.48641274192147L182.169,77.23616721413387L182.73125000000002,98.95923822576383L183.2935,116.65933643687886L183.85575,135.96825547651838L184.418,104.59103185480323L184.98025,184.2408599853518L185.54250000000002,159.30014731667285L186.10475,167.34547909823354L186.667,79.64970536665518L187.22925,119.87697809392786L187.7915,111.83164631236716L188.35375000000002,141.6000491055578L188.91600000000003,78.0408845381307L189.47825,102.17749370228192L190.0405,80.454422690652L190.60275000000001,112.63636363636395L191.16500000000002,168.15019642223035L191.72725000000003,58.73196549849115L192.2895,64.36375912753056L192.85175,134.35882082852478L193.414,107.00457000732453L193.97625,133.5547173239971L194.5385,168.95429992675804L195.10074999999998,105.39574917880003L195.66299999999998,98.95923822576383L196.22525,78.8456018621275L196.7875,185.85029463334538L197.34975,122.29113006591825L197.91199999999998,148.036560058594L198.47424999999998,129.5317445234822L199.0365,117.46343994140656L199.59875,100.56805905428833L200.161,108.61339083584905L200.72324999999998,111.02754280783945L201.28549999999998,110.22282548384264L201.84775,122.29113006591825L202.41,130.33646184747897L202.97225,94.13154810125211L203.53449999999998,122.29113006591825L204.09675,107.80928733132134L204.659,86.0862163196914L205.22125,164.12722362171544L205.7835,69.19083543257315L206.34575,157.69071266867923L206.908,98.95923822576383L207.47025,105.39574917880003L208.0325,79.64970536665518L208.59475,139.9906144575642L209.157,74.01791173761578L209.71925,117.46343994140656L210.2815,97.34980357777022L210.84375,74.01791173761578L211.406,81.25914001464879L211.96825,112.63636363636395L212.5305,122.29113006591825L213.09275,164.12722362171544L213.655,149.6453808871185L214.21725,90.9139064442031L214.7795,103.78631453080644L215.34175,117.46343994140656L215.904,79.64970536665518L216.46625,106.19985268332773L217.0285,198.7227027199487L217.59075,78.8456018621275L218.15300000000002,177.80434903231557L218.71525,106.19985268332773L219.2775,86.8909336436882L219.83975,94.9362654252489L220.40200000000002,119.87697809392786L220.96425000000002,108.61339083584905L221.5265,97.34980357777022L222.08875,99.76334173029153L222.651,104.59103185480323L223.21325000000002,86.8909336436882L223.77550000000002,123.89995089444277L224.33775,91.71800994873081L224.9,104.59103185480323L225.46225,181.02260450883367L226.02450000000002,123.09523357044597L226.58675000000002,95.74098274924572L227.149,145.62302190607272L227.71125,103.78631453080644L228.2735,80.454422690652L228.83575,93.32744459672442L229.398,126.31348904696407L229.96024999999997,111.02754280783945L230.52249999999998,92.52272727272761L231.08474999999999,103.78631453080644L231.647,102.17749370228192L232.20925,97.34980357777022L232.77149999999997,98.15452090176701L233.33374999999998,85.28211281516369L233.896,98.95923822576383L234.45825,131.14117917147578L235.0205,95.74098274924572L235.58275,122.29113006591825L236.14499999999998,97.34980357777022L236.70725,100.56805905428833L237.2695,102.17749370228192L237.83175,101.37277637828512L238.394,83.67267816717009L238.95624999999998,90.9139064442031L239.5185,69.99555275656996L240.08075,115.85461911288206L240.643,93.32744459672442L241.20525,70.80027008056678L241.76749999999998,112.63636363636395L242.32975,78.8456018621275L242.892,126.31348904696407L243.45425,99.76334173029153L244.0165,99.76334173029153L244.57874999999999,95.74098274924572L245.141,123.89995089444277L245.70325,155.2771745161579L246.2655,135.1635381525216L246.82775,149.6453808871185L247.39000000000001,128.72702719948538L247.95225,107.80928733132134L248.5145,97.34980357777022L249.07675,78.0408845381307L249.639,116.65933643687886L250.20125000000002,65.16847645152737L250.7635,101.37277637828512L251.32575,94.13154810125211L251.888,107.00457000732453L252.45025,129.5317445234822L253.01250000000002,111.83164631236716L253.57475,83.67267816717009L254.137,101.37277637828512L254.69925,98.15452090176701" style="fill: none;" fill="none"></path></g><g><path stroke="rgb(238, 51, 119)" stroke-width="2px" d="M42.168749999999996,184.32372561368098L44.980000000000004,161.59890122847148L47.791250000000005,142.58093261718778L50.6025,185.29049127752154L53.41375,122.5961983420635L56.225,142.7423671375624L59.036249999999995,113.73203138871656L61.847500000000004,138.71325614235644L64.65875,103.5788435502489L67.47,134.52271062677585L70.28125,127.27043359929894L73.0925,102.4506433660337L75.90375,121.62943267822297L78.715,115.02166609330641L81.52624999999999,93.58647641268678L84.33749999999999,136.61829029430072L87.14874999999999,104.06253329190373L89.96000000000001,135.4900901100855L92.77125000000001,96.64882174405217L95.58250000000001,124.047267567028L98.39375,81.49914342706887L101.205,74.24625258012288L104.01625,101.6446984030987L106.8275,85.68907512318039L109.63875,116.47212149880181L112.45,103.5788435502489L115.26124999999999,94.71467659690197L118.07249999999999,104.7070437344641L120.88374999999999,118.88934256813772L123.69500000000001,69.57263114235654L126.50625000000001,118.406266645952L129.3175,87.46178574995595L132.12875,98.26009785045309L134.94,86.97870982777023L137.75125,85.85050964355504L140.5625,90.68556560169601L143.37375,76.66408746892792L146.185,92.61971074884622L148.99625,95.35918703946234L151.8075,80.37094324285368L154.61875,95.35918703946234L157.43,83.11041953346981L160.24124999999998,109.05840995095025L163.05249999999998,114.69941087202623L165.86374999999998,73.27948691628232L168.67499999999998,91.33007604425637L169.23725,109.54209969260508L169.7995,84.40005423805965L170.36175,108.25246498801523L170.924,81.01545368541406L171.48624999999998,122.27394312078331L172.0485,102.77289858731389L172.61075,91.16864152388173L173.173,143.38687758012279L173.73525,107.12426480380003L174.29749999999999,77.79228765314312L174.85975,110.50886535644563L175.422,92.45827622847158L175.98425,82.30447457053481L176.5465,107.76938906582951L177.10875000000001,90.04105515913564L177.671,81.33770890669425L178.23325,98.90522211248258L178.7955,118.56708734685755L179.35775,95.35918703946234L179.92000000000002,75.69670798561825L180.48225,82.62734361128408L181.0445,116.14986627752161L181.60675,78.43679809570348L182.169,97.45415288751809L182.73125000000002,96.48738722367754L183.2935,92.29684170809693L183.85575,90.04105515913564L184.418,83.11041953346981L184.98025,123.88583304665335L185.54250000000002,90.68556560169601L186.10475,97.29333218661255L186.667,133.5559449629353L187.22925,102.28920884565906L187.7915,102.12838814475353L188.35375000000002,141.4527324329726L188.91600000000003,96.48738722367754L189.47825,94.0701661543416L190.0405,99.87198777632312L190.60275000000001,102.28920884565906L191.16500000000002,105.19073347611892L191.72725000000003,94.71467659690197L192.2895,111.153375799006L192.85175,98.42153237082775L193.414,81.82139864834907L193.97625,122.11312241987778L194.5385,78.92048783735831L195.10074999999998,102.28920884565906L195.66299999999998,101.96695362437887L196.22525,78.75905331698367L196.7875,96.0036974820227L197.34975,81.33770890669425L197.91199999999998,91.00782082297619L198.47424999999998,81.1762743863196L199.0365,87.78465479070525L199.59875,87.9454754916108L200.161,92.78053144975176L200.72324999999998,80.53176394375923L201.28549999999998,124.85259871049391L201.84775,79.88725350119887L202.41,104.86786443536964L202.97225,109.05840995095025L203.53449999999998,84.07779901677947L204.09675,85.68907512318039L204.659,97.45415288751809L205.22125,99.71055325594848L205.7835,108.41389950838987L206.34575,63.60937500000037L206.908,117.43888716264235L207.47025,83.59410927512465L208.0325,95.84287678111717L208.59475,90.36331038041583L209.157,70.70083132657174L209.71925,101.48387770219315L210.2815,63.93163022128056L210.84375,82.94959883256426L211.406,78.92048783735831L211.96825,109.38066517223044L212.5305,89.23511019620062L213.09275,94.8754972978075L213.655,81.01545368541406L214.21725,84.88313016024537L214.7795,88.91285497492044L215.34175,83.27185405384445L215.904,107.12426480380003L216.46625,75.69670798561825L217.0285,76.50265294855328L217.59075,116.14986627752161L218.15300000000002,79.24274305863848L218.71525,87.46178574995595L219.2775,72.7957971746275L219.83975,127.75412334095378L220.40200000000002,87.3009650490504L220.96425000000002,98.74378759210794L221.5265,85.68907512318039L222.08875,75.53588728471273L222.651,91.97458648681675L223.21325000000002,85.20599920099465L223.77550000000002,101.96695362437887L224.33775,104.06253329190373L224.9,103.5788435502489L225.46225,98.26009785045309L226.02450000000002,91.00782082297619L226.58675000000002,75.53588728471273L227.149,96.97107696533237L227.71125,80.04868802157351L228.2735,106.64118888161431L228.83575,83.75554379549928L229.398,83.27185405384445L229.96024999999997,73.6017421375625L230.52249999999998,74.24625258012288L231.08474999999999,82.46590909090945L231.647,73.6017421375625L232.20925,87.46178574995595L232.77149999999997,108.5747202092954L233.33374999999998,109.21984447132489L233.896,74.40768710049753L234.45825,73.44030761718786L235.0205,81.1762743863196L235.58275,77.30859791148828L236.14499999999998,96.64882174405217L236.70725,87.13953052867576L237.2695,103.25658832896872L237.83175,93.74729711359231L238.394,74.7299423217777L238.95624999999998,86.97870982777023L239.5185,117.27806646173681L240.08075,73.44030761718786L240.643,89.71818611838634L241.20525,84.5608749389652L241.76749999999998,82.46590909090945L242.32975,102.61207788640836L242.892,74.08543187921734L243.45425,96.16513200239734L244.0165,96.326566522772L244.57874999999999,94.8754972978075L245.141,69.57263114235654L245.70325,80.04868802157351L246.2655,76.18039772727309L246.82775,79.40356375954403L247.39000000000001,89.23511019620062L247.95225,81.9822193492546L248.5145,100.19424299760331L249.07675,67.15479625355151L249.639,79.40356375954403L250.20125000000002,88.26773071289097L250.7635,124.047267567028L251.32575,101.32244318181851L251.888,66.51028581099115L252.45025,78.75905331698367L253.01250000000002,83.59410927512465L253.57475,72.47354195334731L254.137,61.51440915194462L254.69925,88.91285497492044" style="fill: none;" fill="none"></path></g><g><path stroke="rgb(255, 112, 67)" stroke-width="2px" d="M39.91974999999999,206.76803450150942L40.482,149.6453808871185L41.04425,197.1138818914242L42.168749999999996,181.82732183283048L42.731,170.56373457475166L43.29325,195.5044472434306L43.8555,139.1865109530365L44.41775,161.71368546919413L44.980000000000004,149.6453808871185L45.54225,159.30014731667285L46.1045,148.84066356312172L46.66675,146.4271254106004L47.229000000000006,173.78199005126976L47.791250000000005,124.70466821843956L48.3535,136.7729728005152L48.915749999999996,119.87697809392786L49.477999999999994,134.35882082852478L50.04025,144.0135872580791L50.6025,174.58609355579748L51.16475,127.92292369495769L51.727,145.62302190607272L52.28925,131.9452826760035L52.8515,104.59103185480323L53.41375,115.85461911288206L53.976,128.72702719948538L54.538250000000005,107.80928733132134L55.100500000000004,152.05891903963982L55.66275,178.60906635631238L56.225,135.1635381525216L56.78725,98.95923822576383L57.3495,158.49542999267604L57.91175,131.14117917147578L58.474,106.19985268332773L59.036249999999995,106.19985268332773L59.5985,129.5317445234822L60.16075,123.09523357044597L60.723,147.23184273459722L61.28525,107.00457000732453L61.847500000000004,126.31348904696407L62.40975,110.22282548384264L62.972,82.8679608431733L63.53425,147.23184273459722L64.0965,111.83164631236716L64.65875,88.4997544722127L65.221,107.80928733132134L65.78325000000001,114.24518446488844L66.3455,127.92292369495769L66.90775,107.00457000732453L67.47,117.46343994140656L68.03225,111.02754280783945L68.5945,135.96825547651838L69.15675,113.44108096036075L69.719,94.13154810125211L70.28125,119.07287458940016L70.8435,113.44108096036075L71.40575,96.54570007324253L71.968,95.74098274924572L72.53025,103.78631453080644L73.0925,93.32744459672442L73.65475,123.09523357044597L74.217,84.47739549116689L74.77925,115.04990178888525L75.34150000000001,111.02754280783945L75.90375,102.17749370228192L76.46600000000001,127.92292369495769L77.02825,107.00457000732453L77.5905,104.59103185480323L78.15275000000001,119.07287458940016L78.715,99.76334173029153L79.27725,98.95923822576383L79.83949999999999,114.24518446488844L80.40174999999999,133.5547173239971L80.964,79.64970536665518L81.52624999999999,82.06385733864559L82.0885,103.78631453080644L82.65075,111.83164631236716L83.213,148.84066356312172L83.77525,111.02754280783945L84.33749999999999,130.33646184747897L84.89975,109.41810815984584L85.462,107.80928733132134L86.02425,92.52272727272761L86.5865,102.17749370228192L87.14874999999999,99.76334173029153L87.711,102.17749370228192L88.27325,72.40909090909128L88.8355,112.63636363636395L89.39775,98.15452090176701L89.96000000000001,113.44108096036075L90.52225,107.00457000732453L91.0845,107.00457000732453L91.64675,91.71800994873081L92.209,98.15452090176701L92.77125000000001,94.13154810125211L93.3335,94.13154810125211L93.89575,105.39574917880003L94.45800000000001,86.8909336436882L95.02025,92.52272727272761L95.58250000000001,114.24518446488844L96.14475,78.8456018621275L96.707,81.25914001464879L97.26925,92.52272727272761L97.83149999999999,111.83164631236716L98.39375,71.60437358509448L98.95599999999999,94.13154810125211L99.51825,88.4997544722127L100.0805,98.95923822576383L100.64274999999999,78.8456018621275L101.205,69.99555275656996L101.76724999999999,92.52272727272761L102.3295,83.67267816717009L102.89175,82.06385733864559L103.454,83.67267816717009L104.01625,95.74098274924572L104.5785,69.19083543257315L105.14075,115.04990178888525L105.703,89.3044717962095L106.26525,85.28211281516369L106.8275,75.62734638560937L107.38975,131.9452826760035L107.952,102.98159720680962L108.51425,65.16847645152737L109.07650000000001,112.63636363636395L109.63875,107.00457000732453L110.20100000000001,74.01791173761578L110.76325,98.95923822576383L111.3255,92.52272727272761L111.88775000000001,87.69565096768501L112.45,94.13154810125211L113.01225000000001,77.23616721413387L113.5745,111.83164631236716L114.13675,80.454422690652L114.699,112.63636363636395L115.26124999999999,88.4997544722127L115.8235,86.8909336436882L116.38574999999999,94.9362654252489L116.948,101.37277637828512L117.51025,73.21380823308807L118.07249999999999,94.9362654252489L118.63475,102.98159720680962L119.197,105.39574917880003L119.75925,91.71800994873081L120.3215,94.13154810125211L120.88374999999999,106.19985268332773L121.446,99.76334173029153L122.00825,119.07287458940016L122.5705,81.25914001464879L123.13275,85.28211281516369L123.69500000000001,71.60437358509448L124.25725,81.25914001464879L124.8195,101.37277637828512L125.38175,85.28211281516369L125.944,91.71800994873081L126.50625000000001,111.02754280783945L127.0685,97.34980357777022L127.63075,90.9139064442031L128.193,98.15452090176701L128.75525000000002,94.13154810125211L129.3175,84.47739549116689L129.87975,108.61339083584905L130.442,91.71800994873081L131.00425,92.52272727272761L131.56650000000002,82.8679608431733L132.12875,87.69565096768501L132.691,78.8456018621275L133.25324999999998,91.71800994873081L133.8155,80.454422690652L134.37775,84.47739549116689L134.94,70.80027008056678L135.50225,102.17749370228192L136.0645,83.67267816717009L136.62675,89.3044717962095L137.189,70.80027008056678L137.75125,82.06385733864559L138.3135,86.8909336436882L138.87575,111.83164631236716L139.438,91.71800994873081L140.00025,94.9362654252489L140.5625,78.8456018621275L141.12475,86.0862163196914L141.687,98.15452090176701L142.24925,127.92292369495769L142.8115,94.9362654252489L143.37375,71.60437358509448L143.936,93.32744459672442L144.49825,91.71800994873081L145.0605,99.76334173029153L145.62275,87.69565096768501L146.185,88.4997544722127L146.74725,98.15452090176701L147.3095,102.98159720680962L147.87175000000002,84.47739549116689L148.434,86.0862163196914L148.99625,90.10918912020631L149.5585,116.65933643687886L150.12075000000002,96.54570007324253L150.68300000000002,100.56805905428833L151.24525,93.32744459672442L151.8075,77.23616721413387L152.36975,107.80928733132134L152.93200000000002,91.71800994873081L153.49425000000002,117.46343994140656L154.0565,100.56805905428833L154.61875,86.8909336436882L155.181,94.13154810125211L155.74325000000002,94.9362654252489L156.30550000000002,76.43206370960617L156.86775,110.22282548384264L157.43,79.64970536665518L157.99225,98.95923822576383L158.5545,108.61339083584905L159.11675,100.56805905428833L159.67899999999997,102.98159720680962L160.24124999999998,106.19985268332773L160.80349999999999,78.0408845381307L161.36575,98.15452090176701L161.928,90.10918912020631L162.49024999999997,90.10918912020631L163.05249999999998,110.22282548384264L163.61475,122.29113006591825L164.177,93.32744459672442L164.73925,79.64970536665518L165.3015,83.67267816717009L165.86374999999998,72.40909090909128L166.426,123.09523357044597L166.98825,109.41810815984584L167.5505,85.28211281516369L168.11275,96.54570007324253L168.67499999999998,91.71800994873081L168.956125,78.0408845381307L169.23725,102.17749370228192L169.518375,84.47739549116689L169.7995,82.06385733864559L170.080625,107.80928733132134L170.36175,100.56805905428833L170.642875,90.10918912020631L170.924,82.8679608431733L171.205125,82.8679608431733L171.48624999999998,114.24518446488844L171.767375,98.95923822576383L172.0485,94.13154810125211L172.329625,87.69565096768501L172.61075,86.0862163196914L172.891875,90.10918912020631L173.173,131.14117917147578L173.454125,69.19083543257315L173.73525,98.95923822576383L174.016375,102.17749370228192L174.29749999999999,79.64970536665518L174.578625,99.76334173029153L174.85975,102.98159720680962L175.140875,101.37277637828512L175.422,82.06385733864559L175.703125,83.67267816717009L175.98425,84.47739549116689L176.265375,82.06385733864559L176.5465,103.78631453080644L176.827625,78.0408845381307L177.10875000000001,85.28211281516369L177.389875,83.67267816717009L177.671,80.454422690652L177.952125,97.34980357777022L178.23325,89.3044717962095L178.514375,76.43206370960617L178.7955,109.41810815984584L179.076625,76.43206370960617L179.35775,91.71800994873081L179.638875,83.67267816717009L179.92000000000002,68.38611810857635L180.201125,127.92292369495769L180.48225,82.06385733864559L180.763375,133.5547173239971L181.0445,113.44108096036075L181.325625,73.21380823308807L181.60675,72.40909090909128L181.887875,94.13154810125211L182.169,93.32744459672442L182.450125,90.9139064442031L182.73125000000002,97.34980357777022L183.01237500000002,78.8456018621275L183.2935,87.69565096768501L183.574625,105.39574917880003L183.85575,93.32744459672442L184.136875,88.4997544722127L184.418,79.64970536665518L184.699125,69.19083543257315L184.98025,119.07287458940016L185.26137500000002,94.9362654252489L185.54250000000002,86.0862163196914L185.82362500000002,103.78631453080644L186.10475,93.32744459672442L186.385875,81.25914001464879L186.667,131.14117917147578L186.948125,90.9139064442031L187.22925,98.15452090176701L187.510375,115.85461911288206L187.7915,99.76334173029153L188.07262500000002,85.28211281516369L188.35375000000002,134.35882082852478L188.63487500000002,94.9362654252489L188.91600000000003,99.76334173029153L189.197125,127.92292369495769L189.47825,86.0862163196914L189.759375,92.52272727272761L190.0405,94.13154810125211L190.321625,88.4997544722127L190.60275000000001,93.32744459672442L190.88387500000002,85.28211281516369L191.16500000000002,106.19985268332773L191.44612500000002,84.47739549116689L191.72725000000003,93.32744459672442L192.008375,115.85461911288206L192.2895,104.59103185480323L192.570625,76.43206370960617L192.85175,91.71800994873081L193.132875,87.69565096768501L193.414,81.25914001464879L193.695125,96.54570007324253L193.97625,126.31348904696407L194.257375,74.01791173761578L194.5385,69.99555275656996L194.81962499999997,127.92292369495769L195.10074999999998,90.9139064442031L195.38187499999998,123.09523357044597L195.66299999999998,94.9362654252489L195.94412499999999,78.8456018621275L196.22525,75.62734638560937L196.506375,84.47739549116689L196.7875,92.52272727272761L197.068625,72.40909090909128L197.34975,82.8679608431733L197.63087499999997,78.8456018621275L197.91199999999998,87.69565096768501L198.19312499999998,95.74098274924572L198.47424999999998,74.82262906161257L198.755375,72.40909090909128L199.0365,89.3044717962095L199.317625,72.40909090909128L199.59875,82.06385733864559L199.879875,94.9362654252489L200.161,90.10918912020631L200.442125,70.80027008056678L200.72324999999998,75.62734638560937L201.00437499999998,103.78631453080644L201.28549999999998,111.83164631236716L201.566625,77.23616721413387L201.84775,73.21380823308807L202.128875,91.71800994873081L202.41,103.78631453080644L202.691125,97.34980357777022L202.97225,108.61339083584905L203.253375,110.22282548384264L203.53449999999998,82.8679608431733L203.81562499999998,75.62734638560937L204.09675,89.3044717962095L204.377875,70.80027008056678L204.659,94.13154810125211L204.940125,112.63636363636395L205.22125,94.9362654252489L205.502375,93.32744459672442L205.7835,102.98159720680962L206.064625,93.32744459672442L206.34575,58.73196549849115L206.62687499999998,93.32744459672442L206.908,112.63636363636395L207.189125,102.98159720680962L207.47025,84.47739549116689L207.751375,68.38611810857635L208.0325,85.28211281516369L208.313625,69.19083543257315L208.59475,96.54570007324253L208.875875,83.67267816717009L209.157,69.19083543257315L209.43812499999999,77.23616721413387L209.71925,86.8909336436882L210.000375,79.64970536665518L210.2815,64.36375912753056L210.562625,80.454422690652L210.84375,82.06385733864559L211.124875,86.8909336436882L211.406,80.454422690652L211.687125,81.25914001464879L211.96825,119.07287458940016L212.24937500000001,66.77729728005185L212.5305,84.47739549116689L212.811625,75.62734638560937L213.09275,92.52272727272761L213.373875,89.3044717962095L213.655,78.0408845381307L213.936125,84.47739549116689L214.21725,74.01791173761578L214.498375,95.74098274924572L214.7795,89.3044717962095L215.06062500000002,70.80027008056678L215.34175,78.0408845381307L215.622875,94.9362654252489L215.904,101.37277637828512L216.185125,85.28211281516369L216.46625,74.82262906161257L216.747375,95.74098274924572L217.0285,74.82262906161257L217.309625,83.67267816717009L217.59075,121.48641274192147L217.87187500000002,82.8679608431733L218.15300000000002,79.64970536665518L218.434125,113.44108096036075L218.71525,92.52272727272761L218.996375,98.15452090176701L219.2775,69.19083543257315L219.558625,71.60437358509448L219.83975,121.48641274192147L220.120875,86.0862163196914L220.40200000000002,85.28211281516369L220.68312500000002,74.01791173761578L220.96425000000002,90.10918912020631L221.245375,102.17749370228192L221.5265,86.0862163196914L221.807625,106.19985268332773L222.08875,78.8456018621275L222.369875,78.0408845381307L222.651,99.76334173029153L222.932125,90.9139064442031L223.21325000000002,87.69565096768501L223.49437500000002,75.62734638560937L223.77550000000002,89.3044717962095L224.05662500000003,113.44108096036075L224.33775,100.56805905428833L224.618875,93.32744459672442L224.9,90.10918912020631L225.181125,98.15452090176701L225.46225,98.95923822576383L225.74337500000001,97.34980357777022L226.02450000000002,89.3044717962095L226.30562500000002,82.06385733864559L226.58675000000002,68.38611810857635L226.86787500000003,83.67267816717009L227.149,89.3044717962095L227.430125,90.9139064442031L227.71125,85.28211281516369L227.992375,85.28211281516369L228.2735,110.22282548384264L228.554625,81.25914001464879L228.83575,75.62734638560937L229.116875,94.9362654252489L229.398,78.8456018621275L229.679125,84.47739549116689L229.96024999999997,69.99555275656996L230.24137499999998,97.34980357777022L230.52249999999998,70.80027008056678L230.80362499999998,90.10918912020631L231.08474999999999,81.25914001464879L231.365875,69.19083543257315L231.647,66.77729728005185L231.928125,66.77729728005185L232.20925,92.52272727272761L232.490375,76.43206370960617L232.77149999999997,100.56805905428833L233.05262499999998,95.74098274924572L233.33374999999998,105.39574917880003L233.61487499999998,80.454422690652L233.896,71.60437358509448L234.177125,84.47739549116689L234.45825,67.58201460404867L234.739375,102.98159720680962L235.0205,76.43206370960617L235.301625,109.41810815984584L235.58275,77.23616721413387L235.86387499999998,85.28211281516369L236.14499999999998,90.10918912020631L236.42612499999998,97.34980357777022L236.70725,78.0408845381307L236.988375,74.01791173761578L237.2695,103.78631453080644L237.550625,74.82262906161257L237.83175,92.52272727272761L238.112875,82.06385733864559L238.394,82.06385733864559L238.67512499999998,102.17749370228192L238.95624999999998,85.28211281516369L239.237375,71.60437358509448L239.5185,112.63636363636395L239.799625,74.01791173761578L240.08075,71.60437358509448L240.361875,82.8679608431733L240.643,79.64970536665518L240.924125,96.54570007324253L241.20525,80.454422690652L241.486375,90.10918912020631L241.76749999999998,78.0408845381307L242.048625,95.74098274924572L242.32975,94.13154810125211L242.610875,86.8909336436882L242.892,75.62734638560937L243.173125,78.0408845381307L243.45425,98.15452090176701L243.735375,79.64970536665518L244.0165,90.9139064442031L244.297625,85.28211281516369L244.57874999999999,90.9139064442031L244.859875,61.950220975009245L245.141,65.16847645152737L245.422125,113.44108096036075L245.70325,74.82262906161257L245.984375,97.34980357777022L246.2655,73.21380823308807L246.546625,65.16847645152737L246.82775,82.8679608431733L247.108875,74.82262906161257L247.39000000000001,92.52272727272761L247.671125,97.34980357777022L247.95225,76.43206370960617L248.233375,74.01791173761578L248.5145,105.39574917880003L248.795625,89.3044717962095L249.07675,62.75432447953696L249.357875,69.19083543257315L249.639,84.47739549116689L249.920125,74.01791173761578L250.20125000000002,91.71800994873081L250.482375,69.19083543257315L250.7635,115.85461911288206L251.044625,85.28211281516369L251.32575,105.39574917880003L251.606875,78.0408845381307L251.888,59.53606900301884L252.169125,90.10918912020631L252.45025,79.64970536665518L252.731375,98.95923822576383L253.01250000000002,86.0862163196914L253.29362500000002,86.0862163196914L253.57475,73.21380823308807L253.855875,65.16847645152737L254.137,61.14550365101245L254.418125,81.25914001464879L254.69925,96.54570007324253" style="fill: none;" fill="none"></path></g></g></g></g></g></g><g transform="translate(48, 177)" clip-path="url(#clip_1)"><clipPath id="clip_1"><rect width="281" height="23"></rect></clipPath><g><g><line x1="0" y1="0" x2="0" y2="5" style="visibility: inherit;" fill="rgb(0, 0, 0)" stroke="rgb(204, 204, 204)" stroke-width="1px"></line><line x1="28.1125" y1="0" x2="28.1125" y2="5" style="visibility: inherit;" fill="rgb(0, 0, 0)" stroke="rgb(204, 204, 204)" stroke-width="1px"></line><line x1="56.225" y1="0" x2="56.225" y2="5" style="visibility: inherit;" fill="rgb(0, 0, 0)" stroke="rgb(204, 204, 204)" stroke-width="1px"></line><line x1="84.33749999999999" y1="0" x2="84.33749999999999" y2="5" style="visibility: inherit;" fill="rgb(0, 0, 0)" stroke="rgb(204, 204, 204)" stroke-width="1px"></line><line x1="112.45" y1="0" x2="112.45" y2="5" style="visibility: inherit;" fill="rgb(0, 0, 0)" stroke="rgb(204, 204, 204)" stroke-width="1px"></line><line x1="140.5625" y1="0" x2="140.5625" y2="5" style="visibility: inherit;" fill="rgb(0, 0, 0)" stroke="rgb(204, 204, 204)" stroke-width="1px"></line><line x1="168.67499999999998" y1="0" x2="168.67499999999998" y2="5" style="visibility: inherit;" fill="rgb(0, 0, 0)" stroke="rgb(204, 204, 204)" stroke-width="1px"></line><line x1="196.7875" y1="0" x2="196.7875" y2="5" style="visibility: inherit;" fill="rgb(0, 0, 0)" stroke="rgb(204, 204, 204)" stroke-width="1px"></line><line x1="224.9" y1="0" x2="224.9" y2="5" style="visibility: inherit;" fill="rgb(0, 0, 0)" stroke="rgb(204, 204, 204)" stroke-width="1px"></line><line x1="253.01250000000002" y1="0" x2="253.01250000000002" y2="5" style="visibility: inherit;" fill="rgb(0, 0, 0)" stroke="rgb(204, 204, 204)" stroke-width="1px"></line><line x1="281.125" y1="0" x2="281.125" y2="5" style="visibility: inherit;" fill="rgb(0, 0, 0)" stroke="rgb(204, 204, 204)" stroke-width="1px"></line></g><g transform="translate(0, 8)"><text x="0" y="0" dx="0em" dy="0.95em" style="text-anchor: middle; visibility: hidden; font-family: &quot;Helvetica Neue&quot;, sans-serif; font-size: 12px; font-weight: 200;" fill="rgb(50, 49, 63)" stroke="none" stroke-width="1px">-100</text><text x="28.1125" y="0" dx="0em" dy="0.95em" style="text-anchor: middle; visibility: inherit; font-family: &quot;Helvetica Neue&quot;, sans-serif; font-size: 12px; font-weight: 200;" fill="rgb(50, 49, 63)" stroke="none" stroke-width="1px">0</text><text x="56.225" y="0" dx="0em" dy="0.95em" style="text-anchor: middle; visibility: inherit; font-family: &quot;Helvetica Neue&quot;, sans-serif; font-size: 12px; font-weight: 200;" fill="rgb(50, 49, 63)" stroke="none" stroke-width="1px">100</text><text x="84.33749999999999" y="0" dx="0em" dy="0.95em" style="text-anchor: middle; visibility: inherit; font-family: &quot;Helvetica Neue&quot;, sans-serif; font-size: 12px; font-weight: 200;" fill="rgb(50, 49, 63)" stroke="none" stroke-width="1px">200</text><text x="112.45" y="0" dx="0em" dy="0.95em" style="text-anchor: middle; visibility: inherit; font-family: &quot;Helvetica Neue&quot;, sans-serif; font-size: 12px; font-weight: 200;" fill="rgb(50, 49, 63)" stroke="none" stroke-width="1px">300</text><text x="140.5625" y="0" dx="0em" dy="0.95em" style="text-anchor: middle; visibility: inherit; font-family: &quot;Helvetica Neue&quot;, sans-serif; font-size: 12px; font-weight: 200;" fill="rgb(50, 49, 63)" stroke="none" stroke-width="1px">400</text><text x="168.67499999999998" y="0" dx="0em" dy="0.95em" style="text-anchor: middle; visibility: inherit; font-family: &quot;Helvetica Neue&quot;, sans-serif; font-size: 12px; font-weight: 200;" fill="rgb(50, 49, 63)" stroke="none" stroke-width="1px">500</text><text x="196.7875" y="0" dx="0em" dy="0.95em" style="text-anchor: middle; visibility: inherit; font-family: &quot;Helvetica Neue&quot;, sans-serif; font-size: 12px; font-weight: 200;" fill="rgb(50, 49, 63)" stroke="none" stroke-width="1px">600</text><text x="224.9" y="0" dx="0em" dy="0.95em" style="text-anchor: middle; visibility: inherit; font-family: &quot;Helvetica Neue&quot;, sans-serif; font-size: 12px; font-weight: 200;" fill="rgb(50, 49, 63)" stroke="none" stroke-width="1px">700</text><text x="253.01250000000002" y="0" dx="0em" dy="0.95em" style="text-anchor: middle; visibility: inherit; font-family: &quot;Helvetica Neue&quot;, sans-serif; font-size: 12px; font-weight: 200;" fill="rgb(50, 49, 63)" stroke="none" stroke-width="1px">800</text><text x="281.125" y="0" dx="0em" dy="0.95em" style="text-anchor: middle; visibility: hidden; font-family: &quot;Helvetica Neue&quot;, sans-serif; font-size: 12px; font-weight: 200;" fill="rgb(50, 49, 63)" stroke="none" stroke-width="1px">900</text></g><line x1="0" y1="0" x2="281.125" y2="0" fill="rgb(0, 0, 0)" stroke="rgb(204, 204, 204)" stroke-width="1px"></line></g></g></g></g></svg>