<svg viewBox="0 0 330 200" xmlns="http://www.w3.org/2000/svg"><g><g><g><g><g><line x1="58.59375" y1="177" x2="53.59375" y2="177" style="visibility: inherit;" fill="rgb(0, 0, 0)" stroke="rgb(204, 204, 204)" stroke-width="1px"></line><line x1="58.59375" y1="165.2" x2="53.59375" y2="165.2" style="visibility: inherit;" fill="rgb(0, 0, 0)" stroke="rgb(204, 204, 204)" stroke-width="1px"></line><line x1="58.59375" y1="153.4" x2="53.59375" y2="153.4" style="visibility: inherit;" fill="rgb(0, 0, 0)" stroke="rgb(204, 204, 204)" stroke-width="1px"></line><line x1="58.59375" y1="141.6" x2="53.59375" y2="141.6" style="visibility: inherit;" fill="rgb(0, 0, 0)" stroke="rgb(204, 204, 204)" stroke-width="1px"></line><line x1="58.59375" y1="129.8" x2="53.59375" y2="129.8" style="visibility: inherit;" fill="rgb(0, 0, 0)" stroke="rgb(204, 204, 204)" stroke-width="1px"></line><line x1="58.59375" y1="118" x2="53.59375" y2="118" style="visibility: inherit;" fill="rgb(0, 0, 0)" stroke="rgb(204, 204, 204)" stroke-width="1px"></line><line x1="58.59375" y1="106.2" x2="53.59375" y2="106.2" style="visibility: inherit;" fill="rgb(0, 0, 0)" stroke="rgb(204, 204, 204)" stroke-width="1px"></line><line x1="58.59375" y1="94.39999999999999" x2="53.59375" y2="94.39999999999999" style="visibility: inherit;" fill="rgb(0, 0, 0)" stroke="rgb(204, 204, 204)" stroke-width="1px"></line><line x1="58.59375" y1="82.6" x2="53.59375" y2="82.6" style="visibility: inherit;" fill="rgb(0, 0, 0)" stroke="rgb(204, 204, 204)" stroke-width="1px"></line><line x1="58.59375" y1="70.79999999999998" x2="53.59375" y2="70.79999999999998" style="visibility: inherit;" fill="rgb(0, 0, 0)" stroke="rgb(204, 204, 204)" stroke-width="1px"></line><line x1="58.59375" y1="58.999999999999986" x2="53.59375" y2="58.999999999999986" style="visibility: inherit;" fill="rgb(0, 0, 0)" stroke="rgb(204, 204, 204)" stroke-width="1px"></line><line x1="58.59375" y1="47.19999999999999" x2="53.59375" y2="47.19999999999999" style="visibility: inherit;" fill="rgb(0, 0, 0)" stroke="rgb(204, 204, 204)" stroke-width="1px"></line><line x1="58.59375" y1="35.400000000000006" x2="53.59375" y2="35.400000000000006" style="visibility: inherit;" fill="rgb(0, 0, 0)" stroke="rgb(204, 204, 204)" stroke-width="1px"></line><line x1="58.59375" y1="23.599999999999994" x2="53.59375" y2="23.599999999999994" style="visibility: inherit;" fill="rgb(0, 0, 0)" stroke="rgb(204, 204, 204)" stroke-width="1px"></line><line x1="58.59375" y1="11.800000000000011" x2="53.59375" y2="11.800000000000011" style="visibility: inherit;" fill="rgb(0, 0, 0)" stroke="rgb(204, 204, 204)" stroke-width="1px"></line><line x1="58.59375" y1="0" x2="53.59375" y2="0" style="visibility: inherit;" fill="rgb(0, 0, 0)" stroke="rgb(204, 204, 204)" stroke-width="1px"></line></g><g transform="translate(48.59375, 0)"><text x="0" y="177" dx="0em" dy="0.3em" style="text-anchor: end; visibility: hidden; font-family: &quot;Helvetica Neue&quot;, sans-serif; font-size: 12px; font-weight: 200;" fill="rgb(50, 49, 63)" stroke="none" stroke-width="1px">-0.04</text><text x="0" y="165.2" dx="0em" dy="0.3em" style="text-anchor: end; visibility: inherit; font-family: &quot;Helvetica Neue&quot;, sans-serif; font-size: 12px; font-weight: 200;" fill="rgb(50, 49, 63)" stroke="none" stroke-width="1px">-0.02</text><text x="0" y="153.4" dx="0em" dy="0.3em" style="text-anchor: end; visibility: hidden; font-family: &quot;Helvetica Neue&quot;, sans-serif; font-size: 12px; font-weight: 200;" fill="rgb(50, 49, 63)" stroke="none" stroke-width="1px">0</text><text x="0" y="141.6" dx="0em" dy="0.3em" style="text-anchor: end; visibility: hidden; font-family: &quot;Helvetica Neue&quot;, sans-serif; font-size: 12px; font-weight: 200;" fill="rgb(50, 49, 63)" stroke="none" stroke-width="1px">0.02</text><text x="0" y="129.8" dx="0em" dy="0.3em" style="text-anchor: end; visibility: inherit; font-family: &quot;Helvetica Neue&quot;, sans-serif; font-size: 12px; font-weight: 200;" fill="rgb(50, 49, 63)" stroke="none" stroke-width="1px">0.04</text><text x="0" y="118" dx="0em" dy="0.3em" style="text-anchor: end; visibility: hidden; font-family: &quot;Helvetica Neue&quot;, sans-serif; font-size: 12px; font-weight: 200;" fill="rgb(50, 49, 63)" stroke="none" stroke-width="1px">0.06</text><text x="0" y="106.2" dx="0em" dy="0.3em" style="text-anchor: end; visibility: hidden; font-family: &quot;Helvetica Neue&quot;, sans-serif; font-size: 12px; font-weight: 200;" fill="rgb(50, 49, 63)" stroke="none" stroke-width="1px">0.08</text><text x="0" y="94.39999999999999" dx="0em" dy="0.3em" style="text-anchor: end; visibility: inherit; font-family: &quot;Helvetica Neue&quot;, sans-serif; font-size: 12px; font-weight: 200;" fill="rgb(50, 49, 63)" stroke="none" stroke-width="1px">0.1</text><text x="0" y="82.6" dx="0em" dy="0.3em" style="text-anchor: end; visibility: hidden; font-family: &quot;Helvetica Neue&quot;, sans-serif; font-size: 12px; font-weight: 200;" fill="rgb(50, 49, 63)" stroke="none" stroke-width="1px">0.12</text><text x="0" y="70.79999999999998" dx="0em" dy="0.3em" style="text-anchor: end; visibility: hidden; font-family: &quot;Helvetica Neue&quot;, sans-serif; font-size: 12px; font-weight: 200;" fill="rgb(50, 49, 63)" stroke="none" stroke-width="1px">0.14</text><text x="0" y="58.999999999999986" dx="0em" dy="0.3em" style="text-anchor: end; visibility: inherit; font-family: &quot;Helvetica Neue&quot;, sans-serif; font-size: 12px; font-weight: 200;" fill="rgb(50, 49, 63)" stroke="none" stroke-width="1px">0.16</text><text x="0" y="47.19999999999999" dx="0em" dy="0.3em" style="text-anchor: end; visibility: hidden; font-family: &quot;Helvetica Neue&quot;, sans-serif; font-size: 12px; font-weight: 200;" fill="rgb(50, 49, 63)" stroke="none" stroke-width="1px">0.18</text><text x="0" y="35.400000000000006" dx="0em" dy="0.3em" style="text-anchor: end; visibility: hidden; font-family: &quot;Helvetica Neue&quot;, sans-serif; font-size: 12px; font-weight: 200;" fill="rgb(50, 49, 63)" stroke="none" stroke-width="1px">0.2</text><text x="0" y="23.599999999999994" dx="0em" dy="0.3em" style="text-anchor: end; visibility: inherit; font-family: &quot;Helvetica Neue&quot;, sans-serif; font-size: 12px; font-weight: 200;" fill="rgb(50, 49, 63)" stroke="none" stroke-width="1px">0.22</text><text x="0" y="11.800000000000011" dx="0em" dy="0.3em" style="text-anchor: end; visibility: hidden; font-family: &quot;Helvetica Neue&quot;, sans-serif; font-size: 12px; font-weight: 200;" fill="rgb(50, 49, 63)" stroke="none" stroke-width="1px">0.24</text><text x="0" y="0" dx="0em" dy="0.3em" style="text-anchor: end; visibility: hidden; font-family: &quot;Helvetica Neue&quot;, sans-serif; font-size: 12px; font-weight: 200;" fill="rgb(50, 49, 63)" stroke="none" stroke-width="1px">0.26</text></g><line x1="58.59375" y1="0" x2="58.59375" y2="177" fill="rgb(0, 0, 0)" stroke="rgb(204, 204, 204)" stroke-width="1px"></line></g></g><g transform="translate(58, 0)" clip-path="url(#clip_0)"><clipPath id="clip_0"><rect width="271" height="177"></rect></clipPath><g><g><g><line x1="0" y1="0" x2="0" y2="177" fill="rgb(0, 0, 0)" stroke="rgb(60, 60, 60)" stroke-width="1px" opacity="0.25"></line><line x1="27.140625" y1="0" x2="27.140625" y2="177" fill="rgb(0, 0, 0)" stroke="rgb(60, 60, 60)" stroke-width="1px" opacity="0.25"></line><line x1="54.28125" y1="0" x2="54.28125" y2="177" fill="rgb(0, 0, 0)" stroke="rgb(60, 60, 60)" stroke-width="1px" opacity="0.25"></line><line x1="81.421875" y1="0" x2="81.421875" y2="177" fill="rgb(0, 0, 0)" stroke="rgb(60, 60, 60)" stroke-width="1px" opacity="0.25"></line><line x1="108.5625" y1="0" x2="108.5625" y2="177" fill="rgb(0, 0, 0)" stroke="rgb(60, 60, 60)" stroke-width="1px" opacity="0.25"></line><line x1="135.703125" y1="0" x2="135.703125" y2="177" fill="rgb(0, 0, 0)" stroke="rgb(60, 60, 60)" stroke-width="1px" opacity="0.25"></line><line x1="162.84375" y1="0" x2="162.84375" y2="177" fill="rgb(0, 0, 0)" stroke="rgb(60, 60, 60)" stroke-width="1px" opacity="0.25"></line><line x1="189.984375" y1="0" x2="189.984375" y2="177" fill="rgb(0, 0, 0)" stroke="rgb(60, 60, 60)" stroke-width="1px" opacity="0.25"></line><line x1="217.125" y1="0" x2="217.125" y2="177" fill="rgb(0, 0, 0)" stroke="rgb(60, 60, 60)" stroke-width="1px" opacity="0.25"></line><line x1="244.265625" y1="0" x2="244.265625" y2="177" fill="rgb(0, 0, 0)" stroke="rgb(60, 60, 60)" stroke-width="1px" opacity="0.25"></line><line x1="271.40625" y1="0" x2="271.40625" y2="177" fill="rgb(0, 0, 0)" stroke="rgb(60, 60, 60)" stroke-width="1px" opacity="0.25"></line></g><g><line x1="0" y1="177" x2="271.40625" y2="177" fill="rgb(0, 0, 0)" stroke="rgb(60, 60, 60)" stroke-width="1px" opacity="0.25"></line><line x1="0" y1="165.2" x2="271.40625" y2="165.2" fill="rgb(0, 0, 0)" stroke="rgb(60, 60, 60)" stroke-width="1px" opacity="0.25"></line><line x1="0" y1="153.4" x2="271.40625" y2="153.4" fill="rgb(0, 0, 0)" stroke="rgb(60, 60, 60)" stroke-width="1px" opacity="0.25"></line><line x1="0" y1="141.6" x2="271.40625" y2="141.6" fill="rgb(0, 0, 0)" stroke="rgb(60, 60, 60)" stroke-width="1px" opacity="0.25"></line><line x1="0" y1="129.8" x2="271.40625" y2="129.8" fill="rgb(0, 0, 0)" stroke="rgb(60, 60, 60)" stroke-width="1px" opacity="0.25"></line><line x1="0" y1="118" x2="271.40625" y2="118" fill="rgb(0, 0, 0)" stroke="rgb(60, 60, 60)" stroke-width="1px" opacity="0.25"></line><line x1="0" y1="106.2" x2="271.40625" y2="106.2" fill="rgb(0, 0, 0)" stroke="rgb(60, 60, 60)" stroke-width="1px" opacity="0.25"></line><line x1="0" y1="94.39999999999999" x2="271.40625" y2="94.39999999999999" fill="rgb(0, 0, 0)" stroke="rgb(60, 60, 60)" stroke-width="1px" opacity="0.25"></line><line x1="0" y1="82.6" x2="271.40625" y2="82.6" fill="rgb(0, 0, 0)" stroke="rgb(60, 60, 60)" stroke-width="1px" opacity="0.25"></line><line x1="0" y1="70.79999999999998" x2="271.40625" y2="70.79999999999998" fill="rgb(0, 0, 0)" stroke="rgb(60, 60, 60)" stroke-width="1px" opacity="0.25"></line><line x1="0" y1="58.999999999999986" x2="271.40625" y2="58.999999999999986" fill="rgb(0, 0, 0)" stroke="rgb(60, 60, 60)" stroke-width="1px" opacity="0.25"></line><line x1="0" y1="47.19999999999999" x2="271.40625" y2="47.19999999999999" fill="rgb(0, 0, 0)" stroke="rgb(60, 60, 60)" stroke-width="1px" opacity="0.25"></line><line x1="0" y1="35.400000000000006" x2="271.40625" y2="35.400000000000006" fill="rgb(0, 0, 0)" stroke="rgb(60, 60, 60)" stroke-width="1px" opacity="0.25"></line><line x1="0" y1="23.599999999999994" x2="271.40625" y2="23.599999999999994" fill="rgb(0, 0, 0)" stroke="rgb(60, 60, 60)" stroke-width="1px" opacity="0.25"></line><line x1="0" y1="11.800000000000011" x2="271.40625" y2="11.800000000000011" fill="rgb(0, 0, 0)" stroke="rgb(60, 60, 60)" stroke-width="1px" opacity="0.25"></line><line x1="0" y1="0" x2="271.40625" y2="0" fill="rgb(0, 0, 0)" stroke="rgb(60, 60, 60)" stroke-width="1px" opacity="0.25"></line></g></g></g><g><g><line x1="0" y1="153.4" x2="271.40625" y2="153.4" fill="rgb(0, 0, 0)" stroke="rgb(153, 153, 153)" stroke-width="1.5px"></line></g></g><g><g><line x1="27.140625" y1="0" x2="27.140625" y2="177" fill="rgb(0, 0, 0)" stroke="rgb(153, 153, 153)" stroke-width="1.5px"></line></g></g><g><g><g><g><g><path stroke="rgb(204, 51, 17)" stroke-width="2px" d="M31.483125,-1.7118409633636418L31.754531250000003,0.9804719328880367L32.0259375,5.21489914655686L32.297343749999996,7.473808342218405L32.56875,9.181382173299795L32.84015625,12.334731036424643L33.1115625,13.435414844751364L33.382968749999996,14.689513558149343L33.654375,17.584492379426962L33.92578125,17.791624480485922L34.1971875,19.340156728029257L34.468593750000004,20.447557383775717L34.74,22.99078967571259L35.01140625,24.34467401504517L35.2828125,25.23643221855164L35.554218750000004,26.170926803350454L35.825625,27.993355208635336L36.09703125,28.79593935012818L36.3684375,29.769803100824333L36.639843750000004,30.60923319458962L36.91125,32.91647028326989L37.18265625,34.74537816047666L37.454062500000006,34.84574403762818L37.725468750000005,36.00377600789071L37.996875,36.6304824888706L38.268281249999994,37.24387835860253L38.5396875,38.75872086882592L38.81109375,38.42239495515824L39.082499999999996,40.134725087881066L39.353906249999994,40.85173096656797L39.6253125,40.55823814272881L39.89671875,42.35223423838613L40.168124999999996,43.103281521797186L40.43953125,44.112505429983116L40.7109375,44.89778753519059L40.98234375,45.64621489644048L41.25375,47.2399803638458L41.52515625,46.53302338123319L41.7965625,47.96422179937363L42.06796875,48.257723414897924L42.339375,49.44898795485497L42.61078125,51.30451705455779L42.8821875,50.22517066597938L43.15359375,51.85539525151253L43.425000000000004,52.79795181155204L43.69640625,52.79823314547538L43.9678125,52.86705445647239L44.23921875,53.120158278942114L44.510625000000005,54.208797478675834L44.78203125,53.95499911308288L45.0534375,55.616777056455604L45.32484375,55.49167137742043L45.596250000000005,55.84337394833564L45.86765625,56.73587944507598L46.1390625,56.53118264079093L46.41046875000001,57.78532531261445L46.681875,57.776419335603705L46.953281249999996,57.60898169279099L47.224687499999995,58.84998958706855L47.49609375,59.07132905125617L47.7675,58.38159497976302L48.03890625,59.574292564392096L48.310312499999995,59.82091691493987L48.58171875,59.4588225722313L48.853125,59.96146079301833L49.12453125,60.17977591753005L49.395937499999995,60.59250157475472L49.66734375,60.856445544958106L49.93875,61.13044720292092L50.21015625,62.10970904827117L50.4815625,62.34598558545112L50.75296875,61.955212765932075L51.024375,62.03262355327605L51.29578125,61.886690372228614L51.5671875,63.25398203134537L51.83859375,62.654477024078375L52.11,63.8431128501892L52.381406250000005,65.0688495874405L52.6528125,64.0422708928585L52.92421875,63.98806136250495L53.195625,63.91861584186553L53.467031250000005,64.82152190208434L53.7384375,64.83476217985152L54.00984375,65.85645269751548L54.28125,66.0139996945858L54.552656250000005,65.76168712377547L54.824062500000004,66.28668259978294L55.09546875,67.40907307863235L55.36687499999999,65.80751817822456L55.63828125,67.20456969141961L55.9096875,68.1161091864109L56.181093749999995,66.970174574852L56.4525,67.16708194613456L56.72390625,67.2470071554184L56.9953125,67.80781995654107L57.266718749999995,67.15555604696273L57.538125,66.1536204457283L57.80953125,68.34017407298089L58.0809375,68.59061401486396L58.352343749999996,68.48377745747565L58.62375,68.45937173962592L58.89515625,68.4156682729721L59.1665625,68.53164818286895L59.43796875,69.64835044145585L59.709375,69.09939762353896L59.98078125,69.21928104162217L60.2521875,68.78883134722709L60.52359375,69.70570739507674L60.795,67.4473784506321L61.06640625,69.05098181366921L61.3378125,70.44561561346055L61.609218750000004,68.72239258289336L61.880625,69.54612072706223L62.15203125,69.64916806817055L62.423437500000006,69.49606087207795L62.694843750000004,69.81549795866012L62.96625,70.00734131932259L63.23765625,69.90395989418029L63.509062500000006,70.50451990365981L63.78046875,70.1892237007618L64.051875,70.84501307606698L64.32328125,69.58556022644042L64.59468749999999,70.66317465305328L64.86609374999999,70.48112522959708L65.1375,71.2593036532402L65.40890625,67.64771457910537L65.6803125,70.5539643406868L65.95171875,70.40918287038802L66.223125,70.6169567644596L66.49453125,71.47633519172668L66.76593749999999,71.57684173583985L67.03734375,71.17932569384574L67.30875,71.27008225917815L67.58015625,71.60463225245475L67.8515625,71.66757192611695L68.12296875,72.57563870549203L68.394375,72.24716376662255L68.66578125,72.36531522274016L68.93718750000001,72.55565520524978L69.20859375,72.39107486009597L69.48,72.15516757369042L69.75140625,73.34986966252326L70.0228125,72.3555212855339L70.29421875,72.08484288454055L70.565625,72.16738801598548L70.83703125000001,72.09335323572158L71.10843750000001,72.98517298102378L71.37984375,72.44125779867173L71.65125,73.097477966547L71.92265625,73.35771184563637L72.1940625,72.97686483860015L72.46546875,71.97935145497323L72.736875,72.88296964168548L73.00828125000001,73.26321881413459L73.27968750000001,72.41484757661819L73.55109375,72.89266687035561L73.8225,73.54319881796836L74.09390625,73.39101474881171L74.3653125,73.5909640431404L74.63671875,72.95097332596778L74.90812500000001,73.7052031993866L75.17953125000001,73.61188825368882L75.45093750000001,74.54770159125329L75.72234375000001,73.85952364802361L75.99375,73.33379846215247L76.26515625,73.03638454675675L76.53656249999999,74.30184211730956L76.80796874999999,73.47341921329499L77.079375,73.46809145212174L77.35078125,73.44213839769364L77.6221875,74.43989794850349L77.89359375,74.29717373251914L78.16499999999999,74.2059512078762L78.43640624999999,74.32164978384971L78.70781249999999,74.52479925155639L78.97921875,74.743105584383L79.250625,73.80877804160119L79.52203125,74.87881403565407L79.7934375,74.79677882194518L80.06484375,74.33556702136994L80.33624999999999,75.62406759858132L80.60765624999999,75.26288759112359L80.8790625,75.09100135564805L81.15046875,75.66039484143256L81.421875,75.1275483906269L81.69328125,75.04279654622077L81.9646875,74.98378675580025L82.23609375,74.74765967726707L82.5075,75.27756091356277L82.77890624999999,75.24488222002982L83.0503125,74.92164712548256L83.32171875,75.15747528672217L83.593125,74.82586171627044L83.86453125,74.9448923408985L84.1359375,74.9837164223194L84.40734375,75.06620880365372L84.67875,75.00471096634864L84.95015625,75.19357394576073L85.2215625,76.30833324193954L85.49296875,75.25833349823951L85.764375,76.07535358667373L86.03578125,76.33700292706489L86.3071875,75.94760161042213L86.57859375,76.38167347908019L86.85000000000001,76.57063316702842L87.12140625,75.84356080889702L87.3928125,75.42861085534095L87.66421875,76.4241021513939L87.935625,75.97971763610839L88.20703125,75.96150126457214L88.4784375,76.49738963842391L88.74984375,76.49265971183776L89.02125000000001,77.00925912857056L89.29265625000001,76.41767542958259L89.5640625,76.89996089935303L89.83546875,77.42215182781219L90.106875,76.72778453826905L90.37828125,76.92681949734687L90.6496875,77.1732855975628L90.92109375000001,77.64321874976157L91.19250000000001,76.46915074586869L91.46390625000001,77.10820075273513L91.7353125,76.46258335709572L92.00671875,77.45585035681724L92.278125,77.20151569843291L92.54953125,77.3169593155384L92.82093750000001,77.38856759071349L93.09234375000001,77.60418366789817L93.36375,76.11647229790687L93.63515625,77.49163251519204L93.90656249999999,77.48609375357628L94.17796874999999,77.38021548986434L94.44937499999999,77.01008554697036L94.72078124999999,76.98958333730698L94.9921875,77.66071420311927L95.26359375,77.67974820137023L95.535,78.19888841509818L95.80640625,77.80274387598037L96.0778125,78.55107452869414L96.34921874999999,77.20498841404915L96.62062499999999,78.0369367837906L96.89203125,78.01499273777009L97.1634375,78.37902125120164L97.43484375,77.85093989372254L97.70625,78.26669868230819L97.97765625,78.99821963310241L98.2490625,77.75616552829742L98.52046874999999,78.85107319951057L98.79187499999999,78.24349742531776L99.06328125,77.52836417555808L99.3346875,79.07672938108443L99.60609375,78.79129853248595L99.8775,78.49882554411887L100.14890625,78.95507004261016L100.4203125,79.3029658138752L100.69171874999999,79.01102032661439L100.963125,78.4184167921543L101.23453125,78.30767672657967L101.5059375,79.18134164214133L101.77734375,79.10146918296813L102.04875,78.39671012163161L102.32015625,78.20209738016129L102.5915625,79.43643238544463L102.86296875000001,78.94845869541169L103.134375,78.22595801353454L103.40578125,78.91392495632171L103.6771875,79.3067901968956L103.94859375,79.66882739365101L104.22,79.43731155395507L104.49140625,80.0265918314457L104.76281250000001,79.21777438521386L105.03421875000001,79.72752068340777L105.305625,79.89649687111378L105.57703125,79.75204508900642L105.8484375,79.40561752915383L106.11984375,79.5642898619175L106.39125,79.53834559917449L106.66265625,80.40197480618954L106.93406250000001,80.09786162674426L107.20546875000001,79.68120608627795L107.476875,79.44876711964608L107.74828125,79.06384956240655L108.0196875,80.29906373620032L108.29109375,80.50704863071441L108.5625,79.52900003790856L108.83390625000001,80.82796711623668L109.10531250000001,80.32612014710904L109.37671875000001,78.67358666062354L109.64812500000001,80.84433283805846L109.91953125,80.8301166832447L110.1909375,80.6270243614912L110.46234374999999,80.46828609108924L110.73374999999999,80.28692241907119L111.00515625,79.90021135807037L111.2765625,80.53682167232036L111.54796875,81.0667009294033L111.819375,80.71562696397305L112.09078124999999,80.7188579082489L112.36218749999999,80.6263430058956L112.63359374999999,80.8087704718113L112.905,80.62419783473015L113.17640625,81.89269293248654L113.4478125,80.33584814667701L113.71921875,80.3973723590374L113.990625,80.6861660271883L114.26203124999999,81.06146548092364L114.53343749999999,81.21809814274312L114.80484375,80.36858398616315L115.07625,81.47690776884555L115.34765625,81.84298474490642L115.6190625,81.52538072466851L115.89046875,81.87903065383435L116.161875,81.56197171807288L116.43328125,81.67225901186465L116.70468749999999,81.31529022157193L116.97609375,82.12700892388821L117.2475,80.64390000104905L117.51890625,82.01241370439529L117.7903125,81.78663443922996L118.06171875,81.60811048150062L118.333125,81.66225847005843L118.60453125,80.73974695205689L118.8759375,82.89254930019378L119.14734375,81.9657562315464L119.41875,81.60277832448483L119.69015625,82.96292234361171L119.9615625,82.01499845981597L120.23296875,81.40220042467116L120.504375,82.45829720199107L120.77578125000001,82.38404702544213L121.0471875,82.3863196760416L121.31859375,82.58117858469485L121.59,81.91567879319192L121.86140625,82.53500905036925L122.1328125,82.14607369303702L122.40421875,82.25313883423804L122.675625,81.97141807675361L122.94703125000001,81.663990432024L123.21843750000001,82.10344720780849L123.48984375,82.66792614161967L123.76125,82.54864495396613L124.03265625,81.95907455086707L124.3040625,82.48777132630347L124.57546875,82.74809312224387L124.84687500000001,83.20817519128323L125.11828125000001,83.55882275998592L125.38968750000001,82.78853047788142L125.66109375,82.4583411604166L125.9325,82.94965129494666L126.20390625,83.01805500090121L126.4753125,82.49585528075694L126.74671875000001,83.10508828759194L127.01812500000001,83.19288205504417L127.28953125,83.77213981151581L127.5609375,83.37974492609501L127.83234374999999,83.18801146149636L128.10375,83.70881330370904L128.37515625,84.01479032039643L128.6465625,84.81301818192006L128.91796875,83.44691340029239L129.18937499999998,84.65535249710082L129.46078125,83.87448821365834L129.73218749999998,83.59765563309193L130.00359375,84.11462869644164L130.275,84.05259017050265L130.54640625,84.0575223058462L130.8178125,83.63771055042743L131.08921875,83.41161038875579L131.360625,84.3407464414835L131.63203124999998,84.40227504968642L131.9034375,84.08357646465302L132.17484375,84.18620620071887L132.44625,84.19392530024051L132.71765625,84.6029804289341L132.9890625,84.92600891888142L133.26046875,81.70632239580154L133.53187499999999,85.236970821023L133.80328125,84.87110924124718L134.0746875,84.44330144822597L134.34609375,85.28482835888863L134.6175,85.32859336733817L134.88890625,84.77935042381287L135.1603125,85.25159139335155L135.43171875,85.08713852763175L135.703125,85.84753576815127L135.97453125,85.13342674970626L136.2459375,85.72915572822095L136.51734375,85.6829246520996L136.78875,85.59729363918305L137.06015625,85.79569999277592L137.3315625,85.1606282234192L137.60296875,84.96242407858371L137.87437500000001,86.6158938795328L138.14578125,86.00625645518302L138.4171875,85.94116721451282L138.68859375,85.79550217986107L138.96,85.5749847382307L139.23140625,86.26612108349799L139.5028125,86.33789640069007L139.77421875000002,86.16619918644427L140.045625,85.29788840711116L140.31703125,86.65326733291148L140.5884375,86.2903729468584L140.85984375,86.37676444053649L141.13125,86.40466485321521L141.40265625,86.41918871700763L141.67406250000002,86.9760848224163L141.94546875,86.74955386817456L142.21687500000002,86.32621664702891L142.48828125,86.42536487579346L142.7596875,87.46260788440703L143.03109375,86.32013719677924L143.3025,86.9317175835371L143.57390625,86.80277872979642L143.8453125,86.06166605055333L144.11671875000002,86.87717836499213L144.388125,87.7218307197094L144.65953125000001,87.04967122673987L144.9309375,87.51341063678264L145.20234375,87.72253405451774L145.47375,87.4653333067894L145.74515625,87.26524334549903L146.01656250000002,86.98389183878898L146.28796875,86.91942680776118L146.55937500000002,86.74619104862214L146.83078125,87.84894529879094L147.1021875,87.55060386061669L147.37359375,88.30482054650783L147.645,87.5163294762373L147.91640625000002,88.08358658254146L148.1878125,87.55856033563613L148.45921875000002,88.4647632777691L148.730625,87.69804041981698L149.00203125000002,87.9575401932001L149.2734375,88.4339352339506L149.54484375,87.44770158231259L149.81625000000003,88.41876078546046L150.08765625,88.80980614721774L150.35906250000002,87.7712531775236L150.63046875,88.84616416096686L150.90187500000002,88.62982276976108L151.17328125,88.92018135786056L151.44468750000001,88.45346156656743L151.71609375000003,88.00103705525399L151.9875,89.16648041605949L152.25890625000002,89.27211251258849L152.5303125,88.49814091026784L152.80171875,89.7047645241022L153.07312499999998,89.07596122622489L153.34453125,89.2140829950571L153.61593749999997,88.63939251899718L153.88734374999999,89.15844921171664L154.15875,88.56380600631236L154.43015624999998,89.59323320686816L154.7015625,89.12540566325187L154.97296874999998,90.16389269530772L155.244375,90.16894351840018L155.51578124999997,89.56341620683669L155.7871875,89.02951035797595L156.05859375,90.22242333889007L156.32999999999998,90.67328732609748L156.60140625,89.20291755497455L156.87281249999998,88.16755157113074L157.14421875,90.09817924499511L157.41562499999998,89.75854765772819L157.68703125,89.92501821517943L157.9584375,89.71349466741084L158.22984375,88.94180450737475L158.50125,88.99081815183162L158.77265624999998,90.54400999248027L159.0440625,91.12323258221149L159.31546874999998,90.20661149322986L159.586875,89.75336495935916L159.85828125,90.62247138619422L160.1296875,89.68096103668212L160.40109375,90.8054043740034L160.67249999999999,90.47825258374213L160.94390625,90.11188548207282L161.21531249999998,90.07970351874827L161.48671875,90.66456157863139L161.758125,90.56041088104247L162.02953125,90.69983381927013L162.3009375,90.12254100441932L162.57234375,89.9262622386217L162.84375,91.28988336920737L163.11515624999998,88.31162970662118L163.3865625,90.5818845719099L163.65796874999998,90.76318670213222L163.929375,90.16562465727328L164.20078125,90.6754281014204L164.4721875,91.0949980854988L164.74359375,90.10816659927367L165.015,90.55623922646045L165.28640625,90.50963450372218L165.55781249999998,89.98374667167663L165.82921875,90.73310155570506L166.100625,91.68253760933875L166.37203125,90.88533397912978L166.6434375,91.16574917137622L166.91484375,91.21100437045096L167.18625,91.07089128494262L167.45765624999999,91.56423669457435L167.7290625,91.35826509594916L168.00046875,91.010105574131L168.271875,91.2443556278944L168.54328125,91.0994115114212L168.8146875,91.85933839678763L169.08609375,91.44572477936744L169.3575,90.86621645987033L169.62890625,91.62630159556865L169.9003125,91.1222567051649L170.17171875,91.31701890528201L170.443125,91.84944775104522L170.71453125,91.61948364377021L170.9859375,90.87594885528087L171.25734375,91.96279455125331L171.52875,91.32410060763358L171.80015625000001,91.7401671051979L172.0715625,91.00271616280078L172.34296875,91.54021781086921L172.614375,91.55541423857211L172.88578125,92.25615989565848L173.1571875,91.5889808923006L173.42859375,92.41252880692481L173.70000000000002,91.25923995077609L173.97140625,91.19716625809669L174.2428125,91.56379711031913L174.51421875,92.15928431749343L174.785625,91.70441132187842L175.05703125,91.40321258604526L175.3284375,93.12158260643481L175.59984375000002,91.57688792943954L175.87125,91.46773915886878L176.14265625000002,92.68758986294269L176.4140625,92.05044765174388L176.68546875,91.85974281430244L176.956875,92.359097340703L177.22828125,92.41140347123145L177.4996875,91.86250340342521L177.77109375,93.0787055581808L178.04250000000002,92.58456010520457L178.31390625,92.19631929099559L178.58531250000001,92.58594039976596L178.85671875,92.26584393680095L179.128125,92.09034871459006L179.39953125,92.85948928594588L179.6709375,92.37918634116649L179.94234375000002,93.45190379917621L180.21375,91.95081148445605L180.48515625000002,93.64105250835418L180.7565625,92.39978525936603L181.02796875,91.95051696300506L181.299375,92.43827086091041L181.57078125,92.59234953820705L181.84218750000002,93.58087342381477L182.11359375,92.61231105923652L182.38500000000002,93.3344117194414L182.65640625,91.94061312973498L182.92781250000002,92.06680018603801L183.19921875,92.27556314468383L183.470625,93.04796982705592L183.74203125000003,89.99089431166648L184.0134375,93.07056445777415L184.28484375000002,92.76527758836745L184.55625,93.20982035398482L184.82765625000002,92.84988876581191L185.0990625,93.25904939472674L185.37046875000001,92.80796121954917L185.64187500000003,93.6429998666048L185.91328125,92.58977357447147L186.18468750000002,93.41658760011195L186.45609375,93.06995783150195L186.7275,93.5793348789215L186.99890624999998,93.51630289256572L187.2703125,93.74885615110396L187.54171874999997,94.02414579093455L187.81312499999999,93.51481270194053L188.08453125,92.85743642747401L188.35593749999998,93.37203573584556L188.62734375,93.20198256671428L188.89874999999998,93.36982902288436L189.17015625,94.3323514997959L189.44156249999997,93.19258865118026L189.71296875,93.50173067450523L189.984375,93.8499077796936L190.25578124999998,93.0553812175989L190.5271875,92.98915784955024L190.79859374999998,93.90476349890231L191.07,94.26194328963756L191.34140624999998,93.41936137676238L191.6128125,93.84356457889079L191.88421875,93.10563009381293L192.155625,93.92593827247619L192.42703125,93.70917048454284L192.69843749999998,94.05687283873557L192.96984375,94.18996576368808L193.24124999999998,93.95775977671146L193.51265625,93.77072546780109L193.7840625,93.76408334970473L194.05546875,93.75890504717826L194.326875,94.64521240592002L194.59828124999999,93.22522338628768L194.8696875,94.03033513724803L195.14109374999998,95.06336253285407L195.4125,93.88079296946525L195.68390625,94.11151755750178L195.9553125,93.95770702660083L196.22671875,94.1079393416643L196.498125,94.41231187582015L196.76953125,94.14041582643985L197.04093749999998,93.80709227323531L197.31234375,94.5097852885723L197.58374999999998,94.51433058977126L197.85515625,93.84821977615356L198.1265625,94.32446975409984L198.39796875,95.11155415475368L198.669375,94.45214700102805L198.94078125,94.16675131916999L199.2121875,94.6091752886772L199.48359374999998,94.84567601382732L199.755,93.90702296197414L200.02640625,94.77429632246493L200.2978125,94.28352248072623L200.56921875,94.60792686939239L200.840625,93.66977494359016L201.11203125,95.1131234705448L201.38343749999999,94.31579675674438L201.65484375,95.04302296936511L201.92625,95.30783731639384L202.19765625,94.38441146314143L202.4690625,95.23297172188758L202.74046875,95.06156463325023L203.011875,94.59725376367568L203.28328125,94.92056798338889L203.5546875,95.72369281351565L203.82609375,94.2393970131874L204.0975,95.04024479687213L204.36890625,94.32391148209571L204.6403125,94.54975668489932L204.91171875,95.14909025430678L205.183125,94.22077182829379L205.45453125,94.79396771788596L205.72593750000001,94.91010148227214L205.99734375,95.35921592414378L206.26875,95.08268665671348L206.54015625,95.27186613678931L206.8115625,94.81412705183028L207.08296875,94.97135315239429L207.354375,95.90528506934642L207.62578125000002,94.70737401545047L207.8971875,94.8182899147272L208.16859375,94.93978660702705L208.44,95.14008756875991L208.71140625,95.43414306044578L208.9828125,95.59456933438777L209.25421875,95.58380831182002L209.52562500000002,95.12681212425231L209.79703125,95.39981153011321L210.06843750000002,95.14883969128131L210.33984375,95.13606097698211L210.61125,95.61750244498252L210.88265625,95.77742319703101L211.1540625,95.65614190101623L211.42546875,96.04952145516872L211.696875,95.37507612407207L211.96828125000002,95.80108601748942L212.2396875,95.8949812144041L212.51109375000001,95.89081835150718L212.7825,94.89287417531013L213.05390625,95.08526262044906L213.3253125,95.46214897334575L213.59671875,94.14675023555755L213.86812500000002,95.88601809144019L214.13953125,95.4939353108406L214.41093750000002,95.25179911553859L214.68234375,95.3867207109928L214.95375,95.20398114025592L215.22515625,95.14065023660659L215.4965625,95.48939440548419L215.76796875000002,96.32130760848521L216.039375,96.8571124613285L216.31078125000002,95.7366693407297L216.5821875,95.83231408298015L216.85359375000002,95.56358743607997L217.125,95.2449855595827L217.39640625,95.42498652040958L217.66781250000003,96.38105150461196L217.93921875,96.24330338239669L218.21062500000002,96.24343965351581L218.48203125,95.7082062602043L218.75343750000002,95.41284959912299L219.02484375,96.37398298978805L219.29625000000001,96.1748205512762L219.56765625000003,96.52011398375033L219.8390625,95.5530769765377L220.11046875000002,95.57369347810744L220.381875,96.3507465660572L220.65328125,96.16665307581424L220.92468749999998,96.25715468227862L221.19609375,96.09682072103023L221.46749999999997,96.71204965710639L221.73890624999999,96.01888682842254L222.0103125,96.05710867941379L222.28171874999998,96.16141323149203L222.553125,95.88253658413886L222.82453124999998,96.00429702699184L223.0959375,96.49148386120795L223.36734374999997,96.37379836440086L223.63875,95.19019138216971L223.91015625,95.58445010483264L224.18156249999998,97.3964735507965L224.45296875,96.26187581717967L224.72437499999998,96.48536045253276L224.99578125,96.35260161161422L225.26718749999998,96.94531504213809L225.53859375,96.5852164119482L225.81,95.62345441579818L226.08140625,96.73518497645854L226.3528125,96.38568472266196L226.62421874999998,96.50170419514178L226.895625,96.47624787092208L227.16703124999998,95.86519498527049L227.4384375,96.77562233209609L227.70984375,96.4367688089609L227.98125,96.90065767765044L228.25265625,96.7740310370922L228.52406249999999,96.76321726441383L228.79546875,96.6973851263523L229.06687499999998,96.03749442994594L229.33828125,97.290041410923L229.6096875,96.44861120879649L229.88109375,97.1761890888214L230.1525,96.56163271665572L230.42390625,96.42425384521484L230.6953125,97.41049189269542L230.96671874999998,95.67764196693896L231.238125,98.23260236680507L231.50953124999998,96.83736633658408L231.7809375,96.25526886582374L232.05234375,96.85112532377242L232.32375,96.94535460472106L232.59515625,96.87872242331504L232.8665625,96.61025513112544L233.13796875,97.14301366508006L233.40937499999998,97.15553742051124L233.68078125,96.98160711824893L233.9521875,97.27680113315581L234.22359375,95.6146539390087L234.495,94.65890545547008L234.76640625,97.4958459675312L235.0378125,97.21659567356109L235.30921874999999,97.33759563565253L235.580625,96.72791425287723L235.85203125,97.70332973599433L236.1234375,96.38250213265418L236.39484375,97.3190100133419L236.66625,97.50157814621925L236.93765625,97.09322635233401L237.2090625,97.9407535880804L237.48046875,96.51081238090991L237.751875,93.91928736269473L238.02328125,97.65688326358794L238.2946875,97.64708932638167L238.56609375,98.09830498099326L238.8375,97.25292291641234L239.10890625,97.35797476172446L239.3803125,97.30620052814483L239.65171875000001,97.45113585293292L239.923125,97.483067253232L240.19453125,97.17943761646747L240.4659375,97.1397827208042L240.73734375,97.70973447859286L241.00875,98.08884512782096L241.28015625,97.29497354626655L241.55156250000002,96.84939775764941L241.82296875,96.9135594755411L242.094375,97.25377570986747L242.36578125,97.30132553875445L242.6371875,97.49207433462142L242.90859375,97.9061670988798L243.18,97.90678251683711L243.45140625000002,97.2915579766035L243.7228125,98.2467569798231L243.99421875000002,98.0621711552143L244.265625,98.19716308414935L244.53703125,97.8102058559656L244.8084375,97.59367544353007L245.07984375,97.97863695919513L245.35125,97.48920384943484L245.62265625,98.35600245893L245.89406250000002,97.88195919394492" style="fill: none;" fill="none"></path></g><g><path stroke="rgb(255, 112, 67)" stroke-width="2px" d="M40.7109375,-49.24732182025909L43.425000000000004,5.815318489074713L46.1390625,10.768395626544958L48.853125,25.490160250663763L51.5671875,26.34433400034905L54.28125,28.348354661464697L56.9953125,21.67049836516381L59.709375,6.500858926773077L62.423437500000006,-4.0094423651695195L65.1375,16.469135248661047L67.8515625,14.747512304782873L70.565625,1.2356945514679012L73.27968750000001,39.87195041179655L75.99375,19.07716225981713L78.70781249999999,14.200467282533651L81.421875,20.45649852752686L84.1359375,6.398708337545401L86.85000000000001,-6.741827762126917L89.5640625,-0.16497913599013714L92.278125,12.273110115528112L94.9921875,-1.1193693041801396L97.70625,28.304536902904516L100.4203125,13.028570824861532L103.134375,18.057625705003744L105.8484375,26.253085100650793L108.5625,34.07147791385651L111.2765625,45.21683778762818L113.990625,11.06489520668984L116.70468749999999,24.247473144531256L119.41875,21.041593962907797L122.1328125,16.061403268575674L124.84687500000001,14.185565376281744L127.5609375,29.380999618768698L130.275,24.414110743999487L132.9890625,25.42368631958962L135.703125,37.365397030115105L138.4171875,-24.64329872131347L141.13125,37.43317213058472L143.8453125,-28.75956568717956L146.55937500000002,40.62951233386994L149.2734375,27.81755667328835L151.9875,23.693394774198538L154.7015625,53.07449426651L157.41562499999998,35.786779636144644L160.1296875,48.20470955371857L162.84375,28.268482202291494L163.3865625,38.122352325916296L163.929375,55.41150879263877L164.4721875,48.95855259299276L165.015,25.210391247272497L165.55781249999998,54.77578204274177L166.100625,48.05256065130234L166.6434375,51.34401809573173L167.18625,51.5066906452179L167.7290625,32.44302924871445L168.271875,45.61379995346067L168.8146875,26.15723814964295L169.3575,32.67752986550332L169.9003125,21.330787652730947L170.443125,32.879263871908165L170.9859375,59.853604400157934L171.52875,34.93294876217843L172.0715625,62.22510870695113L172.614375,44.23900019526479L173.1571875,52.38818016052245L173.70000000000002,53.00113644599914L174.2428125,41.38703908920286L174.785625,-1.3353106737136784L175.3284375,61.8598757326603L175.87125,62.01354559659957L176.4140625,42.524612808227545L176.956875,16.12406160831452L177.4996875,23.359310740232473L178.04250000000002,51.25618036985398L178.58531250000001,37.279071474075295L179.128125,60.20053308606147L179.6709375,3.8062953591346798L180.21375,39.76489406228063L180.7565625,-6.459597086906427L181.299375,46.34318452477456L181.84218750000002,38.83266773223875L182.38500000000002,48.45134269595147L182.92781250000002,4.920377695560461L183.470625,25.088811033964163L184.0134375,50.202030950784675L184.55625,45.872970038652426L185.0990625,45.015147739648825L185.64187500000003,55.16944732666016L186.18468750000002,53.355502897501L186.7275,60.322719925642005L187.2703125,22.511273586750036L187.81312499999999,67.77798097729682L188.35593749999998,57.47483816146851L188.89874999999998,49.744705075025564L189.44156249999997,51.756207460165015L189.984375,57.35515695214271L190.5271875,19.476252013444906L191.07,32.605323755741125L191.6128125,19.076810592412954L192.155625,62.39307385087014L192.69843749999998,60.48515509963036L193.24124999999998,35.68378504514695L193.7840625,46.70508545041085L194.326875,42.589451485872246L194.8696875,39.06615730524064L195.4125,61.07324849963187L195.9553125,31.859015190601355L196.498125,45.7868115246296L197.04093749999998,66.6593797147274L197.58374999999998,57.1195573747158L198.1265625,70.4632517337799L198.669375,52.25383442044257L199.2121875,39.08984210491181L199.755,60.805365854501716L200.2978125,63.80188863873481L200.840625,61.280257517099386L201.38343749999999,32.39131655693055L201.92625,60.08361246585845L202.4690625,69.35189481973649L203.011875,50.76462846398354L203.5546875,46.639877521991735L204.0975,52.72498082518578L204.6403125,61.563340985775L205.183125,52.65968497991561L205.72593750000001,53.69709503054618L206.26875,47.15930786132813L206.8115625,55.63060637712478L207.354375,68.27654864788055L207.8971875,60.28888952136039L208.44,12.20838572978974L208.9828125,59.569712096452704L209.52562500000002,61.7701477944851L210.06843750000002,55.99179517626763L210.61125,56.297200733423225L211.1540625,53.37288405895234L211.696875,31.693406218290335L212.2396875,61.091640704870215L212.7825,54.48166500926018L213.3253125,44.210093134641625L213.86812500000002,54.77402370572089L214.41093750000002,49.153745585680014L214.95375,44.017185980081535L215.4965625,48.96768715381623L216.039375,60.28912689685821L216.5821875,54.59221165776252L217.125,63.515604996681205L217.66781250000003,49.049203658103934L218.21062500000002,32.60883163809777L218.75343750000002,40.75285088419912L219.29625000000001,58.05978413820267L219.8390625,41.84721347093583L220.381875,43.03891759514809L220.92468749999998,63.21336444616318L221.46749999999997,67.7825614452362L222.0103125,65.95296781659127L222.553125,53.747251594066626L223.0959375,18.740862721204763L223.63875,33.99986963868142L224.18156249999998,20.86325463056565L224.72437499999998,47.026878708601004L225.26718749999998,34.379318767786L225.81,58.54749407768249L226.3528125,18.215814495086676L226.895625,58.38753815889358L227.4384375,43.38811453580854L227.98125,62.65694748759269L228.52406249999999,28.504952156543737L229.06687499999998,67.1259368598461L229.6096875,41.5628991663456L230.1525,67.56287481784821L230.6953125,43.56261190176008L231.238125,53.05230405330657L231.7809375,41.741027498245245L232.32375,59.1673254609108L232.8665625,43.272908294200874L233.40937499999998,48.16278200745583L233.9521875,53.587304466962806L234.495,50.64310979247092L235.0378125,54.018686079978934L235.580625,62.942369544506064L236.1234375,48.979749345779425L236.66625,28.917282187938696L237.2090625,48.7664542734623L237.751875,61.614077800512305L238.2946875,56.566938424110404L238.8375,60.85488941669463L239.3803125,40.404884779453255L239.923125,38.1300626337528L240.4659375,60.98866369724273L241.00875,57.281684839725486L241.55156250000002,26.814337486028677L242.094375,54.80635073184966L242.6371875,68.5063632965088L243.18,54.68755748271941L243.7228125,36.05010818839074L244.265625,64.3518876671791L244.8084375,54.52626522779465L245.35125,68.09784885644912L245.89406250000002,-4.21502712965011" style="fill: none;" fill="none"></path></g><g><path stroke="rgb(51, 187, 238)" stroke-width="2px" d="M35.2828125,-40.19992176294326L37.996875,26.342215204238897L40.7109375,15.76695215106011L43.425000000000004,24.08424671888352L46.1390625,53.14887192249297L48.853125,27.180440837144857L51.5671875,20.00632029175759L54.28125,35.76434325575829L56.9953125,54.32859297990798L59.709375,39.897956216335274L62.423437500000006,38.876784408092504L65.1375,30.71286078691483L67.8515625,52.016590797901145L70.565625,42.07423236370087L73.27968750000001,43.15538983941079L75.99375,18.122420424222952L78.70781249999999,39.2881825208664L81.421875,43.96507766246796L84.1359375,47.2596385717392L86.85000000000001,38.771547937393194L89.5640625,17.06054311394692L92.278125,48.91542058587075L94.9921875,18.545784020423895L97.70625,46.59158479571343L100.4203125,19.29858084917069L103.134375,35.352716559171654L105.8484375,45.42440947294236L108.5625,34.33924626708031L111.2765625,56.35302793383599L113.990625,48.03031768798829L116.70468749999999,55.5145737171173L119.41875,38.4899150967598L122.1328125,61.35340433716773L124.84687500000001,60.15728678703309L127.5609375,58.29631563425065L130.275,54.88177459836007L132.9890625,49.933128470182425L135.703125,40.563530737161614L138.4171875,60.89834671616555L141.13125,74.57718890309334L143.8453125,64.12502702474593L146.55937500000002,67.34926324486733L149.2734375,64.42323219180106L151.9875,69.08922564387322L154.7015625,69.9868654847145L157.41562499999998,59.322006368637076L160.1296875,67.01512646079063L162.84375,55.56297194361686L163.3865625,68.5375825703144L163.929375,70.34856420159339L164.4721875,77.1670786678791L165.015,62.77093168497085L165.55781249999998,78.65115028023719L166.100625,75.78512247800826L166.6434375,77.8637493789196L167.18625,75.16559880375861L167.7290625,76.04458268880843L168.271875,81.576596686244L168.8146875,79.86845139563083L169.3575,71.21998723745347L169.9003125,61.73462059497834L170.443125,76.50907378792762L170.9859375,82.987037935853L171.52875,68.26463591456414L172.0715625,83.62249653935432L172.614375,76.25618096590041L173.1571875,67.55720418095589L173.70000000000002,82.08934534490109L174.2428125,61.533466839790336L174.785625,75.03894578814506L175.3284375,81.38321917653084L175.87125,82.02928934395314L176.4140625,62.795750612020484L176.956875,71.57759782075881L177.4996875,74.26921617388724L178.04250000000002,73.7478516638279L178.58531250000001,64.41981222629548L179.128125,82.85926837623119L179.6709375,73.61371692419051L180.21375,80.05921777486802L180.7565625,76.55674230456353L181.299375,67.37226229310036L181.84218750000002,79.54057868719102L182.38500000000002,84.68320455551147L182.92781250000002,75.01586761474609L183.470625,71.34174328446387L184.0134375,68.25607281327247L184.55625,78.78302555680274L185.0990625,86.95582438409328L185.64187500000003,80.77793803215027L186.18468750000002,69.02756955623626L186.7275,75.90366076827048L187.2703125,71.5476093828678L187.81312499999999,82.50002253949641L188.35593749999998,88.73243492245673L188.89874999999998,81.8437584131956L189.44156249999997,89.01496011912822L189.984375,81.4087062716484L190.5271875,74.8976018667221L191.07,82.77173396348954L191.6128125,67.23607029914855L192.155625,58.19218691587449L192.69843749999998,79.12626173496245L193.24124999999998,57.64450889229775L193.7840625,71.37195151448249L194.326875,71.51526477336883L194.8696875,69.3670516848564L195.4125,75.28695043325423L195.9553125,84.3384122490883L196.498125,87.70681452155112L197.04093749999998,82.43832688927651L197.58374999999998,80.96016768515109L198.1265625,84.39936939775943L198.669375,84.28502913713456L199.2121875,60.20055066943168L199.755,78.34726568460465L200.2978125,83.89254193902016L200.840625,80.21168317794799L201.38343749999999,82.89495382606982L201.92625,73.33152141571045L202.4690625,78.6666500210762L203.011875,79.27709188461304L203.5546875,89.41851165294646L204.0975,88.71415700912475L204.6403125,79.15916022062301L205.183125,74.70351662635802L205.72593750000001,79.82316542565822L206.26875,96.45466428399085L206.8115625,72.98672910928725L207.354375,90.40898729264735L207.8971875,82.91298117637633L208.44,75.08159425258636L208.9828125,84.33244709074496L209.52562500000002,84.45974189937114L210.06843750000002,81.92251432836055L210.61125,84.1149539887905L211.1540625,89.21401705741881L211.696875,82.5213247925043L212.2396875,84.9942983329296L212.7825,78.6739119529724L213.3253125,78.11148148179053L213.86812500000002,82.56088297963142L214.41093750000002,79.42379873394965L214.95375,86.51101347208022L215.4965625,63.01316898465156L216.039375,84.6529743462801L216.5821875,86.67934347093106L217.125,66.48272838592528L217.66781250000003,80.65075311958789L218.21062500000002,80.41988786458968L218.75343750000002,66.5040921807289L219.29625000000001,79.50154360532761L219.8390625,88.69084146022796L220.381875,90.53116534054278L220.92468749999998,75.79333391189574L221.46749999999997,95.1148246616125L222.0103125,82.779228875041L222.553125,80.70750344693661L223.0959375,81.9922983288765L223.63875,83.22311226427554L224.18156249999998,89.96062453985213L224.72437499999998,65.81914957761764L225.26718749999998,74.00703933238984L225.81,80.1764900624752L226.3528125,63.05050727128982L226.895625,82.83682320415973L227.4384375,90.1123470455408L227.98125,75.86364101767539L228.52406249999999,50.96338208913802L229.06687499999998,87.51984615027904L229.6096875,70.48491444587708L230.1525,81.53165798783303L230.6953125,75.70943486094474L231.238125,89.65508710741996L231.7809375,74.40582137703895L232.32375,91.11019011735915L232.8665625,81.44498955607415L233.40937499999998,72.40850877165794L233.9521875,61.4466929078102L234.495,80.93547623753548L235.0378125,87.43177104890347L235.580625,75.6974693775177L236.1234375,81.89358089268207L236.66625,78.77395253777503L237.2090625,81.31834972798825L237.751875,80.85540156960488L238.2946875,58.83526351451874L238.8375,85.52303467094899L239.3803125,83.13455362021922L239.923125,73.13257437348366L240.4659375,88.53531655073165L241.00875,85.85345696806907L241.55156250000002,82.59296823441981L242.094375,97.2575517386198L242.6371875,91.41028110086917L243.18,62.41711031794547L243.7228125,88.50045751929282L244.265625,81.37929368913173L244.8084375,73.43046303987502L245.35125,82.54861418306828L245.89406250000002,64.85689085125922" style="fill: none;" fill="none"></path></g><g><path stroke="rgb(187, 187, 187)" stroke-width="2px" d="M33.654375,-12.765837645530695L34.1971875,7.583405488729483L34.74,-48.5297444820404L35.2828125,-36.84524331092834L35.825625,17.29470964670182L36.3684375,5.6118613123893795L36.91125,9.751953744888311L37.454062500000006,-0.8784067988395634L37.996875,26.93744745254517L38.5396875,17.16879513263703L39.082499999999996,20.78674938678742L39.6253125,39.174549990892416L40.168124999999996,17.25749444365502L40.7109375,15.698438549041754L41.25375,28.71407997012139L41.7965625,20.396574401855474L42.339375,33.38062729835508L42.8821875,34.20067172646523L43.425000000000004,23.016391062736517L43.9678125,-0.20459446907042889L44.510625000000005,51.654100829362875L45.0534375,22.676724308729177L45.596250000000005,17.251164430379873L46.1390625,53.27329185009003L46.681875,31.723790282011038L47.224687499999995,43.242295646667486L47.7675,47.43107643127442L48.310312499999995,59.331659638881675L48.853125,25.993853473663336L49.395937499999995,51.04334246516227L49.93875,27.19149198532105L50.4815625,39.874983543157555L51.024375,56.17954161167144L51.5671875,21.698491090536123L52.11,28.5141306757927L52.6528125,35.405044668912865L53.195625,51.811823660135275L53.7384375,34.221173936128594L54.28125,37.78460215926168L54.824062500000004,48.20321496725083L55.36687499999999,34.32071339488027L55.9096875,36.02941256165505L56.4525,34.90842875242231L56.9953125,54.04689859747887L57.538125,38.68140679001806L58.0809375,32.05820840001104L58.62375,30.422752761840826L59.1665625,33.613000327348715L59.709375,38.92799597382546L60.2521875,22.45400454998017L60.795,29.27636977434159L61.3378125,46.003192478418356L61.880625,42.360313796997076L62.423437500000006,40.7863559961319L62.96625,32.7372429907322L63.509062500000006,6.275906080007559L64.051875,39.620560967922216L64.59468749999999,19.437805974483496L65.1375,27.31978025436402L65.6803125,34.454645925760246L66.223125,23.79497390389443L66.76593749999999,38.964921051263815L67.30875,29.320697450637823L67.8515625,49.570445084571844L68.394375,37.18230139613149L68.93718750000001,35.544665420055395L69.48,31.74455624222753L70.0228125,48.90985544919968L70.565625,39.698235505819326L71.10843750000001,53.20575412511825L71.65125,29.18026786446572L72.1940625,46.247179323434835L72.736875,47.858246827125555L73.27968750000001,43.62932320833207L73.8225,31.76240336298943L74.3653125,25.125727319717413L74.90812500000001,48.47056131958959L75.45093750000001,40.79477843046189L75.99375,19.677590394020086L76.53656249999999,40.87116938233373L77.079375,46.61399480104444L77.6221875,43.07779442667962L78.16499999999999,40.81178154945374L78.70781249999999,40.17290737628937L79.250625,29.429898971319204L79.7934375,35.90494867563248L80.33624999999999,27.980422639846807L80.8790625,56.12525295615197L81.421875,43.27639859318734L81.9646875,48.68535977005956L82.5075,45.90971928238869L83.0503125,23.812082523107534L83.593125,33.57437845468519L84.1359375,44.649044388532644L84.67875,43.425962740182854L85.2215625,28.043265604972845L85.764375,42.50005763173104L86.3071875,40.71846660375596L86.85000000000001,40.911391341686226L87.3928125,32.81869795322419L87.935625,22.880717778205877L88.4784375,23.24171316027642L89.02125000000001,44.71104335188866L89.5640625,16.776369476318365L90.106875,17.578276658058172L90.6496875,43.42471432089806L91.19250000000001,43.16899936795235L91.7353125,49.30869903564454L92.278125,48.42457201480866L92.82093750000001,25.78751262426377L93.36375,45.06454821825028L93.90656249999999,44.639329576492315L94.44937499999999,41.026245915889746L94.9921875,21.898387634754187L95.535,46.777942144870735L96.0778125,28.88332870006562L96.62062499999999,49.73128896355628L97.1634375,44.47327222824097L97.70625,44.88622646927834L98.2490625,47.72543963193891L98.79187499999999,47.05986511111257L99.3346875,45.10120075345037L99.8775,51.70501347780227L100.4203125,19.199146890640264L100.963125,36.547005438804604L101.5059375,41.04786466956139L102.04875,38.64827972054479L102.5915625,38.003453576564795L103.134375,34.85378842949868L103.6771875,38.020025902986504L104.22,37.722770237922674L104.76281250000001,47.708471679687506L105.305625,34.646506869792944L105.8484375,41.29484947919846L106.39125,25.335646384954458L106.93406250000001,1.9818272829055843L107.476875,32.30143036842347L108.0196875,49.47329696416854L108.5625,31.09923776388166L109.10531250000001,40.450030082464224L109.64812500000001,57.13481974005698L110.1909375,47.101335489749914L110.73374999999999,32.63057347536085L111.2765625,54.71603375077248L111.819375,58.2529990017414L112.36218749999999,51.013863945007316L112.905,43.16656407117841L113.4478125,30.860877597332006L113.990625,46.039097720384575L114.53343749999999,26.03747781515122L115.07625,42.86336522698403L115.6190625,37.96095457077027L116.161875,22.089905703067785L116.70468749999999,55.57084929347039L117.2475,40.08930724263189L117.7903125,48.71225353479386L118.333125,48.19112640023232L118.8759375,47.73307081460953L119.41875,40.304580444097496L119.9615625,53.618356698751455L120.504375,46.25509184002877L121.0471875,43.67420476078985L121.59,54.13473632335662L122.1328125,56.519041323661796L122.675625,51.95897009372712L123.21843750000001,46.04992907643319L123.76125,44.897541368007666L124.3040625,36.7789037168026L124.84687500000001,59.24605500102044L125.38968750000001,43.09879776239396L125.9325,57.80841227769851L126.4753125,65.1780950665474L127.01812500000001,52.10191410183906L127.5609375,55.797982478141776L128.10375,47.73053001761434L128.6465625,48.20214238166807L129.18937499999998,53.76348983645438L129.73218749999998,47.14063432216645L130.275,53.3424560368061L130.8178125,58.49459450840949L131.360625,56.45224210023879L131.9034375,50.592496061325065L132.44625,56.296514981985084L132.9890625,50.11348109841347L133.53187499999999,44.805764967203146L134.0746875,68.6293325960636L134.6175,59.232049846649176L135.1603125,54.30113654732703L135.703125,37.21609663367272L136.2459375,57.89061453342438L136.78875,53.25758110880851L137.3315625,49.87628143429755L137.87437500000001,65.44611837863923L138.4171875,60.51479187011718L138.96,61.314079129695884L139.5028125,51.66650589704513L140.045625,61.44114535450936L140.5884375,46.889253669977194L141.13125,73.18826090693473L141.67406250000002,55.61791997551917L142.21687500000002,57.41243478059769L142.7596875,66.76267322301864L143.3025,55.26509206891059L143.8453125,62.17771273255347L144.388125,57.34160896539687L144.9309375,69.51936762928962L145.47375,60.94064351320266L146.01656250000002,65.07819514870643L146.55937500000002,61.33007120490073L147.1021875,68.24068736433983L147.645,65.36988567709922L148.1878125,66.62061717510223L148.730625,64.6608802318573L149.2734375,63.34375392794608L149.81625000000003,62.63637494444846L150.35906250000002,67.31581088304519L150.90187500000002,61.63024570941924L151.44468750000001,77.2413156569004L151.9875,62.169176006317144L152.5303125,73.04468389749526L153.07312499999998,65.8806298315525L153.61593749999997,73.93864881396294L154.15875,65.72805013656615L154.7015625,66.08115058541298L155.244375,61.6366020977497L155.7871875,60.6781677544117L156.32999999999998,72.18407463431359L156.87281249999998,70.16743790507317L157.41562499999998,58.28585352897643L157.9584375,73.14721252918244L158.50125,76.5605227291584L159.0440625,67.5409307718277L159.586875,71.52878638505936L160.1296875,61.19837176203727L160.67249999999999,69.94905244708062L161.21531249999998,65.25237601399421L161.758125,76.41311254501342L162.3009375,74.95678749084472L162.84375,54.813498371839515L163.11515624999998,65.23677077293395L163.3865625,66.78394910097121L163.65796874999998,64.00101151466369L163.929375,69.02106370925902L164.20078125,74.03078567385673L164.4721875,73.98945596218108L164.74359375,76.7007676899433L165.015,61.04648661017417L165.28640625,68.36941521763801L165.55781249999998,75.62421705722808L165.82921875,80.6619493305683L166.100625,72.56457876563071L166.37203125,69.209073895216L166.6434375,72.54276659488677L166.91484375,60.52681889533996L167.18625,69.67455845475196L167.45765624999999,59.08372532725333L167.7290625,73.72002598047257L168.00046875,70.94435032606124L168.271875,76.89392980337142L168.54328125,68.83824061751366L168.8146875,75.89820992350579L169.08609375,75.53805854320527L169.3575,68.83307110667229L169.62890625,68.0632008254528L169.9003125,58.23401775360108L170.17171875,77.71702494621276L170.443125,74.07611560225487L170.71453125,62.66242470741271L170.9859375,79.87071085870265L171.25734375,78.2902428150177L171.52875,65.0884110867977L171.80015625000001,73.95739268660544L172.0715625,80.65115753710269L172.34296875,67.09201853871345L172.614375,72.00636830329894L172.88578125,70.87331351041794L173.1571875,64.58396177887916L173.42859375,69.63196274042129L173.70000000000002,76.80702399611472L173.97140625,70.58448907136916L174.2428125,58.32156535387038L174.51421875,73.54129981398582L174.785625,72.69614633321763L175.05703125,62.92300146222115L175.3284375,82.12849471867084L175.59984375000002,66.40006017088889L175.87125,76.45702701210975L176.14265625000002,67.13146682977676L176.4140625,59.839449787139884L176.68546875,74.9066397190094L176.956875,69.65299245119095L177.22828125,75.26779335141183L177.4996875,71.79730203151702L177.77109375,77.62520458698272L178.04250000000002,69.16006025075912L178.31390625,66.46954085826873L178.58531250000001,57.418043875694266L178.85671875,70.8064703285694L179.128125,76.66295465230942L179.39953125,75.85404049754142L179.6709375,70.16250576972962L179.94234375000002,79.40754290819169L180.21375,78.21322765350342L180.48515625000002,82.21134316325188L180.7565625,72.85608466863633L181.02796875,73.43039270639419L181.299375,62.44089182615281L181.57078125,77.52021428346633L181.84218750000002,74.77775361537932L182.11359375,71.16742175221444L182.38500000000002,79.45899184942245L182.65640625,79.82589524388312L182.92781250000002,72.95351412296296L183.19921875,62.262631618976584L183.470625,68.00034906864165L183.74203125000003,65.17086830139161L184.0134375,63.85379474759101L184.28484375000002,69.45672687292098L184.55625,75.51108565330505L184.82765625000002,74.08758875131608L185.0990625,83.57879307270049L185.37046875000001,72.30580430626868L185.64187500000003,75.34612726569176L185.91328125,68.98995872735976L186.18468750000002,68.14420741200448L186.45609375,78.2264767229557L186.7275,73.91598384976386L186.99890624999998,72.46071379780768L187.2703125,67.95683022737502L187.54171874999997,63.82117759585381L187.81312499999999,77.60561671257018L188.08453125,66.58180188536645L188.35593749999998,83.07546470463275L188.62734375,84.39863968789578L188.89874999999998,79.15105428695678L189.17015625,84.82937511205672L189.44156249999997,83.61325647830964L189.71296875,64.23324387669562L189.984375,76.74062919020653L190.25578124999998,71.32805463075637L190.5271875,69.73686512708665L190.79859374999998,76.4277594923973L191.07,78.95382162332534L191.34140624999998,82.28213381171227L191.6128125,64.07559137940407L191.88421875,68.80229141712189L192.155625,55.94446953535079L192.42703125,63.38716726899146L192.69843749999998,71.99923824667931L192.96984375,85.35564098656177L193.24124999999998,56.334090644121176L193.51265625,67.25985180735589L193.7840625,68.61396473050117L194.05546875,60.0726404428482L194.326875,65.14090623855591L194.59828124999999,81.07572119832038L194.8696875,65.19585427045821L195.14109374999998,64.43371188044549L195.4125,70.41070383191108L195.68390625,75.45350011587144L195.9553125,82.17108164131642L196.22671875,78.4562386214733L196.498125,81.00341398417949L196.76953125,62.76262354254722L197.04093749999998,79.53963797688483L197.31234375,70.82693737149238L197.58374999999998,79.49704226255416L197.85515625,81.44826445877551L198.1265625,78.84440031051635L198.39796875,83.25280618071555L198.669375,79.38578348755837L198.94078125,79.03657775521279L199.2121875,56.797649824619285L199.48359374999998,87.99524773061276L199.755,72.1036307156086L200.02640625,83.4320378690958L200.2978125,81.77838783860206L200.56921875,71.02363374233245L200.840625,74.81909211874007L201.11203125,71.1894712984562L201.38343749999999,76.50001835227012L201.65484375,68.62471696138381L201.92625,71.56749617457389L202.19765625,70.75138162970543L202.4690625,74.11428909897803L202.74046875,76.47618409395217L203.011875,73.09620317220688L203.28328125,85.109860637784L203.5546875,85.08988153338431L203.82609375,77.09801998138427L204.0975,85.34040939211845L204.36890625,73.37012570500373L204.6403125,74.2041137456894L204.91171875,73.09342499971389L205.183125,70.89036937952041L205.45453125,82.21377846002578L205.72593750000001,77.36046057343482L205.99734375,67.69236754775046L206.26875,89.34517141580581L206.54015625,79.05982297062873L206.8115625,65.50756346583366L207.08296875,80.37658881545067L207.354375,85.18492404520511L207.62578125000002,67.60949712395667L207.8971875,76.00767519474029L208.16859375,63.42194717526435L208.44,72.52576347589493L208.71140625,78.08262717127799L208.9828125,81.37530226409434L209.25421875,78.6445301413536L209.52562500000002,80.36657948195935L209.79703125,81.88218247294427L210.06843750000002,76.96192469596862L210.33984375,76.07740204930306L210.61125,78.42985477447509L210.88265625,72.17975791692733L211.1540625,83.88247106373309L211.42546875,84.03126154243947L211.696875,78.71997159123421L211.96828125000002,58.6348306775093L212.2396875,81.86023403108119L212.51109375000001,72.97472845911979L212.7825,74.95278727412223L213.05390625,86.692900249362L213.3253125,74.91915028691291L213.59671875,76.671763920784L213.86812500000002,76.2042133152485L214.13953125,64.79859318733214L214.41093750000002,77.25438010096549L214.68234375,75.10712530612945L214.95375,84.39920235574245L215.22515625,65.57615619301795L215.4965625,56.025247538089744L215.76796875000002,81.39449890851974L216.039375,83.37945480048657L216.31078125000002,85.01049261689185L216.5821875,81.92269895374774L216.85359375000002,80.07007990181445L217.125,63.445385807752615L217.39640625,85.13841163516044L217.66781250000003,76.73368375897407L217.93921875,83.06439157724381L218.21062500000002,76.89198684096336L218.48203125,73.83449372053147L218.75343750000002,61.6524974644184L219.02484375,83.89872249364852L219.29625000000001,74.05963998436927L219.56765625000003,72.36346896886825L219.8390625,82.63282533884048L220.11046875000002,69.2430713415146L220.381875,82.89879579246045L220.65328125,80.64160097539424L220.92468749999998,71.78662892580033L221.19609375,71.4276644229889L221.46749999999997,87.69368853569031L221.73890624999999,90.63965033888816L222.0103125,77.19669785499572L222.28171874999998,60.25806587338448L222.553125,74.49718456864356L222.82453124999998,70.63751172423362L223.0959375,75.31574320197106L223.36734374999997,78.69975071549415L223.63875,77.97601040601731L223.91015625,84.08488202989102L224.18156249999998,83.9599346011877L224.45296875,75.99813621640205L224.72437499999998,63.29193573594094L224.99578125,80.79211462438107L225.26718749999998,66.99813213348389L225.53859375,82.56112035512923L225.81,74.03949823379516L226.08140625,74.164911621809L226.3528125,59.50315024852752L226.62421874999998,71.28253128528594L226.895625,79.26900353431701L227.16703124999998,88.35322316884995L227.4384375,84.79677114784718L227.70984375,86.16417709887027L227.98125,71.70156058073043L228.25265625,73.31483479738235L228.52406249999999,47.74396371245385L228.79546875,76.37868430614472L229.06687499999998,82.14362520873547L229.33828125,77.79492806792258L229.6096875,65.54110374450683L229.88109375,72.21769403815269L230.1525,79.85835414528846L230.42390625,75.89748021364211L230.6953125,70.20610373616219L230.96671874999998,67.1058126926422L231.238125,84.85628206431865L231.50953124999998,70.33681851029397L231.7809375,70.1268466949463L232.05234375,86.91357154548167L232.32375,86.75739165544509L232.59515625,84.89405114352702L232.8665625,78.08822747468948L233.13796875,60.06948422789574L233.40937499999998,66.37641932964326L233.68078125,80.8706683307886L233.9521875,56.271247678995124L234.22359375,50.085004830360404L234.495,74.79094114303588L234.76640625,77.07961898446082L235.0378125,82.05943163633346L235.30921874999999,84.70579039454461L235.580625,70.897578561306L235.85203125,84.9433021634817L236.1234375,75.49226265549659L236.39484375,43.2590262234211L236.66625,72.64903169274329L236.93765625,78.45295932292937L237.2090625,76.93896960616112L237.48046875,84.43651866316794L237.751875,75.51824208498L238.02328125,69.81278132796287L238.2946875,56.59898411631583L238.56609375,65.39031755328178L238.8375,79.15477316975593L239.10890625,88.0718057245016L239.3803125,79.95825845897197L239.65171875000001,84.10075981318951L239.923125,68.59428893923759L240.19453125,75.66565226912498L240.4659375,83.96347765028477L240.73734375,70.6368787229061L241.00875,82.1236900627613L241.28015625,78.68656318783759L241.55156250000002,76.11165445446967L241.82296875,87.40359369814395L242.094375,91.37062180936336L242.36578125,71.4999056994915L242.6371875,87.22419057190417L242.90859375,67.70545836687089L243.18,55.6827498614788L243.45140625000002,81.06535580158233L243.7228125,80.13922210931777L243.99421875000002,63.09421073794364L244.265625,76.48085247874259L244.53703125,77.22317841053008L244.8084375,66.43898975253104L245.07984375,74.5841695010662L245.35125,78.56824468970298L245.62265625,76.61223542094231L245.89406250000002,62.0655132472515" style="fill: none;" fill="none"></path></g></g></g></g></g></g><g transform="translate(58, 177)" clip-path="url(#clip_1)"><clipPath id="clip_1"><rect width="271" height="23"></rect></clipPath><g><g><line x1="0" y1="0" x2="0" y2="5" style="visibility: inherit;" fill="rgb(0, 0, 0)" stroke="rgb(204, 204, 204)" stroke-width="1px"></line><line x1="27.140625" y1="0" x2="27.140625" y2="5" style="visibility: inherit;" fill="rgb(0, 0, 0)" stroke="rgb(204, 204, 204)" stroke-width="1px"></line><line x1="54.28125" y1="0" x2="54.28125" y2="5" style="visibility: inherit;" fill="rgb(0, 0, 0)" stroke="rgb(204, 204, 204)" stroke-width="1px"></line><line x1="81.421875" y1="0" x2="81.421875" y2="5" style="visibility: inherit;" fill="rgb(0, 0, 0)" stroke="rgb(204, 204, 204)" stroke-width="1px"></line><line x1="108.5625" y1="0" x2="108.5625" y2="5" style="visibility: inherit;" fill="rgb(0, 0, 0)" stroke="rgb(204, 204, 204)" stroke-width="1px"></line><line x1="135.703125" y1="0" x2="135.703125" y2="5" style="visibility: inherit;" fill="rgb(0, 0, 0)" stroke="rgb(204, 204, 204)" stroke-width="1px"></line><line x1="162.84375" y1="0" x2="162.84375" y2="5" style="visibility: inherit;" fill="rgb(0, 0, 0)" stroke="rgb(204, 204, 204)" stroke-width="1px"></line><line x1="189.984375" y1="0" x2="189.984375" y2="5" style="visibility: inherit;" fill="rgb(0, 0, 0)" stroke="rgb(204, 204, 204)" stroke-width="1px"></line><line x1="217.125" y1="0" x2="217.125" y2="5" style="visibility: inherit;" fill="rgb(0, 0, 0)" stroke="rgb(204, 204, 204)" stroke-width="1px"></line><line x1="244.265625" y1="0" x2="244.265625" y2="5" style="visibility: inherit;" fill="rgb(0, 0, 0)" stroke="rgb(204, 204, 204)" stroke-width="1px"></line><line x1="271.40625" y1="0" x2="271.40625" y2="5" style="visibility: inherit;" fill="rgb(0, 0, 0)" stroke="rgb(204, 204, 204)" stroke-width="1px"></line></g><g transform="translate(0, 8)"><text x="0" y="0" dx="0em" dy="0.95em" style="text-anchor: middle; visibility: hidden; font-family: &quot;Helvetica Neue&quot;, sans-serif; font-size: 12px; font-weight: 200;" fill="rgb(50, 49, 63)" stroke="none" stroke-width="1px">-100</text><text x="27.140625" y="0" dx="0em" dy="0.95em" style="text-anchor: middle; visibility: inherit; font-family: &quot;Helvetica Neue&quot;, sans-serif; font-size: 12px; font-weight: 200;" fill="rgb(50, 49, 63)" stroke="none" stroke-width="1px">0</text><text x="54.28125" y="0" dx="0em" dy="0.95em" style="text-anchor: middle; visibility: inherit; font-family: &quot;Helvetica Neue&quot;, sans-serif; font-size: 12px; font-weight: 200;" fill="rgb(50, 49, 63)" stroke="none" stroke-width="1px">100</text><text x="81.421875" y="0" dx="0em" dy="0.95em" style="text-anchor: middle; visibility: inherit; font-family: &quot;Helvetica Neue&quot;, sans-serif; font-size: 12px; font-weight: 200;" fill="rgb(50, 49, 63)" stroke="none" stroke-width="1px">200</text><text x="108.5625" y="0" dx="0em" dy="0.95em" style="text-anchor: middle; visibility: inherit; font-family: &quot;Helvetica Neue&quot;, sans-serif; font-size: 12px; font-weight: 200;" fill="rgb(50, 49, 63)" stroke="none" stroke-width="1px">300</text><text x="135.703125" y="0" dx="0em" dy="0.95em" style="text-anchor: middle; visibility: inherit; font-family: &quot;Helvetica Neue&quot;, sans-serif; font-size: 12px; font-weight: 200;" fill="rgb(50, 49, 63)" stroke="none" stroke-width="1px">400</text><text x="162.84375" y="0" dx="0em" dy="0.95em" style="text-anchor: middle; visibility: inherit; font-family: &quot;Helvetica Neue&quot;, sans-serif; font-size: 12px; font-weight: 200;" fill="rgb(50, 49, 63)" stroke="none" stroke-width="1px">500</text><text x="189.984375" y="0" dx="0em" dy="0.95em" style="text-anchor: middle; visibility: inherit; font-family: &quot;Helvetica Neue&quot;, sans-serif; font-size: 12px; font-weight: 200;" fill="rgb(50, 49, 63)" stroke="none" stroke-width="1px">600</text><text x="217.125" y="0" dx="0em" dy="0.95em" style="text-anchor: middle; visibility: inherit; font-family: &quot;Helvetica Neue&quot;, sans-serif; font-size: 12px; font-weight: 200;" fill="rgb(50, 49, 63)" stroke="none" stroke-width="1px">700</text><text x="244.265625" y="0" dx="0em" dy="0.95em" style="text-anchor: middle; visibility: inherit; font-family: &quot;Helvetica Neue&quot;, sans-serif; font-size: 12px; font-weight: 200;" fill="rgb(50, 49, 63)" stroke="none" stroke-width="1px">800</text><text x="271.40625" y="0" dx="0em" dy="0.95em" style="text-anchor: middle; visibility: hidden; font-family: &quot;Helvetica Neue&quot;, sans-serif; font-size: 12px; font-weight: 200;" fill="rgb(50, 49, 63)" stroke="none" stroke-width="1px">900</text></g><line x1="0" y1="0" x2="271.40625" y2="0" fill="rgb(0, 0, 0)" stroke="rgb(204, 204, 204)" stroke-width="1px"></line></g></g></g></g></svg>