<svg viewBox="0 0 330 200" xmlns="http://www.w3.org/2000/svg"><g><g><g><g><g><line x1="48.875" y1="176.8804400521471" x2="43.875" y2="176.8804400521471" style="visibility: inherit;" fill="rgb(0, 0, 0)" stroke="rgb(204, 204, 204)" stroke-width="1px"></line><line x1="48.875" y1="161.4716950818057" x2="43.875" y2="161.4716950818057" style="visibility: inherit;" fill="rgb(0, 0, 0)" stroke="rgb(204, 204, 204)" stroke-width="1px"></line><line x1="48.875" y1="146.06295011146432" x2="43.875" y2="146.06295011146432" style="visibility: inherit;" fill="rgb(0, 0, 0)" stroke="rgb(204, 204, 204)" stroke-width="1px"></line><line x1="48.875" y1="130.65420514112293" x2="43.875" y2="130.65420514112293" style="visibility: inherit;" fill="rgb(0, 0, 0)" stroke="rgb(204, 204, 204)" stroke-width="1px"></line><line x1="48.875" y1="115.24546017078153" x2="43.875" y2="115.24546017078153" style="visibility: inherit;" fill="rgb(0, 0, 0)" stroke="rgb(204, 204, 204)" stroke-width="1px"></line><line x1="48.875" y1="99.83671520044012" x2="43.875" y2="99.83671520044012" style="visibility: inherit;" fill="rgb(0, 0, 0)" stroke="rgb(204, 204, 204)" stroke-width="1px"></line><line x1="48.875" y1="84.42797023009874" x2="43.875" y2="84.42797023009874" style="visibility: inherit;" fill="rgb(0, 0, 0)" stroke="rgb(204, 204, 204)" stroke-width="1px"></line><line x1="48.875" y1="69.01922525975735" x2="43.875" y2="69.01922525975735" style="visibility: inherit;" fill="rgb(0, 0, 0)" stroke="rgb(204, 204, 204)" stroke-width="1px"></line><line x1="48.875" y1="53.610480289415975" x2="43.875" y2="53.610480289415975" style="visibility: inherit;" fill="rgb(0, 0, 0)" stroke="rgb(204, 204, 204)" stroke-width="1px"></line><line x1="48.875" y1="38.201735319074544" x2="43.875" y2="38.201735319074544" style="visibility: inherit;" fill="rgb(0, 0, 0)" stroke="rgb(204, 204, 204)" stroke-width="1px"></line><line x1="48.875" y1="22.792990348733184" x2="43.875" y2="22.792990348733184" style="visibility: inherit;" fill="rgb(0, 0, 0)" stroke="rgb(204, 204, 204)" stroke-width="1px"></line><line x1="48.875" y1="7.384245378391768" x2="43.875" y2="7.384245378391768" style="visibility: inherit;" fill="rgb(0, 0, 0)" stroke="rgb(204, 204, 204)" stroke-width="1px"></line></g><g transform="translate(38.875, 0)"><text x="0" y="176.8804400521471" dx="0em" dy="0.3em" style="text-anchor: end; visibility: hidden; font-family: &quot;Helvetica Neue&quot;, sans-serif; font-size: 12px; font-weight: 200;" fill="rgb(50, 49, 63)" stroke="none" stroke-width="1px">-0.1</text><text x="0" y="161.4716950818057" dx="0em" dy="0.3em" style="text-anchor: end; visibility: inherit; font-family: &quot;Helvetica Neue&quot;, sans-serif; font-size: 12px; font-weight: 200;" fill="rgb(50, 49, 63)" stroke="none" stroke-width="1px">0</text><text x="0" y="146.06295011146432" dx="0em" dy="0.3em" style="text-anchor: end; visibility: hidden; font-family: &quot;Helvetica Neue&quot;, sans-serif; font-size: 12px; font-weight: 200;" fill="rgb(50, 49, 63)" stroke="none" stroke-width="1px">0.1</text><text x="0" y="130.65420514112293" dx="0em" dy="0.3em" style="text-anchor: end; visibility: inherit; font-family: &quot;Helvetica Neue&quot;, sans-serif; font-size: 12px; font-weight: 200;" fill="rgb(50, 49, 63)" stroke="none" stroke-width="1px">0.2</text><text x="0" y="115.24546017078153" dx="0em" dy="0.3em" style="text-anchor: end; visibility: hidden; font-family: &quot;Helvetica Neue&quot;, sans-serif; font-size: 12px; font-weight: 200;" fill="rgb(50, 49, 63)" stroke="none" stroke-width="1px">0.3</text><text x="0" y="99.83671520044012" dx="0em" dy="0.3em" style="text-anchor: end; visibility: inherit; font-family: &quot;Helvetica Neue&quot;, sans-serif; font-size: 12px; font-weight: 200;" fill="rgb(50, 49, 63)" stroke="none" stroke-width="1px">0.4</text><text x="0" y="84.42797023009874" dx="0em" dy="0.3em" style="text-anchor: end; visibility: hidden; font-family: &quot;Helvetica Neue&quot;, sans-serif; font-size: 12px; font-weight: 200;" fill="rgb(50, 49, 63)" stroke="none" stroke-width="1px">0.5</text><text x="0" y="69.01922525975735" dx="0em" dy="0.3em" style="text-anchor: end; visibility: inherit; font-family: &quot;Helvetica Neue&quot;, sans-serif; font-size: 12px; font-weight: 200;" fill="rgb(50, 49, 63)" stroke="none" stroke-width="1px">0.6</text><text x="0" y="53.610480289415975" dx="0em" dy="0.3em" style="text-anchor: end; visibility: hidden; font-family: &quot;Helvetica Neue&quot;, sans-serif; font-size: 12px; font-weight: 200;" fill="rgb(50, 49, 63)" stroke="none" stroke-width="1px">0.7</text><text x="0" y="38.201735319074544" dx="0em" dy="0.3em" style="text-anchor: end; visibility: inherit; font-family: &quot;Helvetica Neue&quot;, sans-serif; font-size: 12px; font-weight: 200;" fill="rgb(50, 49, 63)" stroke="none" stroke-width="1px">0.8</text><text x="0" y="22.792990348733184" dx="0em" dy="0.3em" style="text-anchor: end; visibility: hidden; font-family: &quot;Helvetica Neue&quot;, sans-serif; font-size: 12px; font-weight: 200;" fill="rgb(50, 49, 63)" stroke="none" stroke-width="1px">0.9</text><text x="0" y="7.384245378391768" dx="0em" dy="0.3em" style="text-anchor: end; visibility: hidden; font-family: &quot;Helvetica Neue&quot;, sans-serif; font-size: 12px; font-weight: 200;" fill="rgb(50, 49, 63)" stroke="none" stroke-width="1px">1</text></g><line x1="48.875" y1="0" x2="48.875" y2="177" fill="rgb(0, 0, 0)" stroke="rgb(204, 204, 204)" stroke-width="1px"></line></g></g><g transform="translate(48, 0)" clip-path="url(#clip_0)"><clipPath id="clip_0"><rect width="281" height="177"></rect></clipPath><g><g><g><line x1="11.148832736121317" y1="0" x2="11.148832736121317" y2="177" fill="rgb(0, 0, 0)" stroke="rgb(60, 60, 60)" stroke-width="1px" opacity="0.25"></line><line x1="35.622185446783604" y1="0" x2="35.622185446783604" y2="177" fill="rgb(0, 0, 0)" stroke="rgb(60, 60, 60)" stroke-width="1px" opacity="0.25"></line><line x1="60.095538157445894" y1="0" x2="60.095538157445894" y2="177" fill="rgb(0, 0, 0)" stroke="rgb(60, 60, 60)" stroke-width="1px" opacity="0.25"></line><line x1="84.56889086810818" y1="0" x2="84.56889086810818" y2="177" fill="rgb(0, 0, 0)" stroke="rgb(60, 60, 60)" stroke-width="1px" opacity="0.25"></line><line x1="109.04224357877047" y1="0" x2="109.04224357877047" y2="177" fill="rgb(0, 0, 0)" stroke="rgb(60, 60, 60)" stroke-width="1px" opacity="0.25"></line><line x1="133.51559628943275" y1="0" x2="133.51559628943275" y2="177" fill="rgb(0, 0, 0)" stroke="rgb(60, 60, 60)" stroke-width="1px" opacity="0.25"></line><line x1="157.98894900009503" y1="0" x2="157.98894900009503" y2="177" fill="rgb(0, 0, 0)" stroke="rgb(60, 60, 60)" stroke-width="1px" opacity="0.25"></line><line x1="182.46230171075732" y1="0" x2="182.46230171075732" y2="177" fill="rgb(0, 0, 0)" stroke="rgb(60, 60, 60)" stroke-width="1px" opacity="0.25"></line><line x1="206.9356544214196" y1="0" x2="206.9356544214196" y2="177" fill="rgb(0, 0, 0)" stroke="rgb(60, 60, 60)" stroke-width="1px" opacity="0.25"></line><line x1="231.4090071320819" y1="0" x2="231.4090071320819" y2="177" fill="rgb(0, 0, 0)" stroke="rgb(60, 60, 60)" stroke-width="1px" opacity="0.25"></line><line x1="255.8823598427442" y1="0" x2="255.8823598427442" y2="177" fill="rgb(0, 0, 0)" stroke="rgb(60, 60, 60)" stroke-width="1px" opacity="0.25"></line><line x1="280.3557125534065" y1="0" x2="280.3557125534065" y2="177" fill="rgb(0, 0, 0)" stroke="rgb(60, 60, 60)" stroke-width="1px" opacity="0.25"></line></g><g><line x1="0" y1="176.8804400521471" x2="281.125" y2="176.8804400521471" fill="rgb(0, 0, 0)" stroke="rgb(60, 60, 60)" stroke-width="1px" opacity="0.25"></line><line x1="0" y1="161.4716950818057" x2="281.125" y2="161.4716950818057" fill="rgb(0, 0, 0)" stroke="rgb(60, 60, 60)" stroke-width="1px" opacity="0.25"></line><line x1="0" y1="146.06295011146432" x2="281.125" y2="146.06295011146432" fill="rgb(0, 0, 0)" stroke="rgb(60, 60, 60)" stroke-width="1px" opacity="0.25"></line><line x1="0" y1="130.65420514112293" x2="281.125" y2="130.65420514112293" fill="rgb(0, 0, 0)" stroke="rgb(60, 60, 60)" stroke-width="1px" opacity="0.25"></line><line x1="0" y1="115.24546017078153" x2="281.125" y2="115.24546017078153" fill="rgb(0, 0, 0)" stroke="rgb(60, 60, 60)" stroke-width="1px" opacity="0.25"></line><line x1="0" y1="99.83671520044012" x2="281.125" y2="99.83671520044012" fill="rgb(0, 0, 0)" stroke="rgb(60, 60, 60)" stroke-width="1px" opacity="0.25"></line><line x1="0" y1="84.42797023009874" x2="281.125" y2="84.42797023009874" fill="rgb(0, 0, 0)" stroke="rgb(60, 60, 60)" stroke-width="1px" opacity="0.25"></line><line x1="0" y1="69.01922525975735" x2="281.125" y2="69.01922525975735" fill="rgb(0, 0, 0)" stroke="rgb(60, 60, 60)" stroke-width="1px" opacity="0.25"></line><line x1="0" y1="53.610480289415975" x2="281.125" y2="53.610480289415975" fill="rgb(0, 0, 0)" stroke="rgb(60, 60, 60)" stroke-width="1px" opacity="0.25"></line><line x1="0" y1="38.201735319074544" x2="281.125" y2="38.201735319074544" fill="rgb(0, 0, 0)" stroke="rgb(60, 60, 60)" stroke-width="1px" opacity="0.25"></line><line x1="0" y1="22.792990348733184" x2="281.125" y2="22.792990348733184" fill="rgb(0, 0, 0)" stroke="rgb(60, 60, 60)" stroke-width="1px" opacity="0.25"></line><line x1="0" y1="7.384245378391768" x2="281.125" y2="7.384245378391768" fill="rgb(0, 0, 0)" stroke="rgb(60, 60, 60)" stroke-width="1px" opacity="0.25"></line></g></g></g><g><g><line x1="0" y1="161.4716950818057" x2="281.125" y2="161.4716950818057" fill="rgb(0, 0, 0)" stroke="rgb(153, 153, 153)" stroke-width="1.5px"></line></g></g><g><g><line x1="35.622185446783604" y1="0" x2="35.622185446783604" y2="177" fill="rgb(0, 0, 0)" stroke="rgb(153, 153, 153)" stroke-width="1.5px"></line></g></g><g><g><g><g><g><path stroke="rgb(255, 112, 67)" stroke-width="2px" d="M35.622185446783604,-61.57348715085348L35.86691897389023,12.80639692495373L36.111652500996854,23.675617099138464L36.35638602810347,26.11726143489733L36.6011195552101,32.615549842855074L36.84585308231672,30.98557046792996L37.09058660942335,33.937257258398176L37.33532013652997,39.00798887402516L37.58005366363658,38.48463832847278L37.82478719074321,37.65318114143713L38.069520717849834,37.301109123235136L38.31425424495646,39.18777208882935L38.558987772063084,39.4701442440863L38.8037212991697,40.641513399443994L39.04845482627633,40.26190676678564L39.29318835338295,40.99576210331182L39.53792188048958,41.68063742019294L39.782655407596195,42.58197815672776L40.02738893470281,41.852889486279935L40.27212246180944,42.10344713037051L40.51685598891606,41.104440253032266L40.76158951602269,45.104279258382405L41.00632304312931,43.0152947377986L41.25105657023593,44.162408083690224L41.49579009734256,41.95748979449985L41.74052362444918,45.00505178186927L41.9852571515558,46.24393493017848L42.229990678662425,48.66942403350612L42.47472420576904,44.50397323099892L42.71945773287567,46.28274789905521L42.96419125998229,46.317896321178125L43.20892478708892,48.06452584227068L43.45365831419554,44.89945956625735L43.69839184130216,43.0771787378676L43.943125368408786,47.840033320203844L44.187858895515404,44.173759912732265L44.43259242262203,44.98114497685597L44.677325949728655,46.12794605560569L44.92205947683527,45.94366252022658L45.1667930039419,46.6959875397653L45.41152653104852,47.3891103829246L45.65626005815515,46.54236129026188L45.90099358526177,51.73898248572645L46.145727112368384,48.995522772961436L46.39046063947501,47.211577328407856L46.635194166581634,46.10791503688344L46.87992769368826,51.58383163782416L47.124661220794884,49.90760917290983L47.3693947479015,46.97582482057598L47.61412827500813,47.551434190763615L47.85886180211475,46.54021215757916L48.10359532922138,48.16232056366201L48.348328856328,47.89395450815354L48.593062383434614,50.574134203038554L48.83779591054124,47.579336178328134L49.082529437647864,51.22903187429412L49.32726296475449,46.92059945809231L49.571996491861114,49.24140559425072L49.81673001896773,47.82828656507053L50.06146354607436,47.56250130564686L50.30619707318098,47.596382290546586L50.55093060028761,49.0697505094645L50.795664127394225,48.717072325634064L51.04039765450084,45.1112593474374L51.28513118160747,48.722132890198935L51.52986470871409,51.22583572825316L51.77459823582072,52.578485143830775L52.019331762927344,51.20048698379033L52.26406529003396,48.853450407709545L52.50879881714059,46.41020799893019L52.75353234424721,49.414594461763514L52.99826587135383,49.48050119736682L53.242999398460455,48.878064405956025L53.48773292556707,49.52832399172112L53.7324664526737,48.28342510876587L53.97719997978032,52.32621003045955L54.22193350688695,49.69112538460077L54.46666703399357,49.85062960383472L54.71140056110019,49.11182391467615L54.95613408820682,51.29732653510045L55.200867615313435,50.28960373077118L55.44560114242006,52.28347535365323L55.690334669526685,51.07327486076338L55.9350681966333,49.90888579446067L56.17980172373993,48.30761662793799L56.42453525084655,51.96900397307107L56.66926877795318,50.836153888103624L56.9140023050598,52.37316031368198L57.15873583216642,50.56298442920598L57.40346935927304,53.73355211751401L57.648202886379664,51.476926063350575L57.89293641348629,52.11625629914799L58.137669940592914,49.966958298532546L58.38240346769953,48.97182720748535L58.62713699480616,50.41145220641904L58.87187052191278,52.64370305485629L59.11660404901941,53.49785471564836L59.36133757612603,49.76174368031619L59.606071103232644,52.0473371040578L59.85080463033927,50.87430558538571L60.095538157445894,48.96319393944364L60.34027168455252,49.65510445134602L60.585005211659144,51.5590890589898L60.82973873876576,51.38736049958196L61.07447226587239,53.02633133132922L61.31920579297901,47.30869240954908L61.56393932008564,51.531637103482794L61.808672847192256,52.15306708458529L62.05340637429887,53.049172754328865L62.2981399014055,53.19986920329475L62.542873428512124,50.57760587891063L62.78760695561875,51.60689348468871L63.032340482725374,52.6788606613069L63.27707400983199,53.2400965586379L63.52180753693862,49.35796389714116L63.76654106404524,48.85929164012924L64.01127459115186,52.5937770494578L64.25600811825849,52.97543178719408L64.50074164536511,52.187287889610104L64.74547517247173,53.03959350053367L64.99020869957835,47.47126419423611L65.23494222668498,50.96433954986719L65.4796757537916,47.013425458195826L65.72440928089821,52.857385623215634L65.96914280800485,52.369449845289594L66.21387633511146,51.9625290220398L66.4586098622181,50.038265418825745L66.70334338932471,52.41628073225188L66.94807691643133,52.579963820591104L67.19281044353795,52.85906635518545L67.43754397064458,51.487313537983695L67.6822774977512,50.9179219576516L67.92701102485783,52.105776981237824L68.17174455196445,49.33210083032692L68.41647807907107,51.32589897858735L68.6612116061777,51.32749705160782L68.90594513328432,51.77071433794349L69.15067866039095,51.28482666509542L69.39541218749756,51.5872022860915L69.64014571460419,51.535117963682595L69.8848792417108,50.63573348894873L70.12961276881744,49.38777622486808L70.37434629592406,50.36486929630479L70.61907982303069,51.837263976486085L70.8638133501373,52.8593694379997L71.10854687724392,52.25215679618286L71.35328040435056,51.79039635221298L71.59801393145716,49.736541885096656L71.84274745856379,50.43965727679779L72.08748098567041,52.84639198295406L72.33221451277703,50.998854253378525L72.57694803988366,52.24034575075561L72.82168156699028,49.281293129468864L73.06641509409691,50.799637001152846L73.31114862120353,51.91523891869234L73.55588214831015,51.004548536554964L73.80061567541678,54.168861697696585L74.0453492025234,51.39579171241415L74.29008272963003,50.48060100970186L74.53481625673665,51.21959038541449L74.77954978384327,51.33619460994343L75.0242833109499,53.62345039699943L75.26901683805652,51.67407684184286L75.51375036516315,53.84687753705265L75.75848389226977,52.28626738927521L76.00321741937637,52.29459757450266L76.247950946483,50.20288530859078L76.49268447358962,51.33267701243284L76.73741800069625,52.83254201677654L76.98215152780287,53.179351415204195L77.22688505490949,52.9034725796339L77.47161858201612,51.4814906742194L77.71635210912274,54.06976280177132L77.96108563622937,51.55704095391184L78.20581916333599,51.7808170984178L78.4505526904426,50.52950755472523L78.69528621754924,52.30347881939237L78.94001974465586,51.64704736541023L79.18475327176249,51.86245658737792L79.4294867988691,53.246791933534055L79.67422032597572,52.39917951406717L79.91895385308236,50.9685367876279L80.16368738018897,50.55894332501626L80.4084209072956,51.78082628274551L80.65315443440221,50.93351694609285L80.89788796150883,56.773812564358806L81.14262148861546,52.46089819623751L81.38735501572208,54.53375503737324L81.63208854282871,52.57223980099211L81.87682206993533,50.645073950223605L82.12155559704195,53.35401895947729L82.36628912414858,49.24049634580804L82.6110226512552,52.60981288562883L82.85575617836183,49.84670789590514L83.10048970546845,50.47845187701914L83.34522323257507,52.70804845474993L83.5899567596817,51.577044419650974L83.83469028678832,53.87702968490461L84.07942381389495,50.330547463675245L84.32415734100157,50.67781607848808L84.56889086810818,51.775995326373234L84.81362439521482,52.609234272983485L85.05835792232142,52.51131097100432L85.30309144942805,53.87056391820104L85.54782497653467,50.7596851756408L85.79255850364129,54.43281009157948L86.03729203074792,54.84869481866829L86.28202555785454,51.33555170700417L86.52675908496117,55.03675311273372L86.77149261206779,53.93105190045905L87.0162261391744,50.342441168051806L87.26095966628104,54.804747810605036L87.50569319338766,52.82141979592711L87.75042672049429,54.21291891769228L87.99516024760091,49.61307696777287L88.23989377470753,52.886123384601206L88.48462730181416,52.94971566962313L88.72936082892078,54.252163549971115L88.97409435602741,52.66614036743695L89.21882788313401,51.38994129566676L89.46356141024063,50.19912891855988L89.70829493734726,51.40234932239474L89.95302846445388,53.53668605318052L90.19776199156051,53.252936248767966L90.44249551866713,52.66907016797451L90.68722904577375,52.19426797866507L90.93196257288038,52.157328612639915L91.176696099987,54.492094926908266L91.42142962709363,53.523341225026726L91.66616315420025,50.859087154380305L91.91089668130687,53.957622160506475L92.1556302084135,52.16538326803625L92.40036373552012,51.27882929910476L92.64509726262675,51.941221381766724L92.88983078973337,54.17338038692692L93.13456431683998,53.14630620412548L93.37929784394662,53.978094026958516L93.62403137105322,54.2797716390491L93.86876489815985,52.794114789663354L94.11349842526647,52.50242054178692L94.35823195237309,51.28853713348781L94.60296547947972,51.75558775021514L94.84769900658634,53.04984321025124L95.09243253369297,52.04024680307036L95.33716606079959,52.66051037455446L95.58189958790621,52.02909702923782L95.82663311501284,55.10368849303988L96.07136664211946,54.51533127599917L96.31610016922609,51.21067240321399L96.56083369633271,53.25337709649776L96.80556722343933,52.961967562780146L97.05030075054596,51.25965242285899L97.29503427765258,53.396147470655166L97.53976780475921,52.730118394222444L97.78450133186583,54.64513337943865L98.02923485897243,51.83836609581054L98.27396838607906,53.2527709308693L98.51870191318568,54.253945309545685L98.76343544029231,52.32685293339881L99.00816896739893,52.04235001411456L99.25290249450555,54.22284717594023L99.49763602161218,52.884020173557005L99.7423695487188,52.47590538770572L99.98710307582543,52.1303266891904L100.23183660293205,52.417768593339915L100.47657013003867,55.29040587526052L100.7213036571453,52.57889843857744L100.96603718425192,51.38401740429774L101.21077071135855,51.89258118224677L101.45550423846517,54.776790717074334L101.70023776557179,52.05053325009874L101.94497129267842,55.08124199613151L102.18970481978504,51.97948329098125L102.43443834689167,53.69355437036343L102.67917187399827,54.5235971709327L102.92390540110489,50.913182844556374L103.16863892821152,53.60757069439936L103.41337245531814,52.59610986869458L103.65810598242477,49.92215714799282L103.90283950953139,54.12294924350472L104.14757303663801,52.94904521370074L104.39230656374464,53.55569761152762L104.63704009085126,52.127966316970486L104.88177361795789,54.552068586814855L105.12650714506451,54.12266452934588L105.37124067217113,52.84159776389261L105.61597419927776,52.87690231958646L105.86070772638438,52.46772215172152L106.10544125349101,53.709939210987216L106.35017478059763,52.139961048951804L106.59490830770424,53.826919992952014L106.83964183481088,54.725138058067486L107.08437536191748,55.8480507004593L107.32910888902411,53.5919665216304L107.57384241613073,53.137966834570335L107.81857594323735,55.61509941257712L108.06330947034398,52.28544998410955L108.3080429974506,51.6240038872011L108.55277652455723,54.53652870433983L108.79751005166385,53.143468246864984L109.04224357877047,51.65931762722268L109.2869771058771,52.936425947435566L109.53171063298372,51.89911123924426L109.77644416009035,55.06878804776498L110.02117768719697,53.36062249109641L110.26591121430359,55.59169774558755L110.51064474141022,53.33798312330626L110.75537826851684,53.41634380727608L111.00011179562347,53.23136226299148L111.24484532273009,55.49585010166946L111.48957884983669,53.952984075016005L111.73431237694332,54.509278804042296L111.97904590404994,56.59686730681513L112.22377943115657,51.197667395185235L112.46851295826319,54.0568128997088L112.71324648536981,54.48083494114327L112.95798001247644,57.14106627625537L113.20271353958306,54.48072472921082L113.44744706668969,54.36349597039802L113.69218059379631,54.329587432515154L113.93691412090293,51.43639562519317L114.18164764800956,53.42469236115895L114.42638117511618,52.846401167281755L114.67111470222281,52.242834703563375L114.91584822932943,53.72210844519492L115.16058175643604,53.19817010266952L115.40531528354268,54.10377236725893L115.65004881064928,50.843473797283636L115.89478233775591,54.08933460410837L116.13951586486253,52.46410352660618L116.38424939196915,56.17508624134041L116.62898291907578,53.07359388169357L116.8737164461824,54.667873774833566L117.11844997328903,52.42822035826697L117.36318350039565,55.95353270413881L117.60791702750227,53.86935158694412L117.8526505546089,54.15417595769803L118.09738408171552,54.883824872135776L118.34211760882215,56.36229039292937L118.58685113592877,53.58132188582155L118.83158466303539,54.971351515154126L119.07631819014202,54.033034675283346L119.32105171724864,51.45848393332109L119.56578524435527,53.11301301619879L119.81051877146189,54.43113854393738L120.05525229856849,53.46688516263073L120.29998582567512,56.935998607282286L120.54471935278174,55.61371257909383L120.78945287988837,51.917479894652104L121.03418640699499,52.173933877128604L121.27891993410161,55.084750409314395L121.52365346120824,52.7792545474384L121.76838698831486,50.846072962023854L122.01312051542149,54.88366873856482L122.25785404252811,55.30170259833635L122.50258756963473,54.86549295403876L122.74732109674136,52.172216407847955L122.99205462384798,51.22450400073609L123.23678815095461,53.65553125366921L123.48152167806123,54.23632976900957L123.72625520516785,54.15758334327617L123.97098873227448,56.07421477016828L124.2157222593811,51.66659161476417L124.46045578648773,53.50189581983808L124.70518931359433,53.54337224374896L124.94992284070095,52.55875720792275L125.19465636780758,50.290604822490906L125.43938989491419,56.16367012200443L125.68412342202082,52.59471385088358L125.92885694912744,52.82325666146788L126.17359047623407,52.54568790960009L126.41832400334069,52.79110233017646L126.6630575304473,54.339772851938804L126.90779105755394,54.340819865297036L127.15252458466055,53.16940478830085L127.39725811176719,52.994636216422975L127.6419916388738,55.03450295244626L127.88672516598042,57.743034666953264L128.13145869308704,55.03352022938195L128.37619222019367,54.03700230485144L128.6209257473003,52.93520443185092L128.8656592744069,53.07367654064291L129.11039280151354,52.85906635518545L129.35512632862017,53.74340690114029L129.59985985572678,52.50535034232446L129.8445933828334,56.122111039144215L130.08932690994004,49.87911938837226L130.33406043704665,56.13127699819272L130.57879396415328,53.9046836956211L130.82352749125988,54.14431198974401L131.0682610183665,55.02383076365432L131.31299454547315,50.607464128276064L131.55772807257975,51.80862724270527L131.80246159968638,51.005742499156455L132.047195126793,52.85047900878229L132.29192865389965,54.355294365758425L132.53666218100625,52.767397580372645L132.78139570811288,52.1066678610251L133.0261292352195,53.16508815428L133.27086276232612,52.40272466456089L133.51559628943275,53.940695444548155L133.76032981653938,58.781111674343975L134.005063343646,53.95688741429018L134.24979687075262,55.59221206793897L134.49453039785925,53.886783440926166L134.73926392496588,53.447515415503176L134.9839974520725,53.28285878842735L135.2287309791791,53.19386265297638L135.47346450628572,54.22089091413929L135.71819803339235,54.59190101606674L135.962931560499,53.729501828996575L136.2076650876056,55.76981859707733L136.45239861471222,53.81250059845688L136.69713214181886,53.525527095020266L136.94186566892546,54.4516195947171L137.1865991960321,54.72446760214511L137.43133272313872,55.280541907306514L137.67606625024533,57.86873137590908L137.92079977735196,54.24825102636926L138.1655333044586,52.32919493696332L138.41026683156522,56.19778989942449L138.65500035867183,53.19504743125019L138.89973388577846,54.20365193103903L139.1444674128851,52.44860038144196L139.3892009399917,54.318860137756985L139.63393446709833,53.43799126767421L139.87866799420493,53.10191834833245L140.12340152131156,53.157208001110035L140.3681350484182,53.96327970637209L140.6128685755248,52.8734765653529L140.85760210263143,55.0990504075494L141.10233562973804,55.014664804605786L141.3470691568447,53.26500445537093L141.5918026839513,52.47783409652354L141.83653621105793,54.91302184990654L142.08126973816454,52.822613758528604L142.32600326527117,56.395978506947344L142.5707367923778,54.53680423417096L142.81547031948443,54.18588025693195L143.06020384659104,55.19737781994753L143.30493737369767,57.23715271269377L143.54967090080427,54.60992066702184L143.79440442791093,54.11233216067899L144.03913795501754,55.66917673409779L144.28387148212414,55.437006114070456L144.52860500923077,55.031527230270186L144.77333853633738,56.05680128484164L145.01807206344404,51.8401386710574L145.26280559055064,54.065565564010626L145.50753911765727,54.63159568040308L145.75227264476388,53.821620635866864L145.9970061718705,52.38521933595723L146.24173969897714,52.43056236183146L146.48647322608377,55.88802089462675L146.73120675319038,55.28889046118937L146.975940280297,53.75170034905695L147.2206738074036,53.05821931711722L147.46540733451027,55.77770793457499L147.71014086161688,53.336926925620304L147.9548743887235,53.26482076881685L148.19960791583011,56.714371595459056L148.44434144293672,55.34221466783832L148.68907497004338,54.72928018986197L148.93380849714998,54.07409780444756L149.17854202425661,53.886801809581556L149.42327555136322,53.963380733976834L149.66800907846985,58.34559085462419L149.91274260557648,54.027037309292695L150.15747613268312,54.97167296662376L150.40220965978972,53.39131651428289L150.64694318689635,54.72227254782386L150.89167671400295,54.77532122464169L151.13641024110962,54.502730378389415L151.38114376821622,57.38714196842645L151.62587729532285,56.85812469268079L151.87061082242946,53.1383342076785L152.1153443495361,51.03077897647735L152.36007787664272,53.744362071221516L152.60481140374935,52.38883796107257L152.84954493085596,54.30925333097868L153.09427845796256,54.27109244936891L153.3390119850692,51.746210551629446L153.58374551217582,53.15767640182294L153.82847903928246,54.53508676489032L154.07321256638906,54.85821896649726L154.3179460934957,55.16902580032554L154.5626796206023,55.99989519038819L154.80741314770896,54.803223212206206L155.05214667481556,54.75740260129136L155.2968802019222,54.69108257094135L155.5416137290288,58.019023714456L155.78634725613543,52.384594801673344L156.03108078324206,55.6663571454927L156.2758143103487,54.6789868113553L156.5205478374553,54.712133050038744L156.76528136456193,54.654694264578424L157.01001489166853,56.880865088075666L157.2547484187752,55.702286235470424L157.4994819458818,52.2260273838652L157.7442154729884,54.91705376976856L157.98894900009503,54.013426135635484L158.23368252720164,53.00668605437052L158.4784160543083,52.53926806453504L158.7231495814149,54.929893459898636L158.96788310852153,55.257636194012946L159.21261663562814,55.610507248725185L159.45735016273477,55.73475283390377L159.7020836898414,55.34937844344738L159.94681721694803,55.894596873262756L160.19155074405464,54.74797948106712L160.43628427116127,54.51321888062729L160.68101779826787,52.7133386275074L160.92575132537453,51.49766427530601L161.17048485248114,54.84548948829962L161.41521837958777,53.016559206652246L161.65995190669437,55.91673110302919L161.90468543380098,54.992705077065736L162.14941896090764,55.66323447407338L162.39415248801424,55.50337206605896L162.63888601512087,55.28024800881998L162.88361954222748,53.84603257890389L163.1283530693341,54.28962642267541L163.37308659644074,55.02493288297879L163.61782012354738,54.80571216501396L163.86255365065398,51.26969089303935L164.1072871777606,58.02199025230436L164.35202070486721,54.581412513828866L164.59675423197388,57.33739046525433L164.84148775908048,54.65306863857484L165.0862212861871,53.88386282471633L165.33095481329372,55.44278305619622L165.57568834040035,54.63565515324822L165.82042186750698,53.7342501264195L166.0651553946136,55.28092764907008L166.30988892172022,54.78848236624141L166.55462244882682,54.763161174761706L166.79935597593345,53.76457677649783L167.04408950304008,54.81647619708295L167.28882303014672,52.58327936289221L167.53355655725332,55.60180969038956L167.77829008435995,53.900431351894184L168.02302361146656,52.43924155151167L168.26775713857322,54.331690643559355L168.51249066567982,52.82083199895406L168.75722419278645,55.14888456967084L169.00195771989306,55.61760673404031L169.2466912469997,54.735938827447285L169.49142477410632,56.88856155469156L169.73615830121295,53.69679643804291L169.98089182831956,56.53881317139866L170.22562535542616,55.125170635539334L170.4703588825328,54.70546522812569L170.71509240963945,54.521438853922305L170.95982593674606,54.64129433045842L171.20455946385266,56.9788986019873L171.4492929909593,54.314460844786794L171.6940265180659,53.609453481578655L171.93876004517256,54.546392672293834L172.18349357227916,54.46090495002578L172.4282270993858,53.3101821633465L172.6729606264924,56.77593414405841L172.91769415359903,55.185263691706055L173.16242768070566,53.879987038425256L173.4071612078123,54.34666109771675L173.6518947349189,53.9818044953509L173.89662826202553,55.869238944472244L174.14136178913213,51.363931279609275L174.3860953162388,56.01796076298179L174.6308288433454,54.02719344286366L174.875562370452,52.586815329058226L175.12029589755863,52.87257650123793L175.36502942466524,55.00273436291842L175.6097629517719,54.43742062408684L175.8544964788785,54.28598024457695L176.09923000598513,53.73807080674432L176.34396353309174,54.49699935790217L176.58869706019837,54.447661149476716L176.833430587305,55.34056148885162L177.07816411441163,56.69949298457871L177.32289764151824,54.30950130782669L177.56763116862487,53.7452988726473L177.81236469573147,53.72413818161748L178.05709822283814,52.84136815570001L178.30183174994474,55.03043429527342L178.54656527705137,55.73229143407913L178.79129880415798,55.47715081046428L179.03603233126458,55.57094116497669L179.28076585837124,55.2865851949357L179.52549938547784,53.39763533174319L179.77023291258448,55.47210861455484L180.01496643969108,56.81708911649967L180.2596999667977,55.4080387444923L180.50443349390434,54.58717108729924L180.74916702101098,52.714707092335274L180.99390054811758,56.44765871893729L181.2386340752242,56.75183446816334L181.48336760233082,53.8892264720954L181.72810112943748,54.40895839253241L181.97283465654408,52.54664307968129L182.2175681836507,54.1201296548996L182.46230171075732,54.93292428804092L182.70703523786395,54.05447089614431L182.95176876497058,54.193953280983706L183.1965022920772,52.91489788329757L183.44123581918382,56.48710540642561L183.68596934629042,53.44657861407737L183.93070287339705,54.83815121046419L184.17543640050368,53.834249086459764L184.42016992761032,56.65220288123123L184.66490345471692,55.9270451030407L184.90963698182355,52.20644639720045L185.15437050893016,54.50760725640019L185.39910403603682,55.813940107366946L185.64383756314342,52.59987544305319L185.88857109025005,55.53701425843843L186.13330461735666,57.51836764266004L186.3780381444633,52.26558428328599L186.62277167156992,56.10047276307377L186.86750519867655,55.99394374603604L187.11223872578316,54.60228849069989L187.3569722528898,54.71081969117708L187.6017057799964,54.450251129889224L187.84643930710305,54.57391810242247L188.09117283420966,52.82878562674563L188.33590636131626,54.66667062790434L188.5806398884229,54.81100233777141L188.8253734155295,57.00705775072751L189.07010694263616,57.590354403203335L189.31484046974276,53.380984145616L189.5595739968494,55.26594801058499L189.804307523956,52.67883310832377L190.04904105106263,55.168419634697074L190.29377457816926,55.92141511015819L190.5385081052759,54.86044157380161L190.7832416323825,52.82018909601476L191.02797515948913,54.51717732586768L191.27270868659573,55.827367594470076L191.5174422137024,53.86272050234189L191.762175740809,54.95763012956448L192.00690926791563,53.260687821350075L192.25164279502224,56.20862740611511L192.49637632212884,54.73119971435207L192.7411098492355,56.73679053938433L192.9858433763421,54.999519848222036L193.23057690344874,54.250629767244575L193.47531043055534,53.535271666714124L193.72004395766197,54.89761054801937L193.9647774847686,56.36650599934546L194.20951101187524,53.729915123743254L194.45424453898184,54.72339303580374L194.69897806608847,57.74976677916024L194.94371159319508,53.77335699378277L195.18844512030174,55.0557003807869L195.43317864740834,53.73157748705765L195.67791217451497,56.46042493444574L195.92264570162158,54.78290747932513L196.1673792287282,52.29098813371502L196.41211275583484,56.8138654174756L196.65684628294147,53.59036844860991L196.90157981004808,53.9696260768155L197.14631333715468,54.926614654908335L197.3910468642613,57.965956668982756L197.63578039136794,55.088470062034474L197.88051391847458,55.373551593964095L198.12524744558118,53.19705879901734L198.3699809726878,57.637166921510214L198.61471449979442,55.66283036365439L198.85944802690108,52.40767501719331L199.10418155400768,55.508561211211685L199.3489150811143,55.849501824236526L199.59364860822092,55.68432169048157L199.83838213532755,56.31057344362861L200.08311566243418,56.86271685653273L200.3278491895408,58.66066840083481L200.57258271664742,53.36698723019522L200.81731624375405,53.118257267317716L201.06204977086065,52.542216233728L201.3067832979673,55.218841593791595L201.55151682507392,57.64068451902081L201.79625035218052,58.85461384895844L202.04098387928715,57.32557941982708L202.28571740639376,53.767772922538796L202.53045093350042,56.164625292085645L202.77518446060702,52.11925957430718L203.01991798771365,55.59626235645638L203.26465151482026,55.639924650360825L203.5093850419269,53.99790462181588L203.75411856903352,57.54207239246382L203.99885209614015,53.45104219734149L204.24358562324676,53.398517027202786L204.4883191503534,53.3120557661981L204.73305267746,54.588833450613635L204.97778620456666,55.587959724212055L205.22251973167326,53.65602720736523L205.4672532587799,55.86230477705577L205.7119867858865,54.01117597534804L205.9567203129931,52.14096214067152L206.20145384009976,57.22895110805416L206.44618736720636,52.15390285840634L206.690920894313,54.11145046521939L206.9356544214196,56.621692544598815L207.18038794852623,58.331437805632476L207.42512147563286,53.4398005802319L207.6698550027395,55.38771382728352L207.9145885298461,55.97453726159766L208.15932205695273,53.98448631904044L208.40405558405934,55.895956153762924L208.648789111166,55.37581093857925L208.8935226382726,50.57073600178809L209.13825616537923,54.59302150404663L209.38298969248584,55.51912318807118L209.62772321959247,52.88118221629648L209.8724567466991,55.47715081046428L210.11719027380573,54.20457036380944L210.36192380091234,55.97755890541225L210.60665732801894,53.12100338130119L210.85139085512557,53.67640723054022L211.0961243822322,54.25081345379864L211.34085790933884,53.39679037359444L211.58559143644544,56.58805953654708L211.83032496355207,56.781169210849654L212.07505849065868,56.10512921721967L212.31979201776534,58.215559142992134L212.56452554487194,55.86429777616753L212.80925907197857,56.75145791072747L213.05399259908518,53.62063080839431L213.2987261261918,52.51354276263636L213.54345965329844,53.31594992114455L213.78819318040507,54.49504309610123L214.03292670751168,53.209641327971696L214.2776602346183,55.44427091728424L214.5223937617249,55.88407163371407L214.76712728883157,55.422816327767904L215.01186081593818,54.52079595098303L215.25659434304478,56.273744289535884L215.5013278701514,54.23224274318132L215.74606139725802,55.400608623379824L215.99079492436468,54.060367234530204L216.23552845147128,54.82371344731364L216.48026197857791,54.896581903316516L216.72499550568452,55.247211982069004L216.96972903279115,57.26330967799453L217.21446255989778,55.47626911500471L217.45919608700441,54.870553518603614L217.70392961411102,56.98155287269374L217.94866314121765,56.62524687942023L218.19339666832425,57.34545430497836L218.43813019543092,53.84728164747162L218.68286372253752,54.16804429253095L218.92759724964412,55.709027532005095L219.17233077675075,55.336786730165315L219.41706430385736,55.08398811011496L219.66179783096402,56.670929725419526L219.90653135807062,54.6501296537096L220.15126488517726,56.76716311110117L220.39599841228386,56.43015339033363L220.6407319393905,54.24548654373038L220.88546546649712,55.64485663433783L221.13019899360376,57.56032165161152L221.37493252071036,55.83646007889695L221.619666047817,52.903242971441315L221.8643995749236,55.74353305118872L222.10913310203026,54.72457781407755L222.35386662913686,55.46880225658143L222.5986001562435,56.74383491873323L222.8433336833501,55.96726327405615L223.0880672104567,55.74862116873669L223.33280073756336,57.415806255190375L223.57753426466996,53.66693818867748L223.8222677917766,56.54704232902138L224.0670013188832,57.581096600877785L224.31173484598983,53.8856996902571L224.55646837309646,54.15981513490823L224.8012019002031,56.25901262789881L225.0459354273097,57.673261329386605L225.29066895441633,54.562180531616875L225.53540248152294,53.739347428295176L225.7801360086296,54.878810229209435L226.0248695357362,55.32498486906577L226.26960306284283,54.04815207868401L226.51433658994944,55.92157124372916L226.75907011705607,55.626230817754276L227.0038036441627,52.549646354840476L227.24853717126933,54.87970110899673L227.49327069837594,56.41620239655137L227.73800422548254,56.3581298924795L227.98273775258917,56.22515001165446L228.2274712796958,56.546509638014555L228.47220480680244,52.829988773674856L228.71693833390904,54.96093648753788L228.96167186101567,56.26025251213885L229.20640538812228,54.66145392976853L229.45113891522894,53.34460502358078L229.69587244233554,56.59659177698403L229.94060596944217,55.45936995202949L230.18533949654878,54.71280350596113L230.4300730236554,53.395045351330694L230.67480655076204,56.88686245406633L230.91954007786867,52.8253782411675L231.16427360497528,55.29339078176429L231.4090071320819,57.044557360742616L231.65374065918851,54.77941743479764L231.89847418629518,53.46805157224915L232.14320771340178,57.32109746790756L232.38794124050838,52.75174748596518L232.63267476761501,53.15819990850207L232.87740829472162,53.14839104651428" style="fill: none;" fill="none"></path></g><g><path stroke="rgb(0, 153, 136)" stroke-width="2px" d="M35.622185446783604,-89.41322334217875L38.069520717849834,19.404969007110566L40.51685598891606,39.08868237723178L42.96419125998229,23.027084166981723L45.41152653104852,67.56374443747558L47.85886180211475,67.52587745435234L50.30619707318098,71.11544335684079L52.75353234424721,67.22156394021071L55.200867615313435,84.57755537541246L57.648202886379664,85.30283254986314L60.095538157445894,83.14831785111187L62.542873428512124,88.67647490803247L64.99020869957835,95.07934274331036L67.43754397064458,99.97255508091216L69.8848792417108,88.99662679529949L72.33221451277703,100.60997497654718L74.77954978384327,88.99047329573787L77.22688505490949,88.3479744668826L79.67422032597572,96.4135408445308L82.12155559704195,96.10661438915743L84.56889086810818,99.60922307694517L87.0162261391744,102.58842152105049L89.46356141024063,95.93983618238198L91.91089668130687,104.491143283635L94.35823195237309,104.14275418084229L96.80556722343933,101.122019614696L99.25290249450555,104.37945726659152L101.70023776557179,105.39475254911267L104.14757303663801,105.45526808435378L106.59490830770424,101.18698036454582L109.04224357877047,103.81853363640244L111.48957884983669,103.22439029290828L113.93691412090293,104.8174624469552L116.38424939196915,100.06258445322982L118.83158466303539,99.87906321705013L121.27891993410161,108.01280945140839L123.72625520516785,101.79593802862638L126.17359047623407,94.33253291255784L128.6209257473003,99.32887147378308L131.0682610183665,105.43485132386797L133.51559628943275,91.33126912114385L135.962931560499,98.26592330697015L138.41026683156522,105.64795987174584L140.85760210263143,102.1968431172301L143.30493737369767,102.70756521218956L145.75227264476388,105.86915522016699L148.19960791583011,100.46923893097619L150.64694318689635,108.30541753989135L153.09427845796256,105.68770504988453L155.5416137290288,105.18143735386147L157.98894900009503,89.89148798863917L158.4784160543083,107.18737259118261L158.96788310852153,106.47580761799388L159.45735016273477,101.28480263892024L159.94681721694803,100.48882910196865L160.43628427116127,103.82201908876607L160.92575132537453,98.46887398840747L161.41521837958777,107.02353336927243L161.90468543380098,101.05000989333344L162.39415248801424,100.99015103752315L162.88361954222748,101.97445380620744L163.37308659644074,103.45853554339197L163.86255365065398,102.50686009887585L164.35202070486721,107.97855190907276L164.84148775908048,104.64056770321389L165.33095481329372,100.19609243289783L165.82042186750698,102.35956644332427L166.30988892172022,94.91094350269518L166.79935597593345,108.03657389934226L167.28882303014672,107.64361325420244L167.77829008435995,103.89821686356161L168.26775713857322,105.88936533327946L168.75722419278645,98.35693081018827L169.2466912469997,109.26393530854688L169.73615830121295,108.01347990733076L170.22562535542616,105.9566451258745L170.71509240963945,105.08681122552801L171.20455946385266,103.49351864761618L171.6940265180659,104.27000763334392L172.18349357227916,95.1015734085177L172.6729606264924,101.42324260256525L173.16242768070566,99.26532051823582L173.6518947349189,110.25322057501054L174.14136178913213,101.33535777076645L174.6308288433454,103.96413278349264L175.12029589755863,96.81272846385389L175.6097629517719,107.31479595374677L176.09923000598513,107.43397638219666L176.58869706019837,105.19984274658012L177.07816411441163,101.93662356039499L177.56763116862487,100.2550053029546L178.05709822283814,110.68262463247952L178.54656527705137,109.66683339626235L179.03603233126458,101.74300415590486L179.52549938547784,108.11053988250578L180.01496643969108,98.38162287522024L180.50443349390434,96.08031506677726L180.99390054811758,105.3396328063976L181.48336760233082,103.60454798522885L181.97283465654408,102.21846761680898L182.46230171075732,98.47691486731225L182.95176876497058,102.15377321246258L183.44123581918382,102.24268209680035L183.93070287339705,103.70702212158531L184.42016992761032,106.11856482329458L184.90963698182355,100.1085060917494L185.39910403603682,104.11676712560406L185.88857109025005,106.36432824832372L186.3780381444633,107.6008785773961L186.86750519867655,103.10869072465817L187.3569722528898,105.56877259828265L187.84643930710305,94.49389236598797L188.33590636131626,105.95057887742608L188.8253734155295,107.41983710969647L189.31484046974276,103.95472343975997L189.804307523956,96.43460050795589L190.29377457816926,107.74845235494266L190.7832416323825,91.43215896097139L191.27270868659573,104.58426318222503L191.762175740809,109.7631815860403L192.25164279502224,108.59299720895642L192.7411098492355,97.28974866830383L193.23057690344874,104.62544570764939L193.72004395766197,102.54319329927255L194.20951101187524,108.06071949687588L194.69897806608847,106.69282409730975L195.18844512030174,112.1142041603446L195.67791217451497,104.76792677548413L196.1673792287282,108.8397800943607L196.65684628294147,96.94074880771879L197.14631333715468,103.19450908272358L197.63578039136794,108.38116069046556L198.12524744558118,108.81344862683358L198.61471449979442,106.72066638674417L199.10418155400768,111.69238176539521L199.59364860822092,106.94185255083762L200.08311566243418,92.36930479905992L200.57258271664742,109.56574609338918L201.06204977086065,98.60368614260943L201.55151682507392,108.9104580882062L202.04098387928715,107.01208051262563L202.53045093350042,105.28930728274398L203.01991798771365,105.29734816164876L203.5093850419269,102.83744079025067L203.99885209614015,105.84002253269016L204.4883191503534,106.95782409671475L204.97778620456666,107.67335210730772L205.4672532587799,112.44335668876147L205.9567203129931,106.82241955337588L206.44618736720636,108.38533037524314L206.9356544214196,110.2845207638255L207.42512147563286,97.06642714801922L207.9145885298461,105.80278926817847L208.40405558405934,107.17836276570507L208.8935226382726,100.94357271957273L209.38298969248584,107.59726913660846L209.8724567466991,111.91571706217138L210.36192380091234,113.05084486040941L210.85139085512557,109.28121102895796L211.34085790933884,107.26945292787254L211.83032496355207,112.45963590961667L212.31979201776534,110.89507650092655L212.80925907197857,104.11491189140786L213.2987261261918,108.36736123809042L213.78819318040507,105.42824779224885L214.2776602346183,111.213198651771L214.76712728883157,109.81037984611073L215.25659434304478,107.26012165092534L215.74606139725802,105.16859766373139L216.23552845147128,103.58116927905853L216.72499550568452,108.00495685122154L217.21446255989778,107.80017389640727L217.70392961411102,98.86343729873164L218.19339666832425,108.31464319706994L218.68286372253752,113.36471007536309L219.17233077675075,109.33622055974057L219.66179783096402,110.0652311634029L220.15126488517726,101.08155346683253L220.6407319393905,103.75591948228097L221.13019899360376,108.39685670651156L221.619666047817,110.49295448890206L222.10913310203026,110.018450790243L222.5986001562435,107.06470671036908L223.0880672104567,103.69888480723965L223.57753426466996,103.19063788859638L224.0670013188832,105.81506412215477L224.55646837309646,103.06450951623847L225.0459354273097,100.21860322010012L225.53540248152294,103.2069722154178L226.0248695357362,93.39454211632055L226.51433658994944,107.27117958148087L227.0038036441627,107.17173627326669L227.49327069837594,107.52557627455168L227.98273775258917,113.26125321594232L228.47220480680244,102.64359177756792L228.96167186101567,106.44224808456376L229.45113891522894,105.44502296680007L229.94060596944217,107.31762931884343L230.4300730236554,102.73892509913459L230.91954007786867,105.86386504740953L231.4090071320819,110.33815264545252L231.89847418629518,114.13322247247999L232.38794124050838,107.75693408157723L232.87740829472162,103.27170335707501" style="fill: none;" fill="none"></path></g><g><path stroke="rgb(0, 119, 187)" stroke-width="2px" d="M35.622185446783604,-212.7544645090856L38.069520717849834,18.06053038050024L40.51685598891606,43.99061523398845L42.96419125998229,54.23632976900957L45.41152653104852,64.91717938198693L47.85886180211475,78.72832340629058L50.30619707318098,84.5452908321886L52.75353234424721,90.99485638167705L55.200867615313435,89.35676265322552L57.648202886379664,96.75222211294049L60.095538157445894,100.17861465727727L62.542873428512124,102.84186763620396L64.99020869957835,103.04187474061217L67.43754397064458,104.8704376491514L69.8848792417108,102.46001084325816L72.33221451277703,106.08269083928307L74.77954978384327,106.61877086303306L77.22688505490949,106.1234003718307L79.67422032597572,107.75714072895056L82.12155559704195,108.52088645998911L84.56889086810818,106.11650294172505L87.0162261391744,109.22858942337835L89.46356141024063,106.89984802808377L91.91089668130687,108.72967837384613L94.35823195237309,107.82171114487296L96.80556722343933,110.47054932146835L99.25290249450555,110.66061439113709L101.70023776557179,110.0432760280267L104.14757303663801,111.57021643044155L106.59490830770424,109.64296332855987L109.04224357877047,110.81058987037821L111.48957884983669,110.05458652759405L113.93691412090293,110.57953514616689L116.38424939196915,110.10475591767671L118.83158466303539,112.86572095904539L121.27891993410161,109.20329119271793L123.72625520516785,111.28952959931827L126.17359047623407,111.11284609511415L128.6209257473003,110.5930131470724L131.0682610183665,110.75050599853918L133.51559628943275,111.29631681749146L135.962931560499,112.53317482154192L138.41026683156522,111.49457430747208L140.85760210263143,111.47963140629781L143.30493737369767,111.85807162933774L145.75227264476388,111.7214134252673L148.19960791583011,112.63183746190127L150.64694318689635,111.27555564471675L153.09427845796256,110.95025134960783L155.5416137290288,114.06120356678971L157.98894900009503,112.18618173656021L158.4784160543083,110.74833849720105L158.96788310852153,113.76874242755L159.45735016273477,112.37973225859257L159.94681721694803,114.02373150975771L160.43628427116127,110.68540289160995L160.92575132537453,111.46149695124642L161.41521837958777,111.94544673094897L161.90468543380098,109.55886703193895L162.39415248801424,111.59745714641137L162.88361954222748,113.02135857631598L163.37308659644074,111.00443429089711L163.86255365065398,112.57156531134432L164.35202070486721,112.99098600459912L164.84148775908048,111.2044230266499L165.33095481329372,111.27314935085832L165.82042186750698,113.08977263338247L166.30988892172022,112.76086808181361L166.79935597593345,111.19250176929022L167.28882303014672,112.29287607149662L167.77829008435995,113.79907826195604L168.26775713857322,113.54703734894127L168.75722419278645,111.45707010529313L169.2466912469997,112.86359937934579L169.73615830121295,111.55976925767834L170.22562535542616,112.63638829627855L170.71509240963945,112.7111533159523L171.20455946385266,112.56851152238276L171.6940265180659,112.71073083687793L172.18349357227916,111.05660586441921L172.6729606264924,112.58492391598965L173.16242768070566,112.44338883390843L173.6518947349189,111.38582268312999L174.14136178913213,111.40511436347208L174.6308288433454,112.7177017416052L175.12029589755863,108.6535081520337L175.6097629517719,112.40279869762097L176.09923000598513,112.47831224000258L176.58869706019837,112.58887317690234L177.07816411441163,112.42552990868816L177.56763116862487,111.2993246848145L178.05709822283814,112.46385610819661L178.54656527705137,112.57117956958075L179.03603233126458,113.00146073034544L179.52549938547784,113.80210909009833L180.01496643969108,110.74780121403037L180.50443349390434,113.96233427905703L180.99390054811758,111.96325973453071L181.48336760233082,112.48936557839424L181.97283465654408,114.14580500143435L182.46230171075732,113.58926688772388L182.95176876497058,114.32362277010989L183.44123581918382,114.37892619937904L183.93070287339705,114.93722770400865L184.42016992761032,114.1801635713747L184.90963698182355,114.00031147411273L185.39910403603682,112.40225223012258L185.88857109025005,113.86852555588922L186.3780381444633,111.85447596504166L186.86750519867655,114.42178945677323L187.3569722528898,113.10389353722724L187.84643930710305,112.16965453885702L188.33590636131626,113.73880611139907L188.8253734155295,114.11913830594602L189.31484046974276,113.56763320381731L189.804307523956,113.34255747694125L190.29377457816926,112.12402679882395L190.7832416323825,114.44573299909734L191.27270868659573,112.39413787659616L191.762175740809,114.42156903290834L192.25164279502224,114.11291133176276L192.7411098492355,113.68023306146735L193.23057690344874,115.08118285643987L193.72004395766197,112.96836959762823L194.20951101187524,114.57406101794032L194.69897806608847,113.55077996248062L195.18844512030174,113.3621200949506L195.67791217451497,112.6526537406422L196.1673792287282,113.77875793691112L196.65684628294147,113.75629307134734L197.14631333715468,114.15327185985763L197.63578039136794,113.76601009005807L198.12524744558118,112.91995900630087L198.61471449979442,113.47883912357582L199.10418155400768,112.69629766589121L199.59364860822092,113.35768865683346L200.08311566243418,114.44722545234922L200.57258271664742,111.82483354737727L201.06204977086065,114.0018728098224L201.55151682507392,113.07189074734293L202.04098387928715,114.72348543751923L202.53045093350042,111.5914414117653L203.01991798771365,113.28096278319492L203.5093850419269,113.64832670702393L203.99885209614015,114.00823754892122L204.4883191503534,114.95302474765938L204.97778620456666,113.38564575036418L205.4672532587799,113.76738773921367L205.9567203129931,113.1316072460738L206.44618736720636,112.60482635412404L206.9356544214196,113.03261856208098L207.42512147563286,113.7367488219934L207.9145885298461,114.15370811542357L208.40405558405934,114.94208162120017L208.8935226382726,112.5284173397913L209.38298969248584,114.57871287992236L209.8724567466991,113.69997018170307L210.36192380091234,113.66806841942349L210.85139085512557,114.12767054638297L211.34085790933884,114.70924972957815L211.83032496355207,116.3317989833908L212.31979201776534,114.77308999144807L212.80925907197857,115.58474117579027L213.2987261261918,114.10179370307716L213.78819318040507,112.67995415474209L214.2776602346183,112.55650301390989L214.76712728883157,114.96627773253614L215.25659434304478,115.09323728655124L215.74606139725802,114.88805022131803L216.23552845147128,115.54915190593758L216.72499550568452,114.16478441463448L217.21446255989778,113.94844298340486L217.70392961411102,113.450978465486L218.19339666832425,114.84718455519945L218.68286372253752,115.30472480058937L219.17233077675075,114.5718567792914L219.66179783096402,112.74434547627426L220.15126488517726,115.92380818596351L220.6407319393905,115.21483319318727L221.13019899360376,114.13941270935243L221.619666047817,113.98525376884217L222.10913310203026,114.19964812259856L222.5986001562435,115.20006479423938L223.0880672104567,113.9378672300538L223.57753426466996,114.42213846122598L224.0670013188832,113.88648091655037L224.55646837309646,114.73166867350342L225.0459354273097,114.06664987311814L225.53540248152294,115.81531831496098L226.0248695357362,114.75304060407043L226.51433658994944,114.6291991293108L227.0038036441627,115.32615183712261L227.49327069837594,113.54373099096787L227.98273775258917,116.07748494926932L228.47220480680244,115.88325478698687L228.96167186101567,114.51666815411855L229.45113891522894,112.77999903642088L229.94060596944217,113.53052851989348L230.4300730236554,115.87943410666203L230.91954007786867,114.73594857021344L231.4090071320819,115.60443696655133L231.89847418629518,114.94790448496445L232.38794124050838,117.40527238975241L232.87740829472162,114.97908527751926" style="fill: none;" fill="none"></path></g><g><path stroke="rgb(238, 51, 119)" stroke-width="2px" d="M37.09058660942335,-1.8195898375692252L37.58005366363658,13.295150108045448L38.069520717849834,17.941767838960885L38.558987772063084,28.62039484463392L39.04845482627633,32.98400670168084L39.53792188048958,35.83538226496688L40.02738893470281,34.28328598897099L40.51685598891606,46.5478627025565L41.00632304312931,46.58626237668662L41.49579009734256,50.151094884668396L41.9852571515558,55.42799628859291L42.47472420576904,60.39838912405459L42.96419125998229,56.083895051568206L43.45365831419554,66.08918225595617L43.943125368408786,65.75448698576999L44.43259242262203,69.34818583572519L44.92205947683527,64.7612478662298L45.41152653104852,67.65042612234517L45.90099358526177,72.62936038257149L46.39046063947501,79.91537020903885L46.87992769368826,75.4382584302269L47.3693947479015,80.2608019583109L47.85886180211475,81.45317567112745L48.348328856328,80.65150325883558L48.83779591054124,79.93487772108197L49.32726296475449,85.63236163571587L49.81673001896773,86.91332278140054L50.30619707318098,88.14447272578302L50.795664127394225,89.34050639318959L51.28513118160747,88.61192286076549L51.77459823582072,90.07422855696403L52.26406529003396,90.83114114819087L52.75353234424721,93.54294707552431L53.242999398460455,93.91323161556316L53.7324664526737,94.66234671256937L54.22193350688695,95.59492793978905L54.71140056110019,93.14682242949048L55.200867615313435,91.38430861363399L55.690334669526685,96.81631494382228L56.17980172373993,95.01908436924495L56.66926877795318,96.1882492859537L57.15873583216642,99.07875926958613L57.648202886379664,99.81600821519888L58.137669940592914,96.69212905677374L58.62713699480616,97.94539486226726L59.11660404901941,92.7768180114466L59.606071103232644,96.27612493342478L60.095538157445894,101.19019028707834L60.585005211659144,104.69378629009425L61.07447226587239,98.39357168556305L61.56393932008564,102.10701120795808L62.05340637429887,106.49621978631583L62.542873428512124,104.40224358362494L63.032340482725374,105.1215004312657L63.52180753693862,102.92911415722732L64.01127459115186,101.3587640299199L64.50074164536511,103.50332291744013L64.99020869957835,104.270191319898L65.4796757537916,106.91131006905826L65.96914280800485,107.42197246588763L66.4586098622181,104.23504748993896L66.94807691643133,106.70979673490659L67.43754397064458,107.10985227319769L67.92701102485783,108.82082823414366L68.41647807907107,106.70084201539527L68.90594513328432,107.41276976952831L69.39541218749756,103.58971988815088L69.8848792417108,102.99624240841526L70.37434629592406,106.98999220449771L70.8638133501373,104.85232156275542L71.35328040435056,107.89519954299585L71.84274745856379,108.58463028641816L72.33221451277703,107.49292139740041L72.82168156699028,106.12700981261834L73.31114862120353,108.06603722261643L73.80061567541678,107.79628433362466L74.29008272963003,107.5616798667558L74.77954978384327,107.99992383963978L75.26901683805652,107.0424714529979L75.75848389226977,110.28066334618985L76.247950946483,108.00922756360386L76.73741800069625,107.47829076336807L77.22688505490949,108.68240204699022L77.71635210912274,106.09745005390327L78.20581916333599,107.78031278774755L78.69528621754924,109.67571923331589L79.18475327176249,107.64322292027502L79.67422032597572,110.0789295881733L80.16368738018897,109.14141178481277L80.65315443440221,107.12919905950599L81.14262148861546,104.00738178265038L81.63208854282871,109.15935336898238L82.12155559704195,111.09800881370846L82.6110226512552,110.40438083252548L83.10048970546845,108.03987566515183L83.5899567596817,106.24703060705313L84.07942381389495,109.22314311704994L84.56889086810818,106.85384373061484L85.05835792232142,109.63487193585271L85.54782497653467,110.77278717754888L86.03729203074792,111.2406046856395L86.52675908496117,108.57154721160393L87.0162261391744,110.48797658328654L87.50569319338766,110.75851014013314L87.99516024760091,111.40024207762514L88.48462730181416,108.6437865411591L88.97409435602741,110.03395393540721L89.46356141024063,109.05012875176352L89.95302846445388,109.02339317381742L90.44249551866713,108.74325281019252L90.93196257288038,110.61976250151005L91.42142962709363,107.00876497032452L91.91089668130687,109.30213292746748L92.40036373552012,110.07876886243848L92.88983078973337,108.63903365157232L93.37929784394662,110.7466899103782L93.86876489815985,108.64999055452309L94.35823195237309,109.47506004164069L94.84769900658634,112.62546353847475L95.33716606079959,113.72910746134374L95.82663311501284,111.80059151440277L96.31610016922609,110.18504071830051L96.80556722343933,111.99410989128818L97.29503427765258,111.02508984390322L97.78450133186583,113.32447353569222L98.27396838607906,110.64295752112629L98.76343544029231,111.83483528024684L99.25290249450555,112.95592942575327L99.7423695487188,111.24487539802182L100.23183660293205,110.83695348305231L100.7213036571453,110.46564489047447L101.21077071135855,110.0406079808287L101.70023776557179,111.56718560229926L102.18970481978504,111.64292416070963L102.67917187399827,107.9256318128428L103.16863892821152,111.79948480291445L103.65810598242477,112.06627115405786L104.14757303663801,113.70484705971384L104.63704009085126,107.07265115383298L105.12650714506451,111.53983008223314L105.61597419927776,114.03383427023203L106.10544125349101,110.83507528803685L106.59490830770424,110.2671991217759L107.08437536191748,114.99350926417827L107.57384241613073,111.46574470280949L108.06330947034398,112.70443038807304L108.55277652455723,110.59877172054276L109.04224357877047,112.19831423345708L109.53171063298372,111.81257706205639L110.02117768719697,111.07605367833224L110.51064474141022,112.95517631088154L111.00011179562347,109.1570848400395L111.48957884983669,112.20874762972873L111.97904590404994,111.91986378612971L112.46851295826319,111.29964154412028L112.95798001247644,110.8235811019154L113.44744706668969,113.58241078709291L113.93691412090293,111.68725691053643L114.42638117511618,111.28189742299631L114.91584822932943,111.88397143346279L115.40531528354268,112.88919610065659L115.89478233775591,112.75659736943129L116.38424939196915,111.00327247344255L116.8737164461824,111.9275005546155L117.36318350039565,106.92010406283475L117.8526505546089,113.8006120446826L118.34211760882215,111.72049499249691L118.83158466303539,115.10377630259151L119.32105171724864,113.93577779550115L119.81051877146189,111.60524086414044L120.29998582567512,112.7837140969771L120.78945287988837,111.12712313252989L121.27891993410161,109.68382899467845L121.76838698831486,113.24836301200986L122.25785404252811,113.12109119085282L122.74732109674136,113.59546630892403L123.23678815095461,110.20633458208205L123.72625520516785,112.82149382898717L124.2157222593811,108.94975323428741L124.70518931359433,112.36611649277151L125.19465636780758,112.05305490649192L125.68412342202082,112.09013662959649L126.17359047623407,112.55201646982651L126.6630575304473,115.5824726468474L127.15252458466055,112.37475435297705L127.6419916388738,114.0903683994135L128.13145869308704,113.54273908357584L128.6209257473003,111.53275814990113L129.11039280151354,110.2126855446893L129.59985985572678,113.12253772246619L130.08932690994004,111.75970288746494L130.57879396415328,114.67129549534172L131.0682610183665,111.90862676118397L131.55772807257975,113.59216454311448L132.047195126793,112.16165039726305L132.53666218100625,111.75077112877287L133.0261292352195,112.75006272026995L133.51559628943275,113.06045166718772L134.005063343646,109.73696033044561L134.49453039785925,112.25141801624113L134.9839974520725,106.67552541607942L135.47346450628572,112.08627921196084L135.962931560499,114.41550737662375L136.45239861471222,111.11987210580764L136.94186566892546,111.45768086308544L137.43133272313872,111.92170524383434L137.92079977735196,115.1889747185369L138.41026683156522,112.42700858544849L138.89973388577846,113.90714106172034L139.3892009399917,112.8105277417087L139.87866799420493,114.1751351519568L140.3681350484182,115.61011747323619L140.85760210263143,112.5823201590856L141.3470691568447,110.1368092213634L141.83653621105793,113.24042316070984L142.32600326527117,111.57523566553174L142.81547031948443,112.72421802211113L143.30493737369767,113.406930429818L143.79440442791093,112.49924791500366L144.28387148212414,113.70095749693124L144.77333853633738,110.92610115991037L145.26280559055064,113.85514399042461L145.75227264476388,113.76781940261574L146.24173969897714,112.96152268132495L146.73120675319038,113.355934450242L147.2206738074036,115.50300065922539L147.71014086161688,112.07436254676502L148.19960791583011,114.30216818059355L148.68907497004338,113.56612238191002L149.17854202425661,112.29952093259041L149.66800907846985,113.94570146158523L150.15747613268312,110.60066828421361L150.64694318689635,113.1160260341241L151.13641024110962,115.69695988384059L151.62587729532285,113.53118519932431L152.1153443495361,114.28737682082638L152.60481140374935,115.84487807367604L153.09427845796256,112.49264897554839L153.58374551217582,112.07101945148078L154.07321256638906,113.69177776139117L154.5626796206023,114.96452811810855L155.05214667481556,116.21324768138862L155.5416137290288,117.05819664582137L156.03108078324206,112.32262870109346L156.5205478374553,111.72768172892523L157.01001489166853,115.26913093857283L157.4994819458818,113.76301599922661L157.98894900009503,115.0741430692548L158.23368252720164,115.46801296283732L158.4784160543083,112.43462239311503L158.7231495814149,115.65262713401378L158.96788310852153,115.40385124949776L159.21261663562814,111.87241295704742L159.45735016273477,114.34429209960757L159.7020836898414,113.50520732841377L159.94681721694803,116.06600453963942L160.19155074405464,115.23055217005253L160.43628427116127,111.0647202179456L160.68101779826787,113.50535427765705L160.92575132537453,112.88777252986249L161.17048485248114,114.24522534882925L161.41521837958777,114.61192800106359L161.65995190669437,114.82128015891054L161.90468543380098,110.81506263797002L162.14941896090764,116.73341126522772L162.39415248801424,113.68782850047847L162.63888601512087,113.99242213661506L162.88361954222748,115.23591122526777L163.1283530693341,114.45674500801434L163.37308659644074,113.23400790780863L163.61782012354738,113.3936728527774L163.86255365065398,115.36603937234072L164.1072871777606,114.10054004234559L164.35202070486721,113.89825981683066L164.59675423197388,115.06429287779235L164.84148775908048,113.12039318194732L165.0862212861871,116.17324534207421L165.33095481329372,113.14487400744213L165.57568834040035,116.23361852023592L165.82042186750698,115.81124965778815L166.0651553946136,115.7977854333742L166.30988892172022,115.59681856672093L166.55462244882682,116.83845701334128L166.79935597593345,113.20725396120713L167.04408950304008,116.90633837940094L167.28882303014672,114.37988136946026L167.53355655725332,114.85185019367303L167.77829008435995,116.45560831300347L168.02302361146656,108.57186866307356L168.26775713857322,115.38573975526563L168.51249066567982,111.65362849464853L168.75722419278645,112.89583177742269L169.00195771989306,115.89727925539074L169.2466912469997,114.42801643095649L169.49142477410632,115.37807543379671L169.73615830121295,114.06468901915335L169.98089182831956,114.05264836553351L170.22562535542616,115.25208023419052L170.4703588825328,116.44401769144112L170.71509240963945,114.23551751444622L170.95982593674606,109.85681580698176L171.20455946385266,115.09685131950275L171.4492929909593,115.44534604206406L171.6940265180659,115.75237352504217L171.93876004517256,115.97526338192472L172.18349357227916,113.2648580645661L172.4282270993858,115.27612939628322L172.6729606264924,115.54522560584417L172.91769415359903,114.22336205673008L173.16242768070566,115.57055138948772L173.4071612078123,114.95622089370036L173.6518947349189,113.25633041629301L173.89662826202553,115.16694610853905L174.14136178913213,114.12779453480697L174.3860953162388,112.1745589698509L174.6308288433454,115.2699850810493L174.875562370452,115.81418864265339L175.12029589755863,109.71844472579451L175.36502942466524,115.70714989542809L175.6097629517719,114.58571133763274L175.8544964788785,112.73246554838924L176.09923000598513,114.9919387441409L176.34396353309174,114.75517136809775L176.58869706019837,114.51557521912179L176.833430587305,115.94412851100842L177.07816411441163,114.32941808089107L177.32289764151824,115.83607948773567L177.56763116862487,112.48123744837628L177.81236469573147,115.42356081675035L178.05709822283814,114.93856402368957L178.30183174994474,110.87004920793338L178.54656527705137,114.9662134422422L178.79129880415798,116.47743486779183L179.03603233126458,115.07572277361987L179.28076585837124,114.384914381042L179.52549938547784,116.25237291740731L179.77023291258448,114.23599050732298L180.01496643969108,111.33362814878862L180.2596999667977,116.69444216278L180.50443349390434,116.90378513629923L180.74916702101098,111.95115479061695L180.99390054811758,114.15092526412928L181.2386340752242,113.81946746945874L181.48336760233082,115.58315687926134L181.72810112943748,117.19311901195579L181.97283465654408,117.41381840668092L182.2175681836507,115.63507588377159L182.46230171075732,116.53407461674189L182.70703523786395,117.11356436538443L182.95176876497058,117.2597604937754L183.1965022920772,117.15784660140886L183.44123581918382,117.12512743396367L183.68596934629042,117.17726686233881L183.93070287339705,117.744546047299L184.17543640050368,117.89239076251282L184.42016992761032,115.88399871753089L184.66490345471692,118.32353984224554L184.90963698182355,116.20817334033221L185.15437050893016,115.10183840944597L185.39910403603682,113.96170515260931L185.64383756314342,116.77298194114005L185.88857109025005,117.0542657535641L186.13330461735666,114.72816944464822L186.3780381444633,113.99017197632762L186.62277167156992,116.71625034891295L186.86750519867655,116.87819300715228L187.11223872578316,113.60041666155644L187.3569722528898,115.21271161348767L187.6017057799964,115.88314916721826L187.84643930710305,113.30990259978996L188.09117283420966,113.17332705466885L188.33590636131626,116.43798358813964L188.5806398884229,116.8961713286327L188.8253734155295,115.56069201369756L189.07010694263616,117.41831872725584L189.31484046974276,117.44905867208085L189.5595739968494,115.28105678809638L189.804307523956,115.64859980631562L190.04904105106263,115.29232595818908L190.29377457816926,114.29648308174482L190.5385081052759,113.89802102431034L190.7832416323825,118.53038467862933L191.02797515948913,116.19381364396713L191.27270868659573,114.04661426223203L191.5174422137024,115.00174760612867L191.762175740809,117.95297058804786L192.00690926791563,117.5439924753924L192.25164279502224,116.85768899555329L192.49637632212884,116.2953693475532L192.7411098492355,116.42342183656508L192.9858433763421,118.02033303959224L193.23057690344874,118.55572883092829L193.47531043055534,118.14156616528396L193.72004395766197,115.7260282810235L193.9647774847686,115.2907370694963L194.20951101187524,117.59818460100936L194.45424453898184,117.54744119044523L194.69897806608847,115.03007207276755L194.94371159319508,115.56878340640472L195.18844512030174,115.5249190572908L195.43317864740834,117.69502415231946L195.67791217451497,114.5302288139734L195.92264570162158,118.63851176868755L196.1673792287282,117.09807499671177L196.41211275583484,118.28903891522577L196.65684628294147,116.91239085135783L196.90157981004808,115.71812057487043L197.14631333715468,116.3143257999341L197.3910468642613,116.15208005888053L197.63578039136794,116.48314751962366L197.88051391847458,116.06050771950862L198.12524744558118,115.63555346881219L198.3699809726878,119.31899238476237L198.61471449979442,116.33518800031354L198.85944802690108,117.04662439291442L199.10418155400768,115.16690477906438L199.3489150811143,117.58610261791486L199.59364860822092,115.69828242702995L199.83838213532755,114.65567295391735L200.08311566243418,117.92921991660553L200.3278491895408,118.23817610840148L200.57258271664742,114.44445178538265L200.81731624375405,117.53484029283544L201.06204977086065,117.03945602514153L201.3067832979673,112.64003906654087L201.55151682507392,115.99193293670731L201.79625035218052,114.9831723033475L202.04098387928715,117.90617184623255L202.28571740639376,118.23579277536231L202.53045093350042,112.94577155931273L202.77518446060702,116.90896968928811L203.01991798771365,116.13097447381693L203.26465151482026,116.59862666400888L203.5093850419269,117.39551863373086L203.75411856903352,115.82153610481653L203.99885209614015,116.61765659101138L204.24358562324676,114.67965323355227L204.4883191503534,118.84016286775477L204.73305267746,118.49244422088444L204.97778620456666,114.8975927378024L205.22251973167326,117.76064617376397L205.4672532587799,115.76807413325203L205.7119867858865,117.5425872732537L205.9567203129931,116.30803453545691L206.20145384009976,113.96737647496649L206.44618736720636,115.24723090916285L206.690920894313,116.82683883879582L206.9356544214196,116.31082197891506L207.18038794852623,116.37155793802106L207.42512147563286,117.42843526422169L207.6698550027395,117.23744716961873L207.9145885298461,117.66161156813263L208.15932205695273,116.01349314599227L208.40405558405934,118.52866261718484L208.648789111166,117.18044923188822L208.8935226382726,116.02895955384567L209.13825616537923,117.14770710362376L209.38298969248584,117.29096424714946L209.62772321959247,117.78734501439925L209.8724567466991,116.11253693595131L210.11719027380573,118.34326318598971L210.36192380091234,116.72060831240846L210.60665732801894,115.7482038402646L210.85139085512557,117.1634077118336L211.0961243822322,117.23735532634169L211.34085790933884,118.21508211638996L211.58559143644544,117.78022716042872L211.83032496355207,120.01149987796549L212.07505849065868,116.98766560121913L212.31979201776534,118.09238409042948L212.56452554487194,118.535357992081L212.80925907197857,118.85903666118632L213.05399259908518,118.77505057649785L213.2987261261918,117.56982798922351L213.54345965329844,117.78793281137231L213.78819318040507,115.87309232838248L214.03292670751168,117.18896310366975L214.2776602346183,114.77269047319297L214.5223937617249,117.9632799958955L214.76712728883157,118.50553648002636L215.01186081593818,118.45150967230808L215.25659434304478,118.01240237261992L215.5013278701514,115.6873806300454L215.74606139725802,118.86465287757727L215.99079492436468,115.7702186737709L216.23552845147128,119.48573844639085L216.48026197857791,118.29875593393652L216.72499550568452,117.46811155990262L216.96972903279115,113.92042159958021L217.21446255989778,116.8992297097581L217.45919608700441,118.38596571764907L217.70392961411102,116.75860846828343L217.94866314121765,119.10381277098729L218.19339666832425,119.08294597844399L218.43813019543092,117.07692349000965L218.68286372253752,118.77504598433399L218.92759724964412,117.46291782258606L219.17233077675075,117.88429936980566L219.41706430385736,118.59555207585248L219.66179783096402,113.49475556348672L219.90653135807062,118.18553154200262L220.15126488517726,119.40529751219609L220.39599841228386,118.47100340785964L220.6407319393905,118.6204783412409L220.88546546649712,117.77159848455089L221.13019899360376,116.63533182967758L221.37493252071036,116.2991946200419L221.619666047817,117.21489964510562L221.8643995749236,116.2775609361353L222.10913310203026,116.94136281309983L222.35386662913686,118.00386094785526L222.5986001562435,118.50602324939467L222.8433336833501,119.89308174871502L223.0880672104567,117.10730524605421L223.33280073756336,118.20201281806729L223.57753426466996,116.84254863133337L223.8222677917766,114.9206867298139L224.0670013188832,115.86139149488767L224.31173484598983,120.64251829719086L224.55646837309646,118.61124349973461L224.8012019002031,115.93677645668143L225.0459354273097,118.09227387849704L225.29066895441633,116.03814847371345L225.53540248152294,119.0528902660329L225.7801360086296,119.77132052418034L226.0248695357362,117.72741727613119L226.26960306284283,119.61074173860504L226.51433658994944,116.48238522042423L226.75907011705607,114.43520775954866L227.0038036441627,118.7276227082348L227.24853717126933,118.34261109872273L227.49327069837594,116.20651556918165L227.73800422548254,118.26667966943057L227.98273775258917,120.71040425541437L228.2274712796958,117.9917376352861L228.47220480680244,118.73339965036058L228.71693833390904,119.29731737138113L228.96167186101567,117.47879752518614L229.20640538812228,120.28607913116568L229.45113891522894,113.51532845754349L229.69587244233554,119.73130440837437L229.94060596944217,114.95138534516424L230.18533949654878,118.99522646454386L230.4300730236554,118.80432102889023L230.67480655076204,118.21926098549525L230.91954007786867,118.81775770032107L231.16427360497528,116.52692461762439L231.4090071320819,119.84595696326622L231.65374065918851,116.79945576574659L231.89847418629518,118.3123028172998L232.14320771340178,118.30867500785675L232.38794124050838,120.40234812773342L232.63267476761501,116.74596624119897L232.87740829472162,117.94688597094401" style="fill: none;" fill="none"></path></g></g></g></g></g></g><g transform="translate(48, 177)" clip-path="url(#clip_1)"><clipPath id="clip_1"><rect width="281" height="23"></rect></clipPath><g><g><line x1="11.148832736121317" y1="0" x2="11.148832736121317" y2="5" style="visibility: inherit;" fill="rgb(0, 0, 0)" stroke="rgb(204, 204, 204)" stroke-width="1px"></line><line x1="35.622185446783604" y1="0" x2="35.622185446783604" y2="5" style="visibility: inherit;" fill="rgb(0, 0, 0)" stroke="rgb(204, 204, 204)" stroke-width="1px"></line><line x1="60.095538157445894" y1="0" x2="60.095538157445894" y2="5" style="visibility: inherit;" fill="rgb(0, 0, 0)" stroke="rgb(204, 204, 204)" stroke-width="1px"></line><line x1="84.56889086810818" y1="0" x2="84.56889086810818" y2="5" style="visibility: inherit;" fill="rgb(0, 0, 0)" stroke="rgb(204, 204, 204)" stroke-width="1px"></line><line x1="109.04224357877047" y1="0" x2="109.04224357877047" y2="5" style="visibility: inherit;" fill="rgb(0, 0, 0)" stroke="rgb(204, 204, 204)" stroke-width="1px"></line><line x1="133.51559628943275" y1="0" x2="133.51559628943275" y2="5" style="visibility: inherit;" fill="rgb(0, 0, 0)" stroke="rgb(204, 204, 204)" stroke-width="1px"></line><line x1="157.98894900009503" y1="0" x2="157.98894900009503" y2="5" style="visibility: inherit;" fill="rgb(0, 0, 0)" stroke="rgb(204, 204, 204)" stroke-width="1px"></line><line x1="182.46230171075732" y1="0" x2="182.46230171075732" y2="5" style="visibility: inherit;" fill="rgb(0, 0, 0)" stroke="rgb(204, 204, 204)" stroke-width="1px"></line><line x1="206.9356544214196" y1="0" x2="206.9356544214196" y2="5" style="visibility: inherit;" fill="rgb(0, 0, 0)" stroke="rgb(204, 204, 204)" stroke-width="1px"></line><line x1="231.4090071320819" y1="0" x2="231.4090071320819" y2="5" style="visibility: inherit;" fill="rgb(0, 0, 0)" stroke="rgb(204, 204, 204)" stroke-width="1px"></line><line x1="255.8823598427442" y1="0" x2="255.8823598427442" y2="5" style="visibility: inherit;" fill="rgb(0, 0, 0)" stroke="rgb(204, 204, 204)" stroke-width="1px"></line><line x1="280.3557125534065" y1="0" x2="280.3557125534065" y2="5" style="visibility: inherit;" fill="rgb(0, 0, 0)" stroke="rgb(204, 204, 204)" stroke-width="1px"></line></g><g transform="translate(0, 8)"><text x="11.148832736121317" y="0" dx="0em" dy="0.95em" style="text-anchor: middle; visibility: inherit; font-family: &quot;Helvetica Neue&quot;, sans-serif; font-size: 12px; font-weight: 200;" fill="rgb(50, 49, 63)" stroke="none" stroke-width="1px">-100</text><text x="35.622185446783604" y="0" dx="0em" dy="0.95em" style="text-anchor: middle; visibility: hidden; font-family: &quot;Helvetica Neue&quot;, sans-serif; font-size: 12px; font-weight: 200;" fill="rgb(50, 49, 63)" stroke="none" stroke-width="1px">0</text><text x="60.095538157445894" y="0" dx="0em" dy="0.95em" style="text-anchor: middle; visibility: inherit; font-family: &quot;Helvetica Neue&quot;, sans-serif; font-size: 12px; font-weight: 200;" fill="rgb(50, 49, 63)" stroke="none" stroke-width="1px">100</text><text x="84.56889086810818" y="0" dx="0em" dy="0.95em" style="text-anchor: middle; visibility: hidden; font-family: &quot;Helvetica Neue&quot;, sans-serif; font-size: 12px; font-weight: 200;" fill="rgb(50, 49, 63)" stroke="none" stroke-width="1px">200</text><text x="109.04224357877047" y="0" dx="0em" dy="0.95em" style="text-anchor: middle; visibility: inherit; font-family: &quot;Helvetica Neue&quot;, sans-serif; font-size: 12px; font-weight: 200;" fill="rgb(50, 49, 63)" stroke="none" stroke-width="1px">300</text><text x="133.51559628943275" y="0" dx="0em" dy="0.95em" style="text-anchor: middle; visibility: hidden; font-family: &quot;Helvetica Neue&quot;, sans-serif; font-size: 12px; font-weight: 200;" fill="rgb(50, 49, 63)" stroke="none" stroke-width="1px">400</text><text x="157.98894900009503" y="0" dx="0em" dy="0.95em" style="text-anchor: middle; visibility: inherit; font-family: &quot;Helvetica Neue&quot;, sans-serif; font-size: 12px; font-weight: 200;" fill="rgb(50, 49, 63)" stroke="none" stroke-width="1px">500</text><text x="182.46230171075732" y="0" dx="0em" dy="0.95em" style="text-anchor: middle; visibility: hidden; font-family: &quot;Helvetica Neue&quot;, sans-serif; font-size: 12px; font-weight: 200;" fill="rgb(50, 49, 63)" stroke="none" stroke-width="1px">600</text><text x="206.9356544214196" y="0" dx="0em" dy="0.95em" style="text-anchor: middle; visibility: inherit; font-family: &quot;Helvetica Neue&quot;, sans-serif; font-size: 12px; font-weight: 200;" fill="rgb(50, 49, 63)" stroke="none" stroke-width="1px">700</text><text x="231.4090071320819" y="0" dx="0em" dy="0.95em" style="text-anchor: middle; visibility: hidden; font-family: &quot;Helvetica Neue&quot;, sans-serif; font-size: 12px; font-weight: 200;" fill="rgb(50, 49, 63)" stroke="none" stroke-width="1px">800</text><text x="255.8823598427442" y="0" dx="0em" dy="0.95em" style="text-anchor: middle; visibility: inherit; font-family: &quot;Helvetica Neue&quot;, sans-serif; font-size: 12px; font-weight: 200;" fill="rgb(50, 49, 63)" stroke="none" stroke-width="1px">900</text><text x="280.3557125534065" y="0" dx="0em" dy="0.95em" style="text-anchor: middle; visibility: hidden; font-family: &quot;Helvetica Neue&quot;, sans-serif; font-size: 12px; font-weight: 200;" fill="rgb(50, 49, 63)" stroke="none" stroke-width="1px">1k</text></g><line x1="0" y1="0" x2="281.125" y2="0" fill="rgb(0, 0, 0)" stroke="rgb(204, 204, 204)" stroke-width="1px"></line></g></g></g></g></svg>