<svg viewBox="0 0 330 200" xmlns="http://www.w3.org/2000/svg"><g><g><g><g><g><line x1="68.3125" y1="177" x2="63.3125" y2="177" style="visibility: inherit;" fill="rgb(0, 0, 0)" stroke="rgb(204, 204, 204)" stroke-width="1px"></line><line x1="68.3125" y1="163.38461538461542" x2="63.3125" y2="163.38461538461542" style="visibility: inherit;" fill="rgb(0, 0, 0)" stroke="rgb(204, 204, 204)" stroke-width="1px"></line><line x1="68.3125" y1="149.7692307692308" x2="63.3125" y2="149.7692307692308" style="visibility: inherit;" fill="rgb(0, 0, 0)" stroke="rgb(204, 204, 204)" stroke-width="1px"></line><line x1="68.3125" y1="136.15384615384616" x2="63.3125" y2="136.15384615384616" style="visibility: inherit;" fill="rgb(0, 0, 0)" stroke="rgb(204, 204, 204)" stroke-width="1px"></line><line x1="68.3125" y1="122.53846153846155" x2="63.3125" y2="122.53846153846155" style="visibility: inherit;" fill="rgb(0, 0, 0)" stroke="rgb(204, 204, 204)" stroke-width="1px"></line><line x1="68.3125" y1="108.9230769230769" x2="63.3125" y2="108.9230769230769" style="visibility: inherit;" fill="rgb(0, 0, 0)" stroke="rgb(204, 204, 204)" stroke-width="1px"></line><line x1="68.3125" y1="95.3076923076923" x2="63.3125" y2="95.3076923076923" style="visibility: inherit;" fill="rgb(0, 0, 0)" stroke="rgb(204, 204, 204)" stroke-width="1px"></line><line x1="68.3125" y1="81.6923076923077" x2="63.3125" y2="81.6923076923077" style="visibility: inherit;" fill="rgb(0, 0, 0)" stroke="rgb(204, 204, 204)" stroke-width="1px"></line><line x1="68.3125" y1="68.07692307692305" x2="63.3125" y2="68.07692307692305" style="visibility: inherit;" fill="rgb(0, 0, 0)" stroke="rgb(204, 204, 204)" stroke-width="1px"></line><line x1="68.3125" y1="54.46153846153838" x2="63.3125" y2="54.46153846153838" style="visibility: inherit;" fill="rgb(0, 0, 0)" stroke="rgb(204, 204, 204)" stroke-width="1px"></line><line x1="68.3125" y1="40.84615384615387" x2="63.3125" y2="40.84615384615387" style="visibility: inherit;" fill="rgb(0, 0, 0)" stroke="rgb(204, 204, 204)" stroke-width="1px"></line><line x1="68.3125" y1="27.230769230769198" x2="63.3125" y2="27.230769230769198" style="visibility: inherit;" fill="rgb(0, 0, 0)" stroke="rgb(204, 204, 204)" stroke-width="1px"></line><line x1="68.3125" y1="13.615384615384556" x2="63.3125" y2="13.615384615384556" style="visibility: inherit;" fill="rgb(0, 0, 0)" stroke="rgb(204, 204, 204)" stroke-width="1px"></line><line x1="68.3125" y1="0" x2="63.3125" y2="0" style="visibility: inherit;" fill="rgb(0, 0, 0)" stroke="rgb(204, 204, 204)" stroke-width="1px"></line></g><g transform="translate(58.3125, 0)"><text x="0" y="177" dx="0em" dy="0.3em" style="text-anchor: end; visibility: hidden; font-family: &quot;Helvetica Neue&quot;, sans-serif; font-size: 12px; font-weight: 200;" fill="rgb(50, 49, 63)" stroke="none" stroke-width="1px">6.4e-3</text><text x="0" y="163.38461538461542" dx="0em" dy="0.3em" style="text-anchor: end; visibility: inherit; font-family: &quot;Helvetica Neue&quot;, sans-serif; font-size: 12px; font-weight: 200;" fill="rgb(50, 49, 63)" stroke="none" stroke-width="1px">6.6e-3</text><text x="0" y="149.7692307692308" dx="0em" dy="0.3em" style="text-anchor: end; visibility: hidden; font-family: &quot;Helvetica Neue&quot;, sans-serif; font-size: 12px; font-weight: 200;" fill="rgb(50, 49, 63)" stroke="none" stroke-width="1px">6.8e-3</text><text x="0" y="136.15384615384616" dx="0em" dy="0.3em" style="text-anchor: end; visibility: inherit; font-family: &quot;Helvetica Neue&quot;, sans-serif; font-size: 12px; font-weight: 200;" fill="rgb(50, 49, 63)" stroke="none" stroke-width="1px">7e-3</text><text x="0" y="122.53846153846155" dx="0em" dy="0.3em" style="text-anchor: end; visibility: hidden; font-family: &quot;Helvetica Neue&quot;, sans-serif; font-size: 12px; font-weight: 200;" fill="rgb(50, 49, 63)" stroke="none" stroke-width="1px">7.2e-3</text><text x="0" y="108.9230769230769" dx="0em" dy="0.3em" style="text-anchor: end; visibility: inherit; font-family: &quot;Helvetica Neue&quot;, sans-serif; font-size: 12px; font-weight: 200;" fill="rgb(50, 49, 63)" stroke="none" stroke-width="1px">7.4e-3</text><text x="0" y="95.3076923076923" dx="0em" dy="0.3em" style="text-anchor: end; visibility: hidden; font-family: &quot;Helvetica Neue&quot;, sans-serif; font-size: 12px; font-weight: 200;" fill="rgb(50, 49, 63)" stroke="none" stroke-width="1px">7.6e-3</text><text x="0" y="81.6923076923077" dx="0em" dy="0.3em" style="text-anchor: end; visibility: inherit; font-family: &quot;Helvetica Neue&quot;, sans-serif; font-size: 12px; font-weight: 200;" fill="rgb(50, 49, 63)" stroke="none" stroke-width="1px">7.8e-3</text><text x="0" y="68.07692307692305" dx="0em" dy="0.3em" style="text-anchor: end; visibility: hidden; font-family: &quot;Helvetica Neue&quot;, sans-serif; font-size: 12px; font-weight: 200;" fill="rgb(50, 49, 63)" stroke="none" stroke-width="1px">8e-3</text><text x="0" y="54.46153846153838" dx="0em" dy="0.3em" style="text-anchor: end; visibility: inherit; font-family: &quot;Helvetica Neue&quot;, sans-serif; font-size: 12px; font-weight: 200;" fill="rgb(50, 49, 63)" stroke="none" stroke-width="1px">8.2e-3</text><text x="0" y="40.84615384615387" dx="0em" dy="0.3em" style="text-anchor: end; visibility: hidden; font-family: &quot;Helvetica Neue&quot;, sans-serif; font-size: 12px; font-weight: 200;" fill="rgb(50, 49, 63)" stroke="none" stroke-width="1px">8.4e-3</text><text x="0" y="27.230769230769198" dx="0em" dy="0.3em" style="text-anchor: end; visibility: inherit; font-family: &quot;Helvetica Neue&quot;, sans-serif; font-size: 12px; font-weight: 200;" fill="rgb(50, 49, 63)" stroke="none" stroke-width="1px">8.6e-3</text><text x="0" y="13.615384615384556" dx="0em" dy="0.3em" style="text-anchor: end; visibility: hidden; font-family: &quot;Helvetica Neue&quot;, sans-serif; font-size: 12px; font-weight: 200;" fill="rgb(50, 49, 63)" stroke="none" stroke-width="1px">8.8e-3</text><text x="0" y="0" dx="0em" dy="0.3em" style="text-anchor: end; visibility: hidden; font-family: &quot;Helvetica Neue&quot;, sans-serif; font-size: 12px; font-weight: 200;" fill="rgb(50, 49, 63)" stroke="none" stroke-width="1px">9e-3</text></g><line x1="68.3125" y1="0" x2="68.3125" y2="177" fill="rgb(0, 0, 0)" stroke="rgb(204, 204, 204)" stroke-width="1px"></line></g></g><g transform="translate(68, 0)" clip-path="url(#clip_0)"><clipPath id="clip_0"><rect width="261" height="177"></rect></clipPath><g><g><g><line x1="0" y1="0" x2="0" y2="177" fill="rgb(0, 0, 0)" stroke="rgb(60, 60, 60)" stroke-width="1px" opacity="0.25"></line><line x1="26.168750000000003" y1="0" x2="26.168750000000003" y2="177" fill="rgb(0, 0, 0)" stroke="rgb(60, 60, 60)" stroke-width="1px" opacity="0.25"></line><line x1="52.337500000000006" y1="0" x2="52.337500000000006" y2="177" fill="rgb(0, 0, 0)" stroke="rgb(60, 60, 60)" stroke-width="1px" opacity="0.25"></line><line x1="78.50625" y1="0" x2="78.50625" y2="177" fill="rgb(0, 0, 0)" stroke="rgb(60, 60, 60)" stroke-width="1px" opacity="0.25"></line><line x1="104.67500000000001" y1="0" x2="104.67500000000001" y2="177" fill="rgb(0, 0, 0)" stroke="rgb(60, 60, 60)" stroke-width="1px" opacity="0.25"></line><line x1="130.84375" y1="0" x2="130.84375" y2="177" fill="rgb(0, 0, 0)" stroke="rgb(60, 60, 60)" stroke-width="1px" opacity="0.25"></line><line x1="157.0125" y1="0" x2="157.0125" y2="177" fill="rgb(0, 0, 0)" stroke="rgb(60, 60, 60)" stroke-width="1px" opacity="0.25"></line><line x1="183.18124999999998" y1="0" x2="183.18124999999998" y2="177" fill="rgb(0, 0, 0)" stroke="rgb(60, 60, 60)" stroke-width="1px" opacity="0.25"></line><line x1="209.35000000000002" y1="0" x2="209.35000000000002" y2="177" fill="rgb(0, 0, 0)" stroke="rgb(60, 60, 60)" stroke-width="1px" opacity="0.25"></line><line x1="235.51875" y1="0" x2="235.51875" y2="177" fill="rgb(0, 0, 0)" stroke="rgb(60, 60, 60)" stroke-width="1px" opacity="0.25"></line><line x1="261.6875" y1="0" x2="261.6875" y2="177" fill="rgb(0, 0, 0)" stroke="rgb(60, 60, 60)" stroke-width="1px" opacity="0.25"></line></g><g><line x1="0" y1="177" x2="261.6875" y2="177" fill="rgb(0, 0, 0)" stroke="rgb(60, 60, 60)" stroke-width="1px" opacity="0.25"></line><line x1="0" y1="163.38461538461542" x2="261.6875" y2="163.38461538461542" fill="rgb(0, 0, 0)" stroke="rgb(60, 60, 60)" stroke-width="1px" opacity="0.25"></line><line x1="0" y1="149.7692307692308" x2="261.6875" y2="149.7692307692308" fill="rgb(0, 0, 0)" stroke="rgb(60, 60, 60)" stroke-width="1px" opacity="0.25"></line><line x1="0" y1="136.15384615384616" x2="261.6875" y2="136.15384615384616" fill="rgb(0, 0, 0)" stroke="rgb(60, 60, 60)" stroke-width="1px" opacity="0.25"></line><line x1="0" y1="122.53846153846155" x2="261.6875" y2="122.53846153846155" fill="rgb(0, 0, 0)" stroke="rgb(60, 60, 60)" stroke-width="1px" opacity="0.25"></line><line x1="0" y1="108.9230769230769" x2="261.6875" y2="108.9230769230769" fill="rgb(0, 0, 0)" stroke="rgb(60, 60, 60)" stroke-width="1px" opacity="0.25"></line><line x1="0" y1="95.3076923076923" x2="261.6875" y2="95.3076923076923" fill="rgb(0, 0, 0)" stroke="rgb(60, 60, 60)" stroke-width="1px" opacity="0.25"></line><line x1="0" y1="81.6923076923077" x2="261.6875" y2="81.6923076923077" fill="rgb(0, 0, 0)" stroke="rgb(60, 60, 60)" stroke-width="1px" opacity="0.25"></line><line x1="0" y1="68.07692307692305" x2="261.6875" y2="68.07692307692305" fill="rgb(0, 0, 0)" stroke="rgb(60, 60, 60)" stroke-width="1px" opacity="0.25"></line><line x1="0" y1="54.46153846153838" x2="261.6875" y2="54.46153846153838" fill="rgb(0, 0, 0)" stroke="rgb(60, 60, 60)" stroke-width="1px" opacity="0.25"></line><line x1="0" y1="40.84615384615387" x2="261.6875" y2="40.84615384615387" fill="rgb(0, 0, 0)" stroke="rgb(60, 60, 60)" stroke-width="1px" opacity="0.25"></line><line x1="0" y1="27.230769230769198" x2="261.6875" y2="27.230769230769198" fill="rgb(0, 0, 0)" stroke="rgb(60, 60, 60)" stroke-width="1px" opacity="0.25"></line><line x1="0" y1="13.615384615384556" x2="261.6875" y2="13.615384615384556" fill="rgb(0, 0, 0)" stroke="rgb(60, 60, 60)" stroke-width="1px" opacity="0.25"></line><line x1="0" y1="0" x2="261.6875" y2="0" fill="rgb(0, 0, 0)" stroke="rgb(60, 60, 60)" stroke-width="1px" opacity="0.25"></line></g></g></g><g><g><line x1="0" y1="612.6923076923078" x2="261.6875" y2="612.6923076923078" fill="rgb(0, 0, 0)" stroke="rgb(153, 153, 153)" stroke-width="1.5px"></line></g></g><g><g><line x1="26.168750000000003" y1="0" x2="26.168750000000003" y2="177" fill="rgb(0, 0, 0)" stroke="rgb(153, 153, 153)" stroke-width="1.5px"></line></g></g><g><g><g><g><g><path stroke="rgb(0, 119, 187)" stroke-width="2px" d="M32.44925,-6.665381233279561L32.7109375,4.882074474142115L32.972625,20.87626306483375L33.2343125,35.556580811165816L33.496,7.533084540986039L33.7576875,15.301806362202512L34.019375000000004,16.59044337960384L34.281062500000004,39.30576956329435L34.542750000000005,9.39639343665192L34.8044375,-7.438373238994586L35.066125,32.96954293377121L35.3278125,6.265623649725512L35.5895,17.68183809633433L35.8511875,16.800683003205478L36.112875,25.440352263932L36.3745625,27.844666801393004L36.636250000000004,28.486924758897345L36.8979375,39.32859413039222L37.159625,61.142730323167925L37.4213125,41.30754749935403L37.683,33.47694574067222L37.9446875,33.968688358481074L38.206374999999994,56.346591358574514L38.468062499999995,56.273235735984926L38.729749999999996,41.031687245346006L38.991437499999996,43.7759610294149L39.253125,35.57782033888191L39.5148125,51.352195668105864L39.7765,51.17644650145215L40.0381875,57.18463338051849L40.299875,40.526123084127875L40.5615625,69.73136131580057L40.82325,37.324406934472194L41.0849375,48.01930165921263L41.346625,47.944487800391784L41.608312500000004,50.3377070621802L41.87,45.24903322928225L42.1316875,57.5122293199484L42.393375,59.29153112837899L42.6550625,30.730769909345156L42.91675,54.291746304012236L43.1784375,75.34461978249824L43.440125,80.91013686301616L43.7018125,72.84063796870983L43.9635,58.875553393020056L44.225187500000004,53.81483965481701L44.486875000000005,64.89604017768913L44.748562500000006,61.74834217016512L45.01025,66.32511168431775L45.2719375,66.60179615880432L45.533624999999994,56.022799513660914L45.795312499999994,78.043624841823L46.056999999999995,58.24787779782825L46.318687499999996,69.40744266773643L46.580375,60.45735929447869L46.8420625,78.5490621998906L47.10375,65.09651595869887L47.3654375,80.22197616501495L47.627125,75.22796088399795L47.8888125,70.14137930308395L48.1505,60.07536480346549L48.4121875,80.91704763472079L48.673875,71.40877679276923L48.9355625,88.89547016614902L49.19725,76.46796889316575L49.4589375,96.9293690759402L49.720625,85.59199448818195L49.9823125,80.58279452988732L50.244,67.12695140678147L50.5056875,62.848042493256216L50.767375,67.22148315551186L51.0290625,85.24132037535308L51.29075,100.36538574701316L51.5524375,76.58285254755843L51.814125000000004,82.21861857347763L52.075812500000005,89.05543234056003L52.337500000000006,56.750332589905966L52.599187500000006,77.49786408188251L52.860875,78.90740790332737L53.1225625,83.88696762518238L53.384249999999994,104.27425136646399L53.645937499999995,53.78675275697154L53.907624999999996,71.69623953505203L54.1693125,91.58975180811606L54.431,91.13104141102386L54.6926875,93.67328607548887L54.954375,75.32807197135226L55.2160625,88.8220828427718L55.47775,96.34981527637976L55.7394375,94.49982071152098L56.001125,66.2464937309806L56.2628125,73.80706818057939L56.524499999999996,94.8350882415588L56.7861875,93.81013837571327L57.047875,90.44113716970269L57.3095625,94.90761964366985L57.57125,55.01255881327846L57.8329375,78.90354040723578L58.094625,67.77111141154397L58.3563125,99.64194207237317L58.618,88.70922803878783L58.8796875,81.29688647217475L59.141375000000004,75.3034087585715L59.403062500000004,89.03514383647303L59.664750000000005,89.44931462693671L59.926437500000006,91.16461254513032L60.188125,86.33410992673956L60.4498125,82.1056369663431L60.7115,92.49908890145329L60.9731875,85.6409722050795L61.234875,83.01170887855382L61.496562499999996,78.0709509207652L61.75825,93.33082246665771L62.0199375,89.03146654510725L62.281625,94.29306817455932L62.5433125,83.99411628739189L62.805,84.27435125009372L63.0666875,85.17351239059978L63.328375,88.95845963118167L63.590062499999995,93.11066049652604L63.851749999999996,104.05234585301234L64.1134375,89.16876265635855L64.375125,85.957980081439L64.6368125,73.4951958318169L64.8985,86.78768479623473L65.1601875,101.53904400765894L65.421875,90.24262683752636L65.6835625,99.30220473127869L65.94525,74.80456516433219L66.2069375,82.93055486220578L66.468625,89.30865823219601L66.7303125,90.41320877579541L66.992,101.67516718976772L67.2536875,90.1819832307788L67.515375,86.0053410581671L67.7770625,88.11550398715413L68.03875000000001,93.8982665653412L68.3004375,101.12572913846144L68.56212500000001,100.93314685357304L68.8238125,101.84891920680036L69.08550000000001,94.9473407305777L69.3471875,97.18744518808447L69.608875,90.17500905749888L69.8705625,90.55795457214116L70.13225,99.2970058021064L70.3939375,98.28736741668902L70.655625,104.88610826862545L70.91731250000001,86.07961600359815L71.179,114.0497598481866L71.44068750000001,92.11829904037026L71.702375,89.52133881644559L71.96406250000001,86.03770756234341L72.22575,96.05946776242209L72.48743750000001,96.51082357678274L72.749125,93.17872208758041L73.0108125,112.50203229343661L73.27250000000001,93.63140933502177L73.5341875,90.58372731248919L73.795875,87.7726282680837L74.05756249999999,97.80916103520072L74.31925,94.01118477090046L74.58093749999999,137.2314997203648L74.842625,106.89628691340869L75.10431249999999,112.49870371073484L75.366,97.0381027775315L75.6276875,97.38047128399975L75.889375,109.9177206837787L76.1510625,79.21725140168115L76.41274999999999,101.15895156390391L76.6744375,86.62791282654955L76.93612499999999,85.07714199618651L77.1978125,109.96730071564133L77.45949999999999,93.60319563402578L77.7211875,106.80498864501713L77.98287499999999,89.12406454579187L78.2445625,94.11009122832462L78.50625,100.83468420717578L78.7679375,99.21978268342522L79.029625,92.90435177059126L79.2913125,104.81237223658424L79.553,88.6195148097781L79.8146875,113.07987425046471L80.076375,110.44655322312163L80.33806249999999,92.3611904752369L80.59975,119.10197777530321L80.8614375,111.34143475729685L81.123125,95.20246866947181L81.3848125,111.36787321418524L81.6465,105.66712057361235L81.9081875,116.67350723766364L82.169875,93.3839846875232L82.4315625,96.45591781259728L82.69325,101.4495843849503L82.9549375,112.90688305233533L83.21662500000001,109.58286526398017L83.4783125,107.17351030128506L83.74,86.97624108109335L84.0016875,90.92400356697348L84.263375,105.65612040030268L84.5250625,105.6369097229953L84.78675,106.96374618949798L85.0484375,103.24251753206435L85.310125,102.12059495684045L85.57181250000001,109.51207740518909L85.8335,113.92584146931767L86.09518750000001,96.77476433463967L86.356875,104.87006767008167L86.61856250000001,101.61167051213292L86.88025,95.84615316241978L87.14193750000001,99.91995797994045L87.403625,115.35912918070187L87.6653125,110.2791730644038L87.927,107.37078430274357L88.1886875,116.1414095171942L88.45037500000001,105.6958097864229L88.7120625,101.4495843849503L88.97375000000001,103.18380767336258L89.2354375,103.73346763018232L89.49712500000001,112.53373308107257L89.7588125,100.08977909930623L90.0205,95.4785508289933L90.28218749999999,98.06102379296834L90.543875,118.03787743672729L90.8055625,117.26941864364423L91.06724999999999,92.52616137409439L91.3289375,96.75051323209817L91.59062499999999,105.68601424304337L91.8523125,93.0703370946531L92.11399999999999,104.96269737155392L92.3756875,101.41753488865035L92.63737499999999,124.42828071232026L92.8990625,101.45135962905792L93.16075,115.09360338346316L93.4224375,114.96667342976882L93.684125,99.90382227903373L93.9458125,96.05385672301053L94.2075,115.593968615509L94.46918749999999,102.51961277081416L94.730875,100.92423893224733L94.99256249999999,96.57130867959214L95.25425,100.96167756244539L95.51593749999999,125.73967889524423L95.777625,101.54189707854619L96.0393125,98.30473944831351L96.301,108.25342933289133L96.5626875,121.9326362056801L96.824375,101.83455875000128L97.0860625,125.00811981896942L97.34775,103.26198181567283L97.6094375,113.10811965224835L97.871125,115.22874384115522L98.1328125,85.12355194928554L98.3945,110.23082936325898L98.6561875,98.26092895980064L98.917875,88.39596085536937L99.1795625,111.49366193952469L99.44125,107.13569126163537L99.7029375,115.46535852006994L99.964625,102.28619987145065L100.2263125,117.73868540301919L100.488,108.19259552141794L100.74968750000001,110.20540533157495L101.011375,103.98048016744164L101.27306250000001,97.91703881552584L101.53475,111.3771932457502L101.79643750000001,102.79537792245928L102.058125,108.12583366265663L102.3198125,126.20102045771021L102.5815,124.4077703027198L102.8431875,112.92682284775834L103.104875,109.70301124912041L103.3665625,131.06886660393616L103.62825000000001,103.21141905939349L103.8899375,102.95356485276268L104.15162500000001,112.24018378756367L104.4133125,109.40540425479412L104.67500000000001,96.43632672583826L104.9366875,106.88953464564221L105.19837500000001,96.59232630179477L105.4600625,117.4562630859705L105.72175,107.02432639467028L105.98343750000001,121.73450628295541L106.245125,108.87317973117416L106.5068125,104.97740653701699L106.76849999999999,113.23317925947217L107.0301875,120.66137121990323L107.29187499999999,120.34182728053285L107.5535625,127.70642746096621L107.81524999999999,119.8068764891762L108.0769375,92.70441490297134L108.338625,115.58981581232868L108.6003125,123.5501371940168L108.862,134.42280993581966L109.12368749999999,117.44428018824412L109.385375,112.43254416693861L109.64706249999999,124.01128855175696L109.90875,107.84876877871844L110.17043749999999,108.22987564767783L110.432125,108.61304306783354L110.69381249999999,108.90015710145234L110.9555,112.18867000765525L111.2171875,107.49511479185178L111.478875,125.82787048644744L111.7405625,93.49607867260391L112.00225,118.39939321892766L112.2639375,101.08667376809395L112.525625,134.13930979199134L112.7873125,109.4515923023797L113.04899999999999,121.61749867579111L113.3106875,105.80945711009777L113.572375,126.3111489939575L113.8340625,117.53630757475129L114.09575,117.12369012288175L114.3574375,121.2562047991042L114.619125,128.65466142073274L114.8808125,120.4012979581379L115.1425,122.67174006941227L115.4041875,117.0370518702727L115.665875,100.74335423799661L115.92756250000001,107.30991879048256L116.18925,117.06662870513705L116.4509375,112.92647413909435L116.712625,136.99123945087194L116.9743125,122.28949197209798L117.236,110.50453396370777L117.4976875,102.49222329029669L117.759375,122.02054248979458L118.0210625,105.08043409683383L118.28275000000001,105.62039361263697L118.5444375,117.25949629711417L118.80612500000001,128.78238389411797L119.0678125,121.1516239006932L119.32950000000001,100.52138532296969L119.5911875,102.35283492706142L119.85287500000001,121.41949555621697L120.1145625,133.48164525169594L120.37625,110.81805475342732L120.6379375,130.0116453362772L120.899625,102.58960810991434L121.16131250000001,121.08143835686721L121.423,112.72929523999875L121.68468750000001,118.78439928476627L121.946375,94.54347269609569L122.20806250000001,131.77775961705126L122.46975,109.05552266165614L122.7314375,106.83817936967199L122.99312499999999,113.71281217640409L123.2548125,116.64177474924006L123.5165,117.93954159348056L123.77818749999999,117.87769335680284L124.039875,110.83520487953837L124.30156249999999,112.01311104572736L124.56325,118.99460720758026L124.82493749999999,139.09493541918124L125.086625,118.1913409496729L125.34831249999999,116.0753450757609L125.61,116.85179246732821L125.8716875,113.36743209511042L126.133375,112.96743155672L126.3950625,122.62412548638306L126.65675,110.11394855924523L126.9184375,134.22230245402227L127.18012499999999,90.7746611564205L127.4418125,126.12902796898896L127.70349999999999,116.53224852795785L127.9651875,126.55324790913326L128.226875,111.00883009342047L128.4885625,103.73993459086005L128.75025,103.91806131658645L129.0119375,103.78713706364998L129.273625,114.82386138146886L129.5353125,116.16093720237797L129.797,110.59789278329565L130.0586875,102.63272118109923L130.320375,115.50799607944029L130.5820625,107.36228849165714L130.84375,114.40791534689757L131.1054375,146.75092923956424L131.367125,121.03845208883286L131.6288125,131.03599288715765L131.8905,118.18132350077995L132.1521875,106.97585589037492L132.413875,113.6580649161568L132.6755625,113.510973261526L132.93725,112.37795541062951L133.1989375,117.48612522792357L133.460625,116.99384369672491L133.72231250000002,134.63983352797536L133.984,114.08345778544361L134.2456875,112.82715557143092L134.507375,114.10165403754665L134.7690625,123.53317727263158L135.03075,121.82856251987127L135.2924375,152.94694328537355L135.554125,117.60034316577591L135.8158125,109.06173601603278L136.07750000000001,136.01409437278141L136.3391875,120.64120951896676L136.600875,114.89078174416835L136.8625625,111.54016699498662L137.12425000000002,119.59511522776805L137.3859375,117.28992905324468L137.647625,109.61900416188514L137.9093125,117.29994650213763L138.17100000000002,123.28645004246097L138.43268750000001,111.4364420178418L138.694375,136.40791325758283L138.9560625,127.7750279654104L139.21775,117.69937642635061L139.47943750000002,108.74415752549584L139.741125,120.07886924709265L140.0028125,111.26097815827681L140.2645,128.5753460500676L140.52618750000002,119.95301712017793L140.787875,122.82773964536878L141.0495625,124.67484943855267L141.31125,145.17226171608155L141.57293750000002,133.80521519109607L141.83462500000002,116.41920351924804L142.0963125,123.48664051638201L142.358,123.3055973181931L142.6196875,124.65386351713768L142.88137500000002,130.86135324807123L143.1430625,99.55990043397132L143.40475,123.24200553819537L143.6664375,124.27383447495791L143.92812500000002,114.08199954921236L144.18981250000002,105.23694088539251L144.4515,105.94345633943493L144.7131875,128.19005467714027L144.97487500000003,122.43008496526342L145.23656250000002,119.81334344985393L145.49825,110.11309263797907L145.7599375,132.43047883447548L146.021625,124.3609482393815L146.28331250000002,115.19025908496516L146.54500000000002,133.09625877640568L146.8066875,127.12500331493524L147.068375,123.20028730166646L147.3300625,121.58246930545339L147.59175,126.39071797092373L147.85343749999998,118.00871271210221L148.11512499999998,154.47203647775146L148.3768125,121.55156103750834L148.6385,118.81727300154475L148.9001875,109.39931770356802L149.16187499999998,122.74832917234072L149.42356249999997,120.61844835344415L149.68525,118.72362887486815L149.9469375,144.34740722179413L150.20862499999998,135.82119508001668L150.47031249999998,112.9226383437904L150.732,111.34970866286983L150.9936875,117.47915105464367L151.255375,120.21936713789518L151.51706249999998,118.5296834561114L151.77875,123.07132849756341L152.0404375,99.91380802713907L152.302125,119.0847642476169L152.56381249999998,114.20709085722382L152.82549999999998,132.53620096124135L153.0871875,128.355786394901L153.348875,131.6884584982808L153.6105625,126.73007490256659L153.87224999999998,128.55455033337842L154.1339375,122.74515909357713L154.395625,144.5464247665726L154.6573125,112.65625662528551L154.91899999999998,134.18949213881905L155.1806875,132.09514790286238L155.442375,126.23998072571479L155.7040625,121.00472245078821L155.96574999999999,130.87064157884856L156.22743749999998,137.6239871720855L156.489125,110.243541379101L156.7508125,128.93315284011456L157.0125,120.68533701535601L157.27418749999998,120.14458497986197L157.535875,116.6471955839258L157.7975625,135.41209641557475L158.05925,125.33625467178913L158.32093749999999,126.23297485164724L158.582625,131.2861121016053L158.8443125,133.35065759718418L159.106,130.81392886976784L159.3676875,122.1535272939274L159.629375,124.97049098404554L159.8910625,110.27124786749482L160.15275,101.3033803523733L160.4144375,131.2516216446574L160.67612499999998,118.69896566208737L160.9378125,129.87387371321137L161.1995,134.64712470913162L161.4611875,126.58678734245208L161.722875,127.81183257985575L161.9845625,122.64577712433842L162.24625,123.0337313634272L162.5079375,116.5498424650958L162.769625,127.48521936484255L163.0313125,134.78277237942586L163.293,104.52579711635525L163.5546875,143.7591991072091L163.816375,113.71278047561646L164.0780625,140.02779449694432L164.33975,124.34078653844503L164.6014375,127.4222298998099L164.863125,128.88747200513114L165.1248125,130.21887338505343L165.3865,125.41842311334152L165.6481875,131.77138775873644L165.909875,123.66768371457091L166.1715625,128.32405390647742L166.43325000000002,122.0157873716492L166.6949375,120.65645759781965L166.956625,122.59144197433041L167.2183125,127.63798546046019L167.48,121.90312277239103L167.7416875,117.08945327223493L168.003375,125.25627358458362L168.2650625,113.72450976704175L168.52675,133.09182066613664L168.78843750000001,129.14481899915978L169.050125,133.10884398909715L169.3118125,146.09221857327682L169.5735,114.40011695313912L169.83518750000002,139.54644973748006L170.096875,131.19963235293443L170.3585625,129.51197752155937L170.62025,127.56580276701314L170.88193750000002,120.29823869753342L171.14362500000001,144.55406465639288L171.4053125,122.134665325284L171.667,122.85053251167902L171.9286875,127.38216010423807L172.19037500000002,127.63906328723982L172.4520625,123.34832997992635L172.71375,139.78138427465007L172.9754375,129.96802505249013L173.23712500000002,126.315111592412L173.4988125,126.4830940660949L173.7605,117.97561708981029L174.0221875,141.1154802215214L174.28387500000002,100.30740500642703L174.54556250000002,128.9925284153567L174.80725,117.79669784439298L175.0689375,115.83254874325715L175.330625,120.45525269869428L175.59231250000002,129.27323888987303L175.854,120.53707243158266L176.1156875,121.04634558495421L176.377375,125.88895790422193L176.63906250000002,130.45599527657032L176.90075000000002,114.16347057343675L177.1624375,131.6777119312722L177.424125,138.24976072001917L177.68581250000003,120.07395562500908L177.94750000000002,117.9513976880564L178.2091875,124.89941781816574L178.470875,121.5191628325444L178.7325625,120.19118513768682L178.99425000000002,132.34773977874562L179.25593750000002,140.2385096323605L179.517625,127.21947166209037L179.7793125,130.63288567157892L180.041,123.84476431430534L180.3026875,126.63440192548128L180.56437499999998,142.67129147711856L180.82606249999998,132.5641927567239L181.08775,134.14786900465305L181.3494375,117.04729122467913L181.611125,135.23336737488324L181.87281249999998,139.11639685241076L182.13449999999997,131.5873329857221L182.3961875,126.17036579606625L182.657875,105.89825101626606L182.91956249999998,112.87163177648415L183.18124999999998,135.83552383602813L183.4429375,123.86914221999737L183.704625,126.06908177956939L183.9663125,115.17929061244314L184.22799999999998,130.46347666245242L184.4896875,122.91161992945351L184.751375,126.5695104131905L185.0130625,119.20364220125171L185.27474999999998,137.56549921889717L185.53643749999998,142.25040011967604L185.798125,116.05645140632987L186.0598125,117.70860135555267L186.3215,132.54789855187903L186.58318749999998,111.7931392803215L186.844875,137.4595234858302L187.1065625,145.35685540248568L187.36825,119.21898538246751L187.62993749999998,139.19466609708394L187.891625,135.78895537899092L188.1533125,129.23694148802986L188.415,136.54929877043918L188.67668749999999,128.55921034916088L188.93837499999998,122.7093372035485L189.2000625,118.75618558377028L189.46175,132.20334269106388L189.7234375,126.57404362582244L189.98512499999998,142.51801816889872L190.2468125,151.76231655220573L190.5085,125.57429588614748L190.7701875,132.98784208269075L191.03187499999999,118.1772975007502L191.2935625,123.5254422804484L191.55525,131.83073163319094L191.8169375,131.30969748760646L192.078625,123.06463963137224L192.3403125,127.37753178924322L192.602,135.42293808494622L192.8636875,117.83432667931685L193.125375,134.42740655002686L193.38706249999998,128.79208433513458L193.64875,137.23622313772256L193.9104375,127.76849760315739L194.172125,142.54578805886783L194.4338125,134.35252928963075L194.6955,130.57874072629673L194.9571875,118.43749756566606L195.218875,136.03935990052727L195.4805625,142.74391798159252L195.74225,123.48597479984164L196.0039375,135.82116337922903L196.265625,151.0845220117615L196.5273125,113.33934519726496L196.789,136.28057119364922L197.0506875,115.94540354724114L197.312375,136.48580209280436L197.5740625,126.23608152883557L197.83575,105.94599240244581L198.0974375,149.5654519690344L198.359125,123.52141628041863L198.6208125,125.68778470588418L198.8825,129.63928788470534L199.14418750000002,147.67291494716818L199.405875,135.2777801783612L199.6675625,133.55642740972914L199.92925,117.86786611263568L200.1909375,142.29627115938527L200.452625,136.44541528935616L200.7143125,117.65654866225444L200.976,134.40730825066566L201.2376875,141.1158289301854L201.49937500000001,146.93206754011604L201.7610625,137.89895980403975L202.02275,144.16915369291718L202.2844375,155.42248949265252L202.54612500000002,114.21431863680482L202.8078125,116.47816698425092L203.0695,112.65609812134733L203.3311875,122.07145395473792L203.59287500000002,142.60110593329256L203.85456250000001,158.2853242224799L204.11625,142.57625251578597L204.3779375,117.93909778245367L204.639625,140.177422214586L204.90131250000002,118.32708372233006L205.163,133.6958157729644L205.4246875,138.85270970085492L205.686375,128.3071890874551L205.94806250000002,142.8063368324477L206.20975,125.37714868783951L206.4714375,121.9754956705639L206.733125,121.3801865795484L206.99481250000002,122.30572277536758L207.25650000000002,129.87647317779752L207.5181875,119.78731710320481L207.779875,142.24263342670525L208.0415625,125.64343530398149L208.30325000000002,114.45492761496168L208.5649375,141.26298398639148L208.826625,110.87061465932773L209.0883125,133.93858040468052L209.35000000000002,136.28770387086732L209.61168750000002,146.82615520862433L209.873375,129.09089595939105L210.1350625,139.17247554573876L210.39675000000003,138.28336355491325L210.65843750000002,116.17193737568763L210.920125,128.94884472999436L211.1818125,131.54735829251317L211.4435,101.66670307946892L211.70518750000002,124.78979649452063L211.96687500000002,138.0580977579722L212.2285625,117.98328868041818L212.49025,132.70922386015837L212.7519375,135.9699668763922L213.013625,135.105644901498L213.27531249999998,118.76823188307193L213.53699999999998,123.59274305259952L213.7986875,126.60507869691804L214.060375,125.19230139513428L214.3220625,142.95903952649007L214.58374999999998,135.07587786190786L214.84543749999997,132.2680122978412L215.107125,153.78105440965066L215.3688125,138.47990843825616L215.63049999999998,144.56398700292294L215.89218749999998,119.55120963689227L216.153875,112.5106549076736L216.4155625,122.96151696919249L216.67725,138.99542664679197L216.93893749999998,128.81576482349863L217.200625,130.7205066486047L217.4623125,137.75513333053544L217.724,137.27439088603626L217.98568749999998,126.90170296682761L218.24737499999998,151.14998413822974L218.5090625,122.30962197224682L218.77075,127.33505273381105L219.0324375,121.62643829790446L219.29412499999998,132.77119889998664L219.5558125,126.3070912931401L219.8175,137.37091978438772L220.0791875,143.4419376245485L220.34087499999998,132.69524381281093L220.6025625,127.15553117342867L220.86425,156.56327403651983L221.1259375,145.86745998893792L221.38762499999999,155.07038884438003L221.64931249999998,120.32207768983565L221.911,130.70142277444785L222.1726875,137.17259965693722L222.434375,138.4444035561039L222.69606249999998,130.1641895263814L222.95775,147.32484029892547L223.2194375,124.23728346681365L223.481125,139.22430633352354L223.74281249999999,143.24872132390738L224.0045,121.01781487608186L224.2661875,132.83422006580693L224.527875,152.54951051078166L224.7895625,141.77270095078993L225.05125,123.78960494381877L225.3129375,141.18623637952484L225.574625,130.9832110757438L225.8363125,135.08732184624444L226.09799999999998,141.6928783675226L226.3596875,138.100608514192L226.621375,137.58772147102997L226.8830625,148.05760400513046L227.14475,114.76908242043393L227.4064375,140.94492998404L227.668125,156.9270088738547L227.9298125,124.73828271461221L228.1915,132.33578858180687L228.4531875,149.730676474193L228.714875,150.35194851028234L228.9765625,131.54672427676044L229.23825,119.49031242384359L229.4999375,126.27222042674056L229.761625,122.3045815470127L230.0233125,118.94401275051328L230.285,130.2261645662097L230.5466875,128.94038061969556L230.808375,115.6158421589778L231.0700625,133.40847983383216L231.33175,138.26871779102547L231.5934375,144.27129363068022L231.85512500000002,142.0365149054963L232.1168125,142.03055515742074L232.3785,111.34907464711712L232.6401875,135.23866140641846L232.901875,142.7637626746526L233.1635625,123.47890552419882L233.42525,109.36248138833504L233.6869375,149.81902656933437L233.948625,132.79243842770273L234.21031250000001,128.4005796078306L234.472,120.6046585108225L234.7336875,140.88986571591636L234.995375,113.04119928954884L235.25706250000002,122.76069247951874L235.51875,143.95000614798988L235.7804375,133.2265173128018L236.042125,125.11352493785895L236.30381250000002,150.5677991732955L236.56550000000001,119.12556316130437L236.8271875,125.14145333176621L237.088875,132.86379690067128" style="fill: none;" fill="none"></path></g></g></g></g></g></g><g transform="translate(68, 177)" clip-path="url(#clip_1)"><clipPath id="clip_1"><rect width="261" height="23"></rect></clipPath><g><g><line x1="0" y1="0" x2="0" y2="5" style="visibility: inherit;" fill="rgb(0, 0, 0)" stroke="rgb(204, 204, 204)" stroke-width="1px"></line><line x1="26.168750000000003" y1="0" x2="26.168750000000003" y2="5" style="visibility: inherit;" fill="rgb(0, 0, 0)" stroke="rgb(204, 204, 204)" stroke-width="1px"></line><line x1="52.337500000000006" y1="0" x2="52.337500000000006" y2="5" style="visibility: inherit;" fill="rgb(0, 0, 0)" stroke="rgb(204, 204, 204)" stroke-width="1px"></line><line x1="78.50625" y1="0" x2="78.50625" y2="5" style="visibility: inherit;" fill="rgb(0, 0, 0)" stroke="rgb(204, 204, 204)" stroke-width="1px"></line><line x1="104.67500000000001" y1="0" x2="104.67500000000001" y2="5" style="visibility: inherit;" fill="rgb(0, 0, 0)" stroke="rgb(204, 204, 204)" stroke-width="1px"></line><line x1="130.84375" y1="0" x2="130.84375" y2="5" style="visibility: inherit;" fill="rgb(0, 0, 0)" stroke="rgb(204, 204, 204)" stroke-width="1px"></line><line x1="157.0125" y1="0" x2="157.0125" y2="5" style="visibility: inherit;" fill="rgb(0, 0, 0)" stroke="rgb(204, 204, 204)" stroke-width="1px"></line><line x1="183.18124999999998" y1="0" x2="183.18124999999998" y2="5" style="visibility: inherit;" fill="rgb(0, 0, 0)" stroke="rgb(204, 204, 204)" stroke-width="1px"></line><line x1="209.35000000000002" y1="0" x2="209.35000000000002" y2="5" style="visibility: inherit;" fill="rgb(0, 0, 0)" stroke="rgb(204, 204, 204)" stroke-width="1px"></line><line x1="235.51875" y1="0" x2="235.51875" y2="5" style="visibility: inherit;" fill="rgb(0, 0, 0)" stroke="rgb(204, 204, 204)" stroke-width="1px"></line><line x1="261.6875" y1="0" x2="261.6875" y2="5" style="visibility: inherit;" fill="rgb(0, 0, 0)" stroke="rgb(204, 204, 204)" stroke-width="1px"></line></g><g transform="translate(0, 8)"><text x="0" y="0" dx="0em" dy="0.95em" style="text-anchor: middle; visibility: hidden; font-family: &quot;Helvetica Neue&quot;, sans-serif; font-size: 12px; font-weight: 200;" fill="rgb(50, 49, 63)" stroke="none" stroke-width="1px">-100</text><text x="26.168750000000003" y="0" dx="0em" dy="0.95em" style="text-anchor: middle; visibility: inherit; font-family: &quot;Helvetica Neue&quot;, sans-serif; font-size: 12px; font-weight: 200;" fill="rgb(50, 49, 63)" stroke="none" stroke-width="1px">0</text><text x="52.337500000000006" y="0" dx="0em" dy="0.95em" style="text-anchor: middle; visibility: inherit; font-family: &quot;Helvetica Neue&quot;, sans-serif; font-size: 12px; font-weight: 200;" fill="rgb(50, 49, 63)" stroke="none" stroke-width="1px">100</text><text x="78.50625" y="0" dx="0em" dy="0.95em" style="text-anchor: middle; visibility: inherit; font-family: &quot;Helvetica Neue&quot;, sans-serif; font-size: 12px; font-weight: 200;" fill="rgb(50, 49, 63)" stroke="none" stroke-width="1px">200</text><text x="104.67500000000001" y="0" dx="0em" dy="0.95em" style="text-anchor: middle; visibility: inherit; font-family: &quot;Helvetica Neue&quot;, sans-serif; font-size: 12px; font-weight: 200;" fill="rgb(50, 49, 63)" stroke="none" stroke-width="1px">300</text><text x="130.84375" y="0" dx="0em" dy="0.95em" style="text-anchor: middle; visibility: inherit; font-family: &quot;Helvetica Neue&quot;, sans-serif; font-size: 12px; font-weight: 200;" fill="rgb(50, 49, 63)" stroke="none" stroke-width="1px">400</text><text x="157.0125" y="0" dx="0em" dy="0.95em" style="text-anchor: middle; visibility: inherit; font-family: &quot;Helvetica Neue&quot;, sans-serif; font-size: 12px; font-weight: 200;" fill="rgb(50, 49, 63)" stroke="none" stroke-width="1px">500</text><text x="183.18124999999998" y="0" dx="0em" dy="0.95em" style="text-anchor: middle; visibility: inherit; font-family: &quot;Helvetica Neue&quot;, sans-serif; font-size: 12px; font-weight: 200;" fill="rgb(50, 49, 63)" stroke="none" stroke-width="1px">600</text><text x="209.35000000000002" y="0" dx="0em" dy="0.95em" style="text-anchor: middle; visibility: inherit; font-family: &quot;Helvetica Neue&quot;, sans-serif; font-size: 12px; font-weight: 200;" fill="rgb(50, 49, 63)" stroke="none" stroke-width="1px">700</text><text x="235.51875" y="0" dx="0em" dy="0.95em" style="text-anchor: middle; visibility: inherit; font-family: &quot;Helvetica Neue&quot;, sans-serif; font-size: 12px; font-weight: 200;" fill="rgb(50, 49, 63)" stroke="none" stroke-width="1px">800</text><text x="261.6875" y="0" dx="0em" dy="0.95em" style="text-anchor: middle; visibility: hidden; font-family: &quot;Helvetica Neue&quot;, sans-serif; font-size: 12px; font-weight: 200;" fill="rgb(50, 49, 63)" stroke="none" stroke-width="1px">900</text></g><line x1="0" y1="0" x2="261.6875" y2="0" fill="rgb(0, 0, 0)" stroke="rgb(204, 204, 204)" stroke-width="1px"></line></g></g></g></g></svg>