<svg viewBox="0 0 330 200" xmlns="http://www.w3.org/2000/svg"><g><g><g><g><g><line x1="58.59375" y1="177" x2="53.59375" y2="177" style="visibility: inherit;" fill="rgb(0, 0, 0)" stroke="rgb(204, 204, 204)" stroke-width="1px"></line><line x1="58.59375" y1="159.3" x2="53.59375" y2="159.3" style="visibility: inherit;" fill="rgb(0, 0, 0)" stroke="rgb(204, 204, 204)" stroke-width="1px"></line><line x1="58.59375" y1="141.6" x2="53.59375" y2="141.6" style="visibility: inherit;" fill="rgb(0, 0, 0)" stroke="rgb(204, 204, 204)" stroke-width="1px"></line><line x1="58.59375" y1="123.9" x2="53.59375" y2="123.9" style="visibility: inherit;" fill="rgb(0, 0, 0)" stroke="rgb(204, 204, 204)" stroke-width="1px"></line><line x1="58.59375" y1="106.2" x2="53.59375" y2="106.2" style="visibility: inherit;" fill="rgb(0, 0, 0)" stroke="rgb(204, 204, 204)" stroke-width="1px"></line><line x1="58.59375" y1="88.49999999999999" x2="53.59375" y2="88.49999999999999" style="visibility: inherit;" fill="rgb(0, 0, 0)" stroke="rgb(204, 204, 204)" stroke-width="1px"></line><line x1="58.59375" y1="70.79999999999998" x2="53.59375" y2="70.79999999999998" style="visibility: inherit;" fill="rgb(0, 0, 0)" stroke="rgb(204, 204, 204)" stroke-width="1px"></line><line x1="58.59375" y1="53.10000000000001" x2="53.59375" y2="53.10000000000001" style="visibility: inherit;" fill="rgb(0, 0, 0)" stroke="rgb(204, 204, 204)" stroke-width="1px"></line><line x1="58.59375" y1="35.400000000000006" x2="53.59375" y2="35.400000000000006" style="visibility: inherit;" fill="rgb(0, 0, 0)" stroke="rgb(204, 204, 204)" stroke-width="1px"></line><line x1="58.59375" y1="17.69999999999999" x2="53.59375" y2="17.69999999999999" style="visibility: inherit;" fill="rgb(0, 0, 0)" stroke="rgb(204, 204, 204)" stroke-width="1px"></line><line x1="58.59375" y1="0" x2="53.59375" y2="0" style="visibility: inherit;" fill="rgb(0, 0, 0)" stroke="rgb(204, 204, 204)" stroke-width="1px"></line></g><g transform="translate(48.59375, 0)"><text x="0" y="177" dx="0em" dy="0.3em" style="text-anchor: end; visibility: hidden; font-family: &quot;Helvetica Neue&quot;, sans-serif; font-size: 12px; font-weight: 200;" fill="rgb(50, 49, 63)" stroke="none" stroke-width="1px">-0.02</text><text x="0" y="159.3" dx="0em" dy="0.3em" style="text-anchor: end; visibility: inherit; font-family: &quot;Helvetica Neue&quot;, sans-serif; font-size: 12px; font-weight: 200;" fill="rgb(50, 49, 63)" stroke="none" stroke-width="1px">0</text><text x="0" y="141.6" dx="0em" dy="0.3em" style="text-anchor: end; visibility: hidden; font-family: &quot;Helvetica Neue&quot;, sans-serif; font-size: 12px; font-weight: 200;" fill="rgb(50, 49, 63)" stroke="none" stroke-width="1px">0.02</text><text x="0" y="123.9" dx="0em" dy="0.3em" style="text-anchor: end; visibility: inherit; font-family: &quot;Helvetica Neue&quot;, sans-serif; font-size: 12px; font-weight: 200;" fill="rgb(50, 49, 63)" stroke="none" stroke-width="1px">0.04</text><text x="0" y="106.2" dx="0em" dy="0.3em" style="text-anchor: end; visibility: hidden; font-family: &quot;Helvetica Neue&quot;, sans-serif; font-size: 12px; font-weight: 200;" fill="rgb(50, 49, 63)" stroke="none" stroke-width="1px">0.06</text><text x="0" y="88.49999999999999" dx="0em" dy="0.3em" style="text-anchor: end; visibility: inherit; font-family: &quot;Helvetica Neue&quot;, sans-serif; font-size: 12px; font-weight: 200;" fill="rgb(50, 49, 63)" stroke="none" stroke-width="1px">0.08</text><text x="0" y="70.79999999999998" dx="0em" dy="0.3em" style="text-anchor: end; visibility: hidden; font-family: &quot;Helvetica Neue&quot;, sans-serif; font-size: 12px; font-weight: 200;" fill="rgb(50, 49, 63)" stroke="none" stroke-width="1px">0.1</text><text x="0" y="53.10000000000001" dx="0em" dy="0.3em" style="text-anchor: end; visibility: inherit; font-family: &quot;Helvetica Neue&quot;, sans-serif; font-size: 12px; font-weight: 200;" fill="rgb(50, 49, 63)" stroke="none" stroke-width="1px">0.12</text><text x="0" y="35.400000000000006" dx="0em" dy="0.3em" style="text-anchor: end; visibility: hidden; font-family: &quot;Helvetica Neue&quot;, sans-serif; font-size: 12px; font-weight: 200;" fill="rgb(50, 49, 63)" stroke="none" stroke-width="1px">0.14</text><text x="0" y="17.69999999999999" dx="0em" dy="0.3em" style="text-anchor: end; visibility: inherit; font-family: &quot;Helvetica Neue&quot;, sans-serif; font-size: 12px; font-weight: 200;" fill="rgb(50, 49, 63)" stroke="none" stroke-width="1px">0.16</text><text x="0" y="0" dx="0em" dy="0.3em" style="text-anchor: end; visibility: hidden; font-family: &quot;Helvetica Neue&quot;, sans-serif; font-size: 12px; font-weight: 200;" fill="rgb(50, 49, 63)" stroke="none" stroke-width="1px">0.18</text></g><line x1="58.59375" y1="0" x2="58.59375" y2="177" fill="rgb(0, 0, 0)" stroke="rgb(204, 204, 204)" stroke-width="1px"></line></g></g><g transform="translate(58, 0)" clip-path="url(#clip_0)"><clipPath id="clip_0"><rect width="271" height="177"></rect></clipPath><g><g><g><line x1="0" y1="0" x2="0" y2="177" fill="rgb(0, 0, 0)" stroke="rgb(60, 60, 60)" stroke-width="1px" opacity="0.25"></line><line x1="27.140625" y1="0" x2="27.140625" y2="177" fill="rgb(0, 0, 0)" stroke="rgb(60, 60, 60)" stroke-width="1px" opacity="0.25"></line><line x1="54.28125" y1="0" x2="54.28125" y2="177" fill="rgb(0, 0, 0)" stroke="rgb(60, 60, 60)" stroke-width="1px" opacity="0.25"></line><line x1="81.421875" y1="0" x2="81.421875" y2="177" fill="rgb(0, 0, 0)" stroke="rgb(60, 60, 60)" stroke-width="1px" opacity="0.25"></line><line x1="108.5625" y1="0" x2="108.5625" y2="177" fill="rgb(0, 0, 0)" stroke="rgb(60, 60, 60)" stroke-width="1px" opacity="0.25"></line><line x1="135.703125" y1="0" x2="135.703125" y2="177" fill="rgb(0, 0, 0)" stroke="rgb(60, 60, 60)" stroke-width="1px" opacity="0.25"></line><line x1="162.84375" y1="0" x2="162.84375" y2="177" fill="rgb(0, 0, 0)" stroke="rgb(60, 60, 60)" stroke-width="1px" opacity="0.25"></line><line x1="189.984375" y1="0" x2="189.984375" y2="177" fill="rgb(0, 0, 0)" stroke="rgb(60, 60, 60)" stroke-width="1px" opacity="0.25"></line><line x1="217.125" y1="0" x2="217.125" y2="177" fill="rgb(0, 0, 0)" stroke="rgb(60, 60, 60)" stroke-width="1px" opacity="0.25"></line><line x1="244.265625" y1="0" x2="244.265625" y2="177" fill="rgb(0, 0, 0)" stroke="rgb(60, 60, 60)" stroke-width="1px" opacity="0.25"></line><line x1="271.40625" y1="0" x2="271.40625" y2="177" fill="rgb(0, 0, 0)" stroke="rgb(60, 60, 60)" stroke-width="1px" opacity="0.25"></line></g><g><line x1="0" y1="177" x2="271.40625" y2="177" fill="rgb(0, 0, 0)" stroke="rgb(60, 60, 60)" stroke-width="1px" opacity="0.25"></line><line x1="0" y1="159.3" x2="271.40625" y2="159.3" fill="rgb(0, 0, 0)" stroke="rgb(60, 60, 60)" stroke-width="1px" opacity="0.25"></line><line x1="0" y1="141.6" x2="271.40625" y2="141.6" fill="rgb(0, 0, 0)" stroke="rgb(60, 60, 60)" stroke-width="1px" opacity="0.25"></line><line x1="0" y1="123.9" x2="271.40625" y2="123.9" fill="rgb(0, 0, 0)" stroke="rgb(60, 60, 60)" stroke-width="1px" opacity="0.25"></line><line x1="0" y1="106.2" x2="271.40625" y2="106.2" fill="rgb(0, 0, 0)" stroke="rgb(60, 60, 60)" stroke-width="1px" opacity="0.25"></line><line x1="0" y1="88.49999999999999" x2="271.40625" y2="88.49999999999999" fill="rgb(0, 0, 0)" stroke="rgb(60, 60, 60)" stroke-width="1px" opacity="0.25"></line><line x1="0" y1="70.79999999999998" x2="271.40625" y2="70.79999999999998" fill="rgb(0, 0, 0)" stroke="rgb(60, 60, 60)" stroke-width="1px" opacity="0.25"></line><line x1="0" y1="53.10000000000001" x2="271.40625" y2="53.10000000000001" fill="rgb(0, 0, 0)" stroke="rgb(60, 60, 60)" stroke-width="1px" opacity="0.25"></line><line x1="0" y1="35.400000000000006" x2="271.40625" y2="35.400000000000006" fill="rgb(0, 0, 0)" stroke="rgb(60, 60, 60)" stroke-width="1px" opacity="0.25"></line><line x1="0" y1="17.69999999999999" x2="271.40625" y2="17.69999999999999" fill="rgb(0, 0, 0)" stroke="rgb(60, 60, 60)" stroke-width="1px" opacity="0.25"></line><line x1="0" y1="0" x2="271.40625" y2="0" fill="rgb(0, 0, 0)" stroke="rgb(60, 60, 60)" stroke-width="1px" opacity="0.25"></line></g></g></g><g><g><line x1="0" y1="159.3" x2="271.40625" y2="159.3" fill="rgb(0, 0, 0)" stroke="rgb(153, 153, 153)" stroke-width="1.5px"></line></g></g><g><g><line x1="27.140625" y1="0" x2="27.140625" y2="177" fill="rgb(0, 0, 0)" stroke="rgb(153, 153, 153)" stroke-width="1.5px"></line></g></g><g><g><g><g><g><path stroke="rgb(0, 153, 136)" stroke-width="2px" d="M29.311875,-5.040991526842134L29.58328125,6.194399598240864L29.8546875,10.913622307777416L30.12609375,14.654581028223049L30.3975,18.438597026467335L30.66890625,20.180537554621708L30.9403125,23.088624778389942L31.211718750000003,24.95634794533254L31.483125,26.97510786652566L31.754531250000003,29.041184636950504L32.0259375,30.926605466008198L32.297343749999996,33.0286050617695L32.56875,34.62047152519227L32.84015625,36.2665651023388L33.1115625,38.18772413134576L33.382968749999996,39.487763795256626L33.654375,41.44943490922452L33.92578125,42.037440392375004L34.1971875,43.05622965395452L34.468593750000004,44.16361272633077L34.74,46.14283643960954L35.01140625,46.41539626121522L35.2828125,47.530230286717426L35.554218750000004,48.54671173095704L35.825625,49.76600416302681L36.09703125,51.30099941343069L36.3684375,51.810103918612L36.639843750000004,52.99682315737009L36.91125,53.71673688590526L37.18265625,54.53852426558733L37.454062500000006,55.163870233297345L37.725468750000005,55.87237015664577L37.996875,56.14771254658699L38.268281249999994,57.47241288721561L38.5396875,58.11402567028999L38.81109375,58.42766464054584L39.082499999999996,59.63738292753696L39.353906249999994,60.036417733132836L39.6253125,60.523024316132066L39.89671875,60.914964231848714L40.168124999999996,62.19816342294216L40.43953125,62.75002848654985L40.7109375,63.56758266985416L40.98234375,63.158716562390325L41.25375,64.54667747318744L41.52515625,64.74125284999609L41.7965625,66.07872531116008L42.06796875,66.27331387549638L42.339375,66.53956346511839L42.61078125,67.77936250269411L42.8821875,67.56363433152436L43.15359375,68.61596606969832L43.425000000000004,68.98004073947666L43.69640625,69.63660158514975L43.9678125,69.51561920642851L44.23921875,70.74617378711699L44.510625000000005,70.89098602831362L44.78203125,71.17664106488226L45.0534375,71.80093862414358L45.32484375,71.67624395638703L45.596250000000005,72.67688058614729L45.86765625,72.99855076074599L46.1390625,72.8328099131584L46.41046875000001,74.08530853986738L46.681875,73.4590856015682L46.953281249999996,74.1832720890641L47.224687499999995,74.65419210791586L47.49609375,75.06111964881418L47.7675,74.4610805466771L48.03890625,75.66094775050877L48.310312499999995,75.38883630484341L48.58171875,75.38974624425171L48.853125,75.49702018797396L49.12453125,76.54354941397904L49.395937499999995,76.24603219628332L49.66734375,77.04306658655403L49.93875,76.97425406724213L50.21015625,77.55985282659529L50.4815625,77.5083687186241L50.75296875,78.23651146441696L51.024375,77.93983165472744L51.29578125,78.24439760595558L51.5671875,78.62390827685593L51.83859375,78.18423610478638L52.11,79.30940915197132L52.381406250000005,79.3724785029888L52.6528125,79.31082021743057L52.92421875,79.22197584360836L53.195625,79.74880438596009L53.467031250000005,79.84140720516442L53.7384375,79.67098478525875L54.00984375,79.69409592747687L54.28125,80.91212895065544L54.552656250000005,80.22989198863505L54.824062500000004,80.42335301935671L55.09546875,81.43083397597073L55.36687499999999,80.60528815090655L55.63828125,81.38689972758291L55.9096875,81.08627025336025L56.181093749999995,81.3993949100375L56.4525,81.56198393851517L56.72390625,81.90131880640982L56.9953125,81.50289722084997L57.266718749999995,82.03722287267445L57.538125,82.05783497840164L57.80953125,82.28109982162712L58.0809375,82.71547720134257L58.352343749999996,82.34857380688189L58.62375,82.89292197972534L58.89515625,82.46333826631306L59.1665625,82.0682003751397L59.43796875,83.17979026883839L59.709375,83.23778242170809L59.98078125,82.9008872464299L60.2521875,83.2056510105729L60.52359375,84.25947293937205L60.795,82.9226664483547L61.06640625,83.51899326145647L61.3378125,83.84880014061926L61.609218750000004,83.2323293790221L61.880625,83.58931575268505L62.15203125,84.07201882749794L62.423437500000006,84.25378252118824L62.694843750000004,83.790676112473L62.96625,84.8208659917116L63.23765625,84.73926157057284L63.509062500000006,84.47769355326889L63.78046875,84.66523338407276L64.051875,84.86644868105648L64.32328125,84.60358169227837L64.59468749999999,84.78448819667099L64.86609374999999,84.66993473768233L65.1375,84.78480469733475L65.40890625,85.01468967944382L65.6803125,85.57942577004431L65.95171875,84.58585106134413L66.223125,85.17464120239018L66.49453125,85.28657693713902L66.76593749999999,84.77010060399769L67.03734375,85.0527884468436L67.30875,85.44010613411663L67.58015625,85.27183328121899L67.8515625,85.77433083504437L68.12296875,85.26442848443983L68.394375,85.48351288139818L68.66578125,86.62534836977719L68.93718750000001,86.12066828012465L69.20859375,85.89443624317644L69.48,86.38658818155525L69.75140625,85.96559614241121L70.0228125,85.96141569614409L70.29421875,85.74244339317082L70.565625,85.83879147022961L70.83703125000001,86.20362442284821L71.10843750000001,86.15839779675005L71.37984375,86.00814570039509L71.65125,86.50389783382414L71.92265625,86.60604182928799L72.1940625,86.75663020759819L72.46546875,86.10400583893059L72.736875,86.93034291565417L73.00828125000001,86.61047943234442L73.27968750000001,86.89247492998837L73.55109375,86.18381675630806L73.8225,86.61100033968685L74.09390625,86.86427340209482L74.3653125,87.27158997505902L74.63671875,87.16053780466316L74.90812500000001,87.44573127776383L75.17953125000001,87.28249606043099L75.45093750000001,87.89546553343533L75.72234375000001,87.72340786010025L75.99375,87.57603723853825L76.26515625,87.0939276024699L76.53656249999999,87.66394529789684L76.80796874999999,88.09594232887028L77.079375,87.27514401376246L77.35078125,87.81262807846068L77.6221875,87.96642761975525L77.89359375,87.53094908148049L78.16499999999999,87.49946385920046L78.43640624999999,88.22214037477968L78.70781249999999,88.00148006826637L78.97921875,88.82500160783529L79.250625,87.5301116734743L79.52203125,88.58173787891864L79.7934375,88.11352130323647L80.06484375,88.85100081861019L80.33624999999999,88.75105914026499L80.60765624999999,88.68394781202078L80.8790625,88.65792222619056L81.15046875,88.36859446316956L81.421875,88.22630763351916L81.69328125,88.37846532762049L81.9646875,87.9830175295472L82.23609375,88.3898000076413L82.5075,88.52076534479856L82.77890624999999,88.67076028436422L83.0503125,88.5555870115757L83.32171875,89.13993954956531L83.593125,88.89926716983318L83.86453125,89.09823399335146L84.1359375,89.17479418516159L84.40734375,89.59570709913969L84.67875,88.72071463912725L84.95015625,88.94552901685238L85.2215625,89.33961190581321L85.49296875,89.54959690868854L85.764375,89.70583614259958L86.03578125,89.19067856222391L86.3071875,89.56775613427162L86.57859375,89.34257909953594L86.85000000000001,89.78217874020338L87.12140625,89.75208480209112L87.3928125,89.4929235085845L87.66421875,89.93016917556524L87.935625,89.7685428366065L88.20703125,89.59029361903667L88.4784375,90.1388090506196L88.74984375,89.94530845731497L89.02125000000001,90.57729434520006L89.29265625000001,89.50599894225597L89.5640625,90.26907544881105L89.83546875,90.29567469209432L90.106875,89.9247029453516L90.37828125,90.35819016695022L90.6496875,90.32828085422516L90.92109375000001,90.30698299705982L91.19250000000001,90.55478982925415L91.46390625000001,90.71801845282316L91.7353125,90.18856559246778L92.00671875,90.59738554358482L92.278125,90.5784944102168L92.54953125,90.29415153264999L92.82093750000001,90.63965156972408L93.09234375000001,90.58394085913896L93.36375,90.9707244515419L93.63515625,90.85668530613184L93.90656249999999,90.83791945427656L94.17796874999999,91.00373283326626L94.44937499999999,91.21799718886614L94.72078124999999,90.34680273681879L94.9921875,90.57465024590492L95.26359375,91.21771365702152L95.535,91.27853453457355L95.80640625,91.24124020636081L96.0778125,91.86962589919567L96.34921874999999,90.81630509644746L96.62062499999999,91.03985347151756L96.89203125,91.25057697594166L97.1634375,91.17116168439388L97.43484375,91.24987803697586L97.70625,90.92477910518646L97.97765625,91.81096777617931L98.2490625,90.74898276776075L98.52046874999999,91.9977888867259L98.79187499999999,91.41913995444774L99.06328125,90.98083269149065L99.3346875,91.88667077869177L99.60609375,91.55056685507297L99.8775,91.39308139979839L100.14890625,91.85838353186845L100.4203125,91.94654874801635L100.69171874999999,92.02103190422058L100.963125,92.76983291208744L101.23453125,92.15787228494882L101.5059375,91.66620169132948L101.77734375,91.93037424534559L102.04875,91.79288767576217L102.32015625,92.05674372911453L102.5915625,92.16277145147323L102.86296875000001,91.95703942626714L103.134375,92.38798804879188L103.40578125,91.54528525024652L103.6771875,92.11521063297987L103.94859375,92.56346788555383L104.22,92.4852526590228L104.49140625,92.45554775297641L104.76281250000001,92.15597987473011L105.03421875000001,92.40447245836258L105.305625,92.6398962020874L105.57703125,92.53386188596487L105.8484375,92.51218818426132L106.11984375,92.44766820520162L106.39125,92.26581879258156L106.66265625,93.09083052277565L106.93406250000001,93.05583741813898L107.20546875000001,92.85396274477243L107.476875,93.22403114587068L107.74828125,92.98991296738386L108.0196875,93.11618354469537L108.29109375,92.90501166433096L108.5625,93.23721207976341L108.83390625000001,92.9874732747674L109.10531250000001,92.65952583700418L109.37671875000001,93.13952546864748L109.64812500000001,93.84279653728008L109.91953125,93.52888722270727L110.1909375,93.41590307950973L110.46234374999999,93.47266879230737L110.73374999999999,93.31379864662885L111.00515625,93.79917878955602L111.2765625,93.77423458099365L111.54796875,94.14167866408825L111.819375,93.62298023253679L112.09078124999999,94.10054676532745L112.36218749999999,93.37194904983043L112.63359374999999,94.19223305135965L112.905,93.74956731051206L113.17640625,94.61193930655718L113.4478125,93.98902643769979L113.71921875,93.96890886425972L113.990625,94.19357158541679L114.26203124999999,93.49789653271436L114.53343749999999,93.72716170102358L114.80484375,94.12832629233598L115.07625,93.69498413354158L115.34765625,94.9386998668313L115.6190625,94.62063648104667L115.89046875,94.40955031961202L116.161875,94.62655768096447L116.43328125,94.65527352243662L116.70468749999999,94.15987085849046L116.97609375,94.50202126353979L117.2475,94.38066304028034L117.51890625,94.39586825966835L117.7903125,94.39017784148454L118.06171875,94.08458326309919L118.333125,95.06171971857547L118.60453125,94.64383334219455L118.8759375,94.42011352926492L119.14734375,95.1918872103095L119.41875,94.5639564871788L119.69015625,94.95097086131572L119.9615625,95.07516440302133L120.23296875,94.5356033027172L120.504375,94.75345466583967L120.77578125000001,95.08047897666692L121.0471875,95.2461011365056L121.31859375,94.96487051546573L121.59,95.47096167057752L121.86140625,94.71120182722807L122.1328125,95.34694616049528L122.40421875,95.74046198576688L122.675625,95.74606009125709L122.94703125000001,95.51316835284233L123.21843750000001,95.49371015578508L123.48984375,95.13358515053987L123.76125,95.81741780340671L124.03265625,95.88570282161236L124.3040625,95.36591641902923L124.57546875,95.70883829444647L124.84687500000001,95.57282872796058L125.11828125000001,95.79975970387459L125.38968750000001,96.02421801835298L125.66109375,95.70768438577652L125.9325,96.32821690589189L126.20390625,96.21380191594362L126.4753125,96.97014618963003L126.74671875000001,96.12739723473787L127.01812500000001,95.87397251576185L127.28953125,96.02194976359606L127.5609375,95.88571600914001L127.83234374999999,96.39327097982168L128.10375,96.06753904670477L128.37515625,96.07094142884016L128.6465625,96.38751462399959L128.91796875,96.21789004951715L129.18937499999998,96.4685453876853L129.46078125,96.40242312401533L129.73218749999998,96.39606673568487L130.00359375,96.67609729170799L130.275,96.3319489762187L130.54640625,96.62731003314256L130.8178125,97.17352424114942L131.08921875,96.91450801044702L131.360625,96.92008633464575L131.63203124999998,96.36544529646635L131.9034375,96.53576221615076L132.17484375,96.94653392136097L132.44625,96.46226812452078L132.71765625,96.94976486563682L132.9890625,96.94627676457166L133.26046875,97.2918097704649L133.53187499999999,97.43823089003563L133.80328125,97.49042053073644L134.0746875,97.18272254168987L134.34609375,98.10313944071531L134.6175,97.2068623110652L134.88890625,97.74654869288206L135.1603125,97.5668950036168L135.43171875,97.31449231803417L135.703125,98.05884253531694L135.97453125,97.01040111780166L136.2459375,97.78394852131605L136.51734375,97.9221208423376L136.78875,97.17506718188524L137.06015625,98.78303561657667L137.3315625,98.10219653248787L137.60296875,98.12764846086502L137.87437500000001,97.92966410815716L138.14578125,98.39956868737936L138.4171875,98.6773178011179L138.68859375,98.02535940259695L138.96,97.89978776425123L139.23140625,98.33565533459186L139.5028125,98.95475041419267L139.77421875000002,99.01838023513555L140.045625,98.3671669319272L140.31703125,98.43370460271835L140.5884375,99.21073351353407L140.85984375,99.14833013266325L141.13125,98.62472594082355L141.40265625,98.89868364036083L141.67406250000002,98.92953586131334L141.94546875,98.72060586065054L142.21687500000002,99.27485127300024L142.48828125,98.57560899406671L142.7596875,99.40373298078775L143.03109375,99.08399477899074L143.3025,99.38809257298708L143.57390625,99.08479262441396L143.8453125,99.21376664489507L144.11671875000002,99.15231935977936L144.388125,99.47060033977031L144.65953125000001,99.80409972667694L144.9309375,99.54216905236244L145.20234375,99.7241569340229L145.47375,99.24988068938255L145.74515625,99.40357473045587L146.01656250000002,99.50479559898376L146.28796875,99.46308344900608L146.55937500000002,99.16122094094753L146.83078125,100.24394993036985L147.1021875,100.00888884365558L147.37359375,99.86356228888035L147.645,99.29322809278965L147.91640625000002,99.68394156843424L148.1878125,99.42984428554773L148.45921875000002,99.78867031931877L148.730625,99.98335119634866L149.00203125000002,99.74285025447607L149.2734375,100.04415229260921L149.54484375,100.36344871222973L149.81625000000003,100.06041910797357L150.08765625,100.39676700085401L150.35906250000002,100.15769031196832L150.63046875,99.91333201825618L150.90187500000002,100.03064167052507L151.17328125,100.58269135951996L151.44468750000001,100.24325758516788L151.71609375000003,100.59167206585407L151.9875,100.83153341263532L152.25890625000002,100.78642547428608L152.5303125,100.58473542630672L152.80171875,101.10563617497682L153.07312499999998,100.83729636222124L153.34453125,100.34594886302948L153.61593749999997,100.78026030510664L153.88734374999999,101.01032331883907L154.15875,100.99737976044416L154.43015624999998,100.77689748555422L154.7015625,100.57316996455192L154.97296874999998,101.25474755018949L155.244375,101.46870199888944L155.51578124999997,101.28974724858999L155.7871875,101.19214635640382L156.05859375,101.84047818481922L156.32999999999998,100.82676612138748L156.60140625,100.9354313492775L156.87281249999998,100.47652516812086L157.14421875,101.4398938447237L157.41562499999998,100.96006565093994L157.68703125,101.76786765754223L157.9584375,101.3137221738696L158.22984375,101.23116165697574L158.50125,100.78832447826862L158.77265624999998,101.05220690667629L159.0440625,101.69376693964004L159.31546874999998,101.32200394123792L159.586875,101.43070213794708L159.85828125,101.5173573821783L160.1296875,101.0101914435625L160.40109375,101.72560163140297L160.67249999999999,101.58343348950147L160.94390625,101.31163854449987L161.21531249999998,101.76458396315574L161.48671875,101.62050362974405L161.758125,101.77300419956445L162.02953125,101.7145109206438L162.3009375,101.8121645629406L162.57234375,101.30375240296125L162.84375,101.9102402061224L163.11515624999998,101.67932000309229L163.3865625,101.84846982657909L163.65796874999998,101.6469116538763L163.929375,102.12719481736421L164.20078125,101.220169852674L164.4721875,102.32424285560846L164.74359375,101.53270766437053L165.015,101.70483786910772L165.28640625,101.97134461551904L165.55781249999998,101.57738041430711L165.82921875,102.09863722622394L166.100625,102.1343028947711L166.37203125,102.44717039465904L166.6434375,102.09792509973049L166.91484375,102.08699923306703L167.18625,102.03665584623813L167.45765624999999,102.31434561610222L167.7290625,102.52108648717403L168.00046875,101.8079907104373L168.271875,102.26114053577184L168.54328125,102.62619108259678L168.8146875,102.4520827487111L169.08609375,102.4386050954461L169.3575,102.32747379988432L169.62890625,102.61943906843662L169.9003125,102.06064395904541L170.17171875,102.4515684351325L170.443125,102.58459102660417L170.71453125,102.45968535840511L170.9859375,101.93427447527647L171.25734375,102.18502212613821L171.52875,102.7934089332819L171.80015625000001,102.81319681853056L172.0715625,102.09927022755146L172.34296875,102.81760145276785L172.614375,102.67530143558979L172.88578125,102.74422604888677L173.1571875,102.82633818984031L173.42859375,102.83949934244156L173.70000000000002,102.53181454092264L173.97140625,102.34772984236479L174.2428125,102.48371303379535L174.51421875,102.8727846622467L174.785625,102.9316142231226L175.05703125,102.44907599240541L175.3284375,102.83406608104706L175.59984375000002,102.8507483035326L175.87125,102.48447791039943L176.14265625000002,102.83558264672756L176.4140625,102.7796279668808L176.68546875,102.9907734721899L176.956875,103.11276469677686L177.22828125,102.63779610693454L177.4996875,102.64622293710708L177.77109375,103.22264977097511L178.04250000000002,103.47087860405445L178.31390625,102.90027406364679L178.58531250000001,103.31392064988613L178.85671875,103.39524153918028L179.128125,103.23652964383363L179.39953125,102.84380507022142L179.6709375,103.07522639930248L179.94234375000002,103.34577512294054L180.21375,102.53333770036697L180.48515625000002,103.81973486691713L180.7565625,103.19586590230465L181.02796875,103.41678995937109L181.299375,103.19689452946186L181.57078125,102.73575965613126L181.84218750000002,103.4986383497715L182.11359375,103.3141250565648L182.38500000000002,103.48290562927723L182.65640625,103.02816011309623L182.92781250000002,103.56515623927116L183.19921875,103.16507302522659L183.470625,103.6636604771018L183.74203125000003,103.4561547294259L184.0134375,103.46551128029823L184.28484375000002,102.9658226698637L184.55625,103.79822600930929L184.82765625000002,103.139330971241L185.0990625,104.04872639402747L185.37046875000001,103.41094788461923L185.64187500000003,104.15574647784233L185.91328125,103.0079831957817L186.18468750000002,103.1944086804986L186.45609375,103.6775337561965L186.7275,103.48969061225652L186.99890624999998,103.82783200889826L187.2703125,103.71364120692014L187.54171874999997,103.99795111566782L187.81312499999999,103.73914588540792L188.08453125,103.75414669811725L188.35593749999998,103.8960708707571L188.62734375,103.65171257704496L188.89874999999998,103.82099427580833L189.17015625,103.68606608659029L189.44156249999997,103.82636159956455L189.71296875,103.71089820116758L189.984375,104.41460775509476L190.25578124999998,104.14810760244727L190.5271875,103.65284670442342L190.79859374999998,104.38211368694901L191.07,104.51317793056369L191.34140624999998,103.65829315334558L191.6128125,103.90681870579719L191.88421875,103.63245878666639L192.155625,103.57230387926101L192.42703125,103.84167891293764L192.69843749999998,104.40455885902047L192.96984375,104.20672945976257L193.24124999999998,104.34213239997625L193.51265625,103.89309048950672L193.7840625,103.88232287317514L194.05546875,103.74082729518413L194.326875,103.99363549724221L194.59828124999999,104.26281271800399L194.8696875,104.53224050179124L195.14109374999998,103.83841499984264L195.4125,103.93138047605753L195.68390625,104.10178641155362L195.9553125,103.95780828148126L196.22671875,104.5358011342585L196.498125,104.66303110420704L196.76953125,103.87877542823553L197.04093749999998,103.96522626578808L197.31234375,104.57848916128277L197.58374999999998,104.38368629962206L197.85515625,104.33441439941525L198.1265625,104.73620869517326L198.39796875,104.29732118099928L198.669375,103.99146944582462L198.94078125,104.52268613800406L199.2121875,104.48782161176204L199.48359374999998,104.31923225820064L199.755,104.72277060449123L200.02640625,104.61269760802388L200.2978125,104.31549359411001L200.56921875,105.07842833474278L200.840625,104.70273545309901L201.11203125,104.80468493252992L201.38343749999999,104.1305813781917L201.65484375,104.63534059301018L201.92625,104.92858834862709L202.19765625,105.05041143223643L202.4690625,104.96491669043898L202.74046875,104.62982820644974L203.011875,104.51363619714975L203.28328125,104.83260292857885L203.5546875,104.80480032339692L203.82609375,104.7111029393971L204.0975,104.60162338167429L204.36890625,105.01502270177006L204.6403125,104.73137876316905L204.91171875,105.34750335216522L205.183125,105.06160434633493L205.45453125,105.05580513104796L205.72593750000001,104.77142598778009L205.99734375,105.35665219947695L206.26875,104.49856285303831L206.54015625,104.96861249506473L206.8115625,105.02494301944971L207.08296875,105.05049055740237L207.354375,105.601129180938L207.62578125000002,105.04177360162139L207.8971875,104.41519130319357L208.16859375,105.15881950333714L208.44,105.20216031298041L208.71140625,105.15810407996177L208.9828125,105.68680195435881L209.25421875,104.94325617626309L209.52562500000002,104.81561739295721L209.79703125,104.94797071740031L210.06843750000002,105.35852153152227L210.33984375,105.32449441328644L210.61125,104.97849984392523L210.88265625,105.32598130702972L211.1540625,104.79522288143635L211.42546875,105.66320617049932L211.696875,105.00529030635953L211.96828125000002,105.6941210322082L212.2396875,105.11663589924574L212.51109375000001,105.59067147150635L212.7825,104.95868888050317L213.05390625,104.97871743813157L213.3253125,106.12462127879262L213.59671875,105.30613078102469L213.86812500000002,105.40793190076947L214.13953125,105.40993310809135L214.41093750000002,105.72484137788415L214.68234375,105.29723249673843L214.95375,104.94511232078075L215.22515625,105.60583053454756L215.4965625,105.96735012084245L215.76796875000002,105.35157170444727L216.039375,106.09166564717889L216.31078125000002,105.85255928635597L216.5821875,105.60988240242004L216.85359375000002,105.56402607187628L217.125,105.70360616147518L217.39640625,105.65270230472088L217.66781250000003,105.81080098003149L217.93921875,105.84895909130573L218.21062500000002,105.36080627068877L218.48203125,105.95427468717098L218.75343750000002,105.96398400440812L219.02484375,105.58471730276942L219.29625000000001,105.92310926243663L219.56765625000003,106.22014843225479L219.8390625,105.73988175317645L220.11046875000002,105.39465535730123L220.381875,105.3887704230845L220.65328125,106.22856537178158L220.92468749999998,105.84033115133643L221.19609375,106.12533010840416L221.46749999999997,106.04469826743006L221.73890624999999,105.99172396883368L222.0103125,106.09594829678535L222.28171874999998,105.86475115567445L222.553125,106.20086167305708L222.82453124999998,106.04930730834603L223.0959375,106.19350632950663L223.36734374999997,105.8973144583404L223.63875,105.3855295881629L223.91015625,105.74002681598067L224.18156249999998,106.23615149706602L224.45296875,105.82476657181978L224.72437499999998,105.96670063510537L224.99578125,106.13346681296825L225.26718749999998,106.08904462605715L225.53859375,106.27479095309972L225.81,105.77648703306913L226.08140625,106.16421683058142L226.3528125,105.83683315962553L226.62421874999998,106.26358155459165L226.895625,106.32853672206402L227.16703124999998,105.94123222231865L227.4384375,105.93463186472654L227.70984375,106.56124053820967L227.98125,106.20831921994686L228.25265625,106.1394704349339L228.52406249999999,106.06894683390856L228.79546875,106.4066266670823L229.06687499999998,106.5258748859167L229.33828125,105.79876736104488L229.6096875,105.82757551521063L229.88109375,106.47743379995227L230.1525,106.2421155564487L230.42390625,106.03527248203754L230.6953125,106.47508971691131L230.96671874999998,106.17347117811441L231.238125,106.0986418493092L231.50953124999998,106.38401335403323L231.7809375,106.83748957067728L232.05234375,106.5915817424655L232.32375,106.91643011122942L232.59515625,106.42750252336263L232.8665625,105.99555494561791L233.13796875,106.5590085491538L233.40937499999998,106.92682188302278L233.68078125,105.90859309136867L233.9521875,106.51817007288336L234.22359375,106.82480316907167L234.495,106.0324404604733L234.76640625,106.2967514835298L235.0378125,106.85629498511553L235.30921874999999,106.43170604780316L235.580625,106.709596927464L235.85203125,107.03780152201652L236.1234375,106.36746630370617L236.39484375,106.83643786534667L236.66625,107.00978132262826L236.93765625,106.42554087862372L237.2090625,106.75889190584421L237.48046875,106.32559920027852L237.751875,106.4400405652821L238.02328125,106.45022793039679L238.2946875,106.65453570261597L238.56609375,107.09505187645554L238.8375,106.6696057498455L239.10890625,106.71910183802247L239.3803125,106.58728920221328L239.65171875000001,107.39615280479192L239.923125,107.25438688248396L240.19453125,106.31111270114779L240.4659375,106.70538021549582L240.73734375,106.37308089360594L241.00875,107.55442621484399L241.28015625,106.87397945970297L241.55156250000002,106.77990952804684L241.82296875,106.68120088353753L242.094375,107.09356168583035L242.36578125,106.87619166746735L242.6371875,106.96144573688507L242.90859375,107.00879225805402L243.18,106.99742460921406L243.45140625000002,106.83274206072092L243.7228125,106.91636087670922L243.99421875000002,106.79900506809354L244.265625,107.6397264406085L244.53703125,107.14509195014834L244.8084375,107.06755588129163L245.07984375,106.98730318173766L245.35125,107.5145801000297L245.62265625,107.40956122353673L245.89406250000002,107.06068188250065" style="fill: none;" fill="none"></path></g><g><path stroke="rgb(51, 187, 238)" stroke-width="2px" d="M37.996875,-34.104456228017824L40.7109375,38.328316363692295L43.425000000000004,1.7132908880710715L46.1390625,22.13035308122636L48.853125,27.733628082275402L51.5671875,34.00333479344846L54.28125,39.73218143284322L56.9953125,19.100465852022182L59.709375,-43.37618492245676L62.423437500000006,8.715459260344517L65.1375,43.57708424627782L67.8515625,21.435027498006832L70.565625,41.80657953321935L73.27968750000001,34.479470479488384L75.99375,42.272336634993565L78.70781249999999,-2.437206503748911L81.421875,17.378359365463268L84.1359375,23.356133776903164L86.85000000000001,0.28098032176495735L89.5640625,31.40577428340913L92.278125,29.26323622763158L94.9921875,28.564178574085247L97.70625,49.09221381247043L100.4203125,35.78532584309579L103.134375,50.06877661049366L105.8484375,52.96792269051075L108.5625,41.09643116891385L111.2765625,63.76156460791826L113.990625,21.163971054553997L116.70468749999999,35.837034139037144L119.41875,-5.192555782198923L122.1328125,21.12804822921754L124.84687500000001,31.545206013321888L127.5609375,55.72035752534866L130.275,55.88723250031471L132.9890625,46.830091255903255L135.703125,63.585214394330976L138.4171875,25.431560504436504L141.13125,56.873362849652764L143.8453125,-31.815246489644068L146.55937500000002,20.81406638324262L149.2734375,50.05823977589607L151.9875,36.80735923647882L154.7015625,46.30346052646638L157.41562499999998,42.208865064382564L160.1296875,50.699832777678964L162.84375,31.65257886350156L163.3865625,51.95386115759611L163.929375,33.772170621156704L164.4721875,68.50269180089234L165.015,26.862961131334316L165.55781249999998,56.971023085713384L166.100625,11.998072269558918L166.6434375,62.35711928755045L167.18625,44.44364987611772L167.7290625,39.94741507172586L168.271875,16.087181720137607L168.8146875,31.93992190361024L169.3575,52.9487216502428L169.9003125,18.900305557250988L170.443125,11.283018144965183L170.9859375,36.00690268278123L171.52875,42.081460359692585L172.0715625,46.059095638990414L172.614375,54.455304372310636L173.1571875,71.29452437460421L173.70000000000002,58.9982230246067L174.2428125,23.184814605116856L174.785625,49.15252697020769L175.3284375,67.51748457849024L175.87125,53.02639618813991L176.4140625,62.847715097665784L176.956875,43.00097391307355L177.4996875,40.35407886207105L178.04250000000002,61.887214708328244L178.58531250000001,22.56439417898656L179.128125,62.13460613340139L179.6709375,39.54315141141416L180.21375,60.55243909657001L180.7565625,37.87535116374494L181.299375,59.16105602234602L181.84218750000002,42.34977379739286L182.38500000000002,46.75399922132493L182.92781250000002,29.61439371407033L183.470625,34.243229109048855L184.0134375,62.783162149786946L184.55625,46.476639139652264L185.0990625,15.547389838099491L185.64187500000003,54.30542152673006L186.18468750000002,48.63847054839135L186.7275,73.08719072788952L187.2703125,41.565458777546894L187.81312499999999,73.54818713217972L188.35593749999998,62.02027026861906L188.89874999999998,33.07134583890439L189.44156249999997,37.01731786429883L189.984375,61.402296128869054L190.5271875,-0.45157365202905453L191.07,10.649265128374111L191.6128125,51.22443922162056L192.155625,56.35817230045795L192.69843749999998,73.16697527021168L193.24124999999998,51.75478883385658L193.7840625,63.873632217943666L194.326875,67.25467693358658L194.8696875,14.80498478114606L195.4125,52.693180333077905L195.9553125,-3.2431358814239672L196.498125,60.8133873000741L197.04093749999998,46.774466264247906L197.58374999999998,64.14726682305336L198.1265625,55.000180046260354L198.669375,38.68511811196805L199.2121875,64.29662216752767L199.755,32.797968390584L200.2978125,66.84474923014639L200.840625,60.342144186794755L201.38343749999999,22.108778285980236L201.92625,46.7085681885481L202.4690625,66.14541463851928L203.011875,42.840903702378284L203.5546875,45.396461936831486L204.0975,36.7692077189684L204.6403125,23.693470734357845L205.183125,63.363525460660455L205.72593750000001,49.21169940680265L206.26875,38.28607671260835L206.8115625,53.27164463996887L207.354375,59.91197362840175L207.8971875,65.07597867697477L208.44,24.83487762808801L208.9828125,37.976578626036655L209.52562500000002,58.7782880321145L210.06843750000002,42.83648588061334L210.61125,57.387643459439275L211.1540625,58.37205283641815L211.696875,26.324646252393734L212.2396875,58.26741639822721L212.7825,58.93667683303356L213.3253125,43.98294359743596L213.86812500000002,69.65847969353197L214.41093750000002,47.78674088716508L214.95375,50.268237966299054L215.4965625,60.888932052254674L216.039375,38.93984839618207L216.5821875,52.09444020241499L217.125,48.572928535938274L217.66781250000003,67.1905327990651L218.21062500000002,41.24220609962941L218.75343750000002,40.07132508158685L219.29625000000001,25.818060564994823L219.8390625,41.60532467365266L220.381875,59.96182907670736L220.92468749999998,56.11643832474947L221.46749999999997,69.95246265381573L222.0103125,63.91566086858511L222.553125,42.11271480023862L223.0959375,30.053947198390972L223.63875,53.508894856274125L224.18156249999998,53.591396029293534L224.72437499999998,47.69892514050008L225.26718749999998,51.330987851321694L225.81,75.42109959125517L226.3528125,30.579852613806736L226.895625,65.07564239501953L227.4384375,30.81499941945077L227.98125,47.431890892982494L228.52406249999999,71.77853960841892L229.06687499999998,63.05962547957897L229.6096875,59.249491582810876L230.1525,51.930103826522824L230.6953125,54.77216109931469L231.238125,45.42623937427999L231.7809375,56.90403703898191L232.32375,50.00004981011152L232.8665625,30.051138255000126L233.40937499999998,45.33405855596067L233.9521875,58.468849289417264L234.495,46.856004747748386L235.0378125,43.838645669817936L235.580625,43.4047364473343L236.1234375,63.483617681264874L236.66625,58.249797861278054L237.2090625,43.73752370774747L237.751875,54.13858611434698L238.2946875,56.341740640997884L238.8375,48.12145352661611L239.3803125,14.394747170805942L239.923125,47.77462154924871L240.4659375,38.978421914577495L241.00875,57.74490677118301L241.55156250000002,27.872347685694706L242.094375,27.349303963780415L242.6371875,34.82156813442708L243.18,64.6417331725359L243.7228125,52.732881385087964L244.265625,54.86831795722246L244.8084375,50.57907458692789L245.35125,55.435750897228715L245.89406250000002,-11.83214626908304" style="fill: none;" fill="none"></path></g><g><path stroke="rgb(187, 187, 187)" stroke-width="2px" d="M35.2828125,-59.28201809227471L37.996875,20.6660627603531L40.7109375,35.901231023669254L43.425000000000004,44.84414190351964L46.1390625,50.10313671380281L48.853125,24.747563007473957L51.5671875,26.53647750914098L54.28125,46.08549706935884L56.9953125,49.24895417243242L59.709375,10.310029166936886L62.423437500000006,45.89906499087812L65.1375,53.014481256902215L67.8515625,54.05194405764341L70.565625,65.01956243366003L73.27968750000001,29.539501744508755L75.99375,42.97881886661054L78.70781249999999,38.92699055671693L81.421875,36.13250069618226L84.1359375,51.32768437564373L86.85000000000001,41.44112676680089L89.5640625,32.50528440177442L92.278125,66.8202204287052L94.9921875,55.992376658320424L97.70625,53.77523016482591L100.4203125,54.09138135910034L103.134375,58.793862502276895L105.8484375,61.01278271824121L108.5625,61.70319594740867L111.2765625,58.34100939631462L113.990625,62.03793496191501L116.70468749999999,66.01051941812038L119.41875,50.56075711101293L122.1328125,59.2640703946352L124.84687500000001,75.23814902007578L127.5609375,60.041976276040074L130.275,60.33208869695663L132.9890625,65.79452749639749L135.703125,47.35098541080953L138.4171875,65.34000616818666L141.13125,69.83692672401665L143.8453125,44.57502402663232L146.55937500000002,64.91375230550766L149.2734375,73.08627419471739L151.9875,64.73938022106886L154.7015625,43.797606083750736L157.41562499999998,54.85134560912847L160.1296875,74.77214135527609L162.84375,72.1120060265064L163.3865625,75.8499250218272L163.929375,40.983532744646084L164.4721875,71.62497084885834L165.015,49.48247231841087L165.55781249999998,75.8560110658407L166.100625,59.16119449138641L166.6434375,81.46258294880388L167.18625,60.5886718288064L167.7290625,69.8524220690131L168.271875,57.61934172660112L168.8146875,73.35061159282921L169.3575,67.13540233969687L169.9003125,63.52981359064579L170.443125,49.2990140274167L170.9859375,58.38473264425993L171.52875,65.83801996260881L172.0715625,69.0005935013294L172.614375,49.30732876360416L173.1571875,78.96192439198492L173.70000000000002,75.60133353173731L174.2428125,28.923512327671062L174.785625,76.95810593962668L175.3284375,57.511718313395974L175.87125,59.080519790947434L176.4140625,57.922674643993375L176.956875,56.512934531271455L177.4996875,70.20632256120442L178.04250000000002,65.65729148983955L178.58531250000001,60.111758078634736L179.128125,73.96357447206972L179.6709375,64.30330824404955L180.21375,61.05643343478441L180.7565625,65.15033655166626L181.299375,68.94869398623703L181.84218750000002,67.33884632885454L182.38500000000002,53.362988050282L182.92781250000002,79.05275348871945L183.470625,55.251692573726174L184.0134375,54.75733172446489L184.55625,74.2144012480974L185.0990625,62.6745826408267L185.64187500000003,77.93873049616812L186.18468750000002,37.15953216254712L186.7275,67.0186795324087L187.2703125,77.67849441915749L187.81312499999999,70.00992071181534L188.35593749999998,77.29732211977242L188.89874999999998,65.07097401022911L189.44156249999997,73.31199191808699L189.984375,68.97683617025612L190.5271875,68.01052667498587L191.07,65.09206746071577L191.6128125,81.48277305364607L192.155625,72.9343143135309L192.69843749999998,78.71491540521382L193.24124999999998,68.27233866155146L193.7840625,69.21376988589762L194.326875,88.82258169651031L194.8696875,76.5495563328266L195.4125,75.81554513722656L195.9553125,53.229589614272115L196.498125,81.41185052990912L197.04093749999998,63.421946208178994L197.58374999999998,69.6211523965001L198.1265625,61.63414605259895L198.669375,61.520126688480374L199.2121875,76.30612116605042L199.755,65.98565433472395L200.2978125,54.80652120262384L200.840625,80.24099588692187L201.38343749999999,64.3240983814001L201.92625,41.32886134386064L202.4690625,61.549093092978L203.011875,41.291316452622425L203.5546875,48.26994508802892L204.0975,78.58858548402785L204.6403125,74.57705825865267L205.183125,72.55060341507195L205.72593750000001,66.14543441981077L206.26875,76.31702725142239L206.8115625,76.59378730058668L207.354375,59.325563836097714L207.8971875,73.8624393224716L208.44,39.935361671447765L208.9828125,66.60348341166971L209.52562500000002,75.67859266251324L210.06843750000002,48.387788835167896L210.61125,72.93698478788136L211.1540625,69.3682222098112L211.696875,64.63673509955406L212.2396875,73.98011822551487L212.7825,70.78852553218601L213.3253125,65.51475409716367L213.86812500000002,81.03121891915796L214.41093750000002,64.4796980202198L214.95375,46.0427694797516L215.4965625,62.866052354872224L216.039375,70.86043712049721L216.5821875,72.85485945940016L217.125,49.317727129161355L217.66781250000003,81.35113515257834L218.21062500000002,78.5444797977805L218.75343750000002,63.70054591745138L219.29625000000001,53.681816312670705L219.8390625,69.62308436930178L220.381875,67.38394107967613L220.92468749999998,44.93565015792848L221.46749999999997,79.48823202699421L222.0103125,73.94789450168608L222.553125,72.75930263400076L223.0959375,67.37831000536679L223.63875,76.20195947885512L224.18156249999998,84.65150516778229L224.72437499999998,47.25635171234609L225.26718749999998,58.01908865869045L225.81,83.10668520927427L226.3528125,56.17301281839609L226.895625,85.03892835527657L227.4384375,66.74488667696713L227.98125,47.90822439193727L228.52406249999999,75.76160155534743L229.06687499999998,80.26975129097698L229.6096875,84.52413343191145L230.1525,57.17957064807415L230.6953125,79.22427706718443L231.238125,59.08230010718107L231.7809375,75.8830125287175L232.32375,82.47580707371233L232.8665625,51.29860587716102L233.40937499999998,73.72496594041584L233.9521875,77.96347689181565L234.495,62.86961958110332L235.0378125,70.64547382593153L235.580625,50.33343710303306L236.1234375,84.25872125029562L236.66625,83.63994267135857L237.2090625,73.23628891557453L237.751875,67.22732600122688L238.2946875,45.501315969228756L238.8375,63.637819442152974L239.3803125,38.23700592219831L239.923125,61.06549326628446L240.4659375,77.66727842688559L241.00875,77.67867904454468L241.55156250000002,65.30596256554126L242.094375,69.08786196559666L242.6371875,61.967981721460816L243.18,77.39010956436394L243.7228125,75.43370686769484L244.265625,55.251072759926316L244.8084375,70.20135745704172L245.35125,67.07049992233513L245.89406250000002,53.76739677339792" style="fill: none;" fill="none"></path></g><g><path stroke="rgb(204, 51, 17)" stroke-width="2px" d="M35.825625,-15.206689533591287L36.3684375,8.346274423599255L36.91125,-39.61841210424902L37.454062500000006,-6.064159047603624L37.996875,21.03204302787782L38.5396875,27.495817396044743L39.082499999999996,-30.575843077898043L39.6253125,5.684517028927814L40.168124999999996,26.59206293821336L40.7109375,34.67237763404847L41.25375,16.960182863473904L41.7965625,41.03659935593606L42.339375,2.825592908263218L42.8821875,33.77872482240201L43.425000000000004,45.56805804669858L43.9678125,31.450822877883923L44.510625000000005,48.46666343808175L45.0534375,36.38674304187299L45.596250000000005,55.95800996124744L46.1390625,51.81147542148828L46.681875,42.59773887991906L47.224687499999995,46.16925105750562L47.7675,41.65167883336545L48.310312499999995,28.558666187524807L48.853125,24.11202967464925L49.395937499999995,27.06672162115575L49.93875,51.241141225397584L50.4815625,36.20244734287263L51.024375,19.874626475572597L51.5671875,24.771353307366383L52.11,61.32563043683767L52.6528125,62.61645861268043L53.195625,62.944682988524434L53.7384375,56.23911530077457L54.28125,45.361818301677715L54.824062500000004,60.13830457180738L55.36687499999999,31.36795245409013L55.9096875,54.31192297786474L56.4525,57.038932259380815L56.9953125,49.36264384835958L57.538125,27.050276774168026L58.0809375,59.486075828969476L58.62375,52.235817092657086L59.1665625,50.96404489427805L59.709375,8.915144804120075L60.2521875,29.743209484219562L60.795,72.53180459439753L61.3378125,33.98627013266088L61.880625,42.11689524650575L62.423437500000006,47.29387022852899L62.96625,39.601730409264576L63.509062500000006,43.69089260995389L64.051875,40.2622409194708L64.59468749999999,-4.632099044322985L65.1375,51.571666824817655L65.6803125,37.19931893348695L66.223125,44.38744463324548L66.76593749999999,53.60432640016079L67.30875,49.605267982184884L67.8515625,55.06698806136846L68.394375,45.88641815185548L68.93718750000001,51.089768189191815L69.48,35.066434147954L70.0228125,55.35866979807615L70.565625,65.74478414207697L71.10843750000001,28.56796339452268L71.65125,40.28079577088357L72.1940625,43.06100353896619L72.736875,63.46357923299074L73.27968750000001,28.814517411589634L73.8225,32.088176089525234L74.3653125,42.49173753261567L74.90812500000001,53.10724892020225L75.45093750000001,42.26003267169L75.99375,45.574744123220455L76.53656249999999,57.30819519907236L77.079375,46.39772497415544L77.6221875,39.04497936666013L78.16499999999999,43.36403973698617L78.70781249999999,39.69761692285539L79.250625,50.40474206507206L79.7934375,44.67800543010236L80.33624999999999,-17.184475806355493L80.8790625,49.62874837517738L81.421875,37.76350774168969L81.9646875,31.331212002038967L82.5075,50.788103494048116L83.0503125,50.145771990716455L83.593125,54.091928641498086L84.1359375,51.31717391610145L84.67875,48.785010355710995L85.2215625,53.71465325653553L85.764375,40.861640426516544L86.3071875,60.96046120226383L86.85000000000001,41.28548756539823L87.3928125,36.363796743750584L87.935625,56.699861142039296L88.4784375,30.856223630905163L89.02125000000001,64.47892654985189L89.5640625,33.0978132069111L90.106875,55.04104819446802L90.6496875,57.36503344327211L91.19250000000001,42.26909250319005L91.7353125,49.32501983195543L92.278125,66.50551326870917L92.82093750000001,34.36943374872209L93.36375,42.81570233702661L93.90656249999999,11.869309249520313L94.44937499999999,52.09997896403074L94.9921875,58.56272470504045L95.535,51.97862733453512L96.0778125,28.325761261582386L96.62062499999999,64.99558750838041L97.1634375,59.94150050282478L97.70625,55.087540823221204L98.2490625,64.60657522380352L98.79187499999999,37.43562624156476L99.3346875,68.67492091208695L99.8775,25.942155200243008L100.4203125,54.17444300204515L100.963125,57.94175040274858L101.5059375,58.39797951579094L102.04875,40.351494106650364L102.5915625,49.57293875813484L103.134375,59.823155629634854L103.6771875,20.22363439500333L104.22,48.69464282244445L104.76281250000001,52.89581988304853L105.305625,46.927217397093784L105.8484375,62.97573302239179L106.39125,55.76737765520811L106.93406250000001,48.92265517562629L107.476875,65.82152895927429L108.0196875,41.63607798814775L108.5625,62.757789346575734L109.10531250000001,45.82648083865644L109.64812500000001,71.16036106199024L110.1909375,58.89315799176693L110.73374999999999,66.98740531057118L111.2765625,59.38194051682949L111.819375,71.29327815324066L112.36218749999999,53.36037032604217L112.905,65.50022144168615L113.4478125,64.821584674716L113.990625,60.95351796895265L114.53343749999999,49.587583507597444L115.07625,47.27540768980981L115.6190625,47.03695081472398L116.161875,51.98911141902208L116.70468749999999,65.73306702375412L117.2475,41.887326765060436L117.7903125,32.675232070684444L118.333125,66.22180998623371L118.8759375,64.10997908860445L119.41875,50.94434272795915L119.9615625,70.35703622102736L120.504375,62.79866408854723L121.0471875,67.5126711308956L121.59,59.373909312486646L122.1328125,60.44227708429098L122.675625,69.03879776895045L123.21843750000001,59.92538534402847L123.76125,59.6095968067646L124.3040625,60.20625330805778L124.84687500000001,74.64628618508576L125.38968750000001,33.07419434487821L125.9325,66.50192626118658L126.4753125,71.19417388290165L127.01812500000001,59.29399289488792L127.5609375,62.22285706847906L128.10375,59.80534587353468L128.6465625,57.96448570042848L129.18937499999998,77.25509565621613L129.73218749999998,55.619769658148286L130.275,58.71537693142891L130.8178125,61.20309192985296L131.360625,55.3469988361001L131.9034375,60.89093655645847L132.44625,59.24944542646408L132.9890625,68.20793737024067L133.53187499999999,72.40087881982325L134.0746875,69.7191357269883L134.6175,45.37240788638593L135.1603125,75.90638742148874L135.703125,47.94371202886106L136.2459375,61.629721637070176L136.78875,39.96947780549527L137.3315625,77.04306658655403L137.87437500000001,85.12476597279309L138.4171875,65.7057094976306L138.96,71.52796339541672L139.5028125,78.45951255708931L140.045625,68.12422294467686L140.5884375,66.93236057013272L141.13125,71.03814564943312L141.67406250000002,57.08113234788179L142.21687500000002,80.00119388401507L142.7596875,54.03571021109819L143.3025,78.3343167632818L143.8453125,46.388243141770374L144.388125,60.90773746669292L144.9309375,73.82017329633234L145.47375,62.12439898699522L146.01656250000002,57.90795736312866L146.55937500000002,63.65057837516069L147.1021875,64.08165227919817L147.645,58.51621229499578L148.1878125,60.97271241545677L148.730625,60.82238119393587L149.2734375,72.40120191425083L149.81625000000003,60.911251942813394L150.35906250000002,76.11480310857294L150.90187500000002,63.70627589821815L151.44468750000001,54.432911950349805L151.9875,62.00180772989988L152.5303125,69.71433546692131L153.07312499999998,69.71147377341984L153.61593749999997,72.7718571603298L154.15875,51.04133040010929L154.7015625,46.310608166456234L155.244375,47.00135767757894L155.7871875,33.36975321471692L156.32999999999998,51.96716737300157L156.87281249999998,76.4140544861555L157.41562499999998,53.49968996196985L157.9584375,72.01209072321652L158.50125,43.52422863543035L159.0440625,64.31409564167261L159.586875,49.471243138611314L160.1296875,73.32523219585417L160.67249999999999,65.79928160011768L161.21531249999998,50.05822658836841L161.758125,72.65113193839787L162.3009375,69.12693661004303L162.84375,69.93681565225123L163.11515624999998,40.83504118323327L163.3865625,75.14653526544569L163.65796874999998,57.082688476145265L163.929375,41.355816650390636L164.20078125,53.188932466506955L164.4721875,72.44362619072197L164.74359375,62.61233091652393L165.015,48.34577337205411L165.28640625,70.53339302837847L165.55781249999998,74.59287669807671L165.82921875,62.05619968771934L166.100625,56.55793696939945L166.37203125,53.991406711935994L166.6434375,80.377110953629L166.91484375,56.268886144459245L167.18625,57.98578355759382L167.45765624999999,63.5515730112791L167.7290625,64.94706400036812L168.00046875,61.964618901908395L168.271875,57.93666661083698L168.54328125,49.16692775040865L168.8146875,74.36231915205715L169.08609375,74.25416823774574L169.3575,63.802050317823884L169.62890625,75.65232970118521L169.9003125,63.348366397619245L170.17171875,77.42205635011194L170.443125,48.2919286966324L170.71453125,32.40640431940557L170.9859375,58.37486837357282L171.25734375,51.29575077742338L171.52875,66.16389695852995L171.80015625000001,68.51933446079491L172.0715625,67.13591665327547L172.34296875,52.52027206420898L172.614375,47.32004747092725L172.88578125,76.4233846619725L173.1571875,80.26472024917601L173.42859375,59.58973639011383L173.70000000000002,73.72848701030014L173.97140625,59.658766503632066L174.2428125,28.884121182560932L174.51421875,74.4356879621744L174.785625,78.68688531517981L175.05703125,69.76165231615303L175.3284375,51.96058020293712L175.59984375000002,64.43611983507871L175.87125,58.857485729455945L176.14265625000002,53.61893818080425L176.4140625,56.901043470203874L176.68546875,62.88831949532032L176.956875,55.52737783938646L177.22828125,66.51756666898726L177.4996875,69.20676071494816L177.77109375,51.66386742442846L178.04250000000002,66.17931977212429L178.31390625,58.49933225959539L178.58531250000001,59.235057833790776L178.85671875,73.64193067252634L179.128125,74.4699425652623L179.39953125,78.35760593712328L179.6709375,63.02934691607952L179.94234375000002,57.635714042186734L180.21375,59.609003368020055L180.48515625000002,75.48630532175301L180.7565625,65.33929404169321L181.02796875,80.63815806359051L181.299375,65.58537330776453L181.57078125,65.17112009525299L181.84218750000002,66.84689879715441L182.11359375,62.338294091820714L182.38500000000002,51.54384114146232L182.65640625,72.80160822272299L182.92781250000002,78.64409838169811L183.19921875,75.04433192610739L183.470625,53.06003097742796L183.74203125000003,73.00712265372275L184.0134375,55.63188240230083L184.28484375000002,75.75411763340233L184.55625,75.0492310926318L184.82765625000002,75.50256554335354L185.0990625,61.07820604294538L185.37046875000001,45.730132761597645L185.64187500000003,76.31685581356285L185.91328125,60.47820650339126L186.18468750000002,37.73187086284162L186.45609375,83.41868233233689L186.7275,64.23529357016086L186.99890624999998,77.2301382601261L187.2703125,76.01609446406363L187.54171874999997,64.19997737109661L187.81312499999999,68.71805731505154L188.08453125,49.8719131976366L188.35593749999998,75.5226567417383L188.62734375,70.40331125557421L188.89874999999998,62.70906802564859L189.17015625,65.0046341523528L189.44156249999997,71.4950802952051L189.71296875,63.954491543769834L189.984375,67.28933375626801L190.25578124999998,58.47024716734886L190.5271875,66.90538548231123L190.79859374999998,79.19185553044079L191.07,66.37576777786015L191.34140624999998,63.96039296239614L191.6128125,81.27292651981114L191.88421875,70.87943375408648L192.155625,71.45984322130678L192.42703125,50.39864942729473L192.69843749999998,78.66016738414763L192.96984375,40.074134024977695L193.24124999999998,71.51896950155495L193.51265625,63.628245297074315L193.7840625,66.44320879429577L194.05546875,63.85432567745447L194.326875,86.60400435626505L194.59828124999999,57.44374320209026L194.8696875,76.04546308815478L195.14109374999998,60.97604226619005L195.4125,74.77718558460472L195.68390625,70.17915625423191L195.9553125,53.167726922035214L196.22671875,73.70246801823376L196.498125,80.68447925448416L196.76953125,56.80109519809484L197.04093749999998,62.76136976033449L197.31234375,54.99258403033018L197.58374999999998,67.99053438305853L197.85515625,77.88075153082607L198.1265625,60.036767202615735L198.39796875,74.30327199697493L198.669375,61.91720973998308L198.94078125,75.31503890007733L199.2121875,75.49878731667994L199.48359374999998,73.50320447534321L199.755,64.69241284132003L200.02640625,62.962439994513986L200.2978125,57.60888401716947L200.56921875,65.15326418280601L200.840625,78.75734627544878L201.11203125,59.89750691056251L201.38343749999999,64.97791622132063L201.65484375,68.64405550360678L201.92625,43.77324872016908L202.19765625,68.1208271563053L202.4690625,57.74475511461496L202.74046875,82.14063946455715L203.011875,43.02635990381242L203.28328125,79.75609708875416L203.5546875,45.35402447283269L203.82609375,60.96152279824018L204.0975,79.16915979534386L204.36890625,76.42234944105147L204.6403125,73.20240356326102L204.91171875,74.05268259644507L205.183125,72.72707231640814L205.45453125,68.62509843260048L205.72593750000001,62.78309621214866L205.99734375,54.12723824679851L206.26875,73.05514503568409L206.54015625,58.9591417863965L206.8115625,75.37271455228327L207.08296875,61.739178116619584L207.354375,58.814151513576505L207.62578125000002,44.593038189411175L207.8971875,72.96599734872578L208.16859375,85.0831922918558L208.44,38.8333854854107L208.71140625,72.52930555790661L208.9828125,66.16509042978286L209.25421875,79.12978183776139L209.52562500000002,74.26269397437571L209.79703125,68.51237144619225L210.06843750000002,48.10076229572297L210.33984375,69.53211020976303L210.61125,71.75658237487076L210.88265625,64.17293634563684L211.1540625,67.20315326303242L211.42546875,73.04612476676701L211.696875,64.91301380395889L211.96828125000002,65.32931767702102L212.2396875,72.52373382747172L212.51109375000001,72.62279194146393L212.7825,69.71322112083433L213.05390625,76.88453931659458L213.3253125,61.61542635709047L213.59671875,77.20063116699455L213.86812500000002,80.89485988318918L214.13953125,51.187922957539556L214.41093750000002,63.587891462445256L214.68234375,68.08938149660824L214.95375,46.37067735493184L215.22515625,86.64905954450367L215.4965625,61.95925157815218L215.76796875000002,79.0936875745654L216.039375,68.90355307906864L216.31078125000002,66.86011269986628L216.5821875,72.60092702060936L216.85359375000002,65.13726771175861L217.125,47.82019764482976L217.39640625,80.4878729984164L217.66781250000003,79.45056185424326L217.93921875,72.20214937180279L218.21062500000002,75.94271906018255L218.48203125,78.59591774940489L218.75343750000002,63.27381071001291L219.02484375,76.85274418741463L219.29625000000001,50.73592044711113L219.56765625000003,69.26024932712315L219.8390625,69.0567196190357L220.11046875000002,70.31792860776184L220.381875,67.29526814371346L220.65328125,43.892740908265125L220.92468749999998,44.80384081900121L221.19609375,93.84826276749372L221.46749999999997,79.04823016673325L221.73890624999999,76.378171223402L222.0103125,72.63056598901747L222.28171874999998,52.930417361855504L222.553125,71.49605617225168L222.82453124999998,48.37750256359578L223.0959375,65.65266926139593L223.36734374999997,58.495217750966546L223.63875,74.40457199066876L223.91015625,73.64666499495505L224.18156249999998,83.63804366737602L224.45296875,54.06706355810165L224.72437499999998,45.07501595020295L224.99578125,64.81239296793937L225.26718749999998,56.55792378187179L225.53859375,72.13933717757462L225.81,80.58016591072081L226.08140625,65.76118283271789L226.3528125,53.09804402589798L226.62421874999998,84.1517110571265L226.895625,84.65983968526123L227.16703124999998,75.66607110500334L227.4384375,64.95121807157993L227.70984375,67.95610174834727L227.98125,47.766590344905865L228.25265625,75.61608378142117L228.52406249999999,73.26953467279671L228.79546875,75.32330088615416L229.06687499999998,78.89079746156929L229.33828125,61.510282199084756L229.6096875,83.52203958034514L229.88109375,76.98788337707518L230.1525,55.85263502150774L230.42390625,61.64991833567619L230.6953125,78.64137515723704L230.96671874999998,75.23431144952772L231.238125,58.4530242562294L231.50953124999998,66.92597780674694L231.7809375,74.76525087207554L232.05234375,44.359895887970936L232.32375,81.74306188076733L232.59515625,79.55752589106558L232.8665625,48.63269441127778L233.13796875,51.527178700268266L233.40937499999998,71.45837281197308L233.68078125,74.04122922867535L233.9521875,75.82076739817856L234.22359375,75.56561511307953L234.495,59.40886944830417L234.76640625,62.154730300605294L235.0378125,69.32371430397032L235.30921874999999,68.35446399003266L235.580625,50.59890862852335L235.85203125,81.20820213407276L236.1234375,81.68499719649552L236.39484375,55.521278607845304L236.66625,81.8811682641506L236.93765625,58.618488165736196L237.2090625,73.21367889940737L237.48046875,70.21492742300032L237.751875,64.60968088656664L238.02328125,80.660563673079L238.2946875,45.34897364974023L238.56609375,78.88796214312313L238.8375,61.89668335318565L239.10890625,77.49178540259598L239.3803125,40.8377050638199L239.65171875000001,55.981121103465554L239.923125,60.64260222315788L240.19453125,55.501945692300794L240.4659375,75.55032417476176L240.73734375,73.43007304072378L241.00875,76.2135908782482L241.28015625,82.51482237428425L241.55156250000002,64.25773214846849L241.82296875,38.59655067622663L242.094375,66.69156950265167L242.36578125,75.01569520980118L242.6371875,64.62918523997068L242.90859375,75.52775372117756L243.18,76.77069798409937L243.45140625000002,70.29599115550516L243.7228125,74.40309498757122L243.99421875000002,73.91368605494498L244.265625,52.56927032321691L244.53703125,85.45172434598206L244.8084375,69.71702572256325L245.07984375,60.987805540859696L245.35125,64.99049712270498L245.62265625,74.83175557404755L245.89406250000002,51.10540859699249" style="fill: none;" fill="none"></path></g></g></g></g></g></g><g transform="translate(58, 177)" clip-path="url(#clip_1)"><clipPath id="clip_1"><rect width="271" height="23"></rect></clipPath><g><g><line x1="0" y1="0" x2="0" y2="5" style="visibility: inherit;" fill="rgb(0, 0, 0)" stroke="rgb(204, 204, 204)" stroke-width="1px"></line><line x1="27.140625" y1="0" x2="27.140625" y2="5" style="visibility: inherit;" fill="rgb(0, 0, 0)" stroke="rgb(204, 204, 204)" stroke-width="1px"></line><line x1="54.28125" y1="0" x2="54.28125" y2="5" style="visibility: inherit;" fill="rgb(0, 0, 0)" stroke="rgb(204, 204, 204)" stroke-width="1px"></line><line x1="81.421875" y1="0" x2="81.421875" y2="5" style="visibility: inherit;" fill="rgb(0, 0, 0)" stroke="rgb(204, 204, 204)" stroke-width="1px"></line><line x1="108.5625" y1="0" x2="108.5625" y2="5" style="visibility: inherit;" fill="rgb(0, 0, 0)" stroke="rgb(204, 204, 204)" stroke-width="1px"></line><line x1="135.703125" y1="0" x2="135.703125" y2="5" style="visibility: inherit;" fill="rgb(0, 0, 0)" stroke="rgb(204, 204, 204)" stroke-width="1px"></line><line x1="162.84375" y1="0" x2="162.84375" y2="5" style="visibility: inherit;" fill="rgb(0, 0, 0)" stroke="rgb(204, 204, 204)" stroke-width="1px"></line><line x1="189.984375" y1="0" x2="189.984375" y2="5" style="visibility: inherit;" fill="rgb(0, 0, 0)" stroke="rgb(204, 204, 204)" stroke-width="1px"></line><line x1="217.125" y1="0" x2="217.125" y2="5" style="visibility: inherit;" fill="rgb(0, 0, 0)" stroke="rgb(204, 204, 204)" stroke-width="1px"></line><line x1="244.265625" y1="0" x2="244.265625" y2="5" style="visibility: inherit;" fill="rgb(0, 0, 0)" stroke="rgb(204, 204, 204)" stroke-width="1px"></line><line x1="271.40625" y1="0" x2="271.40625" y2="5" style="visibility: inherit;" fill="rgb(0, 0, 0)" stroke="rgb(204, 204, 204)" stroke-width="1px"></line></g><g transform="translate(0, 8)"><text x="0" y="0" dx="0em" dy="0.95em" style="text-anchor: middle; visibility: hidden; font-family: &quot;Helvetica Neue&quot;, sans-serif; font-size: 12px; font-weight: 200;" fill="rgb(50, 49, 63)" stroke="none" stroke-width="1px">-100</text><text x="27.140625" y="0" dx="0em" dy="0.95em" style="text-anchor: middle; visibility: inherit; font-family: &quot;Helvetica Neue&quot;, sans-serif; font-size: 12px; font-weight: 200;" fill="rgb(50, 49, 63)" stroke="none" stroke-width="1px">0</text><text x="54.28125" y="0" dx="0em" dy="0.95em" style="text-anchor: middle; visibility: inherit; font-family: &quot;Helvetica Neue&quot;, sans-serif; font-size: 12px; font-weight: 200;" fill="rgb(50, 49, 63)" stroke="none" stroke-width="1px">100</text><text x="81.421875" y="0" dx="0em" dy="0.95em" style="text-anchor: middle; visibility: inherit; font-family: &quot;Helvetica Neue&quot;, sans-serif; font-size: 12px; font-weight: 200;" fill="rgb(50, 49, 63)" stroke="none" stroke-width="1px">200</text><text x="108.5625" y="0" dx="0em" dy="0.95em" style="text-anchor: middle; visibility: inherit; font-family: &quot;Helvetica Neue&quot;, sans-serif; font-size: 12px; font-weight: 200;" fill="rgb(50, 49, 63)" stroke="none" stroke-width="1px">300</text><text x="135.703125" y="0" dx="0em" dy="0.95em" style="text-anchor: middle; visibility: inherit; font-family: &quot;Helvetica Neue&quot;, sans-serif; font-size: 12px; font-weight: 200;" fill="rgb(50, 49, 63)" stroke="none" stroke-width="1px">400</text><text x="162.84375" y="0" dx="0em" dy="0.95em" style="text-anchor: middle; visibility: inherit; font-family: &quot;Helvetica Neue&quot;, sans-serif; font-size: 12px; font-weight: 200;" fill="rgb(50, 49, 63)" stroke="none" stroke-width="1px">500</text><text x="189.984375" y="0" dx="0em" dy="0.95em" style="text-anchor: middle; visibility: inherit; font-family: &quot;Helvetica Neue&quot;, sans-serif; font-size: 12px; font-weight: 200;" fill="rgb(50, 49, 63)" stroke="none" stroke-width="1px">600</text><text x="217.125" y="0" dx="0em" dy="0.95em" style="text-anchor: middle; visibility: inherit; font-family: &quot;Helvetica Neue&quot;, sans-serif; font-size: 12px; font-weight: 200;" fill="rgb(50, 49, 63)" stroke="none" stroke-width="1px">700</text><text x="244.265625" y="0" dx="0em" dy="0.95em" style="text-anchor: middle; visibility: inherit; font-family: &quot;Helvetica Neue&quot;, sans-serif; font-size: 12px; font-weight: 200;" fill="rgb(50, 49, 63)" stroke="none" stroke-width="1px">800</text><text x="271.40625" y="0" dx="0em" dy="0.95em" style="text-anchor: middle; visibility: hidden; font-family: &quot;Helvetica Neue&quot;, sans-serif; font-size: 12px; font-weight: 200;" fill="rgb(50, 49, 63)" stroke="none" stroke-width="1px">900</text></g><line x1="0" y1="0" x2="271.40625" y2="0" fill="rgb(0, 0, 0)" stroke="rgb(204, 204, 204)" stroke-width="1px"></line></g></g></g></g></svg>