<svg viewBox="0 0 330 200" xmlns="http://www.w3.org/2000/svg"><g><g><g><g><g><line x1="48.875" y1="177" x2="43.875" y2="177" style="visibility: inherit;" fill="rgb(0, 0, 0)" stroke="rgb(204, 204, 204)" stroke-width="1px"></line><line x1="48.875" y1="164.3571428571429" x2="43.875" y2="164.3571428571429" style="visibility: inherit;" fill="rgb(0, 0, 0)" stroke="rgb(204, 204, 204)" stroke-width="1px"></line><line x1="48.875" y1="151.71428571428575" x2="43.875" y2="151.71428571428575" style="visibility: inherit;" fill="rgb(0, 0, 0)" stroke="rgb(204, 204, 204)" stroke-width="1px"></line><line x1="48.875" y1="139.07142857142858" x2="43.875" y2="139.07142857142858" style="visibility: inherit;" fill="rgb(0, 0, 0)" stroke="rgb(204, 204, 204)" stroke-width="1px"></line><line x1="48.875" y1="126.42857142857147" x2="43.875" y2="126.42857142857147" style="visibility: inherit;" fill="rgb(0, 0, 0)" stroke="rgb(204, 204, 204)" stroke-width="1px"></line><line x1="48.875" y1="113.78571428571426" x2="43.875" y2="113.78571428571426" style="visibility: inherit;" fill="rgb(0, 0, 0)" stroke="rgb(204, 204, 204)" stroke-width="1px"></line><line x1="48.875" y1="101.14285714285715" x2="43.875" y2="101.14285714285715" style="visibility: inherit;" fill="rgb(0, 0, 0)" stroke="rgb(204, 204, 204)" stroke-width="1px"></line><line x1="48.875" y1="88.49999999999994" x2="43.875" y2="88.49999999999994" style="visibility: inherit;" fill="rgb(0, 0, 0)" stroke="rgb(204, 204, 204)" stroke-width="1px"></line><line x1="48.875" y1="75.85714285714285" x2="43.875" y2="75.85714285714285" style="visibility: inherit;" fill="rgb(0, 0, 0)" stroke="rgb(204, 204, 204)" stroke-width="1px"></line><line x1="48.875" y1="63.21428571428575" x2="43.875" y2="63.21428571428575" style="visibility: inherit;" fill="rgb(0, 0, 0)" stroke="rgb(204, 204, 204)" stroke-width="1px"></line><line x1="48.875" y1="50.57142857142853" x2="43.875" y2="50.57142857142853" style="visibility: inherit;" fill="rgb(0, 0, 0)" stroke="rgb(204, 204, 204)" stroke-width="1px"></line><line x1="48.875" y1="37.928571428571416" x2="43.875" y2="37.928571428571416" style="visibility: inherit;" fill="rgb(0, 0, 0)" stroke="rgb(204, 204, 204)" stroke-width="1px"></line><line x1="48.875" y1="25.285714285714192" x2="43.875" y2="25.285714285714192" style="visibility: inherit;" fill="rgb(0, 0, 0)" stroke="rgb(204, 204, 204)" stroke-width="1px"></line><line x1="48.875" y1="12.64285714285711" x2="43.875" y2="12.64285714285711" style="visibility: inherit;" fill="rgb(0, 0, 0)" stroke="rgb(204, 204, 204)" stroke-width="1px"></line><line x1="48.875" y1="0" x2="43.875" y2="0" style="visibility: inherit;" fill="rgb(0, 0, 0)" stroke="rgb(204, 204, 204)" stroke-width="1px"></line></g><g transform="translate(38.875, 0)"><text x="0" y="177" dx="0em" dy="0.3em" style="text-anchor: end; visibility: hidden; font-family: &quot;Helvetica Neue&quot;, sans-serif; font-size: 12px; font-weight: 200;" fill="rgb(50, 49, 63)" stroke="none" stroke-width="1px">1.85</text><text x="0" y="164.3571428571429" dx="0em" dy="0.3em" style="text-anchor: end; visibility: inherit; font-family: &quot;Helvetica Neue&quot;, sans-serif; font-size: 12px; font-weight: 200;" fill="rgb(50, 49, 63)" stroke="none" stroke-width="1px">1.9</text><text x="0" y="151.71428571428575" dx="0em" dy="0.3em" style="text-anchor: end; visibility: hidden; font-family: &quot;Helvetica Neue&quot;, sans-serif; font-size: 12px; font-weight: 200;" fill="rgb(50, 49, 63)" stroke="none" stroke-width="1px">1.95</text><text x="0" y="139.07142857142858" dx="0em" dy="0.3em" style="text-anchor: end; visibility: inherit; font-family: &quot;Helvetica Neue&quot;, sans-serif; font-size: 12px; font-weight: 200;" fill="rgb(50, 49, 63)" stroke="none" stroke-width="1px">2</text><text x="0" y="126.42857142857147" dx="0em" dy="0.3em" style="text-anchor: end; visibility: hidden; font-family: &quot;Helvetica Neue&quot;, sans-serif; font-size: 12px; font-weight: 200;" fill="rgb(50, 49, 63)" stroke="none" stroke-width="1px">2.05</text><text x="0" y="113.78571428571426" dx="0em" dy="0.3em" style="text-anchor: end; visibility: inherit; font-family: &quot;Helvetica Neue&quot;, sans-serif; font-size: 12px; font-weight: 200;" fill="rgb(50, 49, 63)" stroke="none" stroke-width="1px">2.1</text><text x="0" y="101.14285714285715" dx="0em" dy="0.3em" style="text-anchor: end; visibility: hidden; font-family: &quot;Helvetica Neue&quot;, sans-serif; font-size: 12px; font-weight: 200;" fill="rgb(50, 49, 63)" stroke="none" stroke-width="1px">2.15</text><text x="0" y="88.49999999999994" dx="0em" dy="0.3em" style="text-anchor: end; visibility: inherit; font-family: &quot;Helvetica Neue&quot;, sans-serif; font-size: 12px; font-weight: 200;" fill="rgb(50, 49, 63)" stroke="none" stroke-width="1px">2.2</text><text x="0" y="75.85714285714285" dx="0em" dy="0.3em" style="text-anchor: end; visibility: hidden; font-family: &quot;Helvetica Neue&quot;, sans-serif; font-size: 12px; font-weight: 200;" fill="rgb(50, 49, 63)" stroke="none" stroke-width="1px">2.25</text><text x="0" y="63.21428571428575" dx="0em" dy="0.3em" style="text-anchor: end; visibility: inherit; font-family: &quot;Helvetica Neue&quot;, sans-serif; font-size: 12px; font-weight: 200;" fill="rgb(50, 49, 63)" stroke="none" stroke-width="1px">2.3</text><text x="0" y="50.57142857142853" dx="0em" dy="0.3em" style="text-anchor: end; visibility: hidden; font-family: &quot;Helvetica Neue&quot;, sans-serif; font-size: 12px; font-weight: 200;" fill="rgb(50, 49, 63)" stroke="none" stroke-width="1px">2.35</text><text x="0" y="37.928571428571416" dx="0em" dy="0.3em" style="text-anchor: end; visibility: inherit; font-family: &quot;Helvetica Neue&quot;, sans-serif; font-size: 12px; font-weight: 200;" fill="rgb(50, 49, 63)" stroke="none" stroke-width="1px">2.4</text><text x="0" y="25.285714285714192" dx="0em" dy="0.3em" style="text-anchor: end; visibility: hidden; font-family: &quot;Helvetica Neue&quot;, sans-serif; font-size: 12px; font-weight: 200;" fill="rgb(50, 49, 63)" stroke="none" stroke-width="1px">2.45</text><text x="0" y="12.64285714285711" dx="0em" dy="0.3em" style="text-anchor: end; visibility: inherit; font-family: &quot;Helvetica Neue&quot;, sans-serif; font-size: 12px; font-weight: 200;" fill="rgb(50, 49, 63)" stroke="none" stroke-width="1px">2.5</text><text x="0" y="0" dx="0em" dy="0.3em" style="text-anchor: end; visibility: hidden; font-family: &quot;Helvetica Neue&quot;, sans-serif; font-size: 12px; font-weight: 200;" fill="rgb(50, 49, 63)" stroke="none" stroke-width="1px">2.55</text></g><line x1="48.875" y1="0" x2="48.875" y2="177" fill="rgb(0, 0, 0)" stroke="rgb(204, 204, 204)" stroke-width="1px"></line></g></g><g transform="translate(48, 0)" clip-path="url(#clip_0)"><clipPath id="clip_0"><rect width="281" height="177"></rect></clipPath><g><g><g><line x1="0" y1="0" x2="0" y2="177" fill="rgb(0, 0, 0)" stroke="rgb(60, 60, 60)" stroke-width="1px" opacity="0.25"></line><line x1="28.1125" y1="0" x2="28.1125" y2="177" fill="rgb(0, 0, 0)" stroke="rgb(60, 60, 60)" stroke-width="1px" opacity="0.25"></line><line x1="56.225" y1="0" x2="56.225" y2="177" fill="rgb(0, 0, 0)" stroke="rgb(60, 60, 60)" stroke-width="1px" opacity="0.25"></line><line x1="84.33749999999999" y1="0" x2="84.33749999999999" y2="177" fill="rgb(0, 0, 0)" stroke="rgb(60, 60, 60)" stroke-width="1px" opacity="0.25"></line><line x1="112.45" y1="0" x2="112.45" y2="177" fill="rgb(0, 0, 0)" stroke="rgb(60, 60, 60)" stroke-width="1px" opacity="0.25"></line><line x1="140.5625" y1="0" x2="140.5625" y2="177" fill="rgb(0, 0, 0)" stroke="rgb(60, 60, 60)" stroke-width="1px" opacity="0.25"></line><line x1="168.67499999999998" y1="0" x2="168.67499999999998" y2="177" fill="rgb(0, 0, 0)" stroke="rgb(60, 60, 60)" stroke-width="1px" opacity="0.25"></line><line x1="196.7875" y1="0" x2="196.7875" y2="177" fill="rgb(0, 0, 0)" stroke="rgb(60, 60, 60)" stroke-width="1px" opacity="0.25"></line><line x1="224.9" y1="0" x2="224.9" y2="177" fill="rgb(0, 0, 0)" stroke="rgb(60, 60, 60)" stroke-width="1px" opacity="0.25"></line><line x1="253.01250000000002" y1="0" x2="253.01250000000002" y2="177" fill="rgb(0, 0, 0)" stroke="rgb(60, 60, 60)" stroke-width="1px" opacity="0.25"></line><line x1="281.125" y1="0" x2="281.125" y2="177" fill="rgb(0, 0, 0)" stroke="rgb(60, 60, 60)" stroke-width="1px" opacity="0.25"></line></g><g><line x1="0" y1="177" x2="281.125" y2="177" fill="rgb(0, 0, 0)" stroke="rgb(60, 60, 60)" stroke-width="1px" opacity="0.25"></line><line x1="0" y1="164.3571428571429" x2="281.125" y2="164.3571428571429" fill="rgb(0, 0, 0)" stroke="rgb(60, 60, 60)" stroke-width="1px" opacity="0.25"></line><line x1="0" y1="151.71428571428575" x2="281.125" y2="151.71428571428575" fill="rgb(0, 0, 0)" stroke="rgb(60, 60, 60)" stroke-width="1px" opacity="0.25"></line><line x1="0" y1="139.07142857142858" x2="281.125" y2="139.07142857142858" fill="rgb(0, 0, 0)" stroke="rgb(60, 60, 60)" stroke-width="1px" opacity="0.25"></line><line x1="0" y1="126.42857142857147" x2="281.125" y2="126.42857142857147" fill="rgb(0, 0, 0)" stroke="rgb(60, 60, 60)" stroke-width="1px" opacity="0.25"></line><line x1="0" y1="113.78571428571426" x2="281.125" y2="113.78571428571426" fill="rgb(0, 0, 0)" stroke="rgb(60, 60, 60)" stroke-width="1px" opacity="0.25"></line><line x1="0" y1="101.14285714285715" x2="281.125" y2="101.14285714285715" fill="rgb(0, 0, 0)" stroke="rgb(60, 60, 60)" stroke-width="1px" opacity="0.25"></line><line x1="0" y1="88.49999999999994" x2="281.125" y2="88.49999999999994" fill="rgb(0, 0, 0)" stroke="rgb(60, 60, 60)" stroke-width="1px" opacity="0.25"></line><line x1="0" y1="75.85714285714285" x2="281.125" y2="75.85714285714285" fill="rgb(0, 0, 0)" stroke="rgb(60, 60, 60)" stroke-width="1px" opacity="0.25"></line><line x1="0" y1="63.21428571428575" x2="281.125" y2="63.21428571428575" fill="rgb(0, 0, 0)" stroke="rgb(60, 60, 60)" stroke-width="1px" opacity="0.25"></line><line x1="0" y1="50.57142857142853" x2="281.125" y2="50.57142857142853" fill="rgb(0, 0, 0)" stroke="rgb(60, 60, 60)" stroke-width="1px" opacity="0.25"></line><line x1="0" y1="37.928571428571416" x2="281.125" y2="37.928571428571416" fill="rgb(0, 0, 0)" stroke="rgb(60, 60, 60)" stroke-width="1px" opacity="0.25"></line><line x1="0" y1="25.285714285714192" x2="281.125" y2="25.285714285714192" fill="rgb(0, 0, 0)" stroke="rgb(60, 60, 60)" stroke-width="1px" opacity="0.25"></line><line x1="0" y1="12.64285714285711" x2="281.125" y2="12.64285714285711" fill="rgb(0, 0, 0)" stroke="rgb(60, 60, 60)" stroke-width="1px" opacity="0.25"></line><line x1="0" y1="0" x2="281.125" y2="0" fill="rgb(0, 0, 0)" stroke="rgb(60, 60, 60)" stroke-width="1px" opacity="0.25"></line></g></g></g><g><g><line x1="0" y1="644.7857142857144" x2="281.125" y2="644.7857142857144" fill="rgb(0, 0, 0)" stroke="rgb(153, 153, 153)" stroke-width="1.5px"></line></g></g><g><g><line x1="28.1125" y1="0" x2="28.1125" y2="177" fill="rgb(0, 0, 0)" stroke="rgb(153, 153, 153)" stroke-width="1.5px"></line></g></g><g><g><g><g><g><path stroke="rgb(0, 119, 187)" stroke-width="2px" d="M32.329375,180.56288715771268L32.6105,172.2423861367362L32.891625000000005,173.60330884797236L33.17275,170.1002795015063L33.453875,166.57407024928503L33.735,162.03948988233296L34.016125,170.7130549294608L34.29725,161.78297363008772L34.578375,163.88360360690527L34.8595,157.17460339409965L35.140625,161.53950926235746L35.42175,165.0004289490836L35.702875,170.21325516700747L35.984,153.75624551091877L36.265125,155.6697180952345L36.54625,152.95580026081632L36.827375,159.2218201160431L37.1085,143.3869904790606L37.389625,133.39509466716223L37.670750000000005,149.228598015649L37.951875,133.3753811972482L38.233000000000004,136.02307503564018L38.514125,135.6868006161281L38.79525,134.48439952305387L39.076375000000006,133.99089963095528L39.3575,132.5722532272339L39.638625,131.61563750675748L39.91974999999999,144.10846127782548L40.200874999999996,130.55533014025008L40.482,123.74447699955532L40.763124999999995,119.81818076542446L41.04425,131.60153062003L41.325375,127.10215718405587L41.6065,116.07346548352922L41.887625,115.6304851259504L42.168749999999996,109.79156030927385L42.449875,113.78573840005058L42.731,112.40941265651158L43.012125,114.63884333201817L43.29325,104.46446228027342L43.574374999999996,115.4178569657462L43.8555,97.75609506879533L44.136625,103.94516004834855L44.41775,97.55980437142507L44.698875,96.68174110140119L44.980000000000004,93.59492519923617L45.261125,96.70048999786376L45.54225,93.50431558064051L45.823375,77.89408084324427L46.1045,88.40341002600533L46.385625000000005,95.18116624014718L46.66675,98.01303332192556L46.947875,90.42612055369784L47.229000000000006,80.69936186926705L47.510125,73.82804203033446L47.791250000000005,78.53063903536115L48.072375,77.01053156171525L48.3535,74.20488882064818L48.634625,73.0535498346601L48.915749999999996,66.4950532232012L49.196875,76.73707498822893L49.477999999999994,63.1200107165745L49.759125,65.79724461691718L50.04025,59.79066487721033L50.321374999999996,64.856906073434L50.6025,56.93185002463203L50.883624999999995,63.02548251833231L51.16475,57.06670945031301L51.445875,51.95254101072035L51.727,44.08547994068687L52.008125,55.21249784742079L52.28925,48.02708877835951L52.570375,52.64546646390639L52.8515,43.117409910474464L53.132625,51.24683495930262L53.41375,44.003672054835704L53.694875,39.58381564276556L53.976,32.60512672151836L54.257125,29.266738006046808L54.538250000000005,27.978670733315568L54.819375,33.636014597756486L55.100500000000004,36.80771296364918L55.381625,23.063505853925392L55.66275,24.958591256822814L55.943875000000006,23.99347523280548L56.225,11.321090085165793L56.506125000000004,13.925257546561056L56.78725,16.715768541608497L57.068375,21.0170427049909L57.3495,25.34026091439381L57.630624999999995,5.090066160474464L57.91175,18.352408545357804L58.192874999999994,23.605897562844376L58.474,25.799578734806573L58.755125,27.2729043960571L59.036249999999995,18.126276356833273L59.317375,22.907486098153214L59.5985,25.197262900216202L59.879625,30.069745404379688L60.16075,16.29654080527166L60.441874999999996,17.315190655844503L60.723,29.81117943355011L61.004125,29.491664477757013L61.28525,27.322579928806817L61.566375,32.59463698523382L61.847500000000004,12.017692974635509L62.128625,24.385333197457413L62.40975,14.511778490883927L62.690875,35.573119231632745L62.972,26.253470829554942L63.253125000000004,27.10681690488539L63.53425,25.195213181631885L63.815375,29.154968057359923L64.0965,31.377405575343516L64.37762500000001,33.18845251628329L64.65875,29.20765788214544L64.939875,27.37683718545094L65.221,34.01653882435386L65.502125,27.55323355538502L65.78325000000001,30.409516402653253L66.064375,28.66104616437636L66.3455,35.12965658732821L66.62662499999999,30.51555919647214L66.90775,35.107230254581964L67.188875,31.36149011339458L67.47,31.146390233721007L67.751125,23.69457803453716L68.03225,32.55424547195432L68.313375,34.15579911640708L68.5945,39.87041452952792L68.875625,37.395560196467784L69.15675,34.50208098547796L69.437875,27.526888642992247L69.719,33.25904723576133L70.000125,41.273386614663224L70.28125,35.86677156175884L70.562375,41.71829611914495L70.8435,30.441166469028985L71.124625,36.371424334389786L71.40575,39.364736897604786L71.686875,37.53204733984808L71.968,46.38375704629078L72.249125,40.239665303911465L72.53025,35.38623312541415L72.811375,36.49621602467124L73.0925,38.86635385240825L73.373625,45.113896097455665L73.65475,43.23930788040158L73.93587500000001,46.233042444501564L74.217,43.42088883263722L74.498125,44.7841325487409L74.77925,38.53080286298476L75.06037500000001,38.01740864345004L75.34150000000001,45.40188155855449L75.622625,45.70668676921298L75.90375,46.49166870117185L76.184875,39.12359353474204L76.46600000000001,52.92977448872156L76.74712500000001,42.303370203290626L77.02825,43.1275379317147L77.309375,39.06192111968991L77.5905,46.25534820556638L77.87162500000001,44.71842098236081L78.15275000000001,46.82613454546245L78.433875,53.35738195691786L78.715,44.80469002042494L78.996125,40.71031686237876L79.27725,42.81435298919675L79.558375,46.41980797903875L79.83949999999999,42.3455100059509L80.12062499999999,65.29964528764994L80.40174999999999,51.238696370806L80.682875,56.23729685374667L80.964,47.89144563674924L81.24512499999999,46.13646452767506L81.52624999999999,54.34594917297362L81.807375,39.8980857304164L82.0885,48.46500512531824L82.369625,43.280543395451105L82.65075,43.27529852730885L82.93187499999999,53.59056758880614L83.213,49.27982854843138L83.494125,56.181411879403214L83.77525,45.6237937382289L84.056375,47.91230453763686L84.33749999999999,50.850395270756295L84.618625,51.47194228853495L84.89975,49.01643971034457L85.180875,54.75281831196375L85.462,45.91702406746998L85.74312499999999,58.87389809744697L86.02425,58.886316980634405L86.305375,48.81255299704412L86.5865,61.4702283995492L86.867625,57.99065024512153L87.14874999999999,48.07145915712627L87.429875,60.176614829472115L87.711,54.30218165261401L87.992125,59.95343664714267L88.27325,48.67739214215956L88.55437500000001,53.5542755126953L88.8355,56.63693169185092L89.116625,62.392782620021265L89.39775,57.94013071060179L89.678875,55.7049125943865L89.96000000000001,49.030727454594185L90.241125,50.91411740439277L90.52225,57.677344730922144L90.803375,59.531978334699346L91.0845,57.51457296098978L91.36562500000001,55.531229087284615L91.64675,56.84678670338221L91.927875,62.58883217402865L92.209,64.26773255211965L92.490125,52.70985174179076L92.77125000000001,61.65506478718348L93.052375,58.59730666024343L93.3335,54.07466288975306L93.614625,56.650616577693384L93.89575,65.52065317971365L94.17687500000001,63.421982492719366L94.45800000000001,62.35685225895472L94.739125,66.54780333382742L95.02025,58.61219726290018L95.30137500000001,59.680522646222784L95.58250000000001,58.037311485835474L95.86362500000001,58.89716843196322L96.14475,63.51988669804163L96.425875,59.51738916124613L96.707,56.723200729915064L96.988125,58.88860784258158L97.26925,69.0367042677743L97.55037499999999,68.07279396057127L97.83149999999999,54.83776106153212L98.112625,58.641737324850865L98.39375,62.39392805099486L98.674875,56.95704950605116L98.95599999999999,65.09479400089808L99.23712499999999,61.63414560045511L99.51825,73.32971927097864L99.799375,59.259064333779435L100.0805,66.77821581704275L100.36162499999999,68.6069265093122L100.64274999999999,61.492654732295435L100.923875,59.487005097525426L101.205,68.96255268369401L101.486125,65.29831899915422L101.76724999999999,60.91843209947855L102.048375,62.56393412181308L102.3295,62.26919664655409L102.610625,72.49271065848212L102.89175,65.27076836994715L103.172875,61.384622505732935L103.454,64.10098191670008L103.735125,73.53065197808401L104.01625,64.85220377785818L104.297375,75.99917629786898L104.5785,64.21359586715697L104.859625,69.20044061115809L105.14075,72.29033109119959L105.421875,58.18609694072177L105.703,67.56374032156806L105.984125,63.180356843130895L106.26525,58.18682037081034L106.546375,70.21921103341238L106.8275,66.84947368076868L107.108625,70.0631912776402L107.38975,66.0395334107535L107.670875,75.3360320499965L107.952,71.77512829644338L108.233125,70.97139746802192L108.51425,67.04431751796176L108.795375,66.14479248864309L109.07650000000001,72.57481997353689L109.357625,67.30258205958773L109.63875,71.1446589742388L109.919875,77.36923231397355L110.20100000000001,78.70197139467511L110.48212500000001,74.50004829679216L110.76325,72.32710545403616L111.044375,81.09531927108763L111.3255,67.87421240125383L111.60662500000001,65.64472143990652L111.88775000000001,75.1541496685573L112.168875,72.35990095138548L112.45,65.45879990713935L112.731125,72.32101658412387L113.01225000000001,66.61863919666834L113.29337500000001,75.5836259978158L113.5745,74.35047912597655L113.855625,81.66598503930227L114.13675,73.93396425247191L114.417875,73.01864433288573L114.699,74.22412000383649L114.98012499999999,79.51335852486746L115.26124999999999,77.79159491402761L115.54237499999999,82.77421964917863L115.8235,82.63465792792184L116.104625,66.925313268389L116.38574999999999,76.9246242386954L116.66687499999999,81.25652360916136L116.948,87.91792815072195L117.229125,82.15725435529436L117.51025,76.90913077763147L117.791375,80.26174695151192L118.07249999999999,72.10091297967092L118.353625,74.91614116941179L118.63475,74.8927502632141L118.915875,72.48879207883562L119.197,77.22864573342459L119.47812499999999,77.72877706800188L119.75925,83.41789157049996L120.040375,69.6941213607788L120.3215,81.71716771806989L120.602625,74.12621579851422L120.88374999999999,87.85064915248326L121.164875,78.11406387601579L121.446,81.00748280116488L121.727125,75.73681231907435L122.00825,86.97361074175153L122.28937499999999,80.33113595417566L122.5705,81.67822306496755L122.851625,82.13940974644251L123.13275,90.45065689086913L123.413875,83.1205015182495L123.69500000000001,84.33700949805123L123.976125,83.85719449179513L124.25725,73.97604376929145L124.538375,77.01903186525617L124.8195,83.56884731565202L125.10062500000001,80.81559297016688L125.38175,94.09246424266269L125.662875,87.51003415243966L125.944,77.57498788833617L126.225125,76.37150165012903L126.50625000000001,86.82380042757306L126.787375,78.33525262560163L127.0685,75.51502071108136L127.349625,84.40483106885637L127.63075,88.76705421720231L127.91187500000001,86.61292055674961L128.193,77.08197028296333L128.47412500000002,75.37377098628451L128.75525000000002,85.17504296983991L129.036375,90.21716982977729L129.3175,84.19244405201502L129.598625,94.18204900196619L129.87975,78.0660160609654L130.160875,84.77227326801844L130.442,84.56308140073503L130.723125,84.16224084581647L131.00425,74.1853562082563L131.28537500000002,93.76704127447945L131.56650000000002,81.759548664093L131.847625,82.74347387041364L132.12875,82.97822693416049L132.409875,84.86324460165841L132.691,88.08980308260236L132.972125,89.18212223052977L133.25324999999998,86.95884071077619L133.53437499999998,84.35865211486815L133.8155,91.94146544592721L134.096625,101.07519231523786L134.37775,90.01599597930907L134.658875,88.81058059419904L134.94,87.17134829929896L135.221125,86.53472982134137L135.50225,85.59348699024744L135.783375,89.27387728009904L136.0645,85.89093732833861L136.34562499999998,97.73843131746564L136.62675,75.30275426592145L136.907875,95.96415873936243L137.189,88.67843403135026L137.470125,93.5004572868347L137.75125,91.52121285029818L138.032375,76.888452734266L138.3135,85.67288344247L138.594625,83.77140774045671L138.87575,88.50547395433698L139.15687499999999,93.28686455317904L139.438,88.78712940216063L139.719125,85.25775514330182L140.00025,91.32196814673287L140.281375,86.84954248155866L140.5625,93.88634695325578L140.843625,108.34415755953107L141.12475,94.59301757812499L141.405875,100.84634726388113L141.687,93.73508977890013L141.96812500000001,92.06679970877511L142.24925,91.67470060076032L142.530375,91.2021198953901L142.8115,95.24030664988925L143.092625,96.75679697309221L143.37375,94.9352602958679L143.654875,102.62351356233869L143.936,93.11939048767088L144.217125,93.83341598510741L144.49825,96.65328618458338L144.77937500000002,99.54152052743093L145.0605,97.7947985785348L145.341625,113.13549532209123L145.62275,97.61828163691928L145.903875,92.6084679876055L146.185,105.72154263087681L146.466125,96.87881551470075L146.74725,98.25164467947823L147.028375,93.71646145411898L147.3095,98.89875289372034L147.59062500000002,96.1023941721235L147.87175000000002,96.31942319869994L148.152875,96.42787742614745L148.434,100.32740674700055L148.715125,94.8448315347944L148.99625,104.57556908471243L149.277375,103.27888093675885L149.5585,99.48943356105259L149.839625,94.78442512239728L150.12075000000002,102.62496042251585L150.40187500000002,97.49680566787718L150.68300000000002,106.9175534248352L150.964125,101.19678885596139L151.24525,101.31645624978201L151.526375,103.35255023411341L151.8075,111.52731023515975L152.088625,107.72978455679757L152.36975,101.07561431612287L152.650875,107.08906664167131L152.93200000000002,104.28040960856846L153.21312500000002,105.66372850963047L153.49425000000002,108.22804703031267L153.77537500000003,94.66463715689522L154.0565,103.49952711377824L154.337625,105.07310812813894L154.61875,102.16714974812098L154.899875,95.99484423228671L155.181,97.7113629749843L155.46212500000001,110.46772629874093L155.74325000000002,105.82818828310285L156.02437500000002,104.07248374394007L156.30550000000002,100.22630739212035L156.58662500000003,111.79775251661027L156.86775,104.46102598735264L157.148875,101.53107384272984L157.43,114.25060251780918L157.711125,110.89418833596365L157.99225,107.3477531841823L158.273375,108.20646469933645L158.5545,107.98316594532557L158.835625,105.46026379721505L159.11675,122.28212336131504L159.397875,106.86094502040318L159.67899999999997,107.1105886868068L159.96012499999998,102.79159048625401L160.24124999999998,108.44417176927838L160.52237499999998,110.40165301731653L160.80349999999999,109.8678821836199L161.084625,120.15584175927299L161.36575,115.87711450031826L161.646875,106.51140771593366L161.928,102.21634299414498L162.209125,106.01248209817068L162.49024999999997,101.4467942374093L162.77137499999998,109.1531332560948L163.05249999999998,109.28907782690865L163.33362499999998,100.38504001072474L163.61475,106.8741476195199L163.895875,106.2286068371364L164.177,111.3734004838126L164.458125,113.54471560886928L164.73925,117.527017389025L165.020375,112.37342200960433L165.3015,112.2164979662214L165.58262499999998,111.97282259804861L165.86374999999998,121.71995789664132L166.14487499999998,106.36786712918962L166.426,117.06866414206368L166.707125,113.76644693102156L166.98825,112.49761084147862L167.269375,112.15181125913347L167.5505,118.64531973430088L167.831625,118.39923293249947L168.11275,104.25442641122L168.39387499999998,112.83484983444214L168.67499999999998,112.59702219281877L168.956125,105.34276669366018L169.23725,107.69264847891671L169.518375,116.60868317740304L169.7995,113.7531840460641L170.080625,114.50332076208932L170.36175,117.80445282799857L170.642875,115.92612688882011L170.924,116.5036049570356L171.205125,113.2494958468846L171.48624999999998,111.57113804136003L171.767375,106.23566028050013L172.0485,103.67019632884434L172.329625,116.58034883226668L172.61075,110.12072099958147L172.891875,118.12414864131382L173.173,117.87981012889317L173.454125,117.7976405279977L173.73525,117.47499070848738L174.016375,114.3571275983538L174.29749999999999,113.32171828406197L174.578625,112.55928325653076L174.85975,117.4974170412336L175.140875,118.07646254130772L175.422,103.67098004477364L175.703125,126.73718670436315L175.98425,111.43573604311263L176.265375,124.47266966956002L176.5465,116.7999701499939L176.827625,115.43986129760742L177.10875000000001,116.187164579119L177.389875,117.70522233418056L177.671,114.47136926651001L177.952125,119.08420065471104L178.23325,114.72149521963937L178.514375,117.37793050493514L178.7955,113.6351443699428L179.076625,116.92319440841675L179.35775,112.67629807335989L179.638875,120.55758660180229L179.92000000000002,113.63797780445644L180.201125,109.4876593862261L180.48225,115.36167056219918L180.763375,111.8651520865304L181.0445,120.02640805925643L181.325625,118.897193976811L181.60675,122.0497214453561L181.887875,125.79112100601196L182.169,111.33909784044539L182.450125,126.1745992388044L182.73125000000002,119.9617816380092L183.01237500000002,118.37053687231881L183.2935,119.07684578214372L183.574625,116.6865724836077L183.85575,126.43834979193551L184.136875,118.19908394132341L184.418,117.17319978986467L184.699125,118.13922010149275L184.98025,119.34909663881575L185.26137500000002,115.95295408793858L185.54250000000002,125.66222987856185L185.82362500000002,120.71010977881295L186.10475,117.75773130144393L186.385875,120.28774717875889L186.667,113.99149397441319L186.948125,127.62447370801654L187.22925,106.66851261683873L187.510375,121.39646407536098L187.7915,115.14783668518066L188.07262500000002,112.6532688822065L188.35375000000002,116.76789808273315L188.63487500000002,121.43486615589687L188.91600000000003,119.29911967686245L189.197125,116.56370994022915L189.47825,117.18706553322929L189.759375,119.89757721764701L190.0405,116.86429514203752L190.321625,118.12565578733171L190.60275000000001,127.32617936815535L190.88387500000002,117.11809853145054L191.16500000000002,117.39903054918562L191.44612500000002,117.85280207225254L191.72725000000003,117.73789725984847L192.008375,119.54400076184953L192.2895,125.94575418744768L192.570625,124.75987141472953L192.85175,122.8017270224435L193.132875,123.64223221370153L193.414,118.50551686968123L193.695125,123.07650988442558L193.97625,130.68560784203666L194.257375,126.2049230166844L194.5385,123.5372142791748L194.81962499999997,115.03039986746651L195.10074999999998,126.959641456604L195.38187499999998,128.46980176653182L195.66299999999998,121.85523932320731L195.94412499999999,123.22716420037406L196.22525,112.5494566644941L196.506375,117.36719962528774L196.7875,126.07904618127006L197.068625,119.89926522118705L197.34975,120.07885674067906L197.63087499999997,117.83827318464006L197.91199999999998,128.37569556917464L198.19312499999998,119.42029421670097L198.47424999999998,123.5033939225333L198.755375,117.90458760942732L199.0365,129.13885402679443L199.317625,128.96486909048897L199.59875,116.82360219955444L199.879875,121.34636654172624L200.161,127.46965966905867L200.442125,115.2145128250122L200.72324999999998,126.99900811059135L201.00437499999998,132.16815723691667L201.28549999999998,118.41020495550973L201.566625,128.02440997532437L201.84775,129.04040724890572L202.128875,126.10316051755632L202.41,126.18713869367326L202.691125,124.14242383411953L202.97225,121.99992534092495L203.253375,119.08709437506539L203.53449999999998,126.89079502650671L203.81562499999998,123.8135645730155L204.09675,131.42857054301672L204.377875,136.50090060915267L204.659,122.73559345517839L204.940125,126.25574398040771L205.22125,119.27916506358555L205.502375,125.73680346352714L205.7835,128.2660356249128L206.064625,125.9684819493975L206.34575,121.0220890045166L206.62687499999998,125.18808174133301L206.908,128.8995795249939L207.189125,121.76788514001029L207.47025,127.20681340353829L207.751375,124.04319334030151L208.0325,129.59762927464078L208.313625,126.9884580884661L208.59475,132.09243822097778L208.875875,128.99730287279402L209.157,127.09172773361206L209.43812499999999,121.31483704703194L209.71925,129.836542061397L210.000375,133.55039099284582L210.2815,123.348459311894L210.562625,128.7934764453343L210.84375,139.7924472263881L211.124875,120.03689779554094L211.406,129.26659972327096L211.687125,120.80723026820591L211.96825,131.1293719155448L212.24937500000001,127.02348416192191L212.5305,115.27365323475429L212.811625,136.36013317108154L213.09275,123.7359164101737L213.373875,126.24055194854736L213.655,127.72334248679024L213.936125,138.14356919697354L214.21725,129.37855052947998L214.498375,129.71355894633703L214.7795,124.31333419254848L215.06062500000002,135.26256915501187L215.34175,130.08455801010132L215.622875,120.29932206017631L215.904,130.98685618809293L216.185125,133.49595287867956L216.46625,135.42009605680192L216.747375,133.7967792238508L217.0285,134.84382370540075L217.309625,141.7818799700056L217.59075,121.9709278515407L217.87187500000002,122.354225226811L218.15300000000002,120.98085348946708L218.434125,128.14974423817227L218.71525,137.03334515435355L218.996375,144.76012107304166L219.2775,136.22207859584265L219.558625,124.87797137669155L219.83975,134.73422404697965L220.120875,122.61279119764055L220.40200000000002,129.9267899649484L220.68312500000002,132.02491807937622L220.96425000000002,128.24855273110526L221.245375,134.77347012928556L221.5265,126.44504152025496L221.807625,125.42807967322213L222.08875,124.05657679694039L222.369875,126.46149955477034L222.651,129.7392407144819L222.932125,124.24738148280554L223.21325000000002,134.7798604284014L223.49437500000002,128.00831365585327L223.77550000000002,123.86450610842024L224.05662500000003,137.37824044908797L224.33775,120.26489884512765L224.618875,129.81297029767717L224.9,133.97625017166138L225.181125,140.10524031094144L225.46225,128.88902950286865L225.74337500000001,134.89199209213257L226.02450000000002,135.0427066939218L226.30562500000002,125.30768884931291L226.58675000000002,131.73632975987027L226.86787500000003,132.56164291926794L227.149,116.32353115081787L227.430125,130.54285097122192L227.71125,133.27024269104004L227.992375,123.1654314994812L228.2735,132.85161781311035L228.554625,132.29493835994177L228.83575,134.73307861600603L229.116875,125.61629206793648L229.398,128.74452434267317L229.679125,129.2247613498143L229.96024999999997,127.51788834163122L230.24137499999998,137.7450797898429L230.52249999999998,136.03953307015556L230.80362499999998,133.78309433800834L231.08474999999999,144.57760569027494L231.365875,135.53078086035595L231.647,136.5637184551784L231.928125,125.36477954047066L232.20925,125.49144009181433L232.490375,127.12048407963344L232.77149999999997,134.04184116636003L233.05262499999998,128.9502799170358L233.33374999999998,134.32608890533447L233.61487499999998,136.09168032237463L233.896,132.99401296888078L234.177125,131.26923506600517L234.45825,140.01161640030998L234.739375,129.49080276489258L235.0205,132.94035857064384L235.301625,127.1092106274196L235.58275,133.48359428133284L235.86387499999998,132.286196913038L236.14499999999998,135.50865595681327L236.42612499999998,140.90441955838884L236.70725,134.86353717531478L236.988375,132.43938323429654L237.2695,142.90578889846802L237.550625,140.8298761163439L237.83175,143.0159914152963L238.112875,129.8906787463597L238.394,132.07604047230313L238.67512499999998,135.07917962755477L238.95624999999998,137.67038563319616L239.237375,131.8069244793483L239.5185,143.16173243522644L239.799625,131.18266459873746L240.08075,138.2022273199899L240.361875,139.88495584896634L240.643,130.65902178628104L240.924125,135.7532958984375L241.20525,143.22964443479265L241.486375,139.27992715154375L241.76749999999998,129.5681494985308L242.048625,138.07990734917777L242.32975,134.31903546197074L242.610875,134.5276847566877L242.892,135.36131736210416L243.173125,139.20743342808316L243.45425,138.15448093414307L243.735375,143.69233826228552L244.0165,127.4017175265721L244.297625,141.36584738322668L244.57874999999999,144.77314281463623L244.859875,131.6076194899423L245.141,134.7048648425511L245.422125,141.77154094832287L245.70325,146.2200632776533L245.984375,132.47778531483243L246.2655,124.0850317137582L246.546625,133.97884246281217L246.82775,134.37690986905778L247.108875,132.10003423690796L247.39000000000001,136.33342654364452L247.671125,135.3888077054705L247.95225,127.18908936636788L248.233375,136.79774808883667L248.5145,140.52051932471142L248.795625,139.9278190817152L249.07675,139.98159405163358L249.357875,142.00252614702498L249.639,128.66175188337053L249.920125,136.83765731539046L250.20125000000002,139.78629807063513L250.482375,132.2043890271868L250.7635,126.6282501901899L251.044625,143.4291001388005L251.32575,137.7762475694929L251.606875,135.50172308513098L251.888,131.7099245616368L252.169125,141.65163241113936L252.45025,129.2782348905291L252.731375,135.19703844615393L253.01250000000002,144.9993955748422L253.29362500000002,137.30366686412268L253.57475,132.0566887174334L253.855875,146.2354964528765L254.137,129.52263368879045L254.418125,133.64895834241594L254.69925,134.9135744231088" style="fill: none;" fill="none"></path></g></g></g></g></g></g><g transform="translate(48, 177)" clip-path="url(#clip_1)"><clipPath id="clip_1"><rect width="281" height="23"></rect></clipPath><g><g><line x1="0" y1="0" x2="0" y2="5" style="visibility: inherit;" fill="rgb(0, 0, 0)" stroke="rgb(204, 204, 204)" stroke-width="1px"></line><line x1="28.1125" y1="0" x2="28.1125" y2="5" style="visibility: inherit;" fill="rgb(0, 0, 0)" stroke="rgb(204, 204, 204)" stroke-width="1px"></line><line x1="56.225" y1="0" x2="56.225" y2="5" style="visibility: inherit;" fill="rgb(0, 0, 0)" stroke="rgb(204, 204, 204)" stroke-width="1px"></line><line x1="84.33749999999999" y1="0" x2="84.33749999999999" y2="5" style="visibility: inherit;" fill="rgb(0, 0, 0)" stroke="rgb(204, 204, 204)" stroke-width="1px"></line><line x1="112.45" y1="0" x2="112.45" y2="5" style="visibility: inherit;" fill="rgb(0, 0, 0)" stroke="rgb(204, 204, 204)" stroke-width="1px"></line><line x1="140.5625" y1="0" x2="140.5625" y2="5" style="visibility: inherit;" fill="rgb(0, 0, 0)" stroke="rgb(204, 204, 204)" stroke-width="1px"></line><line x1="168.67499999999998" y1="0" x2="168.67499999999998" y2="5" style="visibility: inherit;" fill="rgb(0, 0, 0)" stroke="rgb(204, 204, 204)" stroke-width="1px"></line><line x1="196.7875" y1="0" x2="196.7875" y2="5" style="visibility: inherit;" fill="rgb(0, 0, 0)" stroke="rgb(204, 204, 204)" stroke-width="1px"></line><line x1="224.9" y1="0" x2="224.9" y2="5" style="visibility: inherit;" fill="rgb(0, 0, 0)" stroke="rgb(204, 204, 204)" stroke-width="1px"></line><line x1="253.01250000000002" y1="0" x2="253.01250000000002" y2="5" style="visibility: inherit;" fill="rgb(0, 0, 0)" stroke="rgb(204, 204, 204)" stroke-width="1px"></line><line x1="281.125" y1="0" x2="281.125" y2="5" style="visibility: inherit;" fill="rgb(0, 0, 0)" stroke="rgb(204, 204, 204)" stroke-width="1px"></line></g><g transform="translate(0, 8)"><text x="0" y="0" dx="0em" dy="0.95em" style="text-anchor: middle; visibility: hidden; font-family: &quot;Helvetica Neue&quot;, sans-serif; font-size: 12px; font-weight: 200;" fill="rgb(50, 49, 63)" stroke="none" stroke-width="1px">-100</text><text x="28.1125" y="0" dx="0em" dy="0.95em" style="text-anchor: middle; visibility: inherit; font-family: &quot;Helvetica Neue&quot;, sans-serif; font-size: 12px; font-weight: 200;" fill="rgb(50, 49, 63)" stroke="none" stroke-width="1px">0</text><text x="56.225" y="0" dx="0em" dy="0.95em" style="text-anchor: middle; visibility: inherit; font-family: &quot;Helvetica Neue&quot;, sans-serif; font-size: 12px; font-weight: 200;" fill="rgb(50, 49, 63)" stroke="none" stroke-width="1px">100</text><text x="84.33749999999999" y="0" dx="0em" dy="0.95em" style="text-anchor: middle; visibility: inherit; font-family: &quot;Helvetica Neue&quot;, sans-serif; font-size: 12px; font-weight: 200;" fill="rgb(50, 49, 63)" stroke="none" stroke-width="1px">200</text><text x="112.45" y="0" dx="0em" dy="0.95em" style="text-anchor: middle; visibility: inherit; font-family: &quot;Helvetica Neue&quot;, sans-serif; font-size: 12px; font-weight: 200;" fill="rgb(50, 49, 63)" stroke="none" stroke-width="1px">300</text><text x="140.5625" y="0" dx="0em" dy="0.95em" style="text-anchor: middle; visibility: inherit; font-family: &quot;Helvetica Neue&quot;, sans-serif; font-size: 12px; font-weight: 200;" fill="rgb(50, 49, 63)" stroke="none" stroke-width="1px">400</text><text x="168.67499999999998" y="0" dx="0em" dy="0.95em" style="text-anchor: middle; visibility: inherit; font-family: &quot;Helvetica Neue&quot;, sans-serif; font-size: 12px; font-weight: 200;" fill="rgb(50, 49, 63)" stroke="none" stroke-width="1px">500</text><text x="196.7875" y="0" dx="0em" dy="0.95em" style="text-anchor: middle; visibility: inherit; font-family: &quot;Helvetica Neue&quot;, sans-serif; font-size: 12px; font-weight: 200;" fill="rgb(50, 49, 63)" stroke="none" stroke-width="1px">600</text><text x="224.9" y="0" dx="0em" dy="0.95em" style="text-anchor: middle; visibility: inherit; font-family: &quot;Helvetica Neue&quot;, sans-serif; font-size: 12px; font-weight: 200;" fill="rgb(50, 49, 63)" stroke="none" stroke-width="1px">700</text><text x="253.01250000000002" y="0" dx="0em" dy="0.95em" style="text-anchor: middle; visibility: inherit; font-family: &quot;Helvetica Neue&quot;, sans-serif; font-size: 12px; font-weight: 200;" fill="rgb(50, 49, 63)" stroke="none" stroke-width="1px">800</text><text x="281.125" y="0" dx="0em" dy="0.95em" style="text-anchor: middle; visibility: hidden; font-family: &quot;Helvetica Neue&quot;, sans-serif; font-size: 12px; font-weight: 200;" fill="rgb(50, 49, 63)" stroke="none" stroke-width="1px">900</text></g><line x1="0" y1="0" x2="281.125" y2="0" fill="rgb(0, 0, 0)" stroke="rgb(204, 204, 204)" stroke-width="1px"></line></g></g></g></g></svg>