<svg viewBox="0 0 330 200" xmlns="http://www.w3.org/2000/svg"><g><g><g><g><g><line x1="48.875" y1="177" x2="43.875" y2="177" style="visibility: inherit;" fill="rgb(0, 0, 0)" stroke="rgb(204, 204, 204)" stroke-width="1px"></line><line x1="48.875" y1="164.35714285714286" x2="43.875" y2="164.35714285714286" style="visibility: inherit;" fill="rgb(0, 0, 0)" stroke="rgb(204, 204, 204)" stroke-width="1px"></line><line x1="48.875" y1="151.7142857142857" x2="43.875" y2="151.7142857142857" style="visibility: inherit;" fill="rgb(0, 0, 0)" stroke="rgb(204, 204, 204)" stroke-width="1px"></line><line x1="48.875" y1="139.0714285714286" x2="43.875" y2="139.0714285714286" style="visibility: inherit;" fill="rgb(0, 0, 0)" stroke="rgb(204, 204, 204)" stroke-width="1px"></line><line x1="48.875" y1="126.42857142857146" x2="43.875" y2="126.42857142857146" style="visibility: inherit;" fill="rgb(0, 0, 0)" stroke="rgb(204, 204, 204)" stroke-width="1px"></line><line x1="48.875" y1="113.7857142857143" x2="43.875" y2="113.7857142857143" style="visibility: inherit;" fill="rgb(0, 0, 0)" stroke="rgb(204, 204, 204)" stroke-width="1px"></line><line x1="48.875" y1="101.14285714285715" x2="43.875" y2="101.14285714285715" style="visibility: inherit;" fill="rgb(0, 0, 0)" stroke="rgb(204, 204, 204)" stroke-width="1px"></line><line x1="48.875" y1="88.5" x2="43.875" y2="88.5" style="visibility: inherit;" fill="rgb(0, 0, 0)" stroke="rgb(204, 204, 204)" stroke-width="1px"></line><line x1="48.875" y1="75.85714285714285" x2="43.875" y2="75.85714285714285" style="visibility: inherit;" fill="rgb(0, 0, 0)" stroke="rgb(204, 204, 204)" stroke-width="1px"></line><line x1="48.875" y1="63.214285714285765" x2="43.875" y2="63.214285714285765" style="visibility: inherit;" fill="rgb(0, 0, 0)" stroke="rgb(204, 204, 204)" stroke-width="1px"></line><line x1="48.875" y1="50.57142857142861" x2="43.875" y2="50.57142857142861" style="visibility: inherit;" fill="rgb(0, 0, 0)" stroke="rgb(204, 204, 204)" stroke-width="1px"></line><line x1="48.875" y1="37.928571428571445" x2="43.875" y2="37.928571428571445" style="visibility: inherit;" fill="rgb(0, 0, 0)" stroke="rgb(204, 204, 204)" stroke-width="1px"></line><line x1="48.875" y1="25.285714285714306" x2="43.875" y2="25.285714285714306" style="visibility: inherit;" fill="rgb(0, 0, 0)" stroke="rgb(204, 204, 204)" stroke-width="1px"></line><line x1="48.875" y1="12.642857142857167" x2="43.875" y2="12.642857142857167" style="visibility: inherit;" fill="rgb(0, 0, 0)" stroke="rgb(204, 204, 204)" stroke-width="1px"></line><line x1="48.875" y1="0" x2="43.875" y2="0" style="visibility: inherit;" fill="rgb(0, 0, 0)" stroke="rgb(204, 204, 204)" stroke-width="1px"></line></g><g transform="translate(38.875, 0)"><text x="0" y="177" dx="0em" dy="0.3em" style="text-anchor: end; visibility: hidden; font-family: &quot;Helvetica Neue&quot;, sans-serif; font-size: 12px; font-weight: 200;" fill="rgb(50, 49, 63)" stroke="none" stroke-width="1px">0.64</text><text x="0" y="164.35714285714286" dx="0em" dy="0.3em" style="text-anchor: end; visibility: inherit; font-family: &quot;Helvetica Neue&quot;, sans-serif; font-size: 12px; font-weight: 200;" fill="rgb(50, 49, 63)" stroke="none" stroke-width="1px">0.66</text><text x="0" y="151.7142857142857" dx="0em" dy="0.3em" style="text-anchor: end; visibility: hidden; font-family: &quot;Helvetica Neue&quot;, sans-serif; font-size: 12px; font-weight: 200;" fill="rgb(50, 49, 63)" stroke="none" stroke-width="1px">0.68</text><text x="0" y="139.0714285714286" dx="0em" dy="0.3em" style="text-anchor: end; visibility: inherit; font-family: &quot;Helvetica Neue&quot;, sans-serif; font-size: 12px; font-weight: 200;" fill="rgb(50, 49, 63)" stroke="none" stroke-width="1px">0.7</text><text x="0" y="126.42857142857146" dx="0em" dy="0.3em" style="text-anchor: end; visibility: hidden; font-family: &quot;Helvetica Neue&quot;, sans-serif; font-size: 12px; font-weight: 200;" fill="rgb(50, 49, 63)" stroke="none" stroke-width="1px">0.72</text><text x="0" y="113.7857142857143" dx="0em" dy="0.3em" style="text-anchor: end; visibility: inherit; font-family: &quot;Helvetica Neue&quot;, sans-serif; font-size: 12px; font-weight: 200;" fill="rgb(50, 49, 63)" stroke="none" stroke-width="1px">0.74</text><text x="0" y="101.14285714285715" dx="0em" dy="0.3em" style="text-anchor: end; visibility: hidden; font-family: &quot;Helvetica Neue&quot;, sans-serif; font-size: 12px; font-weight: 200;" fill="rgb(50, 49, 63)" stroke="none" stroke-width="1px">0.76</text><text x="0" y="88.5" dx="0em" dy="0.3em" style="text-anchor: end; visibility: inherit; font-family: &quot;Helvetica Neue&quot;, sans-serif; font-size: 12px; font-weight: 200;" fill="rgb(50, 49, 63)" stroke="none" stroke-width="1px">0.78</text><text x="0" y="75.85714285714285" dx="0em" dy="0.3em" style="text-anchor: end; visibility: hidden; font-family: &quot;Helvetica Neue&quot;, sans-serif; font-size: 12px; font-weight: 200;" fill="rgb(50, 49, 63)" stroke="none" stroke-width="1px">0.8</text><text x="0" y="63.214285714285765" dx="0em" dy="0.3em" style="text-anchor: end; visibility: inherit; font-family: &quot;Helvetica Neue&quot;, sans-serif; font-size: 12px; font-weight: 200;" fill="rgb(50, 49, 63)" stroke="none" stroke-width="1px">0.82</text><text x="0" y="50.57142857142861" dx="0em" dy="0.3em" style="text-anchor: end; visibility: hidden; font-family: &quot;Helvetica Neue&quot;, sans-serif; font-size: 12px; font-weight: 200;" fill="rgb(50, 49, 63)" stroke="none" stroke-width="1px">0.84</text><text x="0" y="37.928571428571445" dx="0em" dy="0.3em" style="text-anchor: end; visibility: inherit; font-family: &quot;Helvetica Neue&quot;, sans-serif; font-size: 12px; font-weight: 200;" fill="rgb(50, 49, 63)" stroke="none" stroke-width="1px">0.86</text><text x="0" y="25.285714285714306" dx="0em" dy="0.3em" style="text-anchor: end; visibility: hidden; font-family: &quot;Helvetica Neue&quot;, sans-serif; font-size: 12px; font-weight: 200;" fill="rgb(50, 49, 63)" stroke="none" stroke-width="1px">0.88</text><text x="0" y="12.642857142857167" dx="0em" dy="0.3em" style="text-anchor: end; visibility: inherit; font-family: &quot;Helvetica Neue&quot;, sans-serif; font-size: 12px; font-weight: 200;" fill="rgb(50, 49, 63)" stroke="none" stroke-width="1px">0.9</text><text x="0" y="0" dx="0em" dy="0.3em" style="text-anchor: end; visibility: hidden; font-family: &quot;Helvetica Neue&quot;, sans-serif; font-size: 12px; font-weight: 200;" fill="rgb(50, 49, 63)" stroke="none" stroke-width="1px">0.92</text></g><line x1="48.875" y1="0" x2="48.875" y2="177" fill="rgb(0, 0, 0)" stroke="rgb(204, 204, 204)" stroke-width="1px"></line></g></g><g transform="translate(48, 0)" clip-path="url(#clip_0)"><clipPath id="clip_0"><rect width="281" height="177"></rect></clipPath><g><g><g><line x1="0" y1="0" x2="0" y2="177" fill="rgb(0, 0, 0)" stroke="rgb(60, 60, 60)" stroke-width="1px" opacity="0.25"></line><line x1="35.140625" y1="0" x2="35.140625" y2="177" fill="rgb(0, 0, 0)" stroke="rgb(60, 60, 60)" stroke-width="1px" opacity="0.25"></line><line x1="70.28125" y1="0" x2="70.28125" y2="177" fill="rgb(0, 0, 0)" stroke="rgb(60, 60, 60)" stroke-width="1px" opacity="0.25"></line><line x1="105.421875" y1="0" x2="105.421875" y2="177" fill="rgb(0, 0, 0)" stroke="rgb(60, 60, 60)" stroke-width="1px" opacity="0.25"></line><line x1="140.5625" y1="0" x2="140.5625" y2="177" fill="rgb(0, 0, 0)" stroke="rgb(60, 60, 60)" stroke-width="1px" opacity="0.25"></line><line x1="175.703125" y1="0" x2="175.703125" y2="177" fill="rgb(0, 0, 0)" stroke="rgb(60, 60, 60)" stroke-width="1px" opacity="0.25"></line><line x1="210.84375" y1="0" x2="210.84375" y2="177" fill="rgb(0, 0, 0)" stroke="rgb(60, 60, 60)" stroke-width="1px" opacity="0.25"></line><line x1="245.984375" y1="0" x2="245.984375" y2="177" fill="rgb(0, 0, 0)" stroke="rgb(60, 60, 60)" stroke-width="1px" opacity="0.25"></line><line x1="281.125" y1="0" x2="281.125" y2="177" fill="rgb(0, 0, 0)" stroke="rgb(60, 60, 60)" stroke-width="1px" opacity="0.25"></line></g><g><line x1="0" y1="177" x2="281.125" y2="177" fill="rgb(0, 0, 0)" stroke="rgb(60, 60, 60)" stroke-width="1px" opacity="0.25"></line><line x1="0" y1="164.35714285714286" x2="281.125" y2="164.35714285714286" fill="rgb(0, 0, 0)" stroke="rgb(60, 60, 60)" stroke-width="1px" opacity="0.25"></line><line x1="0" y1="151.7142857142857" x2="281.125" y2="151.7142857142857" fill="rgb(0, 0, 0)" stroke="rgb(60, 60, 60)" stroke-width="1px" opacity="0.25"></line><line x1="0" y1="139.0714285714286" x2="281.125" y2="139.0714285714286" fill="rgb(0, 0, 0)" stroke="rgb(60, 60, 60)" stroke-width="1px" opacity="0.25"></line><line x1="0" y1="126.42857142857146" x2="281.125" y2="126.42857142857146" fill="rgb(0, 0, 0)" stroke="rgb(60, 60, 60)" stroke-width="1px" opacity="0.25"></line><line x1="0" y1="113.7857142857143" x2="281.125" y2="113.7857142857143" fill="rgb(0, 0, 0)" stroke="rgb(60, 60, 60)" stroke-width="1px" opacity="0.25"></line><line x1="0" y1="101.14285714285715" x2="281.125" y2="101.14285714285715" fill="rgb(0, 0, 0)" stroke="rgb(60, 60, 60)" stroke-width="1px" opacity="0.25"></line><line x1="0" y1="88.5" x2="281.125" y2="88.5" fill="rgb(0, 0, 0)" stroke="rgb(60, 60, 60)" stroke-width="1px" opacity="0.25"></line><line x1="0" y1="75.85714285714285" x2="281.125" y2="75.85714285714285" fill="rgb(0, 0, 0)" stroke="rgb(60, 60, 60)" stroke-width="1px" opacity="0.25"></line><line x1="0" y1="63.214285714285765" x2="281.125" y2="63.214285714285765" fill="rgb(0, 0, 0)" stroke="rgb(60, 60, 60)" stroke-width="1px" opacity="0.25"></line><line x1="0" y1="50.57142857142861" x2="281.125" y2="50.57142857142861" fill="rgb(0, 0, 0)" stroke="rgb(60, 60, 60)" stroke-width="1px" opacity="0.25"></line><line x1="0" y1="37.928571428571445" x2="281.125" y2="37.928571428571445" fill="rgb(0, 0, 0)" stroke="rgb(60, 60, 60)" stroke-width="1px" opacity="0.25"></line><line x1="0" y1="25.285714285714306" x2="281.125" y2="25.285714285714306" fill="rgb(0, 0, 0)" stroke="rgb(60, 60, 60)" stroke-width="1px" opacity="0.25"></line><line x1="0" y1="12.642857142857167" x2="281.125" y2="12.642857142857167" fill="rgb(0, 0, 0)" stroke="rgb(60, 60, 60)" stroke-width="1px" opacity="0.25"></line><line x1="0" y1="0" x2="281.125" y2="0" fill="rgb(0, 0, 0)" stroke="rgb(60, 60, 60)" stroke-width="1px" opacity="0.25"></line></g></g></g><g><g><line x1="0" y1="581.5714285714286" x2="281.125" y2="581.5714285714286" fill="rgb(0, 0, 0)" stroke="rgb(153, 153, 153)" stroke-width="1.5px"></line></g></g><g><g><line x1="35.140625" y1="0" x2="35.140625" y2="177" fill="rgb(0, 0, 0)" stroke="rgb(153, 153, 153)" stroke-width="1.5px"></line></g></g><g><g><g><g><g><path stroke="rgb(51, 187, 238)" stroke-width="2px" d="M44.101484375,-1.142389552933821L44.452890624999995,2.9793533767972917L44.62859375,4.491284583296107L44.804296875,6.526157779353042L44.980000000000004,6.350575268268614L45.155703124999995,8.313670635223417L45.33140625,10.572505729539074L45.507109375,12.663294042859775L45.682812500000004,13.892446977751632L45.858515624999995,15.520955928734395L46.385625000000005,20.506218169416712L46.561328124999996,22.02406492403577L47.088437500000005,23.52522003650668L47.43984375,29.08651348522733L47.615546875,28.642583625657238L47.791250000000005,28.186747312545805L47.966953124999996,29.03282140833994L48.318359375,32.06203418970111L48.669765625000004,35.149234414100675L48.845468749999995,35.82971084117892L49.021171875,35.99636351210734L49.372578125000004,39.367660760879545L49.548281249999995,38.75994180781504L49.723984375,38.85956415959768L49.8996875,41.99894931486676L50.075390625000004,41.0620319928442L50.426796875,43.31887011868616L50.6025,43.32071637255808L50.778203125000005,44.45902608122145L50.953906249999996,45.44624440159117L51.129609375,45.57292002439502L51.3053125,46.9968715820994L51.656718749999996,47.97271095003401L51.832421875,50.47442262513299L52.008125,50.96160757541658L52.183828125000005,50.04010082142695L52.359531249999996,51.492160652365015L52.7109375,52.42482028688704L52.886640625,52.4083547166416L53.062343750000004,52.754094013146L53.589453125,55.60651856660844L53.765156250000004,58.16659447125028L53.940859374999995,56.07976241622656L54.1165625,56.64162645169668L54.292265625,56.89222715582167L54.819375,59.976337730884566L54.995078125,60.45074961866652L55.170781250000005,61.38906105075567L55.5221875,60.58831437144964L55.873593750000005,62.822658342974535L56.576406250000005,64.03726731879372L56.752109374999996,64.36111531938826L56.9278125,64.42584724085673L57.103515625,63.66323135580336L57.27921875,65.72809675761633L57.454921875000004,65.92541985000884L57.806328125,66.63675509180342L58.157734375000004,67.1179491366659L58.333437499999995,68.12574000017985L58.509140625,70.2091432980129L58.68484375,69.72169459717615L58.860546875000004,69.18771276303701L59.211953125,69.68623898710524L59.38765625,73.14012783765794L59.563359375000005,71.64323041268759L59.739062499999996,75.34180441924505L59.914765625,71.83991296802252L60.09046875,74.01114520004819L60.617578125,71.4658393263817L60.79328125,74.54987454414369L60.968984375000005,73.88812440633775L61.320390625,75.17417210340501L61.49609375,75.38434361560006L61.671796875,76.45008424350195L62.023203124999995,76.05257448128293L62.19890625,78.04257240465711L62.374609375,77.47207995823453L62.550312500000004,76.41364898851941L62.726015624999995,76.85324580328806L62.90171875,78.46491239752089L63.077421875,78.64437580960139L63.253125000000004,78.16830606119974L63.428828124999995,77.47648836033686L63.60453125,78.15349835157396L63.955937500000005,78.35470234496255L64.131640625,79.42910906246732L64.30734375,79.77854086671557L64.483046875,78.00206785542626L64.65875,81.770158972059L64.834453125,81.21164833647866L65.01015625000001,79.12266859837942L65.3615625,81.9067817585809L65.71296875,82.33281425918852L65.888671875,80.11934426001142L66.064375,83.06170775209155L66.240078125,85.18780096088138L66.41578125,82.72015078578677L66.59148437500001,82.27689914192473L66.76718749999999,82.66755138976235L66.942890625,84.69801618371692L67.11859375,82.56521617514748L67.294296875,84.76655364888056L67.47,84.78573208195824L67.645703125,84.82284555264883L67.82140625,84.86787153993335L67.99710937500001,84.46553891045708L68.17281249999999,85.52762470926558L68.348515625,85.33859091997148L68.52421875,86.431761605399L68.699921875,84.62247048957009L68.875625,88.58758326939176L69.051328125,86.19193699530194L69.22703125,87.21348056622915L69.57843749999999,88.99462573017395L69.754140625,86.99064902748381L69.92984375,87.38544592687063L70.105546875,86.24446103402548L70.28125,87.32112847055708L70.456953125,88.65774091652463L70.98406250000001,88.28148191315789L71.15976562499999,89.13471495253701L71.511171875,88.73392714772908L71.862578125,90.32769638299943L72.03828125,90.0671108365059L72.21398437500001,89.48889426674164L72.38968750000001,88.79677513667517L72.56539062499999,91.87576141527722L72.74109374999999,92.20277442250935L72.916796875,91.77414209502085L73.44390625,91.49690258502962L73.61960937500001,91.45794286046711L73.79531250000001,92.56806893859593L73.97101562499999,93.27051201888494L74.14671874999999,92.55691605806352L74.322421875,93.46651635851181L74.498125,94.77697982106892L75.025234375,93.44266577277867L75.37664062500001,93.2264279978616L75.55234374999999,93.43192735740118L75.72804687499999,94.23572600739344L75.90375,94.35622233152391L76.079453125,95.64633932283948L76.430859375,94.87923967838289L76.60656250000001,94.59691355058126L76.78226562500001,93.99985765559335L76.95796874999999,95.43239994559971L77.13367187499999,95.6460378936359L77.309375,96.23661306074689L77.485078125,96.0333367415837L77.66078125,96.013819200652L77.836484375,97.19907650777273L78.01218750000001,94.91254760537831L78.18789062500001,97.5476417030607L78.36359374999999,95.60722888367518L78.53929687499999,95.82094218901227L78.715,94.32317815508164L78.890703125,95.40485685212273L79.242109375,95.33368188142778L79.59351562500001,97.32017569031035L80.8234375,98.94597177846093L81.17484375000001,99.93488563810078L81.35054687499999,97.86888987677439L81.52624999999999,100.09705454962595L81.87765625,100.58766825710026L82.053359375,99.06469720602037L82.40476562500001,98.94246766396932L82.58046875000001,97.59522983857565L82.75617187499999,100.75062842028483L83.107578125,99.41589990683966L83.28328125,99.79943088974272L83.458984375,101.72507367815291L83.6346875,102.01926858084543L83.810390625,101.869797374521L83.98609375000001,101.68916592427664L84.33749999999999,101.73743227549963L84.51320312499999,102.81700096811568L84.68890625,103.46601572207044L85.0403125,101.75337034463884L85.216015625,102.02326251779286L85.56742187500001,102.17989266770228L85.74312499999999,101.96342882088254L85.91882812499999,102.61315946919579L86.270234375,103.589300266334L86.4459375,101.46558081252236L86.621640625,105.87971006972451L86.79734375000001,104.48420589310784L86.97304687500001,105.53532720463618L87.14874999999999,105.62029256139485L87.32445312499999,103.76597545828139L87.50015625,104.91864073276521L87.675859375,104.56969875097276L87.8515625,105.29798938546864L88.027265625,105.82292834350042L88.20296875,103.28689141784398L88.37867187500001,106.29541862010957L88.55437500000001,107.05486949852536L88.73007812499999,105.64440689768111L89.081484375,104.43379185880934L89.432890625,107.86450833933695L89.60859375,105.9195364032473L89.78429687500001,106.70909252337049L89.96000000000001,106.48075990165984L90.13570312499999,107.888434282371L90.31140624999999,106.73090846197947L90.6628125,106.75588940722604L90.838515625,107.70878247703826L91.01421875,108.33270324979512L91.18992187500001,108.40033642734801L91.71703124999999,108.26676561151234L91.892734375,108.69317489862443L92.244140625,107.94397261313031L92.595546875,105.7277143938201L92.77125000000001,111.0044963530132L93.12265624999999,107.95309084653856L93.29835937499999,109.04317188262941L93.82546875,107.53500854117532L94.001171875,109.41686873776574L94.17687500000001,108.96171064036234L94.52828124999999,110.3063109602247L94.70398437499999,109.81807100772859L94.8796875,109.94429448672705L95.055390625,110.72424255098616L95.23109375,109.73012903758459L95.406796875,109.93152142422541L95.58250000000001,108.84038538592203L95.75820312500001,110.84048118761609L96.10960937499999,108.52844383886884L96.2853125,111.56153752122609L96.63671875,110.61391946247647L96.988125,111.52672244821278L97.16382812500001,110.27944608245579L97.33953125000001,110.53999395029886L97.51523437499999,110.5841533286231L97.69093749999999,109.8577466266496L97.866640625,111.41195327895029L98.218046875,112.17784720659257L98.39375,110.47982114553453L98.56945312500001,112.1851191861289L98.74515625000001,109.95348807743619L98.92085937499999,111.36538246699743L99.09656249999999,112.7707584500313L99.44796875,109.7189007997513L99.623671875,110.64662453106473L99.799375,109.94105412278859L99.97507812500001,110.12104503597533L100.15078125000001,113.62677970954351L100.32648437499999,112.06228678567071L100.50218749999999,113.10327254022872L100.85359375,115.20332980155945L101.029296875,113.89836742196766L101.205,113.05248171942577L101.380703125,112.31360338415419L101.73210937500001,115.03377587454662L101.90781249999999,114.49203223841533L102.25921875,114.30473166704178L102.434921875,113.37267489092693L102.610625,116.65143337420056L102.786328125,115.2436836361885L102.96203125000001,115.03290926558633L103.13773437500001,114.95585642542159L103.31343749999999,116.54291886091232L103.48914062499999,113.64068313155857L103.840546875,114.77684515714645L104.01625,114.28973556416378L104.36765625000001,116.19329866341184L104.54335937500001,114.45770698785782L104.71906249999999,115.67495346920833L104.89476562499999,113.04543581179212L105.07046875,114.91780098846982L105.246171875,116.35000417062216L105.421875,115.5957529459681L105.597578125,115.76022025517057L105.77328125,115.86466547421048L105.94898437500001,115.76847187961852L106.12468750000001,115.05464984689442L106.30039062499999,115.71383783646993L106.47609374999999,117.36653648103987L107.003203125,117.1018439616476L107.35460937500001,117.78880111660277L107.70601562499999,117.27328182118282L107.88171874999999,116.19853599582402L108.057421875,119.02839103766851L108.233125,117.16616141796112L108.408828125,116.16997557878494L108.58453125,115.80392748968944L108.93593750000001,119.07703417539597L109.28734374999999,115.35381833144598L109.63875,119.55822822025846L109.814453125,118.3181484767369L109.99015625,119.39428841216225L110.165859375,118.73137023619245L110.34156250000001,118.14897133622853L110.51726562500001,117.63936758892879L110.86867187499999,121.03022005728315L111.044375,119.47951751947403L111.220078125,118.50759673118591L111.39578125,118.61030873230527L111.571484375,119.49545558861325L111.74718750000001,120.46771548475539L112.09859374999999,117.72440830298834L112.27429687499999,120.24925466946195L112.45,122.02949554579601L112.977109375,119.3099635924612L113.15281250000001,119.93765223026276L113.50421874999999,121.01722092287883L113.67992187499999,119.84955954551697L114.031328125,118.9964395420892L114.5584375,120.58519751685009L114.90984375000001,118.77654693807875L115.08554687499999,120.91469731501172L115.26124999999999,117.9901935032436L115.436953125,119.1680281162262L115.61265625,121.20983418396543L115.9640625,122.23808455467224L116.49117187499999,120.18516328505109L116.842578125,121.66962675537383L117.01828125,122.42289833511626L117.193984375,123.0907900929451L117.3696875,120.64035906110493L117.54539062500001,120.41496537412917L117.89679687499999,122.02659428971157L118.07249999999999,121.49385585103718L118.248203125,123.24384077106205L118.7753125,121.11910399368833L118.951015625,120.81775014741082L119.12671875000001,124.46896209035603L119.30242187500001,122.7831439120429L119.65382812499999,122.36811357736588L119.82953125,124.06515999351231L120.005234375,123.92993131705694L120.356640625,125.66767067568645L120.53234375000001,123.82616431372509L120.70804687500001,124.5416818857193L120.88374999999999,124.06941768101285L121.23515625,123.46407248292653L121.5865625,122.07493599823545L121.762265625,124.78135578121459L122.11367187500001,123.53374030760358L122.28937499999999,123.75909631592889L122.64078125,124.78218471152444L122.816484375,125.63149917125702L122.9921875,122.70123052597046L123.51929687500001,122.84704690320153L123.69500000000001,124.53098114899228L123.87070312499999,124.75995430776052L124.04640624999999,124.73889194216048L124.222109375,125.08534713302342L124.3978125,123.95732369593213L124.573515625,124.8501946755818L124.74921875,126.31227702753887L124.92492187500001,124.07092482703075L125.10062500000001,123.55107248680935L125.27632812499999,126.22478720120023L125.45203124999999,124.4112760765212L125.979140625,124.01192006043027L126.15484375,124.91202534096584L126.33054687500001,123.95988584416256L126.50625000000001,124.52958703892574L126.68195312499999,124.3883297783988L126.85765624999999,124.9919040799141L127.033359375,125.1420535019466L127.2090625,125.3888486623764L127.384765625,125.17148052794595L127.91187500000001,126.28989590917315L128.26328125,125.11631898369109L128.438984375,128.06459802389145L128.96609375,126.58661528144565L129.3175,126.5162315624101L129.493203125,125.43971484048028L129.844609375,125.4749443786485L130.196015625,127.2427136216845L130.547421875,128.86658809866225L131.07453125,127.53197262116842L131.250234375,125.68730125256948L131.4259375,127.4595542550087L131.60164062500002,127.05597823006768L131.77734375,128.27054952723643L131.95304687499998,125.8573826806886L132.12875,126.814081294196L132.304453125,126.45240392855237L132.48015625,127.27636065653394L132.655859375,127.97111729213171L132.8315625,128.16595359359468L133.007265625,126.58352563210897L133.18296875000001,129.4842918940953L133.358671875,127.87179636955261L133.53437499999998,125.78613235269275L133.88578125,129.34024641343527L134.061484375,127.45167941706524L134.2371875,129.03131915841783L134.41289062500002,127.6096283197403L134.58859375,126.30715273107802L134.76429687499999,129.24902640070235L134.94,128.94974488019943L135.467109375,127.00793795074736L135.6428125,127.31667681251254L135.818515625,128.53350882870814L136.34562499999998,126.99780239377704L136.521328125,128.25031609194622L136.69703125,130.73394201483046L136.872734375,129.33101514407568L137.0484375,129.10837199858258L137.224140625,128.58961233922415L137.92695312499998,130.58488527366094L138.10265625,128.96297008650646L138.4540625,128.89307618992672L138.629765625,128.87205150297711L138.981171875,129.23904155833384L139.15687499999999,130.3187986442021L139.332578125,130.05278737204418L139.50828125,129.48870029619763L140.035390625,130.944829421384L140.21109375,129.32046512195043L140.38679687500002,129.876300573349L140.73820312499998,129.73511867012297L140.91390625,130.5825491973332L141.2653125,128.21218529769354L141.441015625,129.10588520765305L141.61671875000002,131.27353796788626L141.792421875,131.44218760728836L141.96812500000001,130.4715855717659L142.143828125,130.6848090546472L142.495234375,130.8946414589882L142.67093749999998,132.1590616106987L143.02234375,133.5682808160782L143.19804687500002,131.12263497284482L143.37375,130.2456643836839L143.54945312499999,129.3759657740593L143.90085937499998,129.45478951079508L144.252265625,131.7571057677269L144.42796875000002,132.27217291934153L144.603671875,131.31276144300188L144.77937500000002,130.8152148638453L145.306484375,130.53827678305765L145.48218749999998,132.64304387569427L145.657890625,130.46883503028326L145.83359375,131.41468219246184L146.00929687500002,131.02143011774336L146.53640625,133.4140620997974L146.71210937499998,131.68227596793855L147.06351562499998,132.08287537949428L147.414921875,129.8832334450313L147.766328125,131.75160468476162L148.117734375,132.1559342827116L148.29343749999998,132.12548993315016L148.64484375,130.98220664262772L148.82054687500002,132.2157679796219L148.99625,130.03534215688705L149.17195312500002,133.45403914792197L149.34765625,130.7319073677063L149.52335937499998,131.21419409343176L150.05046875,133.4372344698225L150.226171875,132.46395725011826L150.40187500000002,131.99414215769087L150.577578125,132.38882602112636L150.75328125000001,132.13652977773123L150.928984375,132.71395509583613L151.10468749999998,129.50211389575685L151.45609374999998,131.4274552549635L151.63179687500002,133.10057572807585L151.8075,131.29395979642868L152.15890625,133.0276298608099L152.33460937499999,132.9855804869107L152.5103125,133.7844809123448L152.68601562499998,133.26444017887115L152.86171875,132.00310967649733L153.037421875,131.86283206088206L153.21312500000002,133.1903639520918L153.91593749999998,133.90780313525883L154.26734374999998,133.27630895376205L154.443046875,135.39162606852398L154.97015625,134.56420290470123L155.3215625,134.16058920110976L155.49726562499998,132.7650850244931L155.67296875,132.81681781155723L155.84867187499998,131.73796501329969L156.200078125,132.5192695089749L156.37578125000002,131.6657350403922L156.551484375,134.67343331234798L157.07859374999998,134.13379968064174L157.254296875,135.05003142356873L157.43,133.0284211124693L157.60570312500002,134.93285082067763L157.78140625,131.65548644747054L157.95710937500002,134.4938191856657L158.1328125,133.22427473749434L158.835625,133.93979230948858L159.011328125,133.8135688304901L159.362734375,135.35225187880653L159.53843750000001,134.6392964550427L159.714140625,132.8101863690785L159.88984374999998,134.7414055977549L160.41695312500002,135.83133591924397L160.59265625,135.21796516861235L160.76835937500002,135.84640737942289L161.11976562499999,135.83770361116956L161.47117187499998,134.29344412258695L161.822578125,136.6620371256556L161.99828125000002,134.73443504742215L162.173984375,134.31612667015622L162.34968750000002,135.67112629754203L162.525390625,133.855844276292L162.70109374999998,135.61905440262387L162.876796875,136.9444386107581L163.05249999999998,136.36162524563926L163.228203125,138.25633386203222L163.57960937500002,137.46504452398847L163.93101562500001,136.1706321665219L164.10671875,135.6962579573904L164.28242187499998,135.2878590651921L164.458125,133.57570351021633L164.63382812499998,135.3052289230483L164.80953125000002,134.7582102758544L164.985234375,134.7310439688819L165.16093750000002,135.505264878273L165.336640625,134.88514964921134L165.51234374999999,134.6041422741754L165.688046875,134.7175926906722L165.86374999999998,136.12089634793148L166.039453125,133.39850081716267L166.21515625,135.63435193470548L166.39085937500002,135.71223370518004L166.91796875,135.67971702984403L167.09367187499998,133.98907598427365L167.62078125,135.5190175856863L167.796484375,135.92534415210997L167.97218750000002,136.64025886569706L168.32359375000001,135.8635511653764L168.67499999999998,134.91276809998922L169.02640624999998,136.56633335351944L169.3778125,134.89788503306255L169.72921875,136.68905271802632L169.90492187499999,136.41742732695172L170.080625,136.09339093310493L170.43203125,136.7605667965753L170.607734375,136.92051266772407L170.78343750000002,139.28281333616803L171.13484375000002,134.84845064367568L171.310546875,138.3674482022013L171.661953125,137.57536761249816L171.83765624999998,136.8029552783285L172.013359375,138.2070878658976L172.36476562500002,136.22010423455922L172.54046875,134.9857893245561L172.891875,137.03222986630033L173.06757812499998,136.37258973291944L173.41898437499998,134.74935579299927L173.770390625,138.63504197767804L173.94609375000002,139.15534646170482L174.121796875,137.21843775681089L174.473203125,136.94255467823575L175.17601562500002,137.6509886639459L175.35171875,135.59991364819663L175.52742187500002,138.52999390023098L175.87882812499998,137.96134770768032L176.05453125,136.75152392046795L176.23023437499998,138.31771238361088L176.4059375,136.3306533949716L176.933046875,136.2193883402007L177.284453125,138.16115759100234L177.46015624999998,138.8440454517092L177.635859375,137.26448106765747L177.81156249999998,136.69655076946532L177.98726562500002,137.72608221428737L178.16296875,136.6554433618273L178.33867187500002,135.1756897228105L178.514375,139.56736250434605L178.86578125,139.21329622609275L179.04148437499998,136.95333077226368L179.2171875,137.37141307762693L179.392890625,137.13558240447728L179.56859375000002,139.2608843616077L179.744296875,139.62738459450858L180.095703125,139.78013384342194L180.27140624999998,139.4546279822077L180.447109375,136.0398495708193L180.62281249999998,138.87418837206707L180.798515625,139.0940809760775L181.14992187500002,137.99804671321598L181.325625,141.27390394040518L181.50132812500001,137.0038578425135L181.67703125,138.76650278908866L181.85273437499998,139.73710482461112L182.0284375,141.0280130675861L182.20414062499998,138.30806664909636L182.73125000000002,140.02839847121922L182.906953125,137.89424203123366L183.08265624999999,138.57226934603284L183.258359375,138.68127368177687L183.78546875,138.26646941900253L183.96117187500002,141.04304684911457L184.136875,138.9906907592501L184.31257812500002,138.1494018520628L184.48828125,139.37128280741828L185.01539062499998,138.88225160326277L185.19109375,138.10840748037612L185.366796875,140.799642767225L185.54250000000002,137.85678945268904L185.89390625000001,138.85094064474106L186.069609375,140.16796019247602L186.24531249999998,138.58572062424253L186.59671874999998,138.30938540186202L186.77242187500002,138.867783001491L187.12382812500002,138.1886253271784L187.29953125,139.6781377366611L187.47523437499999,137.80045987027034L187.6509375,142.34917726687024L187.82664062499998,141.8528740831784L188.00234375,140.14878175939833L188.178046875,136.4925962345941L188.529453125,139.67267433234625L188.70515625000002,139.584204861096L189.05656249999998,140.117922944682L189.232265625,140.38544136285782L189.40796874999998,139.4881619811058L189.759375,141.15566833530156L190.28648437500001,140.8532594868115L190.4621875,140.39746085235052L190.81359375,142.5325969372477L191.16500000000002,141.6023487363543L191.340703125,141.14421402556556L191.51640625000002,141.84168352399556L191.692109375,142.1254037618637L191.86781249999999,142.50275544609343L192.394921875,141.009475171566L192.570625,140.39158298288075L192.92203125,141.63019325903485L193.09773437500002,140.3697293656213L193.2734375,140.3530000448227L193.44914062499998,141.78426126071386L193.62484375,139.52674491916386L193.97625,142.34597458158223L194.151953125,139.35029579911915L194.32765625000002,141.52047302893232L194.503359375,140.43804075888227L194.67906250000001,140.30243529592244L194.854765625,138.34717708826065L195.03046874999998,139.51966133287976L195.55757812500002,141.53588359696525L195.73328125,140.22598531416486L195.90898437500002,138.90357771941595L196.26039062499999,140.66561980758397L196.43609375,141.6448125754084L196.61179687499998,140.35612737280982L196.7875,139.52248723166332L196.963203125,141.01143446138929L197.13890625000002,141.76738122531347L197.314609375,141.6156492999622L197.49031250000002,140.3624950647354L197.666015625,141.23599921805518L197.84171874999998,139.98435212884633L198.017421875,140.57944873401098L198.368828125,139.81374319962094L198.54453125,139.58307450158256L198.72023437500002,139.1747886453356L198.8959375,141.90890223639354L199.24734375,143.03741549594062L199.59875,140.86407325948989L199.95015625000002,140.3629472085408L200.30156250000002,142.22849254948753L200.65296874999999,141.53139983756202L201.00437499999998,142.24348865236556L201.180078125,139.7828843849046L201.35578125,141.04112523794174L201.53148437500002,142.58097632442204L201.88289062500002,141.74435956989018L202.05859375,140.5127952013697L202.23429687499998,139.43115418297904L202.76140625,143.43940901756287L202.937109375,140.82549032143186L203.11281250000002,141.37978094816208L203.46421875000001,139.40688913209098L203.639921875,142.1151928475925L203.991328125,142.95810193674907L204.16703124999998,140.4912806919643L204.34273437500002,142.35938818114147L204.5184375,141.58030672584263L204.69414062500002,142.04902913740705L205.04554687499999,140.45970598288946L205.22125,144.2224844098091L205.57265625,142.24880134207862L205.748359375,143.98846231188094L205.92406250000002,140.59139286620277L206.099765625,141.03946737732207L206.27546875000002,141.55159559420179L206.451171875,141.82465277399336L206.62687499999998,142.43568744829724L206.802578125,142.80316732610976L206.97828124999998,141.56512222971236L207.153984375,142.6923920937947L207.3296875,142.0626311302185L207.68109375,142.2994414482798L207.85679687500001,142.3763058951923L208.0325,142.29167964628766L208.38390625,141.813839001315L208.55960937499998,143.0100607957159L208.73531250000002,143.00263810157776L208.911015625,140.6043166433062L209.08671875000002,141.4921763624464L209.262421875,143.2815354721887L209.43812499999999,140.68920664276396L209.613828125,142.15411489350456L209.78953124999998,143.7190976398332L209.965234375,143.38304175649372L210.1409375,144.67353553431377L210.49234375,143.3142028621265L211.01945312499998,143.31393911157338L211.37085937499998,143.01680527414595L211.5465625,143.5632964202336L211.722265625,142.57419416734152L211.89796875000002,142.99201272215163L212.24937500000001,141.2062330842018L212.60078124999998,143.03654888698034L212.776484375,142.33813742228918L212.95218749999998,141.4736384664263L213.83070312499999,142.43534834044323L214.70921875000002,145.18517392873764L214.884921875,143.55282175540924L215.236328125,145.27119428770885L215.41203124999998,142.77415476526534L215.587734375,144.72085991927557L215.76343749999998,145.68882444926672L215.939140625,143.54272387708937L216.11484375,141.44345786741803L216.29054687500002,143.68465935332435L216.46625,144.24784214156017L216.64195312500001,142.8156389594078L216.81765625,142.00762030056546L216.99335937499998,144.05066976376943L217.1690625,144.66780837944577L217.34476562499998,143.78043848276138L217.87187500000002,143.83680574383055L218.047578125,145.58441690887724L218.22328124999999,143.62919637986593L218.398984375,145.74541778223858L218.57468749999998,143.26341204132353L218.750390625,143.5683076807431L218.92609375,142.81077841350012L219.45320312500002,144.36924275330136L219.62890625,144.46950564214163L219.80460937499998,144.58743981804167L219.9803125,144.6582756808826L220.15601562499998,143.7619759440422L220.33171875,144.22433066368103L220.507421875,143.61344670397895L220.68312500000002,142.986737711089L220.858828125,144.99855157307218L221.03453125000001,142.6469893200057L221.38593749999998,142.91820024592536L221.73734374999998,144.52489325829916L221.91304687500002,144.74859140600478L222.08875,144.99199548789434L222.26445312500002,144.80767152990614L222.7915625,143.37479013204575L222.96726562499998,145.63324843985694L223.14296875,145.7602631705148L223.318671875,144.03341294186458L223.49437500000002,144.38013188328063L223.670078125,147.00554256779807L224.021484375,145.64749096972602L224.19718749999998,145.75186083146505L224.54859374999998,145.27790108748846L225.07570312500002,145.87548448358265L225.25140625,144.14215352705548L225.42710937500001,144.2435844540596L225.6028125,145.28038787841797L225.77851562499998,142.38504734209607L225.95421875,144.9773761715208L226.12992187499998,144.78434844527928L226.30562500000002,147.65259803192959L226.65703125000002,147.34732560600554L226.832734375,143.81871999161586L227.535546875,145.1935009104865L227.71125,143.12253156730108L227.88695312500002,145.85939569984166L228.06265625,142.5302231822695L228.23835937500002,144.81253207581386L228.4140625,146.63455857549397L228.58976562499998,143.71035619292942L228.76546875,144.5634008390563L228.94117187499998,144.9033753020423L229.46828125000002,144.1868780851364L229.643984375,145.88170146090644L229.81968750000001,144.55055241925376L229.995390625,146.13923503671376L230.346796875,147.0667326961245L230.52249999999998,146.4153065085411L230.87390625,143.96506386995316L231.04960937500002,144.354133614472L231.2253125,145.0673904674394L231.40101562499999,147.86616062266486L231.57671875,145.3221358231136L231.75242187499998,147.4240016596658L231.928125,143.25610238313675L232.103828125,144.4279084120478L232.455234375,144.78272826331005L232.63093750000002,144.74474818365917L233.158046875,147.5768639445305L233.33374999999998,147.41887736320496L233.509453125,143.73013748441426L233.86085937500002,147.06217357942037L234.21226562500001,145.54236753497807L234.38796875,144.9353267976216L234.56367187499998,146.70298300470625L234.739375,145.63939005987987L234.91507812499998,145.76956979717528L235.09078125000002,142.9683882083212L235.266484375,143.55447961602894L235.617890625,144.7182600923947L235.969296875,146.72947109597072L236.14499999999998,146.04620644875936L236.320703125,145.69752821752004L236.49640625,146.20445678063803L236.8478125,148.46031526156835L237.02351562500002,148.46826545681273L237.37492187499998,148.15982802425114L237.550625,145.34670230320523L237.72632812499998,146.87713372707367L237.90203125,146.06282273360662L238.077734375,145.1872085758618L238.25343750000002,145.8958309548242L238.429140625,146.19778765950886L238.60484375000001,146.21613716227668L238.780546875,146.8216330749648L238.95624999999998,148.0869198356356L239.30765624999998,145.52495999847142L239.48335937500002,147.8853013770921L239.6590625,147.53326974596297L239.83476562500002,146.93779635429382L240.01046875,145.96082662684577L240.18617187499999,146.74103844165802L240.361875,145.6059690969331L240.53757812499998,147.77723900760924L240.71328125,147.926484142031L240.888984375,147.43353435822897L241.06468750000002,145.938520865781L241.240390625,144.76317304372787L241.591796875,147.756327356611L241.76749999999998,147.16895487478803L241.943203125,149.10386661120825L242.64601562500002,147.8022953101567L242.99742187500001,147.84965737376896L243.173125,144.99327656200956L243.34882812499998,144.76784519638335L243.52453125,149.67047815663474L243.70023437499998,145.4547646726881L243.87593750000002,148.58732999222622L244.22734375000002,147.09928705011097L244.57874999999999,146.3128582579749L244.754453125,146.96903195551465L244.93015624999998,148.2204906514713L245.105859375,145.7206629088947L245.2815625,148.4939622964178L245.63296875,146.21387644324986L245.984375,148.26687307017193L246.16007812499998,148.10862273829326L246.33578125,149.34131746632713L246.51148437499998,145.4844177705901L246.6871875,147.5351159998349L246.862890625,146.15449489014492L247.214296875,145.5733017069953L247.39000000000001,145.81079024076462L247.565703125,148.26084448610035L247.74140624999998,146.45954124416625L248.09281249999998,145.80871791499004L248.26851562500002,144.7763982500349L248.61992187500002,147.9739592415946L248.795625,148.15858462878637L248.97132812499999,147.9299882565226L249.4984375,147.58545467683248L249.674140625,145.73942687681745L249.84984375000002,147.39389641795842L250.025546875,147.1423160689218L250.20125000000002,147.66167858668737L250.55265624999998,147.959000817367L250.728359375,146.3701298066548L250.90406249999998,147.44186133997783L251.079765625,144.73517780644553L251.43117187500002,144.2219192300524L251.78257812500001,144.88073043312346L252.13398437499998,147.17924114636014L252.3096875,146.6055083359991L252.48539062499998,147.9638236846243L252.836796875,146.01632727895466L253.188203125,148.4365400331361L253.36390624999999,146.84989206280028L253.539609375,149.7902585864067L254.06671875,148.52708183016097L254.24242187500002,148.66272497177124L254.418125,146.92110471214568L254.59382812500002,150.1127878342356L254.76953125,147.55889122826713L255.47234375,147.5585521204131L255.648046875,148.4156660607883L255.82375000000002,148.28857597282956L255.999453125,149.00349068641663L256.17515625,147.04717747654234L256.5265625,147.21435764857702L256.702265625,147.04216621603285L256.87796875,150.29466267994474L257.053671875,146.6263823083469L257.229375,148.19686613764082L257.405078125,147.56902678523747L257.58078125000003,146.721407864775L257.756484375,146.35178030388698L258.107890625,148.882391503879L258.28359374999997,147.75798521723067L258.459296875,147.0871168460165L258.635,148.7130259701184L258.81070312500003,148.66943177155088L259.162109375,149.2646414126669L259.3378125,147.62430136544364L259.51351562499997,147.54193583556585L259.68921875,149.77315247910366L259.864921875,149.5408259204456L260.04062500000003,146.74186737196788L260.216328125,149.85058210577284L260.39203125,148.21400992359435L260.74343749999997,148.7256106393678L260.919140625,148.65063012497768L261.09484375,147.34186220169067L261.270546875,146.58666901077544L261.44625,147.53127277748928L261.79765625,146.38226233209883L262.324765625,146.55863609484265L262.50046875,148.76298786061153L262.67617187499997,148.10184058121274L262.851875,148.3673243522644L263.027578125,146.55758109263013L263.20328125000003,147.47121300867627L263.730390625,147.88635637930463L263.90609374999997,147.82136070728302L264.2575,148.05025850875037L264.43320312500003,148.8759107760021L264.60890625,149.24154439994268L264.784609375,149.48566437619075L264.9603125,148.17373144626617L265.13601562499997,148.6530415586063L265.31171875,148.0506729739053L265.487421875,147.14156249591284L265.663125,146.79480587584632L265.838828125,148.56713423558645L266.01453125,147.20919567346573L266.190234375,147.48824375867844L266.36593750000003,150.0029168895313L266.541640625,148.53940274885724L266.893046875,147.57524376256126L267.244453125,146.9772835799626L267.42015625,149.06675314051765L267.59585937500003,150.0250719359943L267.947265625,149.66022956371307L268.29867187499997,149.24376744031906L268.474375,148.70590470518385L268.650078125,148.6572615674564L268.82578125000003,147.83115715639934L269.001484375,149.68426854269848L269.1771875,148.672559099538L269.52859374999997,149.79930146251408L269.704296875,149.48558901888984L269.88,150.24782811743873L270.055703125,150.49933310917447L270.23140625,150.05898272139686" style="fill: none;" fill="none"></path></g></g></g></g></g></g><g transform="translate(48, 177)" clip-path="url(#clip_1)"><clipPath id="clip_1"><rect width="281" height="23"></rect></clipPath><g><g><line x1="0" y1="0" x2="0" y2="5" style="visibility: inherit;" fill="rgb(0, 0, 0)" stroke="rgb(204, 204, 204)" stroke-width="1px"></line><line x1="35.140625" y1="0" x2="35.140625" y2="5" style="visibility: inherit;" fill="rgb(0, 0, 0)" stroke="rgb(204, 204, 204)" stroke-width="1px"></line><line x1="70.28125" y1="0" x2="70.28125" y2="5" style="visibility: inherit;" fill="rgb(0, 0, 0)" stroke="rgb(204, 204, 204)" stroke-width="1px"></line><line x1="105.421875" y1="0" x2="105.421875" y2="5" style="visibility: inherit;" fill="rgb(0, 0, 0)" stroke="rgb(204, 204, 204)" stroke-width="1px"></line><line x1="140.5625" y1="0" x2="140.5625" y2="5" style="visibility: inherit;" fill="rgb(0, 0, 0)" stroke="rgb(204, 204, 204)" stroke-width="1px"></line><line x1="175.703125" y1="0" x2="175.703125" y2="5" style="visibility: inherit;" fill="rgb(0, 0, 0)" stroke="rgb(204, 204, 204)" stroke-width="1px"></line><line x1="210.84375" y1="0" x2="210.84375" y2="5" style="visibility: inherit;" fill="rgb(0, 0, 0)" stroke="rgb(204, 204, 204)" stroke-width="1px"></line><line x1="245.984375" y1="0" x2="245.984375" y2="5" style="visibility: inherit;" fill="rgb(0, 0, 0)" stroke="rgb(204, 204, 204)" stroke-width="1px"></line><line x1="281.125" y1="0" x2="281.125" y2="5" style="visibility: inherit;" fill="rgb(0, 0, 0)" stroke="rgb(204, 204, 204)" stroke-width="1px"></line></g><g transform="translate(0, 8)"><text x="0" y="0" dx="0em" dy="0.95em" style="text-anchor: middle; visibility: hidden; font-family: &quot;Helvetica Neue&quot;, sans-serif; font-size: 12px; font-weight: 200;" fill="rgb(50, 49, 63)" stroke="none" stroke-width="1px">-200</text><text x="35.140625" y="0" dx="0em" dy="0.95em" style="text-anchor: middle; visibility: inherit; font-family: &quot;Helvetica Neue&quot;, sans-serif; font-size: 12px; font-weight: 200;" fill="rgb(50, 49, 63)" stroke="none" stroke-width="1px">0</text><text x="70.28125" y="0" dx="0em" dy="0.95em" style="text-anchor: middle; visibility: inherit; font-family: &quot;Helvetica Neue&quot;, sans-serif; font-size: 12px; font-weight: 200;" fill="rgb(50, 49, 63)" stroke="none" stroke-width="1px">200</text><text x="105.421875" y="0" dx="0em" dy="0.95em" style="text-anchor: middle; visibility: inherit; font-family: &quot;Helvetica Neue&quot;, sans-serif; font-size: 12px; font-weight: 200;" fill="rgb(50, 49, 63)" stroke="none" stroke-width="1px">400</text><text x="140.5625" y="0" dx="0em" dy="0.95em" style="text-anchor: middle; visibility: inherit; font-family: &quot;Helvetica Neue&quot;, sans-serif; font-size: 12px; font-weight: 200;" fill="rgb(50, 49, 63)" stroke="none" stroke-width="1px">600</text><text x="175.703125" y="0" dx="0em" dy="0.95em" style="text-anchor: middle; visibility: inherit; font-family: &quot;Helvetica Neue&quot;, sans-serif; font-size: 12px; font-weight: 200;" fill="rgb(50, 49, 63)" stroke="none" stroke-width="1px">800</text><text x="210.84375" y="0" dx="0em" dy="0.95em" style="text-anchor: middle; visibility: inherit; font-family: &quot;Helvetica Neue&quot;, sans-serif; font-size: 12px; font-weight: 200;" fill="rgb(50, 49, 63)" stroke="none" stroke-width="1px">1k</text><text x="245.984375" y="0" dx="0em" dy="0.95em" style="text-anchor: middle; visibility: inherit; font-family: &quot;Helvetica Neue&quot;, sans-serif; font-size: 12px; font-weight: 200;" fill="rgb(50, 49, 63)" stroke="none" stroke-width="1px">1.2k</text><text x="281.125" y="0" dx="0em" dy="0.95em" style="text-anchor: middle; visibility: hidden; font-family: &quot;Helvetica Neue&quot;, sans-serif; font-size: 12px; font-weight: 200;" fill="rgb(50, 49, 63)" stroke="none" stroke-width="1px">1.4k</text></g><line x1="0" y1="0" x2="281.125" y2="0" fill="rgb(0, 0, 0)" stroke="rgb(204, 204, 204)" stroke-width="1px"></line></g></g></g></g></svg>