<svg viewBox="0 0 330 200" xmlns="http://www.w3.org/2000/svg"><g><g><g><g><g><line x1="39.15625" y1="177" x2="34.15625" y2="177" style="visibility: inherit;" fill="rgb(0, 0, 0)" stroke="rgb(204, 204, 204)" stroke-width="1px"></line><line x1="39.15625" y1="159.29999999999998" x2="34.15625" y2="159.29999999999998" style="visibility: inherit;" fill="rgb(0, 0, 0)" stroke="rgb(204, 204, 204)" stroke-width="1px"></line><line x1="39.15625" y1="141.60000000000002" x2="34.15625" y2="141.60000000000002" style="visibility: inherit;" fill="rgb(0, 0, 0)" stroke="rgb(204, 204, 204)" stroke-width="1px"></line><line x1="39.15625" y1="123.89999999999999" x2="34.15625" y2="123.89999999999999" style="visibility: inherit;" fill="rgb(0, 0, 0)" stroke="rgb(204, 204, 204)" stroke-width="1px"></line><line x1="39.15625" y1="106.20000000000002" x2="34.15625" y2="106.20000000000002" style="visibility: inherit;" fill="rgb(0, 0, 0)" stroke="rgb(204, 204, 204)" stroke-width="1px"></line><line x1="39.15625" y1="88.5" x2="34.15625" y2="88.5" style="visibility: inherit;" fill="rgb(0, 0, 0)" stroke="rgb(204, 204, 204)" stroke-width="1px"></line><line x1="39.15625" y1="70.79999999999998" x2="34.15625" y2="70.79999999999998" style="visibility: inherit;" fill="rgb(0, 0, 0)" stroke="rgb(204, 204, 204)" stroke-width="1px"></line><line x1="39.15625" y1="53.099999999999966" x2="34.15625" y2="53.099999999999966" style="visibility: inherit;" fill="rgb(0, 0, 0)" stroke="rgb(204, 204, 204)" stroke-width="1px"></line><line x1="39.15625" y1="35.400000000000034" x2="34.15625" y2="35.400000000000034" style="visibility: inherit;" fill="rgb(0, 0, 0)" stroke="rgb(204, 204, 204)" stroke-width="1px"></line><line x1="39.15625" y1="17.700000000000017" x2="34.15625" y2="17.700000000000017" style="visibility: inherit;" fill="rgb(0, 0, 0)" stroke="rgb(204, 204, 204)" stroke-width="1px"></line><line x1="39.15625" y1="0" x2="34.15625" y2="0" style="visibility: inherit;" fill="rgb(0, 0, 0)" stroke="rgb(204, 204, 204)" stroke-width="1px"></line></g><g transform="translate(29.15625, 0)"><text x="0" y="177" dx="0em" dy="0.3em" style="text-anchor: end; visibility: hidden; font-family: &quot;Helvetica Neue&quot;, sans-serif; font-size: 12px; font-weight: 200;" fill="rgb(50, 49, 63)" stroke="none" stroke-width="1px">1.5</text><text x="0" y="159.29999999999998" dx="0em" dy="0.3em" style="text-anchor: end; visibility: inherit; font-family: &quot;Helvetica Neue&quot;, sans-serif; font-size: 12px; font-weight: 200;" fill="rgb(50, 49, 63)" stroke="none" stroke-width="1px">1.6</text><text x="0" y="141.60000000000002" dx="0em" dy="0.3em" style="text-anchor: end; visibility: hidden; font-family: &quot;Helvetica Neue&quot;, sans-serif; font-size: 12px; font-weight: 200;" fill="rgb(50, 49, 63)" stroke="none" stroke-width="1px">1.7</text><text x="0" y="123.89999999999999" dx="0em" dy="0.3em" style="text-anchor: end; visibility: inherit; font-family: &quot;Helvetica Neue&quot;, sans-serif; font-size: 12px; font-weight: 200;" fill="rgb(50, 49, 63)" stroke="none" stroke-width="1px">1.8</text><text x="0" y="106.20000000000002" dx="0em" dy="0.3em" style="text-anchor: end; visibility: hidden; font-family: &quot;Helvetica Neue&quot;, sans-serif; font-size: 12px; font-weight: 200;" fill="rgb(50, 49, 63)" stroke="none" stroke-width="1px">1.9</text><text x="0" y="88.5" dx="0em" dy="0.3em" style="text-anchor: end; visibility: inherit; font-family: &quot;Helvetica Neue&quot;, sans-serif; font-size: 12px; font-weight: 200;" fill="rgb(50, 49, 63)" stroke="none" stroke-width="1px">2</text><text x="0" y="70.79999999999998" dx="0em" dy="0.3em" style="text-anchor: end; visibility: hidden; font-family: &quot;Helvetica Neue&quot;, sans-serif; font-size: 12px; font-weight: 200;" fill="rgb(50, 49, 63)" stroke="none" stroke-width="1px">2.1</text><text x="0" y="53.099999999999966" dx="0em" dy="0.3em" style="text-anchor: end; visibility: inherit; font-family: &quot;Helvetica Neue&quot;, sans-serif; font-size: 12px; font-weight: 200;" fill="rgb(50, 49, 63)" stroke="none" stroke-width="1px">2.2</text><text x="0" y="35.400000000000034" dx="0em" dy="0.3em" style="text-anchor: end; visibility: hidden; font-family: &quot;Helvetica Neue&quot;, sans-serif; font-size: 12px; font-weight: 200;" fill="rgb(50, 49, 63)" stroke="none" stroke-width="1px">2.3</text><text x="0" y="17.700000000000017" dx="0em" dy="0.3em" style="text-anchor: end; visibility: inherit; font-family: &quot;Helvetica Neue&quot;, sans-serif; font-size: 12px; font-weight: 200;" fill="rgb(50, 49, 63)" stroke="none" stroke-width="1px">2.4</text><text x="0" y="0" dx="0em" dy="0.3em" style="text-anchor: end; visibility: hidden; font-family: &quot;Helvetica Neue&quot;, sans-serif; font-size: 12px; font-weight: 200;" fill="rgb(50, 49, 63)" stroke="none" stroke-width="1px">2.5</text></g><line x1="39.15625" y1="0" x2="39.15625" y2="177" fill="rgb(0, 0, 0)" stroke="rgb(204, 204, 204)" stroke-width="1px"></line></g></g><g transform="translate(39, 0)" clip-path="url(#clip_0)"><clipPath id="clip_0"><rect width="290" height="177"></rect></clipPath><g><g><g><line x1="0" y1="0" x2="0" y2="177" fill="rgb(0, 0, 0)" stroke="rgb(60, 60, 60)" stroke-width="1px" opacity="0.25"></line><line x1="29.084375" y1="0" x2="29.084375" y2="177" fill="rgb(0, 0, 0)" stroke="rgb(60, 60, 60)" stroke-width="1px" opacity="0.25"></line><line x1="58.16875" y1="0" x2="58.16875" y2="177" fill="rgb(0, 0, 0)" stroke="rgb(60, 60, 60)" stroke-width="1px" opacity="0.25"></line><line x1="87.253125" y1="0" x2="87.253125" y2="177" fill="rgb(0, 0, 0)" stroke="rgb(60, 60, 60)" stroke-width="1px" opacity="0.25"></line><line x1="116.3375" y1="0" x2="116.3375" y2="177" fill="rgb(0, 0, 0)" stroke="rgb(60, 60, 60)" stroke-width="1px" opacity="0.25"></line><line x1="145.421875" y1="0" x2="145.421875" y2="177" fill="rgb(0, 0, 0)" stroke="rgb(60, 60, 60)" stroke-width="1px" opacity="0.25"></line><line x1="174.50625" y1="0" x2="174.50625" y2="177" fill="rgb(0, 0, 0)" stroke="rgb(60, 60, 60)" stroke-width="1px" opacity="0.25"></line><line x1="203.590625" y1="0" x2="203.590625" y2="177" fill="rgb(0, 0, 0)" stroke="rgb(60, 60, 60)" stroke-width="1px" opacity="0.25"></line><line x1="232.675" y1="0" x2="232.675" y2="177" fill="rgb(0, 0, 0)" stroke="rgb(60, 60, 60)" stroke-width="1px" opacity="0.25"></line><line x1="261.75937500000003" y1="0" x2="261.75937500000003" y2="177" fill="rgb(0, 0, 0)" stroke="rgb(60, 60, 60)" stroke-width="1px" opacity="0.25"></line><line x1="290.84375" y1="0" x2="290.84375" y2="177" fill="rgb(0, 0, 0)" stroke="rgb(60, 60, 60)" stroke-width="1px" opacity="0.25"></line></g><g><line x1="0" y1="177" x2="290.84375" y2="177" fill="rgb(0, 0, 0)" stroke="rgb(60, 60, 60)" stroke-width="1px" opacity="0.25"></line><line x1="0" y1="159.29999999999998" x2="290.84375" y2="159.29999999999998" fill="rgb(0, 0, 0)" stroke="rgb(60, 60, 60)" stroke-width="1px" opacity="0.25"></line><line x1="0" y1="141.60000000000002" x2="290.84375" y2="141.60000000000002" fill="rgb(0, 0, 0)" stroke="rgb(60, 60, 60)" stroke-width="1px" opacity="0.25"></line><line x1="0" y1="123.89999999999999" x2="290.84375" y2="123.89999999999999" fill="rgb(0, 0, 0)" stroke="rgb(60, 60, 60)" stroke-width="1px" opacity="0.25"></line><line x1="0" y1="106.20000000000002" x2="290.84375" y2="106.20000000000002" fill="rgb(0, 0, 0)" stroke="rgb(60, 60, 60)" stroke-width="1px" opacity="0.25"></line><line x1="0" y1="88.5" x2="290.84375" y2="88.5" fill="rgb(0, 0, 0)" stroke="rgb(60, 60, 60)" stroke-width="1px" opacity="0.25"></line><line x1="0" y1="70.79999999999998" x2="290.84375" y2="70.79999999999998" fill="rgb(0, 0, 0)" stroke="rgb(60, 60, 60)" stroke-width="1px" opacity="0.25"></line><line x1="0" y1="53.099999999999966" x2="290.84375" y2="53.099999999999966" fill="rgb(0, 0, 0)" stroke="rgb(60, 60, 60)" stroke-width="1px" opacity="0.25"></line><line x1="0" y1="35.400000000000034" x2="290.84375" y2="35.400000000000034" fill="rgb(0, 0, 0)" stroke="rgb(60, 60, 60)" stroke-width="1px" opacity="0.25"></line><line x1="0" y1="17.700000000000017" x2="290.84375" y2="17.700000000000017" fill="rgb(0, 0, 0)" stroke="rgb(60, 60, 60)" stroke-width="1px" opacity="0.25"></line><line x1="0" y1="0" x2="290.84375" y2="0" fill="rgb(0, 0, 0)" stroke="rgb(60, 60, 60)" stroke-width="1px" opacity="0.25"></line></g></g></g><g><g><line x1="0" y1="442.5" x2="290.84375" y2="442.5" fill="rgb(0, 0, 0)" stroke="rgb(153, 153, 153)" stroke-width="1.5px"></line></g></g><g><g><line x1="29.084375" y1="0" x2="29.084375" y2="177" fill="rgb(0, 0, 0)" stroke="rgb(153, 153, 153)" stroke-width="1.5px"></line></g></g><g><g><g><g><g><path style="fill: none;" stroke="rgb(0, 119, 187)" stroke-width="2px" d="M30.24775,192.39400148391724L30.53859375,170.14822483062744L30.684015625,157.54185569286346L30.974859374999998,140.1952772140503L31.120281249999998,130.99046730995178L31.265703124999998,123.36564981937408L31.411125,117.16858792304993L31.556546875,115.28412187099457L31.70196875,114.47263526916504L31.847390625,114.70237255096436L31.9928125,109.27284586429596L32.5745,105.07113075256348L32.719921875000004,108.44572412967682L33.44703125,101.10100972652435L33.592453125,105.55248606204987L33.883296875,86.46625113487244L34.02871875,98.64234817028046L34.319562499999996,90.98028910160065L34.755828125,88.60121691226959L34.90125,87.09625625610352L35.19209375,93.49511897563934L35.337515625,86.4001235961914L35.4829375,79.1964418888092L35.628359375,76.46208715438843L35.919203125,82.37060594558716L36.210046875,74.00245499610901L36.35546875,71.96735572814941L36.791734375,74.75526237487793L36.93715625,65.5106999874115L37.082578125,73.35177183151245L37.228,62.79862689971924L37.373421875,65.90493321418762L37.8096875,60.374696016311646L37.955109375,61.36006808280945L38.245953125,48.29289507865906L38.536796875,59.729920864105225L38.682218750000004,63.168341875076294L38.827640625,56.80241632461548L38.973062500000005,51.014800786972046L39.118484375,45.0234854221344L39.409328125,48.074594020843506L39.554750000000006,45.41143083572388L39.700171875,43.23053026199341L39.845593750000006,41.31418204307556L40.13643750000001,38.33498239517212L40.42728125000001,35.2401967048645L40.572703125000004,39.93525195121765L41.299812499999994,26.263731479644775L41.445234375,30.972121953964233L41.590656249999995,27.736978769302368L41.736078125,30.51306939125061L41.881499999999996,23.92390537261963L42.026921875,29.743170976638794L42.75403125,15.322641134262085L43.91740625,5.382536888122559L44.20825,11.870294094085693L44.353671874999996,-3.3732218742370605L44.49909375,7.331885576248169L45.517046875,13.022567510604858L45.9533125,14.202566385269165L46.24415625,14.849873542785645L46.389578125,16.010080575942993L46.535000000000004,4.89774227142334L47.116687500000005,14.731797695159912L47.262109375,13.780523300170898L47.407531250000005,13.025901317596436L47.843796875,18.92462968826294L47.98921875,13.707390546798706L48.425484375,13.312102317810059L49.007171875000004,18.575845956802368L49.298015625000005,17.749357223510742L49.588859375000006,12.397879600524902L49.73428125,18.20900058746338L49.879703125000006,21.06029176712036L50.025124999999996,21.551796197891235L50.170546875,21.53035855293274L50.315968749999996,20.557393312454224L50.6068125,20.09694814682007L50.89765625,20.48413395881653L51.333921874999994,20.55549430847168L51.47934375,23.104886054992676L51.624765624999995,22.465681314468384L51.915609374999995,24.036875009536743L52.06103125,21.338263750076294L52.206453124999996,22.52168083190918L52.497296874999996,26.431308031082153L52.64271875,25.042123317718506L52.9335625,26.45097327232361L53.078984375,29.03302788734436L53.369828125,23.192620038986206L53.51525,27.837119579315186L53.660671875,28.57321572303772L53.951515625,24.97827458381653L54.533203125,24.767231941223145L54.678625,29.266141176223755L54.824046875,27.846530199050903L54.96946875,28.05170702934265L55.2603125,28.03562879562378L55.405734375,26.5715811252594L55.696578125,28.51704740524292L55.987421875,41.42951488494873L56.13284375,32.60488557815552L56.278265625,35.51437067985535L56.4236875,30.577129125595093L56.71453125,35.448200941085815L56.859953125000004,24.900457620620728L57.87790625,28.6457576751709L58.45959375,32.931429862976074L59.041281250000004,37.96121621131897L59.186703124999994,31.78831386566162L59.332125,41.10921621322632L59.9138125,34.59407114982605L60.059234374999996,37.87639403343201L60.20465625,28.7754385471344L60.350078124999996,33.104787826538086L60.78634375,37.52343249320984L60.931765625,34.29972553253174L61.222609375,33.143147706985474L61.36803125,35.73836874961853L61.513453125,38.87746453285217L61.804296875,35.92172813415527L61.949718749999995,34.79025936126709L62.095140625,39.30980443954468L62.385984375,33.08280158042908L62.531406249999996,40.631131410598755L62.676828125,37.10003900527954L62.82225,33.54109454154968L62.967671875,35.06941294670105L63.11309375,41.91793870925903L63.549359375,41.65068554878235L63.69478125,38.159387826919556L63.985625,36.053181409835815L64.5673125,37.80786108970642L64.712734375,38.319199562072754L65.003578125,42.5300931930542L65.294421875,38.01822853088379L65.43984375000001,38.826655626297L66.166953125,36.69432735443115L66.60321875,38.43529200553894L66.74864062500001,38.44550442695618L66.8940625,45.0018789768219L67.039484375,42.97137951850891L67.33032812500001,39.52042508125305L67.91201562500001,40.37438607215881L68.202859375,47.117411613464355L68.493703125,49.49302339553833L68.63912499999999,41.160320520401L68.78454687499999,44.503875732421875L68.92996875,47.72386908531189L69.36623437499999,41.406853437423706L69.51165625,38.175381660461426L69.8025,42.87702012062073L70.09334375,42.12915015220642L70.3841875,47.490375995635986L71.111296875,43.094730377197266L71.402140625,51.29159116744995L71.5475625,52.637900590896606L71.983828125,52.94756484031677L72.12925,43.954219579696655L72.274671875,42.26942324638367L72.42009375,49.636672496795654L72.565515625,48.14945697784424L72.856359375,46.12414813041687L73.00178125,44.346638202667236L73.147203125,49.868772983551025L73.728890625,47.472567558288574L73.8743125,46.77664589881897L74.16515625,51.16093969345093L74.601421875,44.588571310043335L75.183109375,53.131346225738525L75.32853125,51.48870778083801L75.47395312500001,52.56919884681702L75.619375,46.1685426235199L75.91021875,48.074298620224L76.2010625,50.33259415626526L76.346484375,50.60790753364563L76.49190625,53.84081411361694L76.63732812500001,43.91210389137268L77.07359375,57.862313747406006L77.219015625,50.23726415634155L77.509859375,51.406755208969116L78.091546875,54.4741108417511L78.382390625,54.45001459121704L78.673234375,54.348185777664185L78.81865625,48.981853723526L78.964078125,51.02522420883179L79.10950000000001,54.74824261665344L79.25492187500001,52.82552218437195L79.545765625,57.693344593048096L79.69118750000001,50.10800528526306L80.127453125,50.243003368377686L80.41829687500001,55.874014377593994L80.56371875,57.713136434555054L80.85456250000001,50.21548891067505L81.14540625000001,55.443193674087524L81.290828125,57.912869453430176L81.43625,55.26785230636597L81.72709375000001,51.6437509059906L81.87251562499999,54.52006673812866L82.01793749999999,56.44430637359619L82.163359375,56.21473789215088L82.45420312499999,62.49411106109619L82.59962499999999,54.37835884094238L82.89046875,54.76719045639038L83.035890625,56.35209918022156L83.32673437499999,57.289742946624756L83.617578125,55.41968822479248L83.90842187499999,66.63385534286499L84.05384375,59.610241413116455L84.199265625,57.32481122016907L84.49010937499999,56.989320516586304L84.63553125,55.8355278968811L85.07179687499999,65.26353406906128L85.21721875,50.342764377593994L85.362640625,62.68245005607605L85.5080625,57.59189558029175L85.79890625,60.57835364341736L85.944328125,49.72022867202759L86.08975,56.275463819503784L86.23517187499999,55.84801912307739L86.96228124999999,59.96354055404663L87.54396874999999,62.808839321136475L87.689390625,67.0405797958374L87.980234375,59.9620635509491L88.4165,63.01599955558777L89.434453125,64.27592539787292L89.579875,65.57155251502991L90.016140625,60.981322288513184L90.1615625,69.55587387084961L90.306984375,63.84873390197754L90.45240625,63.79404258728027L90.74325,66.82506394386292L91.03409375,64.4086446762085L91.3249375,65.95012950897217L91.61578125,69.36213326454163L92.342890625,63.913764238357544L92.924578125,68.46095037460327L93.07000000000001,75.36391425132751L93.215421875,71.46082806587219L93.36084375,67.30724215507507L93.65168750000001,69.16851925849915L93.797109375,69.22025656700134L94.23337500000001,69.03643298149109L94.669640625,63.652419090270996L95.10590625,70.62383151054382L95.54217187500001,74.05718851089478L95.68759375,70.84930658340454L95.833015625,66.88237166404724L95.9784375,75.83035182952881L96.12385937500001,74.18708038330078L96.414703125,71.33836340904236L96.560125,70.99662709236145L96.70554687500001,70.25884294509888L96.996390625,70.76764941215515L97.1418125,71.81784081459045L97.28723437500001,69.9748785495758L97.578078125,73.79723596572876L97.86892187500001,80.17641234397888L98.01434375000001,76.97334122657776L98.59603125000001,68.6394989490509L99.17771875000001,71.1412889957428L99.613984375,76.58455181121826L99.75940625000001,79.31785154342651L100.05024999999999,75.80110716819763L100.19567187499999,75.72105360031128L100.486515625,69.64757466316223L100.77735937499999,76.68646502494812L101.213625,78.51398205757141L101.35904687499999,79.59346032142639L102.231578125,78.06501531600952L102.66784374999999,79.18032145500183L102.813265625,78.9931640625L102.9586875,77.83755683898926L103.24953124999999,74.24476790428162L103.394953125,71.47656869888306L103.540375,70.37451338768005L103.83121874999999,74.65659856796265L103.976640625,79.25459361076355L104.1220625,78.17313194274902L104.267484375,79.05490279197693L104.558328125,77.12099933624268L105.2854375,70.80486989021301L105.430859375,84.81513047218323L106.30339062499999,77.67213249206543L106.594234375,79.32460355758667L106.73965625,77.60511875152588L106.88507812499999,77.92904663085938L107.0305,76.57497239112854L107.175921875,77.87106370925903L107.32134375,75.8772361278534L107.466765625,81.28699207305908L107.6121875,77.48894190788269L107.757609375,74.04815769195557L107.90303125,78.15190529823303L108.048453125,74.47053837776184L108.193875,81.6549346446991L108.630140625,85.21860551834106L108.7755625,75.65513706207275L108.920984375,84.19073796272278L109.211828125,79.06916642189026L109.35725,80.45767593383789L109.502671875,77.01917052268982L109.793515625,80.2417380809784L110.084359375,79.60502314567566L110.375203125,77.92879343032837L110.520625,83.9671618938446L110.956890625,80.36804294586182L111.1023125,77.04309797286987L111.24773437500001,85.34039497375488L111.538578125,82.0054063796997L111.684,77.7744677066803L111.82942187500001,75.96868371963501L112.120265625,82.57856798171997L112.41110937500001,78.97721242904663L112.55653125,79.54438161849976L112.99279687500001,80.71539187431335L113.13821875000001,85.86443567276001L113.283640625,80.42454886436462L113.4290625,78.86154198646545L113.574484375,78.75182175636292L113.71990625000001,77.8785753250122L113.865328125,79.53910660743713L114.01075,83.74974703788757L114.30159375000001,83.05011177062988L114.447015625,82.91199088096619L114.5924375,79.8706727027893L115.028703125,84.52141785621643L115.174125,83.63230419158936L115.319546875,76.91392350196838L115.61039062500001,86.23178744316101L115.7558125,83.34698939323425L115.901234375,81.85078525543213L116.04665625000001,76.03168845176697L116.3375,83.98817753791809L116.62834375000001,81.26795983314514L116.77376562500001,80.52329707145691L116.9191875,86.74797892570496L117.21003125000001,83.8678650856018L117.50087500000001,86.66978216171265L117.79171875,78.14928889274597L117.93714062500001,81.27547144889832L118.08256250000001,84.48668718338013L118.518828125,90.347540974617L119.10051562499999,84.57513856887817L119.2459375,85.23827075958252L119.53678124999999,83.20502829551697L119.68220312499999,78.89120864868164L119.973046875,82.86189937591553L120.554734375,85.78919291496277L120.70015624999999,80.64711213111877L120.991,85.7211241722107L121.28184375,81.98894834518433L121.86353125,85.07120060920715L122.299796875,84.27733254432678L122.44521875,89.05223035812378L122.7360625,84.41241502761841L122.881484375,81.58251929283142L123.02690625,86.6332368850708L123.17232812499999,89.99755454063416L123.31774999999999,84.14111065864563L123.463171875,87.7569830417633L123.60859375,93.04127812385559L123.754015625,80.51722025871277L123.89943749999999,86.57225775718689L124.48112499999999,78.755788564682L124.626546875,89.71462404727936L124.917390625,85.16986441612244L125.208234375,93.72717726230621L125.499078125,87.44525098800659L125.6445,82.57624697685242L125.93534375,87.24897837638855L126.080765625,80.57845258712769L126.2261875,86.23064804077148L126.662453125,89.93505620956421L126.807875,90.56187522411346L126.953296875,94.39083695411682L127.09871875,81.80833196640015L127.244140625,82.36596393585205L127.534984375,85.20024847984314L127.68040625,92.34508216381073L127.825828125,95.97895288467407L128.116671875,83.77620649337769L128.26209375,89.86017215251923L128.407515625,81.87513470649719L128.5529375,88.84954333305359L128.698359375,88.29583597183228L128.84378125,86.33872246742249L128.989203125,92.08732402324677L129.134625,84.69587302207947L129.280046875,84.69663262367249L129.71631250000002,88.29992938041687L130.00715625,90.9110176563263L130.298,81.98569893836975L130.734265625,86.41590642929077L130.87968750000002,88.54464769363403L131.025109375,95.50732469558716L131.17053125,86.1189022064209L131.315953125,89.54540169239044L131.461375,90.40900540351868L131.60679687500001,84.5459361076355L131.75221875,88.63755118846893L132.0430625,77.72336339950562L132.188484375,87.09790205955505L132.33390625,89.69607710838318L132.91559375,88.18316173553467L133.49728125000001,85.8469648361206L133.642703125,92.70918452739716L133.93354687500002,90.35249948501587L134.07896875,97.41578149795532L134.224390625,89.72563827037811L134.3698125,91.37509202957153L134.515234375,85.71854996681213L134.66065625000002,84.78723621368408L135.09692187500002,86.98223161697388L135.24234375,89.74502921104431L135.38776562500001,91.08994603157043L136.114875,90.1030547618866L136.40571875,89.56534123420715L136.551140625,89.19016134738922L136.6965625,90.24484705924988L136.84198437499998,94.67374634742737L137.132828125,90.34910237789154L137.56909374999998,94.77563846111298L137.714515625,86.31289601325989L138.00535937499998,92.31284129619598L138.15078125,91.23247683048248L138.296203125,89.66451144218445L138.441625,94.86449074745178L138.587046875,89.09613955020905L138.73246874999998,92.04940724372864L139.0233125,87.82108497619629L139.459578125,94.10550105571747L139.605,85.99462294578552L139.89584374999998,90.35969460010529L140.1866875,90.30299878120422L140.332109375,91.56526672840118L140.47753125,92.64693939685822L140.622953125,95.76347923278809L140.913796875,94.30905318260193L141.05921874999999,96.91771495342255L141.204640625,88.3877899646759L141.3500625,89.07582020759583L141.495484375,95.84969401359558L141.64090625,96.78501677513123L141.78632812499998,90.78308808803558L141.93175,84.22939324378967L142.368015625,87.39216327667236L142.5134375,91.06776988506317L143.095125,93.6853358745575L143.240546875,93.71004402637482L143.531390625,95.17506229877472L143.822234375,90.89139461517334L144.113078125,89.21413099765778L144.2585,84.17790913581848L144.403921875,95.3274257183075L144.54934375,93.0739198923111L144.694765625,90.85307693481445L144.8401875,89.20269477367401L145.13103125,87.09482145309448L145.421875,96.9436469078064L145.71271875,89.27089011669159L146.148984375,88.7205798625946L146.29440625,90.83569049835205L146.439828125,95.43600654602051L146.58525,90.34446036815643L146.73067187499998,91.07583010196686L147.02151562499998,96.34820365905762L147.1669375,96.73319506645203L147.31235937499997,91.85954904556274L147.603203125,92.77419376373291L147.748625,91.06591308116913L148.03946875,96.20548295974731L148.47573437499997,93.13888692855835L148.766578125,95.70328080654144L148.912,92.2510814666748L149.057421875,91.21637749671936L149.4936875,91.18628883361816L149.929953125,95.41459000110626L150.075375,94.76740944385529L150.36621875,92.47286403179169L150.6570625,97.99364840984344L150.94790625000002,92.38031923770905L151.093328125,97.68970227241516L151.675015625,90.6478157043457L151.96585937499998,103.82567954063416L152.11128125000002,90.63325667381287L152.256703125,93.81541764736176L152.402125,97.00808644294739L152.69296875,97.91857445240021L152.838390625,96.40291607379913L152.9838125,90.37916994094849L153.12923437499998,99.79554998874664L153.710921875,92.81595075130463L154.001765625,96.58287835121155L154.1471875,98.89402949810028L154.29260937499998,100.24063432216644L154.43803125,95.94930732250214L154.583453125,94.95758414268494L155.165140625,99.25448155403137L155.3105625,98.89620280265808L155.45598437499999,97.4882390499115L155.60140625,96.63379275798798L156.037671875,90.69617700576782L156.18309375,97.90006971359253L156.328515625,98.58252954483032L156.4739375,97.78108656406403L156.619359375,89.79739952087402L156.91020312499998,96.42836272716522L157.05562500000002,97.73949837684631L157.201046875,100.15068483352661L157.34646875,91.14126133918762L157.6373125,97.3109142780304L158.07357812499998,102.93352746963501L158.21900000000002,97.50693368911743L158.364421875,96.18043720722198L158.50984375000002,98.48553264141083L158.8006875,97.53487014770508L158.946109375,96.3906991481781L159.09153125,92.5748405456543L159.38237500000002,99.0696029663086L159.527796875,93.80366492271423L159.818640625,96.52099192142487L159.9640625,92.37785053253174L160.54575000000003,103.16041624546051L160.691171875,97.37605011463165L160.982015625,106.09047389030457L161.1274375,94.48222124576569L161.272859375,101.47521901130676L161.41828125,91.43168234825134L161.563703125,98.55860209465027L161.70912500000003,101.852698802948L161.854546875,98.60029578208923L162.145390625,100.01252174377441L162.29081250000002,97.31441688537598L162.436234375,94.66682553291321L162.8725,93.84031569957733L163.017921875,93.50765240192413L163.16334375000002,93.56304001808167L163.308765625,96.34512305259705L163.599609375,106.7295309305191L164.472140625,96.34246444702148L164.6175625,97.73745167255402L164.762984375,97.38001692295074L165.053828125,101.70407009124756L165.635515625,102.18380069732666L166.07178125,100.13021779060364L166.508046875,99.92257225513458L166.9443125,99.81740963459015L167.089734375,98.97710037231445L167.380578125,103.00942432880402L167.52599999999998,100.0856544971466L167.671421875,101.84100937843323L167.81684374999998,99.72113013267517L168.1076875,104.67767822742462L168.253109375,101.89844369888306L168.39853125,95.43948805332184L168.543953125,102.06494414806366L168.68937499999998,99.33341681957245L168.834796875,104.31990587711334L168.98021874999998,96.72049283981323L169.12564062500002,93.07611429691315L169.2710625,103.25863695144653L169.56190625,95.81169283390045L169.707328125,105.53573262691498L169.998171875,99.5278115272522L170.28901562500002,100.41667199134827L170.4344375,103.38530051708221L170.72528125,101.64986407756805L171.016125,101.07208156585693L171.161546875,105.86769962310791L171.30696874999998,98.88700318336487L171.45239062500002,99.59199786186218L171.88865625,101.63127493858337L172.034078125,94.549889087677L172.1795,105.12675046920776L172.324921875,102.4578902721405L172.615765625,100.37377560138702L172.7611875,106.0143027305603L173.92456249999998,105.86689782142639L174.06998437500002,105.80802869796753L174.360828125,101.0619957447052L174.50625,98.1491768360138L174.79709375,98.02654337882996L174.942515625,103.00604832172394L175.08793749999998,102.92050874233246L175.23335937500002,100.3791561126709L175.669625,105.55453276634216L175.815046875,101.08780109882355L176.105890625,101.09512281417847L176.25131249999998,103.63461863994598L176.39673437500002,102.25421154499054L176.54215625,102.39701664447784L176.978421875,99.60092318058014L177.996375,107.71498739719391L178.141796875,101.4054411649704L178.28721875,98.57714903354645L178.432640625,98.60732209682465L178.72348437500003,96.94362580776215L179.01432812500002,100.59382796287537L179.15975,103.41346907615662L179.305171875,100.79638838768005L179.596015625,105.45131134986877L179.7414375,106.71300959587097L179.88685937500003,101.62635862827301L180.03228125,100.16992807388306L180.17770312500002,94.67435824871063L180.61396875,106.31312155723572L180.759390625,104.9768135547638L180.9048125,101.33161211013794L181.63192187500002,100.42509090900421L181.77734375,103.16828656196594L181.92276562499998,108.67797231674194L182.0681875,101.48840653896332L182.35903125,100.18201839923859L182.504453125,109.9425401687622L182.649875,102.37562119960785L182.795296875,104.6485390663147L182.94071875,104.44671714305878L183.66782812499997,103.44032943248749L183.81325,105.5625296831131L184.10409375,106.35211443901062L184.249515625,100.65250718593597L184.3949375,106.07462775707245L184.976625,106.02860856056213L185.122046875,103.68342304229736L185.26746875,107.73218393325806L185.412890625,108.88990116119385L185.5583125,106.88539695739746L185.70373437499998,108.71048748493195L185.84915625,107.49921834468842L186.14000000000001,101.22480368614197L186.285421875,104.64931976795197L186.43084375,105.00738751888275L186.576265625,108.73593413829803L186.7216875,106.90706670284271L186.86710937499998,102.75729990005493L187.01253125,103.93727767467499L187.59421875,103.05156111717224L187.8850625,103.94394528865814L188.030484375,106.60904967784882L188.75759375,107.32617688179016L188.903015625,105.84278047084808L189.193859375,109.52467489242554L189.48470312499998,101.92327845096588L189.63012500000002,104.44941794872284L189.775546875,99.2402812242508L190.066390625,106.41279816627502L190.50265625,104.03406357765198L190.64807812499998,103.548952460289L191.08434375000002,104.24303841590881L191.3751875,104.08734118938446L191.81145312499999,104.80052268505096L192.24771875000002,110.20304131507874L192.393140625,103.60014116764069L192.683984375,103.52445530891418L192.82940625,107.78959715366364L192.974828125,109.53746151924133L193.12025,108.62380850315094L193.26567187499998,105.5321456193924L193.41109375000002,107.57760500907898L193.556515625,108.35138583183289L193.847359375,105.55807757377625L193.99278125,102.35044884681702L194.138203125,108.93651115894318L194.57446875000002,111.46357905864716L194.719890625,107.89121496677399L195.010734375,116.21144771575928L195.15615625,103.7000287771225L196.174109375,109.8948540687561L196.31953125,108.52814090251923L196.464953125,104.75401818752289L196.610375,106.14991271495819L196.755796875,106.40689015388489L197.046640625,106.6882803440094L197.19206250000002,115.3522117137909L197.337484375,107.25893104076385L197.48290625,112.1849262714386L197.77375,106.40680575370789L197.919171875,103.02102935314178L198.06459375000003,107.98538446426392L198.35543750000002,104.37170648574829L198.500859375,106.75942969322205L198.791703125,109.84318006038666L200.245921875,113.20794081687927L200.6821875,109.27765667438507L200.827609375,111.15353500843048L200.97303125,109.98469805717468L201.118453125,110.6682550907135L201.409296875,110.25735282897949L201.55471874999998,109.6268413066864L201.700140625,107.91661942005157L201.990984375,113.05116748809814L202.42725,110.05890691280365L202.572671875,103.51740789413452L202.71809374999998,110.98741436004639L202.863515625,107.16560554504395L203.00893749999997,108.85920059680939L203.154359375,110.93538165092468L203.29978125,111.27004945278168L203.445203125,106.52914381027222L203.736046875,112.89468955993652L204.026890625,111.55669355392456L204.17231249999998,111.34974431991577L204.46315625,111.70652496814728L204.754,109.43014669418335L205.04484374999998,112.43029868602753L205.190265625,108.11346173286438L205.33568749999998,112.24290919303894L205.48110937500002,110.8019449710846L205.62653125,113.1724716424942L205.771953125,111.75210106372833L206.353640625,108.05763101577759L207.08075,111.6555472612381L207.226171875,111.54268312454224L207.517015625,118.46128213405609L207.66243749999998,109.3915125131607L207.80785937500002,112.70993757247925L208.244125,116.32230734825134L208.389546875,109.50481975078583L208.53496875,114.18122255802155L208.680390625,114.10906040668488L208.82581249999998,114.0908932685852L209.11665625,114.69589483737946L209.26207812500002,105.4090690612793L209.69834375,109.32819128036499L209.98918749999999,118.45613372325897L210.28003124999998,116.82653510570526L210.42545312500002,114.60598754882812L210.716296875,117.74396502971649L210.86171875,111.46919167041779L211.297984375,112.9670205116272L211.44340624999998,118.47995567321777L211.58882812500002,113.098748087883L211.73425,107.17708396911621L211.879671875,118.84479653835297L212.02509375,112.19811379909515L212.170515625,120.91215777397156L212.461359375,111.53561460971832L212.60678124999998,119.51033413410187L212.75220312500002,115.15222549438477L212.897625,114.62067317962646L213.04304687500002,117.20998620986938L213.18846875,113.05981850624084L213.4793125,112.42633187770844L213.91557812500002,112.18477857112885L214.061,114.8423502445221L214.35184375,115.29939830303192L214.93353125,117.04614436626434L215.07895312500003,120.25027048587799L215.36979687500002,118.7749764919281L215.51521875,118.89163863658905L215.951484375,112.24964010715485L216.24232812500003,114.29678750038147L216.38775,115.19385588169098L216.53317187500002,116.92494571208954L216.82401562500002,116.27109754085541L216.9694375,122.20951509475708L217.114859375,124.48471176624298L217.26028125,122.00001275539398L217.551125,115.19936299324036L217.69654687500002,119.39405179023743L217.98739062500002,118.93459832668304L218.1328125,119.42593395709991L218.42365625,124.9567197561264L218.56907812499998,118.46282243728638L218.7145,114.9983639717102L219.00534375,124.11130428314209L219.150765625,120.21722781658173L219.58703125,121.48135256767273L219.877875,124.83716690540314L220.02329687499997,123.57253575325012L220.314140625,119.27724194526672L220.4595625,120.69653642177582L220.604984375,120.1554890871048L220.75040625,114.73271441459656L220.89582812499998,126.31049859523773L221.04125,119.56937205791473L221.18667187499997,117.10231268405914L221.6229375,120.55010211467743L221.768359375,127.58394956588745L221.91378125,122.59068739414215L222.05920312499998,122.93113660812378L222.204625,127.50239789485931L222.35004687499998,120.65420973300934L222.49546875000001,125.29440486431122L222.7863125,117.84672224521637L222.931734375,128.95969355106354L223.07715625,122.97164869308472L223.22257812499998,122.0181165933609L223.368,124.76340115070343L223.51342187499998,119.35406720638275L223.9496875,112.43629109859467L224.385953125,125.91056835651398L224.67679687499998,125.98452401161194L224.967640625,123.64476120471954L225.1130625,119.52181255817413L225.258484375,131.72462224960327L225.40390625,121.08794224262238L225.549328125,126.6744110584259L226.131015625,127.7543535232544L226.712703125,130.52835524082184L227.00354687499998,118.7793653011322L227.14896875,134.2598558664322L227.294390625,125.16879630088806L227.585234375,124.6197098493576L227.73065625,127.96499526500702L227.876078125,127.23143112659454L228.31234375,129.60659980773926L228.45776562499998,124.74312400817871L228.748609375,131.5032194852829L228.89403125,130.0058970451355L229.039453125,127.7024474143982L229.330296875,129.29073214530945L229.47571875,126.18980634212494L229.62114062499998,122.95027434825897L229.911984375,128.46453881263733L230.05740625,132.58841586112976L230.34825,129.62970435619354L230.493671875,129.34595096111298L230.63909375,131.5353970527649L230.78451562499998,130.28840553760529L230.92993750000002,127.55618190765381L231.075359375,133.3790134191513L231.366203125,132.40891778469086L231.511625,127.1169844865799L231.94789062499999,132.89803791046143L232.675,136.72088062763214L233.25668750000003,135.18779361248016L234.42006250000003,134.15513634681702L234.565484375,135.82298934459686L234.71090625000002,127.67347705364227L234.856328125,135.84003818035126L235.00175000000002,132.92325246334076L235.438015625,136.10591983795166L235.5834375,134.82978916168213L235.87428125000002,135.3669751882553L236.019703125,132.36473429203033L236.310546875,133.80344080924988L236.45596874999998,133.59463477134705L236.601390625,133.93255198001862L236.74681249999998,133.37308430671692L237.03765625,135.82178664207458L237.183078125,133.76176822185516L237.3285,132.74580109119415L237.473921875,136.63413834571838L237.61934374999998,133.77286684513092L237.91018749999998,137.36162567138672L238.055609375,134.98016917705536L238.20103124999997,136.3172367811203L238.491875,138.78562545776367L238.78271875,139.76141810417175L238.928140625,142.28416049480438L239.65525,137.67088901996613L239.94609375,138.939972281456L240.52778124999998,139.1969919204712L240.67320312500001,140.9707671403885L240.818625,138.18290269374847L241.40031249999998,141.32022607326508L241.69115624999998,141.2308040857315L242.127421875,143.0385925769806L242.27284375,141.7144593000412L242.709109375,143.5490026473999L242.85453124999998,146.44530022144318L243.290796875,139.55090296268463L243.43621875,142.90857410430908L243.872484375,137.5312489271164L244.01790624999998,150.04492557048798L244.16332812500002,143.46584737300873L244.30875,139.10478472709656L244.45417187500001,143.52587699890137L244.59959375,141.7296724319458L244.745015625,140.71292459964752L245.035859375,140.3644151687622L245.18128124999998,143.45105624198914L245.326703125,140.1048846244812L245.472125,142.25727903842926L245.61754687500002,142.28443479537964L245.76296875,141.09557390213013L245.908390625,140.38502991199493L246.0538125,144.58132231235504L246.199234375,138.18488609790802L246.78092187500002,148.5030609369278L247.2171875,144.5746124982834L247.362609375,146.01106131076813L247.50803125,143.26062834262848L247.653453125,147.4440075159073L247.94429687500002,147.66808998584747L248.08971875,141.41190576553345L248.235140625,145.3101600408554L248.3805625,142.45059764385223L248.525984375,136.6799465417862L248.67140625,148.08283245563507L248.816828125,144.04080247879028L248.96224999999998,141.27910208702087L249.10767187500002,146.25848042964935L249.5439375,139.39035272598267L249.83478125,137.79109597206116L249.980203125,142.8359055519104L250.56189062500002,140.71752440929413L250.7073125,144.47250938415527L250.852734375,148.42560267448425L251.143578125,142.3847655057907L251.72526562500002,142.70538067817688L252.16153125,143.90504479408264L252.452375,148.90571308135986L253.0340625,151.07116842269897L253.17948437500002,147.68159401416779L253.32490625,131.33205592632294L253.470328125,140.02177155017853L253.90659375,142.29658842086792L254.1974375,141.9676809310913L254.34285937500002,141.7681589126587L254.48828125,147.2653956413269L254.63370312499998,140.28929901123047L254.779125,144.49920094013214L255.06996875,147.0382536649704L255.215390625,143.76415979862213L255.65165625,145.65029275417328L255.79707812499998,144.3395369052887L255.9425,142.15258061885834L256.087921875,137.92653715610504L256.23334375,152.4438318014145L256.37876562499997,147.09581458568573L257.105875,142.46410167217255L257.251296875,145.15220510959625L257.39671875,143.62437200546265L258.123828125,142.06980514526367L258.414671875,143.50555765628815L258.56009375,142.1655571460724L258.705515625,142.46123206615448L258.8509375,141.3885269165039L259.14178125,147.8620204925537L259.28720312499996,147.14284658432007L259.43262500000003,145.20113611221313L259.578046875,144.7933988571167L259.72346875,142.79476046562195L259.868890625,144.91362690925598L260.0143125,145.70395016670227L260.30515625,145.27829897403717L260.596,141.8440135717392L260.741421875,137.4791318178177L260.88684375,140.48274421691895L261.1776875,144.91105270385742L261.323109375,145.57224369049072L261.61395312499997,145.5685933828354L261.904796875,143.75122547149658L262.05021875,146.02836334705353L262.195640625,147.17745065689087L262.3410625,142.6303700208664L262.486484375,141.9697276353836L263.068171875,144.6014095544815L263.21359375000003,143.73415553569794L263.359015625,146.6726531982422L263.5044375,137.41625368595123L263.649859375,146.0658370256424L263.79528125,142.34630012512207L263.94070312499997,142.93245935440063L264.231546875,142.73411893844604L264.37696875,142.81683111190796L264.522390625,145.21434473991394L264.6678125,143.62772691249847L265.2495,144.65551006793976L265.54034375000003,147.33620738983154L265.685765625,147.40750443935394L265.8311875,145.44062161445618L266.12203125,140.42482459545135L266.412875,144.96707332134247L266.558296875,148.44119560718536L266.70371875,141.328054189682L266.849140625,148.6052062511444L266.99456250000003,150.4170459508896L267.139984375,140.97125244140625L267.28540625,143.44132912158966L267.57625,144.6827291250229L267.72167187499997,142.70746958255768L267.86709375000004,145.0873646736145L268.012515625,139.84592378139496L268.1579375,146.24088299274445L268.303359375,141.1294183731079L268.44878125,151.06720161437988L268.594203125,146.46895337104797L268.739625,141.85806620121002L269.175890625,142.40713155269623L269.32131250000003,149.1812163591385L269.61215625,147.56714737415314L269.757578125,147.1210502386093L270.19384375000004,141.2929015159607L270.339265625,142.5762906074524L270.4846875,147.22783756256104L270.630109375,141.23249208927155L270.77553125000003,148.6464146375656L271.066375,142.26124584674835L271.211796875,142.9935861825943L271.502640625,143.9014788866043L271.64806250000004,144.4759486913681L271.93890625,143.68606853485107L272.084328125,146.73494052886963" fill="none"></path></g></g></g></g></g></g><g transform="translate(39, 177)" clip-path="url(#clip_1)"><clipPath id="clip_1"><rect width="290" height="23"></rect></clipPath><g><g><line x1="0" y1="0" x2="0" y2="5" style="visibility: inherit;" fill="rgb(0, 0, 0)" stroke="rgb(204, 204, 204)" stroke-width="1px"></line><line x1="29.084375" y1="0" x2="29.084375" y2="5" style="visibility: inherit;" fill="rgb(0, 0, 0)" stroke="rgb(204, 204, 204)" stroke-width="1px"></line><line x1="58.16875" y1="0" x2="58.16875" y2="5" style="visibility: inherit;" fill="rgb(0, 0, 0)" stroke="rgb(204, 204, 204)" stroke-width="1px"></line><line x1="87.253125" y1="0" x2="87.253125" y2="5" style="visibility: inherit;" fill="rgb(0, 0, 0)" stroke="rgb(204, 204, 204)" stroke-width="1px"></line><line x1="116.3375" y1="0" x2="116.3375" y2="5" style="visibility: inherit;" fill="rgb(0, 0, 0)" stroke="rgb(204, 204, 204)" stroke-width="1px"></line><line x1="145.421875" y1="0" x2="145.421875" y2="5" style="visibility: inherit;" fill="rgb(0, 0, 0)" stroke="rgb(204, 204, 204)" stroke-width="1px"></line><line x1="174.50625" y1="0" x2="174.50625" y2="5" style="visibility: inherit;" fill="rgb(0, 0, 0)" stroke="rgb(204, 204, 204)" stroke-width="1px"></line><line x1="203.590625" y1="0" x2="203.590625" y2="5" style="visibility: inherit;" fill="rgb(0, 0, 0)" stroke="rgb(204, 204, 204)" stroke-width="1px"></line><line x1="232.675" y1="0" x2="232.675" y2="5" style="visibility: inherit;" fill="rgb(0, 0, 0)" stroke="rgb(204, 204, 204)" stroke-width="1px"></line><line x1="261.75937500000003" y1="0" x2="261.75937500000003" y2="5" style="visibility: inherit;" fill="rgb(0, 0, 0)" stroke="rgb(204, 204, 204)" stroke-width="1px"></line><line x1="290.84375" y1="0" x2="290.84375" y2="5" style="visibility: inherit;" fill="rgb(0, 0, 0)" stroke="rgb(204, 204, 204)" stroke-width="1px"></line></g><g transform="translate(0, 8)"><text x="0" y="0" dx="0em" dy="0.95em" style="text-anchor: middle; visibility: hidden; font-family: &quot;Helvetica Neue&quot;, sans-serif; font-size: 12px; font-weight: 200;" fill="rgb(50, 49, 63)" stroke="none" stroke-width="1px">-200</text><text x="29.084375" y="0" dx="0em" dy="0.95em" style="text-anchor: middle; visibility: inherit; font-family: &quot;Helvetica Neue&quot;, sans-serif; font-size: 12px; font-weight: 200;" fill="rgb(50, 49, 63)" stroke="none" stroke-width="1px">0</text><text x="58.16875" y="0" dx="0em" dy="0.95em" style="text-anchor: middle; visibility: inherit; font-family: &quot;Helvetica Neue&quot;, sans-serif; font-size: 12px; font-weight: 200;" fill="rgb(50, 49, 63)" stroke="none" stroke-width="1px">200</text><text x="87.253125" y="0" dx="0em" dy="0.95em" style="text-anchor: middle; visibility: inherit; font-family: &quot;Helvetica Neue&quot;, sans-serif; font-size: 12px; font-weight: 200;" fill="rgb(50, 49, 63)" stroke="none" stroke-width="1px">400</text><text x="116.3375" y="0" dx="0em" dy="0.95em" style="text-anchor: middle; visibility: inherit; font-family: &quot;Helvetica Neue&quot;, sans-serif; font-size: 12px; font-weight: 200;" fill="rgb(50, 49, 63)" stroke="none" stroke-width="1px">600</text><text x="145.421875" y="0" dx="0em" dy="0.95em" style="text-anchor: middle; visibility: inherit; font-family: &quot;Helvetica Neue&quot;, sans-serif; font-size: 12px; font-weight: 200;" fill="rgb(50, 49, 63)" stroke="none" stroke-width="1px">800</text><text x="174.50625" y="0" dx="0em" dy="0.95em" style="text-anchor: middle; visibility: inherit; font-family: &quot;Helvetica Neue&quot;, sans-serif; font-size: 12px; font-weight: 200;" fill="rgb(50, 49, 63)" stroke="none" stroke-width="1px">1k</text><text x="203.590625" y="0" dx="0em" dy="0.95em" style="text-anchor: middle; visibility: inherit; font-family: &quot;Helvetica Neue&quot;, sans-serif; font-size: 12px; font-weight: 200;" fill="rgb(50, 49, 63)" stroke="none" stroke-width="1px">1.2k</text><text x="232.675" y="0" dx="0em" dy="0.95em" style="text-anchor: middle; visibility: inherit; font-family: &quot;Helvetica Neue&quot;, sans-serif; font-size: 12px; font-weight: 200;" fill="rgb(50, 49, 63)" stroke="none" stroke-width="1px">1.4k</text><text x="261.75937500000003" y="0" dx="0em" dy="0.95em" style="text-anchor: middle; visibility: inherit; font-family: &quot;Helvetica Neue&quot;, sans-serif; font-size: 12px; font-weight: 200;" fill="rgb(50, 49, 63)" stroke="none" stroke-width="1px">1.6k</text><text x="290.84375" y="0" dx="0em" dy="0.95em" style="text-anchor: middle; visibility: hidden; font-family: &quot;Helvetica Neue&quot;, sans-serif; font-size: 12px; font-weight: 200;" fill="rgb(50, 49, 63)" stroke="none" stroke-width="1px">1.8k</text></g><line x1="0" y1="0" x2="290.84375" y2="0" fill="rgb(0, 0, 0)" stroke="rgb(204, 204, 204)" stroke-width="1px"></line></g></g></g></g></svg>