<svg viewBox="0 0 330 200" xmlns="http://www.w3.org/2000/svg"><g><g><g><g><g><line x1="48.875" y1="177" x2="43.875" y2="177" style="visibility: inherit;" fill="rgb(0, 0, 0)" stroke="rgb(204, 204, 204)" stroke-width="1px"></line><line x1="48.875" y1="165.19999999999982" x2="43.875" y2="165.19999999999982" style="visibility: inherit;" fill="rgb(0, 0, 0)" stroke="rgb(204, 204, 204)" stroke-width="1px"></line><line x1="48.875" y1="153.39999999999966" x2="43.875" y2="153.39999999999966" style="visibility: inherit;" fill="rgb(0, 0, 0)" stroke="rgb(204, 204, 204)" stroke-width="1px"></line><line x1="48.875" y1="141.5999999999995" x2="43.875" y2="141.5999999999995" style="visibility: inherit;" fill="rgb(0, 0, 0)" stroke="rgb(204, 204, 204)" stroke-width="1px"></line><line x1="48.875" y1="129.80000000000018" x2="43.875" y2="129.80000000000018" style="visibility: inherit;" fill="rgb(0, 0, 0)" stroke="rgb(204, 204, 204)" stroke-width="1px"></line><line x1="48.875" y1="118" x2="43.875" y2="118" style="visibility: inherit;" fill="rgb(0, 0, 0)" stroke="rgb(204, 204, 204)" stroke-width="1px"></line><line x1="48.875" y1="106.19999999999983" x2="43.875" y2="106.19999999999983" style="visibility: inherit;" fill="rgb(0, 0, 0)" stroke="rgb(204, 204, 204)" stroke-width="1px"></line><line x1="48.875" y1="94.39999999999966" x2="43.875" y2="94.39999999999966" style="visibility: inherit;" fill="rgb(0, 0, 0)" stroke="rgb(204, 204, 204)" stroke-width="1px"></line><line x1="48.875" y1="82.5999999999995" x2="43.875" y2="82.5999999999995" style="visibility: inherit;" fill="rgb(0, 0, 0)" stroke="rgb(204, 204, 204)" stroke-width="1px"></line><line x1="48.875" y1="70.80000000000017" x2="43.875" y2="70.80000000000017" style="visibility: inherit;" fill="rgb(0, 0, 0)" stroke="rgb(204, 204, 204)" stroke-width="1px"></line><line x1="48.875" y1="59" x2="43.875" y2="59" style="visibility: inherit;" fill="rgb(0, 0, 0)" stroke="rgb(204, 204, 204)" stroke-width="1px"></line><line x1="48.875" y1="47.19999999999982" x2="43.875" y2="47.19999999999982" style="visibility: inherit;" fill="rgb(0, 0, 0)" stroke="rgb(204, 204, 204)" stroke-width="1px"></line><line x1="48.875" y1="35.399999999999665" x2="43.875" y2="35.399999999999665" style="visibility: inherit;" fill="rgb(0, 0, 0)" stroke="rgb(204, 204, 204)" stroke-width="1px"></line><line x1="48.875" y1="23.59999999999951" x2="43.875" y2="23.59999999999951" style="visibility: inherit;" fill="rgb(0, 0, 0)" stroke="rgb(204, 204, 204)" stroke-width="1px"></line><line x1="48.875" y1="11.800000000000182" x2="43.875" y2="11.800000000000182" style="visibility: inherit;" fill="rgb(0, 0, 0)" stroke="rgb(204, 204, 204)" stroke-width="1px"></line><line x1="48.875" y1="0" x2="43.875" y2="0" style="visibility: inherit;" fill="rgb(0, 0, 0)" stroke="rgb(204, 204, 204)" stroke-width="1px"></line></g><g transform="translate(38.875, 0)"><text x="0" y="177" dx="0em" dy="0.3em" style="text-anchor: end; visibility: hidden; font-family: &quot;Helvetica Neue&quot;, sans-serif; font-size: 12px; font-weight: 200;" fill="rgb(50, 49, 63)" stroke="none" stroke-width="1px">93.8</text><text x="0" y="165.19999999999982" dx="0em" dy="0.3em" style="text-anchor: end; visibility: inherit; font-family: &quot;Helvetica Neue&quot;, sans-serif; font-size: 12px; font-weight: 200;" fill="rgb(50, 49, 63)" stroke="none" stroke-width="1px">94</text><text x="0" y="153.39999999999966" dx="0em" dy="0.3em" style="text-anchor: end; visibility: hidden; font-family: &quot;Helvetica Neue&quot;, sans-serif; font-size: 12px; font-weight: 200;" fill="rgb(50, 49, 63)" stroke="none" stroke-width="1px">94.2</text><text x="0" y="141.5999999999995" dx="0em" dy="0.3em" style="text-anchor: end; visibility: hidden; font-family: &quot;Helvetica Neue&quot;, sans-serif; font-size: 12px; font-weight: 200;" fill="rgb(50, 49, 63)" stroke="none" stroke-width="1px">94.4</text><text x="0" y="129.80000000000018" dx="0em" dy="0.3em" style="text-anchor: end; visibility: inherit; font-family: &quot;Helvetica Neue&quot;, sans-serif; font-size: 12px; font-weight: 200;" fill="rgb(50, 49, 63)" stroke="none" stroke-width="1px">94.6</text><text x="0" y="118" dx="0em" dy="0.3em" style="text-anchor: end; visibility: hidden; font-family: &quot;Helvetica Neue&quot;, sans-serif; font-size: 12px; font-weight: 200;" fill="rgb(50, 49, 63)" stroke="none" stroke-width="1px">94.8</text><text x="0" y="106.19999999999983" dx="0em" dy="0.3em" style="text-anchor: end; visibility: hidden; font-family: &quot;Helvetica Neue&quot;, sans-serif; font-size: 12px; font-weight: 200;" fill="rgb(50, 49, 63)" stroke="none" stroke-width="1px">95</text><text x="0" y="94.39999999999966" dx="0em" dy="0.3em" style="text-anchor: end; visibility: inherit; font-family: &quot;Helvetica Neue&quot;, sans-serif; font-size: 12px; font-weight: 200;" fill="rgb(50, 49, 63)" stroke="none" stroke-width="1px">95.2</text><text x="0" y="82.5999999999995" dx="0em" dy="0.3em" style="text-anchor: end; visibility: hidden; font-family: &quot;Helvetica Neue&quot;, sans-serif; font-size: 12px; font-weight: 200;" fill="rgb(50, 49, 63)" stroke="none" stroke-width="1px">95.4</text><text x="0" y="70.80000000000017" dx="0em" dy="0.3em" style="text-anchor: end; visibility: hidden; font-family: &quot;Helvetica Neue&quot;, sans-serif; font-size: 12px; font-weight: 200;" fill="rgb(50, 49, 63)" stroke="none" stroke-width="1px">95.6</text><text x="0" y="59" dx="0em" dy="0.3em" style="text-anchor: end; visibility: inherit; font-family: &quot;Helvetica Neue&quot;, sans-serif; font-size: 12px; font-weight: 200;" fill="rgb(50, 49, 63)" stroke="none" stroke-width="1px">95.8</text><text x="0" y="47.19999999999982" dx="0em" dy="0.3em" style="text-anchor: end; visibility: hidden; font-family: &quot;Helvetica Neue&quot;, sans-serif; font-size: 12px; font-weight: 200;" fill="rgb(50, 49, 63)" stroke="none" stroke-width="1px">96</text><text x="0" y="35.399999999999665" dx="0em" dy="0.3em" style="text-anchor: end; visibility: hidden; font-family: &quot;Helvetica Neue&quot;, sans-serif; font-size: 12px; font-weight: 200;" fill="rgb(50, 49, 63)" stroke="none" stroke-width="1px">96.2</text><text x="0" y="23.59999999999951" dx="0em" dy="0.3em" style="text-anchor: end; visibility: inherit; font-family: &quot;Helvetica Neue&quot;, sans-serif; font-size: 12px; font-weight: 200;" fill="rgb(50, 49, 63)" stroke="none" stroke-width="1px">96.4</text><text x="0" y="11.800000000000182" dx="0em" dy="0.3em" style="text-anchor: end; visibility: hidden; font-family: &quot;Helvetica Neue&quot;, sans-serif; font-size: 12px; font-weight: 200;" fill="rgb(50, 49, 63)" stroke="none" stroke-width="1px">96.6</text><text x="0" y="0" dx="0em" dy="0.3em" style="text-anchor: end; visibility: hidden; font-family: &quot;Helvetica Neue&quot;, sans-serif; font-size: 12px; font-weight: 200;" fill="rgb(50, 49, 63)" stroke="none" stroke-width="1px">96.8</text></g><line x1="48.875" y1="0" x2="48.875" y2="177" fill="rgb(0, 0, 0)" stroke="rgb(204, 204, 204)" stroke-width="1px"></line></g></g><g transform="translate(48, 0)" clip-path="url(#clip_0)"><clipPath id="clip_0"><rect width="281" height="177"></rect></clipPath><g><g><g><line x1="0" y1="0" x2="0" y2="177" fill="rgb(0, 0, 0)" stroke="rgb(60, 60, 60)" stroke-width="1px" opacity="0.25"></line><line x1="21.625" y1="0" x2="21.625" y2="177" fill="rgb(0, 0, 0)" stroke="rgb(60, 60, 60)" stroke-width="1px" opacity="0.25"></line><line x1="43.25" y1="0" x2="43.25" y2="177" fill="rgb(0, 0, 0)" stroke="rgb(60, 60, 60)" stroke-width="1px" opacity="0.25"></line><line x1="64.875" y1="0" x2="64.875" y2="177" fill="rgb(0, 0, 0)" stroke="rgb(60, 60, 60)" stroke-width="1px" opacity="0.25"></line><line x1="86.5" y1="0" x2="86.5" y2="177" fill="rgb(0, 0, 0)" stroke="rgb(60, 60, 60)" stroke-width="1px" opacity="0.25"></line><line x1="108.125" y1="0" x2="108.125" y2="177" fill="rgb(0, 0, 0)" stroke="rgb(60, 60, 60)" stroke-width="1px" opacity="0.25"></line><line x1="129.75" y1="0" x2="129.75" y2="177" fill="rgb(0, 0, 0)" stroke="rgb(60, 60, 60)" stroke-width="1px" opacity="0.25"></line><line x1="151.375" y1="0" x2="151.375" y2="177" fill="rgb(0, 0, 0)" stroke="rgb(60, 60, 60)" stroke-width="1px" opacity="0.25"></line><line x1="173" y1="0" x2="173" y2="177" fill="rgb(0, 0, 0)" stroke="rgb(60, 60, 60)" stroke-width="1px" opacity="0.25"></line><line x1="194.625" y1="0" x2="194.625" y2="177" fill="rgb(0, 0, 0)" stroke="rgb(60, 60, 60)" stroke-width="1px" opacity="0.25"></line><line x1="216.25" y1="0" x2="216.25" y2="177" fill="rgb(0, 0, 0)" stroke="rgb(60, 60, 60)" stroke-width="1px" opacity="0.25"></line><line x1="237.875" y1="0" x2="237.875" y2="177" fill="rgb(0, 0, 0)" stroke="rgb(60, 60, 60)" stroke-width="1px" opacity="0.25"></line><line x1="259.5" y1="0" x2="259.5" y2="177" fill="rgb(0, 0, 0)" stroke="rgb(60, 60, 60)" stroke-width="1px" opacity="0.25"></line><line x1="281.125" y1="0" x2="281.125" y2="177" fill="rgb(0, 0, 0)" stroke="rgb(60, 60, 60)" stroke-width="1px" opacity="0.25"></line></g><g><line x1="0" y1="177" x2="281.125" y2="177" fill="rgb(0, 0, 0)" stroke="rgb(60, 60, 60)" stroke-width="1px" opacity="0.25"></line><line x1="0" y1="165.19999999999982" x2="281.125" y2="165.19999999999982" fill="rgb(0, 0, 0)" stroke="rgb(60, 60, 60)" stroke-width="1px" opacity="0.25"></line><line x1="0" y1="153.39999999999966" x2="281.125" y2="153.39999999999966" fill="rgb(0, 0, 0)" stroke="rgb(60, 60, 60)" stroke-width="1px" opacity="0.25"></line><line x1="0" y1="141.5999999999995" x2="281.125" y2="141.5999999999995" fill="rgb(0, 0, 0)" stroke="rgb(60, 60, 60)" stroke-width="1px" opacity="0.25"></line><line x1="0" y1="129.80000000000018" x2="281.125" y2="129.80000000000018" fill="rgb(0, 0, 0)" stroke="rgb(60, 60, 60)" stroke-width="1px" opacity="0.25"></line><line x1="0" y1="118" x2="281.125" y2="118" fill="rgb(0, 0, 0)" stroke="rgb(60, 60, 60)" stroke-width="1px" opacity="0.25"></line><line x1="0" y1="106.19999999999983" x2="281.125" y2="106.19999999999983" fill="rgb(0, 0, 0)" stroke="rgb(60, 60, 60)" stroke-width="1px" opacity="0.25"></line><line x1="0" y1="94.39999999999966" x2="281.125" y2="94.39999999999966" fill="rgb(0, 0, 0)" stroke="rgb(60, 60, 60)" stroke-width="1px" opacity="0.25"></line><line x1="0" y1="82.5999999999995" x2="281.125" y2="82.5999999999995" fill="rgb(0, 0, 0)" stroke="rgb(60, 60, 60)" stroke-width="1px" opacity="0.25"></line><line x1="0" y1="70.80000000000017" x2="281.125" y2="70.80000000000017" fill="rgb(0, 0, 0)" stroke="rgb(60, 60, 60)" stroke-width="1px" opacity="0.25"></line><line x1="0" y1="59" x2="281.125" y2="59" fill="rgb(0, 0, 0)" stroke="rgb(60, 60, 60)" stroke-width="1px" opacity="0.25"></line><line x1="0" y1="47.19999999999982" x2="281.125" y2="47.19999999999982" fill="rgb(0, 0, 0)" stroke="rgb(60, 60, 60)" stroke-width="1px" opacity="0.25"></line><line x1="0" y1="35.399999999999665" x2="281.125" y2="35.399999999999665" fill="rgb(0, 0, 0)" stroke="rgb(60, 60, 60)" stroke-width="1px" opacity="0.25"></line><line x1="0" y1="23.59999999999951" x2="281.125" y2="23.59999999999951" fill="rgb(0, 0, 0)" stroke="rgb(60, 60, 60)" stroke-width="1px" opacity="0.25"></line><line x1="0" y1="11.800000000000182" x2="281.125" y2="11.800000000000182" fill="rgb(0, 0, 0)" stroke="rgb(60, 60, 60)" stroke-width="1px" opacity="0.25"></line><line x1="0" y1="0" x2="281.125" y2="0" fill="rgb(0, 0, 0)" stroke="rgb(60, 60, 60)" stroke-width="1px" opacity="0.25"></line></g></g></g><g><g><line x1="0" y1="5711.2" x2="281.125" y2="5711.2" fill="rgb(0, 0, 0)" stroke="rgb(153, 153, 153)" stroke-width="1.5px"></line></g></g><g><g><line x1="21.625" y1="0" x2="21.625" y2="177" fill="rgb(0, 0, 0)" stroke="rgb(153, 153, 153)" stroke-width="1.5px"></line></g></g><g><g><g><g><g><path stroke="rgb(204, 51, 17)" stroke-width="2px" d="M23.7875,243.63679809570294L25.950000000000003,176.77700347900372L28.1125,169.75085754394513L30.275000000000002,121.47575683593733L32.4375,149.3530227661131L34.6,225.05210418701154L36.7625,108.10361785888655L38.925000000000004,148.67332000732404L41.087500000000006,130.0881759643553L43.25,146.180026245117L45.4125,146.63331146240216L47.575,116.71648712158186L49.737500000000004,115.5830490112303L51.900000000000006,104.2509185791014L54.0625,196.4951354980467L56.225,280.1264831542967L58.3875,75.4670822143553L60.550000000000004,96.31820220947249L62.712500000000006,115.12976379394514L64.875,155.47259826660138L67.03750000000001,123.74218292236311L69.2,106.74376220703108L71.3625,131.22161407470685L73.525,106.74376220703108L75.6875,135.30118103027326L77.85000000000001,92.01221771240218L80.0125,123.06248016357405L82.17500000000001,114.45006103515608L84.33749999999999,82.7196456909178L86.5,110.14362640380843L88.6625,107.19704742431624L90.825,80.68008728027327L92.9875,123.96905059814436L95.15,114.90334625244124L97.3125,208.0536834716795L99.47500000000001,146.8601791381834L101.6375,174.2837097167967L103.80000000000001,99.49119873046858L105.96249999999999,88.61235351562483L108.125,158.64559478759747L110.2875,128.72832031249982L112.45,162.9515792846678L114.6125,181.08343811035138L116.775,116.26320190429671L118.9375,110.59691162109358L121.10000000000001,116.03633422851546L123.2625,66.85466308593733L125.42500000000001,124.87562103271468L127.5875,127.59533233642561L129.75,116.71648712158186L130.1825,143.68673248290997L130.61499999999998,89.9722091674803L131.04749999999999,118.30276031494124L131.48,95.41163177490218L131.9125,112.86333770751936L132.345,115.80991668701155L132.7775,110.59691162109358L133.21,92.46550292968733L133.6425,138.70059509277326L134.07500000000002,68.44093627929671L134.5075,153.4325897216795L134.94,112.63647003173811L135.3725,115.80991668701155L135.805,77.50664062499983L136.2375,133.03475494384747L136.67,98.35821075439436L137.1025,74.33364410400374L137.535,149.1266052246092L137.9675,54.615962219238114L138.4,95.41163177490218L138.83249999999998,109.46347351074202L139.265,120.34276885986311L139.6975,89.06563873290999L140.13,88.61235351562483L140.5625,130.7683288574217L140.99499999999998,71.3875152587889L141.4275,114.67647857665999L141.85999999999999,113.09020538330061L142.29250000000002,112.86333770751936L142.725,80.45321960449202L143.1575,74.56051177978499L143.59,74.10722656249983L144.0225,62.09494323730452L144.455,70.93423004150374L144.8875,111.5034820556639L145.32,97.90492553710921L145.7525,83.62621612548811L146.185,127.59533233642561L146.61749999999998,138.47417755126935L147.05,132.12818450927716L147.4825,186.52286071777326L147.91500000000002,139.1538803100584L148.3475,74.10722656249983L148.78,115.80991668701155L149.2125,175.8704330444334L149.64499999999998,57.33567352294905L150.07750000000001,124.19546813964827L150.51,67.5343658447264L150.9425,94.95834655761702L151.375,79.77351684570296L151.8075,83.62621612548811L152.24,135.98088378906232L152.6725,89.51892395019514L153.105,206.9206954956053L153.5375,47.589816284179534L153.97,133.26117248535138L154.40249999999997,1196.4490768432615L154.835,75.92036743164046L155.26749999999998,49.8562423706053L155.70000000000002,110.14362640380843L156.1325,101.98449249267561L156.565,130.9947463989256L156.9975,83.39979858398421L157.43,71.6139328002928L157.8625,109.23705596923811L158.295,103.57076568603499L158.7275,100.62463684082014L159.16,122.38232727050764L159.5925,82.94651336669905L160.025,76.37365264892561L160.4575,114.90334625244124L160.89,100.3977691650389L161.32250000000002,125.78219146728499L161.755,229.81182403564435L162.18749999999997,137.79402465820294L162.62,172.24415130615216L163.05249999999998,126.0086090087889L163.485,82.26636047363264L163.9175,113.76990814208968L164.35000000000002,97.67805786132796L164.7825,95.63849945068343L165.215,121.24933929443343L165.6475,66.85466308593733L166.08,122.8356124877928L166.5125,171.33758087158185L166.945,170.43101043701154L167.3775,58.921946716308426L167.81,113.76990814208968L168.2425,69.80079193115218L168.67499999999998,75.69349975585921L169.10750000000002,70.93423004150374L169.54,139.83403320312482L169.97250000000003,167.48443145751935L170.405,87.25249786376936L170.83749999999998,89.29250640869124L171.27,167.48443145751935L171.7025,100.3977691650389L172.13500000000002,127.36846466064436L172.5675,143.68673248290997L173,80.90650482177718L173.4325,113.54349060058577L173.865,154.56602783203107L174.29749999999999,88.83922119140608L174.73,88.83922119140608L175.1625,68.44093627929671L175.595,147.76674957275372L176.0275,109.69034118652327L176.45999999999998,181.08343811035138L176.8925,125.32890624999983L177.325,130.9947463989256L177.75750000000002,92.23863525390608L178.19,128.5019027709959L178.6225,72.29408569335921L179.055,88.83922119140608L179.48749999999998,128.5019027709959L179.92000000000002,118.07634277343733L180.3525,90.87877960205061L180.785,91.55893249511702L181.2175,107.19704742431624L181.65,121.70262451171858L182.0825,63.908084106445145L182.51500000000001,83.62621612548811L182.9475,123.51576538085921L183.38,76.60007019042952L183.8125,143.68673248290997L184.24499999999998,101.98449249267561L184.6775,110.14362640380843L185.10999999999999,127.82174987792952L185.54250000000002,179.94999999999982L185.975,92.69192047119124L186.4075,118.7560455322264L186.84,150.93974609374982L187.2725,139.1538803100584L187.705,150.71287841796857L188.1375,105.15748901367171L188.57,80.68008728027327L189.0025,142.3268768310545L189.435,94.27864379882796L189.8675,86.5727951049803L190.3,121.92904205322249L190.7325,187.42943115234357L191.16500000000002,94.05177612304671L191.5975,139.1538803100584L192.02999999999997,115.80991668701155L192.4625,105.38390655517561L192.89499999999998,114.22319335937483L193.32750000000001,79.09336395263655L193.76,124.19546813964827L194.1925,84.53278656005843L194.625,119.20933074951155L195.0575,138.2473098754881L195.49,124.87562103271468L195.9225,165.21800537109357L196.355,136.88745422363263L196.7875,68.66780395507796L197.22,99.03791351318343L197.6525,130.7683288574217L198.085,88.61235351562483L198.51749999999998,113.54349060058577L198.95000000000002,106.06405944824202L199.3825,116.71648712158186L199.81500000000003,130.31504364013654L200.2475,164.7647201538084L200.67999999999998,70.48094482421858L201.1125,123.96905059814436L201.545,70.48094482421858L201.97750000000002,87.47936553955061L202.41,112.86333770751936L202.8425,109.69034118652327L203.275,99.03791351318343L203.7075,131.22161407470685L204.14,84.75965423583968L204.5725,113.99677581787093L205.005,123.51576538085921L205.4375,84.30636901855452L205.87,172.69743652343732L206.30249999999998,90.19907684326155L206.735,119.66261596679671L207.1675,76.60007019042952L207.60000000000002,115.3566314697264L208.0325,108.78377075195296L208.465,77.73350830078108L208.8975,101.98449249267561L209.32999999999998,92.69192047119124L209.76250000000002,124.19546813964827L210.195,80.68008728027327L210.6275,121.70262451171858L211.06,95.41163177490218L211.4925,102.89106292724593L211.92499999999998,103.34434814453108L212.35750000000002,75.24021453857405L212.79,157.285739135742L213.2225,115.3566314697264L213.655,68.2145187377928L214.08749999999998,125.55532379150374L214.52,212.1332504272459L214.9525,59.82851715087874L215.38500000000002,159.7785827636717L215.8175,79.31978149414046L216.25,112.86333770751936L216.6825,89.06563873290999L217.115,98.13134307861311L217.5475,109.91675872802718L217.98,52.80282135009749L218.4125,68.44093627929671L218.845,88.83922119140608L219.2775,126.6887619018553L219.70999999999998,127.36846466064436L220.1425,98.13134307861311L220.575,1215.2601882934568L221.00750000000002,75.4670822143553L221.44,120.56918640136702L221.87249999999997,135.7544662475584L222.305,145.95315856933576L222.73749999999998,90.87877960205061L223.17000000000002,77.95992584228499L223.6025,101.98449249267561L224.035,115.5830490112303L224.4675,133.03475494384747L224.9,101.53120727539046L225.3325,94.50506134033186L225.765,142.1004592895506L226.1975,171.1107131958006L226.63,53.029238891601395L227.0625,80.68008728027327L227.495,121.24933929443343L227.9275,92.23863525390608L228.35999999999999,82.03994293212874L228.79250000000002,180.85657043457013L229.225,138.0208923339842L229.65750000000003,111.5034820556639L230.09,129.63489074707013L230.52249999999998,82.03994293212874L230.955,107.87720031738264L231.3875,99.03791351318343L231.82,85.66622467040999L232.2525,185.84270782470685L232.685,113.99677581787093L233.1175,153.65945739746076L233.55,87.02608032226546L233.9825,74.56051177978499L234.415,103.57076568603499L234.8475,223.012545776367L235.28,143.68673248290997L235.7125,144.82017059326154L236.14499999999998,85.66622467040999L236.57750000000001,112.63647003173811L237.01,233.6645233154295L237.44250000000002,53.029238891601395L237.875,108.3304855346678L238.09125,140.51373596191388L238.3075,124.19546813964827L238.52375,96.31820220947249L238.74,131.22161407470685L238.95624999999998,81.58665771484358L239.17249999999999,77.50664062499983L239.38875000000002,101.75762481689436L239.605,92.01221771240218L239.82125,125.78219146728499L240.0375,110.14362640380843L240.25375000000003,118.98291320800764L240.47,116.03633422851546L240.68625,113.99677581787093L240.9025,98.35821075439436L241.11874999999998,135.52759857177716L241.335,198.76156158447247L241.55125,99.71806640624983L241.76749999999998,128.5019027709959L241.98375,101.0779220581053L242.20000000000002,67.5343658447264L242.41625000000002,88.38593597412093L242.6325,156.3791687011717L242.84875,105.38390655517561L243.065,60.05538482665999L243.28125,152.97930450439435L243.4975,101.30433959960921L243.71375,105.83719177246077L243.92999999999998,175.41714782714826L244.14625,127.14204711914046L244.3625,64.3613693237303L244.57874999999999,90.87877960205061L244.795,51.669383239745926L245.01125,161.81859130859357L245.22750000000002,105.83719177246077L245.44375,194.00184173583966L245.66,91.78535003662093L245.87625,126.0086090087889L246.0925,165.89815826415997L246.30875,110.37004394531233L246.525,262.67522735595685L246.74124999999998,121.92904205322249L246.9575,83.62621612548811L247.17375,67.5343658447264L247.39000000000001,197.401705932617L247.60625,141.87359161376935L247.8225,123.96905059814436L248.03875000000002,112.41005249023421L248.255,133.48804016113263L248.47125,108.55690307617171L248.6875,204.42740173339826L248.90375,104.4773361206053L249.12,92.46550292968733L249.33625,123.28889770507796L249.55249999999998,76.82693786621077L249.76874999999998,181.53672332763654L249.985,111.5034820556639L250.20125000000002,138.70059509277326L250.4175,131.22161407470685L250.63375,94.27864379882796L250.85000000000002,152.07273406982404L251.06625,82.94651336669905L251.2825,84.75965423583968L251.49875,67.30794830322249L251.71499999999997,119.88948364257796L251.93125,159.32529754638654L252.1475,100.17135162353499L252.36375,85.43935699462874L252.57999999999998,82.4932281494139L252.79625000000001,116.03633422851546L253.01250000000002,98.13134307861311L253.22875,121.70262451171858L253.445,181.9900085449217L253.66125,106.97062988281233L253.8775,94.73192901611311L254.09375,86.11950988769514L254.31,102.21091003417952L254.52624999999998,150.71287841796857L254.7425,84.30636901855452L254.95875,76.37365264892561L255.175,108.78377075195296L255.39124999999999,92.23863525390608L255.6075,163.8581497192381L255.82375000000002,162.04500885009747L256.04,92.91878814697249L256.25625,120.11590118408186L256.47249999999997,81.81307525634749L256.68875,89.9722091674803L256.90500000000003,148.4464523315428L257.12125,106.06405944824202L257.3375,117.16977233886702L257.55375000000004,64.3613693237303L257.77,96.31820220947249L257.98625,151.84631652832013L258.2025,93.1452056884764L258.41875,113.09020538330061L258.635,88.83922119140608L258.85125,158.19230957031232L259.0675,180.85657043457013L259.28375,104.70420379638655L259.5,108.3304855346678L259.71625,87.93265075683577L259.9325,117.16977233886702L260.14875,72.06721801757796L260.365,155.6990158081053L260.58125,135.52759857177716L260.7975,108.3304855346678L261.01375,101.30433959960921L261.22999999999996,145.2734558105467L261.44625,75.01379699707014L261.6625,151.61944885253888L261.87875,131.9013168334959L262.09499999999997,228.22510070800763L262.31125,197.401705932617L262.52750000000003,115.5830490112303L262.74375,123.74218292236311L262.96,93.59849090576155L263.17625,140.51373596191388L263.39250000000004,124.64875335693343L263.60875,150.71287841796857L263.825,267.4344970703123L264.04125,101.0779220581053L264.2575,89.29250640869124L264.47375,175.8704330444334L264.69,121.24933929443343L264.90625,272.8739196777342L265.1225,128.04861755371076L265.33875,116.03633422851546L265.555,116.71648712158186L265.77125,237.06438751220685L265.9875,87.02608032226546L266.20375,185.1630050659178L266.42,147.53988189697247L266.63625,141.4203063964842L266.8525,117.39618988037093L267.06874999999997,143.46031494140607L267.285,150.93974609374982L267.50125,96.54506988525374L267.7175,94.27864379882796L267.93375,106.74376220703108L268.15000000000003,158.41872711181622L268.36625,147.99316711425763L268.5825,78.18679351806624L268.79875,147.76674957275372L269.015,91.10564727783186L269.23125,62.32181091308577L269.4475,150.71287841796857L269.66375,130.0881759643553L269.88,98.35821075439436L270.09625,135.074313354492L270.3125,109.01018829345686L270.52875,95.86491699218733L270.745,119.4361984252928L270.96125,66.17451019287093L271.1775,93.37207336425764L271.39375,153.2061721801756L271.61,201.25440521240216L271.82625,131.9013168334959L272.0425,75.4670822143553L272.25875,80.45321960449202L272.475,70.93423004150374L272.69124999999997,70.02765960693343L272.90749999999997,99.71806640624983L273.12375000000003,110.59691162109358L273.34,53.256106567382645L273.55625,88.15906829833968L273.7725,138.9274627685545L273.98875000000004,214.40012664794904L274.205,66.85466308593733L274.42125,216.89297027587872" style="fill: none;" fill="none"></path></g><g><path stroke="rgb(0, 153, 136)" stroke-width="2px" d="M23.7875,177.53232879638654L25.950000000000003,122.17166442871077L28.1125,104.7654220581053L30.275000000000002,92.51681823730452L32.4375,95.1762115478514L34.6,91.22763366699202L36.7625,82.1218673706053L38.925000000000004,84.37794036865218L41.087500000000006,75.99734039306624L43.25,72.77392883300764L45.4125,75.1110260009764L47.575,73.01565093994124L49.737500000000004,66.81100006103499L51.900000000000006,67.45559234619124L54.0625,73.98253936767561L56.225,65.36021728515608L58.3875,72.1293365478514L60.550000000000004,76.4002105712889L62.712500000000006,65.9242355346678L64.875,65.36021728515608L67.03750000000001,61.49221343994124L69.2,78.65673370361311L71.3625,67.37501831054671L73.525,69.38936920165999L75.6875,88.32651824951155L77.85000000000001,78.41501159667952L80.0125,72.29048461914046L82.17500000000001,76.64193267822249L84.33749999999999,63.99045867919905L86.5,72.20991058349593L88.6625,65.27964324951155L90.825,79.94591827392561L92.9875,63.668162536620926L95.15,66.40767974853499L97.3125,67.37501831054671L99.47500000000001,67.53616638183577L101.6375,71.64589233398421L103.80000000000001,74.54700775146468L105.96249999999999,66.89157409667952L108.125,82.1218673706053L110.2875,72.93507690429671L112.45,71.16244812011702L114.6125,65.44079132080061L116.775,67.53616638183577L118.9375,74.54700775146468L121.10000000000001,61.41163940429671L123.2625,81.31567687988264L125.42500000000001,63.42644042968733L127.5875,60.28360290527327L129.75,65.84366149902327L130.1825,80.75165863037093L130.61499999999998,72.61278076171858L131.04749999999999,77.60882110595686L131.48,77.6893951416014L131.9125,76.31963653564436L132.345,67.8584625244139L132.7775,66.97214813232405L133.21,82.20244140624983L133.6425,64.79619903564436L134.07500000000002,67.45559234619124L134.5075,61.49221343994124L134.94,70.8401519775389L135.3725,63.26529235839827L135.805,64.8767730712889L136.2375,66.00480957031233L136.67,66.97214813232405L137.1025,59.71958465576155L137.535,64.95734710693343L137.9675,70.11453552246077L138.4,64.95734710693343L138.83249999999998,66.1659576416014L139.265,72.93507690429671L139.6975,67.53616638183577L140.13,64.71562499999983L140.5625,67.77788848876936L140.99499999999998,71.8876144409178L141.4275,58.832820129394364L141.85999999999999,66.00480957031233L142.29250000000002,61.975657653808426L142.725,66.64985198974593L143.1575,68.66420288085921L143.59,65.60193939208968L144.0225,66.00480957031233L144.455,70.35625762939436L144.8875,63.507014465331864L145.32,60.92819519042952L145.7525,63.587588500976395L146.185,65.03792114257796L146.61749999999998,66.24653167724593L147.05,63.3458663940428L147.4825,66.08538360595686L147.91500000000002,61.975657653808426L148.3475,63.10414428710921L148.78,64.07103271484358L149.2125,63.74873657226546L149.64499999999998,71.48474426269514L150.07750000000001,84.37794036865218L150.51,72.69335479736311L150.9425,64.15160675048811L151.375,71.56531829833968L151.8075,62.70082397460921L152.24,65.03792114257796L152.6725,74.38585968017561L153.105,64.6350509643553L153.5375,62.459101867675614L153.97,65.03792114257796L154.40249999999997,69.1476470947264L154.835,392.77078552246076L155.26749999999998,79.94591827392561L155.70000000000002,64.8767730712889L156.1325,73.49909515380843L156.565,76.80308074951155L156.9975,75.1110260009764L157.43,59.961306762695145L157.8625,63.26529235839827L158.295,78.33443756103499L158.7275,71.96818847656233L159.16,70.03396148681624L159.5925,70.1951095581053L160.025,68.66420288085921L160.4575,66.81100006103499L160.89,59.80015869140608L161.32250000000002,66.73042602539046L161.755,58.349375915527176L162.18749999999997,80.83223266601546L162.62,71.8876144409178L163.05249999999998,64.95734710693343L163.485,62.942996215820145L163.9175,62.620249938964676L164.35000000000002,74.46643371582014L164.7825,53.03103942871077L165.215,69.87281341552718L165.6475,69.22822113037093L166.08,99.2053634643553L166.5125,64.15160675048811L166.945,56.57674713134749L167.3775,67.69731445312483L167.81,83.33047790527327L168.2425,66.81100006103499L168.67499999999998,66.73042602539046L169.10750000000002,66.48825378417952L169.54,58.268801879882645L169.97250000000003,69.1476470947264L170.405,58.75224609374983L170.83749999999998,75.35274810790999L171.27,63.99045867919905L171.7025,66.00480957031233L172.13500000000002,64.6350509643553L172.5675,63.99045867919905L173,71.08187408447249L173.4325,66.08538360595686L173.865,68.58362884521468L174.29749999999999,62.862422180175614L174.73,57.46306152343733L175.1625,58.02707977294905L175.595,62.620249938964676L176.0275,64.47390289306624L176.45999999999998,56.01272888183577L176.8925,63.42644042968733L177.325,63.10414428710921L177.75750000000002,69.79223937988264L178.19,65.76308746337874L178.6225,70.27568359374983L179.055,69.22822113037093L179.48749999999998,72.69335479736311L179.92000000000002,68.26133270263655L180.3525,68.34190673828108L180.785,73.4185211181639L181.2175,64.71562499999983L181.65,58.99441833496077L182.0825,59.316714477538895L182.51500000000001,72.20991058349593L182.9475,62.539675903320145L183.38,58.59109802246077L183.8125,70.11453552246077L184.24499999999998,68.74477691650374L184.6775,66.1659576416014L185.10999999999999,64.8767730712889L185.54250000000002,59.80015869140608L185.975,62.13680572509749L186.4075,59.880732727050614L186.84,58.188227844238114L187.2725,75.59447021484358L187.705,64.23218078613264L188.1375,57.46306152343733L188.57,63.42644042968733L189.0025,67.8584625244139L189.435,69.46994323730452L189.8675,58.349375915527176L190.3,71.96818847656233L190.7325,73.66024322509749L191.16500000000002,56.899043273925614L191.5975,74.46643371582014L192.02999999999997,62.13680572509749L192.4625,62.05623168945296L192.89499999999998,70.1951095581053L193.32750000000001,63.507014465331864L193.76,65.11849517822249L194.1925,60.44475097656233L194.625,64.15160675048811L195.0575,63.587588500976395L195.49,63.587588500976395L195.9225,61.41163940429671L196.355,56.73789520263655L196.7875,67.29444427490218L197.22,67.77788848876936L197.6525,56.01272888183577L198.085,60.92819519042952L198.51749999999998,69.55051727294905L198.95000000000002,60.3641769409178L199.3825,69.1476470947264L199.81500000000003,57.86593170165999L200.2475,68.9059249877928L200.67999999999998,58.02707977294905L201.1125,60.28360290527327L201.545,60.686473083495926L201.97750000000002,66.08538360595686L202.41,61.814509582519364L202.8425,54.96481628417952L203.275,68.82535095214827L203.7075,69.46994323730452L204.14,63.10414428710921L204.5725,60.44475097656233L205.005,67.53616638183577L205.4375,69.95338745117171L205.87,65.36021728515608L206.30249999999998,57.624209594726395L206.735,58.6716720581053L207.1675,68.82535095214827L207.60000000000002,62.942996215820145L208.0325,68.34190673828108L208.465,64.31275482177718L208.8975,88.16537017822249L209.32999999999998,58.268801879882645L209.76250000000002,64.95734710693343L210.195,60.605899047851395L210.6275,59.0749923706053L211.06,73.4185211181639L211.4925,60.525325012206864L211.92499999999998,66.56882781982405L212.35750000000002,65.60193939208968L212.79,73.09622497558577L213.2225,61.250491333007645L213.655,69.30879516601546L214.08749999999998,72.29048461914046L214.52,63.507014465331864L214.9525,61.57278747558577L215.38500000000002,66.08538360595686L215.8175,63.023570251464676L216.25,70.11453552246077L216.6825,62.539675903320145L217.115,60.3641769409178L217.5475,74.78872985839827L217.98,68.66420288085921L218.4125,62.37852783203108L218.845,63.507014465331864L219.2775,57.78535766601546L219.70999999999998,65.36021728515608L220.1425,75.75561828613264L220.575,1135.9924423217772L221.00750000000002,65.76308746337874L221.44,76.07791442871077L221.87249999999997,60.28360290527327L222.305,63.507014465331864L222.73749999999998,70.35625762939436L223.17000000000002,58.10765380859358L223.6025,60.525325012206864L224.035,60.76704711914046L224.4675,74.94987792968733L224.9,60.686473083495926L225.3325,63.90988464355452L225.765,57.78535766601546L226.1975,71.80704040527327L226.63,59.15556640624983L227.0625,58.913394165038895L227.495,63.668162536620926L227.9275,69.55051727294905L228.35999999999999,62.459101867675614L228.79250000000002,74.62758178710921L229.225,65.27964324951155L229.65750000000003,59.80015869140608L230.09,77.85054321289046L230.52249999999998,63.3458663940428L230.955,59.0749923706053L231.3875,59.71958465576155L231.82,69.71166534423811L232.2525,77.04480285644514L232.685,66.1659576416014L233.1175,64.71562499999983L233.55,68.34190673828108L233.9825,64.6350509643553L234.415,70.35625762939436L234.8475,55.126414489745926L235.28,64.79619903564436L235.7125,71.08187408447249L236.14499999999998,62.620249938964676L236.57750000000001,73.25737304687483L237.01,63.668162536620926L237.44250000000002,70.4368316650389L237.875,73.49909515380843L238.09125,66.73042602539046L238.3075,72.53220672607405L238.52375,70.4368316650389L238.74,88.08479614257796L238.95624999999998,71.08187408447249L239.17249999999999,64.15160675048811L239.38875000000002,58.349375915527176L239.605,74.54700775146468L239.82125,66.32710571289046L240.0375,61.975657653808426L240.25375000000003,96.54597015380843L240.47,66.00480957031233L240.68625,63.99045867919905L240.9025,86.15101928710921L241.11874999999998,77.52824707031233L241.335,62.70082397460921L241.55125,67.69731445312483L241.76749999999998,70.35625762939436L241.98375,69.46994323730452L242.20000000000002,79.3819000244139L242.41625000000002,73.74081726074202L242.6325,60.44475097656233L242.84875,75.35274810790999L243.065,59.961306762695145L243.28125,86.47331542968733L243.4975,66.1659576416014L243.71375,69.30879516601546L243.92999999999998,68.74477691650374L244.14625,72.53220672607405L244.3625,72.45163269042952L244.57874999999999,73.1767990112303L244.795,58.75224609374983L245.01125,75.67504425048811L245.22750000000002,68.98649902343733L245.44375,75.35274810790999L245.66,69.30879516601546L245.87625,83.24990386962874L246.0925,79.54304809570296L246.30875,82.04129333496077L246.525,64.95734710693343L246.74124999999998,72.69335479736311L246.9575,87.52077789306624L247.17375,68.01961059570296L247.39000000000001,53.59505767822249L247.60625,86.87618560790999L247.8225,77.6893951416014L248.03875000000002,69.79223937988264L248.255,95.74022979736311L248.47125,67.13329620361311L248.6875,65.36021728515608L248.90375,67.21387023925764L249.12,91.06648559570296L249.33625,72.53220672607405L249.55249999999998,65.52136535644514L249.76874999999998,67.29444427490218L249.985,63.42644042968733L250.20125000000002,59.880732727050614L250.4175,66.73042602539046L250.63375,68.82535095214827L250.85000000000002,64.79619903564436L251.06625,82.44416351318343L251.2825,66.48825378417952L251.49875,59.397288513183426L251.71499999999997,60.12245483398421L251.93125,91.79165191650374L252.1475,77.6893951416014L252.36375,64.8767730712889L252.57999999999998,63.74873657226546L252.79625000000001,62.37852783203108L253.01250000000002,69.95338745117171L253.22875,97.51330871582014L253.445,68.66420288085921L253.66125,70.75957794189436L253.8775,66.40767974853499L254.09375,66.81100006103499L254.31,59.880732727050614L254.52624999999998,75.83619232177718L254.7425,65.27964324951155L254.95875,70.67900390624983L255.175,85.74769897460921L255.39124999999999,71.00130004882796L255.6075,67.05272216796858L255.82375000000002,63.99045867919905L256.04,71.00130004882796L256.25625,90.42189331054671L256.47249999999997,73.57966918945296L256.68875,79.62362213134749L256.90500000000003,68.01961059570296L257.12125,72.1293365478514L257.3375,90.09959716796858L257.55375000000004,72.85450286865218L257.77,80.99338073730452L257.98625,74.70815582275374L258.2025,73.49909515380843L258.41875,66.1659576416014L258.635,68.74477691650374L258.85125,70.35625762939436L259.0675,67.69731445312483L259.28375,73.90196533203108L259.5,71.24302215576155L259.71625,80.6710845947264L259.9325,69.06707305908186L260.14875,78.01169128417952L260.365,72.45163269042952L260.58125,82.60531158447249L260.7975,78.41501159667952L261.01375,68.9059249877928L261.22999999999996,64.47390289306624L261.44625,91.71107788085921L261.6625,77.52824707031233L261.87875,77.93111724853499L262.09499999999997,79.86534423828108L262.31125,70.35625762939436L262.52750000000003,73.90196533203108L262.74375,69.95338745117171L262.96,85.66712493896468L263.17625,76.23906249999983L263.39250000000004,75.43332214355452L263.60875,85.82827301025374L263.825,71.64589233398421L264.04125,97.59388275146468L264.2575,63.18471832275374L264.47375,80.91280670165999L264.69,80.4293624877928L264.90625,99.93052978515608L265.1225,76.31963653564436L265.33875,82.68588562011702L265.555,75.99734039306624L265.77125,70.8401519775389L265.9875,70.1951095581053L266.20375,83.4110519409178L266.42,72.61278076171858L266.63625,71.24302215576155L266.8525,68.18075866699202L267.06874999999997,75.91676635742171L267.285,71.40417022705061L267.50125,78.65673370361311L267.7175,78.49558563232405L267.93375,78.09226531982405L268.15000000000003,72.29048461914046L268.36625,70.75957794189436L268.5825,68.58362884521468L268.79875,81.39625091552718L269.015,85.02253265380843L269.23125,71.40417022705061L269.4475,96.14309997558577L269.66375,65.84366149902327L269.88,76.88365478515608L270.09625,84.7002365112303L270.3125,76.64193267822249L270.52875,85.18368072509749L270.745,77.52824707031233L270.96125,76.4002105712889L271.1775,82.3635894775389L271.39375,73.66024322509749L271.61,76.23906249999983L271.82625,76.96422882080061L272.0425,72.1293365478514L272.25875,75.19160003662093L272.475,75.03045196533186L272.69124999999997,66.32710571289046L272.90749999999997,77.52824707031233L273.12375000000003,81.15452880859358L273.34,79.46247406005843L273.55625,93.2419845581053L273.7725,77.6893951416014L273.98875000000004,96.14309997558577L274.205,84.29736633300764L274.42125,80.50993652343733" style="fill: none;" fill="none"></path></g><g><path stroke="rgb(0, 119, 187)" stroke-width="2px" d="M22.9225,177.23028869628888L23.355,142.78016204833966L23.7875,107.19704742431624L24.22,106.51734466552718L24.6525,84.53278656005843L25.084999999999997,78.18679351806624L25.5175,77.73350830078108L25.950000000000003,81.35979003906233L26.3825,75.69349975585921L26.815,75.01379699707014L27.2475,61.868525695800614L27.68,60.508670043945145L28.1125,54.84237976074202L28.544999999999998,63.45479888915999L28.9775,71.3875152587889L29.41,50.53639526367171L29.8425,59.60209960937483L30.275000000000002,41.92352600097641L30.7075,69.80079193115218L31.14,66.40137786865218L31.572499999999998,50.53639526367171L32.005,48.72325439453107L32.4375,72.52050323486311L32.87,59.82851715087874L33.3025,49.629824829101395L33.735,43.05696411132794L34.1675,53.48252410888655L34.6,43.28338165283188L35.0325,64.3613693237303L35.464999999999996,53.48252410888655L35.8975,62.548228454589676L36.33,55.522532653808426L36.7625,40.110385131835756L37.195,62.775096130370926L37.6275,55.06924743652327L38.06,49.629824829101395L38.4925,45.096522521972474L38.925000000000004,50.30952758789046L39.3575,56.882388305663895L39.79,72.29408569335921L40.2225,40.110385131835756L40.655,45.77667541503888L41.087500000000006,40.56367034912094L41.52,29.0051223754881L41.9525,60.9619552612303L42.385,38.52411193847638L42.8175,32.17811889648419L43.25,38.97739715576154L43.6825,45.77667541503888L44.114999999999995,53.256106567382645L44.5475,32.63140411376938L44.980000000000004,37.61754150390607L45.4125,47.816683959960784L45.845,55.97581787109358L46.277499999999996,48.72325439453107L46.71,43.51024932861313L47.1425,54.615962219238114L47.575,33.084689331054506L48.00749999999999,41.24382324218732L48.44,41.697108459472474L48.8725,43.28338165283188L49.305,48.72325439453107L49.737500000000004,39.6570999145506L50.169999999999995,53.7093917846678L50.6025,35.57753295898419L51.035,44.18995208740216L51.4675,55.06924743652327L51.900000000000006,41.24382324218732L52.332499999999996,47.3633987426756L52.765,29.231539916992006L53.1975,46.00354309082013L53.63,65.26793975830061L54.0625,50.989680480956864L54.495,43.05696411132794L54.927499999999995,58.69552917480452L55.36,45.77667541503888L55.792500000000004,24.925555419921693L56.225,39.88396759033185L56.6575,43.05696411132794L57.089999999999996,52.34953613281233L57.5225,54.16267700195296L57.955,28.32496948242172L58.3875,33.53797454833966L58.82,34.444544982909974L59.2525,29.231539916992006L59.685,46.456828308105315L60.1175,38.29724426269513L60.550000000000004,43.28338165283188L60.982499999999995,31.951251220702943L61.415,50.53639526367171L61.847500000000004,68.44093627929671L62.28,36.2576858520506L62.712500000000006,16.53955383300763L63.144999999999996,44.8701049804686L63.5775,41.92352600097641L64.01,41.24382324218732L64.4425,38.29724426269513L64.875,42.60367889404279L65.30749999999999,46.456828308105315L65.74,48.949671936035L66.1725,34.89783020019513L66.605,35.351115417480315L67.03750000000001,46.68324584960919L67.47,43.736666870117006L67.9025,72.06721801757796L68.335,37.16425628662091L68.7675,49.17653961181624L69.2,50.53639526367171L69.6325,49.402957153320145L70.065,38.29724426269513L70.49749999999999,49.402957153320145L70.92999999999999,48.72325439453107L71.3625,50.989680480956864L71.795,50.08311004638655L72.2275,48.49638671874982L72.66,35.124247741699065L73.0925,53.7093917846678L73.525,39.88396759033185L73.95750000000001,46.00354309082013L74.39,36.03081817626935L74.82249999999999,65.26793975830061L75.255,38.52411193847638L75.6875,75.01379699707014L76.12,64.1349517822264L76.5525,22.885546874999847L76.985,60.05538482665999L77.4175,45.54980773925763L77.85000000000001,51.669383239745926L78.2825,52.34953613281233L78.715,39.20381469726547L79.1475,42.15039367675766L79.58,50.762812805175614L80.0125,48.949671936035L80.445,22.659129333495912L80.8775,53.256106567382645L81.31,33.31110687255841L81.7425,56.20223541259749L82.17500000000001,44.18995208740216L82.6075,28.77825469970685L83.04,33.31110687255841L83.4725,40.337252807617006L83.905,36.93738861083966L84.33749999999999,48.26996917724591L84.77,40.110385131835756L85.2025,41.92352600097641L85.635,59.60209960937483L86.06750000000001,45.54980773925763L86.5,41.24382324218732L86.9325,61.18837280273421L87.365,43.51024932861313L87.7975,51.669383239745926L88.22999999999999,44.64323730468735L88.6625,40.110385131835756L89.095,31.04468078613266L89.5275,60.281802368163895L89.96000000000001,49.402957153320145L90.3925,52.12266845703108L90.825,42.83009643554669L91.25750000000001,24.245402526855315L91.69,58.46866149902327L92.12249999999999,32.40453643798813L92.55499999999999,51.896250915527176L92.9875,28.098551940917787L93.42,38.75052947998029L93.8525,28.77825469970685L94.285,30.591395568847474L94.7175,50.30952758789046L95.15,21.525691223144378L95.58250000000001,39.6570999145506L96.01499999999999,32.17811889648419L96.44749999999999,32.63140411376938L96.88,28.098551940917787L97.3125,33.084689331054506L97.745,35.351115417480315L98.1775,42.37681121826154L98.61,36.2576858520506L99.0425,38.75052947998029L99.47500000000001,35.124247741699065L99.90750000000001,43.736666870117006L100.33999999999999,31.724833679199037L100.7725,38.29724426269513L101.205,29.0051223754881L101.6375,31.497966003417787L102.07,45.54980773925763L102.5025,50.53639526367171L102.935,45.77667541503888L103.3675,41.697108459472474L103.80000000000001,38.07082672119125L104.2325,46.229960632324065L104.66499999999999,42.15039367675766L105.0975,52.57595367431624L105.53,58.921946716308426L105.96249999999999,43.05696411132794L106.395,34.67096252441388L106.8275,64.1349517822264L107.26,37.39067382812482L107.69250000000001,48.04310150146466L108.125,43.51024932861313L108.5575,27.64526672363263L108.99,36.484103393554534L109.4225,29.231539916992006L109.85499999999999,51.896250915527176L110.2875,43.51024932861313L110.72,55.74895019531233L111.1525,26.058543395995912L111.58500000000001,42.83009643554669L112.0175,34.67096252441388L112.45,33.084689331054506L112.8825,40.110385131835756L113.315,47.589816284179534L113.7475,33.7643920898436L114.17999999999999,31.04468078613266L114.6125,31.04468078613266L115.045,38.97739715576154L115.4775,35.57753295898419L115.91,40.110385131835756L116.3425,56.20223541259749L116.775,35.80440063476544L117.2075,46.456828308105315L117.64,45.323390197753724L118.07249999999999,43.28338165283188L118.505,26.511828613281068L118.9375,56.20223541259749L119.37,29.68482513427719L119.8025,21.525691223144378L120.235,35.57753295898419L120.6675,25.1519729614256L121.10000000000001,42.15039367675766L121.5325,47.13653106689435L121.96499999999999,38.52411193847638L122.3975,47.3633987426756L122.83,30.818263244628724L123.2625,47.816683959960784L123.69500000000001,41.470240783691224L124.1275,34.89783020019513L124.56,41.92352600097641L124.9925,28.55183715820297L125.42500000000001,34.67096252441388L125.85749999999999,38.97739715576154L126.28999999999999,38.29724426269513L126.7225,29.0051223754881L127.155,50.989680480956864L127.5875,35.57753295898419L128.02,46.00354309082013L128.45250000000001,39.20381469726547L128.885,18.80597991943344L129.3175,68.2145187377928L129.75,30.364978027343568L129.96625,40.337252807617006L130.1825,50.08311004638655L130.39875,65.49480743408186L130.61499999999998,47.589816284179534L130.83125,45.323390197753724L131.04749999999999,44.64323730468735L131.26375000000002,40.79053802490219L131.48,46.229960632324065L131.69625000000002,41.697108459472474L131.9125,42.15039367675766L132.12875,44.8701049804686L132.345,31.951251220702943L132.56125,40.337252807617006L132.7775,35.57753295898419L132.99375,44.8701049804686L133.21,49.8562423706053L133.42625,23.112414550781097L133.6425,12.233119201659974L133.85875,25.605258178710784L134.07500000000002,29.231539916992006L134.29125,43.963534545898256L134.5075,39.88396759033185L134.72375,36.03081817626935L134.94,38.75052947998029L135.15625,49.8562423706053L135.3725,18.80597991943344L135.58875,51.44296569824202L135.805,20.16583557128891L136.02125,28.77825469970685L136.2375,26.965113830566253L136.45374999999999,17.44612426757797L136.67,25.37884063720685L136.88625,30.138110351562318L137.1025,31.27154846191391L137.31875,27.41839904785138L137.535,36.710971069335784L137.75125,41.92352600097641L137.9675,31.724833679199037L138.18375,27.64526672363263L138.4,36.484103393554534L138.61625,42.37681121826154L138.83249999999998,27.41839904785138L139.04875,49.17653961181624L139.265,61.18837280273421L139.48125000000002,50.30952758789046L139.6975,26.965113830566253L139.91375,32.857821655273256L140.13,40.56367034912094L140.34625,36.03081817626935L140.5625,38.75052947998029L140.77875,46.00354309082013L140.99499999999998,38.07082672119125L141.21125,20.16583557128891L141.4275,21.752558898925628L141.64374999999998,25.832125854492034L141.85999999999999,35.57753295898419L142.07625000000002,54.389094543456864L142.29250000000002,25.832125854492034L142.50875,29.91169281005844L142.725,29.91169281005844L142.94125,20.39270324707016L143.1575,16.53955383300763L143.37375,32.63140411376938L143.59,33.7643920898436L143.80624999999998,35.80440063476544L144.0225,27.191981506347503L144.23875,35.80440063476544L144.455,54.16267700195296L144.67125,51.669383239745926L144.8875,30.138110351562318L145.10375000000002,30.818263244628724L145.32,34.67096252441388L145.53625,49.17653961181624L145.7525,34.217677307128724L145.96875,38.97739715576154L146.185,24.698687744140443L146.40125,41.697108459472474L146.61749999999998,40.56367034912094L146.83375,38.52411193847638L147.05,47.13653106689435L147.26625,38.07082672119125L147.4825,33.084689331054506L147.69875,35.351115417480315L147.91500000000002,35.351115417480315L148.13125,46.91011352539044L148.3475,21.525691223144378L148.56375,26.738696289062318L148.78,22.885546874999847L148.99625,46.68324584960919L149.2125,20.39270324707016L149.42874999999998,49.629824829101395L149.64499999999998,23.79211730957013L149.86125,56.42910308837874L150.07750000000001,47.3633987426756L150.29375,47.816683959960784L150.51,44.64323730468735L150.72625000000002,45.54980773925763L150.9425,32.857821655273256L151.15875,43.51024932861313L151.375,45.323390197753724L151.59124999999997,38.29724426269513L151.8075,34.444544982909974L152.02375,31.951251220702943L152.24,40.56367034912094L152.45624999999998,51.44296569824202L152.6725,54.16267700195296L152.88875000000002,34.67096252441388L153.105,26.058543395995912L153.32125,43.28338165283188L153.5375,48.04310150146466L153.75375,23.112414550781097L153.97,17.67299194335922L154.18625,25.1519729614256L154.40249999999997,37.39067382812482L154.61875,1142.7341033935545L154.835,272.19421691894513L155.05125,35.80440063476544L155.26749999999998,52.80282135009749L155.48375,23.79211730957013L155.70000000000002,30.138110351562318L155.91625,21.978976440429506L156.1325,33.084689331054506L156.34875,27.191981506347503L156.565,57.78895874023421L156.78125,41.697108459472474L156.9975,55.97581787109358L157.21375,26.058543395995912L157.43,23.112414550781097L157.64625,35.124247741699065L157.8625,45.323390197753724L158.07874999999999,36.710971069335784L158.295,64.81465454101546L158.51125000000002,28.098551940917787L158.7275,40.56367034912094L158.94375,27.871684265136537L159.16,31.27154846191391L159.37625000000003,27.41839904785138L159.5925,38.29724426269513L159.80875,32.63140411376938L160.025,38.29724426269513L160.24124999999998,32.40453643798813L160.4575,31.27154846191391L160.67375,24.698687744140443L160.89,21.072406005859193L161.10625,44.64323730468735L161.32250000000002,36.710971069335784L161.53875,29.68482513427719L161.755,22.659129333495912L161.97125,33.31110687255841L162.18749999999997,42.60367889404279L162.40375,29.458407592773256L162.62,47.816683959960784L162.83625,43.28338165283188L163.05249999999998,25.37884063720685L163.26875,31.27154846191391L163.485,37.84395904541L163.70125,27.41839904785138L163.9175,24.472270202636565L164.13375,26.285411071777162L164.35000000000002,46.00354309082013L164.56625,18.579562377929506L164.7825,20.16583557128891L164.99875,19.486132812499818L165.215,35.351115417480315L165.43125,35.80440063476544L165.6475,43.963534545898256L165.86374999999998,27.41839904785138L166.08,33.99125976562485L166.29625000000001,16.313136291503753L166.5125,26.285411071777162L166.72875,47.589816284179534L166.945,22.659129333495912L167.16125000000002,35.351115417480315L167.3775,25.605258178710784L167.59375,37.61754150390607L167.81,55.295664978027176L168.02625,29.231539916992006L168.2425,30.818263244628724L168.45875,35.351115417480315L168.67499999999998,41.697108459472474L168.89124999999999,47.13653106689435L169.10750000000002,26.058543395995912L169.32375,29.0051223754881L169.54,32.40453643798813L169.75625,40.56367034912094L169.97250000000003,47.3633987426756L170.18875,40.79053802490219L170.405,21.752558898925628L170.62125,30.591395568847474L170.83749999999998,57.1088058471678L171.05375,26.058543395995912L171.27,22.432261657714662L171.48624999999998,47.816683959960784L171.7025,44.18995208740216L171.91875000000002,35.124247741699065L172.13500000000002,38.52411193847638L172.35125,43.51024932861313L172.5675,35.124247741699065L172.78375,34.67096252441388L173,44.8701049804686L173.21625,25.37884063720685L173.4325,46.229960632324065L173.64874999999998,38.29724426269513L173.865,35.124247741699065L174.08125,34.217677307128724L174.29749999999999,40.79053802490219L174.51375,27.191981506347503L174.73,30.138110351562318L174.94625000000002,17.44612426757797L175.1625,34.67096252441388L175.37875,62.548228454589676L175.595,32.17811889648419L175.81125,28.32496948242172L176.0275,41.24382324218732L176.24375,40.79053802490219L176.45999999999998,24.01898498535138L176.67625,33.99125976562485L176.8925,35.351115417480315L177.10875000000001,28.77825469970685L177.325,20.39270324707016L177.54125,38.07082672119125L177.75750000000002,45.096522521972474L177.97375,41.24382324218732L178.19,31.04468078613266L178.40625,34.217677307128724L178.6225,36.484103393554534L178.83875,36.484103393554534L179.055,40.110385131835756L179.27124999999998,30.818263244628724L179.48749999999998,50.30952758789046L179.70375,36.710971069335784L179.92000000000002,27.871684265136537L180.13625,36.2576858520506L180.3525,33.7643920898436L180.56875000000002,37.61754150390607L180.785,27.871684265136537L181.00125,33.53797454833966L181.2175,51.44296569824202L181.43374999999997,18.579562377929506L181.65,43.51024932861313L181.86625,31.951251220702943L182.0825,35.124247741699065L182.29874999999998,53.029238891601395L182.51500000000001,43.736666870117006L182.73125000000002,31.04468078613266L182.9475,19.712550354003724L183.16375,21.525691223144378L183.38,32.857821655273256L183.59625,24.01898498535138L183.8125,38.29724426269513L184.02875,41.24382324218732L184.24499999999998,38.07082672119125L184.46125,38.97739715576154L184.6775,32.63140411376938L184.89375,46.68324584960919L185.10999999999999,49.8562423706053L185.32625,41.24382324218732L185.54250000000002,24.472270202636565L185.75875,29.458407592773256L185.975,16.313136291503753L186.19125,34.217677307128724L186.4075,17.67299194335922L186.62375,47.3633987426756L186.84,34.444544982909974L187.05624999999998,28.098551940917787L187.2725,57.33567352294905L187.48875,46.68324584960919L187.705,21.299273681640443L187.92125,33.53797454833966L188.1375,28.77825469970685L188.35375000000002,26.965113830566253L188.57,24.925555419921693L188.78625,22.205844116210756L189.0025,36.93738861083966L189.21875000000003,31.497966003417787L189.435,33.99125976562485L189.65125,30.818263244628724L189.8675,23.79211730957013L190.08374999999998,35.351115417480315L190.3,33.53797454833966L190.51625,32.63140411376938L190.7325,47.589816284179534L190.94875,33.99125976562485L191.16500000000002,36.03081817626935L191.38125,42.15039367675766L191.5975,62.32181091308577L191.81375,49.629824829101395L192.02999999999997,38.29724426269513L192.24625,24.245402526855315L192.4625,39.6570999145506L192.67875,24.925555419921693L192.89499999999998,46.00354309082013L193.11125,29.91169281005844L193.32750000000001,21.072406005859193L193.54375,54.615962219238114L193.76,30.364978027343568L193.97625,47.589816284179534L194.1925,35.57753295898419L194.40875,26.511828613281068L194.625,35.351115417480315L194.84125,40.56367034912094L195.0575,30.818263244628724L195.27375,41.92352600097641L195.49,48.49638671874982L195.70624999999998,37.84395904541L195.9225,32.63140411376938L196.13875000000002,41.92352600097641L196.355,25.605258178710784L196.57125,32.40453643798813L196.7875,35.80440063476544L197.00375000000003,36.93738861083966L197.22,28.77825469970685L197.43625,24.01898498535138L197.6525,12.91327209472638L197.86875,27.871684265136537L198.085,33.31110687255841L198.30125,32.63140411376938L198.51749999999998,48.26996917724591L198.73375,41.470240783691224L198.95000000000002,19.939418029784974L199.16625,51.669383239745926L199.3825,35.57753295898419L199.59875,34.217677307128724L199.81500000000003,22.205844116210756L200.03125,46.91011352539044L200.2475,27.191981506347503L200.46375,44.18995208740216L200.67999999999998,25.832125854492034L200.89625,19.486132812499818L201.1125,19.259265136718568L201.32874999999999,33.31110687255841L201.545,32.63140411376938L201.76125000000002,45.54980773925763L201.97750000000002,35.351115417480315L202.19375,30.364978027343568L202.41,32.857821655273256L202.62625,38.52411193847638L202.8425,20.845988464355287L203.05875,12.91327209472638L203.275,31.27154846191391L203.49124999999998,53.93580932617171L203.7075,38.07082672119125L203.92375,26.285411071777162L204.14,23.79211730957013L204.35625,9.966693115234193L204.5725,24.01898498535138L204.78875000000002,35.80440063476544L205.005,46.456828308105315L205.22125,21.072406005859193L205.4375,40.79053802490219L205.65375,39.20381469726547L205.87,16.53955383300763L206.08625,51.44296569824202L206.30249999999998,40.79053802490219L206.51875,21.752558898925628L206.735,22.659129333495912L206.95125,29.458407592773256L207.1675,30.364978027343568L207.38375,53.256106567382645L207.60000000000002,38.52411193847638L207.81625,34.217677307128724L208.0325,34.67096252441388L208.24875,24.01898498535138L208.465,25.1519729614256L208.68125,26.511828613281068L208.8975,63.45479888915999L209.11374999999998,42.83009643554669L209.32999999999998,32.63140411376938L209.54625000000001,57.33567352294905L209.76250000000002,29.68482513427719L209.97875,26.058543395995912L210.195,28.32496948242172L210.41125000000002,56.42910308837874L210.6275,14.726412963867034L210.84375,37.84395904541L211.06,55.522532653808426L211.27624999999998,43.51024932861313L211.4925,25.1519729614256L211.70875,21.299273681640443L211.92499999999998,45.77667541503888L212.14124999999999,30.364978027343568L212.35750000000002,28.55183715820297L212.57375000000002,46.456828308105315L212.79,51.896250915527176L213.00625,22.432261657714662L213.2225,16.992839050292787L213.43875,34.67096252441388L213.655,34.444544982909974L213.87125,12.006701660156097L214.08749999999998,37.84395904541L214.30375,17.67299194335922L214.52,39.20381469726547L214.73625,27.191981506347503L214.9525,12.686854553222474L215.16875,25.37884063720685L215.38500000000002,26.738696289062318L215.60125,30.818263244628724L215.8175,28.32496948242172L216.03375,43.51024932861313L216.25,38.97739715576154L216.46625,26.965113830566253L216.6825,19.712550354003724L216.89874999999998,45.096522521972474L217.115,31.724833679199037L217.33125,33.084689331054506L217.5475,47.816683959960784L217.76375,29.458407592773256L217.98,39.20381469726547L218.19625000000002,15.406565856933412L218.4125,34.67096252441388L218.62875,59.60209960937483L218.845,26.965113830566253L219.06125,34.89783020019513L219.2775,22.205844116210756L219.49375,34.217677307128724L219.70999999999998,38.97739715576154L219.92624999999998,36.2576858520506L220.1425,62.775096130370926L220.35875000000001,29.68482513427719L220.575,1148.1735260009764L220.79125,233.4381057739256L221.00750000000002,51.44296569824202L221.22375,16.313136291503753L221.44,60.9619552612303L221.65625,45.096522521972474L221.87249999999997,36.93738861083966L222.08875,41.01695556640607L222.305,43.28338165283188L222.52125,46.68324584960919L222.73749999999998,50.30952758789046L222.95375,45.54980773925763L223.17000000000002,16.53955383300763L223.38625,52.57595367431624L223.6025,34.444544982909974L223.81875,31.497966003417787L224.035,25.1519729614256L224.25125,39.20381469726547L224.4675,53.48252410888655L224.68374999999997,31.04468078613266L224.9,20.16583557128891L225.11625,40.337252807617006L225.3325,8.606837463378724L225.54874999999998,27.191981506347503L225.765,27.191981506347503L225.98125000000002,27.41839904785138L226.1975,48.72325439453107L226.41375,38.07082672119125L226.63,29.91169281005844L226.84625,38.52411193847638L227.0625,25.37884063720685L227.27875,42.60367889404279L227.495,33.31110687255841L227.71125,19.486132812499818L227.9275,27.871684265136537L228.14375,31.497966003417787L228.35999999999999,28.098551940917787L228.57625,35.80440063476544L228.79250000000002,51.669383239745926L229.00875,34.444544982909974L229.225,41.24382324218732L229.44125,31.951251220702943L229.65750000000003,31.724833679199037L229.87375,35.351115417480315L230.09,50.30952758789046L230.30625,29.231539916992006L230.52249999999998,31.27154846191391L230.73875,27.191981506347503L230.955,45.096522521972474L231.17125,34.217677307128724L231.3875,25.37884063720685L231.60375000000002,33.99125976562485L231.82,44.41681976318341L232.03625,37.61754150390607L232.2525,58.015376281738114L232.46874999999997,40.337252807617006L232.685,36.93738861083966L232.90125,29.68482513427719L233.1175,32.40453643798813L233.33374999999998,36.93738861083966L233.55,46.456828308105315L233.76625,47.3633987426756L233.9825,26.738696289062318L234.19875,23.565699768066224L234.415,33.99125976562485L234.63125000000002,76.14678497314436L234.8475,23.565699768066224L235.06375,20.845988464355287L235.28,27.871684265136537L235.49625,65.72122497558577L235.7125,42.83009643554669L235.92875,20.845988464355287L236.14499999999998,30.364978027343568L236.36125,68.66780395507796L236.57750000000001,30.364978027343568L236.79375,32.857821655273256L237.01,17.8994094848631L237.22625,25.832125854492034L237.44250000000002,40.56367034912094L237.65875,20.39270324707016L237.875,43.28338165283188L238.09125,38.29724426269513L238.3075,29.68482513427719L238.52375,40.110385131835756L238.74,56.42910308837874L238.95624999999998,31.724833679199037L239.17249999999999,33.7643920898436L239.38875000000002,23.112414550781097L239.605,43.51024932861313L239.82125,15.859851074218568L240.0375,30.818263244628724L240.25375000000003,62.548228454589676L240.47,19.03284759521469L240.68625,29.0051223754881L240.9025,57.56209106445296L241.11874999999998,40.79053802490219L241.335,32.40453643798813L241.55125,50.989680480956864L241.76749999999998,39.6570999145506L241.98375,28.77825469970685L242.20000000000002,54.615962219238114L242.41625000000002,34.89783020019513L242.6325,9.286990356445159L242.84875,42.15039367675766L243.065,36.710971069335784L243.28125,57.1088058471678L243.4975,37.84395904541L243.71375,30.818263244628724L243.92999999999998,34.217677307128724L244.14625,42.37681121826154L244.3625,41.470240783691224L244.57874999999999,38.97739715576154L244.795,25.832125854492034L245.01125,45.77667541503888L245.22750000000002,34.67096252441388L245.44375,35.57753295898419L245.66,34.444544982909974L245.87625,55.74895019531233L246.0925,52.57595367431624L246.30875,48.26996917724591L246.525,47.589816284179534L246.74124999999998,45.77667541503888L246.9575,59.37523193359358L247.17375,34.89783020019513L247.39000000000001,20.16583557128891L247.60625,78.6400787353514L247.8225,37.61754150390607L248.03875000000002,52.34953613281233L248.255,72.52050323486311L248.47125,33.53797454833966L248.6875,24.925555419921693L248.90375,21.072406005859193L249.12,72.29408569335921L249.33625,51.44296569824202L249.55249999999998,26.285411071777162L249.76874999999998,34.89783020019513L249.985,38.07082672119125L250.20125000000002,22.432261657714662L250.4175,43.963534545898256L250.63375,37.16425628662091L250.85000000000002,36.710971069335784L251.06625,60.508670043945145L251.2825,37.16425628662091L251.49875,33.53797454833966L251.71499999999997,17.219706726074037L251.93125,58.015376281738114L252.1475,63.908084106445145L252.36375,34.67096252441388L252.57999999999998,24.01898498535138L252.79625000000001,25.1519729614256L253.01250000000002,37.39067382812482L253.22875,79.77351684570296L253.445,48.949671936035L253.66125,39.43068237304672L253.8775,30.138110351562318L254.09375,18.80597991943344L254.31,26.511828613281068L254.52624999999998,57.78895874023421L254.7425,27.191981506347503L254.95875,52.80282135009749L255.175,52.80282135009749L255.39124999999999,47.3633987426756L255.6075,31.951251220702943L255.82375000000002,23.112414550781097L256.04,39.43068237304672L256.25625,68.44093627929671L256.47249999999997,37.16425628662091L256.68875,51.669383239745926L256.90500000000003,21.299273681640443L257.12125,30.591395568847474L257.3375,47.13653106689435L257.55375000000004,50.30952758789046L257.77,51.21609802246077L257.98625,47.3633987426756L258.2025,36.93738861083966L258.41875,32.63140411376938L258.635,23.565699768066224L258.85125,26.511828613281068L259.0675,19.712550354003724L259.28375,32.63140411376938L259.5,26.738696289062318L259.71625,47.816683959960784L259.9325,41.01695556640607L260.14875,54.389094543456864L260.365,33.53797454833966L260.58125,43.736666870117006L260.7975,45.323390197753724L261.01375,30.591395568847474L261.22999999999996,18.80597991943344L261.44625,41.92352600097641L261.6625,29.0051223754881L261.87875,30.591395568847474L262.09499999999997,43.51024932861313L262.31125,33.084689331054506L262.52750000000003,39.20381469726547L262.74375,40.110385131835756L262.96,65.49480743408186L263.17625,35.124247741699065L263.39250000000004,35.351115417480315L263.60875,37.84395904541L263.825,13.593424987792815L264.04125,64.3613693237303L264.2575,25.605258178710784L264.47375,33.53797454833966L264.69,45.77667541503888L264.90625,57.33567352294905L265.1225,34.67096252441388L265.33875,39.43068237304672L265.555,28.55183715820297L265.77125,48.949671936035L265.9875,31.497966003417787L266.20375,50.08311004638655L266.42,24.472270202636565L266.63625,42.37681121826154L266.8525,19.259265136718568L267.06874999999997,50.08311004638655L267.285,24.245402526855315L267.50125,65.49480743408186L267.7175,44.18995208740216L267.93375,43.51024932861313L268.15000000000003,29.231539916992006L268.36625,42.15039367675766L268.5825,21.072406005859193L268.79875,31.04468078613266L269.015,44.64323730468735L269.23125,28.32496948242172L269.4475,59.60209960937483L269.66375,21.752558898925628L269.88,34.67096252441388L270.09625,44.8701049804686L270.3125,38.52411193847638L270.52875,32.63140411376938L270.745,41.697108459472474L270.96125,24.472270202636565L271.1775,24.698687744140443L271.39375,35.351115417480315L271.61,33.7643920898436L271.82625,32.17811889648419L272.0425,34.444544982909974L272.25875,41.24382324218732L272.475,29.91169281005844L272.69124999999997,28.55183715820297L272.90749999999997,29.68482513427719L273.12375000000003,44.41681976318341L273.34,31.724833679199037L273.55625,43.05696411132794L273.7725,40.337252807617006L273.98875000000004,57.33567352294905L274.205,50.989680480956864L274.42125,37.84395904541" style="fill: none;" fill="none"></path></g></g></g></g></g></g><g transform="translate(48, 177)" clip-path="url(#clip_1)"><clipPath id="clip_1"><rect width="281" height="23"></rect></clipPath><g><g><line x1="0" y1="0" x2="0" y2="5" style="visibility: inherit;" fill="rgb(0, 0, 0)" stroke="rgb(204, 204, 204)" stroke-width="1px"></line><line x1="21.625" y1="0" x2="21.625" y2="5" style="visibility: inherit;" fill="rgb(0, 0, 0)" stroke="rgb(204, 204, 204)" stroke-width="1px"></line><line x1="43.25" y1="0" x2="43.25" y2="5" style="visibility: inherit;" fill="rgb(0, 0, 0)" stroke="rgb(204, 204, 204)" stroke-width="1px"></line><line x1="64.875" y1="0" x2="64.875" y2="5" style="visibility: inherit;" fill="rgb(0, 0, 0)" stroke="rgb(204, 204, 204)" stroke-width="1px"></line><line x1="86.5" y1="0" x2="86.5" y2="5" style="visibility: inherit;" fill="rgb(0, 0, 0)" stroke="rgb(204, 204, 204)" stroke-width="1px"></line><line x1="108.125" y1="0" x2="108.125" y2="5" style="visibility: inherit;" fill="rgb(0, 0, 0)" stroke="rgb(204, 204, 204)" stroke-width="1px"></line><line x1="129.75" y1="0" x2="129.75" y2="5" style="visibility: inherit;" fill="rgb(0, 0, 0)" stroke="rgb(204, 204, 204)" stroke-width="1px"></line><line x1="151.375" y1="0" x2="151.375" y2="5" style="visibility: inherit;" fill="rgb(0, 0, 0)" stroke="rgb(204, 204, 204)" stroke-width="1px"></line><line x1="173" y1="0" x2="173" y2="5" style="visibility: inherit;" fill="rgb(0, 0, 0)" stroke="rgb(204, 204, 204)" stroke-width="1px"></line><line x1="194.625" y1="0" x2="194.625" y2="5" style="visibility: inherit;" fill="rgb(0, 0, 0)" stroke="rgb(204, 204, 204)" stroke-width="1px"></line><line x1="216.25" y1="0" x2="216.25" y2="5" style="visibility: inherit;" fill="rgb(0, 0, 0)" stroke="rgb(204, 204, 204)" stroke-width="1px"></line><line x1="237.875" y1="0" x2="237.875" y2="5" style="visibility: inherit;" fill="rgb(0, 0, 0)" stroke="rgb(204, 204, 204)" stroke-width="1px"></line><line x1="259.5" y1="0" x2="259.5" y2="5" style="visibility: inherit;" fill="rgb(0, 0, 0)" stroke="rgb(204, 204, 204)" stroke-width="1px"></line><line x1="281.125" y1="0" x2="281.125" y2="5" style="visibility: inherit;" fill="rgb(0, 0, 0)" stroke="rgb(204, 204, 204)" stroke-width="1px"></line></g><g transform="translate(0, 8)"><text x="0" y="0" dx="0em" dy="0.95em" style="text-anchor: middle; visibility: hidden; font-family: &quot;Helvetica Neue&quot;, sans-serif; font-size: 12px; font-weight: 200;" fill="rgb(50, 49, 63)" stroke="none" stroke-width="1px">-100</text><text x="21.625" y="0" dx="0em" dy="0.95em" style="text-anchor: middle; visibility: inherit; font-family: &quot;Helvetica Neue&quot;, sans-serif; font-size: 12px; font-weight: 200;" fill="rgb(50, 49, 63)" stroke="none" stroke-width="1px">0</text><text x="43.25" y="0" dx="0em" dy="0.95em" style="text-anchor: middle; visibility: hidden; font-family: &quot;Helvetica Neue&quot;, sans-serif; font-size: 12px; font-weight: 200;" fill="rgb(50, 49, 63)" stroke="none" stroke-width="1px">100</text><text x="64.875" y="0" dx="0em" dy="0.95em" style="text-anchor: middle; visibility: inherit; font-family: &quot;Helvetica Neue&quot;, sans-serif; font-size: 12px; font-weight: 200;" fill="rgb(50, 49, 63)" stroke="none" stroke-width="1px">200</text><text x="86.5" y="0" dx="0em" dy="0.95em" style="text-anchor: middle; visibility: hidden; font-family: &quot;Helvetica Neue&quot;, sans-serif; font-size: 12px; font-weight: 200;" fill="rgb(50, 49, 63)" stroke="none" stroke-width="1px">300</text><text x="108.125" y="0" dx="0em" dy="0.95em" style="text-anchor: middle; visibility: inherit; font-family: &quot;Helvetica Neue&quot;, sans-serif; font-size: 12px; font-weight: 200;" fill="rgb(50, 49, 63)" stroke="none" stroke-width="1px">400</text><text x="129.75" y="0" dx="0em" dy="0.95em" style="text-anchor: middle; visibility: hidden; font-family: &quot;Helvetica Neue&quot;, sans-serif; font-size: 12px; font-weight: 200;" fill="rgb(50, 49, 63)" stroke="none" stroke-width="1px">500</text><text x="151.375" y="0" dx="0em" dy="0.95em" style="text-anchor: middle; visibility: inherit; font-family: &quot;Helvetica Neue&quot;, sans-serif; font-size: 12px; font-weight: 200;" fill="rgb(50, 49, 63)" stroke="none" stroke-width="1px">600</text><text x="173" y="0" dx="0em" dy="0.95em" style="text-anchor: middle; visibility: hidden; font-family: &quot;Helvetica Neue&quot;, sans-serif; font-size: 12px; font-weight: 200;" fill="rgb(50, 49, 63)" stroke="none" stroke-width="1px">700</text><text x="194.625" y="0" dx="0em" dy="0.95em" style="text-anchor: middle; visibility: inherit; font-family: &quot;Helvetica Neue&quot;, sans-serif; font-size: 12px; font-weight: 200;" fill="rgb(50, 49, 63)" stroke="none" stroke-width="1px">800</text><text x="216.25" y="0" dx="0em" dy="0.95em" style="text-anchor: middle; visibility: hidden; font-family: &quot;Helvetica Neue&quot;, sans-serif; font-size: 12px; font-weight: 200;" fill="rgb(50, 49, 63)" stroke="none" stroke-width="1px">900</text><text x="237.875" y="0" dx="0em" dy="0.95em" style="text-anchor: middle; visibility: inherit; font-family: &quot;Helvetica Neue&quot;, sans-serif; font-size: 12px; font-weight: 200;" fill="rgb(50, 49, 63)" stroke="none" stroke-width="1px">1k</text><text x="259.5" y="0" dx="0em" dy="0.95em" style="text-anchor: middle; visibility: hidden; font-family: &quot;Helvetica Neue&quot;, sans-serif; font-size: 12px; font-weight: 200;" fill="rgb(50, 49, 63)" stroke="none" stroke-width="1px">1.1k</text><text x="281.125" y="0" dx="0em" dy="0.95em" style="text-anchor: middle; visibility: hidden; font-family: &quot;Helvetica Neue&quot;, sans-serif; font-size: 12px; font-weight: 200;" fill="rgb(50, 49, 63)" stroke="none" stroke-width="1px">1.2k</text></g><line x1="0" y1="0" x2="281.125" y2="0" fill="rgb(0, 0, 0)" stroke="rgb(204, 204, 204)" stroke-width="1px"></line></g></g></g></g></svg>