<svg viewBox="0 0 330 200" xmlns="http://www.w3.org/2000/svg"><g><g><g><g><g><line x1="48.875" y1="177" x2="43.875" y2="177" style="visibility: inherit;" fill="rgb(0, 0, 0)" stroke="rgb(204, 204, 204)" stroke-width="1px"></line><line x1="48.875" y1="159.300000000001" x2="43.875" y2="159.300000000001" style="visibility: inherit;" fill="rgb(0, 0, 0)" stroke="rgb(204, 204, 204)" stroke-width="1px"></line><line x1="48.875" y1="141.5999999999995" x2="43.875" y2="141.5999999999995" style="visibility: inherit;" fill="rgb(0, 0, 0)" stroke="rgb(204, 204, 204)" stroke-width="1px"></line><line x1="48.875" y1="123.9000000000005" x2="43.875" y2="123.9000000000005" style="visibility: inherit;" fill="rgb(0, 0, 0)" stroke="rgb(204, 204, 204)" stroke-width="1px"></line><line x1="48.875" y1="106.20000000000151" x2="43.875" y2="106.20000000000151" style="visibility: inherit;" fill="rgb(0, 0, 0)" stroke="rgb(204, 204, 204)" stroke-width="1px"></line><line x1="48.875" y1="88.5" x2="43.875" y2="88.5" style="visibility: inherit;" fill="rgb(0, 0, 0)" stroke="rgb(204, 204, 204)" stroke-width="1px"></line><line x1="48.875" y1="70.800000000001" x2="43.875" y2="70.800000000001" style="visibility: inherit;" fill="rgb(0, 0, 0)" stroke="rgb(204, 204, 204)" stroke-width="1px"></line><line x1="48.875" y1="53.0999999999995" x2="43.875" y2="53.0999999999995" style="visibility: inherit;" fill="rgb(0, 0, 0)" stroke="rgb(204, 204, 204)" stroke-width="1px"></line><line x1="48.875" y1="35.40000000000049" x2="43.875" y2="35.40000000000049" style="visibility: inherit;" fill="rgb(0, 0, 0)" stroke="rgb(204, 204, 204)" stroke-width="1px"></line><line x1="48.875" y1="17.700000000001523" x2="43.875" y2="17.700000000001523" style="visibility: inherit;" fill="rgb(0, 0, 0)" stroke="rgb(204, 204, 204)" stroke-width="1px"></line><line x1="48.875" y1="0" x2="43.875" y2="0" style="visibility: inherit;" fill="rgb(0, 0, 0)" stroke="rgb(204, 204, 204)" stroke-width="1px"></line></g><g transform="translate(38.875, 0)"><text x="0" y="177" dx="0em" dy="0.3em" style="text-anchor: end; visibility: hidden; font-family: &quot;Helvetica Neue&quot;, sans-serif; font-size: 12px; font-weight: 200;" fill="rgb(50, 49, 63)" stroke="none" stroke-width="1px">99.2</text><text x="0" y="159.300000000001" dx="0em" dy="0.3em" style="text-anchor: end; visibility: inherit; font-family: &quot;Helvetica Neue&quot;, sans-serif; font-size: 12px; font-weight: 200;" fill="rgb(50, 49, 63)" stroke="none" stroke-width="1px">99.3</text><text x="0" y="141.5999999999995" dx="0em" dy="0.3em" style="text-anchor: end; visibility: hidden; font-family: &quot;Helvetica Neue&quot;, sans-serif; font-size: 12px; font-weight: 200;" fill="rgb(50, 49, 63)" stroke="none" stroke-width="1px">99.4</text><text x="0" y="123.9000000000005" dx="0em" dy="0.3em" style="text-anchor: end; visibility: inherit; font-family: &quot;Helvetica Neue&quot;, sans-serif; font-size: 12px; font-weight: 200;" fill="rgb(50, 49, 63)" stroke="none" stroke-width="1px">99.5</text><text x="0" y="106.20000000000151" dx="0em" dy="0.3em" style="text-anchor: end; visibility: hidden; font-family: &quot;Helvetica Neue&quot;, sans-serif; font-size: 12px; font-weight: 200;" fill="rgb(50, 49, 63)" stroke="none" stroke-width="1px">99.6</text><text x="0" y="88.5" dx="0em" dy="0.3em" style="text-anchor: end; visibility: inherit; font-family: &quot;Helvetica Neue&quot;, sans-serif; font-size: 12px; font-weight: 200;" fill="rgb(50, 49, 63)" stroke="none" stroke-width="1px">99.7</text><text x="0" y="70.800000000001" dx="0em" dy="0.3em" style="text-anchor: end; visibility: hidden; font-family: &quot;Helvetica Neue&quot;, sans-serif; font-size: 12px; font-weight: 200;" fill="rgb(50, 49, 63)" stroke="none" stroke-width="1px">99.8</text><text x="0" y="53.0999999999995" dx="0em" dy="0.3em" style="text-anchor: end; visibility: inherit; font-family: &quot;Helvetica Neue&quot;, sans-serif; font-size: 12px; font-weight: 200;" fill="rgb(50, 49, 63)" stroke="none" stroke-width="1px">99.9</text><text x="0" y="35.40000000000049" dx="0em" dy="0.3em" style="text-anchor: end; visibility: hidden; font-family: &quot;Helvetica Neue&quot;, sans-serif; font-size: 12px; font-weight: 200;" fill="rgb(50, 49, 63)" stroke="none" stroke-width="1px">100</text><text x="0" y="17.700000000001523" dx="0em" dy="0.3em" style="text-anchor: end; visibility: inherit; font-family: &quot;Helvetica Neue&quot;, sans-serif; font-size: 12px; font-weight: 200;" fill="rgb(50, 49, 63)" stroke="none" stroke-width="1px">100</text><text x="0" y="0" dx="0em" dy="0.3em" style="text-anchor: end; visibility: hidden; font-family: &quot;Helvetica Neue&quot;, sans-serif; font-size: 12px; font-weight: 200;" fill="rgb(50, 49, 63)" stroke="none" stroke-width="1px">100</text></g><line x1="48.875" y1="0" x2="48.875" y2="177" fill="rgb(0, 0, 0)" stroke="rgb(204, 204, 204)" stroke-width="1px"></line></g></g><g transform="translate(48, 0)" clip-path="url(#clip_0)"><clipPath id="clip_0"><rect width="281" height="177"></rect></clipPath><g><g><g><line x1="0" y1="0" x2="0" y2="177" fill="rgb(0, 0, 0)" stroke="rgb(60, 60, 60)" stroke-width="1px" opacity="0.25"></line><line x1="21.625" y1="0" x2="21.625" y2="177" fill="rgb(0, 0, 0)" stroke="rgb(60, 60, 60)" stroke-width="1px" opacity="0.25"></line><line x1="43.25" y1="0" x2="43.25" y2="177" fill="rgb(0, 0, 0)" stroke="rgb(60, 60, 60)" stroke-width="1px" opacity="0.25"></line><line x1="64.875" y1="0" x2="64.875" y2="177" fill="rgb(0, 0, 0)" stroke="rgb(60, 60, 60)" stroke-width="1px" opacity="0.25"></line><line x1="86.5" y1="0" x2="86.5" y2="177" fill="rgb(0, 0, 0)" stroke="rgb(60, 60, 60)" stroke-width="1px" opacity="0.25"></line><line x1="108.125" y1="0" x2="108.125" y2="177" fill="rgb(0, 0, 0)" stroke="rgb(60, 60, 60)" stroke-width="1px" opacity="0.25"></line><line x1="129.75" y1="0" x2="129.75" y2="177" fill="rgb(0, 0, 0)" stroke="rgb(60, 60, 60)" stroke-width="1px" opacity="0.25"></line><line x1="151.375" y1="0" x2="151.375" y2="177" fill="rgb(0, 0, 0)" stroke="rgb(60, 60, 60)" stroke-width="1px" opacity="0.25"></line><line x1="173" y1="0" x2="173" y2="177" fill="rgb(0, 0, 0)" stroke="rgb(60, 60, 60)" stroke-width="1px" opacity="0.25"></line><line x1="194.625" y1="0" x2="194.625" y2="177" fill="rgb(0, 0, 0)" stroke="rgb(60, 60, 60)" stroke-width="1px" opacity="0.25"></line><line x1="216.25" y1="0" x2="216.25" y2="177" fill="rgb(0, 0, 0)" stroke="rgb(60, 60, 60)" stroke-width="1px" opacity="0.25"></line><line x1="237.875" y1="0" x2="237.875" y2="177" fill="rgb(0, 0, 0)" stroke="rgb(60, 60, 60)" stroke-width="1px" opacity="0.25"></line><line x1="259.5" y1="0" x2="259.5" y2="177" fill="rgb(0, 0, 0)" stroke="rgb(60, 60, 60)" stroke-width="1px" opacity="0.25"></line><line x1="281.125" y1="0" x2="281.125" y2="177" fill="rgb(0, 0, 0)" stroke="rgb(60, 60, 60)" stroke-width="1px" opacity="0.25"></line></g><g><line x1="0" y1="177" x2="281.125" y2="177" fill="rgb(0, 0, 0)" stroke="rgb(60, 60, 60)" stroke-width="1px" opacity="0.25"></line><line x1="0" y1="159.300000000001" x2="281.125" y2="159.300000000001" fill="rgb(0, 0, 0)" stroke="rgb(60, 60, 60)" stroke-width="1px" opacity="0.25"></line><line x1="0" y1="141.5999999999995" x2="281.125" y2="141.5999999999995" fill="rgb(0, 0, 0)" stroke="rgb(60, 60, 60)" stroke-width="1px" opacity="0.25"></line><line x1="0" y1="123.9000000000005" x2="281.125" y2="123.9000000000005" fill="rgb(0, 0, 0)" stroke="rgb(60, 60, 60)" stroke-width="1px" opacity="0.25"></line><line x1="0" y1="106.20000000000151" x2="281.125" y2="106.20000000000151" fill="rgb(0, 0, 0)" stroke="rgb(60, 60, 60)" stroke-width="1px" opacity="0.25"></line><line x1="0" y1="88.5" x2="281.125" y2="88.5" fill="rgb(0, 0, 0)" stroke="rgb(60, 60, 60)" stroke-width="1px" opacity="0.25"></line><line x1="0" y1="70.800000000001" x2="281.125" y2="70.800000000001" fill="rgb(0, 0, 0)" stroke="rgb(60, 60, 60)" stroke-width="1px" opacity="0.25"></line><line x1="0" y1="53.0999999999995" x2="281.125" y2="53.0999999999995" fill="rgb(0, 0, 0)" stroke="rgb(60, 60, 60)" stroke-width="1px" opacity="0.25"></line><line x1="0" y1="35.40000000000049" x2="281.125" y2="35.40000000000049" fill="rgb(0, 0, 0)" stroke="rgb(60, 60, 60)" stroke-width="1px" opacity="0.25"></line><line x1="0" y1="17.700000000001523" x2="281.125" y2="17.700000000001523" fill="rgb(0, 0, 0)" stroke="rgb(60, 60, 60)" stroke-width="1px" opacity="0.25"></line><line x1="0" y1="0" x2="281.125" y2="0" fill="rgb(0, 0, 0)" stroke="rgb(60, 60, 60)" stroke-width="1px" opacity="0.25"></line></g></g></g><g><g><line x1="0" y1="17735.4" x2="281.125" y2="17735.4" fill="rgb(0, 0, 0)" stroke="rgb(153, 153, 153)" stroke-width="1.5px"></line></g></g><g><g><line x1="21.625" y1="0" x2="21.625" y2="177" fill="rgb(0, 0, 0)" stroke="rgb(153, 153, 153)" stroke-width="1.5px"></line></g></g><g><g><g><g><g><path stroke="rgb(187, 187, 187)" stroke-width="2px" d="M21.625,1380.6713012695318L21.84125,35.535040283203614L22.27375,35.40000000000049L22.490000000000002,35.40000000000049L22.70625,35.40000000000049L22.9225,35.40000000000049L23.138749999999998,35.40000000000049L23.355,35.40000000000049L23.57125,35.40000000000049L23.7875,35.40000000000049L24.003749999999997,35.40000000000049L24.22,35.40000000000049L24.43625,35.40000000000049L24.6525,35.40000000000049L24.868750000000002,35.40000000000049L25.084999999999997,35.40000000000049L25.30125,35.40000000000049L25.5175,35.40000000000049L25.73375,35.40000000000049L25.950000000000003,35.40000000000049L26.166249999999998,35.40000000000049L26.3825,35.40000000000049L26.59875,35.40000000000049L26.815,35.40000000000049L27.03125,35.40000000000049L27.2475,35.40000000000049L27.463749999999997,35.40000000000049L28.1125,35.40000000000049L28.32875,35.40000000000049L28.544999999999998,35.40000000000049L28.76125,35.40000000000049L28.9775,35.40000000000049L29.41,35.40000000000049L29.62625,35.40000000000049L29.8425,35.40000000000049L30.05875,35.40000000000049L30.275000000000002,35.40000000000049L30.7075,35.40000000000049L30.923750000000002,35.40000000000049L31.14,35.40000000000049L31.356250000000003,35.40000000000049L31.572499999999998,35.40000000000049L31.78875,35.40000000000049L32.22125,35.40000000000049L32.4375,35.40000000000049L32.87,35.40000000000049L33.08625,35.40000000000049L33.3025,35.40000000000049L33.518750000000004,35.40000000000049L33.735,35.40000000000049L33.95125,35.40000000000049L34.38375,35.40000000000049L34.6,35.40000000000049L34.81625,35.40000000000049L35.0325,35.40000000000049L35.248749999999994,35.40000000000049L35.464999999999996,35.40000000000049L35.68125,35.40000000000049L35.8975,35.40000000000049L36.11375,35.40000000000049L36.33,35.40000000000049L36.54625,35.40000000000049L36.978750000000005,35.40000000000049L37.195,35.535040283203614L37.411249999999995,35.40000000000049L37.6275,35.40000000000049L37.84375,35.40000000000049L38.06,35.40000000000049L38.27625,35.40000000000049L38.4925,35.40000000000049L38.70875,35.40000000000049L39.14125,35.40000000000049L39.3575,35.40000000000049L39.79,35.40000000000049L40.00625,35.40000000000049L40.2225,35.40000000000049L40.43875,35.40000000000049L40.655,35.40000000000049L40.87125,35.40000000000049L41.30375,35.40000000000049L41.52,35.40000000000049L41.73625,35.40000000000049L41.9525,35.40000000000049L42.168749999999996,35.40000000000049L42.385,35.40000000000049L42.60125,35.40000000000049L43.033750000000005,35.40000000000049L43.25,35.40000000000049L43.46625,35.40000000000049L43.6825,35.40000000000049L43.89875,35.40000000000049L44.114999999999995,35.40000000000049L44.33125,35.40000000000049L44.5475,35.40000000000049L44.76375,35.40000000000049L44.980000000000004,35.40000000000049L45.19625,35.40000000000049L45.4125,35.40000000000049L45.628750000000004,35.40000000000049L45.845,35.40000000000049L46.061249999999994,35.40000000000049L46.277499999999996,35.40000000000049L46.49375,35.40000000000049L46.71,35.40000000000049L46.92625,35.40000000000049L47.1425,35.40000000000049L47.35875,35.40000000000049L47.575,35.40000000000049L47.791250000000005,35.40000000000049L48.00749999999999,35.40000000000049L48.223749999999995,35.40000000000049L48.44,35.40000000000049L48.65625,35.40000000000049L48.8725,35.40000000000049L49.08875,35.40000000000049L49.52125,35.40000000000049L49.737500000000004,35.40000000000049L50.38625,35.40000000000049L50.6025,35.40000000000049L51.035,35.535040283203614L51.25125,35.40000000000049L51.68375,35.40000000000049L52.11625,35.40000000000049L52.332499999999996,35.40000000000049L52.54875,35.40000000000049L52.765,35.40000000000049L52.981249999999996,35.40000000000049L53.1975,35.40000000000049L53.63,35.40000000000049L53.846250000000005,35.40000000000049L54.0625,35.40000000000049L54.27875,35.40000000000049L54.71125,35.40000000000049L54.927499999999995,35.40000000000049L55.14375,35.40000000000049L55.36,35.40000000000049L55.57625,35.40000000000049L55.792500000000004,35.40000000000049L56.00875,35.40000000000049L56.44125,35.40000000000049L56.6575,35.40000000000049L57.089999999999996,35.40000000000049L57.30625,35.40000000000049L57.73875,35.40000000000049L57.955,35.40000000000049L58.17125,35.40000000000049L58.60375,35.40000000000049L58.82,35.40000000000049L59.036249999999995,35.40000000000049L59.46875,35.40000000000049L59.685,35.40000000000049L59.90125,35.40000000000049L60.1175,35.40000000000049L60.550000000000004,35.40000000000049L60.76625,35.40000000000049L60.982499999999995,35.40000000000049L61.19875,35.40000000000049L61.415,35.40000000000049L61.63125,35.40000000000049L61.847500000000004,35.40000000000049L62.06375,35.40000000000049L62.28,35.40000000000049L62.49625,35.40000000000049L62.712500000000006,35.40000000000049L62.928749999999994,35.40000000000049L63.5775,35.40000000000049L64.4425,35.40000000000049L64.65875,35.40000000000049L64.875,35.40000000000049L65.09125,35.40000000000049L65.30749999999999,35.40000000000049L65.52374999999999,35.40000000000049L65.95625,35.40000000000049L66.1725,35.40000000000049L66.38875,35.40000000000049L66.605,35.40000000000049L66.82125,35.40000000000049L67.47,35.40000000000049L67.68625,35.40000000000049L67.9025,35.40000000000049L68.11875,35.40000000000049L68.335,35.40000000000049L68.55125,35.40000000000049L68.7675,35.40000000000049L68.98375,35.40000000000049L69.2,35.40000000000049L69.41624999999999,35.40000000000049L69.6325,35.40000000000049L69.84875,35.40000000000049L70.28125,35.40000000000049L70.49749999999999,35.40000000000049L70.71375,35.40000000000049L71.14625000000001,35.40000000000049L71.3625,35.805120849609864L71.57875,35.40000000000049L71.795,35.40000000000049L72.01125,35.40000000000049L72.2275,35.40000000000049L72.44375,35.40000000000049L72.87625,35.40000000000049L73.0925,35.40000000000049L73.525,35.40000000000049L73.74125,35.40000000000049L73.95750000000001,35.40000000000049L74.39,35.40000000000049L74.60625,35.40000000000049L74.82249999999999,35.40000000000049L75.03875000000001,35.40000000000049L75.255,35.40000000000049L75.47125,35.40000000000049L75.6875,35.40000000000049L75.90375,35.40000000000049L76.12,35.40000000000049L76.33625,35.535040283203614L76.5525,35.40000000000049L76.76875,35.40000000000049L76.985,35.40000000000049L77.4175,35.40000000000049L77.63374999999999,35.40000000000049L77.85000000000001,35.40000000000049L78.06625,35.40000000000049L78.49875,35.40000000000049L78.715,35.40000000000049L78.93125,35.40000000000049L79.36375,35.40000000000049L79.79625,35.40000000000049L80.22875,35.40000000000049L80.445,35.40000000000049L80.66125000000001,35.40000000000049L80.8775,35.40000000000049L81.09374999999999,35.40000000000049L81.52624999999999,35.40000000000049L81.7425,35.40000000000049L81.95875,35.40000000000049L82.17500000000001,35.40000000000049L82.39125,35.40000000000049L82.6075,35.40000000000049L82.82375,35.40000000000049L83.04,35.40000000000049L84.12125,35.40000000000049L84.55375000000001,35.40000000000049L84.77,35.40000000000049L85.2025,35.40000000000049L85.41874999999999,35.40000000000049L85.635,35.40000000000049L85.85125,35.40000000000049L86.06750000000001,35.40000000000049L86.28375,35.40000000000049L86.5,35.40000000000049L86.71625,35.40000000000049L86.9325,35.40000000000049L87.14874999999999,35.40000000000049L87.365,35.40000000000049L88.01375,35.40000000000049L88.22999999999999,35.40000000000049L88.44625,35.40000000000049L88.6625,35.40000000000049L88.87875000000001,35.40000000000049L89.31125,35.40000000000049L89.5275,35.40000000000049L89.74374999999999,35.40000000000049L89.96000000000001,35.40000000000049L90.17625,35.40000000000049L90.3925,35.40000000000049L90.60875,35.40000000000049L90.825,35.40000000000049L91.04125,35.40000000000049L91.25750000000001,35.40000000000049L91.47375,35.40000000000049L91.69,35.40000000000049L91.90625,35.40000000000049L92.12249999999999,35.40000000000049L92.33875,35.40000000000049L92.55499999999999,35.40000000000049L92.77125000000001,35.40000000000049L92.9875,35.40000000000049L93.20375,35.40000000000049L93.63625,35.40000000000049L94.06875,35.40000000000049L94.285,35.535040283203614L94.50125,35.40000000000049L94.7175,35.40000000000049L94.93375,35.40000000000049L95.15,35.40000000000049L95.36625,35.40000000000049L95.58250000000001,35.40000000000049L95.79875,35.40000000000049L96.01499999999999,35.40000000000049L96.23125,35.40000000000049L96.44749999999999,35.40000000000049L96.66375000000001,35.40000000000049L96.88,35.40000000000049L97.09625,35.40000000000049L97.3125,35.40000000000049L97.52875,35.40000000000049L97.745,35.40000000000049L97.96125,35.40000000000049L98.1775,35.40000000000049L98.39375,35.40000000000049L98.61,35.40000000000049L98.82625,35.535040283203614L99.0425,35.40000000000049L99.25874999999999,35.40000000000049L99.47500000000001,35.40000000000049L99.69125,35.40000000000049L99.90750000000001,35.40000000000049L100.12375,35.40000000000049L100.33999999999999,35.40000000000049L100.55625,35.40000000000049L100.7725,35.40000000000049L100.98875000000001,35.40000000000049L101.205,35.40000000000049L101.6375,35.40000000000049L101.85375,35.40000000000049L102.07,35.40000000000049L102.28625,35.40000000000049L102.5025,35.40000000000049L102.71875,35.40000000000049L102.935,35.40000000000049L103.15124999999999,35.535040283203614L103.3675,35.40000000000049L103.58375,35.40000000000049L104.01625,35.40000000000049L104.2325,35.40000000000049L104.66499999999999,35.40000000000049L104.88125000000001,35.40000000000049L105.0975,35.40000000000049L105.31375,35.40000000000049L105.53,35.40000000000049L105.96249999999999,35.40000000000049L106.17875000000001,35.40000000000049L106.395,35.40000000000049L106.61125,35.40000000000049L107.04374999999999,35.40000000000049L107.26,35.40000000000049L107.47625,35.40000000000049L107.69250000000001,35.40000000000049L107.90875,35.40000000000049L108.34125,35.40000000000049L108.5575,35.40000000000049L108.77375,35.40000000000049L109.20625,35.40000000000049L109.4225,35.40000000000049L109.85499999999999,35.40000000000049L110.2875,35.40000000000049L110.50375000000001,35.40000000000049L110.72,35.40000000000049L111.1525,35.40000000000049L111.36874999999999,35.40000000000049L111.58500000000001,35.40000000000049L112.0175,35.40000000000049L112.23375,35.40000000000049L112.45,35.805120849609864L112.66625,35.40000000000049L112.8825,35.40000000000049L113.09875,35.40000000000049L113.315,35.40000000000049L113.7475,35.40000000000049L114.17999999999999,35.40000000000049L114.6125,35.40000000000049L115.045,35.40000000000049L115.69375,35.40000000000049L115.91,35.40000000000049L116.3425,35.40000000000049L116.55875,35.40000000000049L116.775,35.40000000000049L116.99125,35.40000000000049L117.2075,35.40000000000049L117.64,35.40000000000049L117.85625,35.40000000000049L118.07249999999999,35.40000000000049L118.28875000000001,35.40000000000049L118.505,35.40000000000049L118.72125000000001,35.40000000000049L118.9375,35.40000000000049L119.15375,35.40000000000049L119.37,35.40000000000049L119.58624999999999,35.40000000000049L119.8025,35.40000000000049L120.01875,35.40000000000049L120.45125,35.40000000000049L120.6675,35.40000000000049L120.88374999999999,35.40000000000049L121.10000000000001,35.40000000000049L121.31625,35.40000000000049L121.5325,35.40000000000049L121.74875,35.40000000000049L121.96499999999999,35.40000000000049L122.18125,35.40000000000049L122.3975,35.40000000000049L122.61375000000001,35.40000000000049L122.83,35.40000000000049L123.04625,35.40000000000049L123.2625,35.40000000000049L123.47875,35.40000000000049L123.69500000000001,35.40000000000049L123.91125,35.40000000000049L124.1275,35.40000000000049L124.34375,35.40000000000049L124.77624999999999,35.40000000000049L124.9925,35.40000000000049L125.64125,35.40000000000049L125.85749999999999,35.40000000000049L126.07375,35.40000000000049L126.28999999999999,35.40000000000049L126.50625000000001,35.40000000000049L126.7225,35.40000000000049L126.93875,35.40000000000049L127.155,35.40000000000049L127.37125,35.40000000000049L127.80375,35.40000000000049L128.02,35.40000000000049L128.23624999999998,35.40000000000049L128.885,35.40000000000049L129.10125,35.40000000000049L129.53375,35.40000000000049L130.1825,35.40000000000049L130.39875,35.40000000000049L130.61499999999998,35.40000000000049L130.83125,35.40000000000049L131.04749999999999,35.40000000000049L131.26375000000002,35.40000000000049L131.48,35.40000000000049L131.69625000000002,35.40000000000049L131.9125,35.40000000000049L132.12875,35.40000000000049L132.345,35.40000000000049L132.7775,35.40000000000049L132.99375,35.40000000000049L133.21,35.40000000000049L133.42625,35.40000000000049L133.6425,35.40000000000049L133.85875,35.40000000000049L134.07500000000002,35.40000000000049L134.5075,35.40000000000049L134.72375,35.40000000000049L134.94,35.40000000000049L135.15625,35.40000000000049L136.45374999999999,35.40000000000049L136.88625,35.40000000000049L137.1025,35.40000000000049L137.31875,35.40000000000049L137.535,35.40000000000049L137.75125,35.40000000000049L137.9675,35.40000000000049L138.18375,35.40000000000049L138.4,35.40000000000049L138.61625,35.40000000000049L138.83249999999998,35.40000000000049L139.04875,35.40000000000049L139.265,35.40000000000049L139.48125000000002,35.40000000000049L139.6975,35.40000000000049L139.91375,35.40000000000049L140.13,35.40000000000049L140.34625,35.40000000000049L140.77875,35.40000000000049L140.99499999999998,35.40000000000049L141.21125,35.40000000000049L141.64374999999998,35.40000000000049L141.85999999999999,35.40000000000049L142.07625000000002,35.40000000000049L142.29250000000002,35.40000000000049L142.50875,35.40000000000049L142.725,35.40000000000049L142.94125,35.40000000000049L143.1575,35.40000000000049L143.37375,35.40000000000049L143.59,35.40000000000049L143.80624999999998,35.40000000000049L144.0225,35.40000000000049L144.23875,35.40000000000049L144.455,35.40000000000049L144.67125,35.40000000000049L144.8875,35.40000000000049L145.10375000000002,35.40000000000049L145.32,35.40000000000049L145.53625,35.40000000000049L145.7525,35.40000000000049L146.185,35.40000000000049L146.40125,35.40000000000049L146.61749999999998,35.40000000000049L146.83375,35.40000000000049L147.05,35.40000000000049L147.26625,35.40000000000049L147.4825,35.40000000000049L147.69875,35.40000000000049L147.91500000000002,35.40000000000049L148.13125,35.40000000000049L148.3475,35.40000000000049L148.56375,35.40000000000049L148.78,35.40000000000049L148.99625,35.40000000000049L149.42874999999998,35.40000000000049L149.64499999999998,35.40000000000049L149.86125,35.40000000000049L150.07750000000001,35.535040283203614L150.29375,35.40000000000049L150.51,35.40000000000049L150.72625000000002,35.40000000000049L150.9425,35.40000000000049L151.15875,35.40000000000049L151.375,35.40000000000049L151.59124999999997,35.40000000000049L151.8075,35.40000000000049L152.02375,35.40000000000049L152.24,35.40000000000049L152.45624999999998,35.40000000000049L152.6725,35.40000000000049L153.105,35.40000000000049L153.5375,35.40000000000049L153.75375,35.40000000000049L153.97,35.40000000000049L154.18625,35.40000000000049L154.61875,35.40000000000049L155.48375,35.40000000000049L155.70000000000002,35.40000000000049L155.91625,35.40000000000049L156.1325,35.40000000000049L156.34875,35.40000000000049L156.565,35.40000000000049L156.78125,35.40000000000049L156.9975,35.40000000000049L157.64625,35.40000000000049L157.8625,35.40000000000049L158.07874999999999,35.40000000000049L158.295,35.40000000000049L158.7275,35.40000000000049L158.94375,35.40000000000049L159.16,35.40000000000049L159.5925,35.40000000000049L159.80875,35.40000000000049L160.025,35.40000000000049L160.24124999999998,35.40000000000049L160.4575,35.40000000000049L160.67375,35.40000000000049L160.89,35.40000000000049L161.10625,35.40000000000049L161.32250000000002,35.40000000000049L161.53875,35.40000000000049L161.755,35.40000000000049L161.97125,35.40000000000049L162.18749999999997,35.40000000000049L162.40375,35.40000000000049L162.62,35.40000000000049L162.83625,35.40000000000049L163.485,35.40000000000049L163.70125,35.40000000000049L163.9175,35.40000000000049L164.13375,35.40000000000049L164.35000000000002,35.40000000000049L164.56625,35.40000000000049L164.7825,35.40000000000049L164.99875,35.40000000000049L165.215,35.40000000000049L165.43125,35.40000000000049L165.6475,35.40000000000049L165.86374999999998,35.40000000000049L166.08,35.40000000000049L166.29625000000001,35.40000000000049L166.72875,35.40000000000049L166.945,35.40000000000049L167.16125000000002,35.40000000000049L167.3775,35.40000000000049L167.59375,35.40000000000049L167.81,35.40000000000049L168.02625,35.40000000000049L168.2425,35.40000000000049L168.45875,35.40000000000049L168.67499999999998,35.40000000000049L168.89124999999999,35.40000000000049L169.10750000000002,35.40000000000049L169.32375,35.40000000000049L169.54,35.40000000000049L169.75625,35.40000000000049L169.97250000000003,35.67008056640674L170.18875,35.40000000000049L170.405,35.40000000000049L170.62125,35.40000000000049L170.83749999999998,35.40000000000049L171.05375,35.40000000000049L171.27,35.40000000000049L171.7025,35.40000000000049L172.13500000000002,35.40000000000049L172.78375,35.40000000000049L173,35.40000000000049L173.21625,35.40000000000049L173.4325,35.40000000000049L173.64874999999998,35.40000000000049L173.865,35.40000000000049L174.08125,35.40000000000049L174.29749999999999,35.40000000000049L174.51375,35.40000000000049L174.73,35.40000000000049L174.94625000000002,35.40000000000049L175.1625,35.40000000000049L175.37875,35.40000000000049L175.595,35.40000000000049L176.0275,35.40000000000049L176.24375,35.40000000000049L176.45999999999998,35.40000000000049L176.8925,35.40000000000049L177.10875000000001,35.40000000000049L177.325,35.40000000000049L177.54125,35.40000000000049L177.75750000000002,35.40000000000049L177.97375,35.40000000000049L178.19,35.40000000000049L178.40625,35.40000000000049L178.6225,35.40000000000049L179.055,35.40000000000049L179.27124999999998,35.40000000000049L179.48749999999998,35.40000000000049L179.70375,35.40000000000049L179.92000000000002,35.40000000000049L180.3525,35.40000000000049L180.56875000000002,35.40000000000049L180.785,35.40000000000049L181.00125,35.40000000000049L181.2175,35.40000000000049L181.43374999999997,35.40000000000049L181.65,35.40000000000049L181.86625,35.40000000000049L182.0825,35.40000000000049L182.29874999999998,35.40000000000049L182.51500000000001,35.40000000000049L182.73125000000002,35.40000000000049L182.9475,35.40000000000049L183.16375,35.40000000000049L183.59625,35.40000000000049L183.8125,35.40000000000049L184.02875,35.40000000000049L184.24499999999998,35.40000000000049L184.46125,35.40000000000049L184.6775,35.40000000000049L184.89375,35.40000000000049L185.10999999999999,35.40000000000049L185.32625,35.40000000000049L185.75875,35.40000000000049L185.975,35.40000000000049L186.4075,35.40000000000049L186.62375,35.40000000000049L186.84,35.40000000000049L187.05624999999998,35.40000000000049L187.2725,35.40000000000049L187.48875,35.40000000000049L187.705,35.40000000000049L187.92125,35.40000000000049L188.1375,35.40000000000049L188.35375000000002,35.40000000000049L188.57,35.40000000000049L188.78625,35.40000000000049L189.0025,35.40000000000049L189.21875000000003,35.535040283203614L189.435,35.40000000000049L189.8675,35.40000000000049L190.08374999999998,35.40000000000049L190.3,35.40000000000049L190.51625,35.40000000000049L190.7325,35.40000000000049L190.94875,35.40000000000049L191.16500000000002,35.40000000000049L191.38125,35.40000000000049L191.5975,35.40000000000049L191.81375,35.40000000000049L192.02999999999997,35.40000000000049L192.24625,35.40000000000049L192.4625,35.40000000000049L192.67875,35.40000000000049L192.89499999999998,35.40000000000049L193.11125,35.40000000000049L193.32750000000001,35.40000000000049L193.54375,35.40000000000049L193.76,35.40000000000049L193.97625,36.345281982422364L194.1925,35.40000000000049L194.40875,35.535040283203614L194.625,35.40000000000049L195.0575,35.40000000000049L195.27375,35.40000000000049L195.49,35.40000000000049L195.70624999999998,35.40000000000049L195.9225,35.40000000000049L196.13875000000002,35.40000000000049L196.355,35.40000000000049L196.57125,35.40000000000049L197.00375000000003,35.40000000000049L197.22,35.40000000000049L197.43625,35.40000000000049L197.6525,35.40000000000049L197.86875,35.40000000000049L198.085,35.40000000000049L198.30125,35.40000000000049L198.51749999999998,35.40000000000049L198.73375,35.40000000000049L198.95000000000002,35.40000000000049L199.16625,35.40000000000049L199.59875,35.40000000000049L199.81500000000003,35.40000000000049L200.03125,35.40000000000049L200.2475,35.40000000000049L200.67999999999998,35.40000000000049L200.89625,35.40000000000049L201.1125,35.40000000000049L201.32874999999999,35.40000000000049L201.545,35.40000000000049L201.76125000000002,35.40000000000049L201.97750000000002,35.40000000000049L202.19375,35.40000000000049L202.41,35.40000000000049L202.62625,35.40000000000049L202.8425,35.40000000000049L203.05875,35.40000000000049L203.275,35.40000000000049L203.7075,35.40000000000049L203.92375,35.40000000000049L204.35625,35.40000000000049L204.5725,35.40000000000049L204.78875000000002,35.535040283203614L205.005,35.40000000000049L205.4375,35.535040283203614L205.65375,35.40000000000049L205.87,35.40000000000049L206.08625,35.40000000000049L206.51875,35.40000000000049L206.95125,35.40000000000049L207.38375,35.40000000000049L207.60000000000002,35.40000000000049L207.81625,35.40000000000049L208.0325,35.40000000000049L208.24875,35.40000000000049L208.68125,35.40000000000049L208.8975,35.40000000000049L209.11374999999998,35.40000000000049L209.32999999999998,35.40000000000049L209.54625000000001,35.40000000000049L209.76250000000002,35.40000000000049L209.97875,35.40000000000049L210.41125000000002,35.40000000000049L210.6275,35.40000000000049L210.84375,35.40000000000049L211.06,35.40000000000049L211.27624999999998,35.40000000000049L211.4925,36.075201416016114L211.70875,35.40000000000049L211.92499999999998,35.40000000000049L212.14124999999999,35.40000000000049L212.35750000000002,35.40000000000049L212.57375000000002,35.40000000000049L212.79,35.40000000000049L213.00625,35.40000000000049L213.2225,35.40000000000049L213.43875,35.40000000000049L213.655,35.40000000000049L213.87125,35.40000000000049L214.08749999999998,35.40000000000049L214.30375,35.40000000000049L214.52,35.40000000000049L214.73625,35.40000000000049L214.9525,35.40000000000049L215.16875,35.40000000000049L215.38500000000002,35.40000000000049L215.60125,35.40000000000049L215.8175,35.40000000000049L216.03375,35.40000000000049L216.25,35.40000000000049L216.6825,35.40000000000049L216.89874999999998,35.40000000000049L217.115,35.40000000000049L217.33125,35.40000000000049L217.5475,35.40000000000049L217.76375,35.40000000000049L217.98,35.40000000000049L218.19625000000002,35.40000000000049L218.4125,35.40000000000049L218.62875,35.67008056640674L218.845,35.40000000000049L219.06125,35.40000000000049L219.49375,35.40000000000049L219.70999999999998,35.40000000000049L219.92624999999998,35.535040283203614L220.1425,35.40000000000049L220.575,35.535040283203614L220.79125,35.94016113281299L221.00750000000002,35.40000000000049L221.22375,35.40000000000049L221.44,35.40000000000049L221.65625,35.40000000000049L222.08875,35.40000000000049L222.305,35.40000000000049L222.73749999999998,35.40000000000049L222.95375,35.40000000000049L223.17000000000002,35.40000000000049L223.38625,36.21024169921924L223.6025,35.40000000000049L223.81875,35.40000000000049L224.25125,35.40000000000049L224.4675,35.40000000000049L224.68374999999997,35.40000000000049L225.11625,35.40000000000049L225.3325,35.40000000000049L225.54874999999998,35.40000000000049L225.765,35.40000000000049L225.98125000000002,35.40000000000049L226.41375,35.40000000000049L226.63,35.40000000000049L226.84625,35.40000000000049L227.27875,35.40000000000049L227.495,35.40000000000049L227.71125,35.40000000000049L227.9275,35.40000000000049L228.14375,35.40000000000049L228.35999999999999,35.40000000000049L228.57625,35.40000000000049L228.79250000000002,35.40000000000049L229.00875,35.40000000000049L229.225,35.40000000000049L229.44125,35.40000000000049L229.65750000000003,35.40000000000049L229.87375,35.40000000000049L230.09,36.075201416016114L230.30625,35.40000000000049L230.52249999999998,35.40000000000049L230.73875,35.40000000000049L231.17125,35.40000000000049L231.60375000000002,35.40000000000049L231.82,35.40000000000049L232.2525,35.40000000000049L232.46874999999997,35.40000000000049L232.685,35.40000000000049L232.90125,35.40000000000049L233.1175,35.40000000000049L233.33374999999998,35.40000000000049L233.55,35.40000000000049L233.76625,35.40000000000049L233.9825,35.40000000000049L234.19875,35.40000000000049L234.415,35.40000000000049L234.63125000000002,35.40000000000049L234.8475,35.40000000000049L235.06375,35.40000000000049L235.28,35.40000000000049L235.49625,35.40000000000049L235.7125,35.40000000000049L235.92875,35.40000000000049L236.14499999999998,35.40000000000049L236.57750000000001,35.40000000000049L237.01,35.40000000000049L237.22625,35.40000000000049L237.65875,35.40000000000049L237.875,35.40000000000049L238.09125,35.40000000000049L238.3075,35.40000000000049L238.52375,35.40000000000049L238.74,35.40000000000049L238.95624999999998,35.40000000000049L239.38875000000002,35.40000000000049L239.605,35.40000000000049L239.82125,35.40000000000049L240.25375000000003,35.40000000000049L240.47,35.40000000000049L240.68625,35.40000000000049L240.9025,35.40000000000049L241.335,35.40000000000049L241.55125,35.40000000000049L241.76749999999998,35.40000000000049L241.98375,35.40000000000049L242.20000000000002,35.40000000000049L242.41625000000002,35.40000000000049L242.6325,35.40000000000049L242.84875,35.40000000000049L243.065,35.40000000000049L243.28125,35.40000000000049L243.4975,35.40000000000049L243.71375,35.40000000000049L244.14625,35.40000000000049L244.3625,35.40000000000049L244.57874999999999,35.40000000000049L244.795,35.40000000000049L245.01125,35.40000000000049L245.22750000000002,35.40000000000049L245.44375,35.535040283203614L245.66,35.40000000000049L245.87625,35.40000000000049L246.0925,35.40000000000049L246.30875,35.40000000000049L246.525,35.40000000000049L246.74124999999998,35.40000000000049L246.9575,35.40000000000049L247.17375,35.40000000000049L247.39000000000001,35.40000000000049L247.60625,35.40000000000049L248.03875000000002,35.40000000000049L248.255,35.40000000000049L248.47125,35.40000000000049L248.6875,35.535040283203614L248.90375,35.40000000000049L249.12,35.40000000000049L249.55249999999998,35.40000000000049L249.76874999999998,35.40000000000049L249.985,35.40000000000049L250.20125000000002,35.40000000000049L250.4175,35.40000000000049L251.2825,35.40000000000049L251.49875,35.40000000000049L251.71499999999997,35.535040283203614L251.93125,35.40000000000049L252.1475,35.40000000000049L252.36375,35.40000000000049L252.57999999999998,35.40000000000049L252.79625000000001,35.40000000000049L253.01250000000002,35.40000000000049L253.22875,35.40000000000049L253.445,35.40000000000049L253.66125,35.40000000000049L253.8775,35.40000000000049L254.09375,35.40000000000049L254.31,35.40000000000049L254.52624999999998,35.40000000000049L254.7425,35.40000000000049L254.95875,35.40000000000049L255.175,35.40000000000049L255.39124999999999,35.40000000000049L255.6075,35.40000000000049L255.82375000000002,35.40000000000049L256.04,35.40000000000049L256.25625,35.40000000000049L256.47249999999997,35.40000000000049L256.90500000000003,35.40000000000049L257.3375,35.40000000000049L257.55375000000004,35.40000000000049L257.77,35.40000000000049L257.98625,35.40000000000049L258.2025,35.40000000000049L258.635,35.40000000000049L259.0675,35.40000000000049L259.28375,35.40000000000049L259.5,35.40000000000049L259.71625,35.40000000000049L260.14875,35.40000000000049L260.365,35.40000000000049L260.58125,35.40000000000049L260.7975,35.40000000000049L261.01375,35.40000000000049L261.22999999999996,35.40000000000049L261.44625,35.40000000000049L261.6625,35.40000000000049L261.87875,35.40000000000049L262.09499999999997,35.40000000000049L262.52750000000003,35.40000000000049L262.74375,35.40000000000049L262.96,35.40000000000049L263.60875,35.40000000000049L263.825,35.40000000000049L264.04125,35.40000000000049L264.2575,35.40000000000049L264.47375,35.40000000000049L264.69,35.40000000000049L264.90625,35.40000000000049L265.1225,35.40000000000049L265.33875,35.40000000000049L265.555,35.40000000000049L265.77125,35.40000000000049L265.9875,35.40000000000049L266.20375,35.40000000000049L266.42,35.40000000000049L266.63625,35.40000000000049L266.8525,35.40000000000049L267.06874999999997,35.40000000000049L267.50125,35.40000000000049L267.7175,35.40000000000049L267.93375,35.40000000000049L268.15000000000003,35.40000000000049L268.36625,35.40000000000049L268.5825,35.40000000000049L268.79875,35.40000000000049L269.015,35.40000000000049L269.23125,35.40000000000049L269.4475,35.40000000000049L269.66375,35.40000000000049L270.09625,35.40000000000049L270.3125,35.40000000000049L270.52875,35.40000000000049L270.745,35.40000000000049L270.96125,35.40000000000049L271.1775,35.40000000000049L271.39375,35.40000000000049L271.61,35.40000000000049L271.82625,35.40000000000049L272.0425,35.40000000000049L272.25875,35.40000000000049L272.475,35.40000000000049L272.69124999999997,35.40000000000049L272.90749999999997,35.40000000000049L273.34,35.40000000000049L273.55625,35.40000000000049L273.7725,35.40000000000049L273.98875000000004,35.40000000000049L274.205,35.40000000000049L274.42125,35.40000000000049" style="fill: none;" fill="none"></path></g><g><path stroke="rgb(0, 119, 187)" stroke-width="2px" d="M21.625,428.400984191895L23.7875,157.7883590698247L25.950000000000003,134.6694625854497L28.1125,149.6292251586919L30.275000000000002,123.79061737060597L32.4375,116.31208648681691L34.6,131.27049865722705L36.7625,110.19206085205128L38.925000000000004,122.4307617187505L41.087500000000006,136.0306686401372L43.25,124.47122039794972L45.4125,130.5898956298833L47.575,126.51032867431691L49.737500000000004,125.83107604980519L51.900000000000006,114.27162780761769L54.0625,162.54717864990283L56.225,114.95223083496144L58.3875,102.71352996826222L60.550000000000004,113.59237518310597L62.712500000000006,125.15047302246144L64.875,137.39052429199268L67.03750000000001,133.30960693359424L69.2,116.99133911132863L71.3625,127.87018432617238L73.525,119.71105041503957L75.6875,137.39052429199268L77.85000000000001,123.11136474609425L80.0125,134.6694625854497L82.17500000000001,116.99133911132863L84.33749999999999,117.67194213867238L86.5,125.83107604980519L88.6625,128.5507873535161L90.825,110.19206085205128L92.9875,120.39165344238332L95.15,121.07090606689503L97.3125,156.42850341796924L99.47500000000001,140.1102355957036L101.6375,121.75150909423878L103.80000000000001,121.07090606689503L105.96249999999999,102.03292694091847L108.125,117.67194213867238L110.2875,122.4307617187505L112.45,138.75037994384815L114.6125,138.75037994384815L116.775,123.79061737060597L118.9375,133.990209960938L121.10000000000001,144.18980255127002L123.2625,112.91177215576222L125.42500000000001,123.79061737060597L127.5875,137.39052429199268L129.75,123.11136474609425L130.1825,159.8274673461919L130.61499999999998,134.6694625854497L131.04749999999999,120.39165344238332L131.48,131.27049865722705L131.9125,131.27049865722705L132.345,146.90951385498096L132.7775,124.47122039794972L133.21,129.23003997802783L133.6425,123.11136474609425L134.07500000000002,119.03179779052785L134.5075,150.98908081054736L134.94,107.47234954834035L135.3725,125.15047302246144L135.805,121.75150909423878L136.2375,138.75037994384815L136.67,112.2325195312505L137.1025,120.39165344238332L137.535,158.46761169433643L137.9675,115.63148345947316L138.4,135.35006561279346L138.83249999999998,110.87266387939503L139.265,120.39165344238332L139.6975,125.15047302246144L140.13,127.19093170166066L140.5625,125.83107604980519L140.99499999999998,116.99133911132863L141.4275,121.07090606689503L141.85999999999999,127.87018432617238L142.29250000000002,116.99133911132863L142.725,113.59237518310597L143.1575,125.15047302246144L143.59,108.1529525756841L144.0225,117.67194213867238L144.455,110.19206085205128L144.8875,146.2289108276372L145.32,123.79061737060597L145.7525,122.4307617187505L146.185,134.6694625854497L146.61749999999998,127.87018432617238L147.05,132.63035430908252L147.4825,166.62674560546924L147.91500000000002,136.70992126464893L148.3475,120.39165344238332L148.78,126.51032867431691L149.2125,133.990209960938L149.64499999999998,111.55191650390675L150.07750000000001,146.2289108276372L150.51,123.11136474609425L150.9425,116.99133911132863L151.375,123.11136474609425L151.8075,125.15047302246144L152.24,134.6694625854497L152.6725,116.31208648681691L153.105,178.86544647216846L153.5375,116.31208648681691L153.97,137.39052429199268L154.40249999999997,196.54356994628955L154.835,123.79061737060597L155.26749999999998,112.2325195312505L155.70000000000002,124.47122039794972L156.1325,125.15047302246144L156.565,148.94862213134815L156.9975,107.47234954834035L157.43,122.4307617187505L157.8625,126.51032867431691L158.295,124.47122039794972L158.7275,114.95223083496144L159.16,133.30960693359424L159.5925,133.990209960938L160.025,104.75263824462941L160.4575,130.5898956298833L160.89,121.07090606689503L161.32250000000002,147.58876647949268L161.755,123.11136474609425L162.18749999999997,124.47122039794972L162.62,123.79061737060597L163.05249999999998,110.19206085205128L163.485,106.79309692382863L163.9175,130.5898956298833L164.35000000000002,109.51280822753957L164.7825,127.19093170166066L165.215,140.78948822021533L165.6475,111.55191650390675L166.08,115.63148345947316L166.5125,153.7087921142583L166.945,127.87018432617238L167.3775,110.19206085205128L167.81,117.67194213867238L168.2425,113.59237518310597L168.67499999999998,109.51280822753957L169.10750000000002,114.27162780761769L169.54,155.7479003906255L169.97250000000003,132.63035430908252L170.405,131.94975128173877L170.83749999999998,121.75150909423878L171.27,138.75037994384815L171.7025,97.95335998535207L172.13500000000002,134.6694625854497L172.5675,118.3511947631841L173,116.99133911132863L173.4325,119.03179779052785L173.865,116.99133911132863L174.29749999999999,125.15047302246144L174.73,116.99133911132863L175.1625,119.71105041503957L175.595,129.91064300537158L176.0275,114.27162780761769L176.45999999999998,147.58876647949268L176.8925,118.3511947631841L177.325,140.78948822021533L177.75750000000002,123.11136474609425L178.19,131.94975128173877L178.6225,120.39165344238332L179.055,110.19206085205128L179.48749999999998,142.1493438720708L179.92000000000002,142.1493438720708L180.3525,106.11249389648488L180.785,127.87018432617238L181.2175,120.39165344238332L181.65,120.39165344238332L182.0825,112.91177215576222L182.51500000000001,112.2325195312505L182.9475,135.35006561279346L183.38,114.27162780761769L183.8125,124.47122039794972L184.24499999999998,122.4307617187505L184.6775,120.39165344238332L185.10999999999999,121.75150909423878L185.54250000000002,164.58763732910205L185.975,114.27162780761769L186.4075,143.50919952392627L186.84,138.0697769165044L187.2725,138.75037994384815L187.705,143.50919952392627L188.1375,130.5898956298833L188.57,115.63148345947316L189.0025,109.51280822753957L189.435,108.1529525756841L189.8675,123.79061737060597L190.3,133.30960693359424L190.7325,120.39165344238332L191.16500000000002,120.39165344238332L191.5975,126.51032867431691L192.02999999999997,109.51280822753957L192.4625,123.79061737060597L192.89499999999998,127.87018432617238L193.32750000000001,116.31208648681691L193.76,125.15047302246144L194.1925,113.59237518310597L194.625,110.87266387939503L195.0575,131.27049865722705L195.49,126.51032867431691L195.9225,156.42850341796924L196.355,167.307348632813L196.7875,120.39165344238332L197.22,115.63148345947316L197.6525,116.31208648681691L198.085,115.63148345947316L198.51749999999998,122.4307617187505L198.95000000000002,110.87266387939503L199.3825,125.15047302246144L199.81500000000003,126.51032867431691L200.2475,144.18980255127002L200.67999999999998,125.15047302246144L201.1125,110.87266387939503L201.545,116.31208648681691L201.97750000000002,108.1529525756841L202.41,119.71105041503957L202.8425,114.27162780761769L203.275,108.1529525756841L203.7075,123.79061737060597L204.14,117.67194213867238L204.5725,123.11136474609425L205.005,137.39052429199268L205.4375,106.79309692382863L205.87,138.0697769165044L206.30249999999998,115.63148345947316L206.735,131.27049865722705L207.1675,119.03179779052785L207.60000000000002,108.1529525756841L208.0325,109.51280822753957L208.465,107.47234954834035L208.8975,119.71105041503957L209.32999999999998,114.95223083496144L209.76250000000002,125.83107604980519L210.195,123.79061737060597L210.6275,126.51032867431691L211.06,127.87018432617238L211.4925,122.4307617187505L211.92499999999998,136.70992126464893L212.35750000000002,104.75263824462941L212.79,127.19093170166066L213.2225,125.83107604980519L213.655,112.2325195312505L214.08749999999998,122.4307617187505L214.52,138.0697769165044L214.9525,116.31208648681691L215.38500000000002,135.35006561279346L215.8175,131.94975128173877L216.25,124.47122039794972L216.6825,105.43324127197316L217.115,108.83220520019582L217.5475,135.35006561279346L217.98,120.39165344238332L218.4125,113.59237518310597L218.845,133.30960693359424L219.2775,131.94975128173877L219.70999999999998,116.31208648681691L220.1425,129.91064300537158L220.575,270.6563781738286L221.00750000000002,107.47234954834035L221.44,155.06864776611377L221.87249999999997,112.2325195312505L222.305,142.82994689941455L222.73749999999998,119.71105041503957L223.17000000000002,125.83107604980519L223.6025,119.03179779052785L224.035,112.91177215576222L224.4675,112.2325195312505L224.9,121.07090606689503L225.3325,110.19206085205128L225.765,123.11136474609425L226.1975,131.27049865722705L226.63,117.67194213867238L227.0625,102.71352996826222L227.495,125.15047302246144L227.9275,115.63148345947316L228.35999999999999,117.67194213867238L228.79250000000002,125.15047302246144L229.225,133.990209960938L229.65750000000003,150.98908081054736L230.09,116.99133911132863L230.52249999999998,121.75150909423878L230.955,119.71105041503957L231.3875,138.0697769165044L231.82,106.79309692382863L232.2525,118.3511947631841L232.685,115.63148345947316L233.1175,138.75037994384815L233.55,105.43324127197316L233.9825,106.79309692382863L234.415,124.47122039794972L234.8475,127.87018432617238L235.28,116.31208648681691L235.7125,131.94975128173877L236.14499999999998,118.3511947631841L236.57750000000001,119.03179779052785L237.01,134.6694625854497L237.44250000000002,120.39165344238332L237.875,109.51280822753957L238.09125,116.31208648681691L238.3075,114.95223083496144L238.52375,136.70992126464893L238.74,147.58876647949268L238.95624999999998,127.87018432617238L239.17249999999999,109.51280822753957L239.38875000000002,121.75150909423878L239.605,119.71105041503957L239.82125,127.87018432617238L240.0375,127.19093170166066L240.25375000000003,140.78948822021533L240.47,134.6694625854497L240.68625,116.99133911132863L240.9025,124.47122039794972L241.11874999999998,118.3511947631841L241.335,147.58876647949268L241.55125,119.03179779052785L241.76749999999998,129.23003997802783L241.98375,114.27162780761769L242.20000000000002,111.55191650390675L242.41625000000002,108.83220520019582L242.6325,136.0306686401372L242.84875,117.67194213867238L243.065,108.1529525756841L243.28125,133.990209960938L243.4975,125.15047302246144L243.71375,125.83107604980519L243.92999999999998,124.47122039794972L244.14625,117.67194213867238L244.3625,112.91177215576222L244.57874999999999,129.91064300537158L244.795,121.07090606689503L245.01125,135.35006561279346L245.22750000000002,123.79061737060597L245.44375,154.38804473877002L245.66,104.07338562011769L245.87625,140.1102355957036L246.0925,119.71105041503957L246.30875,129.23003997802783L246.525,118.3511947631841L246.74124999999998,115.63148345947316L246.9575,125.83107604980519L247.17375,104.75263824462941L247.39000000000001,150.98908081054736L247.60625,129.91064300537158L247.8225,120.39165344238332L248.03875000000002,122.4307617187505L248.255,126.51032867431691L248.47125,115.63148345947316L248.6875,127.87018432617238L248.90375,110.19206085205128L249.12,112.2325195312505L249.33625,134.6694625854497L249.55249999999998,112.2325195312505L249.76874999999998,133.990209960938L249.985,118.3511947631841L250.20125000000002,131.94975128173877L250.4175,121.07090606689503L250.63375,131.94975128173877L250.85000000000002,138.75037994384815L251.06625,113.59237518310597L251.2825,103.39278259277394L251.49875,108.83220520019582L251.71499999999997,126.51032867431691L251.93125,129.23003997802783L252.1475,126.51032867431691L252.36375,112.2325195312505L252.57999999999998,120.39165344238332L252.79625000000001,122.4307617187505L253.01250000000002,112.2325195312505L253.22875,107.47234954834035L253.445,148.94862213134815L253.66125,138.75037994384815L253.8775,126.51032867431691L254.09375,110.87266387939503L254.31,111.55191650390675L254.52624999999998,144.18980255127002L254.7425,105.43324127197316L254.95875,127.87018432617238L255.175,126.51032867431691L255.39124999999999,116.99133911132863L255.6075,140.78948822021533L255.82375000000002,129.23003997802783L256.04,120.39165344238332L256.25625,145.5496582031255L256.47249999999997,110.19206085205128L256.68875,124.47122039794972L256.90500000000003,119.03179779052785L257.12125,109.51280822753957L257.3375,108.1529525756841L257.55375000000004,112.2325195312505L257.77,106.11249389648488L257.98625,156.42850341796924L258.2025,105.43324127197316L258.41875,121.07090606689503L258.635,114.27162780761769L258.85125,127.19093170166066L259.0675,162.54717864990283L259.28375,114.95223083496144L259.5,123.11136474609425L259.71625,125.15047302246144L259.9325,129.91064300537158L260.14875,112.91177215576222L260.365,116.31208648681691L260.58125,137.39052429199268L260.7975,125.83107604980519L261.01375,109.51280822753957L261.22999999999996,115.63148345947316L261.44625,105.43324127197316L261.6625,138.0697769165044L261.87875,126.51032867431691L262.09499999999997,171.3869155883794L262.31125,151.66833343505908L262.52750000000003,119.03179779052785L262.74375,138.0697769165044L262.96,121.07090606689503L263.17625,126.51032867431691L263.39250000000004,116.99133911132863L263.60875,104.07338562011769L263.825,131.27049865722705L264.04125,113.59237518310597L264.2575,116.31208648681691L264.47375,108.1529525756841L264.69,140.78948822021533L264.90625,136.70992126464893L265.1225,129.23003997802783L265.33875,122.4307617187505L265.555,125.15047302246144L265.77125,155.7479003906255L265.9875,111.55191650390675L266.20375,151.66833343505908L266.42,125.15047302246144L266.63625,119.03179779052785L266.8525,114.95223083496144L267.06874999999997,114.27162780761769L267.285,152.34893646240283L267.50125,124.47122039794972L267.7175,123.79061737060597L267.93375,128.5507873535161L268.15000000000003,132.63035430908252L268.36625,133.30960693359424L268.5825,113.59237518310597L268.79875,133.990209960938L269.015,115.63148345947316L269.23125,113.59237518310597L269.4475,134.6694625854497L269.66375,129.91064300537158L269.88,108.1529525756841L270.09625,123.79061737060597L270.3125,126.51032867431691L270.52875,118.3511947631841L270.745,122.4307617187505L270.96125,110.87266387939503L271.1775,127.87018432617238L271.39375,146.2289108276372L271.61,164.58763732910205L271.82625,136.70992126464893L272.0425,106.79309692382863L272.25875,117.67194213867238L272.475,122.4307617187505L272.69124999999997,118.3511947631841L272.90749999999997,105.43324127197316L273.12375000000003,138.0697769165044L273.34,118.3511947631841L273.55625,121.07090606689503L273.7725,120.39165344238332L273.98875000000004,130.5898956298833L274.205,117.67194213867238L274.42125,163.22778167724658" style="fill: none;" fill="none"></path></g><g><path stroke="rgb(238, 51, 119)" stroke-width="2px" d="M21.625,6782.171221160889L23.7875,163.28584899902393L25.950000000000003,144.67054595947315L28.1125,139.1109375000005L30.275000000000002,134.7599395751958L32.4375,143.94537963867236L34.6,138.8692153930669L36.7625,144.42882385253955L38.925000000000004,142.7367691040044L41.087500000000006,136.69371643066455L43.25,133.55132904052783L45.4125,129.9241470336919L47.575,134.2764953613286L49.737500000000004,134.5182174682622L51.900000000000006,135.48510589599658L54.0625,137.66060485839893L56.225,134.2764953613286L58.3875,130.1658691406255L60.550000000000004,145.15534057617236L62.712500000000006,131.13275756835986L64.875,134.03477325439502L67.03750000000001,134.5182174682622L69.2,138.8692153930669L71.3625,140.80299224853565L73.525,135.0016616821294L75.6875,152.40700378418018L77.85000000000001,149.74806060791065L80.0125,148.53945007324268L82.17500000000001,142.978491210938L84.33749999999999,149.50633850097705L86.5,135.243383789063L88.6625,143.22021331787158L90.825,152.16528167724658L92.9875,141.28643646240283L95.15,139.59438171386768L97.3125,142.0116027832036L99.47500000000001,135.243383789063L101.6375,148.29772796630908L103.80000000000001,137.41888275146533L105.96249999999999,145.39706268310596L108.125,142.2533248901372L110.2875,150.71494903564502L112.45,150.23150482177783L114.6125,151.6818374633794L116.775,143.70365753173877L118.9375,151.1983932495122L121.10000000000001,144.18710174560596L123.2625,149.98978271484424L125.42500000000001,152.16528167724658L127.5875,138.1440490722661L129.75,138.1440490722661L130.1825,145.88050689697315L130.61499999999998,139.59438171386768L131.04749999999999,154.58250274658252L131.48,150.9566711425786L131.9125,149.26461639404346L132.345,142.978491210938L132.7775,132.58309020996143L133.21,145.39706268310596L133.6425,139.35265960693408L134.07500000000002,131.85792388916065L134.5075,144.18710174560596L134.94,144.67054595947315L135.3725,134.5182174682622L135.805,146.84739532470752L136.2375,144.18710174560596L136.67,144.67054595947315L137.1025,137.17716064453174L137.535,139.59438171386768L137.9675,143.70365753173877L138.4,147.8142837524419L138.83249999999998,143.70365753173877L139.265,149.98978271484424L139.6975,140.07782592773486L140.13,149.50633850097705L140.5625,138.1440490722661L140.99499999999998,139.83610382080127L141.4275,139.83610382080127L141.85999999999999,148.29772796630908L142.29250000000002,137.41888275146533L142.725,147.0891174316411L143.1575,144.67054595947315L143.59,141.04471435546924L144.0225,139.1109375000005L144.455,151.1983932495122L144.8875,147.3308395385747L145.32,141.28643646240283L145.7525,139.59438171386768L146.185,142.7367691040044L146.61749999999998,140.56127014160205L147.05,149.74806060791065L147.4825,141.28643646240283L147.91500000000002,150.47322692871143L148.3475,142.7367691040044L148.78,149.50633850097705L149.2125,144.42882385253955L149.64499999999998,144.18710174560596L150.07750000000001,157.48451843261768L150.51,142.978491210938L150.9425,149.98978271484424L151.375,153.13217010498096L151.8075,135.96855010986377L152.24,145.63878479003955L152.6725,153.37389221191455L153.105,143.46193542480518L153.5375,152.64872589111377L153.97,135.96855010986377L154.40249999999997,145.39706268310596L154.835,168.12164154052783L155.26749999999998,148.29772796630908L155.70000000000002,139.83610382080127L156.1325,148.29772796630908L156.565,149.02289428710986L156.9975,157.72624053955127L157.43,146.60567321777393L157.8625,135.48510589599658L158.295,142.978491210938L158.7275,153.13217010498096L159.16,139.35265960693408L159.5925,154.09905853271533L160.025,144.42882385253955L160.4575,142.0116027832036L160.89,135.0016616821294L161.32250000000002,142.4950469970708L161.755,142.7367691040044L162.18749999999997,148.29772796630908L162.62,147.3308395385747L163.05249999999998,140.80299224853565L163.485,137.90232696533252L163.9175,135.96855010986377L164.35000000000002,136.21027221679736L164.7825,141.04471435546924L165.215,135.96855010986377L165.6475,136.45199432373096L166.08,155.3076690673833L166.5125,146.36395111084033L166.945,138.8692153930669L167.3775,137.66060485839893L167.81,142.2533248901372L168.2425,143.94537963867236L168.67499999999998,136.93543853759815L169.10750000000002,142.0116027832036L169.54,144.91361846923877L169.97250000000003,147.5725616455083L170.405,135.0016616821294L170.83749999999998,167.15340270996143L171.27,138.8692153930669L171.7025,143.94537963867236L172.13500000000002,146.60567321777393L172.5675,151.1983932495122L173,139.35265960693408L173.4325,135.72682800293018L173.865,142.0116027832036L174.29749999999999,138.3857711791997L174.73,142.978491210938L175.1625,139.83610382080127L175.595,141.76988067627002L176.0275,145.15534057617236L176.45999999999998,140.31954803466846L176.8925,128.71553649902393L177.325,143.46193542480518L177.75750000000002,145.63878479003955L178.19,136.45199432373096L178.6225,142.0116027832036L179.055,149.50633850097705L179.48749999999998,139.59438171386768L179.92000000000002,139.83610382080127L180.3525,137.41888275146533L180.785,153.85733642578174L181.2175,146.12222900390674L181.65,143.22021331787158L182.0825,148.29772796630908L182.51500000000001,154.8242248535161L182.9475,135.48510589599658L183.38,140.31954803466846L183.8125,146.36395111084033L184.24499999999998,139.83610382080127L184.6775,132.34136810302783L185.10999999999999,142.7367691040044L185.54250000000002,146.60567321777393L185.975,146.12222900390674L186.4075,136.21027221679736L186.84,142.2533248901372L187.2725,148.0560058593755L187.705,135.72682800293018L188.1375,135.243383789063L188.57,147.0891174316411L189.0025,133.55132904052783L189.435,147.5725616455083L189.8675,142.2533248901372L190.3,141.52815856933643L190.7325,153.61561431884815L191.16500000000002,143.22021331787158L191.5975,143.22021331787158L192.02999999999997,135.48510589599658L192.4625,141.52815856933643L192.89499999999998,145.15534057617236L193.32750000000001,140.31954803466846L193.76,137.66060485839893L194.1925,137.41888275146533L194.625,146.60567321777393L195.0575,144.18710174560596L195.49,149.98978271484424L195.9225,143.70365753173877L196.355,145.15534057617236L196.7875,136.69371643066455L197.22,153.13217010498096L197.6525,131.61620178222705L198.085,142.4950469970708L198.51749999999998,154.09905853271533L198.95000000000002,147.0891174316411L199.3825,137.66060485839893L199.81500000000003,133.55132904052783L200.2475,154.34078063964893L200.67999999999998,149.26461639404346L201.1125,147.5725616455083L201.545,141.04471435546924L201.97750000000002,147.8142837524419L202.41,139.83610382080127L202.8425,143.22021331787158L203.275,140.56127014160205L203.7075,160.6269058227544L204.14,143.22021331787158L204.5725,146.84739532470752L205.005,141.52815856933643L205.4375,149.50633850097705L205.87,141.04471435546924L206.30249999999998,147.0891174316411L206.735,144.18710174560596L207.1675,140.31954803466846L207.60000000000002,139.1109375000005L208.0325,145.15534057617236L208.465,150.23150482177783L208.8975,145.39706268310596L209.32999999999998,142.7367691040044L209.76250000000002,137.90232696533252L210.195,139.1109375000005L210.6275,137.90232696533252L211.06,152.64872589111377L211.4925,147.5725616455083L211.92499999999998,142.4950469970708L212.35750000000002,149.50633850097705L212.79,143.70365753173877L213.2225,137.17716064453174L213.655,150.47322692871143L214.08749999999998,155.5493911743169L214.52,150.47322692871143L214.9525,154.58250274658252L215.38500000000002,156.03283538818408L215.8175,146.84739532470752L216.25,147.0891174316411L216.6825,139.35265960693408L217.115,139.35265960693408L217.5475,152.89044799804736L217.98,144.67054595947315L218.4125,135.96855010986377L218.845,154.8242248535161L219.2775,141.76988067627002L219.70999999999998,139.59438171386768L220.1425,146.60567321777393L220.575,217.68007507324268L221.00750000000002,159.66001739502002L221.44,153.13217010498096L221.87249999999997,139.83610382080127L222.305,148.53945007324268L222.73749999999998,154.09905853271533L223.17000000000002,136.69371643066455L223.6025,144.42882385253955L224.035,140.56127014160205L224.4675,153.13217010498096L224.9,137.66060485839893L225.3325,141.04471435546924L225.765,133.3082565307622L226.1975,134.2764953613286L226.63,140.07782592773486L227.0625,145.63878479003955L227.495,157.48451843261768L227.9275,134.7599395751958L228.35999999999999,140.31954803466846L228.79250000000002,156.7593521118169L229.225,144.18710174560596L229.65750000000003,147.0891174316411L230.09,155.5493911743169L230.52249999999998,134.7599395751958L230.955,147.5725616455083L231.3875,142.2533248901372L231.82,145.63878479003955L232.2525,147.0891174316411L232.685,149.02289428710986L233.1175,148.29772796630908L233.55,149.74806060791065L233.9825,144.91361846923877L234.415,139.83610382080127L234.8475,143.22021331787158L235.28,159.9017395019536L235.7125,154.09905853271533L236.14499999999998,146.60567321777393L236.57750000000001,144.18710174560596L237.01,144.67054595947315L237.44250000000002,138.8692153930669L237.875,142.0116027832036L238.09125,146.12222900390674L238.3075,144.42882385253955L238.52375,140.80299224853565L238.74,139.35265960693408L238.95624999999998,144.91361846923877L239.17249999999999,142.7367691040044L239.38875000000002,134.7599395751958L239.605,145.39706268310596L239.82125,140.31954803466846L240.0375,138.1440490722661L240.25375000000003,157.72624053955127L240.47,141.76988067627002L240.68625,140.56127014160205L240.9025,147.3308395385747L241.11874999999998,153.61561431884815L241.335,134.7599395751958L241.55125,140.80299224853565L241.76749999999998,150.71494903564502L241.98375,147.0891174316411L242.20000000000002,155.0659469604497L242.41625000000002,145.15534057617236L242.6325,136.93543853759815L242.84875,145.39706268310596L243.065,144.91361846923877L243.28125,152.64872589111377L243.4975,141.04471435546924L243.71375,143.94537963867236L243.92999999999998,134.2764953613286L244.14625,149.02289428710986L244.3625,142.978491210938L244.57874999999999,148.78117218017627L244.795,146.60567321777393L245.01125,145.88050689697315L245.22750000000002,146.12222900390674L245.44375,143.94537963867236L245.66,142.978491210938L245.87625,142.4950469970708L246.0925,142.2533248901372L246.30875,152.64872589111377L246.525,139.35265960693408L246.74124999999998,144.67054595947315L246.9575,147.8142837524419L247.17375,138.1440490722661L247.39000000000001,142.7367691040044L247.60625,150.9566711425786L247.8225,144.42882385253955L248.03875000000002,144.42882385253955L248.255,138.6274932861333L248.47125,147.0891174316411L248.6875,132.09964599609424L248.90375,143.22021331787158L249.12,147.8142837524419L249.33625,144.42882385253955L249.55249999999998,145.88050689697315L249.76874999999998,135.0016616821294L249.985,146.36395111084033L250.20125000000002,148.53945007324268L250.4175,149.26461639404346L250.63375,143.22021331787158L250.85000000000002,142.4950469970708L251.06625,150.47322692871143L251.2825,148.78117218017627L251.49875,144.18710174560596L251.71499999999997,140.80299224853565L251.93125,160.3851837158208L252.1475,159.66001739502002L252.36375,140.31954803466846L252.57999999999998,135.243383789063L252.79625000000001,133.0665344238286L253.01250000000002,144.67054595947315L253.22875,137.90232696533252L253.445,136.93543853759815L253.66125,144.18710174560596L253.8775,149.74806060791065L254.09375,145.63878479003955L254.31,144.91361846923877L254.52624999999998,149.98978271484424L254.7425,145.63878479003955L254.95875,139.35265960693408L255.175,151.6818374633794L255.39124999999999,141.52815856933643L255.6075,148.78117218017627L255.82375000000002,139.35265960693408L256.04,142.4950469970708L256.25625,144.42882385253955L256.47249999999997,144.42882385253955L256.68875,143.94537963867236L256.90500000000003,139.1109375000005L257.12125,139.1109375000005L257.3375,148.0560058593755L257.55375000000004,146.84739532470752L257.77,139.35265960693408L257.98625,140.31954803466846L258.2025,144.42882385253955L258.41875,141.52815856933643L258.635,148.0560058593755L258.85125,143.22021331787158L259.0675,148.53945007324268L259.28375,138.6274932861333L259.5,154.34078063964893L259.71625,140.80299224853565L259.9325,132.09964599609424L260.14875,147.0891174316411L260.365,143.46193542480518L260.58125,148.78117218017627L260.7975,144.42882385253955L261.01375,138.6274932861333L261.22999999999996,137.90232696533252L261.44625,145.15534057617236L261.6625,151.4401153564458L261.87875,137.66060485839893L262.09499999999997,151.923559570313L262.31125,136.45199432373096L262.52750000000003,139.59438171386768L262.74375,136.45199432373096L262.96,148.0560058593755L263.17625,143.46193542480518L263.39250000000004,140.56127014160205L263.60875,148.0560058593755L263.825,144.18710174560596L264.04125,164.0110153198247L264.2575,157.72624053955127L264.47375,148.0560058593755L264.69,148.29772796630908L264.90625,147.0891174316411L265.1225,143.22021331787158L265.33875,152.89044799804736L265.555,142.978491210938L265.77125,141.76988067627002L265.9875,151.1983932495122L266.20375,150.23150482177783L266.42,145.63878479003955L266.63625,139.83610382080127L266.8525,143.22021331787158L267.06874999999997,154.58250274658252L267.285,139.83610382080127L267.50125,152.64872589111377L267.7175,149.26461639404346L267.93375,147.8142837524419L268.15000000000003,153.85733642578174L268.36625,141.52815856933643L268.5825,141.04471435546924L268.79875,150.23150482177783L269.015,147.5725616455083L269.23125,148.78117218017627L269.4475,158.20968475341846L269.66375,142.2533248901372L269.88,153.13217010498096L270.09625,150.9566711425786L270.3125,141.76988067627002L270.52875,150.71494903564502L270.745,138.1440490722661L270.96125,134.5182174682622L271.1775,154.8242248535161L271.39375,147.0891174316411L271.61,143.22021331787158L271.82625,154.58250274658252L272.0425,150.47322692871143L272.25875,151.923559570313L272.475,152.89044799804736L272.69124999999997,138.3857711791997L272.90749999999997,137.66060485839893L273.12375000000003,141.76988067627002L273.34,139.59438171386768L273.55625,149.50633850097705L273.7725,142.4950469970708L273.98875000000004,173.4395278930669L274.205,150.71494903564502L274.42125,143.22021331787158" style="fill: none;" fill="none"></path></g><g><path stroke="rgb(255, 112, 67)" stroke-width="2px" d="M22.057499999999997,259.77753295898486L22.490000000000002,154.38804473877002L22.9225,131.27049865722705L23.355,114.95223083496144L23.7875,112.2325195312505L24.22,111.55191650390675L24.6525,108.83220520019582L25.084999999999997,104.75263824462941L25.5175,104.07338562011769L25.950000000000003,100.673071289063L26.3825,116.31208648681691L26.815,111.55191650390675L27.2475,105.43324127197316L27.68,114.95223083496144L28.1125,103.39278259277394L28.544999999999998,102.03292694091847L28.9775,112.2325195312505L29.41,95.91425170898488L29.8425,106.79309692382863L30.275000000000002,108.83220520019582L30.7075,106.79309692382863L31.14,106.79309692382863L31.572499999999998,103.39278259277394L32.005,109.51280822753957L32.4375,109.51280822753957L32.87,107.47234954834035L33.3025,108.83220520019582L33.735,94.55439605712941L34.1675,108.83220520019582L34.6,110.87266387939503L35.0325,108.83220520019582L35.464999999999996,106.79309692382863L35.8975,99.31321563720753L36.33,96.5935043334966L36.7625,99.31321563720753L37.195,95.91425170898488L37.6275,101.35367431640675L38.06,96.5935043334966L38.4925,104.75263824462941L38.925000000000004,106.79309692382863L39.3575,95.91425170898488L39.79,102.71352996826222L40.2225,95.23364868164113L40.655,99.99381866455128L41.087500000000006,106.11249389648488L41.52,101.35367431640675L41.9525,107.47234954834035L42.385,99.99381866455128L42.8175,95.23364868164113L43.25,96.5935043334966L43.6825,90.474829101563L44.114999999999995,95.23364868164113L44.5475,93.19454040527394L44.980000000000004,101.35367431640675L45.4125,97.95335998535207L45.845,110.19206085205128L46.277499999999996,104.07338562011769L46.71,103.39278259277394L47.1425,97.95335998535207L47.575,100.673071289063L48.00749999999999,99.99381866455128L48.44,98.63396301269582L48.8725,110.87266387939503L49.305,107.47234954834035L49.737500000000004,104.75263824462941L50.169999999999995,99.99381866455128L50.6025,91.15408172607472L51.035,102.71352996826222L51.4675,102.03292694091847L51.900000000000006,103.39278259277394L52.332499999999996,97.95335998535207L52.765,93.19454040527394L53.1975,103.39278259277394L53.63,99.99381866455128L54.0625,102.03292694091847L54.495,95.91425170898488L54.927499999999995,106.11249389648488L55.36,108.1529525756841L55.792500000000004,89.79422607421925L56.225,103.39278259277394L56.6575,96.5935043334966L57.089999999999996,101.35367431640675L57.5225,104.07338562011769L57.955,99.31321563720753L58.3875,95.23364868164113L58.82,91.83468475341847L59.2525,93.19454040527394L59.685,104.07338562011769L60.1175,95.91425170898488L60.550000000000004,104.75263824462941L60.982499999999995,99.31321563720753L61.415,102.03292694091847L61.847500000000004,116.99133911132863L62.28,102.71352996826222L62.712500000000006,99.99381866455128L63.144999999999996,101.35367431640675L63.5775,96.5935043334966L64.01,95.23364868164113L64.4425,95.23364868164113L64.875,109.51280822753957L65.30749999999999,113.59237518310597L65.74,102.71352996826222L66.1725,107.47234954834035L66.605,99.31321563720753L67.03750000000001,97.95335998535207L67.47,110.19206085205128L67.9025,106.11249389648488L68.335,104.07338562011769L68.7675,104.07338562011769L69.2,109.51280822753957L69.6325,105.43324127197316L70.065,97.95335998535207L70.49749999999999,110.87266387939503L70.92999999999999,111.55191650390675L71.3625,107.47234954834035L71.795,107.47234954834035L72.2275,102.71352996826222L72.66,107.47234954834035L73.0925,99.31321563720753L73.525,97.27410736084035L73.95750000000001,103.39278259277394L74.39,104.75263824462941L74.82249999999999,104.75263824462941L75.255,99.99381866455128L75.6875,120.39165344238332L76.12,116.99133911132863L76.5525,108.1529525756841L76.985,110.19206085205128L77.4175,108.1529525756841L77.85000000000001,113.59237518310597L78.2825,103.39278259277394L78.715,104.75263824462941L79.1475,109.51280822753957L79.58,113.59237518310597L80.0125,114.95223083496144L80.445,94.55439605712941L80.8775,108.1529525756841L81.31,112.91177215576222L81.7425,108.83220520019582L82.17500000000001,105.43324127197316L82.6075,109.51280822753957L83.04,111.55191650390675L83.4725,107.47234954834035L83.905,107.47234954834035L84.33749999999999,108.83220520019582L84.77,102.03292694091847L85.2025,106.79309692382863L85.635,113.59237518310597L86.06750000000001,105.43324127197316L86.5,112.2325195312505L86.9325,121.75150909423878L87.365,116.99133911132863L87.7975,106.79309692382863L88.22999999999999,110.19206085205128L88.6625,99.99381866455128L89.095,102.03292694091847L89.5275,115.63148345947316L89.96000000000001,114.27162780761769L90.3925,110.19206085205128L90.825,112.2325195312505L91.25750000000001,105.43324127197316L91.69,107.47234954834035L92.12249999999999,106.79309692382863L92.55499999999999,103.39278259277394L92.9875,96.5935043334966L93.42,105.43324127197316L93.8525,98.63396301269582L94.285,104.75263824462941L94.7175,114.95223083496144L95.15,100.673071289063L95.58250000000001,104.07338562011769L96.01499999999999,110.19206085205128L96.44749999999999,101.35367431640675L96.88,113.59237518310597L97.3125,97.27410736084035L97.745,94.55439605712941L98.1775,109.51280822753957L98.61,102.03292694091847L99.0425,102.71352996826222L99.47500000000001,104.75263824462941L99.90750000000001,99.31321563720753L100.33999999999999,106.79309692382863L100.7725,106.11249389648488L101.205,97.95335998535207L101.6375,105.43324127197316L102.07,108.1529525756841L102.5025,119.03179779052785L102.935,112.91177215576222L103.3675,112.2325195312505L103.80000000000001,99.31321563720753L104.2325,108.83220520019582L104.66499999999999,111.55191650390675L105.0975,116.99133911132863L105.53,108.83220520019582L105.96249999999999,115.63148345947316L106.395,100.673071289063L106.8275,118.3511947631841L107.26,114.27162780761769L107.69250000000001,112.91177215576222L108.125,102.71352996826222L108.5575,99.31321563720753L108.99,111.55191650390675L109.4225,101.35367431640675L109.85499999999999,119.71105041503957L110.2875,103.39278259277394L110.72,109.51280822753957L111.1525,102.03292694091847L111.58500000000001,97.95335998535207L112.0175,105.43324127197316L112.45,116.31208648681691L112.8825,103.39278259277394L113.315,108.83220520019582L113.7475,108.1529525756841L114.17999999999999,98.63396301269582L114.6125,101.35367431640675L115.045,96.5935043334966L115.4775,108.83220520019582L115.91,94.55439605712941L116.3425,102.03292694091847L116.775,111.55191650390675L117.2075,114.27162780761769L117.64,108.1529525756841L118.07249999999999,106.79309692382863L118.505,102.03292694091847L118.9375,109.51280822753957L119.37,112.2325195312505L119.8025,112.2325195312505L120.235,110.19206085205128L120.6675,107.47234954834035L121.10000000000001,110.87266387939503L121.5325,113.59237518310597L121.96499999999999,110.19206085205128L122.3975,110.19206085205128L122.83,114.27162780761769L123.2625,114.27162780761769L123.69500000000001,104.07338562011769L124.1275,113.59237518310597L124.56,101.35367431640675L124.9925,101.35367431640675L125.42500000000001,106.79309692382863L125.85749999999999,110.19206085205128L126.28999999999999,92.51393737793019L126.7225,94.55439605712941L127.155,114.27162780761769L127.5875,104.75263824462941L128.02,123.11136474609425L128.45250000000001,105.43324127197316L128.885,104.75263824462941L129.3175,109.51280822753957L129.75,106.11249389648488L129.96625,114.95223083496144L130.1825,111.55191650390675L130.39875,110.19206085205128L130.61499999999998,110.87266387939503L130.83125,116.99133911132863L131.04749999999999,111.55191650390675L131.26375000000002,106.11249389648488L131.48,114.95223083496144L131.69625000000002,108.1529525756841L131.9125,112.91177215576222L132.12875,112.2325195312505L132.345,103.39278259277394L132.56125,112.2325195312505L132.7775,90.474829101563L132.99375,113.59237518310597L133.21,102.71352996826222L133.42625,99.99381866455128L133.6425,107.47234954834035L133.85875,102.03292694091847L134.07500000000002,98.63396301269582L134.29125,118.3511947631841L134.5075,101.35367431640675L134.72375,111.55191650390675L134.94,104.75263824462941L135.15625,111.55191650390675L135.3725,96.5935043334966L135.58875,110.87266387939503L135.805,99.31321563720753L136.02125,103.39278259277394L136.2375,96.5935043334966L136.45374999999999,93.19454040527394L136.67,113.59237518310597L136.88625,108.83220520019582L137.1025,103.39278259277394L137.31875,106.11249389648488L137.535,99.99381866455128L137.75125,121.75150909423878L137.9675,108.83220520019582L138.18375,109.51280822753957L138.4,112.2325195312505L138.61625,117.67194213867238L138.83249999999998,108.1529525756841L139.04875,122.4307617187505L139.265,124.47122039794972L139.48125000000002,116.31208648681691L139.6975,99.99381866455128L139.91375,107.47234954834035L140.13,115.63148345947316L140.34625,103.39278259277394L140.5625,104.75263824462941L140.77875,113.59237518310597L140.99499999999998,102.71352996826222L141.21125,115.63148345947316L141.4275,114.27162780761769L141.64374999999998,102.03292694091847L141.85999999999999,103.39278259277394L142.07625000000002,116.99133911132863L142.29250000000002,106.11249389648488L142.50875,110.19206085205128L142.725,106.11249389648488L142.94125,104.07338562011769L143.1575,103.39278259277394L143.37375,104.07338562011769L143.59,108.83220520019582L143.80624999999998,104.75263824462941L144.0225,101.35367431640675L144.23875,120.39165344238332L144.455,116.99133911132863L144.67125,115.63148345947316L144.8875,112.2325195312505L145.10375000000002,110.87266387939503L145.32,108.83220520019582L145.53625,118.3511947631841L145.7525,103.39278259277394L145.96875,106.79309692382863L146.185,96.5935043334966L146.40125,106.11249389648488L146.61749999999998,104.07338562011769L146.83375,103.39278259277394L147.05,115.63148345947316L147.26625,121.75150909423878L147.4825,115.63148345947316L147.69875,107.47234954834035L147.91500000000002,109.51280822753957L148.13125,116.31208648681691L148.3475,104.07338562011769L148.56375,96.5935043334966L148.78,110.19206085205128L148.99625,110.87266387939503L149.2125,110.19206085205128L149.42874999999998,115.63148345947316L149.64499999999998,97.27410736084035L149.86125,112.91177215576222L150.07750000000001,114.95223083496144L150.29375,115.63148345947316L150.51,103.39278259277394L150.72625000000002,106.79309692382863L150.9425,112.2325195312505L151.15875,98.63396301269582L151.375,112.2325195312505L151.59124999999997,114.95223083496144L151.8075,107.47234954834035L152.02375,104.75263824462941L152.24,118.3511947631841L152.45624999999998,105.43324127197316L152.6725,110.87266387939503L152.88875000000002,105.43324127197316L153.105,99.31321563720753L153.32125,108.1529525756841L153.5375,116.99133911132863L153.75375,120.39165344238332L153.97,99.31321563720753L154.18625,103.39278259277394L154.40249999999997,107.47234954834035L154.61875,126.51032867431691L154.835,119.71105041503957L155.05125,111.55191650390675L155.26749999999998,106.79309692382863L155.48375,104.75263824462941L155.70000000000002,95.91425170898488L155.91625,98.63396301269582L156.1325,103.39278259277394L156.34875,110.87266387939503L156.565,114.27162780761769L156.78125,112.91177215576222L156.9975,123.11136474609425L157.21375,100.673071289063L157.43,106.11249389648488L157.64625,101.35367431640675L157.8625,108.83220520019582L158.07874999999999,102.03292694091847L158.295,103.39278259277394L158.51125000000002,97.27410736084035L158.7275,104.75263824462941L158.94375,103.39278259277394L159.16,101.35367431640675L159.37625000000003,102.03292694091847L159.5925,114.27162780761769L159.80875,99.99381866455128L160.025,107.47234954834035L160.24124999999998,109.51280822753957L160.4575,101.35367431640675L160.67375,98.63396301269582L160.89,106.79309692382863L161.10625,104.07338562011769L161.32250000000002,114.95223083496144L161.53875,93.87379302978566L161.755,106.11249389648488L161.97125,98.63396301269582L162.18749999999997,102.03292694091847L162.40375,97.95335998535207L162.62,106.79309692382863L162.83625,114.27162780761769L163.05249999999998,102.03292694091847L163.26875,101.35367431640675L163.485,96.5935043334966L163.70125,108.1529525756841L163.9175,97.95335998535207L164.13375,97.27410736084035L164.35000000000002,103.39278259277394L164.56625,108.1529525756841L164.7825,104.75263824462941L164.99875,95.91425170898488L165.215,106.79309692382863L165.43125,102.03292694091847L165.6475,101.35367431640675L165.86374999999998,105.43324127197316L166.08,108.1529525756841L166.29625000000001,101.35367431640675L166.5125,107.47234954834035L166.72875,106.79309692382863L166.945,106.79309692382863L167.16125000000002,102.71352996826222L167.3775,100.673071289063L167.59375,98.63396301269582L167.81,114.27162780761769L168.02625,102.03292694091847L168.2425,105.43324127197316L168.45875,106.11249389648488L168.67499999999998,99.99381866455128L168.89124999999999,107.47234954834035L169.10750000000002,97.95335998535207L169.32375,108.1529525756841L169.54,105.43324127197316L169.75625,99.31321563720753L169.97250000000003,107.47234954834035L170.18875,106.79309692382863L170.405,97.27410736084035L170.62125,106.79309692382863L170.83749999999998,119.71105041503957L171.05375,100.673071289063L171.27,99.31321563720753L171.48624999999998,114.27162780761769L171.7025,103.39278259277394L171.91875000000002,109.51280822753957L172.13500000000002,98.63396301269582L172.35125,99.99381866455128L172.5675,108.1529525756841L172.78375,107.47234954834035L173,104.75263824462941L173.21625,95.91425170898488L173.4325,104.07338562011769L173.64874999999998,95.23364868164113L173.865,104.07338562011769L174.08125,102.03292694091847L174.29749999999999,102.71352996826222L174.51375,104.07338562011769L174.73,110.19206085205128L174.94625000000002,104.75263824462941L175.1625,106.11249389648488L175.37875,104.75263824462941L175.595,107.47234954834035L175.81125,108.1529525756841L176.0275,105.43324127197316L176.24375,99.99381866455128L176.45999999999998,93.87379302978566L176.67625,110.19206085205128L176.8925,104.75263824462941L177.10875000000001,110.87266387939503L177.325,104.07338562011769L177.54125,107.47234954834035L177.75750000000002,114.27162780761769L177.97375,105.43324127197316L178.19,110.87266387939503L178.40625,106.79309692382863L178.6225,109.51280822753957L178.83875,103.39278259277394L179.055,99.99381866455128L179.27124999999998,97.27410736084035L179.48749999999998,109.51280822753957L179.70375,102.71352996826222L179.92000000000002,104.75263824462941L180.13625,110.87266387939503L180.3525,103.39278259277394L180.56875000000002,111.55191650390675L180.785,110.19206085205128L181.00125,110.87266387939503L181.2175,114.27162780761769L181.43374999999997,99.99381866455128L181.65,110.87266387939503L181.86625,110.19206085205128L182.0825,100.673071289063L182.29874999999998,109.51280822753957L182.51500000000001,117.67194213867238L182.73125000000002,109.51280822753957L182.9475,99.31321563720753L183.16375,102.71352996826222L183.38,117.67194213867238L183.59625,95.91425170898488L183.8125,108.83220520019582L184.02875,110.19206085205128L184.24499999999998,100.673071289063L184.46125,104.75263824462941L184.6775,102.03292694091847L184.89375,114.27162780761769L185.10999999999999,102.03292694091847L185.32625,101.35367431640675L185.54250000000002,103.39278259277394L185.75875,98.63396301269582L185.975,102.03292694091847L186.19125,106.79309692382863L186.4075,99.31321563720753L186.62375,118.3511947631841L186.84,106.79309692382863L187.05624999999998,95.91425170898488L187.2725,99.99381866455128L187.48875,115.63148345947316L187.705,101.35367431640675L187.92125,115.63148345947316L188.1375,105.43324127197316L188.35375000000002,116.31208648681691L188.57,106.79309692382863L188.78625,100.673071289063L189.0025,97.27410736084035L189.21875000000003,93.19454040527394L189.435,99.31321563720753L189.65125,102.71352996826222L189.8675,113.59237518310597L190.08374999999998,95.23364868164113L190.3,102.71352996826222L190.51625,96.5935043334966L190.7325,112.2325195312505L190.94875,111.55191650390675L191.16500000000002,110.87266387939503L191.38125,104.07338562011769L191.5975,102.03292694091847L191.81375,116.99133911132863L192.02999999999997,99.99381866455128L192.24625,91.83468475341847L192.4625,105.43324127197316L192.67875,98.63396301269582L192.89499999999998,103.39278259277394L193.11125,104.75263824462941L193.32750000000001,96.5935043334966L193.54375,97.95335998535207L193.76,107.47234954834035L193.97625,102.03292694091847L194.1925,110.87266387939503L194.40875,103.39278259277394L194.625,110.19206085205128L194.84125,110.87266387939503L195.0575,106.79309692382863L195.27375,96.5935043334966L195.49,112.91177215576222L195.70624999999998,98.63396301269582L195.9225,106.11249389648488L196.13875000000002,106.11249389648488L196.355,106.79309692382863L196.57125,99.99381866455128L196.7875,101.35367431640675L197.00375000000003,97.95335998535207L197.22,107.47234954834035L197.43625,99.31321563720753L197.6525,95.91425170898488L197.86875,103.39278259277394L198.085,107.47234954834035L198.30125,100.673071289063L198.51749999999998,114.95223083496144L198.73375,110.19206085205128L198.95000000000002,101.35367431640675L199.16625,118.3511947631841L199.3825,97.95335998535207L199.59875,101.35367431640675L199.81500000000003,99.31321563720753L200.03125,99.99381866455128L200.2475,109.51280822753957L200.46375,102.03292694091847L200.67999999999998,108.83220520019582L200.89625,95.91425170898488L201.1125,101.35367431640675L201.32874999999999,103.39278259277394L201.545,99.31321563720753L201.76125000000002,103.39278259277394L201.97750000000002,101.35367431640675L202.19375,105.43324127197316L202.41,97.95335998535207L202.62625,99.31321563720753L202.8425,108.1529525756841L203.05875,99.31321563720753L203.275,100.673071289063L203.49124999999998,113.59237518310597L203.7075,107.47234954834035L203.92375,109.51280822753957L204.14,99.31321563720753L204.35625,97.27410736084035L204.5725,106.79309692382863L204.78875000000002,99.31321563720753L205.005,113.59237518310597L205.22125,104.07338562011769L205.4375,107.47234954834035L205.65375,99.31321563720753L205.87,95.91425170898488L206.08625,106.79309692382863L206.30249999999998,118.3511947631841L206.51875,108.1529525756841L206.735,97.95335998535207L206.95125,110.87266387939503L207.1675,101.35367431640675L207.38375,100.673071289063L207.60000000000002,101.35367431640675L207.81625,104.75263824462941L208.0325,102.03292694091847L208.24875,104.07338562011769L208.465,106.79309692382863L208.68125,114.27162780761769L208.8975,108.1529525756841L209.11374999999998,100.673071289063L209.32999999999998,106.79309692382863L209.54625000000001,105.43324127197316L209.76250000000002,103.39278259277394L209.97875,104.07338562011769L210.195,102.03292694091847L210.41125000000002,108.1529525756841L210.6275,95.91425170898488L210.84375,97.95335998535207L211.06,110.19206085205128L211.27624999999998,107.47234954834035L211.4925,105.43324127197316L211.70875,102.71352996826222L211.92499999999998,97.27410736084035L212.14124999999999,99.31321563720753L212.35750000000002,113.59237518310597L212.57375000000002,101.35367431640675L212.79,104.07338562011769L213.00625,95.23364868164113L213.2225,98.63396301269582L213.43875,106.79309692382863L213.655,110.19206085205128L213.87125,92.51393737793019L214.08749999999998,103.39278259277394L214.30375,99.31321563720753L214.52,108.1529525756841L214.73625,107.47234954834035L214.9525,102.71352996826222L215.16875,102.71352996826222L215.38500000000002,112.2325195312505L215.60125,108.1529525756841L215.8175,106.11249389648488L216.03375,111.55191650390675L216.25,99.99381866455128L216.46625,99.99381866455128L216.6825,103.39278259277394L216.89874999999998,100.673071289063L217.115,95.91425170898488L217.33125,93.87379302978566L217.5475,112.2325195312505L217.76375,110.19206085205128L217.98,109.51280822753957L218.19625000000002,107.47234954834035L218.4125,100.673071289063L218.62875,97.27410736084035L218.845,119.03179779052785L219.06125,106.11249389648488L219.2775,109.51280822753957L219.49375,102.71352996826222L219.70999999999998,102.71352996826222L219.92624999999998,103.39278259277394L220.1425,107.47234954834035L220.35875000000001,108.83220520019582L220.575,165.94749298095752L220.79125,142.82994689941455L221.00750000000002,115.63148345947316L221.22375,102.03292694091847L221.44,112.2325195312505L221.65625,97.95335998535207L221.87249999999997,102.71352996826222L222.08875,94.55439605712941L222.305,116.31208648681691L222.52125,108.83220520019582L222.73749999999998,112.91177215576222L222.95375,106.11249389648488L223.17000000000002,106.79309692382863L223.38625,102.71352996826222L223.6025,109.51280822753957L223.81875,91.83468475341847L224.035,105.43324127197316L224.25125,106.79309692382863L224.4675,112.2325195312505L224.68374999999997,108.83220520019582L224.9,95.91425170898488L225.11625,114.27162780761769L225.3325,102.71352996826222L225.54874999999998,99.31321563720753L225.765,94.55439605712941L225.98125000000002,106.11249389648488L226.1975,102.71352996826222L226.41375,106.79309692382863L226.63,108.83220520019582L226.84625,97.95335998535207L227.0625,106.79309692382863L227.27875,110.19206085205128L227.495,116.99133911132863L227.71125,96.5935043334966L227.9275,95.23364868164113L228.14375,106.11249389648488L228.35999999999999,103.39278259277394L228.57625,102.71352996826222L228.79250000000002,110.19206085205128L229.00875,108.1529525756841L229.225,101.35367431640675L229.44125,108.1529525756841L229.65750000000003,110.19206085205128L229.87375,99.99381866455128L230.09,115.63148345947316L230.30625,110.87266387939503L230.52249999999998,107.47234954834035L230.73875,108.1529525756841L230.955,99.99381866455128L231.17125,99.99381866455128L231.3875,106.11249389648488L231.60375000000002,103.39278259277394L231.82,101.35367431640675L232.03625,100.673071289063L232.2525,106.79309692382863L232.46874999999997,102.71352996826222L232.685,109.51280822753957L232.90125,99.99381866455128L233.1175,107.47234954834035L233.33374999999998,102.03292694091847L233.55,106.79309692382863L233.76625,104.75263824462941L233.9825,102.03292694091847L234.19875,102.71352996826222L234.415,109.51280822753957L234.63125000000002,103.39278259277394L234.8475,92.51393737793019L235.06375,99.99381866455128L235.28,99.31321563720753L235.49625,102.71352996826222L235.7125,106.79309692382863L235.92875,97.27410736084035L236.14499999999998,106.79309692382863L236.36125,95.91425170898488L236.57750000000001,102.71352996826222L236.79375,101.35367431640675L237.01,107.47234954834035L237.22625,97.27410736084035L237.44250000000002,97.95335998535207L237.65875,93.87379302978566L237.875,96.5935043334966L238.09125,108.1529525756841L238.3075,102.71352996826222L238.52375,102.03292694091847L238.74,99.99381866455128L238.95624999999998,104.07338562011769L239.17249999999999,117.67194213867238L239.38875000000002,102.71352996826222L239.605,104.07338562011769L239.82125,92.51393737793019L240.0375,109.51280822753957L240.25375000000003,116.99133911132863L240.47,101.35367431640675L240.68625,108.1529525756841L240.9025,104.07338562011769L241.11874999999998,106.79309692382863L241.335,90.474829101563L241.55125,93.87379302978566L241.76749999999998,112.91177215576222L241.98375,103.39278259277394L242.20000000000002,116.31208648681691L242.41625000000002,107.47234954834035L242.6325,103.39278259277394L242.84875,106.11249389648488L243.065,102.71352996826222L243.28125,104.07338562011769L243.4975,99.31321563720753L243.71375,107.47234954834035L243.92999999999998,101.35367431640675L244.14625,107.47234954834035L244.3625,97.95335998535207L244.57874999999999,108.83220520019582L244.795,104.07338562011769L245.01125,99.99381866455128L245.22750000000002,103.39278259277394L245.44375,95.91425170898488L245.66,102.03292694091847L245.87625,100.673071289063L246.0925,99.99381866455128L246.30875,100.673071289063L246.525,99.31321563720753L246.74124999999998,104.75263824462941L246.9575,105.43324127197316L247.17375,98.63396301269582L247.39000000000001,97.95335998535207L247.60625,116.31208648681691L247.8225,96.5935043334966L248.03875000000002,98.63396301269582L248.255,99.31321563720753L248.47125,104.75263824462941L248.6875,97.95335998535207L248.90375,97.95335998535207L249.12,103.39278259277394L249.33625,103.39278259277394L249.55249999999998,105.43324127197316L249.76874999999998,104.75263824462941L249.985,103.39278259277394L250.20125000000002,114.95223083496144L250.4175,107.47234954834035L250.63375,101.35367431640675L250.85000000000002,106.79309692382863L251.06625,107.47234954834035L251.2825,98.63396301269582L251.49875,102.03292694091847L251.71499999999997,105.43324127197316L251.93125,112.2325195312505L252.1475,114.95223083496144L252.36375,102.71352996826222L252.57999999999998,97.95335998535207L252.79625000000001,89.11497344970753L253.01250000000002,106.11249389648488L253.22875,97.27410736084035L253.445,107.47234954834035L253.66125,111.55191650390675L253.8775,96.5935043334966L254.09375,101.35367431640675L254.31,112.2325195312505L254.52624999999998,106.79309692382863L254.7425,104.75263824462941L254.95875,111.55191650390675L255.175,106.11249389648488L255.39124999999999,101.35367431640675L255.6075,116.31208648681691L255.82375000000002,99.31321563720753L256.04,97.27410736084035L256.25625,105.43324127197316L256.47249999999997,106.11249389648488L256.68875,97.95335998535207L256.90500000000003,87.75511779785207L257.12125,102.71352996826222L257.3375,106.11249389648488L257.55375000000004,115.63148345947316L257.77,99.31321563720753L257.98625,98.63396301269582L258.2025,102.03292694091847L258.41875,99.31321563720753L258.635,106.11249389648488L258.85125,99.31321563720753L259.0675,106.79309692382863L259.28375,105.43324127197316L259.5,106.11249389648488L259.71625,110.87266387939503L259.9325,102.03292694091847L260.14875,122.4307617187505L260.365,112.2325195312505L260.58125,114.95223083496144L260.7975,102.03292694091847L261.01375,103.39278259277394L261.22999999999996,103.39278259277394L261.44625,112.2325195312505L261.6625,114.95223083496144L261.87875,97.95335998535207L262.09499999999997,115.63148345947316L262.31125,95.23364868164113L262.52750000000003,104.75263824462941L262.74375,110.87266387939503L262.96,106.79309692382863L263.17625,101.35367431640675L263.39250000000004,103.39278259277394L263.60875,102.71352996826222L263.825,107.47234954834035L264.04125,116.99133911132863L264.2575,110.19206085205128L264.47375,110.87266387939503L264.69,97.27410736084035L264.90625,105.43324127197316L265.1225,100.673071289063L265.33875,113.59237518310597L265.555,109.51280822753957L265.77125,108.1529525756841L265.9875,112.2325195312505L266.20375,96.5935043334966L266.42,111.55191650390675L266.63625,100.673071289063L266.8525,96.5935043334966L267.06874999999997,104.07338562011769L267.285,99.31321563720753L267.50125,109.51280822753957L267.7175,115.63148345947316L267.93375,103.39278259277394L268.15000000000003,110.87266387939503L268.36625,102.71352996826222L268.5825,110.87266387939503L268.79875,103.39278259277394L269.015,95.91425170898488L269.23125,99.31321563720753L269.4475,112.91177215576222L269.66375,103.39278259277394L269.88,106.79309692382863L270.09625,109.51280822753957L270.3125,99.31321563720753L270.52875,105.43324127197316L270.745,104.07338562011769L270.96125,93.87379302978566L271.1775,107.47234954834035L271.39375,107.47234954834035L271.61,102.71352996826222L271.82625,104.75263824462941L272.0425,99.99381866455128L272.25875,111.55191650390675L272.475,105.43324127197316L272.69124999999997,95.23364868164113L272.90749999999997,95.91425170898488L273.12375000000003,97.95335998535207L273.34,99.99381866455128L273.55625,108.83220520019582L273.7725,108.1529525756841L273.98875000000004,119.71105041503957L274.205,108.83220520019582L274.42125,106.11249389648488" style="fill: none;" fill="none"></path></g></g></g></g></g></g><g transform="translate(48, 177)" clip-path="url(#clip_1)"><clipPath id="clip_1"><rect width="281" height="23"></rect></clipPath><g><g><line x1="0" y1="0" x2="0" y2="5" style="visibility: inherit;" fill="rgb(0, 0, 0)" stroke="rgb(204, 204, 204)" stroke-width="1px"></line><line x1="21.625" y1="0" x2="21.625" y2="5" style="visibility: inherit;" fill="rgb(0, 0, 0)" stroke="rgb(204, 204, 204)" stroke-width="1px"></line><line x1="43.25" y1="0" x2="43.25" y2="5" style="visibility: inherit;" fill="rgb(0, 0, 0)" stroke="rgb(204, 204, 204)" stroke-width="1px"></line><line x1="64.875" y1="0" x2="64.875" y2="5" style="visibility: inherit;" fill="rgb(0, 0, 0)" stroke="rgb(204, 204, 204)" stroke-width="1px"></line><line x1="86.5" y1="0" x2="86.5" y2="5" style="visibility: inherit;" fill="rgb(0, 0, 0)" stroke="rgb(204, 204, 204)" stroke-width="1px"></line><line x1="108.125" y1="0" x2="108.125" y2="5" style="visibility: inherit;" fill="rgb(0, 0, 0)" stroke="rgb(204, 204, 204)" stroke-width="1px"></line><line x1="129.75" y1="0" x2="129.75" y2="5" style="visibility: inherit;" fill="rgb(0, 0, 0)" stroke="rgb(204, 204, 204)" stroke-width="1px"></line><line x1="151.375" y1="0" x2="151.375" y2="5" style="visibility: inherit;" fill="rgb(0, 0, 0)" stroke="rgb(204, 204, 204)" stroke-width="1px"></line><line x1="173" y1="0" x2="173" y2="5" style="visibility: inherit;" fill="rgb(0, 0, 0)" stroke="rgb(204, 204, 204)" stroke-width="1px"></line><line x1="194.625" y1="0" x2="194.625" y2="5" style="visibility: inherit;" fill="rgb(0, 0, 0)" stroke="rgb(204, 204, 204)" stroke-width="1px"></line><line x1="216.25" y1="0" x2="216.25" y2="5" style="visibility: inherit;" fill="rgb(0, 0, 0)" stroke="rgb(204, 204, 204)" stroke-width="1px"></line><line x1="237.875" y1="0" x2="237.875" y2="5" style="visibility: inherit;" fill="rgb(0, 0, 0)" stroke="rgb(204, 204, 204)" stroke-width="1px"></line><line x1="259.5" y1="0" x2="259.5" y2="5" style="visibility: inherit;" fill="rgb(0, 0, 0)" stroke="rgb(204, 204, 204)" stroke-width="1px"></line><line x1="281.125" y1="0" x2="281.125" y2="5" style="visibility: inherit;" fill="rgb(0, 0, 0)" stroke="rgb(204, 204, 204)" stroke-width="1px"></line></g><g transform="translate(0, 8)"><text x="0" y="0" dx="0em" dy="0.95em" style="text-anchor: middle; visibility: hidden; font-family: &quot;Helvetica Neue&quot;, sans-serif; font-size: 12px; font-weight: 200;" fill="rgb(50, 49, 63)" stroke="none" stroke-width="1px">-100</text><text x="21.625" y="0" dx="0em" dy="0.95em" style="text-anchor: middle; visibility: inherit; font-family: &quot;Helvetica Neue&quot;, sans-serif; font-size: 12px; font-weight: 200;" fill="rgb(50, 49, 63)" stroke="none" stroke-width="1px">0</text><text x="43.25" y="0" dx="0em" dy="0.95em" style="text-anchor: middle; visibility: hidden; font-family: &quot;Helvetica Neue&quot;, sans-serif; font-size: 12px; font-weight: 200;" fill="rgb(50, 49, 63)" stroke="none" stroke-width="1px">100</text><text x="64.875" y="0" dx="0em" dy="0.95em" style="text-anchor: middle; visibility: inherit; font-family: &quot;Helvetica Neue&quot;, sans-serif; font-size: 12px; font-weight: 200;" fill="rgb(50, 49, 63)" stroke="none" stroke-width="1px">200</text><text x="86.5" y="0" dx="0em" dy="0.95em" style="text-anchor: middle; visibility: hidden; font-family: &quot;Helvetica Neue&quot;, sans-serif; font-size: 12px; font-weight: 200;" fill="rgb(50, 49, 63)" stroke="none" stroke-width="1px">300</text><text x="108.125" y="0" dx="0em" dy="0.95em" style="text-anchor: middle; visibility: inherit; font-family: &quot;Helvetica Neue&quot;, sans-serif; font-size: 12px; font-weight: 200;" fill="rgb(50, 49, 63)" stroke="none" stroke-width="1px">400</text><text x="129.75" y="0" dx="0em" dy="0.95em" style="text-anchor: middle; visibility: hidden; font-family: &quot;Helvetica Neue&quot;, sans-serif; font-size: 12px; font-weight: 200;" fill="rgb(50, 49, 63)" stroke="none" stroke-width="1px">500</text><text x="151.375" y="0" dx="0em" dy="0.95em" style="text-anchor: middle; visibility: inherit; font-family: &quot;Helvetica Neue&quot;, sans-serif; font-size: 12px; font-weight: 200;" fill="rgb(50, 49, 63)" stroke="none" stroke-width="1px">600</text><text x="173" y="0" dx="0em" dy="0.95em" style="text-anchor: middle; visibility: hidden; font-family: &quot;Helvetica Neue&quot;, sans-serif; font-size: 12px; font-weight: 200;" fill="rgb(50, 49, 63)" stroke="none" stroke-width="1px">700</text><text x="194.625" y="0" dx="0em" dy="0.95em" style="text-anchor: middle; visibility: inherit; font-family: &quot;Helvetica Neue&quot;, sans-serif; font-size: 12px; font-weight: 200;" fill="rgb(50, 49, 63)" stroke="none" stroke-width="1px">800</text><text x="216.25" y="0" dx="0em" dy="0.95em" style="text-anchor: middle; visibility: hidden; font-family: &quot;Helvetica Neue&quot;, sans-serif; font-size: 12px; font-weight: 200;" fill="rgb(50, 49, 63)" stroke="none" stroke-width="1px">900</text><text x="237.875" y="0" dx="0em" dy="0.95em" style="text-anchor: middle; visibility: inherit; font-family: &quot;Helvetica Neue&quot;, sans-serif; font-size: 12px; font-weight: 200;" fill="rgb(50, 49, 63)" stroke="none" stroke-width="1px">1k</text><text x="259.5" y="0" dx="0em" dy="0.95em" style="text-anchor: middle; visibility: hidden; font-family: &quot;Helvetica Neue&quot;, sans-serif; font-size: 12px; font-weight: 200;" fill="rgb(50, 49, 63)" stroke="none" stroke-width="1px">1.1k</text><text x="281.125" y="0" dx="0em" dy="0.95em" style="text-anchor: middle; visibility: hidden; font-family: &quot;Helvetica Neue&quot;, sans-serif; font-size: 12px; font-weight: 200;" fill="rgb(50, 49, 63)" stroke="none" stroke-width="1px">1.2k</text></g><line x1="0" y1="0" x2="281.125" y2="0" fill="rgb(0, 0, 0)" stroke="rgb(204, 204, 204)" stroke-width="1px"></line></g></g></g></g></svg>