<svg viewBox="0 0 330 200" xmlns="http://www.w3.org/2000/svg"><g><g><g><g><g><line x1="48.875" y1="177" x2="43.875" y2="177" style="visibility: inherit;" fill="rgb(0, 0, 0)" stroke="rgb(204, 204, 204)" stroke-width="1px"></line><line x1="48.875" y1="164.3571428571428" x2="43.875" y2="164.3571428571428" style="visibility: inherit;" fill="rgb(0, 0, 0)" stroke="rgb(204, 204, 204)" stroke-width="1px"></line><line x1="48.875" y1="151.7142857142857" x2="43.875" y2="151.7142857142857" style="visibility: inherit;" fill="rgb(0, 0, 0)" stroke="rgb(204, 204, 204)" stroke-width="1px"></line><line x1="48.875" y1="139.0714285714285" x2="43.875" y2="139.0714285714285" style="visibility: inherit;" fill="rgb(0, 0, 0)" stroke="rgb(204, 204, 204)" stroke-width="1px"></line><line x1="48.875" y1="126.42857142857139" x2="43.875" y2="126.42857142857139" style="visibility: inherit;" fill="rgb(0, 0, 0)" stroke="rgb(204, 204, 204)" stroke-width="1px"></line><line x1="48.875" y1="113.7857142857143" x2="43.875" y2="113.7857142857143" style="visibility: inherit;" fill="rgb(0, 0, 0)" stroke="rgb(204, 204, 204)" stroke-width="1px"></line><line x1="48.875" y1="101.1428571428571" x2="43.875" y2="101.1428571428571" style="visibility: inherit;" fill="rgb(0, 0, 0)" stroke="rgb(204, 204, 204)" stroke-width="1px"></line><line x1="48.875" y1="88.5" x2="43.875" y2="88.5" style="visibility: inherit;" fill="rgb(0, 0, 0)" stroke="rgb(204, 204, 204)" stroke-width="1px"></line><line x1="48.875" y1="75.85714285714279" x2="43.875" y2="75.85714285714279" style="visibility: inherit;" fill="rgb(0, 0, 0)" stroke="rgb(204, 204, 204)" stroke-width="1px"></line><line x1="48.875" y1="63.21428571428571" x2="43.875" y2="63.21428571428571" style="visibility: inherit;" fill="rgb(0, 0, 0)" stroke="rgb(204, 204, 204)" stroke-width="1px"></line><line x1="48.875" y1="50.57142857142861" x2="43.875" y2="50.57142857142861" style="visibility: inherit;" fill="rgb(0, 0, 0)" stroke="rgb(204, 204, 204)" stroke-width="1px"></line><line x1="48.875" y1="37.92857142857139" x2="43.875" y2="37.92857142857139" style="visibility: inherit;" fill="rgb(0, 0, 0)" stroke="rgb(204, 204, 204)" stroke-width="1px"></line><line x1="48.875" y1="25.285714285714306" x2="43.875" y2="25.285714285714306" style="visibility: inherit;" fill="rgb(0, 0, 0)" stroke="rgb(204, 204, 204)" stroke-width="1px"></line><line x1="48.875" y1="12.64285714285711" x2="43.875" y2="12.64285714285711" style="visibility: inherit;" fill="rgb(0, 0, 0)" stroke="rgb(204, 204, 204)" stroke-width="1px"></line><line x1="48.875" y1="0" x2="43.875" y2="0" style="visibility: inherit;" fill="rgb(0, 0, 0)" stroke="rgb(204, 204, 204)" stroke-width="1px"></line></g><g transform="translate(38.875, 0)"><text x="0" y="177" dx="0em" dy="0.3em" style="text-anchor: end; visibility: hidden; font-family: &quot;Helvetica Neue&quot;, sans-serif; font-size: 12px; font-weight: 200;" fill="rgb(50, 49, 63)" stroke="none" stroke-width="1px">3.3</text><text x="0" y="164.3571428571428" dx="0em" dy="0.3em" style="text-anchor: end; visibility: inherit; font-family: &quot;Helvetica Neue&quot;, sans-serif; font-size: 12px; font-weight: 200;" fill="rgb(50, 49, 63)" stroke="none" stroke-width="1px">3.35</text><text x="0" y="151.7142857142857" dx="0em" dy="0.3em" style="text-anchor: end; visibility: hidden; font-family: &quot;Helvetica Neue&quot;, sans-serif; font-size: 12px; font-weight: 200;" fill="rgb(50, 49, 63)" stroke="none" stroke-width="1px">3.4</text><text x="0" y="139.0714285714285" dx="0em" dy="0.3em" style="text-anchor: end; visibility: inherit; font-family: &quot;Helvetica Neue&quot;, sans-serif; font-size: 12px; font-weight: 200;" fill="rgb(50, 49, 63)" stroke="none" stroke-width="1px">3.45</text><text x="0" y="126.42857142857139" dx="0em" dy="0.3em" style="text-anchor: end; visibility: hidden; font-family: &quot;Helvetica Neue&quot;, sans-serif; font-size: 12px; font-weight: 200;" fill="rgb(50, 49, 63)" stroke="none" stroke-width="1px">3.5</text><text x="0" y="113.7857142857143" dx="0em" dy="0.3em" style="text-anchor: end; visibility: inherit; font-family: &quot;Helvetica Neue&quot;, sans-serif; font-size: 12px; font-weight: 200;" fill="rgb(50, 49, 63)" stroke="none" stroke-width="1px">3.55</text><text x="0" y="101.1428571428571" dx="0em" dy="0.3em" style="text-anchor: end; visibility: hidden; font-family: &quot;Helvetica Neue&quot;, sans-serif; font-size: 12px; font-weight: 200;" fill="rgb(50, 49, 63)" stroke="none" stroke-width="1px">3.6</text><text x="0" y="88.5" dx="0em" dy="0.3em" style="text-anchor: end; visibility: inherit; font-family: &quot;Helvetica Neue&quot;, sans-serif; font-size: 12px; font-weight: 200;" fill="rgb(50, 49, 63)" stroke="none" stroke-width="1px">3.65</text><text x="0" y="75.85714285714279" dx="0em" dy="0.3em" style="text-anchor: end; visibility: hidden; font-family: &quot;Helvetica Neue&quot;, sans-serif; font-size: 12px; font-weight: 200;" fill="rgb(50, 49, 63)" stroke="none" stroke-width="1px">3.7</text><text x="0" y="63.21428571428571" dx="0em" dy="0.3em" style="text-anchor: end; visibility: inherit; font-family: &quot;Helvetica Neue&quot;, sans-serif; font-size: 12px; font-weight: 200;" fill="rgb(50, 49, 63)" stroke="none" stroke-width="1px">3.75</text><text x="0" y="50.57142857142861" dx="0em" dy="0.3em" style="text-anchor: end; visibility: hidden; font-family: &quot;Helvetica Neue&quot;, sans-serif; font-size: 12px; font-weight: 200;" fill="rgb(50, 49, 63)" stroke="none" stroke-width="1px">3.8</text><text x="0" y="37.92857142857139" dx="0em" dy="0.3em" style="text-anchor: end; visibility: inherit; font-family: &quot;Helvetica Neue&quot;, sans-serif; font-size: 12px; font-weight: 200;" fill="rgb(50, 49, 63)" stroke="none" stroke-width="1px">3.85</text><text x="0" y="25.285714285714306" dx="0em" dy="0.3em" style="text-anchor: end; visibility: hidden; font-family: &quot;Helvetica Neue&quot;, sans-serif; font-size: 12px; font-weight: 200;" fill="rgb(50, 49, 63)" stroke="none" stroke-width="1px">3.9</text><text x="0" y="12.64285714285711" dx="0em" dy="0.3em" style="text-anchor: end; visibility: inherit; font-family: &quot;Helvetica Neue&quot;, sans-serif; font-size: 12px; font-weight: 200;" fill="rgb(50, 49, 63)" stroke="none" stroke-width="1px">3.95</text><text x="0" y="0" dx="0em" dy="0.3em" style="text-anchor: end; visibility: hidden; font-family: &quot;Helvetica Neue&quot;, sans-serif; font-size: 12px; font-weight: 200;" fill="rgb(50, 49, 63)" stroke="none" stroke-width="1px">4</text></g><line x1="48.875" y1="0" x2="48.875" y2="177" fill="rgb(0, 0, 0)" stroke="rgb(204, 204, 204)" stroke-width="1px"></line></g></g><g transform="translate(48, 0)" clip-path="url(#clip_0)"><clipPath id="clip_0"><rect width="281" height="177"></rect></clipPath><g><g><g><line x1="0" y1="0" x2="0" y2="177" fill="rgb(0, 0, 0)" stroke="rgb(60, 60, 60)" stroke-width="1px" opacity="0.25"></line><line x1="21.625" y1="0" x2="21.625" y2="177" fill="rgb(0, 0, 0)" stroke="rgb(60, 60, 60)" stroke-width="1px" opacity="0.25"></line><line x1="43.25" y1="0" x2="43.25" y2="177" fill="rgb(0, 0, 0)" stroke="rgb(60, 60, 60)" stroke-width="1px" opacity="0.25"></line><line x1="64.875" y1="0" x2="64.875" y2="177" fill="rgb(0, 0, 0)" stroke="rgb(60, 60, 60)" stroke-width="1px" opacity="0.25"></line><line x1="86.5" y1="0" x2="86.5" y2="177" fill="rgb(0, 0, 0)" stroke="rgb(60, 60, 60)" stroke-width="1px" opacity="0.25"></line><line x1="108.125" y1="0" x2="108.125" y2="177" fill="rgb(0, 0, 0)" stroke="rgb(60, 60, 60)" stroke-width="1px" opacity="0.25"></line><line x1="129.75" y1="0" x2="129.75" y2="177" fill="rgb(0, 0, 0)" stroke="rgb(60, 60, 60)" stroke-width="1px" opacity="0.25"></line><line x1="151.375" y1="0" x2="151.375" y2="177" fill="rgb(0, 0, 0)" stroke="rgb(60, 60, 60)" stroke-width="1px" opacity="0.25"></line><line x1="173" y1="0" x2="173" y2="177" fill="rgb(0, 0, 0)" stroke="rgb(60, 60, 60)" stroke-width="1px" opacity="0.25"></line><line x1="194.625" y1="0" x2="194.625" y2="177" fill="rgb(0, 0, 0)" stroke="rgb(60, 60, 60)" stroke-width="1px" opacity="0.25"></line><line x1="216.25" y1="0" x2="216.25" y2="177" fill="rgb(0, 0, 0)" stroke="rgb(60, 60, 60)" stroke-width="1px" opacity="0.25"></line><line x1="237.875" y1="0" x2="237.875" y2="177" fill="rgb(0, 0, 0)" stroke="rgb(60, 60, 60)" stroke-width="1px" opacity="0.25"></line><line x1="259.5" y1="0" x2="259.5" y2="177" fill="rgb(0, 0, 0)" stroke="rgb(60, 60, 60)" stroke-width="1px" opacity="0.25"></line><line x1="281.125" y1="0" x2="281.125" y2="177" fill="rgb(0, 0, 0)" stroke="rgb(60, 60, 60)" stroke-width="1px" opacity="0.25"></line></g><g><line x1="0" y1="177" x2="281.125" y2="177" fill="rgb(0, 0, 0)" stroke="rgb(60, 60, 60)" stroke-width="1px" opacity="0.25"></line><line x1="0" y1="164.3571428571428" x2="281.125" y2="164.3571428571428" fill="rgb(0, 0, 0)" stroke="rgb(60, 60, 60)" stroke-width="1px" opacity="0.25"></line><line x1="0" y1="151.7142857142857" x2="281.125" y2="151.7142857142857" fill="rgb(0, 0, 0)" stroke="rgb(60, 60, 60)" stroke-width="1px" opacity="0.25"></line><line x1="0" y1="139.0714285714285" x2="281.125" y2="139.0714285714285" fill="rgb(0, 0, 0)" stroke="rgb(60, 60, 60)" stroke-width="1px" opacity="0.25"></line><line x1="0" y1="126.42857142857139" x2="281.125" y2="126.42857142857139" fill="rgb(0, 0, 0)" stroke="rgb(60, 60, 60)" stroke-width="1px" opacity="0.25"></line><line x1="0" y1="113.7857142857143" x2="281.125" y2="113.7857142857143" fill="rgb(0, 0, 0)" stroke="rgb(60, 60, 60)" stroke-width="1px" opacity="0.25"></line><line x1="0" y1="101.1428571428571" x2="281.125" y2="101.1428571428571" fill="rgb(0, 0, 0)" stroke="rgb(60, 60, 60)" stroke-width="1px" opacity="0.25"></line><line x1="0" y1="88.5" x2="281.125" y2="88.5" fill="rgb(0, 0, 0)" stroke="rgb(60, 60, 60)" stroke-width="1px" opacity="0.25"></line><line x1="0" y1="75.85714285714279" x2="281.125" y2="75.85714285714279" fill="rgb(0, 0, 0)" stroke="rgb(60, 60, 60)" stroke-width="1px" opacity="0.25"></line><line x1="0" y1="63.21428571428571" x2="281.125" y2="63.21428571428571" fill="rgb(0, 0, 0)" stroke="rgb(60, 60, 60)" stroke-width="1px" opacity="0.25"></line><line x1="0" y1="50.57142857142861" x2="281.125" y2="50.57142857142861" fill="rgb(0, 0, 0)" stroke="rgb(60, 60, 60)" stroke-width="1px" opacity="0.25"></line><line x1="0" y1="37.92857142857139" x2="281.125" y2="37.92857142857139" fill="rgb(0, 0, 0)" stroke="rgb(60, 60, 60)" stroke-width="1px" opacity="0.25"></line><line x1="0" y1="25.285714285714306" x2="281.125" y2="25.285714285714306" fill="rgb(0, 0, 0)" stroke="rgb(60, 60, 60)" stroke-width="1px" opacity="0.25"></line><line x1="0" y1="12.64285714285711" x2="281.125" y2="12.64285714285711" fill="rgb(0, 0, 0)" stroke="rgb(60, 60, 60)" stroke-width="1px" opacity="0.25"></line><line x1="0" y1="0" x2="281.125" y2="0" fill="rgb(0, 0, 0)" stroke="rgb(60, 60, 60)" stroke-width="1px" opacity="0.25"></line></g></g></g><g><g><line x1="0" y1="1011.4285714285711" x2="281.125" y2="1011.4285714285711" fill="rgb(0, 0, 0)" stroke="rgb(153, 153, 153)" stroke-width="1.5px"></line></g></g><g><g><line x1="21.625" y1="0" x2="21.625" y2="177" fill="rgb(0, 0, 0)" stroke="rgb(153, 153, 153)" stroke-width="1.5px"></line></g></g><g><g><g><g><g><path stroke="rgb(0, 119, 187)" stroke-width="2px" d="M29.62625,181.53555699757163L29.8425,166.86541966029571L30.05875,160.53661210196356L30.275000000000002,143.47819089889524L30.7075,162.1957387242998L30.923750000000002,124.25924573625835L31.14,94.29561546870639L31.356250000000003,69.03180905750818L31.572499999999998,98.70787586484634L31.78875,84.08669063023157L32.22125,30.34427506583077L32.4375,20.045222895486006L32.87,27.957558631896973L33.08625,46.709951673235196L33.3025,12.609567301613936L33.518750000000004,54.84251158578054L33.735,10.91613803591045L33.95125,26.035404886518222L34.38375,23.42997142246793L34.6,10.96291984830583L34.81625,27.869842733655645L35.0325,27.522114004407626L35.248749999999994,-8.751936640058233L35.464999999999996,23.588040896824424L35.68125,45.215646539415616L35.8975,52.72937229701449L36.11375,40.39910929543629L36.33,16.24884264809745L36.54625,6.550599166325156L36.978750000000005,25.027063914707725L37.195,20.584479740687755L37.411249999999995,18.816718033381846L37.6275,14.525571891239707L37.84375,38.13380854470387L38.06,16.268978118896484L38.27625,26.09514815466744L38.4925,17.384025028773692L38.70875,40.94336986541745L39.14125,41.69941459383281L39.3575,37.76715006147111L39.79,3.8701701164245605L40.00625,33.93254859106881L40.2225,20.86155346461703L40.43875,43.330628871917696L40.655,22.586753368377686L40.87125,57.17400618961878L41.30375,34.26586900438579L41.52,8.221662385123096L41.73625,2.109702995845254L41.9525,12.576892375946045L42.168749999999996,38.73311008725847L42.385,45.992369311196455L42.60125,14.348331519535606L43.033750000000005,34.55174446105957L43.25,-3.5228633880615234L43.46625,16.72811508178711L43.6825,22.55287272589547L43.89875,21.229538236345547L44.114999999999995,53.09361934661864L44.33125,-17.881503786359502L44.5475,18.16713809967041L44.76375,39.49452025549752L44.980000000000004,38.081239291599815L45.19625,39.9719841139657L45.4125,19.507533482142833L45.628750000000004,32.589681489127L45.845,41.54665027345928L46.061249999999994,42.226071698325L46.277499999999996,8.382143293108243L46.49375,12.46855872017997L46.71,46.05687516076222L46.92625,46.1916743006025L47.1425,43.757874625069746L47.35875,48.896820545196505L47.575,-5.3907598767961815L47.791250000000005,22.318963663918623L48.00749999999999,2.5074689728872954L48.223749999999995,49.534041881561265L48.44,37.42840392248971L48.65625,28.469747134617393L48.8725,20.225176130022305L49.08875,40.33279487064905L49.52125,44.74318640572682L49.737500000000004,31.646931512015186L50.38625,24.244613988058887L50.6025,33.78436599458965L51.035,42.93696233204432L51.25125,45.79306432179041L51.68375,35.514931338173994L52.11625,22.67651898520333L52.332499999999996,31.86329739434376L52.54875,42.97289269311085L52.765,60.127891813005704L52.981249999999996,46.18721314838953L53.1975,37.80139241899761L53.63,35.04807778767176L53.846250000000005,59.106408527919214L54.0625,35.124881948743536L54.27875,61.09156097684587L54.71125,26.170023168836337L54.927499999999995,43.70313508169991L55.14375,40.61426946095057L55.36,61.30346570696149L55.57625,41.263668537139864L55.792500000000004,33.33969763347079L56.00875,35.83703858511788L56.44125,54.06988825116838L56.6575,50.7463298525129L57.089999999999996,47.435853481292696L57.30625,52.00895650046212L57.73875,44.792017936706515L57.955,54.30452074323381L58.17125,48.30113615308488L58.60375,39.04080901827129L58.82,72.20501456941874L59.036249999999995,49.668780735560816L59.46875,28.486386026654912L59.685,53.06594814573015L59.90125,49.693437644413535L60.1175,47.719920362745L60.550000000000004,50.867805821554995L60.76625,44.63461160659787L60.982499999999995,32.31296948024203L61.19875,55.42879138674054L61.415,43.1003369603838L61.63125,102.82823222024098L61.847500000000004,63.41015441077094L62.06375,71.06699875422885L62.28,49.30097682135445L62.49625,43.335090024130665L62.712500000000006,68.86005469730921L62.928749999999994,28.65181037357874L63.5775,37.26297957556588L64.4425,40.31121253967282L64.65875,47.46539354324338L64.875,61.48167065211703L65.09125,64.25325189317975L65.30749999999999,49.82950278690882L65.52374999999999,70.36376442228044L65.95625,76.32488863808767L66.1725,71.2132522038051L66.38875,51.746893950871055L66.605,88.41406856264383L66.82125,71.79917028972079L67.47,63.95375183650424L67.68625,75.38822753088813L67.9025,43.13554389136178L68.11875,53.13931601388113L68.335,60.93777179718016L68.55125,77.33558075768606L68.7675,68.6186099052429L68.98375,60.75257369450159L69.2,39.09820113863262L69.41624999999999,50.869855540139326L69.6325,68.52311713354926L69.84875,66.90866231918334L70.28125,62.42098433630805L70.49749999999999,61.266631058284204L70.71375,79.26478794642856L71.14625000000001,50.72287866047449L71.3625,70.73512520108903L71.57875,63.1339246886117L71.795,51.987735884530196L72.01125,62.40705830710273L72.2275,78.05732284273417L72.44375,72.58282593318393L72.87625,77.75721992765153L73.0925,71.5527820587158L73.525,54.72634077072142L73.74125,61.910001550401944L73.95750000000001,75.89505059378486L74.39,58.501801831381655L74.60625,59.329405852726524L74.82249999999999,92.50199113573343L75.03875000000001,79.96410369873045L75.255,51.84865644999911L75.47125,63.11330693108694L75.6875,68.75196218490599L75.90375,52.04084771020071L76.12,62.58827754429407L76.33625,64.48535237993512L76.5525,86.81601149695258L76.76875,63.712548187800806L76.985,76.70553343636648L77.4175,62.36329078674315L77.63374999999999,55.9634062222072L77.85000000000001,79.22536100660051L78.06625,74.56749609538485L78.49875,59.87167698996407L78.715,65.6567062650408L78.93125,94.91607734135216L79.36375,59.61913960320608L79.79625,92.27694409234181L80.22875,97.07220043454849L80.445,72.15202331542967L80.66125000000001,77.1342863355364L80.8775,87.08283662796019L81.09374999999999,50.73125839233397L81.52624999999999,65.39910486766269L81.7425,48.15735442297799L81.95875,79.32929379599433L82.17500000000001,67.24903617586408L82.39125,79.34044667652674L82.6075,66.73081908907209L82.82375,79.1919023650033L83.04,78.82289273398261L84.12125,62.65260253633771L84.55375000000001,96.58231769289286L84.77,98.38504518781387L85.2025,82.20806326184953L85.41874999999999,104.23681088856286L85.635,60.1205369404384L85.85125,65.68431718008857L86.06750000000001,82.91027273450578L86.28375,74.25515515463691L86.5,68.4532458441598L86.71625,72.62918574469428L86.9325,67.82820224761961L87.14874999999999,90.16133308410643L87.365,75.59928825923373L88.01375,69.45501565933226L88.22999999999999,81.33265256881712L88.44625,95.57879958833963L88.6625,92.08017110824584L88.87875000000001,94.74112783159525L89.31125,57.63248000826154L89.5275,84.59363426480971L89.74374999999999,96.06000116893222L89.96000000000001,118.53504487446374L90.17625,89.76531539644512L90.3925,86.13116434642245L90.60875,95.5801258768354L90.825,71.30386182240076L91.04125,79.50731788362772L91.25750000000001,72.66174009868075L91.47375,74.29409980773924L91.69,82.59660550526209L91.90625,79.82321568897791L92.12249999999999,92.7909411702837L92.33875,60.0501833643232L92.55499999999999,89.15890012468608L92.77125000000001,75.82300901412962L92.9875,111.521691594805L93.20375,76.79391247885566L93.63625,75.08221660341532L94.06875,85.40092195783339L94.285,89.5591378211975L94.50125,98.97439956665036L94.7175,107.80585323061258L94.93375,89.74168334688457L95.15,98.40084007808139L95.36625,91.77693332944595L95.58250000000001,60.90256486620221L95.79875,78.22045632771082L96.01499999999999,91.16822719573973L96.23125,87.43599108287265L96.44749999999999,109.23824480601716L96.66375000000001,98.91115971973962L96.88,72.60778427124022L97.09625,70.03002200807843L97.3125,97.11042165756223L97.52875,73.21311439786638L97.745,66.70387131827216L97.96125,94.70616204398017L98.1775,103.76724447522841L98.39375,95.59230361665995L98.61,75.47950029373168L98.82625,70.88590008871894L99.0425,89.98258556638443L99.25874999999999,103.5983838353838L99.47500000000001,86.53960091727119L99.69125,108.7473974909101L99.90750000000001,71.60143273217336L100.12375,91.54025111879618L100.33999999999999,86.05007989065986L100.55625,90.30240195138111L100.7725,59.967290333339136L100.98875000000001,109.9504014423915L101.205,84.64192322322299L101.6375,83.77181768417357L101.85375,86.84959071023123L102.07,93.49905865533009L102.28625,94.3022469111851L102.5025,87.67357758113315L102.71875,84.18803112847463L102.935,97.17143092836649L103.15124999999999,123.65560361317223L103.3675,95.86569990430557L103.58375,91.17317063467841L104.01625,86.4727439199175L104.2325,84.88511630467005L104.66499999999999,83.1410469327654L104.88125000000001,114.55316509519301L105.0975,59.61250816072736L105.31375,102.12493760245185L105.53,94.15466717311313L105.96249999999999,90.96916334969654L106.17875000000001,69.66493095670427L106.395,71.24381712504794L106.61125,76.52497734342302L107.04374999999999,94.56455060413903L107.26,86.23075655528476L107.47625,78.33982229232787L107.69250000000001,84.50019121170043L107.90875,85.06555182593208L108.34125,133.57575927461892L108.5575,100.67837885447909L108.77375,109.09464393343241L109.20625,83.79611287798197L109.4225,91.4245625904628L109.85499999999999,91.34486470903666L110.2875,90.77588694436207L110.50375000000001,114.78207043239046L110.72,89.12845577512466L111.1525,95.95594780785694L111.36874999999999,101.8029509271894L111.58500000000001,103.48860331944054L112.0175,98.04436990192956L112.23375,85.60444695608955L112.45,108.83643967764716L112.66625,100.84229605538502L112.8825,92.48619624546593L113.09875,86.0618356295994L113.315,102.40201132638111L113.7475,88.70325974055697L114.17999999999999,103.58409609113417L114.6125,120.16065256936207L115.045,91.98021718433922L115.69375,84.63915007455007L115.91,116.90166030611309L116.3425,100.7064720562526L116.55875,106.07980932508192L116.775,133.38579859052382L116.99125,107.80784266335621L117.2075,94.73570210593086L117.64,106.64227621895924L117.85625,107.45486906596591L118.07249999999999,115.81958975110732L118.28875000000001,71.84848410742622L118.505,102.91516440255299L118.72125000000001,104.60618223462782L118.9375,89.84000955309185L119.15375,82.54234824861796L119.37,81.2618167059762L119.58624999999999,108.9807639803205L119.8025,105.59981346130368L120.01875,102.55772965294972L120.45125,114.35361896242412L120.6675,102.17943600245883L120.88374999999999,95.38232803344725L121.10000000000001,125.68506615502491L121.31625,112.52719913210184L121.5325,107.8797033854893L121.74875,103.07654959814887L121.96499999999999,104.74502052579604L122.18125,99.0610303197588L122.3975,141.67757340839927L122.61375000000001,103.74282870973856L122.83,105.99311828613278L123.04625,91.9677983011518L123.2625,101.09489372798373L123.47875,103.94255570002963L123.69500000000001,100.62996932438439L123.91125,131.46466970443723L124.1275,125.39714097976682L124.34375,94.48708329881937L124.77624999999999,97.04929181507653L124.9925,95.66157204764228L125.64125,75.03983565739222L125.85749999999999,98.81506408963882L126.07375,94.04657466070991L126.28999999999999,112.7442281586783L126.50625000000001,116.68680156980238L126.7225,117.7405980655125L126.93875,113.38494607380456L127.155,110.39935009820118L127.37125,109.65409653527394L127.80375,92.19344820295059L128.02,116.01033415113173L128.23624999999998,113.22307859148296L128.885,122.90383917944769L129.10125,122.5101726395743L129.53375,113.46024308885845L130.1825,93.51195982524325L130.39875,113.8568636349269L130.61499999999998,114.78243214743475L130.83125,110.44504676546366L131.04749999999999,116.19185481752666L131.26375000000002,117.91042327880857L131.48,117.92181730270383L131.69625000000002,109.09699508122033L131.9125,104.91731745856147L132.12875,87.6954010554722L132.345,82.23012787955146L132.7775,97.90498903819491L132.99375,115.33802645547047L133.21,117.16119085039409L133.42625,113.27160869325908L133.6425,111.9883642877851L133.85875,110.71988991328645L134.07500000000002,105.61313663210184L134.5075,106.31215095520017L134.72375,117.75265523365563L134.94,81.25856127057756L135.15625,133.72153043746945L136.45374999999999,110.66062893186293L136.88625,116.96206671851019L137.1025,105.86097172328402L137.31875,106.74144642693653L137.535,102.60969604764662L137.75125,105.43619768960133L137.9675,97.21164158412387L138.18375,115.13872146606442L138.4,106.79576396942136L138.61625,101.33651937757217L138.83249999999998,106.19182041713168L139.04875,88.25877223696024L139.265,114.95774337223595L139.48125000000002,121.54222318104333L139.6975,114.71099342618666L139.91375,134.89909376416884L140.13,91.90895932061329L140.34625,124.88049132483343L140.77875,112.36026763916013L140.99499999999998,114.23461471285137L141.21125,108.5067967006138L141.64374999999998,102.90280580520627L141.85999999999999,104.81591667447768L142.07625000000002,111.28241709300447L142.29250000000002,110.19871882029939L142.50875,102.03921113695414L142.725,125.4728599957057L142.94125,113.03390162331715L143.1575,106.03779009410312L143.37375,109.27242687770296L143.59,105.09142296654835L143.80624999999998,122.65027693339754L144.0225,73.37106330054145L144.23875,118.15343550273347L144.455,105.80882447106495L144.67125,92.2030939374651L144.8875,97.09119047437393L145.10375000000002,116.74407311848229L145.32,99.786148411887L145.53625,101.9963479042053L145.7525,108.41528279440742L146.185,99.6503846985953L146.40125,120.64408472606111L146.61749999999998,132.3649784496852L146.83375,106.47998673575263L147.05,97.04272065843851L147.26625,109.37804767063683L147.4825,93.21565491812568L147.69875,110.14705385480605L147.91500000000002,117.51760074070519L148.13125,128.17294222967962L148.3475,113.40224811008996L148.56375,116.31013563701082L148.78,106.07456445693967L148.99625,116.77319117954796L149.42874999999998,121.14958150046209L149.64499999999998,115.8002982820783L149.86125,96.21939693178446L150.07750000000001,127.69252436501637L150.29375,128.81613186427523L150.51,111.91083669662473L150.72625000000002,108.10619728905812L150.9425,90.42628935405185L151.15875,97.92307479040961L151.375,122.46538025992254L151.59124999999997,107.3414713995797L151.8075,109.90994964327128L152.02375,97.86507981164112L152.24,125.00371558325628L152.45624999999998,102.05494574138095L152.6725,111.2610156195504L153.105,125.15256132398329L153.5375,92.56058897290909L153.75375,106.43314463751655L153.97,122.13404927934917L154.18625,93.60932145799906L154.61875,102.60601861136298L155.48375,115.95631803785048L155.70000000000002,117.3204057557242L155.91625,111.7304614612034L156.1325,110.77444859913415L156.34875,93.70758737836563L156.565,115.71770668029782L156.78125,110.55530956813264L156.9975,131.98234421866277L157.64625,119.37916721616469L157.8625,100.76742104121615L158.07874999999999,108.30254827226908L158.295,120.10549102510723L158.7275,109.94364942823134L158.94375,113.41147184371945L159.16,128.2962870597839L159.5925,117.57330485752648L159.80875,110.48845257077895L160.025,128.42023474829534L160.24124999999998,115.44678211212155L160.4575,135.49309015274045L160.67375,118.52365085056847L160.89,113.22410345077512L161.10625,104.80898380279538L161.32250000000002,118.3077069691249L161.53875,132.27587597710743L161.755,112.11056368691578L161.97125,122.28078501565113L162.18749999999997,141.50823048182892L162.40375,95.13262408120289L162.62,119.79929924011228L162.83625,97.6404547691345L163.485,85.87446723665506L163.70125,137.58181367601662L163.9175,103.38479110172814L164.13375,115.67809888294762L164.35000000000002,118.38234083993092L164.56625,143.63770723342893L164.7825,125.73450054441176L164.99875,123.46069949013844L165.215,96.9046057973589L165.43125,136.11517974308555L165.6475,122.87454026085987L165.86374999999998,96.52522700173512L166.08,121.06795447213307L166.29625000000001,126.34525639670233L166.72875,128.67373670850478L166.945,128.16130706242149L167.16125000000002,152.13728734425132L167.3775,98.69702441351752L167.59375,97.90203503199984L167.81,92.84549985613138L168.02625,111.66806561606269L168.2425,135.64971276691978L168.45875,152.52601044518605L168.67499999999998,140.47806603567938L168.89124999999999,105.43414797101698L169.10750000000002,127.2470722879682L169.32375,96.6027545928955L169.54,122.19746998378206L169.75625,122.4160061563764L169.97250000000003,110.17285619463236L170.18875,137.83435106277463L170.405,110.19214766366139L170.62125,106.73523698534281L170.83749999999998,101.0544419288635L171.05375,113.68993214198518L171.27,118.21040562220979L171.7025,130.74045589991977L172.13500000000002,95.61099222728183L172.78375,116.72393764768324L173,132.06680468150546L173.21625,143.0958580970764L173.4325,111.230993270874L173.64874999999998,127.52155372074668L173.865,124.89713021687095L174.08125,101.75894226346695L174.29749999999999,119.6625106675284L174.51375,122.6205560139247L174.73,77.38067456654139L174.94625000000002,108.37314299174714L175.1625,124.40308775220595L175.37875,100.75253043855936L175.595,119.3449248586382L176.0275,121.18508986064363L176.24375,105.59812545776364L176.45999999999998,106.66397912161689L176.8925,106.94623742784769L177.10875000000001,130.55760894502907L177.325,124.57556554249351L177.54125,126.26308679580686L177.75750000000002,148.41325010572157L177.97375,123.37509359632216L178.19,129.68961341040472L178.40625,106.62684304373603L178.6225,92.0396590232849L179.055,125.38568667003084L179.27124999999998,114.08884355000085L179.48749999999998,120.12852021626061L179.70375,125.82806416920249L179.92000000000002,125.78839608601157L180.3525,138.8857964106968L180.56875000000002,108.11264787401468L180.785,111.6112160682678L181.00125,112.88167987551005L181.2175,118.4991747992379L181.43374999999997,114.18626546859738L181.65,125.36953006471904L181.86625,133.83227552686415L182.0825,126.99363061359946L182.29874999999998,122.52271209444316L182.51500000000001,143.85129996708457L182.73125000000002,136.54188292367115L182.9475,146.33941718510215L183.16375,104.72379990986413L183.59625,130.67938634327476L183.8125,129.28376913070676L184.02875,127.46114730834958L184.24499999999998,136.64231913430348L184.46125,113.41129098619732L184.6775,133.91366141183033L184.89375,136.06918164661948L185.10999999999999,110.28402328491208L185.32625,115.9744640759059L185.75875,132.43762288774758L185.975,111.08250924519128L186.4075,118.35949250629967L186.62375,126.75755126135687L186.84,136.8612773077828L187.05624999999998,125.74179513113836L187.2725,126.60364151000974L187.48875,136.43957785197665L187.705,103.29152890614098L187.92125,135.22276844297133L188.1375,144.23706906182423L188.35375000000002,112.43882008961266L188.57,115.05510500499177L188.78625,141.8918292863028L189.0025,140.5900771277291L189.21875000000003,121.0012180464608L189.435,101.18574448994225L189.8675,115.4092843191964L190.08374999999998,102.01256479535782L190.3,116.57177618571687L190.51625,120.25198561804632L190.7325,97.7165957859584L190.94875,119.02733904974798L191.16500000000002,128.0090250287737L191.38125,134.84453507832114L191.5975,131.48733718054632L191.81375,132.8909121240888L192.02999999999997,94.27988086427958L192.24625,124.98026439121787L192.4625,130.70500782557895L192.67875,118.77890110015866L192.89499999999998,91.58172777720858L193.11125,139.43909985678533L193.32750000000001,128.75204801559445L193.54375,116.83534588132582L193.76,102.2500910077776L193.97625,127.5742435455322L194.1925,95.76936313084191L194.40875,105.80267531531196L194.625,137.3480251857212L195.0575,110.95078468322751L195.27375,147.14646373476296L195.49,107.31795992170058L195.70624999999998,105.279997076307L195.9225,113.0675411224365L196.13875000000002,130.4292001043047L196.355,111.15322453635078L196.57125,121.52474028723577L197.00375000000003,138.75594070979523L197.22,132.9793514524187L197.43625,110.34641913005281L197.6525,130.3999614715576L197.86875,114.07069751194543L198.085,117.29213169642854L198.30125,142.95436722891668L198.51749999999998,129.46058750152585L198.73375,129.43677459444316L198.95000000000002,103.65746395928517L199.16625,115.28829063688002L199.59875,127.95748063496177L199.81500000000003,119.6794509887695L200.03125,122.99342393875119L200.2475,113.63766431808469L200.67999999999998,117.21538782119748L200.89625,129.87999609538485L201.1125,135.18074921199252L201.32874999999999,132.87336894444053L201.545,132.70818574087957L201.76125000000002,139.986013003758L201.97750000000002,123.78768989018029L202.19375,96.1406636238098L202.41,143.98398910249978L202.62625,130.8352252415248L202.8425,117.5691451345171L203.05875,136.15291867937356L203.275,139.26306520189553L203.7075,119.09178461347304L203.92375,114.07455580575123L204.35625,154.61238282067433L204.5725,107.08917515618458L204.78875000000002,123.96131311144146L205.005,138.95560741424558L205.4375,136.81853464671542L205.65375,129.72102233341758L205.87,107.43117673056464L206.08625,147.8989515985761L206.51875,139.34125593730377L206.95125,120.28978484017506L207.38375,124.36263595308574L207.60000000000002,133.7955614498683L207.81625,147.70525319235662L208.0325,126.42579827989849L208.24875,125.17553022929597L208.68125,122.07026685987196L208.8975,125.46007939747398L209.11374999999998,141.0383023534502L209.32999999999998,147.8239560127258L209.54625000000001,136.10529286520818L209.76250000000002,125.88835000991818L209.97875,137.22576550074982L210.41125000000002,102.97514881406508L210.6275,135.48229898725234L210.84375,130.0736342157636L211.06,135.01647029604226L211.27624999999998,96.99624027524673L211.4925,118.31837756293157L211.70875,129.5745277404785L211.92499999999998,132.32940980366294L212.14124999999999,138.5573591504778L212.35750000000002,114.55394881112232L212.57375000000002,145.65348488943914L212.79,137.83712421144753L213.00625,140.1521004949297L213.2225,131.2489066805158L213.43875,151.4813773972647L213.655,129.3357958112444L213.87125,119.14646387100217L214.08749999999998,137.35345091138564L214.30375,124.47573219026836L214.52,130.7506442070007L214.73625,120.42012282780236L214.9525,114.17523315974641L215.16875,131.03911195482522L215.38500000000002,132.461918081556L215.60125,116.92999465124944L215.8175,144.165871483939L216.03375,128.25414725712363L216.25,108.60313347407747L216.6825,126.11562762941631L216.89874999999998,113.79675865173337L217.115,158.50588355745583L217.33125,130.0655559131077L217.5475,122.24370922361098L217.76375,160.3757694789341L217.98,116.86500651495794L218.19625000000002,148.81945610046384L218.4125,104.61365767887658L218.62875,127.37192426409038L218.845,138.19630725043157L219.06125,140.82911048616677L219.49375,136.22128282274514L219.70999999999998,125.44524908065793L219.92624999999998,114.55629995891023L220.1425,139.6643277576991L220.575,65.1008105278015L220.79125,80.2238753863743L221.00750000000002,108.38019643511088L221.22375,121.13824776240754L221.44,130.9163699831281L221.65625,159.17752810886924L222.08875,138.15820659909926L222.305,133.16069126129148L222.73749999999998,131.31027766636436L222.95375,128.45248767307822L223.17000000000002,131.2731415884835L223.38625,124.61004904338289L223.6025,104.71626417977467L223.81875,146.93606615066525L224.25125,153.51801395416257L224.4675,148.75561339514593L224.68374999999997,137.70328964505873L225.11625,140.70606708526608L225.3325,136.1380280767168L225.54874999999998,126.3024534497942L225.765,135.99780321121213L225.98125000000002,126.73488378524777L226.41375,136.04120901652743L226.63,129.41724198205128L226.84625,128.58903510229925L227.27875,142.03844445092335L227.495,136.5277760369437L227.71125,138.22771617344443L227.9275,147.43505205426894L228.14375,142.0222275597708L228.35999999999999,148.80070720400124L228.57625,138.808148247855L228.79250000000002,112.8737824303763L229.00875,137.5639690671648L229.225,128.4734671456473L229.44125,150.3979805537632L229.65750000000003,114.38460588455197L229.87375,104.18273448944089L230.09,130.7879611424037L230.30625,128.41300044740947L230.52249999999998,120.54913452693391L230.73875,150.36198990685597L231.17125,126.88354866845265L231.60375000000002,123.60767636980327L231.82,138.6650899478367L232.2525,136.26902920859197L232.46874999999997,125.21724803107122L232.685,136.24045372009275L232.90125,147.54887172154014L233.1175,125.2855518886021L233.33374999999998,126.17362260818479L233.55,156.85923610414773L233.76625,127.37885713577268L233.9825,141.49792160306654L234.19875,104.89947284970961L234.415,150.48165730067657L234.63125000000002,138.5542845726013L234.8475,117.6595136097499L235.06375,126.57609088080267L235.28,147.85880122865944L235.49625,114.61176293236866L235.7125,145.1327357973371L235.92875,124.97158323015483L236.14499999999998,132.50707217625205L236.57750000000001,121.41664777483257L237.01,153.05314983640395L237.22625,155.30633313315252L237.65875,136.68337379183083L237.875,124.09707682473316L238.09125,121.01864065442763L238.3075,120.6486664499555L238.52375,132.2022669655936L238.74,138.22385787963864L238.95624999999998,121.37764283588952L239.38875000000002,126.80330821446006L239.605,142.33034849166867L239.82125,122.44042192186626L240.25375000000003,130.1243346078055L240.47,127.04439129148207L240.68625,140.1883322851998L240.9025,135.8458828926086L241.335,116.49702174322942L241.55125,119.57226276397702L241.76749999999998,121.4148994854518L241.98375,134.9147077969142L242.20000000000002,135.12751681464056L242.41625000000002,132.09875617708474L242.6325,140.09392465863905L242.84875,117.40161078316822L243.065,154.12840809140883L243.28125,133.1530952453613L243.4975,115.63095535550795L243.71375,109.84677008220125L244.14625,115.07096018109999L244.3625,134.22576120921542L244.57874999999999,122.43439333779469L244.795,138.14355713980535L245.01125,124.63066680090765L245.22750000000002,110.66231693540297L245.44375,140.47258002417425L245.66,147.59770325251984L245.87625,127.73641245705738L246.0925,128.27518701553342L246.30875,106.7482587269374L246.525,152.96012878417966L246.74124999999998,126.56071799142018L246.9575,150.77784163611273L247.17375,142.6683712005615L247.39000000000001,140.92345782688682L247.60625,111.30653142929074L248.03875000000002,139.06394107001165L248.255,126.16970402853826L248.47125,125.21290745053969L248.6875,136.02288212094984L248.90375,153.51017679486952L249.12,122.54761014665874L249.55249999999998,121.85372012002125L249.76874999999998,158.05307660784035L249.985,132.3218740735735L250.20125000000002,131.86189310891285L250.4175,132.83122914178028L251.2825,119.71471820558818L251.49875,137.43127993174957L251.71499999999997,148.07215281895225L251.93125,150.43951749801633L252.1475,149.16911397661477L252.36375,127.81773805618283L252.57999999999998,143.6794853210449L252.79625000000001,132.75617327008925L253.01250000000002,138.05638381413047L253.22875,132.40313938685824L253.445,150.6028318405151L253.66125,139.19650963374542L253.8775,148.80022491727553L254.09375,151.28442355564658L254.31,145.7875003133501L254.52624999999998,159.21984876905165L254.7425,149.77788039616172L254.95875,124.44944756371632L255.175,130.49907139369418L255.39124999999999,138.4824238504682L255.6075,140.1432384763445L255.82375000000002,157.17428990772788L256.04,141.5746051924569L256.25625,135.34472669873915L256.47249999999997,139.8611007417951L256.90500000000003,110.16200474330354L257.3375,150.88008642196652L257.55375000000004,143.95583561488556L257.77,135.39000136511663L257.98625,145.7190758841378L258.2025,147.15098517281666L258.635,124.6027544566563L259.0675,139.68380008425027L259.28375,138.4766966956002L259.5,147.1392897197178L259.71625,152.55645479474745L260.14875,127.83564295087538L260.365,132.84738574709206L260.58125,112.29793207986012L260.7975,134.31902340480258L261.01375,132.75966984885076L261.22999999999996,119.86386537551877L261.44625,113.22066715785432L261.6625,136.5836007254464L261.87875,134.26591157913205L262.09499999999997,127.70337581634519L262.52750000000003,138.7557598522731L262.74375,168.2616397312709L262.96,130.4019509043012L263.60875,131.79575954164773L263.825,144.0182314600263L264.04125,135.47958612442014L264.2575,152.9979882921491L264.47375,134.32939256940566L264.69,123.22498185294012L264.90625,113.01647901535031L265.1225,135.76190471649167L265.33875,157.56910187857488L265.555,148.85020187922882L265.77125,127.52860716411043L265.9875,137.9654124804905L266.20375,139.80792863028387L266.42,164.56678083964752L266.63625,134.7309565544128L266.8525,122.56985562188282L267.06874999999997,139.1978962080819L267.50125,126.78582532065252L267.7175,156.25227825982228L267.93375,140.11894328253607L268.15000000000003,135.48959357397894L268.36625,178.38929925646096L268.5825,126.99941805430818L268.79875,122.54543985639296L269.015,130.25648117065427L269.23125,143.14951249531333L269.4475,142.8906450952802L269.66375,148.1623404366629L270.09625,144.21000071934287L270.3125,146.56862395150318L270.52875,134.1515493392944L270.745,136.6743309157235L270.96125,120.60875722340172L271.1775,162.0377898216247L271.39375,137.12557043348036L271.61,169.53620297568182L271.82625,139.85477072851995L272.0425,154.28165469850808L272.25875,128.14243759427748L272.475,133.54748521532326L272.69124999999997,121.63542509078977L272.90749999999997,132.35629728862216L273.34,120.44273001807073L273.55625,125.40714842932562L273.7725,152.5753845487322L273.98875000000004,155.8560194287981L274.205,134.06015600476942L274.42125,130.55935723440984" style="fill: none;" fill="none"></path></g></g></g></g></g></g><g transform="translate(48, 177)" clip-path="url(#clip_1)"><clipPath id="clip_1"><rect width="281" height="23"></rect></clipPath><g><g><line x1="0" y1="0" x2="0" y2="5" style="visibility: inherit;" fill="rgb(0, 0, 0)" stroke="rgb(204, 204, 204)" stroke-width="1px"></line><line x1="21.625" y1="0" x2="21.625" y2="5" style="visibility: inherit;" fill="rgb(0, 0, 0)" stroke="rgb(204, 204, 204)" stroke-width="1px"></line><line x1="43.25" y1="0" x2="43.25" y2="5" style="visibility: inherit;" fill="rgb(0, 0, 0)" stroke="rgb(204, 204, 204)" stroke-width="1px"></line><line x1="64.875" y1="0" x2="64.875" y2="5" style="visibility: inherit;" fill="rgb(0, 0, 0)" stroke="rgb(204, 204, 204)" stroke-width="1px"></line><line x1="86.5" y1="0" x2="86.5" y2="5" style="visibility: inherit;" fill="rgb(0, 0, 0)" stroke="rgb(204, 204, 204)" stroke-width="1px"></line><line x1="108.125" y1="0" x2="108.125" y2="5" style="visibility: inherit;" fill="rgb(0, 0, 0)" stroke="rgb(204, 204, 204)" stroke-width="1px"></line><line x1="129.75" y1="0" x2="129.75" y2="5" style="visibility: inherit;" fill="rgb(0, 0, 0)" stroke="rgb(204, 204, 204)" stroke-width="1px"></line><line x1="151.375" y1="0" x2="151.375" y2="5" style="visibility: inherit;" fill="rgb(0, 0, 0)" stroke="rgb(204, 204, 204)" stroke-width="1px"></line><line x1="173" y1="0" x2="173" y2="5" style="visibility: inherit;" fill="rgb(0, 0, 0)" stroke="rgb(204, 204, 204)" stroke-width="1px"></line><line x1="194.625" y1="0" x2="194.625" y2="5" style="visibility: inherit;" fill="rgb(0, 0, 0)" stroke="rgb(204, 204, 204)" stroke-width="1px"></line><line x1="216.25" y1="0" x2="216.25" y2="5" style="visibility: inherit;" fill="rgb(0, 0, 0)" stroke="rgb(204, 204, 204)" stroke-width="1px"></line><line x1="237.875" y1="0" x2="237.875" y2="5" style="visibility: inherit;" fill="rgb(0, 0, 0)" stroke="rgb(204, 204, 204)" stroke-width="1px"></line><line x1="259.5" y1="0" x2="259.5" y2="5" style="visibility: inherit;" fill="rgb(0, 0, 0)" stroke="rgb(204, 204, 204)" stroke-width="1px"></line><line x1="281.125" y1="0" x2="281.125" y2="5" style="visibility: inherit;" fill="rgb(0, 0, 0)" stroke="rgb(204, 204, 204)" stroke-width="1px"></line></g><g transform="translate(0, 8)"><text x="0" y="0" dx="0em" dy="0.95em" style="text-anchor: middle; visibility: hidden; font-family: &quot;Helvetica Neue&quot;, sans-serif; font-size: 12px; font-weight: 200;" fill="rgb(50, 49, 63)" stroke="none" stroke-width="1px">-100</text><text x="21.625" y="0" dx="0em" dy="0.95em" style="text-anchor: middle; visibility: inherit; font-family: &quot;Helvetica Neue&quot;, sans-serif; font-size: 12px; font-weight: 200;" fill="rgb(50, 49, 63)" stroke="none" stroke-width="1px">0</text><text x="43.25" y="0" dx="0em" dy="0.95em" style="text-anchor: middle; visibility: hidden; font-family: &quot;Helvetica Neue&quot;, sans-serif; font-size: 12px; font-weight: 200;" fill="rgb(50, 49, 63)" stroke="none" stroke-width="1px">100</text><text x="64.875" y="0" dx="0em" dy="0.95em" style="text-anchor: middle; visibility: inherit; font-family: &quot;Helvetica Neue&quot;, sans-serif; font-size: 12px; font-weight: 200;" fill="rgb(50, 49, 63)" stroke="none" stroke-width="1px">200</text><text x="86.5" y="0" dx="0em" dy="0.95em" style="text-anchor: middle; visibility: hidden; font-family: &quot;Helvetica Neue&quot;, sans-serif; font-size: 12px; font-weight: 200;" fill="rgb(50, 49, 63)" stroke="none" stroke-width="1px">300</text><text x="108.125" y="0" dx="0em" dy="0.95em" style="text-anchor: middle; visibility: inherit; font-family: &quot;Helvetica Neue&quot;, sans-serif; font-size: 12px; font-weight: 200;" fill="rgb(50, 49, 63)" stroke="none" stroke-width="1px">400</text><text x="129.75" y="0" dx="0em" dy="0.95em" style="text-anchor: middle; visibility: hidden; font-family: &quot;Helvetica Neue&quot;, sans-serif; font-size: 12px; font-weight: 200;" fill="rgb(50, 49, 63)" stroke="none" stroke-width="1px">500</text><text x="151.375" y="0" dx="0em" dy="0.95em" style="text-anchor: middle; visibility: inherit; font-family: &quot;Helvetica Neue&quot;, sans-serif; font-size: 12px; font-weight: 200;" fill="rgb(50, 49, 63)" stroke="none" stroke-width="1px">600</text><text x="173" y="0" dx="0em" dy="0.95em" style="text-anchor: middle; visibility: hidden; font-family: &quot;Helvetica Neue&quot;, sans-serif; font-size: 12px; font-weight: 200;" fill="rgb(50, 49, 63)" stroke="none" stroke-width="1px">700</text><text x="194.625" y="0" dx="0em" dy="0.95em" style="text-anchor: middle; visibility: inherit; font-family: &quot;Helvetica Neue&quot;, sans-serif; font-size: 12px; font-weight: 200;" fill="rgb(50, 49, 63)" stroke="none" stroke-width="1px">800</text><text x="216.25" y="0" dx="0em" dy="0.95em" style="text-anchor: middle; visibility: hidden; font-family: &quot;Helvetica Neue&quot;, sans-serif; font-size: 12px; font-weight: 200;" fill="rgb(50, 49, 63)" stroke="none" stroke-width="1px">900</text><text x="237.875" y="0" dx="0em" dy="0.95em" style="text-anchor: middle; visibility: inherit; font-family: &quot;Helvetica Neue&quot;, sans-serif; font-size: 12px; font-weight: 200;" fill="rgb(50, 49, 63)" stroke="none" stroke-width="1px">1k</text><text x="259.5" y="0" dx="0em" dy="0.95em" style="text-anchor: middle; visibility: hidden; font-family: &quot;Helvetica Neue&quot;, sans-serif; font-size: 12px; font-weight: 200;" fill="rgb(50, 49, 63)" stroke="none" stroke-width="1px">1.1k</text><text x="281.125" y="0" dx="0em" dy="0.95em" style="text-anchor: middle; visibility: hidden; font-family: &quot;Helvetica Neue&quot;, sans-serif; font-size: 12px; font-weight: 200;" fill="rgb(50, 49, 63)" stroke="none" stroke-width="1px">1.2k</text></g><line x1="0" y1="0" x2="281.125" y2="0" fill="rgb(0, 0, 0)" stroke="rgb(204, 204, 204)" stroke-width="1px"></line></g></g></g></g></svg>