<svg viewBox="0 0 330 200" xmlns="http://www.w3.org/2000/svg"><g><g><g><g><g><line x1="29.4375" y1="177" x2="24.4375" y2="177" style="visibility: inherit;" fill="rgb(0, 0, 0)" stroke="rgb(204, 204, 204)" stroke-width="1px"></line><line x1="29.4375" y1="162.25" x2="24.4375" y2="162.25" style="visibility: inherit;" fill="rgb(0, 0, 0)" stroke="rgb(204, 204, 204)" stroke-width="1px"></line><line x1="29.4375" y1="147.5" x2="24.4375" y2="147.5" style="visibility: inherit;" fill="rgb(0, 0, 0)" stroke="rgb(204, 204, 204)" stroke-width="1px"></line><line x1="29.4375" y1="132.75" x2="24.4375" y2="132.75" style="visibility: inherit;" fill="rgb(0, 0, 0)" stroke="rgb(204, 204, 204)" stroke-width="1px"></line><line x1="29.4375" y1="118" x2="24.4375" y2="118" style="visibility: inherit;" fill="rgb(0, 0, 0)" stroke="rgb(204, 204, 204)" stroke-width="1px"></line><line x1="29.4375" y1="103.25" x2="24.4375" y2="103.25" style="visibility: inherit;" fill="rgb(0, 0, 0)" stroke="rgb(204, 204, 204)" stroke-width="1px"></line><line x1="29.4375" y1="88.5" x2="24.4375" y2="88.5" style="visibility: inherit;" fill="rgb(0, 0, 0)" stroke="rgb(204, 204, 204)" stroke-width="1px"></line><line x1="29.4375" y1="73.75" x2="24.4375" y2="73.75" style="visibility: inherit;" fill="rgb(0, 0, 0)" stroke="rgb(204, 204, 204)" stroke-width="1px"></line><line x1="29.4375" y1="59" x2="24.4375" y2="59" style="visibility: inherit;" fill="rgb(0, 0, 0)" stroke="rgb(204, 204, 204)" stroke-width="1px"></line><line x1="29.4375" y1="44.25" x2="24.4375" y2="44.25" style="visibility: inherit;" fill="rgb(0, 0, 0)" stroke="rgb(204, 204, 204)" stroke-width="1px"></line><line x1="29.4375" y1="29.5" x2="24.4375" y2="29.5" style="visibility: inherit;" fill="rgb(0, 0, 0)" stroke="rgb(204, 204, 204)" stroke-width="1px"></line><line x1="29.4375" y1="14.75" x2="24.4375" y2="14.75" style="visibility: inherit;" fill="rgb(0, 0, 0)" stroke="rgb(204, 204, 204)" stroke-width="1px"></line><line x1="29.4375" y1="0" x2="24.4375" y2="0" style="visibility: inherit;" fill="rgb(0, 0, 0)" stroke="rgb(204, 204, 204)" stroke-width="1px"></line></g><g transform="translate(19.4375, 0)"><text x="0" y="177" dx="0em" dy="0.3em" style="text-anchor: end; visibility: hidden; font-family: &quot;Helvetica Neue&quot;, sans-serif; font-size: 12px; font-weight: 200;" fill="rgb(50, 49, 63)" stroke="none" stroke-width="1px">82</text><text x="0" y="162.25" dx="0em" dy="0.3em" style="text-anchor: end; visibility: inherit; font-family: &quot;Helvetica Neue&quot;, sans-serif; font-size: 12px; font-weight: 200;" fill="rgb(50, 49, 63)" stroke="none" stroke-width="1px">83</text><text x="0" y="147.5" dx="0em" dy="0.3em" style="text-anchor: end; visibility: hidden; font-family: &quot;Helvetica Neue&quot;, sans-serif; font-size: 12px; font-weight: 200;" fill="rgb(50, 49, 63)" stroke="none" stroke-width="1px">84</text><text x="0" y="132.75" dx="0em" dy="0.3em" style="text-anchor: end; visibility: inherit; font-family: &quot;Helvetica Neue&quot;, sans-serif; font-size: 12px; font-weight: 200;" fill="rgb(50, 49, 63)" stroke="none" stroke-width="1px">85</text><text x="0" y="118" dx="0em" dy="0.3em" style="text-anchor: end; visibility: hidden; font-family: &quot;Helvetica Neue&quot;, sans-serif; font-size: 12px; font-weight: 200;" fill="rgb(50, 49, 63)" stroke="none" stroke-width="1px">86</text><text x="0" y="103.25" dx="0em" dy="0.3em" style="text-anchor: end; visibility: inherit; font-family: &quot;Helvetica Neue&quot;, sans-serif; font-size: 12px; font-weight: 200;" fill="rgb(50, 49, 63)" stroke="none" stroke-width="1px">87</text><text x="0" y="88.5" dx="0em" dy="0.3em" style="text-anchor: end; visibility: hidden; font-family: &quot;Helvetica Neue&quot;, sans-serif; font-size: 12px; font-weight: 200;" fill="rgb(50, 49, 63)" stroke="none" stroke-width="1px">88</text><text x="0" y="73.75" dx="0em" dy="0.3em" style="text-anchor: end; visibility: inherit; font-family: &quot;Helvetica Neue&quot;, sans-serif; font-size: 12px; font-weight: 200;" fill="rgb(50, 49, 63)" stroke="none" stroke-width="1px">89</text><text x="0" y="59" dx="0em" dy="0.3em" style="text-anchor: end; visibility: hidden; font-family: &quot;Helvetica Neue&quot;, sans-serif; font-size: 12px; font-weight: 200;" fill="rgb(50, 49, 63)" stroke="none" stroke-width="1px">90</text><text x="0" y="44.25" dx="0em" dy="0.3em" style="text-anchor: end; visibility: inherit; font-family: &quot;Helvetica Neue&quot;, sans-serif; font-size: 12px; font-weight: 200;" fill="rgb(50, 49, 63)" stroke="none" stroke-width="1px">91</text><text x="0" y="29.5" dx="0em" dy="0.3em" style="text-anchor: end; visibility: hidden; font-family: &quot;Helvetica Neue&quot;, sans-serif; font-size: 12px; font-weight: 200;" fill="rgb(50, 49, 63)" stroke="none" stroke-width="1px">92</text><text x="0" y="14.75" dx="0em" dy="0.3em" style="text-anchor: end; visibility: inherit; font-family: &quot;Helvetica Neue&quot;, sans-serif; font-size: 12px; font-weight: 200;" fill="rgb(50, 49, 63)" stroke="none" stroke-width="1px">93</text><text x="0" y="0" dx="0em" dy="0.3em" style="text-anchor: end; visibility: hidden; font-family: &quot;Helvetica Neue&quot;, sans-serif; font-size: 12px; font-weight: 200;" fill="rgb(50, 49, 63)" stroke="none" stroke-width="1px">94</text></g><line x1="29.4375" y1="0" x2="29.4375" y2="177" fill="rgb(0, 0, 0)" stroke="rgb(204, 204, 204)" stroke-width="1px"></line></g></g><g transform="translate(29, 0)" clip-path="url(#clip_0)"><clipPath id="clip_0"><rect width="300" height="177"></rect></clipPath><g><g><g><line x1="0" y1="0" x2="0" y2="177" fill="rgb(0, 0, 0)" stroke="rgb(60, 60, 60)" stroke-width="1px" opacity="0.25"></line><line x1="23.12019230769231" y1="0" x2="23.12019230769231" y2="177" fill="rgb(0, 0, 0)" stroke="rgb(60, 60, 60)" stroke-width="1px" opacity="0.25"></line><line x1="46.24038461538462" y1="0" x2="46.24038461538462" y2="177" fill="rgb(0, 0, 0)" stroke="rgb(60, 60, 60)" stroke-width="1px" opacity="0.25"></line><line x1="69.36057692307693" y1="0" x2="69.36057692307693" y2="177" fill="rgb(0, 0, 0)" stroke="rgb(60, 60, 60)" stroke-width="1px" opacity="0.25"></line><line x1="92.48076923076924" y1="0" x2="92.48076923076924" y2="177" fill="rgb(0, 0, 0)" stroke="rgb(60, 60, 60)" stroke-width="1px" opacity="0.25"></line><line x1="115.60096153846155" y1="0" x2="115.60096153846155" y2="177" fill="rgb(0, 0, 0)" stroke="rgb(60, 60, 60)" stroke-width="1px" opacity="0.25"></line><line x1="138.72115384615387" y1="0" x2="138.72115384615387" y2="177" fill="rgb(0, 0, 0)" stroke="rgb(60, 60, 60)" stroke-width="1px" opacity="0.25"></line><line x1="161.84134615384613" y1="0" x2="161.84134615384613" y2="177" fill="rgb(0, 0, 0)" stroke="rgb(60, 60, 60)" stroke-width="1px" opacity="0.25"></line><line x1="184.96153846153848" y1="0" x2="184.96153846153848" y2="177" fill="rgb(0, 0, 0)" stroke="rgb(60, 60, 60)" stroke-width="1px" opacity="0.25"></line><line x1="208.08173076923077" y1="0" x2="208.08173076923077" y2="177" fill="rgb(0, 0, 0)" stroke="rgb(60, 60, 60)" stroke-width="1px" opacity="0.25"></line><line x1="231.2019230769231" y1="0" x2="231.2019230769231" y2="177" fill="rgb(0, 0, 0)" stroke="rgb(60, 60, 60)" stroke-width="1px" opacity="0.25"></line><line x1="254.3221153846154" y1="0" x2="254.3221153846154" y2="177" fill="rgb(0, 0, 0)" stroke="rgb(60, 60, 60)" stroke-width="1px" opacity="0.25"></line><line x1="277.44230769230774" y1="0" x2="277.44230769230774" y2="177" fill="rgb(0, 0, 0)" stroke="rgb(60, 60, 60)" stroke-width="1px" opacity="0.25"></line><line x1="300.5625" y1="0" x2="300.5625" y2="177" fill="rgb(0, 0, 0)" stroke="rgb(60, 60, 60)" stroke-width="1px" opacity="0.25"></line></g><g><line x1="0" y1="177" x2="300.5625" y2="177" fill="rgb(0, 0, 0)" stroke="rgb(60, 60, 60)" stroke-width="1px" opacity="0.25"></line><line x1="0" y1="162.25" x2="300.5625" y2="162.25" fill="rgb(0, 0, 0)" stroke="rgb(60, 60, 60)" stroke-width="1px" opacity="0.25"></line><line x1="0" y1="147.5" x2="300.5625" y2="147.5" fill="rgb(0, 0, 0)" stroke="rgb(60, 60, 60)" stroke-width="1px" opacity="0.25"></line><line x1="0" y1="132.75" x2="300.5625" y2="132.75" fill="rgb(0, 0, 0)" stroke="rgb(60, 60, 60)" stroke-width="1px" opacity="0.25"></line><line x1="0" y1="118" x2="300.5625" y2="118" fill="rgb(0, 0, 0)" stroke="rgb(60, 60, 60)" stroke-width="1px" opacity="0.25"></line><line x1="0" y1="103.25" x2="300.5625" y2="103.25" fill="rgb(0, 0, 0)" stroke="rgb(60, 60, 60)" stroke-width="1px" opacity="0.25"></line><line x1="0" y1="88.5" x2="300.5625" y2="88.5" fill="rgb(0, 0, 0)" stroke="rgb(60, 60, 60)" stroke-width="1px" opacity="0.25"></line><line x1="0" y1="73.75" x2="300.5625" y2="73.75" fill="rgb(0, 0, 0)" stroke="rgb(60, 60, 60)" stroke-width="1px" opacity="0.25"></line><line x1="0" y1="59" x2="300.5625" y2="59" fill="rgb(0, 0, 0)" stroke="rgb(60, 60, 60)" stroke-width="1px" opacity="0.25"></line><line x1="0" y1="44.25" x2="300.5625" y2="44.25" fill="rgb(0, 0, 0)" stroke="rgb(60, 60, 60)" stroke-width="1px" opacity="0.25"></line><line x1="0" y1="29.5" x2="300.5625" y2="29.5" fill="rgb(0, 0, 0)" stroke="rgb(60, 60, 60)" stroke-width="1px" opacity="0.25"></line><line x1="0" y1="14.75" x2="300.5625" y2="14.75" fill="rgb(0, 0, 0)" stroke="rgb(60, 60, 60)" stroke-width="1px" opacity="0.25"></line><line x1="0" y1="0" x2="300.5625" y2="0" fill="rgb(0, 0, 0)" stroke="rgb(60, 60, 60)" stroke-width="1px" opacity="0.25"></line></g></g></g><g><g><line x1="0" y1="1386.5" x2="300.5625" y2="1386.5" fill="rgb(0, 0, 0)" stroke="rgb(153, 153, 153)" stroke-width="1.5px"></line></g></g><g><g><line x1="23.12019230769231" y1="0" x2="23.12019230769231" y2="177" fill="rgb(0, 0, 0)" stroke="rgb(153, 153, 153)" stroke-width="1.5px"></line></g></g><g><g><g><g><g><path stroke="rgb(204, 51, 17)" stroke-width="2px" d="M39.30432692307693,196.17504501342773L41.61634615384616,154.875L43.92836538461539,226.41247749328613L46.24038461538462,166.0850315093994L48.55240384615385,128.47248649597168L50.86442307692308,132.4550495147705L53.17644230769231,138.79755401611328L55.48846153846154,165.7899684906006L57.800480769230774,121.09748649597168L60.112500000000004,170.0674819946289L62.424519230769235,144.2549819946289L64.73653846153846,137.17504501342773L67.0485576923077,103.84001350402832L69.36057692307693,114.3125L71.67259615384616,126.40749549865723L73.9846153846154,115.78747749328613L76.2966346153846,133.48754501342773L78.60865384615386,155.7599639892578L80.92067307692307,130.53747749328613L83.23269230769232,112.83752250671387L85.54471153846154,151.77751350402832L87.85673076923078,192.6349639892578L90.16875,132.01245498657227L92.48076923076924,155.3174819946289L94.79278846153846,226.56000900268555L97.1048076923077,141.74750900268555L99.41682692307693,143.22248649597168L101.72884615384616,123.75249099731445L104.04086538461539,134.37250900268555L106.35288461538462,165.9375L108.66490384615385,125.375L110.97692307692309,151.4824504852295L113.28894230769231,124.9325180053711L115.60096153846155,145.72995948791504L117.91298076923077,128.32495498657227L120.22500000000001,106.34748649597168L122.53701923076923,111.21501350402832L124.84903846153847,109.00249099731445L127.1610576923077,186.88247299194336L129.47307692307692,164.75747299194336L131.78509615384615,125.96501350402832L134.0971153846154,128.9149684906006L136.4091346153846,137.17504501342773L138.72115384615387,135.25747299194336L139.1835576923077,91.00747299194336L139.64596153846153,143.6649684906006L140.10836538461538,151.3350315093994L140.57076923076923,139.53498649597168L141.03317307692308,92.03996849060059L141.49557692307692,103.98754501342773L141.95798076923077,115.78747749328613L142.42038461538462,114.90251350402832L142.88278846153847,155.7599639892578L143.34519230769232,109.15002250671387L143.80759615384613,124.78498649597168L144.26999999999998,139.8300495147705L144.73240384615383,107.52751350402832L145.19480769230768,99.85745048522949L145.65721153846152,102.06997299194336L146.11961538461537,116.81997299194336L146.58201923076925,91.59748649597168L147.0444230769231,152.36752700805664L147.50682692307694,90.56499099731445L147.9692307692308,134.37250900268555L148.4316346153846,110.33004951477051L148.89403846153846,129.5049819946289L149.3564423076923,154.875L149.81884615384615,120.80253601074219L150.28125,127.14504051208496L150.74365384615382,94.10495948791504L151.2060576923077,104.13496398925781L151.66846153846151,79.06000900268555L152.1308653846154,109.44497299194336L152.5932692307692,81.41995048522949L153.05567307692309,109.00249099731445L153.5180769230769,90.86005401611328L153.98048076923078,99.85745048522949L154.44288461538463,96.75996398925781L154.90528846153845,103.39753150939941L155.36769230769232,115.63994598388672L155.83009615384614,90.27004051208496L156.29250000000002,152.51494598388672L156.75490384615384,105.31499099731445L157.2173076923077,123.45754051208496L157.67971153846153,104.57744598388672L158.1421153846154,190.42255401611328L158.60451923076923,107.3799819946289L159.0669230769231,104.87250900268555L159.52932692307692,163.57744598388672L159.99173076923074,121.83503150939941L160.45413461538462,104.87250900268555L160.91653846153844,92.77751350402832L161.3789423076923,97.79245948791504L161.84134615384613,93.36752700805664L162.30375,79.79755401611328L162.76615384615386,151.3350315093994L163.2285576923077,160.62749099731445L163.69096153846155,171.68999099731445L164.15336538461537,82.74750900268555L164.61576923076925,123.31000900268555L165.07817307692306,99.26754951477051L165.54057692307694,88.0575180053711L166.00298076923076,119.18002700805664L166.46538461538464,123.75249099731445L166.92778846153846,93.07246398925781L167.39019230769233,150.7450180053711L167.85259615384615,130.83254051208496L168.31500000000003,94.69497299194336L168.77740384615385,152.36752700805664L169.23980769230766,87.46750450134277L169.70221153846154,109.88745498657227L170.1646153846154,113.13247299194336L170.62701923076924,124.78498649597168L171.08942307692308,90.12250900268555L171.55182692307693,116.52502250671387L172.01423076923078,98.97248649597168L172.47663461538463,83.04245948791504L172.93903846153847,109.74003601074219L173.4014423076923,87.17255401611328L173.86384615384617,102.21750450134277L174.32625,73.75L174.78865384615386,112.09997749328613L175.25105769230768,109.88745498657227L175.71346153846156,116.08254051208496L176.17586538461538,107.82246398925781L176.63826923076925,139.8300495147705L177.10067307692307,110.77253150939941L177.56307692307695,134.81499099731445L178.02548076923077,87.61503601074219L178.48788461538462,123.45754051208496L178.95028846153846,111.21501350402832L179.4126923076923,122.27751350402832L179.87509615384616,146.31997299194336L180.3375,96.61254501342773L180.79990384615385,101.03747749328613L181.2623076923077,108.70754051208496L181.72471153846155,115.49252700805664L182.1871153846154,88.79495048522949L182.64951923076922,91.89254951477051L183.1119230769231,97.79245948791504L183.5743269230769,152.81000900268555L184.0367307692308,110.03498649597168L184.4991346153846,141.59997749328613L184.96153846153848,111.80502700805664L185.4239423076923,116.81997299194336L185.88634615384618,90.56499099731445L186.34875,72.86503601074219L186.81115384615384,81.86254501342773L187.2735576923077,97.49750900268555L187.73596153846154,99.26754951477051L188.19836538461539,154.4325180053711L188.66076923076923,98.38247299194336L189.12317307692308,108.56000900268555L189.58557692307693,165.4950180053711L190.04798076923078,98.23505401611328L190.51038461538462,139.6825180053711L190.97278846153847,119.77004051208496L191.43519230769232,148.23754501342773L191.89759615384614,71.97995948791504L192.36,98.82495498657227L192.82240384615383,121.6875L193.2848076923077,114.46003150939941L193.74721153846153,99.85745048522949L194.2096153846154,108.26494598388672L194.67201923076922,81.27253150939941L195.1344230769231,107.96999549865723L195.59682692307692,126.55502700805664L196.05923076923077,79.35495948791504L196.5216346153846,144.6974639892578L196.98403846153846,117.5575180053711L197.4464423076923,112.98505401611328L197.90884615384616,96.46501350402832L198.37125,86.28747749328613L198.83365384615385,109.44497299194336L199.2960576923077,98.23505401611328L199.75846153846155,97.64504051208496L200.2208653846154,88.35246849060059L200.68326923076924,159.74252700805664L201.14567307692306,115.49252700805664L201.60807692307694,105.75747299194336L202.07048076923076,82.59997749328613L202.53288461538463,104.72497749328613L202.99528846153845,96.46501350402832L203.45769230769233,85.55004501342773L203.92009615384615,115.63994598388672L204.38250000000002,111.0674819946289L204.84490384615384,88.64753150939941L205.3073076923077,101.33254051208496L205.76971153846154,96.46501350402832L206.23211538461538,75.07744598388672L206.69451923076923,115.63994598388672L207.15692307692308,91.7450180053711L207.61932692307693,112.54245948791504L208.08173076923077,181.5724639892578L208.54413461538462,137.61752700805664L209.00653846153847,74.93002700805664L209.46894230769232,107.08503150939941L209.93134615384616,141.15749549865723L210.39374999999998,106.05253601074219L210.85615384615386,127.88247299194336L211.31855769230768,130.97995948791504L211.78096153846155,117.85246849060059L212.24336538461537,95.72746849060059L212.70576923076925,110.625L213.16817307692307,87.31997299194336L213.63057692307694,151.6299819946289L214.09298076923076,122.86752700805664L214.5553846153846,115.34499549865723L215.01778846153846,101.77502250671387L215.4801923076923,129.5049819946289L215.94259615384615,77.4375L216.405,104.72497749328613L216.86740384615385,85.84499549865723L217.3298076923077,92.92504501342773L217.79221153846154,126.40749549865723L218.2546153846154,109.88745498657227L218.7170192307692,123.90002250671387L219.1794230769231,187.9149684906006L219.6418269230769,84.8125L220.10423076923078,116.22995948791504L220.5666346153846,126.70244598388672L221.02903846153848,125.08004951477051L221.4914423076923,116.67255401611328L221.95384615384617,115.05004501342773L222.41625,129.9474639892578L222.87865384615387,114.3125L223.3410576923077,84.8125L223.80346153846153,112.54245948791504L224.26586538461538,80.97746849060059L224.72826923076923,139.6825180053711L225.19067307692308,148.53249549865723L225.65307692307692,137.61752700805664L226.11548076923077,86.28747749328613L226.57788461538462,86.72995948791504L227.04028846153847,93.51494598388672L227.5026923076923,111.21501350402832L227.96509615384613,158.1200180053711L228.4275,96.46501350402832L228.88990384615383,102.51245498657227L229.3523076923077,231.8700180053711L229.81471153846152,86.43500900268555L230.2771153846154,137.76494598388672L230.73951923076922,77.73245048522949L231.2019230769231,79.20754051208496L231.6643269230769,112.83752250671387L232.1267307692308,89.53249549865723L232.5891346153846,133.78249549865723L233.05153846153846,108.11752700805664L233.5139423076923,73.15998649597168L233.97634615384615,135.84748649597168L234.43875,86.13994598388672L234.90115384615385,92.48245048522949L235.3635576923077,93.95754051208496L235.82596153846154,113.42753601074219L236.2883653846154,140.2725315093994L236.75076923076924,99.85745048522949L237.21317307692306,85.10745048522949L237.67557692307693,125.52253150939941L238.13798076923075,127.88247299194336L238.60038461538463,125.8174819946289L239.06278846153845,93.95754051208496L239.52519230769232,128.47248649597168L239.98759615384614,99.41496849060059L240.45000000000002,86.72995948791504L240.91240384615384,104.28249549865723L241.37480769230768,102.51245498657227L241.83721153846153,88.64753150939941L242.29961538461538,113.28000450134277L242.76201923076923,78.61752700805664L243.22442307692307,142.48505401611328L243.68682692307692,101.03747749328613L244.14923076923077,123.45754051208496L244.61163461538462,152.81000900268555L245.07403846153846,97.05502700805664L245.5364423076923,93.21999549865723L245.99884615384616,106.64254951477051L246.46124999999998,91.30253601074219L246.92365384615385,82.74750900268555L247.38605769230767,88.9424819946289L247.84846153846155,100.30004501342773L248.31086538461537,88.20504951477051L248.77326923076924,89.23754501342773L249.23567307692306,91.15500450134277L249.69807692307694,78.76494598388672L250.16048076923076,79.50249099731445L250.6228846153846,103.6924819946289L251.08528846153845,132.8975315093994L251.5476923076923,123.60495948791504L252.01009615384615,112.54245948791504L252.4725,109.59250450134277L252.93490384615384,109.44497299194336L253.3973076923077,99.41496849060059L253.85971153846154,87.02502250671387L254.3221153846154,128.47248649597168L254.5533173076923,91.00747299194336L254.78451923076923,84.22248649597168L255.01572115384616,135.69995498657227L255.24692307692308,120.80253601074219L255.478125,141.30502700805664L255.7093269230769,102.06997299194336L255.94052884615385,94.40002250671387L256.17173076923075,127.14504051208496L256.4029326923077,119.18002700805664L256.6341346153846,111.50996398925781L256.8653365384616,131.27502250671387L257.09653846153844,85.10745048522949L257.32774038461537,150.00747299194336L257.5589423076923,136.5850315093994L257.7901442307692,107.67504501342773L258.02134615384614,89.38496398925781L258.25254807692306,68.43999099731445L258.48375,114.16496849060059L258.7149519230769,110.77253150939941L258.94615384615383,75.81499099731445L259.17735576923076,72.56997299194336L259.4085576923077,147.5L259.6397596153846,113.28000450134277L259.87096153846153,177.2949504852295L260.10216346153845,88.0575180053711L260.3333653846154,88.64753150939941L260.5645673076923,85.10745048522949L260.7957692307692,88.0575180053711L261.02697115384615,97.49750900268555L261.2581730769231,92.33503150939941L261.489375,113.42753601074219L261.7205769230769,121.39254951477051L261.95177884615384,103.98754501342773L262.18298076923077,76.69995498657227L262.4141826923077,101.92255401611328L262.6453846153846,61.50747299194336L262.87658653846154,144.6974639892578L263.10778846153846,106.34748649597168L263.3389903846154,107.67504501342773L263.5701923076923,106.34748649597168L263.80139423076923,113.28000450134277L264.03259615384616,120.80253601074219L264.2637980769231,85.55004501342773L264.495,132.6024684906006L264.7262019230769,125.22746849060059L264.95740384615385,110.625L265.1886057692308,78.17504501342773L265.4198076923077,104.28249549865723L265.6510096153846,98.82495498657227L265.88221153846155,112.68999099731445L266.11341346153847,109.29755401611328L266.3446153846154,93.51494598388672L266.5758173076923,100.15251350402832L266.80701923076924,79.35495948791504L267.03822115384617,99.85745048522949L267.2694230769231,89.23754501342773L267.500625,90.41745948791504L267.73182692307694,84.3700180053711L267.96302884615386,99.41496849060059L268.1942307692308,83.78000450134277L268.4254326923077,103.39753150939941L268.65663461538463,126.55502700805664L268.88783653846156,101.77502250671387L269.1190384615384,120.80253601074219L269.3502403846154,126.11254501342773L269.5814423076923,182.45754051208496L269.81264423076925,143.9600315093994L270.0438461538461,94.25249099731445L270.2750480769231,94.99003601074219L270.50625,118.73754501342773L270.73745192307695,129.5049819946289L270.9686538461538,99.85745048522949L271.19985576923074,98.53000450134277L271.4310576923077,93.66247749328613L271.66225961538464,95.58004951477051L271.8934615384615,162.98754501342773L272.12466346153843,87.31997299194336L272.3558653846154,91.30253601074219L272.58706730769234,107.23245048522949L272.8182692307692,169.1825180053711L273.0494711538461,107.08503150939941L273.28067307692305,112.68999099731445L273.51187500000003,127.43999099731445L273.7430769230769,90.86005401611328L273.9742788461538,126.25996398925781L274.20548076923075,85.69746398925781L274.4366826923077,85.10745048522949L274.6678846153846,89.09001350402832L274.8990865384615,90.86005401611328L275.13028846153844,101.47995948791504L275.3614903846154,89.38496398925781L275.5926923076923,81.5674819946289L275.8238942307692,94.54755401611328L276.05509615384614,90.27004051208496L276.28629807692306,131.42255401611328L276.5175,126.99750900268555L276.7487019230769,151.3350315093994" style="fill: none;" fill="none"></path></g><g><path stroke="rgb(0, 153, 136)" stroke-width="2px" d="M34.68028846153847,178.96191024780273L36.9923076923077,157.98340225219727L39.30432692307693,128.3178653717041L41.61634615384616,126.78144454956055L43.92836538461539,109.40761184692383L46.24038461538462,106.86660385131836L48.55240384615385,95.84540367126465L50.86442307692308,84.29248237609863L53.17644230769231,95.28408622741699L55.48846153846154,74.92597579956055L57.800480769230774,79.3285140991211L60.112500000000004,76.4623966217041L62.424519230769235,76.99434280395508L64.73653846153846,66.03222274780273L67.0485576923077,71.32118797302246L69.36057692307693,84.20380592346191L71.67259615384616,65.70722579956055L73.9846153846154,71.8530216217041L76.2966346153846,66.62324905395508L78.60865384615386,75.3692455291748L80.92067307692307,69.96200752258301L83.23269230769232,74.8963794708252L85.54471153846154,71.02578735351562L87.85673076923078,66.35721969604492L90.16875,71.20302772521973L92.48076923076924,76.40331649780273L94.79278846153846,78.58984375L97.1048076923077,68.42558670043945L99.41682692307693,67.95283317565918L101.72884615384616,59.82734680175781L104.04086538461539,70.31660079956055L106.35288461538462,57.345306396484375L108.66490384615385,60.536420822143555L110.97692307692309,63.01846122741699L113.28894230769231,55.395212173461914L115.60096153846155,66.26865577697754L117.91298076923077,54.95205497741699L120.22500000000001,66.06181907653809L122.53701923076923,71.70537757873535L124.84903846153847,51.051753997802734L127.1610576923077,69.48925399780273L129.47307692307692,68.21875L131.78509615384615,51.28818702697754L134.0971153846154,56.75439262390137L136.4091346153846,57.90673637390137L138.72115384615387,64.70263862609863L139.1835576923077,59.44315719604492L139.64596153846153,54.98153877258301L140.10836538461538,52.29277420043945L140.57076923076923,52.824607849121094L141.03317307692308,56.6953125L141.49557692307692,51.76094055175781L141.95798076923077,59.118160247802734L142.42038461538462,52.233694076538086L142.88278846153847,66.20957565307617L143.34519230769232,50.87451362609863L143.80759615384613,55.54296875L144.26999999999998,53.32695770263672L144.73240384615383,51.19951057434082L145.19480769230768,56.931745529174805L145.65721153846152,53.56327819824219L146.11961538461537,53.79971122741699L146.58201923076925,53.651954650878906L147.0444230769231,60.41826057434082L147.50682692307694,47.74247932434082L147.9692307692308,47.712995529174805L148.4316346153846,46.91513252258301L148.89403846153846,55.21797180175781L149.3564423076923,59.82734680175781L149.81884615384615,46.826568603515625L150.28125,54.390625L150.74365384615382,52.38145065307617L151.2060576923077,49.98808670043945L151.66846153846151,63.372941970825195L152.1308653846154,63.7866153717041L152.5932692307692,54.2133846282959L153.05567307692309,46.974212646484375L153.5180769230769,46.737892150878906L153.98048076923078,51.938180923461914L154.44288461538463,51.28818702697754L154.90528846153845,67.77559280395508L155.36769230769232,50.34267997741699L155.83009615384614,47.860639572143555L156.29250000000002,50.63808059692383L156.75490384615384,66.50497627258301L157.2173076923077,52.70644760131836L157.67971153846153,53.44511795043945L158.1421153846154,54.68613815307617L158.60451923076923,59.384077072143555L159.0669230769231,64.82079887390137L159.52932692307692,59.29551315307617L159.99173076923074,47.80155944824219L160.45413461538462,47.91971969604492L160.91653846153844,50.31308364868164L161.3789423076923,52.35185432434082L161.84134615384613,48.95390319824219L162.30375,51.73134422302246L162.76615384615386,53.14960479736328L163.2285576923077,56.458879470825195L163.69096153846155,47.41748237609863L164.15336538461537,44.255964279174805L164.61576923076925,46.974212646484375L165.07817307692306,49.72216987609863L165.54057692307694,45.88106155395508L166.00298076923076,50.72675704956055L166.46538461538464,46.737892150878906L166.92778846153846,44.69912147521973L167.39019230769233,43.0444278717041L167.85259615384615,53.71103477478027L168.31500000000003,61.688764572143555L168.77740384615385,63.7866153717041L169.23980769230766,60.24102020263672L169.70221153846154,53.71103477478027L170.1646153846154,53.82919502258301L170.62701923076924,50.22440719604492L171.08942307692308,54.83378219604492L171.55182692307693,55.040618896484375L172.01423076923078,46.1469783782959L172.47663461538463,44.84687805175781L172.93903846153847,51.435943603515625L173.4014423076923,40.148826599121094L173.86384615384617,43.16270065307617L174.32625,41.862600326538086L174.78865384615386,47.358402252197266L175.25105769230768,45.79238510131836L175.71346153846156,51.25859069824219L176.17586538461538,50.84491729736328L176.63826923076925,53.68143844604492L177.10067307692307,48.747066497802734L177.56307692307695,54.09511184692383L178.02548076923077,46.76737594604492L178.48788461538462,57.079389572143555L178.95028846153846,55.83848190307617L179.4126923076923,49.19033622741699L179.87509615384616,47.68339920043945L180.3375,55.690725326538086L180.79990384615385,41.92168045043945L181.2623076923077,42.77851104736328L181.72471153846155,58.94091987609863L182.1871153846154,47.00380897521973L182.64951923076922,44.58096122741699L183.1119230769231,39.173723220825195L183.5743269230769,47.624319076538086L184.0367307692308,45.408308029174805L184.4991346153846,40.82841682434082L184.96153846153848,42.985347747802734L185.4239423076923,43.635454177856445L185.88634615384618,39.5873966217041L186.34875,53.44511795043945L186.81115384615384,38.93740272521973L187.2735576923077,47.83115577697754L187.73596153846154,45.20147132873535L188.19836538461539,55.21797180175781L188.66076923076923,47.358402252197266L189.12317307692308,49.45625305175781L189.58557692307693,49.544816970825195L190.04798076923078,37.99189567565918L190.51038461538462,42.06943702697754L190.97278846153847,36.54403877258301L191.43519230769232,42.719430923461914L191.89759615384614,46.88564872741699L192.36,35.98272132873535L192.82240384615383,60.59550094604492L193.2848076923077,41.18301010131836L193.74721153846153,50.194923400878906L194.2096153846154,39.912506103515625L194.67201923076922,40.444339752197266L195.1344230769231,40.20790672302246L195.59682692307692,39.11464309692383L196.05923076923077,37.07587242126465L196.5216346153846,43.93085479736328L196.98403846153846,38.61240577697754L197.4464423076923,41.27168655395508L197.90884615384616,46.85605239868164L198.37125,42.83759117126465L198.83365384615385,42.83759117126465L199.2960576923077,35.7758846282959L199.75846153846155,46.560651779174805L200.2208653846154,38.2578125L200.68326923076924,42.453514099121094L201.14567307692306,39.49883270263672L201.60807692307694,47.41748237609863L202.07048076923076,42.77851104736328L202.53288461538463,42.39443397521973L202.99528846153845,37.253225326538086L203.45769230769233,39.41015625L203.92009615384615,48.126556396484375L204.38250000000002,40.26698684692383L204.84490384615384,37.16454887390137L205.3073076923077,39.5873966217041L205.76971153846154,44.28544807434082L206.23211538461538,42.60127067565918L206.69451923076923,33.29384422302246L207.15692307692308,44.34452819824219L207.61932692307693,38.22821617126465L208.08173076923077,85.76982307434082L208.54413461538462,43.280860900878906L209.00653846153847,36.04180145263672L209.46894230769232,37.341901779174805L209.93134615384616,40.444339752197266L210.39374999999998,41.38984680175781L210.85615384615386,42.80810737609863L211.31855769230768,38.671485900878906L211.78096153846155,42.749027252197266L212.24336538461537,41.74444007873535L212.70576923076925,40.7397403717041L213.16817307692307,37.04638862609863L213.63057692307694,45.85146522521973L214.09298076923076,38.58280944824219L214.5553846153846,33.55976104736328L215.01778846153846,34.83037757873535L215.4801923076923,36.987308502197266L215.94259615384615,34.53486442565918L216.405,41.12392997741699L216.86740384615385,53.26787757873535L217.3298076923077,38.52372932434082L217.79221153846154,37.31230545043945L218.2546153846154,44.46268844604492L218.7170192307692,32.02334022521973L219.1794230769231,43.0444278717041L219.6418269230769,36.42587852478027L220.10423076923078,37.755462646484375L220.5666346153846,35.33261489868164L221.02903846153848,41.330766677856445L221.4914423076923,30.98915672302246L221.95384615384617,49.72216987609863L222.41625,36.189558029174805L222.87865384615387,37.607818603515625L223.3410576923077,34.150787353515625L223.80346153846153,41.596683502197266L224.26586538461538,35.7758846282959L224.72826923076923,41.212493896484375L225.19067307692308,34.71210479736328L225.65307692307692,43.014944076538086L226.11548076923077,41.03525352478027L226.57788461538462,37.844139099121094L227.04028846153847,36.869035720825195L227.5026923076923,36.66231155395508L227.96509615384613,43.07402420043945L228.4275,34.387107849121094L228.88990384615383,34.26894760131836L229.3523076923077,39.67607307434082L229.81471153846152,47.15156555175781L230.2771153846154,44.64004135131836L230.73951923076922,35.15537452697754L231.2019230769231,31.60966682434082L231.6643269230769,34.032514572143555L232.1267307692308,41.38984680175781L232.5891346153846,37.63730239868164L233.05153846153846,32.643850326538086L233.5139423076923,32.377933502197266L233.97634615384615,48.06747627258301L234.43875,33.884870529174805L234.90115384615385,38.87832260131836L235.3635576923077,38.52372932434082L235.82596153846154,38.81924247741699L236.2883653846154,42.6899471282959L236.75076923076924,40.65117645263672L237.21317307692306,40.76933670043945L237.67557692307693,52.499610900878906L238.13798076923075,35.27353477478027L238.60038461538463,34.35762405395508L239.06278846153845,42.01035690307617L239.52519230769232,39.5873966217041L239.98759615384614,36.48495864868164L240.45000000000002,37.755462646484375L240.91240384615384,31.402830123901367L241.37480769230768,33.412004470825195L241.83721153846153,35.00761795043945L242.29961538461538,35.42129135131836L242.76201923076923,38.34648895263672L243.22442307692307,31.846099853515625L243.68682692307692,32.23017692565918L244.14923076923077,31.284669876098633L244.61163461538462,38.405569076538086L245.07403846153846,33.766597747802734L245.5364423076923,37.01679229736328L245.99884615384616,44.07861137390137L246.46124999999998,36.100881576538086L246.92365384615385,35.33261489868164L247.38605769230767,31.048236846923828L247.84846153846155,35.36221122741699L248.31086538461537,45.408308029174805L248.77326923076924,33.264360427856445L249.23567307692306,38.375972747802734L249.69807692307694,35.27353477478027L250.16048076923076,34.150787353515625L250.6228846153846,32.76201057434082L251.08528846153845,36.189558029174805L251.5476923076923,33.500680923461914L252.01009615384615,39.97158622741699L252.4725,35.00761795043945L252.93490384615384,30.043649673461914L253.3973076923077,44.49228477478027L253.85971153846154,41.330766677856445L254.3221153846154,39.557912826538086L254.5533173076923,29.92548942565918L254.78451923076923,39.67607307434082L255.01572115384616,34.88945770263672L255.24692307692308,36.189558029174805L255.478125,35.037214279174805L255.7093269230769,31.87558364868164L255.94052884615385,39.70566940307617L256.17173076923075,34.47578430175781L256.4029326923077,40.414743423461914L256.6341346153846,31.96426010131836L256.8653365384616,42.453514099121094L257.09653846153844,38.58280944824219L257.32774038461537,36.30771827697754L257.5589423076923,36.66231155395508L257.7901442307692,34.59394454956055L258.02134615384614,36.27812194824219L258.25254807692306,35.09629440307617L258.48375,34.35762405395508L258.7149519230769,31.5209903717041L258.94615384615383,34.298431396484375L259.17735576923076,35.450775146484375L259.4085576923077,39.14423942565918L259.6397596153846,43.75361442565918L259.87096153846153,30.3686466217041L260.10216346153845,40.710256576538086L260.3333653846154,33.97343444824219L260.5645673076923,31.993743896484375L260.7957692307692,38.61240577697754L261.02697115384615,37.07587242126465L261.2581730769231,47.12196922302246L261.489375,28.77314567565918L261.7205769230769,31.048236846923828L261.95177884615384,29.600492477416992L262.18298076923077,34.653024673461914L262.4141826923077,31.34375L262.6453846153846,44.433204650878906L262.87658653846154,33.08700752258301L263.10778846153846,34.9780216217041L263.3389903846154,31.225589752197266L263.5701923076923,52.38145065307617L263.80139423076923,41.80352020263672L264.03259615384616,39.41015625L264.2637980769231,62.2797908782959L264.495,30.841400146484375L264.7262019230769,37.54862594604492L264.95740384615385,34.35762405395508L265.1886057692308,30.634563446044922L265.4198076923077,36.337202072143555L265.6510096153846,35.39169502258301L265.88221153846155,27.88671875L266.11341346153847,44.07861137390137L266.3446153846154,36.78047180175781L266.5758173076923,54.242868423461914L266.80701923076924,43.635454177856445L267.03822115384617,30.10272979736328L267.2694230769231,36.9282283782959L267.500625,35.98272132873535L267.73182692307694,32.28925704956055L267.96302884615386,37.10546875L268.1942307692308,40.976173400878906L268.4254326923077,39.94198989868164L268.65663461538463,39.05556297302246L268.88783653846156,31.402830123901367L269.1190384615384,36.987308502197266L269.3502403846154,32.85068702697754L269.5814423076923,46.35381507873535L269.81264423076925,36.42587852478027L270.0438461538461,44.64004135131836L270.2750480769231,33.264360427856445L270.50625,31.96426010131836L270.73745192307695,43.45810127258301L270.9686538461538,42.39443397521973L271.19985576923074,30.309566497802734L271.4310576923077,32.49609375L271.66225961538464,33.530277252197266L271.8934615384615,33.234764099121094L272.12466346153843,39.262399673461914L272.3558653846154,39.41015625L272.58706730769234,33.8256778717041L272.8182692307692,38.760162353515625L273.0494711538461,37.253225326538086L273.28067307692305,41.212493896484375L273.51187500000003,35.953125L273.7430769230769,35.59853172302246L273.9742788461538,33.8256778717041L274.20548076923075,43.48769760131836L274.4366826923077,31.934663772583008L274.6678846153846,37.57822227478027L274.8990865384615,32.85068702697754L275.13028846153844,30.930076599121094L275.3614903846154,28.714065551757812L275.5926923076923,36.75087547302246L275.8238942307692,32.76201057434082L276.05509615384614,37.341901779174805L276.28629807692306,34.062110900878906L276.5175,32.82109069824219L276.7487019230769,40.11934280395508" style="fill: none;" fill="none"></path></g><g><path stroke="rgb(0, 119, 187)" stroke-width="2px" d="M36.52990384615384,184.2274684906006L36.9923076923077,171.68999099731445L37.45471153846154,183.78498649597168L37.91711538461538,175.67255401611328L38.379519230769226,148.23754501342773L38.84192307692308,160.62749099731445L39.30432692307693,146.90998649597168L39.766730769230776,140.86254501342773L40.22913461538461,139.8300495147705L40.691538461538464,157.23505401611328L41.15394230769231,130.53747749328613L41.61634615384616,144.40251350402832L42.07875000000001,129.9474639892578L42.54115384615385,128.03000450134277L43.003557692307695,120.36005401611328L43.46596153846154,137.76494598388672L43.92836538461539,120.36005401611328L44.39076923076924,121.6875L44.85317307692308,122.42504501342773L45.315576923076925,122.27751350402832L45.77798076923077,117.5575180053711L46.24038461538462,125.8174819946289L46.70278846153846,118.29495048522949L47.16519230769231,97.49750900268555L47.627596153846156,111.50996398925781L48.09,110.91995048522949L48.55240384615385,113.72248649597168L49.01480769230769,104.57744598388672L49.47721153846154,102.65998649597168L49.93961538461539,123.16247749328613L50.402019230769234,109.29755401611328L50.86442307692308,96.3174819946289L51.32682692307692,129.3574504852295L51.78923076923077,125.52253150939941L52.25163461538462,104.87250900268555L52.714038461538465,99.5625L53.17644230769231,104.57744598388672L53.63884615384615,93.81000900268555L54.10125,98.67753601074219L54.56365384615385,89.53249549865723L55.026057692307695,102.06997299194336L55.48846153846154,82.30502700805664L55.95086538461538,91.44995498657227L56.41326923076923,106.05253601074219L56.87567307692308,86.58254051208496L57.338076923076926,94.54755401611328L57.800480769230774,97.34997749328613L58.262884615384614,105.75747299194336L58.72528846153846,89.82744598388672L59.18769230769231,106.9375L59.65009615384616,94.99003601074219L60.112500000000004,85.84499549865723L60.574903846153845,95.28498649597168L61.03730769230769,97.93999099731445L61.49971153846154,87.17255401611328L61.96211538461539,106.34748649597168L62.424519230769235,89.97497749328613L62.886923076923075,95.58004951477051L63.34932692307692,89.09001350402832L63.81173076923077,111.95244598388672L64.27413461538461,89.53249549865723L64.73653846153846,81.27253150939941L65.1989423076923,88.9424819946289L65.66134615384615,89.23754501342773L66.12375,94.40002250671387L66.58615384615385,96.61254501342773L67.0485576923077,88.20504951477051L67.51096153846153,107.08503150939941L67.97336538461538,112.68999099731445L68.43576923076922,90.71252250671387L68.89817307692307,96.75996398925781L69.36057692307693,103.98754501342773L69.82298076923077,98.82495498657227L70.28538461538461,102.95504951477051L70.74778846153846,87.90998649597168L71.21019230769231,92.1875L71.67259615384616,80.09250450134277L72.13499999999999,84.07495498657227L72.59740384615384,83.33752250671387L73.05980769230769,87.76245498657227L73.52221153846155,91.44995498657227L73.9846153846154,88.0575180053711L74.44701923076923,92.6299819946289L74.90942307692308,79.65002250671387L75.37182692307691,92.33503150939941L75.83423076923076,84.66496849060059L76.2966346153846,85.69746398925781L76.75903846153845,91.89254951477051L77.22144230769231,101.33254051208496L77.68384615384616,93.51494598388672L78.14625000000001,94.99003601074219L78.60865384615386,92.6299819946289L79.0710576923077,80.38745498657227L79.53346153846155,87.90998649597168L79.99586538461537,84.3700180053711L80.45826923076922,93.51494598388672L80.92067307692307,90.12250900268555L81.38307692307693,77.58503150939941L81.84548076923078,91.89254951477051L82.30788461538462,83.48505401611328L82.77028846153847,84.51754951477051L83.23269230769232,98.82495498657227L83.69509615384617,92.03996849060059L84.15750000000001,85.69746398925781L84.61990384615383,78.17504501342773L85.0823076923077,92.1875L85.54471153846154,89.82744598388672L86.00711538461539,79.50249099731445L86.46951923076924,85.84499549865723L86.93192307692308,91.00747299194336L87.39432692307693,89.68002700805664L87.85673076923078,80.97746849060059L88.31913461538463,87.02502250671387L88.78153846153847,82.74750900268555L89.24394230769231,103.54495048522949L89.70634615384616,87.31997299194336L90.16875,97.05502700805664L90.63115384615385,91.59748649597168L91.0935576923077,76.9950180053711L91.55596153846155,94.69497299194336L92.0183653846154,83.48505401611328L92.48076923076924,102.51245498657227L92.94317307692309,77.8799819946289L93.40557692307692,93.95754051208496L93.86798076923077,91.15500450134277L94.33038461538462,77.14254951477051L94.79278846153846,99.1200180053711L95.25519230769231,75.96252250671387L95.71759615384616,86.43500900268555L96.18,83.04245948791504L96.64240384615385,90.12250900268555L97.1048076923077,88.5L97.56721153846155,88.0575180053711L98.02961538461538,84.66496849060059L98.49201923076923,90.41745948791504L98.95442307692308,84.66496849060059L99.41682692307693,89.82744598388672L99.87923076923077,76.25747299194336L100.34163461538462,78.76494598388672L100.80403846153847,81.27253150939941L101.26644230769232,78.32246398925781L101.72884615384616,80.24003601074219L102.19125000000001,89.53249549865723L102.65365384615384,90.86005401611328L103.11605769230769,79.65002250671387L103.57846153846154,84.8125L104.04086538461539,92.1875L104.50326923076923,85.69746398925781L104.96567307692308,83.18999099731445L105.42807692307693,84.22248649597168L105.89048076923078,92.77751350402832L106.35288461538462,76.25747299194336L106.81528846153847,84.3700180053711L107.2776923076923,86.87749099731445L107.74009615384615,87.76245498657227L108.2025,84.07495498657227L108.66490384615385,80.6825180053711L109.1273076923077,94.40002250671387L109.58971153846154,78.76494598388672L110.05211538461539,76.55253601074219L110.51451923076924,83.92753601074219L110.97692307692309,85.10745048522949L111.43932692307693,82.15749549865723L111.90173076923077,82.30502700805664L112.36413461538461,91.7450180053711L112.82653846153846,75.07744598388672L113.28894230769231,71.24252700805664L113.75134615384616,80.24003601074219L114.21375,71.09499549865723L114.67615384615385,69.91496849060059L115.1385576923077,88.64753150939941L115.60096153846155,90.41745948791504L116.0633653846154,83.92753601074219L116.52576923076923,75.22497749328613L116.98817307692308,92.03996849060059L117.45057692307692,106.78996849060059L117.91298076923077,76.55253601074219L118.37538461538462,78.02751350402832L118.83778846153847,79.94497299194336L119.30019230769231,85.99252700805664L119.76259615384616,87.46750450134277L120.22500000000001,85.2549819946289L120.68740384615384,86.43500900268555L121.14980769230769,75.66745948791504L121.61221153846154,72.86503601074219L122.07461538461538,66.22746849060059L122.53701923076923,93.36752700805664L122.99942307692308,75.81499099731445L123.46182692307693,78.17504501342773L123.92423076923077,81.125L124.38663461538462,79.94497299194336L124.84903846153847,67.55502700805664L125.3114423076923,93.36752700805664L125.77384615384615,71.68500900268555L126.23625,79.35495948791504L126.69865384615385,80.38745498657227L127.1610576923077,89.82744598388672L127.62346153846154,67.40749549865723L128.08586538461537,82.30502700805664L128.54826923076922,74.48754501342773L129.01067307692307,85.10745048522949L129.47307692307692,89.97497749328613L129.93548076923076,67.99750900268555L130.3978846153846,90.86005401611328L130.86028846153846,82.74750900268555L131.3226923076923,74.63496398925781L131.78509615384615,69.76754951477051L132.2475,76.11005401611328L132.70990384615385,84.96003150939941L133.1723076923077,83.33752250671387L133.63471153846154,70.94746398925781L134.0971153846154,76.25747299194336L134.5595192307692,75.07744598388672L135.02192307692306,89.68002700805664L135.4843269230769,80.6825180053711L135.94673076923075,68.43999099731445L136.4091346153846,82.30502700805664L136.87153846153845,73.3075180053711L137.3339423076923,68.88247299194336L137.79634615384614,77.14254951477051L138.25875,59.442481994628906L138.72115384615387,80.97746849060059L138.95235576923076,73.89753150939941L139.1835576923077,79.06000900268555L139.4147596153846,73.15998649597168L139.64596153846153,80.53498649597168L139.87716346153846,74.93002700805664L140.10836538461538,73.15998649597168L140.3395673076923,78.91247749328613L140.57076923076923,67.84997749328613L140.80197115384615,63.57246398925781L141.03317307692308,69.6200180053711L141.264375,70.35745048522949L141.49557692307692,63.425045013427734L141.72677884615385,80.38745498657227L141.95798076923077,75.96252250671387L142.1891826923077,85.99252700805664L142.42038461538462,69.47248649597168L142.65158653846154,79.94497299194336L142.88278846153847,82.00996398925781L143.1139903846154,96.75996398925781L143.34519230769232,65.19497299194336L143.57639423076924,70.94746398925781L143.80759615384613,77.58503150939941L144.0387980769231,60.62250900268555L144.26999999999998,72.27502250671387L144.50120192307693,76.69995498657227L144.73240384615383,66.66995048522949L144.96360576923078,63.86752700805664L145.19480769230768,73.3075180053711L145.42600961538463,70.0625L145.65721153846152,72.27502250671387L145.88841346153845,84.22248649597168L146.11961538461537,69.47248649597168L146.3508173076923,76.25747299194336L146.58201923076925,70.35745048522949L146.81322115384614,61.80253601074219L147.0444230769231,85.10745048522949L147.275625,71.83254051208496L147.50682692307694,65.49003601074219L147.73802884615384,66.8174819946289L147.9692307692308,62.39254951477051L148.2004326923077,66.96501350402832L148.4316346153846,61.80253601074219L148.66283653846153,65.9325180053711L148.89403846153846,77.4375L149.12524038461538,79.65002250671387L149.3564423076923,81.125L149.58764423076923,66.8174819946289L149.81884615384615,61.50747299194336L150.05004807692308,76.84748649597168L150.28125,75.66745948791504L150.51245192307692,62.835031509399414L150.74365384615382,72.86503601074219L150.97485576923077,81.86254501342773L151.2060576923077,64.45754051208496L151.43725961538462,70.21003150939941L151.66846153846151,78.17504501342773L151.89966346153847,88.0575180053711L152.1308653846154,82.74750900268555L152.3620673076923,63.129981994628906L152.5932692307692,79.94497299194336L152.82447115384613,85.99252700805664L153.05567307692309,63.71999549865723L153.286875,69.91496849060059L153.5180769230769,60.62250900268555L153.74927884615383,61.65500450134277L153.98048076923078,69.32495498657227L154.2116826923077,88.79495048522949L154.44288461538463,70.0625L154.67408653846152,69.17753601074219L154.90528846153845,88.64753150939941L155.1364903846154,87.46750450134277L155.36769230769232,72.71750450134277L155.59889423076922,68.43999099731445L155.83009615384614,62.835031509399414L156.0612980769231,71.38994598388672L156.29250000000002,67.11254501342773L156.5237019230769,94.69497299194336L156.75490384615384,88.5L156.9861057692308,73.89753150939941L157.2173076923077,72.71750450134277L157.4485096153846,92.1875L157.67971153846153,71.24252700805664L157.91091346153846,76.11005401611328L158.1421153846154,76.11005401611328L158.3733173076923,74.1924819946289L158.60451923076923,82.15749549865723L158.83572115384615,75.37250900268555L159.0669230769231,88.0575180053711L159.298125,64.60495948791504L159.52932692307692,80.09250450134277L159.76052884615385,69.03000450134277L159.99173076923074,68.14504051208496L160.2229326923077,65.78498649597168L160.45413461538462,69.17753601074219L160.68533653846154,85.2549819946289L160.91653846153844,69.91496849060059L161.1477403846154,59.442481994628906L161.3789423076923,71.24252700805664L161.61014423076924,71.83254051208496L161.84134615384613,69.32495498657227L162.07254807692306,58.557518005371094L162.30375,74.34001350402832L162.53495192307693,63.71999549865723L162.76615384615386,78.61752700805664L162.99735576923075,65.9325180053711L163.2285576923077,80.53498649597168L163.45975961538463,61.65500450134277L163.69096153846155,67.55502700805664L163.92216346153845,72.86503601074219L164.15336538461537,61.36005401611328L164.38456730769232,64.60495948791504L164.61576923076925,67.84997749328613L164.84697115384614,82.45244598388672L165.07817307692306,69.47248649597168L165.30937500000002,73.45504951477051L165.54057692307694,65.19497299194336L165.77177884615384,73.60246849060059L166.00298076923076,74.78249549865723L166.23418269230768,64.75249099731445L166.46538461538464,61.50747299194336L166.69658653846153,70.0625L166.92778846153846,67.25996398925781L167.15899038461538,71.83254051208496L167.39019230769233,60.77004051208496L167.62139423076923,67.70244598388672L167.85259615384615,70.94746398925781L168.08379807692307,66.96501350402832L168.31500000000003,81.86254501342773L168.54620192307692,76.40500450134277L168.77740384615385,93.81000900268555L169.00860576923077,68.88247299194336L169.23980769230766,75.96252250671387L169.47100961538462,63.86752700805664L169.70221153846154,76.55253601074219L169.93341346153846,59.29495048522949L170.1646153846154,73.75L170.3958173076923,93.95754051208496L170.62701923076924,72.56997299194336L170.85822115384616,85.2549819946289L171.08942307692308,74.93002700805664L171.32062499999998,61.65500450134277L171.55182692307693,70.21003150939941L171.78302884615385,67.99750900268555L172.01423076923078,63.129981994628906L172.24543269230767,71.09499549865723L172.47663461538463,57.67255401611328L172.70783653846155,56.49252700805664L172.93903846153847,68.43999099731445L173.17024038461537,63.27751350402832L173.4014423076923,56.63994598388672L173.63264423076924,61.65500450134277L173.86384615384617,54.870018005371094L174.09504807692306,71.83254051208496L174.32625,58.11503601074219L174.55745192307694,58.852468490600586L174.78865384615386,61.65500450134277L175.01985576923076,65.34250450134277L175.25105769230768,65.19497299194336L175.4822596153846,67.84997749328613L175.71346153846156,69.91496849060059L175.94466346153845,79.50249099731445L176.17586538461538,75.52004051208496L176.4070673076923,68.58752250671387L176.63826923076925,70.35745048522949L176.86947115384615,60.03249549865723L177.10067307692307,70.65251350402832L177.331875,55.3125L177.56307692307695,79.79755401611328L177.79427884615384,80.6825180053711L178.02548076923077,61.36005401611328L178.2566826923077,70.35745048522949L178.48788461538462,70.94746398925781L178.71908653846154,62.39254951477051L178.95028846153846,75.37250900268555L179.1814903846154,65.9325180053711L179.4126923076923,66.375L179.64389423076923,64.60495948791504L179.87509615384616,70.65251350402832L180.10629807692308,81.27253150939941L180.3375,81.125L180.5687019230769,67.84997749328613L180.79990384615385,63.129981994628906L181.03110576923078,69.47248649597168L181.2623076923077,57.96750450134277L181.4935096153846,76.40500450134277L181.72471153846155,83.33752250671387L181.95591346153847,69.6200180053711L182.1871153846154,64.45754051208496L182.4183173076923,68.88247299194336L182.64951923076922,61.80253601074219L182.88072115384617,87.17255401611328L183.1119230769231,53.54245948791504L183.343125,60.77004051208496L183.5743269230769,64.60495948791504L183.80552884615386,65.34250450134277L184.0367307692308,62.09748649597168L184.26793269230768,66.08004951477051L184.4991346153846,58.40998649597168L184.73033653846153,57.67255401611328L184.96153846153848,61.65500450134277L185.19274038461538,76.84748649597168L185.4239423076923,62.39254951477051L185.65514423076922,61.80253601074219L185.88634615384618,57.67255401611328L186.11754807692307,92.77751350402832L186.34875,75.37250900268555L186.57995192307692,75.07744598388672L186.81115384615384,61.21252250671387L187.04235576923077,60.62250900268555L187.2735576923077,66.22746849060059L187.50475961538461,59.88496398925781L187.73596153846154,66.52253150939941L187.96716346153846,69.6200180053711L188.19836538461539,77.73245048522949L188.4295673076923,64.90002250671387L188.66076923076923,69.32495498657227L188.89197115384616,67.70244598388672L189.12317307692308,68.88247299194336L189.354375,69.91496849060059L189.58557692307693,73.60246849060059L189.81677884615382,71.24252700805664L190.04798076923078,55.164968490600586L190.2791826923077,59.147531509399414L190.51038461538462,57.52502250671387L190.74158653846152,66.08004951477051L190.97278846153847,48.675045013427734L191.2039903846154,56.49252700805664L191.43519230769232,63.71999549865723L191.6663942307692,63.129981994628906L191.89759615384614,65.78498649597168L192.1287980769231,64.90002250671387L192.36,48.96999549865723L192.5912019230769,63.27751350402832L192.82240384615383,80.6825180053711L193.05360576923078,65.63745498657227L193.2848076923077,62.6875L193.5160096153846,66.375L193.74721153846153,70.80004501342773L193.97841346153845,66.96501350402832L194.2096153846154,60.77004051208496L194.4408173076923,70.5049819946289L194.67201923076922,57.81997299194336L194.90322115384615,61.21252250671387L195.1344230769231,56.78747749328613L195.365625,65.63745498657227L195.59682692307692,58.70504951477051L195.82802884615384,54.42753601074219L196.05923076923077,55.3125L196.2904326923077,57.67255401611328L196.5216346153846,57.37749099731445L196.75283653846154,65.04755401611328L196.98403846153846,55.164968490600586L197.21524038461538,63.71999549865723L197.4464423076923,58.262454986572266L197.67764423076923,53.54245948791504L197.90884615384616,68.14504051208496L198.14004807692305,69.03000450134277L198.37125,62.539968490600586L198.60245192307693,59.147531509399414L198.83365384615385,62.245018005371094L199.06485576923075,59L199.2960576923077,54.870018005371094L199.52725961538462,63.86752700805664L199.75846153846155,65.78498649597168L199.98966346153844,61.50747299194336L200.2208653846154,61.65500450134277L200.45206730769232,58.11503601074219L200.68326923076924,63.27751350402832L200.91447115384614,60.62250900268555L201.14567307692306,59.59001350402832L201.376875,75.07744598388672L201.60807692307694,66.375L201.83927884615383,63.129981994628906L202.07048076923076,56.34499549865723L202.3016826923077,61.80253601074219L202.53288461538463,59.88496398925781L202.76408653846153,68.58752250671387L202.99528846153845,55.90251350402832L203.22649038461537,59L203.45769230769233,56.19746398925781L203.68889423076922,56.63994598388672L203.92009615384615,70.35745048522949L204.15129807692307,55.60745048522949L204.38250000000002,59.88496398925781L204.61370192307692,59.29495048522949L204.84490384615384,52.50996398925781L205.07610576923076,56.78747749328613L205.3073076923077,62.09748649597168L205.5385096153846,57.52502250671387L205.76971153846154,64.45754051208496L206.00091346153846,67.11254501342773L206.23211538461538,66.8174819946289L206.46331730769234,57.37749099731445L206.69451923076923,47.789968490600586L206.92572115384615,58.70504951477051L207.15692307692308,65.78498649597168L207.38812499999997,66.52253150939941L207.61932692307693,60.47497749328613L207.85052884615385,56.34499549865723L208.08173076923077,111.36254501342773L208.31293269230767,77.58503150939941L208.54413461538462,63.425045013427734L208.77533653846154,56.93500900268555L209.00653846153847,50.00249099731445L209.23774038461536,55.460031509399414L209.46894230769232,53.98505401611328L209.70014423076924,52.80502700805664L209.93134615384616,61.36005401611328L210.16254807692306,58.852468490600586L210.39374999999998,64.01494598388672L210.62495192307694,58.70504951477051L210.85615384615386,57.37749099731445L211.08735576923075,67.11254501342773L211.31855769230768,56.78747749328613L211.54975961538463,57.37749099731445L211.78096153846155,63.129981994628906L212.01216346153845,55.60745048522949L212.24336538461537,61.21252250671387L212.4745673076923,56.63994598388672L212.70576923076925,61.50747299194336L212.93697115384614,49.26494598388672L213.16817307692307,54.13247299194336L213.399375,60.32744598388672L213.63057692307694,62.6875L213.86177884615387,56.93500900268555L214.09298076923076,55.60745048522949L214.3241826923077,77.58503150939941L214.5553846153846,47.199954986572266L214.78658653846156,57.52502250671387L215.01778846153846,52.50996398925781L215.24899038461538,60.77004051208496L215.4801923076923,58.11503601074219L215.71139423076926,53.83752250671387L215.94259615384615,51.33004951477051L216.17379807692308,50.887454986572266L216.405,61.06499099731445L216.6362019230769,56.050045013427734L216.86740384615385,73.60246849060059L217.09860576923077,63.27751350402832L217.3298076923077,54.28000450134277L217.5610096153846,57.52502250671387L217.79221153846154,49.56000900268555L218.02341346153847,55.460031509399414L218.2546153846154,56.63994598388672L218.4858173076923,60.32744598388672L218.7170192307692,51.33004951477051L218.94822115384616,58.557518005371094L219.1794230769231,62.6875L219.41062499999998,51.772531509399414L219.6418269230769,52.362545013427734L219.87302884615386,52.65749549865723L220.10423076923078,56.93500900268555L220.33543269230768,74.78249549865723L220.5666346153846,55.01754951477051L220.79783653846155,57.08254051208496L221.02903846153848,55.90251350402832L221.26024038461537,51.477468490600586L221.4914423076923,47.34748649597168L221.72264423076922,58.40998649597168L221.95384615384617,76.11005401611328L222.1850480769231,54.72248649597168L222.41625,50.59250450134277L222.64745192307691,59.59001350402832L222.87865384615387,54.28000450134277L223.1098557692308,53.68999099731445L223.3410576923077,48.82246398925781L223.5722596153846,61.65500450134277L223.80346153846153,62.245018005371094L224.03466346153849,45.72497749328613L224.26586538461538,53.83752250671387L224.4970673076923,65.49003601074219L224.72826923076923,57.08254051208496L224.95947115384618,53.09997749328613L225.19067307692308,54.13247299194336L225.421875,51.477468490600586L225.65307692307692,64.90002250671387L225.88427884615382,52.21501350402832L226.11548076923077,64.45754051208496L226.3466826923077,53.68999099731445L226.57788461538462,63.57246398925781L226.80908653846151,59.59001350402832L227.04028846153847,57.96750450134277L227.2714903846154,57.67255401611328L227.5026923076923,49.85495948791504L227.7338942307692,62.835031509399414L227.96509615384613,66.8174819946289L228.19629807692309,56.49252700805664L228.4275,52.50996398925781L228.6587019230769,53.68999099731445L228.88990384615383,49.26494598388672L229.12110576923078,61.65500450134277L229.3523076923077,60.91745948791504L229.58350961538463,66.96501350402832L229.81471153846152,69.47248649597168L230.04591346153845,58.557518005371094L230.2771153846154,69.76754951477051L230.50831730769232,52.65749549865723L230.73951923076922,51.03498649597168L230.97072115384614,64.31000900268555L231.2019230769231,48.085031509399414L231.43312500000002,58.852468490600586L231.6643269230769,51.03498649597168L231.89552884615384,63.27751350402832L232.1267307692308,58.70504951477051L232.3579326923077,49.56000900268555L232.5891346153846,57.96750450134277L232.82033653846153,55.754981994628906L233.05153846153846,48.23245048522949L233.2827403846154,52.362545013427734L233.5139423076923,51.33004951477051L233.74514423076923,68.29245948791504L233.97634615384615,69.91496849060059L234.2075480769231,54.42753601074219L234.43875,56.050045013427734L234.66995192307692,61.06499099731445L234.90115384615385,59.29495048522949L235.13235576923074,54.870018005371094L235.3635576923077,57.96750450134277L235.59475961538462,59.29495048522949L235.82596153846154,60.18002700805664L236.05716346153844,51.03498649597168L236.2883653846154,68.14504051208496L236.5195673076923,47.199954986572266L236.75076923076924,58.262454986572266L236.98197115384613,52.362545013427734L237.21317307692306,59.442481994628906L237.444375,61.21252250671387L237.67557692307693,77.14254951477051L237.90677884615386,63.71999549865723L238.13798076923075,55.60745048522949L238.3691826923077,67.40749549865723L238.60038461538463,52.50996398925781L238.83158653846155,53.39504051208496L239.06278846153845,61.80253601074219L239.29399038461537,47.64254951477051L239.52519230769232,56.49252700805664L239.75639423076925,62.539968490600586L239.98759615384614,58.40998649597168L240.21879807692306,50.887454986572266L240.45000000000002,54.13247299194336L240.68120192307694,52.65749549865723L240.91240384615384,49.56000900268555L241.14360576923076,50.74003601074219L241.37480769230768,50.44497299194336L241.60600961538464,71.53747749328613L241.83721153846153,56.49252700805664L242.06841346153846,73.89753150939941L242.29961538461538,51.477468490600586L242.53081730769233,51.33004951477051L242.76201923076923,51.91995048522949L242.99322115384615,51.182518005371094L243.22442307692307,47.789968490600586L243.45562500000003,55.3125L243.68682692307692,50.15002250671387L243.91802884615385,60.77004051208496L244.14923076923077,49.70754051208496L244.38043269230766,60.03249549865723L244.61163461538462,56.78747749328613L244.84283653846154,73.3075180053711L245.07403846153846,50.59250450134277L245.3052403846154,53.09997749328613L245.5364423076923,55.754981994628906L245.76764423076924,61.949954986572266L245.99884615384616,70.94746398925781L246.23004807692308,60.91745948791504L246.46124999999998,61.06499099731445L246.69245192307693,81.125L246.92365384615385,56.78747749328613L247.15485576923078,49.85495948791504L247.38605769230767,49.26494598388672L247.61725961538463,49.56000900268555L247.84846153846155,52.21501350402832L248.07966346153847,64.60495948791504L248.31086538461537,68.29245948791504L248.5420673076923,54.574954986572266L248.77326923076924,55.3125L249.00447115384617,55.60745048522949L249.23567307692306,57.81997299194336L249.466875,61.65500450134277L249.69807692307694,53.39504051208496L249.92927884615386,48.675045013427734L250.16048076923076,55.754981994628906L250.39168269230768,55.01754951477051L250.6228846153846,58.852468490600586L250.85408653846156,52.067481994628906L251.08528846153845,55.01754951477051L251.31649038461538,64.01494598388672L251.5476923076923,56.19746398925781L251.77889423076925,50.29755401611328L252.01009615384615,61.50747299194336L252.24129807692307,51.33004951477051L252.4725,56.63994598388672L252.70370192307695,55.3125L252.93490384615384,50.74003601074219L253.16610576923077,49.56000900268555L253.3973076923077,65.49003601074219L253.62850961538462,58.557518005371094L253.85971153846154,59.29495048522949L254.09091346153846,49.26494598388672L254.3221153846154,59.29495048522949L254.5533173076923,43.95504951477051L254.78451923076923,63.71999549865723L255.01572115384616,54.42753601074219L255.24692307692308,53.98505401611328L255.478125,56.050045013427734L255.7093269230769,50.74003601074219L255.94052884615385,58.40998649597168L256.17173076923075,58.11503601074219L256.4029326923077,61.65500450134277L256.6341346153846,45.57744598388672L256.8653365384616,64.16247749328613L257.09653846153844,58.70504951477051L257.32774038461537,58.70504951477051L257.5589423076923,54.42753601074219L257.7901442307692,57.52502250671387L258.02134615384614,53.54245948791504L258.25254807692306,51.03498649597168L258.48375,54.13247299194336L258.7149519230769,50.887454986572266L258.94615384615383,53.09997749328613L259.17735576923076,51.772531509399414L259.4085576923077,57.81997299194336L259.6397596153846,68.73505401611328L259.87096153846153,47.34748649597168L260.10216346153845,66.375L260.3333653846154,50.44497299194336L260.5645673076923,50.59250450134277L260.7957692307692,59.59001350402832L261.02697115384615,53.09997749328613L261.2581730769231,69.32495498657227L261.489375,47.64254951477051L261.7205769230769,42.33254051208496L261.95177884615384,48.379981994628906L262.18298076923077,50.29755401611328L262.4141826923077,47.34748649597168L262.6453846153846,63.71999549865723L262.87658653846154,47.34748649597168L263.10778846153846,55.164968490600586L263.3389903846154,48.675045013427734L263.5701923076923,71.24252700805664L263.80139423076923,67.99750900268555L264.03259615384616,58.70504951477051L264.2637980769231,88.0575180053711L264.495,44.692481994628906L264.7262019230769,55.164968490600586L264.95740384615385,53.54245948791504L265.1886057692308,48.96999549865723L265.4198076923077,60.91745948791504L265.6510096153846,51.33004951477051L265.88221153846155,43.36503601074219L266.11341346153847,62.539968490600586L266.3446153846154,54.72248649597168L266.5758173076923,76.55253601074219L266.80701923076924,65.49003601074219L267.03822115384617,44.102468490600586L267.2694230769231,51.477468490600586L267.500625,53.39504051208496L267.73182692307694,52.067481994628906L267.96302884615386,54.28000450134277L268.1942307692308,61.50747299194336L268.4254326923077,57.52502250671387L268.65663461538463,59.29495048522949L268.88783653846156,48.379981994628906L269.1190384615384,57.08254051208496L269.3502403846154,49.85495948791504L269.5814423076923,70.0625L269.81264423076925,52.21501350402832L270.0438461538461,65.9325180053711L270.2750480769231,49.26494598388672L270.50625,49.56000900268555L270.73745192307695,67.70244598388672L270.9686538461538,62.245018005371094L271.19985576923074,50.74003601074219L271.4310576923077,48.82246398925781L271.66225961538464,47.64254951477051L271.8934615384615,45.72497749328613L272.12466346153843,59.88496398925781L272.3558653846154,56.050045013427734L272.58706730769234,48.96999549865723L272.8182692307692,58.70504951477051L273.0494711538461,51.03498649597168L273.28067307692305,64.60495948791504L273.51187500000003,52.21501350402832L273.7430769230769,56.19746398925781L273.9742788461538,52.80502700805664L274.20548076923075,59L274.4366826923077,44.692481994628906L274.6678846153846,59.59001350402832L274.8990865384615,52.067481994628906L275.13028846153844,44.692481994628906L275.3614903846154,40.5625L275.5926923076923,60.91745948791504L275.8238942307692,44.987545013427734L276.05509615384614,60.77004051208496L276.28629807692306,49.85495948791504L276.5175,48.23245048522949L276.7487019230769,59" style="fill: none;" fill="none"></path></g></g></g></g></g></g><g transform="translate(29, 177)" clip-path="url(#clip_1)"><clipPath id="clip_1"><rect width="300" height="23"></rect></clipPath><g><g><line x1="0" y1="0" x2="0" y2="5" style="visibility: inherit;" fill="rgb(0, 0, 0)" stroke="rgb(204, 204, 204)" stroke-width="1px"></line><line x1="23.12019230769231" y1="0" x2="23.12019230769231" y2="5" style="visibility: inherit;" fill="rgb(0, 0, 0)" stroke="rgb(204, 204, 204)" stroke-width="1px"></line><line x1="46.24038461538462" y1="0" x2="46.24038461538462" y2="5" style="visibility: inherit;" fill="rgb(0, 0, 0)" stroke="rgb(204, 204, 204)" stroke-width="1px"></line><line x1="69.36057692307693" y1="0" x2="69.36057692307693" y2="5" style="visibility: inherit;" fill="rgb(0, 0, 0)" stroke="rgb(204, 204, 204)" stroke-width="1px"></line><line x1="92.48076923076924" y1="0" x2="92.48076923076924" y2="5" style="visibility: inherit;" fill="rgb(0, 0, 0)" stroke="rgb(204, 204, 204)" stroke-width="1px"></line><line x1="115.60096153846155" y1="0" x2="115.60096153846155" y2="5" style="visibility: inherit;" fill="rgb(0, 0, 0)" stroke="rgb(204, 204, 204)" stroke-width="1px"></line><line x1="138.72115384615387" y1="0" x2="138.72115384615387" y2="5" style="visibility: inherit;" fill="rgb(0, 0, 0)" stroke="rgb(204, 204, 204)" stroke-width="1px"></line><line x1="161.84134615384613" y1="0" x2="161.84134615384613" y2="5" style="visibility: inherit;" fill="rgb(0, 0, 0)" stroke="rgb(204, 204, 204)" stroke-width="1px"></line><line x1="184.96153846153848" y1="0" x2="184.96153846153848" y2="5" style="visibility: inherit;" fill="rgb(0, 0, 0)" stroke="rgb(204, 204, 204)" stroke-width="1px"></line><line x1="208.08173076923077" y1="0" x2="208.08173076923077" y2="5" style="visibility: inherit;" fill="rgb(0, 0, 0)" stroke="rgb(204, 204, 204)" stroke-width="1px"></line><line x1="231.2019230769231" y1="0" x2="231.2019230769231" y2="5" style="visibility: inherit;" fill="rgb(0, 0, 0)" stroke="rgb(204, 204, 204)" stroke-width="1px"></line><line x1="254.3221153846154" y1="0" x2="254.3221153846154" y2="5" style="visibility: inherit;" fill="rgb(0, 0, 0)" stroke="rgb(204, 204, 204)" stroke-width="1px"></line><line x1="277.44230769230774" y1="0" x2="277.44230769230774" y2="5" style="visibility: inherit;" fill="rgb(0, 0, 0)" stroke="rgb(204, 204, 204)" stroke-width="1px"></line><line x1="300.5625" y1="0" x2="300.5625" y2="5" style="visibility: inherit;" fill="rgb(0, 0, 0)" stroke="rgb(204, 204, 204)" stroke-width="1px"></line></g><g transform="translate(0, 8)"><text x="0" y="0" dx="0em" dy="0.95em" style="text-anchor: middle; visibility: hidden; font-family: &quot;Helvetica Neue&quot;, sans-serif; font-size: 12px; font-weight: 200;" fill="rgb(50, 49, 63)" stroke="none" stroke-width="1px">-100</text><text x="23.12019230769231" y="0" dx="0em" dy="0.95em" style="text-anchor: middle; visibility: inherit; font-family: &quot;Helvetica Neue&quot;, sans-serif; font-size: 12px; font-weight: 200;" fill="rgb(50, 49, 63)" stroke="none" stroke-width="1px">0</text><text x="46.24038461538462" y="0" dx="0em" dy="0.95em" style="text-anchor: middle; visibility: hidden; font-family: &quot;Helvetica Neue&quot;, sans-serif; font-size: 12px; font-weight: 200;" fill="rgb(50, 49, 63)" stroke="none" stroke-width="1px">100</text><text x="69.36057692307693" y="0" dx="0em" dy="0.95em" style="text-anchor: middle; visibility: inherit; font-family: &quot;Helvetica Neue&quot;, sans-serif; font-size: 12px; font-weight: 200;" fill="rgb(50, 49, 63)" stroke="none" stroke-width="1px">200</text><text x="92.48076923076924" y="0" dx="0em" dy="0.95em" style="text-anchor: middle; visibility: hidden; font-family: &quot;Helvetica Neue&quot;, sans-serif; font-size: 12px; font-weight: 200;" fill="rgb(50, 49, 63)" stroke="none" stroke-width="1px">300</text><text x="115.60096153846155" y="0" dx="0em" dy="0.95em" style="text-anchor: middle; visibility: inherit; font-family: &quot;Helvetica Neue&quot;, sans-serif; font-size: 12px; font-weight: 200;" fill="rgb(50, 49, 63)" stroke="none" stroke-width="1px">400</text><text x="138.72115384615387" y="0" dx="0em" dy="0.95em" style="text-anchor: middle; visibility: hidden; font-family: &quot;Helvetica Neue&quot;, sans-serif; font-size: 12px; font-weight: 200;" fill="rgb(50, 49, 63)" stroke="none" stroke-width="1px">500</text><text x="161.84134615384613" y="0" dx="0em" dy="0.95em" style="text-anchor: middle; visibility: inherit; font-family: &quot;Helvetica Neue&quot;, sans-serif; font-size: 12px; font-weight: 200;" fill="rgb(50, 49, 63)" stroke="none" stroke-width="1px">600</text><text x="184.96153846153848" y="0" dx="0em" dy="0.95em" style="text-anchor: middle; visibility: hidden; font-family: &quot;Helvetica Neue&quot;, sans-serif; font-size: 12px; font-weight: 200;" fill="rgb(50, 49, 63)" stroke="none" stroke-width="1px">700</text><text x="208.08173076923077" y="0" dx="0em" dy="0.95em" style="text-anchor: middle; visibility: inherit; font-family: &quot;Helvetica Neue&quot;, sans-serif; font-size: 12px; font-weight: 200;" fill="rgb(50, 49, 63)" stroke="none" stroke-width="1px">800</text><text x="231.2019230769231" y="0" dx="0em" dy="0.95em" style="text-anchor: middle; visibility: hidden; font-family: &quot;Helvetica Neue&quot;, sans-serif; font-size: 12px; font-weight: 200;" fill="rgb(50, 49, 63)" stroke="none" stroke-width="1px">900</text><text x="254.3221153846154" y="0" dx="0em" dy="0.95em" style="text-anchor: middle; visibility: inherit; font-family: &quot;Helvetica Neue&quot;, sans-serif; font-size: 12px; font-weight: 200;" fill="rgb(50, 49, 63)" stroke="none" stroke-width="1px">1k</text><text x="277.44230769230774" y="0" dx="0em" dy="0.95em" style="text-anchor: middle; visibility: hidden; font-family: &quot;Helvetica Neue&quot;, sans-serif; font-size: 12px; font-weight: 200;" fill="rgb(50, 49, 63)" stroke="none" stroke-width="1px">1.1k</text><text x="300.5625" y="0" dx="0em" dy="0.95em" style="text-anchor: middle; visibility: hidden; font-family: &quot;Helvetica Neue&quot;, sans-serif; font-size: 12px; font-weight: 200;" fill="rgb(50, 49, 63)" stroke="none" stroke-width="1px">1.2k</text></g><line x1="0" y1="0" x2="300.5625" y2="0" fill="rgb(0, 0, 0)" stroke="rgb(204, 204, 204)" stroke-width="1px"></line></g></g></g></g></svg>