<svg viewBox="0 0 330 200" xmlns="http://www.w3.org/2000/svg"><g><g><g><g><g><line x1="48.875" y1="177" x2="43.875" y2="177" style="visibility: inherit;" fill="rgb(0, 0, 0)" stroke="rgb(204, 204, 204)" stroke-width="1px"></line><line x1="48.875" y1="159.3" x2="43.875" y2="159.3" style="visibility: inherit;" fill="rgb(0, 0, 0)" stroke="rgb(204, 204, 204)" stroke-width="1px"></line><line x1="48.875" y1="141.6" x2="43.875" y2="141.6" style="visibility: inherit;" fill="rgb(0, 0, 0)" stroke="rgb(204, 204, 204)" stroke-width="1px"></line><line x1="48.875" y1="123.89999999999999" x2="43.875" y2="123.89999999999999" style="visibility: inherit;" fill="rgb(0, 0, 0)" stroke="rgb(204, 204, 204)" stroke-width="1px"></line><line x1="48.875" y1="106.2" x2="43.875" y2="106.2" style="visibility: inherit;" fill="rgb(0, 0, 0)" stroke="rgb(204, 204, 204)" stroke-width="1px"></line><line x1="48.875" y1="88.5" x2="43.875" y2="88.5" style="visibility: inherit;" fill="rgb(0, 0, 0)" stroke="rgb(204, 204, 204)" stroke-width="1px"></line><line x1="48.875" y1="70.8" x2="43.875" y2="70.8" style="visibility: inherit;" fill="rgb(0, 0, 0)" stroke="rgb(204, 204, 204)" stroke-width="1px"></line><line x1="48.875" y1="53.10000000000001" x2="43.875" y2="53.10000000000001" style="visibility: inherit;" fill="rgb(0, 0, 0)" stroke="rgb(204, 204, 204)" stroke-width="1px"></line><line x1="48.875" y1="35.400000000000006" x2="43.875" y2="35.400000000000006" style="visibility: inherit;" fill="rgb(0, 0, 0)" stroke="rgb(204, 204, 204)" stroke-width="1px"></line><line x1="48.875" y1="17.69999999999999" x2="43.875" y2="17.69999999999999" style="visibility: inherit;" fill="rgb(0, 0, 0)" stroke="rgb(204, 204, 204)" stroke-width="1px"></line><line x1="48.875" y1="0" x2="43.875" y2="0" style="visibility: inherit;" fill="rgb(0, 0, 0)" stroke="rgb(204, 204, 204)" stroke-width="1px"></line></g><g transform="translate(38.875, 0)"><text x="0" y="177" dx="0em" dy="0.3em" style="text-anchor: end; visibility: hidden; font-family: &quot;Helvetica Neue&quot;, sans-serif; font-size: 12px; font-weight: 200;" fill="rgb(50, 49, 63)" stroke="none" stroke-width="1px">-0.1</text><text x="0" y="159.3" dx="0em" dy="0.3em" style="text-anchor: end; visibility: inherit; font-family: &quot;Helvetica Neue&quot;, sans-serif; font-size: 12px; font-weight: 200;" fill="rgb(50, 49, 63)" stroke="none" stroke-width="1px">0</text><text x="0" y="141.6" dx="0em" dy="0.3em" style="text-anchor: end; visibility: hidden; font-family: &quot;Helvetica Neue&quot;, sans-serif; font-size: 12px; font-weight: 200;" fill="rgb(50, 49, 63)" stroke="none" stroke-width="1px">0.1</text><text x="0" y="123.89999999999999" dx="0em" dy="0.3em" style="text-anchor: end; visibility: inherit; font-family: &quot;Helvetica Neue&quot;, sans-serif; font-size: 12px; font-weight: 200;" fill="rgb(50, 49, 63)" stroke="none" stroke-width="1px">0.2</text><text x="0" y="106.2" dx="0em" dy="0.3em" style="text-anchor: end; visibility: hidden; font-family: &quot;Helvetica Neue&quot;, sans-serif; font-size: 12px; font-weight: 200;" fill="rgb(50, 49, 63)" stroke="none" stroke-width="1px">0.3</text><text x="0" y="88.5" dx="0em" dy="0.3em" style="text-anchor: end; visibility: inherit; font-family: &quot;Helvetica Neue&quot;, sans-serif; font-size: 12px; font-weight: 200;" fill="rgb(50, 49, 63)" stroke="none" stroke-width="1px">0.4</text><text x="0" y="70.8" dx="0em" dy="0.3em" style="text-anchor: end; visibility: hidden; font-family: &quot;Helvetica Neue&quot;, sans-serif; font-size: 12px; font-weight: 200;" fill="rgb(50, 49, 63)" stroke="none" stroke-width="1px">0.5</text><text x="0" y="53.10000000000001" dx="0em" dy="0.3em" style="text-anchor: end; visibility: inherit; font-family: &quot;Helvetica Neue&quot;, sans-serif; font-size: 12px; font-weight: 200;" fill="rgb(50, 49, 63)" stroke="none" stroke-width="1px">0.6</text><text x="0" y="35.400000000000006" dx="0em" dy="0.3em" style="text-anchor: end; visibility: hidden; font-family: &quot;Helvetica Neue&quot;, sans-serif; font-size: 12px; font-weight: 200;" fill="rgb(50, 49, 63)" stroke="none" stroke-width="1px">0.7</text><text x="0" y="17.69999999999999" dx="0em" dy="0.3em" style="text-anchor: end; visibility: inherit; font-family: &quot;Helvetica Neue&quot;, sans-serif; font-size: 12px; font-weight: 200;" fill="rgb(50, 49, 63)" stroke="none" stroke-width="1px">0.8</text><text x="0" y="0" dx="0em" dy="0.3em" style="text-anchor: end; visibility: hidden; font-family: &quot;Helvetica Neue&quot;, sans-serif; font-size: 12px; font-weight: 200;" fill="rgb(50, 49, 63)" stroke="none" stroke-width="1px">0.9</text></g><line x1="48.875" y1="0" x2="48.875" y2="177" fill="rgb(0, 0, 0)" stroke="rgb(204, 204, 204)" stroke-width="1px"></line></g></g><g transform="translate(48, 0)" clip-path="url(#clip_0)"><clipPath id="clip_0"><rect width="281" height="177"></rect></clipPath><g><g><g><line x1="0" y1="0" x2="0" y2="177" fill="rgb(0, 0, 0)" stroke="rgb(60, 60, 60)" stroke-width="1px" opacity="0.25"></line><line x1="21.625" y1="0" x2="21.625" y2="177" fill="rgb(0, 0, 0)" stroke="rgb(60, 60, 60)" stroke-width="1px" opacity="0.25"></line><line x1="43.25" y1="0" x2="43.25" y2="177" fill="rgb(0, 0, 0)" stroke="rgb(60, 60, 60)" stroke-width="1px" opacity="0.25"></line><line x1="64.875" y1="0" x2="64.875" y2="177" fill="rgb(0, 0, 0)" stroke="rgb(60, 60, 60)" stroke-width="1px" opacity="0.25"></line><line x1="86.5" y1="0" x2="86.5" y2="177" fill="rgb(0, 0, 0)" stroke="rgb(60, 60, 60)" stroke-width="1px" opacity="0.25"></line><line x1="108.125" y1="0" x2="108.125" y2="177" fill="rgb(0, 0, 0)" stroke="rgb(60, 60, 60)" stroke-width="1px" opacity="0.25"></line><line x1="129.75" y1="0" x2="129.75" y2="177" fill="rgb(0, 0, 0)" stroke="rgb(60, 60, 60)" stroke-width="1px" opacity="0.25"></line><line x1="151.375" y1="0" x2="151.375" y2="177" fill="rgb(0, 0, 0)" stroke="rgb(60, 60, 60)" stroke-width="1px" opacity="0.25"></line><line x1="173" y1="0" x2="173" y2="177" fill="rgb(0, 0, 0)" stroke="rgb(60, 60, 60)" stroke-width="1px" opacity="0.25"></line><line x1="194.625" y1="0" x2="194.625" y2="177" fill="rgb(0, 0, 0)" stroke="rgb(60, 60, 60)" stroke-width="1px" opacity="0.25"></line><line x1="216.25" y1="0" x2="216.25" y2="177" fill="rgb(0, 0, 0)" stroke="rgb(60, 60, 60)" stroke-width="1px" opacity="0.25"></line><line x1="237.875" y1="0" x2="237.875" y2="177" fill="rgb(0, 0, 0)" stroke="rgb(60, 60, 60)" stroke-width="1px" opacity="0.25"></line><line x1="259.5" y1="0" x2="259.5" y2="177" fill="rgb(0, 0, 0)" stroke="rgb(60, 60, 60)" stroke-width="1px" opacity="0.25"></line><line x1="281.125" y1="0" x2="281.125" y2="177" fill="rgb(0, 0, 0)" stroke="rgb(60, 60, 60)" stroke-width="1px" opacity="0.25"></line></g><g><line x1="0" y1="177" x2="281.125" y2="177" fill="rgb(0, 0, 0)" stroke="rgb(60, 60, 60)" stroke-width="1px" opacity="0.25"></line><line x1="0" y1="159.3" x2="281.125" y2="159.3" fill="rgb(0, 0, 0)" stroke="rgb(60, 60, 60)" stroke-width="1px" opacity="0.25"></line><line x1="0" y1="141.6" x2="281.125" y2="141.6" fill="rgb(0, 0, 0)" stroke="rgb(60, 60, 60)" stroke-width="1px" opacity="0.25"></line><line x1="0" y1="123.89999999999999" x2="281.125" y2="123.89999999999999" fill="rgb(0, 0, 0)" stroke="rgb(60, 60, 60)" stroke-width="1px" opacity="0.25"></line><line x1="0" y1="106.2" x2="281.125" y2="106.2" fill="rgb(0, 0, 0)" stroke="rgb(60, 60, 60)" stroke-width="1px" opacity="0.25"></line><line x1="0" y1="88.5" x2="281.125" y2="88.5" fill="rgb(0, 0, 0)" stroke="rgb(60, 60, 60)" stroke-width="1px" opacity="0.25"></line><line x1="0" y1="70.8" x2="281.125" y2="70.8" fill="rgb(0, 0, 0)" stroke="rgb(60, 60, 60)" stroke-width="1px" opacity="0.25"></line><line x1="0" y1="53.10000000000001" x2="281.125" y2="53.10000000000001" fill="rgb(0, 0, 0)" stroke="rgb(60, 60, 60)" stroke-width="1px" opacity="0.25"></line><line x1="0" y1="35.400000000000006" x2="281.125" y2="35.400000000000006" fill="rgb(0, 0, 0)" stroke="rgb(60, 60, 60)" stroke-width="1px" opacity="0.25"></line><line x1="0" y1="17.69999999999999" x2="281.125" y2="17.69999999999999" fill="rgb(0, 0, 0)" stroke="rgb(60, 60, 60)" stroke-width="1px" opacity="0.25"></line><line x1="0" y1="0" x2="281.125" y2="0" fill="rgb(0, 0, 0)" stroke="rgb(60, 60, 60)" stroke-width="1px" opacity="0.25"></line></g></g></g><g><g><line x1="0" y1="159.3" x2="281.125" y2="159.3" fill="rgb(0, 0, 0)" stroke="rgb(153, 153, 153)" stroke-width="1.5px"></line></g></g><g><g><line x1="21.625" y1="0" x2="21.625" y2="177" fill="rgb(0, 0, 0)" stroke="rgb(153, 153, 153)" stroke-width="1.5px"></line></g></g><g><g><g><g><g><path stroke="rgb(255, 112, 67)" stroke-width="2px" d="M21.84125,-9.385390412807482L22.27375,5.672466266155254L22.490000000000002,13.727112758159649L22.70625,10.916091012954723L22.9225,14.582603502273571L23.138749999999998,19.772001135349285L23.355,19.182476449012768L23.57125,18.925488460063946L23.7875,18.1585862517357L24.003749999999997,19.77629499435426L24.22,19.706886398792278L24.43625,20.942557740211498L24.6525,21.197667825222027L24.868750000000002,21.48491327762605L25.084999999999997,22.128738927841198L25.30125,23.4533786058426L25.5175,22.524248707294475L25.73375,23.44601469039918L25.950000000000003,21.660855996608745L26.166249999999998,26.001535999774944L26.3825,24.219995963573467L26.59875,25.490461277961742L26.815,22.83972601890565L27.03125,26.392203319072735L27.2475,27.716990697383892L27.463749999999997,30.09798299074174L27.896250000000002,27.295654463768017L28.1125,28.01287661790849L28.32875,29.464528012275707L28.544999999999998,26.40824990272523L28.76125,24.312234807014477L28.9775,29.600317347049725L29.19375,25.009633469581615L29.41,26.312160301208507L29.62625,27.701471614837658L29.8425,27.29443066120149L30.05875,27.653047013282787L30.275000000000002,28.392392563819897L30.7075,33.30724697113038L30.923750000000002,30.36407564878465L31.14,28.675829458236706L31.356250000000003,27.14612900018693L31.572499999999998,33.018967616558086L31.78875,31.618483829498302L32.005,27.972164082527172L32.22125,28.65113185644151L32.4375,28.047670590877544L32.653749999999995,29.488107311725628L32.87,28.606505262851726L33.08625,32.30397151708604L33.3025,28.239860343933117L33.518750000000004,33.14155887365342L33.735,28.10324810743333L33.95125,30.660984921455395L34.1675,29.07919900417329L34.38375,29.607354211807262L34.6,29.3712869167328L34.81625,30.393942761421215L35.0325,30.75203161239625L35.248749999999994,26.123388755321514L35.464999999999996,30.099576044082653L35.68125,32.926908123493206L35.8975,34.300584304332745L36.11375,33.090222465991985L36.33,30.34856711626054L36.54625,27.152511763572704L36.978750000000005,30.56787042617799L37.195,30.160597372055065L37.411249999999995,30.916907358169567L37.6275,29.761015284061443L37.84375,34.543488013744366L38.06,31.465075957775127L38.27625,31.29228769540788L38.4925,30.53415255546571L38.70875,33.107767152786266L38.925000000000004,32.01344500780107L39.14125,34.32344620227815L39.3575,33.22755210399629L39.79,29.750676262378704L40.00625,34.03127388954164L40.2225,32.63794301748277L40.43875,34.155236649513256L40.655,32.34267954826356L40.87125,36.244942831993114L41.087500000000006,33.23198311328889L41.30375,34.4400661468506L41.52,31.83508633375169L41.73625,30.155870962142956L41.9525,31.681815612316143L42.168749999999996,35.17955939769746L42.385,35.38359682559968L42.60125,31.024433183670055L42.8175,34.01484750509263L43.033750000000005,32.359485733509075L43.25,30.70509456396104L43.46625,31.58619021177293L43.6825,33.52704613208772L43.89875,33.124942588806164L44.114999999999995,35.40192221403123L44.33125,28.965965616703045L44.5475,33.8232591032982L44.76375,34.17193733453752L44.980000000000004,35.19295792579652L45.19625,35.359722125530254L45.4125,32.38605068922044L45.628750000000004,33.58084069490434L45.845,34.892166244983684L46.061249999999994,35.106278944015514L46.277499999999996,30.563671517372143L46.49375,30.6580203652382L46.71,34.948397862911236L46.92625,35.21643172502519L47.1425,34.36079328060151L47.35875,34.82097469568254L47.575,28.67133514881135L47.791250000000005,32.68173615932466L48.00749999999999,28.568778383731853L48.223749999999995,34.93343793153764L48.44,34.53599749803544L48.65625,34.07119517326356L48.8725,31.5503623366356L49.08875,34.58852605819703L49.52125,35.061177599430096L49.737500000000004,33.56635551452638L49.95375000000001,32.74269418716432L50.38625,31.035742807388317L50.6025,32.712109673023235L50.81875,32.838889288902294L51.035,33.71810703277589L51.25125,33.20035414695741L51.4675,33.504205334186565L51.68375,33.138341116905224L51.900000000000006,32.25588451623918L52.11625,31.174391198158276L52.332499999999996,32.054379093647015L52.54875,33.54858927726747L52.765,34.359569478034985L52.981249999999996,33.927461671829235L53.1975,33.352675366401684L53.63,32.31956444978715L53.846250000000005,34.86369173526765L54.0625,32.48259394168855L54.27875,34.40390067100526L54.71125,32.56453596353532L54.927499999999995,33.6148856163025L55.14375,32.933828938007366L55.36,36.1956636786461L55.57625,33.09282832145692L55.792500000000004,32.215361881256115L56.00875,33.1793701529503L56.225,33.561903405189526L56.44125,35.67883919477464L56.6575,33.4700338125229L56.87375,36.06661580801011L57.089999999999996,34.165554571151745L57.30625,34.91004853248597L57.5225,32.08468930721284L57.73875,33.34822325706483L57.955,34.91790829896928L58.17125,35.28729622364045L58.60375,32.68733822107316L58.82,35.85531996488572L59.036249999999995,33.813131082057964L59.46875,32.41315369606019L59.685,34.559481847286236L59.90125,33.74807964563371L60.1175,33.53148769140245L60.33375,35.61166720390321L60.550000000000004,33.832986223697674L60.76625,32.51714526414872L60.982499999999995,31.96920876502992L61.19875,33.28103016614915L61.415,32.67806475162507L61.63125,39.21959542036058L61.847500000000004,34.99211715459825L62.06375,36.589622604846966L62.28,34.13102434873582L62.49625,32.39500765800477L62.712500000000006,35.39788155555726L62.928749999999994,31.168820786476147L63.5775,31.78545902967454L64.4425,31.623262989521038L64.65875,32.484577345848095L64.875,33.31692134141923L65.09125,34.426825869083416L65.30749999999999,34.56049464941026L65.52374999999999,35.81579958200456L65.95625,36.76837162971498L66.1725,36.872415947914135L66.38875,33.091108667850506L66.605,37.38804827928544L66.82125,35.50616698265077L67.25375,36.76823447942735L67.47,34.52776848077775L67.68625,36.647763776779186L67.9025,31.27790801525117L68.11875,33.98181538581849L68.335,34.899751710891735L68.55125,36.07886438369752L68.7675,34.66943417787553L68.98375,33.021921622753155L69.2,31.671961891651165L69.41624999999999,33.217202532291424L69.6325,35.409676480293285L69.84875,35.08225654363633L70.28125,33.90524332523347L70.49749999999999,34.14907543659211L70.71375,36.70701270103456L70.92999999999999,35.70639585256578L71.14625000000001,32.19575994014741L71.3625,36.05165587663652L71.57875,34.09630422592164L71.795,32.87714366912843L72.01125,33.76136212348939L72.2275,36.584832894802105L72.44375,35.03306179046632L72.87625,36.34104298353196L73.0925,34.731911408901226L73.30874999999999,34.328911113739025L73.525,32.34615050554277L73.74125,33.2830135703087L73.95750000000001,34.78523122072221L74.17375,33.57094477415086L74.39,34.805360662937176L74.60625,33.44873331785203L74.82249999999999,37.71451871395112L75.03875000000001,36.26835333108903L75.255,32.80937032699586L75.47125,34.70278279781343L75.6875,34.60599689483644L75.90375,32.90361367464067L76.12,35.226928997039806L76.33625,34.47803567647935L76.5525,36.70164273977281L76.76875,33.518848764896404L76.985,34.93529473543168L77.20124999999999,35.58542929887773L77.4175,34.21157376766206L77.63374999999999,33.329022216796886L77.85000000000001,35.85042475461961L78.06625,34.628964293003094L78.2825,34.09313921928407L78.49875,34.11412321329118L78.715,34.10604189634324L78.93125,37.21622006893159L79.36375,33.041439163684856L79.58,33.9109403371811L79.79625,37.00650672912599L80.22875,37.205627846717846L80.445,33.50413148403169L80.66125000000001,35.74673913717271L80.8775,37.25582485198976L81.09374999999999,32.591923820972454L81.31,36.076659429073345L81.52624999999999,34.32206414937974L81.7425,31.104697751998913L81.95875,36.17459528446199L82.17500000000001,34.555536139011394L82.39125,35.59917597770692L82.6075,34.04193996191026L82.82375,36.61982731819154L83.04,36.54602991342546L83.25625,34.701854395866405L83.68875,34.37625961303712L84.12125,34.017949211597454L84.55375000000001,37.140323209762585L84.77,38.207911598682415L84.98625000000001,35.548630821704876L85.2025,34.98226343393327L85.41874999999999,37.70785109996797L85.635,34.39625190496446L85.85125,33.30243616104127L86.06750000000001,36.60421328544618L86.28375,35.04314761161805L86.5,33.422569262981426L86.71625,34.439116644859325L86.9325,34.06559311151506L87.14874999999999,37.20050053596498L87.365,35.30451385974885L88.01375,35.57113401889802L88.22999999999999,35.079144287109386L88.44625,37.592286157608044L88.6625,36.141236114501964L88.87875000000001,36.66951792240144L89.31125,32.91246514320375L89.5275,36.44255529642106L89.74374999999999,36.36282877922059L89.96000000000001,40.05324761867524L90.17625,36.958018827438366L90.3925,36.367681789398205L90.60875,36.223536837100994L90.825,33.37748901844026L91.04125,35.35331826210023L91.25750000000001,34.82707260847093L91.47375,34.15041528940202L91.69,35.431905376911175L91.90625,35.31024252176286L92.12249999999999,36.25415300130845L92.33875,32.82001529932023L92.55499999999999,36.47248570919038L92.77125000000001,34.628341841697704L92.9875,38.40954362154008L93.20375,35.34074263572694L93.63625,34.20061229467393L93.8525,38.195198822021496L94.06875,35.909156727790844L94.285,36.54048060178758L94.50125,37.16624461412431L94.7175,38.905616211891186L94.93375,35.743141579628L95.15,37.31416647434236L95.36625,36.57716302871705L95.58250000000001,32.59159677028657L95.79875,35.61281715631486L96.01499999999999,36.57612912654878L96.23125,35.63140629529954L96.44749999999999,39.64326320886613L96.66375000000001,37.93425457477571L96.88,33.889840292930614L97.09625,33.83907358646394L97.3125,37.64752607345582L97.52875,34.638258862495434L97.745,32.714240777492535L97.96125,36.91610358953477L98.1775,37.83556966781617L98.39375,37.065544652938854L98.61,34.561655151844036L98.82625,33.17581479549409L99.0425,36.00095247030259L99.25874999999999,36.27117018699647L99.47500000000001,36.54569231271745L99.69125,38.71408056020738L99.90750000000001,32.998985874652874L100.12375,35.6262473344803L100.33999999999999,35.55998264551164L100.55625,34.493132758140575L100.7725,32.011630403995525L100.98875000000001,38.61076419353486L101.205,35.16017900705339L101.6375,34.79894624948503L101.85375,34.62688593864442L102.07,36.53213553428651L102.28625,36.793596732616436L102.5025,35.315201032161724L102.71875,35.26514117717744L102.935,37.03993974924089L103.15124999999999,40.3570144057274L103.3675,37.67825828790666L103.58375,36.160268354415905L103.80000000000001,34.707667458057415L104.01625,35.013132798671734L104.2325,34.720665085315716L104.44875,35.83975868225099L104.66499999999999,34.27313314676286L104.88125000000001,38.998920607566845L105.0975,31.675179648399364L105.31375,38.36192082166673L105.53,36.2206144809723L105.74625,36.3317378640175L105.96249999999999,36.774859893322L106.17875000000001,32.72827230691911L106.395,33.5684127688408L106.61125,32.719832289218914L107.04374999999999,36.25414245128633L107.26,34.92386906147004L107.47625,34.21515022516252L107.69250000000001,34.94310175180436L107.90875,34.12054817676545L108.34125,41.628450322151195L108.5575,36.034332740306866L108.77375,37.474178659915935L108.99,36.24202047586442L109.20625,35.07740353345872L109.4225,34.97979472875596L109.85499999999999,35.92616336345674L110.2875,36.243940579891216L110.50375000000001,38.179405438900005L110.72,35.507707285881054L111.1525,36.60339038372041L111.36874999999999,37.275817143917095L111.58500000000001,37.247532534599316L112.0175,36.50280647277833L112.23375,34.55914424657823L112.45,38.61206184625627L112.66625,35.33588962554933L112.8825,36.38872908353807L113.09875,34.0112815976143L113.315,36.50899933576585L113.53125,35.78069965839387L113.7475,35.160495507717144L113.96375,34.90229426622392L114.17999999999999,36.11505095958711L114.39625000000001,34.75203030109407L114.6125,37.791090774536144L115.045,35.52439742088319L115.4775,37.21072350740434L115.69375,34.87787096500398L115.91,39.4367992758751L116.12625,36.38177661895753L116.3425,36.69833003282548L116.55875,37.01832275390626L116.775,39.7963334798813L116.99125,37.267588126659405L117.2075,36.35480021238328L117.64,37.59636901617051L117.85625,37.4327909231186L118.07249999999999,38.63364719152452L118.28875000000001,33.38419883251191L118.505,36.08421324491502L118.72125000000001,37.29472278356553L118.9375,36.12684588432313L119.15375,34.4811057329178L119.37,35.01884036064149L119.58624999999999,38.46322213411332L119.8025,36.915850389003765L120.01875,35.959955084323894L120.235,34.93913494348527L120.45125,38.39819179773332L120.6675,35.574320125579845L120.88374999999999,35.1695474267006L121.10000000000001,39.259041953086864L121.31625,37.825230646133434L121.5325,36.96434884071351L121.74875,36.03924905061723L121.96499999999999,36.092695462703716L122.18125,36.281656908988964L122.3975,40.70155702829362L122.61375000000001,36.25051324367524L122.83,37.03330378532411L123.04625,35.57064871788026L123.2625,36.99490170478822L123.47875,37.06551300287248L123.69500000000001,36.812966573238384L123.91125,39.79134331941606L124.1275,39.22577773332597L124.34375,35.473630714416515L124.77624999999999,35.82775275707246L124.9925,34.439317095279705L125.20875,37.04614316225053L125.64125,33.3091776251793L125.85749999999999,35.112777757644665L126.07375,36.96468644142152L126.28999999999999,37.38905053138734L126.50625000000001,37.39055918455125L126.7225,39.21723221540452L126.93875,37.05115442276002L127.155,37.70787220001222L127.37125,37.35120760202409L127.5875,40.52642666101457L127.80375,34.33552597761155L128.02,37.480055022239696L128.23624999999998,36.997286009788525L128.66875,37.06591390371324L128.885,39.19021360874177L129.10125,38.35240470170976L129.3175,34.12554888725282L129.53375,37.61939971446992L129.75,36.067407059669506L130.1825,34.35227941274644L130.39875,37.55511842966081L130.61499999999998,37.77563499212266L130.83125,38.31307421922685L131.04749999999999,38.58800779581071L131.26375000000002,37.46734224557878L131.48,38.44098268747331L131.69625000000002,36.92129420042039L131.9125,36.547433066368114L132.12875,34.735973167419445L132.345,34.01899366378785L132.7775,34.92332046031953L132.99375,38.213144409656536L133.21,37.33556191921235L133.42625,37.7232435822487L133.6425,38.260419058799755L133.85875,37.86726193428041L134.07500000000002,36.14637397527696L134.5075,37.7126302599907L134.72375,36.87702630758287L134.94,33.43669574260713L135.15625,41.052883315086376L136.2375,37.92412655353547L136.45374999999999,36.616841661930096L136.88625,37.67594783306123L137.1025,36.83597617149354L137.31875,36.60975204706193L137.535,36.12990539073945L137.75125,36.8912899374962L137.9675,35.04750477075578L138.18375,37.9578233242035L138.4,36.006491231918346L138.61625,34.761725771427166L138.83249999999998,36.71607517004014L139.04875,34.38096492290498L139.265,37.59708641767503L139.48125000000002,38.524000811576855L139.6975,37.00129501819612L139.91375,39.793147373199474L140.13,36.06960146427156L140.34625,38.939471232891094L140.5625,37.79623918533326L140.77875,37.354836809635174L140.99499999999998,36.86677168607713L141.21125,37.16250990629197L141.64374999999998,36.791982579231274L141.85999999999999,35.784909117221844L142.07625000000002,37.14572482109071L142.29250000000002,36.97014080286027L142.50875,35.75691990852357L142.725,39.70433728694917L142.94125,37.60038857460023L143.1575,36.153347539901745L143.37375,36.529751229286205L143.59,36.53191398382188L143.80624999999998,38.39545934200288L144.0225,33.148057687282574L144.23875,38.627042877674114L144.455,36.146025824546825L144.67125,34.502807128429424L144.8875,34.827631759643566L145.10375000000002,37.20823370218278L145.32,36.578334081172954L145.53625,36.80854611396791L145.7525,36.199999737739574L146.185,36.79645578861238L146.40125,37.788579869270336L146.61749999999998,39.4452392935753L146.83375,36.69074456691743L147.05,35.8001855492592L147.26625,36.13532810211183L147.4825,34.7739848971367L147.69875,37.27271543741227L147.91500000000002,38.213302659988415L148.13125,38.02069090604783L148.3475,37.913249480724346L148.56375,37.467215645313274L148.78,35.73926972150804L148.99625,38.0711200118065L149.42874999999998,37.702291238307964L149.64499999999998,37.08249853849412L149.86125,34.779186058044445L150.07750000000001,39.156400787830364L150.29375,39.616877603530895L150.51,35.871799099445354L150.72625000000002,36.77333014011384L150.9425,34.72743819952012L151.15875,36.29719709157945L151.375,37.10323988199235L151.59124999999997,36.37702910900117L151.8075,36.44386349916459L152.02375,35.33049856424333L152.24,39.26810442209245L152.45624999999998,35.92966597080232L152.6725,37.05573313236238L153.105,39.49050943851472L153.32125,38.31256781816484L153.5375,34.57725863456727L153.75375,36.77215908765794L153.97,37.934328424930584L154.18625,34.878968167305004L154.40249999999997,37.5459610104561L154.61875,40.82316713333131L155.05125,38.48647438287736L155.48375,37.08488284349443L155.70000000000002,37.332386362552654L155.91625,36.551800775527965L156.1325,37.0286195755005L156.34875,34.74662868976594L156.565,37.32867275476457L156.78125,37.2275507926941L156.9975,39.80390839576722L157.21375,40.27320502996446L157.64625,38.030534076690685L157.8625,34.85965107679368L158.07874999999999,37.46372358798982L158.295,37.923187601566326L158.7275,35.22683404684068L158.94375,36.61858241558076L159.16,38.05383907556535L159.5925,37.330962109565746L159.80875,35.82988386154176L160.025,39.07226436138154L160.24124999999998,37.39377694129945L160.4575,39.32788084745408L160.67375,36.93581103086473L160.89,36.928162264823925L161.10625,36.015944051742565L161.32250000000002,37.35542761087419L161.53875,39.40974901914598L161.755,36.15142743587495L161.97125,37.29439573287965L162.18749999999997,40.44740699529649L162.40375,35.75998996496202L162.62,37.32620404958726L162.83625,35.89611690044404L163.485,34.819001841545116L163.70125,39.17687838077546L163.9175,35.97132800817491L164.13375,36.4247679591179L164.35000000000002,37.282136607170116L164.56625,40.91824393272401L164.7825,38.11570440530778L164.99875,38.04225515127183L165.215,35.45917718410493L165.43125,40.568827199935924L165.6475,38.243760573863995L165.86374999999998,34.73043440580369L166.08,38.05675088167192L166.29625000000001,38.449844706058514L166.72875,39.201122331619274L166.945,39.7359451532364L167.16125000000002,41.72680817842485L167.3775,35.484370636940014L167.59375,35.71957283020021L167.81,34.90570192337037L168.02625,37.59519796371461L168.2425,40.314054715633404L168.45875,42.176397371292126L168.67499999999998,40.07376741170884L168.89124999999999,36.22130023241044L169.10750000000002,38.48560928106309L169.32375,34.10629509687425L169.54,37.81048171520234L169.75625,37.61188809871675L169.97250000000003,36.47031240463258L170.18875,40.474699902534496L170.405,35.98534898757936L170.62125,35.84650014638902L170.83749999999998,35.223363089561474L171.05375,37.07708637714387L171.27,38.34738289117814L171.7025,38.44141523838044L172.13500000000002,33.93783234357835L172.78375,36.89891760349275L173,39.47427295446397L173.21625,41.76193975210191L173.4325,36.02061771154405L173.64874999999998,37.83267896175386L173.865,38.624648022651684L174.08125,36.60471968650819L174.29749999999999,38.88232176303865L174.51375,37.3601962208748L174.73,32.48514704704286L174.94625000000002,36.48227612972261L175.1625,38.150255727767956L175.37875,35.326869356632244L175.595,37.705730545520794L176.0275,38.81408421993257L176.24375,35.5454236149788L176.45999999999998,36.34928255081178L176.67625,36.50507472753526L176.8925,35.811569023132336L177.10875000000001,39.071124958992016L177.325,38.976027059555065L177.54125,38.49213974475862L177.75750000000002,40.97023444175721L177.97375,38.56720315217973L178.19,39.50834952592851L178.40625,36.3522154569626L178.6225,34.580782341957104L179.055,36.94388179779054L179.27124999999998,35.575565028190624L179.48749999999998,37.98901973962785L179.70375,38.66887371540071L179.92000000000002,38.31050001382829L180.13625,36.400070357322704L180.3525,38.38973067998887L180.56875000000002,36.50861953496934L180.785,38.22005467414857L181.00125,36.92885856628419L181.2175,37.22118912935258L181.43374999999997,37.56248234510423L181.65,37.60256187915803L181.86625,40.28420870304109L182.0825,38.608696389198315L182.29874999999998,38.085394191741955L182.51500000000001,39.88534401655198L182.73125000000002,39.62079166173936L182.9475,40.350747692585L183.16375,36.48297243118287L183.59625,38.345800387859356L183.8125,38.17209427356721L184.02875,38.21043305397035L184.24499999999998,39.000207710266125L184.46125,36.71828012466432L184.6775,39.652462828159344L184.89375,38.835099864006054L185.10999999999999,36.379571664333355L185.32625,37.9383057832718L185.54250000000002,40.508375573158276L185.75875,38.99043838977815L185.975,35.28984932899476L186.19125,38.080868232250225L186.4075,37.56566845178605L186.62375,38.331673908233654L186.84,39.28471015691758L187.05624999999998,38.68911920785905L187.2725,38.34603248834611L187.48875,39.936870324611675L187.705,36.10225378274919L187.92125,39.23704515695573L188.1375,40.65952574014665L188.35375000000002,36.13686840534211L188.57,36.902050960063946L188.78625,39.16928236484529L189.0025,40.60413812398912L189.21875000000003,37.11175374984742L189.435,36.48379533290864L189.8675,38.2052318930626L190.08374999999998,36.27897720336915L190.3,38.92175774574281L190.51625,38.41305677890779L190.7325,34.86686729192735L190.94875,37.429815816879284L191.16500000000002,38.91329662799836L191.38125,39.44079773426057L191.5975,39.18315564393998L191.81375,39.139826703071606L192.02999999999997,35.42157690525056L192.24625,37.355807411670696L192.4625,38.740751016139995L192.67875,37.31622372865678L192.89499999999998,35.199604439735424L193.11125,39.62438921928407L193.32750000000001,38.31925653219224L193.54375,36.9984043121338L193.76,35.67031477689744L193.97625,39.65617643594743L194.1925,35.135449755191814L194.40875,37.73948006629945L194.625,39.96960704326631L195.0575,36.339333879947674L195.27375,40.45437000989915L195.49,35.3021928548813L195.70624999999998,35.46336554288865L195.9225,35.26831673383714L196.13875000000002,38.91528003215791L196.355,37.066251504421245L196.57125,38.357890713214886L197.00375000000003,39.95276920795442L197.22,39.3696378350258L197.43625,37.59404801130296L197.6525,38.66059194803239L197.86875,37.66872106790544L198.085,37.97328965663911L198.30125,41.106213676929485L198.51749999999998,38.47245340347291L198.73375,37.71970932483674L198.95000000000002,35.66578881740571L199.16625,37.98881928920747L199.3825,36.213619816303265L199.59875,39.40728031396867L199.81500000000003,38.104605782032024L200.03125,37.60049407482148L200.2475,36.625893580913555L200.46375,38.76326476335527L200.67999999999998,38.24564902782441L200.89625,38.0075139284134L201.1125,39.26442246437074L201.32874999999999,38.416654336452495L201.545,39.052029418945324L201.76125000000002,40.32109158039094L201.97750000000002,37.87809680700303L202.19375,34.17520784139634L202.41,40.941833782196056L202.62625,38.715441513061535L202.8425,37.5039613723755L203.05875,39.70453773736955L203.275,40.322948384284985L203.7075,36.4830251812935L203.92375,36.512006092071545L204.14,38.847295689582836L204.35625,42.25877194404603L204.5725,37.32082353830339L204.78875000000002,37.8161470770836L205.005,39.20006732940675L205.4375,39.92767070531846L205.65375,38.20991610288621L205.87,35.274003195762646L206.08625,40.75317828655244L206.30249999999998,36.79106472730638L206.51875,39.54635070562364L206.735,37.26575242280961L206.95125,36.527799475193035L207.38375,39.090579199790966L207.60000000000002,40.28879796266557L207.81625,40.80985300540925L208.0325,38.46524773836137L208.24875,38.37037138938905L208.68125,37.30638055801393L208.8975,38.92157839536668L209.11374999999998,40.04546170234681L209.32999999999998,39.23740385770799L209.54625000000001,38.45718752145768L209.76250000000002,38.70977615118028L209.97875,39.55738602876664L210.41125000000002,36.12707798480989L210.6275,38.5918058037758L210.84375,38.948808002471935L211.06,39.04749290943147L211.27624999999998,35.16257386207582L211.4925,37.268273878097546L211.70875,38.653280782699596L211.92499999999998,37.981750774383556L212.14124999999999,39.67376332283021L212.35750000000002,36.405060517787945L212.57375000000002,40.39369683265687L212.79,39.16241430044175L213.00625,39.44174723625184L213.2225,39.235990154743206L213.43875,41.05508826971055L213.655,38.615575003623974L213.87125,37.47990732192994L214.08749999999998,40.12689732313157L214.30375,37.577241826057445L214.52,37.882548916339886L214.73625,37.24822883605958L214.9525,35.987216341495525L215.16875,38.23130099773408L215.38500000000002,39.50422446727754L215.60125,36.344302940368664L215.8175,39.84749053716661L216.03375,38.055358278751385L216.25,35.57471047639848L216.46625,38.05882923603059L216.6825,38.57142316102983L216.89874999999998,36.63608490228654L217.115,41.03888343572618L217.33125,37.90289990901948L217.5475,38.06322859525682L217.76375,41.740586507320415L217.98,37.13840310573579L218.19625000000002,39.59577755928041L218.4125,36.33405886888505L218.62875,38.39344428777696L218.845,39.8072000026703L219.06125,38.75941400527955L219.49375,39.25388299226762L219.70999999999998,38.39750604629518L219.92624999999998,37.371358144283306L220.1425,40.8001786351204L220.575,35.65995465517045L220.79125,35.37347935438157L221.00750000000002,35.305368411541L221.22375,38.0734199166298L221.44,38.25453214645387L221.65625,42.64019744396211L221.87249999999997,33.824440705776226L222.08875,38.59669046401979L222.305,39.292137372493755L222.73749999999998,38.392431485652935L222.95375,37.60306828022004L223.17000000000002,38.5658527493477L223.38625,38.354630756378185L223.6025,35.24020092487336L223.81875,40.368535029888164L224.25125,41.70492743253709L224.4675,40.6942353129387L224.68374999999997,39.540833044052135L225.11625,40.04238109588624L225.3325,38.61922531127931L225.54874999999998,38.544721055030834L225.765,39.247616279125225L225.98125000000002,39.317784476280224L226.41375,38.67569957971574L226.63,37.38026236295701L226.84625,38.27811144590379L227.27875,39.76495771408082L227.495,39.23855381011964L227.71125,39.46854429244996L227.9275,39.96438478231431L228.14375,39.99424134492875L228.35999999999999,41.31102125644685L228.57625,39.285216557979595L228.79250000000002,36.08853875398637L229.00875,38.94455634355546L229.225,38.361287820339214L229.44125,40.643806207180035L229.65750000000003,36.81501327753068L229.87375,34.464341747760784L230.09,40.686217296123516L230.30625,38.40855191946031L230.52249999999998,36.42024199962617L230.73875,40.83988891839982L231.17125,38.097020316123974L231.3875,35.783949065208446L231.60375000000002,38.88754402399064L231.82,39.83124350309373L232.2525,39.867261278629314L232.46874999999997,37.21132485866548L232.685,39.80174564123155L232.90125,40.40911041498185L233.1175,37.785541462898266L233.33374999999998,37.49328474998475L233.55,41.9709778904915L233.76625,37.57535337209703L233.9825,40.11971275806428L234.19875,35.55531953573228L234.415,39.839440870285046L234.63125000000002,40.20031492710115L234.8475,36.361868727207195L235.06375,37.11454950571061L235.28,40.93031315803529L235.49625,35.924770760536205L235.7125,40.20207678079606L235.92875,38.0343426346779L236.14499999999998,37.77224843502046L236.36125,35.68473665714265L236.57750000000001,37.753089594841015L237.01,40.98121701478959L237.22625,40.939386177063L237.65875,38.9549375653267L237.875,38.246978330612194L238.09125,37.00933413505555L238.3075,36.10726504325868L238.52375,38.63283483982087L238.74,39.119728910923016L238.95624999999998,37.843682634830486L239.38875000000002,37.212348210811626L239.605,40.585548985004436L239.82125,38.507606077194225L240.25375000000003,38.029647874832165L240.47,38.520382153987896L240.68625,38.859987366199505L240.9025,38.81774507761003L241.335,36.57517962455751L241.55125,37.6616420030594L241.76749999999998,37.24952648878099L241.98375,38.40797166824342L242.20000000000002,38.36425237655641L242.41625000000002,38.56975625753404L242.6325,39.3814644098282L242.84875,37.1409140110016L243.065,41.96988068819047L243.28125,38.36224787235261L243.4975,36.39193629026414L243.71375,35.92421160936357L243.92999999999998,39.79570047855378L244.14625,35.38194047212602L244.3625,39.78416930437089L244.57874999999999,37.95482711791993L244.795,39.238807010650646L245.01125,38.639196503162395L245.22750000000002,36.99133579730989L245.44375,39.26415871381761L245.66,40.970455992221844L245.87625,37.45304696559907L246.0925,37.088944602012646L246.30875,35.22665469646455L246.525,40.75224988460542L246.74124999999998,38.29519193172456L246.9575,40.78267614841462L247.17375,39.183904695510876L247.39000000000001,38.557286131382L247.60625,36.65791289806367L248.03875000000002,38.65677284002305L248.255,37.026520121097576L248.47125,36.82955120801927L248.6875,38.37950770854951L248.90375,40.26918547153474L249.12,37.08368014097215L249.55249999999998,36.85607396364213L249.76874999999998,41.88565986156465L249.985,38.83349626064302L250.20125000000002,38.412793028354656L250.4175,38.77193688154222L251.06625,38.54879336357118L251.2825,37.89434384107591L251.49875,38.07360981702806L251.71499999999997,39.37793015241624L251.93125,41.368086326122295L252.1475,40.91442482471467L252.36375,38.239677715301525L252.57999999999998,39.40182595252992L252.79625000000001,38.665276157856L253.01250000000002,38.954241263866436L253.22875,38.45116345882417L253.445,39.86677597761155L253.66125,38.08904449939729L253.8775,40.18824570178987L254.09375,39.88805537223817L254.31,40.58443068265916L254.52624999999998,40.97155319452287L254.7425,39.843281078338634L254.95875,37.582896637916576L255.175,37.698588180542004L255.39124999999999,38.76218866109849L255.6075,38.15284048318864L255.82375000000002,41.494222390651714L256.04,40.18122993707658L256.25625,39.017667996883404L256.47249999999997,38.843413281440746L256.90500000000003,34.625187385082256L257.3375,39.3663778781891L257.55375000000004,39.41444377899171L257.77,38.112855899333965L257.98625,40.01903389692308L258.2025,40.93445931673051L258.635,37.405054914951336L258.85125,41.34713398218156" style="fill: none;" fill="none"></path></g><g><path stroke="rgb(0, 153, 136)" stroke-width="2px" d="M28.1125,-5.368342888355272L30.275000000000002,23.251145231723797L32.4375,42.182453083992016L34.6,58.12464426755905L36.7625,68.31222038269043L38.925000000000004,64.74869720935821L41.087500000000006,56.86755638122558L43.25,74.56204293966293L45.4125,75.38876904845237L47.575,75.74600862264633L49.737500000000004,86.48617907166481L51.900000000000006,73.61112724542618L54.0625,81.51829497814178L56.225,75.94473411440849L58.3875,80.852599132061L60.550000000000004,77.26574458479881L62.712500000000006,85.83449365496635L64.875,84.26652826666832L67.03750000000001,83.1576154410839L69.2,82.28714366555214L71.3625,83.82457201480865L73.525,81.38726897835731L75.6875,83.2926451742649L77.85000000000001,86.57460408210754L80.0125,82.62122594118118L82.17500000000001,80.79542328715324L84.33749999999999,78.21907623410225L86.5,81.10533018708229L88.6625,49.8074393749237L90.825,85.6198903799057L92.9875,84.79661412835121L95.15,86.52946053743362L97.3125,84.71045209765434L99.47500000000001,68.66694377660751L101.6375,86.35753210186958L103.80000000000001,84.5461724281311L105.96249999999999,86.49083163142204L108.125,85.84482740163803L110.2875,90.08384739160537L112.45,89.3152413547039L114.6125,91.56372009515762L116.775,85.42386041879654L118.9375,81.22968329787254L121.10000000000001,87.69663058519363L123.2625,88.26583592891693L125.42500000000001,83.08410816192627L127.5875,94.37179310917854L129.75,85.04332112073898L130.1825,92.08505471348762L130.61499999999998,80.41226230859756L131.04749999999999,83.56316356658935L131.48,78.43379555940628L131.9125,91.76074703335762L132.345,87.29107190966606L132.7775,94.67301734089851L133.21,79.0436132133007L133.6425,87.40717490315437L134.07500000000002,89.8881866812706L134.5075,84.94931514859199L134.94,90.46571071743965L135.3725,94.84240849614143L135.805,86.60255636572838L136.2375,91.36009411811828L136.67,88.9801937520504L137.1025,89.99549623131752L137.535,85.38516293764114L137.9675,92.22980629205703L138.4,85.67894412875175L138.83249999999998,86.68945162296295L139.265,90.99548535346985L139.6975,88.23562066555023L140.13,85.57953654527664L140.5625,90.57189141511917L140.99499999999998,92.14137600660324L141.4275,89.79318900704384L141.85999999999999,91.71858914494514L142.29250000000002,91.33897824883461L142.725,93.40044202208519L143.1575,85.83389757871628L143.59,94.67014773488044L144.0225,92.80632807612419L144.455,94.64800851345062L144.8875,88.8355107486248L145.32,88.82727118134498L145.7525,88.52065588831901L146.185,85.12561656832695L146.61749999999998,87.21333934664726L147.05,89.64468162059784L147.4825,97.43088807463646L147.91500000000002,84.41081564426422L148.3475,92.42471795082092L148.78,83.84260727763176L149.2125,81.08534844517708L149.64499999999998,92.67708503007889L150.07750000000001,93.27118842601776L150.51,91.07010038495063L150.9425,85.05293746590614L151.375,91.20379554033279L151.8075,93.14808549284935L152.24,84.64195607900619L152.6725,78.15128706693649L153.105,89.85963832139969L153.5375,94.34479560256004L153.97,93.60147796869278L154.40249999999997,85.55773492455482L154.835,97.39241741895675L155.26749999999998,81.4153689622879L155.70000000000002,90.52145703434944L156.1325,87.90599049925804L156.565,91.93623610138893L156.9975,83.99260221719742L157.43,91.38076161146164L157.8625,93.76682846546173L158.295,94.21882833838463L158.7275,92.04918991327285L159.16,91.07502724528312L159.5925,93.47470890283584L160.025,94.67496381998062L160.4575,93.99103753566742L160.89,96.14189692139625L161.32250000000002,96.06429095864296L161.755,90.4605095565319L162.18749999999997,93.29771118164062L162.62,87.13768513798713L163.05249999999998,98.70472412109375L163.485,90.42252947688102L163.9175,87.83356459736824L164.35000000000002,88.8350729227066L164.7825,92.10361220240593L165.215,87.56744556427002L165.6475,91.72001339793205L166.08,91.80436609983444L166.5125,93.11116569042206L166.945,89.62425677776336L167.3775,89.49245535135269L167.81,91.41235892772674L168.2425,92.2471136033535L168.67499999999998,91.12467564940452L169.10750000000002,96.83466412425041L169.54,93.34854646325111L169.97250000000003,91.29223637580871L170.405,91.55241047143936L170.83749999999998,95.6085458278656L171.27,88.89309276938438L171.7025,72.92322887778282L172.13500000000002,91.81534867286682L172.5675,86.5429276406765L173,95.9766308248043L173.4325,93.12652124762535L173.865,97.70595880150795L174.29749999999999,92.72075157165527L174.73,96.16064958572387L175.1625,97.90771742463112L175.595,95.60518037080764L176.0275,83.6978187739849L176.45999999999998,95.22330649495125L176.8925,92.06284691691398L177.325,76.706941562891L177.75750000000002,98.1055514395237L178.19,88.88044329285621L178.6225,93.21095307469368L179.055,83.12639792561531L179.48749999999998,96.76193754673004L179.92000000000002,98.03709234595298L180.3525,88.21693130135536L180.785,91.25715227723121L181.2175,93.05165301561355L181.65,94.72101466655731L182.0825,94.52560188174247L182.51500000000001,99.023661839962L182.9475,90.21281613707542L183.38,91.60297145247459L183.8125,89.27764107584953L184.24499999999998,94.99244036078453L184.6775,89.36935769319534L185.10999999999999,94.56840859651565L185.54250000000002,93.59140269756317L185.975,92.42391087412834L186.4075,90.93152584433555L186.84,94.91026096343994L187.2725,93.60695870518684L187.705,89.61841206550598L188.1375,86.45485605597496L188.57,88.66954835057258L189.0025,98.86498950719833L189.435,90.15301333665847L189.8675,93.4186460852623L190.3,81.59822194576263L190.7325,89.97328843474388L191.16500000000002,88.01984106302261L191.5975,95.24419026374817L192.02999999999997,93.45481156110763L192.4625,99.50195764303207L192.89499999999998,97.95862128138542L193.32750000000001,86.21098701953888L193.76,97.8491806268692L194.1925,95.58406450152397L194.625,82.77872194647789L195.0575,90.65641819238662L195.49,94.3414565205574L195.9225,89.27530424594879L196.355,77.68412681221962L196.7875,96.8375442802906L197.22,91.30368842482567L197.6525,76.26610888838768L198.085,84.2985528588295L198.51749999999998,86.72860275506973L198.95000000000002,93.58601691126823L199.3825,96.49422018527984L199.81500000000003,85.1742838203907L200.2475,95.62214480638504L200.67999999999998,90.90618996620178L201.1125,85.55844177603721L201.545,84.098872590065L201.97750000000002,96.93422468304634L202.41,96.6850015103817L202.8425,95.04563884735107L203.275,93.23669512867927L203.7075,91.27602099180221L204.14,92.60892133712768L204.5725,92.39154868125915L205.005,89.36110230088234L205.4375,95.62743036746978L205.87,88.16014053225517L206.30249999999998,95.2580582678318L206.735,93.40475170612335L207.1675,87.85885300040245L207.60000000000002,83.21777166724205L208.0325,88.74113025069236L208.465,96.96665017604828L208.8975,86.64475645422935L209.32999999999998,87.32290660142898L209.76250000000002,100.40864236950874L210.195,86.2977767765522L210.6275,83.5541380226612L211.06,90.02258341312408L211.4925,100.44208593964576L211.92499999999998,99.21639491915703L212.35750000000002,96.0784965634346L212.79,93.15486388206482L213.2225,83.53694148659706L213.655,96.1890396952629L214.08749999999998,89.0648260295391L214.52,85.47112979292869L214.9525,94.34211062192917L215.38500000000002,85.34294702410698L215.8175,88.5160297036171L216.25,95.62242438197136L216.6825,95.8319478213787L217.115,97.37181850075721L217.5475,88.5864511013031L217.98,94.54036136269569L218.4125,98.94113956689834L218.845,83.72494815587997L219.2775,92.9301220357418L219.70999999999998,93.73495684862137L220.1425,93.70014177560806L220.575,81.82625012397766L221.00750000000002,94.44262068271637L221.44,94.02732961177826L221.87249999999997,95.29050486087799L222.305,94.20056097507477L222.73749999999998,91.836506742239L223.17000000000002,80.73009227514267L223.6025,99.15953029990196L224.035,83.86483089923858L224.4675,98.93576433062553L224.9,93.05350454449653L225.3325,91.93737550377845L225.765,94.9290927529335L226.1975,91.1991377055645L226.63,93.43618022203445L227.0625,94.71317072510719L227.495,87.14739115834236L227.9275,91.13121666312217L228.35999999999999,84.19897647500038L228.79250000000002,94.20215402841568L229.225,87.32093902230262L229.65750000000003,99.5504877448082L230.09,86.93192278146743L230.52249999999998,96.84834750294685L230.955,97.70182846784591L231.3875,96.13119919896126L231.82,93.0258898615837L232.2525,91.96938427090645L232.685,96.19942091703415L233.1175,96.6362129330635L233.55,99.46159325838089L233.9825,95.47453944683075L234.415,89.20242996811866L234.8475,82.30867626070976L235.28,86.45137982368469L235.7125,98.5957107424736L236.14499999999998,89.74469055533409L236.57750000000001,95.4446406841278L237.01,93.45219515562057L237.44250000000002,94.90408392548561L237.875,94.64591960906982L238.09125,97.55574231147766L238.3075,96.12556021213531L238.52375,90.45199568867683L238.74,91.80016191601753L238.95624999999998,90.48736991286277L239.17249999999999,91.42554118037224L239.38875000000002,93.47478275299072L239.605,95.91310386657715L239.82125,93.51118032932281L240.0375,92.76770444512367L240.25375000000003,94.18436141610145L240.47,98.62122069597244L240.68625,91.74956400990486L240.9025,85.73531289696693L241.11874999999998,92.63166718482971L241.335,96.15303774476051L241.55125,98.66894372105598L241.76749999999998,91.88069023489952L241.98375,95.18434526324272L242.20000000000002,98.84201683402061L242.41625000000002,101.66944913864135L242.6325,90.84656651616096L242.84875,95.80021335482597L243.065,74.3207217335701L243.28125,97.2915064573288L243.4975,88.43095960021019L243.71375,96.46107201576233L243.92999999999998,95.39766671061516L244.14625,98.27781747579574L244.3625,93.65755133628845L244.57874999999999,97.52369134426117L244.795,86.95568143129348L245.01125,93.30721675157547L245.22750000000002,94.70930414199829L245.44375,98.36318297982216L245.66,102.71715601086616L245.87625,90.11191572546959L246.0925,93.25272588729858L246.30875,86.07833104133606L246.525,93.50135825872421L246.74124999999998,93.34014864563942L246.9575,92.06292076706886L247.17375,99.26441334486007L247.39000000000001,84.74444426894188L247.60625,99.30484102964401L247.8225,95.29375426769256L248.03875000000002,96.8448976457119L248.255,97.09153078794479L248.47125,91.1591425716877L248.6875,96.73788349628448L248.90375,88.95463104844093L249.12,96.14756228327751L249.33625,94.8062852203846L249.55249999999998,95.38034884929657L249.76874999999998,98.65279163718223L249.985,93.76661746501922L250.20125000000002,97.91723354458809L250.4175,98.41307403445244L250.63375,97.8008298754692L250.85000000000002,93.79397894740104L251.06625,89.25868268609047L251.2825,82.21367331147194L251.49875,93.34038602113723L251.71499999999997,91.22538088560104L251.93125,87.2601603448391L252.1475,82.05521197915077L252.36375,95.05081890821457L252.57999999999998,93.97515447735786L252.79625000000001,97.2964016675949L253.01250000000002,98.25853731036186L253.22875,95.71022166609764L253.445,96.53065468668937L253.66125,99.99327217340469L253.8775,97.1781253695488L254.09375,97.56135492324829L254.31,91.92268987298011L254.52624999999998,95.07120155096054L254.7425,97.73368953466415L254.95875,96.0787075638771L255.175,90.40511666536331L255.39124999999999,92.2775820672512L255.6075,96.0350146472454L255.82375000000002,87.8997290611267L256.04,98.80484383106231L256.25625,93.45494871139526L256.47249999999997,95.85729952454567L256.68875,96.11102228164673L256.90500000000003,95.54058258533477L257.12125,97.1236081302166L257.3375,93.106106954813L257.55375000000004,98.1743217587471L257.77,101.25484909415245L257.98625,91.20841117501259L258.2025,96.3259051322937L258.41875,92.18074341416359L258.635,89.64178563952446L258.85125,89.24864961504936" style="fill: none;" fill="none"></path></g><g><path stroke="rgb(0, 119, 187)" stroke-width="2px" d="M25.950000000000003,-8.978117358684557L28.1125,15.862627136707317L30.275000000000002,37.29377328157426L32.4375,50.70624850988388L34.6,62.25236152410507L36.7625,70.59208016395569L38.925000000000004,79.75794466137886L41.087500000000006,81.31837733387947L43.25,80.81828518509865L45.4125,81.83195241093635L47.575,86.6531331717968L49.737500000000004,86.29887397885322L51.900000000000006,86.66011201143264L54.0625,87.57282607555389L56.225,89.19066669344902L58.3875,85.24881445169449L60.550000000000004,89.40483741760254L62.712500000000006,87.73952170014381L64.875,87.71440737247467L67.03750000000001,90.6368901014328L69.2,89.38446532487869L71.3625,90.6037102818489L73.525,87.1625568151474L75.6875,93.74390326738357L77.85000000000001,91.94348396658897L80.0125,90.60594688653946L82.17500000000001,89.25739030838012L84.33749999999999,92.82870467305183L86.5,90.56209571957588L88.6625,91.78637303709984L90.825,92.04772873520851L92.9875,89.61536838412285L95.15,89.69666157960891L97.3125,93.80916570425033L99.47500000000001,90.51386101841926L101.6375,90.57930280566215L103.80000000000001,93.8005621612072L105.96249999999999,93.83674873709678L108.125,93.44487871527672L110.2875,95.72058706283569L112.45,92.96987451910972L114.6125,93.770220297575L116.775,95.48322211503982L118.9375,94.80691822171211L121.10000000000001,94.76780401468277L123.2625,95.85244651436805L125.42500000000001,95.26123909950256L127.5875,96.46339302062988L129.75,97.53266941308975L130.1825,97.07057844400406L130.61499999999998,98.19812260866165L131.04749999999999,92.9266088783741L131.48,97.5573459148407L131.9125,95.20104067325592L132.345,96.30031605362892L132.7775,96.85298951268196L133.21,95.76315112709999L133.6425,97.6396360874176L134.07500000000002,93.72325687408447L134.5075,95.68619926571846L134.94,96.9469743847847L135.3725,97.48371731042862L135.805,96.78075878620147L136.2375,96.50530825853347L136.67,96.54446466565132L137.1025,95.24844192266464L137.535,95.13511358499527L137.9675,96.8327598452568L138.4,96.8062845647335L138.83249999999998,96.96581672430038L139.265,97.80456458330154L139.6975,94.20806731581688L140.13,97.88709740638733L140.5625,96.6425218462944L140.99499999999998,94.99655486941337L141.4275,95.80409576296806L141.85999999999999,96.00184010267257L142.29250000000002,96.64192577004432L142.725,96.64635150432586L143.1575,96.69467588067054L143.59,96.32726081013679L144.0225,95.74022065401077L144.455,94.33044757246971L144.8875,97.07560552954673L145.32,94.59852363467216L145.7525,96.57785021066665L146.185,95.31677441596985L146.61749999999998,94.88275178074836L147.05,95.57583020925522L147.4825,95.41024761199951L147.91500000000002,95.8536122918129L148.3475,98.24966474175453L148.78,95.48810150027275L149.2125,98.88715510368347L149.64499999999998,96.22589619755745L150.07750000000001,96.57896851301193L150.51,95.62184940576553L150.9425,96.39833630919456L151.375,96.87617846131324L151.8075,97.97408233880996L152.24,95.51560540795326L152.6725,97.10623224377632L153.105,96.83261741995811L153.5375,96.32016592025757L153.97,96.05150960683822L154.40249999999997,96.6366929590702L154.835,97.69006519317627L155.26749999999998,97.92674966454506L155.70000000000002,96.05870472192764L156.1325,95.71386142373085L156.565,98.34423514008522L156.9975,98.25766693353653L157.43,97.93674581050873L157.8625,95.45406712889671L158.295,97.99887489080429L158.7275,95.32005019783973L159.16,97.21670680046081L159.5925,97.14100511670112L160.025,99.1561806678772L160.4575,99.35053317546844L160.89,97.918826597929L161.32250000000002,96.80084075331688L161.755,96.86179878115654L162.18749999999997,99.46889387369156L162.62,97.38963221311569L163.05249999999998,99.09468458890915L163.485,99.18513520359993L163.9175,97.42120315432548L164.35000000000002,97.57825605869293L164.7825,95.92736749649048L165.215,99.55703930854797L165.6475,98.90998007655143L166.08,98.36979784369468L166.5125,99.1698693215847L166.945,97.50740738511085L167.3775,96.52875568270683L167.81,97.93956794142723L168.2425,98.36770366430282L168.67499999999998,96.79752804636955L169.10750000000002,96.58916510939598L169.54,96.05436866283416L169.97250000000003,98.30842308998108L170.405,96.64548112750053L170.83749999999998,97.20964356064796L171.27,98.50963311195373L171.7025,98.02389954328537L172.13500000000002,97.68435763120651L172.5675,97.80682228803634L173,97.01249002218246L173.4325,98.63907660841942L173.865,100.72768558859825L174.29749999999999,99.84103535413742L174.73,96.82257907390594L175.1625,98.20070736408233L175.595,98.45935170650482L176.0275,98.59846957325935L176.45999999999998,97.66950847506523L176.8925,99.30882893800735L177.325,99.68761165738105L177.75750000000002,98.90339158773422L178.19,98.13576142787933L178.6225,98.75909893512726L179.055,100.54036467075348L179.48749999999998,99.19892935752868L179.92000000000002,97.00153909921646L180.3525,99.0579705119133L180.785,99.16872991919517L181.2175,99.52679767012596L181.65,99.78857009410858L182.0825,96.9909205019474L182.51500000000001,101.93411754369735L182.9475,98.50709583163261L183.38,99.5911739051342L183.8125,100.85100479722023L184.24499999999998,98.25431730151176L184.6775,100.54360352754593L185.10999999999999,102.09881393909454L185.54250000000002,99.82327439188957L185.975,99.27836574912071L186.4075,100.18496607542038L186.84,97.12444158196449L187.2725,100.70677016973495L187.705,99.9731743812561L188.1375,99.17844648957252L188.57,99.2923392534256L189.0025,98.86818616390228L189.435,99.61867781281471L189.8675,99.12882446050644L190.3,101.57091720700264L190.7325,99.08179773688316L191.16500000000002,100.37394334673881L191.5975,97.6887200653553L192.02999999999997,99.63984115719795L192.4625,100.66691218614578L192.89499999999998,100.7194512963295L193.32750000000001,98.48381720781326L193.76,102.19794194698333L194.1925,100.02135633230209L194.625,100.41152780056L195.0575,97.40730877518654L195.49,99.54644708633423L195.9225,101.41347395181656L196.355,96.98805089592933L196.7875,100.85361592769623L197.22,100.9012492775917L197.6525,99.03125258088112L198.085,101.19756247401237L198.51749999999998,99.90130763053894L198.95000000000002,100.6431429862976L199.3825,100.01949425339699L199.81500000000003,96.09749715328216L200.2475,100.7566242992878L200.67999999999998,101.83213575482368L201.1125,96.92062042951584L201.545,99.33837954998016L201.97750000000002,101.13841377496719L202.41,100.41901831626892L202.8425,101.53945704102516L203.275,99.01420374512672L203.7075,99.24016939401626L204.14,98.18350555300712L204.5725,98.55380605459213L205.005,99.44155349135399L205.4375,101.71561603546142L205.87,100.72203605175018L206.30249999999998,100.50531222224235L206.735,101.50060658454895L207.1675,102.27583803534507L207.60000000000002,101.17012714147567L208.0325,99.7783207476139L208.465,100.62720190286636L208.8975,99.82478832006454L209.32999999999998,98.52823280096054L209.76250000000002,100.58545546531677L210.195,100.40160022974014L210.6275,99.17123027443886L211.06,102.18327741622925L211.4925,98.67301602959633L211.92499999999998,100.53999014496803L212.35750000000002,101.79614962935447L212.79,103.26299305558204L213.2225,102.1084302842617L213.655,101.21499111056328L214.08749999999998,98.63728837966919L214.52,100.15951414704323L214.9525,101.16969459056854L215.38500000000002,100.85465510487556L215.8175,102.74760864973068L216.25,101.88865222334861L216.6825,101.73645232915878L217.115,101.89610053896904L217.5475,100.63950850367546L217.98,101.08477218747139L218.4125,100.7459687769413L218.845,99.19190831780433L219.2775,99.95352496504783L219.70999999999998,102.84278567433357L220.1425,101.07937585115432L220.575,102.74549864530563L221.00750000000002,98.94800235629081L221.44,101.01448794007301L221.87249999999997,103.04790975451469L222.305,102.7557638168335L222.73749999999998,101.05005206465721L223.17000000000002,100.11309932470321L223.6025,101.96856864094734L224.035,100.29098852276802L224.4675,102.01641299128532L224.9,100.82164408564567L225.3325,101.29079301953315L225.765,99.87527017593384L226.1975,101.33834724426269L226.63,98.94343947172165L227.0625,100.29429595470428L227.495,100.59395350813865L227.9275,101.95872019529342L228.35999999999999,99.26801617741584L228.79250000000002,101.89094157814979L229.225,102.65908341407776L229.65750000000003,102.58021144866943L230.09,102.03408955335617L230.52249999999998,100.15782614350319L230.955,102.56145350933075L231.3875,101.52119495272636L231.82,102.20812799334526L232.2525,100.42167164683342L232.685,102.62985985279083L233.1175,101.30748842954635L233.55,101.63731377124786L233.9825,103.51381455659866L234.415,100.34337465763092L234.8475,101.84536548256874L235.28,102.01296840906143L235.7125,101.75857572555542L236.14499999999998,100.3236619412899L236.57750000000001,99.70639069676399L237.01,101.92752905488014L237.44250000000002,103.32389833331108L237.875,100.77664296627044L238.09125,101.39531736373901L238.3075,102.22848426103592L238.52375,101.13588176965713L238.74,101.12021498680114L238.95624999999998,101.64495198726654L239.17249999999999,100.19614382386207L239.38875000000002,98.12308557629585L239.605,102.25159408450126L239.82125,101.75872870087623L240.0375,101.25821982622146L240.25375000000003,102.10659458041191L240.47,103.57166032791137L240.68625,101.87517984509468L240.9025,102.61938368082046L241.11874999999998,100.3322285592556L241.335,100.6198854625225L241.55125,100.35708968639373L241.76749999999998,102.24429874420166L241.98375,101.32655231952667L242.20000000000002,101.41333680152893L242.41625000000002,100.34071605205536L242.6325,100.6342387676239L242.84875,98.03104718327522L243.065,100.54040687084198L243.28125,100.24340792298317L243.4975,101.83297448158264L243.71375,100.72825001478195L243.92999999999998,102.48186941742897L244.14625,101.72327007651329L244.3625,100.27525316476822L244.57874999999999,100.92045559287071L244.795,102.40254907608032L245.01125,104.02593900561332L245.22750000000002,102.04107366800308L245.44375,103.57459850907325L245.66,101.65056459903717L245.87625,102.43145613670349L246.0925,99.86764778494835L246.30875,99.2632950425148L246.525,101.82114263176918L246.74124999999998,101.65380345582962L246.9575,102.70738669037819L247.17375,100.99337207078933L247.39000000000001,102.59993999004364L247.60625,101.967698264122L247.8225,102.26121042966842L248.03875000000002,103.14839344024658L248.255,101.12629707455635L248.47125,102.88686366677284L248.6875,101.39518021345138L248.90375,103.28442542552948L249.12,102.99740679860115L249.33625,100.03854759335518L249.55249999999998,100.69985990524292L249.76874999999998,101.0644053697586L249.985,102.75441868901252L250.20125000000002,102.55152593851089L250.4175,101.41093139648437L250.63375,102.16796405911445L250.85000000000002,102.0271423637867L251.06625,102.22465987801552L251.2825,103.94392840862274L251.49875,101.13637762069702L251.71499999999997,102.61196174025535L251.93125,100.65239008069038L252.1475,99.58579866886139L252.36375,102.12648664712906L252.57999999999998,101.95177300572395L252.79625000000001,101.30705060362816L253.01250000000002,101.59799911379814L253.22875,100.93535749912262L253.445,102.67230786681175L253.66125,102.58221067786216L253.8775,101.79406599998474L254.09375,102.10122461915016L254.31,101.56168066263199L254.52624999999998,102.35654570460319L254.7425,103.22273944616317L254.95875,102.54065414071083L255.175,101.31036858558655L255.39124999999999,102.23202906847L255.6075,100.99807210564613L255.82375000000002,102.19311531186104L256.04,100.68341769576072L256.25625,100.13206298947334L256.47249999999997,103.06419898867607L256.68875,100.49946750998497L256.90500000000003,102.47204734683037L257.12125,101.08547376394272L257.3375,100.66040809750557L257.55375000000004,102.09914626479149L257.77,101.9615317761898L257.98625,103.51724858880043L258.2025,103.5890995144844L258.41875,102.07172148227691L258.635,100.56964098215103L258.85125,101.79957838654518" style="fill: none;" fill="none"></path></g><g><path stroke="rgb(238, 51, 119)" stroke-width="2px" d="M25.950000000000003,-3.1164828658104113L26.3825,5.073404359817516L26.815,3.7710252285003776L27.2475,13.883221435546886L27.68,24.20326362848283L28.1125,20.220851826667797L28.544999999999998,22.117460954189312L28.9775,24.33543430566789L29.41,28.47947244644166L29.8425,27.881623792648327L30.275000000000002,38.09741066694261L30.7075,42.72979878187181L31.14,56.26019160747528L31.572499999999998,55.191411066055295L32.005,52.8882568359375L32.4375,54.164461362361905L32.87,56.19499247074127L33.3025,61.90334569215774L33.735,62.48674081563949L34.1675,65.4976010799408L34.6,65.06478642225265L35.0325,62.50795691013336L35.464999999999996,67.92017101049423L35.8975,64.39206426143646L36.33,73.76863907575607L36.7625,71.79372240900993L37.195,75.05555714964866L37.6275,78.69762523770332L38.06,75.52936391830444L38.4925,82.29903881549835L38.925000000000004,83.60492582917213L39.3575,82.70046715736389L39.79,81.84622659087181L40.2225,84.80176781415939L40.655,78.28751950263977L41.087500000000006,85.35916768312454L41.52,84.48544122576713L41.9525,85.53740503191948L42.385,85.87962137460708L42.8175,82.29195975065231L43.25,81.90225775837898L43.6825,84.34551628232002L44.114999999999995,87.51868336200714L44.5475,86.55788757205009L44.980000000000004,90.12741370797157L45.4125,84.60409204959869L45.845,87.81089787483215L46.277499999999996,87.34866448044777L46.71,89.01494024991989L47.1425,91.17823811173439L47.575,91.34961267113685L48.00749999999999,86.01781611442566L48.44,90.07849325537681L48.8725,88.03541289567947L49.305,92.08797179460525L49.737500000000004,90.11518623232841L50.169999999999995,89.18572400808334L50.6025,93.16552995443344L51.035,91.6723905980587L51.4675,93.7753001332283L51.900000000000006,90.85078652501106L52.332499999999996,93.1660574555397L52.765,91.68831058144569L53.1975,93.86555557250976L53.63,90.16300948262214L54.0625,90.6480942249298L54.495,91.25749515295028L54.927499999999995,92.96717371344566L55.36,88.79029862880707L55.792500000000004,91.5312629520893L56.225,94.24058775901794L56.6575,92.55139734148979L57.089999999999996,88.7538272023201L57.5225,94.01218505501747L57.955,91.05959783792495L58.3875,89.96860949993133L58.82,94.52708415985107L59.2525,94.30387206673622L59.685,94.86235858798027L60.1175,92.58322148323059L60.550000000000004,94.31063990592956L60.982499999999995,95.23667864799499L61.415,93.51293690800667L61.847500000000004,94.84209727048874L62.28,90.72430758476257L62.712500000000006,91.54012497067451L63.144999999999996,91.72290937900543L63.5775,85.04684482812881L64.01,93.27836771607399L64.4425,91.37476392388344L64.875,92.49936463236808L65.30749999999999,91.19236459136009L65.74,87.68024640083313L66.1725,91.87209196686744L66.605,91.29898838996887L67.03750000000001,95.81528933644294L67.47,96.7153011739254L67.9025,91.95881314873695L68.335,95.73892300128936L68.7675,96.84437014460563L69.2,94.6568599820137L69.6325,94.18620766997337L70.065,96.17242868542671L70.49749999999999,92.2616779088974L70.92999999999999,95.28292994499206L71.3625,94.96140219569206L71.795,90.38538284897804L72.2275,91.29169832468033L72.66,91.40194605588913L73.0925,95.80747177004814L73.525,90.79037709832191L73.95750000000001,96.03379084467888L74.39,92.76468713879585L74.82249999999999,94.84837980866432L75.255,97.63499407768249L75.6875,98.71746327280998L76.12,95.331697422266L76.5525,95.10525174736976L76.985,93.18633459806442L77.4175,95.42735974788665L77.85000000000001,96.84952910542488L78.2825,92.90170555114746L78.715,96.15257881879806L79.1475,96.67995859980583L79.58,93.93199433684349L80.0125,95.28435947299003L80.445,95.81106932759285L80.8775,92.28695576190948L81.31,92.2969308078289L81.7425,97.89604382514953L82.17500000000001,92.56478004455566L82.6075,96.5088319659233L83.04,93.20269240736961L83.4725,93.67894150614738L83.905,94.23474304676056L84.33749999999999,96.51692910790443L84.77,99.70176978707313L85.2025,97.16202076077461L85.635,95.85857607722282L86.06750000000001,95.18677176833152L86.5,93.09546198248863L86.9325,97.25678105950355L87.365,84.61827655434608L87.7975,96.4247641146183L88.22999999999999,96.60238428711891L88.6625,96.36895449757576L89.095,97.05214755535125L89.5275,95.26413508057594L89.96000000000001,94.33061109781265L90.3925,96.35114078521728L90.825,97.5535637319088L91.25750000000001,97.94179927110672L91.69,94.7662478864193L92.12249999999999,91.66276897788048L92.55499999999999,97.44746215939522L92.9875,92.11339734792709L93.42,97.1186548948288L93.8525,96.90065451264381L94.285,95.7587464928627L94.7175,97.89611767530441L95.15,93.90773983597755L95.58250000000001,97.68793936371803L96.01499999999999,91.81397716999054L96.44749999999999,96.74221955537796L96.88,95.0212208211422L97.3125,97.2162847995758L97.745,95.16913740634918L98.1775,98.00465630292892L98.61,96.04448329210281L99.0425,95.18935652375221L99.47500000000001,94.24027125835418L99.90750000000001,97.70614342689514L100.33999999999999,91.7337231516838L100.7725,97.48971499800682L101.205,97.55401210784912L101.6375,92.97583000659942L102.07,94.3089835524559L102.5025,94.93424643874168L102.935,96.07842798829078L103.3675,95.70225639939308L103.80000000000001,97.27598737478256L104.2325,96.89579095244407L104.66499999999999,98.06042899489402L105.0975,95.53216894268989L105.53,97.57740150690078L105.96249999999999,98.09214763641357L106.395,97.62136872410774L106.8275,98.51170091629028L107.26,99.25768770575523L107.69250000000001,98.629354763031L108.125,96.98607276678085L108.5575,95.8729874074459L108.99,100.0453470826149L109.4225,97.10084645748138L109.85499999999999,97.85717754364013L110.2875,100.05334399938583L110.72,98.96006103157997L111.1525,95.49850382208824L111.58500000000001,97.31362457871437L112.0175,94.35167949199676L112.45,97.28750272393226L112.8825,89.00156809687614L113.315,99.96029807925224L113.7475,98.63519947528839L114.17999999999999,98.5726220190525L114.6125,97.0084493637085L115.045,101.00530942082405L115.4775,94.49134068489074L115.91,98.83275918960571L116.3425,96.32969786524772L116.775,99.05829756259918L117.2075,97.88251869678497L117.64,98.17868419289589L118.07249999999999,100.36375730037689L118.505,97.75438867807388L118.9375,98.95596762299537L119.37,99.32690640091896L119.8025,99.03808372020721L120.235,98.30164997577667L120.6675,97.42675774097442L121.10000000000001,98.6463191986084L121.5325,97.3625766813755L121.96499999999999,98.91646834015846L122.3975,99.88293476700782L122.83,98.98606156110763L123.2625,100.74919180870056L123.69500000000001,100.45231418609619L124.1275,100.0223849594593L124.56,99.06782423257827L124.9925,98.23511626124382L125.42500000000001,99.83963220119476L125.85749999999999,99.78292583227157L126.28999999999999,91.38881655335426L126.7225,99.91381468176841L127.155,101.03057144880295L127.5875,101.22721331119537L128.02,95.75397260785103L128.45250000000001,101.47572963237762L128.885,100.55936526060104L129.3175,102.59040804505348L129.75,101.79173972010612L129.96625,99.40819432139396L130.1825,101.84943779110908L130.39875,99.76173083782196L130.61499999999998,102.84380375146866L130.83125,94.41261641979217L131.04749999999999,93.9723270714283L131.26375000000002,101.20398743748665L131.48,102.80582894682884L131.69625000000002,100.90094860196113L131.9125,98.92748256325721L132.12875,101.59990866780281L132.345,101.56223453879356L132.56125,101.2440458714962L132.7775,101.51701714396476L132.99375,101.0417122721672L133.21,99.56802715659141L133.42625,101.79291077256202L133.6425,102.09997971653938L133.85875,102.00160603523254L134.07500000000002,98.12765373587608L134.29125,100.85961361527443L134.5075,101.1720419704914L134.72375,101.2584835767746L134.94,101.6107488155365L135.15625,102.43888862729072L135.3725,101.59829451441765L135.58875,102.13575484156608L135.805,101.83600761294365L136.02125,102.29828320741653L136.2375,100.97062094807625L136.45374999999999,101.25422664284706L136.67,101.22136332392692L136.88625,102.66294999718666L137.1025,100.02209483385086L137.31875,100.02269091010093L137.535,97.91470681428909L137.75125,101.68762682676315L137.9675,102.17165656685829L138.18375,102.54415674805641L138.4,101.58496983647346L138.61625,101.03926994204521L138.83249999999998,102.24669359922409L139.04875,99.85299907922744L139.265,102.24623467326164L139.48125000000002,101.40410553216934L139.6975,97.55671291351318L139.91375,99.42795451283455L140.13,102.7230218231678L140.34625,100.65214215517044L140.5625,101.15289895534515L140.77875,98.84109898209572L140.99499999999998,100.53313790559768L141.21125,93.66002004146576L141.4275,100.19219811558723L141.64374999999998,99.50026963949203L141.85999999999999,101.32192613482475L142.07625000000002,98.59750424623489L142.29250000000002,102.40520768165588L142.50875,98.10473908782005L142.725,100.91648350954056L142.94125,101.55808310508728L143.1575,101.73146216869354L143.37375,100.96231808066368L143.59,101.23389147520065L143.80624999999998,103.9247695684433L144.0225,100.82770507335663L144.23875,100.35138212442398L144.455,98.64100726246834L144.67125,101.30491949915886L144.8875,100.99357779622078L145.10375000000002,95.87782459259033L145.32,98.16632484197616L145.53625,102.9462972164154L145.7525,102.07952322363853L145.96875,102.03646858334541L146.185,99.89268298745155L146.40125,99.86003066897392L146.61749999999998,100.23191367387771L146.83375,102.50558059215545L147.05,99.76696892380714L147.26625,96.6296930193901L147.4825,100.30016704201698L147.69875,101.23037831783294L147.91500000000002,100.80696900486946L148.13125,102.20242570638656L148.3475,101.80439974665642L148.56375,102.65322815179825L148.78,99.65630974173546L148.99625,100.68491052389145L149.2125,104.18050737977028L149.42874999999998,101.19763632416725L149.64499999999998,101.74310411810875L149.86125,100.80354024767875L150.07750000000001,100.12300579547882L150.29375,101.61430944800377L150.51,99.73365195393562L150.72625000000002,99.9076218187809L150.9425,100.63996215462684L151.15875,96.75426768064499L151.375,100.97057347297668L151.59124999999997,101.56710864901542L151.8075,101.61367644667625L152.02375,101.35425667762756L152.24,98.15080575942993L152.45624999999998,101.68172936439514L152.6725,101.74969788193702L152.88875000000002,102.10913186073303L153.105,100.74546237587928L153.32125,99.92905418872833L153.5375,100.44280861616134L153.75375,100.9000360250473L153.97,100.1995831310749L154.18625,102.55336691737175L154.40249999999997,101.49897133111953L154.61875,103.1436775803566L154.835,102.49453999400139L155.05125,101.85835783481598L155.26749999999998,103.08617995977401L155.48375,102.23919253349304L155.70000000000002,100.14487071633339L155.91625,96.08817620873451L156.1325,99.81847940683365L156.34875,101.37487142086029L156.565,103.50844987034797L156.78125,101.1935218155384L156.9975,102.18653209805488L157.21375,102.58188890218734L157.43,102.96098284721374L157.64625,101.84613563418388L157.8625,97.80800916552543L158.07874999999999,104.35128586292267L158.295,103.08322595357895L158.51125000000002,102.96130462288856L158.7275,100.15697159171104L158.94375,102.50560696721077L159.16,101.87041123509407L159.37625000000003,103.80192511081695L159.5925,102.47002701759338L159.80875,101.10754968523979L160.025,104.6397287428379L160.24124999999998,104.68932967185974L160.4575,104.41243379116058L160.67375,101.0454100549221L160.89,103.57495720982551L161.10625,101.60612263083458L161.32250000000002,101.42603902816772L161.53875,102.50128673315048L161.755,100.90504201054573L161.97125,102.18550874590873L162.18749999999997,104.3310720205307L162.40375,100.20234723687172L162.62,103.1108511865139L162.83625,104.42918722629547L163.05249999999998,103.40014861822128L163.26875,104.12907074689865L163.485,104.12985144853592L163.70125,100.5224243581295L163.9175,102.6957974910736L164.13375,103.19719784259796L164.35000000000002,101.4381504535675L164.56625,103.62638329267502L164.7825,100.09301208257675L164.99875,103.24310626387596L165.215,104.02373405098915L165.43125,103.83708833456039L165.6475,104.25646753907203L165.86374999999998,99.25810443162918L166.08,102.03084542155266L166.29625000000001,98.95320351719856L166.5125,103.89096729755401L166.72875,103.2131389260292L166.945,102.610162961483L167.16125000000002,101.60165469646454L167.3775,101.68540077209472L167.59375,101.34330575466156L167.81,102.31382866501808L168.02625,102.49558972120285L168.2425,102.7406772851944L168.45875,102.08159102797508L168.67499999999998,99.4838749051094L168.89124999999999,99.84512876272201L169.10750000000002,101.48077254295349L169.32375,100.26041455864906L169.54,98.56946228742599L169.75625,102.46897729039192L169.97250000000003,103.79520474672317L170.18875,104.71931283473968L170.405,100.88307686448097L170.62125,102.52259250283241L170.83749999999998,101.43056498765945L171.05375,101.41177539825439L171.27,102.5113039791584L171.48624999999998,104.8960573554039L171.7025,102.58591373562813L171.91875000000002,101.8468530356884L172.13500000000002,102.49972005486488L172.35125,98.8801076889038L172.5675,102.37086735963821L172.78375,103.23299934267997L173,101.93613259792328L173.21625,103.80902527570724L173.4325,103.61078508496284L173.64874999999998,97.58458079695701L173.865,105.46071563959121L174.08125,103.53928758502006L174.29749999999999,102.96640555858612L174.51375,103.5173224389553L174.73,100.1844965994358L174.94625000000002,102.75491454005241L175.1625,104.0655701637268L175.37875,102.73664190173149L175.595,103.62725366950035L175.81125,100.65789719223976L176.0275,103.13160308003425L176.24375,103.82130022644996L176.45999999999998,101.71110062599182L176.67625,100.24826093316078L176.8925,104.00982384681701L177.10875000000001,100.12724690437317L177.325,104.56161110401153L177.54125,103.29843057990074L177.75750000000002,102.54625620245933L177.97375,99.30744688510894L178.19,102.48909618258476L178.40625,104.91772182583809L178.6225,103.76956819295883L178.83875,104.74289740920067L179.055,105.38298307657242L179.27124999999998,105.58269499540329L179.48749999999998,103.74576206803322L179.70375,105.56858961582184L179.92000000000002,101.43005858659744L180.13625,104.66021161079406L180.3525,103.64606435894966L180.56875000000002,100.88270233869552L180.785,103.25004817843437L181.00125,102.3765274465084L181.2175,104.3242408812046L181.43374999999997,104.07700638771057L181.65,103.53081064224243L181.86625,105.77017416357994L182.0825,100.6251077234745L182.29874999999998,104.08684428334236L182.51500000000001,106.5784377336502L182.73125000000002,104.1024319410324L182.9475,101.62313454151153L183.16375,103.17185141444206L183.38,103.02645100951194L183.59625,102.63733454346657L183.8125,105.65837030410766L184.02875,103.25139330625534L184.24499999999998,102.5156083881855L184.46125,101.94594939351082L184.6775,104.55974375009536L184.89375,104.29240618944168L185.10999999999999,106.57320492267608L185.32625,105.40480052232742L185.54250000000002,103.86006628274917L185.75875,102.86355866789818L185.975,104.23600577116012L186.19125,101.90463550686836L186.4075,103.61518444418907L186.62375,104.71404309868812L186.84,99.58579339385032L187.05624999999998,104.22822512984276L187.2725,103.99800254702568L187.48875,103.81561376452446L187.705,102.52138452529907L187.92125,99.70937107801437L188.1375,104.7834094941616L188.35375000000002,103.17046408653259L188.57,103.87206165790558L188.78625,105.72378571629524L189.0025,103.17659892439842L189.21875000000003,101.85848971009254L189.435,104.94159125089645L189.65125,105.27608497738838L189.8675,103.17554919719696L190.08374999999998,102.82991992235183L190.3,105.72627024650573L190.51625,101.6791235089302L190.7325,102.2259047806263L190.94875,105.22352476716041L191.16500000000002,105.78790875077247L191.38125,104.69598673582077L191.5975,102.0853415608406L191.81375,100.53850259184837L192.02999999999997,102.82059897780418L192.24625,101.41274072527885L192.4625,105.11262820959091L192.67875,102.34686078429222L192.89499999999998,105.54617081880569L193.11125,103.74124665856361L193.32750000000001,102.53780563473701L193.54375,104.25514878630638L193.76,107.07820810675621L193.97625,102.50667779445648L194.1925,104.19497146010399L194.40875,102.4721686720848L194.625,103.8097374022007L194.84125,103.79066823720932L195.0575,100.4605959534645L195.27375,106.5174849808216L195.49,104.25836654305458L195.70624999999998,107.07893605828285L195.9225,106.63344027400017L196.13875000000002,103.78196974396705L196.355,99.16395075917244L196.57125,104.06113387942314L196.7875,105.04824142456054L197.00375000000003,105.808254468441L197.22,105.41874237656593L197.43625,107.2237667620182L197.6525,102.34518860578537L197.86875,100.99987088441848L198.085,105.88676773309707L198.30125,104.52416380047798L198.51749999999998,104.71096249222755L198.73375,105.38449700474739L198.95000000000002,106.3657756626606L199.16625,104.55682139396667L199.3825,104.36202578544616L199.59875,106.73804901838302L199.81500000000003,97.38499547839164L200.03125,103.62103970646858L200.2475,104.81591938734054L200.46375,104.83110614418983L200.67999999999998,106.52744420170784L200.89625,106.21130223870277L201.1125,100.22431765794754L201.32874999999999,103.65251042246818L201.545,104.03468497395515L201.76125000000002,106.09416534304619L201.97750000000002,105.23489241600036L202.19375,103.55833037495613L202.41,105.88723193407058L202.62625,104.38205500245094L202.8425,106.7960688650608L203.05875,103.80600269436836L203.275,103.27303140163421L203.49124999999998,103.15624265670776L203.7075,102.95718483924865L203.92375,104.43899347186088L204.14,103.34798403382301L204.35625,106.45126249194145L204.5725,102.68367024064064L204.78875000000002,103.19708179235458L205.005,102.6217627108097L205.22125,104.32083849906921L205.4375,106.84474139213562L205.65375,104.93578873872757L205.87,105.63666890859604L206.08625,103.301738011837L206.30249999999998,104.74018605351448L206.51875,106.98131670355797L206.735,106.23324100971222L206.95125,103.38403345942497L207.1675,108.01843135356903L207.38375,106.42271413207054L207.60000000000002,105.32222549915313L207.81625,106.35759412050247L208.0325,103.68263073563575L208.24875,105.94805808663368L208.465,105.2832800924778L208.68125,102.82898624539375L208.8975,105.16938732862472L209.11374999999998,104.38477690815925L209.32999999999998,101.18484969735145L209.54625000000001,105.31855409145355L209.76250000000002,105.88811286091804L209.97875,106.90891717672348L210.195,104.82336770296097L210.41125000000002,105.93370478153228L210.6275,102.02159305214882L210.84375,105.79211293458938L211.06,105.99859796762466L211.27624999999998,107.41264908313751L211.4925,100.95083438158035L211.70875,104.02661420702934L211.92499999999998,104.15637947916984L212.14124999999999,106.33752270340919L212.35750000000002,106.07247449755668L212.57375000000002,105.23837919831276L212.79,108.6444010913372L213.00625,105.0853775024414L213.2225,106.91461946368217L213.43875,105.60024495720863L213.655,106.53109450936317L213.87125,104.16350074410438L214.08749999999998,102.36747025251388L214.30375,104.89367832541465L214.52,103.58734293580055L214.73625,105.6761470913887L214.9525,104.54399784207344L215.16875,104.3957225561142L215.38500000000002,104.73566536903381L215.60125,106.45772438049316L215.8175,107.41773946881294L216.03375,107.19600437879562L216.25,106.6316151201725L216.46625,107.28728317022323L216.6825,105.96870975494384L216.89874999999998,105.3999211370945L217.115,106.9485008597374L217.33125,105.99544351100921L217.5475,105.32742138504982L217.76375,104.754718708992L217.98,105.7621350467205L218.19625000000002,107.60217495560646L218.4125,105.05448176264763L218.62875,104.97986673116684L218.845,103.46879233717918L219.06125,104.29109271168709L219.2775,103.67088856101036L219.49375,106.2497834444046L219.70999999999998,108.19859935641288L219.92624999999998,103.86121096014976L220.1425,105.73832364678383L220.35875000000001,106.75127347111702L220.575,106.58376021981239L220.79125,104.78355719447136L221.00750000000002,103.60430737137794L221.22375,105.05850132107734L221.44,105.47401921749115L221.65625,105.78644229769706L221.87249999999997,107.88640837669372L222.08875,102.33857374191284L222.305,107.28368033766746L222.52125,103.35379182100296L222.73749999999998,105.40320219397545L222.95375,104.45376877784729L223.17000000000002,105.42832707166671L223.38625,105.82735528349876L223.6025,105.91890310049057L223.81875,105.30116765499115L224.035,104.7625943005085L224.25125,106.67161552906036L224.4675,106.73418771028518L224.68374999999997,104.34804173111915L224.9,106.03600834608078L225.11625,103.44075565338134L225.3325,105.73532744050026L225.54874999999998,103.43663059473037L225.765,103.22789313197136L225.98125000000002,102.3944519340992L226.1975,105.70759670734405L226.41375,103.72496797442436L226.63,102.75997327566147L226.84625,105.05124290585518L227.0625,106.26342462301254L227.27875,102.03269167542457L227.495,105.36567049026489L227.71125,106.83469249606132L227.9275,105.71751372814178L228.14375,107.56774495840072L228.35999999999999,102.60765733122825L228.57625,107.76764677762985L228.79250000000002,106.3432091653347L229.00875,106.11223753094673L229.225,107.67594071030616L229.44125,107.39203961491584L229.65750000000003,106.82861040830612L229.87375,104.92128245830536L230.09,105.20294694900512L230.30625,107.23420073390007L230.52249999999998,102.55136241316795L230.73875,105.98442928791046L230.955,107.55977969169616L231.17125,102.18079816102981L231.3875,105.818783390522L231.60375000000002,105.48776589632034L231.82,107.31433870196342L232.03625,102.94925122261047L232.2525,104.1383494913578L232.46874999999997,106.37452690601349L232.685,108.0448538839817L232.90125,104.50918276906013L233.1175,105.76005669236183L233.33374999999998,106.0043371796608L233.55,105.26556133031845L233.76625,105.962152916193L233.9825,107.5743809223175L234.19875,104.27622773051262L234.415,102.7657968878746L234.63125000000002,106.36935212016105L234.8475,106.42045642733574L235.06375,108.66020502448082L235.28,106.73336480855941L235.49625,106.48242198228836L235.7125,106.31262992620468L235.92875,105.20533652901649L236.14499999999998,103.5382378578186L236.36125,106.03385614156723L236.57750000000001,101.88422121405601L236.79375,106.03140853643417L237.01,107.09793137311935L237.22625,107.89617242217064L237.44250000000002,108.54442380666733L237.65875,106.62701003551483L237.875,105.22097693681717L238.09125,106.57438652515411L238.3075,106.54129110574722L238.52375,105.90287761688232L238.74,106.5896998822689L238.95624999999998,106.18529643416404L239.17249999999999,104.10052238702774L239.38875000000002,100.07460756897926L239.605,106.86143152713775L239.82125,107.48108707666397L240.0375,107.05670716166496L240.25375000000003,106.29907314777374L240.47,108.4186411678791L240.68625,106.17486773729324L240.9025,107.433833527565L241.11874999999998,103.29139899015426L241.335,105.09956728219986L241.55125,105.46176009178161L241.76749999999998,107.46457629203796L241.98375,106.16060410737991L242.20000000000002,107.15852015018463L242.41625000000002,106.8226707458496L242.6325,106.15371494293213L242.84875,98.95005433559417L243.065,104.5215632200241L243.28125,104.32130797505378L243.4975,105.60661189556122L243.71375,105.70898931026458L243.92999999999998,107.21767939925194L244.14625,107.72267203330993L244.3625,106.22576631903648L244.57874999999999,105.2454582631588L244.795,107.19653187990188L245.01125,109.92137049436569L245.22750000000002,105.87270982861519L245.44375,109.09468658566475L245.66,105.84409289360046L245.87625,106.26447962522506L246.0925,103.57916666865349L246.30875,102.1627206981182L246.525,106.34376831650734L246.74124999999998,104.4328797340393L246.9575,108.53314055800438L247.17375,103.13957362174988L247.39000000000001,108.01999803185463L247.60625,106.02934600710869L247.8225,105.41699107289314L248.03875000000002,107.43707238435745L248.255,106.0823651432991L248.47125,108.57790957689285L248.6875,106.25046392083168L248.90375,107.87273027300834L249.12,107.80829601287842L249.33625,101.20781182050705L249.55249999999998,103.65651943087578L249.76874999999998,106.21588094830513L249.985,107.75250749588012L250.20125000000002,107.85973264575004L250.4175,106.60564624071121L250.63375,106.05623801350593L250.85000000000002,106.99118097424507L251.06625,105.9202113032341L251.2825,107.30727018713951L251.49875,106.10438303947448L251.71499999999997,107.6302960395813L251.93125,105.51222084760666L252.1475,102.80741145014763L252.36375,105.85582451820373L252.57999999999998,106.89166261553764L252.79625000000001,106.02328501939773L253.01250000000002,106.28897677659988L253.22875,104.7393789768219L253.445,108.49196382164955L253.66125,107.57681270241737L253.8775,108.06948291063308L254.09375,108.23378368020057L254.31,107.27175353765487L254.52624999999998,107.27716569900512L254.7425,108.88031541109085L254.95875,107.76987810730934L255.175,106.15325601696968L255.39124999999999,106.71775605082512L255.6075,106.27538834810257L255.82375000000002,107.13985716104507L256.04,105.26826741099357L256.25625,105.33538137674331L256.47249999999997,108.61048277020454L256.68875,106.1327889740467L256.90500000000003,108.86962823867798L257.12125,105.20021976828575L257.3375,105.96736462712288L257.55375000000004,107.31370570063591L257.77,105.91317971348762L257.98625,109.00839267969131L258.2025,108.08176841139793L258.41875,108.46279301047325L258.635,104.65026821494102L258.85125,106.38227589726448" style="fill: none;" fill="none"></path></g></g></g></g></g></g><g transform="translate(48, 177)" clip-path="url(#clip_1)"><clipPath id="clip_1"><rect width="281" height="23"></rect></clipPath><g><g><line x1="0" y1="0" x2="0" y2="5" style="visibility: inherit;" fill="rgb(0, 0, 0)" stroke="rgb(204, 204, 204)" stroke-width="1px"></line><line x1="21.625" y1="0" x2="21.625" y2="5" style="visibility: inherit;" fill="rgb(0, 0, 0)" stroke="rgb(204, 204, 204)" stroke-width="1px"></line><line x1="43.25" y1="0" x2="43.25" y2="5" style="visibility: inherit;" fill="rgb(0, 0, 0)" stroke="rgb(204, 204, 204)" stroke-width="1px"></line><line x1="64.875" y1="0" x2="64.875" y2="5" style="visibility: inherit;" fill="rgb(0, 0, 0)" stroke="rgb(204, 204, 204)" stroke-width="1px"></line><line x1="86.5" y1="0" x2="86.5" y2="5" style="visibility: inherit;" fill="rgb(0, 0, 0)" stroke="rgb(204, 204, 204)" stroke-width="1px"></line><line x1="108.125" y1="0" x2="108.125" y2="5" style="visibility: inherit;" fill="rgb(0, 0, 0)" stroke="rgb(204, 204, 204)" stroke-width="1px"></line><line x1="129.75" y1="0" x2="129.75" y2="5" style="visibility: inherit;" fill="rgb(0, 0, 0)" stroke="rgb(204, 204, 204)" stroke-width="1px"></line><line x1="151.375" y1="0" x2="151.375" y2="5" style="visibility: inherit;" fill="rgb(0, 0, 0)" stroke="rgb(204, 204, 204)" stroke-width="1px"></line><line x1="173" y1="0" x2="173" y2="5" style="visibility: inherit;" fill="rgb(0, 0, 0)" stroke="rgb(204, 204, 204)" stroke-width="1px"></line><line x1="194.625" y1="0" x2="194.625" y2="5" style="visibility: inherit;" fill="rgb(0, 0, 0)" stroke="rgb(204, 204, 204)" stroke-width="1px"></line><line x1="216.25" y1="0" x2="216.25" y2="5" style="visibility: inherit;" fill="rgb(0, 0, 0)" stroke="rgb(204, 204, 204)" stroke-width="1px"></line><line x1="237.875" y1="0" x2="237.875" y2="5" style="visibility: inherit;" fill="rgb(0, 0, 0)" stroke="rgb(204, 204, 204)" stroke-width="1px"></line><line x1="259.5" y1="0" x2="259.5" y2="5" style="visibility: inherit;" fill="rgb(0, 0, 0)" stroke="rgb(204, 204, 204)" stroke-width="1px"></line><line x1="281.125" y1="0" x2="281.125" y2="5" style="visibility: inherit;" fill="rgb(0, 0, 0)" stroke="rgb(204, 204, 204)" stroke-width="1px"></line></g><g transform="translate(0, 8)"><text x="0" y="0" dx="0em" dy="0.95em" style="text-anchor: middle; visibility: hidden; font-family: &quot;Helvetica Neue&quot;, sans-serif; font-size: 12px; font-weight: 200;" fill="rgb(50, 49, 63)" stroke="none" stroke-width="1px">-100</text><text x="21.625" y="0" dx="0em" dy="0.95em" style="text-anchor: middle; visibility: inherit; font-family: &quot;Helvetica Neue&quot;, sans-serif; font-size: 12px; font-weight: 200;" fill="rgb(50, 49, 63)" stroke="none" stroke-width="1px">0</text><text x="43.25" y="0" dx="0em" dy="0.95em" style="text-anchor: middle; visibility: hidden; font-family: &quot;Helvetica Neue&quot;, sans-serif; font-size: 12px; font-weight: 200;" fill="rgb(50, 49, 63)" stroke="none" stroke-width="1px">100</text><text x="64.875" y="0" dx="0em" dy="0.95em" style="text-anchor: middle; visibility: inherit; font-family: &quot;Helvetica Neue&quot;, sans-serif; font-size: 12px; font-weight: 200;" fill="rgb(50, 49, 63)" stroke="none" stroke-width="1px">200</text><text x="86.5" y="0" dx="0em" dy="0.95em" style="text-anchor: middle; visibility: hidden; font-family: &quot;Helvetica Neue&quot;, sans-serif; font-size: 12px; font-weight: 200;" fill="rgb(50, 49, 63)" stroke="none" stroke-width="1px">300</text><text x="108.125" y="0" dx="0em" dy="0.95em" style="text-anchor: middle; visibility: inherit; font-family: &quot;Helvetica Neue&quot;, sans-serif; font-size: 12px; font-weight: 200;" fill="rgb(50, 49, 63)" stroke="none" stroke-width="1px">400</text><text x="129.75" y="0" dx="0em" dy="0.95em" style="text-anchor: middle; visibility: hidden; font-family: &quot;Helvetica Neue&quot;, sans-serif; font-size: 12px; font-weight: 200;" fill="rgb(50, 49, 63)" stroke="none" stroke-width="1px">500</text><text x="151.375" y="0" dx="0em" dy="0.95em" style="text-anchor: middle; visibility: inherit; font-family: &quot;Helvetica Neue&quot;, sans-serif; font-size: 12px; font-weight: 200;" fill="rgb(50, 49, 63)" stroke="none" stroke-width="1px">600</text><text x="173" y="0" dx="0em" dy="0.95em" style="text-anchor: middle; visibility: hidden; font-family: &quot;Helvetica Neue&quot;, sans-serif; font-size: 12px; font-weight: 200;" fill="rgb(50, 49, 63)" stroke="none" stroke-width="1px">700</text><text x="194.625" y="0" dx="0em" dy="0.95em" style="text-anchor: middle; visibility: inherit; font-family: &quot;Helvetica Neue&quot;, sans-serif; font-size: 12px; font-weight: 200;" fill="rgb(50, 49, 63)" stroke="none" stroke-width="1px">800</text><text x="216.25" y="0" dx="0em" dy="0.95em" style="text-anchor: middle; visibility: hidden; font-family: &quot;Helvetica Neue&quot;, sans-serif; font-size: 12px; font-weight: 200;" fill="rgb(50, 49, 63)" stroke="none" stroke-width="1px">900</text><text x="237.875" y="0" dx="0em" dy="0.95em" style="text-anchor: middle; visibility: inherit; font-family: &quot;Helvetica Neue&quot;, sans-serif; font-size: 12px; font-weight: 200;" fill="rgb(50, 49, 63)" stroke="none" stroke-width="1px">1k</text><text x="259.5" y="0" dx="0em" dy="0.95em" style="text-anchor: middle; visibility: hidden; font-family: &quot;Helvetica Neue&quot;, sans-serif; font-size: 12px; font-weight: 200;" fill="rgb(50, 49, 63)" stroke="none" stroke-width="1px">1.1k</text><text x="281.125" y="0" dx="0em" dy="0.95em" style="text-anchor: middle; visibility: hidden; font-family: &quot;Helvetica Neue&quot;, sans-serif; font-size: 12px; font-weight: 200;" fill="rgb(50, 49, 63)" stroke="none" stroke-width="1px">1.2k</text></g><line x1="0" y1="0" x2="281.125" y2="0" fill="rgb(0, 0, 0)" stroke="rgb(204, 204, 204)" stroke-width="1px"></line></g></g></g></g></svg>