<svg viewBox="0 0 330 200" xmlns="http://www.w3.org/2000/svg"><g><g><g><g><g><line x1="39.15625" y1="177" x2="34.15625" y2="177" style="visibility: inherit;" fill="rgb(0, 0, 0)" stroke="rgb(204, 204, 204)" stroke-width="1px"></line><line x1="39.15625" y1="159.29999999999998" x2="34.15625" y2="159.29999999999998" style="visibility: inherit;" fill="rgb(0, 0, 0)" stroke="rgb(204, 204, 204)" stroke-width="1px"></line><line x1="39.15625" y1="141.59999999999997" x2="34.15625" y2="141.59999999999997" style="visibility: inherit;" fill="rgb(0, 0, 0)" stroke="rgb(204, 204, 204)" stroke-width="1px"></line><line x1="39.15625" y1="123.89999999999995" x2="34.15625" y2="123.89999999999995" style="visibility: inherit;" fill="rgb(0, 0, 0)" stroke="rgb(204, 204, 204)" stroke-width="1px"></line><line x1="39.15625" y1="106.19999999999993" x2="34.15625" y2="106.19999999999993" style="visibility: inherit;" fill="rgb(0, 0, 0)" stroke="rgb(204, 204, 204)" stroke-width="1px"></line><line x1="39.15625" y1="88.5" x2="34.15625" y2="88.5" style="visibility: inherit;" fill="rgb(0, 0, 0)" stroke="rgb(204, 204, 204)" stroke-width="1px"></line><line x1="39.15625" y1="70.79999999999998" x2="34.15625" y2="70.79999999999998" style="visibility: inherit;" fill="rgb(0, 0, 0)" stroke="rgb(204, 204, 204)" stroke-width="1px"></line><line x1="39.15625" y1="53.099999999999966" x2="34.15625" y2="53.099999999999966" style="visibility: inherit;" fill="rgb(0, 0, 0)" stroke="rgb(204, 204, 204)" stroke-width="1px"></line><line x1="39.15625" y1="35.39999999999995" x2="34.15625" y2="35.39999999999995" style="visibility: inherit;" fill="rgb(0, 0, 0)" stroke="rgb(204, 204, 204)" stroke-width="1px"></line><line x1="39.15625" y1="17.699999999999932" x2="34.15625" y2="17.699999999999932" style="visibility: inherit;" fill="rgb(0, 0, 0)" stroke="rgb(204, 204, 204)" stroke-width="1px"></line><line x1="39.15625" y1="0" x2="34.15625" y2="0" style="visibility: inherit;" fill="rgb(0, 0, 0)" stroke="rgb(204, 204, 204)" stroke-width="1px"></line></g><g transform="translate(29.15625, 0)"><text x="0" y="177" dx="0em" dy="0.3em" style="text-anchor: end; visibility: hidden; font-family: &quot;Helvetica Neue&quot;, sans-serif; font-size: 12px; font-weight: 200;" fill="rgb(50, 49, 63)" stroke="none" stroke-width="1px">2.3</text><text x="0" y="159.29999999999998" dx="0em" dy="0.3em" style="text-anchor: end; visibility: inherit; font-family: &quot;Helvetica Neue&quot;, sans-serif; font-size: 12px; font-weight: 200;" fill="rgb(50, 49, 63)" stroke="none" stroke-width="1px">2.4</text><text x="0" y="141.59999999999997" dx="0em" dy="0.3em" style="text-anchor: end; visibility: hidden; font-family: &quot;Helvetica Neue&quot;, sans-serif; font-size: 12px; font-weight: 200;" fill="rgb(50, 49, 63)" stroke="none" stroke-width="1px">2.5</text><text x="0" y="123.89999999999995" dx="0em" dy="0.3em" style="text-anchor: end; visibility: inherit; font-family: &quot;Helvetica Neue&quot;, sans-serif; font-size: 12px; font-weight: 200;" fill="rgb(50, 49, 63)" stroke="none" stroke-width="1px">2.6</text><text x="0" y="106.19999999999993" dx="0em" dy="0.3em" style="text-anchor: end; visibility: hidden; font-family: &quot;Helvetica Neue&quot;, sans-serif; font-size: 12px; font-weight: 200;" fill="rgb(50, 49, 63)" stroke="none" stroke-width="1px">2.7</text><text x="0" y="88.5" dx="0em" dy="0.3em" style="text-anchor: end; visibility: inherit; font-family: &quot;Helvetica Neue&quot;, sans-serif; font-size: 12px; font-weight: 200;" fill="rgb(50, 49, 63)" stroke="none" stroke-width="1px">2.8</text><text x="0" y="70.79999999999998" dx="0em" dy="0.3em" style="text-anchor: end; visibility: hidden; font-family: &quot;Helvetica Neue&quot;, sans-serif; font-size: 12px; font-weight: 200;" fill="rgb(50, 49, 63)" stroke="none" stroke-width="1px">2.9</text><text x="0" y="53.099999999999966" dx="0em" dy="0.3em" style="text-anchor: end; visibility: inherit; font-family: &quot;Helvetica Neue&quot;, sans-serif; font-size: 12px; font-weight: 200;" fill="rgb(50, 49, 63)" stroke="none" stroke-width="1px">3</text><text x="0" y="35.39999999999995" dx="0em" dy="0.3em" style="text-anchor: end; visibility: hidden; font-family: &quot;Helvetica Neue&quot;, sans-serif; font-size: 12px; font-weight: 200;" fill="rgb(50, 49, 63)" stroke="none" stroke-width="1px">3.1</text><text x="0" y="17.699999999999932" dx="0em" dy="0.3em" style="text-anchor: end; visibility: inherit; font-family: &quot;Helvetica Neue&quot;, sans-serif; font-size: 12px; font-weight: 200;" fill="rgb(50, 49, 63)" stroke="none" stroke-width="1px">3.2</text><text x="0" y="0" dx="0em" dy="0.3em" style="text-anchor: end; visibility: hidden; font-family: &quot;Helvetica Neue&quot;, sans-serif; font-size: 12px; font-weight: 200;" fill="rgb(50, 49, 63)" stroke="none" stroke-width="1px">3.3</text></g><line x1="39.15625" y1="0" x2="39.15625" y2="177" fill="rgb(0, 0, 0)" stroke="rgb(204, 204, 204)" stroke-width="1px"></line></g></g><g transform="translate(39, 0)" clip-path="url(#clip_0)"><clipPath id="clip_0"><rect width="290" height="177"></rect></clipPath><g><g><g><line x1="0" y1="0" x2="0" y2="177" fill="rgb(0, 0, 0)" stroke="rgb(60, 60, 60)" stroke-width="1px" opacity="0.25"></line><line x1="24.236979166666664" y1="0" x2="24.236979166666664" y2="177" fill="rgb(0, 0, 0)" stroke="rgb(60, 60, 60)" stroke-width="1px" opacity="0.25"></line><line x1="48.47395833333333" y1="0" x2="48.47395833333333" y2="177" fill="rgb(0, 0, 0)" stroke="rgb(60, 60, 60)" stroke-width="1px" opacity="0.25"></line><line x1="72.7109375" y1="0" x2="72.7109375" y2="177" fill="rgb(0, 0, 0)" stroke="rgb(60, 60, 60)" stroke-width="1px" opacity="0.25"></line><line x1="96.94791666666666" y1="0" x2="96.94791666666666" y2="177" fill="rgb(0, 0, 0)" stroke="rgb(60, 60, 60)" stroke-width="1px" opacity="0.25"></line><line x1="121.18489583333334" y1="0" x2="121.18489583333334" y2="177" fill="rgb(0, 0, 0)" stroke="rgb(60, 60, 60)" stroke-width="1px" opacity="0.25"></line><line x1="145.421875" y1="0" x2="145.421875" y2="177" fill="rgb(0, 0, 0)" stroke="rgb(60, 60, 60)" stroke-width="1px" opacity="0.25"></line><line x1="169.65885416666669" y1="0" x2="169.65885416666669" y2="177" fill="rgb(0, 0, 0)" stroke="rgb(60, 60, 60)" stroke-width="1px" opacity="0.25"></line><line x1="193.89583333333331" y1="0" x2="193.89583333333331" y2="177" fill="rgb(0, 0, 0)" stroke="rgb(60, 60, 60)" stroke-width="1px" opacity="0.25"></line><line x1="218.1328125" y1="0" x2="218.1328125" y2="177" fill="rgb(0, 0, 0)" stroke="rgb(60, 60, 60)" stroke-width="1px" opacity="0.25"></line><line x1="242.36979166666669" y1="0" x2="242.36979166666669" y2="177" fill="rgb(0, 0, 0)" stroke="rgb(60, 60, 60)" stroke-width="1px" opacity="0.25"></line><line x1="266.6067708333333" y1="0" x2="266.6067708333333" y2="177" fill="rgb(0, 0, 0)" stroke="rgb(60, 60, 60)" stroke-width="1px" opacity="0.25"></line><line x1="290.84375" y1="0" x2="290.84375" y2="177" fill="rgb(0, 0, 0)" stroke="rgb(60, 60, 60)" stroke-width="1px" opacity="0.25"></line></g><g><line x1="0" y1="177" x2="290.84375" y2="177" fill="rgb(0, 0, 0)" stroke="rgb(60, 60, 60)" stroke-width="1px" opacity="0.25"></line><line x1="0" y1="159.29999999999998" x2="290.84375" y2="159.29999999999998" fill="rgb(0, 0, 0)" stroke="rgb(60, 60, 60)" stroke-width="1px" opacity="0.25"></line><line x1="0" y1="141.59999999999997" x2="290.84375" y2="141.59999999999997" fill="rgb(0, 0, 0)" stroke="rgb(60, 60, 60)" stroke-width="1px" opacity="0.25"></line><line x1="0" y1="123.89999999999995" x2="290.84375" y2="123.89999999999995" fill="rgb(0, 0, 0)" stroke="rgb(60, 60, 60)" stroke-width="1px" opacity="0.25"></line><line x1="0" y1="106.19999999999993" x2="290.84375" y2="106.19999999999993" fill="rgb(0, 0, 0)" stroke="rgb(60, 60, 60)" stroke-width="1px" opacity="0.25"></line><line x1="0" y1="88.5" x2="290.84375" y2="88.5" fill="rgb(0, 0, 0)" stroke="rgb(60, 60, 60)" stroke-width="1px" opacity="0.25"></line><line x1="0" y1="70.79999999999998" x2="290.84375" y2="70.79999999999998" fill="rgb(0, 0, 0)" stroke="rgb(60, 60, 60)" stroke-width="1px" opacity="0.25"></line><line x1="0" y1="53.099999999999966" x2="290.84375" y2="53.099999999999966" fill="rgb(0, 0, 0)" stroke="rgb(60, 60, 60)" stroke-width="1px" opacity="0.25"></line><line x1="0" y1="35.39999999999995" x2="290.84375" y2="35.39999999999995" fill="rgb(0, 0, 0)" stroke="rgb(60, 60, 60)" stroke-width="1px" opacity="0.25"></line><line x1="0" y1="17.699999999999932" x2="290.84375" y2="17.699999999999932" fill="rgb(0, 0, 0)" stroke="rgb(60, 60, 60)" stroke-width="1px" opacity="0.25"></line><line x1="0" y1="0" x2="290.84375" y2="0" fill="rgb(0, 0, 0)" stroke="rgb(60, 60, 60)" stroke-width="1px" opacity="0.25"></line></g></g></g><g><g><line x1="0" y1="584.0999999999999" x2="290.84375" y2="584.0999999999999" fill="rgb(0, 0, 0)" stroke="rgb(153, 153, 153)" stroke-width="1.5px"></line></g></g><g><g><line x1="24.236979166666664" y1="0" x2="24.236979166666664" y2="177" fill="rgb(0, 0, 0)" stroke="rgb(153, 153, 153)" stroke-width="1.5px"></line></g></g><g><g><g><g><g><path stroke="rgb(0, 119, 187)" stroke-width="2px" d="M24.964088541666666,-27.525421285629307L25.206458333333334,22.11483821868893L25.448828125,35.536027765274014L25.691197916666667,55.89609346389767L25.933567708333335,74.22224149703976L26.1759375,73.97511777877804L26.418307291666668,71.54198727607724L26.660677083333333,70.27792582511898L26.903046875,71.90490803718563L27.14541666666667,70.11570868492123L27.38778645833333,73.13567361831662L27.63015625,70.04624733924862L27.872526041666667,68.87536368370053L28.114895833333332,65.07524571418759L28.357265625,65.11331019401547L28.599635416666665,62.68220529556271L28.842005208333333,63.06736550331112L29.084375,54.85560808181759L29.326744791666666,64.2420471668243L29.569114583333334,56.99422416687008L29.811484375,60.65461764335629L30.053854166666667,50.947500085830654L30.296223958333336,58.60365114212033L30.53859375,61.978054618835415L30.78096354166667,65.45525751113888L31.265703124999998,52.2241371631622L31.508072916666666,50.76494250297543L31.75044270833333,56.41380414962765L31.9928125,41.08993921279904L32.23518229166667,30.598955011367764L32.477552083333336,47.7604228019714L32.719921875000004,31.431351757049526L32.962291666666665,33.82802138328549L33.204661458333334,35.12634930610653L33.44703125,31.617833948135342L33.68940104166666,32.04979405403134L33.93177083333333,31.196761465072598L34.41651041666667,41.71365652084347L34.658880208333336,29.829351997375454L34.90125,20.515792465209927L35.143619791666666,15.363879060745205L35.385989583333334,29.106886482238735L35.628359375,24.08098254203793L35.87072916666667,11.308366155624356L36.11309895833333,9.705100393295254L36.35546875,3.95027432441708L36.59783854166666,9.69716677665707L36.84020833333334,7.964599943160977L37.082578125,17.11725053787228L37.324947916666666,5.407907581329312L37.567317708333334,21.072327232360806L37.8096875,7.520908212661709L38.052057291666664,13.918779230117764L38.29442708333333,11.511179780960049L38.536796875,13.78335914611813L38.77916666666667,10.167486763000454L39.02153645833333,15.240443801879849L39.263906250000005,17.465696668624844L39.506276041666666,2.4351645469665186L39.74864583333333,16.530500507354702L39.991015625,24.55801234245297L40.233385416666664,28.587867593765225L40.47575520833333,25.108048295974697L40.718125,17.840306854248013L40.96049479166667,12.287492609024014L41.20286458333333,21.546782827377285L41.445234375,20.933151340484585L41.68760416666667,20.463886356353726L41.929973958333335,21.38013467788693L42.172343749999996,18.104859209060635L42.41471354166667,30.220800018310513L42.65708333333333,21.287378883361782L42.899453125,25.052259778976406L43.14182291666667,20.517311668395962L43.38419270833334,30.683270788192715L43.6265625,26.21356401443478L43.868932291666674,33.45037279129025L44.111302083333335,31.01665148735043L44.353671874999996,26.135029649734463L44.596041666666665,21.44550261497494L44.83841145833333,32.567335939407315L45.08078125,28.939689731597866L45.32315104166666,36.46527371406552L45.56552083333334,29.92725620269772L45.807890625,41.15534934997555L46.05026041666667,33.045716142654385L46.292630208333335,36.00246534347531L46.535000000000004,28.25018248558041L46.777369791666665,22.46864376068112L47.019739583333326,27.812103366851773L47.262109375,37.19947085380551L47.50447916666666,41.25848636627194L47.74684895833333,28.897320842742886L47.98921875,37.214494085311856L48.23158854166667,34.35615549087521L48.47395833333333,23.757223463058438L48.716328125000004,30.65748653411862L48.958697916666665,34.13287482261654L49.20106770833333,34.05623946189877L49.4434375,43.39984545707699L49.68580729166667,20.7695415973663L49.92817708333333,33.7206221580505L50.170546875,38.826284265518154L50.41291666666667,41.5939770698547L50.655286458333336,42.019269561767544L50.89765625,33.2020674705505L51.14002604166667,38.3485792636871L51.382395833333334,42.99729881286618L51.624765624999995,42.20419034957882L51.86713541666667,30.334951257705654L52.10950520833333,30.16927371025082L52.351875,43.33717832565304L52.59424479166667,44.82051143646237L52.836614583333336,39.82790336608883L53.078984375,43.37680420875546L53.321354166666666,24.016796207427944L53.563723958333334,36.16907129287716L53.80609375,26.957762575149502L54.04846354166666,44.722269630432095L54.29083333333334,41.12146267890927L54.533203125,40.12933859825131L54.77557291666666,34.49621758460995L55.01794270833334,42.656744098663296L55.502682291666666,44.70340619087216L55.745052083333334,40.08367810249325L55.987421875,39.38817844390866L56.47216145833333,37.30032906532284L56.71453125,40.13419160842892L56.95690104166667,38.61296281814572L57.19927083333333,42.773005342483486L57.441640625000005,42.70658240318295L57.684010416666666,42.760387516021694L57.92638020833333,40.836949682235684L58.16875,41.10745224952694L58.411119791666664,36.014914369583096L58.65348958333333,40.53340444564816L58.895859375,44.878705358505215L59.13822916666667,48.52610120773312L59.38059895833333,45.185542201995816L59.62296875,42.39860615730282L59.86533854166667,37.74938020706173L60.107708333333335,42.59002575874325L60.350078124999996,48.839563465118374L60.59244791666667,42.48068532943722L60.83481770833333,48.76499590873715L61.31955729166667,40.409251785278286L61.56192708333334,45.31311306953427L61.804296875,45.70430788993832L62.046666666666674,53.37856278419491L62.289036458333335,44.636223649978604L62.531406249999996,41.38854703903195L62.773776041666665,45.00568542480465L63.01614583333333,45.903323507308926L63.258515625,50.86512551307675L63.50088541666666,47.652939176559414L63.74325520833334,52.74885306358334L63.985625,48.15153322219845L64.22799479166666,50.84976468086239L64.47036458333334,43.98494968414303L64.712734375,46.20948514938351L64.95510416666667,50.34538922309872L65.19747395833333,50.950960493087734L65.68221354166667,44.81464562416073L65.92458333333333,57.696560239791836L66.166953125,47.50633606910702L66.40932291666667,47.076528167724575L66.65169270833333,45.884249067306484L66.8940625,49.66904840469357L67.13643229166667,49.314905261993374L67.37880208333333,49.693946456909146L67.621171875,56.21238312721249L67.86354166666666,49.60262546539303L68.10591145833334,47.51870069503781L68.34828125,43.25374875068661L68.59065104166667,50.06433663368222L68.83302083333334,48.60678777694699L69.075390625,68.34621677398678L69.31776041666667,54.146604394912686L69.56013020833333,59.20187959671017L69.8025,51.689504241943325L70.04486979166667,49.424752092361416L70.28723958333333,55.93702754974362L70.52960937499999,42.008466339111294L71.01434895833333,44.36466608047482L71.25671875,45.01404104232785L71.983828125,58.03884515762326L72.22619791666666,47.3627291679382L72.46856770833334,49.684029436111416L72.7109375,52.54633483886715L72.95330729166668,54.684571123123135L73.19567708333332,53.72021470069882L73.438046875,58.11020550727841L73.92278645833333,61.0438712596893L74.16515625,62.32877955436703L74.40752604166667,50.80591878890988L74.64989583333333,65.31667242050167L74.89226562500001,59.7042716503143L75.37700520833333,62.43938598632809L75.619375,55.59001622200009L75.86174479166665,62.27303323745724L76.10411458333333,47.205280637741055L76.346484375,54.160024023055996L76.58885416666666,56.35843763351437L76.83122395833333,62.34810719490048L77.07359375,59.03257284164425L77.31596354166666,54.24763140678402L77.55833333333334,48.07029805183407L77.800703125,52.51460037231442L78.04307291666666,59.0908089637756L78.28544270833333,58.98159513473507L78.77018229166666,56.850026464462246L79.01255208333333,56.544497823715176L79.25492187500001,61.82313809394833L79.49729166666665,61.23896226882931L79.73966145833333,53.123758649826016L79.98203125,59.46060833930966L80.22440104166667,56.2473248004913L80.46677083333333,52.275072669982876L80.709140625,57.25257310867306L80.95151041666666,62.713137960433926L81.19388020833334,60.26802263259884L81.43625,61.786592817306484L81.67861979166666,63.837517118453945L81.92098958333334,60.19113407135006L82.163359375,57.62081108093258L82.40572916666666,53.769715404510464L82.64809895833334,57.298064804077114L82.89046875,61.38459477424618L83.13283854166667,56.417897558212246L83.37520833333333,57.75475416183468L83.617578125,56.22010574340817L83.85994791666667,67.8281262874603L84.10231770833335,64.99654254913327L84.34468749999999,53.558461761474575L84.58705729166667,57.5698333740234L84.82942708333334,60.946093654632534L85.07179687499999,53.46275196075436L85.31416666666667,61.309098815917935L85.55653645833334,58.63015279769894L85.79890625,67.97806320190426L86.04127604166666,58.044753170013394L86.28364583333334,63.26600131988522L86.526015625,64.5225933551788L86.76838541666667,57.26924214363095L87.01075520833334,56.38523468971249L87.253125,66.15793118476864L87.49549479166667,62.18437085151669L87.73786458333335,59.19664678573605L87.980234375,56.97219572067257L88.22260416666667,59.92708811759945L88.46497395833333,70.55657300949093L88.94971354166667,57.52489027976986L89.19208333333333,60.95541987419125L89.434453125,70.10747966766354L89.67682291666667,59.43731389045712L89.91919270833333,70.22935352325436L90.1615625,60.190374469757046L90.40393229166668,66.3160971164703L90.64630208333332,69.37193212509152L90.888671875,54.287932491302456L91.13104166666668,65.94119153022763L91.37341145833332,60.350650405883755L91.61578125,54.204460716247524L91.85815104166667,66.36627302169796L92.10052083333333,62.592108106613125L92.342890625,68.74593601226803L92.58526041666667,61.68176779747006L92.82763020833333,69.75485572814938L93.07000000000001,66.33436975479123L93.31236979166667,65.72056946754452L93.55473958333333,63.59389600753781L93.797109375,60.13517675399777L94.28184895833333,63.07377991676327L94.76658854166666,73.28244552612301L95.00895833333333,74.95141682624813L95.251328125,67.46841273307797L95.49369791666666,65.93507251739499L95.73606770833334,75.63809666633603L95.9784375,63.20565519332882L96.22080729166666,61.07218751907345L96.46317708333333,69.15557227134701L96.70554687500001,68.0010622501373L96.94791666666666,60.98466453552243L97.19028645833333,64.67607507705685L97.43265625000001,61.70341644287106L97.67502604166665,72.71211133003231L97.91739583333333,66.39007387161251L98.64450520833333,64.76182565689084L98.886875,66.68931469917294L99.12924479166666,74.87267146110531L99.37161458333334,71.54143867492672L99.613984375,75.48756895065304L100.09872395833334,59.62350068092343L100.34109375,70.89700112342831L100.58346354166666,73.60552940368649L100.82583333333334,82.37259778976437L101.068203125,72.69569549560543L101.31057291666667,71.9119554519653L101.55294270833333,72.79575190544125L101.7953125,64.47191104888913L102.03768229166667,68.29692707061764L102.28005208333335,67.78795180320736L102.52242187499999,65.27687773704525L102.76479166666667,69.58833417892453L103.00716145833334,67.40625200271603L103.24953124999999,74.85861883163449L103.49190104166667,61.52702007293698L103.73427083333334,72.93117198944088L103.976640625,66.88955411911007L104.21901041666666,81.01046333312985L104.46138020833334,68.55270180702206L104.70375,75.61151061058041L104.94611979166667,66.94019422531125L105.18848958333334,77.63555345535275L105.430859375,73.22623500823971L105.67322916666667,74.06340036392209L105.91559895833335,75.97696337699887L106.15796875,81.83910427093502L106.40033854166667,73.74998030662533L106.64270833333333,76.14095292091366L106.88507812499999,72.74219999313351L107.12744791666667,64.96198067665097L107.36981770833333,68.41812572479245L107.6121875,74.75472221374508L107.85455729166667,71.67576155662533L108.09692708333333,83.32231078147885L108.339296875,76.7517992019653L108.58166666666668,68.2607615947723L108.82403645833332,66.28799185752865L109.06640625,76.67904624938961L109.30877604166668,69.73046407699582L109.55114583333332,66.17126641273495L109.793515625,75.38173112869259L110.03588541666667,79.39960155487057L110.27825520833333,77.65209589004513L110.520625,68.3295477390289L110.76299479166667,67.08477172851559L111.00536458333333,77.30326995849606L111.24773437500001,78.11131725311276L111.49010416666667,74.04550752639767L111.73247395833333,83.6918569564819L111.97484375,67.8458081245422L112.21721354166665,74.95378003120419L112.45958333333333,74.27845201492306L112.701953125,74.57862124443051L112.94432291666666,63.74573192596432L113.18669270833333,83.71131119728085L113.4290625,71.92862448692318L113.91380208333334,73.76783094406125L114.156171875,73.15263805389401L114.39854166666666,77.67155013084408L114.64091145833333,76.58489785194394L114.88328125000001,75.38244853019711L115.12565104166666,74.146281337738L115.36802083333333,78.67633423805233L115.61039062500001,89.76069388389584L115.85276041666665,79.21877417564389L116.09513020833333,77.8147772312164L116.3375,74.81346473693844L116.57986979166667,74.4616003990173L116.82223958333333,74.25621256828305L117.064609375,79.62798843383786L117.30697916666666,73.03000459671017L117.54934895833334,88.08075056076046L117.79171875,65.19066295623776L118.03408854166666,84.28907260894772L118.27645833333334,79.01752195358273L118.518828125,81.20762214660641L118.76119791666666,79.84966549873349L119.00356770833334,69.09336934089657L119.2459375,70.54543218612667L119.48830729166667,70.65806422233578L119.973046875,79.78826436996457L120.21541666666667,76.89312729835507L120.45778645833335,73.67262754440304L120.70015624999999,77.08100209236142L120.94252604166667,75.29522094726559L121.18489583333334,79.4961553573608L121.42726562499999,96.41168103218075L121.66963541666667,80.7102519035339L121.91200520833334,86.39511022567746L122.154375,79.77543554306027L122.39674479166666,76.47889122962948L122.63911458333334,77.90390381813046L122.881484375,79.60604438781735L123.12385416666667,79.96537814140316L123.60859375,81.21061835288998L123.85096354166667,88.31019244194027L124.09333333333335,79.58464894294735L124.335703125,79.67997894287106L124.57807291666667,82.07512936592099L124.82044270833333,84.0723329544067L125.06281249999999,85.68264613151547L125.54755208333333,83.06493244171139L125.789921875,77.97222576141354L126.03229166666667,92.34992251396176L126.27466145833333,81.80015358924862L126.51703125,82.07605776786801L126.75940104166668,78.81112132072445L127.00177083333332,85.05416021347042L127.244140625,82.88697466850277L127.48651041666668,80.23550090789792L127.72888020833332,81.76154050827023L127.97125,83.78068814277646L128.21361979166667,79.73019704818722L128.45598958333332,90.58038840293881L128.94072916666667,82.20189843177792L129.42546875,87.43108019828793L129.66783854166667,80.12215147018429L129.91020833333334,92.45770153999325L130.152578125,85.28740010261532L130.39494791666667,87.95216689109799L130.63731770833334,87.57396969795224L130.87968750000002,98.33148965835568L131.12205729166666,90.22194085121151L131.36442708333334,85.06344423294064L131.60679687500001,90.40568003654477L131.84916666666666,88.92124972343441L132.09153645833334,89.99853358268734L132.33390625,93.8341840267181L132.57627604166666,77.79996500015255L132.81864583333333,87.01300392150875L133.061015625,89.73195562362667L133.30338541666666,84.33945951461789L133.54575520833333,80.08704099655148L133.788125,81.47728071212765L134.03049479166665,93.55507264137265L134.27286458333333,89.87805233001706L134.515234375,86.59281764030453L134.75760416666665,82.43994913101193L134.99997395833333,94.44148550033566L135.24234375,87.62980041503903L135.48471354166665,84.34401712417599L135.72708333333333,96.1500826835632L135.969453125,94.18925557136532L136.21182291666668,90.13800487518307L136.45419270833332,88.91968832015988L136.6965625,90.44053730964657L136.93893229166667,88.65091595649716L137.18130208333335,103.6911118984222L137.423671875,90.00811300277707L137.66604166666667,90.31786165237423L137.90841145833335,86.30142602920529L138.15078125,90.64086112976071L138.39315104166667,91.56297526359555L138.63552083333335,90.03820166587826L138.877890625,101.37647924423214L139.12026041666667,98.65567073822018L139.36263020833334,87.88388714790341L139.84736979166667,88.86803541183468L140.08973958333334,88.07074913978573L140.332109375,90.8173840999603L140.57447916666666,91.85402927398678L140.81684895833334,80.49655065536496L141.05921874999999,88.21490464210507L141.30158854166666,91.36130104064938L141.54395833333334,95.59886512756344L141.78632812499998,94.63965711593625L142.02869791666666,96.85955057144162L142.27106770833333,94.52318487167355L142.5134375,94.50702223777768L142.75580729166666,93.97458372116085L142.99817708333333,104.87398037910458L143.240546875,86.12984046936032L143.48291666666668,97.17908964157101L143.72528645833333,94.90631947517392L144.21002604166668,94.04484686851498L144.45239583333333,98.90604386329647L144.694765625,99.83377060890194L144.93713541666668,85.82604203224179L145.17950520833332,96.05800209045407L145.421875,92.25277791023251L145.90661458333335,87.47522149085995L146.148984375,97.97067890167233L146.39135416666664,97.19757328033444L146.63372395833332,97.26007161140438L146.87609375,98.83295331001278L147.11846354166667,98.47758636474606L147.36083333333335,99.5768142700195L147.603203125,95.4198945522308L147.84557291666667,95.09086046218869L148.08794270833334,90.01925382614132L148.3303125,86.7251571178436L148.81505208333334,93.07559523582455L149.057421875,100.58543858528134L149.29979166666666,102.13164982795712L149.54216145833334,99.91677818298336L149.78453125000001,101.02545890808102L150.0269010416667,100.48403177261349L150.26927083333334,97.62839398384091L150.75401041666666,100.00560936927792L150.99638020833333,103.0813628196716L151.23875,88.57748780250546L151.48111979166669,111.83864078521725L152.45059895833333,100.41347322463986L152.69296875,103.67900047302243L152.93533854166668,102.40118179321286L153.17770833333333,98.62448487281796L153.420078125,102.81263265609738L153.66244791666665,101.43374476432797L153.90481770833333,100.60333142280575L154.1471875,99.2830172538757L154.38955729166668,100.11081418991085L154.63192708333332,98.14483866691586L154.874296875,105.73270998001095L155.11666666666667,100.4154144287109L155.35903645833335,95.87308130264279L155.60140625,101.95892486572262L155.84377604166667,94.65704355239865L156.08614583333332,105.18562803268429L156.328515625,106.01832017898556L156.57088541666667,106.63562307357785L156.81325520833335,112.04052600860592L157.05562500000002,98.93043551445004L157.2979947916667,109.753872013092L157.54036458333331,106.73154387474057L157.782734375,106.07145009040829L158.02510416666667,105.00830326080319L158.26747395833334,103.26835141181942L158.75221354166666,101.56220183372494L158.9945833333333,101.11049208641049L159.23695312499999,106.13728222846981L159.47932291666666,103.92059597969052L159.72169270833334,101.1933730602264L159.9640625,111.47850522994992L160.20643229166666,105.40928850173947L160.44880208333333,101.43230996131894L160.691171875,104.27646932601925L160.93354166666666,101.90765175819394L161.17591145833333,109.84958181381222L161.41828125,91.25318441390988L161.66065104166665,107.2215713024139L161.90302083333333,101.2535925865173L162.145390625,97.55500802993771L162.38776041666668,98.77117238044735L162.63013020833336,105.98156390190121L162.8725,102.11320838928219L163.11486979166665,103.27974543571469L163.35723958333332,105.07156119346615L163.599609375,106.73179707527157L163.84197916666668,101.03229532241818L164.08434895833335,107.84081540107724L164.32671875,113.05763254165646L164.56908854166664,102.73439369201657L164.81145833333332,100.90464005470272L165.053828125,104.33183584213253L165.29619791666667,100.80669364929196L165.53856770833335,104.10074815750119L165.7809375,108.78521118164059L166.02330729166667,111.43208513259884L166.26567708333334,108.16875228881833L166.508046875,108.23428902626034L166.75041666666667,103.78192648887631L166.99278645833334,107.40138587951657L167.47752604166666,108.95536193847653L167.71989583333334,108.20293436050412L167.96226562500001,100.13229403495785L168.2046354166667,112.25798306465146L168.44700520833334,113.29475483894345L168.68937499999998,106.70917782783505L168.93174479166666,105.79588351249691L169.17411458333333,97.65303883552548L169.416484375,101.2792502403259L169.65885416666669,109.24738655090329L169.9012239583333,104.78042278289792L170.14359374999998,104.97682199478146L170.38596354166665,100.59375200271603L170.62833333333333,112.30157575607296L170.870703125,102.7185264587402L171.11307291666668,107.49460587501522L171.5978125,113.1845282077789L171.84018229166665,112.22814760208126L172.08255208333333,100.02510581016537L172.324921875,104.96268496513363L172.56729166666668,110.03699240684506L172.80966145833332,101.49527249336239L173.05203125,110.58656415939328L173.29440104166667,117.63828334808346L173.53677083333335,100.18259654045102L173.779140625,112.5838099479675L174.02151041666667,113.28205261230465L174.26388020833332,107.9601150512695L174.50625,111.2918542385101L174.74861979166667,107.2038472652435L174.99098958333335,107.14852294921872L175.23335937500002,103.17188200950619L175.4757291666667,109.24603614807125L175.71809895833331,108.92675027847287L175.96046875,115.83832297325131L176.20283854166667,118.63099822998043L176.44520833333334,106.60485920906063L176.68757812500002,110.90572342872616L176.92994791666666,101.70774993896481L177.1723177083333,108.04375562667843L177.41468749999999,110.98299179077145L177.65705729166666,109.85080561637875L177.89942708333334,104.94251332283017L178.141796875,108.37342271804806L178.38416666666666,113.26103696823117L178.62653645833333,103.77572307586667L178.86890625,109.66786823272702L179.11127604166666,106.361533498764L179.35364583333333,114.47011170387265L179.596015625,108.53606185913083L179.83838541666665,115.92656335830685L180.08075520833333,111.97735247611996L180.323125,109.59330067634579L180.56549479166668,103.08013901710507L180.80786458333336,110.77933416366574L181.050234375,116.6370862483978L181.29260416666665,106.55734190940854L181.53497395833332,110.91770825386044L181.77734375,120.20371112823483L182.01971354166668,103.27873263359066L182.26208333333335,112.66458091735836L182.504453125,101.608031129837L182.98919270833332,108.08384571075436L183.2315625,100.04042444229123L183.47393229166667,118.31698737144467L183.71630208333335,105.67903146743771L183.958671875,108.76284513473507L184.20104166666667,110.79655179977414L184.44341145833334,120.43830142021176L184.68578125,114.17504868507382L184.92815104166667,112.4932907581329L185.17052083333334,104.17383871078488L185.412890625,120.09774670600888L185.65526041666666,114.44280824661251L185.89763020833334,102.19410595893856L186.14000000000001,113.54799757003781L186.3823697916667,116.77014312744137L186.86710937499998,116.45727167129513L187.10947916666666,117.7349215507507L187.35184895833333,124.55555305480954L187.59421875,104.84182391166684L187.83658854166669,105.96105465888974L188.0789583333333,102.87441358566281L188.32132812499998,111.19213542938229L188.56369791666665,120.03541717529293L188.80606770833333,125.27042255401608L189.0484375,121.11244783401486L189.29080729166668,108.17001829147335L189.53317708333333,117.24396572113034L189.775546875,103.70959553718563L190.01791666666665,115.1678479671478L190.26028645833333,115.07066116333004L190.50265625,110.25107345581051L190.74502604166668,120.73256263732907L190.98739583333332,108.23065981864926L191.229765625,109.32516131401059L191.47213541666667,106.94646892547604L191.71450520833335,111.719594335556L191.956875,114.85447010993954L192.19924479166667,109.41082749366757L192.44161458333332,118.50984177589413L192.683984375,110.91948065757748L192.92635416666667,104.90200123786923L193.6534635416667,114.62127242088314L193.89583333333331,117.3546987533569L194.138203125,123.5773550033569L194.38057291666667,110.81516203880307L194.62294270833334,116.82069883346554L194.86531250000002,116.43309102058407L195.10768229166666,108.71929464340207L195.3500520833333,115.71855912208554L195.59242187499999,115.70180568695065L195.83479166666666,99.07944402694699L196.07716145833334,110.02053437232968L196.31953125,117.15513453483578L196.56190104166666,107.27685341835019L196.80427083333333,116.11144194602963L197.28901041666666,117.5143416881561L197.53138020833333,108.0426162242889L197.77375,111.35886797904965L198.01611979166665,111.9229143619537L198.25848958333333,109.90545473098751L198.500859375,120.6520026683807L198.74322916666668,118.79334197044369L198.98559895833336,117.7435725688934L199.22796875,125.78610763549801L199.47033854166665,118.77713713645932L199.71270833333332,122.16103563308712L199.955078125,111.45727858543393L200.19744791666668,105.34742317199704L200.43981770833335,111.41153368949887L200.6821875,116.25661025047299L200.92455729166664,112.18679151535031L201.16692708333332,116.2874163150787L201.409296875,119.0572613239288L201.65166666666667,118.91217741966244L201.89403645833335,113.18575201034542L202.13640625,123.82333931922909L202.37877604166667,112.93651828765866L202.62114583333334,117.48952803611752L202.863515625,114.0185707569122L203.10588541666667,116.76799092292782L203.34825520833334,116.21715316772458L203.590625,118.1109665393829L203.83299479166666,123.00419340133664L204.07536458333334,118.71020779609677L204.31773437500001,117.70799789428708L204.5601041666667,126.2609852313995L204.80247395833334,124.58640131950375L205.04484374999998,127.33999929428097L205.28721354166666,112.01866636276242L205.771953125,119.5410853385925L206.01432291666669,120.24080500602719L206.2566927083333,120.47003588676449L206.49906249999998,124.10253510475155L206.74143229166665,114.67651233673092L206.98380208333333,123.87448582649228L207.226171875,123.44577512741085L207.46854166666668,113.74080977439877L207.71091145833333,120.0728064537048L207.95328125,127.67211399078366L208.19565104166665,122.68089852333065L208.43802083333333,113.00454483032223L208.680390625,121.7798000335693L208.92276041666668,119.07701096534726L209.16513020833332,119.48479042053219L209.4075,123.82485852241513L209.64986979166667,122.50673875808712L209.89223958333335,122.0345619678497L210.134609375,126.33061537742611L210.37697916666667,112.96061453819271L210.61934895833332,124.18583807945248L210.86171875,129.57331237792965L211.10408854166667,116.2094727516174L211.34645833333335,117.77560243606564L211.58882812500002,126.85165987014767L211.8311979166667,127.90691528320309L212.07356770833331,119.06962594985959L212.3159375,114.22450718879696L212.80067708333334,116.72638163566586L213.04304687500002,115.393027639389L213.28541666666666,121.10016760826107L213.5277864583333,120.50805816650387L213.77015624999999,111.43719134330746L214.01252604166666,120.98761997222897L214.25489583333334,123.58263001441952L214.497265625,126.7364114284515L214.73963541666666,124.18752608299252L214.98200520833333,125.81839070320126L215.224375,111.07511458396908L215.46674479166666,121.67510161399838L215.70911458333333,125.51923427581784L215.951484375,118.78705415725705L216.19385416666665,111.37920842170712L216.43622395833333,129.74949774742123L216.67859375,123.4778893947601L216.92096354166668,119.0011352062225L217.16333333333336,114.29135212898251L217.405703125,127.24526009559628L217.64807291666665,113.75368080139157L217.89044270833332,119.69595966339108L218.1328125,129.1004181861877L218.37518229166668,122.40811715126034L218.61755208333335,118.65264687538144L218.859921875,132.11877951622006L219.10229166666664,115.44531354904171L219.34466145833332,117.33980212211605L219.58703125,120.03039536476132L219.82940104166667,126.14590559005734L220.07177083333335,119.16136894226071L220.314140625,121.53909072875973L220.79888020833334,130.0378087520599L221.04125,128.5813148975372L221.28361979166667,120.46214447021481L221.52598958333334,125.68951163291928L221.768359375,121.16055593490597L222.01072916666666,123.12066564559933L222.25309895833334,132.63779840469357L222.49546875000001,127.56918797492978L222.7378385416667,124.21314153671261L222.98020833333334,115.64686117172238L223.22257812499998,124.08067545890805L223.46494791666666,118.56997690200802L223.70731770833333,127.038943862915L223.9496875,122.89151916503903L224.19205729166669,124.83736524581906L224.4344270833333,120.2369647979736L224.67679687499998,126.02669034004208L224.91916666666665,121.90369949340817L225.16153645833333,127.27049574851986L225.40390625,129.4586547374725L225.64627604166668,127.23120746612545L225.88864583333333,128.2010921001434L226.131015625,134.0429347515106L226.37338541666665,124.9513054847717L226.61575520833333,113.86800084114071L226.858125,135.0196979999542L227.10049479166668,127.74980435371396L227.34286458333332,124.72220120429989L227.585234375,131.62575588226315L227.82760416666667,132.54681501388546L228.06997395833335,123.06399092674252L228.31234375,121.2609499454498L228.55471354166667,121.25449333190915L228.79708333333332,128.23713097572323L229.039453125,140.57428464889523L229.28182291666667,121.33944211006161L229.52419270833335,126.70860157012936L229.76656250000002,131.19704518318173L230.25130208333331,132.84968504905697L230.493671875,128.16344962120053L230.73604166666667,119.80010948181149L230.97841145833334,136.24987277984616L231.22078125000002,123.56271157264706L231.46315104166666,133.00274477005001L231.7055208333333,125.94148836135861L231.94789062499999,126.0359743595123L232.43263020833334,128.80818257331845L232.675,133.19551477432248L232.91736979166666,136.93613061904904L233.15973958333333,129.02745423316952L233.402109375,127.71249947547909L233.88684895833333,125.872280216217L234.12921875,132.01897630691525L234.37158854166665,134.8469730377197L234.61395833333333,135.22930583953854L234.856328125,133.17319092750546L235.09869791666668,131.04677066802975L235.34106770833336,134.2683254241943L235.5834375,132.13481554985043L235.82580729166665,121.9005344867706L236.06817708333332,133.57940897941586L236.310546875,131.63525090217587L236.55291666666668,133.59109840393063L236.79528645833335,120.68428573608395L237.03765625,127.04696187973019L237.28002604166664,132.43878278732296L237.52239583333332,131.83376011848446L237.764765625,136.7356801986694L238.00713541666667,125.27316555976864L238.24950520833335,138.3307591438293L238.491875,132.1251095294952L238.73424479166667,135.8283782958984L238.97661458333334,133.1015351772308L239.218984375,141.80264482498166L239.46135416666667,133.10444698333737L239.70372395833334,130.56855926513668L239.94609375,136.22797093391415L240.18846354166666,129.87449440956112L240.43083333333334,133.1143218040466L240.67320312500001,130.9756213188171L240.9155729166667,126.85777888298031L241.15794270833334,133.13850245475766L241.40031249999998,136.42593154907223L241.64268229166666,128.39782891273495L241.88505208333333,138.98190650939938L242.127421875,131.70918545722958L242.36979166666669,125.20957002639767L242.6121614583333,132.2764390468597L242.85453124999998,132.83288941383358L243.09690104166665,126.74641284942624L243.33927083333333,144.61857233047482L243.581640625,133.36140332221981L243.82401041666668,133.4171918392181L244.06638020833333,145.404591178894L244.30875,129.75000414848324L244.55111979166665,138.6933845043182L244.79348958333333,128.82459840774533L245.035859375,135.7640231609344L245.27822916666668,139.73264608383175L245.52059895833332,135.78381500244137L246.00533854166667,138.85821805000302L246.24770833333335,134.81013236045834L246.490078125,131.6501053333282L246.73244791666667,140.1021922588348L247.2171875,128.10715470314022L247.45955729166667,126.47856888771054L247.70192708333335,129.16278991699215L247.94429687500002,132.4490374088287L248.1866666666667,136.21163949966427L248.42903645833331,147.759482717514L248.67140625,124.56914148330685L248.91377604166667,137.82807168960568L249.15614583333334,138.2739156246185L249.64088541666666,137.22705802917477L249.8832552083333,133.89962325096127L250.12562499999999,136.53054556846615L250.36799479166666,134.88090190887448L250.61036458333334,128.07423863410946L250.852734375,141.4974959850311L251.09510416666666,134.3243249416351L251.33747395833333,145.7843497753143L251.57984375,143.70008740425106L251.82221354166666,140.99843773841854L252.306953125,142.184260225296L252.54932291666665,138.44972119331356L252.79169270833333,138.10034666061398L253.0340625,139.8386949062347L253.27643229166668,138.1794296264648L253.761171875,140.08202061653134L254.00354166666665,136.6059149265289L254.24591145833332,137.6387620925903L254.73065104166668,142.75024781227108L254.97302083333335,140.02918610572812L255.215390625,140.47912344932553L255.45776041666664,143.79807600975033L255.70013020833332,142.36517200469967L255.9425,144.71550593376156L256.1848697916667,141.0481072425842L256.42723958333335,130.71431837081906L256.669609375,140.95893845558163L256.91197916666664,136.86827287673947L257.15434895833334,147.66934332847592L257.39671875,133.25856170654293L257.6390885416667,129.31530103683468L257.88145833333334,145.4954479694366L258.123828125,138.8007837295532L258.36619791666664,133.69043741226193L258.60856770833334,145.93006668090817L259.0933072916667,138.22825512886044L259.33567708333334,130.99575076103207L259.578046875,139.3883777618408L259.8204166666667,140.85525283813473L260.06278645833333,144.40812048912045L260.30515625,140.23301253318783L260.5475260416667,136.81674656867978L260.78989583333333,141.36241350173947L261.032265625,147.47931632995602L261.2746354166667,137.9196880817413L261.51700520833333,138.19871506690976L261.75937500000003,148.98138628005978L262.0017447916667,137.62272605895993L262.2441145833333,143.08945212364193L262.486484375,130.74799404144284L262.7288541666667,146.7650376319885L262.9712239583333,141.8223944664001L263.21359375000003,134.61938796043393L263.4559635416667,137.29035816192624L263.6983333333333,147.132853603363L263.94070312499997,134.4319773674011L264.1830729166667,144.32485971450802L264.4254427083333,137.91399106979367L264.6678125,139.9682913780212L264.9101822916667,131.80240545272824L265.1525520833333,138.69405970573422L265.63729166666667,147.3918355464935L265.8796614583333,150.79371128082272L266.36440104166667,141.62991986274716L266.6067708333333,137.1329518318176L266.849140625,137.7945648193359L267.09151041666667,136.42656455039975L267.3338802083333,141.3382750511169L267.57625,141.26079568862912L267.81861979166666,138.06958279609677L268.303359375,137.19886837005612L268.54572916666666,145.93800029754635L268.78809895833336,137.86136755943295L269.03046875,140.45777020454403L269.27283854166666,140.92007217407223L269.5152083333333,139.85371813774105L269.757578125,142.682347869873L269.99994791666666,141.88468179702755L270.4846875,135.79499802589413L270.72705729166665,136.8950699329376L270.9694270833333,137.26900491714474L271.211796875,141.70807442665097L271.45416666666665,140.2103088855743L271.69653645833336,139.8254862785339L271.93890625,143.38042173385617L272.18127604166665,136.39672908782956L272.42364583333335,148.50570688247677L272.666015625,140.6634112358093L272.90838541666665,134.22831974029538L273.15075520833335,132.4967657089233L273.393125,147.5566690921783L273.63549479166664,132.3285983562469L273.87786458333335,143.42376122474667L274.120234375,138.23585114479062L274.3626041666667,142.5607272148132L274.60497395833335,138.59455189704892L274.84734375,133.6454521179199L275.08971354166664,142.81034073829647L275.33208333333334,147.27439270019528L275.574453125,139.37440953254696L275.8168229166667,137.9758563995361L276.05919270833334,130.03949675559994L276.3015625,147.90925083160397L276.54393229166664,139.7044142246246L276.78630208333334,147.00422773361203L277.028671875,145.05087003707882L277.2710416666667,140.86166725158688L277.51341145833334,134.25026378631588L277.9981510416667,143.57724294662472L278.24052083333333,137.5572315216064L278.482890625,136.7534464359283L278.7252604166667,142.73725018501278L278.96763020833333,147.44154725074765L279.21,137.30685839653012L279.4523697916667,139.246712064743L279.69473958333333,134.89153633117672L279.93710937500003,151.2935713291168L280.1794791666667,140.73789439201352L280.4218489583333,141.4669431209564L280.66421875,142.422479724884" style="fill: none;" fill="none"></path></g></g></g></g></g></g><g transform="translate(39, 177)" clip-path="url(#clip_1)"><clipPath id="clip_1"><rect width="290" height="23"></rect></clipPath><g><g><line x1="0" y1="0" x2="0" y2="5" style="visibility: inherit;" fill="rgb(0, 0, 0)" stroke="rgb(204, 204, 204)" stroke-width="1px"></line><line x1="24.236979166666664" y1="0" x2="24.236979166666664" y2="5" style="visibility: inherit;" fill="rgb(0, 0, 0)" stroke="rgb(204, 204, 204)" stroke-width="1px"></line><line x1="48.47395833333333" y1="0" x2="48.47395833333333" y2="5" style="visibility: inherit;" fill="rgb(0, 0, 0)" stroke="rgb(204, 204, 204)" stroke-width="1px"></line><line x1="72.7109375" y1="0" x2="72.7109375" y2="5" style="visibility: inherit;" fill="rgb(0, 0, 0)" stroke="rgb(204, 204, 204)" stroke-width="1px"></line><line x1="96.94791666666666" y1="0" x2="96.94791666666666" y2="5" style="visibility: inherit;" fill="rgb(0, 0, 0)" stroke="rgb(204, 204, 204)" stroke-width="1px"></line><line x1="121.18489583333334" y1="0" x2="121.18489583333334" y2="5" style="visibility: inherit;" fill="rgb(0, 0, 0)" stroke="rgb(204, 204, 204)" stroke-width="1px"></line><line x1="145.421875" y1="0" x2="145.421875" y2="5" style="visibility: inherit;" fill="rgb(0, 0, 0)" stroke="rgb(204, 204, 204)" stroke-width="1px"></line><line x1="169.65885416666669" y1="0" x2="169.65885416666669" y2="5" style="visibility: inherit;" fill="rgb(0, 0, 0)" stroke="rgb(204, 204, 204)" stroke-width="1px"></line><line x1="193.89583333333331" y1="0" x2="193.89583333333331" y2="5" style="visibility: inherit;" fill="rgb(0, 0, 0)" stroke="rgb(204, 204, 204)" stroke-width="1px"></line><line x1="218.1328125" y1="0" x2="218.1328125" y2="5" style="visibility: inherit;" fill="rgb(0, 0, 0)" stroke="rgb(204, 204, 204)" stroke-width="1px"></line><line x1="242.36979166666669" y1="0" x2="242.36979166666669" y2="5" style="visibility: inherit;" fill="rgb(0, 0, 0)" stroke="rgb(204, 204, 204)" stroke-width="1px"></line><line x1="266.6067708333333" y1="0" x2="266.6067708333333" y2="5" style="visibility: inherit;" fill="rgb(0, 0, 0)" stroke="rgb(204, 204, 204)" stroke-width="1px"></line><line x1="290.84375" y1="0" x2="290.84375" y2="5" style="visibility: inherit;" fill="rgb(0, 0, 0)" stroke="rgb(204, 204, 204)" stroke-width="1px"></line></g><g transform="translate(0, 8)"><text x="0" y="0" dx="0em" dy="0.95em" style="text-anchor: middle; visibility: hidden; font-family: &quot;Helvetica Neue&quot;, sans-serif; font-size: 12px; font-weight: 200;" fill="rgb(50, 49, 63)" stroke="none" stroke-width="1px">-100</text><text x="24.236979166666664" y="0" dx="0em" dy="0.95em" style="text-anchor: middle; visibility: inherit; font-family: &quot;Helvetica Neue&quot;, sans-serif; font-size: 12px; font-weight: 200;" fill="rgb(50, 49, 63)" stroke="none" stroke-width="1px">0</text><text x="48.47395833333333" y="0" dx="0em" dy="0.95em" style="text-anchor: middle; visibility: hidden; font-family: &quot;Helvetica Neue&quot;, sans-serif; font-size: 12px; font-weight: 200;" fill="rgb(50, 49, 63)" stroke="none" stroke-width="1px">100</text><text x="72.7109375" y="0" dx="0em" dy="0.95em" style="text-anchor: middle; visibility: inherit; font-family: &quot;Helvetica Neue&quot;, sans-serif; font-size: 12px; font-weight: 200;" fill="rgb(50, 49, 63)" stroke="none" stroke-width="1px">200</text><text x="96.94791666666666" y="0" dx="0em" dy="0.95em" style="text-anchor: middle; visibility: hidden; font-family: &quot;Helvetica Neue&quot;, sans-serif; font-size: 12px; font-weight: 200;" fill="rgb(50, 49, 63)" stroke="none" stroke-width="1px">300</text><text x="121.18489583333334" y="0" dx="0em" dy="0.95em" style="text-anchor: middle; visibility: inherit; font-family: &quot;Helvetica Neue&quot;, sans-serif; font-size: 12px; font-weight: 200;" fill="rgb(50, 49, 63)" stroke="none" stroke-width="1px">400</text><text x="145.421875" y="0" dx="0em" dy="0.95em" style="text-anchor: middle; visibility: hidden; font-family: &quot;Helvetica Neue&quot;, sans-serif; font-size: 12px; font-weight: 200;" fill="rgb(50, 49, 63)" stroke="none" stroke-width="1px">500</text><text x="169.65885416666669" y="0" dx="0em" dy="0.95em" style="text-anchor: middle; visibility: inherit; font-family: &quot;Helvetica Neue&quot;, sans-serif; font-size: 12px; font-weight: 200;" fill="rgb(50, 49, 63)" stroke="none" stroke-width="1px">600</text><text x="193.89583333333331" y="0" dx="0em" dy="0.95em" style="text-anchor: middle; visibility: hidden; font-family: &quot;Helvetica Neue&quot;, sans-serif; font-size: 12px; font-weight: 200;" fill="rgb(50, 49, 63)" stroke="none" stroke-width="1px">700</text><text x="218.1328125" y="0" dx="0em" dy="0.95em" style="text-anchor: middle; visibility: inherit; font-family: &quot;Helvetica Neue&quot;, sans-serif; font-size: 12px; font-weight: 200;" fill="rgb(50, 49, 63)" stroke="none" stroke-width="1px">800</text><text x="242.36979166666669" y="0" dx="0em" dy="0.95em" style="text-anchor: middle; visibility: hidden; font-family: &quot;Helvetica Neue&quot;, sans-serif; font-size: 12px; font-weight: 200;" fill="rgb(50, 49, 63)" stroke="none" stroke-width="1px">900</text><text x="266.6067708333333" y="0" dx="0em" dy="0.95em" style="text-anchor: middle; visibility: inherit; font-family: &quot;Helvetica Neue&quot;, sans-serif; font-size: 12px; font-weight: 200;" fill="rgb(50, 49, 63)" stroke="none" stroke-width="1px">1k</text><text x="290.84375" y="0" dx="0em" dy="0.95em" style="text-anchor: middle; visibility: hidden; font-family: &quot;Helvetica Neue&quot;, sans-serif; font-size: 12px; font-weight: 200;" fill="rgb(50, 49, 63)" stroke="none" stroke-width="1px">1.1k</text></g><line x1="0" y1="0" x2="290.84375" y2="0" fill="rgb(0, 0, 0)" stroke="rgb(204, 204, 204)" stroke-width="1px"></line></g></g></g></g></svg>