<svg viewBox="0 0 330 200" xmlns="http://www.w3.org/2000/svg"><g><g><g><g><g><line x1="58.59375" y1="177" x2="53.59375" y2="177" style="visibility: inherit;" fill="rgb(0, 0, 0)" stroke="rgb(204, 204, 204)" stroke-width="1px"></line><line x1="58.59375" y1="162.25" x2="53.59375" y2="162.25" style="visibility: inherit;" fill="rgb(0, 0, 0)" stroke="rgb(204, 204, 204)" stroke-width="1px"></line><line x1="58.59375" y1="147.5" x2="53.59375" y2="147.5" style="visibility: inherit;" fill="rgb(0, 0, 0)" stroke="rgb(204, 204, 204)" stroke-width="1px"></line><line x1="58.59375" y1="132.75" x2="53.59375" y2="132.75" style="visibility: inherit;" fill="rgb(0, 0, 0)" stroke="rgb(204, 204, 204)" stroke-width="1px"></line><line x1="58.59375" y1="118" x2="53.59375" y2="118" style="visibility: inherit;" fill="rgb(0, 0, 0)" stroke="rgb(204, 204, 204)" stroke-width="1px"></line><line x1="58.59375" y1="103.25" x2="53.59375" y2="103.25" style="visibility: inherit;" fill="rgb(0, 0, 0)" stroke="rgb(204, 204, 204)" stroke-width="1px"></line><line x1="58.59375" y1="88.49999999999999" x2="53.59375" y2="88.49999999999999" style="visibility: inherit;" fill="rgb(0, 0, 0)" stroke="rgb(204, 204, 204)" stroke-width="1px"></line><line x1="58.59375" y1="73.75000000000001" x2="53.59375" y2="73.75000000000001" style="visibility: inherit;" fill="rgb(0, 0, 0)" stroke="rgb(204, 204, 204)" stroke-width="1px"></line><line x1="58.59375" y1="58.999999999999986" x2="53.59375" y2="58.999999999999986" style="visibility: inherit;" fill="rgb(0, 0, 0)" stroke="rgb(204, 204, 204)" stroke-width="1px"></line><line x1="58.59375" y1="44.25" x2="53.59375" y2="44.25" style="visibility: inherit;" fill="rgb(0, 0, 0)" stroke="rgb(204, 204, 204)" stroke-width="1px"></line><line x1="58.59375" y1="29.5" x2="53.59375" y2="29.5" style="visibility: inherit;" fill="rgb(0, 0, 0)" stroke="rgb(204, 204, 204)" stroke-width="1px"></line><line x1="58.59375" y1="14.75" x2="53.59375" y2="14.75" style="visibility: inherit;" fill="rgb(0, 0, 0)" stroke="rgb(204, 204, 204)" stroke-width="1px"></line><line x1="58.59375" y1="0" x2="53.59375" y2="0" style="visibility: inherit;" fill="rgb(0, 0, 0)" stroke="rgb(204, 204, 204)" stroke-width="1px"></line></g><g transform="translate(48.59375, 0)"><text x="0" y="177" dx="0em" dy="0.3em" style="text-anchor: end; visibility: hidden; font-family: &quot;Helvetica Neue&quot;, sans-serif; font-size: 12px; font-weight: 200;" fill="rgb(50, 49, 63)" stroke="none" stroke-width="1px">-0.01</text><text x="0" y="162.25" dx="0em" dy="0.3em" style="text-anchor: end; visibility: inherit; font-family: &quot;Helvetica Neue&quot;, sans-serif; font-size: 12px; font-weight: 200;" fill="rgb(50, 49, 63)" stroke="none" stroke-width="1px">0</text><text x="0" y="147.5" dx="0em" dy="0.3em" style="text-anchor: end; visibility: hidden; font-family: &quot;Helvetica Neue&quot;, sans-serif; font-size: 12px; font-weight: 200;" fill="rgb(50, 49, 63)" stroke="none" stroke-width="1px">0.01</text><text x="0" y="132.75" dx="0em" dy="0.3em" style="text-anchor: end; visibility: inherit; font-family: &quot;Helvetica Neue&quot;, sans-serif; font-size: 12px; font-weight: 200;" fill="rgb(50, 49, 63)" stroke="none" stroke-width="1px">0.02</text><text x="0" y="118" dx="0em" dy="0.3em" style="text-anchor: end; visibility: hidden; font-family: &quot;Helvetica Neue&quot;, sans-serif; font-size: 12px; font-weight: 200;" fill="rgb(50, 49, 63)" stroke="none" stroke-width="1px">0.03</text><text x="0" y="103.25" dx="0em" dy="0.3em" style="text-anchor: end; visibility: inherit; font-family: &quot;Helvetica Neue&quot;, sans-serif; font-size: 12px; font-weight: 200;" fill="rgb(50, 49, 63)" stroke="none" stroke-width="1px">0.04</text><text x="0" y="88.49999999999999" dx="0em" dy="0.3em" style="text-anchor: end; visibility: hidden; font-family: &quot;Helvetica Neue&quot;, sans-serif; font-size: 12px; font-weight: 200;" fill="rgb(50, 49, 63)" stroke="none" stroke-width="1px">0.05</text><text x="0" y="73.75000000000001" dx="0em" dy="0.3em" style="text-anchor: end; visibility: inherit; font-family: &quot;Helvetica Neue&quot;, sans-serif; font-size: 12px; font-weight: 200;" fill="rgb(50, 49, 63)" stroke="none" stroke-width="1px">0.06</text><text x="0" y="58.999999999999986" dx="0em" dy="0.3em" style="text-anchor: end; visibility: hidden; font-family: &quot;Helvetica Neue&quot;, sans-serif; font-size: 12px; font-weight: 200;" fill="rgb(50, 49, 63)" stroke="none" stroke-width="1px">0.07</text><text x="0" y="44.25" dx="0em" dy="0.3em" style="text-anchor: end; visibility: inherit; font-family: &quot;Helvetica Neue&quot;, sans-serif; font-size: 12px; font-weight: 200;" fill="rgb(50, 49, 63)" stroke="none" stroke-width="1px">0.08</text><text x="0" y="29.5" dx="0em" dy="0.3em" style="text-anchor: end; visibility: hidden; font-family: &quot;Helvetica Neue&quot;, sans-serif; font-size: 12px; font-weight: 200;" fill="rgb(50, 49, 63)" stroke="none" stroke-width="1px">0.09</text><text x="0" y="14.75" dx="0em" dy="0.3em" style="text-anchor: end; visibility: inherit; font-family: &quot;Helvetica Neue&quot;, sans-serif; font-size: 12px; font-weight: 200;" fill="rgb(50, 49, 63)" stroke="none" stroke-width="1px">0.1</text><text x="0" y="0" dx="0em" dy="0.3em" style="text-anchor: end; visibility: hidden; font-family: &quot;Helvetica Neue&quot;, sans-serif; font-size: 12px; font-weight: 200;" fill="rgb(50, 49, 63)" stroke="none" stroke-width="1px">0.11</text></g><line x1="58.59375" y1="0" x2="58.59375" y2="177" fill="rgb(0, 0, 0)" stroke="rgb(204, 204, 204)" stroke-width="1px"></line></g></g><g transform="translate(58, 0)" clip-path="url(#clip_0)"><clipPath id="clip_0"><rect width="271" height="177"></rect></clipPath><g><g><g><line x1="0" y1="0" x2="0" y2="177" fill="rgb(0, 0, 0)" stroke="rgb(60, 60, 60)" stroke-width="1px" opacity="0.25"></line><line x1="22.6171875" y1="0" x2="22.6171875" y2="177" fill="rgb(0, 0, 0)" stroke="rgb(60, 60, 60)" stroke-width="1px" opacity="0.25"></line><line x1="45.234375" y1="0" x2="45.234375" y2="177" fill="rgb(0, 0, 0)" stroke="rgb(60, 60, 60)" stroke-width="1px" opacity="0.25"></line><line x1="67.8515625" y1="0" x2="67.8515625" y2="177" fill="rgb(0, 0, 0)" stroke="rgb(60, 60, 60)" stroke-width="1px" opacity="0.25"></line><line x1="90.46875" y1="0" x2="90.46875" y2="177" fill="rgb(0, 0, 0)" stroke="rgb(60, 60, 60)" stroke-width="1px" opacity="0.25"></line><line x1="113.0859375" y1="0" x2="113.0859375" y2="177" fill="rgb(0, 0, 0)" stroke="rgb(60, 60, 60)" stroke-width="1px" opacity="0.25"></line><line x1="135.703125" y1="0" x2="135.703125" y2="177" fill="rgb(0, 0, 0)" stroke="rgb(60, 60, 60)" stroke-width="1px" opacity="0.25"></line><line x1="158.3203125" y1="0" x2="158.3203125" y2="177" fill="rgb(0, 0, 0)" stroke="rgb(60, 60, 60)" stroke-width="1px" opacity="0.25"></line><line x1="180.9375" y1="0" x2="180.9375" y2="177" fill="rgb(0, 0, 0)" stroke="rgb(60, 60, 60)" stroke-width="1px" opacity="0.25"></line><line x1="203.5546875" y1="0" x2="203.5546875" y2="177" fill="rgb(0, 0, 0)" stroke="rgb(60, 60, 60)" stroke-width="1px" opacity="0.25"></line><line x1="226.171875" y1="0" x2="226.171875" y2="177" fill="rgb(0, 0, 0)" stroke="rgb(60, 60, 60)" stroke-width="1px" opacity="0.25"></line><line x1="248.7890625" y1="0" x2="248.7890625" y2="177" fill="rgb(0, 0, 0)" stroke="rgb(60, 60, 60)" stroke-width="1px" opacity="0.25"></line><line x1="271.40625" y1="0" x2="271.40625" y2="177" fill="rgb(0, 0, 0)" stroke="rgb(60, 60, 60)" stroke-width="1px" opacity="0.25"></line></g><g><line x1="0" y1="177" x2="271.40625" y2="177" fill="rgb(0, 0, 0)" stroke="rgb(60, 60, 60)" stroke-width="1px" opacity="0.25"></line><line x1="0" y1="162.25" x2="271.40625" y2="162.25" fill="rgb(0, 0, 0)" stroke="rgb(60, 60, 60)" stroke-width="1px" opacity="0.25"></line><line x1="0" y1="147.5" x2="271.40625" y2="147.5" fill="rgb(0, 0, 0)" stroke="rgb(60, 60, 60)" stroke-width="1px" opacity="0.25"></line><line x1="0" y1="132.75" x2="271.40625" y2="132.75" fill="rgb(0, 0, 0)" stroke="rgb(60, 60, 60)" stroke-width="1px" opacity="0.25"></line><line x1="0" y1="118" x2="271.40625" y2="118" fill="rgb(0, 0, 0)" stroke="rgb(60, 60, 60)" stroke-width="1px" opacity="0.25"></line><line x1="0" y1="103.25" x2="271.40625" y2="103.25" fill="rgb(0, 0, 0)" stroke="rgb(60, 60, 60)" stroke-width="1px" opacity="0.25"></line><line x1="0" y1="88.49999999999999" x2="271.40625" y2="88.49999999999999" fill="rgb(0, 0, 0)" stroke="rgb(60, 60, 60)" stroke-width="1px" opacity="0.25"></line><line x1="0" y1="73.75000000000001" x2="271.40625" y2="73.75000000000001" fill="rgb(0, 0, 0)" stroke="rgb(60, 60, 60)" stroke-width="1px" opacity="0.25"></line><line x1="0" y1="58.999999999999986" x2="271.40625" y2="58.999999999999986" fill="rgb(0, 0, 0)" stroke="rgb(60, 60, 60)" stroke-width="1px" opacity="0.25"></line><line x1="0" y1="44.25" x2="271.40625" y2="44.25" fill="rgb(0, 0, 0)" stroke="rgb(60, 60, 60)" stroke-width="1px" opacity="0.25"></line><line x1="0" y1="29.5" x2="271.40625" y2="29.5" fill="rgb(0, 0, 0)" stroke="rgb(60, 60, 60)" stroke-width="1px" opacity="0.25"></line><line x1="0" y1="14.75" x2="271.40625" y2="14.75" fill="rgb(0, 0, 0)" stroke="rgb(60, 60, 60)" stroke-width="1px" opacity="0.25"></line><line x1="0" y1="0" x2="271.40625" y2="0" fill="rgb(0, 0, 0)" stroke="rgb(60, 60, 60)" stroke-width="1px" opacity="0.25"></line></g></g></g><g><g><line x1="0" y1="162.25" x2="271.40625" y2="162.25" fill="rgb(0, 0, 0)" stroke="rgb(153, 153, 153)" stroke-width="1.5px"></line></g></g><g><g><line x1="22.6171875" y1="0" x2="22.6171875" y2="177" fill="rgb(0, 0, 0)" stroke="rgb(153, 153, 153)" stroke-width="1.5px"></line></g></g><g><g><g><g><g><path stroke="rgb(187, 187, 187)" stroke-width="2px" d="M24.200390625,-8.328186586499214L24.4265625,3.1064988523721695L24.652734375,22.762706637382507L24.87890625,46.14984183013439L25.105078125,63.09736440330744L25.33125,74.52532969787718L25.557421875,82.13007687032223L25.78359375,87.33418299257755L26.009765625,91.95639495179056L26.2359375,95.02775365859269L26.462109375,97.99485946446657L26.68828125,100.57663670182227L26.914453125,103.33984684571624L27.140625,105.73230613395572L27.366796875,107.60328662022948L27.59296875,109.26478322967887L27.819140625,110.84984163194895L28.0453125,111.61051471158862L28.271484375,113.26952217519283L28.49765625,113.61988731101155L28.723828125,114.64801444113255L29.176171874999998,116.02999590709805L29.40234375,116.89307288639247L29.628515625,117.7615457624197L29.8546875,118.4024458695203L30.080859375000003,119.32019339315593L30.307031249999998,119.71207726188004L30.533203125,119.93813621252775L30.759375,120.78152531199157L30.985546875,120.6316078491509L31.211718750000003,121.01790625043213L31.437890624999998,121.21959300152957L31.6640625,121.7546741887927L32.11640625,122.1987119819969L32.342578125,122.70158812776208L32.56875,122.73559821210802L32.794921875,122.85961317270994L33.02109375,122.94082361645997L33.247265625,123.26349494419992L33.4734375,123.56712677888572L33.699609375,123.70487874746323L33.92578125,124.18335521966219L34.151953125,123.96063985675573L34.378125000000004,124.28816034831107L34.604296875,124.62661549821496L34.83046875,124.58402802608907L35.056640625,125.08548926003277L35.2828125,125.0592653118074L35.508984375,125.20409733429551L35.735156249999996,125.23044491559267L35.961328125,125.59077762439847L36.1875,125.55593232996762L36.413671875,125.5760213304311L36.639843750000004,125.72226276993752L36.866015625,125.58304643630981L37.092187499999994,125.32984590530396L37.318359375,125.60624274797738L37.54453125,125.8839308694005L37.770703125,126.27966934256256L37.996875,126.27918305248022L38.223046875,126.08635117672384L38.44921875,125.94263185188174L38.675390625,126.51316276192665L38.901562500000004,126.56625080294907L39.127734375,126.62577875331044L39.353906249999994,126.56354735977948L39.580078125,126.62201481312513L39.80625,126.78610062599182L40.032421875,126.72242409922183L40.25859375,126.85797814652324L40.484765625,126.85471972823143L40.7109375,126.66330276429653L40.937109375000006,126.99981824867427L41.163281250000004,127.08618831261992L41.389453124999996,127.26576672308147L41.615624999999994,127.13944119773805L41.841796875,127.35155983269215L42.06796875,127.60490597598255L42.294140625,127.60662859678268L42.5203125,127.2530352640897L42.746484375,127.6398666612804L42.97265625,127.89312763512135L43.198828125000006,127.64820777252316L43.425000000000004,127.4528922457248L43.651171874999996,127.77181337028742L43.877343749999994,127.87527776695788L44.103515625,128.0757941249758L44.3296875,128.3716700449586L44.555859375,128.13320932351053L44.78203125,128.3076610825956L45.008203125,128.28742372244596L45.234375,128.38962980918586L45.460546875000006,128.15540283359587L45.68671875,128.26826059632003L45.912890624999996,128.1490261144936L46.1390625,128.18723697587848L46.365234375,128.26778804324567L46.59140625,128.31121347285807L46.817578125,128.22501374781132L47.04375,128.18856397084892L47.269921875,128.40863083861768L47.49609375,128.36993093974888L47.722265625000006,128.4820853676647L47.9484375,128.14198177680373L48.174609374999996,128.75968282483518L48.40078125,128.58995384909213L48.626953125,128.36848580650985L48.853125,128.66212259419262L49.079296875000004,128.69349242560565L49.30546875,128.56237543188035L49.531640625,128.6000945083797L49.7578125,128.6959953084588L49.983984375,128.55056160502136L50.21015625,128.56074347533286L50.436328124999996,128.25946616381407L50.6625,128.90655891411006L50.888671875,128.89970964193344L51.11484375,128.73224452510476L51.341015625000004,128.70699040964246L51.793359375,129.16594659350812L52.01953125,128.72544470615685L52.245703125,128.6833352819085L52.698046874999996,129.23472779244184L52.92421875,129.18751644343138L53.150390625,129.02547194994986L53.3765625,129.01957602612674L53.602734375000004,128.81953771598637L53.82890625,128.96677371487021L54.055078124999994,129.32659265957773L54.28125,129.2179274316877L54.507421875,129.2106825336814L54.73359375,129.07418063282967L54.959765625,129.30188527703285L55.1859375,129.23725814931095L55.412109375,129.25098416768014L55.63828125,129.327004769817L55.864453125000004,129.2996708713472L56.090625,129.50887176580727L56.316796874999994,129.52822995744646L56.54296875,129.24277218431234L56.769140625,129.51602325215936L57.221484375,129.3504620846361L57.44765625,129.62159765325487L57.673828125,129.4236968215555L57.900000000000006,129.55366814881563L58.126171875000004,129.68084536865354L58.352343749999996,129.71139372698963L58.578515624999994,129.72960075736046L58.8046875,129.82494108751416L59.030859375,129.50939377211034L59.25703125,129.74318116344512L59.483203125,129.59921457245946L59.709375,129.89693949371576L59.935546875,129.97241885773838L60.161718750000006,129.08358498848975L60.387890625000004,129.57887281104922L60.614062499999996,129.59652211889625L60.840234374999994,129.33452990278602L61.292578125,129.40842126868665L61.51875,129.3581108506769L61.744921875,129.77369655296206L61.97109375,129.88309533707798L62.197265625,129.11864183284342L62.423437500000006,129.47802119329572L62.649609375,129.6261940561235L62.875781249999996,129.68072723038495L63.101953125,129.50932783447206L63.328125,129.49617052823305L63.554296875,129.24981652200222L63.78046875,129.24725319631398L64.006640625,129.4133940655738L64.2328125,129.4116577077657L64.458984375,129.55179991573095L64.68515625,129.4096356201917L64.911328125,129.70186848565936L65.1375,129.42966967262328L65.36367187500001,129.624562099576L65.58984375,129.41122087091208L65.81601562499999,129.68805729784071L66.268359375,129.60173943452537L66.49453125,129.39969552122056L67.173046875,129.44246981665492L67.39921875,129.39232973754406L67.62539062500001,129.4028248116374L67.8515625,129.43558208085597L68.077734375,129.37620523758233L68.30390625,129.22100452147424L68.530078125,129.51046251133084L68.982421875,129.75165689736605L69.20859375,129.58177956193686L69.43476562500001,129.7296914216131L69.6609375,130.05327488668263L69.88710937500001,130.35817602090538L70.33945312499999,129.8145201932639L70.565625,130.04240341857076L70.79179687499999,129.80611039698124L71.01796875,130.48240527883172L71.244140625,130.18866683728993L71.47031249999999,129.9978845231235L71.696484375,130.05484640039504L71.92265625,130.5014255400747L72.148828125,130.2054974194616L72.375,129.84319207631052L72.601171875,130.27250929176807L72.82734375,130.23436986282468L73.053515625,130.307313375175L73.505859375,130.31609681807458L73.73203125,130.2778419982642L73.95820312500001,130.3069726973772L74.18437499999999,130.23366103321314L74.410546875,130.36680286191404L74.63671875,130.26053062081337L74.86289062499999,130.14574418216944L75.0890625,130.3345950730145L75.315234375,130.3883617222309L75.54140625,130.42499557510018L75.767578125,130.0602093283087L75.99375,130.5353532023728L76.219921875,130.47790503501892L76.44609375,130.68241611495614L76.672265625,130.24653810448945L76.8984375,130.16293192654848L77.124609375,130.25879426300526L77.35078125,130.49035625904799L77.576953125,130.15232146158814L77.80312500000001,130.23772169277072L78.029296875,130.24885965883732L78.25546875,130.02585032396019L78.48164062500001,130.3001728784293L78.70781249999999,130.3559066671878L78.933984375,130.09217809326947L79.16015625,130.47064914740622L79.38632812499999,130.25066195428371L79.6125,130.50786544941366L79.838671875,130.41383288241923L80.06484375,131.084446137771L80.291015625,130.994685780257L80.5171875,130.69952143728733L80.743359375,130.83193245716393L80.96953125,130.25886294804513L81.19570312500001,130.68533660285175L81.421875,131.1185935921967L81.648046875,131.06455220282078L81.87421875000001,130.75321390666068L82.100390625,130.8800971545279L82.32656250000001,130.91552489809692L82.552734375,131.00105700455606L83.005078125,131.1038647722453L83.23124999999999,130.69574925489724L83.457421875,131.02856948412955L83.68359375,131.0517740380019L83.90976562499999,130.8823527712375L84.1359375,131.12948429211974L84.362109375,130.90215878933668L84.58828125,130.97137682512403L84.814453125,131.37465966306627L85.040625,130.84609805978835L85.266796875,130.98667985200882L85.49296875,131.1539196819067L85.71914062500001,131.0776985194534L85.9453125,130.9441088642925L86.171484375,130.9879354145378L86.39765625000001,131.16390648670495L86.623828125,131.49924608319998L86.85000000000001,131.2538179513067L87.076171875,131.10269437916577L87.30234374999999,131.175909884274L87.528515625,131.38204193115234L87.980859375,131.25189751759171L88.43320312499999,131.3785829525441L88.659375,131.1233740709722L88.885546875,131.18402845598757L89.11171875,131.40738671086729L89.337890625,131.38894340395927L89.5640625,131.50419690087438L89.790234375,131.25318604893982L90.01640625,131.25622192770243L90.24257812500001,131.19631483592093L90.46875,131.2226074691862L90.694921875,131.05923323333263L90.92109375000001,131.27289865538478L91.14726562499999,131.4599197767675L91.3734375,131.10770014487207L92.051953125,131.3997901454568L92.278125,131.28776759281754L92.504296875,131.3928144928068L92.73046875,131.33074244856834L92.956640625,131.1052659470588L93.408984375,131.50701024010777L93.63515625,131.70311427116394L93.861328125,131.14952383935452L94.0875,131.56207915768027L94.313671875,131.0141923315823L94.53984375,131.2957268152386L94.76601562500001,131.35716695711017L94.9921875,131.56136758066714L95.218359375,131.72840410284698L95.44453125000001,131.24559772573411L95.67070312499999,131.92573896981776L95.896875,131.4254426341504L96.123046875,131.27134362608194L96.34921874999999,131.44004782103002L96.575390625,131.58775362558663L96.8015625,131.75202900916338L97.027734375,131.78885243274271L97.25390625,131.50746905617416L97.480078125,131.72345603257418L97.70625,131.49356720410287L97.932421875,131.5627357866615L98.15859375000001,131.51602446474135L98.384765625,131.59382813051343L98.6109375,131.59764427132905L98.83710937500001,131.85756494663656L99.06328125,132.14550637081265L99.28945312500001,131.843135593459L99.515625,131.84174815565348L99.74179687499999,132.0130651295185L99.96796875,132.09398434869945L100.19414062499999,131.80475714057684L100.4203125,131.72031849995255L100.646484375,132.0215600952506L100.87265624999999,132.22470571659505L101.098828125,132.3152957893908L101.325,131.96158431842923L101.551171875,132.0596445761621L101.77734375,132.25828171148896L102.003515625,132.38306044973433L102.2296875,132.30544360727072L102.455859375,132.35569632984698L102.68203125000001,132.17666739970446L102.908203125,132.37577983550727L103.134375,132.0596473235637L103.36054687500001,132.259048236534L103.58671875,132.41768595203757L103.81289062500001,132.5268017537892L104.0390625,132.37111474759877L104.26523437499999,132.42715075053275L104.49140625,132.05567458085716L104.71757812499999,132.20164128020406L104.94375,132.4626059681177L105.169921875,132.46061684936285L105.39609374999999,132.20447110384703L105.622265625,132.46541381254792L105.8484375,132.36196864768863L106.30078125,132.15556735545397L106.526953125,132.89839056693017L106.753125,132.78721146658063L106.979296875,132.4245407190174L107.20546875000001,132.24072856269777L107.431640625,132.6365851741284L107.6578125,132.51354004628956L107.88398437500001,132.7350795213133L108.11015624999999,132.49167897179723L108.336328125,132.29416827112436L108.5625,132.65671263821423L108.78867187499999,132.59352514892817L109.01484375,132.48537643253803L109.241015625,132.0710627771914L109.4671875,132.15400683134794L109.693359375,132.57635938376188L109.91953125,132.80960553698242L110.145703125,132.4473111834377L110.371875,132.11569981090724L110.598046875,132.76626527681947L110.82421875,132.83969507925212L111.050390625,132.5195458661765L111.2765625,132.55185805633664L111.502734375,132.26334242522717L111.955078125,132.51613359339535L112.18125,132.64034087210894L112.40742187500001,132.1042458936572L112.63359374999999,132.53929418884218L112.859765625,132.9529374781996L113.0859375,132.73892313614488L113.31210937499999,132.7578719649464L113.53828125,132.76459485664964L113.764453125,133.03884597867727L113.990625,133.0005252212286L114.216796875,133.02076532877982L114.44296875,132.41476271674037L114.669140625,132.85941318050027L114.8953125,132.938087772578L115.34765625,133.04852782189846L115.573828125,132.9893378019333L115.80000000000001,132.93188963457942L116.026171875,132.8920825328678L116.25234375000001,133.0213944837451L116.478515625,133.29171132668853L116.70468749999999,133.32473509386182L117.15703124999999,133.28721108287573L117.383203125,133.2765374276787L117.609375,133.45961602777243L117.83554687499999,133.04689311794937L118.06171875,133.7508873026818L118.287890625,133.32639452442527L118.5140625,133.40522571839392L118.740234375,133.4920875672251L118.96640625,133.3763889912516L119.192578125,133.44749998673797L119.41875,133.51999567262828L119.64492187500001,133.2915629670024L119.87109375,133.36622635275126L120.32343750000001,133.46810000389814L120.77578125000001,133.44924458675086L121.001953125,133.4084951262921L121.22812499999999,133.00269292108715L121.454296875,133.4117013439536L121.68046874999999,133.58361725136638L121.906640625,133.5015935767442L122.1328125,133.22703199833632L122.35898437499999,133.44907699525356L122.58515625,133.3731827735901L122.811328125,133.2930795326829L123.0375,133.3428020067513L123.263671875,133.96703637577593L123.48984375,133.35975347459316L123.716015625,133.29923645965755L123.9421875,133.53341672942042L124.16835937500001,133.79179611243308L124.39453125,133.37145191058517L124.620703125,133.32954854145646L124.84687500000001,133.35021724365652L125.07304687499999,133.54522780887783L125.29921875,133.31896280311048L125.525390625,133.25317352451384L125.75156249999999,133.58511183783412L125.977734375,133.3033108562231L126.20390625,133.46416847221553L126.430078125,133.47518005780876L126.65625,133.5855157058686L126.882421875,133.57913898676634L127.10859375,133.55770650692284L127.334765625,133.2988655604422L127.5609375,133.75659915059805L127.787109375,133.55698119290173L128.01328125,133.663256181404L128.23945312499998,133.81567927449942L128.465625,133.94087836518884L128.691796875,133.37693297676742L128.91796875,133.71335779689252L129.144140625,133.74484576657414L129.3703125,133.61028627865016L129.596484375,133.69855204969645L129.82265625,133.76251155883074L130.048828125,133.7219736482948L130.501171875,133.9010712634772L130.72734375000002,134.0535712838173L130.953515625,134.16799781285226L131.1796875,133.6313588488847L131.405859375,133.96810511499643L131.63203124999998,133.7472360059619L131.858203125,134.30800265073776L132.084375,134.1288858037442L132.310546875,133.99562034197152L132.53671875,133.8430846054107L132.762890625,133.9002800118178L132.9890625,134.05287619121373L133.215234375,133.70210718736053L133.44140625,133.5992362294346L133.667578125,133.79704639688134L133.89375,133.91978931054473L134.119921875,133.88677928037941L134.572265625,133.60129678063095L134.7984375,133.9561401810497L135.024609375,133.97196796163917L135.25078125000002,133.91735236532986L135.476953125,133.7886860538274L135.703125,133.9237483162433L136.15546875,133.89895851165056L136.381640625,133.92141302488744L136.6078125,133.58925217203796L136.833984375,133.7264216914773L137.06015625,133.78726839460433L137.286328125,133.99176024273038L137.51250000000002,133.58179022930562L137.738671875,134.2095467671752L137.96484375,134.1126239337027L138.191015625,133.7256386820227L138.4171875,133.70829983055592L138.86953125000002,133.97528407536447L139.095703125,134.20157655514777L139.321875,133.62868287973106L139.548046875,133.9323998838663L139.77421875000002,133.9423674568534L140.00039062500002,134.05053815245628L140.2265625,134.3285147510469L140.67890624999998,134.38039118796587L140.905078125,134.04308170452714L141.13125,134.00835454836488L141.357421875,134.097265958786L142.262109375,134.1358010135591L142.48828125,133.95758531428874L142.714453125,133.86335493437946L142.94062499999998,133.94965356588364L143.166796875,133.8145610820502L143.39296875,134.24354036711156L143.619140625,133.86411046981812L143.8453125,133.99475765787065L144.071484375,134.36644537746906L144.29765625,134.24296890757978L144.523828125,134.0378753785044L144.75,134.10196126811206L144.976171875,134.00713744945824L145.20234375,134.20654935203493L145.42851562500002,134.13677359372377L145.6546875,133.88185868412256L145.880859375,133.8480354230851L146.10703125,134.08594391681254L146.333203125,134.0679649207741L146.55937500000002,133.76086586527526L146.78554687500002,134.08442735113204L147.01171875,134.01556098274887L147.237890625,134.31154954619706L147.4640625,134.15072215162218L147.69023437500002,134.17611363716424L148.142578125,134.12953693792224L148.36874999999998,134.40882679447532L148.59492187499998,134.24343047104776L148.82109375,134.04244705475867L149.047265625,133.9627833981067L149.2734375,134.2952052541077L149.49960937499998,134.02886390127242L149.72578124999998,134.26079679653049L149.951953125,134.32505027763546L150.178125,133.95663746073842L150.404296875,134.1090330798179L150.63046875,133.98855127766728L150.85664062499998,134.06265694089234L151.0828125,134.3323968295008L151.308984375,134.02976230159402L151.53515625,134.08604831807315L151.761328125,134.21002206765115L151.9875,134.13655929639935L152.213671875,134.40778003446758L152.43984375,134.23968301527202L152.666015625,134.15395859070122L152.8921875,134.11950617469847L153.118359375,134.1853558961302L153.34453125,134.15596144646406L153.570703125,134.37775917723775L153.796875,134.43410838395357L154.023046875,134.20416735485196L154.24921875,134.39178191497922L154.47539062500002,134.25958244502544L154.7015625,133.83175157383084L154.927734375,134.16082434728742L155.15390625,134.39470789767802L155.380078125,134.40796685777605L155.60625000000002,134.06384381838143L155.83242187500002,134.0806194525212L156.284765625,134.55950528755784L156.5109375,134.33501235581934L156.73710937500002,134.30343646928668L156.96328125000002,134.32042914815247L157.189453125,134.35649154148996L157.41562499999998,134.29596353694797L157.64179687499998,134.26350298710167L157.86796875,134.2906610518694L158.094140625,134.07472902350128L158.3203125,134.33260837942362L158.54648437499998,134.35867847315967L158.77265624999998,134.05821439251304L158.998828125,134.113700915128L159.225,134.2915539573878L159.451171875,134.16295907832682L159.67734375,134.38618545792997L160.1296875,134.2196736894548L160.355859375,134.2343503087759L160.58203125,134.52489626966417L160.808203125,134.62682761624455L161.034375,134.26853073202074L161.260546875,134.10816215351224L161.48671875,134.3067965414375L161.712890625,134.267368581146L161.9390625,134.52085484191775L162.165234375,134.23928189463913L162.39140625000002,134.56765957549214L162.617578125,134.1315288040787L162.84375,134.46623100340366L163.069921875,134.62321203574538L163.29609375,134.82559937424958L163.52226562500002,134.73722920194268L163.74843750000002,134.52691835723817L163.974609375,134.13964188098907L164.20078125,134.58125921338797L164.426953125,134.48658100701869L164.65312500000002,134.6012575495988L164.87929687500002,134.82399763911963L165.10546875,134.63929807208478L165.33164062499998,134.61143117770553L165.55781249999998,134.55236753821373L165.783984375,134.66546432487667L166.01015625,134.83215467445552L166.236328125,134.59168560244143L166.46249999999998,134.9041118696332L166.68867187499998,134.6185332108289L166.91484375,134.64932883530855L167.141015625,134.62880574539304L167.3671875,134.4785283729434L167.593359375,134.51703320629895L167.81953124999998,134.77309378236532L168.045703125,134.78917707130313L168.271875,134.60296918079257L168.498046875,134.4154700115323L168.72421875,134.5947324708104L168.950390625,134.65204326808453L169.1765625,134.5968259908259L169.402734375,134.5906828008592L169.62890625,134.55374673381448L169.855078125,134.32169295288622L170.08125,134.41027742251754L170.307421875,134.46220606006682L170.759765625,134.78702860325575L170.9859375,134.60910687595606L171.212109375,134.52692659944296L171.43828125000002,134.8227228447795L171.664453125,134.92933026887476L171.890625,134.67043162696064L172.116796875,134.6424905527383L172.34296875,134.67115694098175L172.56914062500002,134.89153975993395L172.79531250000002,135.08643218688667L173.021484375,135.1252309922129L173.24765625,134.89667190611362L173.473828125,134.82206621579826L173.70000000000002,135.20716674998403L173.92617187500002,135.1697141714394L174.37851562499998,135.07620361074805L174.60468749999998,134.5150358453393L174.830859375,135.06418098136783L175.05703125,134.69419665075839L175.283203125,134.9439272135496L175.50937499999998,134.97587125189602L175.73554687499998,134.60136195085943L175.96171875,134.66177731193602L176.187890625,134.9873608853668L176.4140625,134.94621579907835L176.640234375,135.13373694755137L176.86640624999998,134.73870730400085L177.092578125,134.8837481290102L177.31875,135.13080547004938L177.544921875,134.97164300084114L177.77109375,135.03870157897472L177.997265625,134.61316478811204L178.2234375,134.9007985033095L178.449609375,135.19224286451936L178.67578125,134.96894505247474L178.901953125,135.16542822495103L179.128125,135.05684541910887L179.35429687500002,134.79112772643566L179.58046875,134.84877095930278L179.806640625,135.12935209460557L180.0328125,135.07688496634364L180.71132812500002,135.02604704722762L180.9375,134.87830827385187L181.163671875,134.7335586734116L181.38984375,135.02872576378286L181.61601562500002,134.84777639992535L181.84218750000002,134.82180521264672L182.068359375,135.0753848850727L182.29453124999998,134.88615210540593L182.52070312499998,135.15354296565056L182.746875,134.85463666170835L182.973046875,134.7074061576277L183.19921875,134.68545991368592L183.42539062499998,134.8347070105374L183.65156249999998,135.02114843018353L184.10390625,134.93029460683465L184.330078125,134.84577079676092L184.55625,135.01393650099635L184.78242187499998,134.93238263204694L185.00859375,134.9944546762854L185.234765625,134.83422896265984L185.4609375,134.80188929848373L185.687109375,134.71777485124767L185.91328125,134.84085020050406L186.139453125,134.6931718699634L186.365625,134.80526585504413L186.591796875,134.93941048532724L186.81796875,134.83845171891153L187.044140625,135.0752145461738L187.2703125,134.94272934645414L187.496484375,134.7988149560988L187.72265625,135.05449364334345L187.948828125,134.91871156170964L188.175,134.81115353666246L188.40117187500002,134.95205128006637L188.62734375,134.73638574965298L188.853515625,134.75452958978713L189.0796875,134.8583868648857L189.305859375,134.9725716225803L189.53203125000002,134.81232392974198L189.75820312500002,135.07593711279333L189.984375,135.2101586703211L190.210546875,134.83528945967555L190.43671875,134.77307729795575L190.66289062500002,134.94170456565917L190.88906250000002,134.9886604063213L191.115234375,134.95334530621767L191.34140624999998,134.94999622367322L191.56757812499998,134.70456809177995L192.019921875,134.93107761628926L192.24609375,134.71807157061994L192.47226562499998,135.19011637568474L192.69843749999998,135.39281417056918L192.924609375,134.83292944170535L193.15078125,135.44616046734154L193.376953125,135.21661231666803L193.603125,135.1643237695098L193.82929687499998,135.09138575196266L194.05546875,135.320019017905L194.281640625,135.52181566506624L194.5078125,135.29963329806924L194.733984375,135.42360430024564L194.96015625,135.1651012841612L195.186328125,135.14735581725836L195.4125,135.02247817255557L195.638671875,135.36110915616155L195.86484375,135.43417355418205L196.091015625,135.21501882374287L196.31718750000002,135.37721442431211L196.543359375,135.13981969468296L196.76953125,135.3421301059425L196.995703125,135.57405475899577L197.221875,135.24297638237476L197.44804687500002,135.12918725050986L197.67421875000002,135.1672964580357L197.900390625,135.55819675698876L198.1265625,135.42704404704273L198.57890625000002,135.5207221992314L198.80507812500002,135.35730125755072L199.03125,135.49125906452537L199.25742187499998,135.45376252755523L199.48359374999998,135.2465589940548L199.709765625,135.73602507263422L199.9359375,135.31617265567183L200.162109375,135.6388879418373L200.38828124999998,135.38106628134847L200.61445312499998,135.44756713695824L200.840625,135.12501394748688L201.066796875,135.2189338710159L201.29296875,135.50960346497595L201.519140625,135.56462018191814L201.74531249999998,135.3562352657318L201.971484375,135.61396076716483L202.19765625,135.20078453607857L202.423828125,135.45683961734176L202.65,135.56136451102793L202.876171875,135.69286888837814L203.10234375,135.31957943364978L203.328515625,135.7618506476283L203.5546875,135.66243317350745L203.780859375,135.75952359847724L204.00703125,135.39779520966113L204.233203125,135.60659223608673L204.459375,135.37393402680755L204.685546875,135.84969606623054L204.91171875,135.8354315571487L205.137890625,135.6873740851879L205.36406250000002,135.61927698925138L205.590234375,135.30928491987288L206.042578125,135.25247689709067L206.26875,135.19079223647714L206.49492187500002,135.17103841900826L206.72109375000002,135.33645397424698L206.947265625,135.51249098405242L207.1734375,135.67260405421257L207.399609375,135.5026635285467L207.62578125000002,135.713416704908L207.85195312500002,135.57798903807998L208.078125,135.7210160177201L208.30429687499998,135.33803098276258L208.53046874999998,135.49009966105223L208.756640625,135.5052433386445L208.9828125,135.6795659698546L209.208984375,135.78605800308287L209.43515624999998,135.9604081083089L209.66132812499998,135.494396597147L209.8875,135.51855175197124L210.113671875,135.58823135122657L210.33984375,135.51786490157247L210.566015625,135.35898816213012L210.79218749999998,135.63784667663276L211.018359375,135.68966267071664L211.24453125,135.5018667820841L211.470703125,135.96296868659556L211.696875,135.56378771923482L211.923046875,135.4812914915383L212.14921875,135.7785685863346L212.375390625,135.64751753024757L212.6015625,135.7164663206786L212.827734375,135.76161437109113L213.05390625,135.9576607067138L213.28007812500002,135.58845663815737L213.50625,135.9693536479026L213.732421875,136.04571767523885L213.95859375,135.85200388357043L214.184765625,135.60357833653688L214.41093750000002,135.7456519678235L214.86328125,136.12923318892717L215.089453125,135.7643892467022L215.315625,135.84410510398448L215.54179687500002,136.0866869278252L215.76796875000002,135.6062735375017L215.994140625,136.06811998784542L216.22031249999998,135.84717120416462L216.44648437499998,135.96129551902413L216.898828125,136.05253947339952L217.125,136.0544132012874L217.35117187499998,135.8260272014886L217.57734374999998,136.08912112563848L217.803515625,136.1212904509157L218.255859375,135.93196425959468L218.48203125,136.09886341169477L218.70820312499998,136.2261917386204L218.934375,136.36157269962132L219.160546875,136.0925388932228L219.38671875,136.31916106119752L219.612890625,135.9464073497802L219.8390625,136.56045984849334L220.065234375,136.55612444877625L220.29140625,136.1667434629053L220.517578125,136.11354827322066L220.74375,136.0640813075006L220.969921875,136.36106168292463L221.19609375,136.24697583168745L221.422265625,136.09735508821905L221.6484375,135.9291371833533L221.874609375,136.24236843921244L222.10078125,135.904229240492L222.32695312500002,136.37510090507567L222.553125,136.00896568410099L222.779296875,136.12576047331095L223.00546875,136.20294322632253L223.231640625,136.09835788980126L223.45781250000002,136.17959580756724L223.68398437500002,136.39200291968882L223.91015625,136.01185595057905L224.136328125,136.16866664402187L224.3625,135.85727889463305L224.58867187500002,136.03445607610047L224.81484375000002,136.0415745936334L225.041015625,136.2171857561916L225.26718749999998,136.15173166058958L225.49335937499998,136.2852526307106L225.71953125,136.11282295919955L225.945703125,136.22952708415687L226.171875,136.02726063132286L226.39804687499998,136.11444117873907L226.62421874999998,136.1265105139464L226.850390625,136.20798470824957L227.0765625,136.1175237633288L227.302734375,135.9160265829414L227.52890625,136.15786935575306L227.75507812499998,136.30723184347153L227.98125,136.33148040995002L228.207421875,136.2294501569122L228.43359375,136.29027762822807L228.659765625,136.22054308094084L228.8859375,136.12384003959596L229.112109375,136.36013855598867L229.564453125,136.4636276792735L229.790625,136.33563173376024L230.016796875,136.20945456810296L230.24296875000002,136.27702691033483L230.6953125,136.4799390025437L230.921484375,136.52186984568834L231.14765625,136.33546414226294L231.37382812500002,136.4162652231753L231.60000000000002,136.46774328686297L231.826171875,136.7445275131613L232.05234375,136.58605738915503L232.278515625,136.48754655756056L232.50468750000002,136.59206046164036L232.95703125,136.76639682985842L233.18320312499998,136.7297931984067L233.40937499999998,136.74140646494925L233.635546875,136.69816785864532L233.86171875,136.70883052423596L234.087890625,136.80226415768266L234.31406249999998,136.69482427090406L234.54023437499998,136.61117138713598L234.76640625,136.62957073561847L234.992578125,136.61692719347775L235.444921875,136.65524795092642L235.67109374999998,136.61648211441934L235.897265625,136.8585391845554L236.1234375,136.6007065344602L236.349609375,136.46888895332813L236.801953125,136.73624684475362L237.028125,136.74628310278058L237.254296875,136.50499805249274L237.706640625,136.7453160174191L237.9328125,136.44137372635305L238.158984375,136.60383857227862L238.38515625,136.8908870909363L238.611328125,136.66192413680255L238.8375,136.5549760349095L239.063671875,136.87444389238954L239.28984375000002,136.67999929189682L239.516015625,136.6586409918964L239.7421875,136.5398982949555L239.968359375,136.65055264160037L240.19453125,136.4590669926256L240.42070312500002,136.74254388920963L240.64687500000002,136.73976351879537L240.873046875,136.71883930824697L241.09921875,136.61699313111603L241.325390625,136.75111852958798L241.77773437500002,136.65286870114505L242.00390625,136.89238991960883L242.23007812499998,136.30883632600307L242.45624999999998,136.72643312625587L242.682421875,136.93455978669226L242.90859375,137.02670214138925L243.134765625,136.94390095211565L243.36093749999998,136.51814436912537L243.58710937499998,136.7208421640098L243.81328125,136.7306943461299L244.039453125,136.69734913296998L244.265625,136.76563854701817L244.491796875,136.71649577468634L244.71796874999998,136.94666209071875L244.944140625,136.90986888855696L245.1703125,136.89957437478006L245.396484375,136.8327328413725L245.62265625,136.9036515187472L245.848828125,136.77295762486756L246.075,136.64437098801136L246.301171875,136.90177779085934L246.52734375,136.68616995587945L246.753515625,136.53161487914622L246.9796875,136.62402373179793L247.20585937500002,136.85931944660842L247.43203125,137.0020442120731L247.884375,136.87803474627435L248.110546875,136.6164491456002L248.56289062500002,136.85834961384535L248.7890625,137.0696989763528L249.015234375,137.07446571812034L249.24140625,136.94812645576894L249.46757812500002,137.04013693518937L249.69375000000002,136.82516924478114L249.919921875,136.83355431444943L250.37226562499998,136.9569291304797L250.5984375,136.98292229697108L250.824609375,136.6479535996914L251.05078125,136.99598069675267L251.27695312499998,136.7792848907411L251.50312499999998,136.97656480967999L251.729296875,136.91425648890436L251.95546875,136.84383509121835L252.4078125,136.94874462112784L252.63398437499998,136.59690962545574L252.86015625,136.7132538408041L253.086328125,136.94959082081914L253.3125,136.53707121871412L253.538671875,137.0033354908228L253.76484375,136.83855733275414L253.991015625,136.66678154282272L254.2171875,136.774963228032L254.443359375,137.17598495446146L254.66953125,136.8303645811975L254.895703125,137.02311678230762L255.121875,136.92178162187338L255.348046875,137.02220189757645L255.57421875,136.78021900728345L255.800390625,136.87433124892414L256.0265625,136.8444862253964L256.252734375,137.07300410047174L256.47890624999997,137.08713123947382L256.705078125,136.56235006079078L256.93125,136.88265862315893L257.157421875,136.76139381155372L257.38359375,136.55015434511006L257.609765625,136.80440713092685L257.8359375,136.92378447763622L258.062109375,137.00414597429335L258.28828125,136.8651796542108L258.514453125,136.9075995348394L258.740625,136.8454917743802L258.966796875,136.80759411677718L259.419140625,136.89900016784668L259.6453125,136.8799194637686L259.871484375,137.1080114915967L260.09765625,137.26391004770994L260.323828125,136.9050609357655L260.55,136.90007440187037L260.776171875,136.92945786193013L261.00234375,137.02681478485465L261.228515625,136.9781280811876L261.45468750000003,136.88513952679932L261.680859375,136.87303722277284L261.90703125,137.1904170550406" style="fill: none;" fill="none"></path></g><g><path stroke="rgb(238, 51, 119)" stroke-width="2px" d="M22.6171875,-124.2044864743948L24.87890625,10.696756228804588L27.140625,31.665144994854927L29.40234375,63.7016718685627L31.6640625,53.27217275649309L33.92578125,41.12061331421137L36.1875,66.26930548250675L38.44921875,12.467192806303501L40.7109375,48.44046043604612L42.97265625,30.236331321299076L45.234375,69.25928065925837L47.49609375,42.097050830721855L49.7578125,59.9542930200696L52.01953125,7.23990960419178L54.28125,64.17957688122988L56.54296875,19.005920685827732L58.8046875,88.99237722530961L61.06640625,24.693327717483044L63.328125,66.18644385039806L65.58984375,67.11730746924877L67.8515625,79.10458878055215L70.11328125,66.34084782004356L72.375,58.36829500645399L74.63671875,60.81071304529905L76.8984375,-45.722432300448446L79.16015625,80.0332379937172L81.421875,67.44389659166336L83.68359375,60.33363225311041L85.9453125,77.1387624964118L88.20703125,89.08194801211357L90.46875,85.11332091316581L92.73046875,45.09920249134302L94.9921875,95.14937013760209L97.25390625,81.03607803955676L99.515625,21.5914343893528L101.77734375,55.664258398115635L104.0390625,-12.747371062636404L106.30078125,50.785213842988014L108.5625,44.427759520709515L110.82421875,77.11615687608719L113.0859375,85.007232747972L115.34765625,81.21583503112197L117.609375,70.23205314204097L119.87109375,69.38766124099493L122.1328125,-21.194444090127973L124.39453125,70.27190145477653L126.65625,6.646327994763851L128.91796875,91.06869301199912L131.1796875,43.284499779343605L133.44140625,57.100918650627136L135.703125,60.463265649974346L136.15546875,99.44426766037941L136.6078125,13.817002199590206L137.06015625,90.63639486581087L137.51250000000002,-13.664541631937055L137.96484375,89.9160481467843L138.4171875,-0.5846681594848633L138.86953125000002,55.78797938674688L139.321875,94.1554316729307L139.77421875000002,61.87889179587364L140.2265625,30.946051090955734L140.67890624999998,83.51509696245193L141.13125,20.43965770304203L141.58359374999998,78.90395153686406L142.0359375,30.588526226580143L142.48828125,14.394242264330387L142.94062499999998,68.79582697898151L143.39296875,99.19027587771416L143.8453125,10.630807600915432L144.29765625,102.90715856850147L144.75,38.56283737719059L145.20234375,77.47526424378158L145.6546875,66.9203077852726L146.10703125,60.431154020130634L146.55937500000002,30.669036082923412L147.01171875,97.55387952923775L147.4640625,81.73447851464152L147.91640625000002,70.90112785249949L148.36874999999998,75.9126960709691L148.82109375,10.070084914565086L149.2734375,72.27097129821779L149.72578124999998,58.021616883575916L150.178125,39.20128954946995L150.63046875,30.030353128910065L151.0828125,53.57029879838228L151.53515625,7.1603668332099915L151.9875,74.4226538054645L152.43984375,81.64501762390137L152.8921875,91.49781516194342L153.34453125,11.975627712905407L153.796875,20.464472234249115L154.24921875,68.62432318180801L154.7015625,100.63237598538399L155.15390625,71.93054626137018L155.60625000000002,65.25980024039745L156.05859375,32.8236692994833L156.5109375,46.90758617967367L156.96328125000002,64.85560251772404L157.41562499999998,97.59977212548256L157.86796875,37.200225092470646L158.3203125,94.29588983207941L158.77265624999998,87.88920207321642L159.225,59.71936820447445L159.67734375,84.87031873688102L160.1296875,65.47171282023191L160.58203125,17.10772993415594L161.034375,39.263446763157845L161.48671875,33.80119478702545L161.9390625,45.88165147602558L162.39140625000002,-23.528218880295782L162.84375,41.971362702548504L163.29609375,76.86212113499641L163.74843750000002,65.859667904675L164.20078125,89.3733539097011L164.65312500000002,83.37117707729341L165.10546875,54.33197742700577L165.55781249999998,78.62389790266754L166.01015625,41.26593986898661L166.46249999999998,72.72419365495445L166.91484375,57.84498094022274L167.3671875,34.761664405465126L167.81953124999998,88.73607213050127L168.271875,35.557322897017L168.72421875,70.38136892393231L169.1765625,13.170879282057285L169.62890625,107.9633171148598L170.08125,114.98468103259802L170.53359375,61.29100280255079L170.9859375,37.59018028527498L171.43828125000002,80.70596674829721L171.890625,101.4340348020196L172.34296875,64.48552752286196L172.79531250000002,74.81238920614125L173.24765625,7.773092336952686L173.70000000000002,77.79009448736906L174.15234375,38.14617744088173L174.60468749999998,82.1898273602128L175.05703125,97.60911878570914L175.50937499999998,76.66520936787128L175.96171875,71.97793344408274L176.4140625,61.11415805667639L176.86640624999998,21.868570283055305L177.31875,-7.034962676465511L177.77109375,59.9624473080039L178.2234375,21.606764890253544L178.67578125,75.05408911406994L179.128125,73.41847302764654L179.58046875,50.281900860369205L180.0328125,43.74456866085529L180.48515625000002,77.83518484234811L180.9375,75.35419328510761L181.38984375,43.64169495552778L181.84218750000002,63.279033586382866L182.29453124999998,100.46509769186378L182.746875,97.51276191696523L183.19921875,84.34134502336383L183.65156249999998,49.60498506575823L184.10390625,19.194799050688744L184.55625,9.778607584536076L185.00859375,91.56455504149199L185.4609375,60.31899409741163L185.91328125,68.20078375190496L186.365625,71.72301853448153L186.81796875,97.40648692846297L187.2703125,37.72734156250954L187.72265625,90.85023062676191L188.175,76.08252395316958L188.62734375,89.8948986493051L189.0796875,60.931192100048065L189.53203125000002,-23.423949494957924L189.984375,101.6446890719235L190.43671875,32.34202782064676L190.88906250000002,65.25034917891026L191.34140624999998,50.76793818175793L191.79375,23.490658164024353L192.24609375,80.2819163016975L192.69843749999998,92.70866647735238L193.15078125,79.74892039224505L193.603125,73.78955357149243L194.05546875,90.6905461512506L194.5078125,24.118296563625336L194.96015625,66.56467313319445L195.4125,68.51249294728042L195.86484375,80.24739245325327L196.31718750000002,101.57861406356096L196.76953125,102.77500855177641L197.221875,84.7506309337914L197.67421875000002,63.30383712798357L198.1265625,83.7654347009957L198.57890625000002,95.56854669377208L199.03125,36.75945395976305L199.48359374999998,46.853033773601055L199.9359375,53.5502097979188L200.38828124999998,93.21733689308165L200.840625,94.63492468371987L201.29296875,37.243886798620224L201.74531249999998,37.64959009736776L202.19765625,54.81251994520426L202.65,61.67463897168636L203.10234375,87.17848224937916L203.5546875,110.91846073418854L204.00703125,81.24011107161641L204.459375,36.99064230918884L204.91171875,62.095101311802864L205.36406250000002,56.353603437542915L205.81640625,87.10043955966829L206.26875,83.06995196640491L206.72109375000002,58.26637739688158L207.1734375,24.97754091769457L207.62578125000002,89.94582448527215L208.078125,75.48647517710924L208.53046874999998,58.88636703044176L208.9828125,97.98373248800635L209.43515624999998,16.7618210837245L209.8875,81.28929505497219L210.33984375,78.82975520938636L210.79218749999998,93.34290963038802L211.24453125,42.834156699478626L211.696875,-17.626877181231976L212.14921875,88.3229563422501L212.6015625,101.83051782101393L213.05390625,59.864661790430546L213.50625,54.67355637252331L213.95859375,33.28481516242027L214.41093750000002,21.660921670496464L214.86328125,53.50849325209856L215.315625,80.64832626283169L215.76796875000002,55.70717281103134L216.22031249999998,93.06518579274415L216.67265625,56.22879447788L217.125,94.39012570679188L217.57734374999998,84.83966322988272L218.0296875,17.388151720166206L218.48203125,18.77307290583849L218.934375,90.06154504045843L219.38671875,73.82409390434623L219.8390625,109.90033414587377L220.29140625,25.512569904327393L220.74375,56.90077593922615L221.19609375,26.819278061389923L221.6484375,90.02935098856686L222.10078125,74.99223411455752L222.553125,49.136717937886715L223.00546875,37.55898079276085L223.45781250000002,94.81784668192267L223.91015625,88.52412108704448L224.3625,-10.029465571045904L224.81484375000002,106.40418868884443L225.26718749999998,43.45515737682581L225.71953125,70.04180657118559L226.171875,54.291997238993645L226.62421874999998,20.68881405889988L227.0765625,28.92026001960039L227.52890625,90.52509213238955L227.98125,69.68801817297935L228.43359375,93.52838671207428L228.8859375,-8.679579250514536L229.33828125,91.1683742366731L229.790625,83.27623237296939L230.24296875000002,93.63817837461829L230.6953125,101.51922073587775L231.14765625,22.76702555269003L231.60000000000002,40.74673591554165L232.05234375,22.561893559992313L232.50468750000002,63.71788153797388L232.95703125,97.17049612104891L233.40937499999998,19.833339139819145L233.86171875,94.06621255353093L234.31406249999998,92.66244968771935L234.76640625,65.62838064879179L235.21875,82.8226858228445L235.67109374999998,85.95803151279688L236.1234375,101.31672075390814L236.57578125,69.3772760629654L237.028125,76.89309534057975L237.48046875,80.89313073456287L237.9328125,50.70846243202686L238.38515625,77.37812711298466L238.8375,45.78807497769594L239.28984375000002,80.43025400862098L239.7421875,100.09169834107159L240.19453125,90.14797279983758L240.64687500000002,55.59235340356827L241.09921875,43.03789301216602L241.55156250000002,48.21279975026846L242.00390625,59.04189193993807L242.45624999999998,89.80813021212815L242.90859375,30.78302028030157L243.36093749999998,76.45781901106238L243.81328125,72.94260109215975L244.265625,101.31387994065881L244.71796874999998,68.14506644755602L245.1703125,100.7433490306139L245.62265625,44.01522068679333L246.075,88.20974691212177L246.52734375,99.55520773679018L246.9796875,89.88217268511653L247.43203125,63.78012666851282L247.884375,70.76534027606249L248.33671875000002,91.73015192523599L248.7890625,38.88796488195658L249.015234375,81.23928685113788L249.24140625,101.1824277639389L249.46757812500002,66.18982864916325L249.69375000000002,19.374698907136917L249.919921875,104.15860548987985L250.14609374999998,24.773244135081768L250.37226562499998,87.5146048553288L250.5984375,74.08715211227536L250.824609375,90.26376478746533L251.05078125,90.73943341523407L251.27695312499998,68.41888348013163L251.50312499999998,82.68685428798199L251.729296875,80.47992702946068L251.95546875,65.82251204550266L252.181640625,22.97255317121744L252.4078125,82.96422096341848L252.63398437499998,65.04335994273424L252.86015625,8.811994776129723L253.086328125,91.2057334035635L253.3125,69.41870687901975L253.538671875,84.18328151479365L253.76484375,104.97689707577229L253.991015625,88.34573230147362L254.2171875,46.319488383829594L254.443359375,109.93989123404026L254.66953125,59.81266996264458L254.895703125,20.584654569625854L255.121875,86.63304061070083L255.348046875,68.33220845460892L255.57421875,105.74311441183089L255.800390625,89.68208492174745L256.0265625,50.85521763563156L256.252734375,58.17665825039148L256.47890624999997,81.00025741755964L256.705078125,70.30069971829653L256.93125,87.57320143654943L257.157421875,85.46458170190454L257.38359375,36.84755763411522L257.609765625,-148.20152284204966L257.8359375,90.68226548284291L258.062109375,10.08703088760376L258.28828125,14.561449125409126L258.514453125,92.18045104667543L258.740625,63.80951287597418L258.966796875,57.27147734165192L259.19296875,-0.07427787035703659L259.419140625,33.450219728052616L259.6453125,45.03573751449585L259.871484375,46.88016711175442L260.09765625,75.96936397626997L260.323828125,97.12953236326574L260.55,70.15257081389427L260.776171875,30.31864347308874L261.00234375,81.93009350821377L261.228515625,84.02182771265507L261.45468750000003,106.5181179381907L261.680859375,40.1992886736989L261.90703125,75.22225207090378" style="fill: none;" fill="none"></path></g><g><path stroke="rgb(255, 112, 67)" stroke-width="2px" d="M27.140625,-3.801446832716465L29.40234375,47.91208016127348L31.6640625,43.47401554137468L33.92578125,53.34157212078571L36.1875,4.959632217884064L38.44921875,-11.069675773382187L40.7109375,68.18527741730215L42.97265625,67.64794061332941L45.234375,66.97539868205786L47.49609375,72.29782989621162L49.7578125,83.08446374163033L52.01953125,88.54691353067756L54.28125,47.35436862707138L56.54296875,83.71483855322003L58.8046875,53.30965830385685L61.06640625,35.60694096982479L63.328125,70.82567870989442L65.58984375,24.091273121535778L67.8515625,64.94622281193733L70.11328125,77.87520349398255L72.375,55.93610829114914L74.63671875,76.61842661350965L76.8984375,48.30410140007734L79.16015625,54.790123127400875L81.421875,57.86923500150442L83.68359375,66.71257125586271L85.9453125,80.06243737787008L88.20703125,63.71377142518759L90.46875,48.395600862801075L92.73046875,50.576894864439964L94.9921875,70.00045268237591L97.25390625,44.85787073522806L99.515625,93.26634504273532L101.77734375,62.30087070167065L104.0390625,65.59655474871397L106.30078125,79.57785617932677L108.5625,47.383710876107216L110.82421875,70.30283170193435L113.0859375,68.86065466701984L115.34765625,88.04899644479156L117.609375,58.586185932159424L119.87109375,93.66911961138248L122.1328125,84.72281624004246L124.39453125,80.37946004793048L126.65625,61.845252610743046L128.91796875,36.561432242393494L131.1796875,47.86482485383749L133.44140625,71.05414163693787L135.703125,89.14313814043999L136.15546875,44.63328713923693L136.6078125,73.0055825263262L137.06015625,89.19420684129L137.51250000000002,49.92599146813154L137.96484375,73.04557919874787L138.4171875,76.06363831460477L138.86953125000002,51.36441005766392L139.321875,86.2677790634334L139.77421875000002,53.03821502625942L140.2265625,82.61097655072808L140.67890624999998,60.192690551280975L141.13125,84.50163942202926L141.58359374999998,41.8406413346529L142.0359375,72.7793999426067L142.48828125,40.805288538336754L142.94062499999998,68.31303159147502L143.39296875,51.36486063152552L143.8453125,86.49725852906703L144.29765625,80.21230813488364L144.75,83.36063254997134L145.20234375,80.46144800633193L145.6546875,80.15262358263135L146.10703125,84.15841753035784L146.55937500000002,58.65827775001526L147.01171875,83.50300839543343L147.4640625,43.57566940039396L147.91640625000002,88.95833691954613L148.36874999999998,80.68394357711077L148.82109375,55.73295442759991L149.2734375,24.560309521853924L149.72578124999998,27.468719840049744L150.178125,71.62466705217959L150.63046875,76.99199080839755L151.0828125,35.363301396369934L151.53515625,99.9176669344306L151.9875,84.1006176955998L152.43984375,76.16262169927359L152.8921875,73.77226142585278L153.34453125,56.8672246709466L153.796875,70.51401347294451L154.24921875,81.38937190547587L154.7015625,69.18368315696716L155.15390625,79.76691037788989L155.60625000000002,72.58215299248695L156.05859375,50.160509668290615L156.5109375,27.64537776261568L156.96328125000002,80.6632281690836L157.41562499999998,85.03977846726775L157.86796875,75.95357191190125L158.3203125,66.20062044262886L158.77265624999998,83.33521359041333L159.225,74.3413746766746L159.67734375,64.82173255085945L160.1296875,61.784930661320686L160.58203125,78.89398945868015L161.034375,89.94664321094751L161.48671875,92.14483922719955L161.9390625,86.10052274912596L162.39140625000002,79.58242236077785L162.84375,70.34132279828192L163.29609375,78.56751023232937L163.74843750000002,63.59980920702219L164.20078125,74.50708145648242L164.65312500000002,61.521674640476704L165.10546875,75.57938680425286L165.55781249999998,66.40241159498692L166.01015625,51.07375694811344L166.46249999999998,87.9907460361719L166.91484375,72.0476460121572L167.3671875,67.86478752642871L167.81953124999998,96.45084724202752L168.271875,73.03132567927241L168.72421875,37.20676390826702L169.1765625,56.533151626586914L169.62890625,40.37385857105255L170.08125,93.21328172832726L170.53359375,70.85209222882987L170.9859375,67.61129027605058L171.43828125000002,74.69049798697233L171.890625,70.53023413196208L172.34296875,91.44222423806787L172.79531250000002,78.33150843530893L173.24765625,58.30035725980997L173.70000000000002,72.47852100431919L174.15234375,99.7636036425829L174.60468749999998,81.52812667563558L175.05703125,82.64681915193798L175.50937499999998,50.86535005271435L175.96171875,63.22978916019201L176.4140625,99.98113191127777L176.86640624999998,84.4260199405253L177.31875,38.86066669970751L177.77109375,26.804530009627342L178.2234375,65.84981022775173L178.67578125,89.7716612033546L179.128125,82.86580903828144L179.58046875,78.20442462712526L180.0328125,66.77264044433832L180.48515625000002,85.00388641282915L180.9375,78.810825612396L181.38984375,82.5204661525786L181.84218750000002,73.36593171954156L182.29453124999998,75.14230268448591L182.746875,86.22107873111962L183.19921875,77.83531671762468L183.65156249999998,86.32072149217129L184.10390625,74.11859337612988L184.55625,85.3266181834042L185.00859375,93.64790967106818L185.4609375,76.01510821282865L185.91328125,87.08755424618721L186.365625,90.57949617877603L186.81796875,77.13221269100904L187.2703125,50.29515432566404L187.72265625,95.12058835849166L188.175,88.1201266720891L188.62734375,71.37003237754108L189.0796875,72.48895014077425L189.53203125000002,72.90784646198155L189.984375,76.51881682127714L190.43671875,62.61301948130131L190.88906250000002,81.39720200002195L191.34140624999998,73.20995074138045L191.79375,37.640567630529404L192.24609375,96.01377960667014L192.69843749999998,58.381680347025394L193.15078125,80.5686681009829L193.603125,73.07682264968753L194.05546875,77.26514846459031L194.5078125,73.15978318825364L194.96015625,63.95270744711161L195.4125,92.65601527318358L195.86484375,73.5311604514718L196.31718750000002,65.18993931263685L196.76953125,64.03837142884731L197.221875,77.99755627661945L197.67421875000002,83.10330542176963L198.1265625,79.18254355341196L198.57890625000002,67.17632165551186L199.03125,71.86288325488569L199.48359374999998,54.11024013906717L199.9359375,12.889446452260017L200.38828124999998,92.98456054553388L200.840625,77.18349568918347L201.29296875,51.170751214027405L201.74531249999998,66.85376571863891L202.19765625,72.33143061771989L202.65,91.07008319720626L203.10234375,80.22337466850877L203.5546875,87.46262401714921L204.00703125,76.77841330319643L204.459375,78.39390742033721L204.91171875,77.3233274407685L205.36406250000002,90.60852522403002L205.81640625,60.45178151130676L206.26875,44.8056481257081L206.72109375000002,84.88911096379161L207.1734375,65.76503640413284L207.62578125000002,82.5897666104138L208.078125,48.292045801877975L208.53046874999998,81.46523865312338L208.9828125,34.66174690425396L209.43515624999998,35.510595090687275L209.8875,87.37620175257325L210.33984375,71.49958335235716L210.79218749999998,86.91317117214203L211.24453125,53.985332272946835L211.696875,62.95252139121294L212.14921875,53.39249795675278L212.6015625,69.82184959948064L213.05390625,85.32418398559093L213.50625,62.35481867939234L213.95859375,44.27893827110529L214.41093750000002,55.738592095673084L214.86328125,76.50174996256828L215.315625,85.09010536968708L215.76796875000002,70.7527406923473L216.22031249999998,68.18359600752594L216.67265625,48.76341199874878L217.125,89.71372399851678L217.57734374999998,67.35936453938484L218.0296875,76.60992615297437L218.48203125,83.91984966024756L218.934375,80.98486097902061L219.38671875,80.44883193820715L219.8390625,75.5186692290008L220.29140625,70.95454832911491L220.74375,81.89075621217489L221.19609375,75.46495752781631L221.6484375,45.47635479271412L222.10078125,83.0526982843876L222.553125,86.45695414766668L223.00546875,51.525858364999294L223.45781250000002,72.80073076859118L223.91015625,87.73793014138937L224.3625,80.2508047260344L224.81484375000002,76.8212343044579L225.26718749999998,73.33793020248413L225.71953125,64.42845849692822L226.171875,72.75359634682536L226.62421874999998,88.21314819529653L227.0765625,55.4938425719738L227.52890625,81.6574413739145L227.98125,82.87441390007734L228.43359375,89.31181211397052L228.8859375,55.97300039976835L229.33828125,61.40848169475794L229.790625,81.2201484516263L230.24296875000002,75.19273948296905L230.6953125,89.30916361883281L231.14765625,68.69239280372858L231.60000000000002,86.12134255841374L232.05234375,89.48337635397911L232.50468750000002,72.4133251644671L232.95703125,66.16851980239153L233.40937499999998,57.450992561876774L233.86171875,79.1653667986393L234.31406249999998,90.13354344666004L234.76640625,70.33988865464927L235.21875,61.43315336108208L235.67109374999998,76.28731526806952L236.1234375,76.67587478086352L236.57578125,62.02778997272253L237.028125,91.50883224233985L237.48046875,69.07700704783201L237.9328125,66.13404540717602L238.38515625,46.35050105303526L238.8375,75.35017108917236L239.28984375000002,74.6670131981373L239.7421875,92.42815127968788L240.19453125,60.507158137857914L240.64687500000002,89.71227337047456L241.09921875,76.30877247452736L241.55156250000002,90.93208670988678L242.00390625,74.8221369870007L242.45624999999998,96.92787858098744L242.90859375,59.439836576581L243.36093749999998,55.67156648635864L243.81328125,71.46493312343956L244.265625,65.9933784455061L244.71796874999998,57.24664083123207L245.1703125,88.15389223769306L245.62265625,79.74770054593682L246.075,79.2871426269412L246.52734375,78.5964623503387L246.9796875,85.3460203334689L247.43203125,82.20209725573659L247.884375,76.94764225184917L248.33671875000002,74.4326158836484L248.7890625,60.072706028819084L249.015234375,67.75006702542305L249.24140625,73.18837814405562L249.46757812500002,57.00718829780817L249.69375000000002,80.75114502012731L249.919921875,90.38755720853804L250.14609374999998,57.51639170944691L250.37226562499998,37.06913007795811L250.5984375,69.49312849342823L250.824609375,78.23086562007666L251.05078125,80.18532315641642L251.27695312499998,77.24116914346816L251.50312499999998,80.63292432948947L251.729296875,42.17103286087513L251.95546875,83.6364991441369L252.181640625,85.15562540292738L252.4078125,78.20204537734391L252.63398437499998,80.91813208907844L252.86015625,78.98119198530912L253.086328125,77.70032588765027L253.3125,81.86104581132531L253.538671875,87.5524036064744L253.76484375,67.05638109147549L253.991015625,80.42705053836107L254.2171875,84.07037979364397L254.443359375,60.310279339551926L254.66953125,85.81788655743001L254.895703125,82.58176068216562L255.121875,42.48054413497448L255.348046875,68.76344060897827L255.57421875,64.19720420986414L255.800390625,70.86510941758752L256.0265625,74.61920291557908L256.252734375,68.2126305475831L256.47890624999997,74.6368577182293L256.705078125,66.40026862174273L256.93125,67.53730824589731L257.157421875,105.98496267944574L257.38359375,56.944382697343826L257.609765625,53.901998087763786L257.8359375,74.74672630801797L258.062109375,89.91428431496024L258.28828125,64.35464131087065L258.514453125,60.78054657578468L258.740625,69.77101168036462L258.966796875,58.301643043756485L259.19296875,87.91145602613686L259.419140625,89.71914187446237L259.6453125,57.38671435415745L259.871484375,80.82850085943937L260.09765625,80.64448539540172L260.323828125,87.00285185500978L260.55,67.72003243118525L260.776171875,73.4083790741861L261.00234375,68.445005774498L261.228515625,66.74929852038622L261.45468750000003,59.85341942310333L261.680859375,75.65591292828323" style="fill: none;" fill="none"></path></g><g><path stroke="rgb(51, 187, 238)" stroke-width="2px" d="M25.78359375,-28.60434004664421L26.2359375,4.153456673026085L26.68828125,-181.02497147023678L28.0453125,-20.21408328413966L28.49765625,13.135943323373795L28.950000000000003,40.01371818035841L29.40234375,43.74075526744127L29.8546875,44.1595142185688L30.307031249999998,46.692244842648506L30.759375,70.1500761732459L31.211718750000003,60.07146420329809L31.6640625,43.15088814496994L32.11640625,74.86988133192062L32.56875,65.88925192505121L33.02109375,38.492174208164215L33.4734375,35.23771217465401L33.92578125,54.06012753397226L34.378125000000004,42.20638642460108L34.83046875,71.513501688838L35.2828125,39.111900091171265L35.735156249999996,20.558850973844528L36.1875,12.19614515453577L36.639843750000004,78.91578734293581L37.092187499999994,82.22434021905066L37.54453125,70.92371149361134L37.996875,53.519526816904545L38.44921875,-11.983472533524036L38.901562500000004,88.45360078290105L39.353906249999994,51.7284078001976L39.80625,48.06338506191969L40.25859375,88.57316220551729L40.7109375,68.55160495638847L41.163281250000004,59.908356465399265L41.615624999999994,42.94686610251665L42.06796875,66.82764342427254L42.5203125,-7.99411354213953L42.97265625,67.37720067054033L43.425000000000004,3.4472206085920334L43.877343749999994,88.58225060999392L44.3296875,39.522405847907066L44.78203125,46.0003282353282L45.234375,68.11135033518076L45.68671875,78.59013783186676L46.1390625,-5.720320023596287L46.59140625,27.14652656018734L47.04375,-15.49079442024231L47.49609375,71.71593023836613L47.9484375,49.80287490785122L48.40078125,57.28992889076471L48.853125,100.87229557707906L49.30546875,20.326179027557373L49.7578125,85.58418708294629L50.21015625,39.515493385493755L50.6625,67.65494099259378L51.11484375,76.18622187897563L51.5671875,65.53211169689894L52.01953125,88.5799647718668L52.471875,73.09530167281628L52.92421875,59.198801539838314L53.3765625,99.64660829305649L53.82890625,75.81475120410323L54.28125,47.95742327719927L54.73359375,53.372507862746716L55.1859375,-11.734283208847074L55.63828125,84.04677961394191L56.090625,-0.008076481521129608L56.54296875,81.24089682847263L56.9953125,82.35108334943652L57.44765625,46.55296257138252L57.900000000000006,41.68530324846506L58.352343749999996,46.36596342921257L58.8046875,51.160047337412834L59.25703125,90.24350544810295L59.709375,48.00660176575184L60.161718750000006,84.44096580520274L60.614062499999996,66.54354012012482L61.06640625,39.145846985280514L61.51875,52.332077868282795L61.97109375,71.97770266234875L62.423437500000006,59.93300615251064L62.875781249999996,66.26848126202822L63.328125,71.20568281412126L63.78046875,56.309919752180576L64.2328125,92.86853228136897L64.68515625,40.26172062754631L65.1375,76.57107239961624L65.58984375,26.99948562681675L66.0421875,72.63905717432499L66.49453125,40.77592431008816L66.946875,84.95839493721724L67.39921875,87.12492440268397L67.8515625,65.83663368970156L68.30390625,83.33773021027447L68.75625000000001,48.47451722621918L69.20859375,75.40750936046244L69.6609375,38.69958104938269L70.11328125,77.77451122552156L70.565625,-4.102441161870956L71.01796875,82.14047303795815L71.47031249999999,73.32452288269998L71.92265625,89.05540811270475L72.375,53.160133719444275L72.82734375,62.064923852682114L73.27968750000001,0.153701514005661L73.73203125,48.526003532111645L74.18437499999999,44.17116320133209L74.63671875,77.40415599569678L75.0890625,64.02559051662683L75.54140625,88.04031465575098L75.99375,24.498547933995724L76.44609375,71.311683062464L76.8984375,49.86659264564514L77.35078125,88.23725389689206L77.80312500000001,49.64873468875885L78.25546875,75.4259773939848L78.70781249999999,73.40613719448449L79.16015625,52.03784214705229L79.6125,34.938586078584194L80.06484375,42.7019847035408L80.5171875,50.33315638452768L80.96953125,37.603082083165646L81.421875,56.22821202874184L81.87421875000001,86.96586083993314L82.32656250000001,78.71723812445998L82.77890624999999,41.88688559830189L83.23124999999999,52.54643014073372L83.68359375,65.58475191146135L84.1359375,71.40103955194355L84.58828125,48.575434781610966L85.040625,67.1098125576973L85.49296875,76.57501766830684L85.9453125,78.5882476195693L86.39765625000001,69.92486616969109L86.85000000000001,76.16999023035169L87.30234374999999,45.349897392094135L87.75468749999999,80.65887079015374L88.20703125,63.44025111198425L88.659375,84.53878429159523L89.11171875,75.2075699567795L89.5640625,82.27849150449039L90.01640625,38.22556635737419L90.46875,50.65991035103798L90.92109375000001,62.360665149986744L91.3734375,40.507657028734684L91.82578124999999,63.51381553709507L92.278125,53.52923063933849L92.73046875,51.77109143137932L93.1828125,78.68961574882269L93.63515625,86.13964574784039L94.0875,41.33403147011995L94.53984375,79.44007948413491L94.9921875,71.49948994070292L95.44453125000001,44.542051427066326L95.896875,74.76643067225815L96.34921874999999,76.37211107090117L96.8015625,64.49273670464754L97.25390625,45.65190276503563L97.70625,65.11990255117416L98.15859375000001,-28.98315177857876L98.6109375,79.73142493888736L99.06328125,72.06424031779171L99.515625,92.77310403436422L99.96796875,72.23950256034733L100.4203125,51.85908520966768L100.87265624999999,57.189516857266426L101.325,-2.2468021661043167L101.77734375,60.86239716410637L102.2296875,39.512658067047596L102.68203125000001,68.82516922801734L103.134375,54.91288802027702L103.58671875,84.89673775061964L104.0390625,63.93338771909475L104.49140625,56.15780162066221L104.94375,43.55001965910196L105.39609374999999,52.024237014353275L105.8484375,71.23363487794995L106.30078125,78.70262744277717L106.753125,76.80153543502092L107.20546875000001,66.80795004963875L107.6578125,72.24786015599967L108.11015624999999,36.303187482059L108.5625,47.218822821974754L109.01484375,79.5605145804584L109.4671875,75.68442546203732L109.91953125,78.6990613155067L110.371875,87.43874909728764L110.82421875,67.3227801397443L111.2765625,56.56155975908041L111.72890625000001,61.50825633108616L112.18125,60.22467030584812L112.63359374999999,59.82646191865206L113.0859375,67.39828972518444L113.53828125,44.71266506612301L113.990625,78.69708318635821L114.44296875,-14.420813374221353L114.8953125,73.52376444637775L115.34765625,88.61363143101335L115.80000000000001,95.8538203909993L116.25234375000001,58.858409471809864L116.70468749999999,42.1703185364604L117.15703124999999,90.28360102698207L117.609375,56.960823148489L118.06171875,91.50024935975671L118.5140625,80.55856865271926L118.96640625,57.79794542491436L119.41875,67.14700138568878L119.87109375,92.36332359164953L120.32343750000001,9.926428779959679L120.77578125000001,39.28260164707899L121.22812499999999,69.14982417970896L121.68046874999999,79.5397716984153L122.1328125,86.41876526549459L122.58515625,76.20915718749166L123.0375,85.83592599630356L123.48984375,39.33167023956776L123.9421875,60.295278526842594L124.39453125,79.22530960664153L124.84687500000001,84.86209851130843L125.29921875,96.94349481165409L125.75156249999999,84.25088407844306L126.20390625,74.81755432114005L126.65625,63.22999796271324L127.10859375,50.11003440618515L127.5609375,47.154709458351135L128.01328125,81.15123263001442L128.465625,50.21769957989454L128.91796875,35.888967238366604L129.3703125,55.22724571079016L129.82265625,9.546825796365738L130.275,68.3242300003767L130.72734375000002,66.19981820136309L131.1796875,44.02425414323807L131.63203124999998,60.653034172952175L132.084375,22.901406459510326L132.53671875,82.28715680912137L132.9890625,72.88681235536934L133.44140625,70.40109526738526L133.89375,51.09606584906578L134.34609375,69.23587279766798L134.7984375,84.12618501484394L135.25078125000002,70.66626897454262L135.703125,89.79267333075404L135.929296875,52.186015009880066L136.15546875,43.76112999767065L136.381640625,54.160374723374844L136.6078125,71.86124580353498L136.833984375,84.2518127001822L137.06015625,89.74484656378625L137.286328125,65.87070146948099L137.51250000000002,45.594822749495506L137.738671875,52.59712519496679L137.96484375,75.10009160637857L138.191015625,84.02749834954739L138.4171875,76.37529256194831L138.64335937500002,60.82440609484911L138.86953125000002,49.28291267156601L139.095703125,67.02113742381334L139.321875,86.34266224130988L139.548046875,95.11826955154537L139.77421875000002,52.83999549597502L140.00039062500002,94.47762495279312L140.2265625,82.67023800313473L140.45273437499998,44.52202836424112L140.67890624999998,58.18676868826151L140.905078125,11.897942185401917L141.13125,84.04309260100126L141.357421875,66.83745714277029L141.58359374999998,42.30422689020634L141.80976562499998,74.48766831681132L142.0359375,72.71728119254112L142.262109375,69.29080983996391L142.48828125,43.78837323188782L142.714453125,79.93791414797306L142.94062499999998,68.23016995936632L143.166796875,79.6063577234745L143.39296875,47.76442380994558L143.619140625,40.375814720988274L143.8453125,89.20252047851682L144.071484375,68.59866245090961L144.29765625,80.57135505974293L144.523828125,28.265257500112057L144.75,83.62523479759695L144.976171875,74.69769617915154L145.20234375,79.40908879414201L145.42851562500002,83.15626433491707L145.6546875,80.32091291993856L145.880859375,87.03099074214695L146.10703125,82.52933476492764L146.333203125,78.62193625792862L146.55937500000002,57.27765350043774L146.78554687500002,62.122443452477455L147.01171875,81.19313050433993L147.237890625,41.32073404639959L147.4640625,43.1005667373538L147.69023437500002,80.2449527606368L147.91640625000002,88.16238720342517L148.142578125,91.48937514424323L148.36874999999998,78.7275738492608L148.59492187499998,44.10651134699583L148.82109375,54.97926524281502L149.047265625,76.43335614725947L149.2734375,17.975557170808315L149.49960937499998,83.71985530853273L149.72578124999998,26.02277337014675L149.951953125,43.11377624422312L150.178125,73.43774330243468L150.404296875,66.01506093889475L150.63046875,78.02803045511246L150.85664062499998,92.16077415645123L151.0828125,34.692759573459625L151.308984375,43.79319766908884L151.53515625,98.71301925182343L151.761328125,38.21936821937561L151.9875,83.27297395467758L152.213671875,62.26030806452036L152.43984375,77.0077553987503L152.666015625,86.35161327570677L152.8921875,70.06554961577058L153.118359375,74.31796132028103L153.34453125,53.38516788929701L153.570703125,80.92547314614058L153.796875,69.30660190433264L154.023046875,56.943888165056705L154.24921875,78.34969073906541L154.47539062500002,97.41409723088145L154.7015625,68.60535512119532L154.927734375,88.26842042058706L155.15390625,79.07116389274597L155.380078125,94.25897574424744L155.60625000000002,68.7440769225359L155.83242187500002,78.71768320351839L156.05859375,43.97330632805824L156.284765625,77.55853798612952L156.5109375,29.456728644669056L156.73710937500002,57.51788629591465L156.96328125000002,82.24131366610527L157.189453125,77.22794315218925L157.41562499999998,84.45202134922147L157.64179687499998,75.98765617609024L157.86796875,74.82336782291533L158.094140625,91.8244702219963L158.3203125,64.81452336907387L158.54648437499998,74.92358753830194L158.77265624999998,83.29937648400664L158.998828125,34.21922842413187L159.225,72.85783825814724L159.451171875,87.44561760127544L159.67734375,65.85188726335764L159.90351562499998,82.1219940148294L160.1296875,61.04460483789444L160.355859375,89.35989713668823L160.58203125,79.48330160602927L160.808203125,70.9084908887744L161.034375,89.97041372954845L161.260546875,45.10986240953207L161.48671875,88.83553905785084L161.712890625,32.99515111744404L161.9390625,86.76613573357461L162.165234375,59.1571839004755L162.39140625000002,80.38333937898278L162.617578125,76.63076244667172L162.84375,69.53916395455599L163.069921875,101.91128043830393L163.29609375,77.5139476582408L163.52226562500002,77.0740831680596L163.74843750000002,62.80792015045881L163.974609375,78.06177953630687L164.20078125,73.30556581169368L164.426953125,80.7837127186358L164.65312500000002,61.26025388389826L164.87929687500002,90.637669660151L165.10546875,76.34172480925918L165.33164062499998,83.68230382353069L165.55781249999998,67.47714015096427L165.783984375,84.59609508886933L166.01015625,47.89073834568262L166.236328125,88.0686623454094L166.46249999999998,86.48714259639382L166.68867187499998,78.11740892380476L166.91484375,70.42229421809317L167.141015625,47.272968612611294L167.3671875,64.99290665984154L167.593359375,59.00299972295761L167.81953124999998,95.76510679349303L168.045703125,96.72183994576334L168.271875,71.39811631664634L168.498046875,76.33626297488809L168.72421875,37.244853883981705L168.950390625,79.24268417432904L169.1765625,55.1972990334034L169.402734375,75.05195163562894L169.62890625,40.73554849624634L169.855078125,75.99366199597718L170.08125,93.89612092077732L170.307421875,22.799455881118774L170.53359375,70.12974540144207L170.759765625,71.68467030301692L170.9859375,67.27565670758486L171.212109375,83.273303642869L171.43828125000002,72.00306667387487L171.664453125,102.46054096519946L171.890625,69.49327135831118L172.116796875,76.94978522509336L172.34296875,89.75716041773556L172.56914062500002,69.68651259690525L172.79531250000002,78.52984335646033L173.021484375,48.24243871867657L173.24765625,59.524753265082836L173.473828125,84.64400427788497L173.70000000000002,73.22618788480759L173.92617187500002,83.14886832982303L174.15234375,99.55285596102475L174.37851562499998,55.56674762070179L174.60468749999998,82.10111376270652L174.830859375,92.57681867480277L175.05703125,83.02594408765437L175.283203125,21.331706032156944L175.50937499999998,47.423119604587555L175.73554687499998,85.59331944584845L175.96171875,63.96937867999077L176.187890625,69.11821807175875L176.4140625,99.70342455804347L176.640234375,78.63268958777189L176.86640624999998,84.82407447323202L177.092578125,74.51073550060391L177.31875,39.300481736660004L177.544921875,62.623437628149986L177.77109375,25.19209100306034L177.997265625,64.7169136852026L178.2234375,62.959741562604904L178.449609375,64.15486125648022L178.67578125,89.85188532993197L178.901953125,50.48441732674837L179.128125,83.03303238376976L179.35429687500002,74.73368164524436L179.58046875,79.5609211958945L179.806640625,38.095702178776264L180.0328125,65.95238721370697L180.258984375,41.21300293505192L180.48515625000002,83.80545884743334L180.71132812500002,100.53188702464104L180.9375,78.43986595422031L181.163671875,71.66078988835216L181.38984375,82.055171713233L181.61601562500002,72.98985090479255L181.84218750000002,73.24218325689436L182.068359375,74.03957810625434L182.29453124999998,72.38960959389807L182.52070312499998,71.94610754400492L182.746875,86.7417992502451L182.973046875,33.44148299098015L183.19921875,76.17186945304275L183.42539062499998,28.579889930784702L183.65156249999998,87.81536840274929L183.877734375,79.35551995784044L184.10390625,72.99420828372241L184.330078125,78.81210040673615L184.55625,84.71067272499204L184.78242187499998,92.91150164231657L185.00859375,93.86783367395401L185.234765625,67.6837777197361L185.4609375,74.78920663148165L185.687109375,57.679059863090515L185.91328125,85.89235762506723L186.139453125,71.93751916661859L186.365625,89.67769457399845L186.591796875,88.18120140954852L186.81796875,76.68346859887244L187.044140625,74.11263151466846L187.2703125,49.18675361573696L187.496484375,58.87525653839111L187.72265625,95.24810076132415L187.948828125,66.43876521289349L188.175,87.59219147637486L188.40117187500002,49.70575975626707L188.62734375,70.3609062768519L188.853515625,65.28408727049828L189.0796875,71.3110072016716L189.305859375,77.4135466143489L189.53203125000002,73.15109590440989L189.75820312500002,49.98362096399069L189.984375,73.3361498862505L190.210546875,69.39491438120604L190.43671875,62.96320328861475L190.66289062500002,67.16734314709902L190.88906250000002,79.78426296636462L191.115234375,94.87331122532485L191.34140624999998,75.19147567823529L191.56757812499998,12.362681649625301L191.79375,38.052513025701046L192.019921875,59.519258461892605L192.24609375,95.9726235307753L192.47226562499998,91.81793140619993L192.69843749999998,60.76719420403242L192.924609375,73.52600083127618L193.15078125,81.329324696213L193.376953125,71.0230135768652L193.603125,74.7012678012252L193.82929687499998,67.95117682218552L194.05546875,78.22556862980129L194.281640625,90.8425269126892L194.5078125,72.70158803462982L194.733984375,71.7206118106842L194.96015625,63.56658762693405L195.186328125,95.93552261963487L195.4125,92.68678067624569L195.638671875,77.1081729270518L195.86484375,71.91659495607018L196.091015625,69.40313460677862L196.31718750000002,66.19845549017191L196.543359375,50.704956747591496L196.76953125,62.78642448037863L196.995703125,65.72533095628023L197.221875,76.74493896216156L197.44804687500002,75.57665588706733L197.67421875000002,85.85910857096314L197.900390625,77.94258077070118L198.1265625,81.67855790257455L198.352734375,89.68581039831042L198.57890625000002,66.64217183738948L198.80507812500002,83.27110022678973L199.03125,70.1333225183189L199.25742187499998,77.55570266768336L199.48359374999998,52.74485847353935L199.709765625,63.38668777048588L199.9359375,9.724626637995243L200.162109375,65.23043601214886L200.38828124999998,92.3608564250171L200.61445312499998,77.72135449945927L200.840625,77.40933759510517L201.066796875,68.86412738263607L201.29296875,52.13411109894514L201.519140625,76.98697954788805L201.74531249999998,65.25508569926023L201.971484375,82.66329257190228L202.19765625,74.25789762660861L202.423828125,34.53245418518782L202.65,91.74472963809967L202.876171875,59.26256323605776L203.10234375,80.39274098724128L203.328515625,81.8344509638846L203.5546875,86.17158154398203L203.780859375,80.56758012995124L204.00703125,74.30421881750226L204.233203125,67.18914652615786L204.459375,77.22058011591436L204.685546875,62.74489475786686L204.91171875,76.61276147142053L205.137890625,80.24034811556339L205.36406250000002,90.73297152668236L205.590234375,82.42613686621189L205.81640625,57.78842842578888L206.042578125,54.986551351845264L206.26875,45.467727951705456L206.49492187500002,76.90254640206696L206.72109375000002,83.33188923448324L206.947265625,83.31247609481217L207.1734375,68.25700657814741L207.399609375,46.51863104104996L207.62578125000002,81.5032626911998L207.85195312500002,76.17125403508544L208.078125,48.87486858665943L208.30429687499998,90.45564331486821L208.53046874999998,79.53200204670429L208.756640625,92.70002315193413L208.9828125,34.36251091212034L209.208984375,48.16364324092865L209.43515624999998,33.699826657772064L209.66132812499998,75.89845903590322L209.8875,87.19115326553582L210.113671875,42.78317591547966L210.33984375,72.32924368605019L210.566015625,65.66300889849663L210.79218749999998,88.8661066479981L211.018359375,78.32386516407134L211.24453125,53.817169316112995L211.470703125,81.56571112945676L211.696875,62.09235391020775L211.923046875,68.99362890422344L212.14921875,47.09587110579014L212.375390625,77.89185274764895L212.6015625,71.8355905674398L212.827734375,56.13240464031696L213.05390625,82.69739881530404L213.28007812500002,70.0275750309229L213.50625,64.54007992893457L213.732421875,73.84167177975179L213.95859375,46.22137317806482L214.184765625,94.37347095832227L214.41093750000002,58.50178575515747L214.63710937500002,74.09025667607786L214.86328125,80.7700416482985L215.089453125,75.34701707214117L215.315625,85.64638825505972L215.54179687500002,70.14919700473548L215.76796875000002,68.01675180345774L215.994140625,85.3779781088233L216.22031249999998,64.55730064213276L216.44648437499998,92.17787398397923L216.67265625,51.18992807716131L216.898828125,75.12698317319155L217.125,89.57907384634018L217.35117187499998,85.50371569022536L217.57734374999998,68.35903408378363L217.803515625,63.83620662987232L218.0296875,75.54542892053723L218.255859375,87.9656567648053L218.48203125,82.93142797797918L218.70820312499998,73.901729978621L218.934375,80.04585406184196L219.160546875,64.43217298388481L219.38671875,81.59788869693875L219.612890625,66.02880893647671L219.8390625,74.58866279944779L220.065234375,83.28875502943994L220.29140625,72.54065074399114L220.517578125,76.720717869699L220.74375,81.88706919923426L220.969921875,74.0675026960671L221.19609375,77.05898894369602L221.422265625,73.86552472040059L221.6484375,46.82708731293678L221.874609375,68.11870238184929L222.10078125,81.51504354923964L222.32695312500002,73.07510827109218L222.553125,84.85998301208019L222.779296875,57.504489965736866L223.00546875,52.443930082023144L223.231640625,84.74900447204709L223.45781250000002,73.51469252631068L223.68398437500002,55.24862049520016L223.91015625,88.68048670142889L224.136328125,68.03507147729398L224.3625,80.62736358866097L224.58867187500002,48.23450422286987L224.81484375000002,78.40214962512256L225.041015625,76.56329725310208L225.26718749999998,74.20302652195097L225.49335937499998,51.07822971791029L225.71953125,65.9428042769432L225.945703125,86.08701102808116L226.171875,72.07505958527327L226.39804687499998,81.92154359444976L226.62421874999998,86.33687071874738L226.850390625,89.50628418847917L227.0765625,58.39103250205517L227.302734375,63.277143374085426L227.52890625,81.88106337934732L227.75507812499998,94.38469134643674L227.98125,82.28158507868648L228.207421875,45.93300590664148L228.43359375,87.18948834016918L228.659765625,87.6921144723892L228.8859375,55.80314504355192L229.112109375,54.23743384331465L229.33828125,62.012712232768536L229.564453125,73.22993534058334L229.790625,83.45282985270023L230.016796875,60.38711866736412L230.24296875000002,75.08196974545717L230.469140625,80.6457876637578L230.6953125,89.11314750462769L230.921484375,81.74567692354321L231.14765625,68.76058331131937L231.37382812500002,78.01451873406769L231.60000000000002,87.33157845586538L231.826171875,81.45023784041405L232.05234375,90.90156307816505L232.278515625,58.42237485945225L232.50468750000002,74.15396891906859L232.73085937500002,77.79089123383166L232.95703125,67.42236795276403L233.18320312499998,82.34244551882148L233.40937499999998,58.32830382883549L233.635546875,72.58244421705605L233.86171875,80.04982130974531L234.087890625,77.61865113303065L234.31406249999998,90.55620370805264L234.54023437499998,91.56057680398226L234.76640625,69.5513734072447L234.992578125,86.20492400974034L235.21875,63.770477794110775L235.444921875,67.10788937658073L235.67109374999998,76.88926546275616L235.897265625,89.11696639284492L236.1234375,77.10023843124509L236.349609375,74.4247363358736L236.57578125,63.356938906013966L236.801953125,73.54910647869112L237.028125,93.65922896564007L237.254296875,77.16709919646382L237.48046875,67.10690031200649L237.706640625,80.18206473812461L237.9328125,62.36770948767662L238.158984375,79.56997663155198L238.38515625,46.61018545180559L238.611328125,78.25365806370975L238.8375,75.02442267164588L239.063671875,93.21911171451211L239.28984375000002,76.33744985237718L239.516015625,82.52226295322181L239.7421875,92.99408853426574L239.968359375,68.33950555324556L240.19453125,64.58796164393425L240.42070312500002,78.28474216535687L240.64687500000002,89.3239721134305L240.873046875,74.92584590241313L241.09921875,78.21045792102814L241.325390625,61.21538332104683L241.55156250000002,89.63910457119346L241.77773437500002,73.06818481907248L242.00390625,76.08972764015198L242.23007812499998,59.63583620637655L242.45624999999998,97.99606282636523L242.682421875,71.64786611124873L242.90859375,63.59100653231144L243.134765625,83.34333490952851L243.36093749999998,56.83904732018709L243.58710937499998,76.2065471559763L243.81328125,70.87789582461119L244.039453125,98.87060471251607L244.265625,67.49409711360931L244.491796875,78.62585405260324L244.71796874999998,56.99746249616146L244.944140625,55.03459791094065L245.1703125,86.1263208501041L245.396484375,85.18593473732471L245.62265625,80.41259920597076L245.848828125,68.73466981947423L246.075,81.15149088576436L246.301171875,73.80842822045088L246.52734375,82.76571570336819L246.753515625,71.08628623560072L246.9796875,85.59327548742294L247.20585937500002,87.87317922711371L247.43203125,81.34984229132534L247.658203125,61.75706101953983L247.884375,77.73347054049373L248.110546875,87.68385028839111L248.33671875000002,75.0117571502924L248.56289062500002,80.89086687564851L248.7890625,58.41571515798569L249.015234375,65.60195064544678L249.24140625,73.31301676481964L249.46757812500002,57.44857484847307L249.69375000000002,81.28722900897264L249.919921875,92.23737720772624L250.14609374999998,61.980875343084335L250.37226562499998,39.23368690907955L250.5984375,66.72496753185987L250.824609375,79.66457516327502L251.05078125,80.79757061228156L251.27695312499998,76.27744660153985L251.50312499999998,81.8185874670744L251.729296875,44.237034901976585L251.95546875,84.09430416673422L252.181640625,85.72489250823855L252.4078125,77.64206998422743L252.63398437499998,81.20986218005419L252.86015625,78.69975366070867L253.086328125,78.83782158046961L253.3125,80.82551168650389L253.538671875,88.00806565582752L253.76484375,68.94469218701124L253.991015625,80.23443021252751L254.2171875,84.36228571832181L254.443359375,61.435263365507126L254.66953125,87.00049458444117L254.895703125,81.70555387064815L255.121875,45.038726687431335L255.348046875,70.00944218039514L255.57421875,63.457625679671764L255.800390625,69.91114015132189L256.0265625,72.21867725625634L256.252734375,66.53706724196674L256.47890624999997,75.13027456030251L256.705078125,64.55901502072811L256.93125,70.07108288258314L257.157421875,106.11133216321468L257.38359375,59.45022175461054L257.609765625,51.413984172046185L257.8359375,72.2168969400227L258.062109375,88.57583817467092L258.28828125,68.09798697382212L258.514453125,60.103389009833336L258.740625,69.4920295327902L258.966796875,57.26557592302561L259.19296875,86.5544319562614L259.419140625,88.91848311200737L259.6453125,59.9124995470047L259.871484375,79.96022304892541L260.09765625,81.36441450938584L260.323828125,85.29167672991753L260.55,67.11246105283499L260.776171875,76.67270977422595L261.00234375,70.67840699478984L261.228515625,67.53230797499418L261.45468750000003,60.49395962059498L261.680859375,76.88557295501232" style="fill: none;" fill="none"></path></g></g></g></g></g></g><g transform="translate(58, 177)" clip-path="url(#clip_1)"><clipPath id="clip_1"><rect width="271" height="23"></rect></clipPath><g><g><line x1="0" y1="0" x2="0" y2="5" style="visibility: inherit;" fill="rgb(0, 0, 0)" stroke="rgb(204, 204, 204)" stroke-width="1px"></line><line x1="22.6171875" y1="0" x2="22.6171875" y2="5" style="visibility: inherit;" fill="rgb(0, 0, 0)" stroke="rgb(204, 204, 204)" stroke-width="1px"></line><line x1="45.234375" y1="0" x2="45.234375" y2="5" style="visibility: inherit;" fill="rgb(0, 0, 0)" stroke="rgb(204, 204, 204)" stroke-width="1px"></line><line x1="67.8515625" y1="0" x2="67.8515625" y2="5" style="visibility: inherit;" fill="rgb(0, 0, 0)" stroke="rgb(204, 204, 204)" stroke-width="1px"></line><line x1="90.46875" y1="0" x2="90.46875" y2="5" style="visibility: inherit;" fill="rgb(0, 0, 0)" stroke="rgb(204, 204, 204)" stroke-width="1px"></line><line x1="113.0859375" y1="0" x2="113.0859375" y2="5" style="visibility: inherit;" fill="rgb(0, 0, 0)" stroke="rgb(204, 204, 204)" stroke-width="1px"></line><line x1="135.703125" y1="0" x2="135.703125" y2="5" style="visibility: inherit;" fill="rgb(0, 0, 0)" stroke="rgb(204, 204, 204)" stroke-width="1px"></line><line x1="158.3203125" y1="0" x2="158.3203125" y2="5" style="visibility: inherit;" fill="rgb(0, 0, 0)" stroke="rgb(204, 204, 204)" stroke-width="1px"></line><line x1="180.9375" y1="0" x2="180.9375" y2="5" style="visibility: inherit;" fill="rgb(0, 0, 0)" stroke="rgb(204, 204, 204)" stroke-width="1px"></line><line x1="203.5546875" y1="0" x2="203.5546875" y2="5" style="visibility: inherit;" fill="rgb(0, 0, 0)" stroke="rgb(204, 204, 204)" stroke-width="1px"></line><line x1="226.171875" y1="0" x2="226.171875" y2="5" style="visibility: inherit;" fill="rgb(0, 0, 0)" stroke="rgb(204, 204, 204)" stroke-width="1px"></line><line x1="248.7890625" y1="0" x2="248.7890625" y2="5" style="visibility: inherit;" fill="rgb(0, 0, 0)" stroke="rgb(204, 204, 204)" stroke-width="1px"></line><line x1="271.40625" y1="0" x2="271.40625" y2="5" style="visibility: inherit;" fill="rgb(0, 0, 0)" stroke="rgb(204, 204, 204)" stroke-width="1px"></line></g><g transform="translate(0, 8)"><text x="0" y="0" dx="0em" dy="0.95em" style="text-anchor: middle; visibility: hidden; font-family: &quot;Helvetica Neue&quot;, sans-serif; font-size: 12px; font-weight: 200;" fill="rgb(50, 49, 63)" stroke="none" stroke-width="1px">-100</text><text x="22.6171875" y="0" dx="0em" dy="0.95em" style="text-anchor: middle; visibility: inherit; font-family: &quot;Helvetica Neue&quot;, sans-serif; font-size: 12px; font-weight: 200;" fill="rgb(50, 49, 63)" stroke="none" stroke-width="1px">0</text><text x="45.234375" y="0" dx="0em" dy="0.95em" style="text-anchor: middle; visibility: hidden; font-family: &quot;Helvetica Neue&quot;, sans-serif; font-size: 12px; font-weight: 200;" fill="rgb(50, 49, 63)" stroke="none" stroke-width="1px">100</text><text x="67.8515625" y="0" dx="0em" dy="0.95em" style="text-anchor: middle; visibility: inherit; font-family: &quot;Helvetica Neue&quot;, sans-serif; font-size: 12px; font-weight: 200;" fill="rgb(50, 49, 63)" stroke="none" stroke-width="1px">200</text><text x="90.46875" y="0" dx="0em" dy="0.95em" style="text-anchor: middle; visibility: hidden; font-family: &quot;Helvetica Neue&quot;, sans-serif; font-size: 12px; font-weight: 200;" fill="rgb(50, 49, 63)" stroke="none" stroke-width="1px">300</text><text x="113.0859375" y="0" dx="0em" dy="0.95em" style="text-anchor: middle; visibility: inherit; font-family: &quot;Helvetica Neue&quot;, sans-serif; font-size: 12px; font-weight: 200;" fill="rgb(50, 49, 63)" stroke="none" stroke-width="1px">400</text><text x="135.703125" y="0" dx="0em" dy="0.95em" style="text-anchor: middle; visibility: hidden; font-family: &quot;Helvetica Neue&quot;, sans-serif; font-size: 12px; font-weight: 200;" fill="rgb(50, 49, 63)" stroke="none" stroke-width="1px">500</text><text x="158.3203125" y="0" dx="0em" dy="0.95em" style="text-anchor: middle; visibility: inherit; font-family: &quot;Helvetica Neue&quot;, sans-serif; font-size: 12px; font-weight: 200;" fill="rgb(50, 49, 63)" stroke="none" stroke-width="1px">600</text><text x="180.9375" y="0" dx="0em" dy="0.95em" style="text-anchor: middle; visibility: hidden; font-family: &quot;Helvetica Neue&quot;, sans-serif; font-size: 12px; font-weight: 200;" fill="rgb(50, 49, 63)" stroke="none" stroke-width="1px">700</text><text x="203.5546875" y="0" dx="0em" dy="0.95em" style="text-anchor: middle; visibility: inherit; font-family: &quot;Helvetica Neue&quot;, sans-serif; font-size: 12px; font-weight: 200;" fill="rgb(50, 49, 63)" stroke="none" stroke-width="1px">800</text><text x="226.171875" y="0" dx="0em" dy="0.95em" style="text-anchor: middle; visibility: hidden; font-family: &quot;Helvetica Neue&quot;, sans-serif; font-size: 12px; font-weight: 200;" fill="rgb(50, 49, 63)" stroke="none" stroke-width="1px">900</text><text x="248.7890625" y="0" dx="0em" dy="0.95em" style="text-anchor: middle; visibility: inherit; font-family: &quot;Helvetica Neue&quot;, sans-serif; font-size: 12px; font-weight: 200;" fill="rgb(50, 49, 63)" stroke="none" stroke-width="1px">1k</text><text x="271.40625" y="0" dx="0em" dy="0.95em" style="text-anchor: middle; visibility: hidden; font-family: &quot;Helvetica Neue&quot;, sans-serif; font-size: 12px; font-weight: 200;" fill="rgb(50, 49, 63)" stroke="none" stroke-width="1px">1.1k</text></g><line x1="0" y1="0" x2="271.40625" y2="0" fill="rgb(0, 0, 0)" stroke="rgb(204, 204, 204)" stroke-width="1px"></line></g></g></g></g></svg>