<svg viewBox="0 0 330 200" xmlns="http://www.w3.org/2000/svg"><g><g><g><g><g><line x1="48.875" y1="177" x2="43.875" y2="177" style="visibility: inherit;" fill="rgb(0, 0, 0)" stroke="rgb(204, 204, 204)" stroke-width="1px"></line><line x1="48.875" y1="162.25" x2="43.875" y2="162.25" style="visibility: inherit;" fill="rgb(0, 0, 0)" stroke="rgb(204, 204, 204)" stroke-width="1px"></line><line x1="48.875" y1="147.49999999999997" x2="43.875" y2="147.49999999999997" style="visibility: inherit;" fill="rgb(0, 0, 0)" stroke="rgb(204, 204, 204)" stroke-width="1px"></line><line x1="48.875" y1="132.75000000000006" x2="43.875" y2="132.75000000000006" style="visibility: inherit;" fill="rgb(0, 0, 0)" stroke="rgb(204, 204, 204)" stroke-width="1px"></line><line x1="48.875" y1="118.00000000000003" x2="43.875" y2="118.00000000000003" style="visibility: inherit;" fill="rgb(0, 0, 0)" stroke="rgb(204, 204, 204)" stroke-width="1px"></line><line x1="48.875" y1="103.25000000000001" x2="43.875" y2="103.25000000000001" style="visibility: inherit;" fill="rgb(0, 0, 0)" stroke="rgb(204, 204, 204)" stroke-width="1px"></line><line x1="48.875" y1="88.5" x2="43.875" y2="88.5" style="visibility: inherit;" fill="rgb(0, 0, 0)" stroke="rgb(204, 204, 204)" stroke-width="1px"></line><line x1="48.875" y1="73.75" x2="43.875" y2="73.75" style="visibility: inherit;" fill="rgb(0, 0, 0)" stroke="rgb(204, 204, 204)" stroke-width="1px"></line><line x1="48.875" y1="58.99999999999997" x2="43.875" y2="58.99999999999997" style="visibility: inherit;" fill="rgb(0, 0, 0)" stroke="rgb(204, 204, 204)" stroke-width="1px"></line><line x1="48.875" y1="44.25000000000003" x2="43.875" y2="44.25000000000003" style="visibility: inherit;" fill="rgb(0, 0, 0)" stroke="rgb(204, 204, 204)" stroke-width="1px"></line><line x1="48.875" y1="29.50000000000003" x2="43.875" y2="29.50000000000003" style="visibility: inherit;" fill="rgb(0, 0, 0)" stroke="rgb(204, 204, 204)" stroke-width="1px"></line><line x1="48.875" y1="14.75" x2="43.875" y2="14.75" style="visibility: inherit;" fill="rgb(0, 0, 0)" stroke="rgb(204, 204, 204)" stroke-width="1px"></line><line x1="48.875" y1="0" x2="43.875" y2="0" style="visibility: inherit;" fill="rgb(0, 0, 0)" stroke="rgb(204, 204, 204)" stroke-width="1px"></line></g><g transform="translate(38.875, 0)"><text x="0" y="177" dx="0em" dy="0.3em" style="text-anchor: end; visibility: hidden; font-family: &quot;Helvetica Neue&quot;, sans-serif; font-size: 12px; font-weight: 200;" fill="rgb(50, 49, 63)" stroke="none" stroke-width="1px">0.64</text><text x="0" y="162.25" dx="0em" dy="0.3em" style="text-anchor: end; visibility: inherit; font-family: &quot;Helvetica Neue&quot;, sans-serif; font-size: 12px; font-weight: 200;" fill="rgb(50, 49, 63)" stroke="none" stroke-width="1px">0.66</text><text x="0" y="147.49999999999997" dx="0em" dy="0.3em" style="text-anchor: end; visibility: hidden; font-family: &quot;Helvetica Neue&quot;, sans-serif; font-size: 12px; font-weight: 200;" fill="rgb(50, 49, 63)" stroke="none" stroke-width="1px">0.68</text><text x="0" y="132.75000000000006" dx="0em" dy="0.3em" style="text-anchor: end; visibility: inherit; font-family: &quot;Helvetica Neue&quot;, sans-serif; font-size: 12px; font-weight: 200;" fill="rgb(50, 49, 63)" stroke="none" stroke-width="1px">0.7</text><text x="0" y="118.00000000000003" dx="0em" dy="0.3em" style="text-anchor: end; visibility: hidden; font-family: &quot;Helvetica Neue&quot;, sans-serif; font-size: 12px; font-weight: 200;" fill="rgb(50, 49, 63)" stroke="none" stroke-width="1px">0.72</text><text x="0" y="103.25000000000001" dx="0em" dy="0.3em" style="text-anchor: end; visibility: inherit; font-family: &quot;Helvetica Neue&quot;, sans-serif; font-size: 12px; font-weight: 200;" fill="rgb(50, 49, 63)" stroke="none" stroke-width="1px">0.74</text><text x="0" y="88.5" dx="0em" dy="0.3em" style="text-anchor: end; visibility: hidden; font-family: &quot;Helvetica Neue&quot;, sans-serif; font-size: 12px; font-weight: 200;" fill="rgb(50, 49, 63)" stroke="none" stroke-width="1px">0.76</text><text x="0" y="73.75" dx="0em" dy="0.3em" style="text-anchor: end; visibility: inherit; font-family: &quot;Helvetica Neue&quot;, sans-serif; font-size: 12px; font-weight: 200;" fill="rgb(50, 49, 63)" stroke="none" stroke-width="1px">0.78</text><text x="0" y="58.99999999999997" dx="0em" dy="0.3em" style="text-anchor: end; visibility: hidden; font-family: &quot;Helvetica Neue&quot;, sans-serif; font-size: 12px; font-weight: 200;" fill="rgb(50, 49, 63)" stroke="none" stroke-width="1px">0.8</text><text x="0" y="44.25000000000003" dx="0em" dy="0.3em" style="text-anchor: end; visibility: inherit; font-family: &quot;Helvetica Neue&quot;, sans-serif; font-size: 12px; font-weight: 200;" fill="rgb(50, 49, 63)" stroke="none" stroke-width="1px">0.82</text><text x="0" y="29.50000000000003" dx="0em" dy="0.3em" style="text-anchor: end; visibility: hidden; font-family: &quot;Helvetica Neue&quot;, sans-serif; font-size: 12px; font-weight: 200;" fill="rgb(50, 49, 63)" stroke="none" stroke-width="1px">0.84</text><text x="0" y="14.75" dx="0em" dy="0.3em" style="text-anchor: end; visibility: inherit; font-family: &quot;Helvetica Neue&quot;, sans-serif; font-size: 12px; font-weight: 200;" fill="rgb(50, 49, 63)" stroke="none" stroke-width="1px">0.86</text><text x="0" y="0" dx="0em" dy="0.3em" style="text-anchor: end; visibility: hidden; font-family: &quot;Helvetica Neue&quot;, sans-serif; font-size: 12px; font-weight: 200;" fill="rgb(50, 49, 63)" stroke="none" stroke-width="1px">0.88</text></g><line x1="48.875" y1="0" x2="48.875" y2="177" fill="rgb(0, 0, 0)" stroke="rgb(204, 204, 204)" stroke-width="1px"></line></g></g><g transform="translate(48, 0)" clip-path="url(#clip_0)"><clipPath id="clip_0"><rect width="281" height="177"></rect></clipPath><g><g><g><line x1="0" y1="0" x2="0" y2="177" fill="rgb(0, 0, 0)" stroke="rgb(60, 60, 60)" stroke-width="1px" opacity="0.25"></line><line x1="23.427083333333332" y1="0" x2="23.427083333333332" y2="177" fill="rgb(0, 0, 0)" stroke="rgb(60, 60, 60)" stroke-width="1px" opacity="0.25"></line><line x1="46.854166666666664" y1="0" x2="46.854166666666664" y2="177" fill="rgb(0, 0, 0)" stroke="rgb(60, 60, 60)" stroke-width="1px" opacity="0.25"></line><line x1="70.28125" y1="0" x2="70.28125" y2="177" fill="rgb(0, 0, 0)" stroke="rgb(60, 60, 60)" stroke-width="1px" opacity="0.25"></line><line x1="93.70833333333333" y1="0" x2="93.70833333333333" y2="177" fill="rgb(0, 0, 0)" stroke="rgb(60, 60, 60)" stroke-width="1px" opacity="0.25"></line><line x1="117.13541666666667" y1="0" x2="117.13541666666667" y2="177" fill="rgb(0, 0, 0)" stroke="rgb(60, 60, 60)" stroke-width="1px" opacity="0.25"></line><line x1="140.5625" y1="0" x2="140.5625" y2="177" fill="rgb(0, 0, 0)" stroke="rgb(60, 60, 60)" stroke-width="1px" opacity="0.25"></line><line x1="163.98958333333334" y1="0" x2="163.98958333333334" y2="177" fill="rgb(0, 0, 0)" stroke="rgb(60, 60, 60)" stroke-width="1px" opacity="0.25"></line><line x1="187.41666666666666" y1="0" x2="187.41666666666666" y2="177" fill="rgb(0, 0, 0)" stroke="rgb(60, 60, 60)" stroke-width="1px" opacity="0.25"></line><line x1="210.84375" y1="0" x2="210.84375" y2="177" fill="rgb(0, 0, 0)" stroke="rgb(60, 60, 60)" stroke-width="1px" opacity="0.25"></line><line x1="234.27083333333334" y1="0" x2="234.27083333333334" y2="177" fill="rgb(0, 0, 0)" stroke="rgb(60, 60, 60)" stroke-width="1px" opacity="0.25"></line><line x1="257.69791666666663" y1="0" x2="257.69791666666663" y2="177" fill="rgb(0, 0, 0)" stroke="rgb(60, 60, 60)" stroke-width="1px" opacity="0.25"></line><line x1="281.125" y1="0" x2="281.125" y2="177" fill="rgb(0, 0, 0)" stroke="rgb(60, 60, 60)" stroke-width="1px" opacity="0.25"></line></g><g><line x1="0" y1="177" x2="281.125" y2="177" fill="rgb(0, 0, 0)" stroke="rgb(60, 60, 60)" stroke-width="1px" opacity="0.25"></line><line x1="0" y1="162.25" x2="281.125" y2="162.25" fill="rgb(0, 0, 0)" stroke="rgb(60, 60, 60)" stroke-width="1px" opacity="0.25"></line><line x1="0" y1="147.49999999999997" x2="281.125" y2="147.49999999999997" fill="rgb(0, 0, 0)" stroke="rgb(60, 60, 60)" stroke-width="1px" opacity="0.25"></line><line x1="0" y1="132.75000000000006" x2="281.125" y2="132.75000000000006" fill="rgb(0, 0, 0)" stroke="rgb(60, 60, 60)" stroke-width="1px" opacity="0.25"></line><line x1="0" y1="118.00000000000003" x2="281.125" y2="118.00000000000003" fill="rgb(0, 0, 0)" stroke="rgb(60, 60, 60)" stroke-width="1px" opacity="0.25"></line><line x1="0" y1="103.25000000000001" x2="281.125" y2="103.25000000000001" fill="rgb(0, 0, 0)" stroke="rgb(60, 60, 60)" stroke-width="1px" opacity="0.25"></line><line x1="0" y1="88.5" x2="281.125" y2="88.5" fill="rgb(0, 0, 0)" stroke="rgb(60, 60, 60)" stroke-width="1px" opacity="0.25"></line><line x1="0" y1="73.75" x2="281.125" y2="73.75" fill="rgb(0, 0, 0)" stroke="rgb(60, 60, 60)" stroke-width="1px" opacity="0.25"></line><line x1="0" y1="58.99999999999997" x2="281.125" y2="58.99999999999997" fill="rgb(0, 0, 0)" stroke="rgb(60, 60, 60)" stroke-width="1px" opacity="0.25"></line><line x1="0" y1="44.25000000000003" x2="281.125" y2="44.25000000000003" fill="rgb(0, 0, 0)" stroke="rgb(60, 60, 60)" stroke-width="1px" opacity="0.25"></line><line x1="0" y1="29.50000000000003" x2="281.125" y2="29.50000000000003" fill="rgb(0, 0, 0)" stroke="rgb(60, 60, 60)" stroke-width="1px" opacity="0.25"></line><line x1="0" y1="14.75" x2="281.125" y2="14.75" fill="rgb(0, 0, 0)" stroke="rgb(60, 60, 60)" stroke-width="1px" opacity="0.25"></line><line x1="0" y1="0" x2="281.125" y2="0" fill="rgb(0, 0, 0)" stroke="rgb(60, 60, 60)" stroke-width="1px" opacity="0.25"></line></g></g></g><g><g><line x1="0" y1="649" x2="281.125" y2="649" fill="rgb(0, 0, 0)" stroke="rgb(153, 153, 153)" stroke-width="1.5px"></line></g></g><g><g><line x1="23.427083333333332" y1="0" x2="23.427083333333332" y2="177" fill="rgb(0, 0, 0)" stroke="rgb(153, 153, 153)" stroke-width="1.5px"></line></g></g><g><g><g><g><g><path stroke="rgb(51, 187, 238)" stroke-width="2px" d="M23.427083333333332,187.13998848199844L23.661354166666666,45.1235910654068L24.129895833333332,-200.78212714195251L33.500729166666666,-0.3066065013408661L33.735,2.667180985212326L33.96927083333333,6.00111985206604L34.203541666666666,7.791634440422058L34.4378125,11.0526023209095L34.67208333333333,12.57901468873024L34.90635416666667,14.14701172709465L35.140625,17.160977214574814L35.37489583333333,20.42418697476387L35.60916666666667,19.13075426220894L35.8434375,23.24165830016136L36.077708333333334,22.440559953451157L36.31197916666667,26.9510460793972L36.54625,26.83987522125244L36.780520833333334,27.29541638493538L37.01479166666666,29.007069557905197L37.2490625,33.72481966018677L37.483333333333334,33.4186931848526L37.71760416666666,33.49948877096176L37.951875,37.89704570174217L38.186145833333335,37.44181224703789L38.42041666666666,43.30551454424858L38.6546875,42.40968579053879L38.888958333333335,43.78391408920288L39.12322916666667,42.58842074871063L39.3575,45.90767750144005L39.591770833333335,49.148336589336395L39.82604166666667,48.2577388882637L40.060312499999995,53.009249061346054L40.294583333333335,54.16386106610298L40.52885416666667,52.94863039255142L40.763124999999995,52.869856894016266L40.997395833333336,54.56902587413789L41.23166666666667,58.905348718166366L41.465937499999995,59.35557091236116L41.700208333333336,58.67047885060312L41.93447916666667,60.83481588959695L42.168749999999996,62.317929208278656L42.403020833333336,62.19968104362488L42.63729166666667,65.89693629741669L42.871562499999996,63.74112719297409L43.10583333333333,64.41685611009598L43.34010416666667,68.28691193461418L43.574374999999996,65.68822169303895L43.80864583333333,66.59275421500207L44.04291666666667,67.66520792245865L44.277187500000004,67.3542899787426L44.51145833333333,71.37063944339752L44.74572916666667,71.34953939914703L44.980000000000004,74.26235654950143L45.21427083333333,73.30502995848656L45.448541666666664,73.52737167477608L45.682812500000004,73.36072528362276L45.91708333333333,76.18944996595384L46.151354166666664,77.37171182036401L46.385625000000005,80.65219724178314L46.61989583333333,78.10669669508934L46.854166666666664,77.33606153726578L47.088437500000005,80.13370761275293L47.32270833333333,78.48737666010858L47.556979166666665,77.56710702180862L47.791250000000005,80.80710673332214L48.02552083333333,81.37201645970346L48.259791666666665,80.92280530929565L48.4940625,82.90308842062952L48.72833333333333,83.12696868181229L48.962604166666665,81.85854831337929L49.196875,82.86695459485055L49.43114583333334,85.20567470788956L49.665416666666665,84.90631783008575L49.8996875,83.84810665249826L50.13395833333334,86.7208337187767L50.368229166666666,87.73561397194862L50.6025,88.31551352143289L50.83677083333334,86.3397581279278L51.071041666666666,87.32429498434067L51.3053125,90.26537740230562L51.53958333333333,88.07651156187057L51.773854166666666,90.20409935712814L52.008125,89.70675373077394L52.24239583333333,89.95894321799278L52.47666666666667,92.45868304371834L52.7109375,92.7883272767067L52.94520833333333,91.51704961061478L53.17947916666667,90.82448461651802L53.648020833333334,91.4337923526764L53.88229166666667,93.97960060834885L54.1165625,95.17962166666985L54.58510416666666,95.72927781939507L54.819375,94.73225677013399L55.053645833333334,96.25502058863641L55.28791666666666,95.81763425469398L55.5221875,95.74650952219964L55.756458333333335,95.01042568683624L55.99072916666666,97.60981926321983L56.225,98.12505596876144L56.459270833333335,96.70080298185349L56.69354166666667,99.18225610256196L56.9278125,95.26978039741518L57.162083333333335,98.94927644729614L57.39635416666667,99.27922838926315L57.630624999999995,96.57297188043596L57.864895833333335,99.078734010458L58.09916666666667,98.22040179371834L58.333437499999995,100.60417929291725L58.567708333333336,100.07887610793115L58.80197916666667,100.44496187567712L59.270520833333336,101.2474229335785L59.50479166666667,101.70357951521875L59.739062499999996,103.72698584198952L59.973333333333336,101.78503447771072L60.20760416666667,104.2164189517498L60.441874999999996,102.87388467788696L60.67614583333333,100.94481313228607L60.91041666666667,104.34319505095483L61.144687499999996,103.1962318122387L61.37895833333333,102.84504795074463L61.61322916666667,102.85656505823137L61.847500000000004,104.3592398762703L62.08177083333333,106.32822567224503L62.31604166666667,102.7771761417389L62.550312500000004,105.54563382267953L62.78458333333333,105.6445402801037L63.018854166666664,104.9106543660164L63.48739583333333,104.79337328672409L63.721666666666664,106.3843166232109L63.955937500000005,103.1222058236599L64.19020833333333,105.13093003630638L64.42447916666666,106.44199007749559L64.65875,105.52594044804573L64.89302083333334,106.8558586537838L65.12729166666666,106.33081921935083L65.3615625,108.42477881908417L65.59583333333333,106.4450232088566L65.83010416666667,108.25400033593178L66.064375,107.16783159971239L66.29864583333334,107.84734094142914L66.53291666666667,110.92900240421295L66.76718749999999,110.860691010952L67.00145833333333,108.98032540082933L67.23572916666667,108.21193212270737L67.47,108.6445269882679L67.70427083333334,109.8543947339058L67.93854166666667,109.25699973106386L68.17281249999999,110.08513250946999L68.64135416666667,108.2465713620186L68.875625,111.27539479732513L69.57843749999999,111.00346797704697L69.81270833333333,110.64023950695993L70.04697916666667,112.05504143238068L70.28125,112.090867549181L70.51552083333334,111.17530146241188L70.74979166666667,111.97046542167665L70.98406250000001,110.66920810937881L71.45260416666666,111.17508167028427L71.686875,113.31515365839005L71.92114583333334,113.0659973025322L72.15541666666667,113.91791158914566L72.38968750000001,111.38265335559845L72.85822916666666,112.89732882380486L73.0925,112.21861073374748L73.32677083333333,113.76221084594727L73.56104166666667,113.93593454360962L73.79531250000001,112.39026838541031L74.02958333333332,113.60404843091965L74.26385416666666,114.2282141149044L74.498125,116.70215034484863L74.73239583333333,113.62655514478683L74.96666666666667,115.81520119309425L75.20093750000001,115.11023992300034L75.43520833333332,115.28027111291885L75.66947916666666,115.96298941969872L76.13802083333333,117.46386194229126L76.37229166666667,114.53403288125992L76.60656250000001,114.66691920161247L76.84083333333332,115.37267172336578L77.07510416666666,117.22516769170761L77.309375,115.69220551848412L77.54364583333333,114.92513099312782L77.77791666666667,118.32654604315758L78.01218750000001,119.08636742830276L78.24645833333334,115.34691208600998L78.48072916666666,118.09958869218826L78.715,116.95754879713058L78.94927083333333,117.01205724477768L79.18354166666667,118.22636479139328L79.4178125,118.39811035990715L79.65208333333334,116.4224428832531L79.88635416666666,117.97945031523705L80.12062499999999,116.98607781529427L80.35489583333333,117.37414279580116L80.58916666666667,117.10164451599121L80.8234375,119.2397383749485L81.05770833333334,118.69074159860611L81.29197916666668,118.15093213319778L81.52624999999999,119.01431956887245L81.76052083333333,117.84304732084274L81.99479166666667,119.07805928587914L82.2290625,118.66797113418579L82.46333333333334,116.69573241472244L82.69760416666668,117.46144422888756L82.93187499999999,119.41491270065308L83.16614583333333,117.58101114630699L83.40041666666667,118.18930783867836L83.6346875,118.08037886023521L83.86895833333334,118.6963682770729L84.10322916666668,119.24347484111786L84.33749999999999,120.49048745632172L84.57177083333333,119.40739580988884L84.80604166666667,120.08290493488312L85.0403125,119.08052095770836L85.27458333333334,120.07828930020332L85.50885416666667,120.07143178582191L85.97739583333333,119.26738822460175L86.21166666666666,120.13455608487129L86.4459375,120.76294177770615L86.68020833333334,120.55840322375298L86.91447916666667,117.46399381756783L87.14874999999999,118.9727788567543L87.38302083333333,119.63971608877182L87.61729166666666,120.43839672207832L87.8515625,118.20671537518501L88.08583333333334,119.45139819383621L88.32010416666667,121.18067869544029L88.55437500000001,121.27373868227005L88.78864583333333,121.10019081830978L89.02291666666666,120.79384455084801L89.2571875,122.92503693699837L89.49145833333334,118.23977211117744L89.72572916666667,123.03787821531296L89.96000000000001,121.513048350811L90.19427083333333,120.86707928776741L90.42854166666666,121.85003364086151L90.6628125,122.26579242944717L91.13135416666667,123.10610169172287L91.59989583333332,122.08648601174355L91.83416666666666,122.4863318502903L92.0684375,121.73314818739891L92.30270833333333,120.70359790325165L92.53697916666667,122.29981625080109L92.77125000000001,121.47616723179817L93.00552083333332,120.86677157878876L93.23979166666666,122.34377467632294L93.4740625,124.72337612509727L93.70833333333333,122.0636715888977L93.94260416666667,121.63718694448471L94.17687500000001,122.49002435803413L94.41114583333332,125.00703984498978L94.64541666666666,123.05612096190453L95.34822916666667,122.13255444169044L95.58250000000001,123.66309890151024L95.81677083333334,123.28716644644737L96.05104166666666,123.82469007372856L96.2853125,124.32322257757187L96.75385416666667,123.04201030731201L96.988125,123.50405731797218L97.22239583333334,122.30522313714027L97.45666666666666,123.95709285140038L97.69093749999999,125.88062563538551L97.92520833333333,123.63351488113403L98.15947916666667,122.07092472910881L98.39375,122.7693801522255L98.62802083333334,121.04031944274902L98.86229166666668,125.59889608621597L99.09656249999999,123.23133924603462L99.33083333333333,124.17376393079758L99.56510416666667,122.74779656529427L99.799375,122.85865971446037L100.03364583333334,123.16821494698524L100.26791666666668,124.47303289175034L100.50218749999999,126.38131210207939L100.73645833333333,124.71089193224907L100.97072916666667,122.38962331414223L101.205,125.079922914505L101.43927083333334,123.80011731386185L101.67354166666668,124.88092312216759L101.90781249999999,123.27973747253418L102.14208333333333,125.5530914068222L102.37635416666667,123.66811016201973L102.610625,126.6181161403656L102.84489583333334,124.6173923611641L103.07916666666667,123.80420544743538L103.31343749999999,122.38975518941879L103.54770833333333,124.80245733261108L103.78197916666666,124.37737935781479L104.01625,126.06577852368355L104.25052083333334,123.02214109897614L104.48479166666667,123.05976951122284L104.71906249999999,124.77120289206505L104.95333333333333,122.86907786130905L105.18760416666666,124.77326893806458L105.421875,122.55864346027374L105.65614583333334,125.48196667432785L105.89041666666667,123.39205124974251L106.12468750000001,123.04965907335281L106.35895833333333,123.53623488545418L106.59322916666666,125.39409378170967L106.8275,125.48842856287956L107.06177083333334,125.92792490124702L107.29604166666667,126.99378484487534L107.53031250000001,125.63287594914436L107.76458333333333,127.98438796401024L107.99885416666666,125.48438438773155L108.233125,126.13382616639137L108.46739583333333,127.30175757408142L108.70166666666667,126.2922083735466L108.93593750000001,128.69677820801735L109.17020833333332,128.132791608572L109.40447916666666,126.30974778532982L109.63875,126.43990868330002L110.10729166666667,124.85947141051292L110.34156250000001,126.49885693192482L110.57583333333332,124.76751038432121L110.81010416666666,127.07000875473022L111.044375,128.49698716402054L111.27864583333333,127.57614606618881L111.51291666666667,128.14360538125038L111.74718750000001,128.16694730520248L111.98145833333332,127.04257869720459L112.21572916666666,129.9962771832943L112.45,127.1401664018631L112.68427083333333,127.38281691074371L112.91854166666667,129.71753680706024L113.15281250000001,128.7024928033352L113.38708333333334,127.42739075422287L113.62135416666666,128.7499679028988L113.855625,126.08450481295586L114.08989583333333,129.02330139279366L114.32416666666667,126.73768305778503L114.5584375,129.64979687333107L114.79270833333334,125.97948813438416L115.02697916666666,127.52902263402939L115.26124999999999,126.9814325273037L115.49552083333333,127.9591558277607L115.9640625,130.26662150025368L116.19833333333334,129.97891360521317L116.43260416666668,125.68334022164345L116.66687499999999,128.57189232110977L116.90114583333333,128.73115369677544L117.13541666666667,126.6704266667366L117.3696875,130.01513534784317L117.60395833333334,127.12601178884506L117.83822916666668,129.0827331840992L118.07249999999999,125.7818070948124L118.30677083333333,126.7710035443306L118.54104166666667,127.7769041955471L118.7753125,127.79505902528763L119.00958333333334,126.87909731268883L119.47812499999999,129.36753982305527L119.71239583333333,128.31192219257355L119.94666666666667,128.14729788899422L120.1809375,128.36036437749863L120.41520833333334,128.7286920249462L120.64947916666667,126.5434747338295L120.88374999999999,129.1923654973507L121.35229166666666,129.97869381308556L121.5865625,129.16207814216614L121.82083333333334,129.99109008908272L122.05510416666667,127.7783108651638L122.28937499999999,128.836917668581L122.52364583333333,128.31473553180695L122.75791666666666,132.04645419120789L122.9921875,128.43219244480133L123.22645833333334,129.15851750969887L123.46072916666667,130.92819580435753L123.69500000000001,131.16609880328178L123.92927083333333,129.57163879275322L124.16354166666666,129.88172152638435L124.63208333333334,126.95976102352142L125.10062500000001,129.11262491345406L125.33489583333333,128.68046963214874L125.56916666666666,127.806883841753L125.8034375,128.97261732816696L126.03770833333333,130.1813421547413L126.27197916666667,127.84292975068092L126.50625000000001,129.5176578462124L126.74052083333332,131.20974951982498L126.97479166666666,129.33615350723267L127.2090625,129.14102205634117L127.44333333333333,127.43200638890266L127.67760416666667,130.00445345044136L127.91187500000001,128.4681504368782L128.14614583333332,125.8309086561203L128.38041666666666,127.95801290869713L128.6146875,132.2985557615757L128.84895833333331,130.0699075460434L129.08322916666665,128.23090681433678L129.3175,129.3303949534893L129.55177083333334,128.66222688555717L129.78604166666668,126.76946499943733L130.02031250000002,128.72579076886177L130.25458333333333,130.66044503450394L130.48885416666667,130.23413622379303L130.723125,126.40241214632988L130.95739583333332,127.77637669444084L131.19166666666666,127.98219004273415L131.4259375,132.04592669010162L131.66020833333334,129.37721067667007L131.89447916666666,130.96973651647568L132.12875,131.99141824245453L132.36302083333334,132.60169306397438L132.59729166666668,131.1488231420517L132.8315625,129.34898936748505L133.06583333333333,131.148427516222L133.30010416666667,131.63658583164215L133.53437499999998,130.69367760419846L133.76864583333332,131.6570264995098L134.00291666666666,131.56132900714874L134.2371875,129.96242919564247L134.47145833333335,131.09317177534103L134.70572916666669,131.32034891843796L135.17427083333334,133.6780590713024L135.40854166666668,132.55509713292122L135.6428125,128.35917750000954L135.87708333333333,131.70072117447853L136.11135416666667,131.23717957735062L136.34562499999998,131.61539787054062L136.57989583333332,131.53833875060081L136.81416666666667,132.54393169283867L137.0484375,132.00838619470596L137.28270833333335,131.745910435915L137.5169791666667,133.61814373731613L137.75125,131.46255442500114L137.98552083333334,129.85178583860397L138.21979166666665,131.70683139562607L138.4540625,132.4713563323021L138.68833333333333,130.63033351302147L138.92260416666667,132.21934267878532L139.39114583333333,133.30674225091934L139.62541666666667,130.23272955417633L139.8596875,132.4214635193348L140.09395833333335,131.41995871067047L140.32822916666666,131.60673806071281L140.5625,131.36272484064102L141.03104166666668,131.31946974992752L141.2653125,134.37115156650543L141.49958333333333,131.5357012450695L141.73385416666667,132.0959513783455L141.96812500000001,132.5862636566162L142.20239583333333,135.44452840089798L142.43666666666667,132.3490639925003L142.67093749999998,133.7259297966957L142.90520833333332,130.77007734775543L143.13947916666666,134.54808422923088L143.37375,134.1113572716713L143.84229166666668,133.67208072543144L144.0765625,135.75746843218803L144.31083333333333,135.4622876048088L144.54510416666668,131.73276686668396L144.77937500000002,132.07832404971123L145.01364583333336,133.8454087972641L145.24791666666667,133.92558896541595L145.71645833333332,131.75764733552933L145.95072916666666,132.84869545698166L146.185,130.35985732078552L146.41927083333334,132.51377621293068L147.35635416666668,134.1423479616642L147.59062500000002,133.8617173731327L147.82489583333336,134.08994951844215L148.05916666666664,130.53538331389427L148.29343749999998,130.1942659318447L148.52770833333332,133.05855298042297L148.76197916666666,132.61149579286575L148.99625,132.48757699131966L149.23052083333334,134.34200713038445L149.46479166666666,132.93138125538826L149.6990625,132.176439255476L149.93333333333334,134.42460501194L150.16760416666668,132.19529742002487L150.40187500000002,134.2199785411358L150.63614583333336,133.7174897789955L150.87041666666664,134.14713943004608L151.10468749999998,133.86778363585472L151.33895833333332,134.2248139679432L151.57322916666666,135.1922949552536L151.8075,132.48542302846909L152.04177083333335,134.4589805006981L152.27604166666666,136.2963547706604L152.5103125,133.3953624367714L152.74458333333334,133.44310128688812L152.97885416666668,134.69121286273003L153.44739583333333,133.9339410662651L153.68166666666664,134.28428971767426L153.91593749999998,135.67284846305847L154.15020833333332,134.02730876207352L154.38447916666667,135.62752732634544L154.61875,133.69951078295708L154.85302083333332,134.95685362815857L155.08729166666666,132.4361895918846L155.3215625,136.54872009158134L155.55583333333334,131.6061226427555L155.79010416666668,134.0113958120346L156.02437500000002,133.51242372393608L156.25864583333333,132.5876263678074L156.49291666666667,133.7273364663124L156.72718749999999,134.1674921810627L156.96145833333333,132.03608000278473L157.19572916666667,134.2089449763298L157.43,132.84500294923782L157.66427083333332,134.11003851890564L157.89854166666666,135.5023337304592L158.1328125,136.55803927779198L158.36708333333334,132.75189900398254L158.60135416666668,134.71947813034058L158.835625,136.227164208889L159.06989583333333,133.7329631447792L159.30416666666667,133.50231328606606L159.53843750000001,133.30137932300568L159.77270833333333,136.64665946364403L160.00697916666667,134.93949005007744L160.24124999999998,136.21955940127373L160.47552083333332,135.07606887817383L160.70979166666666,134.24204567074776L160.9440625,134.71204915642738L161.17833333333334,135.68634369969368L161.41260416666668,132.4142543375492L161.88114583333333,134.5831190943718L162.11541666666668,136.7427525818348L162.34968750000002,134.42609959840775L162.58395833333336,135.67280450463295L162.81822916666667,135.7732934653759L163.05249999999998,136.02231794595718L163.28677083333332,135.69676184654236L163.52104166666666,135.20231747627258L163.7553125,133.86154153943062L163.98958333333334,136.75994032621384L164.22385416666665,134.25360673666L164.458125,135.3473802804947L164.69239583333334,132.68626907467842L164.92666666666668,134.06678342819214L165.16093750000002,131.87048861384392L165.39520833333336,135.08292639255524L165.86374999999998,135.59873455762863L166.09802083333332,134.28380617499352L166.33229166666666,136.16373220086098L166.5665625,134.7644036412239L166.80083333333334,135.07123345136642L167.03510416666666,135.0836297273636L167.269375,135.73482984304428L167.50364583333334,135.2158127129078L167.73791666666668,136.14742362499237L167.97218750000002,135.49697080254555L168.20645833333336,137.303442299366L168.44072916666664,134.46750843524933L168.67499999999998,136.6641109585762L168.90927083333332,136.92575150728226L169.14354166666666,134.30600517988205L169.3778125,137.31460773944855L169.61208333333335,136.20509707927704L169.84635416666666,133.0584211051464L170.080625,135.70317977666855L170.31489583333334,136.7997227013111L170.54916666666668,136.6504398882389L170.78343750000002,136.47355118393898L171.01770833333333,135.55244633555412L171.25197916666664,136.116476893425L171.48624999999998,136.057176977396L171.72052083333332,136.55557760596275L171.95479166666667,136.46410012245178L172.1890625,137.30594792962074L172.42333333333332,136.9797324538231L172.65760416666666,135.81580126285553L172.891875,136.84873634576797L173.12614583333334,133.92088541388512L173.36041666666668,136.52819150686264L173.59468750000002,135.5359179675579L173.82895833333333,134.41581332683563L174.06322916666667,139.14688283205032L174.29749999999999,136.31292709708214L174.53177083333333,132.96575674414635L174.76604166666667,137.1123550236225L175.0003125,134.57947054505348L175.23458333333332,136.7403788268566L175.46885416666666,136.2847057878971L175.703125,135.6461656987667L175.93739583333334,134.42939648032188L176.17166666666668,137.1915681064129L176.4059375,133.02044102549553L176.87447916666667,136.14839071035385L177.10875000000001,136.82113045454025L177.34302083333333,137.78047913312912L177.57729166666667,135.12881898880005L177.81156249999998,137.17262202501297L178.04583333333332,136.2348129749298L178.28010416666666,137.43355923891068L178.514375,137.36946785449982L178.74864583333334,136.0726503431797L178.98291666666668,136.72055357694626L179.2171875,140.22105091810226L179.45145833333333,136.91454210877419L179.68572916666668,135.3824151456356L179.92000000000002,138.59023728966713L180.15427083333336,138.4024908542633L180.62281249999998,136.99599707126617L180.85708333333332,136.39099726080894L181.09135416666666,137.49343061447144L181.325625,137.66829723119736L181.55989583333334,138.99861106276512L181.79416666666665,137.9287069439888L182.0284375,137.51686045527458L182.26270833333334,138.9816870689392L182.49697916666668,138.05249387025833L182.73125000000002,137.40973377227783L182.96552083333336,138.85851556062698L183.19979166666664,140.30127504467964L183.43406249999998,139.77100455760956L183.66833333333332,139.85663557052612L183.90260416666666,139.1311457157135L184.136875,137.51211294531822L184.37114583333334,138.81939256191254L184.60541666666666,136.40414083003998L184.8396875,139.09022042155266L185.07395833333334,138.07570391893387L185.30822916666668,138.72664028406143L185.54250000000002,136.13595047593117L185.77677083333336,140.5971152484417L186.01104166666664,139.66000953316689L186.24531249999998,139.59336856007576L186.47958333333332,139.97259789705276L187.18239583333335,140.70446172356606L187.41666666666666,136.07300201058388L187.6509375,138.94401469826698L187.88520833333334,139.07149413228035L188.11947916666668,140.4786033332348L188.35375000000002,139.8919781446457L188.58802083333333,138.43352550268173L188.82229166666664,139.01821652054787L189.05656249999998,138.09513354301453L189.29083333333332,142.2419516146183L189.52510416666667,139.56545495986938L189.759375,139.40223732590675L189.99364583333332,140.74907952547073L190.22791666666666,138.6877370774746L190.69645833333334,139.9523330628872L190.93072916666668,139.95668494701385L191.16500000000002,139.02226069569588L191.39927083333333,138.17799517512321L191.63354166666667,137.99055644869804L191.86781249999999,137.4139098227024L192.10208333333333,138.62179943919182L192.33635416666667,140.51869341731071L192.570625,138.34424594044685L192.80489583333332,141.7389793097973L193.03916666666666,139.0804616510868L193.2734375,140.872338950634L193.50770833333334,138.73151966929436L193.74197916666668,138.55608159303665L193.97625,139.03250300884247L194.21052083333333,139.15097096562386L194.44479166666667,139.52088111639023L194.67906250000001,138.19258937239647L194.91333333333333,137.52195963263512L195.14760416666667,140.42980948090553L195.38187499999998,139.45692160725594L195.61614583333332,139.29414355754852L195.85041666666666,139.50316587090492L196.0846875,141.87410750985146L196.31895833333334,141.06118434667587L196.55322916666668,140.30835235118866L196.7875,139.68330749869347L197.02177083333333,139.7493770122528L197.25604166666668,137.97965475916862L197.49031250000002,139.43023884296417L197.72458333333336,139.48611000180244L197.95885416666667,140.5924996137619L198.19312499999998,142.88216212391853L198.42739583333332,139.83878844976425L198.8959375,139.81206172704697L199.13020833333334,139.57767540216446L199.36447916666665,142.22190657258034L199.59875,140.27393290400505L199.83302083333334,141.45641455054283L200.06729166666668,142.17953065037727L200.30156250000002,140.90227463841438L200.53583333333336,142.41237843036652L200.77010416666664,140.23977720737457L201.00437499999998,139.28412103652954L201.23864583333332,139.35898223519325L201.47291666666666,140.28940626978874L201.7071875,141.2775037586689L201.94145833333334,139.3792031109333L202.17572916666666,141.27864667773247L202.41,139.93593657016754L202.64427083333334,143.52782347798347L202.87854166666668,140.66542664170265L203.11281250000002,141.00333505868912L203.34708333333336,139.79056605696678L203.58135416666664,140.0804718732834L203.81562499999998,142.54961663484573L204.04989583333332,142.9975529909134L204.28416666666666,143.07694190740585L204.5184375,143.2524679005146L204.75270833333335,140.8107531964779L204.98697916666666,143.1339559853077L205.22125,141.14259535074234L205.68979166666668,140.53803512454033L205.92406250000002,142.96001249551773L206.15833333333333,139.4624603688717L206.39260416666664,142.66738125681877L206.62687499999998,143.5061519742012L206.86114583333332,143.96758356690407L207.09541666666667,141.9703764617443L207.3296875,142.1131973862648L207.56395833333332,141.3406720161438L207.79822916666666,142.0787779390812L208.0325,140.99129045009613L208.26677083333334,141.45650246739388L208.50104166666668,144.46422585844994L208.73531250000002,140.87400937080383L208.96958333333333,141.09560379385948L209.20385416666667,144.30197530984879L209.43812499999999,142.29514130949974L209.67239583333333,141.2759212553501L209.90666666666667,142.27166751027107L210.1409375,143.25158873200417L210.37520833333332,142.8285768032074L210.60947916666666,142.6815358698368L210.84375,142.50473508238792L211.07802083333334,140.3802683353424L211.31229166666668,141.38568544387817L211.5465625,141.55000203847885L211.78083333333333,141.0167863368988L212.01510416666667,140.8001152575016L212.24937500000001,142.47783252596855L212.48364583333333,142.7119111418724L212.71791666666667,140.2472940981388L212.95218749999998,139.9318044781685L213.42072916666666,142.7450997531414L213.655,142.11653822660446L213.88927083333334,143.2482478916645L214.12354166666668,140.95625558495522L214.3578125,140.74705743789673L214.59208333333333,140.47394374012947L214.82635416666668,140.4087973535061L215.06062500000002,143.27044689655304L215.29489583333336,139.85131660103798L215.52916666666667,141.2887571156025L215.76343749999998,143.18455213308334L215.99770833333332,143.03452202677727L216.23197916666666,140.3653664290905L216.46625,139.27708768844604L216.70052083333334,141.97631084918976L216.93479166666665,142.19219067692757L217.1690625,142.56394708156586L217.40333333333334,141.22796261310577L217.63760416666668,145.06825858354568L217.87187500000002,140.7107917368412L218.10614583333336,141.900350689888L218.34041666666664,140.70780256390572L218.57468749999998,144.23726850748062L218.80895833333332,140.58995002508163L219.04322916666666,141.51663759350777L219.2775,143.3049542605877L219.51177083333334,139.01210629940033L219.74604166666666,140.05466827750206L219.9803125,141.08263605833054L220.21458333333334,141.64134764671326L220.44885416666668,143.66611668467522L220.68312500000002,141.0934058725834L220.91739583333336,143.25189644098282L221.15166666666664,142.95900145173073L221.38593749999998,142.38587149977684L221.62020833333332,142.9100757241249L221.85447916666666,143.52751576900482L222.08875,143.48856860399246L222.55729166666666,143.5174053311348L222.7915625,141.24013909697533L223.02583333333334,144.16790211200714L223.26010416666668,142.89187693595886L223.49437500000002,142.2445891201496L223.72864583333333,142.74474808573723L223.96291666666664,143.04995143413544L224.19718749999998,141.69427359104156L224.66572916666667,141.8814485669136L224.9,139.69970399141312L225.13427083333332,144.3464612364769L225.36854166666666,141.82900616526604L225.6028125,142.90787780284882L226.07135416666668,140.21898487210274L226.30562500000002,144.03598287701607L226.53989583333333,145.3117003440857L226.77416666666667,144.12284472584724L227.00843749999999,143.873908162117L227.24270833333333,143.4170482456684L227.47697916666667,143.1180869936943L227.71125,145.15287855267525L227.94552083333332,142.47374439239502L228.17979166666666,142.85750144720078L228.4140625,142.43057721853256L228.64833333333334,144.21533325314522L228.88260416666668,143.2460060119629L229.116875,142.76250728964806L229.35114583333333,143.75271478295326L229.58541666666667,144.0889527797699L229.81968750000001,145.18593528866768L230.05395833333333,143.0418191254139L230.28822916666667,145.8508504331112L230.52249999999998,139.89496731758118L230.75677083333332,144.316481590271L230.99104166666666,145.67470902204514L231.2253125,145.86825796961784L231.45958333333334,144.3738033771515L231.69385416666668,145.48458883166313L231.928125,143.77144107222557L232.16239583333333,144.05752250552177L232.39666666666668,144.6862598657608L232.63093750000002,143.44825872778893L232.86520833333336,145.229849755764L233.09947916666667,142.69226172566414L233.33374999999998,144.01642137765884L233.56802083333332,143.77016627788544L233.80229166666666,143.57248523831367L234.0365625,144.16311064362526L234.27083333333334,142.95258352160454L234.50510416666665,142.57986003160477L234.739375,145.64160832762718L234.97364583333334,143.4811835885048L235.20791666666668,145.01150825619698L235.44218750000002,146.5427120923996L235.67645833333336,144.5233059823513L235.91072916666664,145.87806069850922L236.14499999999998,144.04380747675896L236.37927083333332,142.0015429854393L236.61354166666666,147.77016320824623L236.8478125,146.60100096464157L237.08208333333334,145.7478558421135L237.31635416666666,141.9981142282486L237.78489583333334,146.10347950458527L238.01916666666668,143.39260736107826L238.25343750000002,143.2715898156166L238.48770833333336,142.48143711686134L238.95624999999998,145.22611328959465L239.19052083333332,144.8180472254753L239.42479166666666,145.672423183918L239.6590625,145.5116672217846L239.89333333333335,144.34540623426437L240.12760416666666,144.7681104540825L240.361875,143.37432065606117L240.59614583333334,141.97969564795494L240.83041666666668,145.6696098446846L241.29895833333333,144.81554159522057L241.53322916666664,144.72415202856064L241.76749999999998,144.1664075255394L242.00177083333332,144.2211357653141L242.23604166666667,142.64373162388802L242.4703125,144.00253051519394L242.70458333333332,144.65315917134285L242.93885416666666,142.37967336177826L243.173125,144.50352469086647L243.40739583333334,146.79551699757576L243.87593750000002,144.77791318297386L244.11020833333333,143.33770328760147L244.34447916666667,146.46802672743797L244.57874999999999,146.58179113268852L244.81302083333333,144.02112492918968L245.2815625,144.43450996279716L245.51583333333332,146.73313999176025L245.75010416666666,144.91145887970924L246.21864583333334,144.12935057282448L246.45291666666668,142.36833208799362L246.6871875,142.61344426870346L246.92145833333333,147.66039901971817L247.15572916666667,144.65329104661942L247.39000000000001,145.51474431157112L247.62427083333333,147.24780523777008L247.85854166666667,145.34840562939644L248.09281249999998,144.05343437194824L248.32708333333332,144.5164484679699L248.56135416666666,144.4136297106743L248.795625,145.84667438268661L249.02989583333334,146.9909561574459L249.26416666666668,145.9079963862896L249.4984375,145.13393247127533L249.73270833333333,147.79917576909065L249.96697916666668,144.92253640294075L250.43552083333336,145.26347795128822L250.66979166666667,143.3534404039383L250.90406249999998,144.65496146678925L251.13833333333332,142.78984943032265L251.37260416666666,145.52001932263374L251.606875,145.0956446826458L251.84114583333334,147.92168790102005L252.07541666666665,144.73026224970818L252.3096875,148.6262975037098L252.54395833333334,147.18652719259262L252.77822916666668,146.9786477982998L253.01250000000002,143.96450647711754L253.24677083333336,145.76627442240715L253.48104166666664,144.00477239489555L253.71531249999998,146.80167117714882L253.94958333333332,147.24134334921837L254.18385416666666,144.7629233598709L254.418125,146.06949964165688L254.65239583333334,146.90813848376274L254.88666666666666,146.71762266755104L255.1209375,146.47303798794746L255.35520833333334,143.44773122668266L255.58947916666668,146.21676036715508L255.82375000000002,146.32670038938522L256.05802083333333,148.03259500861168L256.29229166666664,146.90730327367783L256.7608333333333,144.22720202803612L256.9951041666667,150.32230147719383L257.4636458333334,147.29717054963112L257.69791666666663,146.24647626280785L257.9321875,149.0409573316574L258.1664583333333,147.38877990841866L258.4007291666667,146.7944180369377L258.635,145.7744067311287L258.8692708333333,145.58688008785248L259.3378125,148.5355673134327L259.57208333333335,145.99586927890778L259.80635416666667,146.1049301326275L260.04062500000003,147.07408154010773L260.27489583333335,146.84593731164932L260.50916666666666,147.12621623277664L260.74343749999997,146.19680324196815L260.97770833333334,146.426837682724L261.44625,148.78292137384415L261.68052083333333,146.72004038095474L261.91479166666664,147.35862442851067L262.1490625,147.82686957716942L262.3833333333333,147.3645148575306L262.6176041666667,147.5892303287983L262.851875,147.5341064631939L263.0861458333333,144.9333062171936L263.3204166666667,144.71074470877647L263.5546875,147.55015128850937L263.7889583333333,149.47131031751633L264.0232291666667,146.11948037147522L264.2575,148.24174919724464L264.4917708333333,148.6997520327568L264.7260416666667,148.37982261180878L264.9603125,149.587360560894L265.19458333333336,147.32376539707184L265.42885416666667,147.25140982866287L265.663125,145.87291756272316L265.89739583333335,145.81150764226913L266.13166666666666,148.06969591975212L266.36593750000003,147.03183749318123L266.60020833333334,146.71744683384895L266.83447916666665,147.22059497237206L267.06874999999997,147.20564910769463L267.30302083333333,148.3188962340355L267.53729166666665,147.1126770377159L267.7715625,147.7061157822609L268.0058333333333,150.04835256934166L268.2401041666667,149.20580142736435L268.7086458333333,149.12017041444778L268.9429166666667,147.64448606967926L269.1771875,148.078531563282L269.41145833333337,148.15378838777542L269.6457291666666,145.94377854466438L269.88,148.9536119401455L270.1142708333333,149.6052516400814L270.3485416666667,147.9966370165348L270.5828125,148.61513206362724L270.81708333333336,148.2358148097992L271.05135416666667,149.21450519561768L271.285625,150.98176577687263" style="fill: none;" fill="none"></path></g></g></g></g></g></g><g transform="translate(48, 177)" clip-path="url(#clip_1)"><clipPath id="clip_1"><rect width="281" height="23"></rect></clipPath><g><g><line x1="0" y1="0" x2="0" y2="5" style="visibility: inherit;" fill="rgb(0, 0, 0)" stroke="rgb(204, 204, 204)" stroke-width="1px"></line><line x1="23.427083333333332" y1="0" x2="23.427083333333332" y2="5" style="visibility: inherit;" fill="rgb(0, 0, 0)" stroke="rgb(204, 204, 204)" stroke-width="1px"></line><line x1="46.854166666666664" y1="0" x2="46.854166666666664" y2="5" style="visibility: inherit;" fill="rgb(0, 0, 0)" stroke="rgb(204, 204, 204)" stroke-width="1px"></line><line x1="70.28125" y1="0" x2="70.28125" y2="5" style="visibility: inherit;" fill="rgb(0, 0, 0)" stroke="rgb(204, 204, 204)" stroke-width="1px"></line><line x1="93.70833333333333" y1="0" x2="93.70833333333333" y2="5" style="visibility: inherit;" fill="rgb(0, 0, 0)" stroke="rgb(204, 204, 204)" stroke-width="1px"></line><line x1="117.13541666666667" y1="0" x2="117.13541666666667" y2="5" style="visibility: inherit;" fill="rgb(0, 0, 0)" stroke="rgb(204, 204, 204)" stroke-width="1px"></line><line x1="140.5625" y1="0" x2="140.5625" y2="5" style="visibility: inherit;" fill="rgb(0, 0, 0)" stroke="rgb(204, 204, 204)" stroke-width="1px"></line><line x1="163.98958333333334" y1="0" x2="163.98958333333334" y2="5" style="visibility: inherit;" fill="rgb(0, 0, 0)" stroke="rgb(204, 204, 204)" stroke-width="1px"></line><line x1="187.41666666666666" y1="0" x2="187.41666666666666" y2="5" style="visibility: inherit;" fill="rgb(0, 0, 0)" stroke="rgb(204, 204, 204)" stroke-width="1px"></line><line x1="210.84375" y1="0" x2="210.84375" y2="5" style="visibility: inherit;" fill="rgb(0, 0, 0)" stroke="rgb(204, 204, 204)" stroke-width="1px"></line><line x1="234.27083333333334" y1="0" x2="234.27083333333334" y2="5" style="visibility: inherit;" fill="rgb(0, 0, 0)" stroke="rgb(204, 204, 204)" stroke-width="1px"></line><line x1="257.69791666666663" y1="0" x2="257.69791666666663" y2="5" style="visibility: inherit;" fill="rgb(0, 0, 0)" stroke="rgb(204, 204, 204)" stroke-width="1px"></line><line x1="281.125" y1="0" x2="281.125" y2="5" style="visibility: inherit;" fill="rgb(0, 0, 0)" stroke="rgb(204, 204, 204)" stroke-width="1px"></line></g><g transform="translate(0, 8)"><text x="0" y="0" dx="0em" dy="0.95em" style="text-anchor: middle; visibility: hidden; font-family: &quot;Helvetica Neue&quot;, sans-serif; font-size: 12px; font-weight: 200;" fill="rgb(50, 49, 63)" stroke="none" stroke-width="1px">-100</text><text x="23.427083333333332" y="0" dx="0em" dy="0.95em" style="text-anchor: middle; visibility: inherit; font-family: &quot;Helvetica Neue&quot;, sans-serif; font-size: 12px; font-weight: 200;" fill="rgb(50, 49, 63)" stroke="none" stroke-width="1px">0</text><text x="46.854166666666664" y="0" dx="0em" dy="0.95em" style="text-anchor: middle; visibility: hidden; font-family: &quot;Helvetica Neue&quot;, sans-serif; font-size: 12px; font-weight: 200;" fill="rgb(50, 49, 63)" stroke="none" stroke-width="1px">100</text><text x="70.28125" y="0" dx="0em" dy="0.95em" style="text-anchor: middle; visibility: inherit; font-family: &quot;Helvetica Neue&quot;, sans-serif; font-size: 12px; font-weight: 200;" fill="rgb(50, 49, 63)" stroke="none" stroke-width="1px">200</text><text x="93.70833333333333" y="0" dx="0em" dy="0.95em" style="text-anchor: middle; visibility: hidden; font-family: &quot;Helvetica Neue&quot;, sans-serif; font-size: 12px; font-weight: 200;" fill="rgb(50, 49, 63)" stroke="none" stroke-width="1px">300</text><text x="117.13541666666667" y="0" dx="0em" dy="0.95em" style="text-anchor: middle; visibility: inherit; font-family: &quot;Helvetica Neue&quot;, sans-serif; font-size: 12px; font-weight: 200;" fill="rgb(50, 49, 63)" stroke="none" stroke-width="1px">400</text><text x="140.5625" y="0" dx="0em" dy="0.95em" style="text-anchor: middle; visibility: hidden; font-family: &quot;Helvetica Neue&quot;, sans-serif; font-size: 12px; font-weight: 200;" fill="rgb(50, 49, 63)" stroke="none" stroke-width="1px">500</text><text x="163.98958333333334" y="0" dx="0em" dy="0.95em" style="text-anchor: middle; visibility: inherit; font-family: &quot;Helvetica Neue&quot;, sans-serif; font-size: 12px; font-weight: 200;" fill="rgb(50, 49, 63)" stroke="none" stroke-width="1px">600</text><text x="187.41666666666666" y="0" dx="0em" dy="0.95em" style="text-anchor: middle; visibility: hidden; font-family: &quot;Helvetica Neue&quot;, sans-serif; font-size: 12px; font-weight: 200;" fill="rgb(50, 49, 63)" stroke="none" stroke-width="1px">700</text><text x="210.84375" y="0" dx="0em" dy="0.95em" style="text-anchor: middle; visibility: inherit; font-family: &quot;Helvetica Neue&quot;, sans-serif; font-size: 12px; font-weight: 200;" fill="rgb(50, 49, 63)" stroke="none" stroke-width="1px">800</text><text x="234.27083333333334" y="0" dx="0em" dy="0.95em" style="text-anchor: middle; visibility: hidden; font-family: &quot;Helvetica Neue&quot;, sans-serif; font-size: 12px; font-weight: 200;" fill="rgb(50, 49, 63)" stroke="none" stroke-width="1px">900</text><text x="257.69791666666663" y="0" dx="0em" dy="0.95em" style="text-anchor: middle; visibility: inherit; font-family: &quot;Helvetica Neue&quot;, sans-serif; font-size: 12px; font-weight: 200;" fill="rgb(50, 49, 63)" stroke="none" stroke-width="1px">1k</text><text x="281.125" y="0" dx="0em" dy="0.95em" style="text-anchor: middle; visibility: hidden; font-family: &quot;Helvetica Neue&quot;, sans-serif; font-size: 12px; font-weight: 200;" fill="rgb(50, 49, 63)" stroke="none" stroke-width="1px">1.1k</text></g><line x1="0" y1="0" x2="281.125" y2="0" fill="rgb(0, 0, 0)" stroke="rgb(204, 204, 204)" stroke-width="1px"></line></g></g></g></g></svg>