<svg viewBox="0 0 330 200" xmlns="http://www.w3.org/2000/svg"><g><g><g><g><g><line x1="48.875" y1="177" x2="43.875" y2="177" style="visibility: inherit;" fill="rgb(0, 0, 0)" stroke="rgb(204, 204, 204)" stroke-width="1px"></line><line x1="48.875" y1="154.875" x2="43.875" y2="154.875" style="visibility: inherit;" fill="rgb(0, 0, 0)" stroke="rgb(204, 204, 204)" stroke-width="1px"></line><line x1="48.875" y1="132.74999999999997" x2="43.875" y2="132.74999999999997" style="visibility: inherit;" fill="rgb(0, 0, 0)" stroke="rgb(204, 204, 204)" stroke-width="1px"></line><line x1="48.875" y1="110.62499999999996" x2="43.875" y2="110.62499999999996" style="visibility: inherit;" fill="rgb(0, 0, 0)" stroke="rgb(204, 204, 204)" stroke-width="1px"></line><line x1="48.875" y1="88.49999999999994" x2="43.875" y2="88.49999999999994" style="visibility: inherit;" fill="rgb(0, 0, 0)" stroke="rgb(204, 204, 204)" stroke-width="1px"></line><line x1="48.875" y1="66.37500000000004" x2="43.875" y2="66.37500000000004" style="visibility: inherit;" fill="rgb(0, 0, 0)" stroke="rgb(204, 204, 204)" stroke-width="1px"></line><line x1="48.875" y1="44.25000000000003" x2="43.875" y2="44.25000000000003" style="visibility: inherit;" fill="rgb(0, 0, 0)" stroke="rgb(204, 204, 204)" stroke-width="1px"></line><line x1="48.875" y1="22.12500000000003" x2="43.875" y2="22.12500000000003" style="visibility: inherit;" fill="rgb(0, 0, 0)" stroke="rgb(204, 204, 204)" stroke-width="1px"></line><line x1="48.875" y1="0" x2="43.875" y2="0" style="visibility: inherit;" fill="rgb(0, 0, 0)" stroke="rgb(204, 204, 204)" stroke-width="1px"></line></g><g transform="translate(38.875, 0)"><text x="0" y="177" dx="0em" dy="0.3em" style="text-anchor: end; visibility: hidden; font-family: &quot;Helvetica Neue&quot;, sans-serif; font-size: 12px; font-weight: 200;" fill="rgb(50, 49, 63)" stroke="none" stroke-width="1px">0.3</text><text x="0" y="154.875" dx="0em" dy="0.3em" style="text-anchor: end; visibility: inherit; font-family: &quot;Helvetica Neue&quot;, sans-serif; font-size: 12px; font-weight: 200;" fill="rgb(50, 49, 63)" stroke="none" stroke-width="1px">0.31</text><text x="0" y="132.74999999999997" dx="0em" dy="0.3em" style="text-anchor: end; visibility: hidden; font-family: &quot;Helvetica Neue&quot;, sans-serif; font-size: 12px; font-weight: 200;" fill="rgb(50, 49, 63)" stroke="none" stroke-width="1px">0.32</text><text x="0" y="110.62499999999996" dx="0em" dy="0.3em" style="text-anchor: end; visibility: inherit; font-family: &quot;Helvetica Neue&quot;, sans-serif; font-size: 12px; font-weight: 200;" fill="rgb(50, 49, 63)" stroke="none" stroke-width="1px">0.33</text><text x="0" y="88.49999999999994" dx="0em" dy="0.3em" style="text-anchor: end; visibility: hidden; font-family: &quot;Helvetica Neue&quot;, sans-serif; font-size: 12px; font-weight: 200;" fill="rgb(50, 49, 63)" stroke="none" stroke-width="1px">0.34</text><text x="0" y="66.37500000000004" dx="0em" dy="0.3em" style="text-anchor: end; visibility: inherit; font-family: &quot;Helvetica Neue&quot;, sans-serif; font-size: 12px; font-weight: 200;" fill="rgb(50, 49, 63)" stroke="none" stroke-width="1px">0.35</text><text x="0" y="44.25000000000003" dx="0em" dy="0.3em" style="text-anchor: end; visibility: hidden; font-family: &quot;Helvetica Neue&quot;, sans-serif; font-size: 12px; font-weight: 200;" fill="rgb(50, 49, 63)" stroke="none" stroke-width="1px">0.36</text><text x="0" y="22.12500000000003" dx="0em" dy="0.3em" style="text-anchor: end; visibility: inherit; font-family: &quot;Helvetica Neue&quot;, sans-serif; font-size: 12px; font-weight: 200;" fill="rgb(50, 49, 63)" stroke="none" stroke-width="1px">0.37</text><text x="0" y="0" dx="0em" dy="0.3em" style="text-anchor: end; visibility: hidden; font-family: &quot;Helvetica Neue&quot;, sans-serif; font-size: 12px; font-weight: 200;" fill="rgb(50, 49, 63)" stroke="none" stroke-width="1px">0.38</text></g><line x1="48.875" y1="0" x2="48.875" y2="177" fill="rgb(0, 0, 0)" stroke="rgb(204, 204, 204)" stroke-width="1px"></line></g></g><g transform="translate(48, 0)" clip-path="url(#clip_0)"><clipPath id="clip_0"><rect width="281" height="177"></rect></clipPath><g><g><g><line x1="0" y1="0" x2="0" y2="177" fill="rgb(0, 0, 0)" stroke="rgb(60, 60, 60)" stroke-width="1px" opacity="0.25"></line><line x1="23.427083333333332" y1="0" x2="23.427083333333332" y2="177" fill="rgb(0, 0, 0)" stroke="rgb(60, 60, 60)" stroke-width="1px" opacity="0.25"></line><line x1="46.854166666666664" y1="0" x2="46.854166666666664" y2="177" fill="rgb(0, 0, 0)" stroke="rgb(60, 60, 60)" stroke-width="1px" opacity="0.25"></line><line x1="70.28125" y1="0" x2="70.28125" y2="177" fill="rgb(0, 0, 0)" stroke="rgb(60, 60, 60)" stroke-width="1px" opacity="0.25"></line><line x1="93.70833333333333" y1="0" x2="93.70833333333333" y2="177" fill="rgb(0, 0, 0)" stroke="rgb(60, 60, 60)" stroke-width="1px" opacity="0.25"></line><line x1="117.13541666666667" y1="0" x2="117.13541666666667" y2="177" fill="rgb(0, 0, 0)" stroke="rgb(60, 60, 60)" stroke-width="1px" opacity="0.25"></line><line x1="140.5625" y1="0" x2="140.5625" y2="177" fill="rgb(0, 0, 0)" stroke="rgb(60, 60, 60)" stroke-width="1px" opacity="0.25"></line><line x1="163.98958333333334" y1="0" x2="163.98958333333334" y2="177" fill="rgb(0, 0, 0)" stroke="rgb(60, 60, 60)" stroke-width="1px" opacity="0.25"></line><line x1="187.41666666666666" y1="0" x2="187.41666666666666" y2="177" fill="rgb(0, 0, 0)" stroke="rgb(60, 60, 60)" stroke-width="1px" opacity="0.25"></line><line x1="210.84375" y1="0" x2="210.84375" y2="177" fill="rgb(0, 0, 0)" stroke="rgb(60, 60, 60)" stroke-width="1px" opacity="0.25"></line><line x1="234.27083333333334" y1="0" x2="234.27083333333334" y2="177" fill="rgb(0, 0, 0)" stroke="rgb(60, 60, 60)" stroke-width="1px" opacity="0.25"></line><line x1="257.69791666666663" y1="0" x2="257.69791666666663" y2="177" fill="rgb(0, 0, 0)" stroke="rgb(60, 60, 60)" stroke-width="1px" opacity="0.25"></line><line x1="281.125" y1="0" x2="281.125" y2="177" fill="rgb(0, 0, 0)" stroke="rgb(60, 60, 60)" stroke-width="1px" opacity="0.25"></line></g><g><line x1="0" y1="177" x2="281.125" y2="177" fill="rgb(0, 0, 0)" stroke="rgb(60, 60, 60)" stroke-width="1px" opacity="0.25"></line><line x1="0" y1="154.875" x2="281.125" y2="154.875" fill="rgb(0, 0, 0)" stroke="rgb(60, 60, 60)" stroke-width="1px" opacity="0.25"></line><line x1="0" y1="132.74999999999997" x2="281.125" y2="132.74999999999997" fill="rgb(0, 0, 0)" stroke="rgb(60, 60, 60)" stroke-width="1px" opacity="0.25"></line><line x1="0" y1="110.62499999999996" x2="281.125" y2="110.62499999999996" fill="rgb(0, 0, 0)" stroke="rgb(60, 60, 60)" stroke-width="1px" opacity="0.25"></line><line x1="0" y1="88.49999999999994" x2="281.125" y2="88.49999999999994" fill="rgb(0, 0, 0)" stroke="rgb(60, 60, 60)" stroke-width="1px" opacity="0.25"></line><line x1="0" y1="66.37500000000004" x2="281.125" y2="66.37500000000004" fill="rgb(0, 0, 0)" stroke="rgb(60, 60, 60)" stroke-width="1px" opacity="0.25"></line><line x1="0" y1="44.25000000000003" x2="281.125" y2="44.25000000000003" fill="rgb(0, 0, 0)" stroke="rgb(60, 60, 60)" stroke-width="1px" opacity="0.25"></line><line x1="0" y1="22.12500000000003" x2="281.125" y2="22.12500000000003" fill="rgb(0, 0, 0)" stroke="rgb(60, 60, 60)" stroke-width="1px" opacity="0.25"></line><line x1="0" y1="0" x2="281.125" y2="0" fill="rgb(0, 0, 0)" stroke="rgb(60, 60, 60)" stroke-width="1px" opacity="0.25"></line></g></g></g><g><g><line x1="0" y1="840.7499999999999" x2="281.125" y2="840.7499999999999" fill="rgb(0, 0, 0)" stroke="rgb(153, 153, 153)" stroke-width="1.5px"></line></g></g><g><g><line x1="23.427083333333332" y1="0" x2="23.427083333333332" y2="177" fill="rgb(0, 0, 0)" stroke="rgb(153, 153, 153)" stroke-width="1.5px"></line></g></g><g><g><g><g><g><path stroke="rgb(51, 187, 238)" stroke-width="2px" d="M29.049583333333334,-16.661375641822815L29.283854166666668,7.706076398491859L29.518124999999998,18.310826763510704L29.752395833333335,23.064402982592583L30.220937499999998,38.02090559899807L30.455208333333335,54.93120637536049L30.689479166666665,49.90965959429741L30.923750000000002,57.60662604868412L31.158020833333335,59.002723664045334L31.392291666666665,6.700923040509224L31.626562500000002,30.46906788647175L31.860833333333332,33.7102324962616L32.095104166666665,48.032283157110214L32.329375,48.93457379937172L32.56364583333333,37.442170947790146L32.797916666666666,53.41332194209099L33.26645833333333,47.17984136939049L33.500729166666666,57.7529416680336L33.735,55.75522904098034L33.96927083333333,50.49169112741947L34.203541666666666,26.81480397284031L34.4378125,-36.07862542569637L34.90635416666667,-0.08300493657588959L35.140625,14.090290412306786L35.37489583333333,-4.974061131477356L35.60916666666667,9.264446541666985L35.8434375,-28.82726553082466L36.31197916666667,-8.6061040610075L36.54625,7.4233358055353165L36.780520833333334,-9.63229152560234L37.01479166666666,5.1635210663080215L37.2490625,6.376905485987663L37.483333333333334,-21.899725377559662L39.12322916666667,-10.53728561103344L39.3575,12.176450461149216L39.591770833333335,32.42055822908878L39.82604166666667,31.962357580661774L40.060312499999995,37.77146351337433L40.294583333333335,31.239153563976288L40.52885416666667,38.58559553325176L40.763124999999995,44.79850356280804L40.997395833333336,38.3917388767004L41.23166666666667,45.82396571338177L41.465937499999995,41.86981742084026L41.700208333333336,56.39548350870609L41.93447916666667,51.6254888176918L42.168749999999996,53.6777978092432L42.403020833333336,43.749040111899376L42.63729166666667,60.142191991209984L42.871562499999996,57.440199449658394L43.10583333333333,62.18817096948624L43.34010416666667,63.26836135983467L43.574374999999996,59.47147433459759L43.80864583333333,58.299366876482964L44.04291666666667,65.37928891181946L44.277187500000004,62.95746539533138L44.51145833333333,77.18832430243492L44.74572916666667,68.78753949701786L44.980000000000004,77.27562573552132L45.21427083333333,79.40138925611973L45.448541666666664,66.40705887973309L45.682812500000004,43.419813483953476L45.91708333333333,50.32671515643597L46.151354166666664,81.09631624817848L46.385625000000005,74.87226475775242L46.61989583333333,78.95525519549847L46.854166666666664,80.84423665702343L47.088437500000005,86.60481248795986L47.32270833333333,85.6311773210764L47.556979166666665,86.66066166758537L47.791250000000005,85.92117105424404L48.02552083333333,53.54856003820896L48.259791666666665,86.15313966572285L48.4940625,96.02156442403792L48.72833333333333,89.27871559560297L48.962604166666665,100.0094727873802L49.196875,89.75689534842967L49.43114583333334,69.8734664618969L49.665416666666665,88.61439388990401L49.8996875,84.59595640003681L50.13395833333334,89.17281974852084L50.368229166666666,92.36664113402365L50.6025,90.18568781018256L50.83677083333334,93.61840125918387L51.071041666666666,87.36052376031876L51.3053125,98.21900215744971L51.53958333333333,105.43950323760508L51.773854166666666,94.57964015007018L52.008125,103.2512308359146L52.24239583333333,108.23196221888064L52.47666666666667,98.79219804704188L52.7109375,96.77239631116389L52.94520833333333,108.72656044363974L53.17947916666667,97.04168562591074L53.648020833333334,97.53522884845732L53.88229166666667,101.22786846756934L54.1165625,98.3763953000307L54.58510416666666,104.37612694501875L54.819375,76.99914921820164L55.053645833333334,96.44791719317435L55.28791666666666,91.47246082127093L55.5221875,97.6264206022024L55.756458333333335,107.1188689470291L55.99072916666666,106.87180061638354L56.225,106.87213030457495L56.459270833333335,101.48357462882994L56.69354166666667,97.9698238223791L56.9278125,102.50897084176539L57.162083333333335,101.82539534568785L57.39635416666667,117.80221697688103L57.630624999999995,121.62752312421799L57.864895833333335,120.6099075525999L58.09916666666667,107.43055616319178L58.333437499999995,113.66654236614704L58.567708333333336,103.68008923530577L58.80197916666667,104.13690519332884L59.270520833333336,109.28854693472384L59.50479166666667,115.63781400024891L59.739062499999996,132.10534353554246L59.973333333333336,143.53022624552247L60.20760416666667,84.6143530011177L60.441874999999996,117.32713629305363L60.67614583333333,104.40982107818125L60.91041666666667,67.21294869482517L61.144687499999996,76.24495451152325L61.37895833333333,84.9367221146822L61.61322916666667,82.93854792416096L61.847500000000004,87.08259661495686L62.08177083333333,82.53494364023209L62.31604166666667,90.26158203184603L62.550312500000004,91.42491978406905L62.78458333333333,92.03688700497149L63.018854166666664,88.14267602562904L63.253125000000004,96.51299764215945L63.48739583333333,102.2237246185541L63.721666666666664,92.58700472116469L63.955937500000005,98.54895409941672L64.19020833333333,85.78138326108456L64.42447916666666,67.91050297021866L64.65875,71.1719763725996L64.89302083333334,68.76571413874626L65.12729166666666,71.19657111167908L65.3615625,67.10685503482819L65.59583333333333,68.76650539040565L65.83010416666667,77.08170314133167L66.064375,100.09426859021185L66.29864583333334,101.75596301257609L66.53291666666667,102.19121736288069L66.76718749999999,96.04088415205477L67.00145833333333,106.78146605193614L67.23572916666667,96.68971051275729L67.47,100.5741627216339L67.70427083333334,101.87280450761317L67.93854166666667,105.40824879705904L68.17281249999999,93.14714495837687L68.40708333333333,103.50100260972975L68.64135416666667,109.01253198087214L68.875625,107.36686040461062L69.57843749999999,104.83281102776526L69.81270833333333,96.6433563530445L70.04697916666667,108.85105070471762L70.28125,103.18720538914202L70.51552083333334,109.08664588630198L70.74979166666667,110.52342702448367L70.98406250000001,109.08941526710986L71.45260416666666,75.67604456841946L71.686875,84.13188730180264L71.92114583333334,88.7243119329214L72.15541666666667,83.35151535272598L72.38968750000001,83.29883117973804L72.85822916666666,84.71741352975368L73.0925,104.44760334491728L73.32677083333333,110.36009949445723L73.56104166666667,114.36172288656235L73.79531250000001,112.87588414549826L74.02958333333332,111.4229482859373L74.26385416666666,110.3000962436199L74.498125,113.06736704707146L74.73239583333333,116.21424083411694L74.96666666666667,118.21531628072262L75.20093750000001,120.29314313828945L75.43520833333332,113.55787713825703L75.66947916666666,112.74954763054846L76.13802083333333,118.14258706569672L76.37229166666667,113.5254358202219L76.60656250000001,117.72658650577068L76.84083333333332,119.55912534892559L77.07510416666666,112.34205302596091L77.309375,116.51115801930428L77.54364583333333,117.58073244988918L77.77791666666667,122.28999857604504L78.01218750000001,114.50078536570072L78.24645833333334,112.44056385755538L78.48072916666666,112.07164277136324L78.715,107.4232370853424L78.94927083333333,112.78278020024298L79.18354166666667,111.97372537851332L79.4178125,115.77344772219658L79.65208333333334,119.61741422116756L79.88635416666666,118.12524546682835L80.12062499999999,111.53583352267741L80.35489583333333,114.74310618638992L80.58916666666667,118.05429656803608L80.8234375,113.24131053686142L81.05770833333334,112.667125582695L81.29197916666668,123.17198042571545L81.52624999999999,127.39060458540914L81.76052083333333,118.59478738904L81.99479166666667,118.5005625039339L82.2290625,116.53674182295799L82.46333333333334,108.7094825953245L82.69760416666668,120.41941371560097L82.93187499999999,115.6256155371666L83.16614583333333,122.32250583171844L83.40041666666667,116.01820823550224L83.6346875,108.11413165926932L83.86895833333334,123.90125070512295L84.10322916666668,123.62470825016499L84.33749999999999,119.07567058503628L84.57177083333333,128.13668896257875L84.80604166666667,118.05990126729012L85.0403125,117.58501839637756L85.27458333333334,118.94069623947144L85.50885416666667,125.31660211086273L85.97739583333333,120.97981770336628L86.21166666666666,122.27483291924L86.4459375,124.99034267663956L86.68020833333334,123.185167953372L86.91447916666667,124.98427641391754L87.14874999999999,129.49823525547978L87.38302083333333,109.76764981448649L87.61729166666666,124.04743444919586L87.8515625,128.67645446956155L88.08583333333334,119.94710241258144L88.32010416666667,116.87922191619873L88.55437500000001,124.8022225946188L88.78864583333333,121.40280765295029L89.02291666666666,123.16940885782242L89.2571875,126.27395068109035L89.49145833333334,124.11337208747864L89.72572916666667,128.7149620503187L89.96000000000001,124.06101760268211L90.19427083333333,129.05111213028428L90.42854166666666,124.7585718780756L90.6628125,134.45226189494133L91.13135416666667,122.8506003767252L91.59989583333332,117.64264789223671L91.83416666666666,123.88021659851074L92.0684375,120.06077890098095L92.30270833333333,130.35654549300668L92.53697916666667,125.4273773431778L92.77125000000001,129.23910033702847L93.00552083333332,126.41373847424984L93.23979166666666,125.58246266841888L93.4740625,126.63403612375257L93.70833333333333,131.71670709550378L93.94260416666667,130.24168212711808L94.17687500000001,133.2361740320921L94.41114583333332,120.71666058897972L94.64541666666666,123.28400847315788L94.8796875,124.38523297011852L95.34822916666667,123.34236328303814L95.58250000000001,130.93620327115056L95.81677083333334,99.48078480362891L96.05104166666666,102.33311516046523L96.2853125,127.11162243783471L96.75385416666667,134.68680207431316L96.988125,129.6076257973909L97.22239583333334,142.01234181225297L97.45666666666666,139.78523214161393L97.69093749999999,144.36684300005433L97.92520833333333,143.18563614785668L98.15947916666667,144.79016263782975L98.39375,148.68378017842767L98.62802083333334,143.15049138665196L98.86229166666668,148.37341171503064L99.09656249999999,147.59969946742055L99.33083333333333,145.35432507097718L99.56510416666667,145.16027060151097L99.799375,118.72039858996868L100.03364583333334,121.52967166900635L100.26791666666668,146.87656138837335L100.50218749999999,148.20177604258058L100.73645833333333,146.60582144558427L100.97072916666667,151.69778962433335L101.205,146.0173280239105L101.43927083333334,147.63227266073224L101.67354166666668,144.46139757335183L101.90781249999999,149.15773992240426L102.14208333333333,145.74830245971677L102.37635416666667,148.84875614941117L102.610625,147.7109362632036L102.84489583333334,150.6180607974529L103.07916666666667,147.256098434329L103.31343749999999,149.34816782176492L103.54770833333333,154.85112529993054L103.78197916666666,150.20515930652616L104.01625,150.08337248861787L104.25052083333334,156.09859947860238L104.48479166666667,149.25552543997762L104.71906249999999,145.63310940563676L104.95333333333333,151.89685535430905L105.18760416666666,153.2223996967077L105.421875,154.51609615981576L105.65614583333334,149.94365063309667L105.89041666666667,159.65277005732057L106.12468750000001,151.0283907204866L106.35895833333333,146.13093857467172L106.59322916666666,147.8391849696636L106.8275,140.0923696607351L107.06177083333334,130.4735848009586L107.29604166666667,135.6318203061819L107.53031250000001,136.21081870794296L107.76458333333333,136.77287113666534L107.99885416666666,131.89737622439858L108.233125,142.48320248723027L108.46739583333333,142.25525607168672L108.70166666666667,137.0651067495346L108.93593750000001,141.28729154169557L109.17020833333332,145.00577871501443L109.40447916666666,140.03401485085485L109.63875,142.6480465829372L110.10729166666667,139.5637476146221L110.34156250000001,145.2964977622032L110.57583333333332,141.77206505835053L110.81010416666666,140.8464984297752L111.044375,145.694958910346L111.27864583333333,143.9910643994808L111.51291666666667,140.72853599488732L111.74718750000001,142.33741436898706L111.98145833333332,145.14774245023725L112.21572916666666,141.10517178475854L112.45,147.22227242588994L112.68427083333333,142.89933492243287L112.91854166666667,147.0838033854961L113.15281250000001,130.01512040197846L113.38708333333334,140.86311471462247L113.62135416666666,138.36757291853428L113.855625,152.11121861636636L114.08989583333333,143.72104977071282L114.32416666666667,142.98406478762624L114.5584375,138.38082638382912L114.79270833333334,148.55823491513726L115.02697916666666,145.7122345715761L115.26124999999999,146.9238386750221L115.49552083333333,149.42465548217294L115.9640625,145.14629182219502L116.19833333333334,145.45738559961316L116.43260416666668,146.5616432279348L116.66687499999999,143.13624885678288L116.90114583333333,145.86059425771234L117.13541666666667,144.79444858431813L117.3696875,142.8839055150747L117.60395833333334,145.81331697106359L117.83822916666668,142.74444741010663L118.07249999999999,149.76871807873246L118.30677083333333,147.04694424569604L118.54104166666667,147.41019469499585L118.7753125,147.67922025918958L119.00958333333334,146.9601703137159L119.47812499999999,144.9840192943811L119.71239583333333,141.07642297446725L119.94666666666667,144.92797230184075L120.1809375,147.65515302121636L120.41520833333334,144.7050371468067L120.64947916666667,145.05747382342813L120.88374999999999,142.3521843999624L121.35229166666666,148.58052183687684L121.5865625,148.8900331109762L121.82083333333334,140.6716318130493L122.05510416666667,147.84399841725823L122.28937499999999,143.57348133623597L122.52364583333333,148.12594775855538L122.75791666666666,143.10308222472665L122.9921875,146.07462783157823L123.22645833333334,145.980139195919L123.46072916666667,145.70115704834458L123.69500000000001,144.46977165341374L123.92927083333333,144.61206507682797L124.16354166666666,147.3821052610874L124.63208333333334,143.40435129404065L125.10062500000001,142.94371095299718L125.33489583333333,143.77980020642278L125.56916666666666,141.8583114892244L125.8034375,154.5695715844631L126.03770833333333,147.849537178874L126.27197916666667,144.06689268350598L126.50625000000001,140.17268170416352L126.74052083333332,142.80036252737042L126.97479166666666,130.77920575439927L127.2090625,146.90794770419595L127.44333333333333,144.22936302423474L127.67760416666667,150.19012552499768L127.91187500000001,148.5710927546024L128.14614583333332,149.1132320165634L128.38041666666666,146.41018447279927L128.6146875,148.36226825416085L128.84895833333331,150.5180993378162L129.08322916666665,149.47424058616159L129.3175,149.69565917551515L129.55177083333334,147.2818141132593L129.78604166666668,143.91589549183843L130.02031250000002,149.4902634322643L130.25458333333333,150.24280969798562L130.48885416666667,147.7384981960058L130.723125,145.22845011949536L130.95739583333332,150.7685304880142L131.19166666666666,149.9006592929363L131.4259375,139.58181452751157L131.66020833333334,152.01363091170785L131.89447916666666,147.21811835467813L132.12875,146.41691011190412L132.36302083333334,147.91481544077394L132.59729166666668,143.92815989255902L132.8315625,149.87975706160066L133.06583333333333,147.8268546313047L133.30010416666667,146.72081668674943L133.53437499999998,148.14744342863557L133.76864583333332,153.2074318528175L134.00291666666666,144.88405783474443L134.2371875,148.51511169970033L134.47145833333335,147.37472024559972L134.70572916666669,149.34638750553128L135.17427083333334,147.9364429861307L135.40854166666668,144.97993116080758L135.6428125,144.53333553671834L135.87708333333333,143.84046283364293L136.11135416666667,152.68368919193742L136.34562499999998,144.57645875215528L136.57989583333332,142.9516894072294L136.81416666666667,142.77570185065267L137.0484375,145.4970141202211L137.28270833333335,144.55984246730802L137.5169791666667,148.39062143862245L137.75125,147.17908327281472L137.98552083333334,146.12994951009748L138.21979166666665,144.93186262249944L138.4540625,146.4337901473045L138.68833333333333,142.76132744550702L138.92260416666667,148.38752236962316L139.39114583333333,144.54606150090692L139.62541666666667,144.6418688893318L139.8596875,146.6363505721092L140.09395833333335,148.63861289620397L140.32822916666666,142.5317325890064L140.5625,150.58113572001454L141.03104166666668,148.6553610563278L141.2653125,148.4692850410938L141.49958333333333,146.62349273264405L141.73385416666667,146.2638029158115L141.96812500000001,134.75359690189362L142.20239583333333,136.5283743739128L142.43666666666667,141.0332997590303L142.67093749999998,141.05756480991838L142.90520833333332,139.7007660269737L143.13947916666666,142.62839716672894L143.37375,123.09147056937218L143.84229166666668,143.62372581660745L144.0765625,142.61125338077542L144.31083333333333,135.63010592758656L144.54510416666668,139.92904213070867L144.77937500000002,141.5425361394882L145.01364583333336,140.66609305143353L145.24791666666667,141.127194955945L145.71645833333332,137.1806954294443L145.95072916666666,144.70404808223245L146.185,147.38981996476647L146.41927083333334,140.01792606711385L147.35635416666668,140.1187447160482L147.59062500000002,149.1897196769714L147.82489583333336,139.70234853029248L148.05916666666664,148.9133750349283L148.29343749999998,145.52055385708806L148.52770833333332,146.97494034469125L148.76197916666666,141.2795109003782L148.99625,143.54994159936902L149.23052083333334,148.35811418294904L149.46479166666666,139.4633905291557L149.6990625,121.66800883412361L149.93333333333334,145.59229400753972L150.16760416666668,145.14767651259896L150.40187500000002,149.34843157231805L150.63614583333336,140.80436427891252L150.87041666666664,147.24251528084275L151.10468749999998,146.4376804679632L151.33895833333332,145.19053597748277L151.57322916666666,139.82499253749845L151.8075,143.43534198403356L152.04177083333335,145.5291916877031L152.27604166666666,142.60584649443624L152.5103125,145.99695329368112L152.74458333333334,142.83788104355332L152.97885416666668,147.72438754141328L153.44739583333333,146.79189746081826L153.68166666666664,153.2185753136873L153.91593749999998,140.87399442493913L154.15020833333332,143.2984554469585L154.38447916666667,151.78205792605874L154.61875,145.91756437718865L154.85302083333332,148.79172009229657L155.08729166666666,128.6796854138374L155.3215625,147.96868649125096L155.55583333333334,151.46166694164273L155.79010416666668,147.7484547793865L156.02437500000002,152.8219604194164L156.25864583333333,151.69554774463174L156.49291666666667,147.76058730483052L156.72718749999999,153.0477968305349L156.96145833333333,148.51952952146527L157.19572916666667,145.95903915166852L157.43,144.8049326688051L157.66427083333332,146.6722865849733L157.89854166666666,117.72091586887836L158.1328125,117.53226828575134L158.36708333333334,128.9687560200691L158.60135416666668,126.87180724740026L158.835625,126.02444265782833L159.06989583333333,134.60121501982212L159.30416666666667,147.10899156332013L159.53843750000001,140.91705170273778L159.77270833333333,143.45004607737062L160.00697916666667,153.67202845215795L160.24124999999998,147.96374116837976L160.47552083333332,146.38756786286828L160.70979166666666,142.98274603486058L160.9440625,147.13602599501607L161.17833333333334,149.54129916429517L161.41260416666668,140.40043030679223L161.88114583333333,139.21368469297883L162.11541666666668,134.34280541539192L162.34968750000002,148.8739443272352L162.58395833333336,134.05782294273376L162.81822916666667,141.40360553562638L163.05249999999998,149.10953950881955L163.28677083333332,146.64564777910707L163.52104166666666,147.86806565523145L163.7553125,151.4009383767843L163.98958333333334,144.53181897103784L164.22385416666665,146.8855948448181L164.458125,145.79478849470613L164.69239583333334,147.41223876178262L164.92666666666668,148.79640166461465L165.16093750000002,143.04598022997376L165.39520833333336,119.70286940038204L165.86374999999998,144.2969491034746L166.09802083333332,149.87632830440995L166.33229166666666,152.87728209793565L166.5665625,149.961915358901L166.80083333333334,145.48006814718244L167.03510416666666,149.7160998433828L167.269375,149.65695378184316L167.50364583333334,152.84391765296456L167.73791666666668,129.26356320083138L167.97218750000002,151.46661226451394L168.20645833333336,149.6276774704456L168.44072916666664,153.96835219860074L168.67499999999998,150.522714972496L168.90927083333332,149.92070433497426L169.14354166666666,151.30038347840306L169.3778125,146.1436645388603L169.61208333333335,151.2515896260738L169.84635416666666,134.87057027220726L170.080625,149.42142453789708L170.31489583333334,147.11571720242497L170.54916666666668,149.6396121829748L170.78343750000002,146.30079393088815L171.01770833333333,133.32940985262394L171.25197916666664,142.05071751773355L171.48624999999998,146.29479360580441L171.72052083333332,149.47753746807572L171.95479166666667,154.63280577957627L172.1890625,149.134595811367L172.42333333333332,150.20067554712293L172.65760416666666,153.5994970500469L172.891875,152.87655678391454L173.12614583333334,147.71766190230844L173.36041666666668,150.69929596781728L173.59468750000002,150.59537824988362L173.82895833333333,146.49590340256688L174.06322916666667,152.59289306402204L174.29749999999999,148.21067762374875L174.53177083333333,149.978004142642L174.76604166666667,150.21702808141706L175.0003125,151.3741017580032L175.23458333333332,156.31797400116918L175.46885416666666,148.96401514112947L175.703125,149.69288979470727L175.93739583333334,152.62434531748292L176.17166666666668,142.76310776174066L176.4059375,150.92823144793508L176.87447916666667,147.41757971048352L177.10875000000001,155.344404771924L177.34302083333333,146.74494986236093L177.57729166666667,150.45506295561788L177.81156249999998,146.84873570501802L178.04583333333332,148.3513226062059L178.28010416666666,147.0234045088291L178.514375,149.39254385232923L178.74864583333334,149.69539542496202L178.98291666666668,154.22860805690286L179.2171875,146.1964146494865L179.45145833333333,152.97941949963567L179.68572916666668,154.892270386219L179.92000000000002,147.9509492665529L180.15427083333336,143.8287259340286L180.62281249999998,147.3292232751846L180.85708333333332,151.0938667953014L181.09135416666666,147.53508058190343L181.325625,154.9615708440542L181.55989583333334,156.96653661131856L181.79416666666665,154.7253822237253L182.0284375,151.3825417757034L182.26270833333334,150.68841625750062L182.49697916666668,150.82642373442647L182.73125000000002,146.08840879797933L182.96552083333336,151.60560880601403L183.19979166666664,140.79585832357404L183.43406249999998,145.99411797523496L183.66833333333332,147.78432485461232L183.90260416666666,145.6819691956043L184.136875,148.64830572903153L184.37114583333334,144.97175489366052L184.60541666666666,144.61912040412423L184.8396875,151.3664529919624L185.07395833333334,145.07547479867932L185.30822916666668,149.29548364877698L185.54250000000002,148.6109190881252L185.77677083333336,135.70639577507973L186.01104166666664,119.73761853575706L186.24531249999998,125.77130806446075L186.47958333333332,136.86907415091991L187.18239583333335,142.4272214323282L187.41666666666666,144.13058844208715L187.6509375,139.56691262125966L187.88520833333334,146.3805784732103L188.11947916666668,147.66405460238454L188.35375000000002,145.66541884839532L188.58802083333333,146.94427934288976L188.82229166666664,147.9746868163347L189.05656249999998,142.71576453745362L189.29083333333332,151.48711887001988L189.52510416666667,144.7355662733316L189.759375,141.8889065533876L189.99364583333332,148.8539652228355L190.22791666666666,147.57517066597936L190.69645833333334,120.57265278697014L190.93072916666668,124.2681936621666L191.16500000000002,151.82979677617547L191.39927083333333,149.52118818461892L191.63354166666667,145.5647980123758L191.86781249999999,139.98541881144044L192.10208333333333,143.5943835675716L192.33635416666667,130.45433101058003L192.570625,148.26593336462972L192.80489583333332,147.51002427935597L193.03916666666666,141.77799944579598L193.2734375,149.67950445413587L193.50770833333334,150.2796029001474L193.74197916666668,148.09884738922116L193.97625,147.62277764081952L194.21052083333333,150.29219698905942L194.44479166666667,140.92377734184262L194.67906250000001,144.6713430136442L194.91333333333333,142.95267847180364L195.14760416666667,146.72299262881276L195.38187499999998,148.54339894652364L195.61614583333332,149.70667076110837L195.85041666666666,147.3368720412254L196.0846875,148.10339708626267L196.31895833333334,143.3256876915693L196.55322916666668,149.19980813562867L196.7875,148.11730992794034L197.02177083333333,145.68282638490197L197.25604166666668,153.2966454774141L197.49031250000002,148.6411185264587L197.72458333333336,148.79554447531697L197.95885416666667,146.02451522648332L198.19312499999998,139.89205111563203L198.42739583333332,151.96496893465516L198.8959375,149.67495475709435L199.13020833333334,143.6224070638418L199.36447916666665,148.69525332748887L199.59875,144.37871177494523L199.83302083333334,144.06900268793103L200.06729166666668,146.98720474541184L200.30156250000002,147.73724538087842L200.53583333333336,148.6610316932201L200.77010416666664,144.13850095868108L201.00437499999998,145.1735900044441L201.23864583333332,145.02608750760552L201.47291666666666,148.5703674405813L201.7071875,148.6552951186895L201.94145833333334,145.72720241546628L202.17572916666666,143.03978209197518L202.41,143.38905376195905L202.64427083333334,146.38895255327222L202.87854166666668,139.15242862701413L203.11281250000002,108.80891655385493L203.34708333333336,116.96474303305149L203.58135416666664,107.1862572133541L203.81562499999998,113.587483137846L204.04989583333332,122.54075941443443L204.28416666666666,127.2338048815727L204.5184375,128.27641081809995L204.75270833333335,103.19768947362898L204.98697916666666,108.39898225665091L205.22125,103.25894553959368L205.68979166666668,126.40562814474106L205.92406250000002,133.1151784658432L206.15833333333333,127.85295930504796L206.39260416666664,136.37902562320232L206.62687499999998,137.1791788637638L206.86114583333332,128.19946159422395L207.09541666666667,127.26281744241712L207.3296875,132.31159646809098L207.56395833333332,131.87535305321214L207.79822916666666,127.9692073613405L208.0325,134.0040837675333L208.26677083333334,133.27105504274368L208.50104166666668,135.10913264751434L208.73531250000002,138.44933559000492L208.96958333333333,140.24752092361447L209.20385416666667,133.1373994499445L209.43812499999999,136.01940174400806L209.67239583333333,136.39089439809322L209.90666666666667,130.6500339210033L210.1409375,132.80955751240253L210.37520833333332,137.59755317866802L210.60947916666666,130.2960147410631L210.84375,133.69417686760426L211.07802083333334,136.0790093690157L211.31229166666668,135.44224959611893L211.5465625,130.61891135573384L211.78083333333333,138.4429396390915L212.01510416666667,141.1389977931976L212.24937500000001,135.3466400206089L212.48364583333333,135.5514423251152L212.71791666666667,140.3048866689205L212.95218749999998,136.31427486240864L213.42072916666666,132.25594510138032L213.655,132.97031347453594L213.88927083333334,142.07254287600514L214.12354166666668,134.882636860013L214.3578125,137.65518267452717L214.59208333333333,128.29282929003236L214.82635416666668,130.31342227756974L215.06062500000002,135.7941587716341L215.29489583333336,129.12311603128907L215.52916666666667,133.46629638969898L215.76343749999998,134.36634515225887L215.99770833333332,133.6205245256424L216.23197916666666,133.42693161964417L216.46625,133.18012703955173L216.70052083333334,130.53886306285855L216.93479166666665,137.67324958741665L217.1690625,131.39090922474858L217.40333333333334,136.821994677186L217.63760416666668,138.19613505899906L217.87187500000002,129.29514732956883L218.10614583333336,135.1624761968851L218.34041666666664,132.46595647931096L218.57468749999998,130.71432311832902L218.80895833333332,137.01934602856636L219.04322916666666,138.86718240380287L219.2775,131.66699011623857L219.51177083333334,131.09320078790185L219.74604166666666,135.03600780665874L219.9803125,132.93305870890617L220.21458333333334,134.9767958074808L220.44885416666668,137.38806930184364L220.68312500000002,133.9309589266777L220.91739583333336,144.25356213748452L221.15166666666664,140.56494471430776L221.38593749999998,128.06547631323335L221.62020833333332,141.47804912924764L221.85447916666666,135.93632031977177L222.08875,139.96728596091268L222.55729166666666,131.7185533493757L222.7915625,138.40660800039768L223.02583333333334,134.4343927949667L223.26010416666668,132.22205315530297L223.49437500000002,135.94950784742832L223.72864583333333,135.2987692952156L223.96291666666664,137.72494469583035L224.19718749999998,90.77068653702734L224.66572916666667,138.17483720183372L224.9,136.57077227532864L225.13427083333332,134.7202983945608L225.36854166666666,105.12926664948462L225.6028125,136.55230973660946L226.07135416666668,136.5165055990219L226.30562500000002,134.47870288789272L226.53989583333333,134.1415637433529L226.77416666666667,138.4267849177122L227.00843749999999,137.479326993227L227.24270833333333,133.8869125843048L227.47697916666667,136.45010639727116L227.71125,132.8754951506853L227.94552083333332,137.26898592710495L228.17979166666666,138.32629595696926L228.4140625,132.13435609638688L228.64833333333334,134.4469868838787L228.88260416666668,137.63230231404305L229.116875,140.03942173719403L229.35114583333333,137.12326374650002L229.58541666666667,137.2890969067812L229.81968750000001,139.48660057783124L230.05395833333333,137.806707367301L230.28822916666667,106.92118790745734L230.52249999999998,125.72574515640736L230.75677083333332,138.1362636834383L230.99104166666666,134.2464705258608L231.2253125,133.00486479699612L231.45958333333334,135.17619122564793L231.69385416666668,129.1165222674608L231.928125,134.49736323952675L232.16239583333333,134.92127631604671L232.39666666666668,134.08208799362183L232.63093750000002,134.83832676708698L232.86520833333336,139.17774868011472L233.09947916666667,129.94957838952539L233.33374999999998,133.82592026889324L233.56802083333332,141.31828223168847L233.80229166666666,138.84964299201965L234.0365625,140.43379475176332L234.27083333333334,141.15113031864163L234.50510416666665,134.10299022495747L234.739375,138.72264710068703L234.97364583333334,137.06926082074642L235.20791666666668,133.1966773867607L235.44218750000002,140.92397515475747L235.67645833333336,136.4295997917652L235.91072916666664,132.03657057881352L236.14499999999998,138.76042936742306L236.37927083333332,141.24139894545075L236.61354166666666,145.54290671646592L236.8478125,134.02043630182743L237.08208333333334,135.96816819906235L237.31635416666666,136.31565955281258L237.78489583333334,138.88399650156498L238.01916666666668,134.08551675081253L238.25343750000002,138.11476801335812L238.48770833333336,131.4023823738098L238.95624999999998,140.3163598179817L239.19052083333332,139.7597142755985L239.42479166666666,139.55095571279523L239.6590625,140.2856988161802L239.89333333333335,140.58156099915502L240.12760416666666,139.85486228764054L240.361875,139.22397096455094L240.59614583333334,139.31094270944592L240.83041666666668,137.14456160366535L241.29895833333333,122.25353506207466L241.53322916666664,128.4189679920673L241.76749999999998,125.07388566434383L242.00177083333332,126.19983677566051L242.23604166666667,130.31137821078298L242.4703125,128.6999942064285L242.70458333333332,128.4519368112087L242.93885416666666,128.42008893191812L243.173125,130.22190083563325L243.40739583333334,127.73460124433038L243.87593750000002,129.05968402326104L244.11020833333333,131.4957500696182L244.34447916666667,125.53122912347317L244.57874999999999,138.76735281944275L244.81302083333333,130.90956446528432L245.2815625,126.30236980319023L245.51583333333332,131.84607674181458L245.75010416666666,130.02705511450765L246.21864583333334,129.8078784048557L246.45291666666668,131.73147712647912L246.6871875,128.33489750325677L246.92145833333333,129.38924033939836L247.15572916666667,127.05992732942101L247.39000000000001,129.50370807945725L247.62427083333333,131.32662002742288L247.85854166666667,138.57488085329533L248.09281249999998,130.47424417734143L248.32708333333332,133.67010962963104L248.56135416666666,126.98337373137471L248.795625,122.34162774682045L249.02989583333334,138.95791259407997L249.26416666666668,128.65377192199227L249.4984375,136.2577663064003L249.73270833333333,137.86545780301094L249.96697916666668,131.60619561374185L250.20125000000002,132.08885912597177L250.43552083333336,121.62152279913425L250.66979166666667,137.68089835345745L250.90406249999998,131.5570061355829L251.13833333333332,134.61407285928726L251.37260416666666,130.31645540893075L251.606875,134.39285208284855L251.84114583333334,130.7970748543739L252.07541666666665,135.54438699781895L252.3096875,128.115061417222L252.54395833333334,136.77926708757877L252.77822916666668,135.50139565765858L253.01250000000002,131.96245667338368L253.24677083333336,129.01715424656865L253.48104166666664,133.6385255008936L253.71531249999998,141.22432109713552L253.94958333333332,137.74980318546295L254.18385416666666,133.91440857946873L254.418125,136.20580744743347L254.65239583333334,137.49858078360558L254.88666666666666,140.74653697013852L255.1209375,135.33378218114376L255.35520833333334,134.87953779101372L255.58947916666668,132.19660122692582L255.82375000000002,135.00033554434776L256.05802083333333,137.25744684040546L256.29229166666664,136.00080733001232L256.7608333333333,137.73068127036095L256.9951041666667,128.64005689322946L257.4636458333334,129.18226209282872L257.69791666666663,88.30930043756962L257.9321875,99.9382601380348L258.1664583333333,97.59951804578303L258.4007291666667,98.53405219316481L258.635,99.53577679395674L258.8692708333333,91.59958858788012L259.3378125,136.68939408659935L259.57208333333335,130.0310773104429L259.80635416666667,135.44495303928852L260.04062500000003,129.98940472304818L260.27489583333335,135.1648499518633L260.50916666666666,134.42107339203358L260.74343749999997,138.0225212574005L260.97770833333334,136.76660706102848L261.44625,136.8266103118658L261.68052083333333,126.85921315848825L261.91479166666664,134.77957633137703L262.1490625,133.85539439320564L262.3833333333333,132.89679300785065L262.6176041666667,132.9329268336296L262.851875,135.82205039262772L263.0861458333333,130.6095482110977L263.3204166666667,132.47162711620328L263.5546875,136.0185445547104L263.7889583333333,137.38991555571556L264.0232291666667,132.95778532326221L264.2575,128.84716701507566L264.4917708333333,140.08294057846066L264.7260416666667,129.15351328253743L264.9603125,139.22482815384862L265.19458333333336,124.64964289963245L265.42885416666667,138.6780073195696L265.663125,132.9414327889681L265.89739583333335,131.90482717752454L266.13166666666666,130.13690721988675L266.36593750000003,137.86400717496872L266.60020833333334,134.87380121648312L266.83447916666665,136.80188369750977L267.06874999999997,127.19226416945455L267.30302083333333,139.99913384020326L267.53729166666665,131.0907610952854L267.7715625,111.35180157423018L268.0058333333333,139.75068081915376L268.2401041666667,135.16643245518208L268.7086458333333,135.4105335921049L268.9429166666667,138.5010966360569L269.1771875,137.83248898386955L269.41145833333337,134.29684688150883L269.6457291666666,134.75260783731937L269.88,135.94146345555782L270.1142708333333,139.10264571011064L270.3485416666667,134.08657175302505" style="fill: none;" fill="none"></path></g></g></g></g></g></g><g transform="translate(48, 177)" clip-path="url(#clip_1)"><clipPath id="clip_1"><rect width="281" height="23"></rect></clipPath><g><g><line x1="0" y1="0" x2="0" y2="5" style="visibility: inherit;" fill="rgb(0, 0, 0)" stroke="rgb(204, 204, 204)" stroke-width="1px"></line><line x1="23.427083333333332" y1="0" x2="23.427083333333332" y2="5" style="visibility: inherit;" fill="rgb(0, 0, 0)" stroke="rgb(204, 204, 204)" stroke-width="1px"></line><line x1="46.854166666666664" y1="0" x2="46.854166666666664" y2="5" style="visibility: inherit;" fill="rgb(0, 0, 0)" stroke="rgb(204, 204, 204)" stroke-width="1px"></line><line x1="70.28125" y1="0" x2="70.28125" y2="5" style="visibility: inherit;" fill="rgb(0, 0, 0)" stroke="rgb(204, 204, 204)" stroke-width="1px"></line><line x1="93.70833333333333" y1="0" x2="93.70833333333333" y2="5" style="visibility: inherit;" fill="rgb(0, 0, 0)" stroke="rgb(204, 204, 204)" stroke-width="1px"></line><line x1="117.13541666666667" y1="0" x2="117.13541666666667" y2="5" style="visibility: inherit;" fill="rgb(0, 0, 0)" stroke="rgb(204, 204, 204)" stroke-width="1px"></line><line x1="140.5625" y1="0" x2="140.5625" y2="5" style="visibility: inherit;" fill="rgb(0, 0, 0)" stroke="rgb(204, 204, 204)" stroke-width="1px"></line><line x1="163.98958333333334" y1="0" x2="163.98958333333334" y2="5" style="visibility: inherit;" fill="rgb(0, 0, 0)" stroke="rgb(204, 204, 204)" stroke-width="1px"></line><line x1="187.41666666666666" y1="0" x2="187.41666666666666" y2="5" style="visibility: inherit;" fill="rgb(0, 0, 0)" stroke="rgb(204, 204, 204)" stroke-width="1px"></line><line x1="210.84375" y1="0" x2="210.84375" y2="5" style="visibility: inherit;" fill="rgb(0, 0, 0)" stroke="rgb(204, 204, 204)" stroke-width="1px"></line><line x1="234.27083333333334" y1="0" x2="234.27083333333334" y2="5" style="visibility: inherit;" fill="rgb(0, 0, 0)" stroke="rgb(204, 204, 204)" stroke-width="1px"></line><line x1="257.69791666666663" y1="0" x2="257.69791666666663" y2="5" style="visibility: inherit;" fill="rgb(0, 0, 0)" stroke="rgb(204, 204, 204)" stroke-width="1px"></line><line x1="281.125" y1="0" x2="281.125" y2="5" style="visibility: inherit;" fill="rgb(0, 0, 0)" stroke="rgb(204, 204, 204)" stroke-width="1px"></line></g><g transform="translate(0, 8)"><text x="0" y="0" dx="0em" dy="0.95em" style="text-anchor: middle; visibility: hidden; font-family: &quot;Helvetica Neue&quot;, sans-serif; font-size: 12px; font-weight: 200;" fill="rgb(50, 49, 63)" stroke="none" stroke-width="1px">-100</text><text x="23.427083333333332" y="0" dx="0em" dy="0.95em" style="text-anchor: middle; visibility: inherit; font-family: &quot;Helvetica Neue&quot;, sans-serif; font-size: 12px; font-weight: 200;" fill="rgb(50, 49, 63)" stroke="none" stroke-width="1px">0</text><text x="46.854166666666664" y="0" dx="0em" dy="0.95em" style="text-anchor: middle; visibility: hidden; font-family: &quot;Helvetica Neue&quot;, sans-serif; font-size: 12px; font-weight: 200;" fill="rgb(50, 49, 63)" stroke="none" stroke-width="1px">100</text><text x="70.28125" y="0" dx="0em" dy="0.95em" style="text-anchor: middle; visibility: inherit; font-family: &quot;Helvetica Neue&quot;, sans-serif; font-size: 12px; font-weight: 200;" fill="rgb(50, 49, 63)" stroke="none" stroke-width="1px">200</text><text x="93.70833333333333" y="0" dx="0em" dy="0.95em" style="text-anchor: middle; visibility: hidden; font-family: &quot;Helvetica Neue&quot;, sans-serif; font-size: 12px; font-weight: 200;" fill="rgb(50, 49, 63)" stroke="none" stroke-width="1px">300</text><text x="117.13541666666667" y="0" dx="0em" dy="0.95em" style="text-anchor: middle; visibility: inherit; font-family: &quot;Helvetica Neue&quot;, sans-serif; font-size: 12px; font-weight: 200;" fill="rgb(50, 49, 63)" stroke="none" stroke-width="1px">400</text><text x="140.5625" y="0" dx="0em" dy="0.95em" style="text-anchor: middle; visibility: hidden; font-family: &quot;Helvetica Neue&quot;, sans-serif; font-size: 12px; font-weight: 200;" fill="rgb(50, 49, 63)" stroke="none" stroke-width="1px">500</text><text x="163.98958333333334" y="0" dx="0em" dy="0.95em" style="text-anchor: middle; visibility: inherit; font-family: &quot;Helvetica Neue&quot;, sans-serif; font-size: 12px; font-weight: 200;" fill="rgb(50, 49, 63)" stroke="none" stroke-width="1px">600</text><text x="187.41666666666666" y="0" dx="0em" dy="0.95em" style="text-anchor: middle; visibility: hidden; font-family: &quot;Helvetica Neue&quot;, sans-serif; font-size: 12px; font-weight: 200;" fill="rgb(50, 49, 63)" stroke="none" stroke-width="1px">700</text><text x="210.84375" y="0" dx="0em" dy="0.95em" style="text-anchor: middle; visibility: inherit; font-family: &quot;Helvetica Neue&quot;, sans-serif; font-size: 12px; font-weight: 200;" fill="rgb(50, 49, 63)" stroke="none" stroke-width="1px">800</text><text x="234.27083333333334" y="0" dx="0em" dy="0.95em" style="text-anchor: middle; visibility: hidden; font-family: &quot;Helvetica Neue&quot;, sans-serif; font-size: 12px; font-weight: 200;" fill="rgb(50, 49, 63)" stroke="none" stroke-width="1px">900</text><text x="257.69791666666663" y="0" dx="0em" dy="0.95em" style="text-anchor: middle; visibility: inherit; font-family: &quot;Helvetica Neue&quot;, sans-serif; font-size: 12px; font-weight: 200;" fill="rgb(50, 49, 63)" stroke="none" stroke-width="1px">1k</text><text x="281.125" y="0" dx="0em" dy="0.95em" style="text-anchor: middle; visibility: hidden; font-family: &quot;Helvetica Neue&quot;, sans-serif; font-size: 12px; font-weight: 200;" fill="rgb(50, 49, 63)" stroke="none" stroke-width="1px">1.1k</text></g><line x1="0" y1="0" x2="281.125" y2="0" fill="rgb(0, 0, 0)" stroke="rgb(204, 204, 204)" stroke-width="1px"></line></g></g></g></g></svg>