<svg viewBox="0 0 330 200" xmlns="http://www.w3.org/2000/svg"><g><g><g><g><g><line x1="58.59375" y1="177" x2="53.59375" y2="177" style="visibility: inherit;" fill="rgb(0, 0, 0)" stroke="rgb(204, 204, 204)" stroke-width="1px"></line><line x1="58.59375" y1="157.33333333333334" x2="53.59375" y2="157.33333333333334" style="visibility: inherit;" fill="rgb(0, 0, 0)" stroke="rgb(204, 204, 204)" stroke-width="1px"></line><line x1="58.59375" y1="137.66666666666666" x2="53.59375" y2="137.66666666666666" style="visibility: inherit;" fill="rgb(0, 0, 0)" stroke="rgb(204, 204, 204)" stroke-width="1px"></line><line x1="58.59375" y1="118" x2="53.59375" y2="118" style="visibility: inherit;" fill="rgb(0, 0, 0)" stroke="rgb(204, 204, 204)" stroke-width="1px"></line><line x1="58.59375" y1="98.33333333333333" x2="53.59375" y2="98.33333333333333" style="visibility: inherit;" fill="rgb(0, 0, 0)" stroke="rgb(204, 204, 204)" stroke-width="1px"></line><line x1="58.59375" y1="78.66666666666666" x2="53.59375" y2="78.66666666666666" style="visibility: inherit;" fill="rgb(0, 0, 0)" stroke="rgb(204, 204, 204)" stroke-width="1px"></line><line x1="58.59375" y1="58.999999999999986" x2="53.59375" y2="58.999999999999986" style="visibility: inherit;" fill="rgb(0, 0, 0)" stroke="rgb(204, 204, 204)" stroke-width="1px"></line><line x1="58.59375" y1="39.33333333333334" x2="53.59375" y2="39.33333333333334" style="visibility: inherit;" fill="rgb(0, 0, 0)" stroke="rgb(204, 204, 204)" stroke-width="1px"></line><line x1="58.59375" y1="19.666666666666657" x2="53.59375" y2="19.666666666666657" style="visibility: inherit;" fill="rgb(0, 0, 0)" stroke="rgb(204, 204, 204)" stroke-width="1px"></line><line x1="58.59375" y1="0" x2="53.59375" y2="0" style="visibility: inherit;" fill="rgb(0, 0, 0)" stroke="rgb(204, 204, 204)" stroke-width="1px"></line></g><g transform="translate(48.59375, 0)"><text x="0" y="177" dx="0em" dy="0.3em" style="text-anchor: end; visibility: hidden; font-family: &quot;Helvetica Neue&quot;, sans-serif; font-size: 12px; font-weight: 200;" fill="rgb(50, 49, 63)" stroke="none" stroke-width="1px">-0.02</text><text x="0" y="157.33333333333334" dx="0em" dy="0.3em" style="text-anchor: end; visibility: inherit; font-family: &quot;Helvetica Neue&quot;, sans-serif; font-size: 12px; font-weight: 200;" fill="rgb(50, 49, 63)" stroke="none" stroke-width="1px">0</text><text x="0" y="137.66666666666666" dx="0em" dy="0.3em" style="text-anchor: end; visibility: hidden; font-family: &quot;Helvetica Neue&quot;, sans-serif; font-size: 12px; font-weight: 200;" fill="rgb(50, 49, 63)" stroke="none" stroke-width="1px">0.02</text><text x="0" y="118" dx="0em" dy="0.3em" style="text-anchor: end; visibility: inherit; font-family: &quot;Helvetica Neue&quot;, sans-serif; font-size: 12px; font-weight: 200;" fill="rgb(50, 49, 63)" stroke="none" stroke-width="1px">0.04</text><text x="0" y="98.33333333333333" dx="0em" dy="0.3em" style="text-anchor: end; visibility: hidden; font-family: &quot;Helvetica Neue&quot;, sans-serif; font-size: 12px; font-weight: 200;" fill="rgb(50, 49, 63)" stroke="none" stroke-width="1px">0.06</text><text x="0" y="78.66666666666666" dx="0em" dy="0.3em" style="text-anchor: end; visibility: inherit; font-family: &quot;Helvetica Neue&quot;, sans-serif; font-size: 12px; font-weight: 200;" fill="rgb(50, 49, 63)" stroke="none" stroke-width="1px">0.08</text><text x="0" y="58.999999999999986" dx="0em" dy="0.3em" style="text-anchor: end; visibility: hidden; font-family: &quot;Helvetica Neue&quot;, sans-serif; font-size: 12px; font-weight: 200;" fill="rgb(50, 49, 63)" stroke="none" stroke-width="1px">0.1</text><text x="0" y="39.33333333333334" dx="0em" dy="0.3em" style="text-anchor: end; visibility: inherit; font-family: &quot;Helvetica Neue&quot;, sans-serif; font-size: 12px; font-weight: 200;" fill="rgb(50, 49, 63)" stroke="none" stroke-width="1px">0.12</text><text x="0" y="19.666666666666657" dx="0em" dy="0.3em" style="text-anchor: end; visibility: hidden; font-family: &quot;Helvetica Neue&quot;, sans-serif; font-size: 12px; font-weight: 200;" fill="rgb(50, 49, 63)" stroke="none" stroke-width="1px">0.14</text><text x="0" y="0" dx="0em" dy="0.3em" style="text-anchor: end; visibility: hidden; font-family: &quot;Helvetica Neue&quot;, sans-serif; font-size: 12px; font-weight: 200;" fill="rgb(50, 49, 63)" stroke="none" stroke-width="1px">0.16</text></g><line x1="58.59375" y1="0" x2="58.59375" y2="177" fill="rgb(0, 0, 0)" stroke="rgb(204, 204, 204)" stroke-width="1px"></line></g></g><g transform="translate(58, 0)" clip-path="url(#clip_0)"><clipPath id="clip_0"><rect width="271" height="177"></rect></clipPath><g><g><g><line x1="0" y1="0" x2="0" y2="177" fill="rgb(0, 0, 0)" stroke="rgb(60, 60, 60)" stroke-width="1px" opacity="0.25"></line><line x1="22.6171875" y1="0" x2="22.6171875" y2="177" fill="rgb(0, 0, 0)" stroke="rgb(60, 60, 60)" stroke-width="1px" opacity="0.25"></line><line x1="45.234375" y1="0" x2="45.234375" y2="177" fill="rgb(0, 0, 0)" stroke="rgb(60, 60, 60)" stroke-width="1px" opacity="0.25"></line><line x1="67.8515625" y1="0" x2="67.8515625" y2="177" fill="rgb(0, 0, 0)" stroke="rgb(60, 60, 60)" stroke-width="1px" opacity="0.25"></line><line x1="90.46875" y1="0" x2="90.46875" y2="177" fill="rgb(0, 0, 0)" stroke="rgb(60, 60, 60)" stroke-width="1px" opacity="0.25"></line><line x1="113.0859375" y1="0" x2="113.0859375" y2="177" fill="rgb(0, 0, 0)" stroke="rgb(60, 60, 60)" stroke-width="1px" opacity="0.25"></line><line x1="135.703125" y1="0" x2="135.703125" y2="177" fill="rgb(0, 0, 0)" stroke="rgb(60, 60, 60)" stroke-width="1px" opacity="0.25"></line><line x1="158.3203125" y1="0" x2="158.3203125" y2="177" fill="rgb(0, 0, 0)" stroke="rgb(60, 60, 60)" stroke-width="1px" opacity="0.25"></line><line x1="180.9375" y1="0" x2="180.9375" y2="177" fill="rgb(0, 0, 0)" stroke="rgb(60, 60, 60)" stroke-width="1px" opacity="0.25"></line><line x1="203.5546875" y1="0" x2="203.5546875" y2="177" fill="rgb(0, 0, 0)" stroke="rgb(60, 60, 60)" stroke-width="1px" opacity="0.25"></line><line x1="226.171875" y1="0" x2="226.171875" y2="177" fill="rgb(0, 0, 0)" stroke="rgb(60, 60, 60)" stroke-width="1px" opacity="0.25"></line><line x1="248.7890625" y1="0" x2="248.7890625" y2="177" fill="rgb(0, 0, 0)" stroke="rgb(60, 60, 60)" stroke-width="1px" opacity="0.25"></line><line x1="271.40625" y1="0" x2="271.40625" y2="177" fill="rgb(0, 0, 0)" stroke="rgb(60, 60, 60)" stroke-width="1px" opacity="0.25"></line></g><g><line x1="0" y1="177" x2="271.40625" y2="177" fill="rgb(0, 0, 0)" stroke="rgb(60, 60, 60)" stroke-width="1px" opacity="0.25"></line><line x1="0" y1="157.33333333333334" x2="271.40625" y2="157.33333333333334" fill="rgb(0, 0, 0)" stroke="rgb(60, 60, 60)" stroke-width="1px" opacity="0.25"></line><line x1="0" y1="137.66666666666666" x2="271.40625" y2="137.66666666666666" fill="rgb(0, 0, 0)" stroke="rgb(60, 60, 60)" stroke-width="1px" opacity="0.25"></line><line x1="0" y1="118" x2="271.40625" y2="118" fill="rgb(0, 0, 0)" stroke="rgb(60, 60, 60)" stroke-width="1px" opacity="0.25"></line><line x1="0" y1="98.33333333333333" x2="271.40625" y2="98.33333333333333" fill="rgb(0, 0, 0)" stroke="rgb(60, 60, 60)" stroke-width="1px" opacity="0.25"></line><line x1="0" y1="78.66666666666666" x2="271.40625" y2="78.66666666666666" fill="rgb(0, 0, 0)" stroke="rgb(60, 60, 60)" stroke-width="1px" opacity="0.25"></line><line x1="0" y1="58.999999999999986" x2="271.40625" y2="58.999999999999986" fill="rgb(0, 0, 0)" stroke="rgb(60, 60, 60)" stroke-width="1px" opacity="0.25"></line><line x1="0" y1="39.33333333333334" x2="271.40625" y2="39.33333333333334" fill="rgb(0, 0, 0)" stroke="rgb(60, 60, 60)" stroke-width="1px" opacity="0.25"></line><line x1="0" y1="19.666666666666657" x2="271.40625" y2="19.666666666666657" fill="rgb(0, 0, 0)" stroke="rgb(60, 60, 60)" stroke-width="1px" opacity="0.25"></line><line x1="0" y1="0" x2="271.40625" y2="0" fill="rgb(0, 0, 0)" stroke="rgb(60, 60, 60)" stroke-width="1px" opacity="0.25"></line></g></g></g><g><g><line x1="0" y1="157.33333333333334" x2="271.40625" y2="157.33333333333334" fill="rgb(0, 0, 0)" stroke="rgb(153, 153, 153)" stroke-width="1.5px"></line></g></g><g><g><line x1="22.6171875" y1="0" x2="22.6171875" y2="177" fill="rgb(0, 0, 0)" stroke="rgb(153, 153, 153)" stroke-width="1.5px"></line></g></g><g><g><g><g><g><path stroke="rgb(187, 187, 187)" stroke-width="2px" d="M26.462109375,-3.5388109187285295L26.68828125,3.0169142186641693L26.914453125,10.626396079858154L27.140625,15.584877173105866L27.366796875,20.314496050278365L27.59296875,25.598958174387604L27.819140625,31.074932505687087L28.0453125,38.0541018297275L28.271484375,43.776199385523796L28.49765625,50.49404319624105L28.723828125,57.07028959194817L29.176171874999998,68.81764398515224L29.40234375,73.37215447425842L29.628515625,76.01897919178008L29.8546875,79.74303443233171L30.080859375000003,82.39366155366102L30.307031249999998,84.08039029935996L30.533203125,86.3222260425488L30.759375,88.76746474703153L30.985546875,90.67589781184991L31.211718750000003,92.12037167449792L31.437890624999998,92.91675914327303L31.6640625,94.35592868924141L32.11640625,96.29642942547797L32.342578125,97.25015508880217L32.56875,98.45583579440911L32.794921875,99.64841688921054L33.02109375,100.1445683116714L33.247265625,101.09114706764618L33.4734375,102.14564009507497L33.699609375,102.46197591473658L33.92578125,103.83897359420855L34.151953125,104.08897248655556L34.378125000000004,104.91220756371816L34.604296875,105.55975913008054L34.83046875,106.46463232984145L35.056640625,106.04601624359687L35.2828125,107.06022137403487L35.508984375,107.47572007526954L35.735156249999996,107.67903878291447L35.961328125,108.73417653391758L36.1875,108.9628006418546L36.413671875,108.96946400652328L36.639843750000004,110.03566829115152L36.866015625,110.21770745764175L37.092187499999994,110.06032530466715L37.318359375,110.0531490917007L37.54453125,110.53311282396317L37.770703125,111.0745634039243L37.996875,111.54676481088002L38.223046875,112.05845187356074L38.44921875,111.93565034866332L38.675390625,112.10424922655025L38.901562500000004,112.59987314790486L39.127734375,112.83997773130734L39.353906249999994,113.48480387528735L39.580078125,113.03776134053865L39.80625,113.77958541363478L40.032421875,113.56170914073785L40.25859375,114.60423082361618L40.484765625,114.3267835577329L40.7109375,114.41640013456345L40.937109375000006,114.15386210133632L41.163281250000004,115.17049227158228L41.389453124999996,115.31294687589009L41.615624999999994,115.6359204178055L41.841796875,115.45089207837978L42.06796875,115.71401256074508L42.294140625,116.42261505375305L42.5203125,116.4397075548768L42.746484375,116.37429741770029L42.97265625,116.76457497229177L43.198828125000006,116.41386366387208L43.425000000000004,116.37480660279591L43.651171874999996,117.07795825103918L43.877343749999994,117.06067526340485L44.103515625,116.95939138780037L44.3296875,117.14739058415094L44.555859375,117.64075064659119L44.78203125,117.34292865047851L45.008203125,117.77463335792223L45.234375,117.80897587786117L45.460546875000006,118.26886892567077L45.68671875,118.19946956137815L45.912890624999996,118.98362559825182L46.1390625,118.32205129414797L46.365234375,118.78181979308525L46.59140625,117.97785315910974L46.817578125,118.12299289057651L47.04375,118.90299851944047L47.269921875,118.30068749934435L47.49609375,118.48793940246105L47.722265625000006,118.644292195638L47.9484375,118.70130261033773L48.174609374999996,118.31153424084187L48.40078125,118.72271036356688L48.626953125,118.90968020011981L48.853125,118.64100996653238L49.079296875000004,118.84726656228304L49.30546875,118.95394633462031L49.531640625,119.17141232887903L49.7578125,118.78444264580804L49.983984375,118.11376162121692L50.21015625,118.95128684987624L50.436328124999996,118.78286380569139L50.6625,118.7131127739946L50.888671875,119.5503779153029L51.11484375,118.95207077513138L51.341015625000004,118.78196632117033L51.793359375,119.1884132499496L52.01953125,119.41213599344093L52.245703125,119.62730149676402L52.698046874999996,119.18429214755693L52.92421875,119.32650498052438L53.150390625,119.7628143330415L53.3765625,119.11734346548715L53.602734375000004,119.21905593574047L53.82890625,119.535476009051L54.055078124999994,120.00438419729471L54.28125,119.76396824171145L54.507421875,119.80946521212657L54.73359375,119.92773169279099L54.959765625,119.35874482244253L55.1859375,119.33814663688341L55.412109375,120.19481575985748L55.63828125,119.71381167819102L55.864453125000004,120.2989715859294L56.090625,119.68155352026224L56.316796874999994,119.70966127018133L56.54296875,119.26652737210193L56.769140625,119.72997006277242L57.221484375,119.48653562863667L57.44765625,120.08900416642427L57.673828125,120.00806205223003L57.900000000000006,120.30874867240587L58.126171875000004,119.58839829017718L58.352343749999996,120.13030677040418L58.578515624999994,119.89502296100059L58.8046875,120.29051325221856L59.030859375,119.69783645371595L59.25703125,120.19587808847427L59.483203125,120.08084987848997L59.709375,120.03433087468147L59.935546875,120.3185037796696L60.161718750000006,120.4672664180398L60.387890625000004,120.02738910665114L60.614062499999996,120.65123609205085L60.840234374999994,120.24134575327237L61.06640625,120.25862507770458L61.292578125,120.0135898242394L61.51875,120.15880281974871L61.744921875,120.61412419130404L61.97109375,120.02498238285382L62.197265625,120.06818618873754L62.423437500000006,119.6623986363411L62.649609375,120.44801629086334L62.875781249999996,120.30317694197097L63.101953125,120.03817723691463L63.328125,120.10814073433477L63.554296875,119.62157224863768L63.78046875,120.11343406140804L64.006640625,120.34020458906889L64.2328125,120.39624059200287L64.458984375,120.31438634047905L64.68515625,120.76802263905604L64.911328125,119.80627089987198L65.1375,120.1951051528255L65.36367187500001,120.3113055874904L65.58984375,120.04508603612581L65.81601562499999,120.58768686155477L66.0421875,119.8368256688118L66.268359375,120.39580100774765L66.49453125,120.39014136046171L67.173046875,120.44226872672637L67.39921875,119.90400513261557L67.62539062500001,120.66064319511254L67.8515625,120.42375123997527L68.077734375,120.52135726064444L68.30390625,120.59620014329751L68.530078125,120.1503041908145L68.982421875,120.41060767074426L69.20859375,120.15858302762109L69.43476562500001,120.37040036420026L69.6609375,120.5203975016872L69.88710937500001,119.77902766565481L70.33945312499999,120.70453934619823L70.565625,120.63720969110727L70.79179687499999,120.76791274299222L71.01796875,121.22092996040979L71.244140625,121.02004361897707L71.47031249999999,119.83429073294003L71.696484375,120.13494072109461L71.92265625,121.0333923275272L72.148828125,120.45329130192596L72.375,120.96753161648908L72.601171875,120.75424167265494L72.82734375,120.4784391845266L73.053515625,121.32845593243837L73.505859375,121.12166084597507L73.73203125,120.54191881418228L73.95820312500001,120.51538990437984L74.18437499999999,120.71879286567369L74.410546875,120.38655142237742L74.63671875,120.44844854871431L74.86289062499999,120.84002287685871L75.0890625,121.07250067343314L75.315234375,121.22272859265406L75.54140625,120.72092851251364L75.767578125,120.69693453858295L75.99375,120.70328653107086L76.219921875,120.50938591609398L76.44609375,120.1839726815621L76.672265625,120.33883821467558L76.8984375,121.03285750001669L77.124609375,120.73479373256365L77.35078125,120.78260584672292L77.576953125,120.3305227458477L77.80312500000001,120.59479713688293L78.029296875,120.44824707259733L78.25546875,120.88589349389076L78.48164062500001,121.02732240160306L78.70781249999999,121.01262563467026L78.933984375,120.90365636100371L79.16015625,120.36226072907448L79.38632812499999,121.05249226341644L79.6125,120.94745360563198L79.838671875,120.74168787896633L80.06484375,120.87090367078781L80.291015625,120.809442465504L80.5171875,120.6842781752348L80.743359375,120.5973870207866L80.96953125,120.57642984141904L81.19570312500001,120.90168922146161L81.421875,120.78349234163761L81.648046875,120.6535072773695L81.87421875000001,121.00664362559715L82.100390625,120.66379721214372L82.32656250000001,120.47335465997458L82.552734375,120.21182767053443L83.005078125,120.61926000068584L83.23124999999999,120.9172175352772L83.457421875,120.97628666957219L83.68359375,120.91563869516054L83.90976562499999,121.33404231568177L84.1359375,121.57037746409574L84.362109375,120.91768642514944L84.58828125,121.21890054643154L84.814453125,121.51122407615185L85.040625,121.11134893198806L85.266796875,120.75670700768629L85.49296875,121.53592504809299L85.71914062500001,120.94471353044112L85.9453125,121.66065708051124L86.171484375,121.82449379563332L86.39765625000001,121.28467334061861L86.623828125,120.93439062684774L86.85000000000001,121.0316999281446L87.076171875,121.24741124858457L87.30234374999999,121.4780830865105L87.528515625,121.38673015187183L87.980859375,121.29434053103128L88.43320312499999,120.63422051817179L88.659375,121.43444335957366L88.885546875,121.00000590334335L89.11171875,120.85343019664288L89.337890625,120.68599255383015L89.5640625,121.31402291605869L89.790234375,121.40225846568742L90.01640625,120.88987539460261L90.24257812500001,120.85186600933471L90.46875,121.73713008811075L90.694921875,121.20532471934953L90.92109375000001,121.38543337831894L91.14726562499999,121.28580893327792L91.3734375,121.75902138402063L91.599609375,121.01410190512736L92.051953125,121.88562897592783L92.278125,122.05661992480357L92.504296875,121.09179842223722L92.73046875,121.06356612344582L92.956640625,120.86472384879985L93.408984375,122.02005017797151L93.63515625,121.44892766078313L93.861328125,121.4133176729083L94.0875,121.30063024908304L94.313671875,121.16450199484825L94.53984375,121.55750863502422L94.76601562500001,120.86418169488508L94.9921875,121.49916115154821L95.218359375,121.41469870011011L95.44453125000001,121.54057731479406L95.67070312499999,121.75687474757433L95.896875,121.06339395294586L96.123046875,121.25819571564594L96.34921874999999,120.75756419698396L96.575390625,121.30863434573013L96.8015625,121.78672984490791L97.027734375,121.9462000230948L97.25390625,121.54121471196413L97.480078125,121.40719646215439L97.70625,121.8676536430915L97.932421875,121.55185265094042L98.15859375000001,121.6227905601263L98.384765625,122.04358625163634L98.6109375,121.32112220178047L98.83710937500001,121.88249327490726L99.06328125,122.06644829610983L99.28945312500001,121.7360567698876L99.515625,121.7519147718946L99.74179687499999,122.16261467834313L99.96796875,122.49916771054268L100.19414062499999,122.20388065030177L100.4203125,122.08675708870092L100.646484375,122.01184826840957L100.87265624999999,121.43139557540417L101.098828125,122.18940367549658L101.325,121.99197906007367L101.551171875,122.25359030316272L101.77734375,122.11976253986359L102.003515625,122.20340077082315L102.2296875,122.17605496694644L102.455859375,121.86283653229475L102.68203125000001,122.12004094322522L102.908203125,122.19642237077156L103.134375,121.62021166582902L103.36054687500001,122.04460095862547L103.58671875,121.772318807741L103.81289062500001,121.87508628020683L104.0390625,122.07652576516071L104.26523437499999,121.53140831987062L104.49140625,121.61023310323554L104.71757812499999,121.86799065768719L104.94375,121.84103681643803L105.169921875,121.77727878342071L105.39609374999999,121.91904836893082L105.622265625,121.71266356110573L105.8484375,122.055997180442L106.30078125,121.73514463255802L106.526953125,122.0234752719601L106.753125,121.52085097134113L106.979296875,122.14911211530367L107.20546875000001,121.67085177203019L107.431640625,121.99077020337184L107.6578125,121.76441728075345L107.88398437500001,121.84641073395808L108.11015624999999,121.84889072179794L108.336328125,121.62679444005092L108.5625,122.16738050431013L108.78867187499999,121.91891283045211L109.01484375,122.00652197251716L109.241015625,121.2234978651007L109.4671875,121.25491714974244L109.693359375,122.22284871091445L109.91953125,122.52019815395275L110.145703125,122.21540874739486L110.371875,122.14488478004932L110.598046875,121.90696346511443L110.82421875,122.1103700896104L111.050390625,122.25953568021455L111.2765625,121.73773451646169L111.502734375,121.9419507086277L111.955078125,122.00352913637956L112.18125,122.15499888112147L112.40742187500001,122.33611125747362L112.63359374999999,122.202616845568L112.859765625,122.71201807012159L113.0859375,121.9213964814941L113.31210937499999,121.9798099026084L113.53828125,122.34013345340887L113.764453125,121.65744445224601L113.990625,122.32690929373103L114.216796875,122.34160606066385L114.44296875,122.25519112249215L114.669140625,122.32161230345567L114.8953125,122.54822897662717L115.34765625,122.31619076430798L115.573828125,122.0459563434124L115.80000000000001,122.0685876061519L116.026171875,122.66515472531319L116.25234375000001,122.51839585850635L116.478515625,122.52955397218466L116.70468749999999,122.44370316714048L117.15703124999999,122.48342693100372L117.383203125,122.35714902728796L117.609375,122.50662599007288L117.83554687499999,122.24764858931303L118.06171875,122.56393678734699L118.287890625,122.62999164809781L118.5140625,122.26936038831869L118.740234375,122.84310209502775L118.96640625,122.70419347037871L119.192578125,122.74101964135964L119.41875,123.18036945164204L119.64492187500001,122.51034414023161L119.87109375,122.4221269066135L120.32343750000001,122.89962896704674L120.77578125000001,122.87597567091385L121.001953125,122.45434843252102L121.22812499999999,122.39495327323675L121.454296875,122.7327774365743L121.68046874999999,122.90749752521515L121.906640625,122.65756823370853L122.1328125,122.53155041734377L122.35898437499999,122.57475056002536L122.58515625,122.93059401462475L122.811328125,122.88811918596426L123.0375,122.66388359417516L123.263671875,123.09794374058643L123.48984375,122.17657514164844L123.716015625,122.79570392270882L123.9421875,123.06783221910396L124.16835937500001,123.09604620188475L124.39453125,123.0613080561161L124.620703125,122.86894598603249L124.84687500000001,122.85582073281208L125.07304687499999,122.51449088503917L125.29921875,122.32575538506109L125.525390625,122.41073801120122L125.75156249999999,122.93997181206942L125.977734375,122.46892065058151L126.20390625,122.81845973432064L126.430078125,122.53164566059905L126.65625,122.83021128674346L126.882421875,122.098977530996L127.10859375,122.61944895237684L127.334765625,122.98384232074022L127.5609375,122.5156960785389L127.787109375,122.5581745704015L128.01328125,122.35638708124557L128.23945312499998,122.5769265020887L128.465625,122.90548276404539L128.691796875,122.6421021943291L128.91796875,122.69518565634885L129.144140625,123.14749221255381L129.3703125,122.93190544098616L129.596484375,122.89370190600553L129.82265625,122.941924298803L130.048828125,123.01533486942449L130.501171875,122.62829924871524L130.72734375000002,123.02269057929516L130.953515625,123.12235165635744L131.1796875,122.77743187050024L131.405859375,123.14386564244826L131.63203124999998,122.2491065437595L131.858203125,122.8480107858777L132.084375,122.77338036894798L132.310546875,122.46130851656199L132.53671875,123.04545371731122L132.762890625,123.07903795440991L132.9890625,122.92622015128532L133.215234375,123.02877149482568L133.44140625,123.08755123615265L133.667578125,123.46665968745947L133.89375,123.06097836792469L134.119921875,123.31714609265327L134.572265625,123.59070670108L134.7984375,122.83606874694426L135.024609375,122.98471049964428L135.25078125000002,123.45541365693012L135.476953125,122.97898491472006L135.703125,123.1190804168582L136.15546875,123.24846837917963L136.381640625,123.06597131242353L136.6078125,123.09617075075704L136.833984375,123.30036130050817L137.06015625,123.16344545781612L137.286328125,122.95575655003387L137.51250000000002,123.28301237523556L137.738671875,123.96423243234554L137.96484375,123.34690594673157L138.191015625,123.42680771152177L138.4171875,122.81837914387384L138.86953125000002,123.5186185464263L139.095703125,123.19583549102146L139.321875,123.25125607599813L139.548046875,122.86645500858624L139.77421875000002,123.38533660024405L140.00039062500002,122.92925328264633L140.2265625,123.17873566349347L140.67890624999998,123.418957469364L140.905078125,123.5757242043813L141.13125,123.24234716842571L141.357421875,123.42351449280977L142.262109375,123.66088632742563L142.48828125,123.03335416068633L142.714453125,123.48174475381771L142.94062499999998,123.50474599997202L143.166796875,123.20628660668928L143.39296875,123.28274129827815L143.619140625,123.01575613766909L143.8453125,123.49955524255832L144.071484375,124.22293509294589L144.29765625,123.50028055657943L144.523828125,123.21210377166668L144.75,123.79202163716157L144.976171875,123.32100344449282L145.20234375,123.32232219725847L145.42851562500002,123.41837135702372L145.6546875,122.98526364316541L145.880859375,123.44912393887837L146.10703125,123.37904688219228L146.333203125,123.59679860621691L146.55937500000002,123.42202356954415L146.78554687500002,123.45422311623891L147.01171875,123.31431077420712L147.237890625,122.98490464935699L147.4640625,123.55121738215287L147.69023437500002,123.65237670888503L148.142578125,123.62141166130701L148.36874999999998,124.03054371724525L148.59492187499998,123.37043835719425L148.82109375,123.58399571478367L149.047265625,124.04606836785871L149.2734375,123.58783108741045L149.49960937499998,123.7814826046427L149.72578124999998,123.59693414469558L149.951953125,123.75898321717978L150.178125,123.73701865722734L150.404296875,123.65736965338388L150.63046875,123.94620581467944L150.85664062499998,123.92099565764268L151.0828125,124.07415047536293L151.308984375,123.79186411947012L151.53515625,123.41357988864183L151.761328125,123.50639444092909L151.9875,123.99281639854112L152.213671875,123.82325043529272L152.43984375,123.66561552137136L152.666015625,123.49965414901574L152.8921875,123.50541270275909L153.118359375,123.39675113807121L153.34453125,123.11149758845568L153.570703125,124.03026897708574L153.796875,123.6105246245861L154.023046875,123.69024322926998L154.24921875,123.66832995414734L154.47539062500002,123.7912889967362L154.7015625,123.48892462998629L154.927734375,123.42756599436203L155.15390625,123.52874730030695L155.380078125,123.83509356776872L155.60625000000002,123.66901863614717L155.83242187500002,123.32757889231044L156.284765625,124.11047112445036L156.5109375,123.22685182342926L156.73710937500002,124.07969290018082L156.96328125000002,123.7738484914104L157.189453125,123.44390753904977L157.41562499999998,123.76232405751944L157.64179687499998,123.94180264572302L157.86796875,124.08003357797861L158.094140625,124.04469833026329L158.3203125,123.61737847576538L158.54648437499998,124.11274597297111L158.77265624999998,124.1254462947448L158.998828125,124.22888413319984L159.225,123.64072406291962L159.451171875,124.06356748441854L159.67734375,123.56775307655334L160.1296875,123.663871837159L160.355859375,123.8654248813788L160.58203125,123.71354485799867L160.808203125,123.95848120500644L161.034375,123.68190578122933L161.260546875,124.09233827392259L161.48671875,123.83993998418251L161.712890625,123.88519152005513L161.9390625,123.87328244994083L162.165234375,123.52457857628663L162.39140625000002,123.59293026477098L162.617578125,123.69407493869463L162.84375,123.96517753849426L163.069921875,123.66810283561547L163.29609375,124.0463247920076L163.52226562500002,123.70259921004373L163.74843750000002,123.91345312446356L163.974609375,123.99725253631671L164.20078125,123.16109001884857L164.426953125,123.66989047825336L164.65312500000002,123.94677727421124L164.87929687500002,123.97957392285267L165.10546875,123.55797599007686L165.33164062499998,123.56407888482013L165.55781249999998,123.97810131559768L165.783984375,123.67522410055001L166.01015625,124.19402876496315L166.236328125,123.49947831531364L166.46249999999998,123.92519368728001L166.68867187499998,124.01113240917523L166.91484375,124.36966099093357L167.141015625,124.0118137647708L167.3671875,123.81194579352935L167.593359375,123.59182031452656L167.81953124999998,123.79232934614022L168.045703125,123.53306255241235L168.271875,123.75642263889313L168.498046875,123.60294179618359L168.72421875,124.19491525987783L168.950390625,124.08417299638191L169.1765625,123.87890912840763L169.402734375,123.31205057849485L169.62890625,123.74555391818285L169.855078125,123.53512493520975L170.08125,123.81346602241197L170.307421875,123.96281110992034L170.759765625,124.09781842430432L170.9859375,124.25856339683135L171.212109375,123.9129952241977L171.43828125000002,124.22501945495605L171.664453125,124.10571628808975L171.890625,123.94673697898784L172.116796875,123.77873153984547L172.34296875,124.1528873418768L172.56914062500002,123.78285630544026L172.79531250000002,124.08592767020065L173.021484375,123.981229690214L173.24765625,124.25037980328003L173.473828125,124.38189608603716L173.70000000000002,124.35277729233104L173.92617187500002,124.198761622111L174.37851562499998,124.20478758960962L174.60468749999998,124.22817713518937L174.830859375,124.17208618422349L175.05703125,124.27626032630602L175.283203125,124.47676569471756L175.50937499999998,124.20513559381166L175.73554687499998,124.32341306408246L175.96171875,123.87024931857982L176.187890625,124.06302166730165L176.4140625,124.1717052112023L176.640234375,124.03171227872372L176.86640624999998,123.52171395222345L177.092578125,124.07256430884202L177.31875,124.0963677962621L177.544921875,123.87557561447223L177.77109375,124.04897328714529L177.997265625,123.9455830703179L178.2234375,123.81798641383648L178.449609375,123.67262322703996L178.67578125,123.96877113978067L178.901953125,124.09478895614544L179.128125,123.48053223391373L179.35429687500002,123.9222008511424L179.58046875,123.50461046149333L179.806640625,124.22262005756298L180.0328125,124.06870695700248L180.71132812500002,123.8616810888052L180.9375,123.762485238413L181.163671875,123.62288793176413L181.38984375,123.94236311564842L181.61601562500002,123.77781940251589L181.84218750000002,124.24093240499496L182.068359375,124.349396156768L182.29453124999998,124.00100365529457L182.52070312499998,124.09523220360279L182.746875,124.0549003481865L182.973046875,123.49125442653894L183.19921875,123.94745130340257L183.42539062499998,124.35838565478721L183.65156249999998,124.12726690620184L184.10390625,123.37391473601261L184.330078125,123.75333089629808L184.55625,124.30540109922487L184.78242187499998,124.04855934530497L185.00859375,124.02316969136396L185.234765625,123.77459578464428L185.4609375,123.75952903429666L185.687109375,123.41499022146066L185.91328125,123.75760218997796L186.139453125,124.18182297547658L186.365625,123.59488275150457L186.591796875,123.87410300721723L186.81796875,124.02440785368282L187.044140625,123.99714264025289L187.2703125,124.0981297964851L187.496484375,124.00771830479303L187.72265625,123.77325505266586L187.948828125,123.95479236046472L188.175,123.85499208172162L188.40117187500002,124.03200533489385L188.62734375,123.53291602432728L188.853515625,124.46760036299625L189.0796875,123.727245233953L189.305859375,123.78451573600371L189.53203125000002,124.1131122931838L189.75820312500002,124.22859840343395L189.984375,124.19931476563215L190.210546875,124.17970930784941L190.43671875,123.76182219882806L190.66289062500002,123.89747423678637L190.88906250000002,123.82052867611247L191.115234375,123.84007918586332L191.34140624999998,124.05162544548512L191.56757812499998,124.2403646086653L192.019921875,123.88430136193831L192.24609375,124.31047463417053L192.47226562499998,123.94575890401998L192.69843749999998,123.68197904527187L192.924609375,123.78485275059938L193.15078125,123.98901399473348L193.376953125,123.82029789437848L193.603125,123.96227628240982L193.82929687499998,124.14800429344177L194.05546875,124.1011336222291L194.281640625,123.74877753605445L194.5078125,124.19039486845334L194.733984375,124.13259320209423L194.96015625,124.28853571663299L195.186328125,124.18621515482664L195.4125,124.04739811023076L195.638671875,124.41718371212482L195.86484375,124.11533219367266L196.091015625,123.65950530022383L196.31718750000002,123.70274207492669L196.543359375,123.16358465949693L196.76953125,123.74664555241662L196.995703125,124.07634839663902L197.221875,124.2631607155005L197.44804687500002,124.12292601168156L197.67421875000002,123.2824848741293L197.900390625,123.13459407786527L198.1265625,123.31066955129305L198.57890625000002,123.93247979631026L198.80507812500002,123.68383262554804L199.03125,123.82164595276117L199.25742187499998,123.60423856973648L199.48359374999998,123.65247195214033L199.709765625,124.2202719449997L199.9359375,123.74104085316259L200.162109375,123.95651772866646L200.38828124999998,123.83400559673706L200.61445312499998,123.95723937948544L200.840625,124.37381872534752L201.066796875,124.01979221900302L201.29296875,124.04067979753017L201.519140625,124.0550102442503L201.74531249999998,123.45889369895059L201.971484375,123.72396300484735L202.19765625,123.48551052560408L202.423828125,123.25773994376262L202.65,123.32922000686327L202.876171875,123.84811991453171L203.10234375,123.66815412044525L203.328515625,124.17995474239189L203.5546875,123.6955328931411L203.780859375,123.72183102120955L204.00703125,123.86927124361196L204.233203125,123.701855580012L204.459375,123.71635819723208L204.685546875,124.16535321871439L204.91171875,123.92619740466276L205.137890625,123.97449672470489L205.36406250000002,123.72701811542113L205.590234375,123.49003091702858L206.042578125,123.42108212659755L206.26875,123.44212355961402L206.49492187500002,123.52412800242503L206.72109375000002,123.70780828346807L206.947265625,123.86245768765608L207.1734375,123.61680335303147L207.399609375,123.7552027925849L207.62578125000002,123.67688719431558L207.85195312500002,123.42360973606506L208.078125,123.89433120936155L208.30429687499998,123.65850158284107L208.53046874999998,123.39317585279544L208.756640625,123.58701053013402L208.9828125,123.72583123793204L209.208984375,123.70171271512905L209.43515624999998,123.55375231802464L209.66132812499998,123.54808168113232L209.8875,123.81368581453958L210.113671875,123.68457625557978L210.33984375,123.92616443584362L210.566015625,123.94391265014806L210.79218749999998,123.4474608451128L211.018359375,123.63729164252678L211.24453125,123.49702763309081L211.470703125,123.82170822719732L211.696875,123.40821696072817L211.923046875,123.18976556509733L212.14921875,123.4337348267436L212.375390625,123.73473281910022L212.6015625,123.52648344139257L212.827734375,123.59640298038721L213.05390625,124.22165663540363L213.28007812500002,124.12706176688273L213.50625,123.7695185864965L213.732421875,123.72032910833755L213.95859375,123.97512679547071L214.184765625,123.59427832315365L214.41093750000002,123.58445361504951L214.86328125,123.4381599749128L215.089453125,123.40285036961237L215.315625,123.85702149569988L215.54179687500002,123.36023633927107L215.76796875000002,123.78585646798213L215.994140625,123.35118456681568L216.22031249999998,123.84408672899008L216.44648437499998,123.41139295697212L216.898828125,123.85568076372147L217.125,123.60942200074592L217.35117187499998,123.40109203259149L217.57734374999998,123.51490039626756L217.803515625,123.33674056082964L218.255859375,123.2223497480154L218.48203125,123.48682195196548L218.70820312499998,123.59030374884605L218.934375,123.64152996738751L219.160546875,123.59718690564235L219.38671875,123.89582213262716L219.612890625,123.96065714706977L219.8390625,123.77164324373007L220.065234375,123.81351730724175L220.29140625,123.35605296244223L220.517578125,123.25354191412528L220.74375,123.93997104465961L220.969921875,124.01167456309L221.19609375,123.9471252784133L221.422265625,123.60115415354568L221.6484375,123.7226442520817L221.874609375,123.85118967791396L222.10078125,123.38292255004247L222.32695312500002,123.50231729696193L222.553125,123.4274414454897L222.779296875,123.85680902997652L223.00546875,123.65526331216097L223.231640625,123.40982510646184L223.45781250000002,123.59213901311159L223.68398437500002,123.55515166123708L223.91015625,123.44118211666742L224.136328125,124.07346911976734L224.3625,123.67115428298712L224.58867187500002,123.75686588635045L224.81484375000002,123.39070685456196L225.041015625,123.05658618857463L225.26718749999998,123.33494925498962L225.49335937499998,123.79829670240481L225.71953125,123.47193836172421L225.945703125,123.60341434925795L226.171875,123.45589719961086L226.39804687499998,123.39311357835928L226.62421874999998,123.25083847095569L226.850390625,123.71922282129526L227.0765625,123.65010186036427L227.302734375,123.48586219300824L227.52890625,122.98969978094101L227.75507812499998,123.36607548346122L227.98125,123.89085483054319L228.207421875,124.05454501758018L228.43359375,123.8299284527699L228.659765625,123.62280734131733L228.8859375,123.64750098685423L229.112109375,123.34877417981625L229.564453125,123.53797124326229L229.790625,123.32678764065105L230.016796875,124.0844990213712L230.24296875000002,123.4389658793807L230.6953125,123.72393736243248L230.921484375,123.50930668661991L231.14765625,123.50507568816343L231.37382812500002,123.69753666470447L231.60000000000002,123.31315320233503L231.826171875,123.56750397880872L232.05234375,123.75310011456409L232.278515625,123.51792986442645L232.50468750000002,123.29299093782902L232.95703125,123.57809063295522L233.18320312499998,123.1981066763401L233.40937499999998,123.18016797552505L233.635546875,123.45711338271695L233.86171875,123.60959417124587L234.087890625,123.49614846458036L234.31406249999998,122.91652365525562L234.54023437499998,123.07821373393138L234.76640625,123.26897498468557L234.992578125,123.29256600638229L235.444921875,123.20431214074293L235.67109374999998,123.22139731546243L235.897265625,123.37775377184153L236.1234375,123.62023943662643L236.349609375,123.28850717842579L236.801953125,122.84751625359058L237.028125,123.45468101650476L237.254296875,123.26075475911298L237.706640625,123.28323583056527L237.9328125,123.42677107950051L238.158984375,123.13772977888584L238.38515625,123.2118620003263L238.611328125,123.41688409696022L238.8375,123.40108470618725L239.063671875,123.39590127517779L239.28984375000002,123.53265227377415L239.516015625,123.11268446594477L239.7421875,123.38636596004167L239.968359375,122.96174954871336L240.19453125,123.02212278296548L240.42070312500002,123.36454060177007L240.64687500000002,123.47411796698967L240.873046875,123.41620640456676L241.09921875,123.40589815378189L241.325390625,123.08629109462102L241.55156250000002,123.41907469183207L241.77773437500002,123.5470413317283L242.00390625,122.97637305160363L242.23007812499998,123.41008153061071L242.45624999999998,123.55901267627874L242.682421875,123.25275798887014L242.90859375,123.24529970933993L243.134765625,122.85778054594994L243.36093749999998,122.99572941164175L243.58710937499998,123.03440916289885L243.81328125,123.69093923767407L244.039453125,123.7254026432832L244.265625,123.1401438290874L244.491796875,123.36605350424844L244.71796874999998,123.44016374647617L244.944140625,123.57322223732868L245.1703125,123.82219176987806L245.396484375,123.43422203262647L245.62265625,123.45251972724994L245.848828125,123.29123626401027L246.075,122.95492866635323L246.301171875,123.20102258523305L246.52734375,123.29495441416898L246.753515625,123.14452135562897L246.9796875,123.13694585363069L247.20585937500002,123.27288362135488L247.43203125,123.77190333108106L247.884375,123.65377238889533L248.110546875,123.19893456002075L248.56289062500002,123.03758149594069L248.7890625,122.55985598017772L249.015234375,122.97247540454069L249.24140625,123.34415488193432L249.46757812500002,122.988948824505L249.69375000000002,123.36604251464207L249.919921875,122.67158730824788L250.37226562499998,123.32706238081057L250.5984375,123.14532359689474L250.824609375,123.13330463071664L251.05078125,123.10408326735097L251.27695312499998,122.86853570739427L251.50312499999998,122.97386375814676L251.729296875,123.57510512322187L251.95546875,123.16463233530521L252.4078125,122.83437634756167L252.63398437499998,123.53213942547639L252.86015625,123.2704805607597L253.086328125,123.10854871074358L253.3125,122.73180302480856L253.538671875,123.18445025881131L253.76484375,122.7290226543943L253.991015625,123.33907768378654L254.2171875,122.5940116768082L254.443359375,123.1022699822982L254.66953125,123.19204041361809L254.895703125,123.19696375727654L255.121875,123.22168670843044L255.348046875,123.32375817249218L255.57421875,122.62363232920566L255.800390625,123.11051951348782L256.0265625,123.26514327526093L256.252734375,123.12415028860171L256.47890624999997,123.26352413992086L256.705078125,123.10737282286087L256.93125,123.40331559628248L257.157421875,122.99116872499386L257.38359375,123.32774739960828L257.609765625,123.87797501186529L257.8359375,123.35810435563326L258.062109375,123.49023239314556L258.28828125,123.26166323324044L258.514453125,122.52005162586768L258.740625,123.52888650198776L258.966796875,123.91124787678321L259.419140625,123.32185697058836L259.6453125,123.23205723365147L259.871484375,123.54220956812301L260.09765625,123.46620178719361L260.323828125,122.84811701873937L260.55,123.44224444528419L260.776171875,123.16599138329426L261.00234375,122.82718548178673" style="fill: none;" fill="none"></path></g><g><path stroke="rgb(238, 51, 119)" stroke-width="2px" d="M24.87890625,-37.01101264357567L27.140625,7.007943630218506L29.40234375,45.57052370409173L31.6640625,57.26583132147789L33.92578125,64.54426960647106L36.1875,89.02503914137681L38.44921875,36.61348898212117L40.7109375,73.7767991075913L42.97265625,85.56331313153107L45.234375,65.30495550731817L47.49609375,79.81667212148507L49.7578125,75.92966299752393L52.01953125,88.87105277677377L54.28125,87.19193616509438L56.54296875,86.92233914136887L58.8046875,80.65640259782472L61.06640625,86.21251313885051L63.328125,78.86021737257639L65.58984375,77.64039304355781L67.8515625,97.38882926851511L70.11328125,72.8223224878311L72.375,70.4991490046183L74.63671875,81.45362527668475L76.8984375,78.40966549019018L79.16015625,82.87139439582825L81.421875,100.23743781199057L83.68359375,93.93964972595373L85.9453125,99.47068564842144L88.20703125,71.30033526817957L90.46875,93.62424802283445L92.73046875,79.1251841088136L94.9921875,94.3951542576154L97.25390625,84.26865690946579L99.515625,80.74445865054925L101.77734375,81.32657077411811L104.0390625,89.29767662286757L106.30078125,75.72259683410327L108.5625,70.31605483591557L110.82421875,86.0964848746856L113.0859375,84.04107681413491L115.34765625,47.258922869960486L117.609375,91.395797620217L119.87109375,73.50512138505776L122.1328125,80.17669895291328L124.39453125,94.65539546310902L126.65625,91.79305723806222L128.91796875,67.86561438441277L131.1796875,87.8708667208751L133.44140625,87.65204900503159L135.703125,12.62033560872078L136.15546875,40.03991637627283L136.6078125,45.15049362182617L137.06015625,92.64112516244252L137.51250000000002,76.60345774392287L137.96484375,91.50427236159642L138.4171875,79.31211731334527L138.86953125000002,47.588970055182784L139.321875,36.34071962535381L139.77421875000002,86.14669272303581L140.2265625,63.21210219462712L140.67890624999998,69.68752261499561L141.13125,76.34468914568424L141.58359374999998,24.85676411787668L142.0359375,76.78793660302956L142.48828125,93.02798128624757L142.94062499999998,85.16965810457864L143.39296875,85.10578651229541L143.8453125,92.16432277361551L144.29765625,79.38950612147649L144.75,89.69100196162859L145.20234375,87.0559214701255L145.6546875,55.80753253400326L146.10703125,71.63929136097431L146.55937500000002,55.59264177083969L147.01171875,26.807126194238663L147.4640625,61.09805359443027L147.91640625000002,47.74336669842404L148.36874999999998,45.61251865327358L148.82109375,64.98624226947625L149.2734375,46.907504563530296L149.72578124999998,71.04821904500325L150.178125,83.9139050891002L150.63046875,66.36127647260824L151.0828125,69.2957651267449L151.53515625,75.59134430189926L151.9875,48.47042440374693L152.43984375,83.0474552164475L152.8921875,77.53270955383776L153.34453125,75.05025271574655L153.796875,47.93390449384847L154.24921875,93.35659249623616L154.7015625,48.157059441010176L155.15390625,-31.391294260819734L155.60625000000002,39.69682819147906L156.05859375,-93.16158588727319L156.5109375,83.47488496700923L156.96328125000002,61.62998717526594L157.41562499999998,77.96653525531292L157.86796875,69.9140110760927L158.3203125,-10.685923407475173L158.77265624999998,81.04761793216068L159.225,90.07888378202915L159.67734375,47.032434408863395L160.1296875,91.47739178438981L160.58203125,80.9202044357856L161.034375,22.806191484133393L161.48671875,61.41063463191189L161.9390625,69.12732376654942L162.39140625000002,56.54744807879129L162.84375,68.18907513221104L163.29609375,80.05089726547399L163.74843750000002,50.510146632790565L164.20078125,50.03338087598483L164.65312500000002,43.53455259402594L165.10546875,77.6970627804597L165.55781249999998,77.65418133636315L166.01015625,83.92393493652344L166.46249999999998,81.30054738620916L166.91484375,67.71890313923359L167.3671875,72.561114196976L167.81953124999998,53.91556189954281L168.271875,77.04361345867315L168.72421875,67.41095238924025L169.1765625,73.33098008235295L169.62890625,93.1673661271731L170.08125,49.35734424988428L170.53359375,76.34243993957836L170.9859375,35.94524032374224L171.43828125000002,57.06178363660969L171.890625,35.56979873776436L172.34296875,18.15868694583574L172.79531250000002,83.73358762760955L173.24765625,84.24079459408918L173.70000000000002,48.51546713709831L174.15234375,79.51708079874516L174.60468749999998,47.94252767165503L175.05703125,51.102713535229356L175.50937499999998,41.81303808093071L175.96171875,24.685575356086105L176.4140625,59.840022067228944L176.86640624999998,69.3077437976996L177.31875,85.69334215422471L177.77109375,70.3339532415072L178.2234375,23.226463337739318L178.67578125,56.66228213906288L179.128125,68.34251201649506L179.58046875,-8.901269942522049L180.0328125,37.022470846772194L180.48515625000002,-15.855478207270295L180.9375,58.966121241450296L181.38984375,73.25937180717786L181.84218750000002,64.28053370614845L182.29453124999998,77.61801087856293L182.746875,48.64133476217589L183.19921875,40.040114189187676L183.65156249999998,41.78730774919191L184.10390625,59.25042968491712L184.55625,56.9378355294466L185.00859375,91.51962850491205L185.4609375,27.53037416934967L185.91328125,35.061214407285064L186.365625,60.307058359185845L186.81796875,60.438237627347306L187.2703125,27.590743740399688L187.72265625,74.02007236083348L188.175,41.734411110480636L188.62734375,33.9612427254518L189.0796875,58.441543370485306L189.53203125000002,24.752187023560197L189.984375,53.78615562121074L190.43671875,77.33834004898866L190.88906250000002,67.83356869220734L191.34140624999998,41.14799106121063L191.79375,87.22039191921552L192.24609375,59.25234920283158L192.69843749999998,43.74695970614752L193.15078125,56.63695475955804L193.603125,47.90344130496183L194.05546875,27.14163515965143L194.5078125,56.83681906759739L194.96015625,78.16206233203411L195.4125,39.381455793976784L195.86484375,51.95028326412043L196.31718750000002,26.248942106962204L196.76953125,78.63738478720188L197.221875,14.540703386068344L197.67421875000002,54.541661754250526L198.1265625,70.87887653708457L198.57890625000002,23.826026956240327L199.03125,44.594749227166176L199.48359374999998,74.88408986727396L199.9359375,52.557056064407035L200.38828124999998,74.64815034468968L200.840625,63.794851715366036L201.29296875,40.9208652029435L201.74531249999998,75.82691750427087L202.19765625,-8.892991105715424L202.65,70.52388294537862L203.10234375,62.805640613039316L203.5546875,19.21074394385019L204.00703125,5.765883664290129L204.459375,86.01165976623693L204.91171875,75.53302612404029L205.36406250000002,35.200166990359634L205.81640625,-3.3036626478036055L206.26875,-2.779663562774658L206.72109375000002,86.76463096340497L207.1734375,28.589801530043303L207.62578125000002,41.37099215388298L208.078125,53.137651622295394L208.53046874999998,57.03893990814686L208.9828125,65.73158667981623L209.43515624999998,63.350175609191254L209.8875,80.05137348175049L210.33984375,-25.906440327564894L210.79218749999998,12.043586413065583L211.24453125,27.608737389246613L211.696875,17.984362483024597L212.14921875,80.50709780553977L212.6015625,68.46576411525406L213.05390625,18.519951939582825L213.50625,83.81448578337827L213.95859375,73.18519929051399L214.41093750000002,53.351069778203964L214.86328125,78.27892580628394L215.315625,82.51896504561105L215.76796875000002,80.10761096080142L216.22031249999998,59.48858178158599L216.67265625,62.27773655454317L217.125,27.11902587612471L217.57734374999998,67.00429299473763L218.0296875,60.541005099813134L218.48203125,82.16512169937292L218.934375,81.7386077493429L219.38671875,38.11622973779836L219.8390625,1.4631010989348L220.29140625,-37.82334969441098L220.74375,53.7433327883482L221.19609375,55.838347390294075L221.6484375,85.66742133597532L222.10078125,37.53445462882519L222.553125,49.39182963470617L223.00546875,55.56908738116421L223.45781250000002,85.25317911307016L223.91015625,34.313818603754044L224.3625,65.6751733670632L224.81484375000002,49.44749565422535L225.26718749999998,18.043882191181183L225.71953125,11.187569340070098L226.171875,21.688401987155288L226.62421874999998,47.69576704998812L227.0765625,58.36273323992886L227.52890625,66.52459667623043L227.98125,66.9296222825845L228.43359375,47.19289731482664L228.8859375,76.29675980905691L229.33828125,22.959108193715423L229.790625,60.88105282684165L230.24296875000002,80.16337954998016L230.6953125,71.01020965973535L231.14765625,32.70712349812189L231.60000000000002,41.299962664643914L232.05234375,52.84536472459635L232.50468750000002,71.08035998046398L232.95703125,69.63287496566772L233.40937499999998,84.64006897310416L233.86171875,32.05242136120796L234.31406249999998,45.950522313515364L234.76640625,50.4834492156903L235.21875,47.28159809112549L235.67109374999998,38.500213911136L236.1234375,49.78031222025554L236.57578125,74.44526755809784L237.028125,93.88574936985968L237.48046875,80.89582216242948L237.9328125,-17.138712565104186L238.38515625,81.80205441017945L238.8375,64.1179534693559L239.28984375000002,21.844307869672775L239.7421875,-29.39934751391411L240.19453125,87.18878581126529L240.64687500000002,45.03071423868337L241.09921875,25.429850111405045L241.55156250000002,59.96580177545546L242.00390625,-0.9024629592895508L242.45624999999998,24.93846817811331L242.90859375,74.20454389353591L243.36093749999998,33.58979402979216L243.81328125,41.77809845904508L244.265625,39.36726454893747L244.71796874999998,72.93276803195475L245.1703125,70.93590526779492L245.62265625,48.94652345776558L246.075,2.287717203299195L246.52734375,62.0327855547269L246.9796875,18.247116645177215L247.43203125,66.03732485572496L247.884375,74.04171455899875L248.33671875000002,30.25286599000296L248.7890625,34.58093930284181L249.015234375,52.65070948998134L249.24140625,73.73211536804834L249.46757812500002,86.1463630348444L249.69375000000002,78.38359814385572L249.919921875,42.56458062926927L250.14609374999998,6.775139808654785L250.37226562499998,4.677985896666854L250.5984375,-11.357285787661851L250.824609375,66.26376935839652L251.05078125,63.602072040239946L251.27695312499998,12.180546214183181L251.50312499999998,-33.371929039557756L251.729296875,21.96693722407022L251.95546875,41.08441252509752L252.181640625,57.52454130848248L252.4078125,29.988265573978424L252.63398437499998,66.93566656609376L252.86015625,84.84786045054594L253.086328125,22.232519378264755L253.3125,28.949864993492753L253.538671875,40.48472435772419L253.76484375,69.44721655547619L253.991015625,8.2986655731996L254.2171875,-6.721752593914687L254.443359375,-10.495495508114516L254.66953125,25.93292498588562L254.895703125,71.56233481069405L255.121875,31.555808375279128L255.348046875,39.25611567000547L255.57421875,75.25399269163609L255.800390625,38.29777070879936L256.0265625,75.31426701943079L256.252734375,62.008132204413414L256.47890624999997,49.84366363783677L256.705078125,74.06249224146207L256.93125,12.956192632516235L257.157421875,62.88327851891516L257.38359375,0.6543832918008263L257.609765625,2.508344540993363L257.8359375,35.529818549752235L258.062109375,31.928282767534256L258.28828125,84.16317134102184L258.514453125,60.54200149079162L258.740625,3.3450052539507453L258.966796875,54.771542340517044L259.19296875,62.10678956409295L259.419140625,90.88936725258827L259.6453125,65.57868462304272L259.871484375,72.88069927692413L260.09765625,21.936386118332535L260.323828125,22.67145890990892L260.55,64.39637881020704L260.776171875,38.83637864391011L261.00234375,90.77319978674252" style="fill: none;" fill="none"></path></g><g><path stroke="rgb(255, 112, 67)" stroke-width="2px" d="M27.140625,-16.699318796396255L29.40234375,51.90217076738675L31.6640625,72.97189103066921L33.92578125,33.711075325806945L36.1875,79.7578117897113L38.44921875,56.16537609696388L40.7109375,89.27519188821314L42.97265625,99.82778924455245L45.234375,89.7991616676251L47.49609375,70.8756016343832L49.7578125,99.39838869124651L52.01953125,91.17260604103406L54.28125,97.93232025206089L56.54296875,88.82049326101938L58.8046875,91.53291860222816L61.06640625,87.95734027028084L63.328125,100.85577900459369L65.58984375,76.34020538628101L67.8515625,95.07055348654588L70.11328125,86.5248670578003L72.375,100.40192291388908L74.63671875,91.23896861076355L76.8984375,82.97166356444359L79.16015625,81.43772697945435L81.421875,90.57019245127836L83.68359375,98.33560950060685L85.9453125,91.30563888947168L88.20703125,90.36525094509125L90.46875,92.68246806164582L92.73046875,96.05201325317223L94.9921875,96.59894764671722L97.25390625,102.29051241278648L99.515625,93.60114054381847L101.77734375,97.88720059146483L104.0390625,95.99987489730118L106.30078125,94.43203537662824L108.5625,87.59670534729956L110.82421875,84.07072677214938L113.0859375,95.5661114702622L115.34765625,89.04029271503289L117.609375,86.40117537478605L119.87109375,93.16985710461934L122.1328125,95.58679390947023L124.39453125,88.54441969593366L126.65625,103.22578286379574L128.91796875,97.21729250252247L131.1796875,86.56549929579099L133.44140625,97.98369299868742L135.703125,87.69981716076532L136.15546875,17.132228404283524L136.6078125,56.09047093987465L137.06015625,100.35979608943065L137.51250000000002,93.92531195282935L137.96484375,90.56428736944993L138.4171875,80.3417994727691L138.86953125000002,71.01999040941395L139.321875,95.54156068960825L139.77421875000002,22.07163154085478L140.2265625,51.14565359055996L140.67890624999998,66.09940147896607L141.13125,93.08415282766023L141.58359374999998,99.71899214138587L142.0359375,70.4031731088956L142.48828125,80.4002715051174L142.94062499999998,91.76084303855895L143.39296875,76.91242686410745L143.8453125,92.53953724106152L144.29765625,93.24663782119751L144.75,86.08942954738934L145.20234375,93.14468357960382L145.6546875,59.17833786706129L146.10703125,99.44596269726753L146.55937500000002,87.86414108177026L147.01171875,88.60601277649403L147.4640625,87.24207807580629L147.91640625000002,66.18490061660607L148.36874999999998,82.64163835843404L148.82109375,90.21083964904149L149.2734375,24.755542516708374L149.72578124999998,101.17192800094683L150.178125,86.30724354585011L150.63046875,96.34088604648908L151.0828125,81.45498798787594L151.53515625,91.0975470294555L151.9875,101.08711388210455L152.43984375,96.37976727386315L152.8921875,84.8393618216117L153.34453125,82.43942227462927L153.796875,69.65107375383377L154.24921875,56.91811284919579L154.7015625,83.20141960183778L155.15390625,78.81250050167243L155.60625000000002,91.19801401098569L156.05859375,70.0460402071476L156.5109375,70.41397222876549L156.96328125000002,67.03374513983727L157.41562499999998,78.74388872583705L157.86796875,81.6052085806926L158.3203125,57.025122309724466L158.77265624999998,88.42044228315353L159.225,42.46316854159036L159.67734375,54.090164765715585L160.1296875,82.49744739631811L160.58203125,90.22797610859075L161.034375,71.02023950715859L161.48671875,78.77205142378807L161.9390625,48.89895311494669L162.39140625000002,73.14586382607618L162.84375,77.07260404030482L163.29609375,25.65874163309735L163.74843750000002,76.26258945961791L164.20078125,66.23054411510624L164.65312500000002,95.54838889837265L165.10546875,78.79340789218742L165.55781249999998,86.48194898168245L166.01015625,71.93096284071603L166.46249999999998,81.97564623256524L166.91484375,74.41966910163562L167.3671875,93.13896165788174L167.81953124999998,84.89152581989765L168.271875,52.54739986360073L168.72421875,73.14969553550084L169.1765625,88.25184706846872L169.62890625,90.39931139846642L170.08125,79.0247024744749L170.53359375,70.8979618201653L170.9859375,71.06730432808399L171.43828125000002,70.5205787370602L171.890625,25.119855294624955L172.34296875,60.76174233357109L172.79531250000002,88.42581253747146L173.24765625,65.84616431593895L173.70000000000002,94.77863290905952L174.15234375,82.0277589460214L174.60468749999998,83.48088529209296L175.05703125,92.07255956033865L175.50937499999998,76.80472139517465L175.96171875,64.68991852303346L176.4140625,81.42308882375558L176.86640624999998,64.59765711426734L177.31875,70.43761453529198L177.77109375,93.84033298989137L178.2234375,74.93645167847473L178.67578125,48.90842615564665L179.128125,80.2739349901676L179.58046875,38.706005280216544L180.0328125,83.21175715823966L180.48515625000002,75.56806098918119L180.9375,63.35021956761676L181.38984375,79.94152870277563L181.84218750000002,74.35283764203388L182.29453124999998,72.12783797581989L182.746875,81.77531303465366L183.19921875,70.91501036286353L183.65156249999998,76.47080586850643L184.10390625,68.50243276854356L184.55625,76.84936850269634L185.00859375,94.00992459555466L185.4609375,46.743136684099824L185.91328125,71.28401936590672L186.365625,78.5353353023529L186.81796875,24.900532056887954L187.2703125,81.80623046060401L187.72265625,56.132407277822495L188.175,81.95780643820763L188.62734375,60.86882505814232L189.0796875,64.61154065032798L189.53203125000002,75.49165391921997L189.984375,78.49736987551053L190.43671875,56.693492621183395L190.88906250000002,27.53248417377472L191.34140624999998,63.19675337771572L191.79375,72.85280765593052L192.24609375,67.84271204471587L192.69843749999998,53.83997538685799L193.15078125,38.52825938661894L193.603125,85.52113502224286L194.05546875,83.78659416238466L194.5078125,80.33175497253735L194.96015625,64.78413608173527L195.4125,52.65540571510792L195.86484375,68.92176684240499L196.31718750000002,49.50514712929727L196.76953125,57.14369283616543L197.221875,91.65873494247595L197.67421875000002,70.26098225514092L198.1265625,90.12131098906198L198.57890625000002,28.285198946793884L199.03125,51.26445123553276L199.48359374999998,76.65645695229371L199.9359375,55.07672370970248L200.38828124999998,94.09905030330022L200.840625,84.0307758897543L201.29296875,68.92995776236056L201.74531249999998,64.47013372182845L202.19765625,23.062732855478913L202.65,32.85605464378992L203.10234375,69.88650775452454L203.5546875,50.0672215372324L204.00703125,38.68964541951814L204.459375,62.63615157703556L204.91171875,51.755430216590554L205.36406250000002,52.515068441629424L205.81640625,64.06191380321978L206.26875,65.5100215623776L206.72109375000002,50.9994625200828L207.1734375,74.03495961427689L207.62578125000002,78.86875263353188L208.078125,74.2195630222559L208.53046874999998,71.79713874061902L208.9828125,54.19420703252156L209.43515624999998,17.033116807540267L209.8875,56.69289185603458L210.33984375,63.885809024175L210.79218749999998,45.70395217835903L211.24453125,50.170479878783226L211.696875,69.05725403626758L212.14921875,85.05464088420072L212.6015625,43.07884292304516L213.05390625,40.24486520886421L213.50625,62.600266849001244L213.95859375,67.13485684494177L214.41093750000002,62.90727981925009L214.86328125,85.73626023034254L215.315625,78.84105149904887L215.76796875000002,62.431107501188905L216.22031249999998,71.29529470205307L216.67265625,67.18844949205715L217.125,74.11686148742834L217.57734374999998,81.07020523647468L218.0296875,65.41895435750484L218.48203125,61.70971310635407L218.934375,85.66468858718872L219.38671875,47.151854798197746L219.8390625,59.53503851095833L220.29140625,63.153395717342676L220.74375,57.075755089521394L221.19609375,11.26226935784021L221.6484375,62.82326794167359L222.10078125,83.10020532707372L222.553125,78.83710989356041L223.00546875,-1.2216890454292297L223.45781250000002,75.46154972414176L223.91015625,50.726531982421875L224.3625,67.92285558084646L224.81484375000002,62.57004543145496L225.26718749999998,83.15338036914666L225.71953125,49.311825300256416L226.171875,20.92406753698984L226.62421874999998,79.0177936752637L227.0765625,72.71082926789917L227.52890625,40.23600758612156L227.98125,68.26088122030099L228.43359375,56.221628228823334L228.8859375,57.08764584362507L229.33828125,67.26618996759254L229.790625,16.3043007651965L230.24296875000002,74.1264151185751L230.6953125,88.66225025554498L231.14765625,82.4682736545801L231.60000000000002,84.87864600121975L232.05234375,73.83742510279019L232.50468750000002,48.06416796147823L232.95703125,75.77927389740944L233.40937499999998,83.46841575205325L233.86171875,51.326352025071785L234.31406249999998,40.724158575137466L234.76640625,68.35301808019479L235.21875,79.6871705998977L235.67109374999998,68.89468112587927L236.1234375,54.16049824655056L236.57578125,81.79151904086271L237.028125,40.36761911213398L237.48046875,60.062708124518394L237.9328125,65.90835816164811L238.38515625,41.293786505858094L238.8375,52.68928300837676L239.28984375000002,64.69878347218037L239.7421875,50.911604280273124L240.19453125,72.85672728220621L240.64687500000002,73.43969659507273L241.09921875,53.37512236336866L241.55156250000002,72.03212583065032L242.00390625,68.20177911718685L242.45624999999998,62.011231273412704L242.90859375,65.78402175505956L243.36093749999998,78.4378574937582L243.81328125,68.29233347376187L244.265625,92.54083401461442L244.71796874999998,68.51616245011488L245.1703125,17.829658130804688L245.62265625,86.44835741817951L246.075,89.44524505734442L246.52734375,55.35351526240507L246.9796875,74.0764563679695L247.43203125,54.444118008017526L247.884375,53.12973177929719L248.33671875000002,51.812788635492325L248.7890625,64.6034303208192L249.015234375,62.14706280827522L249.24140625,82.97025689482687L249.46757812500002,48.255775411923736L249.69375000000002,77.08441420396169L249.919921875,57.56359836955863L250.14609374999998,28.28197532892227L250.37226562499998,86.30747066438198L250.5984375,17.9877912402153L250.824609375,56.36457370221615L251.05078125,75.31399594247341L251.27695312499998,40.35144973794618L251.50312499999998,31.8657885392507L251.729296875,49.86353284617266L251.95546875,81.85336121916771L252.181640625,85.6448413580656L252.4078125,75.80862347284952L252.63398437499998,61.07477760811645L252.86015625,76.62628681957722L253.086328125,81.0844697455565L253.3125,45.89052638908228L253.538671875,22.46643681327504L253.76484375,66.50162839889526L253.991015625,81.43163873751956L254.2171875,54.29079834620157L254.443359375,65.52578798433144L254.66953125,51.11590106288591L254.895703125,91.44796161850293L255.121875,72.90916968385376L255.348046875,75.24359652400017L255.57421875,65.74966824551423L255.800390625,85.8484128266573L256.0265625,91.98654757440089L256.252734375,30.961724907159805L256.47890624999997,69.6104341894388L256.705078125,57.50690665344396L256.93125,74.08945340911548L257.157421875,59.71491638819374L257.38359375,64.27916366855302L257.609765625,47.81763445834318L257.8359375,57.54602232575415L258.062109375,65.64713521798451L258.28828125,79.51493416229884L258.514453125,47.47449498871961L258.740625,63.93626597026983L258.966796875,70.5250698228677L259.19296875,52.285744662086174L259.419140625,69.89740211764969L259.6453125,63.23753947019577L259.871484375,39.576638529698045L260.09765625,61.56319234768549L260.323828125,81.33539176483949L260.55,66.85854150851567L260.776171875,55.52585426966348L261.00234375,71.95454653600851" style="fill: none;" fill="none"></path></g><g><path stroke="rgb(51, 187, 238)" stroke-width="2px" d="M27.140625,-28.31999233365059L27.59296875,12.654300818840653L28.0453125,19.712749163309752L28.49765625,26.435149997472763L28.950000000000003,40.52723948160806L29.40234375,44.62032570441565L29.8546875,46.33292398353419L30.307031249999998,58.705689549446106L30.759375,65.38406602044898L31.211718750000003,61.75531997283298L31.6640625,67.3790678779284L32.11640625,69.0415755311648L32.56875,58.16825383901596L33.02109375,59.59763530890146L33.4734375,66.33545089761414L33.92578125,19.516342918078095L34.378125000000004,56.7343446513017L34.83046875,48.777386089166015L35.2828125,66.4669158955415L35.735156249999996,53.86632846295835L36.1875,73.06302417318025L36.639843750000004,78.15070640544096L37.092187499999994,70.66929741700488L37.54453125,76.23915229241054L37.996875,72.35540341834226L38.44921875,48.23794294397035L38.901562500000004,64.14454099039234L39.353906249999994,85.1988538255294L39.80625,85.25079070528348L40.25859375,73.13196563720702L40.7109375,81.03806430101395L41.163281250000004,88.15716061989465L41.615624999999994,53.18723672628404L42.06796875,90.64731750885645L42.5203125,66.08556190133095L42.97265625,95.9850975399216L43.425000000000004,87.15468139946461L43.877343749999994,85.37437981863815L44.3296875,91.84918482104936L44.78203125,86.46075369417667L45.234375,84.18240315218766L45.68671875,92.99630191425481L46.1390625,73.52487337092558L46.59140625,74.74659523864587L47.04375,74.16693013409774L47.49609375,64.6671846906344L47.9484375,77.69827163716157L48.40078125,83.8736977825562L48.853125,79.36489672958851L49.30546875,73.8554700364669L49.7578125,95.64963980515797L50.21015625,78.66135678191979L50.6625,83.23602220912773L51.11484375,83.85393114387989L51.5671875,95.08785845339297L52.01953125,85.69153253237405L52.471875,90.47726433972517L52.92421875,77.23708181579906L53.3765625,76.82092007497947L53.82890625,98.01019992927709L54.28125,94.50485983490944L54.73359375,95.16931341588497L55.1859375,88.55647163093089L55.63828125,69.43394111096859L56.090625,63.28371779620646L56.54296875,87.11752920349439L56.9953125,98.18018716077009L57.44765625,88.88261384268601L57.900000000000006,97.78651015460491L58.352343749999996,84.96513420343398L58.8046875,88.0792076786359L59.25703125,89.65981345872083L59.709375,96.04596896966298L60.161718750000006,90.91688522696495L60.614062499999996,88.99600460131963L61.06640625,82.6545255035162L61.51875,95.73593752086163L61.97109375,93.34538309772809L62.423437500000006,93.62731045981248L62.875781249999996,82.45582609375317L63.328125,95.5983842809995L63.78046875,74.58560483157635L64.2328125,82.31759149829546L64.68515625,99.72128896911939L65.1375,97.59781861305237L65.58984375,71.14536716540653L66.0421875,84.66738913456598L66.49453125,71.57771293322244L66.946875,88.07648225625356L67.39921875,95.91673119862874L67.8515625,92.24359446763992L68.30390625,86.82357921202977L68.75625000000001,76.54419445991516L69.20859375,85.86749810973804L69.6609375,81.80664073924223L70.11328125,82.86989980936049L70.565625,99.38657120118538L71.01796875,87.99041898548602L71.47031249999999,82.36607764164607L71.92265625,93.24765619138876L72.375,95.95128618429104L72.82734375,96.7729350949327L73.27968750000001,97.58159429083267L73.73203125,80.45464807748795L74.18437499999999,78.11592063804467L74.63671875,86.05026259024937L75.0890625,79.31217592457931L75.54140625,93.43691919247308L75.99375,91.13173203170298L76.44609375,99.68294623245795L76.8984375,82.70092362165451L77.35078125,72.8408143321673L77.80312500000001,92.2282676299413L78.25546875,91.9950974881649L78.70781249999999,93.17424562076727L79.16015625,78.7395075360934L79.6125,89.60003000001112L80.06484375,83.20703162749608L80.5171875,83.65022780001163L80.96953125,82.32332807282606L81.421875,85.71489643553892L81.87421875000001,83.13376025855541L82.32656250000001,86.92370917896429L82.77890624999999,89.30442424118519L83.23124999999999,88.23487911621729L83.68359375,96.05431740731001L84.1359375,80.81020580232142L84.58828125,87.19485940039158L85.040625,81.18499533832072L85.49296875,82.428293466568L85.9453125,85.05956422785918L86.39765625000001,83.22572861115137L86.85000000000001,89.12798977394898L87.30234374999999,82.56496021151543L87.75468749999999,80.74220944444338L88.20703125,84.50014930466811L88.659375,81.36874155700207L89.11171875,65.19333773851393L89.5640625,98.81504939496516L90.01640625,87.15234427650769L90.46875,88.20627683401108L90.92109375000001,82.55329657594362L91.3734375,90.15348855654398L91.82578124999999,75.40065997838974L92.278125,89.96654802560805L92.73046875,87.55802925924459L93.1828125,96.31825112054744L93.63515625,93.21080437799294L94.0875,93.38545120259126L94.53984375,83.38170043130715L94.9921875,91.76965670287609L95.44453125000001,79.37574713428815L95.896875,99.79365186393261L96.34921874999999,80.90305332342784L96.8015625,82.5846096277237L97.25390625,94.9496971219778L97.70625,96.52229880541562L98.15859375000001,89.14418845375378L98.6109375,91.72057712078094L99.06328125,87.66637945175171L99.515625,87.59820726017156L99.96796875,76.98701698581378L100.4203125,94.9433744351069L100.87265624999999,88.19079614182313L101.325,95.22203422089417L101.77734375,92.32036053140958L102.2296875,86.03939753274123L102.68203125000001,87.07010538876057L103.134375,95.43491754929224L103.58671875,92.39147793749967L104.0390625,92.50498591860135L104.49140625,93.92063770691553L104.94375,83.57995293041068L105.39609374999999,91.27811358869074L105.8484375,79.98419768114884L106.30078125,88.02049387494723L106.753125,67.22018014887968L107.20546875000001,87.70015417536099L107.6578125,95.51987453301747L108.11015624999999,94.92587898174921L108.5625,78.34915671745937L109.01484375,77.92930979530016L109.4671875,97.12567581733067L109.91953125,93.32073707381883L110.371875,98.05971909562746L110.82421875,78.62184548377991L111.2765625,96.099579932789L111.72890625000001,94.49090303480625L112.18125,74.9265170743068L112.63359374999999,83.16963766018549L113.0859375,89.4228555659453L113.53828125,69.19879284004368L113.990625,79.97067313889661L114.44296875,76.59649033347765L114.8953125,94.0225626428922L115.34765625,82.6356380333503L115.80000000000001,82.34868475794792L116.25234375000001,73.84409945706527L116.70468749999999,85.58148994048435L117.15703124999999,72.39396961033344L117.609375,81.08252092202504L118.06171875,82.70079907278219L118.5140625,87.933544109265L118.96640625,101.56608854979277L119.41875,92.8539572060108L119.87109375,86.76659443974495L120.32343750000001,77.733841329813L120.77578125000001,76.60506955285865L121.22812499999999,76.4138870338599L121.68046874999999,91.6176997522513L122.1328125,89.24784974753857L122.58515625,84.04493782917658L123.0375,78.2748376727104L123.48984375,85.69912268718082L123.9421875,80.77379357318082L124.39453125,79.61409704387187L124.84687500000001,82.59721104303995L125.29921875,71.03102397421995L125.75156249999999,55.7295136551062L126.20390625,84.41865771015485L126.65625,96.00717199593782L127.10859375,70.13970095912615L127.5609375,87.58503438532351L128.01328125,80.2251338114341L128.465625,75.6353833178679L128.91796875,91.1354611714681L129.3703125,89.37051573395729L129.82265625,79.50681650638579L130.275,94.2148954073588L130.72734375000002,90.72574666639169L131.1796875,77.99727684756118L131.63203124999998,79.12098607917625L132.084375,89.48521059254804L132.53671875,86.42484698692957L132.9890625,84.47113674382369L133.44140625,90.31459618608156L133.89375,87.11130908628303L134.34609375,77.71444101134936L134.7984375,64.38554305831589L135.25078125000002,89.61271200577417L135.703125,81.45613823334376L135.929296875,45.34482649465403L136.15546875,10.119965712229401L136.381640625,80.56271986663342L136.6078125,54.51127182940641L136.833984375,78.41580501695474L137.06015625,92.33315243323644L137.286328125,64.4690054555734L137.51250000000002,86.77570848663647L137.738671875,43.606563821434975L137.96484375,84.35159180561702L138.191015625,80.77158099909623L138.4171875,76.02784414092699L138.64335937500002,93.36735498408476L138.86953125000002,62.28835984071094L139.095703125,76.79891155660152L139.321875,91.6960409929355L139.548046875,78.11824310819308L139.77421875000002,11.961999575297028L140.00039062500002,82.71813334524632L140.2265625,45.339727317293494L140.45273437499998,80.40989840030669L140.67890624999998,58.62526760995388L140.905078125,83.66177421311536L141.13125,85.15932054817675L141.357421875,88.54255146284898L141.58359374999998,93.8221048961083L141.80976562499998,65.2732614825169L142.0359375,66.091745386521L142.262109375,70.89818893869717L142.48828125,75.88190216819446L142.714453125,58.30005585153896L142.94062499999998,87.16799347599347L143.166796875,85.67156075437862L143.39296875,72.89731556177139L143.619140625,91.21189022064209L143.8453125,86.83397537966567L144.071484375,84.77518984675407L144.29765625,88.14787073930104L144.523828125,75.10810933013757L144.75,80.06961622834206L144.976171875,92.4349674731493L145.20234375,90.22096473972002L145.42851562500002,70.13191299140453L145.6546875,54.93730223675567L145.880859375,69.4100423802932L146.10703125,94.14894311626752L146.333203125,60.11860858897367L146.55937500000002,82.37141859034698L146.78554687500002,86.3251053194205L147.01171875,85.3804094493389L147.237890625,79.00226902465026L147.4640625,82.03759098052979L147.69023437500002,65.3372209916512L147.91640625000002,63.943277339140565L148.142578125,76.60831514994302L148.36874999999998,79.67919214566548L148.59492187499998,72.41959004600842L148.82109375,83.21059225996335L149.047265625,84.64128515621024L149.2734375,21.586403787136078L149.49960937499998,81.16392459968725L149.72578124999998,95.82728312909602L149.951953125,61.48186926047006L150.178125,81.48723149299622L150.404296875,83.08480522533257L150.63046875,89.47255789240201L150.85664062499998,61.65357087055841L151.0828125,77.37777075668176L151.308984375,47.96932765841484L151.53515625,85.01205982267857L151.761328125,52.17513793706894L151.9875,95.37059904634951L152.213671875,28.85925202568373L152.43984375,88.67422892649968L152.666015625,50.15141657491526L152.8921875,81.54850221176942L153.118359375,71.66124859452248L153.34453125,77.21567406256993L153.570703125,84.96672403315704L153.796875,61.21455807487169L154.023046875,87.58937161664167L154.24921875,53.50531256695588L154.47539062500002,72.56617674231529L154.7015625,79.91011308133602L154.927734375,79.54626919329166L155.15390625,74.05773740510146L155.380078125,80.48573401073615L155.60625000000002,85.29455131789048L155.83242187500002,69.71569263935089L156.05859375,67.87535850207009L156.284765625,82.04410415391128L156.5109375,65.17186404764652L156.73710937500002,70.63761804501213L156.96328125000002,62.341534882783876L157.189453125,35.88973548511663L157.41562499999998,76.37340865035851L157.64179687499998,78.05965385337669L157.86796875,77.4648890296618L158.094140625,71.66771048307419L158.3203125,55.28595848878224L158.54648437499998,87.66119235754012L158.77265624999998,81.43388794362545L158.998828125,76.77456591526668L159.225,40.9860995064179L159.451171875,60.55309366683164L159.67734375,53.17615187664826L159.90351562499998,52.252636641263976L160.1296875,77.52950058877468L160.355859375,73.10238161683083L160.58203125,84.55669449269772L160.808203125,76.57480417688686L161.034375,67.30704199771084L161.260546875,84.04260070621966L161.48671875,73.99434935549894L161.712890625,50.07635023693244L161.9390625,46.03424846132597L162.165234375,71.37576792637506L162.39140625000002,68.56217226882775L162.617578125,71.09288813173771L162.84375,71.79086733857788L163.069921875,60.59810709456602L163.29609375,24.26498114069304L163.52226562500002,67.63188743591309L163.74843750000002,71.31883443892002L163.974609375,72.69396388530731L164.20078125,61.81616576015949L164.426953125,72.59861806035042L164.65312500000002,90.03992196420828L164.87929687500002,57.05239851276079L165.10546875,76.23898378511268L165.33164062499998,47.37122932076454L165.55781249999998,79.93403379122417L165.783984375,90.89642990628877L166.01015625,68.6744054555893L166.236328125,66.34920255839825L166.46249999999998,80.03097677230835L166.68867187499998,74.95054768025875L166.91484375,69.28030641376972L167.141015625,47.88042906920114L167.3671875,88.0749876697858L167.593359375,88.81817079087098L167.81953124999998,80.41999418536822L168.045703125,72.66205739478269L168.271875,47.17216359078884L168.498046875,60.767478908101694L168.72421875,68.60460680226484L168.950390625,42.373068422079086L169.1765625,83.28496991594632L169.402734375,61.55929470062256L169.62890625,86.73005766173202L169.855078125,83.73402721186478L170.08125,75.86244323849677L170.307421875,74.08667670190333L170.53359375,66.95070034762223L170.759765625,71.63764292001724L170.9859375,67.53471000989278L171.212109375,52.047431384523705L171.43828125000002,67.21175478398798L171.664453125,66.37085940937199L171.890625,25.231758793195098L172.116796875,68.39404594401518L172.34296875,61.793124218781784L172.56914062500002,61.17139822741349L172.79531250000002,83.82877959807713L173.021484375,79.16791169842084L173.24765625,60.57087484995523L173.473828125,80.90584468344846L173.70000000000002,90.67302586138248L173.92617187500002,53.462606956561416L174.15234375,74.72091619173685L174.37851562499998,81.77139340837796L174.60468749999998,81.3135810593764L174.830859375,88.93589878082275L175.05703125,88.3102458367745L175.283203125,64.62044223149616L175.50937499999998,75.24024835725625L175.73554687499998,80.22286262611547L175.96171875,61.77670574684937L176.187890625,73.33483377099037L176.4140625,73.5324561993281L176.640234375,84.22385594745477L176.86640624999998,61.170731524626405L177.092578125,55.99407011270523L177.31875,70.3973412911097L177.544921875,63.8368173589309L177.77109375,90.5877758214871L177.997265625,74.73986227313678L178.2234375,70.90197668969631L178.449609375,77.39552263418832L178.67578125,43.554700205723435L178.901953125,57.570404599110276L179.128125,75.82107103367645L179.35429687500002,60.085178206364304L179.58046875,29.85430959860483L179.806640625,63.86863593260446L180.0328125,82.02029334008692L180.258984375,50.36747223635514L180.48515625000002,73.91133386890093L180.71132812500002,58.62563393016656L180.9375,60.74481101334095L181.163671875,45.9451886912187L181.38984375,76.99868062138556L181.61601562500002,70.41395024955271L181.84218750000002,68.60306825737158L182.068359375,43.22372989356518L182.29453124999998,67.85938694079717L182.52070312499998,68.06915654738744L182.746875,82.93805734813213L182.973046875,54.227139219641685L183.19921875,67.88648731013139L183.42539062499998,70.59211374819277L183.65156249999998,72.6760728061199L183.877734375,55.435512378811836L184.10390625,69.55659977098304L184.330078125,69.92519116898376L184.55625,76.65932890276113L184.78242187499998,74.0016098221143L185.00859375,89.79896385471025L185.234765625,7.758885413408279L185.4609375,44.47231768568358L185.687109375,77.1853354225556L185.91328125,67.56910747786361L186.139453125,67.60908766587575L186.365625,75.52538468440373L186.591796875,82.35968169073264L186.81796875,23.935791144768416L187.044140625,70.13775946199894L187.2703125,77.99836115539073L187.496484375,61.29714863002299L187.72265625,52.606875613331795L187.948828125,41.36236164967218L188.175,77.21812840799491L188.40117187500002,56.7050756663084L188.62734375,56.1040540933609L188.853515625,35.069705709815025L189.0796875,61.75047721962132L189.305859375,41.731187492609024L189.53203125000002,71.0721544076999L189.75820312500002,78.89731095731258L189.984375,74.2271018922329L190.210546875,61.884198750058786L190.43671875,51.63996608555317L190.66289062500002,75.44441326459248L190.88906250000002,24.405955811341613L191.115234375,56.12311739722887L191.34140624999998,57.18874289592105L191.56757812499998,86.7297279735406L191.79375,66.87035899857679L192.019921875,52.33491216103236L192.24609375,62.15311441818872L192.47226562499998,29.810644229253143L192.69843749999998,53.205889751513794L192.924609375,40.224248707294464L193.15078125,29.308170119921357L193.376953125,74.18900459011395L193.603125,80.7817647010088L193.82929687499998,25.946112513542175L194.05546875,77.93965467810631L194.281640625,69.22277948757012L194.5078125,73.14983473718165L194.733984375,71.61244741578896L194.96015625,58.93309381107487L195.186328125,79.56753041843572L195.4125,46.00266433258852L195.638671875,50.67533506949742L195.86484375,63.17790986597538L196.091015625,71.2322802990675L196.31718750000002,45.51813991367817L196.543359375,54.58343691130479L196.76953125,50.281973098715156L196.995703125,64.79498648643494L197.221875,86.79030268390973L197.44804687500002,31.363109290599823L197.67421875000002,68.4604817777872L197.900390625,42.788314362367004L198.1265625,83.32921407123406L198.352734375,68.06491455932458L198.57890625000002,26.66199012597403L198.80507812500002,19.0552336871624L199.03125,47.44674989581108L199.25742187499998,57.921698356668145L199.48359374999998,72.26583812634149L199.709765625,73.29604778687158L199.9359375,49.368546321988106L200.162109375,65.20770481725533L200.38828124999998,88.92498243848482L200.61445312499998,41.02813841402531L200.840625,79.14813773334026L201.066796875,21.02093725403151L201.29296875,65.06608542303242L201.519140625,33.667981415987015L201.74531249999998,62.2403865456581L201.971484375,67.99143805106479L202.19765625,18.556789100170135L202.423828125,62.95570735136667L202.65,32.49996209144592L202.876171875,40.12170102695626L203.10234375,65.20041504502296L203.328515625,62.215447465578706L203.5546875,47.35144802927971L203.780859375,37.011693706115096L204.00703125,36.78412826359272L204.233203125,15.041712214549392L204.459375,59.141339525580406L204.685546875,43.78978253901005L204.91171875,51.496236686905235L205.137890625,62.86690400540829L205.36406250000002,46.8715026130279L205.590234375,40.066247473160445L205.81640625,60.435893177986145L206.042578125,36.07430226107439L206.26875,62.66446812947589L206.49492187500002,55.69797348479429L206.72109375000002,47.631741603215545L206.947265625,60.83791495859623L207.1734375,68.78622103730835L207.399609375,67.07167393465835L207.62578125000002,75.74675198892751L207.85195312500002,73.95063270131746L208.078125,76.0827921728293L208.30429687499998,71.26808443665504L208.53046874999998,68.99881863594055L208.756640625,67.81784622867902L208.9828125,49.75374667843184L209.208984375,77.52925149103004L209.43515624999998,11.360047549009323L209.66132812499998,89.07295382519563L209.8875,53.68253828585148L210.113671875,52.25235091149807L210.33984375,60.97321166594823L210.566015625,90.20651707053185L210.79218749999998,45.251554042100906L211.018359375,46.40886949002743L211.24453125,46.053766002257674L211.470703125,30.976070006688445L211.696875,65.69795848429202L211.923046875,43.742842266956956L212.14921875,79.19189834594725L212.375390625,65.47505263487497L212.6015625,41.149383078018815L212.827734375,63.55319759746392L213.05390625,35.02415012816587L213.28007812500002,83.71328616142273L213.50625,59.61419298251468L213.732421875,43.238089645902306L213.95859375,63.574107155203805L214.184765625,36.58914334078631L214.41093750000002,62.577935968836144L214.63710937500002,70.02747509876886L214.86328125,81.73077582319577L215.089453125,-17.567380477984756L215.315625,74.44358248511949L215.54179687500002,73.63273269434768L215.76796875000002,55.995000566045434L215.994140625,72.78299434979755L216.22031249999998,68.14345361292361L216.44648437499998,24.024323413769395L216.67265625,64.45578129589558L216.898828125,43.21685039997101L217.125,69.24985055128732L217.35117187499998,82.23209968705972L217.57734374999998,77.92497989038627L217.803515625,62.87241346140702L218.0296875,61.20899000763892L218.255859375,28.051428039868682L218.48203125,59.31448443730672L218.70820312499998,48.651972701152175L218.934375,82.29413235187529L219.160546875,89.47341508169968L219.38671875,44.63911793132624L219.612890625,66.71059942742187L219.8390625,56.68913341065246L220.065234375,55.92891639967759L220.29140625,60.88209317624569L220.517578125,41.05461603899798L220.74375,53.9609856059154L220.969921875,66.20647687713303L221.19609375,4.110599845647812L221.422265625,73.53369436164695L221.6484375,55.72813629110654L221.874609375,57.05373924473919L222.10078125,77.91839345296223L222.32695312500002,58.51612616578737L222.553125,75.09286308288574L222.779296875,60.51984644432861L223.00546875,-6.365088582038879L223.231640625,80.41607455909252L223.45781250000002,69.9662776440382L223.68398437500002,28.391622294982284L223.91015625,42.70409001906714L224.136328125,56.27967532972494L224.3625,62.46754170954226L224.58867187500002,62.26969216267267L224.81484375000002,58.25702055295308L225.041015625,38.74562647442022L225.26718749999998,77.11089182893434L225.49335937499998,65.8496956427892L225.71953125,45.89571348329386L225.945703125,63.25899118185042L226.171875,18.33620572090149L226.39804687499998,74.02904720604418L226.62421874999998,75.90453343093395L226.850390625,40.91041042407355L227.0765625,71.54994586110115L227.302734375,63.72763195633888L227.52890625,42.485059837500245L227.75507812499998,56.79640662173429L227.98125,69.66649583478768L228.207421875,31.40983709692955L228.43359375,52.62797565758228L228.659765625,53.40884580214818L228.8859375,52.9048551271359L229.112109375,38.10485183199248L229.33828125,61.522340317567185L229.564453125,87.55846151709555L229.790625,18.73649114370346L230.016796875,81.6812566568454L230.24296875000002,69.8211342493693L230.469140625,43.81280210117498L230.6953125,83.64879915118217L230.921484375,49.72278529405594L231.14765625,78.42692649861175L231.37382812500002,57.62467860182126L231.60000000000002,82.59140853087106L231.826171875,-3.923491100470244L232.05234375,72.81079805394013L232.278515625,65.67227211097875L232.50468750000002,43.037895649671555L232.73085937500002,48.774667993187904L232.95703125,72.86120371520519L233.18320312499998,52.95606669286887L233.40937499999998,81.21019816895326L233.635546875,55.17249446610609L233.86171875,48.28280251721543L234.087890625,79.4748733838399L234.31406249999998,37.060817246635764L234.54023437499998,70.99221601088841L234.76640625,66.27654660741487L234.992578125,72.18647851546605L235.21875,78.87889970342319L235.444921875,63.605310310920075L235.67109374999998,67.53205052514869L235.897265625,65.97625927627087L236.1234375,54.722909669081346L236.349609375,69.87411147852738L236.57578125,77.89505885541439L236.801953125,79.95479682087897L237.028125,36.69751551250616L237.254296875,72.73335063457489L237.48046875,57.74141020079453L237.706640625,58.509891395767525L237.9328125,59.151083643237726L238.158984375,59.83419024944304L238.38515625,38.94900013009709L238.611328125,35.99742630124092L238.8375,53.09241107602914L239.063671875,40.56384219725928L239.28984375000002,59.304754972457886L239.516015625,45.99899380405745L239.7421875,46.94187272588411L239.968359375,75.96918894847234L240.19453125,70.0369188338518L240.42070312500002,63.77998644113541L240.64687500000002,72.84628715614477L240.873046875,56.21228706339994L241.09921875,46.77102830509344L241.325390625,36.78230398893356L241.55156250000002,66.94370363156L241.77773437500002,49.47526272634666L242.00390625,63.64867529769738L242.23007812499998,38.7089211891095L242.45624999999998,58.60505406061806L242.682421875,47.22690648337206L242.90859375,61.55809317032495L243.134765625,65.513816639781L243.36093749999998,72.61869240800539L243.58710937499998,67.90559457242489L243.81328125,65.24709889292717L244.039453125,15.092381626367569L244.265625,88.22281252841154L244.491796875,73.85208523770173L244.71796874999998,64.04430112739404L244.944140625,57.60892683267592L245.1703125,12.429907709360123L245.396484375,57.202560494343416L245.62265625,82.4930735329787L245.848828125,70.44262579580148L246.075,85.45491898059844L246.301171875,61.313024948040635L246.52734375,52.32879461348058L246.753515625,70.47875229517618L246.9796875,71.4930563320716L247.20585937500002,70.40630880991615L247.43203125,48.27972542742887L247.658203125,49.3684364259243L247.884375,52.31642031669617L248.110546875,70.64448288579781L248.33671875000002,49.88214191297689L248.56289062500002,73.0052041908105L248.7890625,62.101250802477196L249.015234375,58.224168956279755L249.24140625,78.76524519423643L249.46757812500002,42.8940417021513L249.69375000000002,73.03492008646329L249.919921875,56.96451096733411L250.14609374999998,30.963292757670104L250.37226562499998,80.10306126375991L250.5984375,14.60324157277745L250.824609375,53.06366959214212L251.05078125,71.6379799346129L251.27695312499998,36.40670854846638L251.50312499999998,27.37735489010811L251.729296875,51.11719783643882L251.95546875,79.11330800751846L252.181640625,81.74758259455363L252.4078125,73.4016945362091L252.63398437499998,57.410256728529916L252.86015625,69.44819096724191L253.086328125,77.39046008884907L253.3125,42.19365210831165L253.538671875,20.475295970837266L253.76484375,60.24642503758271L253.991015625,74.15488552550474L254.2171875,49.99405273795128L254.443359375,65.32901541888714L254.66953125,48.97763137022653L254.895703125,86.8931873788436L255.121875,68.41233264903227L255.348046875,68.21621945997077L255.57421875,58.94396619498728L255.800390625,80.364269554615L256.0265625,86.06531102458636L256.252734375,31.614522178967803L256.47890624999997,67.64455478886762L256.705078125,56.170328746239335L256.93125,69.87457304199536L257.157421875,58.3790711214145L257.38359375,62.786972935001046L257.609765625,38.9658142278592L257.8359375,53.01769640545051L258.062109375,60.05066351592539L258.28828125,77.01106957097848L258.514453125,41.39862002432346L258.740625,59.543661688764885L258.966796875,66.59361873070398L259.19296875,45.792638301849365L259.419140625,65.29518941044807L259.6453125,58.71715537210305L259.871484375,36.32978863020739L260.09765625,58.227524449427904L260.323828125,78.13978273669878L260.55,65.90043831864992L260.776171875,50.50980961819491L261.00234375,68.35357488691807" style="fill: none;" fill="none"></path></g></g></g></g></g></g><g transform="translate(58, 177)" clip-path="url(#clip_1)"><clipPath id="clip_1"><rect width="271" height="23"></rect></clipPath><g><g><line x1="0" y1="0" x2="0" y2="5" style="visibility: inherit;" fill="rgb(0, 0, 0)" stroke="rgb(204, 204, 204)" stroke-width="1px"></line><line x1="22.6171875" y1="0" x2="22.6171875" y2="5" style="visibility: inherit;" fill="rgb(0, 0, 0)" stroke="rgb(204, 204, 204)" stroke-width="1px"></line><line x1="45.234375" y1="0" x2="45.234375" y2="5" style="visibility: inherit;" fill="rgb(0, 0, 0)" stroke="rgb(204, 204, 204)" stroke-width="1px"></line><line x1="67.8515625" y1="0" x2="67.8515625" y2="5" style="visibility: inherit;" fill="rgb(0, 0, 0)" stroke="rgb(204, 204, 204)" stroke-width="1px"></line><line x1="90.46875" y1="0" x2="90.46875" y2="5" style="visibility: inherit;" fill="rgb(0, 0, 0)" stroke="rgb(204, 204, 204)" stroke-width="1px"></line><line x1="113.0859375" y1="0" x2="113.0859375" y2="5" style="visibility: inherit;" fill="rgb(0, 0, 0)" stroke="rgb(204, 204, 204)" stroke-width="1px"></line><line x1="135.703125" y1="0" x2="135.703125" y2="5" style="visibility: inherit;" fill="rgb(0, 0, 0)" stroke="rgb(204, 204, 204)" stroke-width="1px"></line><line x1="158.3203125" y1="0" x2="158.3203125" y2="5" style="visibility: inherit;" fill="rgb(0, 0, 0)" stroke="rgb(204, 204, 204)" stroke-width="1px"></line><line x1="180.9375" y1="0" x2="180.9375" y2="5" style="visibility: inherit;" fill="rgb(0, 0, 0)" stroke="rgb(204, 204, 204)" stroke-width="1px"></line><line x1="203.5546875" y1="0" x2="203.5546875" y2="5" style="visibility: inherit;" fill="rgb(0, 0, 0)" stroke="rgb(204, 204, 204)" stroke-width="1px"></line><line x1="226.171875" y1="0" x2="226.171875" y2="5" style="visibility: inherit;" fill="rgb(0, 0, 0)" stroke="rgb(204, 204, 204)" stroke-width="1px"></line><line x1="248.7890625" y1="0" x2="248.7890625" y2="5" style="visibility: inherit;" fill="rgb(0, 0, 0)" stroke="rgb(204, 204, 204)" stroke-width="1px"></line><line x1="271.40625" y1="0" x2="271.40625" y2="5" style="visibility: inherit;" fill="rgb(0, 0, 0)" stroke="rgb(204, 204, 204)" stroke-width="1px"></line></g><g transform="translate(0, 8)"><text x="0" y="0" dx="0em" dy="0.95em" style="text-anchor: middle; visibility: hidden; font-family: &quot;Helvetica Neue&quot;, sans-serif; font-size: 12px; font-weight: 200;" fill="rgb(50, 49, 63)" stroke="none" stroke-width="1px">-100</text><text x="22.6171875" y="0" dx="0em" dy="0.95em" style="text-anchor: middle; visibility: inherit; font-family: &quot;Helvetica Neue&quot;, sans-serif; font-size: 12px; font-weight: 200;" fill="rgb(50, 49, 63)" stroke="none" stroke-width="1px">0</text><text x="45.234375" y="0" dx="0em" dy="0.95em" style="text-anchor: middle; visibility: hidden; font-family: &quot;Helvetica Neue&quot;, sans-serif; font-size: 12px; font-weight: 200;" fill="rgb(50, 49, 63)" stroke="none" stroke-width="1px">100</text><text x="67.8515625" y="0" dx="0em" dy="0.95em" style="text-anchor: middle; visibility: inherit; font-family: &quot;Helvetica Neue&quot;, sans-serif; font-size: 12px; font-weight: 200;" fill="rgb(50, 49, 63)" stroke="none" stroke-width="1px">200</text><text x="90.46875" y="0" dx="0em" dy="0.95em" style="text-anchor: middle; visibility: hidden; font-family: &quot;Helvetica Neue&quot;, sans-serif; font-size: 12px; font-weight: 200;" fill="rgb(50, 49, 63)" stroke="none" stroke-width="1px">300</text><text x="113.0859375" y="0" dx="0em" dy="0.95em" style="text-anchor: middle; visibility: inherit; font-family: &quot;Helvetica Neue&quot;, sans-serif; font-size: 12px; font-weight: 200;" fill="rgb(50, 49, 63)" stroke="none" stroke-width="1px">400</text><text x="135.703125" y="0" dx="0em" dy="0.95em" style="text-anchor: middle; visibility: hidden; font-family: &quot;Helvetica Neue&quot;, sans-serif; font-size: 12px; font-weight: 200;" fill="rgb(50, 49, 63)" stroke="none" stroke-width="1px">500</text><text x="158.3203125" y="0" dx="0em" dy="0.95em" style="text-anchor: middle; visibility: inherit; font-family: &quot;Helvetica Neue&quot;, sans-serif; font-size: 12px; font-weight: 200;" fill="rgb(50, 49, 63)" stroke="none" stroke-width="1px">600</text><text x="180.9375" y="0" dx="0em" dy="0.95em" style="text-anchor: middle; visibility: hidden; font-family: &quot;Helvetica Neue&quot;, sans-serif; font-size: 12px; font-weight: 200;" fill="rgb(50, 49, 63)" stroke="none" stroke-width="1px">700</text><text x="203.5546875" y="0" dx="0em" dy="0.95em" style="text-anchor: middle; visibility: inherit; font-family: &quot;Helvetica Neue&quot;, sans-serif; font-size: 12px; font-weight: 200;" fill="rgb(50, 49, 63)" stroke="none" stroke-width="1px">800</text><text x="226.171875" y="0" dx="0em" dy="0.95em" style="text-anchor: middle; visibility: hidden; font-family: &quot;Helvetica Neue&quot;, sans-serif; font-size: 12px; font-weight: 200;" fill="rgb(50, 49, 63)" stroke="none" stroke-width="1px">900</text><text x="248.7890625" y="0" dx="0em" dy="0.95em" style="text-anchor: middle; visibility: inherit; font-family: &quot;Helvetica Neue&quot;, sans-serif; font-size: 12px; font-weight: 200;" fill="rgb(50, 49, 63)" stroke="none" stroke-width="1px">1k</text><text x="271.40625" y="0" dx="0em" dy="0.95em" style="text-anchor: middle; visibility: hidden; font-family: &quot;Helvetica Neue&quot;, sans-serif; font-size: 12px; font-weight: 200;" fill="rgb(50, 49, 63)" stroke="none" stroke-width="1px">1.1k</text></g><line x1="0" y1="0" x2="271.40625" y2="0" fill="rgb(0, 0, 0)" stroke="rgb(204, 204, 204)" stroke-width="1px"></line></g></g></g></g></svg>