<svg viewBox="0 0 330 200" xmlns="http://www.w3.org/2000/svg"><g><g><g><g><g><line x1="48.875" y1="177" x2="43.875" y2="177" style="visibility: inherit;" fill="rgb(0, 0, 0)" stroke="rgb(204, 204, 204)" stroke-width="1px"></line><line x1="48.875" y1="164.3571428571429" x2="43.875" y2="164.3571428571429" style="visibility: inherit;" fill="rgb(0, 0, 0)" stroke="rgb(204, 204, 204)" stroke-width="1px"></line><line x1="48.875" y1="151.71428571428567" x2="43.875" y2="151.71428571428567" style="visibility: inherit;" fill="rgb(0, 0, 0)" stroke="rgb(204, 204, 204)" stroke-width="1px"></line><line x1="48.875" y1="139.07142857142858" x2="43.875" y2="139.07142857142858" style="visibility: inherit;" fill="rgb(0, 0, 0)" stroke="rgb(204, 204, 204)" stroke-width="1px"></line><line x1="48.875" y1="126.42857142857147" x2="43.875" y2="126.42857142857147" style="visibility: inherit;" fill="rgb(0, 0, 0)" stroke="rgb(204, 204, 204)" stroke-width="1px"></line><line x1="48.875" y1="113.78571428571426" x2="43.875" y2="113.78571428571426" style="visibility: inherit;" fill="rgb(0, 0, 0)" stroke="rgb(204, 204, 204)" stroke-width="1px"></line><line x1="48.875" y1="101.14285714285715" x2="43.875" y2="101.14285714285715" style="visibility: inherit;" fill="rgb(0, 0, 0)" stroke="rgb(204, 204, 204)" stroke-width="1px"></line><line x1="48.875" y1="88.49999999999994" x2="43.875" y2="88.49999999999994" style="visibility: inherit;" fill="rgb(0, 0, 0)" stroke="rgb(204, 204, 204)" stroke-width="1px"></line><line x1="48.875" y1="75.85714285714285" x2="43.875" y2="75.85714285714285" style="visibility: inherit;" fill="rgb(0, 0, 0)" stroke="rgb(204, 204, 204)" stroke-width="1px"></line><line x1="48.875" y1="63.21428571428575" x2="43.875" y2="63.21428571428575" style="visibility: inherit;" fill="rgb(0, 0, 0)" stroke="rgb(204, 204, 204)" stroke-width="1px"></line><line x1="48.875" y1="50.57142857142853" x2="43.875" y2="50.57142857142853" style="visibility: inherit;" fill="rgb(0, 0, 0)" stroke="rgb(204, 204, 204)" stroke-width="1px"></line><line x1="48.875" y1="37.928571428571416" x2="43.875" y2="37.928571428571416" style="visibility: inherit;" fill="rgb(0, 0, 0)" stroke="rgb(204, 204, 204)" stroke-width="1px"></line><line x1="48.875" y1="25.285714285714192" x2="43.875" y2="25.285714285714192" style="visibility: inherit;" fill="rgb(0, 0, 0)" stroke="rgb(204, 204, 204)" stroke-width="1px"></line><line x1="48.875" y1="12.64285714285711" x2="43.875" y2="12.64285714285711" style="visibility: inherit;" fill="rgb(0, 0, 0)" stroke="rgb(204, 204, 204)" stroke-width="1px"></line><line x1="48.875" y1="0" x2="43.875" y2="0" style="visibility: inherit;" fill="rgb(0, 0, 0)" stroke="rgb(204, 204, 204)" stroke-width="1px"></line></g><g transform="translate(38.875, 0)"><text x="0" y="177" dx="0em" dy="0.3em" style="text-anchor: end; visibility: hidden; font-family: &quot;Helvetica Neue&quot;, sans-serif; font-size: 12px; font-weight: 200;" fill="rgb(50, 49, 63)" stroke="none" stroke-width="1px">3.35</text><text x="0" y="164.3571428571429" dx="0em" dy="0.3em" style="text-anchor: end; visibility: inherit; font-family: &quot;Helvetica Neue&quot;, sans-serif; font-size: 12px; font-weight: 200;" fill="rgb(50, 49, 63)" stroke="none" stroke-width="1px">3.4</text><text x="0" y="151.71428571428567" dx="0em" dy="0.3em" style="text-anchor: end; visibility: hidden; font-family: &quot;Helvetica Neue&quot;, sans-serif; font-size: 12px; font-weight: 200;" fill="rgb(50, 49, 63)" stroke="none" stroke-width="1px">3.45</text><text x="0" y="139.07142857142858" dx="0em" dy="0.3em" style="text-anchor: end; visibility: inherit; font-family: &quot;Helvetica Neue&quot;, sans-serif; font-size: 12px; font-weight: 200;" fill="rgb(50, 49, 63)" stroke="none" stroke-width="1px">3.5</text><text x="0" y="126.42857142857147" dx="0em" dy="0.3em" style="text-anchor: end; visibility: hidden; font-family: &quot;Helvetica Neue&quot;, sans-serif; font-size: 12px; font-weight: 200;" fill="rgb(50, 49, 63)" stroke="none" stroke-width="1px">3.55</text><text x="0" y="113.78571428571426" dx="0em" dy="0.3em" style="text-anchor: end; visibility: inherit; font-family: &quot;Helvetica Neue&quot;, sans-serif; font-size: 12px; font-weight: 200;" fill="rgb(50, 49, 63)" stroke="none" stroke-width="1px">3.6</text><text x="0" y="101.14285714285715" dx="0em" dy="0.3em" style="text-anchor: end; visibility: hidden; font-family: &quot;Helvetica Neue&quot;, sans-serif; font-size: 12px; font-weight: 200;" fill="rgb(50, 49, 63)" stroke="none" stroke-width="1px">3.65</text><text x="0" y="88.49999999999994" dx="0em" dy="0.3em" style="text-anchor: end; visibility: inherit; font-family: &quot;Helvetica Neue&quot;, sans-serif; font-size: 12px; font-weight: 200;" fill="rgb(50, 49, 63)" stroke="none" stroke-width="1px">3.7</text><text x="0" y="75.85714285714285" dx="0em" dy="0.3em" style="text-anchor: end; visibility: hidden; font-family: &quot;Helvetica Neue&quot;, sans-serif; font-size: 12px; font-weight: 200;" fill="rgb(50, 49, 63)" stroke="none" stroke-width="1px">3.75</text><text x="0" y="63.21428571428575" dx="0em" dy="0.3em" style="text-anchor: end; visibility: inherit; font-family: &quot;Helvetica Neue&quot;, sans-serif; font-size: 12px; font-weight: 200;" fill="rgb(50, 49, 63)" stroke="none" stroke-width="1px">3.8</text><text x="0" y="50.57142857142853" dx="0em" dy="0.3em" style="text-anchor: end; visibility: hidden; font-family: &quot;Helvetica Neue&quot;, sans-serif; font-size: 12px; font-weight: 200;" fill="rgb(50, 49, 63)" stroke="none" stroke-width="1px">3.85</text><text x="0" y="37.928571428571416" dx="0em" dy="0.3em" style="text-anchor: end; visibility: inherit; font-family: &quot;Helvetica Neue&quot;, sans-serif; font-size: 12px; font-weight: 200;" fill="rgb(50, 49, 63)" stroke="none" stroke-width="1px">3.9</text><text x="0" y="25.285714285714192" dx="0em" dy="0.3em" style="text-anchor: end; visibility: hidden; font-family: &quot;Helvetica Neue&quot;, sans-serif; font-size: 12px; font-weight: 200;" fill="rgb(50, 49, 63)" stroke="none" stroke-width="1px">3.95</text><text x="0" y="12.64285714285711" dx="0em" dy="0.3em" style="text-anchor: end; visibility: inherit; font-family: &quot;Helvetica Neue&quot;, sans-serif; font-size: 12px; font-weight: 200;" fill="rgb(50, 49, 63)" stroke="none" stroke-width="1px">4</text><text x="0" y="0" dx="0em" dy="0.3em" style="text-anchor: end; visibility: hidden; font-family: &quot;Helvetica Neue&quot;, sans-serif; font-size: 12px; font-weight: 200;" fill="rgb(50, 49, 63)" stroke="none" stroke-width="1px">4.05</text></g><line x1="48.875" y1="0" x2="48.875" y2="177" fill="rgb(0, 0, 0)" stroke="rgb(204, 204, 204)" stroke-width="1px"></line></g></g><g transform="translate(48, 0)" clip-path="url(#clip_0)"><clipPath id="clip_0"><rect width="281" height="177"></rect></clipPath><g><g><g><line x1="0" y1="0" x2="0" y2="177" fill="rgb(0, 0, 0)" stroke="rgb(60, 60, 60)" stroke-width="1px" opacity="0.25"></line><line x1="23.427083333333332" y1="0" x2="23.427083333333332" y2="177" fill="rgb(0, 0, 0)" stroke="rgb(60, 60, 60)" stroke-width="1px" opacity="0.25"></line><line x1="46.854166666666664" y1="0" x2="46.854166666666664" y2="177" fill="rgb(0, 0, 0)" stroke="rgb(60, 60, 60)" stroke-width="1px" opacity="0.25"></line><line x1="70.28125" y1="0" x2="70.28125" y2="177" fill="rgb(0, 0, 0)" stroke="rgb(60, 60, 60)" stroke-width="1px" opacity="0.25"></line><line x1="93.70833333333333" y1="0" x2="93.70833333333333" y2="177" fill="rgb(0, 0, 0)" stroke="rgb(60, 60, 60)" stroke-width="1px" opacity="0.25"></line><line x1="117.13541666666667" y1="0" x2="117.13541666666667" y2="177" fill="rgb(0, 0, 0)" stroke="rgb(60, 60, 60)" stroke-width="1px" opacity="0.25"></line><line x1="140.5625" y1="0" x2="140.5625" y2="177" fill="rgb(0, 0, 0)" stroke="rgb(60, 60, 60)" stroke-width="1px" opacity="0.25"></line><line x1="163.98958333333334" y1="0" x2="163.98958333333334" y2="177" fill="rgb(0, 0, 0)" stroke="rgb(60, 60, 60)" stroke-width="1px" opacity="0.25"></line><line x1="187.41666666666666" y1="0" x2="187.41666666666666" y2="177" fill="rgb(0, 0, 0)" stroke="rgb(60, 60, 60)" stroke-width="1px" opacity="0.25"></line><line x1="210.84375" y1="0" x2="210.84375" y2="177" fill="rgb(0, 0, 0)" stroke="rgb(60, 60, 60)" stroke-width="1px" opacity="0.25"></line><line x1="234.27083333333334" y1="0" x2="234.27083333333334" y2="177" fill="rgb(0, 0, 0)" stroke="rgb(60, 60, 60)" stroke-width="1px" opacity="0.25"></line><line x1="257.69791666666663" y1="0" x2="257.69791666666663" y2="177" fill="rgb(0, 0, 0)" stroke="rgb(60, 60, 60)" stroke-width="1px" opacity="0.25"></line><line x1="281.125" y1="0" x2="281.125" y2="177" fill="rgb(0, 0, 0)" stroke="rgb(60, 60, 60)" stroke-width="1px" opacity="0.25"></line></g><g><line x1="0" y1="177" x2="281.125" y2="177" fill="rgb(0, 0, 0)" stroke="rgb(60, 60, 60)" stroke-width="1px" opacity="0.25"></line><line x1="0" y1="164.3571428571429" x2="281.125" y2="164.3571428571429" fill="rgb(0, 0, 0)" stroke="rgb(60, 60, 60)" stroke-width="1px" opacity="0.25"></line><line x1="0" y1="151.71428571428567" x2="281.125" y2="151.71428571428567" fill="rgb(0, 0, 0)" stroke="rgb(60, 60, 60)" stroke-width="1px" opacity="0.25"></line><line x1="0" y1="139.07142857142858" x2="281.125" y2="139.07142857142858" fill="rgb(0, 0, 0)" stroke="rgb(60, 60, 60)" stroke-width="1px" opacity="0.25"></line><line x1="0" y1="126.42857142857147" x2="281.125" y2="126.42857142857147" fill="rgb(0, 0, 0)" stroke="rgb(60, 60, 60)" stroke-width="1px" opacity="0.25"></line><line x1="0" y1="113.78571428571426" x2="281.125" y2="113.78571428571426" fill="rgb(0, 0, 0)" stroke="rgb(60, 60, 60)" stroke-width="1px" opacity="0.25"></line><line x1="0" y1="101.14285714285715" x2="281.125" y2="101.14285714285715" fill="rgb(0, 0, 0)" stroke="rgb(60, 60, 60)" stroke-width="1px" opacity="0.25"></line><line x1="0" y1="88.49999999999994" x2="281.125" y2="88.49999999999994" fill="rgb(0, 0, 0)" stroke="rgb(60, 60, 60)" stroke-width="1px" opacity="0.25"></line><line x1="0" y1="75.85714285714285" x2="281.125" y2="75.85714285714285" fill="rgb(0, 0, 0)" stroke="rgb(60, 60, 60)" stroke-width="1px" opacity="0.25"></line><line x1="0" y1="63.21428571428575" x2="281.125" y2="63.21428571428575" fill="rgb(0, 0, 0)" stroke="rgb(60, 60, 60)" stroke-width="1px" opacity="0.25"></line><line x1="0" y1="50.57142857142853" x2="281.125" y2="50.57142857142853" fill="rgb(0, 0, 0)" stroke="rgb(60, 60, 60)" stroke-width="1px" opacity="0.25"></line><line x1="0" y1="37.928571428571416" x2="281.125" y2="37.928571428571416" fill="rgb(0, 0, 0)" stroke="rgb(60, 60, 60)" stroke-width="1px" opacity="0.25"></line><line x1="0" y1="25.285714285714192" x2="281.125" y2="25.285714285714192" fill="rgb(0, 0, 0)" stroke="rgb(60, 60, 60)" stroke-width="1px" opacity="0.25"></line><line x1="0" y1="12.64285714285711" x2="281.125" y2="12.64285714285711" fill="rgb(0, 0, 0)" stroke="rgb(60, 60, 60)" stroke-width="1px" opacity="0.25"></line><line x1="0" y1="0" x2="281.125" y2="0" fill="rgb(0, 0, 0)" stroke="rgb(60, 60, 60)" stroke-width="1px" opacity="0.25"></line></g></g></g><g><g><line x1="0" y1="1024.071428571429" x2="281.125" y2="1024.071428571429" fill="rgb(0, 0, 0)" stroke="rgb(153, 153, 153)" stroke-width="1.5px"></line></g></g><g><g><line x1="23.427083333333332" y1="0" x2="23.427083333333332" y2="177" fill="rgb(0, 0, 0)" stroke="rgb(153, 153, 153)" stroke-width="1.5px"></line></g></g><g><g><g><g><g><path stroke="rgb(0, 119, 187)" stroke-width="2px" d="M33.26645833333333,189.6778952734811L33.500729166666666,163.46470744269237L33.735,131.00325393676758L33.96927083333333,109.13866465432302L34.203541666666666,123.84798778806413L34.4378125,83.77152831213814L34.67208333333333,58.506154469081324L34.90635416666667,47.88927534648349L35.140625,42.414356436048195L35.37489583333333,42.53209468296592L35.60916666666667,50.111773150307755L35.8434375,46.48166125161305L36.077708333333334,16.17096539906089L36.31197916666667,59.79235288075037L36.54625,25.84563711711334L36.780520833333334,30.617984839848077L37.01479166666666,35.44006838117323L37.2490625,33.60430424554005L37.483333333333334,5.6358338764735265L37.71760416666666,12.1295834950038L37.951875,15.948570932660743L38.186145833333335,-19.892446517944364L38.42041666666666,13.171383108411476L38.6546875,29.155691487448536L38.888958333333335,44.058110169001964L39.12322916666667,27.325292791639015L39.3575,7.775378363473038L39.591770833333335,3.7371916089738875L39.82604166666667,23.625972747802706L40.060312499999995,23.40182999202179L40.294583333333335,16.2536172866821L40.52885416666667,16.614669186728293L40.763124999999995,17.175628934587706L40.997395833333336,38.858094692230196L41.23166666666667,17.938666820526095L41.465937499999995,22.349661214011036L41.700208333333336,24.122125216892755L41.93447916666667,39.24398435865126L42.168749999999996,24.545271532876114L42.403020833333336,38.27296032224379L42.63729166666667,38.741079875401056L42.871562499999996,24.88275166920249L43.10583333333333,11.004890850612071L43.34010416666667,37.23604386193409L43.574374999999996,24.425061566489063L43.80864583333333,41.86364528111045L44.04291666666667,25.551080499376525L44.277187500000004,50.91248968669345L44.51145833333333,38.49601793289182L44.74572916666667,37.73068918500624L44.980000000000004,16.508686678750138L45.21427083333333,5.96427113669256L45.448541666666664,11.812359401157892L45.682812500000004,28.43732540948048L45.91708333333333,36.436955043247735L46.151354166666664,16.66585186549591L46.385625000000005,32.84675237110679L46.61989583333333,32.30743524006431L46.854166666666664,-2.258476393563427L47.088437500000005,19.73838002341131L47.32270833333333,23.937288829258478L47.556979166666665,26.424260616302462L47.791250000000005,51.88912030628748L48.02552083333333,-27.34365585872112L48.259791666666665,17.82026542936049L48.4940625,41.19796902792791L48.72833333333333,39.77178689411704L48.962604166666665,45.16146162578036L49.196875,18.96720354897633L49.43114583333334,26.117586544581798L49.665416666666665,41.84188209261211L49.8996875,37.60107462746754L50.13395833333334,10.99994741167336L50.368229166666666,13.6262397766113L50.6025,47.601832457951105L50.83677083333334,45.29680333818706L51.071041666666666,40.82926082611081L51.3053125,46.97377456937514L51.53958333333333,2.480111258370499L51.773854166666666,24.263736656733897L52.008125,8.062097821916808L52.24239583333333,56.79940203257968L52.47666666666667,42.64398520333424L52.7109375,33.30046360833302L52.94520833333333,26.924813951764747L53.17947916666667,41.40179545538763L53.648020833333334,45.446312223161954L53.88229166666667,33.78510148184637L54.1165625,32.74667787551877L54.58510416666666,28.913282121930763L54.819375,24.589461054120704L55.053645833333334,25.308128561292335L55.28791666666666,40.309657164982355L55.5221875,44.22178622654502L55.756458333333335,46.81986481802801L55.99072916666666,43.70833172116957L56.225,36.36075374058311L56.459270833333335,27.88136938640045L56.69354166666667,32.745472158704445L56.9278125,49.83150427682055L57.162083333333335,56.61540964671542L57.39635416666667,50.85708699907572L57.630624999999995,53.87819133486063L57.864895833333335,37.89364181246074L58.09916666666667,38.62285934175762L58.333437499999995,66.23992354529243L58.567708333333336,40.58383716855727L58.80197916666667,56.13209806169779L59.270520833333336,34.571168558938126L59.50479166666667,52.82650484357558L59.739062499999996,51.7604100363595L59.973333333333336,64.37582506452287L60.20760416666667,36.3345293998718L60.441874999999996,42.475667136056046L60.67614583333333,43.413594245910616L60.91041666666667,41.986326966966885L61.144687499999996,57.97045448848178L61.37895833333333,55.97583716256277L61.61322916666667,61.26393025262014L61.847500000000004,55.77164902005873L62.08177083333333,55.13346311024256L62.31604166666667,46.65890162331715L62.550312500000004,52.9657651356288L62.78458333333333,61.75966072082518L63.018854166666664,59.618126801082056L63.253125000000004,68.3416085243225L63.48739583333333,56.08555739266531L63.721666666666664,81.35032837731497L63.955937500000005,60.79780013220649L64.19020833333333,48.27811901909962L64.42447916666666,38.68145717893324L64.65875,57.022218499864834L64.89302083333334,54.20277030127387L65.12729166666666,53.01242637634276L65.3615625,74.78978204727171L65.59583333333333,52.25035306385584L65.83010416666667,47.131723472050226L66.064375,38.51344054085865L66.29864583333334,65.35703740801127L66.53291666666667,57.92530039378573L66.76718749999999,106.6553703035627L67.00145833333333,72.02953454426356L67.23572916666667,76.89182874134607L67.47,60.30659110205512L67.70427083333334,54.65756668363295L67.93854166666667,77.03983048030307L68.17281249999999,30.551549843379405L68.40708333333333,61.57458318982802L68.64135416666667,52.615624972752144L68.875625,51.81533043725146L69.57843749999999,79.24767882483346L69.81270833333333,47.224985667637384L70.04697916666667,59.40604121344428L70.28125,72.505672114236L70.51552083333334,72.58561113902499L70.74979166666667,66.47992147718156L70.98406250000001,84.37239728655133L71.45260416666666,78.63089438847132L71.686875,83.84079674312045L71.92114583333334,58.36791903632026L72.15541666666667,90.03353915895734L72.38968750000001,76.99552038737704L72.85822916666666,80.14967557362147L73.0925,72.26392589296613L73.32677083333333,86.76990488597325L73.56104166666667,54.06435401099067L73.79531250000001,72.15167365755353L74.02958333333332,73.5955798285348L74.26385416666666,89.87311853681291L74.498125,81.5507787976946L74.73239583333333,71.79767520087104L74.96666666666667,56.72705902372084L75.20093750000001,65.90997913905551L75.43520833333332,81.2120326587132L75.66947916666666,81.66122245788573L76.13802083333333,78.37413699286324L76.37229166666667,76.47657987049647L76.60656250000001,94.31232670375277L76.84083333333332,91.89396020344324L77.07510416666666,67.94727884020121L77.309375,86.89831372669764L77.54364583333333,77.9226563317435L77.77791666666667,66.96775450025285L78.01218750000001,77.29110186440603L78.24645833333334,92.13890157427106L78.48072916666666,78.29238939285277L78.715,80.83114671707152L78.94927083333333,91.72371298926217L79.18354166666667,81.52051530565534L79.4178125,78.05733489990233L79.65208333333334,66.66511957986013L79.88635416666666,77.09613745553152L80.12062499999999,84.228072983878L80.35489583333333,71.44216959817068L80.58916666666667,75.91230440139769L80.8234375,70.64922993523733L81.05770833333334,99.55219112123761L81.29197916666668,92.74971771240233L81.52624999999999,67.99635151454379L81.76052083333333,78.30354227338518L81.99479166666667,83.41445527757917L82.2290625,67.73706211362565L82.46333333333334,77.87056936536516L82.69760416666668,80.18566622052873L82.93187499999999,97.23070396695817L83.16614583333333,81.49435125078473L83.40041666666667,89.18127822875975L83.6346875,88.71671554020472L83.86895833333334,81.22680268968854L84.10322916666668,72.98976741518292L84.33749999999999,96.27957425798688L84.57177083333333,87.45101431437901L84.80604166666667,77.08130713871546L85.0403125,75.2456635747637L85.27458333333334,76.88320786612373L85.50885416666667,111.68875571659632L85.97739583333333,77.91325174059186L86.21166666666666,85.04910584858484L86.4459375,106.40524435043335L86.68020833333334,78.50507783889769L86.91447916666667,111.99295806884766L87.14874999999999,90.78349501746041L87.38302083333333,85.98341580799647L87.61729166666666,101.23832580021448L87.8515625,69.49186236517768L88.08583333333334,87.45324489048548L88.32010416666667,76.59745298113141L88.55437500000001,67.85383578709192L88.78864583333333,90.61137894221713L89.02291666666666,87.22446012496947L89.2571875,101.97815363747732L89.49145833333334,83.24155548640658L89.72572916666667,98.50080605915613L89.96000000000001,91.59765529632567L90.19427083333333,95.32784169060842L90.42854166666666,87.14180823734827L90.6628125,79.8675981249128L91.13135416666667,78.9829636982509L91.59989583333332,111.64342076437813L91.83416666666666,112.06083992549351L92.0684375,95.4630628313337L92.30270833333333,98.83430732999528L92.53697916666667,117.93087223597935L92.77125000000001,86.61816542489187L93.00552083333332,82.27041087831769L93.23979166666666,97.13714034216744L93.4740625,93.07188524518693L93.70833333333333,84.89145837511334L93.94260416666667,87.62572268077305L94.17687500000001,86.53545325142996L94.41114583333332,103.85014956338064L94.64541666666666,89.74947227750505L94.8796875,110.44572196687972L95.34822916666667,88.06122759410313L95.58250000000001,98.6686418397086L95.81677083333334,101.58352252415247L96.05104166666666,93.49026897975375L96.2853125,107.47549888065882L96.75385416666667,74.62905999592371L96.988125,97.75187505994523L97.22239583333334,110.18088626861572L97.45666666666666,131.24602501732963L97.69093749999999,107.06742402485438L97.92520833333333,103.05461760929651L98.15947916666667,111.53502682277134L98.39375,94.01704665592737L98.62802083333334,92.87619740622384L98.86229166666668,92.92689779826571L99.09656249999999,96.34902354649134L99.33083333333333,102.60542781012398L99.56510416666667,97.10729885101317L99.799375,95.6745455605643L100.03364583333334,66.80064214978898L100.26791666666668,112.90261111940657L100.50218749999999,95.35340288707187L100.73645833333333,131.13274792262487L100.97072916666667,100.03544242041451L101.205,118.13855695724487L101.43927083333334,99.95881911686487L101.67354166666668,117.07173871994019L101.90781249999999,109.9005571092878L102.14208333333333,110.02106850487844L102.37635416666667,119.01680108479091L102.610625,127.90691287176949L102.84489583333334,115.15941156659807L103.07916666666667,115.79331718172347L103.31343749999999,108.31401463917322L103.54770833333333,91.14243691308157L103.78197916666666,101.23772294180733L104.01625,109.97621583938599L104.25052083333334,112.54083578927175L104.48479166666667,135.78922625950406L104.71906249999999,118.7649871281215L104.95333333333333,97.4606944492885L105.18760416666666,96.37639331817626L105.421875,123.25260482515608L105.65614583333334,99.25594649996076L105.89041666666667,94.15281036921908L106.12468750000001,116.53826931544712L106.35895833333333,124.66299206869942L106.59322916666666,116.29929624285018L106.8275,93.09473357881818L107.06177083333334,86.60128538949148L107.29604166666667,104.37077808380126L107.53031250000001,117.15842975888933L107.76458333333333,101.82020473480223L107.99885416666666,118.85469245910645L108.233125,86.65192549569265L108.46739583333333,108.59356008257184L108.70166666666667,102.46604694638933L108.93593750000001,108.15576430729456L109.17020833333332,81.19057089941842L109.40447916666666,128.24583986827307L109.63875,99.47966725485665L110.10729166666667,102.64895418712071L110.34156250000001,107.24249410629272L110.57583333333332,110.0274588039943L110.81010416666666,111.89342614582606L111.044375,107.33744430541992L111.27864583333333,104.3866935457502L111.51291666666667,110.79815299170357L111.74718750000001,138.435654095241L111.98145833333332,116.2006083215986L112.21572916666666,109.29631212779454L112.45,111.06829384395054L112.68427083333333,104.69722591127667L112.91854166666667,104.9587458883013L113.15281250000001,106.82712466376168L113.38708333333334,97.94870832988194L113.62135416666666,134.9616825239999L113.855625,84.07995067323957L114.08989583333333,125.93056215558732L114.32416666666667,116.34650005613054L114.5584375,117.98790264129639L114.79270833333334,110.64358009610856L115.02697916666666,89.0895834650312L115.26124999999999,93.74895552226474L115.49552083333333,96.67390394210814L115.9640625,118.09448800768172L116.19833333333334,108.44061490467615L116.43260416666668,99.2680639539446L116.66687499999999,106.03002527781895L116.90114583333333,104.1394613129752L117.13541666666667,113.24171897343227L117.3696875,152.78693962097168L117.60395833333334,116.67132016590664L117.83822916666668,129.03293180465698L118.07249999999999,112.77142913000924L118.30677083333333,104.44275937761579L118.54104166666667,111.69846173695154L118.7753125,112.36468056270054L119.00958333333334,110.74467945098877L119.47812499999999,112.52039888926915L119.71239583333333,132.9301702635629L119.94666666666667,110.82280990055628L120.1809375,114.98560748781478L120.41520833333334,115.7104241507394L120.64947916666667,124.84716531208583L120.88374999999999,123.97151347569057L121.35229166666666,117.7995696749006L121.5865625,106.08820111410958L121.82083333333334,132.56833464758736L122.05510416666667,115.12739978517806L122.28937499999999,112.26231520516531L122.52364583333333,101.9711604799543L122.75791666666666,119.40136446271623L122.9921875,113.71110452924455L123.22645833333334,110.97081163951329L123.46072916666667,112.32905163083757L123.69500000000001,119.49679694856917L123.92927083333333,110.34492404120309L124.16354166666666,135.62205362319946L124.63208333333334,114.96312086922782L125.10062500000001,123.31940153666905L125.33489583333333,105.7522884096418L125.56916666666666,135.26823602403914L125.8034375,122.7056313923427L126.03770833333333,121.90738657542637L126.27197916666667,128.3855221612113L126.50625000000001,149.73780236925398L126.74052083333332,125.25457702364241L126.97479166666666,104.01907048906598L127.2090625,131.114059312003L127.44333333333333,124.10956805092948L127.67760416666667,128.60942377362932L127.91187500000001,135.6363413674491L128.14614583333332,96.50082329341342L128.38041666666666,121.36601972579956L128.6146875,126.71234893798828L128.84895833333331,114.57488005501884L129.08322916666665,105.91409560612269L129.3175,106.6292062486921L129.55177083333334,132.30337837764196L129.78604166666668,124.51854719434465L130.02031250000002,120.60852813720703L130.25458333333333,111.34066527230398L130.48885416666667,136.65143435341972L130.723125,123.4361149242946L130.95739583333332,118.1428975377764L131.19166666666666,143.33267293657576L131.4259375,131.66893018995012L131.66020833333334,128.66343988691057L131.89447916666666,123.43581349509103L132.12875,122.42439794540405L132.36302083333334,122.15262937545776L132.59729166666668,154.88205344336376L132.8315625,127.67686210359847L133.06583333333333,123.1108728136335L133.30010416666667,110.19215972082955L133.53437499999998,125.32655831745693L133.76864583333332,126.46385070255825L134.00291666666666,118.01798527581352L134.2371875,151.50273064204626L134.47145833333335,142.32577882494246L134.70572916666669,116.18125656672886L135.17427083333334,117.5092933518546L135.40854166666668,113.69422449384416L135.6428125,120.662604536329L135.87708333333333,127.89666427884784L136.11135416666667,103.86992331913538L136.34562499999998,117.33349984032768L136.57989583333332,120.03575236456734L136.81416666666667,132.0612704413278L137.0484375,136.21629115513394L137.28270833333335,138.39610658373152L137.5169791666667,132.31917326790946L137.75125,130.22219058445523L137.98552083333334,129.3437053135463L138.21979166666665,151.70577335357666L138.4540625,113.97991909299577L138.68833333333333,134.910138130188L138.92260416666667,135.2185002054487L139.39114583333333,127.24961635044643L139.62541666666667,140.62125696454729L139.8596875,140.3975964954921L140.09395833333335,117.80849197932652L140.32822916666666,133.55063213620866L140.5625,132.19920444488525L141.03104166666668,117.94160311562675L141.2653125,140.86029032298498L141.49958333333333,130.996381350926L141.73385416666667,136.79310607910156L141.96812500000001,130.28211471012662L142.20239583333333,130.4444041933332L142.43666666666667,135.26184572492326L142.67093749999998,123.20901816231864L142.90520833333332,121.83088384355818L143.13947916666666,109.40283720833914L143.37375,87.09972872052873L143.84229166666668,116.8311379296439L144.0765625,133.51982607160295L144.31083333333333,133.1689624786377L144.54510416666668,131.10037442616056L144.77937500000002,128.3336763381958L145.01364583333336,127.36198915754046L145.24791666666667,123.62722103936332L145.71645833333332,126.80151169640678L145.95072916666666,135.13838032313757L146.185,104.62343604224068L146.41927083333334,153.5312888962882L147.35635416666668,128.5508862222944L147.59062500000002,140.3805958884103L147.82489583333336,132.61397102900915L148.05916666666664,124.28288984298706L148.29343749999998,138.4360158102853L148.52770833333332,129.2524928365435L148.76197916666666,129.40995945249284L148.99625,123.44045550482613L149.23052083333334,127.7796494620187L149.46479166666666,115.07272052764893L149.6990625,123.6410264968872L149.93333333333334,124.033547605787L150.16760416666668,118.53210292543685L150.40187500000002,127.33588538851058L150.63614583333336,111.25783252716064L150.87041666666664,133.94050066811698L151.10468749999998,139.8962594441005L151.33895833333332,135.45783499308996L151.57322916666666,149.88869782856534L151.8075,115.75901453835624L152.04177083333335,141.74377931867326L152.27604166666666,134.51279415403093L152.5103125,135.22627707890103L152.74458333333334,133.83620616367887L152.97885416666668,127.39436265400478L153.44739583333333,129.1061188152858L153.68166666666664,128.05292517798287L153.91593749999998,132.3592633519854L154.15020833333332,131.24735130582536L154.38447916666667,128.38425615855627L154.61875,147.89769765308927L154.85302083333332,136.250412940979L155.08729166666666,111.37870563779558L155.3215625,127.23858404159546L155.55583333333334,128.0725180762155L155.79010416666668,142.47257484708513L156.02437500000002,105.38448449543543L156.25864583333333,141.7674113682338L156.49291666666667,123.78119107655117L156.72718749999999,115.61396680559432L156.96145833333333,124.52650492531913L157.19572916666667,136.194648538317L157.43,126.88657501765661L157.66427083333332,128.22353410720825L157.89854166666666,111.46153838293893L158.1328125,122.0647326196943L158.36708333333334,111.9078344617571L158.60135416666668,128.4832455090114L158.835625,136.1979642595564L159.06989583333333,115.25267376218522L159.30416666666667,118.8756719316755L159.53843750000001,124.34209053856986L159.77270833333333,115.17116730553764L160.00697916666667,133.80660581588745L160.24124999999998,138.232731955392L160.47552083333332,147.3192550114223L160.70979166666666,134.5622285434178L160.9440625,139.3990218298776L161.17833333333334,131.14643280846732L161.41260416666668,132.18455498559135L161.88114583333333,135.50582252229964L162.11541666666668,110.38658155713762L162.34968750000002,118.60305935995919L162.58395833333336,140.4209874016898L162.81822916666667,147.50385025569372L163.05249999999998,135.10600682667325L163.28677083333332,130.56033386502946L163.52104166666666,113.39363929203579L163.7553125,122.45737430027553L163.98958333333334,143.294029712677L164.22385416666665,130.73673023496355L164.458125,129.60944529942105L164.69239583333334,122.44827113832747L164.92666666666668,144.74432618277416L165.16093750000002,124.47164481026786L165.39520833333336,118.42925528117588L165.86374999999998,149.5014215878078L166.09802083333332,143.82273653575353L166.33229166666666,114.94214139665877L166.5665625,132.19763701302665L166.80083333333334,141.13935347965787L167.03510416666666,119.6880236353193L167.269375,141.94049201692854L167.50364583333334,161.66378852299283L167.73791666666668,102.55165284020559L167.97218750000002,146.39633907590596L168.20645833333336,146.15374885286604L168.44072916666664,136.3941343852452L168.67499999999998,142.54805271966117L168.90927083333332,135.1470011983599L169.14354166666666,132.63404621396745L169.3778125,120.61087928499495L169.61208333333335,138.43577466692244L169.84635416666666,128.05196060453142L170.080625,153.99163157599315L170.31489583333334,157.88935232162476L170.54916666666668,128.1091115815299L170.78343750000002,137.11991562162126L171.01770833333333,110.11746556418282L171.25197916666664,129.87681300299508L171.48624999999998,141.59222071511405L171.72052083333332,146.05530207497733L171.95479166666667,132.06940902982439L172.1890625,138.32689843858992L172.42333333333332,147.58053384508406L172.65760416666666,130.28621414729528L172.891875,141.1253068787711L173.12614583333334,133.42131900787354L173.36041666666668,153.48770223345076L173.59468750000002,136.66614409855435L173.82895833333333,152.89949328558788L174.06322916666667,141.2633011681693L174.29749999999999,136.05876425334387L174.53177083333333,128.416328225817L174.76604166666667,142.51995951788768L175.0003125,153.64450570515226L175.23458333333332,136.13593012945995L175.46885416666666,142.3589360373361L175.703125,158.7503546987261L175.93739583333334,123.7228946685791L176.17166666666668,136.7212453569685L176.4059375,124.25811236245292L176.87447916666667,131.67966106959753L177.10875000000001,119.88039575304305L177.34302083333333,157.40640245165145L177.57729166666667,129.84329407555717L177.81156249999998,132.5803918157305L178.04583333333332,140.79686961855208L178.28010416666666,164.80245024817333L178.514375,147.83771324157715L178.74864583333334,139.935384954725L178.98291666666668,125.14744908469063L179.2171875,154.38143982206074L179.45145833333333,149.26130308423726L179.68572916666668,121.92981290817261L179.92000000000002,145.06673485892162L180.15427083333336,148.022007056645L180.62281249999998,148.71933337620328L180.85708333333332,155.7088737487793L181.09135416666666,168.71331330708097L181.325625,124.4141321182251L181.55989583333334,129.7281481197902L181.79416666666665,121.50196429661342L182.0284375,133.88027511324202L182.26270833333334,157.41146646227156L182.49697916666668,172.17655399867468L182.73125000000002,159.6430071422032L182.96552083333336,128.2979268346514L183.19979166666664,140.65537875039237L183.43406249999998,119.66029214859009L183.66833333333332,142.51543807983398L183.90260416666666,144.10155854906355L184.136875,137.00338309151786L184.37114583333334,155.29223830359325L184.60541666666666,132.2654585838318L184.8396875,130.75885513850622L185.07395833333334,127.1971676690238L185.30822916666668,133.24630921227592L185.54250000000002,141.3252147265843L185.77677083333336,122.44218226841518L186.01104166666664,140.4678294999259L186.24531249999998,130.1387549809047L186.47958333333332,118.35395826612199L187.18239583333335,134.8402065549578L187.41666666666666,152.26775796072826L187.6509375,160.2334466661726L187.88520833333334,129.21125732149397L188.11947916666668,146.64194359098164L188.35375000000002,144.10879284994945L188.58802083333333,126.04516553878784L188.82229166666664,139.10796179090227L189.05656249999998,141.87285130364555L189.29083333333332,105.05707209450857L189.52510416666667,127.54869440623693L189.759375,140.80295848846436L189.99364583333332,125.0131322315761L190.22791666666666,141.07508877345495L190.69645833333334,133.07268599101477L190.93072916666668,108.54388454982212L191.16500000000002,129.54958145959037L191.39927083333333,133.52259922027588L191.63354166666667,128.7442831993103L191.86781249999999,149.05337721960888L192.10208333333333,148.6240817478725L192.33635416666667,137.33139835085188L192.570625,165.54499094826838L192.80489583333332,143.39524963923864L193.03916666666666,150.0549661772592L193.2734375,132.78747367858887L193.50770833333334,119.59747430256435L193.74197916666668,132.45487669536047L193.97625,141.8706810133798L194.21052083333333,138.73123557227L194.44479166666667,137.12166391100203L194.67906250000001,147.82493264334545L194.91333333333333,145.7471811430795L195.14760416666667,132.75118160247803L195.38187499999998,155.64671904700145L195.61614583333332,134.06487035751343L195.85041666666666,134.6894919531686L196.0846875,131.6553055899484L196.31895833333334,142.5627624647958L196.55322916666668,140.10171358925956L196.7875,147.65311799730574L197.02177083333333,151.6628498349871L197.25604166666668,146.63006728036063L197.49031250000002,140.91093042918615L197.72458333333336,163.10130439485823L197.95885416666667,157.7718552180699L198.19312499999998,164.97058745792935L198.42739583333332,127.19596195220947L198.8959375,149.79139648165022L199.13020833333334,144.460440158844L199.36447916666665,146.9939526149205L199.59875,154.04028224945068L199.83302083333334,132.75160360336304L200.06729166666668,153.84953784942627L200.30156250000002,152.26787853240967L200.53583333333336,133.20380769457137L200.77010416666664,140.73145948137557L201.00437499999998,160.7790335246495L201.23864583333332,150.8477852685111L201.47291666666666,129.77589450563704L201.7071875,151.47144229071483L201.94145833333334,140.6761773654393L202.17572916666666,142.15945019040788L202.41,155.02475002833776L202.64427083333334,145.75929859706335L202.87854166666668,146.46783808299475L203.11281250000002,135.29777608598982L203.34708333333336,104.77445207323346L203.58135416666664,125.85900286265783L203.81562499999998,143.01942770821708L204.04989583333332,116.15304279327393L204.28416666666666,127.62031398500716L204.5184375,145.3504400253296L204.75270833333335,133.57076760700772L204.98697916666666,120.53775256020683L205.22125,106.86775732040405L205.68979166666668,120.40259170532227L205.92406250000002,113.74022259031022L206.15833333333333,122.62701865604946L206.39260416666664,131.34881237574987L206.62687499999998,109.86679703848702L206.86114583333332,128.43248483112882L207.09541666666667,135.60053157806396L207.3296875,143.27389424187797L207.56395833333332,141.50390195846558L207.79822916666666,139.18693624223982L208.0325,107.91088322230748L208.26677083333334,129.41405888966153L208.50104166666668,145.84574849264965L208.73531250000002,129.75328731536865L208.96958333333333,109.5918333189828L209.20385416666667,150.65046971184867L209.43812499999999,136.88244969504223L209.67239583333333,128.83272252764021L209.90666666666667,114.19857583727156L210.1409375,143.46023777553015L210.37520833333332,111.40221711567469L210.60947916666666,121.09919459479195L210.84375,146.44324145998274L211.07802083333334,133.55708272116524L211.31229166666668,123.07524388177055L211.5465625,155.73425408772061L211.78083333333333,118.36547286169869L212.01510416666667,124.03613989693778L212.24937500000001,125.15570824486869L212.48364583333333,144.5761889730181L212.71791666666667,123.71101835795812L212.95218749999998,132.1867252758571L213.42072916666666,145.7409717014858L213.655,142.47649342673168L213.88927083333334,127.49594429561071L214.12354166666668,142.7391588347299L214.3578125,133.75457913534981L214.59208333333333,126.31820011138916L214.82635416666668,154.53372185570854L215.06062500000002,142.19158254350936L215.29489583333336,134.5911054611206L215.52916666666667,115.1694793019976L215.76343749999998,130.52838236945016L215.99770833333332,121.05633136204311L216.23197916666666,141.83505208151684L216.46625,129.08327048165458L216.70052083333334,132.08773592540197L216.93479166666665,126.06246757507324L217.1690625,137.38312360218595L217.40333333333334,132.88037415913175L217.63760416666668,141.72412613459997L217.87187500000002,142.33970485414778L218.10614583333336,142.4889725957598L218.34041666666664,140.37010615212577L218.57468749999998,152.6089155333383L218.80895833333332,135.75028160640173L219.04322916666666,111.30979892185755L219.2775,150.83307552337646L219.51177083333334,143.47494752066478L219.74604166666666,133.78616891588484L219.9803125,149.31965977805004L220.21458333333334,150.6862795012338L220.44885416666668,124.69428042003088L220.68312500000002,129.1094948223659L220.91739583333336,126.49761077335903L221.15166666666664,144.7860439845494L221.38593749999998,161.73257466724942L221.62020833333332,125.13195562362671L221.85447916666666,135.89297819137573L222.08875,150.62502908706665L222.55729166666666,146.69041340691703L222.7915625,142.10688093730383L223.02583333333334,117.83899661472866L223.26010416666668,155.15454544339863L223.49437500000002,126.61058643886022L223.72864583333333,146.99919748306274L223.96291666666664,131.11333588191442L224.19718749999998,101.03064107894896L224.66572916666667,141.54483604431152L224.9,149.17183889661518L225.13427083333332,157.83171905790059L225.36854166666666,134.11116988318307L225.6028125,134.54751879828316L226.07135416666668,126.43611921582902L226.30562500000002,139.3033482006618L226.53989583333333,151.16519021987915L226.77416666666667,158.03421919686454L227.00843749999999,146.35022040775846L227.24270833333333,138.75064761298046L227.47697916666667,150.01825210026334L227.71125,143.0199099949428L227.94552083333332,121.42672756740025L228.17979166666666,148.5010986328125L228.4140625,137.8958546774728L228.64833333333334,145.6576566696167L228.88260416666668,114.476674420493L229.116875,137.22390869685583L229.35114583333333,141.01594836371288L229.58541666666667,142.7146224975586L229.81968750000001,153.38642202104842L230.05395833333333,128.3159523010254L230.28822916666667,139.28019843782698L230.52249999999998,137.05782120568412L230.75677083333332,145.5491421563285L230.99104166666666,141.786883694785L231.2253125,162.4998325620379L231.45958333333334,135.04463584082467L231.69385416666668,130.25233350481307L231.928125,147.9609375L232.16239583333333,134.9221350124904L232.39666666666668,139.91675662994385L232.63093750000002,134.28786768232072L232.86520833333336,127.64376517704555L233.09947916666667,137.56175054822648L233.33374999999998,145.30118649346488L233.56802083333332,132.7314078467233L233.80229166666666,155.1255479540144L234.0365625,138.93879972185408L234.27083333333334,124.77216972623552L234.50510416666665,138.18558842795238L234.739375,138.60457502092635L234.97364583333334,128.4921075275966L235.20791666666668,167.04436009270808L235.44218750000002,140.90791613715038L235.67645833333336,139.0849928855896L235.91072916666664,166.02136966160367L236.14499999999998,133.41637556893485L236.37927083333332,161.32793610436576L236.61354166666666,128.42953082493375L236.8478125,144.2340065411159L237.08208333333334,152.9008195740836L237.31635416666666,146.0428229059492L237.78489583333334,147.65341942650932L238.01916666666668,139.29894733428955L238.25343750000002,133.5203083583287L238.48770833333336,148.35930633544922L238.95624999999998,121.10944318771362L239.19052083333332,125.06443548202515L239.42479166666666,128.3321089063372L239.6590625,136.212252003806L239.89333333333335,143.48640183040075L240.12760416666666,174.80393150874548L240.361875,114.54485770634243L240.59614583333334,152.6112666811262L240.83041666666668,147.28712265832084L241.29895833333333,132.63838679449898L241.53322916666664,130.540077822549L241.76749999999998,134.2196843964713L242.00177083333332,130.16154302869523L242.23604166666667,116.63948924200875L242.4703125,149.25696250370572L242.70458333333332,129.11727169581823L242.93885416666666,160.73882286889213L243.173125,151.56036390577046L243.40739583333334,143.7353220667158L243.87593750000002,149.0981093134199L244.11020833333333,139.0088518687657L244.34447916666667,137.5205753190177L244.57874999999999,143.77746186937605L244.81302083333333,135.87356615066528L245.2815625,139.16595676967077L245.51583333333332,132.96079547064645L245.75010416666666,133.08787802287512L246.21864583333334,147.46279559816634L246.45291666666668,146.68788140160697L246.6871875,138.99287612097606L246.92145833333333,154.5139480999538L247.15572916666667,144.79617200578963L247.39000000000001,157.19895887374878L247.62427083333333,140.35262325831823L247.85854166666667,119.17294141224453L248.09281249999998,141.89889478683472L248.32708333333332,132.55675976616996L248.56135416666666,155.95459883553642L248.795625,119.06623547417777L249.02989583333334,117.0622135571071L249.26416666666668,147.76036650793895L249.4984375,141.25082199914115L249.73270833333333,130.69169671194894L249.96697916666668,154.9100260734558L250.20125000000002,144.34227991104126L250.43552083333336,134.24832017081124L250.66979166666667,119.67518275124687L250.90406249999998,134.62806068147933L251.13833333333332,146.31706319536482L251.37260416666666,146.22633300508772L251.606875,143.35612412861417L251.84114583333334,131.63884755543302L252.07541666666665,144.01691722869873L252.3096875,153.6996069635664L252.54395833333334,137.88156693322318L252.77822916666668,135.16153008597237L253.01250000000002,159.14763838904247L253.24677083333336,133.90463059289115L253.48104166666664,150.0150569507054L253.71531249999998,120.08566904067993L253.94958333333332,156.08614253997803L254.18385416666666,142.52839953558788L254.418125,126.4325020653861L254.65239583333334,135.8724207196917L254.88666666666666,156.30148356301444L255.1209375,124.34196996688843L255.35520833333334,148.9458875656128L255.58947916666668,131.55697938374112L255.82375000000002,137.9381150518145L256.05802083333333,123.16066891806466L256.29229166666664,134.4341814177377L256.7608333333333,156.2955755506243L256.9951041666667,161.39774710791454L257.4636458333334,140.1183524812971L257.69791666666663,102.773143018995L257.9321875,109.22674226760864L258.1664583333333,105.50758818217686L258.4007291666667,117.47384527751377L258.635,120.78673308236259L258.8692708333333,101.23657751083373L259.3378125,131.0690860748291L259.57208333333335,149.90340757369995L259.80635416666667,133.85700477872575L260.04062500000003,140.77281556810652L260.27489583333335,141.13428946903775L260.50916666666666,138.81075259617398L260.74343749999997,146.681732245854L260.97770833333334,144.09155109950476L261.44625,124.31056104387557L261.68052083333333,123.06330728530884L261.91479166666664,131.2547061783927L262.1490625,142.96854645865307L262.3833333333333,141.3483042035784L262.6176041666667,137.86559118543352L262.851875,146.780962739672L263.0861458333333,122.63780982153756L263.3204166666667,157.2559289932251L263.5546875,139.65710551398143L263.7889583333333,125.78804642813546L264.0232291666667,123.28618403843471L264.2575,155.2771065575736L264.4917708333333,123.03412893840245L264.7260416666667,143.5745397295271L264.9603125,131.8121693474906L265.19458333333336,143.03190687724523L265.42885416666667,135.62983049665178L265.663125,119.14557164055961L265.89739583333335,143.28215340205603L266.13166666666666,155.4835855620248L266.36593750000003,138.04325355802263L266.60020833333334,133.6422666140965L266.83447916666665,113.72135312216622L267.06874999999997,152.5935426439558L267.30302083333333,138.97020864486694L267.53729166666665,149.81991168430875L267.7715625,133.64654690878731L268.0058333333333,144.4362052508763L268.2401041666667,122.13140875952584L268.7086458333333,143.93661648886547L268.9429166666667,131.80469390324185L269.1771875,133.77399117606026L269.41145833333337,142.46407454354423L269.6457291666666,156.8260909489223L269.88,134.73669576644897L270.1142708333333,138.49762793949674L270.3485416666667,125.99133028302873" style="fill: none;" fill="none"></path></g></g></g></g></g></g><g transform="translate(48, 177)" clip-path="url(#clip_1)"><clipPath id="clip_1"><rect width="281" height="23"></rect></clipPath><g><g><line x1="0" y1="0" x2="0" y2="5" style="visibility: inherit;" fill="rgb(0, 0, 0)" stroke="rgb(204, 204, 204)" stroke-width="1px"></line><line x1="23.427083333333332" y1="0" x2="23.427083333333332" y2="5" style="visibility: inherit;" fill="rgb(0, 0, 0)" stroke="rgb(204, 204, 204)" stroke-width="1px"></line><line x1="46.854166666666664" y1="0" x2="46.854166666666664" y2="5" style="visibility: inherit;" fill="rgb(0, 0, 0)" stroke="rgb(204, 204, 204)" stroke-width="1px"></line><line x1="70.28125" y1="0" x2="70.28125" y2="5" style="visibility: inherit;" fill="rgb(0, 0, 0)" stroke="rgb(204, 204, 204)" stroke-width="1px"></line><line x1="93.70833333333333" y1="0" x2="93.70833333333333" y2="5" style="visibility: inherit;" fill="rgb(0, 0, 0)" stroke="rgb(204, 204, 204)" stroke-width="1px"></line><line x1="117.13541666666667" y1="0" x2="117.13541666666667" y2="5" style="visibility: inherit;" fill="rgb(0, 0, 0)" stroke="rgb(204, 204, 204)" stroke-width="1px"></line><line x1="140.5625" y1="0" x2="140.5625" y2="5" style="visibility: inherit;" fill="rgb(0, 0, 0)" stroke="rgb(204, 204, 204)" stroke-width="1px"></line><line x1="163.98958333333334" y1="0" x2="163.98958333333334" y2="5" style="visibility: inherit;" fill="rgb(0, 0, 0)" stroke="rgb(204, 204, 204)" stroke-width="1px"></line><line x1="187.41666666666666" y1="0" x2="187.41666666666666" y2="5" style="visibility: inherit;" fill="rgb(0, 0, 0)" stroke="rgb(204, 204, 204)" stroke-width="1px"></line><line x1="210.84375" y1="0" x2="210.84375" y2="5" style="visibility: inherit;" fill="rgb(0, 0, 0)" stroke="rgb(204, 204, 204)" stroke-width="1px"></line><line x1="234.27083333333334" y1="0" x2="234.27083333333334" y2="5" style="visibility: inherit;" fill="rgb(0, 0, 0)" stroke="rgb(204, 204, 204)" stroke-width="1px"></line><line x1="257.69791666666663" y1="0" x2="257.69791666666663" y2="5" style="visibility: inherit;" fill="rgb(0, 0, 0)" stroke="rgb(204, 204, 204)" stroke-width="1px"></line><line x1="281.125" y1="0" x2="281.125" y2="5" style="visibility: inherit;" fill="rgb(0, 0, 0)" stroke="rgb(204, 204, 204)" stroke-width="1px"></line></g><g transform="translate(0, 8)"><text x="0" y="0" dx="0em" dy="0.95em" style="text-anchor: middle; visibility: hidden; font-family: &quot;Helvetica Neue&quot;, sans-serif; font-size: 12px; font-weight: 200;" fill="rgb(50, 49, 63)" stroke="none" stroke-width="1px">-100</text><text x="23.427083333333332" y="0" dx="0em" dy="0.95em" style="text-anchor: middle; visibility: inherit; font-family: &quot;Helvetica Neue&quot;, sans-serif; font-size: 12px; font-weight: 200;" fill="rgb(50, 49, 63)" stroke="none" stroke-width="1px">0</text><text x="46.854166666666664" y="0" dx="0em" dy="0.95em" style="text-anchor: middle; visibility: hidden; font-family: &quot;Helvetica Neue&quot;, sans-serif; font-size: 12px; font-weight: 200;" fill="rgb(50, 49, 63)" stroke="none" stroke-width="1px">100</text><text x="70.28125" y="0" dx="0em" dy="0.95em" style="text-anchor: middle; visibility: inherit; font-family: &quot;Helvetica Neue&quot;, sans-serif; font-size: 12px; font-weight: 200;" fill="rgb(50, 49, 63)" stroke="none" stroke-width="1px">200</text><text x="93.70833333333333" y="0" dx="0em" dy="0.95em" style="text-anchor: middle; visibility: hidden; font-family: &quot;Helvetica Neue&quot;, sans-serif; font-size: 12px; font-weight: 200;" fill="rgb(50, 49, 63)" stroke="none" stroke-width="1px">300</text><text x="117.13541666666667" y="0" dx="0em" dy="0.95em" style="text-anchor: middle; visibility: inherit; font-family: &quot;Helvetica Neue&quot;, sans-serif; font-size: 12px; font-weight: 200;" fill="rgb(50, 49, 63)" stroke="none" stroke-width="1px">400</text><text x="140.5625" y="0" dx="0em" dy="0.95em" style="text-anchor: middle; visibility: hidden; font-family: &quot;Helvetica Neue&quot;, sans-serif; font-size: 12px; font-weight: 200;" fill="rgb(50, 49, 63)" stroke="none" stroke-width="1px">500</text><text x="163.98958333333334" y="0" dx="0em" dy="0.95em" style="text-anchor: middle; visibility: inherit; font-family: &quot;Helvetica Neue&quot;, sans-serif; font-size: 12px; font-weight: 200;" fill="rgb(50, 49, 63)" stroke="none" stroke-width="1px">600</text><text x="187.41666666666666" y="0" dx="0em" dy="0.95em" style="text-anchor: middle; visibility: hidden; font-family: &quot;Helvetica Neue&quot;, sans-serif; font-size: 12px; font-weight: 200;" fill="rgb(50, 49, 63)" stroke="none" stroke-width="1px">700</text><text x="210.84375" y="0" dx="0em" dy="0.95em" style="text-anchor: middle; visibility: inherit; font-family: &quot;Helvetica Neue&quot;, sans-serif; font-size: 12px; font-weight: 200;" fill="rgb(50, 49, 63)" stroke="none" stroke-width="1px">800</text><text x="234.27083333333334" y="0" dx="0em" dy="0.95em" style="text-anchor: middle; visibility: hidden; font-family: &quot;Helvetica Neue&quot;, sans-serif; font-size: 12px; font-weight: 200;" fill="rgb(50, 49, 63)" stroke="none" stroke-width="1px">900</text><text x="257.69791666666663" y="0" dx="0em" dy="0.95em" style="text-anchor: middle; visibility: inherit; font-family: &quot;Helvetica Neue&quot;, sans-serif; font-size: 12px; font-weight: 200;" fill="rgb(50, 49, 63)" stroke="none" stroke-width="1px">1k</text><text x="281.125" y="0" dx="0em" dy="0.95em" style="text-anchor: middle; visibility: hidden; font-family: &quot;Helvetica Neue&quot;, sans-serif; font-size: 12px; font-weight: 200;" fill="rgb(50, 49, 63)" stroke="none" stroke-width="1px">1.1k</text></g><line x1="0" y1="0" x2="281.125" y2="0" fill="rgb(0, 0, 0)" stroke="rgb(204, 204, 204)" stroke-width="1px"></line></g></g></g></g></svg>