<svg viewBox="0 0 330 200" xmlns="http://www.w3.org/2000/svg"><g><g><g><g><g><line x1="58.59375" y1="177" x2="53.59375" y2="177" style="visibility: inherit;" fill="rgb(0, 0, 0)" stroke="rgb(204, 204, 204)" stroke-width="1px"></line><line x1="58.59375" y1="151.71428571428572" x2="53.59375" y2="151.71428571428572" style="visibility: inherit;" fill="rgb(0, 0, 0)" stroke="rgb(204, 204, 204)" stroke-width="1px"></line><line x1="58.59375" y1="126.42857142857142" x2="53.59375" y2="126.42857142857142" style="visibility: inherit;" fill="rgb(0, 0, 0)" stroke="rgb(204, 204, 204)" stroke-width="1px"></line><line x1="58.59375" y1="101.14285714285712" x2="53.59375" y2="101.14285714285712" style="visibility: inherit;" fill="rgb(0, 0, 0)" stroke="rgb(204, 204, 204)" stroke-width="1px"></line><line x1="58.59375" y1="75.85714285714285" x2="53.59375" y2="75.85714285714285" style="visibility: inherit;" fill="rgb(0, 0, 0)" stroke="rgb(204, 204, 204)" stroke-width="1px"></line><line x1="58.59375" y1="50.57142857142857" x2="53.59375" y2="50.57142857142857" style="visibility: inherit;" fill="rgb(0, 0, 0)" stroke="rgb(204, 204, 204)" stroke-width="1px"></line><line x1="58.59375" y1="25.285714285714278" x2="53.59375" y2="25.285714285714278" style="visibility: inherit;" fill="rgb(0, 0, 0)" stroke="rgb(204, 204, 204)" stroke-width="1px"></line><line x1="58.59375" y1="0" x2="53.59375" y2="0" style="visibility: inherit;" fill="rgb(0, 0, 0)" stroke="rgb(204, 204, 204)" stroke-width="1px"></line></g><g transform="translate(48.59375, 0)"><text x="0" y="177" dx="0em" dy="0.3em" style="text-anchor: end; visibility: hidden; font-family: &quot;Helvetica Neue&quot;, sans-serif; font-size: 12px; font-weight: 200;" fill="rgb(50, 49, 63)" stroke="none" stroke-width="1px">-0.05</text><text x="0" y="151.71428571428572" dx="0em" dy="0.3em" style="text-anchor: end; visibility: inherit; font-family: &quot;Helvetica Neue&quot;, sans-serif; font-size: 12px; font-weight: 200;" fill="rgb(50, 49, 63)" stroke="none" stroke-width="1px">0</text><text x="0" y="126.42857142857142" dx="0em" dy="0.3em" style="text-anchor: end; visibility: inherit; font-family: &quot;Helvetica Neue&quot;, sans-serif; font-size: 12px; font-weight: 200;" fill="rgb(50, 49, 63)" stroke="none" stroke-width="1px">0.05</text><text x="0" y="101.14285714285712" dx="0em" dy="0.3em" style="text-anchor: end; visibility: inherit; font-family: &quot;Helvetica Neue&quot;, sans-serif; font-size: 12px; font-weight: 200;" fill="rgb(50, 49, 63)" stroke="none" stroke-width="1px">0.1</text><text x="0" y="75.85714285714285" dx="0em" dy="0.3em" style="text-anchor: end; visibility: inherit; font-family: &quot;Helvetica Neue&quot;, sans-serif; font-size: 12px; font-weight: 200;" fill="rgb(50, 49, 63)" stroke="none" stroke-width="1px">0.15</text><text x="0" y="50.57142857142857" dx="0em" dy="0.3em" style="text-anchor: end; visibility: inherit; font-family: &quot;Helvetica Neue&quot;, sans-serif; font-size: 12px; font-weight: 200;" fill="rgb(50, 49, 63)" stroke="none" stroke-width="1px">0.2</text><text x="0" y="25.285714285714278" dx="0em" dy="0.3em" style="text-anchor: end; visibility: inherit; font-family: &quot;Helvetica Neue&quot;, sans-serif; font-size: 12px; font-weight: 200;" fill="rgb(50, 49, 63)" stroke="none" stroke-width="1px">0.25</text><text x="0" y="0" dx="0em" dy="0.3em" style="text-anchor: end; visibility: hidden; font-family: &quot;Helvetica Neue&quot;, sans-serif; font-size: 12px; font-weight: 200;" fill="rgb(50, 49, 63)" stroke="none" stroke-width="1px">0.3</text></g><line x1="58.59375" y1="0" x2="58.59375" y2="177" fill="rgb(0, 0, 0)" stroke="rgb(204, 204, 204)" stroke-width="1px"></line></g></g><g transform="translate(58, 0)" clip-path="url(#clip_0)"><clipPath id="clip_0"><rect width="271" height="177"></rect></clipPath><g><g><g><line x1="0" y1="0" x2="0" y2="177" fill="rgb(0, 0, 0)" stroke="rgb(60, 60, 60)" stroke-width="1px" opacity="0.25"></line><line x1="22.6171875" y1="0" x2="22.6171875" y2="177" fill="rgb(0, 0, 0)" stroke="rgb(60, 60, 60)" stroke-width="1px" opacity="0.25"></line><line x1="45.234375" y1="0" x2="45.234375" y2="177" fill="rgb(0, 0, 0)" stroke="rgb(60, 60, 60)" stroke-width="1px" opacity="0.25"></line><line x1="67.8515625" y1="0" x2="67.8515625" y2="177" fill="rgb(0, 0, 0)" stroke="rgb(60, 60, 60)" stroke-width="1px" opacity="0.25"></line><line x1="90.46875" y1="0" x2="90.46875" y2="177" fill="rgb(0, 0, 0)" stroke="rgb(60, 60, 60)" stroke-width="1px" opacity="0.25"></line><line x1="113.0859375" y1="0" x2="113.0859375" y2="177" fill="rgb(0, 0, 0)" stroke="rgb(60, 60, 60)" stroke-width="1px" opacity="0.25"></line><line x1="135.703125" y1="0" x2="135.703125" y2="177" fill="rgb(0, 0, 0)" stroke="rgb(60, 60, 60)" stroke-width="1px" opacity="0.25"></line><line x1="158.3203125" y1="0" x2="158.3203125" y2="177" fill="rgb(0, 0, 0)" stroke="rgb(60, 60, 60)" stroke-width="1px" opacity="0.25"></line><line x1="180.9375" y1="0" x2="180.9375" y2="177" fill="rgb(0, 0, 0)" stroke="rgb(60, 60, 60)" stroke-width="1px" opacity="0.25"></line><line x1="203.5546875" y1="0" x2="203.5546875" y2="177" fill="rgb(0, 0, 0)" stroke="rgb(60, 60, 60)" stroke-width="1px" opacity="0.25"></line><line x1="226.171875" y1="0" x2="226.171875" y2="177" fill="rgb(0, 0, 0)" stroke="rgb(60, 60, 60)" stroke-width="1px" opacity="0.25"></line><line x1="248.7890625" y1="0" x2="248.7890625" y2="177" fill="rgb(0, 0, 0)" stroke="rgb(60, 60, 60)" stroke-width="1px" opacity="0.25"></line><line x1="271.40625" y1="0" x2="271.40625" y2="177" fill="rgb(0, 0, 0)" stroke="rgb(60, 60, 60)" stroke-width="1px" opacity="0.25"></line></g><g><line x1="0" y1="177" x2="271.40625" y2="177" fill="rgb(0, 0, 0)" stroke="rgb(60, 60, 60)" stroke-width="1px" opacity="0.25"></line><line x1="0" y1="151.71428571428572" x2="271.40625" y2="151.71428571428572" fill="rgb(0, 0, 0)" stroke="rgb(60, 60, 60)" stroke-width="1px" opacity="0.25"></line><line x1="0" y1="126.42857142857142" x2="271.40625" y2="126.42857142857142" fill="rgb(0, 0, 0)" stroke="rgb(60, 60, 60)" stroke-width="1px" opacity="0.25"></line><line x1="0" y1="101.14285714285712" x2="271.40625" y2="101.14285714285712" fill="rgb(0, 0, 0)" stroke="rgb(60, 60, 60)" stroke-width="1px" opacity="0.25"></line><line x1="0" y1="75.85714285714285" x2="271.40625" y2="75.85714285714285" fill="rgb(0, 0, 0)" stroke="rgb(60, 60, 60)" stroke-width="1px" opacity="0.25"></line><line x1="0" y1="50.57142857142857" x2="271.40625" y2="50.57142857142857" fill="rgb(0, 0, 0)" stroke="rgb(60, 60, 60)" stroke-width="1px" opacity="0.25"></line><line x1="0" y1="25.285714285714278" x2="271.40625" y2="25.285714285714278" fill="rgb(0, 0, 0)" stroke="rgb(60, 60, 60)" stroke-width="1px" opacity="0.25"></line><line x1="0" y1="0" x2="271.40625" y2="0" fill="rgb(0, 0, 0)" stroke="rgb(60, 60, 60)" stroke-width="1px" opacity="0.25"></line></g></g></g><g><g><line x1="0" y1="151.71428571428572" x2="271.40625" y2="151.71428571428572" fill="rgb(0, 0, 0)" stroke="rgb(153, 153, 153)" stroke-width="1.5px"></line></g></g><g><g><line x1="22.6171875" y1="0" x2="22.6171875" y2="177" fill="rgb(0, 0, 0)" stroke="rgb(153, 153, 153)" stroke-width="1.5px"></line></g></g><g><g><g><g><g><path stroke="rgb(51, 187, 238)" stroke-width="2px" d="M23.97421875,-9.778610536030357L24.200390625,12.555334159306113L24.4265625,24.81589165755679L24.652734375,27.843936400754103L24.87890625,28.702617772987907L25.105078125,29.606121667793815L25.33125,30.274480640888214L25.557421875,30.170924637998837L25.78359375,31.13280029807771L26.009765625,31.988361878054462L26.2359375,32.41743127788814L26.462109375,32.996069848537445L26.68828125,42.49816581181119L26.914453125,51.3890387075288L27.140625,53.15443419558662L27.366796875,54.19059708288738L27.59296875,54.79940118108476L27.819140625,55.432952616895946L28.0453125,55.912292872156414L28.271484375,56.792074288640706L28.49765625,58.158505618572235L28.723828125,59.69091893945421L29.176171874999998,61.98844247204917L29.40234375,63.07434871367046L29.628515625,63.65985987016133L29.8546875,64.46063669238771L30.080859375000003,64.97731649024146L30.307031249999998,65.84859760318483L30.533203125,66.8998545578548L30.759375,67.39475609575L30.985546875,68.44201157774243L31.211718750000003,69.33737688405174L31.437890624999998,69.70756962469646L31.6640625,70.04345218624387L32.11640625,70.75601575204304L32.342578125,71.35845215831485L32.56875,71.63802020890373L32.794921875,71.82695603370667L33.02109375,72.26414895057678L33.247265625,72.35416324649539L33.4734375,72.61924762385232L33.699609375,73.15168463332313L33.92578125,73.6069256237575L34.151953125,73.62528266225543L34.378125000000004,74.32824570792062L34.604296875,74.2784269962992L34.83046875,74.69164122002465L35.056640625,75.09568446023124L35.2828125,75.32353479521615L35.508984375,75.50387235198703L35.735156249999996,76.13887818370547L35.961328125,75.95889480624881L36.1875,76.29698533671242L36.413671875,76.43332176549094L36.639843750000004,76.83967093910489L36.866015625,76.90835911887032L37.092187499999994,77.31284696715218L37.318359375,77.76005486931119L37.54453125,77.32764714104789L37.770703125,77.62766716309956L37.996875,77.90108605793544L38.223046875,78.71791398525238L38.44921875,78.58831449917385L38.675390625,78.77307552950722L38.901562500000004,79.03771529878888L39.127734375,78.68724356378827L39.353906249999994,78.9803683928081L39.580078125,78.79160588979721L39.80625,79.27897169760296L40.032421875,79.58086058071682L40.25859375,79.67862160716739L40.484765625,79.86941875730243L40.7109375,79.8239556976727L40.937109375000006,79.90815994569233L41.163281250000004,80.49584139244897L41.389453124999996,80.27530825138092L41.615624999999994,80.50092801025936L41.841796875,80.73063967057637L42.06796875,80.79613270078387L42.294140625,80.77686383894512L42.5203125,81.37250301667622L42.746484375,81.10643899440765L42.97265625,81.44498166867665L43.198828125000006,81.33810240881783L43.425000000000004,81.44504949024746L43.651171874999996,81.8597783957209L43.877343749999994,81.82524968045098L44.103515625,81.8990320137569L44.3296875,82.33013606071472L44.555859375,82.2437765938895L44.78203125,82.28765715020043L45.008203125,82.34671466691154L45.234375,82.51300562279565L45.460546875000006,82.5649494103023L45.68671875,82.62082684891564L45.912890624999996,82.89582071134022L46.1390625,82.88760676554271L46.365234375,83.08826065063477L46.59140625,83.21934467554092L46.817578125,83.48879977634975L47.04375,83.25481535707202L47.269921875,83.61775872537068L47.49609375,83.70059147051403L47.722265625000006,83.49921415533338L47.9484375,83.78657415083477L48.174609374999996,83.68782594374248L48.40078125,84.06178654943194L48.626953125,83.8278021301542L48.853125,83.82435076577323L49.079296875000004,84.03991032498223L49.30546875,84.10446138892856L49.531640625,84.12951015574592L49.7578125,84.44769882304328L49.983984375,84.2293284365109L50.21015625,84.34984736783164L50.436328124999996,84.53299575192588L50.6625,84.58871494020734L50.888671875,84.50811277117047L51.11484375,84.77227025372642L51.341015625000004,85.0923729964665L51.793359375,84.83706999676568L52.01953125,84.8605061173439L52.245703125,84.98733999047961L52.698046874999996,85.07601292644229L52.92421875,84.93978199788502L53.150390625,85.14152856384005L53.3765625,84.99858329977307L53.602734375000004,85.0742797085217L53.82890625,85.27395394870213L54.055078124999994,85.52949809176582L54.28125,85.38302610601697L54.507421875,85.34485009738377L54.73359375,85.60391342639923L54.959765625,85.80021165949958L55.1859375,85.28876165832791L55.412109375,85.74352036203656L55.63828125,85.67246596302304L55.864453125000004,85.8618313244411L56.090625,85.7821108358247L56.316796874999994,85.39653767006737L56.54296875,85.61010779653277L56.769140625,85.78122915540423L57.221484375,85.95877095631191L57.44765625,86.06922215223312L57.673828125,85.92634470973697L57.900000000000006,86.17145186662674L58.126171875000004,86.331269630364L58.352343749999996,86.4292190500668L58.578515624999994,86.44998752219337L58.8046875,86.62660996403012L59.030859375,86.37028210503715L59.25703125,86.4930768268449L59.483203125,86.63898363283703L59.709375,86.89101612567902L59.935546875,86.57642953736442L60.161718750000006,86.90187511273793L60.387890625000004,86.77780685254505L60.614062499999996,86.99227373089109L60.840234374999994,86.92019447258541L61.06640625,87.15753229175296L61.292578125,87.1711493560246L61.51875,87.10994415623802L61.744921875,87.04399898222515L61.97109375,87.02392379726682L62.197265625,87.34806569133487L62.423437500000006,86.98636571850095L62.649609375,87.12809773002353L62.875781249999996,87.64755067655018L63.101953125,87.4401221701077L63.328125,87.49286474500384L63.554296875,87.57564474003655L63.78046875,87.40978332076754L64.006640625,87.56268328428268L64.2328125,87.95202431508473L64.458984375,87.47835846458163L64.68515625,87.79756445544106L64.911328125,87.9336672765868L65.1375,88.11366572550365L65.36367187500001,87.76048112767083L65.58984375,88.32767292431423L65.81601562499999,87.9866509948458L66.0421875,88.10324381078992L66.268359375,88.17584303447178L66.49453125,88.28141107729503L67.173046875,88.20530773912158L67.39921875,88.21269275460925L67.62539062500001,88.49112290995461L67.8515625,88.27048426866531L68.077734375,88.53883915288107L68.30390625,88.69392071025713L68.530078125,88.6152853667736L68.982421875,88.49028644391468L69.20859375,89.06825433458602L69.43476562500001,88.88706900818006L69.6609375,88.69279411860875L69.88710937500001,88.81489555324828L70.33945312499999,88.87520023328916L70.565625,88.78925899948393L70.79179687499999,89.07832206998552L71.01796875,88.93278828263283L71.244140625,89.10973476086343L71.47031249999999,89.08654731937817L71.696484375,89.24917967830385L71.92265625,89.25281943593706L72.148828125,89.18152012569563L72.375,89.44877479331835L72.601171875,89.47724101373127L72.82734375,89.5001647046634L73.053515625,89.70517047388212L73.505859375,89.64193816270148L73.73203125,89.77950291548456L73.95820312500001,89.56585743171827L74.18437499999999,89.65872776934079L74.410546875,89.6463465648038L74.63671875,89.60601156949997L74.86289062499999,89.83759209087917L75.0890625,89.75926194446428L75.315234375,89.77585938998631L75.54140625,90.00434649416378L75.767578125,90.0696134524686L75.99375,89.71614626475743L76.219921875,90.23507171017782L76.44609375,90.1106115920203L76.672265625,90.14634602410452L76.8984375,90.53849034649984L77.124609375,90.31837167058671L77.35078125,90.09378807459558L77.576953125,90.27575711693083L77.80312500000001,90.54373521464213L78.029296875,90.76399330156191L78.25546875,90.1119002018656L78.48164062500001,90.19723480939865L78.70781249999999,90.68573474458286L78.933984375,90.83369126915932L79.16015625,90.66120971100672L79.38632812499999,90.40340108105114L79.6125,90.8546481345381L79.838671875,90.82999499355043L80.06484375,90.56155344843864L80.291015625,91.20909119929587L80.5171875,90.75885770150593L80.743359375,90.99859565070697L80.96953125,91.12924637113298L81.19570312500001,91.07016247936657L81.421875,90.98477135385787L81.648046875,91.25987825223378L81.87421875000001,90.9902837404183L82.100390625,91.27974243674959L82.32656250000001,91.10333099535534L82.552734375,91.36075530307635L83.005078125,91.5554032112871L83.23124999999999,91.84949261375836L83.457421875,91.5601205783231L83.68359375,91.80931963665144L83.90976562499999,91.55624721305712L84.1359375,91.91783791780472L84.362109375,91.46768731304577L84.58828125,91.95273965171405L84.814453125,91.7727148277419L85.040625,91.62562491212572L85.266796875,92.03231319359371L85.49296875,92.23372818742479L85.71914062500001,91.84073986325944L85.9453125,92.27892749650137L86.171484375,92.39781871012279L86.39765625000001,92.43036929624422L86.623828125,92.27438345125744L86.85000000000001,92.43465712666512L87.076171875,92.50891421096667L87.30234374999999,92.7333810031414L87.528515625,92.42041082893098L87.980859375,92.14432428564345L88.43320312499999,92.4451016485691L88.659375,92.52883491345814L88.885546875,92.62199160882405L89.11171875,92.53638194714273L89.337890625,92.93684571555683L89.5640625,93.31453273977553L89.790234375,92.80935623390333L90.01640625,92.95629166705267L90.24257812500001,93.06443316170147L90.46875,93.2593410526003L90.694921875,93.05893961446627L90.92109375000001,93.4182168500764L91.14726562499999,93.11398058703968L91.3734375,93.37649528043612L91.599609375,93.21454867294857L92.051953125,93.05901873963221L92.278125,93.43033430406025L92.504296875,93.17119184987887L92.73046875,93.59979780231203L92.956640625,93.11577409080097L93.408984375,93.82075671213015L93.63515625,93.88534168686186L93.861328125,93.94094783919199L94.0875,93.57787259561674L94.313671875,93.93932765722275L94.53984375,94.15941619021551L94.76601562500001,94.019624629191L94.9921875,94.15597236156464L95.218359375,93.92773770434515L95.44453125000001,94.41872819832393L95.67070312499999,94.22039908596447L95.896875,94.38198021054268L96.123046875,94.55731781039918L96.34921874999999,94.52018926824843L96.575390625,94.49241256713867L96.8015625,94.48173443760192L97.027734375,94.70551924620355L97.25390625,94.36355535047396L97.480078125,94.4254387659686L97.70625,94.56779247522354L97.932421875,94.79409798554012L98.15859375000001,94.64558381693705L98.384765625,94.69752383657864L98.6109375,94.87305736541748L98.83710937500001,94.98310916764395L99.06328125,95.03932948197638L99.28945312500001,95.05427660260881L99.515625,94.95268742527281L99.74179687499999,94.91514065010206L99.96796875,95.36932287045887L100.19414062499999,95.04580644198826L100.4203125,95.09434784735953L100.646484375,95.69188226120814L100.87265624999999,95.2968818971089L101.098828125,95.05761493103846L101.325,95.51246029564312L101.551171875,95.76916494114057L101.77734375,95.66586515307426L102.003515625,95.43677895835468L102.2296875,95.932027139834L102.455859375,95.4888885319233L102.68203125000001,95.84965030636107L102.908203125,95.68269997409412L103.134375,95.910463648183L103.36054687500001,96.00861276473319L103.58671875,95.7594626886504L103.81289062500001,95.93078751223429L104.0390625,95.97683835881098L104.26523437499999,95.98575312750681L104.49140625,96.43766332524164L104.71757812499999,96.4526217494692L104.94375,96.04657777292387L105.169921875,96.59615103261812L105.39609374999999,96.62324575015477L105.622265625,96.46789667436055L105.8484375,96.48589953354427L106.30078125,96.60373574495316L106.526953125,96.9790264070034L106.753125,97.24899016959326L106.979296875,96.52370252353803L107.20546875000001,97.00089509572302L107.431640625,96.95105000904628L107.6578125,96.71513267500059L107.88398437500001,96.78933700919151L108.11015624999999,96.97214628543173L108.336328125,97.0295007271426L108.5625,97.33316427469254L108.78867187499999,97.35155522397586L109.01484375,97.19139458451951L109.241015625,97.16205421941622L109.4671875,97.54147822942053L109.693359375,97.39596328139305L109.91953125,97.57232950840677L110.145703125,97.64255497711046L110.371875,97.77970526473864L110.598046875,97.49532941835268L110.82421875,97.78251985992705L111.050390625,97.91967768328531L111.2765625,97.58287953053201L111.502734375,98.02530601194927L111.955078125,98.10340255073139L112.18125,98.0536215177604L112.40742187500001,98.14325902717455L112.63359374999999,98.35156544617244L112.859765625,98.09214040211269L113.0859375,98.15124690106937L113.31210937499999,98.39365626658713L113.53828125,98.53229486090795L113.764453125,98.19463763492449L113.990625,98.5105052973543L114.216796875,98.49753253800527L114.44296875,98.44598060846329L114.669140625,98.64229768088886L114.8953125,98.71689010517939L115.34765625,98.44988788451468L115.573828125,98.57976619260653L115.80000000000001,98.53845908812114L116.026171875,98.9731802855219L116.25234375000001,98.85740886415755L116.478515625,98.83473385231837L116.70468749999999,99.05732424770082L117.15703124999999,99.20881502968923L117.383203125,99.32054729972566L117.609375,99.20443677050726L117.83554687499999,99.20350233997618L118.06171875,99.12402676258768L118.287890625,99.72170058744295L118.5140625,99.44651833176613L118.740234375,99.64616619689124L118.96640625,99.71346026659012L119.192578125,99.53391019361361L119.41875,99.48673652325357L119.64492187500001,99.52488992469652L119.87109375,99.73884060553142L120.32343750000001,100.1422169336251L120.77578125000001,99.55068849665777L121.001953125,99.60310703516006L121.22812499999999,100.02677331651961L121.454296875,100.1913951081889L121.68046874999999,100.16707730719021L121.906640625,100.13668570773943L122.1328125,100.35167631932667L122.35898437499999,99.88732463121414L122.58515625,100.21138740011624L122.811328125,100.38749364444188L123.0375,100.33087016854967L123.263671875,100.58558914916857L123.48984375,100.50487017631531L123.716015625,100.48678819196566L123.9421875,100.80575303946222L124.16835937500001,100.48487411652292L124.39453125,101.06232580968312L124.620703125,100.56242431487357L124.84687500000001,100.86403437597411L125.07304687499999,100.7122497005122L125.29921875,100.53274107405117L125.525390625,100.833699294499L125.75156249999999,100.86053402934755L125.977734375,100.91202944091388L126.20390625,100.85591839466775L126.430078125,100.8231794152941L126.65625,101.06942823529243L126.882421875,101.00782740967615L127.10859375,100.94720246110643L127.334765625,101.45297428965569L127.5609375,101.05159493003572L127.787109375,101.07564521261624L128.01328125,101.02747682588442L128.23945312499998,101.34506263477462L128.465625,101.43537082416671L128.691796875,100.92726291928972L128.91796875,101.26392919676645L129.144140625,101.13768687844276L129.3703125,101.39025064025606L129.596484375,101.46768026692527L129.82265625,101.41655410613333L130.048828125,101.33870624644416L130.501171875,101.38734938417161L130.72734375000002,101.65121297325408L130.953515625,101.38570659501212L131.1796875,101.39958364197186L131.405859375,101.70195481181145L131.63203124999998,101.5588512974126L131.858203125,101.47157247151648L132.084375,101.67841319101198L132.310546875,101.5212140934808L132.53671875,101.71016875760897L132.762890625,101.71761782680238L132.9890625,101.66597546849931L133.215234375,101.52239343523979L133.44140625,101.39194241166115L133.667578125,101.89931935071945L133.89375,101.9356378018856L134.119921875,101.75835221580097L134.572265625,101.85111328533718L134.7984375,101.71109188454493L135.024609375,101.52476719021797L135.25078125000002,101.77648695026124L135.476953125,101.4279481300286L135.703125,101.94226170863425L136.15546875,101.64952873757908L136.381640625,101.95588254077094L136.6078125,101.81461774451392L136.833984375,101.85798963904381L137.06015625,101.57082557252475L137.286328125,101.8436943590641L137.51250000000002,101.95296998109137L137.738671875,101.73414368288859L137.96484375,101.58446901185172L138.191015625,101.95902870808328L138.4171875,101.59340261987278L138.86953125000002,102.06336089117187L139.095703125,102.05320272701128L139.321875,101.81693498151644L139.548046875,102.19190914290293L139.77421875000002,102.01141710366522L140.00039062500002,101.84297469684056L140.2265625,101.85855481880053L140.67890624999998,101.940471972738L140.905078125,102.37602210044861L141.13125,102.00287158574378L141.357421875,102.1598295399121L142.262109375,102.06373767767633L142.48828125,102.17332980036736L142.714453125,102.08688744051116L142.94062499999998,102.22961793627059L143.166796875,102.00398310593197L143.39296875,102.02662420698574L143.619140625,102.0200492824827L143.8453125,101.97562615360533L144.071484375,102.44290170499256L144.29765625,101.95338444624628L144.523828125,101.8179259300232L144.75,102.20320520230702L144.976171875,102.3965079826968L145.20234375,102.34898390088762L145.42851562500002,102.10146531036922L145.6546875,102.1033077963761L145.880859375,102.23158852968896L146.10703125,102.20428281170982L146.333203125,102.32913855569704L146.55937500000002,102.36362582445145L146.78554687500002,102.145417456116L147.01171875,102.41515514680317L147.237890625,102.20937696525029L147.4640625,102.43112712672779L147.69023437500002,102.22409047824996L148.142578125,102.66808815939086L148.36874999999998,102.45241933209556L148.59492187499998,102.2080808196749L148.82109375,102.6094639471599L149.047265625,102.46082167114531L149.2734375,102.26276384506906L149.49960937499998,102.27236813306808L149.72578124999998,102.36060399668558L149.951953125,102.71949314219611L150.178125,102.48530525820597L150.404296875,102.71281648533686L150.63046875,102.67453497648239L150.85664062499998,102.67558621082986L151.0828125,102.79548721228326L151.308984375,102.79042320166315L151.53515625,102.5709601342678L151.761328125,102.39261201024055L151.9875,102.55411400965282L152.213671875,102.48810101406916L152.43984375,102.34213392223631L152.666015625,102.61956936120987L152.8921875,102.79358067257064L153.118359375,102.73708153622492L153.34453125,102.6850736950125L153.570703125,102.8864057958126L153.796875,102.76197582057544L154.023046875,102.40973695686885L154.24921875,103.01707158769881L154.47539062500002,102.91032420311655L154.7015625,102.92619068281992L154.927734375,102.49175961102759L155.15390625,102.74571748290742L155.380078125,102.87352723308972L155.60625000000002,102.93970224687031L155.83242187500002,102.29410871437618L156.284765625,102.68560873184884L156.5109375,102.73654649938857L156.73710937500002,103.02819809317589L156.96328125000002,102.83441302606037L157.189453125,102.9396080502442L157.41562499999998,102.70645632914135L157.64179687499998,102.94492827568735L157.86796875,103.0711856654712L158.094140625,102.6175347140857L158.3203125,103.0623990041869L158.54648437499998,103.20124106322015L158.77265624999998,103.17433850680078L158.998828125,103.17530684811729L159.225,102.95342481136322L159.451171875,102.83388929281915L159.67734375,102.61164177315577L160.1296875,103.01514620866095L160.355859375,102.98345092790468L160.58203125,103.18250347035273L160.808203125,103.25142902561596L161.034375,103.1124174126557L161.260546875,103.01446422508785L161.48671875,103.20393508672714L161.712890625,103.2310222685337L161.9390625,102.98356773172105L162.165234375,103.15837406260627L162.39140625000002,103.36992084554264L162.617578125,103.0986873124327L162.84375,103.33180889061519L163.069921875,103.28634206312044L163.29609375,103.17885994485447L163.52226562500002,103.35160902142525L163.74843750000002,103.38556502120836L163.974609375,103.33405453818186L164.20078125,103.43484116026333L164.426953125,103.39951365760395L164.65312500000002,103.23437566842352L164.87929687500002,103.37243024366244L165.10546875,103.30409247534617L165.33164062499998,103.6576237167631L165.55781249999998,103.55857031260217L165.783984375,103.32377957020486L166.01015625,103.40423102463996L166.236328125,103.47360495584353L166.46249999999998,103.68966564110347L166.68867187499998,103.69004619547299L166.91484375,103.51320521746362L167.141015625,103.38115661910602L167.3671875,103.46670222708157L167.593359375,103.60696100337165L167.81953124999998,103.48336372630938L168.045703125,103.57669751133238L168.271875,103.77152627706528L168.498046875,103.66476382102286L168.72421875,103.63850180166109L168.950390625,103.7932781619685L169.1765625,103.82483026385307L169.402734375,103.41025207298144L169.62890625,103.79386594891548L169.855078125,103.74282644901956L170.08125,103.73778504558972L170.307421875,103.69480877688953L170.759765625,103.61217949645861L170.9859375,104.11410056693214L171.212109375,103.46900816048895L171.43828125000002,103.87241463150298L171.664453125,103.54331422703608L171.890625,103.88490510412625L172.116796875,103.80528634786606L172.34296875,103.88097898874963L172.56914062500002,103.70134979060718L172.79531250000002,103.83235092248236L173.021484375,103.83823255981719L173.24765625,104.07046115398407L173.473828125,103.89607305611884L173.70000000000002,104.02847583379065L173.92617187500002,104.12779298850468L174.37851562499998,103.80582138470241L174.60468749999998,103.82152584620884L174.830859375,103.9965469454016L175.05703125,103.97928258776665L175.283203125,104.22163543530873L175.50937499999998,104.46833639911243L175.73554687499998,104.06676487837518L175.96171875,104.18104422518185L176.187890625,104.22661655289787L176.4140625,104.180972635746L176.640234375,104.25913699609893L176.86640624999998,103.91209778615406L177.092578125,104.3765172958374L177.31875,104.22328199233328L177.544921875,103.97937678439277L177.77109375,104.15212586096355L177.997265625,104.09200203844479L178.2234375,104.11042313064848L178.449609375,104.27549706612314L178.67578125,104.27460031424249L178.901953125,104.5551555454731L179.128125,104.32045523183687L179.35429687500002,104.5550462773868L179.58046875,104.34129152553423L179.806640625,104.40527740972384L180.0328125,104.70229821119989L180.71132812500002,104.32874076707023L180.9375,104.55288352285112L181.163671875,104.30684947116035L181.38984375,104.51003159369742L181.61601562500002,104.18531698414257L181.84218750000002,104.60951076660837L182.068359375,104.34952431065696L182.29453124999998,104.4445121884346L182.52070312499998,104.59583718436106L182.746875,104.90024300132478L182.973046875,104.52691539696285L183.19921875,104.3607563163553L183.42539062499998,104.76167222857475L183.65156249999998,104.68050864764622L184.10390625,104.69567430445126L184.330078125,104.67314623934882L184.55625,104.94480177334377L184.78242187499998,104.95915357129915L185.00859375,104.62875325339182L185.234765625,104.52112795625413L185.4609375,104.60458993485996L185.687109375,104.69139400976046L185.91328125,105.11539939897402L186.139453125,104.77534204295704L186.365625,104.96993720105716L186.591796875,105.15071559803827L186.81796875,104.75290063875063L187.044140625,105.21153647559031L187.2703125,105.05315050057003L187.496484375,105.1837296315602L187.72265625,104.89001324772835L187.948828125,105.00821117418154L188.175,104.75781393476895L188.40117187500002,104.9467497595719L188.62734375,104.93385989325388L188.853515625,104.98090922406742L189.0796875,105.038911738566L189.305859375,105.42984280841692L189.53203125000002,105.28645670413971L189.75820312500002,105.22415882349014L189.984375,105.25048489655768L190.210546875,105.49954077601433L190.43671875,105.56634502325738L190.66289062500002,105.50457087584904L190.88906250000002,105.14387692298209L191.115234375,105.44160608308657L191.34140624999998,105.50285272938865L191.56757812499998,105.46626675980433L192.019921875,105.29368723716055L192.24609375,105.48559213961875L192.47226562499998,105.53357590096338L192.69843749999998,105.44174926195825L192.924609375,105.45795484951564L193.15078125,105.32645635945457L193.376953125,105.55287867358753L193.603125,105.73973086902073L193.82929687499998,105.63871817503656L194.05546875,105.79490748473576L194.281640625,105.45192626544407L194.5078125,105.58341721977507L194.733984375,105.81742047837803L194.96015625,105.53976650323187L195.186328125,105.77968530995506L195.4125,105.5980516076088L195.638671875,105.71456906625203L195.86484375,105.89657578723772L196.091015625,105.46372345089912L196.31718750000002,105.74346859114512L196.543359375,105.7705331657614L196.76953125,105.70455408096313L196.995703125,105.90206556660789L197.221875,105.91258921367782L197.44804687500002,105.90963143961771L197.67421875000002,105.57836828061512L197.900390625,105.983952577625L198.1265625,105.76149405751909L198.57890625000002,106.08254630225046L198.80507812500002,106.30346753341811L199.03125,105.80391645005771L199.25742187499998,106.11517601353782L199.48359374999998,106.2715838594096L199.709765625,106.32629702772414L199.9359375,106.11612928339413L200.162109375,105.9692616718156L200.38828124999998,106.01356799687659L200.61445312499998,106.02116401280676L200.840625,106.53670968328203L201.066796875,106.07383123040199L201.29296875,106.32199412584305L201.519140625,106.57182618549892L201.74531249999998,106.41682375328882L201.971484375,106.03121290888106L202.19765625,106.41507546390807L202.423828125,106.34651539155415L202.65,106.54830340402468L202.876171875,106.47766347016608L203.10234375,106.68274082882064L203.328515625,106.45806303620338L203.5546875,106.6093767285347L203.780859375,106.71954910244261L204.00703125,106.71439843092645L204.233203125,106.68136555807932L204.459375,106.68727357046946L204.685546875,106.77620648912021L204.91171875,106.91325127652713L205.137890625,106.69919886333602L205.36406250000002,106.88819497397968L205.590234375,106.70642186062678L206.042578125,107.00508921912738L206.26875,106.97465994102615L206.49492187500002,106.96723724688803L206.72109375000002,107.0234123468399L206.947265625,107.34332292846271L207.1734375,106.73694156748908L207.399609375,106.8744422665664L207.62578125000002,106.7719261944294L207.85195312500002,107.00075240646089L208.078125,107.13132023385593L208.30429687499998,107.2026572227478L208.53046874999998,107.39954701066017L208.756640625,107.56972263540541L208.9828125,107.09678775072098L209.208984375,107.14286120448793L209.43515624999998,107.12923283662116L209.66132812499998,107.07126800077303L209.8875,107.3561261338847L210.113671875,107.49194636515209L210.33984375,107.22542643121311L210.566015625,107.31642037204334L210.79218749999998,107.33796879223415L211.018359375,107.3048680978162L211.24453125,107.42196957554137L211.470703125,107.73637153846877L211.696875,107.51173519236701L211.923046875,107.71670705080032L212.14921875,107.7538016821657L212.375390625,107.42249330878258L212.6015625,107.46042817405292L212.827734375,107.51965524469102L213.05390625,107.82853728532791L213.28007812500002,107.93389055984362L213.50625,107.8702663906983L213.732421875,107.64284559232848L213.95859375,107.74816495605877L214.184765625,107.9206728892667L214.41093750000002,107.86493486166L214.86328125,107.87108401741301L215.089453125,107.8345922444548L215.315625,107.86586175646102L215.54179687500002,108.0071830706937L215.76796875000002,107.96473807096481L215.994140625,108.34392093760627L216.22031249999998,108.20950235213553L216.44648437499998,108.16674461960793L216.898828125,108.13685791407312L217.125,108.16685765555927L217.35117187499998,108.13598753724779L217.57734374999998,108.0247790004526L217.803515625,108.3011745086738L218.255859375,108.21602452652796L218.48203125,108.20739234771048L218.70820312499998,108.44331721748625L218.934375,108.36167511769703L219.160546875,108.36415060503143L219.38671875,108.34172427228519L219.612890625,108.76660380618914L219.8390625,108.48016316975867L220.065234375,108.48101093939373L220.29140625,108.66092649527958L220.517578125,108.405389887946L220.74375,108.63213623847281L220.969921875,108.43185160415514L221.19609375,108.71400064229965L221.422265625,108.95193001627922L221.6484375,108.82191983291081L221.874609375,108.74987071752548L222.10078125,108.73932823113033L222.32695312500002,108.79083871415683L222.553125,108.68869942852429L222.779296875,109.00287908741406L223.00546875,108.96376488038472L223.231640625,108.73349934390613L223.45781250000002,108.71075651049614L223.68398437500002,108.79008890901292L223.91015625,108.8865274148328L224.136328125,108.85206275326865L224.3625,108.87741671715463L224.58867187500002,108.61645815202168L224.81484375000002,109.04528264062746L225.041015625,108.83165976405144L225.26718749999998,109.22669780680111L225.49335937499998,109.39833913104876L225.71953125,109.31171214580536L225.945703125,109.23388312544142L226.171875,109.3958674115794L226.39804687499998,109.30693449292863L226.62421874999998,109.32775571516582L226.850390625,109.26254904270172L227.0765625,109.24673154524395L227.302734375,109.4610740840435L227.52890625,109.33708871688162L227.75507812499998,109.3953022318227L227.98125,109.69102311985834L228.207421875,109.69269605193819L228.43359375,109.6994857447488L228.659765625,109.45987967082432L228.8859375,109.78621823021344L229.112109375,109.65156226924488L229.564453125,109.76977903502329L229.790625,109.92340619649207L230.016796875,109.82803022861481L230.24296875000002,109.45932579466275L230.6953125,109.90554274831499L230.921484375,109.80855790206364L231.14765625,110.15009979690825L231.37382812500002,109.89446145721844L231.60000000000002,110.03681893433844L231.826171875,110.01758398328508L232.05234375,110.24154588154384L232.278515625,110.08064674053873L232.50468750000002,109.76465473856246L232.95703125,110.36247174228942L233.18320312499998,110.45428330983435L233.40937499999998,110.0234467812947L233.635546875,110.06382322311401L233.86171875,110.14369819419726L234.087890625,110.20238269226893L234.31406249999998,110.38622436353138L234.54023437499998,110.06335223998343L234.76640625,110.15738684790476L234.992578125,110.01329992072924L235.444921875,110.33385480727469L235.67109374999998,110.20481296522277L235.897265625,110.51264000364712L236.1234375,110.34825558747565L236.349609375,110.18218693562916L236.801953125,110.34000396302768L237.028125,110.57824230194092L237.254296875,110.4751874251025L237.706640625,110.48495373129845L237.9328125,110.61216439093863L238.158984375,110.37953263521194L238.38515625,110.52261354242052L238.611328125,110.53815975359508L238.8375,110.57287686211723L239.063671875,110.56879626427377L239.28984375000002,110.78585166590555L239.516015625,110.55451605575426L239.7421875,110.91735769169672L239.968359375,110.50391362820352L240.19453125,110.46155152150563L240.42070312500002,110.78628120252064L240.64687500000002,110.81162009494646L240.873046875,110.66146690504893L241.09921875,110.72932238663947L241.325390625,110.82668401939529L241.55156250000002,110.82428012149676L241.77773437500002,110.50176217726299L242.00390625,110.94631373456546L242.23007812499998,110.86680424639157L242.45624999999998,110.79078003338405L242.682421875,110.70052836196764L242.90859375,111.30297607183456L243.134765625,110.89270455070904L243.36093749999998,110.99466674668449L243.58710937499998,110.83842091900962L243.81328125,110.82498471226012L244.039453125,111.06670079060963L244.265625,110.60032575896808L244.491796875,110.95973110198975L244.71796874999998,111.11364462120193L244.944140625,110.94730845093727L245.1703125,110.70589003392628L245.396484375,111.11690382446562L245.62265625,111.04413881472179L245.848828125,111.53888587015017L246.075,111.17735921910831L246.301171875,110.99582348125323L246.52734375,111.24727195501328L246.753515625,110.97906401753426L246.9796875,111.08228844829968L247.20585937500002,111.23807836430414L247.43203125,110.72155681678227L247.884375,111.17663202115467L248.110546875,111.21424661789621L248.56289062500002,111.00468173197338L248.7890625,110.98522070901736L249.015234375,111.09058905499323L249.24140625,111.06170460156032L249.46757812500002,110.72086352961405L249.69375000000002,110.90194712366377L249.919921875,110.7867484177862L250.37226562499998,110.85510502542769L250.5984375,111.06629762904986L250.824609375,111.25873756834439L251.05078125,110.86189471823829L251.27695312499998,111.09794769542559L251.50312499999998,111.07110165698188L251.729296875,111.13171153409141L251.95546875,111.21296931164606L252.4078125,110.9701304095132L252.63398437499998,110.84855647597993L252.86015625,111.23968347481319L253.086328125,111.20880582077163L253.3125,111.14092396412576L253.538671875,110.70769107341766L253.76484375,111.09790624891008L253.991015625,110.84464543206352L254.2171875,110.89523278815406L254.443359375,111.07394639509066L254.66953125,111.16939395240375L254.895703125,111.09436445576804L255.121875,110.72720484648431L255.348046875,111.36126494407654L255.57421875,110.99368333390781L255.800390625,111.06603764636176L256.0265625,110.73357630627497L256.252734375,111.0365239594664L256.47890624999997,110.86291204180037L256.705078125,111.05200988480023L256.93125,110.90736908146313L257.157421875,111.22800686103957L257.38359375,111.21860226988792L257.609765625,110.94877038257464L257.8359375,110.97750035354069L258.062109375,111.22375294140407L258.28828125,110.67283455388888L258.514453125,111.02214201859066L258.740625,111.0734038225242L258.966796875,111.26098321591104L259.419140625,111.20777342574938L259.6453125,111.50245815089771L259.871484375,111.06383344531059L260.09765625,111.24706095457077L260.323828125,111.04771828651428L260.55,111.37104255386761L260.776171875,111.2017523774079L261.00234375,111.39323904684612" style="fill: none;" fill="none"></path></g><g><path stroke="rgb(0, 119, 187)" stroke-width="2px" d="M24.87890625,-23.21350606850217L27.140625,25.514453836849754L29.40234375,-17.91526988574438L31.6640625,21.724644746099216L33.92578125,29.229229663099545L36.1875,9.975537249020164L38.44921875,15.126856837953824L40.7109375,27.298311863626736L42.97265625,36.60422262975146L45.234375,26.944644979068215L47.49609375,-4.536379899297458L49.7578125,25.110387989452903L52.01953125,18.148579103606068L54.28125,41.36620118788312L56.54296875,21.5083542210715L58.8046875,44.371201668466824L61.06640625,25.47628536394666L63.328125,45.727052833352786L65.58984375,33.57288477250506L67.8515625,47.01077198982239L70.11328125,46.904699053083164L72.375,18.539954781532288L74.63671875,46.45405485800336L76.8984375,18.85954509462627L79.16015625,33.97602372510093L81.421875,48.31762583766664L83.68359375,55.253270668642855L85.9453125,26.320347419806893L88.20703125,34.15829042877468L90.46875,36.877822382109485L92.73046875,40.64183666876386L94.9921875,36.80228422369274L97.25390625,41.44153588158744L99.515625,34.79915905850274L101.77734375,14.42731501374925L104.0390625,38.73607313632965L106.30078125,6.343812704086304L108.5625,30.5418182015419L110.82421875,43.54316057477678L113.0859375,36.24292205061229L115.34765625,47.47006720304489L117.609375,19.11224826744626L119.87109375,20.39461852822984L122.1328125,47.39025628566742L124.39453125,30.378338072981137L126.65625,65.25521160875047L128.91796875,58.415707622255596L131.1796875,54.21738660335541L133.44140625,47.155540900571L135.703125,63.282673971993574L136.15546875,42.07281152691158L136.6078125,59.270040878227775L137.06015625,36.74963961328777L137.51250000000002,44.001468607357566L137.96484375,33.534678620951496L138.4171875,34.27452152967453L138.86953125000002,28.207249019827145L139.321875,34.54519741875785L139.77421875000002,50.104317298957284L140.2265625,23.850293346813743L140.67890624999998,27.32268241473605L141.13125,45.621424504688804L141.58359374999998,24.062047362327576L142.0359375,53.9844571862902L142.48828125,48.4888979111399L142.94062499999998,43.840776698929915L143.39296875,34.326661246163496L143.8453125,6.740810036659241L144.29765625,46.684105626174386L144.75,28.743612144674557L145.20234375,53.557128540107186L145.6546875,54.22579647813524L146.10703125,20.985691053526722L146.55937500000002,26.39602122136523L147.01171875,63.17687232153756L147.4640625,43.4778710092817L147.91640625000002,45.964865403515944L148.36874999999998,34.091433431421024L148.82109375,48.32020305735725L149.2734375,50.60789246218545L149.72578124999998,30.025507654462558L150.178125,37.48401158196586L150.63046875,53.15471301759992L151.0828125,42.90427384206225L151.53515625,58.04883060285023L151.9875,63.817997166088645L152.43984375,59.67830412728446L152.8921875,14.299704960414317L153.34453125,32.21545864003045L153.796875,54.50918514387948L154.24921875,35.72817139966148L154.7015625,53.30373961584908L155.15390625,46.84879147154945L155.60625000000002,56.44057769434792L156.05859375,8.608118738446933L156.5109375,29.355716892651145L156.96328125000002,33.64755632196153L157.41562499999998,48.90413924625943L157.86796875,56.803965670721865L158.3203125,50.50502974646432L158.77265624999998,24.777595077242154L159.225,44.077692517212455L159.67734375,29.74959443296703L160.1296875,38.61733263731003L160.58203125,64.66138854197094L161.034375,22.14409855433871L161.48671875,42.36019412960323L161.9390625,47.19790677513393L162.39140625000002,46.50896018743515L162.84375,45.396196603775024L163.29609375,49.051477840968545L163.74843750000002,33.30930754116605L164.20078125,59.99506854159492L164.65312500000002,47.82488705430711L165.10546875,57.23610964843205L165.55781249999998,52.00579300097057L166.01015625,48.862436515944324L166.46249999999998,66.60425047363553L166.91484375,37.533800150666934L167.3671875,29.039321729115073L167.81953124999998,51.26111215353012L168.271875,42.36738321610858L168.72421875,55.23962346145085L169.1765625,43.67965525388718L169.62890625,55.07116221530097L170.08125,19.807645440101624L170.53359375,56.23991627352578L170.9859375,43.77213373354505L171.43828125000002,54.4126449057034L171.890625,59.86899577719825L172.34296875,23.145024367741172L172.79531250000002,57.32310965231487L173.24765625,45.34054523706436L173.70000000000002,47.0488726411547L174.15234375,62.035955250263214L174.60468749999998,51.00117467982429L175.05703125,43.45016212974275L175.50937499999998,15.34468465191975L175.96171875,63.5020089319774L176.4140625,56.27829574687141L176.86640624999998,66.51101088523865L177.31875,59.10752532311848L177.77109375,55.69169944524765L178.2234375,25.971028651509982L178.67578125,70.42418741328376L179.128125,53.779394899095806L179.58046875,63.925765642098014L180.0328125,43.09394063268388L180.48515625000002,55.708858302661355L180.9375,48.56313238825115L181.38984375,43.8076948438372L181.84218750000002,52.50649705103466L182.29453124999998,37.80637504373277L182.746875,21.165493573461276L183.19921875,35.95108583143781L183.65156249999998,58.35041805676052L184.10390625,46.789681204727714L184.55625,34.93773359911782L185.00859375,54.81904682942799L185.4609375,-10.407979641641901L185.91328125,38.412142242704135L186.365625,38.974006278174244L186.81796875,40.21205891030175L187.2703125,36.29898034674781L187.72265625,30.547334355967365L188.175,42.346026957035065L188.62734375,46.34486212900708L189.0796875,45.04494115284513L189.53203125000002,29.58233136790139L189.984375,37.11996799707413L190.43671875,51.21066044058118L190.88906250000002,32.06659029211315L191.34140624999998,34.907620821680325L191.79375,31.523286759853363L192.24609375,60.28093646253858L192.69843749999998,56.33479865108217L193.15078125,47.56412818602155L193.603125,17.07781214373452L194.05546875,49.21271232196263L194.5078125,57.504389175346915L194.96015625,47.15491543497356L195.4125,21.756656527519226L195.86484375,60.43967661687306L196.31718750000002,57.14217677286693L196.76953125,34.0215847492218L197.221875,45.02026917253221L197.67421875000002,49.56711017233985L198.1265625,29.140737584659036L198.57890625000002,58.7881384747369L199.03125,51.41207543441227L199.48359374999998,68.24881806543895L199.9359375,65.48077108178819L200.38828124999998,23.76877181870597L200.840625,68.97212758234569L201.29296875,42.298378535679404L201.74531249999998,53.861119891916005L202.19765625,-0.525773916925715L202.65,35.64631829942974L203.10234375,58.42768943309784L203.5546875,62.432402474539614L204.00703125,54.57661485671997L204.459375,44.949847774846205L204.91171875,68.90132186242512L205.36406250000002,15.954506073679227L205.81640625,65.08282424722398L206.26875,44.06656224387032L206.72109375000002,39.66809976952416L207.1734375,64.04183095693588L207.62578125000002,27.84838248150689L208.078125,53.04753986426762L208.53046874999998,56.09559197085244L208.9828125,25.756282951150638L209.43515624999998,34.66230266434806L209.8875,64.53524042027337L210.33984375,50.55021398408073L210.79218749999998,44.55844195399965L211.24453125,53.65446756567273L211.696875,60.86797737223762L212.14921875,53.754971597875866L212.6015625,43.372197466237196L213.05390625,55.712339809962685L213.50625,31.09214503424508L213.95859375,59.17240042345864L214.41093750000002,53.686351239681244L214.86328125,55.417406405721394L215.315625,19.144229905945906L215.76796875000002,47.406194354806644L216.22031249999998,44.60557040997912L216.67265625,50.47792372533253L217.125,32.819070620196186L217.57734374999998,43.06861304385322L218.0296875,54.49684161799294L218.48203125,35.97741567237037L218.934375,62.27828172274998L219.38671875,51.05158117839268L219.8390625,58.61798922504697L220.29140625,32.37015210730689L220.74375,53.48246452638081L221.19609375,29.576679570334278L221.6484375,67.13085482801709L222.10078125,63.57882816450936L222.553125,60.27647531032562L223.00546875,52.43633940390178L223.45781250000002,50.03857558965683L223.91015625,38.99772875649589L224.3625,72.70939002718244L224.81484375000002,34.69203111955096L225.26718749999998,22.306252394403714L225.71953125,59.92365242753709L226.171875,49.55180510452816L226.62421874999998,47.856491906302296L227.0765625,60.79637286492756L227.52890625,37.58732644149234L227.98125,61.35035452672413L228.43359375,69.80747833422252L228.8859375,62.936271531241275L229.33828125,59.83384159633091L229.790625,68.64114324535642L230.24296875000002,41.56918361357282L230.6953125,39.77254498856408L231.14765625,47.1275230560984L231.60000000000002,65.70693341323307L232.05234375,69.39822790452412L232.50468750000002,59.29560961042131L232.95703125,50.04516935348511L233.40937499999998,68.73261193718228L233.86171875,73.30442634650639L234.31406249999998,32.455554536410745L234.76640625,43.50900864601135L235.21875,41.94754508563449L235.67109374999998,60.84342596360615L236.1234375,69.54503899812698L236.57578125,21.6640122617994L237.028125,40.632085434028085L237.48046875,49.871734525476185L237.9328125,56.99430314132145L238.38515625,4.82127872535159L238.8375,58.77415969542095L239.28984375000002,23.31138314519609L239.7421875,73.16431451695306L240.19453125,41.494655242988046L240.64687500000002,70.11483062165124L241.09921875,50.44042593240738L241.55156250000002,68.42818351302829L242.00390625,54.9819768496922L242.45624999999998,63.48488021748406L242.90859375,54.009694346359794L243.36093749999998,58.97294471945081L243.81328125,60.297447247164584L244.265625,64.1014461176736L244.71796874999998,55.559643311159945L245.1703125,67.30000936133521L245.62265625,51.39209067821503L246.075,64.85629266500473L246.52734375,43.185040073735365L246.9796875,49.2254552415439L247.43203125,54.72736713715962L247.884375,33.71293631621768L248.33671875000002,61.77169226748603L248.7890625,50.61509662015098L249.015234375,57.958733413900646L249.24140625,35.41052530493053L249.46757812500002,71.54918148687908L249.69375000000002,61.496570297649924L249.919921875,66.77783601624625L250.14609374999998,32.621687241962974L250.37226562499998,37.16089454718997L250.5984375,62.90678421940122L250.824609375,66.05234867334366L251.05078125,40.23552517380031L251.27695312499998,70.13407687629972L251.50312499999998,19.987478102956516L251.729296875,57.925041164670674L251.95546875,59.305888346263345L252.181640625,58.997594092573436L252.4078125,66.52681331123624L252.63398437499998,63.853347275938305L252.86015625,62.05380739484514L253.086328125,46.23280582257678L253.3125,63.66440391540527L253.538671875,36.75581891196114L253.76484375,34.4680013997214L253.991015625,32.30849476371492L254.2171875,42.665308305195396L254.443359375,31.444847345352173L254.66953125,59.19206867899213L254.895703125,67.7623791524342L255.121875,51.893736694540294L255.348046875,17.971233231680714L255.57421875,65.04810713870185L255.800390625,32.29859281437737L256.0265625,42.66842056172234L256.252734375,32.227425379412495L256.47890624999997,29.52296488625663L256.705078125,43.37634211778641L256.93125,18.552720308303833L257.157421875,78.22031465598515L257.38359375,47.88242988927024L257.609765625,45.9769903932299L257.8359375,57.90577983856201L258.062109375,9.067436558859669L258.28828125,40.39470993621009L258.514453125,31.63915614570888L258.740625,60.37841113124574L258.966796875,37.97824997561318L259.19296875,59.63526003701347L259.419140625,30.062523160661954L259.6453125,53.04481946570533L259.871484375,54.14225537436349L260.09765625,58.27224239281246L260.323828125,31.73367680822099L260.55,38.5991790635245L260.776171875,11.710202029773143L261.00234375,50.10021786178861" style="fill: none;" fill="none"></path></g><g><path stroke="rgb(238, 51, 119)" stroke-width="2px" d="M24.87890625,-18.768631032535012L27.140625,14.487691283226013L29.40234375,-7.614348854337436L31.6640625,31.568154496805988L33.92578125,38.313296071120675L36.1875,7.743031995637068L38.44921875,32.37641429901123L40.7109375,40.76361406700951L42.97265625,44.1637354833739L45.234375,34.53723215205329L47.49609375,26.632658217634457L49.7578125,27.03656581469943L52.01953125,49.355921336582725L54.28125,52.66088155337742L56.54296875,21.020882913044517L58.8046875,46.3150206378528L61.06640625,42.25359369175774L63.328125,43.91905032736915L65.58984375,57.37060735906873L67.8515625,43.214964457920615L70.11328125,61.27174179043088L72.375,52.28247486693519L74.63671875,55.15423610380718L76.8984375,34.02043178251813L79.16015625,44.35678581680568L81.421875,42.52393047298702L83.68359375,59.52060390370232L85.9453125,36.74919500521253L88.20703125,42.51150405406952L90.46875,61.614625045231406L92.73046875,49.17236602306366L94.9921875,54.029046101229525L97.25390625,64.83718958922795L99.515625,51.87563587086541L101.77734375,56.957506171294625L104.0390625,56.70417753287724L106.30078125,27.940491710390347L108.5625,50.39735169921602L110.82421875,49.534661318574635L113.0859375,64.58849542481559L115.34765625,45.8749566078186L117.609375,38.582042813301086L119.87109375,60.478915163448875L122.1328125,30.198520481586456L124.39453125,31.565253240721546L126.65625,72.56544251101357L128.91796875,45.38803540808814L131.1796875,64.91259210450309L133.44140625,70.71002519130707L135.703125,63.48375739370073L136.15546875,68.88249007293156L136.6078125,52.46025027547563L137.06015625,63.24964486701148L137.51250000000002,71.53322834627969L137.96484375,70.523184299469L138.4171875,70.45851266384125L138.86953125000002,26.886974036693573L139.321875,64.74554003987993L139.77421875000002,39.860908959593075L140.2265625,59.210011252335136L140.67890624999998,38.91992987905229L141.13125,63.57378676107952L141.58359374999998,62.1580114705222L142.0359375,58.32228717633656L142.48828125,69.18716717617852L142.94062499999998,66.98856517246791L143.39296875,46.96147324357713L143.8453125,37.644891883645755L144.29765625,40.31771738188607L144.75,43.989004509789595L145.20234375,61.005745589733124L145.6546875,36.11524417570661L146.10703125,59.718597676072804L146.55937500000002,55.76021430322102L147.01171875,57.595872938632965L147.4640625,62.08419899429593L147.91640625000002,52.97790218251092L148.36874999999998,56.82187056541443L148.82109375,63.01888574021203L149.2734375,72.23968043497631L149.72578124999998,70.66967135667801L150.178125,58.36910666738237L150.63046875,76.01217995371137L151.0828125,47.62895053625107L151.53515625,73.59121362652097L151.9875,49.25874056134904L152.43984375,50.629738543714794L152.8921875,57.17393987519401L153.34453125,71.51926463842392L153.796875,66.64542570284435L154.24921875,66.38380022559848L154.7015625,67.07373399393899L155.15390625,52.93794774157661L155.60625000000002,45.264163076877594L156.05859375,70.8680871299335L156.5109375,69.17304521799088L156.96328125000002,66.82617772477013L157.41562499999998,69.70240764958518L157.86796875,65.09387162753514L158.3203125,46.85848242044449L158.77265624999998,37.20684742927551L159.225,47.7263799905777L159.67734375,62.60463912146432L160.1296875,72.27796194383076L160.58203125,64.68756013257163L161.034375,55.13686624595097L161.48671875,53.57972065891538L161.9390625,60.040742601667134L162.39140625000002,73.02027657202312L162.84375,65.28385491882051L163.29609375,56.42565694877079L163.74843750000002,74.75821185963494L164.20078125,73.43627148015159L164.65312500000002,59.09803783893585L165.10546875,57.5953454375267L165.55781249999998,70.30593673671994L166.01015625,41.6913679412433L166.46249999999998,77.22676632234028L166.91484375,63.639490791729514L167.3671875,62.20492892605918L167.81953124999998,60.78752591780254L168.271875,48.61521935462952L168.72421875,71.97219215972083L169.1765625,74.69135486228126L169.62890625,77.18799499103001L170.08125,57.2936976977757L170.53359375,46.027110534054884L170.9859375,63.083888947963715L171.43828125000002,74.56415927410126L171.890625,73.96864820378167L172.34296875,55.46090263979775L172.79531250000002,66.86306512355804L173.24765625,61.65592838185174L173.70000000000002,68.76236299957547L174.15234375,68.33718203646796L174.60468749999998,65.51233825513295L175.05703125,66.0355138523238L175.50937499999998,65.3388506770134L175.96171875,63.49005726405552L176.4140625,68.72053969757897L176.86640624999998,75.17352855205536L177.31875,71.19016423395702L177.77109375,64.55857857636043L178.2234375,74.70859661272594L178.67578125,76.62197876828057L179.128125,63.9430073925427L179.58046875,52.13271730286735L180.0328125,69.34170239312309L180.48515625000002,72.09931992633003L180.9375,59.515366571290144L181.38984375,72.94778284856251L181.84218750000002,74.66659998893738L182.29453124999998,70.82413121632167L182.746875,64.6873566678592L183.19921875,78.00261494943074L183.65156249999998,69.58815844569888L184.10390625,60.297281461102614L184.55625,43.861334170613986L185.00859375,56.55591957909721L185.4609375,61.348937809467316L185.91328125,51.478917360305786L186.365625,47.335448920726776L186.81796875,61.41496587651116L187.2703125,67.35475644043514L187.72265625,41.77543654612134L188.175,69.34002192531314L188.62734375,66.16508319548198L189.0796875,75.65369773762566L189.53203125000002,47.21010712214877L189.984375,63.014454730919425L190.43671875,57.85501162494931L190.88906250000002,56.44658367122922L191.34140624999998,61.911593096596846L191.79375,61.989083009106764L192.24609375,74.21055267538343L192.69843749999998,84.02840326513562L193.15078125,52.9246547136988L193.603125,53.186551477227894L194.05546875,52.2947656427111L194.5078125,74.22267766509738L194.96015625,46.71309557982852L195.4125,67.9442766053336L195.86484375,68.07484820059368L196.31718750000002,65.864784351417L196.76953125,52.77516090018409L197.221875,64.05359423160553L197.67421875000002,67.17184919970376L198.1265625,37.54541271073478L198.57890625000002,78.78848609754017L199.03125,57.322333472115645L199.48359374999998,79.25595757790974L199.9359375,78.21265081848416L200.38828124999998,64.02626967430115L200.840625,80.92603361606598L201.29296875,59.344584320272716L201.74531249999998,67.7964934025492L202.19765625,39.53553874152047L202.65,63.49515141759599L203.10234375,55.4493579013007L203.5546875,53.968330723898745L204.00703125,53.40042303289685L204.459375,64.40340282235826L204.91171875,58.92618551424572L205.36406250000002,77.69686777251107L205.81640625,41.85300935166222L206.26875,69.89072554452079L206.72109375000002,77.96070875440326L207.1734375,41.19157571452004L207.62578125000002,77.95558445794242L208.078125,79.47249678203038L208.53046874999998,55.08721332039151L208.9828125,71.09589978626796L209.43515624999998,48.69463087831224L209.8875,78.99308116946902L210.33984375,54.93742561340332L210.79218749999998,76.67445005689349L211.24453125,73.00017124414444L211.696875,80.70133321625846L212.14921875,79.05125700575965L212.6015625,55.12549482924598L213.05390625,56.73912824903215L213.50625,41.50327611821038L213.95859375,78.2865537234715L214.41093750000002,81.08240755115237L214.86328125,69.47574042422431L215.315625,66.11546041284288L215.76796875000002,59.58244210481644L216.22031249999998,76.24712141071048L216.67265625,72.94060883351735L217.125,60.743803611823495L217.57734374999998,72.39981469937733L218.0296875,73.80086517333984L218.48203125,61.40571953569139L218.934375,64.76647429806846L219.38671875,60.70799382243837L219.8390625,54.09069590909141L220.29140625,76.93360381467002L220.74375,70.75350635392326L221.19609375,54.18068006208965L221.6484375,76.87622676576886L222.10078125,69.13489935227803L222.553125,78.32026104416165L223.00546875,72.42491621630532L223.45781250000002,57.205981799534385L223.91015625,69.69148084095546L224.3625,81.10582106454032L224.81484375000002,81.41924715042114L225.26718749999998,83.41519830056599L225.71953125,38.29824721813202L226.171875,78.27317780256271L226.62421874999998,83.39965962512153L227.0765625,53.007555280412944L227.52890625,44.261639688696164L227.98125,70.6255647284644L228.43359375,79.469685954707L228.8859375,73.13963500091008L229.33828125,72.74465724400112L229.790625,82.8326336145401L230.24296875000002,73.10046427590507L230.6953125,73.07071321351188L231.14765625,86.85102400609425L231.60000000000002,68.62623003550938L232.05234375,73.48306836400714L232.50468750000002,70.11841009344373L232.95703125,81.32138815947941L233.40937499999998,66.00093992267335L233.86171875,69.26138658182961L234.31406249999998,71.93334547110966L234.76640625,53.10679330996105L235.21875,75.18590975659234L235.67109374999998,71.59459933212825L236.1234375,79.42903069087437L236.57578125,81.08592673710415L237.028125,87.2944866503988L237.48046875,74.61247083970478L237.9328125,84.62742598567691L238.38515625,77.447186427457L238.8375,65.17622208595276L239.28984375000002,82.67611650058201L239.7421875,61.94253480434418L240.19453125,70.67181150402341L240.64687500000002,88.44703135320118L241.09921875,67.6902471440179L241.55156250000002,50.90308208124978L242.00390625,79.4528888123376L242.45624999999998,82.6034117766789L242.90859375,76.25785229035786L243.36093749999998,81.08119429860797L243.81328125,78.96100910220828L244.265625,85.18090275355748L244.71796874999998,47.507504710129325L245.1703125,78.16605739934104L245.62265625,37.587311370032154L246.075,79.60619570527759L246.52734375,62.48225132908139L246.9796875,52.79847644908088L247.43203125,45.074496286255965L247.884375,75.53944099800927L248.33671875000002,70.42365237644741L248.7890625,83.00784687485013L249.015234375,89.16960236855915L249.24140625,45.67000735657555L249.46757812500002,56.05950335945401L249.69375000000002,84.94561465297427L249.919921875,78.19620031969887L250.14609374999998,58.970209249428336L250.37226562499998,86.9713168655123L250.5984375,81.2768519946507L250.824609375,66.86996785231999L251.05078125,54.73748008693967L251.27695312499998,91.0935910642147L251.50312499999998,58.36423858574459L251.729296875,79.43707885060992L251.95546875,82.54298275709152L252.181640625,81.53255438804626L252.4078125,62.218877562454765L252.63398437499998,65.99335897820336L252.86015625,62.94935355867658L253.086328125,82.04469767638615L253.3125,88.8021790087223L253.538671875,64.846375644207L253.76484375,70.24394782100406L253.991015625,67.39596181256431L254.2171875,85.0506928733417L254.443359375,56.91116143124444L254.66953125,43.19163383756364L254.895703125,51.34989812544414L255.121875,70.49228780610221L255.348046875,73.73535707167217L255.57421875,74.3086000595774L255.800390625,82.64468497037888L256.0265625,84.13383566481727L256.252734375,68.9874175786972L256.47890624999997,70.98593841280255L256.705078125,90.28760328463146L256.93125,77.76747756344932L257.157421875,69.39806965419224L257.38359375,84.80170481545585L257.609765625,49.231935969420846L257.8359375,79.37797611951828L258.062109375,57.2952048437936L258.28828125,51.44967872755868L258.514453125,52.35039440223149L258.740625,87.35063537529537L258.966796875,82.80496241365161L259.19296875,48.56346396037509L259.419140625,91.09669578501156L259.6453125,76.76068895203727L259.871484375,85.5939210483006L260.09765625,37.43307758229119L260.323828125,38.64637534107479L260.55,88.00157927615302L260.776171875,76.34665333373206L261.00234375,83.52964343343463" style="fill: none;" fill="none"></path></g><g><path stroke="rgb(255, 112, 67)" stroke-width="2px" d="M25.33125,-38.37584715230125L25.78359375,14.562189510890391L26.2359375,-1.4962101663861915L26.68828125,-75.57781745706288L27.140625,14.322824580328785L27.59296875,23.46548882552554L28.0453125,25.236219610486728L28.49765625,-61.20761724880765L29.40234375,-11.947891013962874L29.8546875,30.054979894842404L30.307031249999998,10.551628742899197L30.759375,38.92995993580135L31.211718750000003,27.8633936558451L31.6640625,27.182344513280043L32.11640625,16.210766111101407L32.56875,28.323578085218173L33.02109375,35.38484353678567L33.4734375,26.700901789324604L33.92578125,35.224528414862476L34.378125000000004,23.02608040400912L34.83046875,27.194786003657754L35.2828125,10.444425446646534L35.735156249999996,1.6785627773829788L36.1875,9.6071003334863L36.639843750000004,30.082191416195457L37.092187499999994,19.53091835975647L37.54453125,21.51658323832919L37.996875,42.68379345110486L38.44921875,26.598965968404514L38.901562500000004,20.778955834252486L39.353906249999994,17.858785067285794L39.80625,25.184856074196944L40.25859375,40.41431037017276L40.7109375,36.73367893695831L41.163281250000004,0.7733558075768769L41.615624999999994,27.123226710728233L42.06796875,9.80176331315721L42.5203125,36.604343201432926L42.97265625,37.34732097387314L43.425000000000004,21.484496099608265L43.877343749999994,36.137745865753715L44.3296875,31.270018407276694L44.78203125,43.71325707435608L45.234375,30.380839935370858L45.68671875,17.05289902005876L46.1390625,55.37915503978729L46.59140625,50.68423694372177L47.04375,34.492816558906014L47.49609375,16.556897265570484L47.9484375,36.9347322157451L48.40078125,18.594377824238364L48.853125,51.70155297006879L49.30546875,50.4100946187973L49.7578125,21.16577993120464L50.21015625,34.81802852664674L50.6625,44.17754847662789L51.11484375,49.814945263522006L51.5671875,44.926178046635215L52.01953125,45.40361929791314L52.471875,12.426910247121555L52.92421875,46.64214668103625L53.3765625,48.7431383728981L53.82890625,40.87065157720019L54.28125,43.306425614016376L54.73359375,40.24480165754045L55.1859375,17.84561261108945L55.63828125,48.471430088792545L56.090625,49.54842909744808L56.54296875,18.333234633718234L56.9953125,45.32732756648744L57.44765625,50.17935056345803L57.900000000000006,52.50184750556946L58.352343749999996,31.064353261675137L58.8046875,43.426130686487454L59.25703125,39.80894256489617L59.709375,35.255296800817746L60.161718750000006,31.695892657552463L60.614062499999996,49.8932414991515L61.06640625,30.670890186514157L61.51875,30.257042961461195L61.97109375,28.10253251450402L62.423437500000006,52.599691425051006L62.875781249999996,58.162318697997506L63.328125,38.94614668403352L63.78046875,45.578516057559426L64.2328125,47.354928783008035L64.68515625,28.943391885076267L65.1375,54.142843161310466L65.58984375,50.994550773075645L66.0421875,48.26633012294769L66.49453125,58.018687682492384L66.946875,37.688418260642464L67.39921875,48.24013592515672L67.8515625,39.052573800086975L68.30390625,50.83337657792228L68.75625000000001,33.42941200733185L69.20859375,38.64254719018936L69.6609375,47.83713261570247L70.11328125,54.642213387148715L70.565625,41.47641124044145L71.01796875,38.849222123622894L71.47031249999999,51.94003622020993L71.92265625,49.818562413964955L72.375,43.78119921684265L72.82734375,36.742653991494876L73.27968750000001,39.12077215739657L73.73203125,50.34650812830243L74.18437499999999,45.97258952685763L74.63671875,46.98355293273926L75.0890625,44.345557578972404L75.54140625,41.17728797027041L75.99375,37.421351986271986L76.44609375,33.64580803258079L76.8984375,25.35636175530297L77.35078125,46.73659952197755L77.80312500000001,56.82840404340199L78.25546875,38.58793575423104L78.70781249999999,36.61721422842572L79.16015625,40.11395877599716L79.6125,59.8926278267588L80.06484375,51.61004659959248L80.5171875,49.39269569941929L80.96953125,41.62001964875628L81.421875,33.72573952163967L81.87421875000001,38.813352048397064L82.32656250000001,48.20538113798412L82.77890624999999,58.34386197158268L83.23124999999999,42.86599233320783L83.68359375,51.681907321725575L84.1359375,39.839944558484206L84.58828125,35.872118915830356L85.040625,38.093637074743015L85.49296875,62.88168270247323L85.9453125,29.01925407988685L86.39765625000001,37.65798898254121L86.85000000000001,37.55981349093574L87.30234374999999,32.18195478405269L87.75468749999999,53.84242374556405L88.20703125,35.71722198384148L88.659375,42.233872686113614L89.11171875,57.14922268050057L89.5640625,45.871098314012784L90.01640625,43.07981867449624L90.46875,55.54668185540608L90.92109375000001,49.5113759125982L91.3734375,41.827892763274036L91.82578124999999,45.67219271830152L92.278125,37.65070193154472L92.73046875,38.62210275445665L93.1828125,57.00375294685364L93.63515625,60.26177310092109L94.0875,47.87637869800838L94.53984375,43.16063184397561L94.9921875,47.26640656164716L95.44453125000001,38.39147927079881L95.896875,32.22381576469968L96.34921874999999,15.156276328223072L96.8015625,44.93468588590622L97.25390625,58.929991057940896L97.70625,41.13309844902585L98.15859375000001,53.80226583991731L98.6109375,50.62347635201046L99.06328125,52.10016294888088L99.515625,42.79358150277818L99.96796875,55.044003444058546L100.4203125,56.14909565448761L100.87265624999999,32.240221049104434L101.325,48.31118278844016L101.77734375,49.15525238003049L102.2296875,33.790803015232086L102.68203125000001,54.95336368254253L103.134375,38.788438924721305L103.58671875,35.39843045813697L104.0390625,48.8423161166055L104.49140625,49.78530723708016L104.94375,38.85751142672132L105.39609374999999,60.58454349211284L105.8484375,26.536743445055805L106.30078125,21.816927296774708L106.753125,61.98392856972558L107.20546875000001,51.606188305786674L107.6578125,28.691932107721072L108.11015624999999,34.77823987177442L108.5625,43.29223583425792L109.01484375,58.810956665447776L109.4671875,62.66524146284375L109.91953125,58.10905615772519L110.371875,57.17864217076982L110.82421875,41.88444841759545L111.2765625,33.59660725082668L111.72890625000001,62.82411726031984L112.18125,49.608541616371696L112.63359374999999,41.19812426396777L113.0859375,57.991446018218994L113.53828125,29.294360978262745L113.990625,55.396909219878054L114.44296875,61.82211383751461L114.8953125,57.65936146463666L115.34765625,40.44386550358365L115.80000000000001,13.690139753477894L116.25234375000001,54.15771869250706L116.70468749999999,48.46217621224267L117.15703124999999,48.063837519713815L117.609375,33.186113425663535L118.06171875,52.628010698727195L118.5140625,36.47909183161599L118.96640625,59.99206178528922L119.41875,54.25144056762967L119.87109375,53.243303060531616L120.32343750000001,53.77681014367512L120.77578125000001,57.00817642041615L121.22812499999999,49.84309121540615L121.68046874999999,59.64461187805448L122.1328125,22.78419853959764L122.58515625,67.81017828839165L123.0375,44.925620402608615L123.48984375,48.64968024832862L123.9421875,53.72555964333671L124.39453125,22.60599359444211L124.84687500000001,36.54067381790708L125.29921875,57.39316933495658L125.75156249999999,55.758661942822584L126.20390625,41.04952720233371L126.65625,65.33846635477883L127.10859375,67.50129624775478L127.5609375,48.753221179757816L128.01328125,57.14521367209298L128.465625,46.77451931578773L128.91796875,36.3848575268473L129.3703125,46.9061760561807L129.82265625,61.04412506307874L130.275,43.21944068159374L130.72734375000002,64.51847342082432L131.1796875,55.91390551839555L131.63203124999998,62.01573688643319L132.084375,55.59215245076588L132.53671875,44.390854852540144L132.9890625,64.19097812686647L133.44140625,63.48481239591325L133.89375,59.52826774120331L134.34609375,47.79106669766563L134.7984375,55.09116957868848L135.25078125000002,67.18743308952877L135.703125,55.22165828091758L135.929296875,50.622956386634286L136.15546875,61.04342424018043L136.381640625,62.1923970069204L136.6078125,44.231866019112715L136.833984375,57.8330751146589L137.06015625,55.98664792094911L137.286328125,57.678803648267476L137.51250000000002,62.22705382960183L137.738671875,51.29470643826893L137.96484375,60.763072473662234L138.191015625,56.80364163432802L138.4171875,64.4408478651728L138.64335937500002,24.549639242035994L138.86953125000002,17.033411622047424L139.095703125,44.85635197162628L139.321875,58.12904844965253L139.548046875,52.110223148550304L139.77421875000002,31.30751620020183L140.00039062500002,43.1000671812466L140.2265625,50.3437500510897L140.45273437499998,34.3031346968242L140.67890624999998,28.784538694790427L140.905078125,42.51739699499947L141.13125,55.79178901229585L141.357421875,47.02694366659435L141.58359374999998,54.80142829247883L141.80976562499998,59.43441022293908L142.0359375,49.20768598999295L142.262109375,41.21163582801819L142.48828125,61.63430837222508L142.714453125,43.36146658658981L142.94062499999998,59.7091629420008L143.166796875,41.041366006646854L143.39296875,42.562023588589255L143.619140625,51.099455671651015L143.8453125,27.498317675931105L144.071484375,29.30175352948052L144.29765625,31.876011678150718L144.523828125,47.941849121025626L144.75,38.07328306777137L144.976171875,54.46642741135189L145.20234375,54.667721833501545L145.42851562500002,29.031620212963645L145.6546875,28.895916785512668L145.880859375,24.224412202835083L146.10703125,51.041189406599315L146.333203125,32.421191607202786L146.55937500000002,46.182323966707486L146.78554687500002,56.52587462323052L147.01171875,50.17959924255098L147.237890625,34.24963101318906L147.4640625,52.43945166042873L147.69023437500002,66.50453015736171L147.91640625000002,40.49848447527202L148.142578125,45.86917670283998L148.36874999999998,52.49550995656422L148.59492187499998,68.48505566801343L148.82109375,57.784552548612865L149.047265625,56.743318114961895L149.2734375,66.2573732818876L149.49960937499998,46.203823404652724L149.72578124999998,62.202080420085366L149.951953125,29.41047904321124L150.178125,50.924852805478224L150.404296875,61.908955591065535L150.63046875,70.24088077885764L150.85664062499998,53.86789451326642L151.0828125,39.48571249416898L151.308984375,62.340240495545515L151.53515625,64.00891488790512L151.761328125,60.02364403009415L151.9875,40.568287943090695L152.213671875,42.07620260545184L152.43984375,43.22239468778881L152.666015625,45.073938642229336L152.8921875,50.19070690870285L153.118359375,37.67590894869397L153.34453125,63.200994193553925L153.570703125,44.1289279460907L153.796875,60.8228760276522L154.023046875,27.367052793502808L154.24921875,56.17926118203572L154.47539062500002,43.94378259352277L154.7015625,57.46311598164695L154.927734375,58.526889783995486L155.15390625,44.43612198318752L155.380078125,59.85341942310333L155.60625000000002,37.49822396891457L155.83242187500002,59.788506644112715L156.05859375,62.89825377293995L156.284765625,45.85048055648804L156.5109375,63.16924616268703L156.73710937500002,50.32831687586648L156.96328125000002,59.07461678981781L157.189453125,67.19051520313535L157.41562499999998,61.70601837975639L157.64179687499998,56.254535589899334L157.86796875,55.258515536785126L158.094140625,36.4159424134663L158.3203125,39.743961964334744L158.54648437499998,43.27771448237556L158.77265624999998,31.776057754244107L158.998828125,41.46974965504239L159.225,41.97393521240781L159.451171875,58.21311705453056L159.67734375,54.30438660723823L159.90351562499998,48.19559222459793L160.1296875,63.01339219297681L160.355859375,56.72158506938389L160.58203125,58.44382343121937L160.808203125,49.84990351540702L161.034375,47.7510368994304L161.260546875,35.01730337313245L161.48671875,47.77302615983146L161.712890625,64.31711871283395L161.9390625,50.87417502062661L162.165234375,54.25101856674466L162.39140625000002,66.55019668170384L162.617578125,69.12014439276287L162.84375,57.459001473018105L163.069921875,53.23596325942448L163.29609375,46.08331200906207L163.52226562500002,45.74536465747016L163.74843750000002,67.21880433389119L163.974609375,64.65174280745643L164.20078125,65.24223508153642L164.426953125,62.565347824777874L164.65312500000002,52.57024932759148L164.87929687500002,39.75634316887172L165.10546875,47.782001214367995L165.33164062499998,50.99027047838483L165.55781249999998,61.41767120361328L165.783984375,37.26599537474769L166.01015625,31.943320819309776L166.236328125,36.860166166509885L166.46249999999998,67.28979844706399L166.68867187499998,70.99367007187435L166.91484375,55.93624142238072L167.141015625,55.72257333142417L167.3671875,55.418958766119815L167.593359375,60.0647137590817L167.81953124999998,52.890962464468814L168.045703125,66.82404511315482L168.271875,41.6087838751929L168.498046875,27.062601762158522L168.72421875,65.19843741825649L168.950390625,66.6406706571579L169.1765625,66.35828424351556L169.402734375,54.05282886539186L169.62890625,69.76034234251294L169.855078125,40.83678600617816L170.08125,55.4826733640262L170.307421875,66.15589714050293L170.53359375,41.43772280216217L170.759765625,66.92147456748145L170.9859375,54.65039719002587L171.212109375,28.926489242485587L171.43828125000002,66.90943247079849L171.664453125,61.0743960908481L171.890625,67.34111676897321L172.116796875,64.59751569373267L172.34296875,49.04915683610099L172.56914062500002,60.342631484780995L172.79531250000002,60.245721995830536L173.021484375,54.61719476325172L173.24765625,53.96335714203971L173.473828125,30.262981116771698L173.70000000000002,61.80187286649431L173.92617187500002,61.75954467058182L174.15234375,60.2152173604284L174.37851562499998,63.07614975316184L174.60468749999998,57.112455853394096L174.830859375,65.22185093164444L175.05703125,57.42073503562382L175.283203125,67.7295007620539L175.50937499999998,56.5221067581858L175.73554687499998,68.77087083884648L175.96171875,58.30787886040551L176.187890625,64.88431804520744L176.4140625,62.34562854255948L176.640234375,56.38271082299096L176.86640624999998,66.19987566130501L177.092578125,71.97437752144677L177.31875,64.6423156091145L177.544921875,36.043421132223926L177.77109375,56.640206720147816L177.997265625,60.27125304937363L178.2234375,69.29721144267491L178.449609375,71.96633689744132L178.67578125,69.07269943611962L178.901953125,58.32466093131474L179.128125,56.32614009720939L179.35429687500002,58.409927717276986L179.58046875,42.817334124020164L179.806640625,64.60181859561375L180.0328125,58.06416581358228L180.258984375,70.57348529781613L180.48515625000002,68.37981166158404L180.71132812500002,63.959940178053714L180.9375,53.353347327028004L181.163671875,60.67198056834084L181.38984375,63.80104177338737L181.61601562500002,57.13463350704738L181.84218750000002,64.40657536472592L182.068359375,61.82263380289078L182.29453124999998,63.250707404954085L182.52070312499998,54.357204539435244L182.746875,56.72241399969373L182.973046875,47.88913668904985L183.19921875,70.40339633396694L183.42539062499998,47.62029951810837L183.65156249999998,65.18839982577732L183.877734375,67.68947096381869L184.10390625,53.159874992711195L184.330078125,55.12550236497606L184.55625,38.272527771336684L184.78242187499998,57.53215834072658L185.00859375,47.53069968734468L185.234765625,58.6046735899789L185.4609375,52.8591541477612L185.687109375,60.076544855322155L185.91328125,43.37598793847221L186.139453125,60.115640223026276L186.365625,37.034919747284476L186.591796875,69.68418625422886L186.81796875,53.13276897157941L187.044140625,37.903729140758514L187.2703125,60.02078045266015L187.496484375,39.6648594055857L187.72265625,38.2112472142492L187.948828125,63.42699073893684L188.175,61.42622425726482L188.40117187500002,56.493267519133425L188.62734375,54.764322357518324L188.853515625,61.12465187481472L189.0796875,68.23651221820286L189.305859375,53.41973710911614L189.53203125000002,40.52216173921312L189.75820312500002,74.72441411018372L189.984375,54.500104589121676L190.210546875,56.51530199391502L190.43671875,49.78056726285389L190.66289062500002,71.12280987841743L190.88906250000002,50.585714808532174L191.115234375,56.58032027312687L191.34140624999998,55.80381603751863L191.56757812499998,53.903455623558585L191.79375,57.76037792648587L192.019921875,50.39747227089745L192.24609375,63.676114439964294L192.47226562499998,54.649764188698356L192.69843749999998,75.92681520325797L192.924609375,69.81838253566197L193.15078125,47.295584908553536L193.376953125,60.306429837431224L193.603125,45.680625200271606L193.82929687499998,43.882479429244995L194.05546875,44.52706317390712L194.281640625,72.82884642056057L194.5078125,66.87485100541797L194.733984375,64.21207817111696L194.96015625,38.36943726028713L195.186328125,70.02812451124191L195.4125,61.04195477281297L195.638671875,46.66445997783114L195.86484375,61.01273874725614L196.091015625,49.29608010394233L196.31718750000002,57.05464926787785L196.543359375,41.20952582359314L196.76953125,47.78563343627113L196.995703125,56.755525997706826L197.221875,59.1027928846223L197.44804687500002,46.08678598063332L197.67421875000002,58.98996039799282L197.900390625,58.117533854075845L198.1265625,27.61804535559247L198.352734375,62.981704447950634L198.57890625000002,72.16411966936928L198.80507812500002,30.430417503629428L199.03125,50.484072881085524L199.25742187499998,71.26049520288196L199.48359374999998,70.89459029265812L199.709765625,73.35276051930019L199.9359375,71.11626886469978L200.162109375,68.44684198072979L200.38828124999998,54.53244040693555L200.61445312499998,71.19406774214336L200.840625,74.0081655723708L201.066796875,50.71297068255288L201.29296875,53.17251241207123L201.519140625,60.95304822921753L201.74531249999998,58.97428607940674L201.971484375,59.26685326439994L202.19765625,33.30613499879837L202.423828125,15.976148690496188L202.65,56.04715983356748L202.876171875,55.92456104074205L203.10234375,50.6382463829858L203.328515625,55.799678921699524L203.5546875,45.587347933224265L203.780859375,49.45376525606427L204.00703125,48.69328951835632L204.233203125,70.42833960056305L204.459375,59.405201733112335L204.685546875,30.590566839490634L204.91171875,51.799442103930886L205.137890625,70.74370236907687L205.36406250000002,70.66356741530555L205.590234375,59.745251553399214L205.81640625,37.29823322807039L206.042578125,56.70941486528942L206.26875,64.97817556347165L206.49492187500002,66.50942084618977L206.72109375000002,68.89445681231362L206.947265625,58.75070850338254L207.1734375,31.853170880249564L207.399609375,40.02517280408313L207.62578125000002,71.37000443254199L207.85195312500002,12.096136910574756L208.078125,73.90781225476947L208.30429687499998,76.30299884932381L208.53046874999998,47.31729534694125L208.756640625,60.34089826686042L208.9828125,62.391762282167164L209.208984375,65.92900384323937L209.43515624999998,42.81777873209546L209.66132812499998,48.663402812821516L209.8875,71.28225085565022L210.113671875,70.1140770486423L210.33984375,48.0557064669473L210.566015625,59.85259802852357L210.79218749999998,65.44495375667299L211.018359375,71.21788818495614L211.24453125,64.73239019087383L211.470703125,68.38975128957203L211.696875,71.24883742843356L211.923046875,34.01553355795997L212.14921875,70.9235651748521L212.375390625,70.88000865493503L212.6015625,50.37160964523042L212.827734375,65.76230595793042L213.05390625,52.232852084296084L213.28007812500002,57.991287767887115L213.50625,36.640861349446425L213.732421875,71.26075895343509L213.95859375,70.81735659497124L214.184765625,62.42250052520207L214.41093750000002,74.07605496474675L214.63710937500002,32.938753085477L214.86328125,62.260414506707875L215.089453125,28.85833609955651L215.315625,59.61217056001935L215.54179687500002,33.503955449376804L215.76796875000002,53.057057491370614L215.994140625,58.46693551540375L216.22031249999998,68.09326552493232L216.44648437499998,57.975771699632915L216.67265625,66.04988448960441L216.898828125,74.94254335335323L217.125,52.198579583849224L217.35117187499998,65.64230699198586L217.57734374999998,65.2203061069761L217.803515625,77.57713255711964L218.0296875,66.61935207673481L218.255859375,63.35968913350786L218.48203125,55.77089996848787L218.70820312499998,47.73320736203874L218.934375,60.341802554471144L219.160546875,68.85512783697673L219.38671875,54.83123964071274L219.612890625,50.245845845767434L219.8390625,47.428070579256314L220.065234375,71.38245345864978L220.29140625,67.86032103640693L220.517578125,60.37551741089139L220.74375,62.757863121373305L220.969921875,70.42851292235511L221.19609375,48.26576494319099L221.422265625,71.23717965398517L221.6484375,70.35792573860714L221.874609375,64.20421840463365L222.10078125,63.538836044924594L222.32695312500002,61.43281048536301L222.553125,68.49345047133309L222.779296875,77.54273948499134L223.00546875,64.21814443383897L223.231640625,69.42020962919507L223.45781250000002,50.33219777686256L223.68398437500002,56.04422843456268L223.91015625,62.40127237354005L224.136328125,63.824937573501046L224.3625,73.63879422630582L224.58867187500002,56.4454608474459L224.81484375000002,73.0817756652832L225.041015625,63.81606048345566L225.26718749999998,75.84841346740723L225.49335937499998,79.64676807607923L225.71953125,33.03874468803406L225.945703125,59.12220492533275L226.171875,72.64731068270547L226.39804687499998,75.90738055535725L226.62421874999998,75.4662765945707L226.850390625,65.1640443461282L227.0765625,47.63413511855262L227.302734375,74.92348549195698L227.52890625,40.298674591950004L227.75507812499998,65.20131606715066L227.98125,65.05911684036255L228.207421875,59.15525663750512L228.43359375,72.48151708500725L228.659765625,57.27702866281781L228.8859375,67.5246570110321L229.112109375,53.593277437346316L229.33828125,65.71566732440675L229.564453125,67.100184406553L229.790625,75.63631280830928L230.016796875,63.88477880614144L230.24296875000002,65.82476962464196L230.469140625,55.259781539440155L230.6953125,64.61550348145622L230.921484375,43.702661837850314L231.14765625,76.9608605504036L231.37382812500002,57.96501821279526L231.60000000000002,61.025707738740095L231.826171875,72.03257596492767L232.05234375,63.01389708689281L232.278515625,79.63761216402054L232.50468750000002,63.179306362356456L232.73085937500002,49.62686851194927L232.95703125,73.99521918807712L233.18320312499998,77.66212805679866L233.40937499999998,59.61146220139095L233.635546875,42.502001498426694L233.86171875,63.881583656583516L234.087890625,66.45266926288605L234.31406249999998,64.78306043999535L234.54023437499998,72.61277443170547L234.76640625,49.70010073695863L234.992578125,57.660815860543934L235.21875,68.59320093052727L235.444921875,74.89848947525024L235.67109374999998,63.92996304375785L235.897265625,49.70995747191566L236.1234375,72.08576314789909L236.349609375,70.64738820280347L236.57578125,71.39385501827512L236.801953125,69.27022599322456L237.028125,78.25539347955159L237.254296875,64.82094255515507L237.48046875,66.04676469734737L237.706640625,68.70277044602803L237.9328125,76.28516177620206L238.158984375,52.865793125970015L238.38515625,69.43718762908664L238.611328125,25.658333531447823L238.8375,60.008640391486026L239.063671875,45.32819417544772L239.28984375000002,76.13550971235547L239.516015625,64.16323910440717L239.7421875,53.76822694710323L239.968359375,54.734352758952554L240.19453125,62.763462168829776L240.42070312500002,73.41665597472873L240.64687500000002,80.573173054627L240.873046875,64.77918707472938L241.09921875,60.00732917445046L241.325390625,35.6017369202205L241.55156250000002,43.91239627770017L241.77773437500002,57.29980917487825L242.00390625,70.53162431716919L242.23007812499998,62.53492608240673L242.45624999999998,74.83356916052955L242.682421875,60.52600594077791L242.90859375,68.4713557107108L243.134765625,76.58882909161704L243.36093749999998,73.46452293225697L243.58710937499998,79.50988907473428L243.81328125,71.6095803635461L244.039453125,49.75934664692197L244.265625,77.94834262132645L244.491796875,77.59657474075046L244.71796874999998,40.20161438839776L244.944140625,70.06579562595913L245.1703125,69.71516564062664L245.396484375,69.92684429883957L245.62265625,32.159875094890594L245.848828125,43.3571109345981L246.075,70.44686996085304L246.301171875,57.83300729308809L246.52734375,57.18794126170022L246.753515625,73.77348033019474L246.9796875,48.12083778211047L247.20585937500002,76.20694089787347L247.43203125,38.095588828836185L247.658203125,59.29201506716865L247.884375,68.576667538711L248.110546875,75.28439421313149L248.33671875000002,62.994522724832805L248.56289062500002,48.800613386290394L248.7890625,74.63552263804844L249.015234375,80.14023028952735L249.24140625,39.696795829704826L249.46757812500002,49.617102205753326L249.69375000000002,75.99895474740437L249.919921875,70.0298426577023L250.14609374999998,52.52178704738617L250.37226562499998,78.41435217005866L250.5984375,74.04380203996386L250.824609375,59.672554365226205L251.05078125,48.20064869948794L251.27695312499998,83.20165078129087L251.50312499999998,53.664407193660736L251.729296875,69.97518600736346L251.95546875,73.5189911893436L252.181640625,71.30133885996682L252.4078125,51.776216983795166L252.63398437499998,60.76760898317609L252.86015625,55.62020797388894L253.086328125,74.02923547370094L253.3125,79.95644136837551L253.538671875,56.17437049320766L253.76484375,61.52488203559602L253.991015625,60.762884080410004L254.2171875,77.1446720787457L254.443359375,51.867271210466114L254.66953125,36.61702583517345L254.895703125,43.412038871220176L255.121875,64.12055672918046L255.348046875,67.18142711264747L255.57421875,67.34240537881851L255.800390625,73.63465711048671L256.0265625,75.10109511443547L256.252734375,60.79763886758259L256.47890624999997,63.99700843436378L256.705078125,80.88207016672406L256.93125,69.83350674595151L257.157421875,61.40331563779286L257.38359375,78.12485202721187L257.609765625,41.49308781112941L257.8359375,71.2307968905994L258.062109375,50.56946023872921L258.28828125,45.73085837704795L258.514453125,45.571733900478904L258.740625,81.13487883976528L258.966796875,76.15174921069827L259.19296875,43.2880535040583L259.419140625,81.96016939197268L259.6453125,69.08413113866534L259.871484375,76.03441789320537L260.09765625,32.60729399749209L260.323828125,32.51917116982597L260.55,77.59704949174609L260.776171875,68.1456087061337L261.00234375,75.78682394538608" style="fill: none;" fill="none"></path></g></g></g></g></g></g><g transform="translate(58, 177)" clip-path="url(#clip_1)"><clipPath id="clip_1"><rect width="271" height="23"></rect></clipPath><g><g><line x1="0" y1="0" x2="0" y2="5" style="visibility: inherit;" fill="rgb(0, 0, 0)" stroke="rgb(204, 204, 204)" stroke-width="1px"></line><line x1="22.6171875" y1="0" x2="22.6171875" y2="5" style="visibility: inherit;" fill="rgb(0, 0, 0)" stroke="rgb(204, 204, 204)" stroke-width="1px"></line><line x1="45.234375" y1="0" x2="45.234375" y2="5" style="visibility: inherit;" fill="rgb(0, 0, 0)" stroke="rgb(204, 204, 204)" stroke-width="1px"></line><line x1="67.8515625" y1="0" x2="67.8515625" y2="5" style="visibility: inherit;" fill="rgb(0, 0, 0)" stroke="rgb(204, 204, 204)" stroke-width="1px"></line><line x1="90.46875" y1="0" x2="90.46875" y2="5" style="visibility: inherit;" fill="rgb(0, 0, 0)" stroke="rgb(204, 204, 204)" stroke-width="1px"></line><line x1="113.0859375" y1="0" x2="113.0859375" y2="5" style="visibility: inherit;" fill="rgb(0, 0, 0)" stroke="rgb(204, 204, 204)" stroke-width="1px"></line><line x1="135.703125" y1="0" x2="135.703125" y2="5" style="visibility: inherit;" fill="rgb(0, 0, 0)" stroke="rgb(204, 204, 204)" stroke-width="1px"></line><line x1="158.3203125" y1="0" x2="158.3203125" y2="5" style="visibility: inherit;" fill="rgb(0, 0, 0)" stroke="rgb(204, 204, 204)" stroke-width="1px"></line><line x1="180.9375" y1="0" x2="180.9375" y2="5" style="visibility: inherit;" fill="rgb(0, 0, 0)" stroke="rgb(204, 204, 204)" stroke-width="1px"></line><line x1="203.5546875" y1="0" x2="203.5546875" y2="5" style="visibility: inherit;" fill="rgb(0, 0, 0)" stroke="rgb(204, 204, 204)" stroke-width="1px"></line><line x1="226.171875" y1="0" x2="226.171875" y2="5" style="visibility: inherit;" fill="rgb(0, 0, 0)" stroke="rgb(204, 204, 204)" stroke-width="1px"></line><line x1="248.7890625" y1="0" x2="248.7890625" y2="5" style="visibility: inherit;" fill="rgb(0, 0, 0)" stroke="rgb(204, 204, 204)" stroke-width="1px"></line><line x1="271.40625" y1="0" x2="271.40625" y2="5" style="visibility: inherit;" fill="rgb(0, 0, 0)" stroke="rgb(204, 204, 204)" stroke-width="1px"></line></g><g transform="translate(0, 8)"><text x="0" y="0" dx="0em" dy="0.95em" style="text-anchor: middle; visibility: hidden; font-family: &quot;Helvetica Neue&quot;, sans-serif; font-size: 12px; font-weight: 200;" fill="rgb(50, 49, 63)" stroke="none" stroke-width="1px">-100</text><text x="22.6171875" y="0" dx="0em" dy="0.95em" style="text-anchor: middle; visibility: inherit; font-family: &quot;Helvetica Neue&quot;, sans-serif; font-size: 12px; font-weight: 200;" fill="rgb(50, 49, 63)" stroke="none" stroke-width="1px">0</text><text x="45.234375" y="0" dx="0em" dy="0.95em" style="text-anchor: middle; visibility: hidden; font-family: &quot;Helvetica Neue&quot;, sans-serif; font-size: 12px; font-weight: 200;" fill="rgb(50, 49, 63)" stroke="none" stroke-width="1px">100</text><text x="67.8515625" y="0" dx="0em" dy="0.95em" style="text-anchor: middle; visibility: inherit; font-family: &quot;Helvetica Neue&quot;, sans-serif; font-size: 12px; font-weight: 200;" fill="rgb(50, 49, 63)" stroke="none" stroke-width="1px">200</text><text x="90.46875" y="0" dx="0em" dy="0.95em" style="text-anchor: middle; visibility: hidden; font-family: &quot;Helvetica Neue&quot;, sans-serif; font-size: 12px; font-weight: 200;" fill="rgb(50, 49, 63)" stroke="none" stroke-width="1px">300</text><text x="113.0859375" y="0" dx="0em" dy="0.95em" style="text-anchor: middle; visibility: inherit; font-family: &quot;Helvetica Neue&quot;, sans-serif; font-size: 12px; font-weight: 200;" fill="rgb(50, 49, 63)" stroke="none" stroke-width="1px">400</text><text x="135.703125" y="0" dx="0em" dy="0.95em" style="text-anchor: middle; visibility: hidden; font-family: &quot;Helvetica Neue&quot;, sans-serif; font-size: 12px; font-weight: 200;" fill="rgb(50, 49, 63)" stroke="none" stroke-width="1px">500</text><text x="158.3203125" y="0" dx="0em" dy="0.95em" style="text-anchor: middle; visibility: inherit; font-family: &quot;Helvetica Neue&quot;, sans-serif; font-size: 12px; font-weight: 200;" fill="rgb(50, 49, 63)" stroke="none" stroke-width="1px">600</text><text x="180.9375" y="0" dx="0em" dy="0.95em" style="text-anchor: middle; visibility: hidden; font-family: &quot;Helvetica Neue&quot;, sans-serif; font-size: 12px; font-weight: 200;" fill="rgb(50, 49, 63)" stroke="none" stroke-width="1px">700</text><text x="203.5546875" y="0" dx="0em" dy="0.95em" style="text-anchor: middle; visibility: inherit; font-family: &quot;Helvetica Neue&quot;, sans-serif; font-size: 12px; font-weight: 200;" fill="rgb(50, 49, 63)" stroke="none" stroke-width="1px">800</text><text x="226.171875" y="0" dx="0em" dy="0.95em" style="text-anchor: middle; visibility: hidden; font-family: &quot;Helvetica Neue&quot;, sans-serif; font-size: 12px; font-weight: 200;" fill="rgb(50, 49, 63)" stroke="none" stroke-width="1px">900</text><text x="248.7890625" y="0" dx="0em" dy="0.95em" style="text-anchor: middle; visibility: inherit; font-family: &quot;Helvetica Neue&quot;, sans-serif; font-size: 12px; font-weight: 200;" fill="rgb(50, 49, 63)" stroke="none" stroke-width="1px">1k</text><text x="271.40625" y="0" dx="0em" dy="0.95em" style="text-anchor: middle; visibility: hidden; font-family: &quot;Helvetica Neue&quot;, sans-serif; font-size: 12px; font-weight: 200;" fill="rgb(50, 49, 63)" stroke="none" stroke-width="1px">1.1k</text></g><line x1="0" y1="0" x2="271.40625" y2="0" fill="rgb(0, 0, 0)" stroke="rgb(204, 204, 204)" stroke-width="1px"></line></g></g></g></g></svg>