<svg viewBox="0 0 330 200" xmlns="http://www.w3.org/2000/svg"><g><g><g><g><g><line x1="48.875" y1="177" x2="43.875" y2="177" style="visibility: inherit;" fill="rgb(0, 0, 0)" stroke="rgb(204, 204, 204)" stroke-width="1px"></line><line x1="48.875" y1="157.33333333333178" x2="43.875" y2="157.33333333333178" style="visibility: inherit;" fill="rgb(0, 0, 0)" stroke="rgb(204, 204, 204)" stroke-width="1px"></line><line x1="48.875" y1="137.66666666666634" x2="43.875" y2="137.66666666666634" style="visibility: inherit;" fill="rgb(0, 0, 0)" stroke="rgb(204, 204, 204)" stroke-width="1px"></line><line x1="48.875" y1="118.00000000000092" x2="43.875" y2="118.00000000000092" style="visibility: inherit;" fill="rgb(0, 0, 0)" stroke="rgb(204, 204, 204)" stroke-width="1px"></line><line x1="48.875" y1="98.3333333333327" x2="43.875" y2="98.3333333333327" style="visibility: inherit;" fill="rgb(0, 0, 0)" stroke="rgb(204, 204, 204)" stroke-width="1px"></line><line x1="48.875" y1="78.6666666666673" x2="43.875" y2="78.6666666666673" style="visibility: inherit;" fill="rgb(0, 0, 0)" stroke="rgb(204, 204, 204)" stroke-width="1px"></line><line x1="48.875" y1="58.99999999999906" x2="43.875" y2="58.99999999999906" style="visibility: inherit;" fill="rgb(0, 0, 0)" stroke="rgb(204, 204, 204)" stroke-width="1px"></line><line x1="48.875" y1="39.333333333333655" x2="43.875" y2="39.333333333333655" style="visibility: inherit;" fill="rgb(0, 0, 0)" stroke="rgb(204, 204, 204)" stroke-width="1px"></line><line x1="48.875" y1="19.66666666666822" x2="43.875" y2="19.66666666666822" style="visibility: inherit;" fill="rgb(0, 0, 0)" stroke="rgb(204, 204, 204)" stroke-width="1px"></line><line x1="48.875" y1="0" x2="43.875" y2="0" style="visibility: inherit;" fill="rgb(0, 0, 0)" stroke="rgb(204, 204, 204)" stroke-width="1px"></line></g><g transform="translate(38.875, 0)"><text x="0" y="177" dx="0em" dy="0.3em" style="text-anchor: end; visibility: hidden; font-family: &quot;Helvetica Neue&quot;, sans-serif; font-size: 12px; font-weight: 200;" fill="rgb(50, 49, 63)" stroke="none" stroke-width="1px">99.3</text><text x="0" y="157.33333333333178" dx="0em" dy="0.3em" style="text-anchor: end; visibility: inherit; font-family: &quot;Helvetica Neue&quot;, sans-serif; font-size: 12px; font-weight: 200;" fill="rgb(50, 49, 63)" stroke="none" stroke-width="1px">99.4</text><text x="0" y="137.66666666666634" dx="0em" dy="0.3em" style="text-anchor: end; visibility: hidden; font-family: &quot;Helvetica Neue&quot;, sans-serif; font-size: 12px; font-weight: 200;" fill="rgb(50, 49, 63)" stroke="none" stroke-width="1px">99.5</text><text x="0" y="118.00000000000092" dx="0em" dy="0.3em" style="text-anchor: end; visibility: inherit; font-family: &quot;Helvetica Neue&quot;, sans-serif; font-size: 12px; font-weight: 200;" fill="rgb(50, 49, 63)" stroke="none" stroke-width="1px">99.6</text><text x="0" y="98.3333333333327" dx="0em" dy="0.3em" style="text-anchor: end; visibility: hidden; font-family: &quot;Helvetica Neue&quot;, sans-serif; font-size: 12px; font-weight: 200;" fill="rgb(50, 49, 63)" stroke="none" stroke-width="1px">99.7</text><text x="0" y="78.6666666666673" dx="0em" dy="0.3em" style="text-anchor: end; visibility: inherit; font-family: &quot;Helvetica Neue&quot;, sans-serif; font-size: 12px; font-weight: 200;" fill="rgb(50, 49, 63)" stroke="none" stroke-width="1px">99.8</text><text x="0" y="58.99999999999906" dx="0em" dy="0.3em" style="text-anchor: end; visibility: hidden; font-family: &quot;Helvetica Neue&quot;, sans-serif; font-size: 12px; font-weight: 200;" fill="rgb(50, 49, 63)" stroke="none" stroke-width="1px">99.9</text><text x="0" y="39.333333333333655" dx="0em" dy="0.3em" style="text-anchor: end; visibility: inherit; font-family: &quot;Helvetica Neue&quot;, sans-serif; font-size: 12px; font-weight: 200;" fill="rgb(50, 49, 63)" stroke="none" stroke-width="1px">100</text><text x="0" y="19.66666666666822" dx="0em" dy="0.3em" style="text-anchor: end; visibility: hidden; font-family: &quot;Helvetica Neue&quot;, sans-serif; font-size: 12px; font-weight: 200;" fill="rgb(50, 49, 63)" stroke="none" stroke-width="1px">100</text><text x="0" y="0" dx="0em" dy="0.3em" style="text-anchor: end; visibility: hidden; font-family: &quot;Helvetica Neue&quot;, sans-serif; font-size: 12px; font-weight: 200;" fill="rgb(50, 49, 63)" stroke="none" stroke-width="1px">100</text></g><line x1="48.875" y1="0" x2="48.875" y2="177" fill="rgb(0, 0, 0)" stroke="rgb(204, 204, 204)" stroke-width="1px"></line></g></g><g transform="translate(48, 0)" clip-path="url(#clip_0)"><clipPath id="clip_0"><rect width="281" height="177"></rect></clipPath><g><g><g><line x1="0" y1="0" x2="0" y2="177" fill="rgb(0, 0, 0)" stroke="rgb(60, 60, 60)" stroke-width="1px" opacity="0.25"></line><line x1="25.556818181818183" y1="0" x2="25.556818181818183" y2="177" fill="rgb(0, 0, 0)" stroke="rgb(60, 60, 60)" stroke-width="1px" opacity="0.25"></line><line x1="51.11363636363637" y1="0" x2="51.11363636363637" y2="177" fill="rgb(0, 0, 0)" stroke="rgb(60, 60, 60)" stroke-width="1px" opacity="0.25"></line><line x1="76.67045454545455" y1="0" x2="76.67045454545455" y2="177" fill="rgb(0, 0, 0)" stroke="rgb(60, 60, 60)" stroke-width="1px" opacity="0.25"></line><line x1="102.22727272727273" y1="0" x2="102.22727272727273" y2="177" fill="rgb(0, 0, 0)" stroke="rgb(60, 60, 60)" stroke-width="1px" opacity="0.25"></line><line x1="127.7840909090909" y1="0" x2="127.7840909090909" y2="177" fill="rgb(0, 0, 0)" stroke="rgb(60, 60, 60)" stroke-width="1px" opacity="0.25"></line><line x1="153.3409090909091" y1="0" x2="153.3409090909091" y2="177" fill="rgb(0, 0, 0)" stroke="rgb(60, 60, 60)" stroke-width="1px" opacity="0.25"></line><line x1="178.89772727272728" y1="0" x2="178.89772727272728" y2="177" fill="rgb(0, 0, 0)" stroke="rgb(60, 60, 60)" stroke-width="1px" opacity="0.25"></line><line x1="204.45454545454547" y1="0" x2="204.45454545454547" y2="177" fill="rgb(0, 0, 0)" stroke="rgb(60, 60, 60)" stroke-width="1px" opacity="0.25"></line><line x1="230.01136363636365" y1="0" x2="230.01136363636365" y2="177" fill="rgb(0, 0, 0)" stroke="rgb(60, 60, 60)" stroke-width="1px" opacity="0.25"></line><line x1="255.5681818181818" y1="0" x2="255.5681818181818" y2="177" fill="rgb(0, 0, 0)" stroke="rgb(60, 60, 60)" stroke-width="1px" opacity="0.25"></line><line x1="281.125" y1="0" x2="281.125" y2="177" fill="rgb(0, 0, 0)" stroke="rgb(60, 60, 60)" stroke-width="1px" opacity="0.25"></line></g><g><line x1="0" y1="177" x2="281.125" y2="177" fill="rgb(0, 0, 0)" stroke="rgb(60, 60, 60)" stroke-width="1px" opacity="0.25"></line><line x1="0" y1="157.33333333333178" x2="281.125" y2="157.33333333333178" fill="rgb(0, 0, 0)" stroke="rgb(60, 60, 60)" stroke-width="1px" opacity="0.25"></line><line x1="0" y1="137.66666666666634" x2="281.125" y2="137.66666666666634" fill="rgb(0, 0, 0)" stroke="rgb(60, 60, 60)" stroke-width="1px" opacity="0.25"></line><line x1="0" y1="118.00000000000092" x2="281.125" y2="118.00000000000092" fill="rgb(0, 0, 0)" stroke="rgb(60, 60, 60)" stroke-width="1px" opacity="0.25"></line><line x1="0" y1="98.3333333333327" x2="281.125" y2="98.3333333333327" fill="rgb(0, 0, 0)" stroke="rgb(60, 60, 60)" stroke-width="1px" opacity="0.25"></line><line x1="0" y1="78.6666666666673" x2="281.125" y2="78.6666666666673" fill="rgb(0, 0, 0)" stroke="rgb(60, 60, 60)" stroke-width="1px" opacity="0.25"></line><line x1="0" y1="58.99999999999906" x2="281.125" y2="58.99999999999906" fill="rgb(0, 0, 0)" stroke="rgb(60, 60, 60)" stroke-width="1px" opacity="0.25"></line><line x1="0" y1="39.333333333333655" x2="281.125" y2="39.333333333333655" fill="rgb(0, 0, 0)" stroke="rgb(60, 60, 60)" stroke-width="1px" opacity="0.25"></line><line x1="0" y1="19.66666666666822" x2="281.125" y2="19.66666666666822" fill="rgb(0, 0, 0)" stroke="rgb(60, 60, 60)" stroke-width="1px" opacity="0.25"></line><line x1="0" y1="0" x2="281.125" y2="0" fill="rgb(0, 0, 0)" stroke="rgb(60, 60, 60)" stroke-width="1px" opacity="0.25"></line></g></g></g><g><g><line x1="0" y1="19705.999999999876" x2="281.125" y2="19705.999999999876" fill="rgb(0, 0, 0)" stroke="rgb(153, 153, 153)" stroke-width="1.5px"></line></g></g><g><g><line x1="25.556818181818183" y1="0" x2="25.556818181818183" y2="177" fill="rgb(0, 0, 0)" stroke="rgb(153, 153, 153)" stroke-width="1.5px"></line></g></g><g><g><g><g><g><path stroke="rgb(187, 187, 187)" stroke-width="2px" d="M25.812386363636364,311.0643920898424L26.067954545454544,96.95052083333327L26.323522727272728,48.185974121094006L26.579090909090908,39.93351236979197L26.834659090909092,39.333333333333655L27.090227272727272,39.333333333333655L27.345795454545456,39.333333333333655L27.601363636363633,39.48337809244822L27.856931818181817,39.333333333333655L28.1125,39.333333333333655L28.36806818181818,39.333333333333655L28.623636363636365,39.333333333333655L28.879204545454545,39.48337809244822L29.13477272727273,39.48337809244822L29.390340909090906,39.333333333333655L29.64590909090909,39.333333333333655L29.901477272727274,39.333333333333655L30.157045454545454,39.48337809244822L30.412613636363638,39.333333333333655L30.668181818181818,39.333333333333655L30.923750000000002,39.333333333333655L31.179318181818182,39.333333333333655L31.434886363636362,39.333333333333655L31.690454545454546,39.333333333333655L31.946022727272727,39.333333333333655L32.20159090909091,39.48337809244822L32.45715909090909,39.48337809244822L32.71272727272727,39.333333333333655L32.968295454545455,39.48337809244822L33.22386363636364,39.333333333333655L33.47943181818182,39.333333333333655L33.735,39.333333333333655L33.99056818181818,39.333333333333655L34.24613636363636,39.333333333333655L34.501704545454544,39.78346761067738L34.75727272727273,39.333333333333655L35.01284090909091,39.333333333333655L35.26840909090909,39.333333333333655L35.52397727272727,39.333333333333655L35.77954545454545,39.333333333333655L36.03511363636363,39.48337809244822L36.29068181818182,39.48337809244822L36.54625,39.333333333333655L36.801818181818184,39.333333333333655L37.05738636363636,39.333333333333655L37.312954545454545,39.48337809244822L37.56852272727273,39.333333333333655L37.82409090909091,39.333333333333655L38.0796590909091,39.333333333333655L38.33522727272727,39.333333333333655L38.59079545454545,39.333333333333655L38.846363636363634,39.333333333333655L39.10193181818182,39.333333333333655L39.3575,39.333333333333655L39.61306818181818,39.333333333333655L39.86863636363636,39.48337809244822L40.124204545454546,39.333333333333655L40.37977272727273,39.333333333333655L40.63534090909091,39.333333333333655L40.89090909090909,39.333333333333655L41.146477272727275,39.333333333333655L41.40204545454546,39.333333333333655L41.65761363636364,39.333333333333655L41.91318181818181,39.48337809244822L42.168749999999996,39.63342285156281L42.42431818181818,39.333333333333655L42.67988636363636,39.333333333333655L42.93545454545455,39.333333333333655L43.191022727272724,39.333333333333655L43.44659090909091,39.48337809244822L43.70215909090909,39.333333333333655L43.957727272727276,39.333333333333655L44.21329545454546,39.78346761067738L44.468863636363636,39.333333333333655L44.72443181818182,39.333333333333655L44.980000000000004,39.333333333333655L45.23556818181819,39.333333333333655L45.49113636363636,39.48337809244822L45.74670454545454,39.333333333333655L46.002272727272725,39.333333333333655L46.25784090909091,39.333333333333655L46.51340909090909,39.333333333333655L46.76897727272727,39.333333333333655L47.02454545454545,39.48337809244822L47.28011363636364,39.333333333333655L47.53568181818182,39.333333333333655L47.791250000000005,39.48337809244822L48.04681818181818,39.333333333333655L48.302386363636366,39.333333333333655L48.55795454545454,39.333333333333655L48.813522727272726,39.48337809244822L49.06909090909091,39.333333333333655L49.32465909090909,39.333333333333655L49.58022727272727,39.63342285156281L49.835795454545455,39.333333333333655L50.09136363636364,39.48337809244822L50.346931818181815,39.333333333333655L50.6025,39.333333333333655L50.85806818181818,39.333333333333655L51.11363636363637,39.333333333333655L51.36920454545455,39.333333333333655L51.62477272727273,39.333333333333655L51.880340909090904,39.333333333333655L52.13590909090909,39.48337809244822L52.39147727272727,39.333333333333655L52.647045454545456,39.333333333333655L52.90261363636363,39.333333333333655L53.158181818181816,39.333333333333655L53.41375,39.48337809244822L53.669318181818184,39.333333333333655L53.92488636363636,39.333333333333655L54.180454545454545,39.333333333333655L54.43602272727273,39.48337809244822L54.69159090909091,39.333333333333655L54.947159090909096,39.333333333333655L55.202727272727266,39.333333333333655L55.45829545454545,39.48337809244822L55.713863636363634,39.48337809244822L55.96943181818182,39.333333333333655L56.225,39.333333333333655L56.48056818181818,39.48337809244822L56.73613636363636,39.333333333333655L56.991704545454546,39.333333333333655L57.24727272727273,39.333333333333655L57.502840909090914,39.333333333333655L57.75840909090909,39.333333333333655L58.013977272727274,39.333333333333655L58.26954545454546,39.333333333333655L58.52511363636364,39.333333333333655L58.78068181818181,39.333333333333655L59.036249999999995,39.333333333333655L59.29181818181818,39.333333333333655L59.54738636363636,39.333333333333655L59.80295454545455,39.333333333333655L60.058522727272724,39.333333333333655L60.31409090909091,39.333333333333655L60.56965909090909,39.333333333333655L60.825227272727275,39.48337809244822L61.08079545454546,39.333333333333655L61.336363636363636,39.333333333333655L61.59193181818182,39.333333333333655L61.847500000000004,39.333333333333655L62.10306818181818,39.333333333333655L62.358636363636364,39.333333333333655L62.61420454545454,39.333333333333655L62.869772727272725,39.333333333333655L63.12534090909091,39.333333333333655L63.38090909090909,39.48337809244822L63.63647727272727,39.333333333333655L63.89204545454545,39.48337809244822L64.14761363636363,39.333333333333655L64.40318181818182,39.333333333333655L64.65875,39.333333333333655L64.91431818181817,39.78346761067738L65.16988636363637,39.333333333333655L65.42545454545454,39.333333333333655L65.68102272727273,39.333333333333655L65.93659090909091,39.333333333333655L66.19215909090909,39.333333333333655L66.44772727272728,39.333333333333655L66.70329545454545,39.333333333333655L66.95886363636365,39.333333333333655L67.21443181818182,39.63342285156281L67.47,39.333333333333655L67.72556818181818,39.333333333333655L67.98113636363637,39.333333333333655L68.23670454545454,39.333333333333655L68.49227272727272,39.63342285156281L68.74784090909091,39.48337809244822L69.00340909090909,39.333333333333655L69.25897727272728,39.333333333333655L69.51454545454546,39.48337809244822L69.77011363636363,39.333333333333655L70.02568181818182,39.333333333333655L70.28125,39.333333333333655L70.53681818181818,39.333333333333655L70.79238636363637,39.48337809244822L71.04795454545454,39.333333333333655L71.30352272727274,39.48337809244822L71.5590909090909,39.48337809244822L71.81465909090909,39.333333333333655L72.07022727272727,39.48337809244822L72.32579545454546,39.48337809244822L72.58136363636363,39.333333333333655L72.83693181818182,39.333333333333655L73.0925,39.333333333333655L73.34806818181819,39.333333333333655L73.60363636363637,39.333333333333655L73.85920454545456,39.333333333333655L74.11477272727272,39.333333333333655L74.3703409090909,39.333333333333655L74.62590909090909,39.48337809244822L74.88147727272727,39.333333333333655L75.13704545454546,39.48337809244822L75.39261363636363,39.333333333333655L75.64818181818183,39.333333333333655L75.90375,39.333333333333655L76.1593181818182,39.48337809244822L76.41488636363636,39.333333333333655L76.67045454545455,39.48337809244822L76.92602272727272,39.333333333333655L77.1815909090909,39.333333333333655L77.43715909090909,39.333333333333655L77.69272727272727,39.333333333333655L77.94829545454546,39.333333333333655L78.20386363636364,39.333333333333655L78.45943181818183,39.333333333333655L78.715,39.333333333333655L78.97056818181818,39.333333333333655L79.22613636363636,39.333333333333655L79.48170454545455,39.333333333333655L79.73727272727272,39.333333333333655L79.99284090909092,39.333333333333655L80.24840909090909,39.333333333333655L80.50397727272727,39.333333333333655L80.75954545454546,39.333333333333655L81.01511363636364,39.333333333333655L81.27068181818181,39.333333333333655L81.52624999999999,39.333333333333655L81.78181818181818,39.48337809244822L82.03738636363636,39.78346761067738L82.29295454545455,39.333333333333655L82.54852272727273,39.333333333333655L82.80409090909092,39.333333333333655L83.0596590909091,39.333333333333655L83.31522727272728,39.333333333333655L83.57079545454546,39.333333333333655L83.82636363636362,39.333333333333655L84.08193181818181,39.333333333333655L84.33749999999999,39.333333333333655L84.59306818181818,39.333333333333655L84.84863636363636,39.63342285156281L85.10420454545455,39.333333333333655L85.35977272727273,39.333333333333655L85.61534090909092,39.333333333333655L85.8709090909091,39.333333333333655L86.12647727272727,39.48337809244822L86.38204545454545,39.48337809244822L86.63761363636364,39.333333333333655L86.89318181818182,39.333333333333655L87.14874999999999,39.333333333333655L87.40431818181818,39.333333333333655L87.65988636363636,39.48337809244822L87.91545454545455,39.48337809244822L88.17102272727273,39.333333333333655L88.42659090909092,39.333333333333655L88.68215909090908,39.333333333333655L88.93772727272727,39.333333333333655L89.19329545454545,39.333333333333655L89.44886363636364,39.333333333333655L89.70443181818182,39.333333333333655L89.96000000000001,39.333333333333655L90.21556818181818,39.48337809244822L90.47113636363638,39.333333333333655L90.72670454545455,39.333333333333655L90.98227272727271,39.333333333333655L91.2378409090909,39.333333333333655L91.49340909090908,39.48337809244822L91.74897727272727,39.333333333333655L92.00454545454545,39.333333333333655L92.26011363636364,39.333333333333655L92.51568181818182,39.333333333333655L92.77125000000001,39.333333333333655L93.02681818181819,39.333333333333655L93.28238636363638,39.333333333333655L93.53795454545454,39.333333333333655L93.79352272727272,39.333333333333655L94.0490909090909,39.333333333333655L94.30465909090908,39.333333333333655L94.56022727272727,39.333333333333655L94.81579545454545,39.333333333333655L95.07136363636364,39.333333333333655L95.32693181818182,39.333333333333655L95.58250000000001,39.333333333333655L95.83806818181817,39.333333333333655L96.09363636363636,39.333333333333655L96.34920454545454,39.63342285156281L96.60477272727273,39.333333333333655L96.86034090909091,39.333333333333655L97.11590909090908,39.333333333333655L97.37147727272728,39.333333333333655L97.62704545454545,39.333333333333655L97.88261363636364,39.333333333333655L98.13818181818182,39.333333333333655L98.39375,39.333333333333655L98.64931818181817,39.333333333333655L98.90488636363636,39.48337809244822L99.16045454545454,39.333333333333655L99.41602272727273,39.333333333333655L99.67159090909091,39.333333333333655L99.9271590909091,39.333333333333655L100.18272727272728,39.333333333333655L100.43829545454547,39.333333333333655L100.69386363636363,39.333333333333655L100.94943181818181,39.333333333333655L101.205,39.63342285156281L101.46056818181818,39.333333333333655L101.71613636363637,39.333333333333655L101.97170454545454,39.333333333333655L102.22727272727273,39.333333333333655L102.48284090909091,39.333333333333655L102.7384090909091,39.333333333333655L102.99397727272728,39.48337809244822L103.24954545454545,39.333333333333655L103.50511363636363,39.333333333333655L103.76068181818181,39.333333333333655L104.01625,39.333333333333655L104.27181818181818,39.333333333333655L104.52738636363637,39.333333333333655L104.78295454545454,39.333333333333655L105.03852272727273,39.48337809244822L105.29409090909091,39.333333333333655L105.54965909090909,39.333333333333655L105.80522727272727,39.333333333333655L106.06079545454546,39.333333333333655L106.31636363636363,39.48337809244822L106.57193181818182,39.333333333333655L106.8275,39.333333333333655L107.08306818181819,39.333333333333655L107.33863636363637,39.333333333333655L107.59420454545455,39.333333333333655L107.84977272727272,39.333333333333655L108.1053409090909,39.333333333333655L108.36090909090909,39.333333333333655L108.61647727272727,39.48337809244822L108.87204545454546,39.333333333333655L109.12761363636363,39.48337809244822L109.38318181818182,39.333333333333655L109.63875,39.333333333333655L109.89431818181819,39.333333333333655L110.14988636363637,39.48337809244822L110.40545454545453,39.333333333333655L110.66102272727272,39.333333333333655L110.9165909090909,39.333333333333655L111.17215909090909,39.333333333333655L111.42772727272727,39.333333333333655L111.68329545454546,39.333333333333655L111.93886363636364,39.333333333333655L112.19443181818183,39.333333333333655L112.45,39.78346761067738L112.70556818181818,39.333333333333655L112.96113636363636,39.333333333333655L113.21670454545455,39.333333333333655L113.47227272727272,39.333333333333655L113.72784090909092,39.333333333333655L113.98340909090909,39.333333333333655L114.23897727272727,39.333333333333655L114.49454545454546,39.333333333333655L114.75011363636364,39.333333333333655L115.00568181818183,39.333333333333655L115.26124999999999,39.48337809244822L115.51681818181818,39.93351236979197L115.77238636363636,39.48337809244822L116.02795454545455,39.333333333333655L116.28352272727273,39.63342285156281L116.53909090909092,39.333333333333655L116.7946590909091,39.333333333333655L117.05022727272728,39.48337809244822L117.30579545454546,39.48337809244822L117.56136363636362,39.333333333333655L117.81693181818181,39.333333333333655L118.07249999999999,39.333333333333655L118.32806818181818,39.333333333333655L118.58363636363636,39.333333333333655L118.83920454545455,39.48337809244822L119.09477272727273,39.333333333333655L119.35034090909092,39.333333333333655L119.6059090909091,39.333333333333655L119.86147727272729,39.333333333333655L120.11704545454545,39.48337809244822L120.37261363636362,39.48337809244822L120.62818181818182,39.48337809244822L120.88374999999999,39.333333333333655L121.13931818181818,39.333333333333655L121.39488636363636,39.333333333333655L121.65045454545455,39.48337809244822L121.90602272727273,39.333333333333655L122.16159090909092,39.333333333333655L122.41715909090908,39.333333333333655L122.67272727272727,39.333333333333655L122.92829545454545,39.63342285156281L123.18386363636364,39.333333333333655L123.43943181818182,39.333333333333655L123.69500000000001,39.333333333333655L123.95056818181818,39.333333333333655L124.20613636363636,39.333333333333655L124.46170454545455,39.333333333333655L124.71727272727273,39.333333333333655L124.9728409090909,39.333333333333655L125.22840909090908,39.333333333333655L125.48397727272727,39.333333333333655L125.73954545454545,39.333333333333655L125.99511363636364,39.333333333333655L126.25068181818182,39.333333333333655L126.50625000000001,39.333333333333655L126.76181818181819,39.333333333333655L127.01738636363638,39.333333333333655L127.27295454545454,39.333333333333655L127.52852272727272,39.48337809244822L127.7840909090909,39.333333333333655L128.03965909090908,39.333333333333655L128.29522727272726,39.333333333333655L128.55079545454547,39.333333333333655L128.80636363636364,39.333333333333655L129.06193181818182,39.333333333333655L129.3175,39.333333333333655L129.5730681818182,39.333333333333655L129.82863636363635,39.333333333333655L130.08420454545455,39.333333333333655L130.33977272727273,39.48337809244822L130.5953409090909,39.333333333333655L130.85090909090908,39.333333333333655L131.10647727272726,39.333333333333655L131.36204545454547,39.333333333333655L131.61761363636364,39.333333333333655L131.87318181818182,39.333333333333655L132.12875,39.333333333333655L132.38431818181817,39.333333333333655L132.63988636363635,39.48337809244822L132.89545454545456,39.63342285156281L133.15102272727273,39.48337809244822L133.4065909090909,39.333333333333655L133.66215909090909,39.333333333333655L133.9177272727273,39.333333333333655L134.17329545454547,39.48337809244822L134.42886363636364,39.333333333333655L134.68443181818182,39.333333333333655L134.94,39.333333333333655L135.19556818181817,39.333333333333655L135.45113636363635,39.333333333333655L135.70670454545456,39.333333333333655L135.96227272727273,39.48337809244822L136.2178409090909,39.333333333333655L136.4734090909091,39.63342285156281L136.7289772727273,39.63342285156281L136.98454545454544,39.333333333333655L137.24011363636362,39.333333333333655L137.49568181818182,39.333333333333655L137.75125,39.333333333333655L138.00681818181818,39.333333333333655L138.26238636363635,39.48337809244822L138.51795454545456,39.333333333333655L138.77352272727273,39.63342285156281L139.0290909090909,39.333333333333655L139.2846590909091,39.333333333333655L139.54022727272726,39.333333333333655L139.79579545454544,39.48337809244822L140.05136363636365,39.333333333333655L140.30693181818182,39.333333333333655L140.5625,39.333333333333655L140.81806818181818,39.333333333333655L141.07363636363635,39.333333333333655L141.32920454545453,39.333333333333655L141.58477272727274,39.333333333333655L141.8403409090909,39.333333333333655L142.0959090909091,39.333333333333655L142.35147727272727,39.333333333333655L142.60704545454547,39.333333333333655L142.86261363636365,39.333333333333655L143.1181818181818,39.333333333333655L143.37375,39.333333333333655L143.62931818181818,39.333333333333655L143.88488636363638,39.48337809244822L144.14045454545453,39.333333333333655L144.39602272727274,39.333333333333655L144.6515909090909,39.333333333333655L144.9071590909091,39.333333333333655L145.16272727272727,39.63342285156281L145.41829545454544,39.63342285156281L145.67386363636365,39.333333333333655L145.9294318181818,39.333333333333655L146.185,39.333333333333655L146.44056818181818,39.48337809244822L146.69613636363638,39.48337809244822L146.95170454545453,39.333333333333655L147.20727272727274,39.333333333333655L147.46284090909091,39.333333333333655L147.71840909090912,39.333333333333655L147.97397727272727,39.333333333333655L148.22954545454544,39.333333333333655L148.48511363636365,39.333333333333655L148.7406818181818,39.333333333333655L148.99625,39.48337809244822L149.25181818181818,39.333333333333655L149.50738636363639,39.333333333333655L149.76295454545453,39.333333333333655L150.01852272727274,39.333333333333655L150.27409090909092,39.333333333333655L150.52965909090906,39.333333333333655L150.78522727272727,39.333333333333655L151.04079545454545,39.333333333333655L151.29636363636365,39.333333333333655L151.5519318181818,39.333333333333655L151.8075,39.333333333333655L152.06306818181818,39.333333333333655L152.3186363636364,39.333333333333655L152.57420454545453,39.333333333333655L152.8297727272727,39.333333333333655L153.08534090909092,39.333333333333655L153.3409090909091,39.333333333333655L153.59647727272727,39.333333333333655L153.85204545454545,39.78346761067738L154.10761363636365,39.333333333333655L154.3631818181818,39.333333333333655L154.61875,39.333333333333655L154.87431818181818,39.333333333333655L155.12988636363636,39.333333333333655L155.38545454545454,39.333333333333655L155.6410227272727,39.333333333333655L155.89659090909092,39.333333333333655L156.1521590909091,39.333333333333655L156.40772727272727,39.333333333333655L156.66329545454545,39.333333333333655L156.91886363636365,39.333333333333655L157.17443181818183,39.333333333333655L157.43,39.333333333333655L157.68556818181818,39.333333333333655L157.94113636363636,39.333333333333655L158.19670454545454,39.333333333333655L158.4522727272727,39.333333333333655L158.70784090909092,39.48337809244822L158.9634090909091,39.48337809244822L159.21897727272727,39.333333333333655L159.47454545454545,39.48337809244822L159.73011363636365,39.333333333333655L159.98568181818183,39.333333333333655L160.24124999999998,39.78346761067738L160.49681818181818,39.333333333333655L160.75238636363636,39.333333333333655L161.00795454545454,39.333333333333655L161.26352272727271,39.48337809244822L161.51909090909092,39.333333333333655L161.7746590909091,39.333333333333655L162.03022727272727,39.48337809244822L162.28579545454545,39.333333333333655L162.54136363636363,39.333333333333655L162.79693181818183,39.333333333333655L163.05249999999998,39.48337809244822L163.3080681818182,39.63342285156281L163.56363636363636,39.48337809244822L163.81920454545457,39.333333333333655L164.07477272727272,39.63342285156281L164.33034090909092,39.333333333333655L164.5859090909091,39.48337809244822L164.84147727272725,39.333333333333655L165.09704545454545,39.333333333333655L165.35261363636363,39.333333333333655L165.60818181818183,39.333333333333655L165.86374999999998,39.48337809244822L166.1193181818182,39.48337809244822L166.37488636363636,39.333333333333655L166.63045454545457,39.63342285156281L166.88602272727272,39.333333333333655L167.14159090909092,39.333333333333655L167.3971590909091,39.333333333333655L167.65272727272725,39.333333333333655L167.90829545454545,39.333333333333655L168.16386363636363,39.333333333333655L168.41943181818183,39.333333333333655L168.67499999999998,39.48337809244822L168.9305681818182,39.333333333333655L169.18613636363636,39.333333333333655L169.44170454545457,39.333333333333655L169.69727272727272,39.333333333333655L169.9528409090909,39.48337809244822L170.2084090909091,39.333333333333655L170.46397727272725,39.333333333333655L170.71954545454545,39.333333333333655L170.97511363636363,39.333333333333655L171.23068181818184,39.333333333333655L171.48624999999998,39.48337809244822L171.7418181818182,39.333333333333655L171.99738636363637,39.333333333333655L172.25295454545454,39.48337809244822L172.50852272727272,39.333333333333655L172.7640909090909,39.333333333333655L173.0196590909091,39.333333333333655L173.27522727272728,39.333333333333655L173.53079545454545,39.333333333333655L173.78636363636363,39.48337809244822L174.04193181818184,39.333333333333655L174.29749999999999,39.333333333333655L174.55306818181816,39.333333333333655L174.80863636363637,39.333333333333655L175.06420454545454,39.333333333333655L175.31977272727272,39.333333333333655L175.5753409090909,39.333333333333655L175.8309090909091,39.333333333333655L176.08647727272728,39.333333333333655L176.34204545454546,39.333333333333655L176.59761363636363,39.333333333333655L176.85318181818184,39.48337809244822L177.10875000000001,39.63342285156281L177.36431818181816,39.333333333333655L177.61988636363637,39.48337809244822L177.87545454545455,39.333333333333655L178.13102272727272,39.48337809244822L178.3865909090909,39.48337809244822L178.6421590909091,39.333333333333655L178.89772727272728,39.333333333333655L179.15329545454546,39.333333333333655L179.40886363636363,39.333333333333655L179.6644318181818,39.333333333333655L179.92000000000002,39.48337809244822L180.17556818181816,39.333333333333655L180.43113636363637,39.333333333333655L180.68670454545455,39.333333333333655L180.94227272727275,39.333333333333655L181.1978409090909,39.333333333333655L181.4534090909091,39.63342285156281L181.70897727272728,39.333333333333655L181.96454545454543,39.333333333333655L182.22011363636364,39.333333333333655L182.4756818181818,39.333333333333655L182.73125000000002,39.333333333333655L182.98681818181817,39.333333333333655L183.24238636363637,39.333333333333655L183.49795454545455,39.333333333333655L183.75352272727275,39.333333333333655L184.0090909090909,39.333333333333655L184.26465909090908,39.333333333333655L184.52022727272728,39.333333333333655L184.77579545454543,39.333333333333655L185.03136363636364,39.333333333333655L185.2869318181818,39.333333333333655L185.54250000000002,39.333333333333655L185.79806818181817,39.48337809244822L186.05363636363637,39.333333333333655L186.30920454545455,39.333333333333655L186.56477272727275,39.333333333333655L186.8203409090909,39.48337809244822L187.07590909090908,39.333333333333655L187.33147727272728,39.333333333333655L187.58704545454543,39.333333333333655L187.84261363636364,39.333333333333655L188.0981818181818,39.333333333333655L188.35375000000002,39.333333333333655L188.60931818181817,39.333333333333655L188.86488636363637,39.333333333333655L189.12045454545455,39.333333333333655L189.37602272727273,39.333333333333655L189.6315909090909,39.333333333333655L189.88715909090908,39.333333333333655L190.14272727272729,39.333333333333655L190.39829545454546,39.333333333333655L190.65386363636364,39.63342285156281L190.90943181818182,39.333333333333655L191.16500000000002,39.333333333333655L191.42056818181817,39.333333333333655L191.67613636363635,39.333333333333655L191.93170454545455,39.333333333333655L192.18727272727273,39.333333333333655L192.4428409090909,39.333333333333655L192.69840909090908,39.333333333333655L192.9539772727273,39.333333333333655L193.20954545454546,39.333333333333655L193.46511363636364,39.333333333333655L193.72068181818182,39.333333333333655L193.97625,39.333333333333655L194.23181818181817,39.333333333333655L194.48738636363635,39.333333333333655L194.74295454545455,39.333333333333655L194.99852272727273,39.333333333333655L195.2540909090909,39.333333333333655L195.50965909090908,39.333333333333655L195.7652272727273,39.48337809244822L196.02079545454546,39.333333333333655L196.27636363636364,39.63342285156281L196.53193181818182,39.333333333333655L196.7875,39.48337809244822L197.0430681818182,39.333333333333655L197.29863636363635,39.333333333333655L197.55420454545455,39.333333333333655L197.80977272727273,39.333333333333655L198.0653409090909,39.333333333333655L198.32090909090908,39.333333333333655L198.5764772727273,39.48337809244822L198.83204545454547,39.333333333333655L199.0876136363636,39.333333333333655L199.34318181818182,39.333333333333655L199.59875,39.333333333333655L199.8543181818182,39.48337809244822L200.10988636363635,39.63342285156281L200.36545454545455,39.333333333333655L200.62102272727273,39.333333333333655L200.87659090909094,39.333333333333655L201.13215909090908,39.333333333333655L201.38772727272726,39.333333333333655L201.64329545454547,39.333333333333655L201.89886363636361,39.333333333333655L202.15443181818182,39.333333333333655L202.41,39.333333333333655L202.6655681818182,39.333333333333655L202.92113636363635,39.333333333333655L203.17670454545456,39.333333333333655L203.43227272727273,39.333333333333655L203.68784090909088,39.333333333333655L203.94340909090909,39.48337809244822L204.19897727272726,39.333333333333655L204.45454545454547,39.48337809244822L204.71011363636362,39.333333333333655L204.96568181818182,39.333333333333655L205.22125,39.333333333333655L205.4768181818182,39.48337809244822L205.73238636363635,39.333333333333655L205.98795454545456,39.333333333333655L206.24352272727273,39.333333333333655L206.4990909090909,39.333333333333655L206.7546590909091,39.333333333333655L207.01022727272726,39.333333333333655L207.26579545454547,39.333333333333655L207.52136363636362,39.333333333333655L207.77693181818182,39.333333333333655L208.0325,39.333333333333655L208.2880681818182,39.333333333333655L208.54363636363635,39.333333333333655L208.79920454545453,39.48337809244822L209.05477272727273,39.333333333333655L209.3103409090909,39.333333333333655L209.5659090909091,39.333333333333655L209.82147727272726,39.333333333333655L210.07704545454547,39.333333333333655L210.33261363636365,39.333333333333655L210.58818181818182,39.333333333333655L210.84375,39.333333333333655L211.09931818181818,39.333333333333655L211.35488636363635,39.63342285156281L211.61045454545453,39.333333333333655L211.86602272727274,39.333333333333655L212.1215909090909,39.48337809244822L212.3771590909091,39.333333333333655L212.63272727272727,39.333333333333655L212.88829545454547,39.333333333333655L213.14386363636365,39.333333333333655L213.3994318181818,39.48337809244822L213.655,39.48337809244822L213.91056818181818,39.333333333333655L214.16613636363638,39.333333333333655L214.42170454545453,39.333333333333655L214.67727272727274,39.78346761067738L214.9328409090909,39.333333333333655L215.1884090909091,39.333333333333655L215.44397727272727,39.48337809244822L215.69954545454544,39.48337809244822L215.95511363636365,39.333333333333655L216.2106818181818,39.333333333333655L216.46625,39.333333333333655L216.72181818181818,39.333333333333655L216.97738636363638,39.333333333333655L217.23295454545453,39.333333333333655L217.48852272727274,39.333333333333655L217.74409090909091,39.48337809244822L217.99965909090912,39.333333333333655L218.25522727272727,39.333333333333655L218.51079545454544,39.333333333333655L218.76636363636365,39.333333333333655L219.0219318181818,39.333333333333655L219.2775,39.333333333333655L219.53306818181818,39.333333333333655L219.78863636363639,39.333333333333655L220.04420454545453,39.333333333333655L220.29977272727274,39.333333333333655L220.55534090909092,39.333333333333655L220.81090909090906,39.333333333333655L221.06647727272727,39.333333333333655L221.32204545454545,39.333333333333655L221.57761363636365,39.333333333333655L221.8331818181818,39.48337809244822L222.08875,39.333333333333655L222.34431818181818,39.333333333333655L222.5998863636364,39.333333333333655L222.85545454545453,39.333333333333655L223.1110227272727,39.333333333333655L223.36659090909092,39.333333333333655L223.6221590909091,39.333333333333655L223.87772727272727,39.333333333333655L224.13329545454545,39.333333333333655L224.38886363636365,39.48337809244822L224.6444318181818,39.48337809244822L224.9,39.333333333333655L225.15556818181818,39.333333333333655L225.41113636363636,39.333333333333655L225.66670454545454,39.333333333333655L225.9222727272727,39.48337809244822L226.17784090909092,39.333333333333655L226.4334090909091,39.333333333333655L226.68897727272727,39.333333333333655L226.94454545454545,39.333333333333655L227.20011363636365,39.333333333333655L227.45568181818183,39.333333333333655L227.71125,39.333333333333655L227.96681818181818,39.333333333333655L228.22238636363636,39.333333333333655L228.47795454545454,39.333333333333655L228.7335227272727,39.333333333333655L228.98909090909092,39.333333333333655L229.2446590909091,39.333333333333655L229.50022727272727,39.333333333333655L229.75579545454545,39.333333333333655L230.01136363636365,39.333333333333655L230.26693181818183,39.333333333333655L230.52249999999998,39.48337809244822L230.77806818181818,39.333333333333655L231.03363636363636,39.333333333333655L231.28920454545454,39.333333333333655L231.54477272727271,39.333333333333655L231.80034090909092,39.333333333333655L232.0559090909091,39.333333333333655L232.31147727272727,39.48337809244822L232.56704545454545,39.333333333333655L232.82261363636363,39.333333333333655L233.07818181818183,39.333333333333655L233.33374999999998,39.333333333333655L233.5893181818182,39.333333333333655L233.84488636363636,39.333333333333655L234.10045454545457,39.333333333333655L234.35602272727272,39.333333333333655L234.61159090909092,39.333333333333655L234.8671590909091,39.333333333333655L235.12272727272725,39.333333333333655L235.37829545454545,39.48337809244822L235.63386363636363,39.333333333333655L235.88943181818183,39.333333333333655L236.14499999999998,39.333333333333655L236.4005681818182,39.333333333333655L236.65613636363636,39.333333333333655L236.91170454545457,39.333333333333655L237.16727272727272,39.333333333333655L237.42284090909092,39.333333333333655L237.6784090909091,39.333333333333655L237.93397727272725,39.333333333333655L238.18954545454545,39.333333333333655L238.44511363636363,39.333333333333655L238.70068181818183,39.333333333333655L238.95624999999998,39.333333333333655L239.2118181818182,39.48337809244822L239.46738636363636,39.333333333333655L239.72295454545457,39.333333333333655L239.97852272727272,39.333333333333655L240.2340909090909,39.48337809244822L240.4896590909091,39.78346761067738L240.74522727272725,39.333333333333655L241.00079545454545,39.48337809244822L241.25636363636363,39.333333333333655L241.51193181818184,39.333333333333655L241.76749999999998,39.48337809244822L242.0230681818182,39.333333333333655L242.27863636363637,39.333333333333655L242.53420454545454,39.333333333333655L242.78977272727272,39.333333333333655L243.0453409090909,39.48337809244822L243.3009090909091,39.333333333333655L243.55647727272728,39.333333333333655L243.81204545454545,39.333333333333655L244.06761363636363,39.63342285156281L244.32318181818184,39.333333333333655L244.57874999999999,39.333333333333655L244.83431818181816,39.333333333333655L245.08988636363637,39.333333333333655L245.34545454545454,39.333333333333655L245.60102272727272,39.333333333333655L245.8565909090909,39.63342285156281L246.1121590909091,39.333333333333655L246.36772727272728,39.333333333333655L246.62329545454546,39.333333333333655L246.87886363636363,39.333333333333655L247.13443181818184,39.333333333333655L247.39000000000001,39.333333333333655L247.64556818181816,39.333333333333655L247.90113636363637,39.333333333333655L248.15670454545455,39.333333333333655L248.41227272727272,39.333333333333655L248.6678409090909,39.333333333333655L248.9234090909091,39.63342285156281L249.17897727272728,39.48337809244822L249.43454545454546,39.333333333333655L249.69011363636363,39.333333333333655L249.9456818181818,39.333333333333655L250.20125000000002,39.333333333333655L250.45681818181816,39.333333333333655L250.71238636363637,39.333333333333655L250.96795454545455,39.333333333333655L251.22352272727275,39.333333333333655L251.4790909090909,39.48337809244822L251.7346590909091,39.333333333333655L251.99022727272728,39.333333333333655L252.24579545454543,39.333333333333655L252.50136363636364,39.333333333333655L252.7569318181818,39.333333333333655L253.01250000000002,39.333333333333655L253.26806818181817,39.333333333333655L253.52363636363637,39.333333333333655L253.77920454545455,39.333333333333655L254.03477272727275,39.333333333333655L254.2903409090909,39.333333333333655L254.54590909090908,39.333333333333655L254.80147727272728,39.333333333333655L255.05704545454543,39.333333333333655L255.31261363636364,39.333333333333655L255.5681818181818,39.333333333333655L255.82375000000002,39.333333333333655L256.07931818181817,39.333333333333655L256.3348863636364,39.333333333333655L256.5904545454545,39.333333333333655L256.8460227272727,39.333333333333655L257.10159090909093,39.48337809244822L257.3571590909091,39.333333333333655L257.6127272727273,39.333333333333655L257.86829545454543,39.48337809244822L258.12386363636364,39.333333333333655L258.3794318181818,39.333333333333655L258.635,39.333333333333655" style="fill: none;" fill="none"></path></g><g><path stroke="rgb(0, 119, 187)" stroke-width="2px" d="M30.668181818181818,346.13285319010254L33.22386363636364,176.999399820963L35.77954545454545,208.4667867024732L38.33522727272727,116.03321329752586L40.89090909090909,151.4332733154293L43.44659090909091,176.999399820963L46.002272727272725,161.26720682779901L48.55795454545454,210.4338734944654L51.11363636363637,222.23339335123615L53.669318181818184,123.90006001790343L56.225,123.90006001790343L58.78068181818181,184.86624654134053L61.336363636363636,190.7660064697259L63.89204545454545,175.03381347656196L66.44772727272728,145.5335133870439L69.00340909090909,212.3994598388664L71.5590909090909,147.5006001790361L74.11477272727272,139.63375345865853L76.67045454545455,159.30012003580686L79.22613636363636,163.23279317220005L81.78181818181818,121.93297322591124L84.33749999999999,149.4661865234371L86.89318181818182,175.03381347656196L89.44886363636364,106.19927978515614L92.00454545454545,119.96738688151021L94.56022727272727,108.16636657714831L97.11590909090908,110.13345336914048L99.67159090909091,114.0661265055337L102.22727272727273,143.56642659505172L104.78295454545454,210.4338734944654L107.33863636363637,133.73399353027315L109.89431818181819,167.1669667561844L112.45,125.86714680989559L115.00568181818183,129.7998199462888L117.56136363636362,165.19987996419223L120.11704545454545,125.86714680989559L122.67272727272727,131.76690673828097L125.22840909090908,104.2336934407551L127.7840909090909,116.03321329752586L130.33977272727273,149.4661865234371L132.89545454545456,106.19927978515614L135.45113636363635,176.999399820963L138.00681818181818,133.73399353027315L140.5625,100.29951985677076L143.1181818181818,110.13345336914048L145.67386363636365,127.83273315429662L148.22954545454544,108.16636657714831L150.78522727272727,143.56642659505172L153.3409090909091,106.19927978515614L153.85204545454545,119.96738688151021L154.3631818181818,116.03321329752586L154.87431818181818,129.7998199462888L155.38545454545454,145.5335133870439L155.89659090909092,147.5006001790361L156.40772727272727,125.86714680989559L156.91886363636365,121.93297322591124L157.43,121.93297322591124L157.94113636363636,106.19927978515614L158.4522727272727,151.4332733154293L158.9634090909091,96.36684672037755L159.47454545454545,143.56642659505172L159.98568181818183,104.2336934407551L160.49681818181818,96.36684672037755L161.00795454545454,135.69957987467419L161.51909090909092,149.4661865234371L162.03022727272727,94.39975992838538L162.54136363636363,131.76690673828097L163.05249999999998,110.13345336914048L163.56363636363636,116.03321329752586L164.07477272727272,102.26660664876293L164.5859090909091,178.96648661295515L165.09704545454545,157.33303324381467L165.60818181818183,119.96738688151021L166.1193181818182,184.86624654134053L166.63045454545457,155.36594645182248L167.14159090909092,114.0661265055337L167.65272727272725,94.39975992838538L168.16386363636363,129.7998199462888L168.67499999999998,102.26660664876293L169.18613636363636,173.06672668456977L169.69727272727272,112.10054016113266L170.2084090909091,135.69957987467419L170.71954545454545,149.4661865234371L171.23068181818184,147.5006001790361L171.7418181818182,112.10054016113266L172.25295454545454,141.59933980305956L172.7640909090909,135.69957987467419L173.27522727272728,121.93297322591124L173.78636363636363,96.36684672037755L174.29749999999999,121.93297322591124L174.80863636363637,157.33303324381467L175.31977272727272,108.16636657714831L175.8309090909091,98.33393351236973L176.34204545454546,112.10054016113266L176.85318181818184,110.13345336914048L177.36431818181816,149.4661865234371L177.87545454545455,139.63375345865853L178.3865909090909,121.93297322591124L178.89772727272728,114.0661265055337L179.40886363636363,90.46708679199217L179.92000000000002,121.93297322591124L180.43113636363637,110.13345336914048L180.94227272727275,133.73399353027315L181.4534090909091,108.16636657714831L181.96454545454543,123.90006001790343L182.4756818181818,116.03321329752586L182.98681818181817,98.33393351236973L183.49795454545455,192.7330932617181L184.0090909090909,102.26660664876293L184.52022727272728,155.36594645182248L185.03136363636364,147.5006001790361L185.54250000000002,184.86624654134053L186.05363636363637,119.96738688151021L186.56477272727275,121.93297322591124L187.07590909090908,108.16636657714831L187.58704545454543,151.4332733154293L188.0981818181818,102.26660664876293L188.60931818181817,108.16636657714831L189.12045454545455,125.86714680989559L189.6315909090909,98.33393351236973L190.14272727272729,243.86684672037663L190.65386363636364,98.33393351236973L191.16500000000002,112.10054016113266L191.67613636363635,90.46708679199217L192.18727272727273,149.4661865234371L192.69840909090908,100.29951985677076L193.20954545454546,108.16636657714831L193.72068181818182,108.16636657714831L194.23181818181817,129.7998199462888L194.74295454545455,96.36684672037755L195.2540909090909,116.03321329752586L195.7652272727273,125.86714680989559L196.27636363636364,114.0661265055337L196.7875,175.03381347656196L197.29863636363635,165.19987996419223L197.80977272727273,135.69957987467419L198.32090909090908,127.83273315429662L198.83204545454547,116.03321329752586L199.34318181818182,143.56642659505172L199.8543181818182,86.53291320800783L200.36545454545455,149.4661865234371L200.87659090909094,112.10054016113266L201.38772727272726,131.76690673828097L201.89886363636361,118.00030008951805L202.41,112.10054016113266L202.92113636363635,114.0661265055337L203.43227272727273,119.96738688151021L203.94340909090909,119.96738688151021L204.45454545454547,131.76690673828097L204.96568181818182,204.53261311848885L205.4768181818182,123.90006001790343L205.98795454545456,106.19927978515614L206.4990909090909,131.76690673828097L207.01022727272726,125.86714680989559L207.52136363636362,104.2336934407551L208.0325,86.53291320800783L208.54363636363635,194.70018005371026L209.05477272727273,149.4661865234371L209.5659090909091,186.83333333333272L210.07704545454547,169.13405354817658L210.58818181818182,114.0661265055337L211.09931818181818,216.33363342285077L211.61045454545453,118.00030008951805L212.1215909090909,96.36684672037755L212.63272727272727,151.4332733154293L213.14386363636365,143.56642659505172L213.655,112.10054016113266L214.16613636363638,116.03321329752586L214.67727272727274,129.7998199462888L215.1884090909091,96.36684672037755L215.69954545454544,80.63315327962245L216.2106818181818,165.19987996419223L216.72181818181818,86.53291320800783L217.23295454545453,125.86714680989559L217.74409090909091,98.33393351236973L218.25522727272727,104.2336934407551L218.76636363636365,153.40036010742148L219.2775,119.96738688151021L219.78863636363639,116.03321329752586L220.29977272727274,119.96738688151021L220.81090909090906,155.36594645182248L221.32204545454545,106.19927978515614L221.8331818181818,116.03321329752586L222.34431818181818,131.76690673828097L222.85545454545453,118.00030008951805L223.36659090909092,94.39975992838538L223.87772727272727,129.7998199462888L224.38886363636365,131.76690673828097L224.9,114.0661265055337L225.41113636363636,106.19927978515614L225.9222727272727,100.29951985677076L226.4334090909091,119.96738688151021L226.94454545454545,125.86714680989559L227.45568181818183,135.69957987467419L227.96681818181818,159.30012003580686L228.47795454545454,108.16636657714831L228.98909090909092,100.29951985677076L229.50022727272727,149.4661865234371L230.01136363636365,112.10054016113266L230.52249999999998,257.63345336913954L231.03363636363636,133.73399353027315L231.54477272727271,86.53291320800783L232.0559090909091,180.93357340494734L232.56704545454545,118.00030008951805L233.07818181818183,110.13345336914048L233.5893181818182,119.96738688151021L234.10045454545457,230.10024007161368L234.61159090909092,135.69957987467419L235.12272727272725,118.00030008951805L235.63386363636363,157.33303324381467L236.14499999999998,98.33393351236973L236.65613636363636,116.03321329752586L237.16727272727272,121.93297322591124L237.6784090909091,143.56642659505172L238.18954545454545,104.2336934407551L238.70068181818183,118.00030008951805L239.2118181818182,108.16636657714831L239.72295454545457,129.7998199462888L240.2340909090909,127.83273315429662L240.74522727272725,167.1669667561844L241.25636363636363,216.33363342285077L241.76749999999998,129.7998199462888L242.27863636363637,125.86714680989559L242.78977272727272,94.39975992838538L243.3009090909091,116.03321329752586L243.81204545454545,125.86714680989559L244.32318181818184,129.7998199462888L244.83431818181816,119.96738688151021L245.34545454545454,114.0661265055337L245.8565909090909,145.5335133870439L246.36772727272728,139.63375345865853L246.87886363636363,139.63375345865853L247.39000000000001,151.4332733154293L247.90113636363637,110.13345336914048L248.41227272727272,147.5006001790361L248.9234090909091,173.06672668456977L249.43454545454546,145.5335133870439L249.9456818181818,108.16636657714831L250.45681818181816,90.46708679199217L250.96795454545455,106.19927978515614L251.4790909090909,129.7998199462888L251.99022727272728,139.63375345865853L252.50136363636364,119.96738688151021L253.01250000000002,159.30012003580686L253.52363636363637,123.90006001790343L254.03477272727275,112.10054016113266L254.54590909090908,114.0661265055337L255.05704545454543,118.00030008951805L255.5681818181818,171.0996398925776L256.07931818181817,127.83273315429662L256.5904545454545,123.90006001790343L257.10159090909093,131.76690673828097L257.6127272727273,108.16636657714831L258.12386363636364,224.2004801432283L258.635,147.5006001790361" style="fill: none;" fill="none"></path></g><g><path stroke="rgb(238, 51, 119)" stroke-width="2px" d="M28.1125,213.8593953450513L30.668181818181818,164.6132049560542L33.22386363636364,172.88667297363227L35.77954545454545,139.79430135091113L38.33522727272727,170.12885030110627L40.89090909090909,165.00782267252555L43.44659090909091,116.55086771647117L46.002272727272725,99.21619669596348L48.55795454545454,137.4295959472653L51.11363636363637,107.88278198242175L53.669318181818184,121.67189534505188L56.225,111.03522237141912L58.78068181818181,137.82421366373666L61.336363636363636,130.7330983479815L63.89204545454545,98.42846171061191L66.44772727272728,113.79304504394516L69.00340909090909,151.6133270263668L71.5590909090909,117.33860270182274L74.11477272727272,96.85149129231766L76.67045454545455,127.18754069010393L79.22613636363636,202.04036966959563L81.78181818181818,111.42833964029933L84.33749999999999,99.60931396484368L86.89318181818182,123.24736531575499L89.44886363636364,98.42846171061191L92.00454545454545,99.21619669596348L94.56022727272727,94.09366861979163L97.11590909090908,96.0637563069661L99.67159090909091,118.5194549560545L102.22727272727273,101.57940165201815L104.78295454545454,107.48966471354154L107.33863636363637,123.64198303222634L109.89431818181819,98.82157897949212L112.45,139.39968363443978L115.00568181818183,98.82157897949212L117.56136363636362,104.73184204101553L120.11704545454545,114.97389729817692L122.67272727272727,107.88278198242175L125.22840909090908,121.27727762858052L127.7840909090909,100.7916666666666L130.33977272727273,91.33584594726561L132.89545454545456,87.39717102050783L135.45113636363635,92.12508138020831L138.00681818181818,116.15624999999983L140.5625,92.51819864908852L143.1181818181818,94.48828633626299L145.67386363636365,93.70055135091143L148.22954545454544,108.67051696777331L150.78522727272727,96.45837402343746L153.3409090909091,106.70042928059884L153.85204545454545,116.15624999999983L154.3631818181818,94.09366861979163L154.87431818181818,92.91281636555988L155.38545454545454,101.18628438313795L155.89659090909092,90.9427286783854L156.40772727272727,98.03384399414057L156.91886363636365,100.7916666666666L157.43,99.21619669596348L157.94113636363636,90.9427286783854L158.4522727272727,85.032465616862L158.9634090909091,102.36713663736971L159.47454545454545,92.51819864908852L159.98568181818183,75.97126261393237L160.49681818181818,86.60943603515626L161.00795454545454,84.24473063151044L161.51909090909092,88.97264099121094L162.03022727272727,92.91281636555988L162.54136363636363,110.24748738606758L163.05249999999998,94.88290405273433L163.56363636363636,83.06387837727867L164.07477272727272,89.7603759765625L164.5859090909091,73.21494038899749L165.09704545454545,94.48828633626299L165.60818181818183,134.67327372233044L166.1193181818182,96.45837402343746L166.63045454545457,81.88152567545578L167.14159090909092,96.45837402343746L167.65272727272725,84.24473063151044L168.16386363636363,96.85149129231766L168.67499999999998,85.42708333333334L169.18613636363636,89.7603759765625L169.69727272727272,88.18490600585938L170.2084090909091,93.70055135091143L170.71954545454545,97.246109008789L171.23068181818184,88.57952372233073L171.7418181818182,88.97264099121094L172.25295454545454,127.58065795898412L172.7640909090909,88.18490600585938L173.27522727272728,93.30593363444008L173.78636363636363,91.33584594726561L174.29749999999999,95.27602132161454L174.80863636363637,95.27602132161454L175.31977272727272,95.27602132161454L175.8309090909091,108.67051696777331L176.34204545454546,87.00255330403648L176.85318181818184,83.06387837727867L177.36431818181816,106.70042928059884L177.87545454545455,98.03384399414057L178.3865909090909,103.5494893391926L178.89772727272728,95.27602132161454L179.40886363636363,83.45699564615889L179.92000000000002,85.82170104980472L180.43113636363637,84.24473063151044L180.94227272727275,93.30593363444008L181.4534090909091,94.88290405273433L181.96454545454543,93.30593363444008L182.4756818181818,75.1835276285808L182.98681818181817,91.73046366373696L183.49795454545455,79.12370300292976L184.0090909090909,92.12508138020831L184.52022727272728,82.27464294433598L185.03136363636364,86.21481831868492L185.54250000000002,90.9427286783854L186.05363636363637,133.49092102050753L186.56477272727275,98.82157897949212L187.07590909090908,87.39717102050783L187.58704545454543,85.032465616862L188.0981818181818,95.27602132161454L188.60931818181817,94.88290405273433L189.12045454545455,94.88290405273433L189.6315909090909,80.30605570475267L190.14272727272729,91.73046366373696L190.65386363636364,100.7916666666666L191.16500000000002,81.09379069010421L191.67613636363635,105.51957702636709L192.18727272727273,79.5183207194011L192.69840909090908,83.06387837727867L193.20954545454546,104.33722432454417L193.72068181818182,124.03510030110655L194.23181818181817,83.85161336263023L194.74295454545455,95.6706390380859L195.2540909090909,94.48828633626299L195.7652272727273,92.12508138020831L196.27636363636364,84.24473063151044L196.7875,90.15499369303384L197.29863636363635,90.54811096191405L197.80977272727273,81.48690795898442L198.32090909090908,85.82170104980472L198.83204545454547,90.9427286783854L199.34318181818182,106.70042928059884L199.8543181818182,93.30593363444008L200.36545454545455,78.3359680175782L200.87659090909094,89.36725870768228L201.38772727272726,76.36588033040371L201.89886363636361,104.73184204101553L202.41,109.85286966959622L202.92113636363635,74.7904103597006L203.43227272727273,113.3984273274738L203.94340909090909,71.63796997070324L204.45454545454547,99.21619669596348L204.96568181818182,85.42708333333334L205.4768181818182,75.57814534505216L205.98795454545456,106.70042928059884L206.4990909090909,111.82295735677069L207.01022727272726,99.21619669596348L207.52136363636362,110.64060465494778L208.0325,119.3086903889972L208.54363636363635,98.82157897949212L209.05477272727273,87.79028828938803L209.5659090909091,88.97264099121094L210.07704545454547,100.00393168131502L210.58818181818182,91.73046366373696L211.09931818181818,100.00393168131502L211.61045454545453,87.00255330403648L212.1215909090909,87.79028828938803L212.63272727272727,103.94410705566396L213.14386363636365,91.33584594726561L213.655,85.032465616862L214.16613636363638,100.39704895019523L214.67727272727274,98.82157897949212L215.1884090909091,109.06513468424467L215.69954545454544,84.6393483479818L216.2106818181818,83.85161336263023L216.72181818181818,104.33722432454417L217.23295454545453,105.51957702636709L217.74409090909091,87.39717102050783L218.25522727272727,121.67189534505188L218.76636363636365,107.88278198242175L219.2775,107.48966471354154L219.78863636363639,85.42708333333334L220.29977272727274,94.09366861979163L220.81090909090906,90.9427286783854L221.32204545454545,96.0637563069661L221.8331818181818,90.54811096191405L222.34431818181818,110.24748738606758L222.85545454545453,81.88152567545578L223.36659090909092,85.82170104980472L223.87772727272727,105.51957702636709L224.38886363636365,101.18628438313795L224.9,99.60931396484368L225.41113636363636,94.48828633626299L225.9222727272727,76.36588033040371L226.4334090909091,142.15750630696581L226.94454545454545,76.36588033040371L227.45568181818183,96.85149129231766L227.96681818181818,86.60943603515626L228.47795454545454,85.42708333333334L228.98909090909092,72.82032267252615L229.50022727272727,104.33722432454417L230.01136363636365,112.21607462565089L230.52249999999998,79.5183207194011L231.03363636363636,78.3359680175782L231.54477272727271,107.88278198242175L232.0559090909091,88.97264099121094L232.56704545454545,78.3359680175782L233.07818181818183,81.88152567545578L233.5893181818182,89.7603759765625L234.10045454545457,99.60931396484368L234.61159090909092,77.94135030110685L235.12272727272725,98.82157897949212L235.63386363636363,89.7603759765625L236.14499999999998,110.64060465494778L236.65613636363636,87.39717102050783L237.16727272727272,108.67051696777331L237.6784090909091,94.48828633626299L238.18954545454545,126.79292297363257L238.70068181818183,81.09379069010421L239.2118181818182,112.61069234212223L239.72295454545457,93.30593363444008L240.2340909090909,97.63922627766921L240.74522727272725,101.57940165201815L241.25636363636363,91.33584594726561L241.76749999999998,109.45825195312487L242.27863636363637,84.6393483479818L242.78977272727272,98.03384399414057L243.3009090909091,81.88152567545578L243.81204545454545,120.09642537434875L244.32318181818184,96.45837402343746L244.83431818181816,99.60931396484368L245.34545454545454,92.91281636555988L245.8565909090909,99.60931396484368L246.36772727272728,96.45837402343746L246.87886363636363,116.15624999999983L247.39000000000001,98.03384399414057L247.90113636363637,96.85149129231766L248.41227272727272,102.76175435384106L248.9234090909091,75.57814534505216L249.43454545454546,91.73046366373696L249.9456818181818,100.7916666666666L250.45681818181816,84.24473063151044L250.96795454545455,109.45825195312487L251.4790909090909,168.1587626139318L251.99022727272728,82.27464294433598L252.50136363636364,86.21481831868492L253.01250000000002,97.246109008789L253.52363636363637,112.21607462565089L254.03477272727275,92.12508138020831L254.54590909090908,99.60931396484368L255.05704545454543,101.9740193684895L255.5681818181818,115.36851501464827L256.07931818181817,92.12508138020831L256.5904545454545,97.246109008789L257.10159090909093,109.85286966959622L257.6127272727273,109.06513468424467L258.12386363636364,89.7603759765625" style="fill: none;" fill="none"></path></g><g><path stroke="rgb(255, 112, 67)" stroke-width="2px" d="M30.157045454545454,196.66726684570244L30.668181818181818,163.23279317220005L31.179318181818182,161.26720682779901L31.690454545454546,159.30012003580686L32.20159090909091,169.13405354817658L32.71272727272727,147.5006001790361L33.22386363636364,165.19987996419223L33.735,153.40036010742148L34.24613636363636,121.93297322591124L34.75727272727273,141.59933980305956L35.26840909090909,145.5335133870439L35.77954545454545,139.63375345865853L36.29068181818182,186.83333333333272L36.801818181818184,123.90006001790343L37.312954545454545,153.40036010742148L37.82409090909091,133.73399353027315L38.33522727272727,173.06672668456977L38.846363636363634,133.73399353027315L39.3575,135.69957987467419L39.86863636363636,184.86624654134053L40.37977272727273,108.16636657714831L40.89090909090909,151.4332733154293L41.40204545454546,153.40036010742148L41.91318181818181,143.56642659505172L42.42431818181818,123.90006001790343L42.93545454545455,155.36594645182248L43.44659090909091,118.00030008951805L43.957727272727276,141.59933980305956L44.468863636363636,133.73399353027315L44.980000000000004,143.56642659505172L45.49113636363636,129.7998199462888L46.002272727272725,102.26660664876293L46.51340909090909,129.7998199462888L47.02454545454545,176.999399820963L47.53568181818182,137.66666666666634L48.04681818181818,206.499699910481L48.55795454545454,133.73399353027315L49.06909090909091,100.29951985677076L49.58022727272727,135.69957987467419L50.09136363636364,151.4332733154293L50.6025,133.73399353027315L51.11363636363637,108.16636657714831L51.62477272727273,123.90006001790343L52.13590909090909,119.96738688151021L52.647045454545456,137.66666666666634L53.158181818181816,161.26720682779901L53.669318181818184,108.16636657714831L54.180454545454545,135.69957987467419L54.69159090909091,102.26660664876293L55.202727272727266,104.2336934407551L55.713863636363634,165.19987996419223L56.225,108.16636657714831L56.73613636363636,129.7998199462888L57.24727272727273,131.76690673828097L57.75840909090909,123.90006001790343L58.26954545454546,141.59933980305956L58.78068181818181,129.7998199462888L59.29181818181818,88.5L59.80295454545455,102.26660664876293L60.31409090909091,147.5006001790361L60.825227272727275,114.0661265055337L61.336363636363636,123.90006001790343L61.847500000000004,106.19927978515614L62.358636363636364,119.96738688151021L62.869772727272725,110.13345336914048L63.38090909090909,92.4326731363932L63.89204545454545,98.33393351236973L64.40318181818182,145.5335133870439L64.91431818181817,118.00030008951805L65.42545454545454,102.26660664876293L65.93659090909091,104.2336934407551L66.44772727272728,121.93297322591124L66.95886363636365,127.83273315429662L67.47,137.66666666666634L67.98113636363637,108.16636657714831L68.49227272727272,108.16636657714831L69.00340909090909,145.5335133870439L69.51454545454546,96.36684672037755L70.02568181818182,133.73399353027315L70.53681818181818,119.96738688151021L71.04795454545454,94.39975992838538L71.5590909090909,118.00030008951805L72.07022727272727,108.16636657714831L72.58136363636363,108.16636657714831L73.0925,96.36684672037755L73.60363636363637,86.53291320800783L74.11477272727272,106.19927978515614L74.62590909090909,129.7998199462888L75.13704545454546,116.03321329752586L75.64818181818183,116.03321329752586L76.1593181818182,112.10054016113266L76.67045454545455,104.2336934407551L77.1815909090909,123.90006001790343L77.69272727272727,108.16636657714831L78.20386363636364,102.26660664876293L78.715,118.00030008951805L79.22613636363636,188.80042012532488L79.73727272727272,102.26660664876293L80.24840909090909,114.0661265055337L80.75954545454546,110.13345336914048L81.27068181818181,106.19927978515614L81.78181818181818,108.16636657714831L82.29295454545455,116.03321329752586L82.80409090909092,114.0661265055337L83.31522727272728,82.60024007161462L83.82636363636362,108.16636657714831L84.33749999999999,86.53291320800783L84.84863636363636,110.13345336914048L85.35977272727273,121.93297322591124L85.8709090909091,90.46708679199217L86.38204545454545,121.93297322591124L86.89318181818182,110.13345336914048L87.40431818181818,98.33393351236973L87.91545454545455,90.46708679199217L88.42659090909092,94.39975992838538L88.93772727272727,98.33393351236973L89.44886363636364,98.33393351236973L89.96000000000001,92.4326731363932L90.47113636363638,94.39975992838538L90.98227272727271,82.60024007161462L91.49340909090908,86.53291320800783L92.00454545454545,82.60024007161462L92.51568181818182,92.4326731363932L93.02681818181819,84.5673268636068L93.53795454545454,100.29951985677076L94.0490909090909,94.39975992838538L94.56022727272727,80.63315327962245L95.07136363636364,84.5673268636068L95.58250000000001,106.19927978515614L96.09363636363636,92.4326731363932L96.60477272727273,96.36684672037755L97.11590909090908,88.5L97.62704545454545,102.26660664876293L98.13818181818182,70.80072021484386L98.64931818181817,90.46708679199217L99.16045454545454,94.39975992838538L99.67159090909091,119.96738688151021L100.18272727272728,96.36684672037755L100.69386363636363,96.36684672037755L101.205,114.0661265055337L101.71613636363637,96.36684672037755L102.22727272727273,88.5L102.7384090909091,92.4326731363932L103.24954545454545,80.63315327962245L103.76068181818181,96.36684672037755L104.27181818181818,94.39975992838538L104.78295454545454,96.36684672037755L105.29409090909091,110.13345336914048L105.80522727272727,86.53291320800783L106.31636363636363,118.00030008951805L106.8275,104.2336934407551L107.33863636363637,112.10054016113266L107.84977272727272,92.4326731363932L108.36090909090909,110.13345336914048L108.87204545454546,100.29951985677076L109.38318181818182,94.39975992838538L109.89431818181819,90.46708679199217L110.40545454545453,90.46708679199217L110.9165909090909,98.33393351236973L111.42772727272727,104.2336934407551L111.93886363636364,90.46708679199217L112.45,129.7998199462888L112.96113636363636,104.2336934407551L113.47227272727272,112.10054016113266L113.98340909090909,100.29951985677076L114.49454545454546,90.46708679199217L115.00568181818183,96.36684672037755L115.51681818181818,100.29951985677076L116.02795454545455,114.0661265055337L116.53909090909092,102.26660664876293L117.05022727272728,112.10054016113266L117.56136363636362,96.36684672037755L118.07249999999999,84.5673268636068L118.58363636363636,92.4326731363932L119.09477272727273,86.53291320800783L119.6059090909091,92.4326731363932L120.11704545454545,102.26660664876293L120.62818181818182,88.5L121.13931818181818,94.39975992838538L121.65045454545455,78.66606648763027L122.16159090909092,98.33393351236973L122.67272727272727,92.4326731363932L123.18386363636364,84.5673268636068L123.69500000000001,78.66606648763027L124.20613636363636,100.29951985677076L124.71727272727273,92.4326731363932L125.22840909090908,98.33393351236973L125.73954545454545,88.5L126.25068181818182,110.13345336914048L126.76181818181819,82.60024007161462L127.27295454545454,112.10054016113266L127.7840909090909,86.53291320800783L128.29522727272726,86.53291320800783L128.80636363636364,88.5L129.3175,80.63315327962245L129.82863636363635,82.60024007161462L130.33977272727273,92.4326731363932L130.85090909090908,96.36684672037755L131.36204545454547,94.39975992838538L131.87318181818182,84.5673268636068L132.38431818181817,100.29951985677076L132.89545454545456,86.53291320800783L133.4065909090909,88.5L133.9177272727273,84.5673268636068L134.42886363636364,96.36684672037755L134.94,90.46708679199217L135.45113636363635,76.70048014322924L135.96227272727273,90.46708679199217L136.4734090909091,82.60024007161462L136.98454545454544,86.53291320800783L137.49568181818182,112.10054016113266L138.00681818181818,100.29951985677076L138.51795454545456,74.73339335123707L139.0290909090909,78.66606648763027L139.54022727272726,104.2336934407551L140.05136363636365,92.4326731363932L140.5625,100.29951985677076L141.07363636363635,76.70048014322924L141.58477272727274,84.5673268636068L142.0959090909091,92.4326731363932L142.60704545454547,98.33393351236973L143.1181818181818,84.5673268636068L143.62931818181818,76.70048014322924L144.14045454545453,80.63315327962245L144.6515909090909,88.5L145.16272727272727,98.33393351236973L145.67386363636365,86.53291320800783L146.185,98.33393351236973L146.69613636363638,86.53291320800783L147.20727272727274,100.29951985677076L147.71840909090912,98.33393351236973L148.22954545454544,92.4326731363932L148.7406818181818,96.36684672037755L149.25181818181818,80.63315327962245L149.76295454545453,78.66606648763027L150.27409090909092,127.83273315429662L150.78522727272727,92.4326731363932L151.29636363636365,88.5L151.8075,78.66606648763027L152.3186363636364,86.53291320800783L152.8297727272727,74.73339335123707L153.3409090909091,106.19927978515614L153.59647727272727,80.63315327962245L153.85204545454545,96.36684672037755L154.10761363636365,76.70048014322924L154.3631818181818,78.66606648763027L154.61875,78.66606648763027L154.87431818181818,100.29951985677076L155.12988636363636,82.60024007161462L155.38545454545454,94.39975992838538L155.6410227272727,86.53291320800783L155.89659090909092,98.33393351236973L156.1521590909091,90.46708679199217L156.40772727272727,100.29951985677076L156.66329545454545,94.39975992838538L156.91886363636365,84.5673268636068L157.17443181818183,76.70048014322924L157.43,94.39975992838538L157.68556818181818,86.53291320800783L157.94113636363636,82.60024007161462L158.19670454545454,90.46708679199217L158.4522727272727,82.60024007161462L158.70784090909092,96.36684672037755L158.9634090909091,92.4326731363932L159.21897727272727,88.5L159.47454545454545,80.63315327962245L159.73011363636365,80.63315327962245L159.98568181818183,68.83363342285169L160.24124999999998,92.4326731363932L160.49681818181818,88.5L160.75238636363636,88.5L161.00795454545454,90.46708679199217L161.26352272727271,76.70048014322924L161.51909090909092,78.66606648763027L161.7746590909091,86.53291320800783L162.03022727272727,84.5673268636068L162.28579545454545,94.39975992838538L162.54136363636363,98.33393351236973L162.79693181818183,118.00030008951805L163.05249999999998,80.63315327962245L163.3080681818182,108.16636657714831L163.56363636363636,82.60024007161462L163.81920454545457,86.53291320800783L164.07477272727272,96.36684672037755L164.33034090909092,84.5673268636068L164.5859090909091,78.66606648763027L164.84147727272725,90.46708679199217L165.09704545454545,94.39975992838538L165.35261363636363,88.5L165.60818181818183,123.90006001790343L165.86374999999998,110.13345336914048L166.1193181818182,90.46708679199217L166.37488636363636,72.7663065592449L166.63045454545457,84.5673268636068L166.88602272727272,98.33393351236973L167.14159090909092,86.53291320800783L167.3971590909091,100.29951985677076L167.65272727272725,74.73339335123707L167.90829545454545,96.36684672037755L168.16386363636363,86.53291320800783L168.41943181818183,76.70048014322924L168.67499999999998,80.63315327962245L168.9305681818182,104.2336934407551L169.18613636363636,86.53291320800783L169.44170454545457,90.46708679199217L169.69727272727272,88.5L169.9528409090909,86.53291320800783L170.2084090909091,80.63315327962245L170.46397727272725,82.60024007161462L170.71954545454545,90.46708679199217L170.97511363636363,96.36684672037755L171.23068181818184,84.5673268636068L171.48624999999998,78.66606648763027L171.7418181818182,98.33393351236973L171.99738636363637,82.60024007161462L172.25295454545454,119.96738688151021L172.50852272727272,86.53291320800783L172.7640909090909,76.70048014322924L173.0196590909091,94.39975992838538L173.27522727272728,80.63315327962245L173.53079545454545,98.33393351236973L173.78636363636363,80.63315327962245L174.04193181818184,80.63315327962245L174.29749999999999,100.29951985677076L174.55306818181816,82.60024007161462L174.80863636363637,82.60024007161462L175.06420454545454,94.39975992838538L175.31977272727272,98.33393351236973L175.5753409090909,82.60024007161462L175.8309090909091,108.16636657714831L176.08647727272728,84.5673268636068L176.34204545454546,88.5L176.59761363636363,86.53291320800783L176.85318181818184,80.63315327962245L177.10875000000001,92.4326731363932L177.36431818181816,100.29951985677076L177.61988636363637,82.60024007161462L177.87545454545455,88.5L178.13102272727272,88.5L178.3865909090909,92.4326731363932L178.6421590909091,84.5673268636068L178.89772727272728,94.39975992838538L179.15329545454546,88.5L179.40886363636363,86.53291320800783L179.6644318181818,94.39975992838538L179.92000000000002,70.80072021484386L180.17556818181816,76.70048014322924L180.43113636363637,76.70048014322924L180.68670454545455,86.53291320800783L180.94227272727275,104.2336934407551L181.1978409090909,86.53291320800783L181.4534090909091,72.7663065592449L181.70897727272728,76.70048014322924L181.96454545454543,96.36684672037755L182.22011363636364,82.60024007161462L182.4756818181818,72.7663065592449L182.73125000000002,90.46708679199217L182.98681818181817,88.5L183.24238636363637,74.73339335123707L183.49795454545455,86.53291320800783L183.75352272727275,74.73339335123707L184.0090909090909,88.5L184.26465909090908,98.33393351236973L184.52022727272728,82.60024007161462L184.77579545454543,106.19927978515614L185.03136363636364,80.63315327962245L185.2869318181818,74.73339335123707L185.54250000000002,86.53291320800783L185.79806818181817,92.4326731363932L186.05363636363637,125.86714680989559L186.30920454545455,70.80072021484386L186.56477272727275,96.36684672037755L186.8203409090909,84.5673268636068L187.07590909090908,84.5673268636068L187.33147727272728,80.63315327962245L187.58704545454543,74.73339335123707L187.84261363636364,94.39975992838538L188.0981818181818,102.26660664876293L188.35375000000002,82.60024007161462L188.60931818181817,92.4326731363932L188.86488636363637,92.4326731363932L189.12045454545455,104.2336934407551L189.37602272727273,102.26660664876293L189.6315909090909,78.66606648763027L189.88715909090908,96.36684672037755L190.14272727272729,96.36684672037755L190.39829545454546,94.39975992838538L190.65386363636364,110.13345336914048L190.90943181818182,96.36684672037755L191.16500000000002,80.63315327962245L191.42056818181817,90.46708679199217L191.67613636363635,98.33393351236973L191.93170454545455,76.70048014322924L192.18727272727273,76.70048014322924L192.4428409090909,86.53291320800783L192.69840909090908,88.5L192.9539772727273,94.39975992838538L193.20954545454546,92.4326731363932L193.46511363636364,102.26660664876293L193.72068181818182,112.10054016113266L193.97625,90.46708679199217L194.23181818181817,82.60024007161462L194.48738636363635,86.53291320800783L194.74295454545455,82.60024007161462L194.99852272727273,82.60024007161462L195.2540909090909,84.5673268636068L195.50965909090908,80.63315327962245L195.7652272727273,82.60024007161462L196.02079545454546,98.33393351236973L196.27636363636364,78.66606648763027L196.53193181818182,78.66606648763027L196.7875,90.46708679199217L197.0430681818182,74.73339335123707L197.29863636363635,108.16636657714831L197.55420454545455,100.29951985677076L197.80977272727273,88.5L198.0653409090909,88.5L198.32090909090908,94.39975992838538L198.5764772727273,102.26660664876293L198.83204545454547,94.39975992838538L199.0876136363636,80.63315327962245L199.34318181818182,90.46708679199217L199.59875,114.0661265055337L199.8543181818182,84.5673268636068L200.10988636363635,86.53291320800783L200.36545454545455,84.5673268636068L200.62102272727273,80.63315327962245L200.87659090909094,88.5L201.13215909090908,76.70048014322924L201.38772727272726,74.73339335123707L201.64329545454547,90.46708679199217L201.89886363636361,116.03321329752586L202.15443181818182,74.73339335123707L202.41,100.29951985677076L202.6655681818182,94.39975992838538L202.92113636363635,78.66606648763027L203.17670454545456,96.36684672037755L203.43227272727273,98.33393351236973L203.68784090909088,72.7663065592449L203.94340909090909,74.73339335123707L204.19897727272726,96.36684672037755L204.45454545454547,98.33393351236973L204.71011363636362,108.16636657714831L204.96568181818182,86.53291320800783L205.22125,92.4326731363932L205.4768181818182,78.66606648763027L205.73238636363635,100.29951985677076L205.98795454545456,98.33393351236973L206.24352272727273,84.5673268636068L206.4990909090909,102.26660664876293L206.7546590909091,82.60024007161462L207.01022727272726,88.5L207.26579545454547,68.83363342285169L207.52136363636362,100.29951985677076L207.77693181818182,90.46708679199217L208.0325,108.16636657714831L208.2880681818182,72.7663065592449L208.54363636363635,82.60024007161462L208.79920454545453,88.5L209.05477272727273,80.63315327962245L209.3103409090909,94.39975992838538L209.5659090909091,80.63315327962245L209.82147727272726,86.53291320800783L210.07704545454547,86.53291320800783L210.33261363636365,98.33393351236973L210.58818181818182,84.5673268636068L210.84375,106.19927978515614L211.09931818181818,84.5673268636068L211.35488636363635,86.53291320800783L211.61045454545453,82.60024007161462L211.86602272727274,88.5L212.1215909090909,74.73339335123707L212.3771590909091,90.46708679199217L212.63272727272727,94.39975992838538L212.88829545454547,104.2336934407551L213.14386363636365,102.26660664876293L213.3994318181818,90.46708679199217L213.655,78.66606648763027L213.91056818181818,76.70048014322924L214.16613636363638,90.46708679199217L214.42170454545453,92.4326731363932L214.67727272727274,102.26660664876293L214.9328409090909,84.5673268636068L215.1884090909091,84.5673268636068L215.44397727272727,76.70048014322924L215.69954545454544,78.66606648763027L215.95511363636365,84.5673268636068L216.2106818181818,80.63315327962245L216.46625,90.46708679199217L216.72181818181818,80.63315327962245L216.97738636363638,80.63315327962245L217.23295454545453,88.5L217.48852272727274,76.70048014322924L217.74409090909091,86.53291320800783L217.99965909090912,102.26660664876293L218.25522727272727,110.13345336914048L218.51079545454544,92.4326731363932L218.76636363636365,98.33393351236973L219.0219318181818,82.60024007161462L219.2775,96.36684672037755L219.53306818181818,110.13345336914048L219.78863636363639,84.5673268636068L220.04420454545453,76.70048014322924L220.29977272727274,86.53291320800783L220.55534090909092,94.39975992838538L220.81090909090906,90.46708679199217L221.06647727272727,100.29951985677076L221.32204545454545,90.46708679199217L221.57761363636365,76.70048014322924L221.8331818181818,82.60024007161462L222.08875,86.53291320800783L222.34431818181818,106.19927978515614L222.5998863636364,96.36684672037755L222.85545454545453,80.63315327962245L223.1110227272727,84.5673268636068L223.36659090909092,82.60024007161462L223.6221590909091,84.5673268636068L223.87772727272727,88.5L224.13329545454545,92.4326731363932L224.38886363636365,88.5L224.6444318181818,94.39975992838538L224.9,92.4326731363932L225.15556818181818,80.63315327962245L225.41113636363636,104.2336934407551L225.66670454545454,86.53291320800783L225.9222727272727,72.7663065592449L226.17784090909092,116.03321329752586L226.4334090909091,121.93297322591124L226.68897727272727,78.66606648763027L226.94454545454545,76.70048014322924L227.20011363636365,92.4326731363932L227.45568181818183,104.2336934407551L227.71125,78.66606648763027L227.96681818181818,78.66606648763027L228.22238636363636,94.39975992838538L228.47795454545454,84.5673268636068L228.7335227272727,80.63315327962245L228.98909090909092,70.80072021484386L229.2446590909091,72.7663065592449L229.50022727272727,110.13345336914048L229.75579545454545,70.80072021484386L230.01136363636365,110.13345336914048L230.26693181818183,86.53291320800783L230.52249999999998,74.73339335123707L230.77806818181818,78.66606648763027L231.03363636363636,80.63315327962245L231.28920454545454,86.53291320800783L231.54477272727271,88.5L231.80034090909092,96.36684672037755L232.0559090909091,80.63315327962245L232.31147727272727,112.10054016113266L232.56704545454545,68.83363342285169L232.82261363636363,96.36684672037755L233.07818181818183,80.63315327962245L233.33374999999998,72.7663065592449L233.5893181818182,84.5673268636068L233.84488636363636,88.5L234.10045454545457,80.63315327962245L234.35602272727272,88.5L234.61159090909092,84.5673268636068L234.8671590909091,76.70048014322924L235.12272727272725,88.5L235.37829545454545,86.53291320800783L235.63386363636363,92.4326731363932L235.88943181818183,90.46708679199217L236.14499999999998,90.46708679199217L236.4005681818182,84.5673268636068L236.65613636363636,80.63315327962245L236.91170454545457,96.36684672037755L237.16727272727272,96.36684672037755L237.42284090909092,98.33393351236973L237.6784090909091,96.36684672037755L237.93397727272725,96.36684672037755L238.18954545454545,98.33393351236973L238.44511363636363,82.60024007161462L238.70068181818183,80.63315327962245L238.95624999999998,84.5673268636068L239.2118181818182,88.5L239.46738636363636,86.53291320800783L239.72295454545457,86.53291320800783L239.97852272727272,72.7663065592449L240.2340909090909,84.5673268636068L240.4896590909091,119.96738688151021L240.74522727272725,78.66606648763027L241.00079545454545,92.4326731363932L241.25636363636363,78.66606648763027L241.51193181818184,86.53291320800783L241.76749999999998,82.60024007161462L242.0230681818182,82.60024007161462L242.27863636363637,92.4326731363932L242.53420454545454,88.5L242.78977272727272,92.4326731363932L243.0453409090909,92.4326731363932L243.3009090909091,88.5L243.55647727272728,80.63315327962245L243.81204545454545,100.29951985677076L244.06761363636363,84.5673268636068L244.32318181818184,86.53291320800783L244.57874999999999,80.63315327962245L244.83431818181816,94.39975992838538L245.08988636363637,68.83363342285169L245.34545454545454,86.53291320800783L245.60102272727272,82.60024007161462L245.8565909090909,90.46708679199217L246.1121590909091,88.5L246.36772727272728,82.60024007161462L246.62329545454546,114.0661265055337L246.87886363636363,112.10054016113266L247.13443181818184,76.70048014322924L247.39000000000001,88.5L247.64556818181816,90.46708679199217L247.90113636363637,86.53291320800783L248.15670454545455,80.63315327962245L248.41227272727272,98.33393351236973L248.6678409090909,68.83363342285169L248.9234090909091,76.70048014322924L249.17897727272728,86.53291320800783L249.43454545454546,78.66606648763027L249.69011363636363,80.63315327962245L249.9456818181818,78.66606648763027L250.20125000000002,90.46708679199217L250.45681818181816,74.73339335123707L250.71238636363637,110.13345336914048L250.96795454545455,102.26660664876293L251.22352272727275,96.36684672037755L251.4790909090909,141.59933980305956L251.7346590909091,88.5L251.99022727272728,86.53291320800783L252.24579545454543,80.63315327962245L252.50136363636364,76.70048014322924L252.7569318181818,96.36684672037755L253.01250000000002,86.53291320800783L253.26806818181817,84.5673268636068L253.52363636363637,114.0661265055337L253.77920454545455,98.33393351236973L254.03477272727275,90.46708679199217L254.2903409090909,96.36684672037755L254.54590909090908,88.5L254.80147727272728,114.0661265055337L255.05704545454543,98.33393351236973L255.31261363636364,88.5L255.5681818181818,100.29951985677076L255.82375000000002,74.73339335123707L256.07931818181817,100.29951985677076L256.3348863636364,90.46708679199217L256.5904545454545,92.4326731363932L256.8460227272727,108.16636657714831L257.10159090909093,94.39975992838538L257.3571590909091,110.13345336914048L257.6127272727273,104.2336934407551L257.86829545454543,82.60024007161462L258.12386363636364,98.33393351236973L258.3794318181818,100.29951985677076" style="fill: none;" fill="none"></path></g></g></g></g></g></g><g transform="translate(48, 177)" clip-path="url(#clip_1)"><clipPath id="clip_1"><rect width="281" height="23"></rect></clipPath><g><g><line x1="0" y1="0" x2="0" y2="5" style="visibility: inherit;" fill="rgb(0, 0, 0)" stroke="rgb(204, 204, 204)" stroke-width="1px"></line><line x1="25.556818181818183" y1="0" x2="25.556818181818183" y2="5" style="visibility: inherit;" fill="rgb(0, 0, 0)" stroke="rgb(204, 204, 204)" stroke-width="1px"></line><line x1="51.11363636363637" y1="0" x2="51.11363636363637" y2="5" style="visibility: inherit;" fill="rgb(0, 0, 0)" stroke="rgb(204, 204, 204)" stroke-width="1px"></line><line x1="76.67045454545455" y1="0" x2="76.67045454545455" y2="5" style="visibility: inherit;" fill="rgb(0, 0, 0)" stroke="rgb(204, 204, 204)" stroke-width="1px"></line><line x1="102.22727272727273" y1="0" x2="102.22727272727273" y2="5" style="visibility: inherit;" fill="rgb(0, 0, 0)" stroke="rgb(204, 204, 204)" stroke-width="1px"></line><line x1="127.7840909090909" y1="0" x2="127.7840909090909" y2="5" style="visibility: inherit;" fill="rgb(0, 0, 0)" stroke="rgb(204, 204, 204)" stroke-width="1px"></line><line x1="153.3409090909091" y1="0" x2="153.3409090909091" y2="5" style="visibility: inherit;" fill="rgb(0, 0, 0)" stroke="rgb(204, 204, 204)" stroke-width="1px"></line><line x1="178.89772727272728" y1="0" x2="178.89772727272728" y2="5" style="visibility: inherit;" fill="rgb(0, 0, 0)" stroke="rgb(204, 204, 204)" stroke-width="1px"></line><line x1="204.45454545454547" y1="0" x2="204.45454545454547" y2="5" style="visibility: inherit;" fill="rgb(0, 0, 0)" stroke="rgb(204, 204, 204)" stroke-width="1px"></line><line x1="230.01136363636365" y1="0" x2="230.01136363636365" y2="5" style="visibility: inherit;" fill="rgb(0, 0, 0)" stroke="rgb(204, 204, 204)" stroke-width="1px"></line><line x1="255.5681818181818" y1="0" x2="255.5681818181818" y2="5" style="visibility: inherit;" fill="rgb(0, 0, 0)" stroke="rgb(204, 204, 204)" stroke-width="1px"></line><line x1="281.125" y1="0" x2="281.125" y2="5" style="visibility: inherit;" fill="rgb(0, 0, 0)" stroke="rgb(204, 204, 204)" stroke-width="1px"></line></g><g transform="translate(0, 8)"><text x="0" y="0" dx="0em" dy="0.95em" style="text-anchor: middle; visibility: hidden; font-family: &quot;Helvetica Neue&quot;, sans-serif; font-size: 12px; font-weight: 200;" fill="rgb(50, 49, 63)" stroke="none" stroke-width="1px">-100</text><text x="25.556818181818183" y="0" dx="0em" dy="0.95em" style="text-anchor: middle; visibility: inherit; font-family: &quot;Helvetica Neue&quot;, sans-serif; font-size: 12px; font-weight: 200;" fill="rgb(50, 49, 63)" stroke="none" stroke-width="1px">0</text><text x="51.11363636363637" y="0" dx="0em" dy="0.95em" style="text-anchor: middle; visibility: inherit; font-family: &quot;Helvetica Neue&quot;, sans-serif; font-size: 12px; font-weight: 200;" fill="rgb(50, 49, 63)" stroke="none" stroke-width="1px">100</text><text x="76.67045454545455" y="0" dx="0em" dy="0.95em" style="text-anchor: middle; visibility: inherit; font-family: &quot;Helvetica Neue&quot;, sans-serif; font-size: 12px; font-weight: 200;" fill="rgb(50, 49, 63)" stroke="none" stroke-width="1px">200</text><text x="102.22727272727273" y="0" dx="0em" dy="0.95em" style="text-anchor: middle; visibility: inherit; font-family: &quot;Helvetica Neue&quot;, sans-serif; font-size: 12px; font-weight: 200;" fill="rgb(50, 49, 63)" stroke="none" stroke-width="1px">300</text><text x="127.7840909090909" y="0" dx="0em" dy="0.95em" style="text-anchor: middle; visibility: inherit; font-family: &quot;Helvetica Neue&quot;, sans-serif; font-size: 12px; font-weight: 200;" fill="rgb(50, 49, 63)" stroke="none" stroke-width="1px">400</text><text x="153.3409090909091" y="0" dx="0em" dy="0.95em" style="text-anchor: middle; visibility: inherit; font-family: &quot;Helvetica Neue&quot;, sans-serif; font-size: 12px; font-weight: 200;" fill="rgb(50, 49, 63)" stroke="none" stroke-width="1px">500</text><text x="178.89772727272728" y="0" dx="0em" dy="0.95em" style="text-anchor: middle; visibility: inherit; font-family: &quot;Helvetica Neue&quot;, sans-serif; font-size: 12px; font-weight: 200;" fill="rgb(50, 49, 63)" stroke="none" stroke-width="1px">600</text><text x="204.45454545454547" y="0" dx="0em" dy="0.95em" style="text-anchor: middle; visibility: inherit; font-family: &quot;Helvetica Neue&quot;, sans-serif; font-size: 12px; font-weight: 200;" fill="rgb(50, 49, 63)" stroke="none" stroke-width="1px">700</text><text x="230.01136363636365" y="0" dx="0em" dy="0.95em" style="text-anchor: middle; visibility: inherit; font-family: &quot;Helvetica Neue&quot;, sans-serif; font-size: 12px; font-weight: 200;" fill="rgb(50, 49, 63)" stroke="none" stroke-width="1px">800</text><text x="255.5681818181818" y="0" dx="0em" dy="0.95em" style="text-anchor: middle; visibility: inherit; font-family: &quot;Helvetica Neue&quot;, sans-serif; font-size: 12px; font-weight: 200;" fill="rgb(50, 49, 63)" stroke="none" stroke-width="1px">900</text><text x="281.125" y="0" dx="0em" dy="0.95em" style="text-anchor: middle; visibility: hidden; font-family: &quot;Helvetica Neue&quot;, sans-serif; font-size: 12px; font-weight: 200;" fill="rgb(50, 49, 63)" stroke="none" stroke-width="1px">1k</text></g><line x1="0" y1="0" x2="281.125" y2="0" fill="rgb(0, 0, 0)" stroke="rgb(204, 204, 204)" stroke-width="1px"></line></g></g></g></g></svg>