<svg viewBox="0 0 330 200" xmlns="http://www.w3.org/2000/svg"><g><g><g><g><g><line x1="58.59375" y1="177" x2="53.59375" y2="177" style="visibility: inherit;" fill="rgb(0, 0, 0)" stroke="rgb(204, 204, 204)" stroke-width="1px"></line><line x1="58.59375" y1="165.2" x2="53.59375" y2="165.2" style="visibility: inherit;" fill="rgb(0, 0, 0)" stroke="rgb(204, 204, 204)" stroke-width="1px"></line><line x1="58.59375" y1="153.4" x2="53.59375" y2="153.4" style="visibility: inherit;" fill="rgb(0, 0, 0)" stroke="rgb(204, 204, 204)" stroke-width="1px"></line><line x1="58.59375" y1="141.6" x2="53.59375" y2="141.6" style="visibility: inherit;" fill="rgb(0, 0, 0)" stroke="rgb(204, 204, 204)" stroke-width="1px"></line><line x1="58.59375" y1="129.8" x2="53.59375" y2="129.8" style="visibility: inherit;" fill="rgb(0, 0, 0)" stroke="rgb(204, 204, 204)" stroke-width="1px"></line><line x1="58.59375" y1="118" x2="53.59375" y2="118" style="visibility: inherit;" fill="rgb(0, 0, 0)" stroke="rgb(204, 204, 204)" stroke-width="1px"></line><line x1="58.59375" y1="106.2" x2="53.59375" y2="106.2" style="visibility: inherit;" fill="rgb(0, 0, 0)" stroke="rgb(204, 204, 204)" stroke-width="1px"></line><line x1="58.59375" y1="94.39999999999999" x2="53.59375" y2="94.39999999999999" style="visibility: inherit;" fill="rgb(0, 0, 0)" stroke="rgb(204, 204, 204)" stroke-width="1px"></line><line x1="58.59375" y1="82.6" x2="53.59375" y2="82.6" style="visibility: inherit;" fill="rgb(0, 0, 0)" stroke="rgb(204, 204, 204)" stroke-width="1px"></line><line x1="58.59375" y1="70.79999999999998" x2="53.59375" y2="70.79999999999998" style="visibility: inherit;" fill="rgb(0, 0, 0)" stroke="rgb(204, 204, 204)" stroke-width="1px"></line><line x1="58.59375" y1="58.999999999999986" x2="53.59375" y2="58.999999999999986" style="visibility: inherit;" fill="rgb(0, 0, 0)" stroke="rgb(204, 204, 204)" stroke-width="1px"></line><line x1="58.59375" y1="47.19999999999999" x2="53.59375" y2="47.19999999999999" style="visibility: inherit;" fill="rgb(0, 0, 0)" stroke="rgb(204, 204, 204)" stroke-width="1px"></line><line x1="58.59375" y1="35.400000000000006" x2="53.59375" y2="35.400000000000006" style="visibility: inherit;" fill="rgb(0, 0, 0)" stroke="rgb(204, 204, 204)" stroke-width="1px"></line><line x1="58.59375" y1="23.599999999999994" x2="53.59375" y2="23.599999999999994" style="visibility: inherit;" fill="rgb(0, 0, 0)" stroke="rgb(204, 204, 204)" stroke-width="1px"></line><line x1="58.59375" y1="11.800000000000011" x2="53.59375" y2="11.800000000000011" style="visibility: inherit;" fill="rgb(0, 0, 0)" stroke="rgb(204, 204, 204)" stroke-width="1px"></line><line x1="58.59375" y1="0" x2="53.59375" y2="0" style="visibility: inherit;" fill="rgb(0, 0, 0)" stroke="rgb(204, 204, 204)" stroke-width="1px"></line></g><g transform="translate(48.59375, 0)"><text x="0" y="177" dx="0em" dy="0.3em" style="text-anchor: end; visibility: hidden; font-family: &quot;Helvetica Neue&quot;, sans-serif; font-size: 12px; font-weight: 200;" fill="rgb(50, 49, 63)" stroke="none" stroke-width="1px">-0.04</text><text x="0" y="165.2" dx="0em" dy="0.3em" style="text-anchor: end; visibility: inherit; font-family: &quot;Helvetica Neue&quot;, sans-serif; font-size: 12px; font-weight: 200;" fill="rgb(50, 49, 63)" stroke="none" stroke-width="1px">-0.02</text><text x="0" y="153.4" dx="0em" dy="0.3em" style="text-anchor: end; visibility: hidden; font-family: &quot;Helvetica Neue&quot;, sans-serif; font-size: 12px; font-weight: 200;" fill="rgb(50, 49, 63)" stroke="none" stroke-width="1px">0</text><text x="0" y="141.6" dx="0em" dy="0.3em" style="text-anchor: end; visibility: hidden; font-family: &quot;Helvetica Neue&quot;, sans-serif; font-size: 12px; font-weight: 200;" fill="rgb(50, 49, 63)" stroke="none" stroke-width="1px">0.02</text><text x="0" y="129.8" dx="0em" dy="0.3em" style="text-anchor: end; visibility: inherit; font-family: &quot;Helvetica Neue&quot;, sans-serif; font-size: 12px; font-weight: 200;" fill="rgb(50, 49, 63)" stroke="none" stroke-width="1px">0.04</text><text x="0" y="118" dx="0em" dy="0.3em" style="text-anchor: end; visibility: hidden; font-family: &quot;Helvetica Neue&quot;, sans-serif; font-size: 12px; font-weight: 200;" fill="rgb(50, 49, 63)" stroke="none" stroke-width="1px">0.06</text><text x="0" y="106.2" dx="0em" dy="0.3em" style="text-anchor: end; visibility: hidden; font-family: &quot;Helvetica Neue&quot;, sans-serif; font-size: 12px; font-weight: 200;" fill="rgb(50, 49, 63)" stroke="none" stroke-width="1px">0.08</text><text x="0" y="94.39999999999999" dx="0em" dy="0.3em" style="text-anchor: end; visibility: inherit; font-family: &quot;Helvetica Neue&quot;, sans-serif; font-size: 12px; font-weight: 200;" fill="rgb(50, 49, 63)" stroke="none" stroke-width="1px">0.1</text><text x="0" y="82.6" dx="0em" dy="0.3em" style="text-anchor: end; visibility: hidden; font-family: &quot;Helvetica Neue&quot;, sans-serif; font-size: 12px; font-weight: 200;" fill="rgb(50, 49, 63)" stroke="none" stroke-width="1px">0.12</text><text x="0" y="70.79999999999998" dx="0em" dy="0.3em" style="text-anchor: end; visibility: hidden; font-family: &quot;Helvetica Neue&quot;, sans-serif; font-size: 12px; font-weight: 200;" fill="rgb(50, 49, 63)" stroke="none" stroke-width="1px">0.14</text><text x="0" y="58.999999999999986" dx="0em" dy="0.3em" style="text-anchor: end; visibility: inherit; font-family: &quot;Helvetica Neue&quot;, sans-serif; font-size: 12px; font-weight: 200;" fill="rgb(50, 49, 63)" stroke="none" stroke-width="1px">0.16</text><text x="0" y="47.19999999999999" dx="0em" dy="0.3em" style="text-anchor: end; visibility: hidden; font-family: &quot;Helvetica Neue&quot;, sans-serif; font-size: 12px; font-weight: 200;" fill="rgb(50, 49, 63)" stroke="none" stroke-width="1px">0.18</text><text x="0" y="35.400000000000006" dx="0em" dy="0.3em" style="text-anchor: end; visibility: hidden; font-family: &quot;Helvetica Neue&quot;, sans-serif; font-size: 12px; font-weight: 200;" fill="rgb(50, 49, 63)" stroke="none" stroke-width="1px">0.2</text><text x="0" y="23.599999999999994" dx="0em" dy="0.3em" style="text-anchor: end; visibility: inherit; font-family: &quot;Helvetica Neue&quot;, sans-serif; font-size: 12px; font-weight: 200;" fill="rgb(50, 49, 63)" stroke="none" stroke-width="1px">0.22</text><text x="0" y="11.800000000000011" dx="0em" dy="0.3em" style="text-anchor: end; visibility: hidden; font-family: &quot;Helvetica Neue&quot;, sans-serif; font-size: 12px; font-weight: 200;" fill="rgb(50, 49, 63)" stroke="none" stroke-width="1px">0.24</text><text x="0" y="0" dx="0em" dy="0.3em" style="text-anchor: end; visibility: hidden; font-family: &quot;Helvetica Neue&quot;, sans-serif; font-size: 12px; font-weight: 200;" fill="rgb(50, 49, 63)" stroke="none" stroke-width="1px">0.26</text></g><line x1="58.59375" y1="0" x2="58.59375" y2="177" fill="rgb(0, 0, 0)" stroke="rgb(204, 204, 204)" stroke-width="1px"></line></g></g><g transform="translate(58, 0)" clip-path="url(#clip_0)"><clipPath id="clip_0"><rect width="271" height="177"></rect></clipPath><g><g><g><line x1="0" y1="0" x2="0" y2="177" fill="rgb(0, 0, 0)" stroke="rgb(60, 60, 60)" stroke-width="1px" opacity="0.25"></line><line x1="24.673295454545457" y1="0" x2="24.673295454545457" y2="177" fill="rgb(0, 0, 0)" stroke="rgb(60, 60, 60)" stroke-width="1px" opacity="0.25"></line><line x1="49.346590909090914" y1="0" x2="49.346590909090914" y2="177" fill="rgb(0, 0, 0)" stroke="rgb(60, 60, 60)" stroke-width="1px" opacity="0.25"></line><line x1="74.01988636363636" y1="0" x2="74.01988636363636" y2="177" fill="rgb(0, 0, 0)" stroke="rgb(60, 60, 60)" stroke-width="1px" opacity="0.25"></line><line x1="98.69318181818183" y1="0" x2="98.69318181818183" y2="177" fill="rgb(0, 0, 0)" stroke="rgb(60, 60, 60)" stroke-width="1px" opacity="0.25"></line><line x1="123.36647727272727" y1="0" x2="123.36647727272727" y2="177" fill="rgb(0, 0, 0)" stroke="rgb(60, 60, 60)" stroke-width="1px" opacity="0.25"></line><line x1="148.03977272727272" y1="0" x2="148.03977272727272" y2="177" fill="rgb(0, 0, 0)" stroke="rgb(60, 60, 60)" stroke-width="1px" opacity="0.25"></line><line x1="172.7130681818182" y1="0" x2="172.7130681818182" y2="177" fill="rgb(0, 0, 0)" stroke="rgb(60, 60, 60)" stroke-width="1px" opacity="0.25"></line><line x1="197.38636363636365" y1="0" x2="197.38636363636365" y2="177" fill="rgb(0, 0, 0)" stroke="rgb(60, 60, 60)" stroke-width="1px" opacity="0.25"></line><line x1="222.0596590909091" y1="0" x2="222.0596590909091" y2="177" fill="rgb(0, 0, 0)" stroke="rgb(60, 60, 60)" stroke-width="1px" opacity="0.25"></line><line x1="246.73295454545453" y1="0" x2="246.73295454545453" y2="177" fill="rgb(0, 0, 0)" stroke="rgb(60, 60, 60)" stroke-width="1px" opacity="0.25"></line><line x1="271.40625" y1="0" x2="271.40625" y2="177" fill="rgb(0, 0, 0)" stroke="rgb(60, 60, 60)" stroke-width="1px" opacity="0.25"></line></g><g><line x1="0" y1="177" x2="271.40625" y2="177" fill="rgb(0, 0, 0)" stroke="rgb(60, 60, 60)" stroke-width="1px" opacity="0.25"></line><line x1="0" y1="165.2" x2="271.40625" y2="165.2" fill="rgb(0, 0, 0)" stroke="rgb(60, 60, 60)" stroke-width="1px" opacity="0.25"></line><line x1="0" y1="153.4" x2="271.40625" y2="153.4" fill="rgb(0, 0, 0)" stroke="rgb(60, 60, 60)" stroke-width="1px" opacity="0.25"></line><line x1="0" y1="141.6" x2="271.40625" y2="141.6" fill="rgb(0, 0, 0)" stroke="rgb(60, 60, 60)" stroke-width="1px" opacity="0.25"></line><line x1="0" y1="129.8" x2="271.40625" y2="129.8" fill="rgb(0, 0, 0)" stroke="rgb(60, 60, 60)" stroke-width="1px" opacity="0.25"></line><line x1="0" y1="118" x2="271.40625" y2="118" fill="rgb(0, 0, 0)" stroke="rgb(60, 60, 60)" stroke-width="1px" opacity="0.25"></line><line x1="0" y1="106.2" x2="271.40625" y2="106.2" fill="rgb(0, 0, 0)" stroke="rgb(60, 60, 60)" stroke-width="1px" opacity="0.25"></line><line x1="0" y1="94.39999999999999" x2="271.40625" y2="94.39999999999999" fill="rgb(0, 0, 0)" stroke="rgb(60, 60, 60)" stroke-width="1px" opacity="0.25"></line><line x1="0" y1="82.6" x2="271.40625" y2="82.6" fill="rgb(0, 0, 0)" stroke="rgb(60, 60, 60)" stroke-width="1px" opacity="0.25"></line><line x1="0" y1="70.79999999999998" x2="271.40625" y2="70.79999999999998" fill="rgb(0, 0, 0)" stroke="rgb(60, 60, 60)" stroke-width="1px" opacity="0.25"></line><line x1="0" y1="58.999999999999986" x2="271.40625" y2="58.999999999999986" fill="rgb(0, 0, 0)" stroke="rgb(60, 60, 60)" stroke-width="1px" opacity="0.25"></line><line x1="0" y1="47.19999999999999" x2="271.40625" y2="47.19999999999999" fill="rgb(0, 0, 0)" stroke="rgb(60, 60, 60)" stroke-width="1px" opacity="0.25"></line><line x1="0" y1="35.400000000000006" x2="271.40625" y2="35.400000000000006" fill="rgb(0, 0, 0)" stroke="rgb(60, 60, 60)" stroke-width="1px" opacity="0.25"></line><line x1="0" y1="23.599999999999994" x2="271.40625" y2="23.599999999999994" fill="rgb(0, 0, 0)" stroke="rgb(60, 60, 60)" stroke-width="1px" opacity="0.25"></line><line x1="0" y1="11.800000000000011" x2="271.40625" y2="11.800000000000011" fill="rgb(0, 0, 0)" stroke="rgb(60, 60, 60)" stroke-width="1px" opacity="0.25"></line><line x1="0" y1="0" x2="271.40625" y2="0" fill="rgb(0, 0, 0)" stroke="rgb(60, 60, 60)" stroke-width="1px" opacity="0.25"></line></g></g></g><g><g><line x1="0" y1="153.4" x2="271.40625" y2="153.4" fill="rgb(0, 0, 0)" stroke="rgb(153, 153, 153)" stroke-width="1.5px"></line></g></g><g><g><line x1="24.673295454545457" y1="0" x2="24.673295454545457" y2="177" fill="rgb(0, 0, 0)" stroke="rgb(153, 153, 153)" stroke-width="1.5px"></line></g></g><g><g><g><g><g><path stroke="rgb(204, 51, 17)" stroke-width="2px" d="M28.12755681818182,-2.1623444914817753L28.37428977272727,0.7477560281753597L28.621022727272727,2.685478591918951L28.867755681818185,5.5547681093216L29.114488636363635,8.389022761583334L29.361221590909093,10.280158185958868L29.607954545454543,12.452759408950811L29.8546875,14.628921264410025L30.101420454545455,16.509972625970846L30.34815340909091,18.06268971562386L30.594886363636366,21.348766648769384L30.841619318181817,22.231654042005545L31.088352272727274,24.485745394229895L31.335085227272724,24.782526308298117L31.581818181818182,25.822310113906866L31.82855113636364,26.977027618885046L32.07528409090909,29.441222661733633L32.322017045454544,30.01610215902329L32.56875,31.134712213277794L32.81548295454545,33.452121281623846L33.06221590909091,32.90273767113683L33.30894886363637,35.78818630576134L33.55568181818182,36.03132035732267L33.802414772727275,37.44823228716851L34.049147727272725,37.646467202901846L34.29588068181818,37.57075321078298L34.54261363636363,39.71457045674322L34.78934659090909,40.91359805464745L35.03607954545455,42.0956137418747L35.2828125,42.90828194618226L35.529545454545456,43.178397679328924L35.77627840909091,44.25679456591607L36.023011363636364,45.19725870490072L36.26974431818182,43.61504551172254L36.51647727272727,47.43157755732537L36.76321022727273,48.07580586671827L37.00994318181818,49.39735438823699L37.25667613636364,48.52957111001015L37.50340909090909,50.30708279609679L37.750142045454545,50.53809311389924L37.996875,51.192721986770636L38.24360795454545,51.55425366163253L38.49034090909091,51.986312234401694L38.73707386363636,53.567549550533286L38.98380681818182,53.2322170972824L39.23053977272727,53.14537283182145L39.47727272727273,54.49535366296769L39.724005681818184,55.13503667116164L39.970738636363635,55.734629595279685L40.21747159090909,56.39907878041268L40.46420454545454,56.13610189557075L40.7109375,56.99807386994361L40.95767045454546,56.756891572475425L41.20440340909091,57.39324253201484L41.451136363636365,58.27320229411124L41.697869318181816,57.45032694339751L41.94460227272727,58.77722960114478L42.19133522727273,58.830621504783636L42.43806818181818,60.05019527077674L42.68480113636364,59.57992803454398L42.93153409090909,59.20669462680816L43.17826704545455,58.53710230588912L43.425000000000004,61.05167370438575L43.671732954545455,60.72711106538772L43.918465909090905,61.558268183469764L44.16519886363636,60.7703309893608L44.41193181818182,62.20086123943328L44.65866477272727,62.30341624617576L44.90539772727273,62.31649827361106L45.15213068181818,63.53267844915389L45.398863636363636,61.745284909009925L45.64559659090909,63.83040007352828L45.892329545454544,62.99463611245156L46.1390625,63.43319174051284L46.38579545454545,63.13172485828399L46.63252840909091,63.50106354951859L46.87926136363637,64.76668816208839L47.12599431818182,65.30213695168496L47.372727272727275,64.20786228179932L47.619460227272725,64.50071331262588L47.86619318181818,64.87805243730546L48.11292613636364,65.87998803853989L48.35965909090909,66.14880260229111L48.60639204545454,65.7999573290348L48.853125,65.96290242075919L49.099857954545456,66.01051818728448L49.346590909090914,67.31753405332566L49.593323863636364,66.68262493014335L49.840056818181814,67.23119091391563L50.08678977272727,67.11962442994117L50.33352272727273,67.42153089642525L50.58025568181819,67.60728161931037L50.82698863636364,68.16692512631415L51.07372159090909,67.49111708402633L51.320454545454545,67.79693585038184L51.5671875,67.29826267957687L51.81392045454545,68.5384001970291L52.060653409090904,67.47518655061721L52.30738636363636,68.99766024351119L52.55411931818182,69.0481333076954L52.800852272727276,68.4884898006916L53.04758522727273,68.98503538370132L53.29431818181818,69.36426472067834L53.541051136363635,70.52066143751144L53.78778409090909,69.24491759538651L54.03451704545455,69.48398109674454L54.28125,70.89061554670334L54.52798295454545,70.80153819322585L54.77471590909091,69.95854746699334L55.021448863636365,70.3580416381359L55.26818181818182,70.17253708243369L55.51491477272727,70.02765890359878L55.761647727272724,70.43718438744544L56.00838068181818,70.28854336738586L56.25511363636364,71.01099129915238L56.501846590909096,71.49171184897422L56.74857954545454,71.09165500998496L56.9953125,71.08499970436097L57.242045454545455,71.23024713397027L57.48877840909091,72.17907216548919L57.73551136363637,71.50500487685203L57.98224431818181,71.02385353446006L58.22897727272727,70.78718137145042L58.47571022727273,71.96072187423705L58.722443181818186,71.42777871489524L58.969176136363636,71.85850974321365L59.215909090909086,72.55327265858651L59.462642045454544,71.6532151043415L59.709375,72.56808664798736L59.95610795454546,72.24926497936248L60.20284090909091,71.57848578095435L60.44957386363636,72.08577480316163L60.69630681818182,72.72705789804459L60.943039772727275,72.65804316997527L61.18977272727273,73.97176709175109L61.436505681818176,73.16944670081139L61.68323863636363,72.39056494235993L61.92997159090909,73.09737246632575L62.17670454545455,72.42632951736451L62.423437500000006,73.62615715861321L62.67017045454545,72.8982935488224L62.91690340909091,73.15534483790397L63.163636363636364,72.24504497051238L63.41036931818182,73.66654615998267L63.65710227272728,73.01730659008025L63.90383522727272,73.79292663335801L64.15056818181819,73.21954172253608L64.39730113636364,72.90591593980788L64.64403409090909,73.1727084159851L64.89076704545455,74.21330984830855L65.1375,72.55913671255111L65.38423295454545,73.58360540270805L65.6309659090909,74.90437146425248L65.87769886363637,73.80275573730468L66.12443181818182,74.7599856197834L66.37116477272727,74.42263107895852L66.61789772727273,74.475319647789L66.86463068181818,74.58620038032531L67.11136363636363,74.10723816752434L67.35809659090908,74.03523426651955L67.60482954545455,74.37971007227897L67.8515625,75.03999199867249L68.09829545454545,74.02863171100616L68.34502840909092,74.7259705901146L68.59176136363637,74.43607356548308L68.83849431818183,74.96935080885886L69.08522727272727,74.87220268845557L69.33196022727272,73.90225123763085L69.57869318181818,75.59546824693679L69.82542613636363,74.89150043725968L70.0721590909091,74.82007678747178L70.31889204545455,75.3816368818283L70.565625,74.89259939789771L70.81235795454546,74.75942295193671L71.05909090909091,75.04412409067153L71.30582386363638,75.80453451871871L71.55255681818181,75.31489040851592L71.79928977272726,75.79712312817573L72.04602272727273,75.75202178359031L72.29275568181818,75.97335245609284L72.53948863636364,75.0472451388836L72.7862215909091,76.11374687552453L73.03295454545454,74.67098739147185L73.27968750000001,76.13695692420006L73.52642045454546,76.11685913205147L73.7731534090909,74.89171143770218L74.01988636363636,75.83854954838753L74.26661931818181,75.40081154704093L74.51335227272727,75.72389718294144L74.76008522727273,75.87631862759591L75.00681818181818,76.4163039267063L75.25355113636364,76.1293872833252L75.50028409090909,75.38367655277251L75.74701704545456,75.66263672113418L75.99375,74.96775072216988L76.24048295454544,76.4098420381546L76.4872159090909,76.54067110419273L76.73394886363636,76.19984384775161L76.98068181818182,76.3005877673626L77.22741477272727,77.19457905888557L77.47414772727272,76.53025295734405L77.72088068181819,77.0697195470333L77.96761363636364,77.06801396012305L78.2143465909091,76.90820749998092L78.46107954545454,76.75805431008338L78.70781249999999,76.36368569135665L78.95454545454545,76.47778418064117L79.2012784090909,77.15571981072426L79.44801136363637,77.2620464503765L79.69474431818182,76.84304352998734L79.94147727272727,77.12703254222869L80.18821022727273,76.40128772854806L80.43494318181818,77.01093834042548L80.68167613636365,77.59609531760215L80.92840909090908,77.4215539932251L81.17514204545454,76.91437047123908L81.421875,77.34120678305625L81.66860795454545,77.23721873164178L81.91534090909092,77.6533116042614L82.16207386363637,77.6819109559059L82.40880681818182,77.36994680166244L82.65553977272728,77.53507223129273L82.90227272727273,77.09078442454339L83.14900568181818,77.93921720385552L83.39573863636363,77.76247795820237L83.64247159090908,77.78422858715057L83.88920454545455,77.12410491108893L84.1359375,77.59047743082046L84.38267045454546,77.95903366208076L84.62940340909091,77.37493168711661L84.87613636363636,78.3518109858036L85.12286931818183,77.1449675798416L85.36960227272728,78.8931941628456L85.61633522727273,78.09137489795685L85.86306818181818,78.37830033302306L86.10980113636363,78.28916143774987L86.3565340909091,78.7569757938385L86.60326704545454,79.40932762026786L86.85000000000001,77.46154736876487L87.09673295454546,78.17780595421792L87.34346590909091,78.7244113922119L87.59019886363637,78.73253490924834L87.83693181818181,79.0798592209816L88.08366477272726,78.4109350681305L88.33039772727273,77.62711238265037L88.57713068181818,79.09056749343873L88.82386363636364,78.55666604042052L89.07059659090909,78.63206353187562L89.31732954545454,78.58793806433678L89.5640625,78.69838800430297L89.81079545454546,79.28779136538505L90.05752840909092,78.3838127195835L90.30426136363636,79.32251852154731L90.55099431818181,78.53239219784737L90.79772727272727,79.38955512046815L91.04446022727272,79.31542363166808L91.29119318181819,78.3672843515873L91.53792613636364,78.97633712887765L91.78465909090909,79.50121831297874L92.03139204545455,78.7507424890995L92.278125,79.41171016693116L92.52485795454545,79.28236689567566L92.7715909090909,78.81438549757003L93.01832386363635,80.1331426590681L93.26505681818182,79.05586671233176L93.51178977272727,79.86462701261043L93.75852272727273,79.80324786305428L94.00525568181818,80.12247834503651L94.25198863636363,79.56373598575593L94.4987215909091,80.16247172057628L94.74545454545455,79.63737514019013L94.9921875,80.17156671881675L95.23892045454545,75.17306294441222L95.4856534090909,78.75688787698745L95.73238636363637,79.79777064323424L95.97911931818182,80.11892650425433L96.22585227272728,79.68405898809434L96.47258522727273,80.46173628568648L96.71931818181818,79.86388851106166L96.96605113636365,80.8764620512724L97.21278409090908,80.25113586485386L97.45951704545455,81.13356169462203L97.70625,79.6709242105484L97.95298295454545,80.16892921328544L98.19971590909091,80.08980844318866L98.44644886363636,80.73544781804085L98.69318181818183,80.81907872259616L98.93991477272728,80.39120499193668L99.18664772727273,80.45727450549602L99.43338068181819,81.22588757574557L99.68011363636363,80.39080936610698L99.9268465909091,80.5831890195608L100.17357954545454,80.4663870871067L100.4203125,79.30210422873496L100.66704545454546,81.17129121124744L100.91377840909091,80.54275166392327L101.16051136363637,80.4975887775421L101.40724431818182,80.7146466910839L101.65397727272727,80.43752838075162L101.90071022727273,81.63090732097626L102.14744318181818,81.85943838357925L102.39417613636363,78.45827829241753L102.64090909090909,80.45236874520778L102.88764204545454,81.18737999498843L103.134375,80.81243660449982L103.38110795454546,80.78840892910958L103.6278409090909,81.28801841437817L103.87457386363637,81.15928616523742L104.12130681818181,81.08122039735316L104.36803977272727,80.72637479901314L104.61477272727272,81.55721102058887L104.86150568181817,80.82498233914374L105.10823863636364,81.62901710867881L105.35497159090909,82.2058791309595L105.60170454545455,82.11186964213849L105.8484375,81.65417011976243L106.09517045454545,82.52577778100967L106.34190340909092,82.13046405613423L106.58863636363635,82.30788465738296L106.83536931818182,81.97108399271964L107.08210227272727,81.56077165305614L107.32883522727272,81.7815924078226L107.57556818181818,81.67279970049857L107.82230113636363,81.8933127462864L108.0690340909091,82.45314087867736L108.31576704545455,81.98615733683108L108.5625,81.75099294781685L108.80923295454545,82.41874341070653L109.0559659090909,82.52308312952519L109.30269886363637,83.1402286529541L109.54943181818182,80.97148697972297L109.79616477272727,82.34099414348601L110.04289772727273,82.06478137671947L110.28963068181818,81.39764633178712L110.53636363636365,82.59084064662457L110.7830965909091,83.3045056849718L111.02982954545455,83.40887177884578L111.2765625,82.97682199776172L111.52329545454545,82.6911010235548L111.77002840909091,82.93867487609387L112.01676136363636,83.0784846484661L112.26349431818181,82.94751931130885L112.51022727272728,83.36306709945201L112.75696022727273,82.54105772972108L113.00369318181819,83.14796533584594L113.25042613636364,83.06412343084811L113.49715909090908,82.73545507490635L113.74389204545454,83.48131965994834L113.990625,83.22134953141213L114.23735795454546,82.72517319917678L114.48409090909091,83.73736869692802L114.73082386363636,83.53689629733562L114.97755681818182,83.70860230326653L115.22428977272727,84.41660549640655L115.47102272727274,84.54438824355603L115.71775568181819,84.02420621514321L115.96448863636363,83.96502938270568L116.21122159090909,84.13949158191681L116.45795454545454,84.36986889839172L116.70468749999999,83.64482302367686L116.95142045454546,84.38833143711089L117.1981534090909,83.87417610883712L117.44488636363637,84.91707217097282L117.69161931818182,84.08788439035415L117.93835227272727,83.86239085495471L118.18508522727272,84.51553393304349L118.43181818181817,84.80962898731232L118.67855113636364,83.48207134902476L118.92528409090909,85.3861613214016L119.17201704545454,84.79214232563973L119.41875,84.55558885037898L119.66548295454545,84.51414045095443L119.91221590909092,84.60367057621478L120.15894886363637,85.18748682141303L120.40568181818182,85.34056324660777L120.65241477272727,85.26056770384311L120.89914772727272,85.18833961486816L121.14588068181818,85.39260562658309L121.39261363636363,85.22905830442906L121.63934659090908,84.93241805732251L121.88607954545455,85.23720380067824L122.1328125,85.06813969612121L122.37954545454546,85.8322074651718L122.62627840909092,85.70384886264802L122.87301136363635,86.1105302363634L123.11974431818182,86.23709973096848L123.36647727272727,85.25127928853036L123.61321022727273,85.78541372120381L123.85994318181818,85.1423239350319L124.10667613636363,86.21771846115588L124.3534090909091,85.94200242459775L124.60014204545455,86.48119647204875L124.84687500000001,85.45762892961501L125.09360795454546,86.8372729063034L125.3403409090909,85.82584668099881L125.58707386363636,85.17173651754855L125.83380681818181,86.46737594306468L126.08053977272728,86.9123099386692L126.32727272727273,86.72063801586627L126.57400568181818,86.54379766583442L126.82073863636364,86.22306380569934L127.0674715909091,87.30879295766353L127.31420454545456,85.97634714245795L127.5609375,86.69051330685616L127.80767045454544,86.16165828108787L128.0544034090909,87.1014190852642L128.30113636363637,86.91420454680919L128.54786931818182,87.60128792524337L128.79460227272727,87.19862435162067L129.04133522727273,87.22859081029893L129.28806818181818,87.11315158903598L129.53480113636365,86.9700361430645L129.7815340909091,87.01060976982116L130.02826704545453,86.97170656323432L130.275,87.83565227091313L130.52173295454546,86.30665514767169L130.7684659090909,87.40553226470946L131.01519886363636,88.12130730748177L131.2619318181818,87.98015240728854L131.5086647727273,87.13341642320157L131.75539772727274,87.29099858701228L132.0021306818182,87.96678904592991L132.24886363636364,88.04255578815936L132.4955965909091,87.87766333818435L132.74232954545454,87.71712277233601L132.9890625,88.35741680264474L133.23579545454547,87.56614316403865L133.48252840909092,88.29586181938647L133.72926136363637,88.44834920167922L133.97599431818182,89.06214509308337L134.22272727272727,88.84391348958015L134.46946022727275,88.93251169621944L134.71619318181817,88.05015619993209L134.96292613636362,88.06204255819321L135.2096590909091,88.789189645648L135.45639204545455,88.44401929676533L135.703125,89.5093209683895L135.94985795454545,88.66539392769336L136.1965909090909,89.776895904541L136.44332386363635,88.74095406532287L136.69005681818183,89.61696636080741L136.93678977272725,89.88759640753268L137.18352272727273,89.63061105608939L137.43025568181818,89.2282595872879L137.67698863636366,89.03539199531077L137.92372159090908,89.35227070152759L138.17045454545453,89.2816822618246L138.4171875,89.63620696365832L138.66392045454543,88.72565213739871L138.9106534090909,90.58459241092204L139.15738636363636,89.57520585656165L139.4041193181818,89.59540035724639L139.65085227272726,89.41961500942706L139.89758522727274,89.71778061389922L140.1443181818182,89.83098235130309L140.39105113636361,90.48512768149375L140.6377840909091,90.19567903280257L140.88451704545454,89.30531431138515L141.13125,89.61635533869266L141.37798295454544,90.4686300843954L141.62471590909092,90.07968153953551L141.87144886363635,91.03091549277305L142.11818181818182,90.49423586726188L142.36491477272727,89.95953876674174L142.61164772727275,89.95080422759055L142.85838068181818,90.4936644077301L143.10511363636363,90.48881579339503L143.3518465909091,89.91707492768764L143.59857954545453,90.56504849493503L143.8453125,90.86632635593413L144.09204545454546,90.45933727324008L144.3387784090909,90.56717608273028L144.58551136363636,90.9187687575817L144.83224431818184,91.19794871807098L145.0789772727273,90.41358094811439L145.3257102272727,90.54088015258311L145.5724431818182,88.76033533513545L145.81917613636364,90.8103409051895L146.0659090909091,90.63791398108005L146.31264204545454,90.65961185991763L146.55937500000002,91.68587405383586L146.80610795454544,90.6570315003395L147.05284090909092,91.59863855838775L147.29957386363637,91.50565330088138L147.5463068181818,91.16244349777698L147.79303977272727,91.58817645311355L148.03977272727272,91.69365029931068L148.2865056818182,90.92009190618991L148.53323863636362,91.92608047425746L148.7799715909091,91.75035227239131L149.02670454545455,91.53532963395118L149.2734375,91.00625481605529L149.52017045454545,91.90280009210109L149.7669034090909,92.56734598577022L150.01363636363635,92.63471227288245L150.2603693181818,91.62141781449317L150.50710227272728,91.91521834731101L150.75383522727273,91.43855955600738L151.00056818181818,91.7393582701683L151.24730113636363,91.72577511668204L151.4940340909091,92.32044469714164L151.74076704545453,91.5593045592308L151.9875,90.37411507368087L152.23423295454546,91.19881469905376L152.48096590909088,91.62264425456523L152.72769886363636,91.48107174932956L152.9744318181818,91.47104043662547L153.2211647727273,92.25024309158324L153.4678977272727,92.06663314402103L153.7146306818182,91.93025212883948L153.96136363636364,91.14827130138873L154.2080965909091,91.93023894131183L154.45482954545454,92.48772408962249L154.7015625,92.90344771146773L154.94829545454544,92.48144243061542L155.1950284090909,92.7425291031599L155.44176136363637,92.45056163668632L155.68849431818182,92.89052393436431L155.93522727272727,92.65837069749831L156.18196022727273,91.98103290200233L156.4286931818182,92.64543373286723L156.67542613636363,92.5094747185707L156.92215909090908,93.82370416224002L157.16889204545456,92.28634175062179L157.41562499999998,92.80601386129855L157.66235795454546,92.52843398749827L157.9090909090909,92.34179090857505L158.15582386363639,92.86315981447696L158.4025568181818,91.30965147316455L158.6492897727273,93.02537519633769L158.89602272727274,93.1333239018917L159.14275568181816,92.72581171393394L159.38948863636364,93.5796469837427L159.6362215909091,92.68218737244605L159.88295454545454,93.66923865079879L160.1296875,93.55236198902129L160.37642045454547,93.66537910103797L160.62315340909092,92.62518648207187L160.86988636363637,93.05440973639487L161.11661931818182,93.33918560445308L161.3633522727273,91.98518257737159L161.61008522727272,92.41920609176158L161.85681818181817,92.30601314604282L162.10355113636365,93.19944616556167L162.35028409090907,93.47217302918433L162.59701704545455,94.31196797788142L162.84375,92.35102657377719L163.09048295454548,93.04412346482276L163.3372159090909,92.83467915058135L163.58394886363638,92.6995773255825L163.83068181818183,93.06063864529132L164.07741477272725,92.74114441275596L164.32414772727273,94.14309729039668L164.57088068181818,91.52888972461223L164.81761363636363,92.84788426160812L165.06434659090908,93.20293206870555L165.31107954545456,92.49267380833625L165.55781249999998,93.3556304514408L165.80454545454546,92.9165605098009L166.0512784090909,93.41021802425384L166.29801136363636,92.75216479003429L166.5447443181818,93.82780987918376L166.79147727272726,93.69351688921451L167.03821022727274,93.73439822494983L167.28494318181816,93.4493849813938L167.53167613636364,93.65630168616771L167.7784090909091,93.7538542240858L168.02514204545454,93.24510138630866L168.271875,93.43118619322776L168.51860795454544,93.03171400129794L168.76534090909092,93.6955038100481L169.01207386363635,93.67109369635581L169.25880681818182,94.59514375925063L169.50553977272727,93.60704187452792L169.75227272727273,93.57336092889308L169.99900568181818,94.42724455296992L170.24573863636365,94.12840198874473L170.49247159090908,94.08452708423137L170.73920454545456,93.6679594606161L170.9859375,95.53652223348617L171.23267045454546,93.19635149240493L171.4794034090909,94.30074099600314L171.72613636363636,94.05032742917537L171.97286931818184,94.35656819641589L172.21960227272726,94.40857980549335L172.46633522727274,93.87152213752269L172.7130681818182,94.40936666131019L172.95980113636364,94.2471380919218L173.2065340909091,94.89023666977882L173.45326704545454,94.68403648734092L173.70000000000002,94.02703385949134L173.94673295454544,93.99572666883468L174.19346590909092,95.12537468373775L174.44019886363637,94.16588094234466L174.68693181818182,94.77221708893775L174.93366477272727,94.17540673315524L175.18039772727275,95.5072283387184L175.42713068181817,94.48717747032642L175.67386363636362,94.9748082846403L175.9205965909091,94.83684037029742L176.16732954545452,94.7264387845993L176.4140625,95.43911915421485L176.66079545454545,94.68222540020942L176.90752840909093,94.62908405959605L177.15426136363635,95.02798039615153L177.40099431818183,94.53445475697517L177.64772727272728,95.09122777879237L177.8944602272727,95.38346339166164L178.14119318181818,94.88621886968612L178.38792613636363,95.21332670152186L178.63465909090908,94.65046543776988L178.88139204545453,94.3625245630741L179.128125,93.02114639580249L179.37485795454546,95.80019366145133L179.6215909090909,95.43104838728904L179.86832386363636,95.89445810914039L180.11505681818184,94.86067023277282L180.36178977272726,95.47376718521117L180.6085227272727,95.91207664608955L180.8552556818182,95.06443072259425L181.10198863636361,95.5404169499874L181.3487215909091,95.53486939668655L181.59545454545454,95.17523232996463L181.84218750000002,95.50350945591926L182.08892045454544,95.29799942076205L182.33565340909092,95.10592308044433L182.58238636363637,94.76472657322883L182.8291193181818,95.64598750472068L183.07585227272727,95.96950832903384L183.32258522727273,95.2313980102539L183.56931818181818,95.02606820464133L183.81605113636363,95.60154553651809L184.0627840909091,95.86679946780204L184.30951704545456,96.2586184978485L184.55625,95.8630058556795L184.80298295454546,95.57455945909022L185.0497159090909,95.58631833791732L185.29644886363636,95.93276348114013L185.5431818181818,95.6342462092638L185.7899147727273,95.4412203669548L186.0366477272727,95.93919899463653L186.2833806818182,96.19723495244979L186.53011363636364,96.51030685901641L186.77684659090912,95.85360754430293L187.02357954545454,95.99158864617347L187.2703125,95.8303139746189L187.51704545454547,96.18802566230296L187.7637784090909,96.59461032748221L188.01051136363637,96.17060493826865L188.25724431818182,96.23732503652572L188.50397727272727,96.33666228652L188.75071022727272,96.96299951672553L188.9974431818182,96.37347746789455L189.24417613636365,96.07572946846484L189.4909090909091,93.03286571204661L189.73764204545455,96.18405621647834L189.984375,96.43250923752784L190.23110795454545,97.37179968655109L190.4778409090909,96.40534732639789L190.72457386363638,95.91326352357864L190.9713068181818,95.86614888310432L191.21803977272728,97.36230027079581L191.46477272727273,96.27616230547427L191.7115056818182,97.12346095740794L191.95823863636363,97.14945797026157L192.20497159090908,97.05424841642379L192.45170454545456,95.00550005733966L192.69843749999998,97.69490730166434L192.94517045454546,97.0815246194601L193.1919034090909,96.88331607878207L193.43863636363636,97.38518942296504L193.6853693181818,96.8271328151226L193.9321022727273,96.71106938421725L194.1788352272727,96.61663349866866L194.42556818181816,96.48065250515937L194.67230113636364,97.292358019948L194.9190340909091,97.97058817148208L195.16576704545454,96.54922764897346L195.4125,97.00822394490241L195.65923295454547,98.1246404737234L195.9059659090909,97.79907558262347L196.15269886363637,96.7441612869501L196.39943181818182,97.19159651696681L196.64616477272725,97.87590611875056L196.89289772727273,97.10473466813563L197.13963068181818,97.75115210711955L197.38636363636365,97.4984658896923L197.63309659090908,96.8453535825014L197.87982954545456,97.71450396776198L198.1265625,96.76080834269523L198.37329545454546,97.20662150681018L198.6200284090909,98.30823723375796L198.86676136363639,97.4985757857561L199.1134943181818,98.28854825496673L199.36022727272726,98.20796806514262L199.60696022727274,97.96169977784156L199.8536931818182,97.8082848727703L200.10042613636364,98.03657416403293L200.3471590909091,98.68741382062434L200.59389204545457,98.67735613286494L200.840625,97.88299661278724L201.08735795454547,97.07869369685649L201.33409090909092,98.49910032153129L201.58082386363634,97.42638286352157L201.82755681818182,98.98330237865447L202.07428977272727,98.72048813998698L202.32102272727275,98.2522913455963L202.56775568181817,98.41958392560481L202.81448863636365,97.69110929369926L203.0612215909091,98.45258351564406L203.30795454545455,98.65249764323234L203.5546875,98.98292433619498L203.80142045454545,99.70722291767596L204.0481534090909,98.61928265690803L204.29488636363635,98.19892581701278L204.54161931818183,95.65744307041167L204.78835227272725,98.48910857141017L205.03508522727273,99.1683453708887L205.28181818181818,98.97540744543075L205.52855113636366,98.44738762974738L205.77528409090908,99.04513869583606L206.02201704545453,99.12865530848502L206.26875,98.95803507566451L206.51548295454543,99.04276933670043L206.7622159090909,98.1324826568365L207.00894886363636,99.87450670599937L207.2556818181818,98.99041924774646L207.50241477272726,99.26002945899963L207.74914772727274,99.519801774621L207.9958806818182,99.4045339912176L208.24261363636361,99.98025309443473L208.4893465909091,99.117533826828L208.73607954545454,99.91706725358962L208.9828125,99.20788157880305L209.22954545454544,99.25533909499644L209.47627840909092,99.31683253645896L209.72301136363635,99.85891904830932L209.96974431818182,100.23434598147868L210.21647727272727,99.30167127549647L210.46321022727275,99.28398680090903L210.70994318181818,99.0045738607645L210.95667613636363,99.89211205542087L211.2034090909091,99.56298213601112L211.45014204545453,99.65877194106578L211.696875,100.33835161626338L211.94360795454546,98.92226170897483L212.1903409090909,100.45372050404548L212.43707386363636,99.81698710620402L212.68380681818184,100.69531161487102L212.9305397727273,100.46294737756251L213.1772727272727,100.14322016537189L213.4240056818182,100.80801662206649L213.67073863636364,99.30997502207755L213.9174715909091,100.30460473299026L214.16420454545454,100.50558265447616L214.41093750000002,100.50373640060424L214.65767045454544,100.53411606848239L214.90440340909092,101.38118613660335L215.15113636363637,100.07740561068057L215.3978693181818,100.96086885929107L215.64460227272727,99.44649670422076L215.89133522727272,102.29057166874408L216.1380681818182,100.63359398543834L216.38480113636362,100.43481398522853L216.6315340909091,100.94792749881744L216.87826704545455,100.24211783111095L217.125,101.02412503361701L217.37173295454545,100.51271710693835L217.6184659090909,101.35505724847316L217.86519886363635,101.53598573207854L218.1119318181818,100.39846915900706L218.35866477272728,101.44649956524371L218.60539772727273,100.73228944242L218.85213068181818,101.7907775580883L219.09886363636363,101.59670110940932L219.3455965909091,101.36176090836524L219.59232954545453,101.43373403847217L219.8390625,101.50102559626102L220.08579545454546,102.11382802724837L220.33252840909088,101.34605456292628L220.57926136363636,100.78214269280433L220.8259943181818,102.17184435725211L221.0727272727273,101.94908503592013L221.3194602272727,101.57886278033256L221.5661931818182,101.74165401756763L221.81292613636364,101.98015045523643L222.0596590909091,100.68093720972537L222.30639204545454,102.43900168836116L222.553125,102.32263494431972L222.79985795454544,102.48686362206935L223.0465909090909,101.07895437777042L223.29332386363637,102.35336627960204L223.54005681818182,101.89645800888538L223.78678977272727,101.80041324496268L224.03352272727273,102.55323205292224L224.2802556818182,102.18055691719054L224.52698863636363,102.46194798648357L224.77372159090908,101.61832425892352L225.02045454545456,103.21544815003871L225.26718749999998,103.56646936535834L225.51392045454546,102.20479998886584L225.7606534090909,102.7446622043848L226.00738636363639,102.94437412321567L226.2541193181818,102.89440658092498L226.5008522727273,102.7122824281454L226.74758522727274,103.18048361837863L226.99431818181816,102.29709070324897L227.24105113636364,103.35547771453857L227.4877840909091,103.2835265636444L227.73451704545454,103.06658294200896L227.98125,102.82622266709804L228.22798295454547,102.83384945392608L228.47471590909092,102.729180046916L228.72144886363637,102.76964817345142L228.96818181818182,102.96166297197341L229.2149147727273,102.80624795854091L229.46164772727272,103.00646979510783L229.70838068181817,103.6573226392269L229.95511363636365,102.91466262340545L230.20184659090907,103.81175737977027L230.44857954545455,103.0915117651224L230.6953125,103.79716318249702L230.94204545454548,103.89636855721473L231.1887784090909,104.39798694252967L231.43551136363638,103.38907074332236L231.68224431818183,103.96932196021079L231.92897727272725,103.78005016744136L232.17571022727273,104.03567720353603L232.42244318181818,104.25015915334224L232.66917613636363,104.04565576612949L232.91590909090908,103.82993858456611L233.16264204545456,104.04400732517242L233.40937499999998,105.02325598299502L233.65610795454546,103.80733076632022L233.9028409090909,104.06457547247409L234.14957386363636,104.81524910926818L234.3963068181818,104.06360838711261L234.64303977272726,104.01038352549075L234.88977272727274,104.48829513192176L235.13650568181816,104.35585718750953L235.38323863636364,103.91958300173282L235.6299715909091,104.29512862265109L235.87670454545454,105.08860457837581L236.1234375,104.28013879954814L236.37017045454544,104.59654275476932L236.61690340909092,105.67391980588435L236.86363636363635,104.55302830934524L237.11036931818182,104.42926336228847L237.35710227272727,104.48714781701564L237.60383522727273,105.38889337480067L237.85056818181818,104.88089222609996L238.09730113636365,105.67277688682078L238.34403409090908,105.33998083472251L238.59076704545456,105.29879618585109L238.8375,104.84209012389182L239.08423295454546,105.36129627525806L239.3309659090909,106.3930356889963L239.57769886363636,104.80260227024554L239.82443181818184,106.27138514220714L240.07116477272726,106.13234903812408L240.31789772727274,106.01193811893462L240.5646306818182,105.66224444806575L240.81136363636364,105.40620859861373L241.0580965909091,106.187811383605L241.30482954545454,105.94498943686484L241.55156250000002,106.15714598596095L241.79829545454544,106.3847802966833L242.04502840909092,106.49711165726184L242.29176136363637,105.20501967668532L242.53849431818182,105.88346522450446L242.78522727272727,105.63564080893993L243.03196022727275,106.33844811618327L243.27869318181817,106.03955719769L243.52542613636362,106.78779553771018L243.7721590909091,107.28023100793361L244.01889204545452,105.82525108158588L244.265625,106.71636309623717L244.51235795454545,107.20383126437663L244.75909090909093,106.21590521335601L245.00582386363635,107.29929138123988L245.25255681818183,105.92340145409106L245.49928977272728,106.95582661926746L245.7460227272727,106.2604482859373L245.99275568181818,107.07043942213058L246.23948863636363,106.24710250794887L246.48622159090908,106.75017152130603L246.73295454545453,107.73925367891788L246.9796875,107.11623530983924L247.22642045454546,107.54621904492377L247.4731534090909,107.38889623582362L247.71988636363636,107.02841516733169L247.96661931818184,106.8474866837263L248.21335227272726,106.11394804120063L248.4600852272727,107.40269478559493L248.7068181818182,107.47953411340713L248.95355113636361,107.67627883851527L249.2002840909091,108.96861259043216L249.44701704545454,108.00303500294685L249.69375000000002,107.38933582007884" style="fill: none;" fill="none"></path></g><g><path stroke="rgb(255, 112, 67)" stroke-width="2px" d="M39.47727272727273,-43.42091385126113L41.94460227272727,20.306301379203802L44.41193181818182,-18.589326775074L46.87926136363637,12.07564886808396L49.346590909090914,23.483985626697546L51.81392045454545,44.11368351578713L54.28125,9.448350483179098L56.74857954545454,-8.469094967842096L59.215909090909086,-2.5266191720962468L61.68323863636363,42.7240873515606L64.15056818181819,36.172541195154196L66.61789772727273,25.835119599103933L69.08522727272727,32.21022542715073L71.55255681818181,-28.523913359642023L74.01988636363636,34.92723416686056L76.4872159090909,38.23653873205183L78.95454545454545,27.170796358585363L81.421875,35.01266297101972L83.88920454545455,22.81150084137917L86.3565340909091,-30.21309498548507L88.82386363636364,32.27208372354505L91.29119318181819,30.528068357706076L93.75852272727273,-7.555761969089502L96.22585227272728,29.519398325681664L98.69318181818183,29.084860497713095L101.16051136363637,16.62627782821656L103.6278409090909,19.094393962621695L106.09517045454545,13.140981310606008L108.5625,38.823876047134405L111.02982954545455,41.941838377714134L113.49715909090908,30.85898738503454L115.96448863636363,34.982797616720205L118.43181818181817,5.728052222728735L120.89914772727272,43.87882243990896L123.36647727272727,51.872969830036155L125.83380681818181,-3.649563527107233L128.30113636363637,50.00859629511832L130.7684659090909,35.8840596318245L133.23579545454547,40.854095929861074L135.703125,22.438583934307104L138.17045454545453,48.481005841493584L140.6377840909091,61.81442272067069L143.10511363636363,50.47710519433021L145.5724431818182,25.782589280605322L148.03977272727272,31.954396182298638L148.53323863636362,42.50731956362722L149.02670454545455,48.25280007123948L149.52017045454545,43.42098664641381L150.01363636363635,52.249544078111654L150.50710227272728,45.990514868497826L151.00056818181818,25.231130832433706L151.4940340909091,41.698132866620995L151.9875,63.72540977001191L152.48096590909088,56.03054013252259L152.9744318181818,37.503751778602606L153.4678977272727,-7.980576193332666L153.96136363636364,41.03544201850892L154.45482954545454,3.2114675283432064L154.94829545454544,32.851622813940025L155.44176136363637,23.328891509771353L155.93522727272727,34.867336416244484L156.4286931818182,26.501845830678946L156.92215909090908,39.583275431394554L157.41562499999998,33.68818681836126L157.9090909090909,47.41054784655569L158.4025568181818,56.632506811618796L158.89602272727274,49.43975668549538L159.38948863636364,50.236775690317145L159.88295454545454,51.11456390619277L160.37642045454547,48.56761273145676L160.86988636363637,18.270191067457205L161.3633522727273,33.60741760730744L161.85681818181817,61.893925929069525L162.35028409090907,51.839113050699225L162.84375,50.3921950995922L163.3372159090909,27.850419992208487L163.83068181818183,31.346117073297506L164.32414772727273,31.46061118841172L164.81761363636363,43.207946532964684L165.31107954545456,59.00888171195983L165.80454545454546,21.354314202070242L166.29801136363636,13.985598498582846L166.79147727272726,58.025549316406256L167.28494318181816,39.28568568229673L167.7784090909091,52.27674555182456L168.271875,25.88703449964524L168.76534090909092,38.438255155086495L169.25880681818182,54.43753075003623L169.75227272727273,45.2861426413059L170.24573863636365,40.72187777757645L170.73920454545456,41.24843817353246L171.23267045454546,20.4855462551117L171.72613636363636,50.730824434757224L172.21960227272726,24.63988121747971L172.7130681818182,51.87561612725257L173.2065340909091,48.40113338232041L173.70000000000002,65.25454756021499L174.19346590909092,44.59177535176278L174.68693181818182,64.09707825779914L175.18039772727275,58.28405123353005L175.67386363636362,29.75406598448754L176.16732954545452,57.86481093764304L176.66079545454545,56.949297600984565L177.15426136363635,70.84647249579429L177.64772727272728,66.95134278535843L178.14119318181818,52.148131990432745L178.63465909090908,51.1624697983265L179.128125,27.178990209102636L179.6215909090909,23.190985137224203L180.11505681818184,52.3615149796009L180.6085227272727,25.16042810082436L181.10198863636361,27.571319156885153L181.59545454545454,37.67307084202767L182.08892045454544,50.67926120162009L182.58238636363637,52.50099506378173L183.07585227272727,52.38109406232833L183.56931818181818,61.14658873677254L184.0627840909091,57.16735776662827L184.55625,66.60445805788041L185.0497159090909,33.95633321404458L185.5431818181818,66.10625963807107L186.0366477272727,65.33332985043525L186.53011363636364,63.562499845027915L187.02357954545454,46.2222197294235L187.51704545454547,38.139408195018774L188.01051136363637,-1.2356832981109562L188.50397727272727,51.49528782963752L188.9974431818182,54.4299962759018L189.4909090909091,16.152537876367575L189.984375,63.835982793569556L190.4778409090909,70.80317344665526L190.9713068181818,13.292637878656393L191.46477272727273,47.67782386541367L191.95823863636363,52.5063316166401L192.45170454545456,50.52518692016601L192.94517045454546,33.728857153654076L193.43863636363636,37.88451086878774L193.9321022727273,51.89166974425315L194.42556818181816,60.21197986006736L194.9190340909091,48.47144927978516L195.4125,39.750299865007406L195.9059659090909,48.70684664845467L196.39943181818182,36.42145138382912L196.89289772727273,26.349881553649908L197.38636363636365,35.433415436744696L197.87982954545456,56.41543131470681L198.37329545454546,60.47808658480645L198.86676136363639,70.52915420532226L199.36022727272726,54.318966084718696L199.8536931818182,62.74668421745301L200.3471590909091,55.771967881917945L200.840625,68.81599765419959L201.33409090909092,42.34625589251519L201.82755681818182,48.801770472526556L202.32102272727275,39.68394022583962L202.81448863636365,29.060762488842016L203.30795454545455,47.365622335672384L203.80142045454545,57.62033175826072L204.29488636363635,58.47958710193633L204.78835227272725,67.47740205526351L205.28181818181818,20.101367199420935L205.77528409090908,37.34478932023049L206.26875,46.009830200672155L206.7622159090909,67.73848872780799L207.2556818181818,76.53085079193114L207.74914772727274,65.00874962806701L208.24261363636361,53.73718511462211L208.73607954545454,56.75369139909745L209.22954545454544,68.49564623236655L209.72301136363635,47.850518935918814L210.21647727272727,68.00543066263198L210.70994318181818,44.641360455751425L211.2034090909091,71.31074380278588L211.696875,76.47272017002105L212.1903409090909,48.232456111907965L212.68380681818184,69.63744875192641L213.1772727272727,49.715006762743L213.67073863636364,63.73520370721816L214.16420454545454,61.84433203339576L214.65767045454544,55.40944274663924L215.15113636363637,52.01257299780845L215.64460227272727,67.44000222682952L216.1380681818182,67.42241006493568L216.6315340909091,62.89260860681533L217.125,69.99900680184365L217.6184659090909,49.63909056186675L218.1119318181818,54.124748969078055L218.60539772727273,63.36302530169486L219.09886363636363,64.49923630952834L219.59232954545453,59.91700124144553L220.08579545454546,62.76919093132018L220.57926136363636,68.84566959142684L221.0727272727273,54.73915588259696L221.5661931818182,77.71381598114968L222.0596590909091,52.86260586380959L222.553125,50.9780202448368L223.0465909090909,80.60119439065456L223.54005681818182,72.60149505138396L224.03352272727273,56.541161203384405L224.52698863636363,38.942449504137045L225.02045454545456,39.28045462965966L225.51392045454546,49.5575037240982L226.00738636363639,48.49638249874113L226.5008522727273,62.47381668686866L226.99431818181816,61.39345046281814L227.4877840909091,73.14977090954781L227.98125,28.698360437154776L228.47471590909092,42.34175454974175L228.96818181818182,56.33734356760978L229.46164772727272,65.15847202539445L229.95511363636365,63.68424710035323L230.44857954545455,55.27499150633811L230.94204545454548,50.80523725748061L231.43551136363638,69.60062038302421L231.92897727272725,49.44387998580932L232.42244318181818,65.97750540971755L232.91590909090908,69.46443718075753L233.40937499999998,46.37781497240067L233.9028409090909,73.64473398923873L234.3963068181818,41.80034499764443L234.88977272727274,49.195655548572546L235.38323863636364,42.06984531283379L235.87670454545454,47.337779068946816L236.37017045454544,57.104057633876806L236.86363636363635,71.04607012271882L237.35710227272727,67.98883196115494L237.85056818181818,77.13653635382651L238.34403409090908,60.231910610198966L238.8375,80.48252422511578L239.3309659090909,62.9605507493019L239.82443181818184,61.51767697334289L240.31789772727274,68.96946530938148L240.81136363636364,48.877167963981634L241.30482954545454,58.532460296154014L241.79829545454544,58.69056996107102L242.29176136363637,74.00936033725739L242.78522727272727,40.18446844220159L243.27869318181817,54.80237689018249L243.7721590909091,33.45594566464425L244.265625,64.25940793156623L244.75909090909093,64.80437811613082L245.25255681818183,70.94222273826598L245.7460227272727,51.63496133089065L246.23948863636363,67.62389790415763L246.73295454545453,67.24047493338584L247.22642045454546,63.816649878025046L247.71988636363636,56.26379233002662L248.21335227272726,67.77978327274323L248.7068181818182,24.07893654108048L249.2002840909091,39.653389120101934L249.69375000000002,68.22518762350082" style="fill: none;" fill="none"></path></g><g><path stroke="rgb(51, 187, 238)" stroke-width="2px" d="M37.00994318181818,-52.41007778644561L39.47727272727273,15.246299767494207L41.94460227272727,49.18229218721389L44.41193181818182,18.330176734924322L46.87926136363637,38.03556960225106L49.346590909090914,22.662332320213324L51.81392045454545,43.56353502869604L54.28125,37.00628306865693L56.74857954545454,43.737751060724264L59.215909090909086,37.90100407004357L61.68323863636363,44.12833046317098L64.15056818181819,48.7380922973156L66.61789772727273,39.48145013451577L69.08522727272727,57.598739379644385L71.55255681818181,40.97923677563668L74.01988636363636,62.30766263008117L76.4872159090909,56.816261821985236L78.95454545454545,44.70838826298714L81.421875,45.40377538800237L83.88920454545455,55.70584561824798L86.3565340909091,44.37740769386292L88.82386363636364,65.78776326179504L91.29119318181819,53.03176667690276L93.75852272727273,36.10895972847939L96.22585227272728,61.31096687316894L98.69318181818183,51.460595840215674L101.16051136363637,39.89404391646386L103.6278409090909,47.867724263668066L106.09517045454545,47.031687760353094L108.5625,62.60009166002274L111.02982954545455,55.64294111132621L113.49715909090908,55.5799574792385L115.96448863636363,65.46846684217452L118.43181818181817,65.38527112603188L120.89914772727272,68.88972472548485L123.36647727272727,67.14896228313445L125.83380681818181,61.30941953659057L128.30113636363637,54.73499741554261L130.7684659090909,74.37956061363221L133.23579545454547,61.94874208569526L135.703125,71.94260221123695L138.17045454545453,76.7397939801216L140.6377840909091,81.62922810912131L143.10511363636363,72.59475182890891L145.5724431818182,80.00987883806228L148.03977272727272,73.75367175936698L148.53323863636362,68.62896334528922L149.02670454545455,66.66954290270805L149.52017045454545,83.65034859776496L150.01363636363635,79.17548637986182L150.50710227272728,76.22016143202781L151.00056818181818,82.52262156605721L151.4940340909091,79.90350384414195L151.9875,66.25570070147515L152.48096590909088,84.01462767422198L152.9744318181818,83.83923795223237L153.4678977272727,83.81641913354396L153.96136363636364,84.24678530693055L154.45482954545454,85.8583627283573L154.94829545454544,83.18402443230151L155.44176136363637,60.335916244983665L155.93522727272727,73.0461609005928L156.4286931818182,68.70298054218291L156.92215909090908,49.88669958114623L157.41562499999998,73.08473002314568L157.9090909090909,63.598668837547294L158.4025568181818,56.110368633270255L158.89602272727274,67.05502312779427L159.38948863636364,81.52684014439582L159.88295454545454,86.9419774800539L160.37642045454547,80.38400020599366L160.86988636363637,69.91146799325944L161.3633522727273,69.64660089612006L161.85681818181817,84.44146398603915L162.35028409090907,87.69914817214013L162.84375,78.57117232084273L163.3372159090909,57.42010113000869L163.83068181818183,73.88760429024695L164.32414772727273,66.49319049119948L164.81761363636363,80.32936427891255L165.31107954545456,83.87422006726264L165.80454545454546,67.76148777604102L166.29801136363636,77.40789171457291L166.79147727272726,85.38656573891639L167.28494318181816,81.31517153382302L167.7784090909091,73.34035705924035L168.271875,70.22335302233697L168.76534090909092,70.21495696306228L169.25880681818182,78.7316469490528L169.75227272727273,72.19948645830154L170.24573863636365,72.23260473608971L170.73920454545456,68.60290479063987L171.23267045454546,73.17558329701423L171.72613636363636,76.20598044395447L172.21960227272726,75.26055779457091L172.7130681818182,73.63837760090827L173.2065340909091,75.66037725806235L173.70000000000002,77.71130155920982L174.19346590909092,76.27887230515479L174.68693181818182,69.51323103308678L175.18039772727275,88.11119686961173L175.67386363636362,72.2002249598503L176.16732954545452,70.92478003501891L176.66079545454545,78.81074573993682L177.15426136363635,85.37795428335666L177.64772727272728,61.45937930941581L178.14119318181818,84.60219357311725L178.63465909090908,76.39549400806426L179.128125,73.6118618786335L179.6215909090909,50.459398740530006L180.11505681818184,83.17710098028182L180.6085227272727,75.35392549037932L181.10198863636361,82.4796785801649L181.59545454545454,55.31809713840485L182.08892045454544,86.22544635236262L182.58238636363637,79.70889989435672L183.07585227272727,78.09613999128341L183.56931818181818,56.78044449687003L184.0627840909091,85.47263194024563L184.55625,83.58459998071194L185.0497159090909,87.11826834976672L185.5431818181818,48.43599241375924L186.0366477272727,75.99446129202842L186.53011363636364,86.9346584022045L187.02357954545454,77.65390943884849L187.51704545454547,72.6514581978321L188.01051136363637,44.286158794164635L188.50397727272727,76.71711143255233L188.9974431818182,85.73362630009652L189.4909090909091,65.70739846825599L189.984375,83.00268713533879L190.4778409090909,74.9444791316986L190.9713068181818,67.41986047625541L191.46477272727273,80.83002876639367L191.95823863636363,82.10599679648875L192.45170454545456,77.36679058670997L192.94517045454546,81.27539795041085L193.43863636363636,81.51909027397633L193.9321022727273,93.5165534555912L194.42556818181816,69.65391557812691L194.9190340909091,77.20513787269591L195.4125,92.35603783428668L195.9059659090909,77.15922769308091L196.39943181818182,77.99415644407273L196.89289772727273,76.11974280476569L197.38636363636365,80.26214305460452L197.87982954545456,83.28549366593361L198.37329545454546,80.89876655638217L198.86676136363639,88.56044758260249L199.36022727272726,82.73897174894809L199.8536931818182,92.76406433582305L200.3471590909091,72.7574419617653L200.840625,94.15703650712966L201.33409090909092,79.84111365079879L201.82755681818182,93.15026547908782L202.32102272727275,78.6449081838131L202.81448863636365,84.63859554529189L203.30795454545455,72.59402211904526L203.80142045454545,79.15971409678458L204.29488636363635,80.2957756459713L204.78835227272725,93.6739905565977L205.28181818181818,75.73538791537284L205.77528409090908,69.5402127146721L206.26875,77.2039158284664L206.7622159090909,76.7122320473194L207.2556818181818,92.76854809522628L207.74914772727274,91.70974787473678L208.24261363636361,74.43462293744086L208.73607954545454,86.19523812234401L209.22954545454544,86.90320175290108L209.72301136363635,63.85218586921691L210.21647727272727,91.24228518605231L210.70994318181818,74.20409616231917L211.2034090909091,90.00948432981967L211.696875,96.68664608299731L212.1903409090909,80.95029901862145L212.68380681818184,93.38178131878375L213.1772727272727,84.74160332381724L213.67073863636364,81.33472863733769L214.16420454545454,76.62707578539847L214.65767045454544,86.19777012765407L215.15113636363637,73.18294193744659L215.64460227272727,92.7986728042364L216.1380681818182,83.05954735875129L216.6315340909091,98.57903432250022L217.125,80.89213762581348L217.6184659090909,74.19141855239867L218.1119318181818,72.89558570981025L218.60539772727273,91.18464250266551L219.09886363636363,74.5103017628193L219.59232954545453,89.17540397644042L220.08579545454546,83.88780322074889L220.57926136363636,83.122403511405L221.0727272727273,72.05750953555106L221.5661931818182,81.95412483215331L222.0596590909091,94.11370229125022L222.553125,94.65879116356372L223.0465909090909,95.32372828721999L223.54005681818182,89.80606671571731L224.03352272727273,73.08719169497489L224.52698863636363,75.20226013064384L225.02045454545456,93.15775159895419L225.51392045454546,80.9386720150709L226.00738636363639,84.7004494458437L226.5008522727273,91.41947720348834L226.99431818181816,91.73302825689315L227.4877840909091,92.40903850793838L227.98125,85.94579603672027L228.47471590909092,85.75883645713328L228.96818181818182,90.5189185231924L229.46164772727272,86.05825048089028L229.95511363636365,85.75116131603717L230.44857954545455,84.36729733049869L230.94204545454548,97.9195436477661L231.43551136363638,96.46468240916728L231.92897727272725,86.70663725733756L232.42244318181818,93.63480162024497L232.91590909090908,91.57905947566032L233.40937499999998,89.88584246635436L233.9028409090909,95.80774132311343L234.3963068181818,86.86188083291053L234.88977272727274,90.2206650018692L235.38323863636364,85.41544202864169L235.87670454545454,88.0974554657936L236.37017045454544,81.02943737208844L236.86363636363635,102.2555983453989L237.35710227272727,84.40692585110664L237.85056818181818,84.5818540096283L238.34403409090908,94.25527919232844L238.8375,98.98757953345775L239.3309659090909,88.13827525973319L239.82443181818184,97.91273448765277L240.31789772727274,86.00487176477908L240.81136363636364,70.89887093901635L241.30482954545454,81.21699918210506L241.79829545454544,82.24534940123557L242.29176136363637,99.89392753839492L242.78522727272727,98.36801629662513L243.27869318181817,96.76234688758849L243.7721590909091,88.09707302749156L244.265625,82.32591200768947L244.75909090909093,78.22149183750152L245.25255681818183,82.16231633126735L245.7460227272727,94.13669254779815L246.23948863636363,101.61831986308097L246.73295454545453,93.91724329590797L247.22642045454546,85.36810320019721L247.71988636363636,76.88297536373139L248.21335227272726,100.7909431695938L248.7068181818182,91.2367332369089L249.2002840909091,87.29686264097691" style="fill: none;" fill="none"></path></g><g><path stroke="rgb(187, 187, 187)" stroke-width="2px" d="M29.607954545454543,-18.39000169038772L30.101420454545455,1.9656154155731258L30.594886363636366,-3.5869315624237004L32.07528409090909,-9.777807629108423L32.56875,1.5041222810745296L33.06221590909091,5.385668838024145L33.55568181818182,36.59620370864869L34.049147727272725,25.139829182624823L34.54261363636363,-26.838758325576777L35.03607954545455,14.27174147367478L35.529545454545456,-26.49104717969894L37.00994318181818,-47.34444949626922L37.50340909090909,30.79275962114332L37.996875,47.0530251801014L38.49034090909091,21.88376706242562L38.98380681818182,48.80453106164933L39.47727272727273,13.256073260307318L39.970738636363635,29.595973902940756L40.46420454545454,51.9726499557495L40.95767045454546,44.95083656311033L41.451136363636365,50.407053047418586L41.94460227272727,51.597368085384375L42.43806818181818,32.83588569760323L42.93153409090909,58.12326889634133L43.425000000000004,61.62074189782142L43.918465909090905,21.156597995758062L44.41193181818182,14.888117724657064L44.90539772727273,45.42695026993752L45.398863636363636,41.0032820343971L45.892329545454544,51.47308003306388L46.38579545454545,-1688.2543436050416L46.87926136363637,38.08562945723534L47.372727272727275,40.39204012751577L47.86619318181818,29.357033485174185L48.35965909090909,63.3393317103386L48.853125,52.766653412580496L49.346590909090914,21.972176247835165L49.840056818181814,58.87248750925063L50.33352272727273,48.71462728977204L50.82698863636364,31.094868296384817L51.320454545454545,40.426248574256874L51.81392045454545,41.723233127594L52.30738636363636,50.51172685027122L52.800852272727276,47.939886415004736L53.29431818181818,50.44447925090789L53.78778409090909,55.640189313888555L54.28125,37.12080355882645L54.77471590909091,63.573023492097846L55.26818181818182,55.815565848350516L55.761647727272724,15.366411769390112L56.25511363636364,52.721798235177985L56.74857954545454,41.317725443840004L57.242045454545455,48.610929363965965L57.73551136363637,50.58578800559043L58.22897727272727,55.707990789413444L58.722443181818186,33.38385384678841L59.215909090909086,36.7552101254463L59.709375,17.08456199765206L60.20284090909091,59.23069592714309L60.69630681818182,45.86444210410116L61.18977272727273,44.59728773832322L61.68323863636363,47.76966180801392L62.17670454545455,46.50135573148728L62.67017045454545,55.57423409223556L63.163636363636364,62.908090764284125L63.65710227272728,45.9661179423332L64.15056818181819,45.67855071425436L64.64403409090909,40.0794693470001L65.1375,39.47847854495049L65.6309659090909,54.349701815843574L66.12443181818182,51.97592046260833L66.61789772727273,35.50181474685667L67.11136363636363,45.2714517354965L67.60482954545455,50.62559675574302L68.09829545454545,34.37972318530083L68.59176136363637,50.04025515317916L69.08522727272727,55.625181907415396L69.57869318181818,57.625896894931785L70.0721590909091,41.6739381492138L70.565625,40.58989700078965L71.05909090909091,35.79626586437223L71.55255681818181,41.965197885036474L72.04602272727273,48.405247890949255L72.53948863636364,23.90445675849915L73.03295454545454,22.844865286350256L73.52642045454546,55.09875338673591L74.01988636363636,59.778831118345266L74.51335227272727,50.629913473129264L75.00681818181818,17.523284667730337L75.50028409090909,49.669738376140586L75.99375,47.87575986385346L76.4872159090909,50.89282002449035L76.98068181818182,26.401717329025274L77.47414772727272,24.583113306760794L77.96761363636364,58.548135870695106L78.46107954545454,55.45543205142022L78.95454545454545,42.78381806015969L79.44801136363637,41.36349495649338L79.94147727272727,47.598988825082785L80.43494318181818,35.9303830206394L80.92840909090908,28.958541566133505L81.421875,40.56237902641297L81.91534090909092,56.40949692726136L82.40880681818182,33.003033214807516L82.90227272727273,45.59865188002587L83.39573863636363,46.5178928911686L83.88920454545455,53.848162555694586L84.38267045454546,58.32975920438767L84.87613636363636,47.94142495989797L85.36960227272728,48.72635539770127L85.86306818181818,51.26890193819999L86.3565340909091,44.728530013561254L86.85000000000001,42.521755510568624L87.34346590909091,51.103486382961265L87.83693181818181,57.50436943173408L88.33039772727273,53.436474317312246L88.82386363636364,60.24821918606757L89.31732954545454,53.962516003847114L89.81079545454546,43.16380348205567L90.30426136363636,53.82115449905396L90.79772727272727,29.988566601276403L91.29119318181819,52.15026836991311L91.78465909090909,33.710007780790335L92.278125,53.321487867832175L92.7715909090909,39.32851877212522L93.26505681818182,22.928307169675833L93.75852272727273,36.982158684730535L94.25198863636363,37.934975141286856L94.74545454545455,41.550371015071875L95.23892045454545,-38.64259783029556L95.73238636363637,48.849386239051796L96.22585227272728,56.20365720391273L96.71931818181818,55.063903146982184L97.21278409090908,56.33074101209641L97.70625,60.52059438228606L98.19971590909091,22.369982415437704L98.69318181818183,51.226376557350164L99.18664772727273,40.53560834527016L99.68011363636363,31.013422125577932L100.17357954545454,60.50237801074982L100.66704545454546,29.530343973636604L101.16051136363637,37.694065386056906L101.65397727272727,49.90053769350051L102.14744318181818,61.328339242935186L102.64090909090909,14.64880805611611L103.134375,51.27973329424859L103.6278409090909,47.5273981332779L104.12130681818181,24.464416766166693L104.61477272727272,57.401524299383155L105.10823863636364,52.52092581391334L105.60170454545455,42.17745553851128L106.09517045454545,46.25059928894041L106.58863636363635,52.29871597290038L107.08210227272727,57.63024877905845L107.57556818181818,49.649236166477195L108.0690340909091,64.68587499260902L108.5625,56.924592965841285L109.0559659090909,34.403284901380545L109.54943181818182,38.546630257368065L110.04289772727273,30.52252080440519L110.53636363636365,48.12766801714898L111.02982954545455,55.09786542654038L111.52329545454545,26.444321835041052L112.01676136363636,57.62429680824279L112.51022727272728,59.825550132989875L113.00369318181819,61.86493974328042L113.49715909090908,54.15647816061973L113.990625,43.55123546123505L114.48409090909091,54.79192357659339L114.97755681818182,46.356556677818304L115.47102272727274,54.880367928743354L115.96448863636363,64.83969431519508L116.45795454545454,59.35451802015304L116.95142045454546,61.300443226099006L117.44488636363637,69.38454713821412L117.93835227272727,48.695769125223165L118.43181818181817,63.17221935987473L118.92528409090909,67.94875946044921L119.41875,56.59583669304848L119.91221590909092,64.19369887709618L120.40568181818182,69.01278194189071L120.89914772727272,65.48177745342255L121.39261363636363,48.3742132425308L121.88607954545455,71.29149001240731L122.37954545454546,54.83354341387748L122.87301136363635,70.65764468312264L123.36647727272727,69.25417523980141L123.85994318181818,59.770944976806646L124.3534090909091,76.71314638257027L124.84687500000001,47.5176041960716L125.3403409090909,67.31775384545325L125.83380681818181,58.31161316633225L126.32727272727273,66.5163389980793L126.82073863636364,66.31426211595534L127.31420454545456,66.27535011768342L127.80767045454544,73.43366321325301L128.30113636363637,51.71200286746024L128.79460227272727,70.82828249931335L129.28806818181818,55.575728678703314L129.7815340909091,63.50588139295577L130.275,66.80188413858413L130.7684659090909,72.78576877117158L131.2619318181818,58.74240573644637L131.75539772727274,76.4985325574875L132.24886363636364,78.00391521453858L132.74232954545454,70.92746149897576L133.23579545454547,60.452036821842185L133.72926136363637,72.1316058576107L134.22272727272727,66.6247844338417L134.71619318181817,58.82223423719407L135.2096590909091,45.5395717561245L135.703125,67.77301367521285L136.1965909090909,72.79443737268447L136.69005681818183,74.85462810993195L137.18352272727273,60.97777959108352L137.67698863636366,71.25745739936828L138.17045454545453,72.03398298621177L138.66392045454543,63.76295905709266L139.15738636363636,58.410027289390555L139.65085227272726,78.56669735312461L140.1443181818182,70.48487927913665L140.6377840909091,78.66228934526444L141.13125,69.95216470360756L141.62471590909092,71.7769404888153L142.11818181818182,57.74952557086944L142.61164772727275,76.80086102485656L143.10511363636363,66.59351240992547L143.59857954545453,69.69810258746146L144.09204545454546,68.5486161351204L144.58551136363636,68.51912003159522L145.0789772727273,76.38308894038201L145.5724431818182,74.06306874155997L146.0659090909091,68.20045661330222L146.55937500000002,83.79824232459067L147.05284090909092,77.35675927400588L147.5463068181818,78.32954164743424L148.03977272727272,72.47134294509887L148.2865056818182,59.20313399434089L148.53323863636362,63.65617524981499L148.7799715909091,63.48560776710511L149.02670454545455,62.55013730525971L149.2734375,79.17296316623688L149.52017045454545,78.91081269979476L149.7669034090909,60.81406962275504L150.01363636363635,76.39764797091485L150.2603693181818,71.64684113264084L150.50710227272728,75.0124740242958L150.75383522727273,65.51987182497977L151.00056818181818,77.4018694102764L151.24730113636363,74.61065884828568L151.4940340909091,77.78527479767799L151.74076704545453,76.36420440077782L151.9875,64.52122431397439L152.23423295454546,59.893202149868L152.48096590909088,79.62048631310462L152.72769886363636,63.9330429971218L152.9744318181818,83.51696994304656L153.2211647727273,68.03273763656615L153.4678977272727,78.64311468005181L153.7146306818182,59.986051136255256L153.96136363636364,79.97581105828284L154.2080965909091,60.646658354997626L154.45482954545454,80.04074644446372L154.7015625,60.13307448625565L154.94829545454544,80.33125888705253L155.1950284090909,79.36795395016671L155.44176136363637,55.66683691143989L155.68849431818182,38.20884492397306L155.93522727272727,70.59787880778313L156.18196022727273,67.46174406409263L156.4286931818182,65.06651979088782L156.67542613636363,65.69249656200408L156.92215909090908,50.184148663282386L157.16889204545456,61.584150904417044L157.41562499999998,69.18522205352782L157.66235795454546,79.01818554997443L157.9090909090909,61.528534704446784L158.15582386363639,65.43154176473617L158.4025568181818,56.311355346441275L158.6492897727273,61.336031967401496L158.89602272727274,62.50638988018035L159.14275568181816,80.81594448685647L159.38948863636364,78.40982731580735L159.6362215909091,56.42051290869712L159.88295454545454,81.8346678107977L160.1296875,67.81989973187447L160.37642045454547,76.36751007437705L160.62315340909092,66.55796762704848L160.86988636363637,66.0433551311493L161.11661931818182,67.2544449210167L161.3633522727273,65.75958591103554L161.61008522727272,62.843049877881995L161.85681818181817,78.90568714737891L162.10355113636365,60.19969787597657L162.35028409090907,82.28117551803588L162.59701704545455,68.17059125900268L162.84375,75.1679637670517L163.09048295454548,79.10752665400506L163.3372159090909,52.64073889851571L163.58394886363638,59.48392283320426L163.83068181818183,67.7288618326187L164.07741477272725,75.33269357085227L164.32414772727273,63.25302373766898L164.57088068181818,65.58573033809661L164.81761363636363,73.16731911301612L165.06434659090908,71.86724867820739L165.31107954545456,77.56792675852775L165.55781249999998,80.41380841434001L165.80454545454546,61.99420388936997L166.0512784090909,58.781854027509695L166.29801136363636,74.51407339572907L166.5447443181818,74.58785321712493L166.79147727272726,78.4310944020748L167.03821022727274,78.57903208732604L167.28494318181816,75.2679867684841L167.53167613636364,70.25551300644874L167.7784090909091,71.18006419539451L168.02514204545454,67.47757788896561L168.271875,65.61956074237824L168.51860795454544,74.91154547929764L168.76534090909092,65.12593399882316L169.01207386363635,72.2782599568367L169.25880681818182,74.3055258333683L169.50553977272727,67.05824967622756L169.75227272727273,68.9349227786064L169.99900568181818,53.82371287941933L170.24573863636365,70.23445692062378L170.49247159090908,79.47118591666222L170.73920454545456,66.2733368217945L170.9859375,82.19721492528915L171.23267045454546,68.73310085535049L171.4794034090909,78.71094253063201L171.72613636363636,74.09252967834472L171.97286931818184,68.17277159690858L172.21960227272726,73.99311330318451L172.46633522727274,75.83358224630355L172.7130681818182,68.9194142460823L172.95980113636364,77.78605725765229L173.2065340909091,71.23350884914397L173.45326704545454,58.73751755952836L173.70000000000002,73.26141651868821L173.94673295454544,76.48480873703956L174.19346590909092,69.70267426371574L174.44019886363637,64.921817445755L174.68693181818182,63.28651126623153L174.93366477272727,77.39203151464461L175.18039772727275,83.2564327508211L175.42713068181817,79.90201365351676L175.67386363636362,66.10201325416566L175.9205965909091,79.59216829538346L176.16732954545452,69.07405119538306L176.4140625,59.6433336675167L176.66079545454545,74.18046411275863L176.90752840909093,62.89411198496818L177.15426136363635,81.78646739721299L177.40099431818183,66.53339486718177L177.64772727272728,56.70288425087928L177.8944602272727,73.06478168964385L178.14119318181818,79.7870096206665L178.38792613636363,76.54578786492347L178.63465909090908,73.34696840643882L178.88139204545453,67.6300608754158L179.128125,68.2798894882202L179.37485795454546,70.31593825817107L179.6215909090909,48.47433295249937L179.86832386363636,74.01310559511185L180.11505681818184,81.06921095550061L180.36178977272726,60.63902717232705L180.6085227272727,69.18874751925468L180.8552556818182,83.63627750575542L181.10198863636361,76.11976038813592L181.3487215909091,74.64767184257506L181.59545454545454,51.817265713214866L181.84218750000002,78.95928125977515L182.08892045454544,80.38445737361907L182.33565340909092,84.83995150923728L182.58238636363637,72.8349054992199L182.8291193181818,82.07607429623603L183.07585227272727,71.8899663925171L183.32258522727273,66.91560458540917L183.56931818181818,55.314140880107885L183.81605113636363,76.68480198979377L184.0627840909091,78.15363761186599L184.30951704545456,79.43107824921607L184.55625,78.19028135538102L184.80298295454546,80.94233814775943L185.0497159090909,81.10796470344066L185.29644886363636,82.4659987181425L185.5431818181818,47.843380087614065L185.7899147727273,52.38409202694892L186.0366477272727,72.42326121926307L186.2833806818182,56.807267928123466L186.53011363636364,81.90537054240703L186.77684659090912,65.87810661792754L187.02357954545454,74.09092959165572L187.2703125,73.10174193382264L187.51704545454547,70.24505969285966L187.7637784090909,70.3998548924923L188.01051136363637,37.04047393202782L188.25724431818182,87.60653216540814L188.50397727272727,72.02042620778083L188.75071022727272,82.84370709359645L188.9974431818182,79.6262800335884L189.24417613636365,78.05997979044913L189.4909090909091,60.28398376107215L189.73764204545455,72.79806833863258L189.984375,77.38088365793229L190.23110795454545,78.89497887492179L190.4778409090909,71.43576156497002L190.72457386363638,74.25138663649558L190.9713068181818,62.23917540311814L191.21803977272728,75.47694754004479L191.46477272727273,77.72161420583724L191.7115056818182,78.1741837799549L191.95823863636363,78.66798635721207L192.20497159090908,75.4188169181347L192.45170454545456,72.64580514430999L192.69843749999998,82.17464666962623L192.94517045454546,75.97357224822044L193.1919034090909,87.2444422185421L193.43863636363636,78.12272604703902L193.6853693181818,76.25404458642005L193.9321022727273,88.27110443413258L194.1788352272727,68.83751090764999L194.42556818181816,64.69959002137183L194.67230113636364,65.99357661008834L194.9190340909091,73.97289242744445L195.16576704545454,66.95096474289893L195.4125,87.14038822948932L195.65923295454547,80.41345674693584L195.9059659090909,75.25303211212157L196.15269886363637,88.3466250091791L196.39943181818182,72.28477459549904L196.64616477272725,81.85649756491183L196.89289772727273,70.07085245251656L197.13963068181818,80.99711034595965L197.38636363636365,77.4394802391529L197.63309659090908,82.69045483469962L197.87982954545456,79.65924445688724L198.1265625,83.19882523417473L198.37329545454546,75.45110877752303L198.6200284090909,82.5168937832117L198.86676136363639,83.41190051436423L199.1134943181818,83.1371383756399L199.36022727272726,76.93548809885979L199.60696022727274,81.32457424104214L199.8536931818182,84.82093949019908L200.10042613636364,75.95809009075164L200.3471590909091,69.04823001623153L200.59389204545457,89.99001074731349L200.840625,90.18253106772899L201.08735795454547,71.9457408428192L201.33409090909092,72.93939467668532L201.58082386363634,79.0169195473194L201.82755681818182,87.5918896138668L202.07428977272727,63.19300290346146L202.32102272727275,77.76506271362305L202.56775568181817,80.12729179263115L202.81448863636365,78.27334519624709L203.0612215909091,84.29998379349709L203.30795454545455,67.83899527192116L203.5546875,71.49201076626777L203.80142045454545,72.79914092421532L204.0481534090909,65.23297276496886L204.29488636363635,74.26474120616912L204.54161931818183,77.63113018274308L204.78835227272725,89.30718694031238L205.03508522727273,76.82191711068154L205.28181818181818,69.538603836298L205.52855113636366,81.23558040857314L205.77528409090908,65.39182093143462L206.02201704545453,70.56480448842049L206.26875,70.69365542531013L206.51548295454543,81.81657012701034L206.7622159090909,73.14803894758224L207.00894886363636,60.33419307470321L207.2556818181818,86.85554642379283L207.50241477272726,69.71190553307532L207.74914772727274,84.83726125359534L207.9958806818182,82.40892749428748L208.24261363636361,68.13537176847458L208.4893465909091,79.24065034985541L208.73607954545454,79.3367698431015L208.9828125,79.77693434953689L209.22954545454544,81.36036079525947L209.47627840909092,73.94351061582564L209.72301136363635,59.589651638269416L209.96974431818182,68.02632849812507L210.21647727272727,82.45085504055024L210.46321022727275,78.78327172398568L210.70994318181818,68.97808995246886L210.95667613636363,76.07191603779793L211.2034090909091,82.7665688484907L211.45014204545453,80.8896803498268L211.696875,92.39526193737983L211.94360795454546,77.69181918501855L212.1903409090909,77.48226937055588L212.43707386363636,82.85201963186265L212.68380681818184,86.65915776193141L212.9305397727273,81.42593797445296L213.1772727272727,77.04610508084298L213.4240056818182,87.12642263770103L213.67073863636364,77.83873703479766L213.9174715909091,65.52687879800797L214.16420454545454,72.64511939287185L214.41093750000002,78.0257185935974L214.65767045454544,79.77798935174941L214.90440340909092,86.85203854143619L215.15113636363637,68.56162782907485L215.3978693181818,87.48618278801442L215.64460227272727,86.6006974518299L215.89133522727272,90.32420028150081L216.1380681818182,77.86660667657853L216.38480113636362,90.00212568938731L216.6315340909091,93.6780259400606L216.87826704545455,83.64352185428143L217.125,73.82134135961532L217.37173295454545,69.56665810346603L217.6184659090909,66.2391283750534L217.86519886363635,77.10238065719604L218.1119318181818,65.21686639785767L218.35866477272728,75.1828832566738L218.60539772727273,85.13409052193164L218.85213068181818,79.4747817158699L219.09886363636363,71.50265749692916L219.3455965909091,82.45212983489036L219.59232954545453,85.97378436625004L219.8390625,89.04454413950442L220.08579545454546,77.21551206111909L220.33252840909088,88.93051158785819L220.57926136363636,79.42481856942177L220.8259943181818,80.8910782277584L221.0727272727273,65.73769461512566L221.3194602272727,83.40502541661263L221.5661931818182,75.81323828697204L221.81292613636364,64.55747243165969L222.0596590909091,90.30612457692622L222.30639204545454,68.15097700953483L222.553125,88.99550411999225L222.79985795454544,75.84948640465736L223.0465909090909,88.78442015647887L223.29332386363637,85.72733584940434L223.54005681818182,84.59875602424144L223.78678977272727,71.0953563094139L224.03352272727273,65.02636816501617L224.2802556818182,85.66765349507331L224.52698863636363,74.52396404147149L224.77372159090908,76.53472792506217L225.02045454545456,84.87085867822171L225.26718749999998,86.37963932156562L225.51392045454546,72.45172869563103L225.7606534090909,83.56942992806434L226.00738636363639,80.66005911827087L226.2541193181818,81.50715995728969L226.5008522727273,85.08890565633773L226.74758522727274,76.31761726140975L226.99431818181816,86.27047296762466L227.24105113636364,86.03128638267516L227.4877840909091,86.32877502739429L227.73451704545454,63.43296315670014L227.98125,76.71077262759209L228.22798295454547,74.6032474577427L228.47471590909092,77.37735819220542L228.72144886363637,74.7002373278141L228.96818181818182,81.5630838662386L229.2149147727273,69.50107213258744L229.46164772727272,80.60852226018905L229.70838068181817,80.66434506475925L229.95511363636365,82.69314069449901L230.20184659090907,69.94288947582244L230.44857954545455,79.01189070343972L230.6953125,85.89861106276511L230.94204545454548,92.02711012363433L231.1887784090909,85.71753751635552L231.43551136363638,90.52959602475165L231.68224431818183,72.16992881298064L231.92897727272725,81.22556228339673L232.17571022727273,74.34607308506965L232.42244318181818,86.01572510004043L232.66917613636363,79.70885154008866L232.91590909090908,83.23783394098282L233.16264204545456,82.5685800999403L233.40937499999998,82.81236913204192L233.65610795454546,71.02180507183076L233.9028409090909,89.93580121695994L234.14957386363636,86.71224635243416L234.3963068181818,79.05784484148025L234.64303977272726,87.0926757544279L234.88977272727274,83.08797527253627L235.13650568181816,67.95365642905234L235.38323863636364,81.3707745462656L235.6299715909091,85.08282181024552L235.87670454545454,81.60476084947585L236.1234375,75.68884473443032L236.37017045454544,74.91827991008758L236.61690340909092,76.7749870955944L236.86363636363635,92.22256686687469L237.11036931818182,81.87913175821303L237.35710227272727,77.2654488325119L237.60383522727273,88.5546362787485L237.85056818181818,78.39605074524879L238.09730113636365,92.42555808424949L238.34403409090908,87.94241409897803L238.59076704545456,82.08180207908154L238.8375,95.2441855162382L239.08423295454546,88.12635373473167L239.3309659090909,82.77227025628089L239.57769886363636,84.00368642210961L239.82443181818184,91.53525050878524L240.07116477272726,74.17930361032485L240.31789772727274,80.96117872893811L240.5646306818182,85.79164263010024L240.81136363636364,61.687013620138174L241.0580965909091,87.41499651372433L241.30482954545454,71.86417158842087L241.55156250000002,90.5706400066614L241.79829545454544,74.8911311864853L242.04502840909092,89.3429383277893L242.29176136363637,92.86183666586875L242.53849431818182,76.38232406377793L242.78522727272727,92.39075180292129L243.03196022727275,83.76580100655555L243.27869318181817,89.0336248666048L243.52542613636362,83.59690394401551L243.7721590909091,82.34683182239533L244.01889204545452,85.81175800561904L244.265625,73.77104412913322L244.51235795454545,81.19411002993584L244.75909090909093,72.522906178236L245.00582386363635,76.51754897236825L245.25255681818183,75.59333186745643L245.49928977272728,90.67668091654777L245.7460227272727,84.80877619385718L245.99275568181818,87.26045187711716L246.23948863636363,92.91476261019706L246.48622159090908,72.63355832695962L246.73295454545453,86.16872240006924L246.9796875,82.59821687042712L247.22642045454546,79.62432827949523L247.4731534090909,86.10615197718143L247.71988636363636,71.4395331978798L247.96661931818184,88.05112328529358L248.21335227272726,91.99625130891799L248.4600852272727,75.72969969511033L248.7068181818182,81.8347029775381L248.95355113636361,78.15316286087035L249.2002840909091,80.3107434898615L249.44701704545454,88.11707850694656" style="fill: none;" fill="none"></path></g></g></g></g></g></g><g transform="translate(58, 177)" clip-path="url(#clip_1)"><clipPath id="clip_1"><rect width="271" height="23"></rect></clipPath><g><g><line x1="0" y1="0" x2="0" y2="5" style="visibility: inherit;" fill="rgb(0, 0, 0)" stroke="rgb(204, 204, 204)" stroke-width="1px"></line><line x1="24.673295454545457" y1="0" x2="24.673295454545457" y2="5" style="visibility: inherit;" fill="rgb(0, 0, 0)" stroke="rgb(204, 204, 204)" stroke-width="1px"></line><line x1="49.346590909090914" y1="0" x2="49.346590909090914" y2="5" style="visibility: inherit;" fill="rgb(0, 0, 0)" stroke="rgb(204, 204, 204)" stroke-width="1px"></line><line x1="74.01988636363636" y1="0" x2="74.01988636363636" y2="5" style="visibility: inherit;" fill="rgb(0, 0, 0)" stroke="rgb(204, 204, 204)" stroke-width="1px"></line><line x1="98.69318181818183" y1="0" x2="98.69318181818183" y2="5" style="visibility: inherit;" fill="rgb(0, 0, 0)" stroke="rgb(204, 204, 204)" stroke-width="1px"></line><line x1="123.36647727272727" y1="0" x2="123.36647727272727" y2="5" style="visibility: inherit;" fill="rgb(0, 0, 0)" stroke="rgb(204, 204, 204)" stroke-width="1px"></line><line x1="148.03977272727272" y1="0" x2="148.03977272727272" y2="5" style="visibility: inherit;" fill="rgb(0, 0, 0)" stroke="rgb(204, 204, 204)" stroke-width="1px"></line><line x1="172.7130681818182" y1="0" x2="172.7130681818182" y2="5" style="visibility: inherit;" fill="rgb(0, 0, 0)" stroke="rgb(204, 204, 204)" stroke-width="1px"></line><line x1="197.38636363636365" y1="0" x2="197.38636363636365" y2="5" style="visibility: inherit;" fill="rgb(0, 0, 0)" stroke="rgb(204, 204, 204)" stroke-width="1px"></line><line x1="222.0596590909091" y1="0" x2="222.0596590909091" y2="5" style="visibility: inherit;" fill="rgb(0, 0, 0)" stroke="rgb(204, 204, 204)" stroke-width="1px"></line><line x1="246.73295454545453" y1="0" x2="246.73295454545453" y2="5" style="visibility: inherit;" fill="rgb(0, 0, 0)" stroke="rgb(204, 204, 204)" stroke-width="1px"></line><line x1="271.40625" y1="0" x2="271.40625" y2="5" style="visibility: inherit;" fill="rgb(0, 0, 0)" stroke="rgb(204, 204, 204)" stroke-width="1px"></line></g><g transform="translate(0, 8)"><text x="0" y="0" dx="0em" dy="0.95em" style="text-anchor: middle; visibility: hidden; font-family: &quot;Helvetica Neue&quot;, sans-serif; font-size: 12px; font-weight: 200;" fill="rgb(50, 49, 63)" stroke="none" stroke-width="1px">-100</text><text x="24.673295454545457" y="0" dx="0em" dy="0.95em" style="text-anchor: middle; visibility: inherit; font-family: &quot;Helvetica Neue&quot;, sans-serif; font-size: 12px; font-weight: 200;" fill="rgb(50, 49, 63)" stroke="none" stroke-width="1px">0</text><text x="49.346590909090914" y="0" dx="0em" dy="0.95em" style="text-anchor: middle; visibility: hidden; font-family: &quot;Helvetica Neue&quot;, sans-serif; font-size: 12px; font-weight: 200;" fill="rgb(50, 49, 63)" stroke="none" stroke-width="1px">100</text><text x="74.01988636363636" y="0" dx="0em" dy="0.95em" style="text-anchor: middle; visibility: inherit; font-family: &quot;Helvetica Neue&quot;, sans-serif; font-size: 12px; font-weight: 200;" fill="rgb(50, 49, 63)" stroke="none" stroke-width="1px">200</text><text x="98.69318181818183" y="0" dx="0em" dy="0.95em" style="text-anchor: middle; visibility: hidden; font-family: &quot;Helvetica Neue&quot;, sans-serif; font-size: 12px; font-weight: 200;" fill="rgb(50, 49, 63)" stroke="none" stroke-width="1px">300</text><text x="123.36647727272727" y="0" dx="0em" dy="0.95em" style="text-anchor: middle; visibility: inherit; font-family: &quot;Helvetica Neue&quot;, sans-serif; font-size: 12px; font-weight: 200;" fill="rgb(50, 49, 63)" stroke="none" stroke-width="1px">400</text><text x="148.03977272727272" y="0" dx="0em" dy="0.95em" style="text-anchor: middle; visibility: hidden; font-family: &quot;Helvetica Neue&quot;, sans-serif; font-size: 12px; font-weight: 200;" fill="rgb(50, 49, 63)" stroke="none" stroke-width="1px">500</text><text x="172.7130681818182" y="0" dx="0em" dy="0.95em" style="text-anchor: middle; visibility: inherit; font-family: &quot;Helvetica Neue&quot;, sans-serif; font-size: 12px; font-weight: 200;" fill="rgb(50, 49, 63)" stroke="none" stroke-width="1px">600</text><text x="197.38636363636365" y="0" dx="0em" dy="0.95em" style="text-anchor: middle; visibility: hidden; font-family: &quot;Helvetica Neue&quot;, sans-serif; font-size: 12px; font-weight: 200;" fill="rgb(50, 49, 63)" stroke="none" stroke-width="1px">700</text><text x="222.0596590909091" y="0" dx="0em" dy="0.95em" style="text-anchor: middle; visibility: inherit; font-family: &quot;Helvetica Neue&quot;, sans-serif; font-size: 12px; font-weight: 200;" fill="rgb(50, 49, 63)" stroke="none" stroke-width="1px">800</text><text x="246.73295454545453" y="0" dx="0em" dy="0.95em" style="text-anchor: middle; visibility: hidden; font-family: &quot;Helvetica Neue&quot;, sans-serif; font-size: 12px; font-weight: 200;" fill="rgb(50, 49, 63)" stroke="none" stroke-width="1px">900</text><text x="271.40625" y="0" dx="0em" dy="0.95em" style="text-anchor: middle; visibility: hidden; font-family: &quot;Helvetica Neue&quot;, sans-serif; font-size: 12px; font-weight: 200;" fill="rgb(50, 49, 63)" stroke="none" stroke-width="1px">1k</text></g><line x1="0" y1="0" x2="271.40625" y2="0" fill="rgb(0, 0, 0)" stroke="rgb(204, 204, 204)" stroke-width="1px"></line></g></g></g></g></svg>