<svg viewBox="0 0 330 200" xmlns="http://www.w3.org/2000/svg"><g><g><g><g><g><line x1="48.875" y1="177" x2="43.875" y2="177" style="visibility: inherit;" fill="rgb(0, 0, 0)" stroke="rgb(204, 204, 204)" stroke-width="1px"></line><line x1="48.875" y1="159.3" x2="43.875" y2="159.3" style="visibility: inherit;" fill="rgb(0, 0, 0)" stroke="rgb(204, 204, 204)" stroke-width="1px"></line><line x1="48.875" y1="141.6" x2="43.875" y2="141.6" style="visibility: inherit;" fill="rgb(0, 0, 0)" stroke="rgb(204, 204, 204)" stroke-width="1px"></line><line x1="48.875" y1="123.89999999999999" x2="43.875" y2="123.89999999999999" style="visibility: inherit;" fill="rgb(0, 0, 0)" stroke="rgb(204, 204, 204)" stroke-width="1px"></line><line x1="48.875" y1="106.2" x2="43.875" y2="106.2" style="visibility: inherit;" fill="rgb(0, 0, 0)" stroke="rgb(204, 204, 204)" stroke-width="1px"></line><line x1="48.875" y1="88.5" x2="43.875" y2="88.5" style="visibility: inherit;" fill="rgb(0, 0, 0)" stroke="rgb(204, 204, 204)" stroke-width="1px"></line><line x1="48.875" y1="70.8" x2="43.875" y2="70.8" style="visibility: inherit;" fill="rgb(0, 0, 0)" stroke="rgb(204, 204, 204)" stroke-width="1px"></line><line x1="48.875" y1="53.10000000000001" x2="43.875" y2="53.10000000000001" style="visibility: inherit;" fill="rgb(0, 0, 0)" stroke="rgb(204, 204, 204)" stroke-width="1px"></line><line x1="48.875" y1="35.400000000000006" x2="43.875" y2="35.400000000000006" style="visibility: inherit;" fill="rgb(0, 0, 0)" stroke="rgb(204, 204, 204)" stroke-width="1px"></line><line x1="48.875" y1="17.69999999999999" x2="43.875" y2="17.69999999999999" style="visibility: inherit;" fill="rgb(0, 0, 0)" stroke="rgb(204, 204, 204)" stroke-width="1px"></line><line x1="48.875" y1="0" x2="43.875" y2="0" style="visibility: inherit;" fill="rgb(0, 0, 0)" stroke="rgb(204, 204, 204)" stroke-width="1px"></line></g><g transform="translate(38.875, 0)"><text x="0" y="177" dx="0em" dy="0.3em" style="text-anchor: end; visibility: hidden; font-family: &quot;Helvetica Neue&quot;, sans-serif; font-size: 12px; font-weight: 200;" fill="rgb(50, 49, 63)" stroke="none" stroke-width="1px">-0.1</text><text x="0" y="159.3" dx="0em" dy="0.3em" style="text-anchor: end; visibility: inherit; font-family: &quot;Helvetica Neue&quot;, sans-serif; font-size: 12px; font-weight: 200;" fill="rgb(50, 49, 63)" stroke="none" stroke-width="1px">0</text><text x="0" y="141.6" dx="0em" dy="0.3em" style="text-anchor: end; visibility: hidden; font-family: &quot;Helvetica Neue&quot;, sans-serif; font-size: 12px; font-weight: 200;" fill="rgb(50, 49, 63)" stroke="none" stroke-width="1px">0.1</text><text x="0" y="123.89999999999999" dx="0em" dy="0.3em" style="text-anchor: end; visibility: inherit; font-family: &quot;Helvetica Neue&quot;, sans-serif; font-size: 12px; font-weight: 200;" fill="rgb(50, 49, 63)" stroke="none" stroke-width="1px">0.2</text><text x="0" y="106.2" dx="0em" dy="0.3em" style="text-anchor: end; visibility: hidden; font-family: &quot;Helvetica Neue&quot;, sans-serif; font-size: 12px; font-weight: 200;" fill="rgb(50, 49, 63)" stroke="none" stroke-width="1px">0.3</text><text x="0" y="88.5" dx="0em" dy="0.3em" style="text-anchor: end; visibility: inherit; font-family: &quot;Helvetica Neue&quot;, sans-serif; font-size: 12px; font-weight: 200;" fill="rgb(50, 49, 63)" stroke="none" stroke-width="1px">0.4</text><text x="0" y="70.8" dx="0em" dy="0.3em" style="text-anchor: end; visibility: hidden; font-family: &quot;Helvetica Neue&quot;, sans-serif; font-size: 12px; font-weight: 200;" fill="rgb(50, 49, 63)" stroke="none" stroke-width="1px">0.5</text><text x="0" y="53.10000000000001" dx="0em" dy="0.3em" style="text-anchor: end; visibility: inherit; font-family: &quot;Helvetica Neue&quot;, sans-serif; font-size: 12px; font-weight: 200;" fill="rgb(50, 49, 63)" stroke="none" stroke-width="1px">0.6</text><text x="0" y="35.400000000000006" dx="0em" dy="0.3em" style="text-anchor: end; visibility: hidden; font-family: &quot;Helvetica Neue&quot;, sans-serif; font-size: 12px; font-weight: 200;" fill="rgb(50, 49, 63)" stroke="none" stroke-width="1px">0.7</text><text x="0" y="17.69999999999999" dx="0em" dy="0.3em" style="text-anchor: end; visibility: inherit; font-family: &quot;Helvetica Neue&quot;, sans-serif; font-size: 12px; font-weight: 200;" fill="rgb(50, 49, 63)" stroke="none" stroke-width="1px">0.8</text><text x="0" y="0" dx="0em" dy="0.3em" style="text-anchor: end; visibility: hidden; font-family: &quot;Helvetica Neue&quot;, sans-serif; font-size: 12px; font-weight: 200;" fill="rgb(50, 49, 63)" stroke="none" stroke-width="1px">0.9</text></g><line x1="48.875" y1="0" x2="48.875" y2="177" fill="rgb(0, 0, 0)" stroke="rgb(204, 204, 204)" stroke-width="1px"></line></g></g><g transform="translate(48, 0)" clip-path="url(#clip_0)"><clipPath id="clip_0"><rect width="281" height="177"></rect></clipPath><g><g><g><line x1="0" y1="0" x2="0" y2="177" fill="rgb(0, 0, 0)" stroke="rgb(60, 60, 60)" stroke-width="1px" opacity="0.25"></line><line x1="25.556818181818183" y1="0" x2="25.556818181818183" y2="177" fill="rgb(0, 0, 0)" stroke="rgb(60, 60, 60)" stroke-width="1px" opacity="0.25"></line><line x1="51.11363636363637" y1="0" x2="51.11363636363637" y2="177" fill="rgb(0, 0, 0)" stroke="rgb(60, 60, 60)" stroke-width="1px" opacity="0.25"></line><line x1="76.67045454545455" y1="0" x2="76.67045454545455" y2="177" fill="rgb(0, 0, 0)" stroke="rgb(60, 60, 60)" stroke-width="1px" opacity="0.25"></line><line x1="102.22727272727273" y1="0" x2="102.22727272727273" y2="177" fill="rgb(0, 0, 0)" stroke="rgb(60, 60, 60)" stroke-width="1px" opacity="0.25"></line><line x1="127.7840909090909" y1="0" x2="127.7840909090909" y2="177" fill="rgb(0, 0, 0)" stroke="rgb(60, 60, 60)" stroke-width="1px" opacity="0.25"></line><line x1="153.3409090909091" y1="0" x2="153.3409090909091" y2="177" fill="rgb(0, 0, 0)" stroke="rgb(60, 60, 60)" stroke-width="1px" opacity="0.25"></line><line x1="178.89772727272728" y1="0" x2="178.89772727272728" y2="177" fill="rgb(0, 0, 0)" stroke="rgb(60, 60, 60)" stroke-width="1px" opacity="0.25"></line><line x1="204.45454545454547" y1="0" x2="204.45454545454547" y2="177" fill="rgb(0, 0, 0)" stroke="rgb(60, 60, 60)" stroke-width="1px" opacity="0.25"></line><line x1="230.01136363636365" y1="0" x2="230.01136363636365" y2="177" fill="rgb(0, 0, 0)" stroke="rgb(60, 60, 60)" stroke-width="1px" opacity="0.25"></line><line x1="255.5681818181818" y1="0" x2="255.5681818181818" y2="177" fill="rgb(0, 0, 0)" stroke="rgb(60, 60, 60)" stroke-width="1px" opacity="0.25"></line><line x1="281.125" y1="0" x2="281.125" y2="177" fill="rgb(0, 0, 0)" stroke="rgb(60, 60, 60)" stroke-width="1px" opacity="0.25"></line></g><g><line x1="0" y1="177" x2="281.125" y2="177" fill="rgb(0, 0, 0)" stroke="rgb(60, 60, 60)" stroke-width="1px" opacity="0.25"></line><line x1="0" y1="159.3" x2="281.125" y2="159.3" fill="rgb(0, 0, 0)" stroke="rgb(60, 60, 60)" stroke-width="1px" opacity="0.25"></line><line x1="0" y1="141.6" x2="281.125" y2="141.6" fill="rgb(0, 0, 0)" stroke="rgb(60, 60, 60)" stroke-width="1px" opacity="0.25"></line><line x1="0" y1="123.89999999999999" x2="281.125" y2="123.89999999999999" fill="rgb(0, 0, 0)" stroke="rgb(60, 60, 60)" stroke-width="1px" opacity="0.25"></line><line x1="0" y1="106.2" x2="281.125" y2="106.2" fill="rgb(0, 0, 0)" stroke="rgb(60, 60, 60)" stroke-width="1px" opacity="0.25"></line><line x1="0" y1="88.5" x2="281.125" y2="88.5" fill="rgb(0, 0, 0)" stroke="rgb(60, 60, 60)" stroke-width="1px" opacity="0.25"></line><line x1="0" y1="70.8" x2="281.125" y2="70.8" fill="rgb(0, 0, 0)" stroke="rgb(60, 60, 60)" stroke-width="1px" opacity="0.25"></line><line x1="0" y1="53.10000000000001" x2="281.125" y2="53.10000000000001" fill="rgb(0, 0, 0)" stroke="rgb(60, 60, 60)" stroke-width="1px" opacity="0.25"></line><line x1="0" y1="35.400000000000006" x2="281.125" y2="35.400000000000006" fill="rgb(0, 0, 0)" stroke="rgb(60, 60, 60)" stroke-width="1px" opacity="0.25"></line><line x1="0" y1="17.69999999999999" x2="281.125" y2="17.69999999999999" fill="rgb(0, 0, 0)" stroke="rgb(60, 60, 60)" stroke-width="1px" opacity="0.25"></line><line x1="0" y1="0" x2="281.125" y2="0" fill="rgb(0, 0, 0)" stroke="rgb(60, 60, 60)" stroke-width="1px" opacity="0.25"></line></g></g></g><g><g><line x1="0" y1="159.3" x2="281.125" y2="159.3" fill="rgb(0, 0, 0)" stroke="rgb(153, 153, 153)" stroke-width="1.5px"></line></g></g><g><g><line x1="25.556818181818183" y1="0" x2="25.556818181818183" y2="177" fill="rgb(0, 0, 0)" stroke="rgb(153, 153, 153)" stroke-width="1.5px"></line></g></g><g><g><g><g><g><path stroke="rgb(255, 112, 67)" stroke-width="2px" d="M27.090227272727272,-1.2034684538841418L27.345795454545456,5.283508050441753L27.601363636363633,5.5204087972641105L27.856931818181817,5.223573374748241L28.1125,5.07701246738435L28.36806818181818,7.2786121845245475L28.623636363636365,7.2704886674881095L28.879204545454545,8.857950496673595L29.13477272727273,9.616750288009655L29.390340909090906,9.519152033329021L29.64590909090909,10.642887639999401L29.901477272727274,11.399461376667034L30.157045454545454,11.451483535766613L30.412613636363638,11.774229812622082L30.668181818181818,10.210832583904278L30.923750000000002,14.72426919937135L31.179318181818182,13.214054632186901L31.434886363636362,14.593048024177563L31.690454545454546,11.583263862133037L31.946022727272727,15.648683238029491L32.20159090909091,17.47689657211305L32.45715909090909,20.0858642935753L32.71272727272727,15.141870725154888L32.968295454545455,16.888163137435924L33.22386363636364,17.737598168849956L33.47943181818182,19.787045466899883L33.735,15.59935133457185L33.99056818181818,12.84803216457368L34.24613636363636,19.62744473218919L34.501704545454544,14.019358921051037L34.75727272727273,15.596386778354656L35.01284090909091,16.959861087799084L35.26840909090909,16.75686811208726L35.52397727272727,17.496783363819134L35.77954545454545,18.344604241848003L36.03511363636363,17.459773886203777L36.29068181818182,24.12609021663667L36.54625,20.806198704242718L36.801818181818184,18.171267378330242L37.05738636363636,16.587139356136333L37.312954545454545,23.534360575675976L37.56852272727273,21.9105855703354L37.82409090909091,17.98974369764329L38.0796590909091,18.676328587532055L38.33522727272727,17.498133766651165L38.59079545454545,19.5814782857895L38.846363636363634,19.20314394235612L39.10193181818182,22.733898746967327L39.3575,18.101542282104504L39.61306818181818,23.56937609910966L39.86863636363636,18.28076605796815L40.124204545454546,20.59944992065431L40.37977272727273,19.441511142253887L40.63534090909091,19.156217443943035L40.89090909090909,18.829820859432232L41.146477272727275,20.22053532600404L41.40204545454546,20.311360466480266L41.65761363636364,14.903756725788128L41.91318181818181,19.917095589637768L42.168749999999996,22.953117656707775L42.42431818181818,25.098011004924786L42.67988636363636,23.122645962238323L42.93545454545455,20.27022593021394L43.191022727272724,17.324374902248394L43.44659090909091,20.84259628057481L43.70215909090909,20.41650198698045L43.957727272727276,19.93385957479478L44.21329545454546,20.579552578926098L44.468863636363636,19.149634230136883L44.72443181818182,24.258619594573986L44.980000000000004,20.76799707412721L45.23556818181819,21.751406836509716L45.49113636363636,20.499625611305248L45.74670454545454,23.214895355701458L46.002272727272725,21.620196211338055L46.25784090909091,24.302950787544262L46.51340909090909,23.026239860057842L46.76897727272727,21.524802911281597L47.02454545454545,19.34356473684312L47.28011363636364,23.67432771921159L47.53568181818182,22.325180339813244L47.791250000000005,24.728591430187237L48.04681818181818,22.458743619918835L48.302386363636366,26.39044146537782L48.55795454545454,23.277193236351025L48.813522727272726,24.39062147140504L49.06909090909091,21.445614445209515L49.32465909090909,19.835839319229137L49.58022727272727,21.244562673568737L49.835795454545455,25.117961096763622L50.09136363636364,25.757366287708294L50.346931818181815,21.016639995574963L50.6025,23.995765793323528L50.85806818181818,22.949921000003826L51.11363636363637,19.853563356399548L51.36920454545455,21.1651421070099L51.62477272727273,23.496623146533977L51.880340909090904,22.941713082790386L52.13590909090909,25.90074108839036L52.39147727272727,17.746956038475048L52.647045454545456,23.142385053634655L52.90261363636363,24.15896408557893L53.158181818181816,24.96922688484193L53.41375,25.240119802951824L53.669318181818184,22.273474681377422L53.92488636363636,23.77011137008668L54.180454545454545,25.009211468696606L54.43602272727273,25.320975172519695L54.69159090909091,20.537363040447246L54.947159090909096,19.725391137599956L55.202727272727266,25.091839241981518L55.45829545454545,25.589747536182415L55.713863636363634,24.139224994182598L55.96943181818182,25.142384397983562L56.225,17.46677910089494L56.48056818181818,22.187397050857555L56.73613636363636,17.91989200115205L56.991704545454546,24.904797899723064L57.24727272727273,24.277208733558666L57.502840909090914,23.681121933460247L57.75840909090909,21.24837123155595L58.013977272727274,23.719323563575756L58.26954545454546,24.31093715429307L58.52511363636364,24.91891382932664L58.78068181818181,23.387398767471325L59.036249999999995,21.896712291240704L59.29181818181818,24.22589342594148L59.54738636363636,20.490331041812908L59.80295454545455,22.586451637744915L60.058522727272724,22.07553516626359L60.31409090909091,23.424577045440685L60.56965909090909,23.317452120780956L60.825227272727275,22.960354971885693L61.08079545454546,22.68664519786836L61.336363636363636,21.971269297599804L61.59193181818182,20.490731942653667L61.847500000000004,21.643997061252605L62.10306818181818,23.68384383916856L62.358636363636364,24.687003242969524L62.61420454545454,23.914477872848522L62.869772727272725,23.19031380414964L63.12534090909091,20.834778714180004L63.38090909090909,21.78553615808488L63.63647727272727,24.859749305248272L63.89204545454545,22.09315370321275L64.14761363636363,24.185223090648662L64.40318181818182,20.184095549583446L64.65875,21.731214094162L64.91431818181817,23.320448327064526L65.16988636363637,22.758100497722637L65.42545454545454,26.26024364233018L65.68102272727273,22.49870710372926L65.93659090909091,21.527799117565166L66.19215909090909,22.540928292274486L66.44772727272728,22.777533638477337L66.70329545454545,25.67017035484315L66.95886363636365,23.320079076290142L67.21443181818182,25.7468373656273L67.47,24.00572501420976L67.72556818181818,24.048283803462994L67.98113636363637,21.766978669166576L68.23670454545454,22.571016955375683L68.49227272727272,24.29019581079484L68.74784090909091,24.963941323757183L69.00340909090909,25.079284715652477L69.25897727272728,22.872061836719524L69.51454545454546,26.149658310413372L69.77011363636363,23.547495353221905L70.02568181818182,23.466724383831036L70.28125,21.94802759885789L70.53681818181818,24.10062246322633L70.79238636363637,23.67221771478654L71.04795454545454,23.310647356510174L71.30352272727274,25.821383821964275L71.5590909090909,23.865937221050274L71.81465909090909,22.1904249072075L72.07022727272727,21.123089718818676L72.32579545454546,22.842806625366222L72.58136363636363,22.52468125820161L72.83693181818182,30.37409816980363L73.0925,24.339791464805614L73.34806818181819,26.326740431785595L73.60363636363637,24.11838870048524L73.85920454545456,22.25023298263551L74.11477272727272,25.140432643890392L74.3703409090909,19.609815645217907L74.62590909090909,24.042713391780865L74.88147727272727,20.498760509490978L75.13704545454546,21.581171679496777L75.39261363636363,24.254557836055767L75.64818181818183,23.400174844264995L75.90375,25.906849551200878L76.1593181818182,20.9275556087494L76.41488636363636,22.096582460403454L76.67045454545455,23.575083661079418L76.92602272727272,24.198547768592846L77.1815909090909,24.263451504707348L77.43715909090909,26.09010343551637L77.69272727272727,21.71153830289842L77.94829545454546,26.977465796470653L78.20386363636364,27.537629771232616L78.45943181818183,22.426703202724468L78.715,27.439630615711224L78.97056818181818,25.587194430828106L79.22613636363636,21.432353067398083L79.48170454545455,26.61557893753053L79.73727272727272,24.566279339790356L79.99284090909092,26.76726715564729L80.24840909090909,20.731399047374737L80.50397727272727,24.02204589843751L80.75954545454546,24.70711158514024L81.01511363636364,26.515100526809704L81.27068181818181,24.429118502140057L81.52624999999999,22.862703967094433L81.78181818181818,21.138598251342785L82.03738636363636,23.049133408069622L82.29295454545455,25.255470085144054L82.54852272727273,24.897581684589397L82.80409090909092,24.649097013473522L83.0596590909091,23.643722105026256L83.31522727272728,23.90321044921876L83.57079545454546,26.628692615032207L83.82636363636362,25.929721999168407L84.08193181818181,22.10985438823701L84.33749999999999,26.06525813341142L84.59306818181818,24.041521239280712L84.84863636363636,22.73549180030824L85.10420454545455,23.56607394218446L85.35977272727273,26.34125726222993L85.61534090909092,25.05754112005235L85.8709090909091,25.890201616287243L86.12647727272727,26.421353030204784L86.38204545454545,25.054112362861645L86.63761363636364,24.023238050937664L86.89318181818182,22.4756553053856L87.14874999999999,22.975346553325664L87.40431818181818,25.115070390701305L87.65988636363636,23.51181517839433L87.91545454545455,24.414053070545208L88.17102272727273,23.196580517292034L88.42659090909092,27.847040820121777L88.68215909090908,26.76529430150987L88.93772727272727,22.597233760356914L89.19329545454545,24.197978067398083L89.44886363636364,24.425911295413982L89.70443181818182,22.55378876924516L89.96000000000001,25.411842513084423L90.21556818181818,24.226209926605236L90.47113636363638,27.259678888320934L90.72670454545455,23.283048498630535L90.98227272727271,25.20064162015916L91.2378409090909,26.08251796960832L91.49340909090908,23.59808270931245L91.74897727272727,22.998577702045452L92.00454545454545,26.16747729778291L92.26011363636364,25.06146572828294L92.51568181818182,23.684962141513836L92.77125000000001,23.5645863890648L93.02681818181819,24.019260692596447L93.28238636363638,27.75794588327409L93.53795454545454,24.115339744091045L93.79352272727272,22.981286215782177L94.0490909090909,23.557897675037395L94.30465909090908,27.45346169471742L94.56022727272727,23.594959902763378L94.81579545454545,27.9246995329857L95.07136363636364,23.664421248435985L95.32693181818182,25.86329905986787L95.58250000000001,27.369705069065105L95.83806818181817,21.931717264652264L96.09363636363636,25.49079887866975L96.34920454545454,23.601754117012035L96.60477272727273,20.843999433517467L96.86034090909091,26.00822471380235L97.11590909090908,24.37704359292985L97.37147727272728,25.66101293563844L97.62704545454545,23.87479923963548L97.88261363636364,26.516123878955852L98.13818181818182,26.278758931159985L98.39375,25.1752899169922L98.64931818181817,24.275436329841625L98.90488636363636,23.457725214958202L99.16045454545454,25.804324436187756L99.41602272727273,23.72075836658479L99.67159090909091,25.944586980342876L99.9271590909091,27.872149872779858L100.18272727272728,28.3968235731125L100.43829545454547,25.476345348358166L100.69386363636363,25.078430163860332L100.94943181818181,28.539312171936047L101.205,23.93923877477647L101.46056818181818,23.17162971496583L101.71613636363637,26.578812110424053L101.97170454545454,25.02477275133134L102.22727272727273,22.96739183664323L102.48284090909091,24.15892188549043L102.7384090909091,23.219917166233074L102.99397727272728,27.09098403453828L103.24954545454545,24.98972557783128L103.50511363636363,28.18007336854936L103.76068181818181,25.23771439790727L104.01625,24.711447644233715L104.27181818181818,25.085298228263866L104.52738636363637,27.862929153442394L104.78295454545454,26.36730526685716L105.03852272727273,26.932986903190624L105.29409090909091,29.389105904102337L105.54965909090909,22.200901079177868L105.80522727272727,26.368529069423687L106.06079545454546,26.889932262897503L106.31636363636363,30.20253371000291L106.57193181818182,26.58321146965028L106.8275,26.27482377290727L107.08306818181819,26.87855933904649L107.33863636363637,23.074706661701214L107.59420454545455,24.944898533821117L107.84977272727272,24.318290519714367L108.1053409090909,24.257775592803966L108.36090909090909,25.410956311225902L108.61647727272727,24.747212219238293L108.87204545454546,26.5689689397812L109.12761363636363,22.371378886699688L109.38318181818182,26.5127162218094L109.63875,23.782708096504223L109.89431818181819,28.97123007774354L110.14988636363637,25.202941524982464L110.40545454545453,26.860044050216686L110.66102272727272,24.403260397911083L110.9165909090909,28.252847421169292L111.17215909090909,25.94040917158128L111.42772727272727,26.615811038017284L111.68329545454546,27.189531791210186L111.93886363636364,29.377532529830944L112.19443181818183,25.304738688468944L112.45,27.427487540245068L112.70556818181818,26.492934930324566L112.96113636363636,22.556774425506603L113.21670454545455,25.24334810972215L113.47227272727272,26.341995763778698L113.72784090909092,25.795188117027294L113.98340909090909,29.84638606309892L114.23897727272727,27.55600790977479L114.49454545454546,23.38829551935197L114.75011363636364,23.64155935049058L115.00568181818183,27.961287009716045L115.26124999999999,23.953840005397808L115.51681818181818,22.097975063323986L115.77238636363636,26.95355944633485L116.02795454545455,27.756310629844677L116.28352272727273,27.129945266246807L116.53909090909092,24.15616832971574L116.7946590909091,22.65731613636018L117.05022727272728,26.311284649372112L117.30579545454546,26.377190637588512L117.56136363636362,26.486077415943157L117.81693181818181,29.085022616386425L118.07249999999999,23.28215174674989L118.32806818181818,25.462788569927227L118.58363636363636,25.230382132530224L118.83920454545455,24.331942248344433L119.09477272727273,20.934107172489178L119.35034090909092,28.69092653989793L119.6059090909091,24.611665534973156L119.86147727272729,24.513349878788006L120.11704545454545,24.715171802043926L120.37261363636362,24.273368525505077L120.62818181818182,26.370501923561108L120.88374999999999,26.769915211200725L121.13931818181818,25.184964287281048L121.39488636363636,25.097462403774273L121.65045454545455,26.946448731422436L121.90602272727273,30.825765717029583L122.16159090909092,27.508501160144817L122.41715909090908,25.595676648616802L122.67272727272727,24.693459856510174L122.92829545454545,24.702416825294506L123.18386363636364,24.299522030353558L123.43943181818182,25.891288268566143L123.69500000000001,24.65597562789918L123.95056818181818,29.240635442733776L124.20613636363636,21.484744477272045L124.46170454545455,28.5145512700081L124.71727272727273,26.297833371162426L124.9728409090909,26.2545255303383L125.22840909090908,27.269722509384167L125.48397727272727,21.971047747135174L125.73954545454545,23.01275693178178L125.99511363636364,22.209087896347057L126.25068181818182,24.452771651744854L126.50625000000001,26.426142740249645L126.76181818181819,24.685758340358745L127.01738636363638,24.032437670230877L127.27295454545454,24.573601055145275L127.52852272727272,24.03304957151414L127.7840909090909,25.919899928569805L128.03965909090908,31.95498733520509L128.29522727272726,25.76928781270982L128.55079545454547,27.690605092048656L128.80636363636364,26.342533814907085L129.06193181818182,24.593582797050487L129.3175,24.767964112758648L129.5730681818182,24.846255826950085L129.82863636363635,25.855523693561565L130.08420454545455,26.377697038650524L130.33977272727273,26.04775564670564L130.5953409090909,28.255748677253735L130.85090909090908,25.474952745437633L131.10647727272726,25.030279862880718L131.36204545454547,26.312561202049267L131.61761363636364,27.123583602905285L131.87318181818182,27.395721423625957L132.12875,31.744187343120586L132.38431818181817,26.552648055553448L132.63988636363635,23.838011312484753L132.89545454545456,28.975344586372387L133.15102272727273,25.13196097612382L133.4065909090909,25.930787551403057L133.66215909090909,23.97295664548875L133.9177272727273,26.67281280755998L134.17329545454547,25.513618576526653L134.42886363636364,24.88122915029527L134.68443181818182,24.817443716526043L134.94,26.200910317897808L135.19556818181817,24.467678833007824L135.45113636363635,27.638414132595074L135.70670454545456,28.325473773479473L135.96227272727273,25.40568130016328L136.2178409090909,24.34263997077943L136.4734090909091,26.989840972423565L136.7289772727273,24.442274379730236L136.98454545454544,29.44677232503892L137.24011363636362,26.095610547065746L137.49568181818182,26.564084279537212L137.75125,27.07998036146165L138.00681818181818,30.168868589401256L138.26238636363635,27.272592115402233L138.51795454545456,26.228625226020824L138.77352272727273,27.682196724414837L139.0290909090909,27.2527264237404L139.2846590909091,27.30429493188859L139.54022727272726,28.612571525573742L139.79579545454544,22.94787429571153L140.05136363636365,26.351944434642803L140.30693181818182,26.684090781211864L140.5625,25.545004892349255L140.81806818181818,23.528442013263714L141.07363636363635,24.358823704719555L141.32920454545453,28.46880637407304L141.58477272727274,27.18670438528062L141.8403409090909,26.07071249485017L142.0959090909091,24.10255311727525L142.35147727272727,28.474049735069286L142.60704545454547,25.89663712978364L142.86261363636365,25.068502593040478L143.1181818181818,29.10058389902116L143.37375,27.86495475769044L143.62931818181818,27.171079802513134L143.88488636363638,26.276100325584423L144.14045454545453,26.055573213100445L144.39602272727274,25.813682305812847L144.6515909090909,31.76837854385377L144.9071590909091,26.483376610279095L145.16272727272727,26.773154067993175L145.41829545454544,25.415629971027386L145.67386363636365,26.985863614082348L145.9294318181818,26.693649101257336L146.185,26.85242693424226L146.44056818181818,30.465144860744488L146.69613636363638,29.712822782993328L146.95170454545453,24.998914647102367L147.20727272727274,22.625275719165813L147.46284090909091,25.583354222774517L147.71840909090912,24.539081382751476L147.97397727272727,26.922552931308758L148.22954545454544,26.728305923938763L148.48511363636365,22.79445587396623L148.7406818181818,25.06900899410249L148.99625,26.604100513458263L149.25181818181818,27.408814001083385L149.50738636363639,27.69188164472581L149.76295454545453,28.653895962238323L150.01852272727274,27.39629112482072L150.27409090909092,27.33732705116273L150.52965909090906,27.61408578157426L150.78522727272727,31.146823990345013L151.04079545454545,23.97963480949403L151.29636363636365,28.448370981216442L151.5519318181818,26.691117095947277L151.8075,27.390467512607586L152.06306818181818,26.946986782550823L152.3186363636364,29.823619115352642L152.57420454545453,29.207962024211895L152.8297727272727,23.963693726062786L153.08534090909092,27.967216122150433L153.3409090909091,26.727103221416485L153.59647727272727,25.481620359420788L153.85204545454545,23.918022680282604L154.10761363636365,27.72835307121278L154.3631818181818,27.71058683395387L154.61875,28.79596256017686L154.87431818181818,28.525871443748485L155.12988636363636,28.11660443544389L155.38545454545454,28.482985603809368L155.6410227272727,26.780581283569347L155.89659090909092,26.636911082267773L156.1521590909091,24.664215195178997L156.40772727272727,22.705867338180553L156.66329545454545,27.466227221488964L156.91886363636365,24.671093809604656L157.17443181818183,28.25613902807237L157.43,27.710512983798992L157.68556818181818,28.044273483753216L157.94113636363636,27.68320952653886L158.19670454545454,27.9452193260193L158.4522727272727,25.8214365720749L158.70784090909092,26.180970776081097L158.9634090909091,27.215843546390545L159.21897727272727,26.81414090394975L159.47454545454545,22.405075657367718L159.73011363636365,31.53476940393449L159.98568181818183,26.840843009948742L160.24124999999998,30.11916743516923L160.49681818181818,27.493815529346477L160.75238636363636,26.691127645969402L161.00795454545454,28.090883481502544L161.26352272727271,26.93235390186311L161.51909090909092,26.27708147764207L161.7746590909091,28.427239286899578L162.03022727272727,27.137182581424725L162.28579545454545,26.897886979579937L162.54136363636363,25.933825957775127L162.79693181818183,26.565234231948864L163.05249999999998,24.944413232803356L163.3080681818182,28.292747604846966L163.56363636363636,25.76538430452348L163.81920454545457,23.97508774995805L164.07477272727272,26.657673525810253L164.33034090909092,23.857708203792583L164.5859090909091,27.800620722770702L164.84147727272725,28.293612706661236L165.09704545454545,27.352719533443462L165.35261363636363,30.374667870998394L165.60818181818183,25.54392879009248L165.86374999999998,29.164147782325756L166.1193181818182,27.952435541152965L166.37488636363636,27.37912623882295L166.63045454545457,27.396765875816357L166.88602272727272,26.977592396736156L167.14159090909092,30.58475046157838L167.3971590909091,26.33513824939729L167.65272727272725,25.580611217021954L167.90829545454545,26.86737631559373L168.16386363636363,27.143238294124615L168.41943181818183,25.37691138982774L168.67499999999998,29.814609396457683L168.9305681818182,27.881887543201458L169.18613636363636,26.10784857273103L169.44170454545457,26.905873346328747L169.69727272727272,25.926219391822826L169.9528409090909,28.53797231912614L170.2084090909091,22.058539080619823L170.46397727272725,28.58888672590257L170.71954545454545,26.24054675102235L170.97511363636363,24.198178517818462L171.23068181818184,24.815660762786877L171.48624999999998,26.9601004600525L171.7418181818182,26.284076142311108L171.99738636363637,26.90020798444749L172.25295454545454,25.891435968875896L172.50852272727272,27.050640749931347L172.7640909090909,26.420245277881634L173.0196590909091,28.067462432384502L173.27522727272728,29.899969625473034L173.53079545454545,26.462234365940105L173.78636363636363,25.478676903247845L174.04193181818184,26.10030530691148L174.29749999999999,24.63410543203355L174.55306818181816,26.78744934797288L174.80863636363637,28.04353498220445L175.06420454545454,29.191240239143383L175.31977272727272,28.760788786411297L175.5753409090909,27.70097576379777L175.8309090909091,25.769836413860332L176.08647727272728,27.790682601928722L176.34204545454546,29.66122262477876L176.59761363636363,28.164670336246502L176.85318181818184,26.994788932800304L177.10875000000001,24.391549873352062L177.36431818181816,29.11975328922273L177.61988636363637,30.06510912179948L177.87545454545455,26.152422416210186L178.13102272727272,26.48338716030122L178.3865909090909,23.949039745330822L178.6421590909091,25.90176444053651L178.89772727272728,27.496263134479534L179.15329545454546,26.57158534526826L179.40886363636363,26.84180306196214L179.6644318181818,25.059967625141155L179.92000000000002,29.107916164398205L180.17556818181816,25.356908547878277L180.43113636363637,27.252177822589886L180.68670454545455,26.1432333469391L180.94227272727275,29.703042912483227L181.1978409090909,28.508590507507336L181.4534090909091,24.25971679687501L181.70897727272728,26.663307237625133L181.96454545454543,28.366819310188305L182.22011363636364,24.143983054161083L182.4756818181818,28.087043273448955L182.73125000000002,31.392143654823315L182.98681818181817,24.149996566772472L183.24238636363637,29.050745594501507L183.49795454545455,29.165572035312664L183.75352272727275,26.54343788623811L184.0090909090909,27.528176951408398L184.26465909090908,26.84248881340028L184.52022727272728,26.747243213653576L184.77579545454543,24.586904633045208L185.03136363636364,27.33726375102998L185.2869318181818,27.11108182668687L185.54250000000002,29.96701501607896L185.79806818181817,30.634989666938793L186.05363636363637,25.60220711231233L186.30920454545455,28.057091760635387L186.56477272727275,24.70025407075883L186.8203409090909,27.17040460109712L187.07590909090908,28.43468760252L187.33147727272728,27.3662341117859L187.58704545454543,24.983195114135754L187.84261363636364,26.63986508846284L188.0981818181818,28.499295938014995L188.35375000000002,25.724175918102276L188.60931818181817,27.607734668254864L188.86488636363637,25.927601444721233L189.12045454545455,29.09018157720567L189.37602272727273,27.0205309867859L189.6315909090909,29.878848481178295L189.88715909090908,27.523144590854656L190.14272727272729,26.942302572727215L190.39829545454546,25.449632692337048L190.65386363636364,27.246670711040508L190.90943181818182,29.305233228206646L191.16500000000002,25.871675777435314L191.42056818181817,26.955194699764263L191.67613636363635,30.579707551002514L191.93170454545455,25.364093112945568L192.18727272727273,27.65335296392442L192.4428409090909,25.635576832294475L192.69840909090908,28.976230788230907L192.9539772727273,26.53784637451173L193.20954545454546,23.937835621833813L193.46511363636364,29.39245026111604L193.72068181818182,25.451879847049725L193.97625,26.80965714454652L194.23181818181817,27.563097524642956L194.48738636363635,31.39022355079652L194.74295454545455,28.24189649820329L194.99852272727273,28.028659451007854L195.2540909090909,24.916329073905956L195.50965909090908,30.99392251968385L195.7652272727273,28.153466212749493L196.02079545454546,24.17149751186372L196.27636363636364,28.478776144981396L196.53193181818182,28.686147379875194L196.7875,29.16631053686143L197.0430681818182,29.497032630443584L197.29863636363635,29.615129578113567L197.55420454545455,32.244110691547405L197.80977272727273,24.636310386657726L198.0653409090909,24.86760907173158L198.32090909090908,24.041352438926708L198.5764772727273,27.223745512962353L198.83204545454547,30.577576446533214L199.0876136363636,32.53694765567781L199.34318181818182,30.55994735956193L199.59875,26.203684973716747L199.8543181818182,29.0278414964676L200.10988636363635,23.481905865669262L200.36545454545455,27.910689103603374L200.62102272727273,28.00994371175767L200.87659090909094,26.549504148960125L201.13215909090908,30.66093217134477L201.38772727272726,25.697864162921917L201.64329545454547,25.45337795019151L201.89886363636361,24.976675200462353L202.15443181818182,26.75717078447343L202.41,28.291133451461803L202.6655681818182,26.180306124687206L202.92113636363635,29.142615187168133L203.17670454545456,26.46872262954713L203.43227272727273,23.757018792629253L203.68784090909088,29.90612028837205L203.94340909090909,23.70806668996812L204.19897727272726,26.79501371383668L204.45454545454547,29.548738288879406L204.71011363636362,31.682279813289654L204.96568181818182,25.87621228694917L205.22125,27.95994715690614L205.4768181818182,28.378223884105694L205.73238636363635,26.021032440662395L205.98795454545456,28.460566806793224L206.24352272727273,27.368797767162334L206.4990909090909,21.482064771652233L206.7546590909091,26.2632187485695L207.01022727272726,28.108312118053448L207.26579545454547,24.5444407939911L207.52136363636362,28.013414669036877L207.77693181818182,26.614882636070263L208.0325,28.802957224845898L208.2880681818182,24.65167121887208L208.54363636363635,25.501064050197613L208.79920454545453,26.13774733543397L209.05477272727273,25.321091222763073L209.3103409090909,29.664271581172954L209.5659090909091,29.546944785118114L209.82147727272726,28.371028769016277L210.07704545454547,31.511759805679333L210.33261363636365,28.82120876312257L210.58818181818182,30.07629214525224L210.84375,26.054866361618053L211.09931818181818,23.9912398338318L211.35488636363635,25.64792035818101L211.61045454545453,26.973752188682568L211.86602272727274,25.46657602787019L212.1215909090909,28.16074572801591L212.3771590909091,28.95167033672334L212.63272727272727,28.146102297306072L212.88829545454547,26.415603268146526L213.14386363636365,29.184540975093853L213.3994318181818,26.569517540931713L213.655,27.934004652500164L213.91056818181818,26.101497459411632L214.16613636363638,27.284524190425884L214.42170454545453,27.797276365757L214.67727272727274,27.548971045017254L214.9328409090909,30.111708569526684L215.1884090909091,28.291175651550304L215.44397727272727,27.403844940662395L215.69954545454544,30.630020606517803L215.95511363636365,29.994118022918713L216.2106818181818,31.192811536788952L216.46625,25.3578791499138L216.72181818181818,26.403206992149364L216.97738636363638,28.40076928138734L217.23295454545453,28.444478023052227L217.48852272727274,28.067430782318127L217.74409090909091,29.57393174171449L217.99965909090912,26.459702360630047L218.25522727272727,29.89746927022935L218.51079545454544,29.211179780960094L218.76636363636365,26.23728679418565L219.0219318181818,28.238889741897594L219.2775,31.009040701389324L219.53306818181818,29.0147594690323L219.78863636363639,24.96942733526231L220.04420454545453,28.861425447464L220.29977272727274,27.484415459632885L220.55534090909092,28.08079766035081L220.81090909090906,29.835593390464794L221.06647727272727,28.692688393592846L221.32204545454545,28.35145847797395L221.57761363636365,30.196340847015392L221.8331818181818,25.243601310253155L222.08875,29.849171268939983L222.34431818181818,31.021700727939617L222.5998863636364,26.401898789405834L222.85545454545453,26.511502969264995L223.1110227272727,29.54939239025117L223.36659090909092,30.85219352245332L223.6221590909091,27.02219789028169L223.87772727272727,26.164554941654217L224.13329545454545,27.29256330728532L224.38886363636365,27.810305643081676L224.6444318181818,26.132187473773968L224.9,28.518465328216564L225.15556818181818,28.243531751632702L225.41113636363636,24.44869934320451L225.66670454545454,27.38928591012956L225.9222727272727,29.233915078639995L226.17784090909092,29.740653741359722L226.4334090909091,29.30564467906953L226.68897727272727,29.755909073352825L226.94454545454545,24.36877237558366L227.20011363636365,27.347613322734844L227.45568181818183,29.454167890548717L227.71125,26.711489188671123L227.96681818181818,24.864939916133892L228.22238636363636,29.74817590713502L228.47795454545454,28.437187957763683L228.7335227272727,27.275736021995556L228.98909090909092,25.3838322043419L229.2446590909091,29.6284331560135L229.50022727272727,24.41238616704942L229.75579545454545,27.272771465778362L230.01136363636365,30.06633292436601L230.26693181818183,27.443797874450695L230.52249999999998,26.2168303012848L230.77806818181818,31.007236647605907L231.03363636363636,24.64146934747697L231.28920454545454,25.82696478366853L231.54477272727271,26.005745458602917L231.80034090909092,28.94095151424409L232.0559090909091,26.75708638429643L232.31147727272727,27.80351142883302L232.56704545454545,30.7714436531067L232.82261363636363,30.34180455207826L233.07818181818183,29.63646172285081L233.33374999999998,27.561420071125042L233.5893181818182,29.045206832885754L233.84488636363636,27.235867488384258L234.10045454545457,27.871253120899212L234.35602272727272,31.61974983215333L234.61159090909092,28.75534497499467L234.8671590909091,27.618727791309368L235.12272727272725,25.051253306865704L235.37829545454545,27.90588884353639L235.63386363636363,25.955569553375256L235.88943181818183,29.54021387100221L236.14499999999998,27.64516614675523L236.4005681818182,27.62511055469514L236.65613636363636,26.27426462173463L236.91170454545457,28.670079696178448L237.16727272727272,27.670317399501812L237.42284090909092,27.754981327056896L237.6784090909091,29.16999249458314L237.93397727272725,28.275318968296062L238.18954545454545,29.144999492168438L238.44511363636363,30.062851417064678L238.70068181818183,28.09202288389207L238.95624999999998,23.663018095493328L239.2118181818182,31.539991664886486L239.46738636363636,28.83196978569032L239.72295454545457,27.25021551847459L239.97852272727272,29.860459792613995L240.2340909090909,30.206806468963634L240.4896590909091,26.46765707731248L240.74522727272725,26.00981776714326L241.00079545454545,26.145438301563274L241.25636363636363,28.50596355199815L241.51193181818184,32.66203926801683L241.76749999999998,26.492913830280315L242.0230681818182,27.519061732292187L242.27863636363637,29.687966930866253L242.53420454545454,27.0367885708809L242.78977272727272,30.478659439086925L243.0453409090909,28.390820610523235L243.3009090909091,24.77170937061311L243.55647727272728,31.08400915861131L243.81204545454545,26.285015094280254L244.06761363636363,30.0853440642357L244.32318181818184,27.25154482126237L244.57874999999999,26.703671622276318L244.83431818181816,25.278490233421337L245.08988636363637,28.710750031471264L245.34545454545454,30.175040352344524L245.60102272727272,31.272158253192913L245.8565909090909,28.157981622219097L246.1121590909091,27.8868777036667L246.36772727272728,31.09423213005067L246.62329545454546,26.906147646904003L246.87886363636363,29.080939757823955L247.13443181818184,30.06981443166734L247.39000000000001,29.589535224437725L247.64556818181816,29.191651690006267L247.90113636363637,28.475495088100445L248.15670454545455,30.11520062685014L248.41227272727272,28.517747926712048L248.6678409090909,25.517944085598003L248.9234090909091,28.694777297973644L249.17897727272728,28.912149953842174L249.43454545454546,29.323875117301952L249.69011363636363,24.32056932449342L249.9456818181818,27.514356422424328L250.20125000000002,28.834723341465008L250.45681818181816,28.490782070159923L250.71238636363637,30.11194067001344L250.96795454545455,26.39112721681596L251.22352272727275,30.43816845417024L251.4790909090909,29.221539902687084L251.7346590909091,30.007864701747906L251.99022727272728,29.391500759124767L252.24579545454543,31.34119759798051L252.50136363636364,28.63906263113023L252.7569318181818,27.660600829124462L253.01250000000002,30.553775596618664L253.26806818181817,27.838674652576458L253.52363636363637,27.959852206707012L253.77920454545455,27.638815033435833L254.03477272727275,26.046436893939983L254.2903409090909,28.551339197158825L254.54590909090908,29.12871025800706L254.80147727272728,25.743165957927715L255.05704545454543,30.274178910255443L255.31261363636364,28.16520838737489L255.5681818181818,25.120640802383434L255.82375000000002,27.551851201057445L256.07931818181817,28.340307104587566L256.3348863636364,26.38728700876237L256.5904545454545,31.963511753082287L256.8460227272727,27.81697325706483L257.10159090909093,27.865566658973705L257.3571590909091,32.50814609527589L257.6127272727273,26.40512709617616L257.86829545454543,30.07043688297273L258.12386363636364,26.01969258785249L258.3794318181818,28.01406877040864L258.635,30.107520210742962" style="fill: none;" fill="none"></path></g><g><path stroke="rgb(0, 153, 136)" stroke-width="2px" d="M25.556818181818183,-67.03639776706697L28.1125,73.91189782619476L30.668181818181818,76.46648545861244L33.22386363636364,89.96807672381401L35.77954545454545,93.80270381569862L38.33522727272727,100.03659056425094L40.89090909090909,100.4795226931572L43.44659090909091,99.06411589980125L46.002272727272725,106.23824172019958L48.55795454545454,96.84318326711654L51.11363636363637,93.73402844667434L53.669318181818184,104.22326134443283L56.225,102.69686304330826L58.78068181818181,97.63656603097915L61.336363636363636,103.51282285451889L63.89204545454545,101.28005309700966L66.44772727272728,101.9833070218563L69.00340909090909,100.58939062356949L71.5590909090909,101.70822046995163L74.11477272727272,89.98887081742286L76.67045454545455,102.8269184410572L79.22613636363636,105.9738106906414L81.78181818181818,108.15918447375297L84.33749999999999,102.28977988958358L86.89318181818182,103.72075324058532L89.44886363636364,105.65556927323341L92.00454545454545,109.05645858049392L94.56022727272727,106.50376467704773L97.11590909090908,109.45036475658416L99.67159090909091,111.17289324402809L102.22727272727273,108.16349415779113L104.78295454545454,102.13872467279434L107.33863636363637,105.13688271045685L109.89431818181819,102.3561500787735L112.45,108.3260910987854L115.00568181818183,108.6726962506771L117.56136363636362,104.95629270672798L120.11704545454545,106.46079971194267L122.67272727272727,108.05809416174888L125.22840909090908,111.13866369724273L127.7840909090909,108.23971279263496L130.33977272727273,106.19055034518242L132.89545454545456,110.06388546824455L135.45113636363635,99.38295339345932L138.00681818181818,106.79078330397606L140.5625,109.7253299832344L143.1181818181818,107.69633917808532L145.67386363636365,107.19725983142852L148.22954545454544,109.21739916801452L150.78522727272727,97.43856849074363L153.3409090909091,109.48206229805946L153.85204545454545,105.24353288412094L154.3631818181818,113.42675777077676L154.87431818181818,107.94268219470977L155.38545454545454,107.41409971117973L155.89659090909092,103.39025797247886L156.40772727272727,107.4809974014759L156.91886363636365,108.04260145425796L157.43,106.16775174736976L157.94113636363636,109.99032016396522L158.4522727272727,107.79965554475784L158.9634090909091,113.44078402519227L159.47454545454545,108.06729905605316L159.98568181818183,109.86673192977905L160.49681818181818,114.33709280490876L161.00795454545454,108.01977648139L161.51909090909092,107.60646881461143L162.03022727272727,106.5473626434803L162.54136363636363,109.5036634683609L163.05249999999998,103.52232314944267L163.56363636363636,110.847567486763L164.07477272727272,111.55179728865623L164.5859090909091,104.15750305652618L165.09704545454545,104.39477832913398L165.60818181818183,110.23934816122055L166.1193181818182,104.8367134809494L166.63045454545457,105.9144246160984L167.14159090909092,110.51918749809265L167.65272727272725,110.59576483368873L168.16386363636363,108.92794348597526L168.67499999999998,109.80100529193878L169.18613636363636,98.45369689464569L169.69727272727272,105.37072395086288L170.2084090909091,105.43409265875816L170.71954545454545,105.688975918293L171.23068181818184,106.39297361969948L171.7418181818182,108.77084310650825L172.25295454545454,105.0423914372921L172.7640909090909,108.96654074192047L173.27522727272728,110.81132816076278L173.78636363636363,111.64146720170974L174.29749999999999,109.0314128279686L174.80863636363637,107.33504839539528L175.31977272727272,108.31637452840805L175.8309090909091,109.30210529565811L176.34204545454546,102.0573840022087L176.85318181818184,109.00781770348549L177.36431818181816,108.24278284907341L177.87545454545455,106.27502437233925L178.3865909090909,106.3071228146553L178.89772727272728,113.08378182649614L179.40886363636363,110.01696951985359L179.92000000000002,108.94061933755874L180.43113636363637,110.93657274842262L180.94227272727275,111.11077471375465L181.4534090909091,113.09464307427407L181.96454545454543,105.80930947065353L182.4756818181818,110.84657578468322L182.98681818181817,110.04689465761184L183.49795454545455,102.04098926782608L184.0090909090909,108.71072380542755L184.52022727272728,104.819327044487L185.03136363636364,99.0070086300373L185.54250000000002,99.78267790675163L186.05363636363637,110.21287815570831L186.56477272727275,109.33805977106094L187.07590909090908,107.54316868185997L187.58704545454543,109.78465803265571L188.0981818181818,112.64236362576484L188.60931818181817,114.21585195064546L189.12045454545455,109.39793642163276L189.6315909090909,111.73322601914406L190.14272727272729,97.61673726439476L190.65386363636364,114.34242584109307L191.16500000000002,111.97933166027069L191.67613636363635,112.65719168186187L192.18727272727273,104.13314305543899L192.69840909090908,110.93675737380981L193.20954545454546,109.70621861815452L193.72068181818182,109.96264218091964L194.23181818181817,105.8864670574665L194.74295454545455,111.41022126674652L195.2540909090909,104.13185067772865L195.7652272727273,109.9517967581749L196.27636363636364,111.35254429578781L196.7875,105.56585188508033L197.29863636363635,109.35883803963661L197.80977272727273,112.41735275387764L198.32090909090908,110.5291994690895L198.83204545454547,114.85031445622445L199.34318181818182,105.2434115588665L199.8543181818182,114.48237188458444L200.36545454545455,107.03506379127502L200.87659090909094,109.60781328678131L201.38772727272726,111.47277762293815L201.89886363636361,111.34220527410507L202.41,110.25281526446342L202.92113636363635,106.90299861431122L203.43227272727273,110.91123159527778L203.94340909090909,108.26637797355652L204.45454545454547,108.87296732068062L204.96568181818182,102.20880846977234L205.4768181818182,111.14060490131378L205.98795454545456,110.36375402212143L206.4990909090909,110.11109154224395L207.01022727272726,113.39772410988809L207.52136363636362,111.28169034719467L208.0325,111.37616579532623L208.54363636363635,103.4861049234867L209.05477272727273,109.31282939314842L209.5659090909091,99.52493559122085L210.07704545454547,105.58983736038208L210.58818181818182,111.86104481220245L211.09931818181818,99.33713464736938L211.61045454545453,109.4335796713829L212.1215909090909,112.47497697472572L212.63272727272727,107.27536692023277L213.14386363636365,108.84600673913955L213.655,114.40476592183114L214.16613636363638,110.1846251964569L214.67727272727274,111.17306731939316L215.1884090909091,115.58025202453138L215.69954545454544,112.86848752498626L216.2106818181818,109.48061167001724L216.72181818181818,114.00293667912484L217.23295454545453,108.53980289697647L217.74409090909091,113.25534628629686L218.25522727272727,113.79687892198564L218.76636363636365,107.76798437833786L219.2775,112.47961370944977L219.78863636363639,109.18154491782188L220.29977272727274,111.47314687371254L220.81090909090906,104.5911669909954L221.32204545454545,113.74318985939027L221.8331818181818,107.44590802788734L222.34431818181818,109.4380106806755L222.85545454545453,115.31632212102414L223.36659090909092,115.66229427158834L223.87772727272727,113.2548451602459L224.38886363636365,108.14082216024399L224.9,108.773348736763L225.41113636363636,111.13623191714287L225.9222727272727,112.17549349665642L226.4334090909091,108.89658882021904L226.94454545454545,111.87953372597694L227.45568181818183,109.0671879529953L227.96681818181818,106.20590590238571L228.47795454545454,113.93680914044381L228.98909090909092,111.50872682332992L229.50022727272727,110.31090896129608L230.01136363636365,113.80050812959672L230.52249999999998,87.65953143239021L231.03363636363636,109.59428288340568L231.54477272727271,114.02182121872903L232.0559090909091,103.21222634911537L232.56704545454545,103.69042192697525L233.07818181818183,107.89192603826523L233.5893181818182,103.9401937007904L234.10045454545457,97.40048818588257L234.61159090909092,109.81982653141021L235.12272727272725,108.49094574451446L235.63386363636363,109.07012613415718L236.14499999999998,108.19399427175522L236.65613636363636,108.97498603463173L237.16727272727272,111.58316777944565L237.6784090909091,108.20913355350494L238.18954545454545,112.90427320003509L238.70068181818183,107.66491593718528L239.2118181818182,110.43604804873466L239.72295454545457,107.47263650894165L240.2340909090909,104.59198989272117L240.74522727272725,108.46467091441154L241.25636363636363,105.88051684498787L241.76749999999998,110.77447165846824L242.27863636363637,109.99354847073555L242.78977272727272,116.76362426877023L243.3009090909091,113.71591805219651L243.81204545454545,106.37623600959778L244.32318181818184,111.07039450407028L244.83431818181816,112.13266040682792L245.34545454545454,114.13582475781442L245.8565909090909,103.72506819963455L246.36772727272728,110.27979167103767L246.87886363636363,113.19676201343538L247.39000000000001,106.58410837054252L247.90113636363637,112.08852966427803L248.41227272727272,108.84359605908394L248.9234090909091,101.10842006206512L249.43454545454546,108.0479028403759L249.9456818181818,112.53403599858284L250.45681818181816,111.30290644168853L250.96795454545455,114.8205159187317L251.4790909090909,110.71867786645889L251.99022727272728,107.14111788868904L252.50136363636364,114.18033530116082L253.01250000000002,102.64761026501655L253.52363636363637,110.09947596788406L254.03477272727275,112.07891331911087L254.54590909090908,111.08960081934929L255.05704545454543,109.21661319136619L255.5681818181818,102.44818319678306L256.07931818181817,114.18144305348397L256.5904545454545,110.8979069173336L257.10159090909093,107.74736436009407L257.6127272727273,112.78847088217735L258.12386363636364,101.39643039107322L258.635,110.80851130485534" style="fill: none;" fill="none"></path></g><g><path stroke="rgb(0, 119, 187)" stroke-width="2px" d="M25.556818181818183,-311.65547747612L28.1125,90.31060956716537L30.668181818181818,101.62145181298256L33.22386363636364,104.19857429265976L35.77954545454545,106.76739917993545L38.33522727272727,106.84009938240051L40.89090909090909,109.15873049497604L43.44659090909091,112.70963584184646L46.002272727272725,114.02768703103067L48.55795454545454,113.08750070929528L51.11363636363637,113.87766044139863L53.669318181818184,114.04513676762582L56.225,113.48553721904756L58.78068181818181,114.59219761490823L61.336363636363636,113.4449565589428L63.89204545454545,115.85165925621988L66.44772727272728,114.13196344971658L69.00340909090909,113.24386258721353L71.5590909090909,115.22806854844094L74.11477272727272,116.33585779666902L76.67045454545455,115.3669859647751L79.22613636363636,113.15226729512216L81.78181818181818,116.77752656042577L84.33749999999999,116.43867303729058L86.89318181818182,116.71247512400151L89.44886363636364,117.2867840409279L92.00454545454545,117.94922520518304L94.56022727272727,117.4399914622307L97.11590909090908,116.85254776775838L99.67159090909091,116.47153371870519L102.22727272727273,117.7081308245659L104.78295454545454,118.62367229461671L107.33863636363637,117.4310292184353L109.89431818181819,118.75038333535196L112.45,116.67742795050145L115.00568181818183,118.68992379605771L117.56136363636362,118.30177265703679L120.11704545454545,118.27084262967111L122.67272727272727,119.18684830069543L125.22840909090908,118.11834469735624L127.7840909090909,119.02440961003305L130.33977272727273,119.8669132769108L132.89545454545456,119.1612381219864L135.45113636363635,119.83725188970567L138.00681818181818,118.71824005544187L140.5625,119.44155220985414L143.1181818181818,119.2887114018202L145.67386363636365,119.94024648070337L148.22954545454544,119.7177834391594L150.78522727272727,119.56791773736478L153.3409090909091,119.90338206589223L153.85204545454545,119.89462818503381L154.3631818181818,120.1448404222727L154.87431818181818,120.30464951992036L155.38545454545454,119.94569029211999L155.89659090909092,119.94412625133992L156.40772727272727,119.18717007637025L156.91886363636365,119.0160830050707L157.43,119.59139417409898L157.94113636363636,119.52644032537938L158.4522727272727,119.88928987383844L158.9634090909091,119.4832036972046L159.47454545454545,120.05455333292485L159.98568181818183,120.55667636096479L160.49681818181818,120.07286553382875L161.00795454545454,120.59997101426126L161.51909090909092,119.59521855711938L162.03022727272727,119.6624564856291L162.54136363636363,119.8615143030882L163.05249999999998,118.82265362441541L163.56363636363636,120.44472216367723L164.07477272727272,120.03145669698716L164.5859090909091,120.33160218894483L165.09704545454545,119.78136314749719L165.60818181818183,118.45781012177468L166.1193181818182,119.48396857380868L166.63045454545457,120.26033151447774L167.14159090909092,120.05306841731073L167.65272727272725,120.22296861112119L168.16386363636363,119.81288925111295L168.67499999999998,119.3238719880581L169.18613636363636,119.9765807569027L169.69727272727272,119.78770634829999L170.2084090909091,118.96931211948396L170.71954545454545,119.01888139843942L171.23068181818184,120.61622068583966L171.7418181818182,120.13998741209508L172.25295454545454,117.98709187209607L172.7640909090909,119.48430617451669L173.27522727272728,120.0357215434313L173.78636363636363,120.08286167979242L174.29749999999999,119.35492597818376L174.80863636363637,120.42219786643983L175.31977272727272,119.67456527352334L175.8309090909091,118.26984565258027L176.34204545454546,120.64749886393548L176.85318181818184,119.72893217504026L177.36431818181816,119.7217502474785L177.87545454545455,120.47455762624742L178.3865909090909,119.49060717523099L178.89772727272728,119.48598099052907L179.40886363636363,120.51632252633573L179.92000000000002,120.16326603591443L180.43113636363637,120.87916416227819L180.94227272727275,120.23700541555883L181.4534090909091,120.49822396337987L181.96454545454543,120.52527949512006L182.4756818181818,121.19239959418775L182.98681818181817,120.45472358465196L183.49795454545455,120.72073184251786L184.0090909090909,120.04261598289014L184.52022727272728,121.11959389150144L185.03136363636364,120.72840170860292L185.54250000000002,120.01362188458444L186.05363636363637,119.21295696794988L186.56477272727275,120.80210416316987L187.07590909090908,120.23373754620553L187.58704545454543,120.21966645419599L188.0981818181818,119.98851019442083L188.60931818181817,120.54155817925931L189.12045454545455,121.2917939901352L189.6315909090909,121.29113725125791L190.14272727272729,121.28348584771157L190.65386363636364,119.30685216486455L191.16500000000002,121.5505148202181L191.67613636363635,120.42875206768514L192.18727272727273,120.90888884961606L192.69840909090908,120.580827999115L193.20954545454546,120.71396664083005L193.72068181818182,119.34975382983686L194.23181818181817,120.53459780216218L194.74295454545455,120.87762913405896L195.2540909090909,120.47825277149678L195.7652272727273,120.93826274871827L196.27636363636364,120.66971721053125L196.7875,120.8721404850483L197.29863636363635,121.69412435889245L197.80977272727273,120.73353165686132L198.32090909090908,121.5862899452448L198.83204545454547,120.25189149677755L199.34318181818182,120.36620098650457L199.8543181818182,121.18474027812482L200.36545454545455,121.34948151111604L200.87659090909094,120.97655669152738L201.38772727272726,121.48741513788701L201.89886363636361,119.67360258400441L202.41,120.02823894023896L202.92113636363635,121.82293221652509L203.43227272727273,120.43096229732038L203.94340909090909,121.84717089235784L204.45454545454547,120.68610139489175L204.96568181818182,121.11113804876805L205.4768181818182,120.90302831232549L205.98795454545456,120.21031122207643L206.4990909090909,119.71579212248326L207.01022727272726,120.92834309041501L207.52136363636362,120.55810852646829L208.0325,119.91050333082677L208.54363636363635,120.40081560909749L209.05477272727273,121.65866309702398L209.5659090909091,121.61293666362764L210.07704545454547,119.89813870489598L210.58818181818182,120.76000693738462L211.09931818181818,120.96981258988382L211.61045454545453,120.57126440405847L212.1215909090909,121.44154100418092L212.63272727272727,119.997158575058L213.14386363636365,121.13255723118783L213.655,121.18857257366182L214.16613636363638,120.61041026115419L214.67727272727274,120.19753250777723L215.1884090909091,119.60751197040082L215.69954545454544,121.67208800017835L216.2106818181818,120.87698822021486L216.72181818181818,120.78772975802423L217.23295454545453,120.66907893419267L217.74409090909091,120.255467954278L218.25522727272727,120.6742194324732L218.76636363636365,120.42535232305528L219.2775,120.03256708681585L219.78863636363639,120.78496037721635L220.29977272727274,121.28079822957517L220.81090909090906,121.18010881841184L221.32204545454545,120.75110799372197L221.8331818181818,120.55541563332082L222.34431818181818,119.52755599021913L222.85545454545453,121.34367372393609L223.36659090909092,120.46857840120794L223.87772727272727,120.39608656167985L224.38886363636365,120.30133681297303L224.9,120.74624443352224L225.41113636363636,120.42199477851392L225.9222727272727,121.36054057180883L226.4334090909091,119.09218295216562L226.94454545454545,122.09034626483918L227.45568181818183,120.4970476359129L227.96681818181818,122.18745921850206L228.47795454545454,121.34687038064004L228.98909090909092,121.23367391824723L229.50022727272727,120.75475302636625L230.01136363636365,121.09057078063489L230.52249999999998,121.24497299194337L231.03363636363636,120.71705515980722L231.54477272727271,120.6346040993929L232.0559090909091,120.6008255660534L232.56704545454545,121.14936869144441L233.07818181818183,122.29631698429586L233.5893181818182,121.31871764659883L234.10045454545457,120.67573863565923L234.61159090909092,121.85129858851434L235.12272727272725,120.84367125034333L235.63386363636363,120.73839257955552L236.14499999999998,121.3376259237528L236.65613636363636,121.32622398734094L237.16727272727272,120.94520993828775L237.6784090909091,121.51758028864862L238.18954545454545,119.09266034066678L238.70068181818183,121.94262749254705L239.2118181818182,121.34864278435708L239.72295454545457,122.0397219836712L240.2340909090909,121.3940553545952L240.74522727272725,119.88724580705167L241.25636363636363,121.16098954081536L241.76749999999998,120.86738770008088L242.27863636363637,120.77400945425035L242.78977272727272,119.7535664767027L243.3009090909091,122.65488586127759L243.81204545454545,120.85670580267907L244.32318181818184,121.14576585888864L244.83431818181816,121.63938293159009L245.34545454545454,120.97370027303697L245.8565909090909,121.40598215460778L246.36772727272728,122.30082448124887L246.87886363636363,120.42372234463693L247.39000000000001,121.18638608157636L247.90113636363637,121.28617082834245L248.41227272727272,120.8811106413603L248.9234090909091,122.47229926586152L249.43454545454546,122.1265011906624L249.9456818181818,121.4765143275261L250.45681818181816,121.66551533639432L250.96795454545455,120.31220333576204L251.4790909090909,119.59071106016637L251.99022727272728,122.03439949750901L252.50136363636364,122.32853675186635L253.01250000000002,121.83379346430303L253.52363636363637,121.60991144478322L254.03477272727275,121.28967607319356L254.54590909090908,120.93368140161039L255.05704545454543,120.9417943686247L255.5681818181818,121.05221353769304L256.07931818181817,122.33856718540193L256.5904545454545,120.94253814518453L257.10159090909093,121.32982681989671L257.6127272727273,121.73071711063386L258.12386363636364,120.1736498951912" style="fill: none;" fill="none"></path></g><g><path stroke="rgb(238, 51, 119)" stroke-width="2px" d="M26.067954545454544,-3.520474863052385L26.579090909090908,48.571820783615124L27.090227272727272,63.108263719081876L27.601363636363633,81.61616225838661L28.1125,88.16784732341766L28.623636363636365,84.68369196653366L29.13477272727273,91.5672227025032L29.64590909090909,91.23999794125557L30.157045454545454,95.63719968795776L30.668181818181818,100.24656237959861L31.179318181818182,101.32526521682739L31.690454545454546,101.86373307108879L32.20159090909091,102.29160504341125L32.71272727272727,104.21537520289421L33.22386363636364,102.12851752638817L33.735,106.2159125983715L34.24613636363636,107.1302144408226L34.75727272727273,105.07587193250656L35.26840909090909,104.99425696134567L35.77954545454545,105.95294802188873L36.29068181818182,104.32105477452278L36.801818181818184,106.93401040434837L37.312954545454545,106.72193385958671L37.82409090909091,106.83374299407005L38.33522727272727,105.69321702718734L38.846363636363634,109.53951771855354L39.3575,108.54562123417854L39.86863636363636,106.86756108999252L40.37977272727273,110.23392017483711L40.89090909090909,106.50545795559883L41.40204545454546,106.15758680105209L41.91318181818181,108.5801883816719L42.42431818181818,110.87985055446624L42.93545454545455,108.53462811112404L43.44659090909091,112.37669824361801L43.957727272727276,109.74596055150032L44.468863636363636,108.54478778243065L44.980000000000004,109.38843085169792L45.49113636363636,110.70846544504165L46.002272727272725,112.61145206093788L46.51340909090909,111.95152707695961L47.02454545454545,108.33264793753624L47.53568181818182,110.6607160449028L48.04681818181818,108.61524083018303L48.55795454545454,111.39054547548294L49.06909090909091,113.20005889534951L49.58022727272727,111.17594220042228L50.09136363636364,109.40757386684417L50.6025,111.16263862252235L51.11363636363637,112.6974241912365L51.62477272727273,112.26937814354896L52.13590909090909,114.02411057353021L52.647045454545456,113.70985706448556L53.158181818181816,108.83075140714645L53.669318181818184,111.93089123368263L54.180454545454545,110.94946487545967L54.69159090909091,112.80336223840713L55.202727272727266,112.49080200791359L55.713863636363634,110.58116887807846L56.225,112.90333424806595L56.73613636363636,112.22335894703865L57.24727272727273,114.28082953691484L57.75840909090909,110.63405086398124L58.26954545454546,112.25495098829269L58.78068181818181,113.51070957183839L59.29181818181818,113.79649384617807L59.80295454545455,114.95101441740991L60.31409090909091,110.46844189167022L60.825227272727275,115.61437079608442L61.336363636363636,111.99079425930977L61.847500000000004,114.13233797550203L62.358636363636364,113.43497096300126L62.869772727272725,112.16210024356842L63.38090909090909,115.79771435558797L63.89204545454545,115.26825622022153L64.40318181818182,113.76809318661691L64.91431818181817,112.16722755432129L65.42545454545454,114.56953089237214L65.93659090909091,113.53267999291421L66.44772727272728,113.48937742710115L66.95886363636365,113.65106706619264L67.47,112.62637506723404L67.98113636363637,114.57318647503854L68.49227272727272,113.98387278914453L69.00340909090909,111.14919789433479L69.51454545454546,114.88388990163804L70.02568181818182,113.35897915363313L70.53681818181818,113.99338363409043L71.04795454545454,116.32601462602616L71.5590909090909,113.78316916823388L72.07022727272727,113.56017862558366L72.58136363636363,113.93788524270059L73.0925,116.05252903997899L73.60363636363637,115.91652342975141L74.11477272727272,115.91338216066362L74.62590909090909,111.7738066792488L75.13704545454546,115.57132670581342L75.64818181818183,114.0440395653248L76.1593181818182,115.15359594225885L76.67045454545455,113.78379161953927L77.1815909090909,114.34765337705613L77.69272727272727,115.34485201835633L78.20386363636364,112.16304974555969L78.715,113.47876410484315L79.22613636363636,109.10954629182815L79.73727272727272,114.10682802200319L80.24840909090909,114.47885345220567L80.75954545454546,114.86251028180124L81.27068181818181,115.77779063880445L81.78181818181818,114.60183506011964L82.29295454545455,114.63739390969278L82.80409090909092,113.27488492727281L83.31522727272728,115.06404735445977L83.82636363636362,114.47775097489358L84.33749999999999,115.46350811719896L84.84863636363636,115.05015297532083L85.35977272727273,113.54672207236291L85.8709090909091,116.2356747865677L86.38204545454545,113.47332029342653L86.89318181818182,114.95117266774179L87.40431818181818,116.76760162711145L87.91545454545455,116.834615367651L88.42659090909092,116.54619622528554L88.93772727272727,116.33107072412969L89.44886363636364,117.28610883951188L89.96000000000001,115.74568692147733L90.47113636363638,116.15879941284658L90.98227272727271,116.8171287059784L91.49340909090908,116.25195347070695L92.00454545454545,117.85499240756036L92.51568181818182,116.0254735082388L93.02681818181819,116.27615785896779L93.53795454545454,113.12260590791703L94.0490909090909,115.92047177553178L94.56022727272727,117.87433323562146L95.07136363636364,118.67015569210054L95.58250000000001,116.52416777908803L96.09363636363636,117.16032356321813L96.60477272727273,115.06874211430551L97.11590909090908,115.80271770358087L97.62704545454545,115.64578348696233L98.13818181818182,119.02860588133336L98.64931818181817,115.5147944122553L99.16045454545454,117.84914242029191L99.67159090909091,114.4435108780861L100.18272727272728,117.87757209241391L100.69386363636363,117.50575238764287L101.205,114.1505895137787L101.71613636363637,116.5212164103985L102.22727272727273,117.26286450326444L102.7384090909091,117.9014942675829L103.24954545454545,117.60991011857988L103.76068181818181,117.27561948001386L104.27181818181818,118.53982863128186L104.78295454545454,118.91270597577096L105.29409090909091,116.12062679529191L105.80522727272727,118.24481045007707L106.31636363636363,116.42986904382707L106.8275,117.03519238829614L107.33863636363637,116.4734300851822L107.84977272727272,117.43908152282239L108.36090909090909,114.95018096566201L108.87204545454546,116.82310529351236L109.38318181818182,117.19681872725488L109.89431818181819,118.12216116786004L110.40545454545453,117.46453345119954L110.9165909090909,118.46684885323049L111.42772727272727,115.54810610711576L111.93886363636364,118.32956405282022L112.45,114.98081295490266L112.96113636363636,117.71058370471002L113.47227272727272,117.23788996338845L113.98340909090909,116.09262439906598L114.49454545454546,117.74318327307702L115.00568181818183,119.45513272583486L115.51681818181818,116.86457479298116L116.02795454545455,118.88566626906396L116.53909090909092,116.36253880262376L117.05022727272728,117.19048080146314L117.56136363636362,118.06344765722753L118.07249999999999,118.47540492117406L118.58363636363636,118.5848297506571L119.09477272727273,117.98556211888791L119.6059090909091,120.30231796503068L120.11704545454545,118.29049204587938L120.62818181818182,119.83700923919679L121.13931818181818,119.0359961718321L121.65045454545455,119.27618061304094L122.16159090909092,118.37096761465074L122.67272727272727,118.71408862173558L123.18386363636364,117.78723225295545L123.69500000000001,119.7580475986004L124.20613636363636,118.14603586792947L124.71727272727273,118.64196603298188L125.22840909090908,118.29831224977971L125.73954545454545,117.99274140894414L126.25068181818182,118.22713125050069L126.76181818181819,119.89557768702508L127.27295454545454,118.05263124704362L127.7840909090909,118.88524954319001L128.29522727272726,118.79643418192865L128.80636363636364,120.5632727622986L129.3175,120.40035404562951L129.82863636363635,119.74795913994313L130.33977272727273,119.673272895813L130.85090909090908,118.08490640223027L131.36204545454547,120.05241167843343L131.87318181818182,121.61964911520482L132.38431818181817,117.32138283848764L132.89545454545456,118.78067244887353L133.4065909090909,121.38355808258058L133.9177272727273,120.28193795979024L134.42886363636364,119.58118966519834L134.94,119.50392394065858L135.45113636363635,119.78836308717729L135.96227272727273,119.05505214929582L136.4734090909091,120.68683989644052L136.98454545454544,118.93483728468419L137.49568181818182,117.58745175898076L138.00681818181818,118.77416044771672L138.51795454545456,121.02443532943727L139.0290909090909,119.3159119963646L139.54022727272726,118.7885796904564L140.05136363636365,119.24527432322503L140.5625,119.3317897796631L141.07363636363635,120.68146729767324L141.58477272727274,121.21527731716634L142.0959090909091,121.1608998656273L142.60704545454547,119.02974264621736L143.1181818181818,119.35221198499204L143.62931818181818,121.5685579955578L144.14045454545453,120.5737515717745L144.6515909090909,120.62033519446851L145.16272727272727,119.53878385126592L145.67386363636365,121.25360027253629L146.185,118.73432620167733L146.69613636363638,119.8659954249859L147.20727272727274,120.13503681421281L147.71840909090912,120.09422669112683L148.22954545454544,120.01719570457936L148.7406818181818,118.86215554475785L149.25181818181818,115.65307882726194L149.76295454545453,121.76434794366361L150.27409090909092,114.44871203899385L150.78522727272727,118.93362930715085L151.29636363636365,119.71506417095662L151.8075,119.0334773540497L152.3186363636364,117.89828178584577L152.8297727272727,120.77061498463155L153.3409090909091,119.13196708559991L153.59647727272727,122.3435177832842L153.85204545454545,119.99380366802217L154.10761363636365,119.7113057255745L154.3631818181818,120.73262171745301L154.61875,119.95064616501332L154.87431818181818,119.27604082524778L155.12988636363636,120.64223704040052L155.38545454545454,119.86048831343652L155.6410227272727,119.98519484996797L155.89659090909092,118.73139065802098L156.1521590909091,118.20846034884454L156.40772727272727,118.42467777729036L156.66329545454545,120.09220899939538L156.91886363636365,118.26183818578721L157.17443181818183,119.83523156046869L157.43,119.11900902092458L157.68556818181818,119.17103381752969L157.94113636363636,118.67845064699651L158.19670454545454,119.73461599946023L158.4522727272727,119.73178068101407L158.70784090909092,117.41648337543012L158.9634090909091,118.95576852858068L159.21897727272727,119.06697367429734L159.47454545454545,120.51341599524022L159.73011363636365,118.92356986105443L159.98568181818183,121.73995629251004L160.24124999999998,121.12862734794618L160.49681818181818,120.72657391726972L160.75238636363636,120.00992410182954L161.00795454545454,120.1488336056471L161.26352272727271,120.07612812817098L161.51909090909092,120.24920124113561L161.7746590909091,119.61450927257539L162.03022727272727,119.51246418356897L162.28579545454545,118.37044802606107L162.54136363636363,119.1554514348507L162.79693181818183,115.87575814425946L163.05249999999998,118.5652198970318L163.3080681818182,117.8498070716858L163.56363636363636,120.88338417112828L163.81920454545457,120.17200409173967L164.07477272727272,119.36791305541993L164.33034090909092,121.23256880342961L164.5859090909091,120.61529492139817L164.84147727272725,119.06684179902078L165.09704545454545,119.98775586783887L165.35261363636363,120.44551605284215L165.60818181818183,117.04147492647172L165.86374999999998,118.13197796344758L166.1193181818182,119.05367537140847L166.37488636363636,120.10622470378877L166.63045454545457,120.66798436939717L166.88602272727272,117.52926311194898L167.14159090909092,119.15507954657079L167.3971590909091,120.2791211038828L167.65272727272725,121.1173836618662L167.90829545454545,117.09631394147874L168.16386363636363,120.00158694684507L168.41943181818183,120.19538821578027L168.67499999999998,119.39484462440015L168.9305681818182,118.83191654384137L169.18613636363636,119.83122255206109L169.44170454545457,116.76516193449498L169.69727272727272,120.03944833874704L169.9528409090909,120.1442680835724L170.2084090909091,119.75511205494405L170.46397727272725,119.91591285467149L170.71954545454545,119.26676208078862L170.97511363636363,120.73701052665712L171.23068181818184,121.31319207251073L171.48624999999998,120.87719922065736L171.7418181818182,121.06545117795469L171.99738636363637,119.8581620335579L172.25295454545454,116.84540276527406L172.50852272727272,120.45811541676522L172.7640909090909,119.11392654776574L173.0196590909091,119.61492863595487L173.27522727272728,119.5031669765711L173.53079545454545,118.78085971176625L173.78636363636363,120.72508636415006L174.04193181818184,119.15225741565229L174.29749999999999,118.27673481702806L174.55306818181816,119.98620501458646L174.80863636363637,121.0115326523781L175.06420454545454,122.14188839793206L175.31977272727272,120.59617828130723L175.5753409090909,119.57987091243268L175.8309090909091,117.97711418867112L176.08647727272728,121.62515358924867L176.34204545454546,120.42820610404016L176.59761363636363,118.37033725082875L176.85318181818184,120.58733736276628L177.10875000000001,118.83955475986005L177.36431818181816,118.29944637715818L177.61988636363637,121.73758253753186L177.87545454545455,120.79638077616693L178.13102272727272,119.69663328230382L178.3865909090909,119.14250919520856L178.6421590909091,118.9648758351803L178.89772727272728,118.19357426762582L179.15329545454546,118.6187269717455L179.40886363636363,121.23187250196935L179.6644318181818,120.42375926971437L179.92000000000002,120.3610314756632L180.17556818181816,121.21335985064508L180.43113636363637,121.99268998503686L180.68670454545455,120.62529897987844L180.94227272727275,119.49436034560205L181.1978409090909,121.23273232877256L181.4534090909091,120.81761797070504L181.70897727272728,122.13156256377698L181.96454545454543,120.23448923528196L182.22011363636364,120.04738195538522L182.4756818181818,120.98024128675462L182.73125000000002,120.6491182923317L182.98681818181817,121.16697404086591L183.24238636363637,120.44255940914155L183.49795454545455,121.31560539007188L183.75352272727275,118.9209560930729L184.0090909090909,119.01662633121015L184.26465909090908,120.52360995411874L184.52022727272728,121.89497831761838L184.77579545454543,118.16232773959638L185.03136363636364,121.47799924314023L185.2869318181818,121.36735061109067L185.54250000000002,120.60712392926217L185.79806818181817,120.56942078769208L186.05363636363637,118.02077281773091L186.30920454545455,121.98120892345906L186.56477272727275,119.72080074548722L186.8203409090909,120.84573377966882L187.07590909090908,119.48695686757566L187.33147727272728,120.88490601181985L187.58704545454543,120.37697519659997L187.84261363636364,120.45234719216825L188.0981818181818,119.41826567351819L188.35375000000002,119.582761618495L188.60931818181817,119.77859112918378L188.86488636363637,119.64772865474225L189.12045454545455,121.25217074453832L189.37602272727273,120.030894908309L189.6315909090909,121.3328335762024L189.88715909090908,121.53518036305906L190.14272727272729,120.60024531483651L190.39829545454546,119.83598324954511L190.65386363636364,117.69530727267266L190.90943181818182,119.64339787065984L191.16500000000002,120.9214512884617L191.42056818181817,119.20060816705228L191.67613636363635,119.53772621154786L191.93170454545455,119.93199108839036L192.18727272727273,120.16144615709783L192.4428409090909,120.390497687459L192.69840909090908,120.6113465756178L192.9539772727273,120.76285544335843L193.20954545454546,121.47993253469468L193.46511363636364,119.38160434663297L193.72068181818182,118.3549263060093L193.97625,121.03280677199365L194.23181818181817,119.3392618328333L194.48738636363635,120.64165678918363L194.74295454545455,120.92528622150422L194.99852272727273,122.32782198786737L195.2540909090909,121.03819255828859L195.50965909090908,121.28553255200387L195.7652272727273,120.82957378327848L196.02079545454546,120.14353749454023L196.27636363636364,121.0835972160101L196.53193181818182,121.62197275757791L196.7875,120.93637693226339L197.0430681818182,120.09063968360425L197.29863636363635,122.62470752298833L197.55420454545455,120.50870277285577L197.80977272727273,120.83924287855626L198.0653409090909,122.32058203518392L198.32090909090908,121.53467659950257L198.5764772727273,117.93974337279798L198.83204545454547,119.6080157339573L199.0876136363636,121.3446258634329L199.34318181818182,119.76390286087991L199.59875,116.7886647462845L199.8543181818182,120.82769060432912L200.10988636363635,119.73491403758527L200.36545454545455,122.14976135194303L200.62102272727273,121.34326227307321L200.87659090909094,119.70350662171842L201.13215909090908,120.66336609721185L201.38772727272726,122.66879079043866L201.64329545454547,119.69216798543931L201.89886363636361,118.01228796243669L202.15443181818182,121.05212386250497L202.41,118.97701099812986L202.6655681818182,121.70813478827478L202.92113636363635,122.3168235898018L203.17670454545456,120.61010958552362L203.43227272727273,118.82028778195382L203.68784090909088,122.28429259657861L203.94340909090909,123.15317923128606L204.19897727272726,119.98462778627874L204.45454545454547,120.69454932510854L204.71011363636362,120.97107859253884L204.96568181818182,122.07830077707769L205.22125,120.65813328623773L205.4768181818182,121.68376423716546L205.73238636363635,120.23045912683011L205.98795454545456,120.56679910719396L206.24352272727273,121.42054909765722L206.4990909090909,118.49610933959485L206.7546590909091,123.33613243997098L207.01022727272726,121.36600020825864L207.26579545454547,122.1420677483082L207.52136363636362,120.77178339958192L207.77693181818182,120.5061786800623L208.0325,119.33626562654973L208.2880681818182,118.76714732050897L208.54363636363635,120.93255782425405L208.79920454545453,120.83786873817445L209.05477272727273,123.0483515739441L209.3103409090909,120.3826300084591L209.5659090909091,122.00709867775441L209.82147727272726,120.8101511925459L210.07704545454547,119.02660928964616L210.33261363636365,120.54952872097493L210.58818181818182,121.32516107261182L210.84375,119.57727033197881L211.09931818181818,121.67330652773381L211.35488636363635,119.39944443404676L211.61045454545453,119.96475681960584L211.86602272727274,118.84589532315732L212.1215909090909,121.89502315521241L212.3771590909091,121.21973470151426L212.63272727272727,119.92455332279206L212.88829545454547,120.27083669900895L213.14386363636365,121.44530736207963L213.3994318181818,121.80962072610856L213.655,121.38694200217725L213.91056818181818,122.41963619291784L214.16613636363638,120.10816063284875L214.42170454545453,121.13050788939L214.67727272727274,119.19979581534864L214.9328409090909,121.55944541394712L215.1884090909091,119.17569165229799L215.44397727272727,121.64996724128724L215.69954545454544,122.78316621780397L215.95511363636365,121.28405554890634L216.2106818181818,121.7596716463566L216.46625,120.57120374143125L216.72181818181818,121.23642219901086L216.97738636363638,122.12104155421258L217.23295454545453,120.83871010243894L217.48852272727274,121.43955232501031L217.74409090909091,118.90349053144456L217.99965909090912,117.69574509859086L218.25522727272727,118.48576504290105L218.51079545454544,121.90115535557271L218.76636363636365,119.63330413699151L219.0219318181818,121.64548348188401L219.2775,120.34957151412965L219.53306818181818,121.32839729189874L219.78863636363639,121.27179114818574L220.04420454545453,122.42232381105424L220.29977272727274,122.21385009884835L220.55534090909092,121.3727522224188L220.81090909090906,121.62261367142202L221.06647727272727,119.72084822058679L221.32204545454545,120.19133964478971L221.57761363636365,121.66197844147683L221.8331818181818,119.84557585716249L222.08875,120.05246970355512L222.34431818181818,117.92665870785714L222.5998863636364,120.6812114596367L222.85545454545453,120.62371120154859L223.1110227272727,120.5596936672926L223.36659090909092,120.08482134640218L223.6221590909091,120.95262132883073L223.87772727272727,120.35146788060666L224.13329545454545,121.67108047306539L224.38886363636365,120.61331679224969L224.6444318181818,120.78595207929612L224.9,120.52234658896924L225.15556818181818,122.79202032387258L225.41113636363636,119.64556326270105L225.66670454545454,121.95147104859353L225.9222727272727,120.49814483821393L226.17784090909092,117.79278156459333L226.4334090909091,117.48843188881875L226.68897727272727,122.9279784590006L226.94454545454545,122.38467869460584L227.20011363636365,120.70675570070745L227.45568181818183,118.63011044561864L227.71125,123.04078193306924L227.96681818181818,122.57295175194741L228.22238636363636,120.75773340761663L228.47795454545454,121.72551067471505L228.7335227272727,121.77069378197194L228.98909090909092,120.98058152496816L229.2446590909091,122.49314874708654L229.50022727272727,120.2400781095028L229.75579545454545,121.47102304100991L230.01136363636365,120.30428554415704L230.26693181818183,121.79551270902158L230.52249999999998,121.71621083021165L230.77806818181818,122.40578665137292L231.03363636363636,120.71580234467984L231.28920454545454,124.14010215103627L231.54477272727271,119.78200933635236L231.80034090909092,120.75369011163713L232.0559090909091,120.6062166273594L232.31147727272727,118.90225090384484L232.56704545454545,120.39728135168554L232.82261363636363,121.07371184527875L233.07818181818183,123.59214191436769L233.33374999999998,122.66301992833615L233.5893181818182,120.53067846894265L233.84488636363636,119.96195315122606L234.10045454545457,121.0144391834736L234.35602272727272,120.6936525732279L234.61159090909092,121.78512621223928L234.8671590909091,120.4145464628935L235.12272727272725,119.83309781849385L235.37829545454545,119.51522565186025L235.63386363636363,120.71585509479047L235.88943181818183,120.68090550899507L236.14499999999998,121.890523570776L236.4005681818182,121.63848881721498L236.65613636363636,121.89706458449365L236.91170454545457,119.8169114470482L237.16727272727272,120.7903382509947L237.42284090909092,120.98623633682729L237.6784090909091,121.01094185113908L237.93397727272725,120.58857435286046L238.18954545454545,118.07201427519323L238.44511363636363,121.57455832064153L238.70068181818183,122.40823689401151L238.95624999999998,122.20782076120378L239.2118181818182,121.0479064911604L239.46738636363636,121.65145743191243L239.72295454545457,122.49013671576978L239.97852272727272,122.56068471372129L240.2340909090909,120.56112319529058L240.4896590909091,119.14056799113752L240.74522727272725,119.12756508886815L241.00079545454545,119.95785974264146L241.25636363636363,122.6465724438429L241.51193181818184,122.50399944484235L241.76749999999998,120.83278362751008L242.0230681818182,123.21991603374482L242.27863636363637,120.36742215156556L242.53420454545454,120.19145569503308L242.78977272727272,119.45441004931928L243.0453409090909,121.33569526970388L243.3009090909091,122.71251008212568L243.55647727272728,121.66516454815866L243.81204545454545,120.97225755751134L244.06761363636363,121.76398396790029L244.32318181818184,120.72675590515138L244.57874999999999,120.2583481103182L244.83431818181816,121.73305657804013L245.08988636363637,122.13671624958516L245.34545454545454,121.06054541766645L245.60102272727272,119.59176078736783L245.8565909090909,120.86760397553445L246.1121590909091,121.09711970686914L246.36772727272728,121.9905456930399L246.62329545454546,118.39056691825391L246.87886363636363,119.65587590932847L247.13443181818184,122.09047814011575L247.39000000000001,120.75053565502168L247.64556818181816,122.58287668526174L247.90113636363637,120.62880686223508L248.15670454545455,120.9725740581751L248.41227272727272,120.3340260565281L248.6678409090909,122.68889122009278L248.9234090909091,122.35483004450799L249.17897727272728,118.23744389712812L249.43454545454546,122.64600274264814L249.69011363636363,120.86078602373601L249.9456818181818,121.89443499147893L250.20125000000002,120.51634890139104L250.45681818181816,122.64529325366021L250.71238636363637,119.22881365120412L250.96795454545455,119.77952216863633L251.22352272727275,122.15073986649514L251.4790909090909,117.5188871651888L251.7346590909091,122.5710975855589L251.99022727272728,122.27117364406587L252.24579545454543,122.67039703130723L252.50136363636364,122.28117242753507L252.7569318181818,120.15949176549913L253.01250000000002,122.27218644618989L253.26806818181817,122.46451862454416L253.52363636363637,119.64910807013513L253.77920454545455,122.01255831420423L254.03477272727275,121.0375279068947L254.2903409090909,120.90576604306699L254.54590909090908,121.30088019669057L254.80147727272728,119.50641638338567L255.05704545454543,120.13670899271966L255.31261363636364,122.69853130280973L255.5681818181818,120.31734383404256L255.82375000000002,123.92845288217069L256.07931818181817,122.139103192091L256.3348863636364,122.50356161892415L256.5904545454545,120.59737834632398L256.8460227272727,121.06092785596849L257.10159090909093,120.23471342325212L257.3571590909091,120.58875634074212L257.6127272727273,121.41027601361276L257.86829545454543,121.74404178857804L258.12386363636364,119.34273806512357L258.3794318181818,120.66624097824098" style="fill: none;" fill="none"></path></g></g></g></g></g></g><g transform="translate(48, 177)" clip-path="url(#clip_1)"><clipPath id="clip_1"><rect width="281" height="23"></rect></clipPath><g><g><line x1="0" y1="0" x2="0" y2="5" style="visibility: inherit;" fill="rgb(0, 0, 0)" stroke="rgb(204, 204, 204)" stroke-width="1px"></line><line x1="25.556818181818183" y1="0" x2="25.556818181818183" y2="5" style="visibility: inherit;" fill="rgb(0, 0, 0)" stroke="rgb(204, 204, 204)" stroke-width="1px"></line><line x1="51.11363636363637" y1="0" x2="51.11363636363637" y2="5" style="visibility: inherit;" fill="rgb(0, 0, 0)" stroke="rgb(204, 204, 204)" stroke-width="1px"></line><line x1="76.67045454545455" y1="0" x2="76.67045454545455" y2="5" style="visibility: inherit;" fill="rgb(0, 0, 0)" stroke="rgb(204, 204, 204)" stroke-width="1px"></line><line x1="102.22727272727273" y1="0" x2="102.22727272727273" y2="5" style="visibility: inherit;" fill="rgb(0, 0, 0)" stroke="rgb(204, 204, 204)" stroke-width="1px"></line><line x1="127.7840909090909" y1="0" x2="127.7840909090909" y2="5" style="visibility: inherit;" fill="rgb(0, 0, 0)" stroke="rgb(204, 204, 204)" stroke-width="1px"></line><line x1="153.3409090909091" y1="0" x2="153.3409090909091" y2="5" style="visibility: inherit;" fill="rgb(0, 0, 0)" stroke="rgb(204, 204, 204)" stroke-width="1px"></line><line x1="178.89772727272728" y1="0" x2="178.89772727272728" y2="5" style="visibility: inherit;" fill="rgb(0, 0, 0)" stroke="rgb(204, 204, 204)" stroke-width="1px"></line><line x1="204.45454545454547" y1="0" x2="204.45454545454547" y2="5" style="visibility: inherit;" fill="rgb(0, 0, 0)" stroke="rgb(204, 204, 204)" stroke-width="1px"></line><line x1="230.01136363636365" y1="0" x2="230.01136363636365" y2="5" style="visibility: inherit;" fill="rgb(0, 0, 0)" stroke="rgb(204, 204, 204)" stroke-width="1px"></line><line x1="255.5681818181818" y1="0" x2="255.5681818181818" y2="5" style="visibility: inherit;" fill="rgb(0, 0, 0)" stroke="rgb(204, 204, 204)" stroke-width="1px"></line><line x1="281.125" y1="0" x2="281.125" y2="5" style="visibility: inherit;" fill="rgb(0, 0, 0)" stroke="rgb(204, 204, 204)" stroke-width="1px"></line></g><g transform="translate(0, 8)"><text x="0" y="0" dx="0em" dy="0.95em" style="text-anchor: middle; visibility: hidden; font-family: &quot;Helvetica Neue&quot;, sans-serif; font-size: 12px; font-weight: 200;" fill="rgb(50, 49, 63)" stroke="none" stroke-width="1px">-100</text><text x="25.556818181818183" y="0" dx="0em" dy="0.95em" style="text-anchor: middle; visibility: inherit; font-family: &quot;Helvetica Neue&quot;, sans-serif; font-size: 12px; font-weight: 200;" fill="rgb(50, 49, 63)" stroke="none" stroke-width="1px">0</text><text x="51.11363636363637" y="0" dx="0em" dy="0.95em" style="text-anchor: middle; visibility: inherit; font-family: &quot;Helvetica Neue&quot;, sans-serif; font-size: 12px; font-weight: 200;" fill="rgb(50, 49, 63)" stroke="none" stroke-width="1px">100</text><text x="76.67045454545455" y="0" dx="0em" dy="0.95em" style="text-anchor: middle; visibility: inherit; font-family: &quot;Helvetica Neue&quot;, sans-serif; font-size: 12px; font-weight: 200;" fill="rgb(50, 49, 63)" stroke="none" stroke-width="1px">200</text><text x="102.22727272727273" y="0" dx="0em" dy="0.95em" style="text-anchor: middle; visibility: inherit; font-family: &quot;Helvetica Neue&quot;, sans-serif; font-size: 12px; font-weight: 200;" fill="rgb(50, 49, 63)" stroke="none" stroke-width="1px">300</text><text x="127.7840909090909" y="0" dx="0em" dy="0.95em" style="text-anchor: middle; visibility: inherit; font-family: &quot;Helvetica Neue&quot;, sans-serif; font-size: 12px; font-weight: 200;" fill="rgb(50, 49, 63)" stroke="none" stroke-width="1px">400</text><text x="153.3409090909091" y="0" dx="0em" dy="0.95em" style="text-anchor: middle; visibility: inherit; font-family: &quot;Helvetica Neue&quot;, sans-serif; font-size: 12px; font-weight: 200;" fill="rgb(50, 49, 63)" stroke="none" stroke-width="1px">500</text><text x="178.89772727272728" y="0" dx="0em" dy="0.95em" style="text-anchor: middle; visibility: inherit; font-family: &quot;Helvetica Neue&quot;, sans-serif; font-size: 12px; font-weight: 200;" fill="rgb(50, 49, 63)" stroke="none" stroke-width="1px">600</text><text x="204.45454545454547" y="0" dx="0em" dy="0.95em" style="text-anchor: middle; visibility: inherit; font-family: &quot;Helvetica Neue&quot;, sans-serif; font-size: 12px; font-weight: 200;" fill="rgb(50, 49, 63)" stroke="none" stroke-width="1px">700</text><text x="230.01136363636365" y="0" dx="0em" dy="0.95em" style="text-anchor: middle; visibility: inherit; font-family: &quot;Helvetica Neue&quot;, sans-serif; font-size: 12px; font-weight: 200;" fill="rgb(50, 49, 63)" stroke="none" stroke-width="1px">800</text><text x="255.5681818181818" y="0" dx="0em" dy="0.95em" style="text-anchor: middle; visibility: inherit; font-family: &quot;Helvetica Neue&quot;, sans-serif; font-size: 12px; font-weight: 200;" fill="rgb(50, 49, 63)" stroke="none" stroke-width="1px">900</text><text x="281.125" y="0" dx="0em" dy="0.95em" style="text-anchor: middle; visibility: hidden; font-family: &quot;Helvetica Neue&quot;, sans-serif; font-size: 12px; font-weight: 200;" fill="rgb(50, 49, 63)" stroke="none" stroke-width="1px">1k</text></g><line x1="0" y1="0" x2="281.125" y2="0" fill="rgb(0, 0, 0)" stroke="rgb(204, 204, 204)" stroke-width="1px"></line></g></g></g></g></svg>