<svg viewBox="0 0 330 200" xmlns="http://www.w3.org/2000/svg"><g><g><g><g><g><line x1="68.3125" y1="177" x2="63.3125" y2="177" style="visibility: inherit;" fill="rgb(0, 0, 0)" stroke="rgb(204, 204, 204)" stroke-width="1px"></line><line x1="68.3125" y1="159.3" x2="63.3125" y2="159.3" style="visibility: inherit;" fill="rgb(0, 0, 0)" stroke="rgb(204, 204, 204)" stroke-width="1px"></line><line x1="68.3125" y1="141.60000000000005" x2="63.3125" y2="141.60000000000005" style="visibility: inherit;" fill="rgb(0, 0, 0)" stroke="rgb(204, 204, 204)" stroke-width="1px"></line><line x1="68.3125" y1="123.89999999999999" x2="63.3125" y2="123.89999999999999" style="visibility: inherit;" fill="rgb(0, 0, 0)" stroke="rgb(204, 204, 204)" stroke-width="1px"></line><line x1="68.3125" y1="106.20000000000002" x2="63.3125" y2="106.20000000000002" style="visibility: inherit;" fill="rgb(0, 0, 0)" stroke="rgb(204, 204, 204)" stroke-width="1px"></line><line x1="68.3125" y1="88.49999999999996" x2="63.3125" y2="88.49999999999996" style="visibility: inherit;" fill="rgb(0, 0, 0)" stroke="rgb(204, 204, 204)" stroke-width="1px"></line><line x1="68.3125" y1="70.79999999999998" x2="63.3125" y2="70.79999999999998" style="visibility: inherit;" fill="rgb(0, 0, 0)" stroke="rgb(204, 204, 204)" stroke-width="1px"></line><line x1="68.3125" y1="53.10000000000001" x2="63.3125" y2="53.10000000000001" style="visibility: inherit;" fill="rgb(0, 0, 0)" stroke="rgb(204, 204, 204)" stroke-width="1px"></line><line x1="68.3125" y1="35.39999999999995" x2="63.3125" y2="35.39999999999995" style="visibility: inherit;" fill="rgb(0, 0, 0)" stroke="rgb(204, 204, 204)" stroke-width="1px"></line><line x1="68.3125" y1="17.699999999999903" x2="63.3125" y2="17.699999999999903" style="visibility: inherit;" fill="rgb(0, 0, 0)" stroke="rgb(204, 204, 204)" stroke-width="1px"></line><line x1="68.3125" y1="0" x2="63.3125" y2="0" style="visibility: inherit;" fill="rgb(0, 0, 0)" stroke="rgb(204, 204, 204)" stroke-width="1px"></line></g><g transform="translate(58.3125, 0)"><text x="0" y="177" dx="0em" dy="0.3em" style="text-anchor: end; visibility: hidden; font-family: &quot;Helvetica Neue&quot;, sans-serif; font-size: 12px; font-weight: 200;" fill="rgb(50, 49, 63)" stroke="none" stroke-width="1px">6.4e-3</text><text x="0" y="159.3" dx="0em" dy="0.3em" style="text-anchor: end; visibility: inherit; font-family: &quot;Helvetica Neue&quot;, sans-serif; font-size: 12px; font-weight: 200;" fill="rgb(50, 49, 63)" stroke="none" stroke-width="1px">6.6e-3</text><text x="0" y="141.60000000000005" dx="0em" dy="0.3em" style="text-anchor: end; visibility: hidden; font-family: &quot;Helvetica Neue&quot;, sans-serif; font-size: 12px; font-weight: 200;" fill="rgb(50, 49, 63)" stroke="none" stroke-width="1px">6.8e-3</text><text x="0" y="123.89999999999999" dx="0em" dy="0.3em" style="text-anchor: end; visibility: inherit; font-family: &quot;Helvetica Neue&quot;, sans-serif; font-size: 12px; font-weight: 200;" fill="rgb(50, 49, 63)" stroke="none" stroke-width="1px">7e-3</text><text x="0" y="106.20000000000002" dx="0em" dy="0.3em" style="text-anchor: end; visibility: hidden; font-family: &quot;Helvetica Neue&quot;, sans-serif; font-size: 12px; font-weight: 200;" fill="rgb(50, 49, 63)" stroke="none" stroke-width="1px">7.2e-3</text><text x="0" y="88.49999999999996" dx="0em" dy="0.3em" style="text-anchor: end; visibility: inherit; font-family: &quot;Helvetica Neue&quot;, sans-serif; font-size: 12px; font-weight: 200;" fill="rgb(50, 49, 63)" stroke="none" stroke-width="1px">7.4e-3</text><text x="0" y="70.79999999999998" dx="0em" dy="0.3em" style="text-anchor: end; visibility: hidden; font-family: &quot;Helvetica Neue&quot;, sans-serif; font-size: 12px; font-weight: 200;" fill="rgb(50, 49, 63)" stroke="none" stroke-width="1px">7.6e-3</text><text x="0" y="53.10000000000001" dx="0em" dy="0.3em" style="text-anchor: end; visibility: inherit; font-family: &quot;Helvetica Neue&quot;, sans-serif; font-size: 12px; font-weight: 200;" fill="rgb(50, 49, 63)" stroke="none" stroke-width="1px">7.8e-3</text><text x="0" y="35.39999999999995" dx="0em" dy="0.3em" style="text-anchor: end; visibility: hidden; font-family: &quot;Helvetica Neue&quot;, sans-serif; font-size: 12px; font-weight: 200;" fill="rgb(50, 49, 63)" stroke="none" stroke-width="1px">8e-3</text><text x="0" y="17.699999999999903" dx="0em" dy="0.3em" style="text-anchor: end; visibility: inherit; font-family: &quot;Helvetica Neue&quot;, sans-serif; font-size: 12px; font-weight: 200;" fill="rgb(50, 49, 63)" stroke="none" stroke-width="1px">8.2e-3</text><text x="0" y="0" dx="0em" dy="0.3em" style="text-anchor: end; visibility: hidden; font-family: &quot;Helvetica Neue&quot;, sans-serif; font-size: 12px; font-weight: 200;" fill="rgb(50, 49, 63)" stroke="none" stroke-width="1px">8.4e-3</text></g><line x1="68.3125" y1="0" x2="68.3125" y2="177" fill="rgb(0, 0, 0)" stroke="rgb(204, 204, 204)" stroke-width="1px"></line></g></g><g transform="translate(68, 0)" clip-path="url(#clip_0)"><clipPath id="clip_0"><rect width="261" height="177"></rect></clipPath><g><g><g><line x1="0" y1="0" x2="0" y2="177" fill="rgb(0, 0, 0)" stroke="rgb(60, 60, 60)" stroke-width="1px" opacity="0.25"></line><line x1="23.789772727272727" y1="0" x2="23.789772727272727" y2="177" fill="rgb(0, 0, 0)" stroke="rgb(60, 60, 60)" stroke-width="1px" opacity="0.25"></line><line x1="47.57954545454545" y1="0" x2="47.57954545454545" y2="177" fill="rgb(0, 0, 0)" stroke="rgb(60, 60, 60)" stroke-width="1px" opacity="0.25"></line><line x1="71.36931818181817" y1="0" x2="71.36931818181817" y2="177" fill="rgb(0, 0, 0)" stroke="rgb(60, 60, 60)" stroke-width="1px" opacity="0.25"></line><line x1="95.1590909090909" y1="0" x2="95.1590909090909" y2="177" fill="rgb(0, 0, 0)" stroke="rgb(60, 60, 60)" stroke-width="1px" opacity="0.25"></line><line x1="118.94886363636363" y1="0" x2="118.94886363636363" y2="177" fill="rgb(0, 0, 0)" stroke="rgb(60, 60, 60)" stroke-width="1px" opacity="0.25"></line><line x1="142.73863636363635" y1="0" x2="142.73863636363635" y2="177" fill="rgb(0, 0, 0)" stroke="rgb(60, 60, 60)" stroke-width="1px" opacity="0.25"></line><line x1="166.5284090909091" y1="0" x2="166.5284090909091" y2="177" fill="rgb(0, 0, 0)" stroke="rgb(60, 60, 60)" stroke-width="1px" opacity="0.25"></line><line x1="190.3181818181818" y1="0" x2="190.3181818181818" y2="177" fill="rgb(0, 0, 0)" stroke="rgb(60, 60, 60)" stroke-width="1px" opacity="0.25"></line><line x1="214.10795454545456" y1="0" x2="214.10795454545456" y2="177" fill="rgb(0, 0, 0)" stroke="rgb(60, 60, 60)" stroke-width="1px" opacity="0.25"></line><line x1="237.89772727272725" y1="0" x2="237.89772727272725" y2="177" fill="rgb(0, 0, 0)" stroke="rgb(60, 60, 60)" stroke-width="1px" opacity="0.25"></line><line x1="261.6875" y1="0" x2="261.6875" y2="177" fill="rgb(0, 0, 0)" stroke="rgb(60, 60, 60)" stroke-width="1px" opacity="0.25"></line></g><g><line x1="0" y1="177" x2="261.6875" y2="177" fill="rgb(0, 0, 0)" stroke="rgb(60, 60, 60)" stroke-width="1px" opacity="0.25"></line><line x1="0" y1="159.3" x2="261.6875" y2="159.3" fill="rgb(0, 0, 0)" stroke="rgb(60, 60, 60)" stroke-width="1px" opacity="0.25"></line><line x1="0" y1="141.60000000000005" x2="261.6875" y2="141.60000000000005" fill="rgb(0, 0, 0)" stroke="rgb(60, 60, 60)" stroke-width="1px" opacity="0.25"></line><line x1="0" y1="123.89999999999999" x2="261.6875" y2="123.89999999999999" fill="rgb(0, 0, 0)" stroke="rgb(60, 60, 60)" stroke-width="1px" opacity="0.25"></line><line x1="0" y1="106.20000000000002" x2="261.6875" y2="106.20000000000002" fill="rgb(0, 0, 0)" stroke="rgb(60, 60, 60)" stroke-width="1px" opacity="0.25"></line><line x1="0" y1="88.49999999999996" x2="261.6875" y2="88.49999999999996" fill="rgb(0, 0, 0)" stroke="rgb(60, 60, 60)" stroke-width="1px" opacity="0.25"></line><line x1="0" y1="70.79999999999998" x2="261.6875" y2="70.79999999999998" fill="rgb(0, 0, 0)" stroke="rgb(60, 60, 60)" stroke-width="1px" opacity="0.25"></line><line x1="0" y1="53.10000000000001" x2="261.6875" y2="53.10000000000001" fill="rgb(0, 0, 0)" stroke="rgb(60, 60, 60)" stroke-width="1px" opacity="0.25"></line><line x1="0" y1="35.39999999999995" x2="261.6875" y2="35.39999999999995" fill="rgb(0, 0, 0)" stroke="rgb(60, 60, 60)" stroke-width="1px" opacity="0.25"></line><line x1="0" y1="17.699999999999903" x2="261.6875" y2="17.699999999999903" fill="rgb(0, 0, 0)" stroke="rgb(60, 60, 60)" stroke-width="1px" opacity="0.25"></line><line x1="0" y1="0" x2="261.6875" y2="0" fill="rgb(0, 0, 0)" stroke="rgb(60, 60, 60)" stroke-width="1px" opacity="0.25"></line></g></g></g><g><g><line x1="0" y1="743.4000000000003" x2="261.6875" y2="743.4000000000003" fill="rgb(0, 0, 0)" stroke="rgb(153, 153, 153)" stroke-width="1.5px"></line></g></g><g><g><line x1="23.789772727272727" y1="0" x2="23.789772727272727" y2="177" fill="rgb(0, 0, 0)" stroke="rgb(153, 153, 153)" stroke-width="1.5px"></line></g></g><g><g><g><g><g><path stroke="rgb(0, 119, 187)" stroke-width="2px" d="M23.789772727272727,38.98532545343039L24.027670454545454,-144.94738684818157L29.737215909090907,-10.41787307560449L29.975113636363638,13.54065021648998L30.21301136363636,26.86821293234823L30.45090909090909,-12.250280043482832L30.68880681818182,0.41955473050470005L30.926704545454545,5.229623021185347L31.164602272727272,36.957330965995766L31.4025,0.12563770785922657L31.640397727272727,-32.003548032045416L31.87829545454545,27.66185483112929L32.11619318181818,-14.01229858249431L32.354090909090914,2.714431808888861L32.59198863636364,9.399519266188094L32.82988636363636,12.632111983001181L33.06778409090909,17.524272633343884L33.30568181818182,14.912317936867424L33.54357954545454,30.38384296149013L33.78147727272727,66.60726150646803L34.019375000000004,35.02156675010917L34.25727272727273,17.39165555834765L34.49517045454545,18.432481178641268L34.73306818181818,52.976138388365484L34.97096590909091,50.31703828051684L35.20886363636364,29.36428222954271L35.44676136363637,29.936208819597937L35.684659090909086,24.760681168735005L35.92255681818182,46.10436499267814L36.16045454545455,36.31081242263315L36.39835227272727,53.86971702016888L36.636250000000004,22.389810962229944L36.87414772727273,65.75497632063923L37.11204545454545,24.69119938239453L37.34994318181818,38.20025544762609L37.587840909090914,43.085080535709835L37.82573863636363,39.0437626853585L38.06363636363636,30.691359622031428L38.301534090909094,48.14834935739634L38.53943181818182,48.73288652077315L38.77732954545455,8.107636088132807L39.01522727272727,41.072169283032395L39.253125,64.70269403569398L39.49102272727273,73.54089264906942L39.72892045454546,59.50833294689653L39.966818181818184,44.24772594273088L40.20471590909091,36.9758759267628L40.44261363636364,53.02373712100086L40.68051136363636,45.07441908270118L40.918409090909094,51.983612088114L41.156306818181825,55.314204619824864L41.39420454545454,39.06057678312061L41.63210227272727,60.97841259241102L41.87,36.99903652220962L42.10789772727273,60.120193019136764L42.34579545454545,47.750580554455496L42.58369318181818,69.24299496375023L42.82159090909091,49.90534015148876L43.05948863636364,71.02017915956675L43.29738636363636,69.28634896092116L43.53528409090909,54.784436907246686L43.77318181818182,40.891170465946175L44.01107954545454,72.83820348009466L44.248977272727274,60.79601260051129L44.486875000000005,81.74217488765716L44.72477272727272,63.99085601940749L44.96267045454545,86.8720819350332L45.200568181818184,73.73808739855885L45.43846590909091,74.05483532845973L45.67636363636364,52.7543406575918L45.91426136363636,41.16868550106881L46.15215909090909,51.837395375221945L46.39005681818182,77.88861446231603L46.62795454545455,92.78141307793557L46.86585227272727,56.47573732919989L47.10375,72.24398172609507L47.34164772727273,78.3368255585432L47.57954545454545,37.624290177226044L47.817443181818184,61.95128123424945L48.05534090909091,68.44976517520844L48.29323863636363,68.09943026080725L48.531136363636364,94.85408031530677L48.769034090909095,28.80133964270351L49.00693181818182,55.931628180295206L49.24482954545454,80.43409577719866L49.482727272727274,75.86111450716852L49.720625,82.4853744931519L49.95852272727273,57.83932768888769L50.19642045454545,75.52957181967794L50.43431818181818,88.21234685517847L50.67221590909091,77.45532175675034L50.91011363636364,51.56218815743921L51.148011363636364,51.191288942098595L51.38590909090909,87.05394618362187L51.62380681818182,83.6542839758098L51.86170454545454,77.52929554469883L52.099602272727275,82.88594564571976L52.337500000000006,28.31101088002322L52.57539772727272,57.47160172238944L52.813295454545454,40.194456895440794L53.051193181818185,90.36199628524481L53.28909090909091,71.82099177651106L53.52698863636364,61.065656330063916L53.764886363636364,55.48729092031715L54.00278409090909,70.63992504179477L54.24068181818182,67.0771908123046L54.47857954545455,77.83038328550755L54.71647727272727,66.36914421021936L54.954375,59.28113657198844L55.19227272727273,76.79957194402813L55.430170454545454,66.12723549976943L55.668068181818185,66.4675561353564L55.90596590909091,53.59125413149593L56.14386363636363,77.63092192970215L56.381761363636365,73.89135119654237L56.619659090909096,73.52271858751773L56.85755681818182,63.46265432573853L57.095454545454544,67.80802711062131L57.33335227272727,58.913163339346625L57.57125,65.61168559044597L57.80914772727273,74.60112866163253L58.047045454545454,93.92192816510796L58.28494318181818,71.66352445408701L58.52284090909091,67.4741353947669L58.760738636363634,54.41580429822204L58.998636363636365,68.47593417540192L59.23653409090909,86.04159738086163L59.47443181818181,69.57902965284883L59.712329545454544,85.78514117896556L59.950227272727275,51.297201273590304L60.188125,59.65207699835298L60.42602272727272,74.50420033335685L60.663920454545455,68.97285670191049L60.90181818181818,88.28763939589261L61.13971590909091,69.94906343668698L61.37761363636364,65.96548223085699L61.61551136363636,65.86505096554754L61.85340909090909,72.42456843294202L62.09130681818182,85.85969192124902L62.329204545454544,80.08380207382142L62.567102272727276,87.43547784313559L62.805,72.24888583794235L63.042897727272724,80.02437577731907L63.280795454545455,70.74975242055952L63.518693181818186,67.84627094082532L63.7565909090909,80.45676184035837L63.994488636363634,82.32077766358852L64.23238636363637,89.63680589720606L64.47028409090909,69.368564953655L64.70818181818183,103.17701749652623L64.94607954545454,75.23141006156801L65.18397727272728,71.85066371373831L65.421875,68.59532251171767L65.65977272727272,73.67070737443863L65.89767045454546,83.37833495959639L66.13556818181819,73.54097507111727L66.37346590909091,102.91771773397922L66.61136363636363,68.52905518524348L66.84926136363636,67.39838953278957L67.08715909090908,60.15040069967506L67.32505681818182,77.749692100659L67.56295454545455,72.12496428899466L67.80085227272727,132.54572400972248L68.03875000000001,87.57806798592209L68.27664772727273,97.8809476006776L68.51454545454546,78.47558307610451L68.7524431818182,81.35025805011391L68.9903409090909,97.00443033277988L69.22823863636363,52.11388013474641L69.46613636363637,80.0863983683288L69.70403409090909,63.416085868701316L69.94193181818181,61.994882497563935L70.17982954545455,89.99624844789504L70.41772727272728,74.20743975006043L70.655625,91.14925047531723L70.89352272727274,70.29165067858993L71.13142045454545,76.54266242086887L71.36931818181817,86.11730203181504L71.60721590909091,81.1242567948997L71.84511363636364,79.79923995360731L72.08301136363636,91.94816738516091L72.3209090909091,66.10766026340423L72.55880681818182,98.60927002653479L72.79670454545455,98.69296961612999L73.03460227272728,76.97080374844371L73.27250000000001,108.38036258853973L73.51039772727272,93.54130314812063L73.74829545454546,70.69770289734005L73.98619318181818,97.30984523110091L74.2240909090909,90.97459815591573L74.46198863636364,104.27067564949394L74.69988636363637,66.46450651958583L74.93778409090909,72.81743312403559L75.17568181818183,81.68963083215057L75.41357954545455,103.29970271475612L75.65147727272726,93.70272672884165L75.889375,89.32838259413838L76.12727272727273,60.86743130497632L76.36517045454545,73.12462009638547L76.60306818181819,90.65578967481851L76.84096590909091,90.17362069487571L77.07886363636364,89.61030720882117L77.31676136363637,90.41907355338334L77.5546590909091,89.66742568798362L77.79255681818182,94.22573583349585L78.03045454545455,98.67393012307583L78.26835227272727,76.11744707599281L78.50625,87.87936178185045L78.74414772727273,89.68996811807155L78.98204545454546,79.00098242014646L79.21994318181818,83.57569455318152L79.45784090909092,99.29193063788115L79.69573863636364,90.99062924422323L79.93363636363637,88.69752423986792L80.17153409090909,101.52437301501631L80.40943181818182,92.2881995435804L80.64732954545454,85.2503045104444L80.88522727272728,77.1986182887107L81.123125,79.96243560835718L81.36102272727273,98.9582861881703L81.59892045454546,82.51657123826443L81.83681818181819,78.78528392091393L82.07471590909091,76.05472389757632L82.31261363636365,112.61141599304975L82.55051136363636,105.16994140259922L82.78840909090908,68.2057134915143L83.02630681818181,72.52116707302629L83.26420454545455,93.73297562040388L83.50210227272727,76.05913347713648L83.74,90.92996661700307L83.97789772727273,85.24511192142963L84.21579545454546,109.85476939156652L84.45369318181818,83.03665436021983L84.6915909090909,103.27291554920374L84.92948863636363,99.82656125128268L85.16738636363635,86.20450455844401L85.40528409090909,74.27304770015179L85.64318181818182,102.38428224027156L85.88107954545454,92.09908215478062L86.11897727272728,84.6001181859523L86.356875,79.28756388053297L86.59477272727273,84.26589678190648L86.83267045454546,116.6834360562265L87.07056818181817,81.7706104941666L87.3084659090909,81.12240229882299L87.54636363636364,92.41298652403056L87.78426136363636,110.92650327980519L88.02215909090908,81.33290820904075L88.26005681818182,121.23041317015887L88.49795454545455,89.69330621100961L88.73585227272727,100.95269369110464L88.97375000000001,107.57493433691562L89.21164772727272,69.68955761902033L89.44954545454544,93.5631449908018L89.68744318181818,78.07451739124953L89.9253409090909,69.64801690690219L90.16323863636363,96.685992750898L90.40113636363637,90.07516755871474L90.63903409090909,108.19528388008476L90.87693181818182,87.55725641883909L91.11482954545455,103.1080714534968L91.35272727272728,90.48752506412565L91.59062499999999,96.19681789688765L91.82852272727273,85.44939496703445L92.06642045454545,75.28762189820408L92.30431818181818,100.83767372332512L92.54221590909091,86.91234510540961L92.78011363636364,90.77299382686614L93.01801136363636,118.04216351509095L93.2559090909091,115.27640927731991L93.49380681818182,99.88120706900953L93.73170454545453,100.36613718755542L93.96960227272727,126.47859585620463L94.2075,84.99516706131398L94.44539772727272,84.12421328164636L94.68329545454546,93.40893333926796L94.92119318181818,98.41265223138033L95.1590909090909,78.16336835883557L95.39698863636364,91.03773344457149L95.63488636363637,82.29576257206499L95.8727840909091,102.71594856083392L96.11068181818182,90.47330726087093L96.34857954545454,114.76568105779589L96.58647727272727,91.77718284688889L96.824375,84.18714251518249L97.06227272727273,97.57483211494981L97.30017045454545,112.35578401163221L97.53806818181819,108.9022589955479L97.77596590909091,118.9732853896916L98.01386363636364,107.39438884109259L98.25176136363636,74.5471422202885L98.48965909090909,103.10840114168822L98.72755681818181,113.8426777549088L98.96545454545455,131.77915775366128L99.20335227272727,103.18674329817294L99.44125,101.05547398477792L99.67914772727273,111.17418153360487L99.91704545454546,95.42007251791655L100.15494318181818,87.59323364272713L100.3928409090909,90.30599050372838L100.63073863636363,89.81978284344076L100.86863636363636,97.49512999467551L101.1065340909091,88.663731200248L101.34443181818182,112.00297643579543L101.58232954545454,75.23676749467849L101.82022727272728,105.89183490872384L102.058125,88.14265901371836L102.29602272727273,125.7614416178316L102.53392045454547,95.7393755313009L102.77181818181818,113.30693444386125L103.0097159090909,95.06759463027119L103.24761363636364,112.74873112477363L103.48551136363636,102.95373616889118L103.72340909090909,109.86828660741449L103.96130681818182,109.84817562773824L104.19920454545455,122.70444907397032L104.43710227272727,107.06115650162101L104.67500000000001,112.2860961701721L104.91289772727272,105.12976065427065L105.15079545454545,81.77642124854027L105.38869318181818,90.5794668585062L105.62659090909091,102.93144100494682L105.86448863636363,100.05717814117669L106.10238636363637,129.64075893312693L106.3402840909091,105.80908317267895L106.57818181818182,93.1853223234415L106.81607954545456,83.45119604989885L107.05397727272728,111.2867700509727L107.29187499999999,84.01813610605895L107.52977272727273,84.99916453063487L107.76767045454545,104.99640178084374L108.00556818181818,117.69801025427878L108.24346590909092,108.02289816699923L108.48136363636364,87.65331931561231L108.71926136363636,88.1752569336444L108.9571590909091,112.4089462324977L109.19505681818183,126.07522235400975L109.43295454545454,96.81630200855433L109.67085227272727,124.25864041931928L109.90875,84.32037775553762L110.14664772727272,102.43093311935662L110.38454545454546,103.69895511455833L110.62244318181818,105.31030615009368L110.86034090909091,71.90102358497678L111.09823863636365,125.1260500509292L111.33613636363637,94.48210961334406L111.5740340909091,93.83517895974218L111.81193181818182,100.69244607500731L112.04982954545454,102.5793340165168L112.28772727272727,105.27206231988967L112.525625,106.75417558439077L112.76352272727273,97.09336372241377L113.00142045454545,98.32680966854095L113.23931818181819,105.82429004050792L113.47721590909092,133.6674880810082L113.71511363636364,104.1918389607221L113.95301136363635,100.40920270755886L114.19090909090909,108.22297768816352L114.42880681818181,96.48096790686249L114.66670454545454,97.10366647839545L114.90460227272727,113.68483953326941L115.1425,96.65698019005357L115.38039772727272,124.33063607811928L115.61829545454546,70.43729043714701L115.85619318181818,111.87237870097161L116.09409090909091,106.88613328300417L116.33198863636363,116.09045063294471L116.56988636363636,103.71762370839714L116.80778409090908,85.99989182464778L117.04568181818182,83.80342667140066L117.28357954545454,86.83297267332672L117.52147727272727,96.48286361396312L117.759375,104.32235427349806L117.99727272727273,95.61458855085074L118.23517045454545,88.90444479100405L118.47306818181818,98.2640040680766L118.7109659090909,91.98921356499194L118.94886363636363,98.95449477396905L119.18676136363636,143.09718852080405L119.42465909090909,110.97187661714852L119.66255681818181,117.04634033292533L119.90045454545455,100.9640267226845L120.13835227272727,90.05493294596671L120.37625,101.73640373311936L120.61414772727274,103.48391599170863L120.85204545454545,98.2954480793327L121.08994318181817,101.10624596625566L121.32784090909091,104.41623298600317L121.56573863636363,130.3208232499659L121.80363636363636,99.61086275205015L122.0415340909091,104.47145575806499L122.27943181818182,99.14039770290255L122.51732954545454,112.68291711956263L122.75522727272728,110.55803551487625L122.99312499999999,154.0301022693515L123.23102272727272,98.7455548826605L123.46892045454545,95.93273765556513L123.70681818181818,130.64136259406806L123.9447159090909,109.91555565185845L124.18261363636364,98.18174686431884L124.42051136363636,101.43276090882718L124.65840909090909,107.51159299314023L124.89630681818183,107.0648242827505L125.13420454545455,95.09050795957445L125.37210227272726,102.43509543277322L125.61,107.72106862775982L125.84789772727272,96.14052363820373L126.08579545454545,128.13907043226064L126.32369318181819,122.94062945209444L126.56159090909091,103.27827298231422L126.79948863636363,94.69813780076801L127.03738636363637,109.65963519327343L127.2752840909091,93.11670596860348L127.5131818181818,122.56218861937523L127.75107954545454,104.64359420500696L127.98897727272727,114.50258988104761L128.226875,111.3098894353956L128.46477272727273,144.64033531174064L128.70267045454545,124.66428052783013L128.94056818181818,103.00475541651248L129.1784659090909,115.56266104951501L129.41636363636366,108.66896338909865L129.65426136363638,114.08211380392314L129.89215909090908,125.1984990309924L130.13005681818183,83.4913355872035L130.36795454545455,112.73340062387288L130.60585227272728,115.93079912625254L130.84375,96.4177914071828L131.08164772727272,84.08613429553806L131.31954545454545,89.18220709227025L131.55744318181817,118.76702421493829L131.79534090909092,105.8048384372145L132.03323863636362,109.63577401041985L132.27113636363637,87.53941204547881L132.5090340909091,122.47259585335851L132.74693181818182,118.11143924631179L132.98482954545455,103.59992502406239L133.22272727272727,129.25790852084756L133.460625,119.38976399749518L133.69852272727272,112.2896403182298L133.93642045454547,110.9416277255863L134.17431818181817,112.48362060785294L134.41221590909092,106.1945298794657L134.65011363636364,150.22508843019605L134.88801136363637,113.44202418029309L135.1259090909091,108.2853711783886L135.3638068181818,96.36961572021245L135.60170454545454,109.0467036344111L135.83960227272726,110.2385676573962L136.07750000000001,104.32997831292451L136.3153977272727,140.77218618392945L136.55329545454546,130.56660579666496L136.7911931818182,101.46317464448511L137.0290909090909,94.65317657366394L137.26698863636364,105.18156291134656L137.5048863636364,112.01781240440906L137.74278409090908,111.06855767928064L137.9806818181818,112.46841374002398L138.21857954545456,81.607826949656L138.45647727272726,104.01240616254508L138.694375,101.44013768211006L138.93227272727273,125.21663188152016L139.17017045454546,119.09864932447672L139.40806818181818,120.77189931795002L139.64596590909093,118.89877585843206L139.88386363636363,118.95148475803435L140.12176136363635,119.2945253212005L140.3596590909091,143.60766947418452L140.5975568181818,95.57671561986207L140.83545454545455,128.98570970781148L141.07335227272728,126.32088126763702L141.31125,118.80922430343927L141.54914772727273,112.62208964824677L141.78704545454548,123.76501477472485L142.02494318181817,132.55433711372316L142.2628409090909,98.08902206048369L142.50073863636365,126.69252228140832L142.73863636363635,110.96062600761653L142.9765340909091,110.60192525535822L143.21443181818182,101.46358675472437L143.45232954545455,131.5266990210861L143.69022727272727,112.88868376202882L143.92812500000002,120.4948788151145L144.16602272727272,125.79523465745152L144.40392045454544,124.91694531552494L144.6418181818182,129.3857451170683L144.8797159090909,110.4375756919384L145.11761363636364,110.22463833130897L145.35551136363637,97.09810299016534L145.5934090909091,88.24865376725792L145.83130681818182,127.87082787752152L146.06920454545457,106.61883858181537L146.30710227272726,125.00670292563737L146.54500000000002,125.41650534756482L146.78289772727274,118.31877190768719L147.02079545454544,120.959780376032L147.2586931818182,118.35141103863717L147.4965909090909,112.56014947928489L147.73448863636364,107.05645844489337L147.97238636363636,113.27363593652845L148.2102840909091,129.87937076166273L148.4481818181818,89.95182296410202L148.68607954545456,143.50596066713334L148.92397727272729,108.39981419183314L149.16187499999998,132.37873694077135L149.39977272727273,113.9120359081775L149.63767045454546,118.06862099245191L149.87556818181818,123.8108826443553L150.1134659090909,119.50086891800166L150.35136363636366,117.17125094644726L150.58926136363635,126.63754677549005L150.8271590909091,115.18516807034612L151.06505681818183,117.61546457335353L151.30295454545453,110.86398615650833L151.54085227272728,104.468076454103L151.77875,117.04580458961428L152.01664772727273,125.77780239433051L152.25454545454545,112.26602640151978L152.4924431818182,100.95149857141077L152.7303409090909,116.14064566008747L152.96823863636365,94.64955000355839L153.20613636363638,120.38513385839761L153.44403409090907,121.50673308558763L153.68193181818182,133.85668789185584L153.91982954545455,143.1111178468913L154.15772727272727,104.05320507623254L154.395625,136.4516636464745L154.63352272727275,123.89598340876401L154.87142045454544,128.4647199433297L155.1093181818182,126.72668622024358L155.34721590909092,110.97744010537863L155.58511363636364,147.43539058752359L155.82301136363637,112.84619519636036L156.0609090909091,116.13916206322611L156.29880681818182,123.94708507843316L156.53670454545454,124.45632970109583L156.7746022727273,115.22477186433971L157.0125,133.19529216885567L157.25039772727274,122.24577037766576L157.48829545454547,115.69317636229098L157.7261931818182,119.5417914647609L157.9640909090909,112.72083126157523L158.20198863636364,133.9776422470808L158.43988636363636,80.54136807247995L158.67778409090909,122.71660632602871L158.91568181818184,109.65522561371327L159.15357954545453,100.051944341138L159.3914772727273,110.66654414087535L159.629375,120.52574587203563L159.86727272727273,107.5762943007052L160.10517045454546,109.81421774402261L160.34306818181818,123.96464097462595L160.5809659090909,125.13841335810721L160.81886363636363,99.65063139013945L161.05676136363638,129.69833073355258L161.29465909090908,139.00241997241974L161.53255681818183,107.20840349011124L161.77045454545456,107.70590297095478L162.00835227272728,118.4989877153188L162.24625,105.74182678163052L162.4841477272727,111.08504208885134L162.72204545454545,124.54963145926595L162.95994318181818,144.96478970311583L163.19784090909093,122.28125306926668L163.43573863636362,122.29242125675083L163.67363636363638,123.46689422763885L163.91153409090907,121.51427470296622L164.14943181818182,137.49718732349575L164.38732954545455,134.1424039207399L164.6252272727273,125.20892542004586L164.863125,98.72297124154865L165.10102272727272,129.9003059618175L165.33892045454544,137.31025411896408L165.57681818181817,125.6868496645242L165.81471590909092,116.9428594518453L166.05261363636362,92.3729706197977L166.29051136363637,92.83206142634153L166.5284090909091,134.92524853125215L166.76630681818182,118.22291506603361L167.00420454545454,119.43142834268511L167.24210227272727,106.05527782961727L167.48,125.5690685581416L167.7178977272727,110.74220758080483L167.95579545454547,118.56179331578315L168.19369318181816,114.67485196106136L168.43159090909091,131.3811828956008L168.66948863636364,136.1392428740859L168.90738636363636,102.54661246351897L169.1452840909091,110.37757244110108L169.3831818181818,124.46836332008243L169.62107954545453,100.91168872229754L169.85897727272726,129.64376733787358L170.096875,148.14244812503458L170.3347727272727,105.58077410012484L170.57267045454546,135.08189163319767L170.81056818181818,131.3572805017233L171.0484659090909,121.88336063325406L171.28636363636363,132.38640219122172L171.52426136363636,119.94232140630484L171.76215909090908,115.76245209351183L172.0000568181818,104.29593800716103L172.23795454545456,127.68879878483713L172.47585227272725,117.33481750041247L172.71375,137.53468935526908L172.95164772727273,145.5324715577066L173.18954545454545,116.90107147358358L173.42744318181818,120.73769416809083L173.66534090909093,104.4306156333536L173.90323863636362,111.1914901636541L174.14113636363635,124.59071885012091L174.3790340909091,126.14664105847478L174.6169318181818,118.19093531146646L174.85482954545455,120.52141871452332L175.09272727272727,133.5654495857656L175.330625,104.78317594304681L175.56852272727272,122.92018878422678L175.80642045454547,122.58328866362572L176.04431818181817,135.91142833381892L176.2822159090909,115.23952541090549L176.52011363636365,139.88511889390648L176.75801136363634,127.00589090734721L176.9959090909091,126.8210594650358L177.23380681818182,108.4361211039126L177.47170454545454,126.37758763656021L177.70960227272727,136.75386408492923L177.94750000000002,110.55539800934494L178.18539772727271,130.71298735365272L178.42329545454544,146.68143490478397L178.6611931818182,99.23159769885241L178.8990909090909,131.08017757683993L179.13698863636364,98.41520731486379L179.37488636363636,131.8337623603642L179.6127840909091,118.50516936890781L179.8506818181818,93.49770188480615L180.08857954545456,143.09706488773227L180.32647727272726,113.44981306381524L180.56437499999998,122.23270648308099L180.80227272727274,123.16077874191106L181.04017045454543,149.51934964545072L181.27806818181818,133.1659087087959L181.5159659090909,121.73285797387362L181.75386363636363,103.27415187992155L181.99176136363636,136.00596642270685L182.2296590909091,131.55987389534712L182.4675568181818,104.63481625691057L182.70545454545456,129.02514865770937L182.94335227272728,138.70895627103747L183.18124999999998,138.7338477294892L183.41914772727273,136.14286944419146L183.65704545454545,139.61164253912867L183.89494318181818,154.55232836455107L184.1328409090909,99.41844848133623L184.37073863636365,105.26884786002339L184.60863636363635,97.9267330482602L184.8465340909091,108.89137928523124L185.08443181818183,137.68832405246795L185.32232954545452,155.2987012188882L185.56022727272727,144.95592933297158L185.798125,108.90506134517491L186.03602272727272,137.46652632169426L186.27392045454545,106.7093792013824L186.5118181818182,127.25262130759657L186.7497159090909,129.70912802182139L186.98761363636365,121.14712569080294L187.22551136363637,137.68436779417098L187.46340909090907,123.85345363207162L187.70130681818182,117.80396379679442L187.93920454545454,109.17882617712021L188.17710227272727,114.29533964172006L188.415,123.58867280334235L188.65289772727274,110.50178246721626L188.89079545454544,143.6527955453843L189.1286931818182,119.73845047093928L189.36659090909092,102.7225423246622L189.6044886363636,139.63047597706318L189.84238636363636,95.89618347734212L190.0802840909091,127.33796933814884L190.3181818181818,136.91883181370795L190.55607954545454,146.3402076266706L190.7939772727273,120.05828922763467L191.03187499999999,135.85294989086688L191.26977272727274,128.663109812513L191.50767045454546,104.5855278722942L191.7455681818182,121.92440681308508L191.9834659090909,126.42160101011396L192.22136363636363,88.35971747674047L192.45926136363636,112.4672186203301L192.69715909090908,133.70688581988216L192.93505681818183,107.30796932391823L193.17295454545453,128.16672302931548L193.41085227272728,127.63720258288086L193.64875,131.9293307248503L193.88664772727273,108.26983462236822L194.12454545454545,112.30072608366609L194.36244318181818,117.69978232830763L194.6003409090909,114.66446678303183L194.83823863636363,138.93891378454865L195.07613636363638,133.75077556036413L195.31403409090908,128.1340838983655L195.55193181818183,152.18454898484052L195.78982954545455,136.01132385581732L196.02772727272728,145.0330351587385L196.265625,112.90739356689156L196.50352272727272,100.04287791587412L196.74142045454545,116.11097372286022L196.97931818181817,135.37580865584314L197.21721590909092,122.40171289220453L197.45511363636362,122.81023777239025L197.69301136363637,139.39491376429797L197.9309090909091,132.73447049930692L198.16880681818182,115.47681848667563L198.40670454545455,154.47439831830562L198.64460227272727,116.05026988461614L198.8825,120.95363993346692L199.12039772727272,106.93752342984081L199.35829545454547,127.07327093146742L199.59619318181817,119.86661675535143L199.83409090909092,128.39742234125734L200.07198863636364,135.72577267102898L200.30988636363637,134.4500854253769L200.5477840909091,123.84916768558324L200.7856818181818,154.8905060268939L201.02357954545454,147.5450119111687L201.26147727272726,160.16951455883685L201.49937500000001,107.65191652961076L201.7372727272727,121.27265446968377L201.97517045454546,135.3569340068847L202.2130681818182,136.94504202492536L202.4509659090909,127.99165859967471L202.68886363636364,142.16260492019356L202.9267613636364,116.06003689728678L203.16465909090908,139.74372387081385L203.4025568181818,144.924196844548L203.64045454545456,114.82131594009698L203.87835227272726,124.091735772416L204.11625,151.8108886308968L204.35414772727273,140.572189084813L204.59204545454546,116.8978570137173L204.82994318181818,138.80514280088246L205.06784090909093,129.9493058692664L205.30573863636363,131.26809984594584L205.54363636363635,136.97755752280355L205.7815340909091,136.43761068731547L206.0194318181818,137.34862158223987L206.25732954545455,142.75126318596304L206.49522727272728,104.33030800111592L206.733125,137.8821807090193L206.97102272727273,155.11955689787868L207.20892045454548,119.690233572945L207.44681818181817,127.0151221767068L207.6847159090909,151.09863850437105L207.92261363636365,146.6858032733202L208.16051136363635,124.58194090202451L208.3984090909091,110.25204366222025L208.63630681818182,115.7709003534168L208.87420454545455,107.49399588592351L209.11210227272727,109.74440626949072L209.35000000000002,122.45137217603624L209.58789772727272,121.36929432079197L209.82579545454544,103.32475901730358L210.0636931818182,130.65541555322707L210.3015909090909,131.88774880170823L210.53948863636364,147.3079248905182L210.77738636363637,138.20024739168585L211.0152840909091,141.93598549962044L211.25318181818182,98.78120241835713L211.49107954545457,129.5613452900201L211.72897727272726,143.87793136909605L211.96687500000002,114.86409298293293L212.20477272727274,93.24198748134076L212.44267045454544,153.85202943496407L212.6805681818182,128.38089672066272L212.9184659090909,124.13525461368263L213.15636363636364,110.7913311213255L213.39426136363636,135.75383737832308L213.6321590909091,99.77801466509699L213.8700568181818,116.5724547687918L214.10795454545456,140.4154223497957L214.34585227272729,128.34467223063112L214.58374999999998,118.89741589464248L214.82164772727273,156.41016253419224L215.05954545454546,112.30863860026002L215.29744318181818,117.335641720891L215.5353409090909,129.21105158664287L215.77323863636366,136.46592266075314L216.01113636363635,120.87991341166199L216.2490340909091,124.4371665749699L216.48693181818183,140.31161178052426L216.72482954545453,144.9138940885663L216.96272727272728,144.17015873976052L217.200625,115.57494193464518L217.43852272727273,132.66849165000022L217.67642045454545,117.3129756577313L217.9143181818182,120.42836422249675L218.1522159090909,153.21218707747758L218.39011363636365,146.876033359766L218.62801136363638,134.10242922753096L218.86590909090907,106.25890149883926L219.10380681818182,123.35142093859614L219.34170454545455,113.55976407565177L219.57960227272727,131.59923042319716L219.8175,120.69071360081435L220.05539772727275,128.27164629623294L220.29329545454544,117.44180131852627L220.5311931818182,131.77400637567044L220.76909090909092,115.02123061716557L221.00698863636364,137.55154466405511L221.24488636363637,144.3574216324836L221.4827840909091,138.61895139478148L221.72068181818182,140.75726779326797L221.95857954545454,140.68799206204713L222.1964772727273,123.18604109957815L222.434375,100.59984490424394L222.67227272727274,151.6479402422905L222.91017045454547,139.08010275252164L223.1480681818182,126.04839397743345L223.3859659090909,148.684455511719L223.62386363636364,141.50207462869585L223.86176136363636,118.31543381474913L224.09965909090909,116.92616898715497L224.33755681818184,114.79671295881272L224.57545454545453,133.5750105433166L224.8133522727273,159.69183758050207L225.05125,110.76850021407009L225.28914772727273,131.565561016649L225.52704545454546,146.04179860241712L225.76494318181818,122.15432311557234L226.0028409090909,144.7264251407236L226.24073863636363,138.64376043118537L226.47863636363638,108.78983532227576L226.71653409090908,152.49284865483642L226.95443181818183,122.06604910232127L227.19232954545456,144.65855058431626L227.43022727272728,124.67165730111302L227.668125,123.3951458349824L227.9060227272727,112.91938597485424L228.14392045454545,123.99233478270472L228.38181818181818,136.28933342322708L228.61971590909093,154.0772888917476L228.85761363636362,129.9109384059906L229.09551136363638,124.20193405039609L229.33340909090907,157.1671266216785L229.57130681818182,122.912193845585L229.80920454545455,139.10000767707825L230.0471022727273,145.50197540000082L230.285,149.43189985267819L230.52289772727272,146.19864775948227L230.76079545454544,134.34887115061284L230.99869318181817,141.5898541096598L231.23659090909092,140.87331803664566L231.47448863636362,102.9025932881981L231.71238636363637,144.15923781841994L231.9502840909091,130.3536272250116L232.18818181818182,143.4886520370841L232.42607954545454,102.30284925699233L232.66397727272727,121.95226546525956L232.901875,135.16369551569224L233.1397727272727,148.14471473135055L233.37767045454547,152.69564810357988L233.61556818181816,117.88139931075276L233.85346590909091,147.36986505948008L234.09136363636364,140.83111794814468L234.32926136363636,145.13342521302403L234.5671590909091,130.1566385306418L234.8050568181818,153.97792911306024L235.04295454545453,132.86956023573876L235.28085227272726,125.21135687045754L235.51875,137.18006849437953L235.7566477272727,132.41112880557776L235.99454545454546,137.34627255387605L236.23244318181818,129.9024489350617L236.4703409090909,119.93403799049557L236.70823863636363,134.27662822566927L236.94613636363636,140.9658779963851L237.18403409090908,122.07330224253238L237.4219318181818,155.19596213623885L237.65982954545456,133.06374658048153L237.89772727272725,109.75973677039147L238.135625,130.89415101483465L238.37352272727273,129.4102656763047L238.61142045454545,116.83093031086028L238.84931818181818,163.37420741245154L239.08721590909093,130.12094978392125L239.32511363636362,135.4694813132286L239.56301136363635,165.434923452884L239.8009090909091,119.81761684790254L240.0388068181818,151.6269638311118L240.27670454545455,118.20049626901746L240.51460227272727,135.84425436481834L240.7525,146.80939513407648" style="fill: none;" fill="none"></path></g></g></g></g></g></g><g transform="translate(68, 177)" clip-path="url(#clip_1)"><clipPath id="clip_1"><rect width="261" height="23"></rect></clipPath><g><g><line x1="0" y1="0" x2="0" y2="5" style="visibility: inherit;" fill="rgb(0, 0, 0)" stroke="rgb(204, 204, 204)" stroke-width="1px"></line><line x1="23.789772727272727" y1="0" x2="23.789772727272727" y2="5" style="visibility: inherit;" fill="rgb(0, 0, 0)" stroke="rgb(204, 204, 204)" stroke-width="1px"></line><line x1="47.57954545454545" y1="0" x2="47.57954545454545" y2="5" style="visibility: inherit;" fill="rgb(0, 0, 0)" stroke="rgb(204, 204, 204)" stroke-width="1px"></line><line x1="71.36931818181817" y1="0" x2="71.36931818181817" y2="5" style="visibility: inherit;" fill="rgb(0, 0, 0)" stroke="rgb(204, 204, 204)" stroke-width="1px"></line><line x1="95.1590909090909" y1="0" x2="95.1590909090909" y2="5" style="visibility: inherit;" fill="rgb(0, 0, 0)" stroke="rgb(204, 204, 204)" stroke-width="1px"></line><line x1="118.94886363636363" y1="0" x2="118.94886363636363" y2="5" style="visibility: inherit;" fill="rgb(0, 0, 0)" stroke="rgb(204, 204, 204)" stroke-width="1px"></line><line x1="142.73863636363635" y1="0" x2="142.73863636363635" y2="5" style="visibility: inherit;" fill="rgb(0, 0, 0)" stroke="rgb(204, 204, 204)" stroke-width="1px"></line><line x1="166.5284090909091" y1="0" x2="166.5284090909091" y2="5" style="visibility: inherit;" fill="rgb(0, 0, 0)" stroke="rgb(204, 204, 204)" stroke-width="1px"></line><line x1="190.3181818181818" y1="0" x2="190.3181818181818" y2="5" style="visibility: inherit;" fill="rgb(0, 0, 0)" stroke="rgb(204, 204, 204)" stroke-width="1px"></line><line x1="214.10795454545456" y1="0" x2="214.10795454545456" y2="5" style="visibility: inherit;" fill="rgb(0, 0, 0)" stroke="rgb(204, 204, 204)" stroke-width="1px"></line><line x1="237.89772727272725" y1="0" x2="237.89772727272725" y2="5" style="visibility: inherit;" fill="rgb(0, 0, 0)" stroke="rgb(204, 204, 204)" stroke-width="1px"></line><line x1="261.6875" y1="0" x2="261.6875" y2="5" style="visibility: inherit;" fill="rgb(0, 0, 0)" stroke="rgb(204, 204, 204)" stroke-width="1px"></line></g><g transform="translate(0, 8)"><text x="0" y="0" dx="0em" dy="0.95em" style="text-anchor: middle; visibility: hidden; font-family: &quot;Helvetica Neue&quot;, sans-serif; font-size: 12px; font-weight: 200;" fill="rgb(50, 49, 63)" stroke="none" stroke-width="1px">-100</text><text x="23.789772727272727" y="0" dx="0em" dy="0.95em" style="text-anchor: middle; visibility: inherit; font-family: &quot;Helvetica Neue&quot;, sans-serif; font-size: 12px; font-weight: 200;" fill="rgb(50, 49, 63)" stroke="none" stroke-width="1px">0</text><text x="47.57954545454545" y="0" dx="0em" dy="0.95em" style="text-anchor: middle; visibility: hidden; font-family: &quot;Helvetica Neue&quot;, sans-serif; font-size: 12px; font-weight: 200;" fill="rgb(50, 49, 63)" stroke="none" stroke-width="1px">100</text><text x="71.36931818181817" y="0" dx="0em" dy="0.95em" style="text-anchor: middle; visibility: inherit; font-family: &quot;Helvetica Neue&quot;, sans-serif; font-size: 12px; font-weight: 200;" fill="rgb(50, 49, 63)" stroke="none" stroke-width="1px">200</text><text x="95.1590909090909" y="0" dx="0em" dy="0.95em" style="text-anchor: middle; visibility: hidden; font-family: &quot;Helvetica Neue&quot;, sans-serif; font-size: 12px; font-weight: 200;" fill="rgb(50, 49, 63)" stroke="none" stroke-width="1px">300</text><text x="118.94886363636363" y="0" dx="0em" dy="0.95em" style="text-anchor: middle; visibility: inherit; font-family: &quot;Helvetica Neue&quot;, sans-serif; font-size: 12px; font-weight: 200;" fill="rgb(50, 49, 63)" stroke="none" stroke-width="1px">400</text><text x="142.73863636363635" y="0" dx="0em" dy="0.95em" style="text-anchor: middle; visibility: hidden; font-family: &quot;Helvetica Neue&quot;, sans-serif; font-size: 12px; font-weight: 200;" fill="rgb(50, 49, 63)" stroke="none" stroke-width="1px">500</text><text x="166.5284090909091" y="0" dx="0em" dy="0.95em" style="text-anchor: middle; visibility: inherit; font-family: &quot;Helvetica Neue&quot;, sans-serif; font-size: 12px; font-weight: 200;" fill="rgb(50, 49, 63)" stroke="none" stroke-width="1px">600</text><text x="190.3181818181818" y="0" dx="0em" dy="0.95em" style="text-anchor: middle; visibility: hidden; font-family: &quot;Helvetica Neue&quot;, sans-serif; font-size: 12px; font-weight: 200;" fill="rgb(50, 49, 63)" stroke="none" stroke-width="1px">700</text><text x="214.10795454545456" y="0" dx="0em" dy="0.95em" style="text-anchor: middle; visibility: inherit; font-family: &quot;Helvetica Neue&quot;, sans-serif; font-size: 12px; font-weight: 200;" fill="rgb(50, 49, 63)" stroke="none" stroke-width="1px">800</text><text x="237.89772727272725" y="0" dx="0em" dy="0.95em" style="text-anchor: middle; visibility: hidden; font-family: &quot;Helvetica Neue&quot;, sans-serif; font-size: 12px; font-weight: 200;" fill="rgb(50, 49, 63)" stroke="none" stroke-width="1px">900</text><text x="261.6875" y="0" dx="0em" dy="0.95em" style="text-anchor: middle; visibility: hidden; font-family: &quot;Helvetica Neue&quot;, sans-serif; font-size: 12px; font-weight: 200;" fill="rgb(50, 49, 63)" stroke="none" stroke-width="1px">1k</text></g><line x1="0" y1="0" x2="261.6875" y2="0" fill="rgb(0, 0, 0)" stroke="rgb(204, 204, 204)" stroke-width="1px"></line></g></g></g></g></svg>