<svg viewBox="0 0 330 200" xmlns="http://www.w3.org/2000/svg"><g><g><g><g><g><line x1="48.875" y1="177" x2="43.875" y2="177" style="visibility: inherit;" fill="rgb(0, 0, 0)" stroke="rgb(204, 204, 204)" stroke-width="1px"></line><line x1="48.875" y1="162.25" x2="43.875" y2="162.25" style="visibility: inherit;" fill="rgb(0, 0, 0)" stroke="rgb(204, 204, 204)" stroke-width="1px"></line><line x1="48.875" y1="147.49999999999997" x2="43.875" y2="147.49999999999997" style="visibility: inherit;" fill="rgb(0, 0, 0)" stroke="rgb(204, 204, 204)" stroke-width="1px"></line><line x1="48.875" y1="132.75" x2="43.875" y2="132.75" style="visibility: inherit;" fill="rgb(0, 0, 0)" stroke="rgb(204, 204, 204)" stroke-width="1px"></line><line x1="48.875" y1="118" x2="43.875" y2="118" style="visibility: inherit;" fill="rgb(0, 0, 0)" stroke="rgb(204, 204, 204)" stroke-width="1px"></line><line x1="48.875" y1="103.24999999999999" x2="43.875" y2="103.24999999999999" style="visibility: inherit;" fill="rgb(0, 0, 0)" stroke="rgb(204, 204, 204)" stroke-width="1px"></line><line x1="48.875" y1="88.49999999999999" x2="43.875" y2="88.49999999999999" style="visibility: inherit;" fill="rgb(0, 0, 0)" stroke="rgb(204, 204, 204)" stroke-width="1px"></line><line x1="48.875" y1="73.74999999999997" x2="43.875" y2="73.74999999999997" style="visibility: inherit;" fill="rgb(0, 0, 0)" stroke="rgb(204, 204, 204)" stroke-width="1px"></line><line x1="48.875" y1="59.00000000000004" x2="43.875" y2="59.00000000000004" style="visibility: inherit;" fill="rgb(0, 0, 0)" stroke="rgb(204, 204, 204)" stroke-width="1px"></line><line x1="48.875" y1="44.25000000000003" x2="43.875" y2="44.25000000000003" style="visibility: inherit;" fill="rgb(0, 0, 0)" stroke="rgb(204, 204, 204)" stroke-width="1px"></line><line x1="48.875" y1="29.5" x2="43.875" y2="29.5" style="visibility: inherit;" fill="rgb(0, 0, 0)" stroke="rgb(204, 204, 204)" stroke-width="1px"></line><line x1="48.875" y1="14.75" x2="43.875" y2="14.75" style="visibility: inherit;" fill="rgb(0, 0, 0)" stroke="rgb(204, 204, 204)" stroke-width="1px"></line><line x1="48.875" y1="0" x2="43.875" y2="0" style="visibility: inherit;" fill="rgb(0, 0, 0)" stroke="rgb(204, 204, 204)" stroke-width="1px"></line></g><g transform="translate(38.875, 0)"><text x="0" y="177" dx="0em" dy="0.3em" style="text-anchor: end; visibility: hidden; font-family: &quot;Helvetica Neue&quot;, sans-serif; font-size: 12px; font-weight: 200;" fill="rgb(50, 49, 63)" stroke="none" stroke-width="1px">0.42</text><text x="0" y="162.25" dx="0em" dy="0.3em" style="text-anchor: end; visibility: inherit; font-family: &quot;Helvetica Neue&quot;, sans-serif; font-size: 12px; font-weight: 200;" fill="rgb(50, 49, 63)" stroke="none" stroke-width="1px">0.44</text><text x="0" y="147.49999999999997" dx="0em" dy="0.3em" style="text-anchor: end; visibility: hidden; font-family: &quot;Helvetica Neue&quot;, sans-serif; font-size: 12px; font-weight: 200;" fill="rgb(50, 49, 63)" stroke="none" stroke-width="1px">0.46</text><text x="0" y="132.75" dx="0em" dy="0.3em" style="text-anchor: end; visibility: inherit; font-family: &quot;Helvetica Neue&quot;, sans-serif; font-size: 12px; font-weight: 200;" fill="rgb(50, 49, 63)" stroke="none" stroke-width="1px">0.48</text><text x="0" y="118" dx="0em" dy="0.3em" style="text-anchor: end; visibility: hidden; font-family: &quot;Helvetica Neue&quot;, sans-serif; font-size: 12px; font-weight: 200;" fill="rgb(50, 49, 63)" stroke="none" stroke-width="1px">0.5</text><text x="0" y="103.24999999999999" dx="0em" dy="0.3em" style="text-anchor: end; visibility: inherit; font-family: &quot;Helvetica Neue&quot;, sans-serif; font-size: 12px; font-weight: 200;" fill="rgb(50, 49, 63)" stroke="none" stroke-width="1px">0.52</text><text x="0" y="88.49999999999999" dx="0em" dy="0.3em" style="text-anchor: end; visibility: hidden; font-family: &quot;Helvetica Neue&quot;, sans-serif; font-size: 12px; font-weight: 200;" fill="rgb(50, 49, 63)" stroke="none" stroke-width="1px">0.54</text><text x="0" y="73.74999999999997" dx="0em" dy="0.3em" style="text-anchor: end; visibility: inherit; font-family: &quot;Helvetica Neue&quot;, sans-serif; font-size: 12px; font-weight: 200;" fill="rgb(50, 49, 63)" stroke="none" stroke-width="1px">0.56</text><text x="0" y="59.00000000000004" dx="0em" dy="0.3em" style="text-anchor: end; visibility: hidden; font-family: &quot;Helvetica Neue&quot;, sans-serif; font-size: 12px; font-weight: 200;" fill="rgb(50, 49, 63)" stroke="none" stroke-width="1px">0.58</text><text x="0" y="44.25000000000003" dx="0em" dy="0.3em" style="text-anchor: end; visibility: inherit; font-family: &quot;Helvetica Neue&quot;, sans-serif; font-size: 12px; font-weight: 200;" fill="rgb(50, 49, 63)" stroke="none" stroke-width="1px">0.6</text><text x="0" y="29.5" dx="0em" dy="0.3em" style="text-anchor: end; visibility: hidden; font-family: &quot;Helvetica Neue&quot;, sans-serif; font-size: 12px; font-weight: 200;" fill="rgb(50, 49, 63)" stroke="none" stroke-width="1px">0.62</text><text x="0" y="14.75" dx="0em" dy="0.3em" style="text-anchor: end; visibility: inherit; font-family: &quot;Helvetica Neue&quot;, sans-serif; font-size: 12px; font-weight: 200;" fill="rgb(50, 49, 63)" stroke="none" stroke-width="1px">0.64</text><text x="0" y="0" dx="0em" dy="0.3em" style="text-anchor: end; visibility: hidden; font-family: &quot;Helvetica Neue&quot;, sans-serif; font-size: 12px; font-weight: 200;" fill="rgb(50, 49, 63)" stroke="none" stroke-width="1px">0.66</text></g><line x1="48.875" y1="0" x2="48.875" y2="177" fill="rgb(0, 0, 0)" stroke="rgb(204, 204, 204)" stroke-width="1px"></line></g></g><g transform="translate(48, 0)" clip-path="url(#clip_0)"><clipPath id="clip_0"><rect width="281" height="177"></rect></clipPath><g><g><g><line x1="0" y1="0" x2="0" y2="177" fill="rgb(0, 0, 0)" stroke="rgb(60, 60, 60)" stroke-width="1px" opacity="0.25"></line><line x1="25.556818181818183" y1="0" x2="25.556818181818183" y2="177" fill="rgb(0, 0, 0)" stroke="rgb(60, 60, 60)" stroke-width="1px" opacity="0.25"></line><line x1="51.11363636363637" y1="0" x2="51.11363636363637" y2="177" fill="rgb(0, 0, 0)" stroke="rgb(60, 60, 60)" stroke-width="1px" opacity="0.25"></line><line x1="76.67045454545455" y1="0" x2="76.67045454545455" y2="177" fill="rgb(0, 0, 0)" stroke="rgb(60, 60, 60)" stroke-width="1px" opacity="0.25"></line><line x1="102.22727272727273" y1="0" x2="102.22727272727273" y2="177" fill="rgb(0, 0, 0)" stroke="rgb(60, 60, 60)" stroke-width="1px" opacity="0.25"></line><line x1="127.7840909090909" y1="0" x2="127.7840909090909" y2="177" fill="rgb(0, 0, 0)" stroke="rgb(60, 60, 60)" stroke-width="1px" opacity="0.25"></line><line x1="153.3409090909091" y1="0" x2="153.3409090909091" y2="177" fill="rgb(0, 0, 0)" stroke="rgb(60, 60, 60)" stroke-width="1px" opacity="0.25"></line><line x1="178.89772727272728" y1="0" x2="178.89772727272728" y2="177" fill="rgb(0, 0, 0)" stroke="rgb(60, 60, 60)" stroke-width="1px" opacity="0.25"></line><line x1="204.45454545454547" y1="0" x2="204.45454545454547" y2="177" fill="rgb(0, 0, 0)" stroke="rgb(60, 60, 60)" stroke-width="1px" opacity="0.25"></line><line x1="230.01136363636365" y1="0" x2="230.01136363636365" y2="177" fill="rgb(0, 0, 0)" stroke="rgb(60, 60, 60)" stroke-width="1px" opacity="0.25"></line><line x1="255.5681818181818" y1="0" x2="255.5681818181818" y2="177" fill="rgb(0, 0, 0)" stroke="rgb(60, 60, 60)" stroke-width="1px" opacity="0.25"></line><line x1="281.125" y1="0" x2="281.125" y2="177" fill="rgb(0, 0, 0)" stroke="rgb(60, 60, 60)" stroke-width="1px" opacity="0.25"></line></g><g><line x1="0" y1="177" x2="281.125" y2="177" fill="rgb(0, 0, 0)" stroke="rgb(60, 60, 60)" stroke-width="1px" opacity="0.25"></line><line x1="0" y1="162.25" x2="281.125" y2="162.25" fill="rgb(0, 0, 0)" stroke="rgb(60, 60, 60)" stroke-width="1px" opacity="0.25"></line><line x1="0" y1="147.49999999999997" x2="281.125" y2="147.49999999999997" fill="rgb(0, 0, 0)" stroke="rgb(60, 60, 60)" stroke-width="1px" opacity="0.25"></line><line x1="0" y1="132.75" x2="281.125" y2="132.75" fill="rgb(0, 0, 0)" stroke="rgb(60, 60, 60)" stroke-width="1px" opacity="0.25"></line><line x1="0" y1="118" x2="281.125" y2="118" fill="rgb(0, 0, 0)" stroke="rgb(60, 60, 60)" stroke-width="1px" opacity="0.25"></line><line x1="0" y1="103.24999999999999" x2="281.125" y2="103.24999999999999" fill="rgb(0, 0, 0)" stroke="rgb(60, 60, 60)" stroke-width="1px" opacity="0.25"></line><line x1="0" y1="88.49999999999999" x2="281.125" y2="88.49999999999999" fill="rgb(0, 0, 0)" stroke="rgb(60, 60, 60)" stroke-width="1px" opacity="0.25"></line><line x1="0" y1="73.74999999999997" x2="281.125" y2="73.74999999999997" fill="rgb(0, 0, 0)" stroke="rgb(60, 60, 60)" stroke-width="1px" opacity="0.25"></line><line x1="0" y1="59.00000000000004" x2="281.125" y2="59.00000000000004" fill="rgb(0, 0, 0)" stroke="rgb(60, 60, 60)" stroke-width="1px" opacity="0.25"></line><line x1="0" y1="44.25000000000003" x2="281.125" y2="44.25000000000003" fill="rgb(0, 0, 0)" stroke="rgb(60, 60, 60)" stroke-width="1px" opacity="0.25"></line><line x1="0" y1="29.5" x2="281.125" y2="29.5" fill="rgb(0, 0, 0)" stroke="rgb(60, 60, 60)" stroke-width="1px" opacity="0.25"></line><line x1="0" y1="14.75" x2="281.125" y2="14.75" fill="rgb(0, 0, 0)" stroke="rgb(60, 60, 60)" stroke-width="1px" opacity="0.25"></line><line x1="0" y1="0" x2="281.125" y2="0" fill="rgb(0, 0, 0)" stroke="rgb(60, 60, 60)" stroke-width="1px" opacity="0.25"></line></g></g></g><g><g><line x1="0" y1="486.74999999999994" x2="281.125" y2="486.74999999999994" fill="rgb(0, 0, 0)" stroke="rgb(153, 153, 153)" stroke-width="1.5px"></line></g></g><g><g><line x1="25.556818181818183" y1="0" x2="25.556818181818183" y2="177" fill="rgb(0, 0, 0)" stroke="rgb(153, 153, 153)" stroke-width="1.5px"></line></g></g><g><g><g><g><g><path stroke="rgb(51, 187, 238)" stroke-width="2px" d="M33.22386363636364,-1.3308167159557058L33.47943181818182,1.2097604870796488L33.735,5.929488718509674L33.99056818181818,8.921255201101332L34.24613636363636,10.557036131620436L34.501704545454544,14.48722708225253L34.75727272727273,15.292237728834152L35.01284090909091,19.499630510807066L35.26840909090909,20.568699419498444L35.52397727272727,23.62477707862854L35.77954545454545,25.566288858652143L36.03511363636363,24.676526367664366L36.29068181818182,26.057744055986404L36.54625,31.58938440680504L36.801818181818184,31.674839586019516L37.05738636363636,36.180885910987854L37.312954545454545,35.709607630968094L37.56852272727273,37.033899158239365L37.82409090909091,40.2946472465992L38.0796590909091,42.03399422764781L38.33522727272727,43.57891309261325L38.59079545454545,43.69250166416168L38.846363636363634,45.84510180354118L39.10193181818182,48.059947073459625L39.3575,49.40296489000322L39.61306818181818,51.07457193732263L39.86863636363636,53.09595617651941L40.124204545454546,54.33127585053445L40.37977272727273,56.47161158919336L40.63534090909091,57.5918481051922L40.89090909090909,59.0978637635708L41.146477272727275,58.486533939838424L41.40204545454546,59.32952466607094L41.65761363636364,63.331367850303664L41.91318181818181,60.97748208045961L42.168749999999996,61.26708018779756L42.42431818181818,63.619163662195206L42.67988636363636,63.41717469692232L42.93545454545455,64.90420031547548L43.191022727272724,66.19657802581789L43.44659090909091,67.96208027005196L43.70215909090909,66.86210858821869L43.957727272727276,70.62969732284546L44.21329545454546,71.50095331668854L44.468863636363636,70.73515358567238L44.72443181818182,70.70297601819038L44.980000000000004,70.61237770318985L45.23556818181819,73.39723187685013L45.49113636363636,72.36636283993721L45.74670454545454,73.71654587984087L46.002272727272725,74.38818666338922L46.25784090909091,72.68853414058685L46.51340909090909,75.29619190096855L46.76897727272727,78.23723036050798L47.02454545454545,76.33633616566658L47.28011363636364,77.8522424697876L47.53568181818182,76.0360122025013L47.791250000000005,78.45970395207407L48.04681818181818,78.43297722935677L48.302386363636366,78.39952486753464L48.55795454545454,78.21894365549088L48.813522727272726,80.03236058354378L49.06909090909091,82.01180848479271L49.32465909090909,81.149344176054L49.58022727272727,81.24161291122438L49.835795454545455,81.1802909076214L50.09136363636364,81.6967584490776L50.346931818181815,83.37460759282112L50.6025,81.48026320338249L50.85806818181818,81.62488642334938L51.11363636363637,84.49049222469331L51.36920454545455,82.4370622932911L51.62477272727273,83.94677045941354L51.880340909090904,83.88980033993722L52.13590909090909,82.83849063515665L52.39147727272727,87.4375090301037L52.647045454545456,84.50741621851921L52.90261363636363,86.9922980964184L53.158181818181816,84.36639758944513L53.41375,87.81805711984634L53.669318181818184,90.25673869252205L53.92488636363636,87.18571516871452L54.180454545454545,87.72688734531403L54.43602272727273,87.14786696434021L54.69159090909091,88.59071436524393L54.947159090909096,89.03878259658813L55.202727272727266,89.84427678585052L55.45829545454545,89.68497145175934L55.713863636363634,90.08688333630562L55.96943181818182,91.04170429706573L56.225,90.99976795911789L56.48056818181818,93.99782049655914L56.73613636363636,92.22559261322023L56.991704545454546,90.2075492143631L57.24727272727273,91.94315972924232L57.502840909090914,90.74977639317514L57.75840909090909,91.78416210412979L58.013977272727274,92.48261752724649L58.26954545454546,91.8432861864567L58.52511363636364,90.99603149294853L58.78068181818181,92.88026544451714L59.036249999999995,90.8300005197525L59.29181818181818,94.49881467223167L59.54738636363636,95.01391950249672L59.80295454545455,92.39593151211739L60.058522727272724,93.12775138020515L60.31409090909091,95.3850604891777L60.56965909090909,93.09513422846794L60.825227272727275,92.0374505519867L61.08079545454546,92.92272928357124L61.336363636363636,95.7371235191822L61.59193181818182,95.57746651768684L61.847500000000004,96.84650230407715L62.10306818181818,95.02407389879227L62.358636363636364,97.54517751932144L62.61420454545454,98.24328127503395L62.869772727272725,93.02677887678146L63.12534090909091,96.13090309500694L63.38090909090909,95.79281884431839L63.63647727272727,94.21915116906166L63.89204545454545,95.75330021977425L64.14761363636363,95.89919823408127L64.40318181818182,96.11085805296898L64.65875,97.78132218122482L64.91431818181817,98.81227913498878L65.16988636363637,97.02598455548286L65.42545454545454,96.9922684431076L65.68102272727273,96.26080024242401L65.93659090909091,99.41178414225578L66.19215909090909,97.97478321194649L66.44772727272728,100.16531947255135L66.70329545454545,100.63426795601845L66.95886363636365,98.8861292898655L67.21443181818182,101.00558477640152L67.47,98.79328909516335L67.72556818181818,97.29707616567612L67.98113636363637,99.92368000745773L68.23670454545454,99.89690932631493L68.49227272727272,100.34827443957329L68.74784090909091,101.0487959086895L69.00340909090909,100.85893946886063L69.25897727272728,101.50921645760536L69.51454545454546,99.84600546956062L69.77011363636363,99.77659511566162L70.02568181818182,102.75372344255447L70.28125,102.13760215044022L70.53681818181818,100.41772875189781L70.79238636363637,101.03275108337402L71.04795454545454,103.43099090456963L71.30352272727274,98.93096688389778L71.5590909090909,100.48173221945763L71.81465909090909,100.07058906555176L72.07022727272727,103.35947054624557L72.32579545454546,98.81865310668945L72.58136363636363,98.27150258421898L72.83693181818182,99.19827806949615L73.0925,103.01294627785683L73.34806818181819,102.20903459191322L73.60363636363637,102.68695059418678L73.85920454545456,107.28623273968697L74.11477272727272,104.93718239665031L74.3703409090909,104.80847212672234L74.62590909090909,104.41526401042938L74.88147727272727,103.24579405784607L75.13704545454546,103.8238473534584L75.39261363636363,104.89942210912704L75.64818181818183,103.17611995339394L75.90375,102.88370850682259L76.1593181818182,105.39171251654625L76.41488636363636,104.20153814554214L76.67045454545455,104.30536794662476L76.92602272727272,104.44067198038101L77.1815909090909,103.6504313647747L77.43715909090909,103.0746639072895L77.69272727272727,103.53099632263184L77.94829545454546,106.95926997065544L78.20386363636364,105.05749660730362L78.45943181818183,106.00124004483223L78.715,102.77935120463371L78.97056818181818,102.78730767965317L79.22613636363636,104.72745674848557L79.48170454545455,106.38873356580734L79.73727272727272,107.45116475224495L79.99284090909092,105.79573440551758L80.24840909090909,104.70341148972511L80.50397727272727,106.10524567961693L80.75954545454546,106.50663006305695L81.01511363636364,108.93955308198929L81.27068181818181,105.53813803195953L81.52624999999999,106.75912725925446L81.78181818181818,106.26529830694199L82.03738636363636,108.61804115772247L82.29295454545455,105.58363500237465L82.54852272727273,105.95583099126816L82.80409090909092,108.206678211689L83.0596590909091,107.63508680462837L83.31522727272728,109.81560054421425L83.57079545454546,106.1482370197773L83.82636363636362,108.11933282017708L84.08193181818181,106.304553180933L84.33749999999999,108.61052426695824L84.59306818181818,108.63087701797485L84.84863636363636,111.40184032917023L85.10420454545455,109.5901817381382L85.35977272727273,107.85756039619446L85.61534090909092,110.17227920889854L85.8709090909091,107.47542980313301L86.12647727272727,108.56704938411713L86.38204545454545,108.5736431479454L86.63761363636364,109.16747751832008L86.89318181818182,107.6486259996891L87.14874999999999,108.45961499214172L87.40431818181818,110.3989288508892L87.65988636363636,108.36910459399223L87.91545454545455,111.28324049711227L88.17102272727273,109.33240953087807L88.42659090909092,109.75181686878204L88.68215909090908,109.27702191472054L88.93772727272727,109.75845459103584L89.19329545454545,109.16185083985329L89.44886363636364,111.55714544653893L89.70443181818182,110.73222163319588L89.96000000000001,109.44006371498108L90.21556818181818,109.48608818650246L90.47113636363638,106.31303715705872L90.72670454545455,106.49269524216652L90.98227272727271,109.48674756288528L91.2378409090909,108.67545086145401L91.49340909090908,109.34410247206688L91.74897727272727,108.4840998351574L92.00454545454545,111.49850490689278L92.26011363636364,111.81689578294754L92.51568181818182,109.27719774842262L92.77125000000001,109.60961136221886L93.02681818181819,112.02385205030441L93.28238636363638,110.35189333558083L93.53795454545454,110.74356290698051L93.79352272727272,112.38857510685921L94.0490909090909,112.73334103822708L94.30465909090908,111.26653629541397L94.56022727272727,110.97794923186302L94.81579545454545,114.4882493019104L95.07136363636364,112.4690190255642L95.32693181818182,110.72967204451561L95.58250000000001,111.64840313792229L95.83806818181817,111.30332949757576L96.09363636363636,111.28640550374985L96.34920454545454,106.00603151321411L96.60477272727273,110.27975755929947L96.86034090909091,111.9560241997242L97.11590909090908,113.19938826560974L97.37147727272728,112.59144324064255L97.62704545454545,111.81153285503387L97.88261363636364,112.62722539901733L98.13818181818182,111.9866192638874L98.39375,111.8317097723484L98.64931818181817,110.44108498096466L98.90488636363636,111.63798499107361L99.16045454545454,113.44889628887177L99.41602272727273,111.78792718052864L99.67159090909091,111.77161860466003L99.9271590909091,114.36784717440605L100.18272727272728,115.44350984692574L100.43829545454547,114.63647711277008L100.69386363636363,111.4214897453785L100.94943181818181,113.39737701416016L101.205,113.45760005712509L101.46056818181818,113.2508196234703L101.71613636363637,112.13212165236473L101.97170454545454,114.60803601145744L102.22727272727273,114.78532034158707L102.48284090909091,113.43592855334282L102.7384090909091,115.16806635260582L102.99397727272728,111.06960254907608L103.24954545454545,113.7646057009697L103.50511363636363,114.38450741767883L103.76068181818181,114.24243378639221L104.01625,114.10598683357239L104.27181818181818,113.74869275093079L104.52738636363637,112.99484971165657L104.78295454545454,113.50010785460472L105.03852272727273,115.19536453485489L105.29409090909091,114.04378566145897L105.54965909090909,114.65137901902199L105.80522727272727,115.23114669322968L106.06079545454546,112.85163316130638L106.31636363636363,112.38844323158264L106.57193181818182,113.72183415293694L106.8275,113.49830555915833L107.08306818181819,114.86620384454727L107.33863636363637,113.55224254727364L107.59420454545455,113.71203142404556L107.84977272727272,113.4131580889225L108.1053409090909,115.1163272857666L108.36090909090909,115.60114476084709L108.61647727272727,115.48614951968193L108.87204545454546,114.9276137650013L109.12761363636363,113.99200263619423L109.38318181818182,116.39644059538841L109.63875,116.22957441210747L109.89431818181819,115.13672399520874L110.14988636363637,118.24678260087967L110.40545454545453,113.6348404288292L110.66102272727272,116.15849363803864L110.9165909090909,115.2603790462017L111.17215909090909,114.49708494544029L111.42772727272727,116.45719113945961L111.68329545454546,116.70516061782837L111.93886363636364,113.98479345440865L112.19443181818183,112.81426849961281L112.45,116.83202463388443L112.70556818181818,116.40523228049278L112.96113636363636,115.67345637083054L113.21670454545455,115.69191890954971L113.47227272727272,113.81383913755417L113.72784090909092,117.17863681912422L113.98340909090909,116.10618311166763L114.23897727272727,115.43665233254433L114.49454545454546,118.27076192200184L114.75011363636364,118.51765441894531L115.00568181818183,115.53533899784088L115.26124999999999,117.12777692079544L115.51681818181818,115.42759689688683L115.77238636363636,115.80660644173622L116.02795454545455,113.94800025224686L116.28352272727273,114.84488400816917L116.53909090909092,118.69845542311668L116.7946590909091,116.60027581453323L117.05022727272728,115.86529093980789L117.30579545454546,117.94957968592644L117.56136363636362,117.40669313073158L117.81693181818181,116.38149473071098L118.07249999999999,118.52501745522022L118.32806818181818,116.59311059117317L118.58363636363636,115.86533489823341L118.83920454545455,117.33728277683258L119.09477272727273,120.39043720066547L119.35034090909092,117.53179880976677L119.6059090909091,118.25748647749424L119.86147727272729,119.63685791194439L120.11704545454545,118.0984888523817L120.37261363636362,117.74178820848465L120.62818181818182,120.80331671237946L120.88374999999999,118.43855123221874L121.13931818181818,119.70822441577911L121.39488636363636,117.65883865952492L121.65045454545455,116.87308180332184L121.90602272727273,117.32040274143219L122.16159090909092,116.91079813241959L122.41715909090908,118.55640377104282L122.67272727272727,121.33255417644978L122.92829545454545,120.01021879911423L123.18386363636364,123.35743311047554L123.43943181818182,119.56476609408855L123.69500000000001,119.80297680199146L123.95056818181818,117.57536160945892L124.20613636363636,120.46274881064892L124.46170454545455,118.43701268732548L124.71727272727273,120.39718481898308L124.9728409090909,118.3255121409893L125.22840909090908,121.0106246471405L125.48397727272727,121.449197858572L125.73954545454545,120.29871794581413L125.99511363636364,120.00628452003002L126.25068181818182,117.03528839349747L126.50625000000001,120.58897542953491L126.76181818181819,119.22072547674179L127.01738636363638,119.9117958843708L127.27295454545454,121.62331718206406L127.52852272727272,120.61928476393223L127.7840909090909,122.42672334611416L128.03965909090908,118.9265337139368L128.29522727272726,119.13568790256977L128.55079545454547,120.38718427717686L128.80636363636364,119.93355530500412L129.06193181818182,122.0047224611044L129.3175,121.21230590343475L129.5730681818182,121.75459901988506L129.82863636363635,120.95004993677139L130.08420454545455,120.42602154612541L130.33977272727273,121.69417816400528L130.5953409090909,124.51938617229462L130.85090909090908,123.03589920699596L131.10647727272726,123.23848161101341L131.36204545454547,121.68593595921993L131.61761363636364,123.07165938615799L131.87318181818182,124.00181967020035L132.12875,123.04464693367481L132.38431818181817,122.73397076129913L132.63988636363635,124.56516887247562L132.89545454545456,120.64645107090473L133.15102272727273,122.9309704452753L133.4065909090909,123.53190410137177L133.66215909090909,123.49157224595547L133.9177272727273,122.90743070840836L134.17329545454547,122.68581430613995L134.42886363636364,122.78217117488384L134.68443181818182,122.59684245288372L134.94,121.5403236746788L135.19556818181817,124.92927651107311L135.45113636363635,120.29667387902737L135.70670454545456,123.4458774626255L135.96227272727273,125.00095072388649L136.2178409090909,124.6696360707283L136.4734090909091,123.50788082182407L136.7289772727273,123.25516383349895L136.98454545454544,123.36048822104931L137.24011363636362,124.8634707480669L137.49568181818182,125.912802323699L137.75125,124.40225894749165L138.00681818181818,122.1019145399332L138.26238636363635,123.9121884405613L138.51795454545456,125.28384517133236L138.77352272727273,122.27247323095798L139.0290909090909,122.77540157735348L139.2846590909091,124.37502670288086L139.54022727272726,125.84304030239582L139.79579545454544,126.18239934742451L140.05136363636365,124.45175613462925L140.30693181818182,125.5409360229969L140.5625,124.13732151687145L140.81806818181818,125.96750858426094L141.07363636363635,126.25200751423836L141.32920454545453,123.09834215044975L141.58477272727274,126.13714414834976L141.8403409090909,125.39996135234833L142.0959090909091,125.81409367918968L142.35147727272727,122.15881872177124L142.60704545454547,128.33994480967522L142.86261363636365,127.68292020261288L143.1181818181818,124.35315738618374L143.37375,122.72693741321564L143.62931818181818,123.68951703608036L143.88488636363638,125.01167657971382L144.14045454545453,124.67671337723732L144.39602272727274,127.71780121326447L144.6515909090909,123.70723228156567L144.9071590909091,127.65867713093758L145.16272727272727,127.13381353020668L145.41829545454544,127.04833637177944L145.67386363636365,125.86556899547577L145.9294318181818,125.12363868951797L146.185,124.1854999512434L146.44056818181818,127.24263261258602L146.69613636363638,125.93401226401329L146.95170454545453,128.17707884311676L147.20727272727274,127.0839646756649L147.46284090909091,127.38732177019119L147.71840909090912,128.45450046658516L147.97397727272727,127.75472629070282L148.22954545454544,129.38351783156395L148.48511363636365,129.1819464713335L148.7406818181818,127.04827043414116L148.99625,128.63741147518158L149.25181818181818,126.93087945878506L149.50738636363639,128.1082619279623L149.76295454545453,128.3517036885023L150.01852272727274,126.61121378839016L150.27409090909092,127.79998148977757L150.52965909090906,127.8453026264906L150.78522727272727,126.13426487147808L151.04079545454545,130.57674731314182L151.29636363636365,129.83622367680073L151.5519318181818,127.0991523116827L151.8075,126.21982994675636L152.06306818181818,128.67613884806633L152.3186363636364,128.20747609436512L152.57420454545453,129.5801438689232L152.8297727272727,128.11685580015182L153.08534090909092,130.90869936347008L153.3409090909091,128.73346063494682L153.59647727272727,128.3710014373064L153.85204545454545,130.8284752368927L154.10761363636365,132.01678137481213L154.3631818181818,127.44692939519882L154.61875,126.99380594491959L154.87431818181818,130.10474371910095L155.12988636363636,129.4692147821188L155.38545454545454,131.3735816925764L155.6410227272727,129.1160308122635L155.89659090909092,130.23013512790203L156.1521590909091,130.72875554859638L156.40772727272727,131.91235813498497L156.66329545454545,130.37225271761417L156.91886363636365,129.7929246276617L157.17443181818183,130.2719395905733L157.43,129.4775888621807L157.68556818181818,129.28447949886322L157.94113636363636,131.51697407662868L158.19670454545454,130.94606402516365L158.4522727272727,131.39002214372158L158.70784090909092,132.49252143502235L158.9634090909091,131.5503824800253L159.21897727272727,132.29870873689651L159.47454545454545,133.28260819613934L159.73011363636365,131.0231011658907L159.98568181818183,131.76848220825195L160.24124999999998,132.15810771286488L160.49681818181818,131.00747394561768L160.75238636363636,130.65767477452755L161.00795454545454,131.07253241539001L161.26352272727271,131.77092190086842L161.51909090909092,133.30285105109215L161.7746590909091,135.33384020626545L162.03022727272727,132.25378322601318L162.28579545454545,130.05485090613365L162.54136363636363,132.909752830863L162.79693181818183,132.58246037364006L163.05249999999998,131.8031654059887L163.3080681818182,132.20564875006676L163.56363636363636,132.32117149233818L163.81920454545457,129.5249540656805L164.07477272727272,131.67522440850735L164.33034090909092,132.91085179150105L164.5859090909091,131.8011433184147L164.84147727272725,129.7863528430462L165.09704545454545,133.005823969841L165.35261363636363,128.62250956892967L165.60818181818183,132.68607038259506L165.86374999999998,134.26189202070236L166.1193181818182,133.9977238625288L166.37488636363636,133.55055677890778L166.63045454545457,132.95089791715145L166.88602272727272,133.64491353929043L167.14159090909092,134.6344616562128L167.3971590909091,132.67275097966194L167.65272727272725,135.10321232676506L167.90829545454545,134.34046770632267L168.16386363636363,135.05815494060516L168.41943181818183,135.53066405653954L168.67499999999998,132.56259116530418L168.9305681818182,135.9622918367386L169.18613636363636,131.12229335308075L169.44170454545457,133.99996574223042L169.69727272727272,132.3488872796297L169.9528409090909,133.00349417328835L170.2084090909091,132.77433890104294L170.46397727272725,131.5238315910101L170.71954545454545,134.5817555040121L170.97511363636363,135.56121516227722L171.23068181818184,134.0069990903139L171.48624999999998,133.8041089773178L171.7418181818182,133.96033722162247L171.99738636363637,135.4635175615549L172.25295454545454,133.39920791983604L172.50852272727272,133.3959110379219L172.7640909090909,133.7301489263773L173.0196590909091,136.4603188186884L173.27522727272728,133.20429626107216L173.53079545454545,134.15357846021652L173.78636363636363,135.38749146461487L174.04193181818184,134.42014235258102L174.29749999999999,135.1818319708109L174.55306818181816,134.62621945142746L174.80863636363637,135.81461350619793L175.06420454545454,135.46839694678783L175.31977272727272,134.97287559509277L175.5753409090909,134.91252067685127L175.8309090909091,134.59955866634846L176.08647727272728,134.7486436665058L176.34204545454546,133.6432431191206L176.59761363636363,135.96174235641956L176.85318181818184,132.0076819807291L177.10875000000001,134.91016890108585L177.36431818181816,133.6613539904356L177.61988636363637,135.49793700873852L177.87545454545455,133.65467230975628L178.13102272727272,136.44060346484184L178.3865909090909,135.34682992100716L178.6421590909091,134.0993117839098L178.89772727272728,137.15404871106148L179.15329545454546,134.3266208022833L179.40886363636363,134.16465598344803L179.6644318181818,136.408228084445L179.92000000000002,133.46929962933064L180.17556818181816,132.84091393649578L180.43113636363637,135.901761084795L180.68670454545455,136.54359805583954L180.94227272727275,136.10429953038692L181.1978409090909,135.56062172353268L181.4534090909091,138.43541483581066L181.70897727272728,133.00575803220272L181.96454545454543,136.19760128855705L182.22011363636364,132.80880230665207L182.4756818181818,133.407669916749L182.73125000000002,135.7192237228155L182.98681818181817,136.63151490688324L183.24238636363637,136.24199929833412L183.49795454545455,136.9699288457632L183.75352272727275,137.8004573583603L184.0090909090909,138.77499367296696L184.26465909090908,137.51024383306503L184.52022727272728,137.67025250196457L184.77579545454543,137.13310252130032L185.03136363636364,136.19151304662228L185.2869318181818,134.91605933010578L185.54250000000002,134.48757457733154L185.79806818181817,136.0505383759737L186.05363636363637,137.79107223451138L186.30920454545455,136.52012425661087L186.56477272727275,136.78569908440113L186.8203409090909,135.52897165715694L187.07590909090908,136.0800125002861L187.33147727272728,135.42432862520218L187.58704545454543,136.4784296900034L187.84261363636364,135.53690615296364L188.0981818181818,136.28855127096176L188.35375000000002,135.46657267212868L188.60931818181817,138.34784965217113L188.86488636363637,139.1487501859665L189.12045454545455,135.8420215845108L189.37602272727273,136.5202781111002L189.6315909090909,137.06191185116768L189.88715909090908,137.2695714533329L190.14272727272729,136.66593435406685L190.39829545454546,136.946872651577L190.65386363636364,139.03004045784473L190.90943181818182,136.55896152555943L191.16500000000002,135.055319622159L191.42056818181817,136.7159150838852L191.67613636363635,136.52095946669579L191.93170454545455,135.0480664819479L192.18727272727273,137.3652469664812L192.4428409090909,136.33261959254742L192.69840909090908,137.54881735146046L192.9539772727273,139.236776933074L193.20954545454546,137.32084895670414L193.46511363636364,136.67520958185196L193.72068181818182,138.27639523148537L193.97625,139.88171297311783L194.23181818181817,137.55721341073513L194.48738636363635,137.67565938830376L194.74295454545455,138.431062951684L194.99852272727273,138.02930492162704L195.2540909090909,137.6785606443882L195.50965909090908,137.81179863214493L195.7652272727273,135.72194914519787L196.02079545454546,138.27432918548584L196.27636363636364,136.69246326386929L196.53193181818182,140.05007374286652L196.7875,138.25265768170357L197.0430681818182,137.93103586137295L197.29863636363635,137.514200091362L197.55420454545455,138.47271355986595L197.80977272727273,139.35977260768414L198.0653409090909,140.1746739000082L198.32090909090908,140.6704590022564L198.5764772727273,138.3458935022354L198.83204545454547,139.15173935890198L199.0876136363636,137.27174739539623L199.34318181818182,139.8321718275547L199.59875,140.9639694094658L199.8543181818182,139.21114917099476L200.10988636363635,141.28027226030827L200.36545454545455,138.5896209925413L200.62102272727273,137.68346200883389L200.87659090909094,139.88197672367096L201.13215909090908,137.36674155294895L201.38772727272726,137.13145408034325L201.64329545454547,140.76285961270332L201.89886363636361,139.11863866448402L202.15443181818182,140.13680371642113L202.41,139.70376926660538L202.6655681818182,141.36847484111786L202.92113636363635,141.38570654392242L203.17670454545456,141.05375449359417L203.43227272727273,139.6067750006914L203.68784090909088,139.1219135671854L203.94340909090909,141.76530952751637L204.19897727272726,139.96595929563046L204.45454545454547,138.29681392014027L204.71011363636362,140.09222987294197L204.96568181818182,141.47905226051807L205.22125,139.5279135853052L205.4768181818182,138.41073217988014L205.73238636363635,138.88935151696205L205.98795454545456,139.82190753519535L206.24352272727273,141.96883703768253L206.4990909090909,142.29619543254375L206.7546590909091,141.072524741292L207.01022727272726,141.23369830846786L207.26579545454547,142.5335929095745L207.52136363636362,139.49290069937706L207.77693181818182,143.0640831887722L208.0325,139.03533744812012L208.2880681818182,140.94451780617237L208.54363636363635,139.89670279622078L208.79920454545453,140.7879598736763L209.05477272727273,141.03087413311005L209.3103409090909,139.6316994279623L209.5659090909091,140.81868681311607L209.82147727272726,140.57476150989532L210.07704545454547,139.42225950956345L210.33261363636365,139.5860266238451L210.58818181818182,139.39808237552643L210.84375,141.89254719018936L211.09931818181818,141.7387366592884L211.35488636363635,139.77961952984333L211.61045454545453,137.80738081037998L211.86602272727274,139.30097821354866L212.1215909090909,140.32718765735626L212.3771590909091,138.7506187260151L212.63272727272727,140.205950319767L212.88829545454547,138.81572115421295L213.14386363636365,139.67680077254772L213.3994318181818,140.35345281660557L213.655,139.71891294419765L213.91056818181818,138.45866884291172L214.16613636363638,140.47860245406628L214.42170454545453,143.59160627424717L214.67727272727274,143.14661513268948L214.9328409090909,141.1554962694645L215.1884090909091,141.81581775844097L215.44397727272727,141.4724584966898L215.69954545454544,140.55900241434574L215.95511363636365,140.7171428501606L216.2106818181818,139.83074317872524L216.46625,142.97851811349392L216.72181818181818,142.14864897727966L216.97738636363638,142.03059862554073L217.23295454545453,144.59480348229408L217.48852272727274,141.49294312298298L217.74409090909091,140.2831193357706L217.99965909090912,142.09603074193L218.25522727272727,141.64532500505447L218.51079545454544,142.64801669120789L218.76636363636365,141.28293174505234L219.0219318181818,141.6803598701954L219.2775,140.22632504999638L219.53306818181818,142.84235689044L219.78863636363639,142.7223064303398L220.04420454545453,140.666634619236L220.29977272727274,141.24552312493324L220.55534090909092,141.429137468338L220.81090909090906,141.31702150404453L221.06647727272727,142.28388707339764L221.32204545454545,140.81138971447945L221.57761363636365,141.89729470014572L221.8331818181818,142.6598195284605L222.08875,140.01637960970402L222.34431818181818,142.08352456986904L222.5998863636364,142.1990253329277L222.85545454545453,142.3349228054285L223.1110227272727,141.53013195097446L223.36659090909092,141.33095632493496L223.6221590909091,142.9231744557619L223.87772727272727,143.3858808428049L224.13329545454545,142.39068406820297L224.38886363636365,145.08335742354393L224.6444318181818,144.37448385357857L224.9,143.72807520627975L225.15556818181818,142.53671395778656L225.41113636363636,141.51731806993484L225.66670454545454,142.12036173045635L225.9222727272727,140.2177091985941L226.17784090909092,143.33027343451977L226.4334090909091,140.2913395613432L226.68897727272727,143.681808963418L226.94454545454545,141.83197247982025L227.20011363636365,144.20265036821365L227.45568181818183,142.45739097893238L227.71125,140.86868952214718L227.96681818181818,142.46871027350426L228.22238636363636,140.55731001496315L228.47795454545454,141.36851879954338L228.7335227272727,142.6856890618801L228.98909090909092,144.09596326947212L229.2446590909091,141.87549132108688L229.50022727272727,142.69015084207058L229.75579545454545,143.5646377801895L230.01136363636365,140.77978360652924L230.26693181818183,143.4306524991989L230.52249999999998,140.04587571322918L230.77806818181818,142.31149296462536L231.03363636363636,140.10493385791779L231.28920454545454,143.6114974617958L231.54477272727271,145.39941850304604L231.80034090909092,143.32381154596806L232.0559090909091,142.04244542121887L232.31147727272727,140.1678163856268L232.56704545454545,138.82972191274166L232.82261363636363,142.3055585771799L233.07818181818183,143.6398506462574L233.33374999999998,143.34671388566494L233.5893181818182,142.03369769454002L233.84488636363636,141.25022667646408L234.10045454545457,143.25644525885582L234.35602272727272,143.42867437005043L234.61159090909092,142.97682571411133L234.8671590909091,143.73495469987392L235.12272727272725,145.36161425709724L235.37829545454545,142.82870779931545L235.63386363636363,144.0988425463438L235.88943181818183,143.90942569077015L236.14499999999998,143.02849884331226L236.4005681818182,141.15998002886772L236.65613636363636,142.68582093715668L236.91170454545457,142.884644895792L237.16727272727272,144.4164201915264L237.42284090909092,142.05925951898098L237.6784090909091,142.6436208486557L237.93397727272725,141.70040491223335L238.18954545454545,142.0826454013586L238.44511363636363,140.35156260430813L238.70068181818183,141.19332249462605L238.95624999999998,143.03581792116165L239.2118181818182,143.9017549455166L239.46738636363636,142.7197788208723L239.72295454545457,141.30113053321838L239.97852272727272,142.0616112947464L240.2340909090909,140.52902276813984L240.4896590909091,143.34390054643154L240.74522727272725,143.83381719887257L241.00079545454545,143.47522634267807L241.25636363636363,142.41510297358036L241.51193181818184,142.66344609856606L241.76749999999998,145.5540642440319L242.0230681818182,143.41073933243752L242.27863636363637,141.42181839048862L242.53420454545454,143.2399168908596L242.78977272727272,142.27056767046452L243.0453409090909,143.14107637107372L243.3009090909091,143.2937439829111L243.55647727272728,140.99739979207516L243.81204545454545,142.98968355357647L244.06761363636363,142.01288338005543L244.32318181818184,144.9518557935953L244.57874999999999,140.59045466780663L244.83431818181816,144.48029178380966L245.08988636363637,142.13295581936836L245.34545454545454,144.2810941785574L245.60102272727272,142.29146990180016L245.8565909090909,144.17029696702957L246.1121590909091,142.95258264243603L246.36772727272728,142.468182772398L246.62329545454546,143.63437782227993L246.87886363636363,143.86493976414204L247.13443181818184,141.5954761505127L247.39000000000001,143.5140196532011L247.64556818181816,142.42213632166386L247.90113636363637,143.46072006225586L248.15670454545455,141.22358787059784L248.41227272727272,141.8058391958475L248.6678409090909,143.9803306311369L248.9234090909091,141.62653277814388L249.17897727272728,142.63487312197685L249.43454545454546,143.92344842851162L249.69011363636363,146.9392601698637L249.9456818181818,143.85329078137875L250.20125000000002,143.4358395934105L250.45681818181816,144.0465320199728L250.71238636363637,143.17690248787403L250.96795454545455,142.66294057667255L251.22352272727275,143.32633915543556L251.4790909090909,143.67976489663124L251.7346590909091,143.07654540240765L251.99022727272728,142.52585622668266L252.24579545454543,142.65153336524963L252.50136363636364,142.53576885163784L252.7569318181818,143.18514469265938L253.01250000000002,143.90010650455952L253.26806818181817,143.92725083231926L253.52363636363637,141.02258796989918L253.77920454545455,143.28506219387054L254.03477272727275,142.9118112027645L254.2903409090909,144.32826156914234L254.54590909090908,144.1427130550146L254.80147727272728,146.56864668428898L255.05704545454543,143.2514999359846L255.31261363636364,144.96341685950756L255.5681818181818,143.63283927738667L255.82375000000002,142.36690255999565L256.07931818181817,141.66317212581635L256.3348863636364,145.85375081002712L256.5904545454545,142.6486760675907L256.8460227272727,141.07900860905647L257.10159090909093,142.95328597724438L257.3571590909091,142.92196559906006L257.6127272727273,143.56828632950783L257.86829545454543,142.356022849679L258.12386363636364,144.82802490890026L258.3794318181818,141.49982261657715L258.635,142.95684660971165" style="fill: none;" fill="none"></path></g></g></g></g></g></g><g transform="translate(48, 177)" clip-path="url(#clip_1)"><clipPath id="clip_1"><rect width="281" height="23"></rect></clipPath><g><g><line x1="0" y1="0" x2="0" y2="5" style="visibility: inherit;" fill="rgb(0, 0, 0)" stroke="rgb(204, 204, 204)" stroke-width="1px"></line><line x1="25.556818181818183" y1="0" x2="25.556818181818183" y2="5" style="visibility: inherit;" fill="rgb(0, 0, 0)" stroke="rgb(204, 204, 204)" stroke-width="1px"></line><line x1="51.11363636363637" y1="0" x2="51.11363636363637" y2="5" style="visibility: inherit;" fill="rgb(0, 0, 0)" stroke="rgb(204, 204, 204)" stroke-width="1px"></line><line x1="76.67045454545455" y1="0" x2="76.67045454545455" y2="5" style="visibility: inherit;" fill="rgb(0, 0, 0)" stroke="rgb(204, 204, 204)" stroke-width="1px"></line><line x1="102.22727272727273" y1="0" x2="102.22727272727273" y2="5" style="visibility: inherit;" fill="rgb(0, 0, 0)" stroke="rgb(204, 204, 204)" stroke-width="1px"></line><line x1="127.7840909090909" y1="0" x2="127.7840909090909" y2="5" style="visibility: inherit;" fill="rgb(0, 0, 0)" stroke="rgb(204, 204, 204)" stroke-width="1px"></line><line x1="153.3409090909091" y1="0" x2="153.3409090909091" y2="5" style="visibility: inherit;" fill="rgb(0, 0, 0)" stroke="rgb(204, 204, 204)" stroke-width="1px"></line><line x1="178.89772727272728" y1="0" x2="178.89772727272728" y2="5" style="visibility: inherit;" fill="rgb(0, 0, 0)" stroke="rgb(204, 204, 204)" stroke-width="1px"></line><line x1="204.45454545454547" y1="0" x2="204.45454545454547" y2="5" style="visibility: inherit;" fill="rgb(0, 0, 0)" stroke="rgb(204, 204, 204)" stroke-width="1px"></line><line x1="230.01136363636365" y1="0" x2="230.01136363636365" y2="5" style="visibility: inherit;" fill="rgb(0, 0, 0)" stroke="rgb(204, 204, 204)" stroke-width="1px"></line><line x1="255.5681818181818" y1="0" x2="255.5681818181818" y2="5" style="visibility: inherit;" fill="rgb(0, 0, 0)" stroke="rgb(204, 204, 204)" stroke-width="1px"></line><line x1="281.125" y1="0" x2="281.125" y2="5" style="visibility: inherit;" fill="rgb(0, 0, 0)" stroke="rgb(204, 204, 204)" stroke-width="1px"></line></g><g transform="translate(0, 8)"><text x="0" y="0" dx="0em" dy="0.95em" style="text-anchor: middle; visibility: hidden; font-family: &quot;Helvetica Neue&quot;, sans-serif; font-size: 12px; font-weight: 200;" fill="rgb(50, 49, 63)" stroke="none" stroke-width="1px">-100</text><text x="25.556818181818183" y="0" dx="0em" dy="0.95em" style="text-anchor: middle; visibility: inherit; font-family: &quot;Helvetica Neue&quot;, sans-serif; font-size: 12px; font-weight: 200;" fill="rgb(50, 49, 63)" stroke="none" stroke-width="1px">0</text><text x="51.11363636363637" y="0" dx="0em" dy="0.95em" style="text-anchor: middle; visibility: inherit; font-family: &quot;Helvetica Neue&quot;, sans-serif; font-size: 12px; font-weight: 200;" fill="rgb(50, 49, 63)" stroke="none" stroke-width="1px">100</text><text x="76.67045454545455" y="0" dx="0em" dy="0.95em" style="text-anchor: middle; visibility: inherit; font-family: &quot;Helvetica Neue&quot;, sans-serif; font-size: 12px; font-weight: 200;" fill="rgb(50, 49, 63)" stroke="none" stroke-width="1px">200</text><text x="102.22727272727273" y="0" dx="0em" dy="0.95em" style="text-anchor: middle; visibility: inherit; font-family: &quot;Helvetica Neue&quot;, sans-serif; font-size: 12px; font-weight: 200;" fill="rgb(50, 49, 63)" stroke="none" stroke-width="1px">300</text><text x="127.7840909090909" y="0" dx="0em" dy="0.95em" style="text-anchor: middle; visibility: inherit; font-family: &quot;Helvetica Neue&quot;, sans-serif; font-size: 12px; font-weight: 200;" fill="rgb(50, 49, 63)" stroke="none" stroke-width="1px">400</text><text x="153.3409090909091" y="0" dx="0em" dy="0.95em" style="text-anchor: middle; visibility: inherit; font-family: &quot;Helvetica Neue&quot;, sans-serif; font-size: 12px; font-weight: 200;" fill="rgb(50, 49, 63)" stroke="none" stroke-width="1px">500</text><text x="178.89772727272728" y="0" dx="0em" dy="0.95em" style="text-anchor: middle; visibility: inherit; font-family: &quot;Helvetica Neue&quot;, sans-serif; font-size: 12px; font-weight: 200;" fill="rgb(50, 49, 63)" stroke="none" stroke-width="1px">600</text><text x="204.45454545454547" y="0" dx="0em" dy="0.95em" style="text-anchor: middle; visibility: inherit; font-family: &quot;Helvetica Neue&quot;, sans-serif; font-size: 12px; font-weight: 200;" fill="rgb(50, 49, 63)" stroke="none" stroke-width="1px">700</text><text x="230.01136363636365" y="0" dx="0em" dy="0.95em" style="text-anchor: middle; visibility: inherit; font-family: &quot;Helvetica Neue&quot;, sans-serif; font-size: 12px; font-weight: 200;" fill="rgb(50, 49, 63)" stroke="none" stroke-width="1px">800</text><text x="255.5681818181818" y="0" dx="0em" dy="0.95em" style="text-anchor: middle; visibility: inherit; font-family: &quot;Helvetica Neue&quot;, sans-serif; font-size: 12px; font-weight: 200;" fill="rgb(50, 49, 63)" stroke="none" stroke-width="1px">900</text><text x="281.125" y="0" dx="0em" dy="0.95em" style="text-anchor: middle; visibility: hidden; font-family: &quot;Helvetica Neue&quot;, sans-serif; font-size: 12px; font-weight: 200;" fill="rgb(50, 49, 63)" stroke="none" stroke-width="1px">1k</text></g><line x1="0" y1="0" x2="281.125" y2="0" fill="rgb(0, 0, 0)" stroke="rgb(204, 204, 204)" stroke-width="1px"></line></g></g></g></g></svg>