<svg viewBox="0 0 330 200" xmlns="http://www.w3.org/2000/svg"><g><g><g><g><g><line x1="58.59375" y1="177" x2="53.59375" y2="177" style="visibility: inherit;" fill="rgb(0, 0, 0)" stroke="rgb(204, 204, 204)" stroke-width="1px"></line><line x1="58.59375" y1="160.9090909090909" x2="53.59375" y2="160.9090909090909" style="visibility: inherit;" fill="rgb(0, 0, 0)" stroke="rgb(204, 204, 204)" stroke-width="1px"></line><line x1="58.59375" y1="144.8181818181818" x2="53.59375" y2="144.8181818181818" style="visibility: inherit;" fill="rgb(0, 0, 0)" stroke="rgb(204, 204, 204)" stroke-width="1px"></line><line x1="58.59375" y1="128.72727272727275" x2="53.59375" y2="128.72727272727275" style="visibility: inherit;" fill="rgb(0, 0, 0)" stroke="rgb(204, 204, 204)" stroke-width="1px"></line><line x1="58.59375" y1="112.63636363636364" x2="53.59375" y2="112.63636363636364" style="visibility: inherit;" fill="rgb(0, 0, 0)" stroke="rgb(204, 204, 204)" stroke-width="1px"></line><line x1="58.59375" y1="96.54545454545453" x2="53.59375" y2="96.54545454545453" style="visibility: inherit;" fill="rgb(0, 0, 0)" stroke="rgb(204, 204, 204)" stroke-width="1px"></line><line x1="58.59375" y1="80.45454545454544" x2="53.59375" y2="80.45454545454544" style="visibility: inherit;" fill="rgb(0, 0, 0)" stroke="rgb(204, 204, 204)" stroke-width="1px"></line><line x1="58.59375" y1="64.36363636363639" x2="53.59375" y2="64.36363636363639" style="visibility: inherit;" fill="rgb(0, 0, 0)" stroke="rgb(204, 204, 204)" stroke-width="1px"></line><line x1="58.59375" y1="48.27272727272728" x2="53.59375" y2="48.27272727272728" style="visibility: inherit;" fill="rgb(0, 0, 0)" stroke="rgb(204, 204, 204)" stroke-width="1px"></line><line x1="58.59375" y1="32.18181818181819" x2="53.59375" y2="32.18181818181819" style="visibility: inherit;" fill="rgb(0, 0, 0)" stroke="rgb(204, 204, 204)" stroke-width="1px"></line><line x1="58.59375" y1="16.090909090909093" x2="53.59375" y2="16.090909090909093" style="visibility: inherit;" fill="rgb(0, 0, 0)" stroke="rgb(204, 204, 204)" stroke-width="1px"></line><line x1="58.59375" y1="0" x2="53.59375" y2="0" style="visibility: inherit;" fill="rgb(0, 0, 0)" stroke="rgb(204, 204, 204)" stroke-width="1px"></line></g><g transform="translate(48.59375, 0)"><text x="0" y="177" dx="0em" dy="0.3em" style="text-anchor: end; visibility: hidden; font-family: &quot;Helvetica Neue&quot;, sans-serif; font-size: 12px; font-weight: 200;" fill="rgb(50, 49, 63)" stroke="none" stroke-width="1px">-0.02</text><text x="0" y="160.9090909090909" dx="0em" dy="0.3em" style="text-anchor: end; visibility: inherit; font-family: &quot;Helvetica Neue&quot;, sans-serif; font-size: 12px; font-weight: 200;" fill="rgb(50, 49, 63)" stroke="none" stroke-width="1px">0</text><text x="0" y="144.8181818181818" dx="0em" dy="0.3em" style="text-anchor: end; visibility: hidden; font-family: &quot;Helvetica Neue&quot;, sans-serif; font-size: 12px; font-weight: 200;" fill="rgb(50, 49, 63)" stroke="none" stroke-width="1px">0.02</text><text x="0" y="128.72727272727275" dx="0em" dy="0.3em" style="text-anchor: end; visibility: inherit; font-family: &quot;Helvetica Neue&quot;, sans-serif; font-size: 12px; font-weight: 200;" fill="rgb(50, 49, 63)" stroke="none" stroke-width="1px">0.04</text><text x="0" y="112.63636363636364" dx="0em" dy="0.3em" style="text-anchor: end; visibility: hidden; font-family: &quot;Helvetica Neue&quot;, sans-serif; font-size: 12px; font-weight: 200;" fill="rgb(50, 49, 63)" stroke="none" stroke-width="1px">0.06</text><text x="0" y="96.54545454545453" dx="0em" dy="0.3em" style="text-anchor: end; visibility: inherit; font-family: &quot;Helvetica Neue&quot;, sans-serif; font-size: 12px; font-weight: 200;" fill="rgb(50, 49, 63)" stroke="none" stroke-width="1px">0.08</text><text x="0" y="80.45454545454544" dx="0em" dy="0.3em" style="text-anchor: end; visibility: hidden; font-family: &quot;Helvetica Neue&quot;, sans-serif; font-size: 12px; font-weight: 200;" fill="rgb(50, 49, 63)" stroke="none" stroke-width="1px">0.1</text><text x="0" y="64.36363636363639" dx="0em" dy="0.3em" style="text-anchor: end; visibility: inherit; font-family: &quot;Helvetica Neue&quot;, sans-serif; font-size: 12px; font-weight: 200;" fill="rgb(50, 49, 63)" stroke="none" stroke-width="1px">0.12</text><text x="0" y="48.27272727272728" dx="0em" dy="0.3em" style="text-anchor: end; visibility: hidden; font-family: &quot;Helvetica Neue&quot;, sans-serif; font-size: 12px; font-weight: 200;" fill="rgb(50, 49, 63)" stroke="none" stroke-width="1px">0.14</text><text x="0" y="32.18181818181819" dx="0em" dy="0.3em" style="text-anchor: end; visibility: inherit; font-family: &quot;Helvetica Neue&quot;, sans-serif; font-size: 12px; font-weight: 200;" fill="rgb(50, 49, 63)" stroke="none" stroke-width="1px">0.16</text><text x="0" y="16.090909090909093" dx="0em" dy="0.3em" style="text-anchor: end; visibility: hidden; font-family: &quot;Helvetica Neue&quot;, sans-serif; font-size: 12px; font-weight: 200;" fill="rgb(50, 49, 63)" stroke="none" stroke-width="1px">0.18</text><text x="0" y="0" dx="0em" dy="0.3em" style="text-anchor: end; visibility: hidden; font-family: &quot;Helvetica Neue&quot;, sans-serif; font-size: 12px; font-weight: 200;" fill="rgb(50, 49, 63)" stroke="none" stroke-width="1px">0.2</text></g><line x1="58.59375" y1="0" x2="58.59375" y2="177" fill="rgb(0, 0, 0)" stroke="rgb(204, 204, 204)" stroke-width="1px"></line></g></g><g transform="translate(58, 0)" clip-path="url(#clip_0)"><clipPath id="clip_0"><rect width="271" height="177"></rect></clipPath><g><g><g><line x1="0" y1="0" x2="0" y2="177" fill="rgb(0, 0, 0)" stroke="rgb(60, 60, 60)" stroke-width="1px" opacity="0.25"></line><line x1="24.673295454545457" y1="0" x2="24.673295454545457" y2="177" fill="rgb(0, 0, 0)" stroke="rgb(60, 60, 60)" stroke-width="1px" opacity="0.25"></line><line x1="49.346590909090914" y1="0" x2="49.346590909090914" y2="177" fill="rgb(0, 0, 0)" stroke="rgb(60, 60, 60)" stroke-width="1px" opacity="0.25"></line><line x1="74.01988636363636" y1="0" x2="74.01988636363636" y2="177" fill="rgb(0, 0, 0)" stroke="rgb(60, 60, 60)" stroke-width="1px" opacity="0.25"></line><line x1="98.69318181818183" y1="0" x2="98.69318181818183" y2="177" fill="rgb(0, 0, 0)" stroke="rgb(60, 60, 60)" stroke-width="1px" opacity="0.25"></line><line x1="123.36647727272727" y1="0" x2="123.36647727272727" y2="177" fill="rgb(0, 0, 0)" stroke="rgb(60, 60, 60)" stroke-width="1px" opacity="0.25"></line><line x1="148.03977272727272" y1="0" x2="148.03977272727272" y2="177" fill="rgb(0, 0, 0)" stroke="rgb(60, 60, 60)" stroke-width="1px" opacity="0.25"></line><line x1="172.7130681818182" y1="0" x2="172.7130681818182" y2="177" fill="rgb(0, 0, 0)" stroke="rgb(60, 60, 60)" stroke-width="1px" opacity="0.25"></line><line x1="197.38636363636365" y1="0" x2="197.38636363636365" y2="177" fill="rgb(0, 0, 0)" stroke="rgb(60, 60, 60)" stroke-width="1px" opacity="0.25"></line><line x1="222.0596590909091" y1="0" x2="222.0596590909091" y2="177" fill="rgb(0, 0, 0)" stroke="rgb(60, 60, 60)" stroke-width="1px" opacity="0.25"></line><line x1="246.73295454545453" y1="0" x2="246.73295454545453" y2="177" fill="rgb(0, 0, 0)" stroke="rgb(60, 60, 60)" stroke-width="1px" opacity="0.25"></line><line x1="271.40625" y1="0" x2="271.40625" y2="177" fill="rgb(0, 0, 0)" stroke="rgb(60, 60, 60)" stroke-width="1px" opacity="0.25"></line></g><g><line x1="0" y1="177" x2="271.40625" y2="177" fill="rgb(0, 0, 0)" stroke="rgb(60, 60, 60)" stroke-width="1px" opacity="0.25"></line><line x1="0" y1="160.9090909090909" x2="271.40625" y2="160.9090909090909" fill="rgb(0, 0, 0)" stroke="rgb(60, 60, 60)" stroke-width="1px" opacity="0.25"></line><line x1="0" y1="144.8181818181818" x2="271.40625" y2="144.8181818181818" fill="rgb(0, 0, 0)" stroke="rgb(60, 60, 60)" stroke-width="1px" opacity="0.25"></line><line x1="0" y1="128.72727272727275" x2="271.40625" y2="128.72727272727275" fill="rgb(0, 0, 0)" stroke="rgb(60, 60, 60)" stroke-width="1px" opacity="0.25"></line><line x1="0" y1="112.63636363636364" x2="271.40625" y2="112.63636363636364" fill="rgb(0, 0, 0)" stroke="rgb(60, 60, 60)" stroke-width="1px" opacity="0.25"></line><line x1="0" y1="96.54545454545453" x2="271.40625" y2="96.54545454545453" fill="rgb(0, 0, 0)" stroke="rgb(60, 60, 60)" stroke-width="1px" opacity="0.25"></line><line x1="0" y1="80.45454545454544" x2="271.40625" y2="80.45454545454544" fill="rgb(0, 0, 0)" stroke="rgb(60, 60, 60)" stroke-width="1px" opacity="0.25"></line><line x1="0" y1="64.36363636363639" x2="271.40625" y2="64.36363636363639" fill="rgb(0, 0, 0)" stroke="rgb(60, 60, 60)" stroke-width="1px" opacity="0.25"></line><line x1="0" y1="48.27272727272728" x2="271.40625" y2="48.27272727272728" fill="rgb(0, 0, 0)" stroke="rgb(60, 60, 60)" stroke-width="1px" opacity="0.25"></line><line x1="0" y1="32.18181818181819" x2="271.40625" y2="32.18181818181819" fill="rgb(0, 0, 0)" stroke="rgb(60, 60, 60)" stroke-width="1px" opacity="0.25"></line><line x1="0" y1="16.090909090909093" x2="271.40625" y2="16.090909090909093" fill="rgb(0, 0, 0)" stroke="rgb(60, 60, 60)" stroke-width="1px" opacity="0.25"></line><line x1="0" y1="0" x2="271.40625" y2="0" fill="rgb(0, 0, 0)" stroke="rgb(60, 60, 60)" stroke-width="1px" opacity="0.25"></line></g></g></g><g><g><line x1="0" y1="160.9090909090909" x2="271.40625" y2="160.9090909090909" fill="rgb(0, 0, 0)" stroke="rgb(153, 153, 153)" stroke-width="1.5px"></line></g></g><g><g><line x1="24.673295454545457" y1="0" x2="24.673295454545457" y2="177" fill="rgb(0, 0, 0)" stroke="rgb(153, 153, 153)" stroke-width="1.5px"></line></g></g><g><g><g><g><g><path stroke="rgb(51, 187, 238)" stroke-width="2px" d="M25.906960227272727,-23.97706165909767L26.15369318181818,1.2061888250437676L26.400426136363638,8.758733868598938L26.64715909090909,12.370318147269188L26.893892045454546,14.6145116605542L27.140625,16.909704939885586L27.387357954545454,18.922025750983863L27.63409090909091,20.388946384191513L27.880823863636362,21.964436335997163L28.12755681818182,23.465812382372945L28.37428977272727,24.35930334708908L28.621022727272727,25.52216754718262L28.867755681818185,32.76138892227954L29.114488636363635,42.14316393841398L29.361221590909093,44.64934567158872L29.607954545454543,46.39447518370369L29.8546875,48.47220613197848L30.101420454545455,49.81537980112164L30.34815340909091,51.22560605406761L30.594886363636366,52.804069193926736L30.841619318181817,54.03680331327699L31.088352272727274,55.5084594677795L31.335085227272724,55.950889031995445L31.581818181818182,57.287385016679764L31.82855113636364,58.552248748866006L32.07528409090909,59.136731963266044L32.322017045454544,60.143204074014335L32.56875,61.0148277201436L32.81548295454545,62.33410199257462L33.06221590909091,62.996103892272174L33.30894886363637,64.58075318146835L33.55568181818182,64.49971582401882L33.802414772727275,65.36335502158514L34.049147727272725,65.47851210968062L34.29588068181818,66.50103104385464L34.54261363636363,67.43321541358124L34.78934659090909,67.29849282990804L35.03607954545455,68.41584207659419L35.2828125,68.81073060360822L35.529545454545456,69.73417523909698L35.77627840909091,69.90001439370893L36.023011363636364,70.54317011751913L36.26974431818182,71.04831237007271L36.51647727272727,72.20916247503325L36.76321022727273,72.02669504691254L37.00994318181818,72.95129658823664L37.25667613636364,72.69695713438772L37.50340909090909,73.5172033716332L37.750142045454545,74.3142935091799L37.996875,74.67688458209689L38.24360795454545,75.00055446543477L38.49034090909091,74.85934002155608L38.73707386363636,75.46350262381814L38.98380681818182,75.77260028909555L39.23053977272727,76.52416348457336L39.47727272727273,76.24756108630787L39.724005681818184,76.9506061686711L39.970738636363635,77.0950935171409L40.21747159090909,77.47787949036469L40.46420454545454,77.70717463032767L40.7109375,77.72720768370412L40.95767045454546,78.28712013634768L41.20440340909091,78.09706987982446L41.451136363636365,79.24811325967312L41.697869318181816,79.125157547268L41.94460227272727,79.61657278239727L42.19133522727273,79.45961123163049L42.43806818181818,80.49540161409162L42.68480113636364,80.05245653743093L42.93153409090909,80.01912805844437L43.17826704545455,80.15135700052434L43.425000000000004,80.82586307417263L43.671732954545455,80.71346937255427L43.918465909090905,80.96083142540671L44.16519886363636,81.3663718781688L44.41193181818182,81.5527655929327L44.65866477272727,81.39289679175073L44.90539772727273,81.75118992951784L45.15213068181818,81.65151020342653L45.398863636363636,82.16888089071621L45.64559659090909,82.91553472930734L45.892329545454544,81.89056411385536L46.1390625,82.3308357190002L46.38579545454545,82.87848377092317L46.63252840909091,82.89518997073174L46.87926136363637,83.13854181631044L47.12599431818182,82.79641538858414L47.372727272727275,83.09198384935205L47.619460227272725,83.5320516472513L47.86619318181818,83.43643008307978L48.11292613636364,83.6489171196114L48.35965909090909,83.73991106044163L48.60639204545454,83.46306888894603L48.853125,83.97647732360795L49.099857954545456,84.20573649758641L49.346590909090914,84.09841399978508L49.593323863636364,84.78106636892666L49.840056818181814,84.67086659236386L50.08678977272727,84.62530368431047L50.33352272727273,85.42864590883255L50.58025568181819,85.30154211954638L50.82698863636364,85.36601714112543L51.07372159090909,85.42675170031461L51.320454545454545,85.50454612482677L51.5671875,85.43613282794301L51.81392045454545,85.54069193926725L52.060653409090904,85.92575575817715L52.30738636363636,85.98463806916367L52.55411931818182,85.98397269845009L52.800852272727276,86.03065055202354L53.04758522727273,86.03136987171389L53.29431818181818,86.321279684251L53.541051136363635,86.91772158850323L53.78778409090909,86.80264242670752L54.03451704545455,86.39313372698697L54.28125,87.20862046561457L54.52798295454545,86.85624972663142L54.77471590909091,86.53316129337658L55.021448863636365,87.07964045080271L55.26818181818182,87.39852086386897L55.51491477272727,86.96628765626386L55.761647727272724,87.5185573371974L56.00838068181818,87.02310791747138L56.25511363636364,87.00188798660581L56.501846590909096,87.5104230303656L56.74857954545454,87.30024381117389L56.9953125,88.08687384155664L57.242045454545455,88.02343583919786L57.48877840909091,87.93065558780323L57.73551136363637,87.39472045817159L57.98224431818181,87.56726127456535L58.22897727272727,87.79158112000336L58.47571022727273,88.00245568156242L58.722443181818186,88.17763999781825L58.969176136363636,88.43428726900707L59.215909090909086,88.1599507277662L59.462642045454544,87.94308183545415L59.709375,87.68632666631177L59.95610795454546,88.16827085885134L60.20284090909091,88.14913695508783L60.44957386363636,88.55236359617926L60.69630681818182,87.91037077253515L60.943039772727275,88.54893483898856L61.18977272727273,88.72217099774967L61.436505681818176,88.31612102687359L61.68323863636363,88.72639100659977L61.92997159090909,88.81736097010699L62.17670454545455,88.99573427032341L62.423437500000006,89.15924762460318L62.67017045454545,89.06047304245558L62.91690340909091,88.83089017461647L63.163636363636364,88.90697022053328L63.41036931818182,89.18139667673543L63.65710227272728,89.21792013401335L63.90383522727272,89.00130899792367L64.15056818181819,89.43478303199464L64.39730113636364,89.0564928068356L64.64403409090909,89.290145825256L64.89076704545455,89.51046745208177L65.1375,89.31984773413701L65.38423295454545,88.98449490016156L65.6309659090909,89.19163499366154L65.87769886363637,89.8697496544231L66.12443181818182,90.01348171721806L66.37116477272727,89.6803347969597L66.61789772727273,90.23421095853502L66.86463068181818,89.74563703618266L67.11136363636363,89.71539563753387L67.35809659090908,89.76203752512282L67.60482954545455,89.77345073087648L67.8515625,90.75783373280004L68.09829545454545,89.77133473212069L68.34502840909092,90.09194750677456L68.59176136363637,90.05328407341784L68.83849431818183,90.25926126675172L69.08522727272727,90.38411118767478L69.33196022727272,89.78419257158583L69.57869318181818,89.9460874565623L69.82542613636363,90.42696465822783L70.0721590909091,90.3696528618986L70.31889204545455,90.3622438690879L70.565625,90.75268460268325L70.81235795454546,90.49443085085262L71.05909090909091,90.56237658993764L71.30582386363638,91.38865312392062L71.55255681818181,90.77591263435103L71.79928977272726,91.02822600440545L72.04602272727273,90.34917622804642L72.29275568181818,90.7482787695798L72.53948863636364,90.45180516486818L72.7862215909091,90.6216365437616L73.03295454545454,90.94711072065613L73.27968750000001,90.90771597894755L73.52642045454546,90.97187929532744L73.7731534090909,90.89490609412843L74.01988636363636,90.90506648475474L74.26661931818181,91.50492515753616L74.51335227272727,91.56921435486187L74.76008522727273,91.23386152088642L75.00681818181818,91.34938426315784L75.25355113636364,91.35087085718459L75.50028409090909,91.02959870614788L75.74701704545456,91.55931172045794L75.99375,91.09574015167627L76.24048295454544,92.02955497936769L76.4872159090909,91.66596285321495L76.73394886363636,91.76540280607614L76.98068181818182,91.51269980452277L77.22741477272727,91.59376113929531L77.47414772727272,91.48115164176984L77.72088068181819,91.9450948590582L77.96761363636364,91.97974209081043L78.2143465909091,91.66282781823114L78.46107954545454,91.85292003506964L78.70781249999999,91.76889750090513L78.95454545454545,91.96508595211938L79.2012784090909,92.27974635633555L79.44801136363637,91.98875156993216L79.69474431818182,91.89069031314416L79.94147727272727,91.94270312108776L80.18821022727273,91.84608050368048L80.43494318181818,92.01510864225301L80.68167613636365,92.23775606941093L80.92840909090908,92.50120091167364L81.17514204545454,91.7731594700705L81.421875,92.6288921453736L81.66860795454545,93.1023783372207L81.91534090909092,92.96144562688741L82.16207386363637,92.49897701496428L82.40880681818182,92.08677086640488L82.65553977272728,92.53674129870805L82.90227272727273,92.82204746522686L83.14900568181818,92.71498871797866L83.39573863636363,92.48489033769478L83.64247159090908,92.82146601514383L83.88920454545455,92.46421589092775L84.1359375,92.67865707928485L84.38267045454546,92.64440547336231L84.62940340909091,92.86894111470743L84.87613636363636,93.32196266136386L85.12286931818183,92.6785971359773L85.36960227272728,92.90281507779251L85.61633522727273,92.8805581277067L85.86306818181818,93.11367765069008L86.10980113636363,93.38878146626732L86.3565340909091,93.02696366201748L86.60326704545454,93.0083992196755L86.85000000000001,93.01471724428913L87.09673295454546,93.02457791837779L87.34346590909091,93.52786792272872L87.59019886363637,93.19421747868711L87.83693181818181,93.49544458768584L88.08366477272726,92.88447842001915L88.33039772727273,93.88164732943882L88.57713068181818,93.70845912532373L88.82386363636364,93.55408712544224L89.07059659090909,93.69866438887335L89.31732954545454,93.94557087258859L89.5640625,93.44649488275701L89.81079545454546,93.58713387088342L90.05752840909092,93.38990240611813L90.30426136363636,94.22209534455429L90.55099431818181,94.10757964984937L90.79772727272727,94.23465346748179L91.04446022727272,94.00498667901212L91.29119318181819,93.92917038364843L91.53792613636364,93.74342405660585L91.78465909090909,94.36709820546886L92.03139204545455,94.35847236351533L92.278125,94.52466518364169L92.52485795454545,94.01355257765813L92.7715909090909,94.21379319646141L93.01832386363635,94.61754134432836L93.26505681818182,94.64530708437616L93.51178977272727,93.60898920080878L93.75852272727273,94.39818480475381L94.00525568181818,94.55518831583586L94.25198863636363,94.83547722751445L94.4987215909091,94.71382228488272L94.74545454545455,94.58257641304623L94.9921875,94.63966641913761L95.23892045454545,94.16939318857409L95.4856534090909,94.90243390202522L95.73238636363637,94.82004182582551L95.97911931818182,94.90478367968038L96.22585227272728,94.8093719170852L96.47258522727273,94.46891790763898L96.71931818181818,94.81512647460808L96.96605113636365,94.9081345105713L97.21278409090908,94.88452284173532L97.45951704545455,95.11392587965184L97.70625,95.33415159718557L97.95298295454545,94.83506361869249L98.19971590909091,94.79209625585511L98.44644886363636,95.49419423395938L98.69318181818183,94.73332184282216L98.93991477272728,95.20843249830332L99.18664772727273,95.49941529604521L99.43338068181819,95.15566440468484L99.68011363636363,95.5663599818945L99.9268465909091,95.7713900709694L100.17357954545454,95.5272589623928L100.4203125,94.96470300988717L100.66704545454546,95.92694295400923L100.91377840909091,95.71844214742833L101.16051136363637,95.16855221580376L101.40724431818182,95.88814764537594L101.65397727272727,95.4282685843381L101.90071022727273,95.68190070715818L102.14744318181818,96.27034017985517L102.39417613636363,95.38962912830439L102.64090909090909,96.08757902952757L102.88764204545454,96.00322680717164L103.134375,95.33008744093505L103.38110795454546,95.53506957536393L103.6278409090909,95.87853273884816L103.87457386363637,95.78200003640218L104.12130681818181,96.33831589059396L104.36803977272727,96.44231153482741L104.61477272727272,96.22004175050691L104.86150568181817,96.36802978813648L105.10823863636364,96.08619433912364L105.35497159090909,96.59067721529439L105.60170454545455,96.63677961311556L105.8484375,96.50737400082025L106.09517045454545,96.59251747483557L106.34190340909092,96.18799605830148L106.58863636363635,96.3918152925643L106.83536931818182,96.81232958354732L107.08210227272727,96.59945890984751L107.32883522727272,96.56757506457242L107.57556818181818,96.5752657909285L107.82230113636363,96.55473520809954L108.0690340909091,96.52714929797432L108.31576704545455,96.8598706207492L108.5625,97.48759693720123L108.80923295454545,96.78202824159101L109.0559659090909,97.52055976201187L109.30269886363637,97.29648568413474L109.54943181818182,96.49855034595186L109.79616477272727,96.99302268976516L110.04289772727273,97.5572210888971L110.28963068181818,97.31921618635005L110.53636363636365,97.90398113429546L110.7830965909091,97.26637616076252L111.02982954545455,97.48497741466218L111.2765625,97.81033769927241L111.52329545454545,97.53492217849602L111.77002840909091,97.99051529304548L112.01676136363636,97.65344808047467L112.26349431818181,97.48848409815267L112.51022727272728,97.71076587113467L112.75696022727273,97.53008475357836L113.00369318181819,97.37439999526197L113.25042613636364,97.65523439103907L113.49715909090908,97.469014511867L113.74389204545454,98.2320568507368L113.990625,97.59059752252969L114.23735795454546,98.1973916359923L114.48409090909091,98.22427021508867L114.73082386363636,98.01584134047681L114.97755681818182,97.8482158753005L115.22428977272727,98.31341190771623L115.47102272727274,98.53932624513453L115.71775568181819,98.40135473419319L115.96448863636363,98.44976494935426L116.21122159090909,98.27862680635668L116.45795454545454,98.31254272975704L116.70468749999999,98.54580611667849L116.95142045454546,98.26156094670296L117.1981534090909,98.23220071467486L117.44488636363637,98.9618486369198L117.69161931818182,98.80198583006859L117.93835227272727,98.69955470616168L118.18508522727272,99.32649576528505L118.43181818181817,98.90923040157014L118.67855113636364,98.88141071254557L118.92528409090909,99.54686534675685L119.17201704545454,99.23628108745271L119.41875,98.99901348758827L119.66548295454545,99.26942973651668L119.91221590909092,99.33138713917948L120.15894886363637,99.1518629274585L120.40568181818182,99.63002469729294L120.65241477272727,99.29121912880376L120.89914772727272,99.38429310240528L121.14588068181818,99.56812124360691L121.39261363636363,99.64327216825701L121.63934659090908,99.42912470210682L121.88607954545455,99.31591577150604L122.1328125,99.95996465059844L122.37954545454546,99.71863289448348L122.62627840909092,100.04549775611271L122.87301136363635,99.79739840057763L123.11974431818182,99.78601516647771L123.36647727272727,99.88562895493074L123.61321022727273,99.85469820824537L123.85994318181818,100.08102016015485L124.10667613636363,99.74949170919982L124.3534090909091,100.18369705162264L124.60014204545455,100.3373077714985L124.84687500000001,100.10045977478677L125.09360795454546,100.69013407961889L125.3403409090909,100.8005076917735L125.58707386363636,99.8699657686732L125.83380681818181,100.3151767023585L126.08053977272728,100.46793023293668L126.32727272727273,100.56868893856353L126.57400568181818,100.92617883600971L126.82073863636364,100.74335174804384L127.0674715909091,101.14879629151388L127.31420454545456,100.61376031149517L127.5609375,100.92924793335524L127.80767045454544,101.21240213513374L128.0544034090909,101.13060949200934L128.30113636363637,100.96269629895687L128.54786931818182,101.43279569392854L128.79460227272727,101.26297030936588L129.04133522727273,101.11437684433027L129.28806818181818,101.44712813875891L129.53480113636365,101.58019029281355L129.7815340909091,101.19639127769253L130.02826704545453,101.61745105277409L130.275,101.54922957447442L130.52173295454546,101.40764348208904L130.7684659090909,101.44743384962732L131.01519886363636,101.85842914337462L131.2619318181818,102.16381032358517L131.5086647727273,101.92892846736041L131.75539772727274,101.67249099774793L132.0021306818182,101.38495494018902L132.24886363636364,101.60182383250107L132.4955965909091,102.20195225016637L132.74232954545454,102.29279033839703L132.9890625,101.74748007546772L133.23579545454547,102.02352500097318L133.48252840909092,102.27900937199593L133.72926136363637,102.09189633754167L133.97599431818182,102.13223818350922L134.22272727272727,102.0951692421328L134.46946022727275,102.3510911993005L134.71619318181817,102.54626061428677L134.96292613636362,102.12963064963168L135.2096590909091,102.63116431507197L135.45639204545455,102.26586380465463L135.703125,102.3961445892399L135.94985795454545,102.91431252251972L136.1965909090909,102.79305920004845L136.44332386363635,102.7341409230774L136.69005681818183,102.77528001503511L136.93678977272725,103.06480619040403L137.18352272727273,102.6409650458531L137.43025568181818,102.64847594228658L137.67698863636366,102.96554606746544L137.92372159090908,103.0901921811429L138.17045454545453,102.94678381220861L138.4171875,102.81638913533904L138.66392045454543,102.52646133980967L138.9106534090909,103.10969173908234L139.15738636363636,103.23628001592375L139.4041193181818,103.58382531865075L139.65085227272726,102.7973990955136L139.89758522727274,103.96974632685834L140.1443181818182,103.71250561692497L140.39105113636361,103.21977762336081L140.6377840909091,102.9575316472487L140.88451704545454,103.45414396714081L141.13125,103.41837579553777L141.37798295454544,103.49301720207387L141.62471590909092,103.24716572057118L141.87144886363635,103.72008844532749L142.11818181818182,103.65675834092227L142.36491477272727,103.98879031566057L142.61164772727275,103.55447707528418L142.85838068181818,103.73916840011424L143.10511363636363,103.76689217984676L143.3518465909091,103.69722606783563L143.59857954545453,103.90351496636868L143.8453125,104.229091046886L144.09204545454546,104.13629880682988L144.3387784090909,103.85580009357496L144.58551136363636,104.14884494109586L144.83224431818184,103.71736102483489L145.0789772727273,104.02365933765064L145.3257102272727,103.90802869742566L145.5724431818182,104.08888365057382L145.81917613636364,104.59854562851515L146.0659090909091,103.99793766438961L146.31264204545454,103.97420011460781L146.55937500000002,104.04721705750985L146.80610795454544,104.32545590807091L147.05284090909092,104.29185768420047L147.29957386363637,104.28963978182186L147.5463068181818,104.1909371316433L147.79303977272727,104.07234529202634L148.03977272727272,104.37799022279002L148.2865056818182,104.07498879188842L148.53323863636362,104.71918153491887L148.7799715909091,104.18287475678054L149.02670454545455,104.77098454128613L149.2734375,103.98220854049379L149.52017045454545,104.14864712818101L149.7669034090909,105.11190011420032L150.01363636363635,104.90553928369826L150.2603693181818,103.98398885672742L150.50710227272728,104.12007814781232L150.75383522727273,103.97819833322004L151.00056818181818,104.57128940658136L151.24730113636363,104.69875285571271L151.4940340909091,104.58501042967492L151.74076704545453,104.18266495520419L151.9875,104.89831012081017L152.23423295454546,104.53598879277706L152.48096590909088,104.42448824644089L152.72769886363636,104.85032550313255L152.9744318181818,104.66938662935387L153.2211647727273,104.21686860648069L153.4678977272727,104.37426174906167L153.7146306818182,104.41931513900107L153.96136363636364,104.76158543066545L154.2080965909091,105.03409370102665L154.45482954545454,105.48876968297091L154.7015625,104.89688347009096L154.94829545454544,104.57173898138782L155.1950284090909,104.74953682585195L155.44176136363637,105.1562042127956L155.68849431818182,104.85965867611495L155.93522727272727,105.22901734845205L156.18196022727273,104.8951930688186L156.4286931818182,104.91147367114371L156.67542613636363,104.99519049443981L156.92215909090908,105.05191484635526L157.16889204545456,104.92175394838506L157.41562499999998,104.99429733915761L157.66235795454546,104.71329510211945L157.9090909090909,105.32285260205919L158.15582386363639,104.90106751295653L158.4025568181818,104.56656587394801L158.6492897727273,104.88987010310997L158.89602272727274,104.96260531246662L159.14275568181816,104.53955541957508L159.38948863636364,105.1764230904254L159.6362215909091,104.97246598655528L159.88295454545454,105.13766974210739L160.1296875,105.92969467016783L160.37642045454547,105.76824336566708L160.62315340909092,105.55169217288494L160.86988636363637,105.36218740046024L161.11661931818182,105.32919460399583L161.3633522727273,105.06971800869161L161.61008522727272,105.14103855599056L161.85681818181817,105.12687395242128L162.10355113636365,105.31263826245612L162.35028409090907,105.89267967776819L162.59701704545455,105.44836189936508L162.84375,105.48670163886113L163.09048295454548,105.56506552479483L163.3372159090909,105.22559458559209L163.58394886363638,105.3718682446263L163.83068181818183,104.83682627027684L164.07741477272725,105.58452911674976L164.32414772727273,105.95463708043098L164.57088068181818,105.34313741732727L164.81761363636363,105.86049611595544L165.06434659090908,106.08015836639836L165.31107954545456,105.43548607690767L165.55781249999998,105.84078076210889L165.80454545454546,105.80759015272965L166.0512784090909,105.51100865006447L166.29801136363636,104.77223136208274L166.5447443181818,105.68840487436815L166.79147727272726,105.59895747087218L167.03821022727274,105.61411713334647L167.28494318181816,105.56214029138738L167.53167613636364,105.1957128467885L167.7784090909091,105.75910800559953L168.02514204545454,105.81866767596115L168.271875,105.82521947947416L168.51860795454544,105.81390218301252L168.76534090909092,106.16081808101048L169.01207386363635,105.83490631797096L169.25880681818182,106.20894056829539L169.50553977272727,105.72446077384731L169.75227272727273,105.77514883469452L169.99900568181818,106.00433008237317L170.24573863636365,106.01154725659977L170.49247159090908,105.94424291090532L170.73920454545456,105.76237491585991L170.9859375,105.74514720927586L171.23267045454546,106.01825491271235L171.4794034090909,105.84624159742485L171.72613636363636,105.7349688356573L171.97286931818184,106.04368286376649L172.21960227272726,106.67704984545708L172.46633522727274,105.98983579061247L172.7130681818182,106.12699806690216L172.95980113636364,106.46336993710561L173.2065340909091,105.99711890247735L173.45326704545454,106.21873530474576L173.70000000000002,105.99426560103893L173.94673295454544,105.96066737716848L174.19346590909092,106.68700642883778L174.44019886363637,106.34990325028247L174.68693181818182,105.97746349193832L174.93366477272727,105.99566827443513L175.18039772727275,106.99069720777598L175.42713068181817,106.25590614974499L175.67386363636362,106.51849979704076L175.9205965909091,106.35613735426556L176.16732954545452,106.52872013097459L176.4140625,106.52936152436516L176.66079545454545,106.18445372716947L176.90752840909093,106.26306937499479L177.15426136363635,106.65134016085754L177.40099431818183,106.93007054654035L177.64772727272728,106.71789521520788L177.8944602272727,106.49668043309993L178.14119318181818,106.47775633091277L178.38792613636363,107.11378479545766L178.63465909090908,106.90183125436306L178.88139204545453,106.8404553017833L179.128125,106.74522936344147L179.37485795454546,106.90165741877122L179.6215909090909,106.83245886455883L179.86832386363636,106.88970472324978L180.11505681818184,106.83751807971433L180.36178977272726,106.44219196655533L180.6085227272727,106.82959956878966L180.8552556818182,106.74783689731902L181.10198863636361,106.85243796895851L181.3487215909091,107.56105777892199L181.59545454545454,106.63731342689557L181.84218750000002,107.10424182089892L182.08892045454544,106.99601417915387L182.33565340909092,107.17933879657224L182.58238636363637,107.09156980568713L182.8291193181818,107.01509413394061L183.07585227272727,106.7292125116695L183.32258522727273,106.79066639054905L183.56931818181818,107.55005218765952L183.81605113636363,107.1475628492507L184.0627840909091,107.22644224762917L184.30951704545456,106.72669489275326L184.55625,106.97931397367607L184.80298295454546,107.08827891810373L185.0497159090909,107.2679350051013L185.29644886363636,107.24070875482126L185.5431818181818,107.40755495699969L185.7899147727273,107.34091598201881L186.0366477272727,107.47707720507275L186.2833806818182,107.240714749152L186.53011363636364,107.5460899350318L186.77684659090912,107.43083693764426L187.02357954545454,107.26303164254536L187.2703125,107.64041072942993L187.51704545454547,107.18105317516759L187.7637784090909,107.46045492589474L188.01051136363637,107.81307143243876L188.25724431818182,107.7887044779279L188.50397727272727,107.33508349819616L188.75071022727272,107.47696930711919L188.9974431818182,107.33810464089566L189.24417613636365,107.77027790519324L189.4909090909091,107.26146712221882L189.73764204545455,107.97660876404156L189.984375,107.65640360387889L190.23110795454545,107.83358403227545L190.4778409090909,107.61793198910627L190.72457386363638,107.07534914666957L190.9713068181818,107.87103061648932L191.21803977272728,108.21665173904462L191.46477272727273,107.9377834837545L191.7115056818182,107.95368644324216L191.95823863636363,108.1772869689898L192.20497159090908,108.03345899690281L192.45170454545456,107.89916201071306L192.69843749999998,108.09443332932211L192.94517045454546,108.18237615579909L193.1919034090909,107.90469477799806L193.43863636363636,107.85412060943517L193.6853693181818,108.65885351869193L193.9321022727273,108.07047398930246L194.1788352272727,107.72380985319614L194.42556818181816,108.05324628271839L194.67230113636364,108.19845894520932L194.9190340909091,108.47721330821514L195.16576704545454,108.29801878468557L195.4125,108.22533752430569L195.65923295454547,108.17621398378502L195.9059659090909,108.01827535710551L196.15269886363637,108.36967501450668L196.39943181818182,108.86964415962046L196.64616477272725,108.85438259352337L196.89289772727273,108.52081607011232L197.13963068181818,108.50899524986744L197.38636363636365,108.75057277354327L197.63309659090908,107.83131218092008L197.87982954545456,109.03367302634499L198.1265625,108.45956000414762L198.37329545454546,108.28113275495443L198.6200284090909,108.4350851516832L198.86676136363639,108.45147365196183L199.1134943181818,108.83356428281827L199.36022727272726,108.78165337849747L199.60696022727274,108.38352191854607L199.8536931818182,108.81982527673244L200.10042613636364,109.06827829778194L200.3471590909091,109.37525396997279L200.59389204545457,108.82409324022856L200.840625,108.70486000722104L201.08735795454547,108.9269679446112L201.33409090909092,108.61979445950551L201.58082386363634,108.79605775529689L201.82755681818182,109.16805992749605L202.07428977272727,108.82081434130669L202.32102272727275,109.23143798654729L202.56775568181817,109.27294872701168L202.81448863636365,109.08977996219288L203.0612215909091,108.90538235956973L203.30795454545455,109.26209299401803L203.5546875,109.5257716151801L203.80142045454545,109.79500098661943L204.0481534090909,109.74611122499813L204.29488636363635,109.16590196842498L204.54161931818183,108.81241628392175L204.78835227272725,109.157941497185L205.03508522727273,109.40496187318455L205.28181818181818,109.36512355100025L205.52855113636366,109.39330889420076L205.77528409090908,108.97225511344996L206.02201704545453,109.37099799513817L206.26875,109.04174738986924L206.51548295454543,109.795666357333L206.7622159090909,109.34990993954918L207.00894886363636,109.53768834471703L207.2556818181818,109.53713686628774L207.50241477272726,109.8610285398635L207.74914772727274,110.17010222781788L207.9958806818182,110.10952352122827L208.24261363636361,109.73218639465895L208.4893465909091,109.21087143773383L208.73607954545454,109.89844515242359L208.9828125,110.17564098943363L209.22954545454544,109.74175934087147L209.47627840909092,110.1564471423626L209.72301136363635,109.76806246421553L209.96974431818182,110.15774191780523L210.21647727272727,109.63086422194134L210.46321022727275,109.59792537445372L210.70994318181818,109.87344879318367L210.95667613636363,110.15841927718033L211.2034090909091,109.73904990337111L211.45014204545453,110.04463489082727L211.696875,110.04510844295675L211.94360795454546,109.83139856295152L212.1903409090909,110.10985920375043L212.43707386363636,109.88607884808019L212.68380681818184,110.68842601369728L212.9305397727273,109.99641049991955L213.1772727272727,110.1498054238883L213.4240056818182,110.42503512041135L213.67073863636364,109.65614231472665L213.9174715909091,110.36334746263243L214.16420454545454,111.09245889227499L214.41093750000002,110.50879989835349L214.65767045454544,110.00843512741002L214.90440340909092,110.55532789365812L215.15113636363637,110.2205085551197L215.3978693181818,110.80246815627271L215.64460227272727,110.44279632243243L215.89133522727272,110.6256503848867L216.1380681818182,110.73413278568874L216.38480113636362,110.29223072257909L216.6315340909091,110.7598904249343L216.87826704545455,111.08924892815676L217.125,110.83148071711713L217.37173295454545,111.1679155277935L217.6184659090909,110.55795940485868L217.86519886363635,110.82070291042328L218.1119318181818,110.85255378687924L218.35866477272728,111.12214881249449L218.60539772727273,110.81576358188282L218.85213068181818,111.43527466803789L219.09886363636363,111.21181201189756L219.3455965909091,111.18557482619177L219.59232954545453,111.35285262018442L219.8390625,111.08853260563178L220.08579545454546,110.97140937704931L220.33252840909088,111.02276880294085L220.57926136363636,111.54232442378998L220.8259943181818,111.12864666703072L221.0727272727273,111.39289175244895L221.3194602272727,111.08845467933199L221.5661931818182,111.27283130179752L221.81292613636364,111.68504344468766L222.0596590909091,111.52534248476678L222.30639204545454,111.95291510021144L222.553125,111.45137544044039L222.79985795454544,111.65369309484959L223.0465909090909,111.28273093903607L223.29332386363637,111.86414505609056L223.54005681818182,111.71135256236249L223.78678977272727,111.4717082103545L224.03352272727273,112.01830126006494L224.2802556818182,111.55912653289057L224.52698863636363,111.42939123240384L224.77372159090908,111.47670148787174L225.02045454545456,112.00601288202134L225.26718749999998,112.22263600677252L225.51392045454546,112.09945850412954L225.7606534090909,112.15730679306117L226.00738636363639,112.2138932753693L226.2541193181818,111.72078164463693L226.5008522727273,111.8165380812504L226.74758522727274,112.29243699122559L226.99431818181816,112.05509146506137L227.24105113636364,112.4635061994195L227.4877840909091,112.30323877524246L227.73451704545454,112.20457209104842L227.98125,112.40029897879471L228.22798295454547,112.45751786299726L228.47471590909092,112.34302614561535L228.72144886363637,111.99002000757238L228.96818181818182,112.68250607631423L229.2149147727273,112.35047110441056L229.46164772727272,112.46932669458064L229.70838068181817,112.33534141359004L229.95511363636365,112.28806112977591L230.20184659090907,112.82190423797478L230.44857954545455,112.84850408069111L230.6953125,112.97421718524261L230.94204545454548,112.49964901669458L231.1887784090909,113.08245381848378L231.43551136363638,112.64221817932345L231.68224431818183,112.65463243831287L231.92897727272725,112.67318788915873L232.17571022727273,113.05954648351127L232.42244318181818,112.7619819106026L232.66917613636363,112.9589975794608L232.91590909090908,113.29289379106326L233.16264204545456,112.91904536499217L233.40937499999998,113.35041838613424L233.65610795454546,112.81126729805361L233.9028409090909,112.84527913074602L234.14957386363636,113.31683514809066L234.3963068181818,113.16144411198117L234.64303977272726,112.99470880492166L234.88977272727274,113.43659588220444L235.13650568181816,113.2135048745708L235.38323863636364,113.1166424839334L235.6299715909091,113.08691060339862L235.87670454545454,113.60154787586494L236.1234375,113.13322280279614L236.37017045454544,113.80329307168722L236.61690340909092,113.82777092131701L236.86363636363635,113.90860746868631L237.11036931818182,113.63029368899085L237.35710227272727,113.78914045677944L237.60383522727273,113.91107413579118L237.85056818181818,113.60354698517105L238.09730113636365,113.58930445530197L238.34403409090908,113.96526888012886L238.59076704545456,113.71269775385207L238.8375,113.9843488349156L239.08423295454546,113.86036809195173L239.3309659090909,114.24512020566246L239.57769886363636,113.96338666027242L239.82443181818184,114.01500084522095L240.07116477272726,114.03815994208509L240.31789772727274,114.27090182223102L240.5646306818182,114.02883875776422L240.81136363636364,113.92798714001071L241.0580965909091,114.5723417299715L241.30482954545454,114.34366100891069L241.55156250000002,114.46147957986051L241.79829545454544,114.39119605178183L242.04502840909092,114.55962775444442L242.29176136363637,114.44964677095413L242.53849431818182,114.38823784955522L242.78522727272727,114.4392855702476L243.03196022727275,114.47445131160995L243.27869318181817,114.61046267639506L243.52542613636362,114.423223760995L243.7721590909091,114.60559228265828L244.01889204545452,114.47155005552551L244.265625,114.82216745276344L244.51235795454545,115.01522386615926L244.75909090909093,114.50578367845578L245.00582386363635,115.09439398957923L245.25255681818183,114.45877313952553L245.49928977272728,114.78888692842288L245.7460227272727,114.86749957908285L245.99275568181818,115.03775355829433L246.23948863636363,114.84761338680983L246.48622159090908,114.73806699229911L246.73295454545453,115.17553325065157L246.9796875,114.71834564412183L247.22642045454546,115.42777468873695L247.4731534090909,115.08171897720206L247.71988636363636,115.09481359273195L247.96661931818184,114.7933077473532L248.21335227272726,114.58648535338315L248.4600852272727,114.94743397967382L248.7068181818182,115.56303076784718L248.95355113636361,115.27580941265279L249.2002840909091,115.69711795246059L249.44701704545454,115.50957932052287L249.69375000000002,115.51263942637226" style="fill: none;" fill="none"></path></g><g><path stroke="rgb(0, 119, 187)" stroke-width="2px" d="M27.140625,-92.66076280312103L29.607954545454543,1.1521079729903931L32.07528409090909,5.8731709420681L34.54261363636363,-12.686152241446763L37.00994318181818,-1.3715891946445709L39.47727272727273,3.0130599439144135L41.94460227272727,14.90826983343473L44.41193181818182,9.331444217400133L46.87926136363637,22.85301194949585L49.346590909090914,33.43203464692289L51.81392045454545,25.908897790041863L54.28125,37.28686886754903L56.74857954545454,43.893172835761845L59.215909090909086,19.708997458219528L61.68323863636363,32.64431964267385L64.15056818181819,40.68638571284035L66.61789772727273,40.6528893925927L69.08522727272727,31.487701535224915L71.55255681818181,13.06841790676117L74.01988636363636,17.77592169967565L76.4872159090909,23.057274764234364L78.95454545454545,44.10001321272418L81.421875,23.770480237223893L83.88920454545455,35.65726209770551L86.3565340909091,-6.10185945575887L88.82386363636364,23.71008136055687L91.29119318181819,12.573489993810654L93.75852272727273,26.352430311116308L96.22585227272728,18.21461080150172L98.69318181818183,36.93052988160741L101.16051136363637,21.967277648774086L103.6278409090909,35.1678130030632L106.09517045454545,18.44569225202909L108.5625,34.85728269273585L111.02982954545455,32.59292425079781L113.49715909090908,35.70168008858508L115.96448863636363,39.869202578609645L118.43181818181817,43.38999672369525L120.89914772727272,19.452272260730922L123.36647727272727,40.01556015827438L125.83380681818181,29.952205758203178L128.30113636363637,43.465465347875266L130.7684659090909,40.97224335778844L133.23579545454547,45.49608085643163L135.703125,32.71245120601222L138.17045454545453,44.83781941912392L140.6377840909091,45.45614662495527L143.10511363636363,37.343970862301916L145.5724431818182,40.68157825957647L148.03977272727272,44.71555904908615L148.53323863636362,44.63648183779284L149.02670454545455,51.1428842896765L149.52017045454545,47.53792974081907L150.01363636363635,53.560829474167406L150.50710227272728,29.28814180872658L151.00056818181818,41.566497331315816L151.4940340909091,52.879669693383306L151.9875,49.32817258618097L152.48096590909088,42.948298467831194L152.9744318181818,51.58946193077348L153.4678977272727,42.193983874537736L153.96136363636364,46.45437053658745L154.45482954545454,33.224103301763535L154.94829545454544,26.809689849615097L155.44176136363637,33.81066055460411L155.93522727272727,40.24082710797137L156.4286931818182,36.99984832243487L156.92215909090908,43.0316076766361L157.41562499999998,53.071596175432205L157.9090909090909,45.009964609687984L158.4025568181818,58.46157850189644L158.89602272727274,41.890347044576316L159.38948863636364,46.47728086872536L159.88295454545454,47.35200957818466L160.37642045454547,50.323747003620326L160.86988636363637,45.07475133646619L161.3633522727273,48.7808182564649L161.85681818181817,49.27289286797698L162.35028409090907,49.72521307793531L162.84375,48.7668035111644L163.3372159090909,45.0498508865183L163.83068181818183,29.064912931485622L164.32414772727273,42.696069018407314L164.81761363636363,37.823337492617696L165.31107954545456,46.88653780655429L165.80454545454546,37.64897439967504L166.29801136363636,37.64077415520495L166.79147727272726,40.22080604325643L167.28494318181816,36.04899161241272L167.7784090909091,42.524223544380874L168.271875,43.214542662555516L168.76534090909092,34.5097433843396L169.25880681818182,38.88126493854958L169.75227272727273,45.17165568741888L170.24573863636365,41.50302935730329L170.73920454545456,33.84952779520643L171.23267045454546,40.52076235413551L171.72613636363636,46.6711015592922L172.21960227272726,27.153740457513123L172.7130681818182,60.65505997701126L173.2065340909091,47.583510631864726L173.70000000000002,53.03174586458641L174.19346590909092,46.00377669388598L174.68693181818182,47.266830138184815L175.18039772727275,50.86644973267208L175.67386363636362,45.47397376461464L176.16732954545452,49.293249615214094L176.66079545454545,48.44577113335782L177.15426136363635,52.554836909879356L177.64772727272728,54.30555313825607L178.14119318181818,39.568862630562364L178.63465909090908,50.54282780398022L179.128125,46.453615250912605L179.6215909090909,51.68754117055374L180.11505681818184,46.96543518792501L180.6085227272727,40.32281756401062L181.10198863636361,46.83026302944532L181.59545454545454,57.89468265392564L182.08892045454544,56.55443421818994L182.58238636363637,39.58474760705775L183.07585227272727,46.752504570917665L183.56931818181818,49.91209233349021L184.0627840909091,42.52352820201355L184.55625,52.48618983409624L185.0497159090909,47.86554389379242L185.5431818181818,46.233551380309194L186.0366477272727,59.74160789088771L186.53011363636364,48.15958979454908L187.02357954545454,52.64053186232394L187.51704545454547,45.565051626075416L188.01051136363637,43.96781424229795L188.50397727272727,50.97662553191185L188.9974431818182,50.633294243704185L189.4909090909091,50.535742505030214L189.984375,44.018466337160646L190.4778409090909,48.457567976279705L190.9713068181818,48.090235387737096L191.46477272727273,36.54174957763067L191.95823863636363,59.4201199439439L192.45170454545456,50.70291240106931L192.94517045454546,40.78641910444608L193.43863636363636,42.276130183176576L193.9321022727273,46.93264619870621L194.42556818181816,55.06455529819837L194.9190340909091,44.08726926554334L195.4125,48.89996157451111L195.9059659090909,45.90220875360748L196.39943181818182,51.99892267584801L196.89289772727273,38.077521093867034L197.38636363636365,54.57533398812468L197.87982954545456,54.49112562970683L198.37329545454546,44.831297587264686L198.86676136363639,58.683836297555416L199.36022727272726,54.495597400448545L199.8536931818182,50.52561208605766L200.3471590909091,57.2027570551092L200.840625,56.73131493004887L201.33409090909092,51.74669322642414L201.82755681818182,43.95594546740705L202.32102272727275,36.789411347020774L202.81448863636365,35.815176747062L203.30795454545455,52.00467723337087L203.80142045454545,53.186807212504476L204.29488636363635,53.66101871837269L204.78835227272725,55.735512728040874L205.28181818181818,41.078378978100716L205.77528409090908,46.49840489029884L206.26875,53.48090106790717L206.7622159090909,47.62592651627281L207.2556818181818,64.41197680478747L207.74914772727274,57.57597607645123L208.24261363636361,41.70542194084689L208.73607954545454,59.21031836758962L209.22954545454544,59.918116954239935L209.72301136363635,44.5790921151638L210.21647727272727,56.1252521249381L210.70994318181818,46.48163275285202L211.2034090909091,61.04331277988176L211.696875,65.00570327720861L212.1903409090909,48.49190350283277L212.68380681818184,57.86707276647742L213.1772727272727,61.07404571365228L213.67073863636364,59.825420623475864L214.16420454545454,50.26746023784986L214.65767045454544,57.823218242688625L215.15113636363637,61.578948192975744L215.64460227272727,55.4357842017304L216.1380681818182,58.154896551912486L216.6315340909091,40.62975127588621L217.125,58.4134320372885L217.6184659090909,53.972424200990005L218.1119318181818,41.379809894345016L218.60539772727273,56.21791248971766L219.09886363636363,65.02324868332258L219.59232954545453,55.24153191934934L220.08579545454546,60.315253355286345L220.57926136363636,64.27347179840913L221.0727272727273,70.6205449388786L221.5661931818182,57.017304450273514L222.0596590909091,64.28252323784612L222.553125,43.96265911785039L223.0465909090909,55.95229170539163L223.54005681818182,62.18866154551506L224.03352272727273,62.15970293364744L224.52698863636363,52.917398011142566L225.02045454545456,53.894378014586195L225.51392045454546,49.25577305934648L226.00738636363639,59.3629580058835L226.5008522727273,59.22695862975988L226.99431818181816,58.05476725101471L227.4877840909091,63.832984397357166L227.98125,56.360038071870804L228.47471590909092,55.46244698491964L228.96818181818182,49.54586270180616L229.46164772727272,65.1978215778416L229.95511363636365,66.99996316974814L230.44857954545455,47.428005703470916L230.94204545454548,55.64986573024231L231.43551136363638,62.141144485636204L231.92897727272725,43.900234157388866L232.42244318181818,66.40292782675138L232.91590909090908,67.52436520701106L233.40937499999998,55.64123389395802L233.9028409090909,69.49503141370687L234.3963068181818,69.68613667244261L234.88977272727274,51.30270513621244L235.38323863636364,54.6966952085495L235.87670454545454,59.761581000956625L236.37017045454544,60.05434411493215L236.86363636363635,69.6745256537741L237.35710227272727,66.72336077148265L237.85056818181818,65.5115708437833L238.34403409090908,65.97490863366562L238.8375,65.43074328791013L239.3309659090909,58.787166571075275L239.82443181818184,51.477188115770176L240.31789772727274,69.87696619196373L240.81136363636364,46.27325782721692L241.30482954545454,42.738460925492376L241.79829545454544,67.85956818271767L242.29176136363637,71.212808794596L242.78522727272727,64.14673366329889L243.27869318181817,53.27168693596667L243.7721590909091,47.1798523989591L244.265625,66.7923495241187L244.75909090909093,65.11517773975025L245.25255681818183,49.622949795289486L245.7460227272727,63.04713362997229L246.23948863636363,56.951894313097L246.73295454545453,63.000953305851326L247.22642045454546,65.32803043045782L247.71988636363636,49.87501140345226L248.21335227272726,59.50528739528224L248.7068181818182,54.42898839712143L249.2002840909091,43.48455129699275L249.69375000000002,60.79115526242691" style="fill: none;" fill="none"></path></g><g><path stroke="rgb(238, 51, 119)" stroke-width="2px" d="M29.607954545454543,-42.391010333191275L32.07528409090909,5.707092014226049L34.54261363636363,-1.540761197155149L37.00994318181818,-26.055356074463248L39.47727272727273,4.408108551393866L41.94460227272727,42.78051715005529L44.41193181818182,38.746644258499146L46.87926136363637,43.750879412347615L49.346590909090914,26.619453768838554L51.81392045454545,43.535766858946204L54.28125,34.2033611508933L56.74857954545454,56.11942563544622L59.215909090909086,48.064663572744905L61.68323863636363,36.323735768144786L64.15056818181819,45.78751322898L66.61789772727273,38.43909912488678L69.08522727272727,41.996027095751344L71.55255681818181,25.616949905048727L74.01988636363636,45.64928396181628L76.4872159090909,37.55015186288139L78.95454545454545,43.06786138903013L81.421875,30.122744468125433L83.88920454545455,41.23371606523341L86.3565340909091,37.98777397383344L88.82386363636364,51.641408801078796L91.29119318181819,17.30340059507978L93.75852272727273,34.36705433509567L96.22585227272728,44.84507255933502L98.69318181818183,38.16644099625677L101.16051136363637,40.24806825952098L103.6278409090909,43.56675754893911L106.09517045454545,44.4682209735567L108.5625,46.88360058448532L111.02982954545455,47.09673500873825L113.49715909090908,47.47829813848844L115.96448863636363,49.220802133733585L118.43181818181817,53.749710836193785L120.89914772727272,43.26634566892278L123.36647727272727,53.500238778916284L125.83380681818181,50.46705946326256L128.30113636363637,44.442685124549L130.7684659090909,56.596178737553686L133.23579545454547,60.26044119488111L135.703125,57.11957972158085L138.17045454545453,47.532331035895794L140.6377840909091,58.49934278564021L143.10511363636363,57.26368343288249L145.5724431818182,60.478472987359225L148.03977272727272,51.91956972534007L148.53323863636362,59.67695303938608L149.02670454545455,56.309110237793504L149.52017045454545,56.88382269306618L150.01363636363635,54.238536520437776L150.50710227272728,51.53258772058922L151.00056818181818,65.14451998878609L151.4940340909091,59.83393257314509L151.9875,67.30393568223174L152.48096590909088,58.247736746614635L152.9744318181818,66.58801477741113L153.4678977272727,56.59523163329473L153.96136363636364,62.316778376698494L154.45482954545454,57.57019754160534L154.94829545454544,51.18166760964829L155.44176136363637,52.25917253981939L155.93522727272727,56.98411983522503L156.4286931818182,54.316414865580484L156.92215909090908,49.786187410354614L157.41562499999998,62.36110645261678L157.9090909090909,54.309809113090694L158.4025568181818,56.46960244937378L158.89602272727274,49.09742681817576L159.38948863636364,52.32238875194031L159.88295454545454,60.135902979157194L160.37642045454547,54.908654743974864L160.86988636363637,60.06441459059715L161.3633522727273,60.264900976961314L161.85681818181817,56.81153106418523L162.35028409090907,59.24959322268313L162.84375,62.03527861020784L163.3372159090909,53.18022543733771L163.83068181818183,59.874646067619324L164.32414772727273,46.98425738648936L164.81761363636363,53.8086830621416L165.31107954545456,55.23896634578705L165.80454545454546,54.99540469863199L166.29801136363636,63.84280311113055L166.79147727272726,61.718202490698204L167.28494318181816,54.52427427877079L167.7784090909091,42.20784276723862L168.271875,61.16208444942127L168.76534090909092,54.389389848167255L169.25880681818182,57.69183450124483L169.75227272727273,65.28014771640301L170.24573863636365,57.34731633554807L170.73920454545456,49.43882793188095L171.23267045454546,55.47267331318423L171.72613636363636,55.305383530530065L172.21960227272726,53.022670447826385L172.7130681818182,61.88049899583514L173.2065340909091,48.439608961343765L173.70000000000002,61.51187762618065L174.19346590909092,56.00616875019941L174.68693181818182,57.54123293540697L175.18039772727275,58.246382027864456L175.67386363636362,62.50732016834347L176.16732954545452,64.61064091460273L176.66079545454545,57.61040751229635L177.15426136363635,63.84901323779064L177.64772727272728,43.08791841972959L178.14119318181818,55.29724322936754L178.63465909090908,60.60440788214858L179.128125,61.46906012161213L179.6215909090909,49.72592040896416L180.11505681818184,58.51147531108424L180.6085227272727,59.705534008416265L181.10198863636361,59.93984040888874L181.59545454545454,64.9650617147034L182.08892045454544,66.79906317456204L182.58238636363637,59.74983211268078L183.07585227272727,57.232488935643985L183.56931818181818,45.020310824567616L184.0627840909091,55.15530946579847L184.55625,61.12744920633058L185.0497159090909,61.124362125992775L185.5431818181818,66.66033637794582L186.0366477272727,62.432552880861564L186.53011363636364,59.08745856447655L187.02357954545454,56.07887998223305L187.51704545454547,62.24321594969794L188.01051136363637,55.827261954545975L188.50397727272727,68.27324893664232L188.9974431818182,52.44100456888026L189.4909090909091,56.613250591538176L189.984375,66.09956074167381L190.4778409090909,51.74929476597093L190.9713068181818,54.39040888439527L191.46477272727273,53.54814547029409L191.95823863636363,66.0306978699836L192.45170454545456,58.13058354637842L192.94517045454546,67.1253885464235L193.43863636363636,53.412709561261266L193.9321022727273,63.541312251578674L194.42556818181816,59.42580256949773L194.9190340909091,57.7960279583931L195.4125,70.93487565490334L195.9059659090909,60.47956395555626L196.39943181818182,64.82061632654886L196.89289772727273,62.44279719211839L197.38636363636365,73.51132293316452L197.87982954545456,56.23530803756282L198.37329545454546,55.11702966960995L198.86676136363639,57.93170364065605L199.36022727272726,53.26330686157401L199.8536931818182,63.48347894847393L200.3471590909091,54.665656563910574L200.840625,61.71058969064194L201.33409090909092,58.87204629453747L201.82755681818182,69.12708140909672L202.32102272727275,67.07131368870085L202.81448863636365,66.06901363215665L203.30795454545455,60.838450532067924L203.80142045454545,69.0743312984705L204.29488636363635,63.1438401680101L204.78835227272725,65.57216153903443L205.28181818181818,65.80093517222188L205.77528409090908,64.12631697275422L206.26875,66.03631455789915L206.7622159090909,56.02529066530141L207.2556818181818,62.82593083652584L207.74914772727274,65.97905071621592L208.24261363636361,61.5209230712869L208.73607954545454,65.78050649301574L209.22954545454544,63.8179865818132L209.72301136363635,73.7201174619523L210.21647727272727,67.45367406444117L210.70994318181818,69.34053353287958L211.2034090909091,72.45525972409683L211.696875,70.56567882949656L212.1903409090909,69.75583875043827L212.68380681818184,63.67506974800068L213.1772727272727,73.37335741655394L213.67073863636364,61.92285493693571L214.16420454545454,65.19234275953337L214.65767045454544,63.79129982130095L215.15113636363637,66.07933586971328L215.64460227272727,72.33413827690212L216.1380681818182,68.55447895824909L216.6315340909091,68.46238805489108L217.125,60.63672931356865L217.6184659090909,65.39969265460968L218.1119318181818,64.46358199823986L218.60539772727273,66.62398675625975L219.09886363636363,74.81714592738587L219.59232954545453,70.52974881096321L220.08579545454546,72.40349867804485L220.57926136363636,71.42127962952311L221.0727272727273,69.39611896195196L221.5661931818182,61.12776690586048L222.0596590909091,72.1103938872164L222.553125,71.11775669184598L223.0465909090909,72.63486785644835L223.54005681818182,70.9917258877646L224.03352272727273,76.26095841554078L224.52698863636363,72.54137427969414L225.02045454545456,77.95513012192465L225.51392045454546,54.11068943413822L226.00738636363639,79.50146964327857L226.5008522727273,70.36249499429356L226.99431818181816,76.39188658784738L227.4877840909091,62.63956109908494L227.98125,72.55925536833028L228.47471590909092,67.38297093320976L228.96818181818182,68.11114425008948L229.46164772727272,74.80947318402204L229.95511363636365,71.15300935100427L230.44857954545455,64.82911029322582L230.94204545454548,67.0846031199802L231.43551136363638,72.3911383680322L231.92897727272725,66.60023721781644L232.42244318181818,77.1479874917052L232.91590909090908,75.93424940651114L233.40937499999998,68.77571172334932L233.9028409090909,81.17002158002421L234.3963068181818,82.54630193791606L234.88977272727274,77.01174234802072L235.38323863636364,76.05582042851232L235.87670454545454,74.88277785480022L236.37017045454544,71.26859803091398L236.86363636363635,85.94395454634319L237.35710227272727,72.78134532272816L237.85056818181818,77.97258561307733L238.34403409090908,70.21861906756054L238.8375,79.42785326730122L239.3309659090909,73.00438238138503L239.82443181818184,78.74068716710264L240.31789772727274,80.98944236609069L240.81136363636364,63.87377581813119L241.30482954545454,68.98990114981478L241.79829545454544,76.01480122316967L242.29176136363637,82.15041835199703L242.78522727272727,88.40998625213449L243.27869318181817,79.4543961638754L243.7721590909091,64.14853196252476L244.265625,78.61902623014018L244.75909090909093,68.84609116072005L245.25255681818183,65.64345810901037L245.7460227272727,75.99206472662362L246.23948863636363,72.3344200104475L246.73295454545453,75.23444126275453L247.22642045454546,75.20779046822678L247.71988636363636,66.19051871651953L248.21335227272726,79.81011773374948L248.7068181818182,71.45029219036753L249.2002840909091,72.69847370006822" style="fill: none;" fill="none"></path></g><g><path stroke="rgb(255, 112, 67)" stroke-width="2px" d="M30.101420454545455,-2.2389328886162048L30.594886363636366,14.152420691468507L31.088352272727274,1.4003092321482598L31.581818181818182,-29.378517134623138L32.07528409090909,6.354383826255798L32.56875,-4.167129261927158L33.06221590909091,-1.2550594048066444L33.55568181818182,1.811004809357911L34.049147727272725,-69.92987695065415L35.03607954545455,-12.736708427017362L35.529545454545456,14.096361710266649L36.023011363636364,6.210483922199785L36.51647727272727,-15.327817838300348L37.00994318181818,-25.9178581156514L37.50340909090909,31.906165765090435L37.996875,12.447633025321096L38.49034090909091,31.658192290501177L38.98380681818182,25.234859274192303L39.47727272727273,0.40991391647946784L39.970738636363635,35.14236107468605L40.46420454545454,4.987328743392766L40.95767045454546,36.6655444963412L41.451136363636365,6.304415085098952L41.94460227272727,45.22975274107674L42.43806818181818,32.48383941975507L42.93153409090909,64.78156925602394L43.425000000000004,30.883293165401994L43.918465909090905,35.403030541810125L44.41193181818182,37.66171834685585L44.90539772727273,34.01378444649956L45.398863636363636,52.04168623143977L45.892329545454544,52.53181867978792L46.38579545454545,58.84520368142563L46.87926136363637,41.39803265983409L47.372727272727275,44.080016125332236L47.86619318181818,44.164979769424974L48.35965909090909,48.77893603660843L48.853125,35.74061926115644L49.346590909090914,29.429068524729132L49.840056818181814,48.51449014111L50.33352272727273,63.806285648183405L50.82698863636364,61.81173802776772L51.320454545454545,63.93521770834923L51.81392045454545,44.103322083299815L52.30738636363636,69.45350269025023L52.800852272727276,42.253111953085124L53.29431818181818,55.05846505815333L53.78778409090909,49.87676174803215L54.28125,34.53457190231845L54.77471590909091,66.73813679678875L55.26818181818182,51.246694109656616L55.761647727272724,39.83315267346123L56.25511363636364,45.95150612972L56.74857954545454,56.81958744471724L57.242045454545455,43.44154796817085L57.73551136363637,50.80020038919017L58.22897727272727,44.44372813810003L58.722443181818186,23.425854173573583L59.215909090909086,48.44153913584623L59.709375,43.937746679241L60.20284090909091,49.7249972820282L60.69630681818182,67.62038839134304L61.18977272727273,49.785935648462996L61.68323863636363,39.083177975632935L62.17670454545455,36.66705506769094L62.67017045454545,55.489373518662035L63.163636363636364,39.31969028982252L63.65710227272728,43.41113273393026L64.15056818181819,47.426219392906546L64.64403409090909,54.94548391212116L65.1375,37.6108504560861L65.6309659090909,37.2712716189298L66.12443181818182,36.2146988917481L66.61789772727273,40.75108851898801L67.11136363636363,46.7624431713061L67.60482954545455,39.80007595636627L68.09829545454545,48.07951752435079L68.59176136363637,18.546660759232253L69.08522727272727,43.93096109682864L69.57869318181818,37.98023310574621L70.0721590909091,34.199344949288815L70.565625,51.010421568697154L71.05909090909091,47.65690521760422L71.55255681818181,26.302977082404226L72.04602272727273,33.89844153415075L72.53948863636364,42.29224294424057L73.03295454545454,37.37557297403163L73.52642045454546,44.85949491912669L74.01988636363636,45.05349543961614L74.51335227272727,34.95927023616704L75.00681818181818,27.37071125344798L75.50028409090909,43.134494369680226L75.99375,54.14562439376658L76.4872159090909,39.60518827492541L76.98068181818182,34.85982428897512L77.47414772727272,31.298268694769263L77.96761363636364,54.93657633662224L78.46107954545454,45.13193725184962L78.95454545454545,44.59301095117223L79.44801136363637,41.67547426440498L79.94147727272727,37.5853505730629L80.43494318181818,43.61163110895592L80.92840909090908,46.18787457997149L81.421875,30.596260631626308L81.91534090909092,41.177309412847876L82.40880681818182,34.32279219681567L82.90227272727273,24.80922582474622L83.39573863636363,48.91632609746674L83.88920454545455,42.20594855872068L84.38267045454546,32.80598674308172L84.87613636363636,32.225711548870265L85.36960227272728,57.32096525755796L85.86306818181818,51.70238313349812L86.3565340909091,38.5546338558197L86.85000000000001,49.13422002033755L87.34346590909091,32.05379414287481L87.83693181818181,29.81620638207957L88.33039772727273,37.92290332642469L88.82386363636364,51.830170276490136L89.31732954545454,35.15558456832713L89.81079545454546,41.14363326267764L90.30426136363636,21.12471451813525L90.79772727272727,39.61679329926318L91.29119318181819,18.267816481265157L91.78465909090909,41.91615863279864L92.278125,17.53749119964513L92.7715909090909,41.98589667677879L93.26505681818182,38.7354708259756L93.75852272727273,36.97721372951162L94.25198863636363,50.63113628463313L94.74545454545455,31.634802411903053L95.23892045454545,21.30523978309199L95.73238636363637,54.45764129812068L96.22585227272728,45.02298429608345L96.71931818181818,50.9274360537529L97.21278409090908,45.36539245735517L97.70625,48.93749807368627L98.19971590909091,26.585849550637334L98.69318181818183,38.51463968103582L99.18664772727273,44.85573047941381L99.68011363636363,42.46327318928459L100.17357954545454,48.85920012539083L100.66704545454546,53.217150514776066L101.16051136363637,41.80452021685514L101.65397727272727,45.60781518166715L102.14744318181818,49.73476804115556L102.64090909090909,46.4146041463722L103.134375,45.00738704746419L103.6278409090909,44.59748272191396L104.12130681818181,41.773301742293626L104.61477272727272,48.80647399208763L105.10823863636364,43.13387095928192L105.60170454545455,41.55733799392527L106.09517045454545,46.04829059405762L106.58863636363635,46.85660211877391L107.08210227272727,49.68529083512048L107.57556818181818,55.113457048481166L108.0690340909091,48.82286249236628L108.5625,48.42863933606583L109.0559659090909,33.23050524700773L109.54943181818182,40.45351795174858L110.04289772727273,38.779109553857296L110.53636363636365,37.60300987146118L111.02982954545455,48.4796750680967L111.52329545454545,35.12817848812452L112.01676136363636,40.11380723931572L112.51022727272728,44.352698231285274L113.00369318181819,46.600836014205754L113.49715909090908,48.733702816746444L113.990625,48.46531265161255L114.48409090909091,52.38458592783323L114.97755681818182,44.70387010411784L115.47102272727274,60.260645002126694L115.96448863636363,51.84545581991023L116.45795454545454,38.701219220053076L116.95142045454546,38.92450804060155L117.44488636363637,59.78049910881303L117.93835227272727,47.83807787028226L118.43181818181817,54.016746282577515L118.92528409090909,54.69079678708857L119.41875,53.436375179074034L119.91221590909092,50.27691929177806L120.40568181818182,53.86242823167282L120.89914772727272,46.14601017399269L121.39261363636363,50.37367977879266L121.88607954545455,52.13700807907365L122.37954545454546,50.3234712644057L122.87301136363635,56.901098354296266L123.36647727272727,54.29214981469242L123.85994318181818,44.28352365439588L124.3534090909091,61.11176204275003L124.84687500000001,49.67243898998609L125.3403409090909,49.05656945976345L125.83380681818181,51.7317193882032L126.32727272727273,50.69285391406581L126.82073863636364,45.98694461313161L127.31420454545456,52.460282336581855L127.80767045454544,44.26640384576538L128.30113636363637,45.8507174524394L128.79460227272727,52.604769685051664L129.28806818181818,51.34340664202517L129.7815340909091,42.54294983365318L130.275,55.63690598715435L130.7684659090909,57.68242340196262L131.2619318181818,54.30205244909635L131.75539772727274,53.38312154466456L132.24886363636364,52.01320117170161L132.74232954545454,49.462433606386185L133.23579545454547,61.78565669466148L133.72926136363637,46.59939737482506L134.22272727272727,57.94968663291499L134.71619318181817,53.21227112954314L135.2096590909091,51.656322695992216L135.703125,58.59280639074068L136.1965909090909,54.9203916435892L136.69005681818183,53.97683602842419L137.18352272727273,51.85634152455765L137.67698863636366,59.85714262182063L138.17045454545453,47.971463718197555L138.66392045454543,59.27575248208913L139.15738636363636,45.801420076326906L139.65085227272726,60.03485055132347L140.1443181818182,51.281173500147744L140.6377840909091,58.49937875162473L141.13125,59.542955769733965L141.62471590909092,59.935512502085075L142.11818181818182,58.86770639907232L142.61164772727275,55.46244698491964L143.10511363636363,59.505443247881814L143.59857954545453,63.02774796431716L144.09204545454546,55.8633358370174L144.58551136363636,60.64426418732515L145.0789772727273,50.25332560593432L145.5724431818182,61.589857874946176L146.0659090909091,50.05244359374046L146.55937500000002,56.97192736647348L147.05284090909092,55.112162273038535L147.5463068181818,61.62172973155975L148.03977272727272,53.2761706953699L148.2865056818182,64.78168314830825L148.53323863636362,61.867131638256L148.7799715909091,47.841302820227355L149.02670454545455,57.396110187877326L149.2734375,65.76448364691302L149.52017045454545,59.0932011333379L149.7669034090909,61.25280265103689L150.01363636363635,54.613326056437074L150.2603693181818,54.93200865658848L150.50710227272728,52.773030549287796L150.75383522727273,54.345475381070926L151.00056818181818,66.7031598768451L151.24730113636363,52.053411142392605L151.4940340909091,62.39685064689681L151.74076704545453,59.55164754932578L151.9875,68.25547574595973L152.23423295454546,62.37783063541761L152.48096590909088,60.182898532260566L152.72769886363636,53.29558033834806L152.9744318181818,68.8278803838925L153.2211647727273,54.76979007775134L153.4678977272727,57.80427615750919L153.7146306818182,66.34786390445451L153.96136363636364,63.76972023059021L154.2080965909091,43.92853938720444L154.45482954545454,57.31778826225887L154.7015625,58.559921492229805L154.94829545454544,52.520381496711224L155.1950284090909,58.057488677176565L155.44176136363637,53.84885706684808L155.68849431818182,48.670630468563616L155.93522727272727,58.68974670767784L156.18196022727273,47.526612444357454L156.4286931818182,55.83762015808712L156.67542613636363,54.91818572987209L156.92215909090908,50.37144988775253L157.16889204545456,58.146108863028616L157.41562499999998,63.626209958033144L157.66235795454546,54.32907489213078L157.9090909090909,55.77485951510343L158.15582386363639,54.7626688128168L158.4025568181818,57.71145994013007L158.6492897727273,52.29326829314232L158.89602272727274,51.18190738287839L159.14275568181816,58.5047496719794L159.38948863636364,53.78936932845551L159.6362215909091,52.894739440896316L159.88295454545454,61.29935462366453L160.1296875,59.8273148319938L160.37642045454547,56.71538199890743L160.62315340909092,54.76663705977528L160.86988636363637,60.12659977782856L161.11661931818182,51.87593099745838L161.3633522727273,60.96410968764263L161.61008522727272,56.20501268993726L161.85681818181817,59.73140553994614L162.10355113636365,50.57631213556638L162.35028409090907,60.755914591930136L162.59701704545455,61.376094045964166L162.84375,62.850813303481445L163.09048295454548,60.61422659592196L163.3372159090909,54.47019342671743L163.58394886363638,47.90606556968257L163.83068181818183,61.11334454606882L164.07741477272725,67.28982502763922L164.32414772727273,48.74695028771055L164.57088068181818,55.87443733757193L164.81761363636363,55.14141460711306L165.06434659090908,68.22903475300834L165.31107954545456,56.05660504915498L165.55781249999998,61.36361984366721L165.80454545454546,57.21171258525416L166.0512784090909,58.05162622170016L166.29801136363636,66.27699293196201L166.5447443181818,63.73774647035383L166.79147727272726,63.018756468187675L167.03821022727274,57.43880181150004L167.28494318181816,56.355470391837045L167.53167613636364,60.976140309463844L167.7784090909091,42.65165102752775L168.02514204545454,45.80850537527692L168.271875,62.7258734675971L168.51860795454544,59.55005305734548L168.76534090909092,55.186467997052475L169.01207386363635,59.43789912895724L169.25880681818182,58.816838508302524L169.50553977272727,55.98440932956609L169.75227272727273,66.019452505491L169.99900568181818,51.95938407020137L170.24573863636365,58.7723365967924L170.49247159090908,58.60953057354148L170.73920454545456,51.31214021281764L170.9859375,55.86897050792521L171.23267045454546,56.755544014952406L171.4794034090909,61.3604608313604L171.72613636363636,56.46619766950607L171.97286931818184,47.93158943002874L172.21960227272726,54.000969204035684L172.46633522727274,63.00747513771057L172.7130681818182,62.826026745817884L172.95980113636364,59.32790315964006L173.2065340909091,49.6121000566266L173.45326704545454,61.55007350173864L173.70000000000002,62.96945909207518L173.94673295454544,51.379480524496614L174.19346590909092,57.95142498883335L174.44019886363637,53.4473567930135L174.68693181818182,58.70848498561166L174.93366477272727,54.98703661290082L175.18039772727275,58.483289967883735L175.42713068181817,59.688330279155224L175.67386363636362,64.23425089229237L175.9205965909091,62.70912530747327L176.16732954545452,66.14538740028034L176.4140625,62.758626490831375L176.66079545454545,58.77893036062068L176.90752840909093,62.74058954959567L177.15426136363635,65.12683671306482L177.40099431818183,53.68512791666119L177.64772727272728,45.108775157820105L177.8944602272727,58.25702795928176L178.14119318181818,55.39930270476776L178.38792613636363,58.47369903867896L178.63465909090908,62.57526590742849L178.88139204545453,64.40717534585434L179.128125,61.880469024181366L179.37485795454546,64.98766633597288L179.6215909090909,51.234441697597504L179.86832386363636,58.949900662357166L180.11505681818184,60.31845432790844L180.36178977272726,64.5547797463157L180.6085227272727,60.73342985727571L180.8552556818182,59.47904421524569L181.10198863636361,60.872048755938366L181.3487215909091,48.25630232691765L181.59545454545454,66.84834256768227L181.84218750000002,65.64433328130029L182.08892045454544,67.9194215752862L182.33565340909092,58.07325376705691L182.58238636363637,61.26684137366037L182.8291193181818,61.33554839275102L183.07585227272727,60.293386036699474L183.32258522727273,59.85998393459755L183.56931818181818,48.378970311446636L183.81605113636363,64.14881969040091L184.0627840909091,55.56902618570763L184.30951704545456,68.41418764130637L184.55625,61.61110777746549L184.80298295454546,62.68284616145222L185.0497159090909,62.06032292409378L185.29644886363636,62.33865168961613L185.5431818181818,67.27379618720576L185.7899147727273,55.90249080549589L186.0366477272727,63.758498843420654L186.2833806818182,57.12845133109528L186.53011363636364,60.03335196863523L186.77684659090912,65.14126506718723L187.02357954545454,56.36527711694892L187.2703125,50.114029347896576L187.51704545454547,64.71780156547374L187.7637784090909,61.731216182762935L188.01051136363637,57.53700093789536L188.25724431818182,59.74958035078916L188.50397727272727,68.85217540643434L188.75071022727272,57.82380568710241L188.9974431818182,53.506113223054214L189.24417613636365,62.79874055223033L189.4909090909091,58.6065693741495L189.73764204545455,55.23165326226841L189.984375,65.79870528118178L190.23110795454545,62.27708391845226L190.4778409090909,53.19259773601185L190.72457386363638,65.28472139076754L190.9713068181818,55.75011491775513L191.21803977272728,69.03752610764722L191.46477272727273,55.66745309667155L191.7115056818182,67.68863384696571L191.95823863636363,66.67827141555874L192.20497159090908,64.76197378879245L192.45170454545456,59.950210601091385L192.69843749999998,58.406838273460224L192.94517045454546,68.02574901418254L193.1919034090909,68.91692616722803L193.43863636363636,55.45944981954317L193.6853693181818,56.54837994412944L193.9321022727273,63.71697011996399L194.1788352272727,57.6682767813856L194.42556818181816,59.97688537294215L194.67230113636364,64.19236850332132L194.9190340909091,58.83085325360298L195.16576704545454,67.3832466724244L195.4125,72.47655158693141L195.65923295454547,66.65630219334906L195.9059659090909,62.11331280795011L196.15269886363637,64.54703507098286L196.39943181818182,65.55769122459672L196.64616477272725,58.66614103317261L196.89289772727273,63.68498437106609L197.13963068181818,72.53582352941687L197.38636363636365,73.73127890581435L197.63309659090908,64.6894543753429L197.87982954545456,58.688380000266164L198.1265625,64.30949173190378L198.37329545454546,56.27786778590898L198.6200284090909,68.7012141807513L198.86676136363639,61.214594786817386L199.1134943181818,61.50638082488018L199.36022727272726,54.46897058324382L199.60696022727274,61.676511920311256L199.8536931818182,63.96036992018874L200.10042613636364,61.91346781497653L200.3471590909091,55.76950058341026L200.59389204545457,72.68862501464109L200.840625,63.186381933364004L201.08735795454547,66.73686599866912L201.33409090909092,59.55381749705836L201.58082386363634,58.31060528755188L201.82755681818182,69.52280314808543L202.07428977272727,60.797970816493034L202.32102272727275,67.23358022218402L202.56775568181817,75.1393951543353L202.81448863636365,67.31646982783622L203.0612215909091,58.806863941929564L203.30795454545455,61.758406467058464L203.5546875,66.4721623469483L203.80142045454545,69.78075118904765L204.0481534090909,61.84994589198719L204.29488636363635,64.41738968545741L204.54161931818183,68.77143776552245L204.78835227272725,65.64137807623908L205.03508522727273,65.77931362119588L205.28181818181818,67.65159487724304L205.52855113636366,65.00461830334231L205.77528409090908,64.96824470433323L206.02201704545453,67.94562279500745L206.26875,67.4987993863496L206.51548295454543,69.36733418567616L206.7622159090909,57.15835105289112L207.00894886363636,53.82220627232033L207.2556818181818,62.986147308891475L207.50241477272726,60.269300815734L207.74914772727274,65.41966576467863L207.9958806818182,67.80301766639407L208.24261363636361,62.48716123402119L208.4893465909091,52.38307535648346L208.73607954545454,66.37765572829682L208.9828125,60.49402228133246L209.22954545454544,64.97077431191097L209.47627840909092,60.3928080065684L209.72301136363635,74.34143583882938L209.96974431818182,68.30807599831711L210.21647727272727,68.4581021084027L210.46321022727275,64.68176364898682L210.70994318181818,68.97198409519414L210.95667613636363,65.39710909805517L211.2034090909091,72.04115337268874L211.45014204545453,63.62148642539978L211.696875,70.90534158728342L211.94360795454546,70.88274296034466L212.1903409090909,69.76275021379645L212.43707386363636,64.98145021498203L212.68380681818184,64.83527246523987L212.9305397727273,64.88260969519615L213.1772727272727,73.96729968488216L213.4240056818182,54.92621813308111L213.67073863636364,63.80225146358664L213.9174715909091,64.04676620933144L214.16420454545454,65.59396891431376L214.41093750000002,68.21620688519697L214.65767045454544,66.00401710380207L214.90440340909092,80.56340130215341L215.15113636363637,67.99390113489196L215.3978693181818,78.13641666688703L215.64460227272727,73.89748970893297L215.89133522727272,66.64547643200919L216.1380681818182,68.41921089047736L216.38480113636362,67.1926209601489L216.6315340909091,68.24602868069302L216.87826704545455,76.27684938636693L217.125,62.49585900794378L217.37173295454545,68.10892634771089L217.6184659090909,65.66670412367041L217.86519886363635,70.84472092037852L218.1119318181818,65.4224591228095L218.35866477272728,68.42332300137392L218.60539772727273,67.24049767987296L218.85213068181818,62.70342469892721L219.09886363636363,75.9588321569291L219.3455965909091,69.5637684044513L219.59232954545453,71.11077929084952L219.8390625,74.987954382192L220.08579545454546,71.63735727017577L220.33252840909088,80.95088083635677L220.57926136363636,70.55303079160778L220.8259943181818,73.00618068061094L221.0727272727273,71.07673748650335L221.3194602272727,68.75163849104534L221.5661931818182,61.27784696492283L221.81292613636364,67.5754548880187L222.0596590909091,72.58299891244283L222.30639204545454,72.17875323512338L222.553125,70.80412731251936L222.79985795454544,67.91201857680625L223.0465909090909,73.05608348412949L223.29332386363637,72.8106995604255L223.54005681818182,71.3130459934473L223.78678977272727,71.10697289082138L224.03352272727273,76.40397715297613L224.2802556818182,72.28547629984944L224.52698863636363,72.56902013312688L224.77372159090908,74.81065406718038L225.02045454545456,78.34582261741161L225.26718749999998,77.38376849754289L225.51392045454546,54.20554372397336L225.7606534090909,74.04840897430073L226.00738636363639,79.46028259667483L226.2541193181818,76.30957243794745L226.5008522727273,71.59424604340035L226.74758522727274,75.79270527444105L226.99431818181816,77.10882053456523L227.24105113636364,69.7899105264382L227.4877840909091,63.75607713379644L227.73451704545454,63.78668418662116L227.98125,73.1627585942095L228.22798295454547,78.86747325685891L228.47471590909092,66.83971672572874L228.72144886363637,65.5621570010077L228.96818181818182,69.23298924484037L229.2149147727273,72.03581841831858L229.46164772727272,74.63374338366769L229.70838068181817,75.3413141857494L229.95511363636365,72.06224142827772L230.20184659090907,71.17631530897185L230.44857954545455,66.09653959897432L230.6953125,71.49824683639137L230.94204545454548,68.0105833573775L231.1887784090909,77.42913359268144L231.43551136363638,73.37847058068624L231.68224431818183,70.64673416993837L231.92897727272725,67.51862263814971L232.17571022727273,80.26408638466488L232.42244318181818,78.31426246599719L232.66917613636363,57.96735791997477L232.91590909090908,74.91648997095498L233.16264204545456,73.86925641108643L233.40937499999998,69.19433180581441L233.65610795454546,73.31241905011915L233.9028409090909,80.85831638086925L234.14957386363636,70.4019197076559L234.3963068181818,82.76608407497406L234.64303977272726,82.60825334624812L234.88977272727274,76.42016184600918L235.13650568181816,69.7162641788071L235.38323863636364,75.88635470379482L235.6299715909091,75.99326359277423L235.87670454545454,73.3653310076757L236.1234375,72.41209454834461L236.37017045454544,70.68936585025355L236.61690340909092,68.65014847706667L236.86363636363635,85.99143564023755L237.11036931818182,72.24612951278687L237.35710227272727,72.69958864558826L237.60383522727273,77.14847902682695L237.85056818181818,77.85901102830063L238.09730113636365,79.18408781290054L238.34403409090908,69.77182563055645L238.59076704545456,70.62325437637894L238.8375,78.38193846019831L239.08423295454546,78.57359519736335L239.3309659090909,73.95730713551696L239.57769886363636,73.13734862614761L239.82443181818184,78.8335633277893L240.07116477272726,75.26881275529212L240.31789772727274,81.00864820182323L240.5646306818182,73.88799468902025L240.81136363636364,63.64141158082269L241.0580965909091,66.32430618459529L241.30482954545454,68.78358227962798L241.55156250000002,70.16628256575629L241.79829545454544,76.15095045756212L242.04502840909092,75.07884641939944L242.29176136363637,83.29312961209904L242.53849431818182,67.28034799071877L242.78522727272727,87.8002189506184L243.03196022727275,75.37580556490205L243.27869318181817,77.91119167750531L243.52542613636362,75.25920983742586L243.7721590909091,64.63397684422407L244.01889204545452,79.91900475187734L244.265625,78.88276479460977L244.51235795454545,77.14740004729141L244.75909090909093,68.0727565559474L245.00582386363635,68.90970299867067L245.25255681818183,66.90350839360195L245.49928977272728,71.60116350108927L245.7460227272727,75.36856441335246L245.99275568181818,70.4497544670647L246.23948863636363,72.5572772391818L246.48622159090908,70.49013227901678L246.73295454545453,74.03718159280042L246.9796875,70.46260031786832L247.22642045454546,75.22926815531473L247.4731534090909,77.39856250584126L247.71988636363636,66.88725176859985L247.96661931818184,80.51020761105147L248.21335227272726,78.13834084705874L248.4600852272727,70.51651932299137L248.7068181818182,70.12058178809556L248.95355113636361,64.12595731290905L249.2002840909091,73.5211296582764L249.44701704545454,77.629368217154" style="fill: none;" fill="none"></path></g></g></g></g></g></g><g transform="translate(58, 177)" clip-path="url(#clip_1)"><clipPath id="clip_1"><rect width="271" height="23"></rect></clipPath><g><g><line x1="0" y1="0" x2="0" y2="5" style="visibility: inherit;" fill="rgb(0, 0, 0)" stroke="rgb(204, 204, 204)" stroke-width="1px"></line><line x1="24.673295454545457" y1="0" x2="24.673295454545457" y2="5" style="visibility: inherit;" fill="rgb(0, 0, 0)" stroke="rgb(204, 204, 204)" stroke-width="1px"></line><line x1="49.346590909090914" y1="0" x2="49.346590909090914" y2="5" style="visibility: inherit;" fill="rgb(0, 0, 0)" stroke="rgb(204, 204, 204)" stroke-width="1px"></line><line x1="74.01988636363636" y1="0" x2="74.01988636363636" y2="5" style="visibility: inherit;" fill="rgb(0, 0, 0)" stroke="rgb(204, 204, 204)" stroke-width="1px"></line><line x1="98.69318181818183" y1="0" x2="98.69318181818183" y2="5" style="visibility: inherit;" fill="rgb(0, 0, 0)" stroke="rgb(204, 204, 204)" stroke-width="1px"></line><line x1="123.36647727272727" y1="0" x2="123.36647727272727" y2="5" style="visibility: inherit;" fill="rgb(0, 0, 0)" stroke="rgb(204, 204, 204)" stroke-width="1px"></line><line x1="148.03977272727272" y1="0" x2="148.03977272727272" y2="5" style="visibility: inherit;" fill="rgb(0, 0, 0)" stroke="rgb(204, 204, 204)" stroke-width="1px"></line><line x1="172.7130681818182" y1="0" x2="172.7130681818182" y2="5" style="visibility: inherit;" fill="rgb(0, 0, 0)" stroke="rgb(204, 204, 204)" stroke-width="1px"></line><line x1="197.38636363636365" y1="0" x2="197.38636363636365" y2="5" style="visibility: inherit;" fill="rgb(0, 0, 0)" stroke="rgb(204, 204, 204)" stroke-width="1px"></line><line x1="222.0596590909091" y1="0" x2="222.0596590909091" y2="5" style="visibility: inherit;" fill="rgb(0, 0, 0)" stroke="rgb(204, 204, 204)" stroke-width="1px"></line><line x1="246.73295454545453" y1="0" x2="246.73295454545453" y2="5" style="visibility: inherit;" fill="rgb(0, 0, 0)" stroke="rgb(204, 204, 204)" stroke-width="1px"></line><line x1="271.40625" y1="0" x2="271.40625" y2="5" style="visibility: inherit;" fill="rgb(0, 0, 0)" stroke="rgb(204, 204, 204)" stroke-width="1px"></line></g><g transform="translate(0, 8)"><text x="0" y="0" dx="0em" dy="0.95em" style="text-anchor: middle; visibility: hidden; font-family: &quot;Helvetica Neue&quot;, sans-serif; font-size: 12px; font-weight: 200;" fill="rgb(50, 49, 63)" stroke="none" stroke-width="1px">-100</text><text x="24.673295454545457" y="0" dx="0em" dy="0.95em" style="text-anchor: middle; visibility: inherit; font-family: &quot;Helvetica Neue&quot;, sans-serif; font-size: 12px; font-weight: 200;" fill="rgb(50, 49, 63)" stroke="none" stroke-width="1px">0</text><text x="49.346590909090914" y="0" dx="0em" dy="0.95em" style="text-anchor: middle; visibility: hidden; font-family: &quot;Helvetica Neue&quot;, sans-serif; font-size: 12px; font-weight: 200;" fill="rgb(50, 49, 63)" stroke="none" stroke-width="1px">100</text><text x="74.01988636363636" y="0" dx="0em" dy="0.95em" style="text-anchor: middle; visibility: inherit; font-family: &quot;Helvetica Neue&quot;, sans-serif; font-size: 12px; font-weight: 200;" fill="rgb(50, 49, 63)" stroke="none" stroke-width="1px">200</text><text x="98.69318181818183" y="0" dx="0em" dy="0.95em" style="text-anchor: middle; visibility: hidden; font-family: &quot;Helvetica Neue&quot;, sans-serif; font-size: 12px; font-weight: 200;" fill="rgb(50, 49, 63)" stroke="none" stroke-width="1px">300</text><text x="123.36647727272727" y="0" dx="0em" dy="0.95em" style="text-anchor: middle; visibility: inherit; font-family: &quot;Helvetica Neue&quot;, sans-serif; font-size: 12px; font-weight: 200;" fill="rgb(50, 49, 63)" stroke="none" stroke-width="1px">400</text><text x="148.03977272727272" y="0" dx="0em" dy="0.95em" style="text-anchor: middle; visibility: hidden; font-family: &quot;Helvetica Neue&quot;, sans-serif; font-size: 12px; font-weight: 200;" fill="rgb(50, 49, 63)" stroke="none" stroke-width="1px">500</text><text x="172.7130681818182" y="0" dx="0em" dy="0.95em" style="text-anchor: middle; visibility: inherit; font-family: &quot;Helvetica Neue&quot;, sans-serif; font-size: 12px; font-weight: 200;" fill="rgb(50, 49, 63)" stroke="none" stroke-width="1px">600</text><text x="197.38636363636365" y="0" dx="0em" dy="0.95em" style="text-anchor: middle; visibility: hidden; font-family: &quot;Helvetica Neue&quot;, sans-serif; font-size: 12px; font-weight: 200;" fill="rgb(50, 49, 63)" stroke="none" stroke-width="1px">700</text><text x="222.0596590909091" y="0" dx="0em" dy="0.95em" style="text-anchor: middle; visibility: inherit; font-family: &quot;Helvetica Neue&quot;, sans-serif; font-size: 12px; font-weight: 200;" fill="rgb(50, 49, 63)" stroke="none" stroke-width="1px">800</text><text x="246.73295454545453" y="0" dx="0em" dy="0.95em" style="text-anchor: middle; visibility: hidden; font-family: &quot;Helvetica Neue&quot;, sans-serif; font-size: 12px; font-weight: 200;" fill="rgb(50, 49, 63)" stroke="none" stroke-width="1px">900</text><text x="271.40625" y="0" dx="0em" dy="0.95em" style="text-anchor: middle; visibility: hidden; font-family: &quot;Helvetica Neue&quot;, sans-serif; font-size: 12px; font-weight: 200;" fill="rgb(50, 49, 63)" stroke="none" stroke-width="1px">1k</text></g><line x1="0" y1="0" x2="271.40625" y2="0" fill="rgb(0, 0, 0)" stroke="rgb(204, 204, 204)" stroke-width="1px"></line></g></g></g></g></svg>