<svg viewBox="0 0 330 200" xmlns="http://www.w3.org/2000/svg"><g><g><g><g><g><line x1="39.15625" y1="177" x2="34.15625" y2="177" style="visibility: inherit;" fill="rgb(0, 0, 0)" stroke="rgb(204, 204, 204)" stroke-width="1px"></line><line x1="39.15625" y1="154.87500000000003" x2="34.15625" y2="154.87500000000003" style="visibility: inherit;" fill="rgb(0, 0, 0)" stroke="rgb(204, 204, 204)" stroke-width="1px"></line><line x1="39.15625" y1="132.75" x2="34.15625" y2="132.75" style="visibility: inherit;" fill="rgb(0, 0, 0)" stroke="rgb(204, 204, 204)" stroke-width="1px"></line><line x1="39.15625" y1="110.62499999999999" x2="34.15625" y2="110.62499999999999" style="visibility: inherit;" fill="rgb(0, 0, 0)" stroke="rgb(204, 204, 204)" stroke-width="1px"></line><line x1="39.15625" y1="88.49999999999999" x2="34.15625" y2="88.49999999999999" style="visibility: inherit;" fill="rgb(0, 0, 0)" stroke="rgb(204, 204, 204)" stroke-width="1px"></line><line x1="39.15625" y1="66.37500000000006" x2="34.15625" y2="66.37500000000006" style="visibility: inherit;" fill="rgb(0, 0, 0)" stroke="rgb(204, 204, 204)" stroke-width="1px"></line><line x1="39.15625" y1="44.25000000000003" x2="34.15625" y2="44.25000000000003" style="visibility: inherit;" fill="rgb(0, 0, 0)" stroke="rgb(204, 204, 204)" stroke-width="1px"></line><line x1="39.15625" y1="22.12500000000003" x2="34.15625" y2="22.12500000000003" style="visibility: inherit;" fill="rgb(0, 0, 0)" stroke="rgb(204, 204, 204)" stroke-width="1px"></line><line x1="39.15625" y1="0" x2="34.15625" y2="0" style="visibility: inherit;" fill="rgb(0, 0, 0)" stroke="rgb(204, 204, 204)" stroke-width="1px"></line></g><g transform="translate(29.15625, 0)"><text x="0" y="177" dx="0em" dy="0.3em" style="text-anchor: end; visibility: hidden; font-family: &quot;Helvetica Neue&quot;, sans-serif; font-size: 12px; font-weight: 200;" fill="rgb(50, 49, 63)" stroke="none" stroke-width="1px">1.8</text><text x="0" y="154.87500000000003" dx="0em" dy="0.3em" style="text-anchor: end; visibility: inherit; font-family: &quot;Helvetica Neue&quot;, sans-serif; font-size: 12px; font-weight: 200;" fill="rgb(50, 49, 63)" stroke="none" stroke-width="1px">1.9</text><text x="0" y="132.75" dx="0em" dy="0.3em" style="text-anchor: end; visibility: hidden; font-family: &quot;Helvetica Neue&quot;, sans-serif; font-size: 12px; font-weight: 200;" fill="rgb(50, 49, 63)" stroke="none" stroke-width="1px">2</text><text x="0" y="110.62499999999999" dx="0em" dy="0.3em" style="text-anchor: end; visibility: inherit; font-family: &quot;Helvetica Neue&quot;, sans-serif; font-size: 12px; font-weight: 200;" fill="rgb(50, 49, 63)" stroke="none" stroke-width="1px">2.1</text><text x="0" y="88.49999999999999" dx="0em" dy="0.3em" style="text-anchor: end; visibility: hidden; font-family: &quot;Helvetica Neue&quot;, sans-serif; font-size: 12px; font-weight: 200;" fill="rgb(50, 49, 63)" stroke="none" stroke-width="1px">2.2</text><text x="0" y="66.37500000000006" dx="0em" dy="0.3em" style="text-anchor: end; visibility: inherit; font-family: &quot;Helvetica Neue&quot;, sans-serif; font-size: 12px; font-weight: 200;" fill="rgb(50, 49, 63)" stroke="none" stroke-width="1px">2.3</text><text x="0" y="44.25000000000003" dx="0em" dy="0.3em" style="text-anchor: end; visibility: hidden; font-family: &quot;Helvetica Neue&quot;, sans-serif; font-size: 12px; font-weight: 200;" fill="rgb(50, 49, 63)" stroke="none" stroke-width="1px">2.4</text><text x="0" y="22.12500000000003" dx="0em" dy="0.3em" style="text-anchor: end; visibility: inherit; font-family: &quot;Helvetica Neue&quot;, sans-serif; font-size: 12px; font-weight: 200;" fill="rgb(50, 49, 63)" stroke="none" stroke-width="1px">2.5</text><text x="0" y="0" dx="0em" dy="0.3em" style="text-anchor: end; visibility: hidden; font-family: &quot;Helvetica Neue&quot;, sans-serif; font-size: 12px; font-weight: 200;" fill="rgb(50, 49, 63)" stroke="none" stroke-width="1px">2.6</text></g><line x1="39.15625" y1="0" x2="39.15625" y2="177" fill="rgb(0, 0, 0)" stroke="rgb(204, 204, 204)" stroke-width="1px"></line></g></g><g transform="translate(39, 0)" clip-path="url(#clip_0)"><clipPath id="clip_0"><rect width="290" height="177"></rect></clipPath><g><g><g><line x1="0" y1="0" x2="0" y2="177" fill="rgb(0, 0, 0)" stroke="rgb(60, 60, 60)" stroke-width="1px" opacity="0.25"></line><line x1="26.44034090909091" y1="0" x2="26.44034090909091" y2="177" fill="rgb(0, 0, 0)" stroke="rgb(60, 60, 60)" stroke-width="1px" opacity="0.25"></line><line x1="52.88068181818182" y1="0" x2="52.88068181818182" y2="177" fill="rgb(0, 0, 0)" stroke="rgb(60, 60, 60)" stroke-width="1px" opacity="0.25"></line><line x1="79.32102272727272" y1="0" x2="79.32102272727272" y2="177" fill="rgb(0, 0, 0)" stroke="rgb(60, 60, 60)" stroke-width="1px" opacity="0.25"></line><line x1="105.76136363636364" y1="0" x2="105.76136363636364" y2="177" fill="rgb(0, 0, 0)" stroke="rgb(60, 60, 60)" stroke-width="1px" opacity="0.25"></line><line x1="132.20170454545453" y1="0" x2="132.20170454545453" y2="177" fill="rgb(0, 0, 0)" stroke="rgb(60, 60, 60)" stroke-width="1px" opacity="0.25"></line><line x1="158.64204545454544" y1="0" x2="158.64204545454544" y2="177" fill="rgb(0, 0, 0)" stroke="rgb(60, 60, 60)" stroke-width="1px" opacity="0.25"></line><line x1="185.08238636363637" y1="0" x2="185.08238636363637" y2="177" fill="rgb(0, 0, 0)" stroke="rgb(60, 60, 60)" stroke-width="1px" opacity="0.25"></line><line x1="211.52272727272728" y1="0" x2="211.52272727272728" y2="177" fill="rgb(0, 0, 0)" stroke="rgb(60, 60, 60)" stroke-width="1px" opacity="0.25"></line><line x1="237.9630681818182" y1="0" x2="237.9630681818182" y2="177" fill="rgb(0, 0, 0)" stroke="rgb(60, 60, 60)" stroke-width="1px" opacity="0.25"></line><line x1="264.40340909090907" y1="0" x2="264.40340909090907" y2="177" fill="rgb(0, 0, 0)" stroke="rgb(60, 60, 60)" stroke-width="1px" opacity="0.25"></line><line x1="290.84375" y1="0" x2="290.84375" y2="177" fill="rgb(0, 0, 0)" stroke="rgb(60, 60, 60)" stroke-width="1px" opacity="0.25"></line></g><g><line x1="0" y1="177" x2="290.84375" y2="177" fill="rgb(0, 0, 0)" stroke="rgb(60, 60, 60)" stroke-width="1px" opacity="0.25"></line><line x1="0" y1="154.87500000000003" x2="290.84375" y2="154.87500000000003" fill="rgb(0, 0, 0)" stroke="rgb(60, 60, 60)" stroke-width="1px" opacity="0.25"></line><line x1="0" y1="132.75" x2="290.84375" y2="132.75" fill="rgb(0, 0, 0)" stroke="rgb(60, 60, 60)" stroke-width="1px" opacity="0.25"></line><line x1="0" y1="110.62499999999999" x2="290.84375" y2="110.62499999999999" fill="rgb(0, 0, 0)" stroke="rgb(60, 60, 60)" stroke-width="1px" opacity="0.25"></line><line x1="0" y1="88.49999999999999" x2="290.84375" y2="88.49999999999999" fill="rgb(0, 0, 0)" stroke="rgb(60, 60, 60)" stroke-width="1px" opacity="0.25"></line><line x1="0" y1="66.37500000000006" x2="290.84375" y2="66.37500000000006" fill="rgb(0, 0, 0)" stroke="rgb(60, 60, 60)" stroke-width="1px" opacity="0.25"></line><line x1="0" y1="44.25000000000003" x2="290.84375" y2="44.25000000000003" fill="rgb(0, 0, 0)" stroke="rgb(60, 60, 60)" stroke-width="1px" opacity="0.25"></line><line x1="0" y1="22.12500000000003" x2="290.84375" y2="22.12500000000003" fill="rgb(0, 0, 0)" stroke="rgb(60, 60, 60)" stroke-width="1px" opacity="0.25"></line><line x1="0" y1="0" x2="290.84375" y2="0" fill="rgb(0, 0, 0)" stroke="rgb(60, 60, 60)" stroke-width="1px" opacity="0.25"></line></g></g></g><g><g><line x1="0" y1="575.25" x2="290.84375" y2="575.25" fill="rgb(0, 0, 0)" stroke="rgb(153, 153, 153)" stroke-width="1.5px"></line></g></g><g><g><line x1="26.44034090909091" y1="0" x2="26.44034090909091" y2="177" fill="rgb(0, 0, 0)" stroke="rgb(153, 153, 153)" stroke-width="1.5px"></line></g></g><g><g><g><g><g><path stroke="rgb(0, 119, 187)" stroke-width="2px" d="M29.877585227272725,180.7496994137764L30.141988636363635,171.2295704483986L30.40639204545454,159.8234140276909L30.670795454545456,153.160468429327L30.935198863636366,153.22680169343948L31.199602272727272,153.122224599123L31.464005681818183,151.3136343061924L31.72840909090909,145.11219942569733L31.9928125,153.06493797898293L32.25721590909091,147.7194000184536L32.52161931818182,149.83995446562767L32.78602272727273,142.16855862736702L33.05042613636363,148.4509121775627L33.31482954545454,153.2111612856388L33.57923295454545,155.80870860815048L33.843636363636364,140.08690738677979L34.108039772727274,142.18435728549957L34.372443181818184,142.31430718302727L34.636846590909094,148.21219155192375L34.90125,133.81130585074425L35.16565340909091,123.00710731744766L35.43005681818182,139.47318622469902L35.69446022727273,123.76607590913773L35.95886363636364,125.88958436250687L36.22326704545454,127.13992023468018L36.48767045454546,124.62590271234512L36.75207386363637,123.81291800737381L37.01647727272727,123.14504885673523L37.28088068181818,122.654103577137L37.54528409090909,136.10612028837204L37.8096875,123.98535811901093L38.07409090909091,115.15994811058044L38.338494318181816,111.41637825965883L38.602897727272726,124.69389760494232L38.867301136363636,118.47239130735397L39.13170454545455,110.48001104593278L39.39610795454546,108.88785445690156L39.66051136363636,105.30664944648744L39.92491477272727,108.33656305074693L40.18931818181818,105.13204658031465L40.45372159090909,110.86102509498598L40.718125,97.40589612722398L40.982528409090904,110.10722601413728L41.246931818181814,93.41856801509859L41.51133522727273,97.80500346422197L41.77573863636364,94.6785571575165L42.040142045454544,91.41580456495286L42.304545454545455,87.77261817455293L42.568948863636365,91.33404189348222L42.833352272727275,89.43356090784074L43.097755681818185,73.6527323126793L43.36215909090909,83.2649629712105L43.6265625,89.66360414028169L43.89096590909091,91.85167872905733L44.15536931818182,84.49298554658891L44.41977272727273,77.36649835109712L44.68417613636363,69.04189789295198L44.94857954545454,75.63096696138383L45.21298295454545,70.9714441895485L45.47738636363636,71.37624853849412L45.74178977272728,69.52862316370012L46.006193181818176,61.492407560348525L46.27059659090909,68.85980451107027L46.535000000000004,61.11962252855302L46.799403409090914,63.64324057102205L47.06380681818182,58.579915702343L47.32821022727273,63.010713994503035L47.59261363636364,56.63786762952806L47.85701704545455,61.26199507713319L48.12142045454546,57.396097719669356L48.38582386363636,52.13538193702699L48.65022727272727,42.549420833587675L48.91463068181818,54.93757331371309L49.17903409090909,46.21829652786258L49.4434375,51.82790154218675L49.707840909090905,43.1966646909714L49.972244318181815,50.71339720487596L50.236647727272725,43.79369044303897L50.501051136363635,42.987827003002195L50.76545454545455,32.015592992305784L51.02985795454545,26.082893550395994L51.294261363636366,28.0266823768616L51.558664772727276,36.90194123983386L51.823068181818186,38.78369593620303L52.08747159090909,22.80668967962268L52.351875,27.9122146368027L52.61627840909091,25.725669801235227L52.88068181818182,13.535541236400633L53.14508522727273,17.195080161094694L53.40948863636363,20.096336245536833L53.673892045454544,19.130692720413236L53.938295454545454,29.392118990421324L54.202698863636364,7.156048357486753L54.467102272727274,19.914612114429502L54.73150568181818,24.607947707176237L54.99590909090909,25.52057737112048L55.2603125,26.399394214153318L55.52471590909091,20.191655695438413L55.78911931818181,24.291447043418913L56.05352272727273,30.42180114984515L56.31792613636364,28.79841649532321L56.58232954545455,17.213173449039488L56.84673295454546,17.123023509979276L57.11113636363636,31.609997391700773L57.37553977272727,34.18910855054858L57.63994318181818,29.018911957740812L57.90434659090909,31.22006857395175L58.16875,14.649043321609525L58.433153409090906,25.517623364925413L58.697556818181816,15.051315665245085L58.961960227272726,34.629413723945646L59.22636363636364,30.65490388870242L59.49076704545455,27.031287789344816L59.75517045454545,24.309012830257444L60.01957386363636,29.396813750267057L60.28397727272727,30.660126149654417L60.54838068181819,34.52386075258258L60.81278409090908,29.838015675544767L61.0771875,27.619609773159056L61.34159090909091,34.3261533379555L61.60599431818182,29.110697150230436L61.87039772727273,29.856583714485197L62.134801136363635,26.091280817985563L62.399204545454545,32.22722643613818L62.663607954545455,33.70412403345111L62.928011363636365,32.535234332084684L63.192414772727275,31.318658530712156L63.45681818181818,31.916211783885984L63.72122159090909,26.58554935455325L63.985625,30.463209986686735L64.25002840909092,35.054157614707975L64.51443181818182,38.62170034646991L64.77883522727272,35.025408804416685L65.04323863636364,33.385935366153745L65.30764204545454,28.771830439567594L65.57204545454546,34.70848613977435L65.83644886363636,40.19444489479068L66.10085227272727,33.37105983495715L66.36525568181818,39.80572932958606L66.62965909090909,27.561848402023344L66.8940625,33.379394352436094L67.1584659090909,37.08392912149432L67.42286931818181,35.30530089139941L67.68727272727273,42.01690846681598L67.95167613636364,36.24646836519244L68.21607954545455,33.48009431362155L68.48048295454545,35.76538735628131L68.74488636363637,37.3313271403313L69.00928977272727,42.10368239879611L69.27369318181819,38.684420228004484L69.53809659090909,45.018548011779814L69.8025,37.35163593292239L70.06690340909091,39.989721715450315L70.33130681818182,37.57814490795138L70.59571022727273,37.571287393569975L70.86011363636364,43.71635878086093L71.12451704545454,43.96591955423358L71.38892045454546,46.0940172672272L71.65332386363636,39.14424294233325L71.91772727272728,48.88666087388995L72.18213068181818,40.435829401016264L72.44653409090908,40.141431033611326L72.7109375,40.149554550647764L72.97534090909092,40.77364110946658L73.23974431818182,43.53437089920047L73.50414772727274,41.057753205299406L73.76855113636364,50.452442407608046L74.03295454545454,41.47975409030917L74.29735795454545,37.04209828376773L74.56176136363636,37.4393593668938L74.82616477272727,42.02408248186114L75.09056818181818,40.38212978839877L75.35497159090909,62.518291711807265L75.619375,46.29710519313815L75.88377840909091,50.23843520879747L76.14818181818183,44.499592423439054L76.41258522727273,44.91499954462054L76.67698863636363,49.96508413553239L76.94139204545453,35.58039271831515L77.20579545454545,45.782844364643125L77.47019886363636,38.73237007856372L77.73460227272727,38.07183319330218L77.99900568181819,48.51271533966067L78.2634090909091,42.87604951858523L78.52781250000001,51.486028075218215L78.79221590909091,41.631146907806425L79.05661931818182,42.1282112002373L79.32102272727272,47.21311086416247L79.58542613636364,47.03956300020221L79.84982954545454,47.57735037803653L80.11423295454546,51.638317644596114L80.37863636363636,42.565034866333036L80.64303977272728,54.89637547731401L80.90744318181818,53.90393489599229L81.1718465909091,44.6712940335274L81.43625,54.942215323448195L81.7006534090909,53.170022606849685L81.96505681818181,43.53848540782931L82.22946022727272,55.01374447345735L82.49386363636363,51.01818734407426L82.75826704545455,57.67646455764772L83.02267045454546,41.74498164653781L83.28707386363637,48.62480932474139L83.55147727272728,51.2154200077057L83.81588068181819,57.05348575115205L84.08028409090909,52.18929255008699L84.34468749999999,49.03768444061281L84.60909090909091,41.938205301761656L84.87349431818181,47.992493748664884L85.13789772727273,53.87001657485963L85.40230113636363,52.68335008621217L85.66670454545455,53.13320302963258L85.93110795454545,50.6038352251053L86.19551136363637,51.79192596673967L86.45991477272727,57.28985899686815L86.72431818181818,57.089039325714126L86.98872159090908,46.412205934524565L87.253125,55.0774138569832L87.51752840909091,53.52402859926225L87.78193181818182,50.87750279903413L88.04633522727273,52.146512210369124L88.31073863636364,57.355796635150924L88.57514204545456,55.24167770147325L88.83954545454546,55.40652179718019L89.10394886363636,59.80540627241136L89.36835227272726,55.78922384977342L89.63275568181818,53.40090984106065L89.89715909090908,48.436333179473905L90.1615625,50.71482145786287L90.4259659090909,57.67182254791261L90.69036931818182,51.95729756355287L90.95477272727273,54.16388744115831L91.21917613636364,49.635923445224776L91.48357954545456,65.3024425506592L91.74798295454545,61.31938719749452L92.01238636363635,49.90436875820161L92.27678977272727,52.972367942333236L92.54119318181819,57.598658144474044L92.80559659090909,53.01720553636552L93.07000000000001,56.05566465854646L93.33440340909091,54.886669456958785L93.59880681818183,64.27835190296175L93.86321022727273,53.84116226434709L94.12761363636363,61.25292205810548L94.39201704545454,59.91401875019075L94.65642045454545,54.28415769338609L94.92082386363636,53.406184852123275L95.18522727272727,61.75974512100221L95.44963068181818,58.55327689647676L95.7140340909091,55.80140912532808L95.9784375,54.19669800996782L96.24284090909092,56.8157937526703L96.50724431818183,66.33085870742799L96.77164772727272,57.362337648868575L97.03605113636362,54.665013492107406L97.30045454545454,58.87035781145097L97.56485795454546,67.06856900453569L97.82926136363636,54.66079348325731L98.09366477272728,68.57020640373231L98.35806818181818,59.06832897663118L98.6224715909091,62.41732800006868L98.886875,67.01049113273622L99.1512784090909,52.33192884922029L99.41568181818181,60.7015251517296L99.68008522727273,57.5740238428116L99.94448863636363,51.14563161134721L100.20889204545455,62.63661020994188L100.47329545454545,60.41841530799867L100.73769886363637,66.13309854269029L101.00210227272727,59.37971287965776L101.26650568181819,66.40043610334398L101.5309090909091,62.829675614833846L101.7953125,63.246454238891616L102.0597159090909,52.1335884332657L102.32411931818181,55.56846463680269L102.58852272727273,65.0119476914406L102.85292613636364,59.97663313150407L103.11732954545455,63.06604886054994L103.38173295454546,71.04851210117342L103.64613636363637,71.03516632318498L103.91053977272728,66.23617225885393L104.17494318181818,64.83275556564332L104.43934659090908,75.42392277717592L104.70375,60.11098766326906L104.9681534090909,58.791601896286025L105.23255681818182,64.79677999019624L105.49696022727272,65.87536150217058L105.76136363636364,58.3809422850609L106.02576704545454,62.485903143882766L106.29017045454546,60.25763297080995L106.55457386363638,69.55742472410203L106.81897727272727,63.925770163536086L107.08338068181818,73.00095194578172L107.34778409090909,64.5959075689316L107.6121875,59.86464464664461L107.87659090909091,67.08988004922868L108.14099431818182,72.07677000761034L108.40539772727273,68.70593243837358L108.66980113636365,72.73815089464189L108.93420454545455,72.27046841382982L109.19860795454545,59.58960556983949L109.46301136363635,71.32460618019105L109.72741477272727,67.54126274585725L109.99181818181818,78.96725320816041L110.25622159090909,70.51420623064043L110.520625,67.91119927167894L110.78502840909091,70.98695272207262L111.04943181818182,64.30720621347429L111.31383522727273,64.70399254560472L111.57823863636362,65.02408021688463L111.84264204545454,64.68769276142122L112.10704545454546,68.52821731567384L112.37144886363636,65.21086835861207L112.63585227272728,72.70570957660676L112.90025568181818,61.88296937942506L113.1646590909091,72.94208282232286L113.4290625,65.10315263271333L113.69346590909092,80.5072399377823L113.95786931818182,68.70545768737794L114.22227272727272,74.579551756382L114.48667613636363,68.32143688201906L114.75107954545454,75.40556573867799L115.01548295454545,70.92660659551622L115.27988636363636,72.96782487630846L115.54428977272727,74.27444511651994L115.80869318181819,80.04409396648408L116.0730965909091,71.62501806020738L116.3375,76.07185238599779L116.6019034090909,73.62968051433565L116.86630681818181,65.39443874359132L117.13071022727273,70.89242452383043L117.39511363636363,70.3228288292885L117.65951704545455,71.94742673635484L117.92392045454545,82.85414510965349L118.18832386363637,74.39550662040712L118.45272727272727,69.44643849134447L118.71713068181819,68.20053362846376L118.9815340909091,78.93053913116456L119.2459375,68.87863630056383L119.5103409090909,65.5362310409546L119.77474431818182,76.66692638397218L120.03914772727272,79.91670244932176L120.30355113636364,76.61618077754976L120.56795454545454,70.31686806678773L120.83235795454546,66.98722833395006L121.09676136363638,76.53188610076906L121.36116477272728,79.69937199354173L121.62556818181817,73.48229670524599L121.88997159090908,83.98790323734285L122.154375,68.11972045898439L122.4187784090909,74.40199488401414L122.68318181818182,75.9582286477089L122.94758522727273,74.47790229320528L123.21198863636364,63.97625201940538L123.47639204545455,85.35866761207582L123.74079545454546,74.94516277313234L124.00519886363637,73.93795216083528L124.26960227272727,75.30396902561189L124.53400568181817,75.20838582515718L124.79840909090909,78.6244302392006L125.06281249999999,78.70017939805986L125.32721590909091,75.88933700323106L125.59161931818181,75.22204810380937L125.85602272727273,81.15812355279924L126.12042613636365,89.73671579360963L126.38482954545455,79.75650036334993L126.64923295454544,78.31114733219148L126.91363636363636,78.71104592084886L127.17803977272727,74.56562572717668L127.44244318181818,77.88888269662858L127.7068465909091,81.88459807634355L127.97125,76.20109015703203L128.2356534090909,87.36132556200029L128.50005681818183,68.00952547788621L128.76446022727274,85.08679354190828L129.02886363636364,82.28418016433717L129.29326704545454,83.20493334531785L129.55767045454544,82.43488723039628L129.82207386363635,73.2085236310959L130.08647727272728,73.45945590734483L130.35088068181818,72.6088076233864L130.61528409090909,77.3646520972252L130.87968750000002,82.2570666074753L131.14409090909092,78.98840600252153L131.40849431818182,77.560988008976L131.67289772727273,80.18166625499727L131.93730113636363,78.57262963056566L132.20170454545453,80.73042565584184L132.46610795454546,96.9983487725258L132.73051136363637,82.89096468687059L132.99491477272727,87.57396125793458L133.25931818181817,82.86300712823869L133.5237215909091,80.09974533319475L133.788125,80.46245509386064L134.0525284090909,83.74198222160341L134.3169318181818,82.62389087677003L134.58133522727272,81.49994426965715L134.84573863636362,84.48876553773881L135.11014204545455,93.06276851892473L135.37454545454545,83.71655666828157L135.63894886363636,83.7870308160782L135.9033522727273,83.875545501709L136.1677556818182,89.84279626607896L136.4321590909091,87.12664031982423L136.6965625,102.30627590417863L136.9609659090909,84.70060998201372L137.2253693181818,82.30564945936204L137.48977272727274,94.45959144830705L137.75417613636364,87.78158569335939L138.01857954545454,85.52572721242906L138.28298295454545,83.62640672922136L138.54738636363638,88.46512162685396L138.81178977272728,86.81441241502763L139.07619318181818,83.2001858353615L139.3405965909091,85.177154481411L139.605,89.02838730812074L139.8694034090909,82.58227103948595L140.13380681818182,93.73633468151094L140.39821022727273,95.57209128141405L140.66261363636363,88.55991357564928L140.92701704545456,84.01533329486848L141.19142045454547,89.68839669227602L141.45582386363637,84.3328362107277L141.72022727272727,96.19934284687044L141.98463068181817,89.41763037443162L142.24903409090908,91.71167993545534L142.5134375,92.42602193355562L142.7778409090909,101.37048894166948L143.04224431818182,95.61360561847688L143.30664772727272,90.12274110317232L143.57105113636365,95.49507611989976L143.83545454545455,92.97937059402467L144.09985795454546,94.56493341922761L144.36426136363636,97.22538524866106L144.62866477272726,81.99537330865861L144.89306818181817,93.2031365633011L145.1574715909091,93.66348677873613L145.421875,90.07974976301195L145.6862784090909,84.6018090248108L145.95068181818183,88.30423378944398L146.2150852272727,96.97519147396089L146.47948863636364,94.60908526182176L146.74389204545454,94.72919726371767L147.00829545454548,87.51430088281633L147.27269886363635,98.48395013809206L147.53710227272728,94.59109747409822L147.80150568181818,91.75725603103639L148.0659090909091,101.0504540205002L148.3303125,97.74428808689119L148.5947159090909,94.0545233488083L148.85911931818183,96.64302402734758L149.12352272727273,94.73014676570894L149.38792613636363,94.1373937726021L149.65232954545453,108.46395456790925L149.91673295454547,97.1182497739792L150.18113636363637,96.2797340154648L150.44553977272724,92.87329012155534L150.70994318181818,96.37473696470262L150.97434659090908,95.4164784550667L151.23875,94.64769834280015L151.5031534090909,107.88829261064531L151.76755681818182,103.7025713324547L152.03196022727272,94.9680497646332L152.29636363636365,89.5903869867325L152.56076704545455,94.76585859060289L152.82517045454546,94.49324601888658L153.08957386363636,97.96594405174257L153.35397727272726,98.01215314865114L153.6183806818182,86.54011183977128L153.88278409090907,94.94621121883394L154.1471875,97.33136022090913L154.4115909090909,101.9859244823456L154.67599431818184,101.25016593933107L154.9403977272727,103.37836915254594L155.20480113636364,101.51491874456407L155.46920454545455,100.39566689729692L155.73360795454545,100.66205495595933L155.99801136363638,107.32629293203355L156.26241477272725,93.51209396123888L156.5268181818182,104.15532553195955L156.7912215909091,101.3626819252968L157.05562500000002,102.51448059082033L157.3200284090909,99.64413607120515L157.58443181818183,106.77241677045824L157.84883522727273,107.41855287551881L158.11323863636363,93.57882285118104L158.37764204545454,104.67079961299898L158.64204545454544,100.43132597208024L158.90644886363637,97.58566850423814L159.17085227272727,96.374684214592L159.4352556818182,105.86253011226655L159.69965909090908,102.81737172603609L159.9640625,103.39050167798997L160.22846590909091,105.87624514102937L160.4928693181818,107.4869170188904L160.75727272727272,108.58290606737138L161.02167613636362,100.14062011241914L161.28607954545456,100.68784976005556L161.55048295454546,94.90511888265611L161.81488636363636,91.98693001270296L162.07928977272726,105.4669042825699L162.3436931818182,98.92425531148912L162.6080965909091,105.0454308986664L162.8725,103.21500205993654L163.1369034090909,103.11303609609605L163.4013068181818,103.94300633668901L163.66571022727274,104.08801639080049L163.93011363636361,100.17105692625047L164.19451704545455,100.32798850536348L164.45892045454545,102.73207479715349L164.72332386363638,105.08267247676851L164.98772727272726,91.41068780422212L165.2521306818182,114.15600800514221L165.5165340909091,103.35399860143663L165.7809375,111.67822980880739L166.04534090909092,104.05874007940294L166.3097443181818,104.34237742424013L166.57414772727273,107.5024255514145L166.83855113636363,105.3608765602112L167.10295454545457,104.26599526405336L167.36735795454544,107.73278528451921L167.63176136363637,104.40245980024339L167.89616477272727,104.42435109615327L168.16056818181818,104.50157725811006L168.42497159090908,101.23829716444017L168.68937499999998,102.37738305330278L168.95377840909092,107.70102971792222L169.21818181818182,102.43319267034532L169.48258522727275,98.49919492006303L169.74698863636362,101.74970948696138L170.01139204545456,97.24485003948213L170.27579545454546,106.86251395940782L170.54019886363633,106.87237823009492L170.80460227272727,110.30894243717195L171.06900568181817,114.06897032260895L171.3334090909091,102.43229591846467L171.5978125,113.96220409870148L171.8622159090909,110.12062454223634L172.1266193181818,108.15436416864397L172.39102272727274,108.21407729387285L172.65542613636364,105.43404096364976L172.91982954545455,114.50816774368286L173.18423295454545,103.23636585474016L173.44863636363635,102.60447227954866L173.71303977272729,107.31816941499712L173.97744318181816,109.11552393436433L174.2418465909091,105.73012733459474L174.50625,111.72997766733171L174.77065340909093,108.28845494985582L175.03505681818183,104.23561120033266L175.29946022727273,105.93437576293947L175.56386363636364,103.48181211948396L175.82826704545454,110.93144649267198L176.09267045454547,95.60068184137346L176.35707386363634,106.51109272241594L176.62147727272728,103.87975895404817L176.88588068181818,100.58525079488756L177.1502840909091,101.27569699287416L177.41468749999999,107.80252093076707L177.67909090909092,103.80079203844072L177.94349431818182,105.39263212680818L178.20789772727272,104.75498878955842L178.47230113636363,109.32483637332918L178.73670454545453,103.48402762413026L179.00110795454546,111.2163498401642L179.26551136363636,114.81517338752747L179.5299147727273,104.4439213871956L179.79431818181817,104.07393211126329L180.0587215909091,106.25863069295885L180.323125,102.02833557128908L180.58752840909088,105.50013685226442L180.8519318181818,111.06321626901628L181.1163352272727,115.7189410328865L181.38073863636365,112.89506936073305L181.64514204545455,109.1357799768448L181.90954545454545,107.06655138731004L182.17394886363635,111.03404545783998L182.4383522727273,115.53663665056229L182.7027556818182,113.42747622728348L182.96715909090912,109.2784162759781L183.2315625,103.97486740350725L183.4959659090909,112.17740410566331L183.76036931818183,116.43201702833176L184.0247727272727,108.52888995409013L184.28917613636364,108.50188189744951L184.55357954545454,101.53881454467775L184.81798295454547,102.46605598926546L185.08238636363637,113.43813174962997L185.34678977272728,109.11394143104555L185.61119318181818,110.00916355848314L185.87559659090908,105.45667076110841L186.14000000000001,112.74715805053712L186.4044034090909,105.05782717466356L186.66880681818182,111.6828718185425L186.93321022727272,107.74154180288316L187.19761363636366,115.85129106044769L187.46201704545453,114.39807826280594L187.72642045454546,106.20878183841707L187.99082386363636,108.20700877904893L188.25522727272727,113.96515810489655L188.51963068181817,103.60899263620378L188.78403409090907,113.91646975278854L189.0484375,123.08275097608566L189.3128409090909,104.1220402121544L189.57724431818184,115.87407910823822L189.84164772727271,116.67836004495621L190.10605113636365,111.1397039294243L190.37045454545455,114.827516913414L190.63485795454545,111.9997417330742L190.89926136363636,110.15459561347963L191.16366477272726,106.67926007509233L191.4280681818182,113.3701896071434L191.6924715909091,110.49699658155443L191.956875,115.82438850402832L192.2212784090909,122.64397555589676L192.48568181818183,110.25381857156755L192.75008522727273,114.703184902668L193.01448863636367,105.82444453239442L193.27889204545454,110.65049940347673L193.54329545454544,115.86368733644485L193.80769886363638,113.74260538816452L194.07210227272725,110.00051254034044L194.33650568181818,113.16657418012619L194.60090909090908,116.34756410121918L194.86531250000002,108.42222923040391L195.12971590909092,114.09682238101959L195.39411931818182,111.8299391269684L195.65852272727273,117.48443448543549L195.92292613636363,112.4296551346779L196.18732954545456,120.76237910985947L196.45173295454543,114.26509523391724L196.71613636363637,114.32470285892487L196.98053977272727,109.2371656894684L197.2449431818182,115.55647069215775L197.50934659090908,119.81092536449432L197.77375,110.50707185268404L198.0381534090909,115.19318068027496L198.3025568181818,122.88187855482101L198.56696022727274,107.94589573144914L198.83136363636362,116.66432851552963L199.09576704545455,107.47995400428773L199.36017045454545,119.05211502313614L199.62457386363639,113.8628756403923L199.88897727272726,106.40174174308778L200.1533806818182,121.70222783088684L200.4177840909091,110.88344389200212L200.6821875,114.81195563077927L200.9465909090909,115.72279179096222L201.2109943181818,126.18551248311996L201.47539772727274,119.25451719760895L201.73980113636364,116.67340153455734L202.00420454545454,109.171175301075L202.26860795454544,124.09365409612656L202.53301136363638,118.47882682085037L202.79741477272728,108.44886803627016L203.0618181818182,113.09525603055954L203.32622159090909,121.2501066327095L203.590625,121.58712708950043L203.85502840909092,123.17954742908478L204.1194318181818,122.56827914714813L204.38383522727273,127.04887354373932L204.64823863636363,108.0305069088936L204.91264204545456,112.15145105123521L205.17704545454546,108.00270760059358L205.44144886363637,115.34367674589157L205.70585227272727,125.16474509239197L205.97025568181817,130.3368934392929L206.2346590909091,122.92064988613129L206.49906249999998,115.1642736196518L206.7634659090909,122.94834369421005L207.0278693181818,109.73881924152376L207.29227272727275,119.87200999259949L207.55667613636362,120.18117839097977L207.82107954545455,116.16452121734619L208.08548295454545,123.77625668048859L208.34988636363636,115.03957235813141L208.6142897727273,115.09738647937775L208.87869318181816,114.47751992940903L209.1430965909091,115.1588403582573L209.4075,119.39235323667526L209.67190340909093,116.02082991600037L209.9363068181818,125.37891054153442L210.20071022727274,116.53345549106598L210.46511363636364,110.97686433792116L210.72951704545454,126.64813095331192L210.99392045454545,109.16057252883913L211.25832386363635,120.26141130924225L211.52272727272728,124.96714317798615L211.78713068181818,127.4383276104927L212.0515340909091,118.27795439958572L212.3159375,121.29684323072433L212.58034090909092,120.83559626340866L212.84474431818182,115.2489902973175L213.10914772727276,120.51482284069061L213.37355113636363,121.86258816719055L213.63795454545453,107.302238881588L213.90235795454547,116.84979790449142L214.16676136363637,123.3308874964714L214.43116477272727,114.60095518827438L214.69556818181817,124.05604326725006L214.9599715909091,121.6321229338646L215.224375,123.75262463092804L215.4887784090909,113.16119366884232L215.75318181818182,116.67888754606247L216.01758522727272,117.295958340168L216.28198863636365,118.44459199905396L216.54639204545452,127.75387877225876L216.81079545454546,126.27059841156006L217.07519886363636,124.16855925321579L217.3396022727273,131.30538547039032L217.60400568181817,126.06081122159958L217.8684090909091,129.57956010103226L218.1328125,119.87253749370575L218.3972159090909,116.2663289308548L218.66161931818183,119.37404894828796L218.9260227272727,122.85492324829102L219.19042613636364,114.4947692155838L219.45482954545454,123.04324114322662L219.71923295454548,128.30364042520523L219.98363636363635,125.58632397651672L220.24803977272728,119.66881656646729L220.51244318181818,130.72239124774933L220.7768465909091,120.84772878885269L221.04125,122.56827914714813L221.3056534090909,119.11462390422821L221.57005681818183,122.10101866722107L221.83446022727273,124.73335468769073L222.09886363636363,124.47952115535736L222.36326704545453,129.94105660915375L222.62767045454547,128.2466703057289L222.89207386363637,125.18178337812424L223.15647727272724,135.1220669746399L223.42088068181818,131.06589996814728L223.68528409090908,136.8548289835453L223.9496875,119.1618880033493L224.2140909090909,122.44109863042831L224.47849431818182,128.23126727342606L224.74289772727272,129.1306039094925L225.00730113636365,127.69711965322495L225.27170454545455,130.35430097579956L225.53610795454546,121.81891107559204L225.80051136363636,130.00182473659515L226.06491477272726,132.1036001443863L226.3293181818182,121.50473141670227L226.59372159090907,126.5187349319458L226.858125,136.07228109240532L227.1225284090909,129.19654154777527L227.38693181818184,122.40812981128693L227.6513352272727,129.9023380279541L227.91573863636364,128.90747094154358L228.18014204545455,128.7684744000435L228.44454545454545,131.67922550439835L228.70894886363638,131.50926464796066L228.97335227272725,128.07634019851685L229.2377556818182,133.85735669732094L229.5021590909091,121.7373594045639L229.76656250000002,133.03577372431755L230.0309659090909,137.12345892190933L230.29536931818183,126.7788457274437L230.55977272727273,125.67916417121887L230.82417613636363,136.25643172860146L231.08857954545454,134.18345788121223L231.35298295454544,129.68268656730652L231.61738636363637,124.03040671348572L231.88178977272727,125.50065779685974L232.1461931818182,126.0942547917366L232.41059659090908,123.34391677379608L232.675,129.96959441900253L232.93940340909091,128.7554451227188L233.2038068181818,121.4249204993248L233.46821022727272,130.67328089475632L233.73261363636362,131.32754051685333L233.99701704545456,136.99050226807594L234.26142045454546,133.11930352449417L234.52582386363636,137.03533986210823L234.79022727272726,121.63771444559097L235.0546306818182,130.6524973511696L235.3190340909091,136.52036690711975L235.5834375,127.33541214466095L235.8478409090909,121.87461519241333L236.1122443181818,138.02134492993355L236.37664772727274,131.12424159049988L236.64105113636361,130.8742060661316L236.90545454545455,125.98638081550598L237.16985795454545,134.96328914165497L237.43426136363638,122.06208908557892L237.69866477272726,129.82500636577606L237.9630681818182,135.37808963656425L238.2274715909091,133.26088482141495L238.491875,129.08666306734085L238.75627840909092,142.45375210046768L239.0206818181818,123.74101960659027L239.28508522727273,129.13055115938187L239.54948863636363,130.61483377218246L239.81389204545457,135.0522522032261L240.07829545454544,131.26133912801743L240.34269886363637,132.00996869802475L240.60710227272727,139.06223648786545L240.87150568181818,138.13636654615402L241.13590909090908,140.26551926136017L241.40031249999998,133.2668192088604L241.66471590909092,135.99341967701912L241.92911931818182,131.68323451280594L242.19352272727275,133.50063407421112L242.45792613636362,143.7358699142933L242.72232954545456,138.93972435593605L242.98673295454546,136.24065944552422L243.25113636363633,126.30493873357773L243.51553977272727,135.09529629349709L243.77994318181817,130.74760580062866L244.0443465909091,137.96115705370903L244.30875,133.44479808211327L244.5731534090909,134.93248307704926L244.8375568181818,131.0120421051979L245.10196022727274,136.03211188316345L245.36636363636364,133.27409872412682L245.63076704545455,136.6449890434742L245.89517045454545,140.18963822722435L246.15957386363635,138.53099012374878L246.42397727272729,139.0094072520733L246.68838068181816,142.20664420723915L246.9527840909091,135.50959566235542L247.2171875,126.9661613702774L247.48159090909093,146.00030028820038L247.74599431818183,141.67869472503662L248.01039772727273,135.33161678910255L248.27480113636364,143.59555462002754L248.53920454545454,142.5026778280735L248.80360795454547,134.17161548137665L249.06801136363634,133.43635806441307L249.33241477272728,133.20945346355438L249.59681818181818,139.93480244278908L249.8612215909091,149.67840725183487L250.12562499999999,134.97798004746437L250.39002840909092,137.64536851644516L250.65443181818182,143.21939358115196L250.91883522727272,137.27482536435127L251.18323863636363,144.57657480239868L251.44764204545453,140.39578565955162L251.71204545454546,131.63175040483475L251.97644886363636,147.1480371952057L252.2408522727273,134.7813012599945L252.50525568181817,144.60010135173798L252.7696590909091,139.18158361315727L253.0340625,136.24582895636559L253.29846590909088,134.06622076034546L253.5628693181818,141.82919079065323L253.8272727272727,144.37849813699722L254.09167613636365,148.52207207679749L254.35607954545455,140.75358965992928L254.62048295454545,140.7085938155651L254.88488636363635,149.6416667997837L255.1492897727273,139.20729929208755L255.4136931818182,145.05839431285858L255.67809659090912,147.24388414621353L255.9425,146.6737082004547L256.2069034090909,146.3556250333786L256.4713068181818,145.29576981067657L256.7357102272727,146.00473129749298L257.00011363636366,146.2805616259575L257.2645170454545,135.3530333340168L257.52892045454547,146.81536862254143L257.7933238636364,143.5262409746647L258.0577272727273,146.05080851912498L258.3221306818182,134.45775845646858L258.5865340909091,141.55507484078407L258.8509375,146.0073951780796L259.1153409090909,148.3320134282112L259.37974431818185,151.44105219841003L259.6441477272727,138.332043081522L259.90855113636366,149.69713354110718L260.17295454545456,146.54921793937683L260.43735795454546,149.62278226017952L260.70176136363636,145.78339183330536L260.96616477272727,153.6231396496296L261.23056818181817,147.194140791893L261.4949715909091,142.38573083281517L261.75937500000003,149.89589595794678L262.0237784090909,146.57767662405968L262.28818181818184,145.52852967381477L262.55258522727274,146.151640355587L262.81698863636365,138.98021006584167L263.08139204545455,147.11630800366402L263.34579545454545,148.08450990915298L263.61019886363636,142.16958725452423L263.87460227272726,152.0921731889248L264.13900568181816,146.1206232905388L264.40340909090907,140.0808938741684L264.6678125,145.28208115696907L264.9322159090909,147.68772357702255L265.19661931818183,142.25105980038643L265.46102272727273,157.37317138910294L265.72542613636364,145.22946292161942L265.98982954545454,145.04148790240288L266.25423295454544,158.87425491213799L266.51863636363635,143.61710304021835L266.78303977272725,154.07133096456528L267.0474431818182,145.4680252969265L267.3118465909091,149.46529680490494L267.57625,153.21630442142487" style="fill: none;" fill="none"></path></g></g></g></g></g></g><g transform="translate(39, 177)" clip-path="url(#clip_1)"><clipPath id="clip_1"><rect width="290" height="23"></rect></clipPath><g><g><line x1="0" y1="0" x2="0" y2="5" style="visibility: inherit;" fill="rgb(0, 0, 0)" stroke="rgb(204, 204, 204)" stroke-width="1px"></line><line x1="26.44034090909091" y1="0" x2="26.44034090909091" y2="5" style="visibility: inherit;" fill="rgb(0, 0, 0)" stroke="rgb(204, 204, 204)" stroke-width="1px"></line><line x1="52.88068181818182" y1="0" x2="52.88068181818182" y2="5" style="visibility: inherit;" fill="rgb(0, 0, 0)" stroke="rgb(204, 204, 204)" stroke-width="1px"></line><line x1="79.32102272727272" y1="0" x2="79.32102272727272" y2="5" style="visibility: inherit;" fill="rgb(0, 0, 0)" stroke="rgb(204, 204, 204)" stroke-width="1px"></line><line x1="105.76136363636364" y1="0" x2="105.76136363636364" y2="5" style="visibility: inherit;" fill="rgb(0, 0, 0)" stroke="rgb(204, 204, 204)" stroke-width="1px"></line><line x1="132.20170454545453" y1="0" x2="132.20170454545453" y2="5" style="visibility: inherit;" fill="rgb(0, 0, 0)" stroke="rgb(204, 204, 204)" stroke-width="1px"></line><line x1="158.64204545454544" y1="0" x2="158.64204545454544" y2="5" style="visibility: inherit;" fill="rgb(0, 0, 0)" stroke="rgb(204, 204, 204)" stroke-width="1px"></line><line x1="185.08238636363637" y1="0" x2="185.08238636363637" y2="5" style="visibility: inherit;" fill="rgb(0, 0, 0)" stroke="rgb(204, 204, 204)" stroke-width="1px"></line><line x1="211.52272727272728" y1="0" x2="211.52272727272728" y2="5" style="visibility: inherit;" fill="rgb(0, 0, 0)" stroke="rgb(204, 204, 204)" stroke-width="1px"></line><line x1="237.9630681818182" y1="0" x2="237.9630681818182" y2="5" style="visibility: inherit;" fill="rgb(0, 0, 0)" stroke="rgb(204, 204, 204)" stroke-width="1px"></line><line x1="264.40340909090907" y1="0" x2="264.40340909090907" y2="5" style="visibility: inherit;" fill="rgb(0, 0, 0)" stroke="rgb(204, 204, 204)" stroke-width="1px"></line><line x1="290.84375" y1="0" x2="290.84375" y2="5" style="visibility: inherit;" fill="rgb(0, 0, 0)" stroke="rgb(204, 204, 204)" stroke-width="1px"></line></g><g transform="translate(0, 8)"><text x="0" y="0" dx="0em" dy="0.95em" style="text-anchor: middle; visibility: hidden; font-family: &quot;Helvetica Neue&quot;, sans-serif; font-size: 12px; font-weight: 200;" fill="rgb(50, 49, 63)" stroke="none" stroke-width="1px">-100</text><text x="26.44034090909091" y="0" dx="0em" dy="0.95em" style="text-anchor: middle; visibility: inherit; font-family: &quot;Helvetica Neue&quot;, sans-serif; font-size: 12px; font-weight: 200;" fill="rgb(50, 49, 63)" stroke="none" stroke-width="1px">0</text><text x="52.88068181818182" y="0" dx="0em" dy="0.95em" style="text-anchor: middle; visibility: inherit; font-family: &quot;Helvetica Neue&quot;, sans-serif; font-size: 12px; font-weight: 200;" fill="rgb(50, 49, 63)" stroke="none" stroke-width="1px">100</text><text x="79.32102272727272" y="0" dx="0em" dy="0.95em" style="text-anchor: middle; visibility: inherit; font-family: &quot;Helvetica Neue&quot;, sans-serif; font-size: 12px; font-weight: 200;" fill="rgb(50, 49, 63)" stroke="none" stroke-width="1px">200</text><text x="105.76136363636364" y="0" dx="0em" dy="0.95em" style="text-anchor: middle; visibility: inherit; font-family: &quot;Helvetica Neue&quot;, sans-serif; font-size: 12px; font-weight: 200;" fill="rgb(50, 49, 63)" stroke="none" stroke-width="1px">300</text><text x="132.20170454545453" y="0" dx="0em" dy="0.95em" style="text-anchor: middle; visibility: inherit; font-family: &quot;Helvetica Neue&quot;, sans-serif; font-size: 12px; font-weight: 200;" fill="rgb(50, 49, 63)" stroke="none" stroke-width="1px">400</text><text x="158.64204545454544" y="0" dx="0em" dy="0.95em" style="text-anchor: middle; visibility: inherit; font-family: &quot;Helvetica Neue&quot;, sans-serif; font-size: 12px; font-weight: 200;" fill="rgb(50, 49, 63)" stroke="none" stroke-width="1px">500</text><text x="185.08238636363637" y="0" dx="0em" dy="0.95em" style="text-anchor: middle; visibility: inherit; font-family: &quot;Helvetica Neue&quot;, sans-serif; font-size: 12px; font-weight: 200;" fill="rgb(50, 49, 63)" stroke="none" stroke-width="1px">600</text><text x="211.52272727272728" y="0" dx="0em" dy="0.95em" style="text-anchor: middle; visibility: inherit; font-family: &quot;Helvetica Neue&quot;, sans-serif; font-size: 12px; font-weight: 200;" fill="rgb(50, 49, 63)" stroke="none" stroke-width="1px">700</text><text x="237.9630681818182" y="0" dx="0em" dy="0.95em" style="text-anchor: middle; visibility: inherit; font-family: &quot;Helvetica Neue&quot;, sans-serif; font-size: 12px; font-weight: 200;" fill="rgb(50, 49, 63)" stroke="none" stroke-width="1px">800</text><text x="264.40340909090907" y="0" dx="0em" dy="0.95em" style="text-anchor: middle; visibility: inherit; font-family: &quot;Helvetica Neue&quot;, sans-serif; font-size: 12px; font-weight: 200;" fill="rgb(50, 49, 63)" stroke="none" stroke-width="1px">900</text><text x="290.84375" y="0" dx="0em" dy="0.95em" style="text-anchor: middle; visibility: hidden; font-family: &quot;Helvetica Neue&quot;, sans-serif; font-size: 12px; font-weight: 200;" fill="rgb(50, 49, 63)" stroke="none" stroke-width="1px">1k</text></g><line x1="0" y1="0" x2="290.84375" y2="0" fill="rgb(0, 0, 0)" stroke="rgb(204, 204, 204)" stroke-width="1px"></line></g></g></g></g></svg>