<svg viewBox="0 0 330 200" xmlns="http://www.w3.org/2000/svg"><g><g><g><g><g><line x1="68.3125" y1="165.19999999999996" x2="63.3125" y2="165.19999999999996" style="visibility: inherit;" fill="rgb(0, 0, 0)" stroke="rgb(204, 204, 204)" stroke-width="1px"></line><line x1="68.3125" y1="141.60000000000002" x2="63.3125" y2="141.60000000000002" style="visibility: inherit;" fill="rgb(0, 0, 0)" stroke="rgb(204, 204, 204)" stroke-width="1px"></line><line x1="68.3125" y1="117.99999999999997" x2="63.3125" y2="117.99999999999997" style="visibility: inherit;" fill="rgb(0, 0, 0)" stroke="rgb(204, 204, 204)" stroke-width="1px"></line><line x1="68.3125" y1="94.40000000000002" x2="63.3125" y2="94.40000000000002" style="visibility: inherit;" fill="rgb(0, 0, 0)" stroke="rgb(204, 204, 204)" stroke-width="1px"></line><line x1="68.3125" y1="70.79999999999997" x2="63.3125" y2="70.79999999999997" style="visibility: inherit;" fill="rgb(0, 0, 0)" stroke="rgb(204, 204, 204)" stroke-width="1px"></line><line x1="68.3125" y1="47.20000000000002" x2="63.3125" y2="47.20000000000002" style="visibility: inherit;" fill="rgb(0, 0, 0)" stroke="rgb(204, 204, 204)" stroke-width="1px"></line><line x1="68.3125" y1="23.60000000000005" x2="63.3125" y2="23.60000000000005" style="visibility: inherit;" fill="rgb(0, 0, 0)" stroke="rgb(204, 204, 204)" stroke-width="1px"></line><line x1="68.3125" y1="0" x2="63.3125" y2="0" style="visibility: inherit;" fill="rgb(0, 0, 0)" stroke="rgb(204, 204, 204)" stroke-width="1px"></line></g><g transform="translate(58.3125, 0)"><text x="0" y="165.19999999999996" dx="0em" dy="0.3em" style="text-anchor: end; visibility: inherit; font-family: &quot;Helvetica Neue&quot;, sans-serif; font-size: 12px; font-weight: 200;" fill="rgb(50, 49, 63)" stroke="none" stroke-width="1px">6.6e-3</text><text x="0" y="141.60000000000002" dx="0em" dy="0.3em" style="text-anchor: end; visibility: hidden; font-family: &quot;Helvetica Neue&quot;, sans-serif; font-size: 12px; font-weight: 200;" fill="rgb(50, 49, 63)" stroke="none" stroke-width="1px">6.8e-3</text><text x="0" y="117.99999999999997" dx="0em" dy="0.3em" style="text-anchor: end; visibility: inherit; font-family: &quot;Helvetica Neue&quot;, sans-serif; font-size: 12px; font-weight: 200;" fill="rgb(50, 49, 63)" stroke="none" stroke-width="1px">7e-3</text><text x="0" y="94.40000000000002" dx="0em" dy="0.3em" style="text-anchor: end; visibility: hidden; font-family: &quot;Helvetica Neue&quot;, sans-serif; font-size: 12px; font-weight: 200;" fill="rgb(50, 49, 63)" stroke="none" stroke-width="1px">7.2e-3</text><text x="0" y="70.79999999999997" dx="0em" dy="0.3em" style="text-anchor: end; visibility: inherit; font-family: &quot;Helvetica Neue&quot;, sans-serif; font-size: 12px; font-weight: 200;" fill="rgb(50, 49, 63)" stroke="none" stroke-width="1px">7.4e-3</text><text x="0" y="47.20000000000002" dx="0em" dy="0.3em" style="text-anchor: end; visibility: hidden; font-family: &quot;Helvetica Neue&quot;, sans-serif; font-size: 12px; font-weight: 200;" fill="rgb(50, 49, 63)" stroke="none" stroke-width="1px">7.6e-3</text><text x="0" y="23.60000000000005" dx="0em" dy="0.3em" style="text-anchor: end; visibility: inherit; font-family: &quot;Helvetica Neue&quot;, sans-serif; font-size: 12px; font-weight: 200;" fill="rgb(50, 49, 63)" stroke="none" stroke-width="1px">7.8e-3</text><text x="0" y="0" dx="0em" dy="0.3em" style="text-anchor: end; visibility: hidden; font-family: &quot;Helvetica Neue&quot;, sans-serif; font-size: 12px; font-weight: 200;" fill="rgb(50, 49, 63)" stroke="none" stroke-width="1px">8e-3</text></g><line x1="68.3125" y1="0" x2="68.3125" y2="177" fill="rgb(0, 0, 0)" stroke="rgb(204, 204, 204)" stroke-width="1px"></line></g></g><g transform="translate(68, 0)" clip-path="url(#clip_0)"><clipPath id="clip_0"><rect width="261" height="177"></rect></clipPath><g><g><g><line x1="0" y1="0" x2="0" y2="177" fill="rgb(0, 0, 0)" stroke="rgb(60, 60, 60)" stroke-width="1px" opacity="0.25"></line><line x1="29.076388888888886" y1="0" x2="29.076388888888886" y2="177" fill="rgb(0, 0, 0)" stroke="rgb(60, 60, 60)" stroke-width="1px" opacity="0.25"></line><line x1="58.15277777777777" y1="0" x2="58.15277777777777" y2="177" fill="rgb(0, 0, 0)" stroke="rgb(60, 60, 60)" stroke-width="1px" opacity="0.25"></line><line x1="87.22916666666666" y1="0" x2="87.22916666666666" y2="177" fill="rgb(0, 0, 0)" stroke="rgb(60, 60, 60)" stroke-width="1px" opacity="0.25"></line><line x1="116.30555555555554" y1="0" x2="116.30555555555554" y2="177" fill="rgb(0, 0, 0)" stroke="rgb(60, 60, 60)" stroke-width="1px" opacity="0.25"></line><line x1="145.38194444444446" y1="0" x2="145.38194444444446" y2="177" fill="rgb(0, 0, 0)" stroke="rgb(60, 60, 60)" stroke-width="1px" opacity="0.25"></line><line x1="174.45833333333331" y1="0" x2="174.45833333333331" y2="177" fill="rgb(0, 0, 0)" stroke="rgb(60, 60, 60)" stroke-width="1px" opacity="0.25"></line><line x1="203.53472222222223" y1="0" x2="203.53472222222223" y2="177" fill="rgb(0, 0, 0)" stroke="rgb(60, 60, 60)" stroke-width="1px" opacity="0.25"></line><line x1="232.6111111111111" y1="0" x2="232.6111111111111" y2="177" fill="rgb(0, 0, 0)" stroke="rgb(60, 60, 60)" stroke-width="1px" opacity="0.25"></line><line x1="261.6875" y1="0" x2="261.6875" y2="177" fill="rgb(0, 0, 0)" stroke="rgb(60, 60, 60)" stroke-width="1px" opacity="0.25"></line></g><g><line x1="0" y1="165.19999999999996" x2="261.6875" y2="165.19999999999996" fill="rgb(0, 0, 0)" stroke="rgb(60, 60, 60)" stroke-width="1px" opacity="0.25"></line><line x1="0" y1="141.60000000000002" x2="261.6875" y2="141.60000000000002" fill="rgb(0, 0, 0)" stroke="rgb(60, 60, 60)" stroke-width="1px" opacity="0.25"></line><line x1="0" y1="117.99999999999997" x2="261.6875" y2="117.99999999999997" fill="rgb(0, 0, 0)" stroke="rgb(60, 60, 60)" stroke-width="1px" opacity="0.25"></line><line x1="0" y1="94.40000000000002" x2="261.6875" y2="94.40000000000002" fill="rgb(0, 0, 0)" stroke="rgb(60, 60, 60)" stroke-width="1px" opacity="0.25"></line><line x1="0" y1="70.79999999999997" x2="261.6875" y2="70.79999999999997" fill="rgb(0, 0, 0)" stroke="rgb(60, 60, 60)" stroke-width="1px" opacity="0.25"></line><line x1="0" y1="47.20000000000002" x2="261.6875" y2="47.20000000000002" fill="rgb(0, 0, 0)" stroke="rgb(60, 60, 60)" stroke-width="1px" opacity="0.25"></line><line x1="0" y1="23.60000000000005" x2="261.6875" y2="23.60000000000005" fill="rgb(0, 0, 0)" stroke="rgb(60, 60, 60)" stroke-width="1px" opacity="0.25"></line><line x1="0" y1="0" x2="261.6875" y2="0" fill="rgb(0, 0, 0)" stroke="rgb(60, 60, 60)" stroke-width="1px" opacity="0.25"></line></g></g></g><g><g><line x1="0" y1="943.9999999999998" x2="261.6875" y2="943.9999999999998" fill="rgb(0, 0, 0)" stroke="rgb(153, 153, 153)" stroke-width="1.5px"></line></g></g><g><g><line x1="29.076388888888886" y1="0" x2="29.076388888888886" y2="177" fill="rgb(0, 0, 0)" stroke="rgb(153, 153, 153)" stroke-width="1.5px"></line></g></g><g><g><g><g><g><path stroke="rgb(0, 119, 187)" stroke-width="2px" d="M33.43784722222222,-22.221578419208527L33.58322916666666,10.343262791633634L33.72861111111111,1.017812505364418L33.87399305555556,15.569589897990227L34.019375000000004,28.06867366284132L34.31013888888889,-22.830952093005152L34.74628472222222,7.340133056044607L34.891666666666666,31.868659757077694L35.182430555555555,9.099788829684258L35.3278125,10.036762669682503L35.473194444444445,-3.7647542953490927L35.61857638888888,1.2757385671139048L35.90934027777778,8.615916460752516L36.20010416666667,-6.020920485258074L36.345486111111114,31.299123406410217L36.78163194444444,26.337316125631332L36.92701388888889,88.94466409087181L37.07239583333333,11.350020632147789L37.217777777777776,22.710855916142492L37.36315972222222,61.69840773195028L37.79930555555555,29.536885075271158L37.9446875,26.92350172996521L38.23545138888889,33.674197137355804L38.380833333333335,38.204277731478214L38.52621527777778,-3.5727658718824387L38.671597222222225,44.688804872334L38.81697916666667,21.60596089065075L38.96236111111111,18.61393065750599L39.10774305555555,45.51313524693251L39.39850694444444,30.870034225285053L39.54388888888889,38.17564980685711L39.68927083333333,37.10103114694357L39.83465277777778,26.57952705025673L40.125416666666666,44.54808296263218L40.416180555555556,45.64264775812626L40.5615625,47.43637131154537L40.85232638888889,70.91011559218168L40.997708333333335,56.37910855561495L41.28847222222222,33.13317881524563L41.43385416666666,57.17058000713587L41.57923611111111,34.974981896579266L41.72461805555555,55.92490812391043L41.87,46.12201438844204L42.01538194444445,33.17592838406563L42.30614583333333,87.73251050710677L42.45152777777778,41.53105137497187L42.59690972222222,38.86387390643358L42.74229166666667,59.050846710801125L43.469201388888884,45.7837543040514L43.61458333333333,62.31245198845863L43.90534722222222,28.340556524693966L44.196111111111115,46.2327346727252L44.34149305555556,66.37030919641256L44.486875000000005,54.874466598033905L44.92302083333333,61.87572503089905L45.06840277777778,7.124736770987539L45.50454861111111,56.50746715813875L45.94069444444444,84.15715196728706L46.231458333333336,68.9723182991147L46.37684027777778,26.189835608005524L46.522222222222226,49.09288962930441L47.10375,92.0873618274927L47.24913194444444,75.62844814360142L47.39451388888889,53.2496532946825L47.53989583333333,48.331969283521175L47.83065972222222,61.95028951019049L47.97604166666666,100.44523221999405L48.4121875,25.11774455755952L48.848333333333336,36.65424869954586L48.99371527777778,65.26777693629265L49.284479166666664,75.4046997576952L49.57524305555555,89.16374189406633L49.720625,58.748467691242695L49.86600694444444,89.46645060181616L50.01138888888889,58.898585714399815L50.15677083333334,65.62636779248714L50.30215277777778,74.56542351841925L50.59291666666667,56.54169978201389L50.73829861111111,54.48592906445265L50.88368055555556,67.38882591575384L51.0290625,29.363469086587457L51.31982638888889,83.85488284379242L51.46520833333333,59.86319841444492L51.610590277777774,74.23881241679192L51.901354166666664,75.35837856680155L52.04673611111111,72.37827205657959L52.19211805555556,58.203822799026966L52.48288194444444,44.250594317913055L52.62826388888889,77.72740801423788L52.91902777777778,77.68812017142773L53.06440972222222,62.79670899361372L53.35517361111111,55.53406277298927L53.50055555555556,87.79454683512449L53.645937499999995,69.09062141180038L53.936701388888885,60.14964250475168L54.08208333333333,56.19052691012621L54.51822916666667,54.69687455892563L54.663611111111116,35.25115070492029L54.808993055555554,76.379038259387L54.954375,133.3266839906573L55.24513888888889,92.80053233355284L55.39052083333333,84.20490180701017L55.68128472222222,97.38237397372723L55.972048611111106,48.036733508110046L56.11743055555555,54.75984500348568L56.2628125,91.88608718663453L56.40819444444445,54.008155927062035L56.69895833333334,97.7381075322628L56.84434027777778,83.11022711545229L57.28048611111111,52.93144924193621L57.86201388888889,90.62948064506053L58.44354166666667,63.00507193058729L58.8796875,135.52817688882348L59.02506944444445,86.94983074069022L59.17045138888889,80.0034104436636L59.31583333333333,110.93805344402789L59.89736111111111,72.82879097014666L60.042743055555555,86.83564873039722L60.188125,84.41628688573837L60.33350694444445,86.64162722975016L60.76965277777778,80.42288371920586L60.915034722222224,81.95708771795034L61.06041666666667,132.3388282731175L61.20579861111111,92.2867132872343L61.35118055555556,70.53113901615143L61.496562499999996,87.60882248729467L61.787326388888886,94.3792442381382L61.93270833333333,96.38374844193459L62.078090277777775,97.72772235423326L62.36885416666667,79.14869380742311L62.51423611111112,90.01664524525404L62.659618055555555,77.63476563245058L62.805,74.56003861129284L62.950381944444445,85.15825016051531L63.09576388888889,112.51731482893227L63.531909722222224,79.91488916426897L63.67729166666667,92.41847866773604L63.96805555555555,89.98395116627215L64.54958333333333,101.54770953208207L64.69496527777778,77.5211331024766L64.98572916666666,101.8620122745633L65.13111111111111,14.24160586297512L65.27649305555555,79.97060646861792L65.421875,97.30264437943696L65.56725694444444,74.50937652587889L65.71263888888889,108.97849673032759L66.14878472222222,92.96257407963276L66.58493055555554,81.28941418230532L66.7303125,97.9304805919528L66.87569444444443,72.1815031543374L67.02107638888889,117.5727535560727L67.31184027777778,86.18286611139774L67.60260416666668,67.9460539072752L67.89336805555556,103.53737776726483L68.18413194444445,111.76776872575282L68.47489583333333,75.63965754210949L68.62027777777779,65.00259773433208L68.76565972222222,83.76548239588737L68.91104166666666,98.10059969872236L69.05642361111111,83.13473393768072L69.3471875,87.16445775330065L69.49256944444444,109.05877580493687L69.78333333333333,91.69706595689058L70.07409722222222,81.17550691217183L70.36486111111111,86.85768289119004L71.09177083333333,84.13967849314213L71.38253472222222,62.21140255779028L71.52791666666666,103.81915127485989L71.81868055555556,92.83014932274817L71.96406250000001,114.38999870419501L72.10944444444445,114.21257150918244L72.25482638888889,98.99465912580489L72.40020833333334,81.27216050028801L72.54559027777778,80.00434456020594L72.69097222222223,80.25084143131971L72.83635416666667,103.29494705051182L72.98173611111112,91.39606063812971L73.12711805555556,94.86509473621844L73.70864583333334,65.23783025890589L73.85402777777777,123.75336313247678L74.14479166666666,70.08518078923225L74.58093749999999,89.62656916677952L75.16246527777777,73.31354250758886L75.30784722222222,91.7762460708618L75.45322916666666,85.13824907690287L75.5986111111111,93.91196617484091L75.889375,97.91921624541281L76.03475694444445,76.03336019068955L76.18013888888889,143.14111681282517L76.32552083333334,66.07848019897938L76.47090277777778,66.03836813569069L76.61628472222223,103.96586252003907L77.05243055555556,109.01723509281872L77.1978125,103.31417886167763L77.48857638888889,81.28435896337032L77.77934027777778,115.40477895736693L78.07010416666667,105.26988921314476L78.36086805555556,97.73349189758301L78.65163194444445,99.14087583869694L78.79701388888888,103.34940055012702L78.94239583333334,114.97629420459269L79.08777777777777,116.04376962035892L79.23315972222221,83.27320297807455L79.37854166666666,134.8091269433498L79.5239236111111,85.61767065525055L79.66930555555555,87.77020485699177L79.8146875,73.13963198661804L80.1054513888889,88.31133307516575L80.39621527777778,85.43452886492014L80.54159722222222,86.83015392720698L80.83236111111111,103.9454218521714L81.123125,91.0588445663452L81.26850694444444,106.40676399320363L81.41388888888889,84.50667639821766L81.55927083333333,83.10357840359211L81.70465277777778,106.79420256614684L81.85003472222222,57.56252431869507L81.99541666666667,139.4316850751638L82.14079861111111,90.67338412255049L82.28618055555556,81.42222357541323L82.4315625,116.99904115498063L82.57694444444444,99.8710252866149L82.86770833333333,68.47899486869574L83.01309027777778,82.95115256309509L83.30385416666667,104.57073045521973L83.59461805555554,57.24783693999052L83.74,79.99428907036781L83.88538194444445,114.5848993733525L84.0307638888889,102.78733713179825L84.17614583333334,52.2637757062912L84.46690972222223,99.47424554824829L84.61229166666666,89.68223152309655L84.90305555555555,72.13056632876396L85.0484375,139.5143269151449L85.19381944444444,104.70408932864665L85.3392013888889,99.09362053126097L85.48458333333333,108.19378388673066L85.77534722222222,85.10000524669886L85.92072916666666,125.97046127170323L86.06611111111111,101.62408729642628L86.21149305555555,119.4258759319782L86.93840277777777,93.19099304825066L87.08378472222222,99.8264624327421L87.37454861111111,98.78052664548157L87.51993055555555,106.27714158594607L87.6653125,94.31753759831189L87.9560763888889,106.64738142490386L88.10145833333334,80.71482261270285L88.39222222222223,104.199336707592L88.68298611111112,104.21076589822768L89.40989583333334,134.14035444706676L89.55527777777777,117.51280525326727L89.99142361111112,111.90733672678469L90.13680555555555,107.2329076528549L90.28218749999999,112.64600311964749L90.42756944444444,98.33050226420163L90.57295138888888,92.67860265076159L90.71833333333333,96.05400530248879L91.00909722222222,82.25798314064741L91.29986111111111,94.2014873549342L91.59062499999999,115.39675654470918L91.88138888888888,91.13379368185997L92.31753472222223,125.18723202496764L92.46291666666667,87.85009929537773L92.8990625,74.42920734733343L93.04444444444445,131.45372537523505L93.18982638888889,92.03241379559039L93.33520833333334,121.96507943421601L93.62597222222222,118.03338290750979L93.77135416666667,114.04640866070984L94.2075,139.73241565376517L94.35288194444445,109.65633565187453L94.64364583333334,116.54028003662822L95.07979166666667,97.6171669140458L95.2251736111111,100.5911192446947L95.51593749999999,128.00782439857718L95.66131944444444,104.3940725326538L95.80670138888888,58.31294959038496L95.95208333333332,100.1160935088992L96.09746527777779,107.36621157824992L96.38822916666668,80.78960688412188L96.53361111111111,128.43867191672325L96.67899305555557,105.73430997878312L96.824375,118.04365818947551L96.96975694444446,103.8409106954932L97.1151388888889,104.94619035720824L97.26052083333333,121.90991161018607L97.55128472222222,113.75683253258465L97.84204861111111,95.04993991553782L97.98743055555556,145.3863483443856L98.42357638888889,118.02854748070239L98.56895833333333,90.92015573382378L99.1504861111111,104.2587904781103L99.58663194444443,126.8464977443218L99.73201388888889,109.18004611134528L100.02277777777778,103.57617107778786L100.16815972222221,128.56801958382127L100.45892361111112,133.02073334902522L100.60430555555556,97.69574259966612L100.74968750000001,96.54611987620592L101.18583333333333,96.84641087055205L101.33121527777779,111.09240246564148L101.62197916666666,123.16536424309012L102.20350694444444,102.5959531366825L102.63965277777778,101.1706561371684L102.78503472222222,125.56373593956229L102.93041666666666,84.88878501206635L103.07579861111111,85.66772831231356L103.22118055555555,111.634354904294L103.3665625,99.37160262465476L103.51194444444444,116.64204379171132L103.80270833333333,110.96986835449933L103.94809027777777,141.84324429929254L104.09347222222222,125.499776430428L104.23885416666666,94.04851203411816L104.38423611111112,87.52266397327183L104.52961805555556,75.62399735301733L104.67500000000001,122.24822664260861L105.11114583333334,116.45263792574404L105.25652777777778,130.3125646486878L105.40190972222223,63.44751348346472L106.27420138888888,130.51015777140853L106.56496527777777,125.1908585950732L106.71034722222223,124.85814826190469L106.85572916666666,112.13844814896582L107.00111111111111,110.32104199379681L107.14649305555555,91.95548655092715L107.29187499999999,110.67858883738516L107.43725694444444,144.0517705455422L107.58263888888888,96.6624448597431L107.72802083333333,83.86290525645018L107.87340277777777,138.9041839689016L108.01878472222222,115.5228073298931L108.16416666666666,101.67568349838255L108.3095486111111,130.41850445419547L108.45493055555556,145.9111020490527L108.6003125,99.01878131181002L108.74569444444445,112.92601829022168L108.89107638888889,107.1973013281822L109.18184027777778,126.6491244137287L109.32722222222223,107.96981570869683L109.47260416666667,118.76116959005593L109.76336805555556,102.54166448116301L110.05413194444445,145.0301202535629L110.34489583333334,102.25082454830407L110.49027777777778,134.32003451138732L110.9264236111111,134.94314519315955L111.07180555555556,142.0015495792031L111.2171875,112.31049043685196L111.50795138888888,136.55207851529119L111.65333333333334,118.36493933200833L111.79871527777777,121.53851786255834L112.08947916666666,162.4582073241472L112.38024305555555,121.22707241773604L112.525625,118.7063314542174L112.8163888888889,102.88003446161746L112.96177083333333,107.0238303914666L113.10715277777778,151.0444021373987L113.25253472222222,124.20597007125615L113.39791666666667,133.16420266032216L113.54329861111111,104.78969836235045L113.68868055555556,102.34945626556872L113.8340625,99.1017528399825L113.97944444444444,91.24638219922781L114.27020833333333,128.0200228616595L114.41559027777778,100.66381549090146L114.56097222222222,135.1554643884301L114.99711805555556,87.98911781609058L115.1425,121.86001879721877L115.28788194444444,141.69411534070966L115.57864583333333,87.43667030334473L115.72402777777778,136.47504137456414L115.86940972222222,96.39770524203776L116.01479166666667,132.21299728006122L116.30555555555554,109.25587439537047L116.59631944444445,108.74936343729495L116.7417013888889,141.38558214157817L116.88708333333334,85.25847537070513L117.17784722222223,93.03021510690449L117.46861111111112,96.71184314042328L117.759375,125.20651878416535L117.90475694444444,95.10279992222785L118.0501388888889,135.09804369509217L118.48628472222222,153.19160638004539L119.0678125,138.81764081865546L119.21319444444444,117.89463912695643L119.35857638888889,129.81676855683327L119.50395833333333,106.24620584398507L119.64934027777777,107.8623373582959L119.94010416666666,125.47032428532837L120.08548611111111,110.81183781474827L120.52163194444444,137.89407429844138L120.6670138888889,157.57404161244628L120.95777777777778,101.9048167914152L121.24854166666667,94.6072236225009L121.39392361111112,101.34956692904233L121.83006944444445,92.86581059545279L122.12083333333334,110.90799687057732L122.26621527777777,139.47542370855805L122.41159722222223,133.35421295464036L122.70236111111112,135.46317336708304L122.84774305555555,130.66774872690436L122.99312499999999,124.69182056933639L123.13850694444444,143.34222660958764L123.28388888888888,79.23221481591463L123.42927083333333,111.39780362695454L123.57465277777777,111.69985295832156L123.72003472222222,129.09782850742337L123.86541666666666,132.5809293016791L124.44694444444444,129.79088803380728L124.59232638888888,131.2454723343253L124.88309027777778,127.95979981869458L125.17385416666667,122.86424902826545L125.31923611111111,94.74827522039412L125.46461805555556,114.33384181559083L125.61,131.39866744726893L125.75538194444445,122.26460115611552L125.90076388888889,145.58668886870143L126.04614583333334,87.86652875691651L126.19152777777778,123.7705069184303L126.33690972222222,121.75127664208411L126.6276736111111,125.20877165347335L126.77305555555556,119.60297343879937L126.9184375,113.97360251843928L127.06381944444445,111.3873085528612L127.20920138888889,140.38695660978553L127.49996527777778,110.855301707983L127.64534722222221,163.7648165747523L127.79072916666667,115.42434045672415L128.08149305555557,123.79314550757405L128.226875,115.86941951513289L128.37225694444444,147.9634110406041L128.51763888888888,111.40516666322945L128.66302083333332,138.57993563264606L128.8084027777778,98.80668190866707L128.95378472222222,160.9762039557099L129.09916666666666,117.63094352185725L129.2445486111111,94.70244856178759L129.68069444444444,105.83409560471772L129.97145833333332,165.71069122850892L130.26222222222222,112.20784751325844L130.69836805555556,136.35888123512265L130.84375,135.57213531434533L130.98913194444444,146.90121063590047L131.13451388888888,121.62506101280448L131.27989583333334,118.35548827052115L131.42527777777778,167.8907543942332L131.57065972222222,115.0883332416415L131.71604166666665,98.57007568329573L131.86142361111112,93.69805348664521L132.00680555555556,140.83698099106547L132.1521875,120.91134102642535L132.29756944444443,110.27499554306267L132.44295138888887,102.29066187143324L132.8790972222222,119.42076576501128L133.02447916666665,102.06130878627299L133.460625,135.59636739641425L133.60600694444443,110.74760356545447L133.89677083333333,125.8390805274248L134.04215277777777,129.54774299263954L134.1875347222222,131.08826601505277L134.33291666666665,119.46433955430983L134.4782986111111,135.7136264964938L134.62368055555555,159.62299877405164L135.0598263888889,126.36520793288943L135.20520833333336,129.1814044639468L135.3505902777778,100.93503897637127L135.93211805555558,116.54374176263806L136.07750000000001,124.50279933959243L136.3682638888889,129.29866356402636L136.51364583333333,107.91624137759207L136.6590277777778,125.26855511218308L136.80440972222223,87.71805917471647L137.0951736111111,114.1574586331844L137.3859375,110.99844133108853L137.53131944444445,124.12310843914744L137.6767013888889,146.95753236860034L137.9674652777778,119.81012751907107L138.11284722222223,138.16617695242164L138.25822916666667,120.21328122913836L138.4036111111111,113.988383539021L138.54899305555557,158.1995700076222L138.694375,126.28223640471694L138.83975694444445,140.10249064862725L138.98513888888888,108.84755557030438L139.42128472222223,103.72859691828488L139.56666666666666,131.47499026358125L139.85743055555557,96.96279080212115L140.14819444444444,152.82713608443734L140.29357638888888,103.8834404721856L140.43895833333332,120.9124949350953L140.58434027777778,149.74872754514215L140.87510416666666,110.77469294518231L141.0204861111111,123.03030198067425L141.16586805555553,133.23437129706141L141.31125,147.09083629399535L141.45663194444444,131.40042578428984L141.60201388888888,115.58308532088994L141.74739583333331,133.0894183889031L141.89277777777778,160.9927433133125L142.3289236111111,169.0239476561546L142.47430555555553,136.56065040826795L142.91045138888887,131.64928542077539L143.0558333333333,144.09787194430825L143.2012152777778,148.20216023921964L143.49197916666668,132.68230842053887L143.78274305555556,134.5805431306362L143.92812500000002,102.58979895710944L144.07350694444446,123.19129971414802L144.2188888888889,143.21254925429818L144.36427083333334,167.6651927232742L144.50965277777777,108.66375440359114L144.65503472222224,151.2439733892679L144.80041666666668,132.81995324045417L145.09118055555555,142.05325567722318L145.23656250000002,160.3393013179302L145.38194444444446,125.8961165845394L145.67270833333333,114.7343580201268L146.10885416666667,87.02681293338536L146.2542361111111,117.04854933172463L146.39961805555555,110.62627831101416L146.54500000000002,126.67319165170191L146.69038194444445,139.40223293006417L146.98114583333333,112.6390247195959L147.12652777777777,108.22961000353096L147.27190972222223,167.40726666152474L147.5626736111111,115.00607603788373L147.70805555555555,140.6383988037705L147.99881944444445,125.11420609056947L148.43496527777776,129.12326944619417L148.72572916666667,106.12284751236437L148.8711111111111,172.23412157595155L149.01649305555554,141.24491517990825L149.45263888888888,142.55646975338456L149.59802083333332,147.4006332978606L149.88878472222223,134.77494926750657L150.03416666666666,153.75614245980975L150.32493055555554,107.25104050338267L150.47031249999998,96.7996500954032L150.61569444444444,105.60688549280165L150.90645833333332,131.92331125587225L151.05184027777776,146.42821797728536L151.48798611111113,106.93937526643275L151.63336805555556,131.38179840147495L151.92413194444447,131.75918148458L152.0695138888889,100.2682446092367L152.21489583333334,103.85920839011668L152.36027777777778,139.2463453635573L152.65104166666669,148.94873914867637L152.79642361111112,119.68512074649333L152.94180555555556,118.94310252368449L153.0871875,163.73668318241832L153.3779513888889,120.06530617922542L153.66871527777778,145.99407357722518L153.95947916666668,161.7291018888354L154.10486111111112,134.5834004282951L154.25024305555556,144.22073574364182L154.395625,98.89404927939175L154.54100694444443,152.90785474330184L155.1225347222222,111.10146889090537L155.26791666666668,140.24574016779658L155.41329861111112,102.85893441736697L155.55868055555555,123.33465912938115L155.9948263888889,134.3195399791002L156.14020833333333,97.89767661690712L156.28559027777777,142.81109893321988L156.4309722222222,132.10881581157443L156.57635416666668,109.61484988778828L156.86711805555555,122.53340692818162L157.0125,117.91804698854682L157.15788194444443,118.15124643594025L157.3032638888889,137.74434091150758L157.59402777777777,136.276569083333L157.7394097222222,99.52287455648184L157.88479166666667,153.09374393522737L158.0301736111111,115.546489931643L158.17555555555555,124.79144135117528L158.32093749999999,98.33281008154152L158.46631944444442,131.92083859443665L158.75708333333333,140.73032686114308L158.90246527777776,139.95588929951188L159.0478472222222,143.8018119484186L159.3386111111111,153.39095783978698L159.48399305555557,122.70022915303704L159.77475694444445,158.03637435287234L159.9201388888889,158.64866027235982L160.50166666666667,140.38723134994504L160.64704861111113,135.00452214479444L160.9378125,125.23454228043553L161.08319444444444,124.84050994366405L161.2285763888889,145.90797001123426L161.37395833333335,146.8141180053353L161.5193402777778,136.49471276998517L161.66472222222222,111.7032047882676L161.81010416666666,120.5894005075097L162.10086805555557,109.12235067784785L162.24625,114.60286737978456L162.39163194444444,128.4136156141758L162.82777777777778,164.27478925883767L162.97315972222222,91.70382456481457L163.11854166666666,155.95554733276364L163.26392361111112,98.48309294879435L163.5546875,129.66093593835828L164.42697916666665,130.2959153950214L164.57236111111112,128.25838742405173L164.71774305555556,123.87787537276742L164.863125,123.90034911781548L165.00850694444443,148.077647998929L165.5900347222222,133.12843149155375L166.02618055555556,116.04349488019942L166.1715625,180.3284062594175L166.46232638888887,115.78963497281073L166.8984722222222,164.87982203811404L167.04385416666665,120.46027263253924L167.33461805555555,125.6228050738573L167.48,151.35535304993388L167.62538194444443,136.99056380987165L167.7707638888889,125.4329046756029L168.0615277777778,86.40820799022913L168.20690972222224,124.45109324157237L168.35229166666667,118.05091132968661L168.4976736111111,181.70908545702693L168.64305555555558,140.832749992609L168.78843750000001,85.99329540133476L168.93381944444445,139.18821034580466L169.0792013888889,149.0328096374869L169.22458333333333,114.82298919558524L169.51534722222223,120.94244161248204L169.66072916666667,124.65907154232261L169.95149305555557,172.74744608998296L170.24225694444445,114.90085055679081L170.3876388888889,112.27279608696698L170.6784027777778,136.5263628363609L170.96916666666667,133.34003636240956L171.1145486111111,140.2459050118923L171.25993055555557,119.01997482031582L171.4053125,127.88919159770009L171.84145833333332,128.51235722750425L171.9868402777778,157.4745856747031L172.13222222222223,104.09158361703156L172.27760416666666,115.51016928255555L172.56836805555557,160.31375048309562L172.71375,125.79616611450908L173.00451388888888,115.04662768542764L173.14989583333332,142.9920977503061L173.87680555555553,137.7020858749747L174.0221875,143.07331094145772L174.31295138888888,124.70302996784446L174.45833333333331,128.85534284263846L174.74909722222222,124.29355723410842L174.89447916666666,136.95583665370938L175.0398611111111,108.6652929484844L175.18524305555553,139.16381341964004L175.47600694444444,76.83911813050507L175.62138888888887,135.98523461818692L175.7667708333333,163.4271609187126L176.05753472222224,148.3983796611428L176.20291666666668,122.02046705037354L176.34829861111112,102.49660709500311L176.49368055555556,133.7848406806588L176.9298263888889,94.26489738374947L177.22059027777777,134.6358208507299L177.65673611111112,155.00148465484378L177.94750000000002,135.60647783428428L178.09288194444446,122.58016770333049L178.2382638888889,131.00133822858334L178.38364583333333,161.36919227987525L178.67440972222224,138.1845845431089L178.9651736111111,142.36596492677924L179.11055555555555,114.92282976955173L179.25593750000002,129.9532594680786L179.40131944444445,128.89111401140687L179.5467013888889,116.86375910043715L179.69208333333333,137.8491817563772L179.83746527777777,147.69449537247417L179.98284722222223,156.3511182144284L180.12822916666667,129.20250450819728L180.56437499999998,122.84314898401496L180.70975694444445,168.56491179764268L180.8551388888889,116.95376397669314L181.5820486111111,123.45070937275884L181.72743055555554,136.80835613608357L181.87281249999998,157.19066919386384L182.01819444444445,127.16673487424849L182.30895833333332,136.7285166457295L182.45434027777776,141.5692734122276L182.59972222222223,121.98843234777448L182.74510416666666,130.61197647452354L182.8904861111111,155.71328146010634L183.61739583333332,128.8148461431265L183.76277777777776,136.11903307586905L183.9081597222222,138.88907326012847L184.0535416666667,155.55233867466447L184.19892361111113,123.52615302056073L184.34430555555556,123.04799524694678L184.63506944444447,127.17541666328904L184.7804513888889,135.58180616796014L184.92583333333334,133.15892764925954L185.07121527777778,122.95771563053128L185.21659722222222,128.80979092419145L185.36197916666669,127.94957948476075L185.50736111111112,106.13608998805283L185.65274305555556,109.50462413579224L185.798125,141.48465344309804L186.0888888888889,126.14063532650468L186.23427083333334,151.56833162158725L186.37965277777778,160.13461989909408L186.52503472222222,144.7305435836315L186.67041666666668,117.6227013170719L186.81579861111112,153.44282878190276L186.96118055555556,121.60093882679938L187.25194444444443,119.86216330528258L187.54270833333334,163.30078044533727L187.8334722222222,84.01956209540366L187.97885416666668,129.68791542202231L188.12423611111112,152.85175280272958L188.415,145.68477110564706L188.7057638888889,167.00609108060596L188.85114583333333,98.77030631154774L189.1419097222222,150.99786115437743L189.4326736111111,116.60330542922019L189.57805555555555,124.3809246048331L189.7234375,112.22532098740338L190.0142013888889,133.02342580258843L190.4503472222222,155.496346630156L190.59572916666667,130.63752730935812L191.03187499999999,128.86517854034898L191.3226388888889,145.18837058544156L191.7587847222222,141.57487811148164L192.19493055555557,156.91757747530934L192.3403125,138.38448548316953L192.48569444444445,146.35887356102464L192.6310763888889,147.86335067450997L192.77645833333335,132.7966552749276L192.9218402777778,139.7379654049873L193.06722222222223,149.33540844917295L193.21260416666667,127.03040880709885L193.35798611111113,104.89668218046425L193.50336805555557,142.32535833120343L193.79413194444444,138.9253939092159L193.9395138888889,156.44057361036536L194.08489583333335,153.2348504811525L194.52104166666666,151.70355872809884L194.66642361111113,124.71792088448998L194.9571875,133.9657845497131L195.10256944444444,162.84482167661187L195.24795138888888,143.69570729881522L195.39333333333335,162.34490448236463L195.68409722222222,127.76237154006955L196.12024305555556,157.0991257727146L196.265625,125.40054028481242L196.41100694444444,134.989576280117L196.55638888888888,112.26350986957549L196.70177083333334,151.04308338463304L196.84715277777778,129.1293137297034L196.99253472222222,131.9227068275213L197.13791666666665,135.83132518082854L197.28329861111112,131.2956398874521L197.42868055555556,133.93984907865521L197.5740625,161.79949031770226L197.71944444444443,163.27599888294932L197.86482638888887,140.4265741407871L198.01020833333334,146.50096917152402L198.3009722222222,114.71682959794997L198.44635416666665,124.43938931077717L198.5917361111111,114.12421507388352L198.73711805555556,83.44667391479015L199.17326388888887,142.59910942614076L199.75479166666665,137.8825352117419L200.1909375,152.29320605844256L200.62708333333336,115.72402702271937L200.7724652777778,156.74163387715814L200.91784722222224,149.5151434615254L201.06322916666667,120.19734629988668L201.35399305555558,169.0927975401282L201.49937500000001,131.5120801851153L201.64475694444445,135.6427435353398L201.7901388888889,159.8763092011213L201.93552083333333,133.07667044550178L202.22628472222223,113.9080495163798L202.37166666666667,155.54085453599689L202.5170486111111,130.63813173770902L202.66243055555557,139.31200826168057L202.8078125,150.9996194913983L202.95319444444445,156.75355760008094L203.0985763888889,135.53982587158677L203.24395833333332,164.05384322255847L203.3893402777778,77.50849505513906L203.53472222222223,127.90710465610024L203.68010416666667,131.72027827799317L203.97086805555557,174.5012224242091L204.11625,91.35743217170237L204.40701388888888,144.48805791884658L204.55239583333332,104.7789285480976L204.6977777777778,149.5145939812064L204.98854166666666,159.263363905251L205.1339236111111,138.80236526578662L205.27930555555557,135.97408016771075L205.4246875,142.8995103165507L205.57006944444444,137.59872862696645L205.71545138888888,156.1991869062185L206.29697916666666,133.1796430572867L206.58774305555553,127.35778918117283L207.02388888888888,133.47454914450643L207.16927083333331,128.389878064394L207.46003472222222,163.7740478441119L207.60541666666666,170.1947803199291L207.7507986111111,156.78454829007384L208.0415625,121.6324240490794L208.18694444444444,147.22221703827378L208.33232638888887,119.88914278894661L208.4777083333333,126.67593905329701L208.6230902777778,150.00473042577502L208.76847222222224,152.23891740292308L208.91385416666668,165.68970108032224L209.05923611111112,158.1967127099633L209.20461805555556,164.6295887008309L209.6407638888889,109.6105639412999L209.78614583333334,137.99545341730115L209.93152777777777,121.9366163536906L210.22229166666668,161.99230296164748L210.36767361111112,136.95550696551797L210.51305555555555,135.16661883890626L210.65843750000002,98.89915944635867L210.80381944444446,143.62784647941587L211.23996527777777,145.18611771613357L211.38534722222224,136.23662186414L211.53072916666667,104.18312703818081L211.6761111111111,130.92111410200593L211.82149305555555,132.0647474899888L211.96687500000002,156.8762016072869L212.11225694444445,101.06806816160677L212.40302083333333,157.98219559341666L212.54840277777777,126.10645765066145L212.69378472222223,151.31403212994334L212.83916666666667,144.83686802536246L212.9845486111111,101.01965894550084L213.12993055555555,147.1513340771198L213.27531249999998,144.81835053861138L213.42069444444445,143.96258988976476L213.85684027777776,118.82359055429696L214.00222222222223,154.4745879769325L214.2929861111111,109.75271449983119L214.87451388888888,153.9447241052985L215.01989583333332,142.84445238858459L215.31065972222223,129.58148108422753L215.45604166666666,122.75523213297126L215.6014236111111,116.79804125428198L215.89218749999998,130.70126702636477L216.18295138888888,136.25953519344327L216.32833333333332,158.8996628820896L216.47371527777776,143.0824872627854L216.7644791666667,129.4740027338266L216.90986111111113,132.85061424225566L217.05524305555556,159.88757354766128L217.200625,158.23336304724214L217.4913888888889,145.60163473337886L217.63677083333334,135.33673794567582L217.78215277777778,174.68601265549657L217.92753472222222,150.61284029483792L218.07291666666669,137.50608624517915L218.36368055555556,144.16842521727082L218.5090625,115.45736422389744L218.65444444444447,181.1094925329089L218.94520833333334,168.02334399521348L219.09059027777778,140.87912613153455L219.52673611111112,134.66208600997922L219.8175,103.91877205669878L219.96288194444443,144.9637430310249L220.25364583333334,146.69455108791587L220.39902777777777,124.07283098995683L220.5444097222222,155.79652772843835L220.68979166666668,96.66178548336028L220.83517361111112,143.80159215629098L220.98055555555555,157.69190514087674L221.1259375,149.35420067608354L221.56208333333333,153.46618169546124L221.70746527777777,136.24519375711677L221.8528472222222,158.59481120109555L221.99822916666668,152.31848215311763L222.1436111111111,136.73675885051486L222.28899305555555,137.95001139491794L222.434375,132.59543558210132L222.7251388888889,152.70619546622035L222.87052083333333,149.8827457949519L223.01590277777777,169.20774882286784L223.1612847222222,149.64454607665536L223.30666666666667,145.1111136525869L223.4520486111111,153.3321084976196L223.88819444444442,162.8903735950589L224.17895833333333,152.0092346295714L224.32434027777776,128.05683804303405L224.4697222222222,150.26738201826808L224.61510416666664,160.4036454632878L224.7604861111111,129.60230638831854L224.90586805555557,198.68720309436316L225.05125,128.5656018704176L225.19663194444445,113.2376835271716L225.3420138888889,148.68174666166303L225.48739583333335,135.42091833055017L225.92354166666667,161.65975747257468L226.06892361111113,173.41468004137275L226.50506944444444,143.69708099961278L226.6504513888889,151.90373440831897L226.9412152777778,147.38585227727887L227.08659722222222,135.98561925441024L227.23197916666666,145.6072394326329L227.52274305555557,124.16723170876502L227.668125,147.01781035959718L227.81350694444444,146.43750419467685L228.10427083333335,175.6395258530974L228.24965277777778,142.79681244492528L228.39503472222222,145.34491752833125L228.68579861111112,109.92448204755782L228.83118055555556,155.3776039332151L228.9765625,160.33792761713264L229.26732638888888,170.2685755267739L229.41270833333334,129.083981603384L229.55809027777778,176.1075182408094L229.84885416666665,136.12178047746417L229.99423611111112,180.31087783724067L230.285,143.16968978941438L230.43038194444443,147.54168489575383L230.57576388888887,158.62750528007743L230.72114583333334,153.69482045620677L230.86652777777778,161.24121831357476L231.0119097222222,169.39281379431483L231.3026736111111,166.41864167153832L231.44805555555556,118.6939131990075L231.88420138888887,155.9332933798432L232.17496527777777,145.99374388903377L232.6111111111111,174.91278318315742L233.1926388888889,145.08754094690082L233.9195486111111,77.32678191363811L234.35569444444445,151.67817273735997L234.5010763888889,162.97290553897616L234.64645833333333,156.8618052229285L234.7918402777778,152.1822110339999L234.93722222222223,137.37536487728354L235.08260416666667,122.5303298383951L235.37336805555557,150.1873227357864L235.51875,152.58673844486472L235.8095138888889,132.90270497649905L235.95489583333332,154.96912026405332L236.24565972222223,176.64128342270848L236.39104166666667,180.07745859771964L236.5364236111111,163.7719598188996L236.68180555555557,103.51232146471737L236.97256944444445,132.50625492632386L237.11795138888888,144.76840277761218L237.26333333333332,120.47285573184489L237.4087152777778,122.67121659219262L237.55409722222223,120.0578881949186L237.69947916666666,128.11414884030816L237.8448611111111,157.29765301197764L237.99024305555557,115.68083786964415L238.135625,118.56220276653765L238.42638888888888,170.58507619053123L238.71715277777778,130.74159888178107L238.86253472222222,146.40948069840667L239.1532986111111,126.56697710603473L239.58944444444444,174.68782594054935L239.88020833333331,148.3601358309388L240.4617361111111,151.85334706306455L240.60711805555553,156.18193322420117L240.7525,152.9641764760017L240.89788194444444,126.6229142025113L241.3340277777778,134.36663044244048L241.47940972222224,144.47157350927588L241.62479166666668,156.619649246335L242.06093750000002,145.8022499978542L242.20631944444446,155.50651201605794L242.49708333333334,155.30402851849792L242.64246527777777,137.46031453460452L242.78784722222224,124.4309273138642L243.22399305555555,176.51929879188535L243.36937500000002,129.92001590877769L243.51475694444446,174.31494859606025L243.80552083333333,137.36080364882943L243.95090277777777,124.456917732954L244.09628472222224,158.4013391807675L244.24166666666667,136.13326461613175" style="fill: none;" fill="none"></path></g></g></g></g></g></g><g transform="translate(68, 177)" clip-path="url(#clip_1)"><clipPath id="clip_1"><rect width="261" height="23"></rect></clipPath><g><g><line x1="0" y1="0" x2="0" y2="5" style="visibility: inherit;" fill="rgb(0, 0, 0)" stroke="rgb(204, 204, 204)" stroke-width="1px"></line><line x1="29.076388888888886" y1="0" x2="29.076388888888886" y2="5" style="visibility: inherit;" fill="rgb(0, 0, 0)" stroke="rgb(204, 204, 204)" stroke-width="1px"></line><line x1="58.15277777777777" y1="0" x2="58.15277777777777" y2="5" style="visibility: inherit;" fill="rgb(0, 0, 0)" stroke="rgb(204, 204, 204)" stroke-width="1px"></line><line x1="87.22916666666666" y1="0" x2="87.22916666666666" y2="5" style="visibility: inherit;" fill="rgb(0, 0, 0)" stroke="rgb(204, 204, 204)" stroke-width="1px"></line><line x1="116.30555555555554" y1="0" x2="116.30555555555554" y2="5" style="visibility: inherit;" fill="rgb(0, 0, 0)" stroke="rgb(204, 204, 204)" stroke-width="1px"></line><line x1="145.38194444444446" y1="0" x2="145.38194444444446" y2="5" style="visibility: inherit;" fill="rgb(0, 0, 0)" stroke="rgb(204, 204, 204)" stroke-width="1px"></line><line x1="174.45833333333331" y1="0" x2="174.45833333333331" y2="5" style="visibility: inherit;" fill="rgb(0, 0, 0)" stroke="rgb(204, 204, 204)" stroke-width="1px"></line><line x1="203.53472222222223" y1="0" x2="203.53472222222223" y2="5" style="visibility: inherit;" fill="rgb(0, 0, 0)" stroke="rgb(204, 204, 204)" stroke-width="1px"></line><line x1="232.6111111111111" y1="0" x2="232.6111111111111" y2="5" style="visibility: inherit;" fill="rgb(0, 0, 0)" stroke="rgb(204, 204, 204)" stroke-width="1px"></line><line x1="261.6875" y1="0" x2="261.6875" y2="5" style="visibility: inherit;" fill="rgb(0, 0, 0)" stroke="rgb(204, 204, 204)" stroke-width="1px"></line></g><g transform="translate(0, 8)"><text x="0" y="0" dx="0em" dy="0.95em" style="text-anchor: middle; visibility: hidden; font-family: &quot;Helvetica Neue&quot;, sans-serif; font-size: 12px; font-weight: 200;" fill="rgb(50, 49, 63)" stroke="none" stroke-width="1px">-200</text><text x="29.076388888888886" y="0" dx="0em" dy="0.95em" style="text-anchor: middle; visibility: inherit; font-family: &quot;Helvetica Neue&quot;, sans-serif; font-size: 12px; font-weight: 200;" fill="rgb(50, 49, 63)" stroke="none" stroke-width="1px">0</text><text x="58.15277777777777" y="0" dx="0em" dy="0.95em" style="text-anchor: middle; visibility: inherit; font-family: &quot;Helvetica Neue&quot;, sans-serif; font-size: 12px; font-weight: 200;" fill="rgb(50, 49, 63)" stroke="none" stroke-width="1px">200</text><text x="87.22916666666666" y="0" dx="0em" dy="0.95em" style="text-anchor: middle; visibility: inherit; font-family: &quot;Helvetica Neue&quot;, sans-serif; font-size: 12px; font-weight: 200;" fill="rgb(50, 49, 63)" stroke="none" stroke-width="1px">400</text><text x="116.30555555555554" y="0" dx="0em" dy="0.95em" style="text-anchor: middle; visibility: inherit; font-family: &quot;Helvetica Neue&quot;, sans-serif; font-size: 12px; font-weight: 200;" fill="rgb(50, 49, 63)" stroke="none" stroke-width="1px">600</text><text x="145.38194444444446" y="0" dx="0em" dy="0.95em" style="text-anchor: middle; visibility: inherit; font-family: &quot;Helvetica Neue&quot;, sans-serif; font-size: 12px; font-weight: 200;" fill="rgb(50, 49, 63)" stroke="none" stroke-width="1px">800</text><text x="174.45833333333331" y="0" dx="0em" dy="0.95em" style="text-anchor: middle; visibility: inherit; font-family: &quot;Helvetica Neue&quot;, sans-serif; font-size: 12px; font-weight: 200;" fill="rgb(50, 49, 63)" stroke="none" stroke-width="1px">1k</text><text x="203.53472222222223" y="0" dx="0em" dy="0.95em" style="text-anchor: middle; visibility: inherit; font-family: &quot;Helvetica Neue&quot;, sans-serif; font-size: 12px; font-weight: 200;" fill="rgb(50, 49, 63)" stroke="none" stroke-width="1px">1.2k</text><text x="232.6111111111111" y="0" dx="0em" dy="0.95em" style="text-anchor: middle; visibility: inherit; font-family: &quot;Helvetica Neue&quot;, sans-serif; font-size: 12px; font-weight: 200;" fill="rgb(50, 49, 63)" stroke="none" stroke-width="1px">1.4k</text><text x="261.6875" y="0" dx="0em" dy="0.95em" style="text-anchor: middle; visibility: hidden; font-family: &quot;Helvetica Neue&quot;, sans-serif; font-size: 12px; font-weight: 200;" fill="rgb(50, 49, 63)" stroke="none" stroke-width="1px">1.6k</text></g><line x1="0" y1="0" x2="261.6875" y2="0" fill="rgb(0, 0, 0)" stroke="rgb(204, 204, 204)" stroke-width="1px"></line></g></g></g></g></svg>