<svg viewBox="0 0 330 200" xmlns="http://www.w3.org/2000/svg"><g><g><g><g><g><line x1="48.875" y1="177" x2="43.875" y2="177" style="visibility: inherit;" fill="rgb(0, 0, 0)" stroke="rgb(204, 204, 204)" stroke-width="1px"></line><line x1="48.875" y1="154.875" x2="43.875" y2="154.875" style="visibility: inherit;" fill="rgb(0, 0, 0)" stroke="rgb(204, 204, 204)" stroke-width="1px"></line><line x1="48.875" y1="132.75" x2="43.875" y2="132.75" style="visibility: inherit;" fill="rgb(0, 0, 0)" stroke="rgb(204, 204, 204)" stroke-width="1px"></line><line x1="48.875" y1="110.625" x2="43.875" y2="110.625" style="visibility: inherit;" fill="rgb(0, 0, 0)" stroke="rgb(204, 204, 204)" stroke-width="1px"></line><line x1="48.875" y1="88.5" x2="43.875" y2="88.5" style="visibility: inherit;" fill="rgb(0, 0, 0)" stroke="rgb(204, 204, 204)" stroke-width="1px"></line><line x1="48.875" y1="66.375" x2="43.875" y2="66.375" style="visibility: inherit;" fill="rgb(0, 0, 0)" stroke="rgb(204, 204, 204)" stroke-width="1px"></line><line x1="48.875" y1="44.25" x2="43.875" y2="44.25" style="visibility: inherit;" fill="rgb(0, 0, 0)" stroke="rgb(204, 204, 204)" stroke-width="1px"></line><line x1="48.875" y1="22.125" x2="43.875" y2="22.125" style="visibility: inherit;" fill="rgb(0, 0, 0)" stroke="rgb(204, 204, 204)" stroke-width="1px"></line><line x1="48.875" y1="0" x2="43.875" y2="0" style="visibility: inherit;" fill="rgb(0, 0, 0)" stroke="rgb(204, 204, 204)" stroke-width="1px"></line></g><g transform="translate(38.875, 0)"><text x="0" y="177" dx="0em" dy="0.3em" style="text-anchor: end; visibility: hidden; font-family: &quot;Helvetica Neue&quot;, sans-serif; font-size: 12px; font-weight: 200;" fill="rgb(50, 49, 63)" stroke="none" stroke-width="1px">93.5</text><text x="0" y="154.875" dx="0em" dy="0.3em" style="text-anchor: end; visibility: inherit; font-family: &quot;Helvetica Neue&quot;, sans-serif; font-size: 12px; font-weight: 200;" fill="rgb(50, 49, 63)" stroke="none" stroke-width="1px">94</text><text x="0" y="132.75" dx="0em" dy="0.3em" style="text-anchor: end; visibility: hidden; font-family: &quot;Helvetica Neue&quot;, sans-serif; font-size: 12px; font-weight: 200;" fill="rgb(50, 49, 63)" stroke="none" stroke-width="1px">94.5</text><text x="0" y="110.625" dx="0em" dy="0.3em" style="text-anchor: end; visibility: inherit; font-family: &quot;Helvetica Neue&quot;, sans-serif; font-size: 12px; font-weight: 200;" fill="rgb(50, 49, 63)" stroke="none" stroke-width="1px">95</text><text x="0" y="88.5" dx="0em" dy="0.3em" style="text-anchor: end; visibility: hidden; font-family: &quot;Helvetica Neue&quot;, sans-serif; font-size: 12px; font-weight: 200;" fill="rgb(50, 49, 63)" stroke="none" stroke-width="1px">95.5</text><text x="0" y="66.375" dx="0em" dy="0.3em" style="text-anchor: end; visibility: inherit; font-family: &quot;Helvetica Neue&quot;, sans-serif; font-size: 12px; font-weight: 200;" fill="rgb(50, 49, 63)" stroke="none" stroke-width="1px">96</text><text x="0" y="44.25" dx="0em" dy="0.3em" style="text-anchor: end; visibility: hidden; font-family: &quot;Helvetica Neue&quot;, sans-serif; font-size: 12px; font-weight: 200;" fill="rgb(50, 49, 63)" stroke="none" stroke-width="1px">96.5</text><text x="0" y="22.125" dx="0em" dy="0.3em" style="text-anchor: end; visibility: inherit; font-family: &quot;Helvetica Neue&quot;, sans-serif; font-size: 12px; font-weight: 200;" fill="rgb(50, 49, 63)" stroke="none" stroke-width="1px">97</text><text x="0" y="0" dx="0em" dy="0.3em" style="text-anchor: end; visibility: hidden; font-family: &quot;Helvetica Neue&quot;, sans-serif; font-size: 12px; font-weight: 200;" fill="rgb(50, 49, 63)" stroke="none" stroke-width="1px">97.5</text></g><line x1="48.875" y1="0" x2="48.875" y2="177" fill="rgb(0, 0, 0)" stroke="rgb(204, 204, 204)" stroke-width="1px"></line></g></g><g transform="translate(48, 0)" clip-path="url(#clip_0)"><clipPath id="clip_0"><rect width="281" height="177"></rect></clipPath><g><g><g><line x1="0" y1="0" x2="0" y2="177" fill="rgb(0, 0, 0)" stroke="rgb(60, 60, 60)" stroke-width="1px" opacity="0.25"></line><line x1="23.427083333333332" y1="0" x2="23.427083333333332" y2="177" fill="rgb(0, 0, 0)" stroke="rgb(60, 60, 60)" stroke-width="1px" opacity="0.25"></line><line x1="46.854166666666664" y1="0" x2="46.854166666666664" y2="177" fill="rgb(0, 0, 0)" stroke="rgb(60, 60, 60)" stroke-width="1px" opacity="0.25"></line><line x1="70.28125" y1="0" x2="70.28125" y2="177" fill="rgb(0, 0, 0)" stroke="rgb(60, 60, 60)" stroke-width="1px" opacity="0.25"></line><line x1="93.70833333333333" y1="0" x2="93.70833333333333" y2="177" fill="rgb(0, 0, 0)" stroke="rgb(60, 60, 60)" stroke-width="1px" opacity="0.25"></line><line x1="117.13541666666667" y1="0" x2="117.13541666666667" y2="177" fill="rgb(0, 0, 0)" stroke="rgb(60, 60, 60)" stroke-width="1px" opacity="0.25"></line><line x1="140.5625" y1="0" x2="140.5625" y2="177" fill="rgb(0, 0, 0)" stroke="rgb(60, 60, 60)" stroke-width="1px" opacity="0.25"></line><line x1="163.98958333333334" y1="0" x2="163.98958333333334" y2="177" fill="rgb(0, 0, 0)" stroke="rgb(60, 60, 60)" stroke-width="1px" opacity="0.25"></line><line x1="187.41666666666666" y1="0" x2="187.41666666666666" y2="177" fill="rgb(0, 0, 0)" stroke="rgb(60, 60, 60)" stroke-width="1px" opacity="0.25"></line><line x1="210.84375" y1="0" x2="210.84375" y2="177" fill="rgb(0, 0, 0)" stroke="rgb(60, 60, 60)" stroke-width="1px" opacity="0.25"></line><line x1="234.27083333333334" y1="0" x2="234.27083333333334" y2="177" fill="rgb(0, 0, 0)" stroke="rgb(60, 60, 60)" stroke-width="1px" opacity="0.25"></line><line x1="257.69791666666663" y1="0" x2="257.69791666666663" y2="177" fill="rgb(0, 0, 0)" stroke="rgb(60, 60, 60)" stroke-width="1px" opacity="0.25"></line><line x1="281.125" y1="0" x2="281.125" y2="177" fill="rgb(0, 0, 0)" stroke="rgb(60, 60, 60)" stroke-width="1px" opacity="0.25"></line></g><g><line x1="0" y1="177" x2="281.125" y2="177" fill="rgb(0, 0, 0)" stroke="rgb(60, 60, 60)" stroke-width="1px" opacity="0.25"></line><line x1="0" y1="154.875" x2="281.125" y2="154.875" fill="rgb(0, 0, 0)" stroke="rgb(60, 60, 60)" stroke-width="1px" opacity="0.25"></line><line x1="0" y1="132.75" x2="281.125" y2="132.75" fill="rgb(0, 0, 0)" stroke="rgb(60, 60, 60)" stroke-width="1px" opacity="0.25"></line><line x1="0" y1="110.625" x2="281.125" y2="110.625" fill="rgb(0, 0, 0)" stroke="rgb(60, 60, 60)" stroke-width="1px" opacity="0.25"></line><line x1="0" y1="88.5" x2="281.125" y2="88.5" fill="rgb(0, 0, 0)" stroke="rgb(60, 60, 60)" stroke-width="1px" opacity="0.25"></line><line x1="0" y1="66.375" x2="281.125" y2="66.375" fill="rgb(0, 0, 0)" stroke="rgb(60, 60, 60)" stroke-width="1px" opacity="0.25"></line><line x1="0" y1="44.25" x2="281.125" y2="44.25" fill="rgb(0, 0, 0)" stroke="rgb(60, 60, 60)" stroke-width="1px" opacity="0.25"></line><line x1="0" y1="22.125" x2="281.125" y2="22.125" fill="rgb(0, 0, 0)" stroke="rgb(60, 60, 60)" stroke-width="1px" opacity="0.25"></line><line x1="0" y1="0" x2="281.125" y2="0" fill="rgb(0, 0, 0)" stroke="rgb(60, 60, 60)" stroke-width="1px" opacity="0.25"></line></g></g></g><g><g><line x1="0" y1="4314.375" x2="281.125" y2="4314.375" fill="rgb(0, 0, 0)" stroke="rgb(153, 153, 153)" stroke-width="1.5px"></line></g></g><g><g><line x1="23.427083333333332" y1="0" x2="23.427083333333332" y2="177" fill="rgb(0, 0, 0)" stroke="rgb(153, 153, 153)" stroke-width="1.5px"></line></g></g><g><g><g><g><g><path stroke="rgb(204, 51, 17)" stroke-width="2px" d="M28.1125,201.12393379211426L30.455208333333335,138.5702362060547L32.797916666666666,95.73444557189941L35.140625,116.64239501953125L37.483333333333334,99.81401252746582L39.82604166666667,145.36951446533203L42.168749999999996,134.6604824066162L44.51145833333333,128.5411319732666L46.854166666666664,174.26678466796875L49.196875,152.3389434814453L51.53958333333333,94.71455383300781L53.88229166666667,155.56843185424805L56.225,107.2932186126709L58.567708333333336,90.29502296447754L60.91041666666667,161.00785446166992L63.253125000000004,136.19048881530762L65.59583333333333,110.86300849914551L67.93854166666667,119.70207023620605L70.28125,174.60674858093262L72.62395833333333,93.52484893798828L74.96666666666667,148.93930435180664L77.309375,100.49394035339355L79.65208333333334,82.4758529663086L81.99479166666667,119.87222099304199L84.33749999999999,63.097572326660156L86.68020833333334,126.84131240844727L89.02291666666666,125.82142066955566L91.36562500000001,101.17386817932129L93.70833333333333,97.26445198059082L96.05104166666666,132.1109218597412L98.39375,99.30423545837402L100.73645833333333,118.00225067138672L103.07916666666667,122.25196838378906L105.421875,88.42505264282227L107.76458333333333,98.28434371948242L110.10729166666667,160.838041305542L112.45,96.58452415466309L114.79270833333334,82.13588905334473L117.13541666666667,83.4957447052002L119.47812499999999,103.89357948303223L121.82083333333334,197.89444541931152L124.16354166666666,109.16318893432617L126.50625000000001,108.14329719543457L128.84895833333331,89.10498046875L131.19166666666666,134.6604824066162L133.53437499999998,67.51744079589844L135.87708333333333,106.61329078674316L138.21979166666665,105.93336296081543L140.5625,113.41256904602051L141.03104166666668,73.46664047241211L141.49958333333333,73.63679122924805L141.96812500000001,174.43659782409668L142.43666666666667,101.51383209228516L142.90520833333332,79.41617774963379L143.37375,94.88470458984375L143.84229166666668,109.3330020904541L144.31083333333333,124.9716796875L144.77937500000002,84.17567253112793L145.24791666666667,61.22793960571289L145.71645833333332,107.46336936950684L146.185,124.4615650177002L146.65354166666665,117.15250968933105L147.12208333333334,80.09610557556152L147.59062500000002,107.63318252563477L148.05916666666664,124.29175186157227L148.52770833333332,107.12340545654297L148.99625,113.41256904602051L149.46479166666666,81.11599731445312L149.93333333333334,91.65487861633301L150.40187500000002,87.5753116607666L150.87041666666664,101.51383209228516L151.33895833333332,168.82736206054688L151.8075,97.60441589355469L152.27604166666666,128.0313549041748L152.74458333333334,82.4758529663086L153.21312500000002,92.33480644226074L153.68166666666664,64.11746406555176L154.15020833333332,88.25523948669434L154.61875,96.92448806762695L155.08729166666666,89.44494438171387L155.55583333333334,77.37639427185059L156.02437500000002,72.27693557739258L156.49291666666667,91.82502937316895L156.96145833333333,139.08001327514648L157.43,92.84492111206055L157.89854166666666,96.92448806762695L158.36708333333334,96.92448806762695L158.835625,106.10351371765137L159.30416666666667,66.66736221313477L159.77270833333333,154.71869087219238L160.24124999999998,936.640754699707L161.17833333333334,577.1267223358154L161.646875,145.53966522216797L162.11541666666668,61.39775276184082L162.58395833333336,157.43840217590332L163.05249999999998,91.99484252929688L163.52104166666666,119.87222099304199L163.98958333333334,53.74873352050781L164.458125,84.34548568725586L164.92666666666668,96.75433731079102L165.39520833333336,92.50495719909668L165.86374999999998,136.02033805847168L166.33229166666666,95.22466850280762L166.80083333333334,85.0254135131836L167.269375,89.95505905151367L167.73791666666668,105.59339904785156L168.20645833333336,96.75433731079102L168.67499999999998,161.51796913146973L169.14354166666666,90.1248722076416L169.61208333333335,127.521240234375L170.080625,90.46483612060547L170.54916666666668,333.2007579803467L171.01770833333333,105.93336296081543L171.48624999999998,93.69466209411621L171.95479166666667,84.00552177429199L172.42333333333332,83.66555786132812L172.891875,75.84638786315918L173.36041666666668,133.81074142456055L173.82895833333333,94.03462600708008L174.29749999999999,114.94257545471191L174.76604166666667,107.8033332824707L175.23458333333332,115.28253936767578L175.703125,156.24835968017578L176.17166666666668,101.51383209228516L176.64020833333333,92.67477035522461L177.10875000000001,121.06192588806152L177.57729166666667,115.45235252380371L178.04583333333332,123.61182403564453L178.514375,93.52484893798828L178.98291666666668,84.34548568725586L179.45145833333333,108.99303817749023L179.92000000000002,89.27513122558594L180.38854166666667,114.26264762878418L180.85708333333332,107.97314643859863L181.325625,73.12667655944824L181.79416666666665,78.22613525390625L182.26270833333334,83.83570861816406L182.73125000000002,87.5753116607666L183.19979166666664,131.43099403381348L183.66833333333332,87.74512481689453L184.136875,102.87368774414062L184.60541666666666,85.36537742614746L185.07395833333334,72.78671264648438L185.54250000000002,81.96573829650879L186.01104166666664,76.69646644592285L186.47958333333332,106.44347763061523L186.948125,131.26084327697754L187.41666666666666,121.57204055786133L187.88520833333334,106.10351371765137L188.35375000000002,134.49066925048828L188.82229166666664,130.92087936401367L189.29083333333332,75.16646003723145L189.759375,123.27186012268066L190.22791666666666,87.74512481689453L190.69645833333334,94.88470458984375L191.16500000000002,151.48886489868164L191.63354166666667,70.06700134277344L192.10208333333333,105.7635498046875L192.570625,105.7635498046875L193.03916666666666,108.8232250213623L193.50770833333334,80.09610557556152L193.97625,161.68778228759766L194.44479166666667,88.25523948669434L194.91333333333333,114.94257545471191L195.38187499999998,118.51236534118652L195.85041666666666,76.18635177612305L196.31895833333334,127.69139099121094L196.7875,95.90459632873535L197.25604166666668,93.69466209411621L197.72458333333336,136.36030197143555L198.19312499999998,72.61689949035645L198.66166666666666,108.14329719543457L199.13020833333334,98.45415687561035L199.59875,68.02721786499023L200.06729166666668,85.70534133911133L200.53583333333336,129.0512466430664L201.00437499999998,86.0453052520752L201.47291666666666,944.9700393676758L201.94145833333334,632.7109909057617L202.41,120.72196197509766L202.87854166666668,112.22286415100098L203.34708333333336,100.66409111022949L203.81562499999998,134.83063316345215L204.28416666666666,79.75614166259766L204.75270833333335,74.14656829833984L205.22125,110.3528938293457L205.68979166666668,87.91527557373047L206.15833333333333,182.25576782226562L206.62687499999998,79.58599090576172L207.09541666666667,112.3926773071289L207.56395833333332,95.73444557189941L208.0325,124.80152893066406L208.50104166666668,57.82830047607422L208.96958333333333,71.4268569946289L209.43812499999999,80.26591873168945L209.90666666666667,88.0850887298584L210.37520833333332,83.32559394836426L210.84375,83.83570861816406L211.31229166666668,94.37458992004395L211.78083333333333,96.92448806762695L212.24937500000001,93.18488502502441L212.71791666666667,84.5156364440918L213.18645833333332,84.85560035705566L213.655,178.0063877105713L214.12354166666668,135.51056098937988L214.59208333333333,94.03462600708008L215.06062500000002,135.34041023254395L215.52916666666667,70.06700134277344L215.99770833333332,173.75666999816895L216.46625,104.91347122192383L216.93479166666665,85.70534133911133L217.40333333333334,94.71455383300781L217.87187500000002,116.30243110656738L218.34041666666664,54.42866134643555L218.80895833333332,88.5952033996582L219.2775,93.52484893798828L219.74604166666666,120.72196197509766L220.21458333333334,126.5013484954834L220.68312500000002,93.52484893798828L221.15166666666664,93.18488502502441L221.62020833333332,79.24602699279785L222.08875,122.08181762695312L222.55729166666666,81.45596122741699L223.02583333333334,104.40369415283203L223.49437500000002,68.3671817779541L223.96291666666664,159.3080348968506L224.43145833333332,91.48506546020508L224.9,120.55214881896973L225.36854166666666,145.53966522216797L225.83708333333334,91.82502937316895L226.30562500000002,79.58599090576172L226.77416666666667,91.82502937316895L227.24270833333333,129.5610237121582L227.71125,121.40188980102539L228.17979166666666,149.10911750793457L228.64833333333334,120.21218490600586L229.116875,141.46009826660156L229.58541666666667,89.44494438171387L230.05395833333333,99.64419937133789L230.52249999999998,120.8921127319336L230.99104166666666,155.05865478515625L231.45958333333334,104.06373023986816L231.928125,120.21218490600586L232.39666666666668,182.0859546661377L232.86520833333336,119.87222099304199L233.33374999999998,106.61329078674316L233.80229166666666,135.17059707641602L234.27083333333334,102.19375991821289L234.739375,113.92268371582031L235.20791666666668,107.97314643859863L235.67645833333336,134.49066925048828L236.14499999999998,76.18635177612305L236.61354166666666,109.8431167602539L237.08208333333334,90.80513763427734L237.550625,139.93009185791016L238.01916666666668,116.81254577636719L238.48770833333336,108.3131103515625L238.95624999999998,86.21545600891113L239.42479166666666,75.16646003723145L239.89333333333335,85.87549209594727L240.361875,82.13588905334473L240.83041666666668,101.17386817932129L241.29895833333333,124.9716796875L241.76749999999998,81.28581047058105L242.23604166666667,134.32051849365234L242.70458333333332,136.87041664123535L243.173125,75.67657470703125L243.64166666666668,123.61182403564453L244.11020833333333,93.86481285095215L244.57874999999999,132.96066284179688L245.04729166666667,136.36030197143555L245.51583333333332,87.91527557373047L245.984375,151.3190517425537L246.45291666666668,123.61182403564453L246.92145833333333,82.64566612243652L247.39000000000001,101.34401893615723L247.85854166666667,179.0262794494629L248.32708333333332,78.73624992370605L248.795625,80.94584655761719L249.26416666666668,115.62250328063965L249.73270833333333,72.10678482055664L250.20125000000002,133.47077751159668L250.66979166666667,101.00405502319336L251.13833333333332,67.68725395202637L251.606875,118.17240142822266L252.07541666666665,170.86714553833008L252.54395833333334,85.36537742614746L253.01250000000002,85.19556427001953L253.48104166666664,71.25704383850098L253.94958333333332,94.37458992004395L254.418125,108.65307426452637L254.88666666666666,90.46483612060547L255.35520833333334,98.28434371948242L255.82375000000002,86.89538383483887L256.29229166666664,147.40929794311523L256.7608333333333,154.54854011535645L257.229375,91.14510154724121L257.69791666666663,158.11833000183105L257.9321875,77.71635818481445L258.1664583333333,126.84131240844727L258.4007291666667,174.60674858093262L258.635,169.5072898864746L258.8692708333333,146.04944229125977L259.1035416666667,124.4615650177002L259.3378125,87.74512481689453L259.57208333333335,79.07621383666992L259.80635416666667,110.52304458618164L260.04062500000003,260.78810691833496L260.27489583333335,107.12340545654297L260.50916666666666,119.87222099304199L260.74343749999997,108.8232250213623L260.97770833333334,118.68217849731445L261.21197916666665,110.18308067321777L261.44625,108.3131103515625L261.68052083333333,89.6150951385498L261.91479166666664,117.49247360229492L262.1490625,129.22105979919434L262.3833333333333,86.89538383483887L262.6176041666667,99.30423545837402L262.851875,123.10170936584473L263.0861458333333,109.67296600341797L263.3204166666667,89.6150951385498L263.5546875,115.96246719360352L263.7889583333333,77.88617134094238L264.0232291666667,85.0254135131836L264.2575,105.59339904785156L264.4917708333333,157.43840217590332L264.7260416666667,922.0223064422607L265.19458333333336,951.2595405578613L265.42885416666667,92.33480644226074L265.663125,142.1400260925293L265.89739583333335,72.78671264648438L266.13166666666666,108.65307426452637L266.36593750000003,112.22286415100098L266.60020833333334,88.93516731262207L266.83447916666665,95.05451774597168L267.06874999999997,108.14329719543457L267.30302083333333,119.53225708007812" style="fill: none;" fill="none"></path></g><g><path stroke="rgb(0, 153, 136)" stroke-width="2px" d="M23.427083333333332,3673.313286781311L25.769791666666666,175.84911918640137L28.1125,118.5545654296875L30.455208333333335,105.1977310180664L32.797916666666666,95.76955604553223L35.140625,100.12089157104492L37.483333333333334,93.65415000915527L39.82604166666667,81.56669425964355L42.168749999999996,82.95659637451172L44.51145833333333,89.66539764404297L46.854166666666664,96.7364444732666L49.196875,84.83028030395508L51.53958333333333,78.72612190246582L53.88229166666667,83.7421932220459L56.225,77.21502113342285L58.567708333333336,81.44583320617676L60.91041666666667,99.87916946411133L63.253125000000004,76.18770217895508L65.59583333333333,83.07745742797852L67.93854166666667,81.38540267944336L70.28125,73.64928245544434L72.62395833333333,71.53387641906738L74.96666666666667,86.34104347229004L77.309375,77.51717376708984L79.65208333333334,81.74798583984375L81.99479166666667,69.23717880249023L84.33749999999999,65.73187065124512L86.68020833333334,70.9295711517334L89.02291666666666,69.78139114379883L91.36562500000001,74.49530982971191L93.70833333333333,68.87459564208984L96.05104166666666,67.78684616088867L98.39375,66.1548843383789L100.73645833333333,75.0391845703125L103.07916666666667,75.4625358581543L105.421875,65.97359275817871L107.76458333333333,64.88584327697754L110.10729166666667,65.67144012451172L112.45,64.34196853637695L114.79270833333334,65.73187065124512L117.13541666666667,68.33072090148926L119.47812499999999,75.64382743835449L121.82083333333334,74.8578929901123L124.16354166666666,91.05529975891113L126.50625000000001,87.85214424133301L128.84895833333331,81.38540267944336L131.19166666666666,70.7482795715332L133.53437499999998,77.94018745422363L135.87708333333333,73.95143508911133L138.21979166666665,71.53387641906738L140.5625,67.36383247375488L141.03104166666668,92.6872615814209L141.49958333333333,73.16583824157715L141.96812500000001,79.3304271697998L142.43666666666667,70.6878490447998L142.90520833333332,72.86368560791016L143.37375,67.54512405395508L143.84229166666668,74.73703193664551L144.31083333333333,80.23688507080078L144.77937500000002,66.09445381164551L145.24791666666667,74.07229614257812L145.71645833333332,70.08354377746582L146.185,72.07775115966797L146.65354166666665,73.22626876831055L147.12208333333334,81.20411109924316L147.59062500000002,72.56153297424316L148.05916666666664,76.00641059875488L148.52770833333332,73.04497718811035L148.99625,75.5229663848877L149.46479166666666,76.67114639282227L149.93333333333334,72.50110244750977L150.40187500000002,71.41301536560059L150.87041666666664,69.11631774902344L151.33895833333332,68.33072090148926L151.8075,73.28669929504395L152.27604166666666,70.9900016784668L152.74458333333334,77.27545166015625L153.21312500000002,70.7482795715332L153.68166666666664,77.03372955322266L154.15020833333332,67.78684616088867L154.61875,67.90770721435547L155.08729166666666,69.90225219726562L155.55583333333334,73.04497718811035L156.02437500000002,69.96268272399902L156.49291666666667,83.5609016418457L156.96145833333333,65.24842643737793L157.43,81.02281951904297L157.89854166666666,69.72096061706543L158.36708333333334,79.6325798034668L158.835625,76.97329902648926L159.30416666666667,75.0391845703125L159.77270833333333,67.12211036682129L160.24124999999998,90.81357765197754L160.70979166666666,891.611909866333L161.646875,458.15319442749023L162.11541666666668,71.95689010620117L162.58395833333336,79.4512882232666L163.05249999999998,74.8578929901123L163.52104166666666,81.02281951904297L163.98958333333334,76.67114639282227L164.458125,70.6878490447998L164.92666666666668,75.3416748046875L165.39520833333336,74.25358772277832L165.86374999999998,77.27545166015625L166.33229166666666,72.50110244750977L166.80083333333334,79.81387138366699L167.269375,72.44067192077637L167.73791666666668,71.95689010620117L168.20645833333336,84.34683609008789L168.67499999999998,69.23717880249023L169.14354166666666,81.44583320617676L169.61208333333335,71.0504322052002L170.080625,77.69846534729004L170.54916666666668,70.38569641113281L171.01770833333333,70.14397430419922L171.48624999999998,72.62196350097656L171.95479166666667,71.71516799926758L172.42333333333332,65.49014854431152L172.891875,75.70425796508789L173.36041666666668,68.33072090148926L173.82895833333333,77.69846534729004L174.29749999999999,77.27545166015625L174.76604166666667,79.6325798034668L175.23458333333332,71.95689010620117L175.703125,89.78625869750977L176.17166666666668,76.30856323242188L176.64020833333333,74.73703193664551L177.10875000000001,75.4625358581543L177.57729166666667,68.51201248168945L178.04583333333332,69.84182167053223L178.514375,69.90225219726562L178.98291666666668,71.71516799926758L179.45145833333333,69.53966903686523L179.92000000000002,71.35258483886719L180.38854166666667,73.28669929504395L180.85708333333332,80.96238899230957L181.325625,68.63287353515625L181.79416666666665,73.04497718811035L182.26270833333334,79.2699966430664L182.73125000000002,73.64928245544434L183.19979166666664,67.54512405395508L183.66833333333332,73.89100456237793L184.136875,76.24813270568848L184.60541666666666,76.30856323242188L185.07395833333334,69.90225219726562L185.54250000000002,80.53903770446777L186.01104166666664,75.70425796508789L186.47958333333332,75.4625358581543L186.948125,67.48469352722168L187.41666666666666,81.50626373291016L187.88520833333334,70.20440483093262L188.35375000000002,68.93502616882324L188.82229166666664,72.19861221313477L189.29083333333332,71.77559852600098L189.759375,79.08870506286621L190.22791666666666,70.9900016784668L190.69645833333334,80.29731559753418L191.16500000000002,70.32526588439941L191.63354166666667,73.83057403564453L192.10208333333333,75.88554954528809L192.570625,73.83057403564453L193.03916666666666,71.83602905273438L193.50770833333334,78.78655242919922L193.97625,68.93502616882324L194.44479166666667,71.35258483886719L194.91333333333333,76.55028533935547L195.38187499999998,74.8578929901123L195.85041666666666,75.4021053314209L196.31895833333334,72.86368560791016L196.7875,73.95143508911133L197.25604166666668,76.24813270568848L197.72458333333336,75.76468849182129L198.19312499999998,73.83057403564453L198.66166666666666,76.30856323242188L199.13020833333334,73.77014350891113L199.59875,68.33072090148926L200.06729166666668,75.3416748046875L200.53583333333336,78.12181663513184L201.00437499999998,70.20440483093262L201.47291666666666,863.3874778747559L202.41,329.9651927947998L202.87854166666668,74.31401824951172L203.34708333333336,73.04497718811035L203.81562499999998,75.3416748046875L204.28416666666666,74.01186561584473L204.75270833333335,66.7595272064209L205.22125,70.6878490447998L205.68979166666668,71.17129325866699L206.15833333333333,76.85243797302246L206.62687499999998,72.62196350097656L207.09541666666667,69.23717880249023L207.56395833333332,79.7534408569336L208.0325,68.14942932128906L208.50104166666668,71.71516799926758L208.96958333333333,68.33072090148926L209.43812499999999,73.46799087524414L209.90666666666667,68.99545669555664L210.37520833333332,75.0996150970459L210.84375,74.07229614257812L211.31229166666668,71.23172378540039L211.78083333333333,78.36353874206543L212.24937500000001,69.78139114379883L212.71791666666667,68.39115142822266L213.18645833333332,69.72096061706543L213.655,79.7534408569336L214.12354166666668,69.11631774902344L214.59208333333333,78.90741348266602L215.06062500000002,76.42942428588867L215.52916666666667,74.37444877624512L215.99770833333332,70.14397430419922L216.46625,68.69330406188965L216.93479166666665,74.31401824951172L217.40333333333334,74.19315719604492L217.87187500000002,76.97329902648926L218.34041666666664,85.43458557128906L218.80895833333332,72.80325508117676L219.2775,72.44067192077637L219.74604166666666,71.53387641906738L220.21458333333334,76.61071586608887L220.68312500000002,68.20985984802246L221.15166666666664,70.38569641113281L221.62020833333332,70.9900016784668L222.08875,70.44612693786621L222.55729166666666,81.50626373291016L223.02583333333334,80.65989875793457L223.49437500000002,75.88554954528809L223.96291666666664,69.78139114379883L224.43145833333332,71.71516799926758L224.9,71.83602905273438L225.36854166666666,74.19315719604492L225.83708333333334,74.73703193664551L226.30562500000002,78.66569137573242L226.77416666666667,75.2812442779541L227.24270833333333,75.94598007202148L227.71125,78.90741348266602L228.17979166666666,79.6325798034668L228.64833333333334,69.66053009033203L229.116875,75.2812442779541L229.58541666666667,70.50655746459961L230.05395833333333,75.88554954528809L230.52249999999998,72.62196350097656L230.99104166666666,74.61617088317871L231.45958333333334,81.14368057250977L231.928125,70.6878490447998L232.39666666666668,70.08354377746582L232.86520833333336,71.71516799926758L233.33374999999998,76.97329902648926L233.80229166666666,83.6213321685791L234.27083333333334,75.2208137512207L234.739375,75.3416748046875L235.20791666666668,79.14913558959961L235.67645833333336,71.71516799926758L236.14499999999998,83.13788795471191L236.61354166666666,74.9183235168457L237.08208333333334,72.44067192077637L237.550625,71.47344589233398L238.01916666666668,74.49530982971191L238.48770833333336,78.06104850769043L238.95624999999998,75.4021053314209L239.42479166666666,76.91286849975586L239.89333333333335,71.23172378540039L240.361875,82.83573532104492L240.83041666666668,73.34712982177734L241.29895833333333,82.95659637451172L241.76749999999998,76.00641059875488L242.23604166666667,67.18254089355469L242.70458333333332,70.869140625L243.173125,71.35258483886719L243.64166666666668,69.78139114379883L244.11020833333333,74.73703193664551L244.57874999999999,74.7974624633789L245.04729166666667,71.59430694580078L245.51583333333332,75.64382743835449L245.984375,69.60009956359863L246.45291666666668,78.48439979553223L246.92145833333333,73.70971298217773L247.39000000000001,70.08354377746582L247.85854166666667,66.6386661529541L248.32708333333332,71.17129325866699L248.795625,71.53387641906738L249.26416666666668,76.73157691955566L249.73270833333333,70.6274185180664L250.20125000000002,78.00061798095703L250.66979166666667,67.90770721435547L251.13833333333332,74.8578929901123L251.606875,68.57244300842285L252.07541666666665,72.25904273986816L252.54395833333334,74.25358772277832L253.01250000000002,77.21502113342285L253.48104166666664,68.08899879455566L253.94958333333332,68.75373458862305L254.418125,68.57244300842285L254.88666666666666,79.4512882232666L255.35520833333334,72.25904273986816L255.82375000000002,72.80325508117676L256.29229166666664,73.95143508911133L256.7608333333333,75.5229663848877L257.229375,72.13818168640137L257.69791666666663,71.41301536560059L257.9321875,70.869140625L258.1664583333333,68.87459564208984L258.4007291666667,75.76468849182129L258.635,76.18770217895508L258.8692708333333,75.5833969116211L259.1035416666667,75.1600456237793L259.3378125,73.28669929504395L259.57208333333335,69.41847038269043L259.80635416666667,78.66569137573242L260.04062500000003,71.71516799926758L260.27489583333335,69.35803985595703L260.50916666666666,76.85243797302246L260.74343749999997,73.34712982177734L260.97770833333334,75.0996150970459L261.21197916666665,70.6878490447998L261.44625,72.25904273986816L261.68052083333333,67.48469352722168L261.91479166666664,76.00641059875488L262.1490625,72.74282455444336L262.3833333333333,69.11631774902344L262.6176041666667,66.5174674987793L262.851875,72.13818168640137L263.0861458333333,85.49501609802246L263.3204166666667,71.0504322052002L263.5546875,68.87459564208984L263.7889583333333,75.0996150970459L264.0232291666667,70.26483535766602L264.2575,72.68239402770996L264.4917708333333,73.77014350891113L264.7260416666667,80.41817665100098L264.9603125,863.2666168212891L265.42885416666667,363.9312000274658L265.663125,90.99486923217773L265.89739583333335,73.04497718811035L266.13166666666666,75.2812442779541L266.36593750000003,67.18254089355469L266.60020833333334,75.4625358581543L266.83447916666665,71.83602905273438L267.06874999999997,69.17674827575684L267.30302083333333,71.29215431213379" style="fill: none;" fill="none"></path></g><g><path stroke="rgb(0, 119, 187)" stroke-width="2px" d="M24.364166666666666,241.57997703552246L24.832708333333333,176.30656814575195L25.30125,135.00044631958008L25.769791666666666,122.25196838378906L26.238333333333333,115.62250328063965L26.706875,99.13408470153809L27.175416666666667,94.88470458984375L27.64395833333333,89.27513122558594L28.1125,76.35650253295898L28.581041666666668,89.10498046875L29.049583333333334,79.24602699279785L29.518124999999998,88.0850887298584L29.986666666666668,74.48653221130371L30.455208333333335,68.53733253479004L30.923750000000002,70.4069652557373L31.392291666666665,82.98563003540039L31.860833333333332,86.0453052520752L32.329375,82.13588905334473L32.797916666666666,74.99664688110352L33.26645833333333,79.75614166259766L33.735,82.13588905334473L34.203541666666666,86.0453052520752L34.67208333333333,69.55722427368164L35.140625,75.16646003723145L35.60916666666667,73.97675514221191L36.077708333333334,76.52631568908691L36.54625,65.8176212310791L37.01479166666666,61.907867431640625L37.483333333333334,76.01653861999512L37.951875,58.84819221496582L38.42041666666666,73.46664047241211L38.888958333333335,75.33661079406738L39.3575,68.19736862182617L39.82604166666667,60.37786102294922L40.294583333333335,68.53733253479004L40.763124999999995,76.01653861999512L41.23166666666667,60.548011779785156L41.700208333333336,57.318185806274414L42.168749999999996,56.12848091125488L42.63729166666667,64.62757873535156L43.10583333333333,68.02721786499023L43.574374999999996,68.53733253479004L44.04291666666667,50.51890754699707L44.51145833333333,60.37786102294922L44.980000000000004,67.51744079589844L45.448541666666664,55.61836624145508L45.91708333333333,56.97822189331055L46.385625000000005,57.82830047607422L46.854166666666664,65.3075065612793L47.32270833333333,45.079484939575195L47.791250000000005,56.80840873718262L48.259791666666665,53.06880569458008L48.72833333333333,52.218727111816406L49.196875,52.55869102478027L49.665416666666665,67.68725395202637L50.13395833333334,61.56790351867676L50.6025,56.29829406738281L51.071041666666666,79.41617774963379L51.53958333333333,44.909671783447266L52.008125,70.23715209960938L52.47666666666667,63.60768699645996L52.94520833333333,50.00913047790527L53.41375,56.46844482421875L53.88229166666667,59.697933197021484L54.350833333333334,62.58779525756836L54.819375,58.84819221496582L55.28791666666666,43.20985221862793L55.756458333333335,57.148372650146484L56.225,53.408769607543945L56.69354166666667,61.05778884887695L57.162083333333335,47.289419174194336L57.630624999999995,53.91854667663574L58.09916666666667,60.717824935913086L58.567708333333336,52.388877868652344L59.036249999999995,59.35796928405762L59.50479166666667,55.958330154418945L59.973333333333336,49.1590518951416L60.441874999999996,46.94945526123047L60.91041666666667,60.717824935913086L61.37895833333333,63.77750015258789L61.847500000000004,70.4069652557373L62.31604166666667,47.96934700012207L62.78458333333333,47.79919624328613L63.253125000000004,56.97822189331055L63.721666666666664,50.00913047790527L64.19020833333333,47.459232330322266L64.65875,68.3671817779541L65.12729166666666,70.91707992553711L65.59583333333333,65.13735580444336L66.064375,57.99811363220215L66.53291666666667,54.938438415527344L67.00145833333333,56.12848091125488L67.47,48.98923873901367L67.93854166666667,54.59847450256348L68.40708333333333,57.148372650146484L68.875625,41.510032653808594L69.34416666666667,53.408769607543945L69.81270833333333,48.98923873901367L70.28125,38.960134506225586L70.74979166666667,43.03970146179199L71.21833333333333,46.6094913482666L71.686875,44.22974395751953L72.15541666666667,63.43753623962402L72.62395833333333,44.059593200683594L73.0925,43.71962928771973L73.56104166666667,46.0993766784668L74.02958333333332,50.00913047790527L74.498125,51.53879928588867L74.96666666666667,68.02721786499023L75.43520833333332,55.958330154418945L75.90375,58.168264389038086L76.37229166666667,45.75941276550293L76.84083333333332,43.5498161315918L77.309375,46.0993766784668L77.77791666666667,55.788516998291016L78.24645833333334,46.0993766784668L78.715,52.04891395568848L79.18354166666667,41.67984580993652L79.65208333333334,53.578582763671875L80.12062499999999,45.75941276550293L80.58916666666667,46.269527435302734L81.05770833333334,72.10678482055664L81.52624999999999,49.1590518951416L81.99479166666667,42.86988830566406L82.46333333333334,54.08869743347168L82.93187499999999,50.51890754699707L83.40041666666667,58.338077545166016L83.86895833333334,57.82830047607422L84.33749999999999,39.129947662353516L84.80604166666667,42.35977363586426L85.27458333333334,43.71962928771973L85.74312499999999,42.35977363586426L86.21166666666666,35.560495376586914L86.68020833333334,42.86988830566406L87.14874999999999,47.79919624328613L87.61729166666666,55.788516998291016L88.08583333333334,47.1192684173584L88.55437500000001,58.50822830200195L89.02291666666666,39.98002624511719L89.49145833333334,48.98923873901367L89.96000000000001,30.12107276916504L90.42854166666666,40.65995407104492L90.89708333333333,43.37966537475586L91.36562500000001,49.1590518951416L91.83416666666666,31.820892333984375L92.30270833333333,48.649274826049805L92.77125000000001,52.72884178161621L93.23979166666666,47.6293830871582L93.70833333333333,33.35056114196777L94.17687500000001,61.05778884887695L94.64541666666666,51.029022216796875L95.11395833333333,55.10858917236328L95.58250000000001,53.91854667663574L96.05104166666666,36.92035102844238L96.51958333333333,40.14983940124512L96.988125,39.30009841918945L97.45666666666666,42.86988830566406L97.92520833333333,49.49901580810547L98.39375,34.88056755065918L98.86229166666668,33.35056114196777L99.33083333333333,45.92956352233887L99.799375,33.180747985839844L100.26791666666668,38.28020668029785L100.73645833333333,49.1590518951416L101.205,52.72884178161621L101.67354166666668,41.510032653808594L102.14208333333333,40.65995407104492L102.610625,45.24963569641113L103.07916666666667,54.25851058959961L103.54770833333333,54.59847450256348L104.01625,49.669166564941406L104.48479166666667,41.84999656677246L104.95333333333333,35.90045928955078L105.421875,36.750200271606445L105.89041666666667,48.47912406921387L106.35895833333333,61.56790351867676L106.8275,53.23861885070801L107.29604166666667,37.43012809753418L107.76458333333333,41.67984580993652L108.233125,34.370452880859375L108.70166666666667,44.73952102661133L109.17020833333332,43.20985221862793L109.63875,43.20985221862793L110.10729166666667,36.41023635864258L110.57583333333332,36.07027244567871L111.044375,43.03970146179199L111.51291666666667,54.59847450256348L111.98145833333332,45.41944885253906L112.45,41.84999656677246L112.91854166666667,50.85887145996094L113.38708333333334,40.319990158081055L113.855625,52.218727111816406L114.32416666666667,43.889780044555664L114.79270833333334,42.86988830566406L115.26124999999999,45.41944885253906L115.72979166666667,55.10858917236328L116.19833333333334,54.08869743347168L116.66687499999999,52.218727111816406L117.13541666666667,53.06880569458008L117.60395833333334,40.99991798400879L118.07249999999999,63.43753623962402L118.54104166666667,34.88056755065918L119.00958333333334,62.92775917053223L119.47812499999999,49.669166564941406L119.94666666666667,52.04891395568848L120.41520833333334,55.61836624145508L120.88374999999999,51.70895004272461L121.35229166666666,54.768625259399414L121.82083333333334,39.80987548828125L122.28937499999999,51.36898612976074L122.75791666666666,50.34909439086914L123.22645833333334,44.909671783447266L123.69500000000001,46.94945526123047L124.16354166666666,81.11599731445312L124.63208333333334,60.20804786682129L125.10062500000001,47.459232330322266L125.56916666666666,59.697933197021484L126.03770833333333,58.168264389038086L126.50625000000001,55.788516998291016L126.97479166666666,44.5697078704834L127.44333333333333,42.86988830566406L127.91187500000001,47.459232330322266L128.38041666666666,36.750200271606445L128.84895833333331,48.649274826049805L129.3175,76.52631568908691L129.78604166666668,45.589599609375L130.25458333333333,38.960134506225586L130.723125,42.35977363586426L131.19166666666666,51.36898612976074L131.66020833333334,55.44855308532715L132.12875,36.750200271606445L132.59729166666668,53.23861885070801L133.06583333333333,39.46991157531738L133.53437499999998,50.00913047790527L134.00291666666666,54.25851058959961L134.47145833333335,58.84819221496582L134.94,45.079484939575195L135.40854166666668,46.6094913482666L135.87708333333333,54.25851058959961L136.34562499999998,54.59847450256348L136.81416666666667,48.649274826049805L137.28270833333335,54.768625259399414L137.75125,63.60768699645996L138.21979166666665,45.24963569641113L138.68833333333333,44.5697078704834L139.15687499999999,41.67984580993652L139.62541666666667,55.61836624145508L140.09395833333335,52.04891395568848L140.5625,30.970813751220703L140.79677083333334,54.25851058959961L141.03104166666668,70.91707992553711L141.2653125,42.18996047973633L141.49958333333333,45.24963569641113L141.73385416666667,45.24963569641113L141.96812500000001,58.50822830200195L142.20239583333333,45.589599609375L142.43666666666667,46.0993766784668L142.67093749999998,35.39034461975098L142.90520833333332,41.17006874084473L143.13947916666666,47.459232330322266L143.37375,48.98923873901367L143.60802083333334,48.819087982177734L143.84229166666668,51.70895004272461L144.0765625,65.8176212310791L144.31083333333333,56.12848091125488L144.54510416666668,37.26031494140625L144.77937500000002,48.819087982177734L145.01364583333336,42.529924392700195L145.24791666666667,52.55869102478027L145.48218749999998,48.819087982177734L145.71645833333332,54.42866134643555L145.95072916666666,47.1192684173584L146.185,41.67984580993652L146.41927083333334,36.750200271606445L146.65354166666665,40.65995407104492L146.8878125,47.6293830871582L147.12208333333334,61.73771667480469L147.35635416666668,48.98923873901367L147.59062500000002,48.819087982177734L147.82489583333336,52.55869102478027L148.05916666666664,43.20985221862793L148.29343749999998,43.889780044555664L148.52770833333332,52.388877868652344L148.76197916666666,52.89865493774414L148.99625,43.20985221862793L149.23052083333334,45.41944885253906L149.46479166666666,58.50822830200195L149.6990625,47.79919624328613L149.93333333333334,47.79919624328613L150.16760416666668,49.669166564941406L150.40187500000002,51.198835372924805L150.63614583333336,67.00732612609863L150.87041666666664,46.269527435302734L151.10468749999998,49.838979721069336L151.33895833333332,48.98923873901367L151.57322916666666,47.459232330322266L151.8075,51.87876319885254L152.04177083333335,40.14983940124512L152.27604166666666,59.35796928405762L152.5103125,51.70895004272461L152.74458333333334,50.85887145996094L152.97885416666668,34.71041679382324L153.21312500000002,37.43012809753418L153.44739583333333,43.889780044555664L153.68166666666664,58.84819221496582L153.91593749999998,59.18815612792969L154.15020833333332,45.41944885253906L154.38447916666667,57.65814971923828L154.61875,38.110055923461914L154.85302083333332,47.1192684173584L155.08729166666666,48.13916015625L155.3215625,47.79919624328613L155.55583333333334,48.649274826049805L155.79010416666668,47.459232330322266L156.02437500000002,32.50082015991211L156.25864583333333,43.37966537475586L156.49291666666667,69.21726036071777L156.72718749999999,37.940242767333984L156.96145833333333,34.370452880859375L157.19572916666667,38.62017059326172L157.43,56.46844482421875L157.66427083333332,68.19736862182617L157.89854166666666,48.13916015625L158.1328125,43.71962928771973L158.36708333333334,37.60027885437012L158.60135416666668,43.03970146179199L158.835625,42.18996047973633L159.06989583333333,42.01980972290039L159.30416666666667,52.388877868652344L159.53843750000001,36.92035102844238L159.77270833333333,41.84999656677246L160.00697916666667,56.29829406738281L160.24124999999998,73.80660438537598L160.47552083333332,893.29518699646L161.646875,450.9990978240967L161.88114583333333,59.697933197021484L162.11541666666668,51.87876319885254L162.34968750000002,48.98923873901367L162.58395833333336,46.269527435302734L162.81822916666667,52.55869102478027L163.05249999999998,49.49901580810547L163.28677083333332,40.99991798400879L163.52104166666666,36.41023635864258L163.7553125,62.75760841369629L163.98958333333334,54.08869743347168L164.22385416666665,40.65995407104492L164.458125,39.98002624511719L164.69239583333334,47.1192684173584L164.92666666666668,52.55869102478027L165.16093750000002,48.98923873901367L165.39520833333336,46.0993766784668L165.62947916666664,40.83010482788086L165.86374999999998,54.42866134643555L166.09802083333332,62.92775917053223L166.33229166666666,54.768625259399414L166.5665625,42.18996047973633L166.80083333333334,51.36898612976074L167.03510416666666,43.03970146179199L167.269375,45.92956352233887L167.50364583333334,49.669166564941406L167.73791666666668,44.909671783447266L167.97218750000002,64.45742797851562L168.20645833333336,65.8176212310791L168.44072916666664,44.73952102661133L168.67499999999998,44.39955711364746L168.90927083333332,37.60027885437012L169.14354166666666,44.5697078704834L169.3778125,42.529924392700195L169.61208333333335,51.36898612976074L169.84635416666666,48.13916015625L170.080625,50.85887145996094L170.31489583333334,48.47912406921387L170.54916666666668,29.101181030273438L170.78343750000002,47.1192684173584L171.01770833333333,51.53879928588867L171.25197916666664,31.650741577148438L171.48624999999998,48.98923873901367L171.72052083333332,39.98002624511719L171.95479166666667,49.838979721069336L172.1890625,43.03970146179199L172.42333333333332,30.970813751220703L172.65760416666666,46.0993766784668L172.891875,44.909671783447266L173.12614583333334,44.22974395751953L173.36041666666668,38.78998374938965L173.59468750000002,45.92956352233887L173.82895833333333,42.699737548828125L174.06322916666667,44.059593200683594L174.29749999999999,33.52071189880371L174.53177083333333,49.32920265197754L174.76604166666667,53.06880569458008L175.0003125,59.697933197021484L175.23458333333332,45.75941276550293L175.46885416666666,41.67984580993652L175.703125,70.91707992553711L175.93739583333334,57.318185806274414L176.17166666666668,52.72884178161621L176.4059375,45.24963569641113L176.64020833333333,52.55869102478027L176.87447916666667,47.1192684173584L177.10875000000001,38.110055923461914L177.34302083333333,63.097572326660156L177.57729166666667,35.90045928955078L177.81156249999998,51.53879928588867L178.04583333333332,29.270994186401367L178.28010416666666,50.34909439086914L178.514375,41.510032653808594L178.74864583333334,49.838979721069336L178.98291666666668,43.5498161315918L179.2171875,42.01980972290039L179.45145833333333,48.30931091308594L179.68572916666668,37.77009201049805L179.92000000000002,45.589599609375L180.15427083333336,48.819087982177734L180.38854166666667,41.84999656677246L180.62281249999998,52.04891395568848L180.85708333333332,69.3870735168457L181.09135416666666,46.6094913482666L181.325625,36.580387115478516L181.55989583333334,43.03970146179199L181.79416666666665,48.649274826049805L182.0284375,35.22053146362305L182.26270833333334,40.14983940124512L182.49697916666668,39.30009841918945L182.73125000000002,42.18996047973633L182.96552083333336,63.60768699645996L183.19979166666664,40.49014091491699L183.43406249999998,43.03970146179199L183.66833333333332,47.1192684173584L183.90260416666666,46.439340591430664L184.136875,40.99991798400879L184.37114583333334,51.198835372924805L184.60541666666666,46.439340591430664L184.8396875,52.55869102478027L185.07395833333334,50.00913047790527L185.30822916666668,41.67984580993652L185.54250000000002,59.697933197021484L185.77677083333336,44.5697078704834L186.01104166666664,44.5697078704834L186.24531249999998,44.909671783447266L186.47958333333332,59.697933197021484L186.71385416666666,57.82830047607422L186.948125,46.77930450439453L187.18239583333335,51.87876319885254L187.41666666666666,55.61836624145508L187.6509375,46.269527435302734L187.88520833333334,52.388877868652344L188.11947916666668,37.60027885437012L188.35375000000002,43.5498161315918L188.58802083333333,52.388877868652344L188.82229166666664,40.319990158081055L189.05656249999998,52.04891395568848L189.29083333333332,44.909671783447266L189.52510416666667,38.960134506225586L189.759375,51.87876319885254L189.99364583333332,54.42866134643555L190.22791666666666,38.62017059326172L190.4621875,47.289419174194336L190.69645833333334,49.1590518951416L190.93072916666668,40.99991798400879L191.16500000000002,35.39034461975098L191.39927083333333,42.01980972290039L191.63354166666667,49.838979721069336L191.86781249999999,41.510032653808594L192.10208333333333,55.10858917236328L192.33635416666667,50.51890754699707L192.570625,43.71962928771973L192.80489583333332,49.669166564941406L193.03916666666666,45.589599609375L193.2734375,40.83010482788086L193.50770833333334,51.70895004272461L193.74197916666668,63.267723083496094L193.97625,34.03048896789551L194.21052083333333,43.37966537475586L194.44479166666667,50.34909439086914L194.67906250000001,46.77930450439453L194.91333333333333,51.53879928588867L195.14760416666667,58.338077545166016L195.38187499999998,44.5697078704834L195.61614583333332,43.889780044555664L195.85041666666666,51.87876319885254L196.0846875,49.669166564941406L196.31895833333334,43.889780044555664L196.55322916666668,50.68905830383301L196.7875,55.788516998291016L197.02177083333333,50.68905830383301L197.25604166666668,59.86808395385742L197.49031250000002,28.081289291381836L197.72458333333336,45.41944885253906L197.95885416666667,36.07027244567871L198.19312499999998,44.22974395751953L198.42739583333332,34.88056755065918L198.66166666666666,45.24963569641113L198.8959375,35.730308532714844L199.13020833333334,47.289419174194336L199.36447916666665,50.00913047790527L199.59875,38.78998374938965L199.83302083333334,39.98002624511719L200.06729166666668,63.77750015258789L200.30156250000002,40.99991798400879L200.53583333333336,48.649274826049805L200.77010416666664,47.289419174194336L201.00437499999998,39.30009841918945L201.23864583333332,86.38526916503906L201.47291666666666,871.8774604797363L202.41,286.62536430358887L202.64427083333334,45.41944885253906L202.87854166666668,56.29829406738281L203.11281250000002,35.560495376586914L203.34708333333336,37.43012809753418L203.58135416666664,42.86988830566406L203.81562499999998,49.49901580810547L204.04989583333332,73.97675514221191L204.28416666666666,40.49014091491699L204.5184375,41.510032653808594L204.75270833333335,32.84078407287598L204.98697916666666,49.49901580810547L205.22125,39.46991157531738L205.45552083333334,59.697933197021484L205.68979166666668,48.819087982177734L205.92406250000002,46.6094913482666L206.15833333333333,44.5697078704834L206.39260416666664,43.37966537475586L206.62687499999998,51.198835372924805L206.86114583333332,39.98002624511719L207.09541666666667,47.289419174194336L207.3296875,39.46991157531738L207.56395833333332,53.578582763671875L207.79822916666666,48.47912406921387L208.0325,53.23861885070801L208.26677083333334,36.07027244567871L208.50104166666668,36.07027244567871L208.73531250000002,33.69052505493164L208.96958333333333,44.73952102661133L209.20385416666667,33.69052505493164L209.43812499999999,45.75941276550293L209.67239583333333,49.1590518951416L209.90666666666667,44.39955711364746L210.1409375,44.909671783447266L210.37520833333332,54.42866134643555L210.60947916666666,57.65814971923828L210.84375,48.649274826049805L211.07802083333334,51.198835372924805L211.31229166666668,46.77930450439453L211.5465625,39.64006233215332L211.78083333333333,53.408769607543945L212.01510416666667,45.24963569641113L212.24937500000001,35.05038070678711L212.48364583333333,60.88797569274902L212.71791666666667,34.370452880859375L212.95218749999998,63.097572326660156L213.18645833333332,42.35977363586426L213.42072916666666,48.649274826049805L213.655,54.25851058959961L213.88927083333334,50.1789436340332L214.12354166666668,40.99991798400879L214.3578125,42.86988830566406L214.59208333333333,54.08869743347168L214.82635416666668,55.27840232849121L215.06062500000002,52.218727111816406L215.29489583333336,51.36898612976074L215.52916666666667,40.319990158081055L215.76343749999998,35.90045928955078L215.99770833333332,45.079484939575195L216.23197916666666,36.07027244567871L216.46625,34.370452880859375L216.70052083333334,44.5697078704834L216.93479166666665,48.649274826049805L217.1690625,52.218727111816406L217.40333333333334,36.24042320251465L217.63760416666668,38.110055923461914L217.87187500000002,63.43753623962402L218.10614583333336,61.05778884887695L218.34041666666664,62.24783134460449L218.57468749999998,40.49014091491699L218.80895833333332,57.148372650146484L219.04322916666666,46.439340591430664L219.2775,52.218727111816406L219.51177083333334,50.1789436340332L219.74604166666666,39.46991157531738L219.9803125,34.03048896789551L220.21458333333334,61.22793960571289L220.44885416666668,41.17006874084473L220.68312500000002,42.529924392700195L220.91739583333336,53.408769607543945L221.15166666666664,42.699737548828125L221.38593749999998,55.958330154418945L221.62020833333332,36.07027244567871L221.85447916666666,34.71041679382324L222.08875,39.30009841918945L222.32302083333335,46.269527435302734L222.55729166666666,58.338077545166016L222.7915625,48.13916015625L223.02583333333334,51.36898612976074L223.26010416666668,52.388877868652344L223.49437500000002,52.04891395568848L223.72864583333333,42.18996047973633L223.96291666666664,37.26031494140625L224.19718749999998,48.13916015625L224.43145833333332,38.960134506225586L224.66572916666667,47.79919624328613L224.9,44.059593200683594L225.13427083333332,44.73952102661133L225.36854166666666,42.18996047973633L225.6028125,41.67984580993652L225.83708333333334,35.39034461975098L226.07135416666668,42.01980972290039L226.30562500000002,56.97822189331055L226.53989583333333,39.80987548828125L226.77416666666667,48.819087982177734L227.00843749999999,34.03048896789551L227.24270833333333,58.338077545166016L227.47697916666667,40.65995407104492L227.71125,63.097572326660156L227.94552083333332,52.55869102478027L228.17979166666666,57.48833656311035L228.4140625,59.86808395385742L228.64833333333334,43.03970146179199L228.88260416666668,38.110055923461914L229.116875,52.218727111816406L229.35114583333333,53.23861885070801L229.58541666666667,43.889780044555664L229.81968750000001,44.059593200683594L230.05395833333333,52.218727111816406L230.28822916666667,57.82830047607422L230.52249999999998,43.20985221862793L230.75677083333332,57.318185806274414L230.99104166666666,41.84999656677246L231.2253125,52.218727111816406L231.45958333333334,58.168264389038086L231.69385416666668,55.44855308532715L231.928125,37.77009201049805L232.16239583333333,45.079484939575195L232.39666666666668,53.91854667663574L232.63093750000002,41.84999656677246L232.86520833333336,45.41944885253906L233.09947916666667,55.958330154418945L233.33374999999998,54.59847450256348L233.56802083333332,50.00913047790527L233.80229166666666,71.76682090759277L234.0365625,46.439340591430664L234.27083333333334,49.1590518951416L234.50510416666665,44.5697078704834L234.739375,46.0993766784668L234.97364583333334,51.029022216796875L235.20791666666668,55.61836624145508L235.44218750000002,45.75941276550293L235.67645833333336,57.99811363220215L235.91072916666664,37.77009201049805L236.14499999999998,58.84819221496582L236.37927083333332,44.39955711364746L236.61354166666666,47.96934700012207L236.8478125,39.46991157531738L237.08208333333334,43.20985221862793L237.31635416666666,32.33066940307617L237.550625,35.730308532714844L237.78489583333334,40.65995407104492L238.01916666666668,44.73952102661133L238.25343750000002,36.07027244567871L238.48770833333336,61.56790351867676L238.72197916666664,53.408769607543945L238.95624999999998,49.49901580810547L239.19052083333332,47.289419174194336L239.42479166666666,45.75941276550293L239.6590625,45.589599609375L239.89333333333335,43.20985221862793L240.12760416666666,61.39775276184082L240.361875,65.3075065612793L240.59614583333334,39.98002624511719L240.83041666666668,50.51890754699707L241.06468750000002,61.56790351867676L241.29895833333333,56.12848091125488L241.53322916666664,63.77750015258789L241.76749999999998,46.269527435302734L242.00177083333332,49.49901580810547L242.23604166666667,43.71962928771973L242.4703125,35.560495376586914L242.70458333333332,53.23861885070801L242.93885416666666,59.86808395385742L243.173125,48.47912406921387L243.40739583333334,59.697933197021484L243.64166666666668,53.91854667663574L243.87593750000002,45.41944885253906L244.11020833333333,52.89865493774414L244.34447916666667,46.6094913482666L244.57874999999999,54.08869743347168L244.81302083333333,61.73771667480469L245.04729166666667,54.938438415527344L245.2815625,51.029022216796875L245.51583333333332,46.0993766784668L245.75010416666666,42.699737548828125L245.984375,38.110055923461914L246.21864583333334,47.96934700012207L246.45291666666668,54.938438415527344L246.6871875,46.77930450439453L246.92145833333333,46.0993766784668L247.15572916666667,41.17006874084473L247.39000000000001,44.059593200683594L247.62427083333333,51.029022216796875L247.85854166666667,31.650741577148438L248.09281249999998,55.958330154418945L248.32708333333332,44.059593200683594L248.56135416666666,39.129947662353516L248.795625,44.5697078704834L249.02989583333334,49.32920265197754L249.26416666666668,54.42866134643555L249.4984375,42.01980972290039L249.73270833333333,44.39955711364746L249.96697916666668,54.25851058959961L250.20125000000002,56.63825798034668L250.43552083333336,53.91854667663574L250.66979166666667,39.30009841918945L250.90406249999998,29.610958099365234L251.13833333333332,55.27840232849121L251.37260416666666,42.18996047973633L251.606875,41.67984580993652L251.84114583333334,43.20985221862793L252.07541666666665,39.98002624511719L252.3096875,32.16085624694824L252.54395833333334,47.459232330322266L252.77822916666668,29.610958099365234L253.01250000000002,56.63825798034668L253.24677083333336,51.198835372924805L253.48104166666664,47.96934700012207L253.71531249999998,53.578582763671875L253.94958333333332,42.35977363586426L254.18385416666666,54.42866134643555L254.418125,35.560495376586914L254.65239583333334,56.97822189331055L254.88666666666666,57.48833656311035L255.1209375,47.6293830871582L255.35520833333334,52.388877868652344L255.58947916666668,44.5697078704834L255.82375000000002,52.55869102478027L256.05802083333333,58.168264389038086L256.29229166666664,42.699737548828125L256.5265625,40.83010482788086L256.7608333333333,49.49901580810547L256.9951041666667,40.65995407104492L257.229375,43.5498161315918L257.4636458333334,36.41023635864258L257.69791666666663,45.24963569641113L257.9321875,33.86067581176758L258.1664583333333,38.110055923461914L258.4007291666667,56.12848091125488L258.635,56.80840873718262L258.8692708333333,41.510032653808594L259.1035416666667,53.408769607543945L259.3378125,40.49014091491699L259.57208333333335,42.01980972290039L259.80635416666667,43.03970146179199L260.04062500000003,41.339881896972656L260.27489583333335,44.22974395751953L260.50916666666666,41.17006874084473L260.74343749999997,46.0993766784668L260.97770833333334,44.39955711364746L261.21197916666665,48.819087982177734L261.44625,51.029022216796875L261.68052083333333,38.45001983642578L261.91479166666664,53.578582763671875L262.1490625,45.41944885253906L262.3833333333333,40.83010482788086L262.6176041666667,38.110055923461914L262.851875,48.30931091308594L263.0861458333333,74.99664688110352L263.3204166666667,48.47912406921387L263.5546875,38.45001983642578L263.7889583333333,45.24963569641113L264.0232291666667,39.98002624511719L264.2575,50.68905830383301L264.4917708333333,48.819087982177734L264.7260416666667,52.72884178161621L264.9603125,876.4668045043945L265.42885416666667,371.44720458984375L265.663125,70.06700134277344L265.89739583333335,37.940242767333984L266.13166666666666,42.01980972290039L266.36593750000003,47.459232330322266L266.60020833333334,50.1789436340332L266.83447916666665,53.578582763671875L267.06874999999997,37.26031494140625L267.30302083333333,46.94945526123047" style="fill: none;" fill="none"></path></g></g></g></g></g></g><g transform="translate(48, 177)" clip-path="url(#clip_1)"><clipPath id="clip_1"><rect width="281" height="23"></rect></clipPath><g><g><line x1="0" y1="0" x2="0" y2="5" style="visibility: inherit;" fill="rgb(0, 0, 0)" stroke="rgb(204, 204, 204)" stroke-width="1px"></line><line x1="23.427083333333332" y1="0" x2="23.427083333333332" y2="5" style="visibility: inherit;" fill="rgb(0, 0, 0)" stroke="rgb(204, 204, 204)" stroke-width="1px"></line><line x1="46.854166666666664" y1="0" x2="46.854166666666664" y2="5" style="visibility: inherit;" fill="rgb(0, 0, 0)" stroke="rgb(204, 204, 204)" stroke-width="1px"></line><line x1="70.28125" y1="0" x2="70.28125" y2="5" style="visibility: inherit;" fill="rgb(0, 0, 0)" stroke="rgb(204, 204, 204)" stroke-width="1px"></line><line x1="93.70833333333333" y1="0" x2="93.70833333333333" y2="5" style="visibility: inherit;" fill="rgb(0, 0, 0)" stroke="rgb(204, 204, 204)" stroke-width="1px"></line><line x1="117.13541666666667" y1="0" x2="117.13541666666667" y2="5" style="visibility: inherit;" fill="rgb(0, 0, 0)" stroke="rgb(204, 204, 204)" stroke-width="1px"></line><line x1="140.5625" y1="0" x2="140.5625" y2="5" style="visibility: inherit;" fill="rgb(0, 0, 0)" stroke="rgb(204, 204, 204)" stroke-width="1px"></line><line x1="163.98958333333334" y1="0" x2="163.98958333333334" y2="5" style="visibility: inherit;" fill="rgb(0, 0, 0)" stroke="rgb(204, 204, 204)" stroke-width="1px"></line><line x1="187.41666666666666" y1="0" x2="187.41666666666666" y2="5" style="visibility: inherit;" fill="rgb(0, 0, 0)" stroke="rgb(204, 204, 204)" stroke-width="1px"></line><line x1="210.84375" y1="0" x2="210.84375" y2="5" style="visibility: inherit;" fill="rgb(0, 0, 0)" stroke="rgb(204, 204, 204)" stroke-width="1px"></line><line x1="234.27083333333334" y1="0" x2="234.27083333333334" y2="5" style="visibility: inherit;" fill="rgb(0, 0, 0)" stroke="rgb(204, 204, 204)" stroke-width="1px"></line><line x1="257.69791666666663" y1="0" x2="257.69791666666663" y2="5" style="visibility: inherit;" fill="rgb(0, 0, 0)" stroke="rgb(204, 204, 204)" stroke-width="1px"></line><line x1="281.125" y1="0" x2="281.125" y2="5" style="visibility: inherit;" fill="rgb(0, 0, 0)" stroke="rgb(204, 204, 204)" stroke-width="1px"></line></g><g transform="translate(0, 8)"><text x="0" y="0" dx="0em" dy="0.95em" style="text-anchor: middle; visibility: hidden; font-family: &quot;Helvetica Neue&quot;, sans-serif; font-size: 12px; font-weight: 200;" fill="rgb(50, 49, 63)" stroke="none" stroke-width="1px">-100</text><text x="23.427083333333332" y="0" dx="0em" dy="0.95em" style="text-anchor: middle; visibility: inherit; font-family: &quot;Helvetica Neue&quot;, sans-serif; font-size: 12px; font-weight: 200;" fill="rgb(50, 49, 63)" stroke="none" stroke-width="1px">0</text><text x="46.854166666666664" y="0" dx="0em" dy="0.95em" style="text-anchor: middle; visibility: hidden; font-family: &quot;Helvetica Neue&quot;, sans-serif; font-size: 12px; font-weight: 200;" fill="rgb(50, 49, 63)" stroke="none" stroke-width="1px">100</text><text x="70.28125" y="0" dx="0em" dy="0.95em" style="text-anchor: middle; visibility: inherit; font-family: &quot;Helvetica Neue&quot;, sans-serif; font-size: 12px; font-weight: 200;" fill="rgb(50, 49, 63)" stroke="none" stroke-width="1px">200</text><text x="93.70833333333333" y="0" dx="0em" dy="0.95em" style="text-anchor: middle; visibility: hidden; font-family: &quot;Helvetica Neue&quot;, sans-serif; font-size: 12px; font-weight: 200;" fill="rgb(50, 49, 63)" stroke="none" stroke-width="1px">300</text><text x="117.13541666666667" y="0" dx="0em" dy="0.95em" style="text-anchor: middle; visibility: inherit; font-family: &quot;Helvetica Neue&quot;, sans-serif; font-size: 12px; font-weight: 200;" fill="rgb(50, 49, 63)" stroke="none" stroke-width="1px">400</text><text x="140.5625" y="0" dx="0em" dy="0.95em" style="text-anchor: middle; visibility: hidden; font-family: &quot;Helvetica Neue&quot;, sans-serif; font-size: 12px; font-weight: 200;" fill="rgb(50, 49, 63)" stroke="none" stroke-width="1px">500</text><text x="163.98958333333334" y="0" dx="0em" dy="0.95em" style="text-anchor: middle; visibility: inherit; font-family: &quot;Helvetica Neue&quot;, sans-serif; font-size: 12px; font-weight: 200;" fill="rgb(50, 49, 63)" stroke="none" stroke-width="1px">600</text><text x="187.41666666666666" y="0" dx="0em" dy="0.95em" style="text-anchor: middle; visibility: hidden; font-family: &quot;Helvetica Neue&quot;, sans-serif; font-size: 12px; font-weight: 200;" fill="rgb(50, 49, 63)" stroke="none" stroke-width="1px">700</text><text x="210.84375" y="0" dx="0em" dy="0.95em" style="text-anchor: middle; visibility: inherit; font-family: &quot;Helvetica Neue&quot;, sans-serif; font-size: 12px; font-weight: 200;" fill="rgb(50, 49, 63)" stroke="none" stroke-width="1px">800</text><text x="234.27083333333334" y="0" dx="0em" dy="0.95em" style="text-anchor: middle; visibility: hidden; font-family: &quot;Helvetica Neue&quot;, sans-serif; font-size: 12px; font-weight: 200;" fill="rgb(50, 49, 63)" stroke="none" stroke-width="1px">900</text><text x="257.69791666666663" y="0" dx="0em" dy="0.95em" style="text-anchor: middle; visibility: inherit; font-family: &quot;Helvetica Neue&quot;, sans-serif; font-size: 12px; font-weight: 200;" fill="rgb(50, 49, 63)" stroke="none" stroke-width="1px">1k</text><text x="281.125" y="0" dx="0em" dy="0.95em" style="text-anchor: middle; visibility: hidden; font-family: &quot;Helvetica Neue&quot;, sans-serif; font-size: 12px; font-weight: 200;" fill="rgb(50, 49, 63)" stroke="none" stroke-width="1px">1.1k</text></g><line x1="0" y1="0" x2="281.125" y2="0" fill="rgb(0, 0, 0)" stroke="rgb(204, 204, 204)" stroke-width="1px"></line></g></g></g></g></svg>