<svg viewBox="0 0 330 200" xmlns="http://www.w3.org/2000/svg"><g><g><g><g><g><line x1="58.59375" y1="177" x2="53.59375" y2="177" style="visibility: inherit;" fill="rgb(0, 0, 0)" stroke="rgb(204, 204, 204)" stroke-width="1px"></line><line x1="58.59375" y1="151.71428571428572" x2="53.59375" y2="151.71428571428572" style="visibility: inherit;" fill="rgb(0, 0, 0)" stroke="rgb(204, 204, 204)" stroke-width="1px"></line><line x1="58.59375" y1="126.42857142857142" x2="53.59375" y2="126.42857142857142" style="visibility: inherit;" fill="rgb(0, 0, 0)" stroke="rgb(204, 204, 204)" stroke-width="1px"></line><line x1="58.59375" y1="101.14285714285712" x2="53.59375" y2="101.14285714285712" style="visibility: inherit;" fill="rgb(0, 0, 0)" stroke="rgb(204, 204, 204)" stroke-width="1px"></line><line x1="58.59375" y1="75.85714285714285" x2="53.59375" y2="75.85714285714285" style="visibility: inherit;" fill="rgb(0, 0, 0)" stroke="rgb(204, 204, 204)" stroke-width="1px"></line><line x1="58.59375" y1="50.57142857142857" x2="53.59375" y2="50.57142857142857" style="visibility: inherit;" fill="rgb(0, 0, 0)" stroke="rgb(204, 204, 204)" stroke-width="1px"></line><line x1="58.59375" y1="25.285714285714278" x2="53.59375" y2="25.285714285714278" style="visibility: inherit;" fill="rgb(0, 0, 0)" stroke="rgb(204, 204, 204)" stroke-width="1px"></line><line x1="58.59375" y1="0" x2="53.59375" y2="0" style="visibility: inherit;" fill="rgb(0, 0, 0)" stroke="rgb(204, 204, 204)" stroke-width="1px"></line></g><g transform="translate(48.59375, 0)"><text x="0" y="177" dx="0em" dy="0.3em" style="text-anchor: end; visibility: hidden; font-family: &quot;Helvetica Neue&quot;, sans-serif; font-size: 12px; font-weight: 200;" fill="rgb(50, 49, 63)" stroke="none" stroke-width="1px">-0.05</text><text x="0" y="151.71428571428572" dx="0em" dy="0.3em" style="text-anchor: end; visibility: inherit; font-family: &quot;Helvetica Neue&quot;, sans-serif; font-size: 12px; font-weight: 200;" fill="rgb(50, 49, 63)" stroke="none" stroke-width="1px">0</text><text x="0" y="126.42857142857142" dx="0em" dy="0.3em" style="text-anchor: end; visibility: inherit; font-family: &quot;Helvetica Neue&quot;, sans-serif; font-size: 12px; font-weight: 200;" fill="rgb(50, 49, 63)" stroke="none" stroke-width="1px">0.05</text><text x="0" y="101.14285714285712" dx="0em" dy="0.3em" style="text-anchor: end; visibility: inherit; font-family: &quot;Helvetica Neue&quot;, sans-serif; font-size: 12px; font-weight: 200;" fill="rgb(50, 49, 63)" stroke="none" stroke-width="1px">0.1</text><text x="0" y="75.85714285714285" dx="0em" dy="0.3em" style="text-anchor: end; visibility: inherit; font-family: &quot;Helvetica Neue&quot;, sans-serif; font-size: 12px; font-weight: 200;" fill="rgb(50, 49, 63)" stroke="none" stroke-width="1px">0.15</text><text x="0" y="50.57142857142857" dx="0em" dy="0.3em" style="text-anchor: end; visibility: inherit; font-family: &quot;Helvetica Neue&quot;, sans-serif; font-size: 12px; font-weight: 200;" fill="rgb(50, 49, 63)" stroke="none" stroke-width="1px">0.2</text><text x="0" y="25.285714285714278" dx="0em" dy="0.3em" style="text-anchor: end; visibility: inherit; font-family: &quot;Helvetica Neue&quot;, sans-serif; font-size: 12px; font-weight: 200;" fill="rgb(50, 49, 63)" stroke="none" stroke-width="1px">0.25</text><text x="0" y="0" dx="0em" dy="0.3em" style="text-anchor: end; visibility: hidden; font-family: &quot;Helvetica Neue&quot;, sans-serif; font-size: 12px; font-weight: 200;" fill="rgb(50, 49, 63)" stroke="none" stroke-width="1px">0.3</text></g><line x1="58.59375" y1="0" x2="58.59375" y2="177" fill="rgb(0, 0, 0)" stroke="rgb(204, 204, 204)" stroke-width="1px"></line></g></g><g transform="translate(58, 0)" clip-path="url(#clip_0)"><clipPath id="clip_0"><rect width="271" height="177"></rect></clipPath><g><g><g><line x1="0" y1="0" x2="0" y2="177" fill="rgb(0, 0, 0)" stroke="rgb(60, 60, 60)" stroke-width="1px" opacity="0.25"></line><line x1="22.6171875" y1="0" x2="22.6171875" y2="177" fill="rgb(0, 0, 0)" stroke="rgb(60, 60, 60)" stroke-width="1px" opacity="0.25"></line><line x1="45.234375" y1="0" x2="45.234375" y2="177" fill="rgb(0, 0, 0)" stroke="rgb(60, 60, 60)" stroke-width="1px" opacity="0.25"></line><line x1="67.8515625" y1="0" x2="67.8515625" y2="177" fill="rgb(0, 0, 0)" stroke="rgb(60, 60, 60)" stroke-width="1px" opacity="0.25"></line><line x1="90.46875" y1="0" x2="90.46875" y2="177" fill="rgb(0, 0, 0)" stroke="rgb(60, 60, 60)" stroke-width="1px" opacity="0.25"></line><line x1="113.0859375" y1="0" x2="113.0859375" y2="177" fill="rgb(0, 0, 0)" stroke="rgb(60, 60, 60)" stroke-width="1px" opacity="0.25"></line><line x1="135.703125" y1="0" x2="135.703125" y2="177" fill="rgb(0, 0, 0)" stroke="rgb(60, 60, 60)" stroke-width="1px" opacity="0.25"></line><line x1="158.3203125" y1="0" x2="158.3203125" y2="177" fill="rgb(0, 0, 0)" stroke="rgb(60, 60, 60)" stroke-width="1px" opacity="0.25"></line><line x1="180.9375" y1="0" x2="180.9375" y2="177" fill="rgb(0, 0, 0)" stroke="rgb(60, 60, 60)" stroke-width="1px" opacity="0.25"></line><line x1="203.5546875" y1="0" x2="203.5546875" y2="177" fill="rgb(0, 0, 0)" stroke="rgb(60, 60, 60)" stroke-width="1px" opacity="0.25"></line><line x1="226.171875" y1="0" x2="226.171875" y2="177" fill="rgb(0, 0, 0)" stroke="rgb(60, 60, 60)" stroke-width="1px" opacity="0.25"></line><line x1="248.7890625" y1="0" x2="248.7890625" y2="177" fill="rgb(0, 0, 0)" stroke="rgb(60, 60, 60)" stroke-width="1px" opacity="0.25"></line><line x1="271.40625" y1="0" x2="271.40625" y2="177" fill="rgb(0, 0, 0)" stroke="rgb(60, 60, 60)" stroke-width="1px" opacity="0.25"></line></g><g><line x1="0" y1="177" x2="271.40625" y2="177" fill="rgb(0, 0, 0)" stroke="rgb(60, 60, 60)" stroke-width="1px" opacity="0.25"></line><line x1="0" y1="151.71428571428572" x2="271.40625" y2="151.71428571428572" fill="rgb(0, 0, 0)" stroke="rgb(60, 60, 60)" stroke-width="1px" opacity="0.25"></line><line x1="0" y1="126.42857142857142" x2="271.40625" y2="126.42857142857142" fill="rgb(0, 0, 0)" stroke="rgb(60, 60, 60)" stroke-width="1px" opacity="0.25"></line><line x1="0" y1="101.14285714285712" x2="271.40625" y2="101.14285714285712" fill="rgb(0, 0, 0)" stroke="rgb(60, 60, 60)" stroke-width="1px" opacity="0.25"></line><line x1="0" y1="75.85714285714285" x2="271.40625" y2="75.85714285714285" fill="rgb(0, 0, 0)" stroke="rgb(60, 60, 60)" stroke-width="1px" opacity="0.25"></line><line x1="0" y1="50.57142857142857" x2="271.40625" y2="50.57142857142857" fill="rgb(0, 0, 0)" stroke="rgb(60, 60, 60)" stroke-width="1px" opacity="0.25"></line><line x1="0" y1="25.285714285714278" x2="271.40625" y2="25.285714285714278" fill="rgb(0, 0, 0)" stroke="rgb(60, 60, 60)" stroke-width="1px" opacity="0.25"></line><line x1="0" y1="0" x2="271.40625" y2="0" fill="rgb(0, 0, 0)" stroke="rgb(60, 60, 60)" stroke-width="1px" opacity="0.25"></line></g></g></g><g><g><line x1="0" y1="151.71428571428572" x2="271.40625" y2="151.71428571428572" fill="rgb(0, 0, 0)" stroke="rgb(153, 153, 153)" stroke-width="1.5px"></line></g></g><g><g><line x1="22.6171875" y1="0" x2="22.6171875" y2="177" fill="rgb(0, 0, 0)" stroke="rgb(153, 153, 153)" stroke-width="1.5px"></line></g></g><g><g><g><g><g><path stroke="rgb(238, 51, 119)" stroke-width="2px" d="M23.521875,-23.339744618960793L23.748046875,12.115473593984348L23.97421875,39.06823304721286L24.200390625,41.22501174892696L24.4265625,42.164506290640134L24.652734375,43.062810531684335L24.87890625,43.5106137565204L25.105078125,43.97657055514199L25.33125,44.187699105058414L25.557421875,44.346755760056624L25.78359375,44.719940185546875L26.009765625,44.80476236343384L26.2359375,44.884204030036926L26.462109375,45.00525046246392L26.68828125,45.136590702193104L26.914453125,45.11795484168189L27.140625,45.27193995032991L27.366796875,45.34612167733056L27.59296875,45.284969227654585L27.819140625,45.446949745927554L28.0453125,45.55599929605211L28.271484375,45.69739219972064L28.49765625,45.724106362887795L28.723828125,45.9398769225393L28.950000000000003,47.03380871670586L29.176171874999998,49.35617001567567L29.40234375,52.7082963671003L29.628515625,55.840394471372875L29.8546875,58.63572833367756L30.080859375000003,60.971578589507516L30.307031249999998,62.89782423632485L30.533203125,64.43575371163232L30.759375,65.50183344738824L30.985546875,66.3513890504837L31.211718750000003,67.25031875712531L31.437890624999998,67.86137603861945L31.6640625,68.28715232440403L32.11640625,69.26613409178597L32.342578125,69.9276807648795L32.56875,69.82736512592861L32.794921875,70.368023616927L33.02109375,70.70872904573169L33.247265625,70.76243619407926L33.4734375,70.981763618333L33.699609375,71.28359221560615L33.92578125,71.82676010472434L34.151953125,72.3129051242556L34.378125000000004,72.85838648251125L34.604296875,72.64848625659943L34.83046875,73.13932603597641L35.056640625,73.37765857151577L35.2828125,73.61184645550591L35.508984375,73.65330804245812L35.735156249999996,74.6055304322924L35.961328125,74.06455544063023L36.1875,74.746591763837L36.413671875,74.78037444182804L36.639843750000004,75.07415487936565L36.866015625,75.82503763266972L37.092187499999994,75.89930978843144L37.318359375,76.11526874133519L37.54453125,76.01088380813599L37.770703125,76.53817391395569L37.996875,76.43146044015884L38.223046875,77.55530908278057L38.44921875,77.30384930542537L38.675390625,77.38474536793572L38.901562500000004,77.71533031123025L39.127734375,78.03657094921384L39.353906249999994,78.09453578506198L39.580078125,78.16159624712807L39.80625,78.56342398268836L40.032421875,78.45454775435584L40.25859375,78.68545006002698L40.484765625,79.21328273841313L40.7109375,78.86579515252795L40.937109375000006,79.2023634655135L41.163281250000004,79.58904438359397L41.389453124999996,79.53138851267951L41.615624999999994,79.7437453866005L41.841796875,80.28613709551948L42.06796875,80.15239295789173L42.294140625,80.39297867672784L42.5203125,80.64279566492353L42.746484375,80.79017947401319L42.97265625,80.87136942999703L43.198828125000006,80.76056405476162L43.425000000000004,81.16619733401707L43.651171874999996,81.55416686194283L43.877343749999994,81.25059751101902L44.103515625,81.4613869530814L44.3296875,81.72723997490746L44.555859375,81.96539165292468L44.78203125,81.95698931387493L45.008203125,82.01230910846165L45.234375,82.16832132850375L45.460546875000006,82.13743990659714L45.68671875,82.5030283161572L45.912890624999996,82.31991761071342L46.1390625,82.6723335640771L46.365234375,82.71163239649364L46.59140625,82.67492585522788L46.817578125,83.09494484322411L47.04375,83.0989613873618L47.269921875,82.99950482164111L47.49609375,83.1512216755322L47.722265625000006,83.04015254974365L47.9484375,83.20438625131335L48.174609374999996,83.46233429227557L48.40078125,83.35924550465175L48.626953125,83.43118158408573L48.853125,83.43876252855573L49.079296875000004,83.70958159651074L49.30546875,83.78412503855569L49.531640625,83.85274539675031L49.7578125,84.05086727653232L49.983984375,83.98307584864753L50.21015625,84.11642812831062L50.436328124999996,84.05247238704136L50.6625,83.97777823039463L50.888671875,84.27434688806534L51.11484375,84.27204095465797L51.341015625000004,84.63298735448292L51.793359375,84.58600961310523L52.01953125,84.56185759816852L52.245703125,84.55989077261516L52.471875,84.40277080024991L52.698046874999996,84.89849373272487L52.92421875,84.79471165793282L53.150390625,85.16210864271436L53.3765625,84.69530784232276L53.602734375000004,84.75151685306004L53.82890625,84.50698241165706L54.055078124999994,84.89504990407399L54.28125,84.99262253727231L54.507421875,85.04070049524307L54.73359375,85.05860538993564L54.959765625,85.01048221758434L55.1859375,85.21818954604012L55.412109375,85.08814545188632L55.63828125,85.20328387192318L55.864453125000004,85.06753523009164L56.090625,85.20396208763123L56.316796874999994,85.46996582405907L56.54296875,85.21376607247761L56.769140625,85.5253609759467L57.221484375,85.74057389157159L57.44765625,85.47349254574094L57.673828125,85.81303747211184L57.900000000000006,85.71404812165669L58.126171875000004,85.83627012797764L58.352343749999996,86.10266572237015L58.578515624999994,85.77600689445224L58.8046875,86.17295147691455L59.030859375,86.11191206318992L59.25703125,85.88529758793968L59.483203125,85.8355843765395L59.709375,86.38579817329135L59.935546875,86.27099886110851L60.161718750000006,86.34723784242358L60.387890625000004,86.24882874318531L60.614062499999996,86.49210471766335L60.840234374999994,86.45644564288003L61.06640625,86.59435703924724L61.292578125,86.47838968890053L61.51875,86.5992401923452L61.744921875,86.94477602413723L61.97109375,86.82348844834736L62.197265625,86.88569590023586L62.423437500000006,86.46646816389901L62.649609375,86.81728654248374L62.875781249999996,87.05194164173943L63.101953125,87.23094537428447L63.328125,86.92731573751995L63.554296875,86.81531971693039L63.78046875,86.92776788132531L64.006640625,87.20101345436913L64.2328125,87.40751506601062L64.458984375,87.26151783125741L64.68515625,87.20457031897136L64.911328125,87.27595629010882L65.1375,87.31746309144157L65.36367187500001,87.39288067817688L65.58984375,87.93268763167518L65.81601562499999,87.5705355150359L66.0421875,87.70293829270771L66.268359375,87.55137968914849L66.49453125,87.79640395300729L66.946875,87.70210182666779L67.173046875,87.48153854267937L67.39921875,87.80613258055278L67.62539062500001,87.85980205024991L67.8515625,87.73901936837605L68.077734375,88.02585186277118L68.30390625,88.00061470270157L68.530078125,88.13112601212093L68.982421875,88.02351578644344L69.20859375,88.30205897774015L69.43476562500001,88.38422104290554L69.6609375,88.03150366033826L69.88710937500001,88.26291085992541L70.33945312499999,88.49408445187977L70.565625,88.16357486588615L70.79179687499999,88.06204597439084L71.01796875,88.54779536809241L71.244140625,88.65133253165654L71.47031249999999,88.7133855010782L71.696484375,88.73454206330435L71.92265625,88.53124313695089L72.148828125,88.77332846607482L72.375,88.72450823869025L72.601171875,88.93339490890503L72.82734375,88.88215571216175L73.053515625,88.82152322786196L73.505859375,88.72934617740766L73.73203125,89.25107491442135L73.95820312500001,88.91224211454391L74.18437499999999,89.07256477219717L74.410546875,89.30968782305717L74.63671875,88.88714436548098L74.86289062499999,89.26757816331728L75.0890625,89.39153715542385L75.315234375,89.05450162717274L75.54140625,89.5910719845976L75.767578125,89.56649420091084L75.99375,89.58783915638924L76.219921875,89.74517012919699L76.44609375,89.62460598349571L76.672265625,89.65804201790264L76.8984375,89.92285510897636L77.124609375,89.87309291533062L77.35078125,89.42140878949846L77.576953125,89.78454431891441L77.80312500000001,89.86246376803943L78.029296875,90.12827911121504L78.25546875,89.55253802878515L78.48164062500001,90.01066897170885L78.70781249999999,90.36968622463091L78.933984375,90.15595784783363L79.16015625,90.2277319090707L79.38632812499999,89.93714285322598L79.6125,89.91200742551258L79.838671875,90.06512215733528L80.06484375,90.02631314737455L80.291015625,90.45791078465327L80.5171875,90.43507752248219L80.743359375,90.57358047366142L80.96953125,90.43984387176378L81.19570312500001,90.48185556701252L81.421875,90.53154993908747L81.648046875,90.78625008038112L81.87421875000001,90.62500806365694L82.100390625,90.8945498253618L82.32656250000001,90.9120214155742L82.552734375,91.03449586885317L83.005078125,91.46288328511373L83.23124999999999,91.21282515355519L83.457421875,91.1204371026584L83.68359375,91.07898681930133L83.90976562499999,91.13402779187476L84.1359375,91.2169283585889L84.362109375,91.18348102058684L84.58828125,91.38018618311202L84.814453125,91.62432876655033L85.040625,91.3723188808986L85.266796875,91.39003915020398L85.49296875,91.3776164991515L85.71914062500001,91.29099328177317L85.9453125,91.84492219345911L86.171484375,91.70645692093031L86.39765625000001,91.59392586350441L86.623828125,91.61582469514438L86.85000000000001,92.00735862340247L87.076171875,91.85552496569498L87.30234374999999,92.19291090539524L87.528515625,92.14287365760123L87.980859375,91.79765809433802L88.43320312499999,92.2244630072798L88.659375,91.82672340529307L88.885546875,92.29174200551851L89.11171875,92.04582852550915L89.337890625,92.40521879707063L89.5640625,92.33465422051295L89.790234375,92.10660418868065L90.01640625,92.51918164321354L90.24257812500001,92.57851421407291L90.46875,92.6843987575599L90.694921875,92.69830971530506L90.92109375000001,92.66063106485775L91.14726562499999,92.74196043184826L91.3734375,92.81308642029762L91.599609375,92.70431946005141L92.051953125,92.50932490825653L92.278125,92.84376437749182L92.504296875,93.02885321208409L92.73046875,93.27301086698259L92.956640625,92.93195502672876L93.408984375,93.41666072181293L93.63515625,92.97930955461094L93.861328125,93.41170597927912L94.0875,93.21039648566926L94.313671875,93.43570727961405L94.53984375,93.34052347285406L94.76601562500001,93.77652951223509L94.9921875,93.4262612419469L95.218359375,93.35670268535614L95.44453125000001,94.0929698901517L95.67070312499999,93.57131651043892L95.896875,93.66495172466551L96.123046875,93.74052002600261L96.34921874999999,93.93275273271969L96.575390625,94.03766516702517L96.8015625,93.92393216064998L97.027734375,94.14742307577814L97.25390625,93.86268174648285L97.480078125,94.22863940681731L97.70625,93.76821006621634L97.932421875,94.10219739164626L98.15859375000001,93.97873952559063L98.384765625,94.22996569531306L98.6109375,94.4708264682974L98.83710937500001,94.30109921949251L99.06328125,94.57512474060059L99.28945312500001,94.40718722769192L99.515625,94.3255941101483L99.74179687499999,94.49487298301288L99.96796875,94.7569242290088L100.19414062499999,94.71858620217868L100.4203125,94.62802933369363L100.646484375,94.90913090535572L100.87265624999999,94.620730979102L101.098828125,94.74087689178332L101.325,95.29785777415549L101.551171875,95.21031142984117L101.77734375,94.89912345579692L102.003515625,95.04504156538418L102.2296875,95.36039303030287L102.455859375,95.00439760514668L102.68203125000001,95.11408769232885L102.908203125,95.4938583459173L103.134375,95.3145042019231L103.36054687500001,95.36770268848964L103.58671875,95.4346915611199L103.81289062500001,95.69888295446123L104.0390625,95.5631343126297L104.26523437499999,95.53337948237146L104.49140625,96.2350313110011L104.71757812499999,95.89065221377781L104.94375,95.5118348300457L105.169921875,96.12930878571102L105.39609374999999,96.07264009543827L105.622265625,95.71300114478385L105.8484375,96.0424255856446L106.30078125,96.08813732436725L106.526953125,96.40016930018152L106.753125,96.47121616346494L106.979296875,96.12162234101976L107.20546875000001,96.35678233419145L107.431640625,96.33306739159993L107.6578125,96.14710064445222L107.88398437500001,96.12299384389604L108.11015624999999,96.61396926641464L108.336328125,96.28968042560986L108.5625,96.86982991014207L108.78867187499999,96.60842673693384L109.01484375,96.83115277545794L109.241015625,96.69319616471017L109.4671875,97.063648888043L109.693359375,96.73693354214942L109.91953125,96.93240284493992L110.145703125,96.92611051031521L110.371875,97.2137078813144L110.598046875,97.02547287940979L110.82421875,97.12245772566115L111.050390625,97.15387041653906L111.2765625,97.01050691945211L111.502734375,97.35473153420857L111.955078125,97.83784342237881L112.18125,97.30175158381462L112.40742187500001,97.89373216458729L112.63359374999999,98.04064122268132L112.859765625,97.5670243544238L113.0859375,97.46775241409028L113.31210937499999,97.85173554079874L113.53828125,98.20735041158541L113.764453125,97.77738802773611L113.990625,98.32545037354743L114.216796875,98.01771753174917L114.44296875,98.18624659946987L114.669140625,98.11534291505814L114.8953125,98.27620814527785L115.12148437500001,98.0004833170346L115.34765625,98.12620566998208L115.573828125,98.17193624802998L115.80000000000001,98.43150447096144L116.026171875,98.49140598944255L116.25234375000001,98.58002240742957L116.478515625,98.24456184676716L116.70468749999999,98.49585960592543L117.15703124999999,98.67285883426666L117.383203125,98.80911237001419L117.609375,98.77606819357192L117.83554687499999,98.59472461683409L118.06171875,98.57230205195292L118.287890625,99.1431825884751L118.5140625,98.87473727549826L118.740234375,99.09204135622298L118.96640625,99.27099987438747L119.192578125,99.00239631107875L119.41875,99.41894886323384L119.64492187500001,99.02884672369277L119.87109375,99.11735387359346L120.32343750000001,99.54345796363695L120.77578125000001,98.82409340143204L121.001953125,99.33786440747126L121.22812499999999,99.51230902331217L121.454296875,99.3196392442499L121.68046874999999,99.324450807912L121.906640625,99.64405996033123L122.1328125,99.7150088591235L122.35898437499999,99.0669662143503L122.58515625,99.7797859949725L122.811328125,99.87003766638892L123.0375,99.68802340967315L123.263671875,99.63223639982088L123.48984375,99.94940397569111L123.716015625,99.70841509529522L123.9421875,99.83464234215873L124.16835937500001,100.07012637172426L124.39453125,100.3860543199948L124.620703125,100.06435023461069L124.84687500000001,100.19376509530204L125.07304687499999,100.2144506743976L125.29921875,99.99560930473464L125.525390625,100.00598600506783L125.75156249999999,99.98144213216646L125.977734375,99.92418565494674L126.20390625,100.2799512403352L126.430078125,100.47883799672127L126.65625,100.00656248841966L126.882421875,100.26119480814253L127.10859375,100.63116524474962L127.334765625,100.22697505780629L127.5609375,100.67727260930198L127.787109375,100.52356632266725L128.01328125,100.18723161731447L128.23945312499998,100.61325281432697L128.465625,100.65339188064848L128.691796875,100.43730858819826L128.91796875,100.6649253155504L129.144140625,100.37007103647505L129.3703125,100.48813331978663L129.596484375,100.59806455033167L129.82265625,100.6387612606798L130.048828125,100.69127776367324L130.275,100.76708344050816L130.501171875,100.66276256101473L130.72734375000002,100.93287703820637L130.953515625,100.47592166917666L131.1796875,100.79883147137507L131.405859375,100.76710981556347L131.63203124999998,101.07212602666446L131.858203125,100.44963327475956L132.084375,100.95181056005615L132.310546875,100.77039162601744L132.53671875,100.90953511425427L132.762890625,100.95838171669415L132.9890625,100.7650827041694L133.215234375,100.86671709588596L133.44140625,100.7230559374605L133.667578125,100.98113962156432L133.89375,101.09554330791747L134.119921875,101.08631203855788L134.572265625,101.14277349625314L134.7984375,100.76709851196834L135.024609375,100.89758721419743L135.25078125000002,100.80003718818938L135.476953125,100.86920011895045L135.703125,100.96010739888465L136.15546875,101.06165512970516L136.381640625,101.0790702019419L136.6078125,100.8606395295688L136.833984375,100.85358231834003L137.06015625,101.05267253943852L137.286328125,100.92820865341595L137.51250000000002,101.26346951723099L137.738671875,101.07061134491647L137.96484375,100.92682584694454L138.191015625,100.90644169705256L138.4171875,101.00597362007414L138.64335937500002,101.14987592186247L138.86953125000002,101.27699615274156L139.095703125,101.1846683876855L139.321875,100.97167474457196L139.548046875,101.18529762114798L139.77421875000002,101.12521147727966L140.00039062500002,101.17183880720819L140.2265625,101.11301489812988L140.45273437499998,100.7210514332567L140.67890624999998,100.89056391375406L140.905078125,101.14544868043491L141.13125,100.95872836027826L141.357421875,101.3669953772L142.262109375,101.22277657474791L142.48828125,101.10743092213357L142.714453125,101.29851819787706L142.94062499999998,101.25325860295976L143.166796875,101.27024790644646L143.39296875,100.99985083937645L143.619140625,101.10525686400278L143.8453125,100.82472800782749L144.071484375,101.49084510122026L144.29765625,101.10399462921279L144.523828125,101.18211754305023L144.75,101.39922946265766L144.976171875,101.30282863548824L145.20234375,101.23059112685068L145.42851562500002,101.1914580804961L145.6546875,101.2797014798437L145.880859375,101.05211866327694L146.10703125,101.16163919653212L146.333203125,101.00667444297245L146.55937500000002,101.2200298011303L146.78554687500002,101.07140636444092L147.01171875,101.34777172974178L147.237890625,101.0950158068112L147.4640625,101.32851040363312L147.69023437500002,101.00513338616916L148.142578125,101.25097150887763L148.36874999999998,101.2827948970454L148.59492187499998,101.28669086950167L148.82109375,101.44050265635764L149.047265625,101.67319093005999L149.2734375,101.32752699085644L149.49960937499998,101.53149659718787L149.72578124999998,101.52154189773968L149.951953125,101.53645887545177L150.178125,101.31384210501398L150.404296875,101.41234540087837L150.63046875,101.57524151035717L150.85664062499998,101.37302396127156L151.0828125,101.70576789123672L151.308984375,101.86020514369011L151.53515625,101.68597529615676L151.761328125,101.47944354159492L151.9875,101.5546388242926L152.213671875,101.18044837883541L152.43984375,101.52119148629053L152.666015625,101.5857726931572L152.8921875,101.63318373901504L153.118359375,101.6835450232029L153.34453125,101.49112769109863L153.570703125,101.8187435567379L153.796875,101.79735338687897L154.023046875,101.61160140803882L154.24921875,102.0176152416638L154.47539062500002,101.67152176584517L154.7015625,101.886730913605L154.927734375,101.54015515106066L155.15390625,101.94861432909966L155.380078125,101.84829869014877L155.60625000000002,101.73993112359727L155.83242187500002,101.17544842192105L156.284765625,101.56859876428331L156.5109375,101.88345663888114L156.73710937500002,101.91645183307784L156.96328125000002,101.85351341537067L157.189453125,101.95407396554947L157.41562499999998,101.8714748280389L157.64179687499998,101.71673991424697L157.86796875,101.94326396073615L158.094140625,101.79373246857098L158.3203125,101.70731271590506L158.54648437499998,102.21675444500788L158.77265624999998,102.21376276016235L158.998828125,102.23051092028618L159.225,101.99501558712551L159.451171875,101.99932979260171L159.67734375,102.05871134570667L160.1296875,102.11458501645497L160.355859375,101.94307933534895L160.58203125,102.2721759719508L160.808203125,102.21228575706482L161.034375,102.02479679243906L161.260546875,102.34117688451494L161.48671875,102.25377371907234L161.712890625,101.94979743872369L161.9390625,102.27370195729392L162.165234375,102.07081372823035L162.39140625000002,102.31807987179076L162.617578125,101.99182797329767L162.84375,102.32792907101768L163.069921875,102.35085276194981L163.29609375,102.03033178618976L163.52226562500002,102.55082843133381L163.74843750000002,102.44677507025855L163.974609375,102.20795271226338L164.20078125,102.17545864411763L164.426953125,102.0340996512345L164.65312500000002,102.55817576817104L164.87929687500002,102.28991131271636L165.10546875,102.66307313101633L165.33164062499998,102.35731465050152L165.55781249999998,102.59093735473498L165.783984375,102.12656682729721L166.01015625,102.27502824578966L166.236328125,102.38458268983024L166.46249999999998,102.49377541882652L166.68867187499998,102.49897507258824L166.91484375,102.31617709994316L167.141015625,102.59402700407165L167.3671875,102.3237354372229L167.593359375,102.82482757738659L167.81953124999998,102.169256738254L168.045703125,102.58695095351764L168.271875,102.43789421234811L168.498046875,102.69067651033401L168.72421875,102.49337979299682L168.950390625,102.67039786066329L169.1765625,102.49987936019897L169.402734375,102.65338594998633L169.62890625,102.48532409753119L169.855078125,102.88675620726177L170.08125,102.94274668182646L170.307421875,102.75948526178087L170.759765625,102.73332120691026L170.9859375,102.89521883215224L171.212109375,102.3875781425408L171.43828125000002,102.69244363904L171.664453125,102.6680241056851L171.890625,103.10307687520981L172.116796875,102.84428483247757L172.34296875,102.81051345808166L172.56914062500002,102.73277486647879L172.79531250000002,102.88929198043688L173.021484375,102.76106022936958L173.24765625,102.81159106748446L173.473828125,102.95481138569968L173.70000000000002,102.83153814503125L173.92617187500002,103.03976167099817L174.37851562499998,103.28643625974655L174.60468749999998,102.71702142272676L174.830859375,103.07741394639015L175.05703125,102.86404351677214L175.283203125,102.99217353548323L175.50937499999998,103.25803032517433L175.73554687499998,102.90708760704314L175.96171875,103.19254483069693L176.187890625,103.176798922675L176.4140625,103.18882594789778L176.640234375,103.3343785745757L176.86640624999998,103.38647684454918L177.092578125,103.28902478303229L177.31875,103.34668065394675L177.544921875,103.21139169165066L177.77109375,103.36800677009991L177.997265625,103.11410164833069L178.2234375,103.15259415762766L178.449609375,103.29244600449289L178.67578125,103.52123077000891L178.901953125,103.57144887532507L179.128125,103.17410866703307L179.35429687500002,103.67151206731796L179.58046875,103.1609136036464L179.806640625,103.35678230013167L180.0328125,103.3728409409523L180.258984375,103.20598103744643L180.71132812500002,103.26673786129271L180.9375,103.34139810715402L181.163671875,103.57632449269295L181.38984375,103.54863822034427L181.61601562500002,103.38619425467083L181.84218750000002,103.49559044837952L182.068359375,103.53445974418095L182.29453124999998,103.47869534151896L182.52070312499998,103.58230409451893L182.746875,103.89454707077572L182.973046875,103.57412029164179L183.19921875,103.53203700695718L183.42539062499998,103.74578045521463L183.65156249999998,103.61447412627085L183.877734375,103.55383410624096L184.10390625,103.80424641711372L184.330078125,103.93115941541537L184.55625,103.80104749969074L184.78242187499998,103.96910181641579L185.00859375,103.73502320051193L185.234765625,103.64226966670581L185.4609375,103.69203186035156L185.687109375,103.83371488962854L185.91328125,104.05627137422562L186.139453125,103.851525587695L186.365625,104.02335530519485L186.591796875,103.95244408505305L186.81796875,103.92584295783723L187.044140625,104.42352141227042L187.2703125,103.98333304268974L187.496484375,104.3439177274704L187.72265625,104.13256687351635L187.948828125,104.11824898634637L188.175,103.89256140589714L188.40117187500002,104.16694864204952L188.62734375,103.95186383383616L188.853515625,104.18052425980568L189.0796875,104.06648605636188L189.305859375,104.41119672570909L189.53203125000002,104.38276818394661L189.75820312500002,104.14716358269965L189.984375,104.34261027829989L190.210546875,104.52058161582266L190.43671875,104.46182552831515L190.66289062500002,104.39023609246527L190.88906250000002,104.34572630269187L191.115234375,104.382127646889L191.34140624999998,104.28212850860187L191.56757812499998,104.51862609386444L192.019921875,104.46734545060566L192.24609375,104.36198087249483L192.47226562499998,104.48698733108385L192.69843749999998,104.58995554702624L192.924609375,104.78304355910846L193.15078125,104.65569725632668L193.376953125,104.39468217321804L193.603125,104.55377273900169L193.82929687499998,104.6535759483065L194.05546875,104.55746901461056L194.281640625,104.38408316884721L194.5078125,104.92538219690323L194.733984375,104.7589895086629L194.96015625,104.37892872946604L195.186328125,104.47519391349384L195.4125,104.60916412302426L195.638671875,104.83110644561904L195.86484375,104.69072332978249L196.091015625,104.54165905288288L196.31718750000002,105.05359887651035L196.543359375,104.81361601608141L196.76953125,104.92026543617249L196.995703125,104.99783070598329L197.221875,104.84366473981312L197.44804687500002,105.27645679031099L197.67421875000002,104.81091822470938L197.900390625,104.91825716410364L198.1265625,104.86216495718276L198.57890625000002,105.11318766219276L198.80507812500002,105.08197843602726L199.03125,105.1007838504655L199.25742187499998,105.2648404623781L199.48359374999998,105.11532404167312L199.709765625,104.90985859291895L199.9359375,105.47623653071268L200.162109375,105.16939667293003L200.38828124999998,105.21222222702845L200.61445312499998,105.19784405401775L200.840625,105.5186174767358L201.066796875,105.38962084906443L201.29296875,105.16714725749834L201.519140625,105.66845416596958L201.74531249999998,105.39951149480684L201.971484375,105.16210962193354L202.19765625,105.41538174237525L202.423828125,105.39730729375566L202.65,105.59562133465494L202.876171875,105.47651912059104L203.10234375,105.65807746563638L203.328515625,105.59525208388055L203.5546875,105.91317323275975L203.780859375,105.7741126375539L204.00703125,105.59635230047363L204.233203125,105.49657546622413L204.459375,105.64271587984904L204.685546875,105.56428023321288L204.91171875,106.14930910297802L205.137890625,105.68712393726622L205.36406250000002,105.8231890797615L205.590234375,105.93825967822755L206.042578125,105.86243892993247L206.26875,105.91592754210745L206.49492187500002,106.18123422350203L206.72109375000002,106.08020645805767L206.947265625,106.28749178562845L207.1734375,105.588718605893L207.399609375,105.97607020395144L207.62578125000002,105.8492438665458L207.85195312500002,106.08756886635507L208.078125,106.34702028547014L208.30429687499998,106.11710892830575L208.53046874999998,106.58201072471483L208.756640625,106.52452817559242L208.9828125,106.24791413119861L209.208984375,106.30823765056475L209.43515624999998,106.4163753773485L209.66132812499998,106.316093649183L209.8875,106.33812812396458L210.113671875,106.41780716606549L210.33984375,106.28287615094865L210.566015625,106.3670464881829L210.79218749999998,106.53543237703188L211.018359375,106.4946904523032L211.24453125,106.64608326980046L211.470703125,106.80518890704428L211.696875,106.61544675912177L211.923046875,106.53793047155654L212.14921875,106.94390662653106L212.375390625,106.22477943982398L212.6015625,106.37197862352645L212.827734375,106.55608404534205L213.05390625,106.94106188842228L213.28007812500002,106.80312411699975L213.50625,106.75893082789013L213.732421875,106.75167015194893L213.95859375,106.74004628828594L214.184765625,106.78548297286034L214.41093750000002,106.81348197800773L214.63710937500002,107.06206310646876L214.86328125,107.04052222200802L215.089453125,106.86529012237276L215.315625,107.12309121659824L215.54179687500002,107.04809563074792L215.76796875000002,107.10987354602133L215.994140625,106.9798030768122L216.22031249999998,107.14520481654576L216.44648437499998,107.0361138199057L216.898828125,107.32706082292965L217.125,107.4364607845034L217.35117187499998,107.07190476996558L217.57734374999998,107.20566021118844L217.803515625,107.00024374467986L218.255859375,107.55146356139863L218.48203125,107.2872797037874L218.70820312499998,107.41366896884783L218.934375,107.28278840865408L219.160546875,107.35565138288906L219.38671875,107.41216935856002L219.612890625,107.40302475009645L219.8390625,107.5339128460203L220.065234375,107.57685520393508L220.29140625,107.89444478069032L220.517578125,107.47803540740694L220.74375,107.98535959635461L220.969921875,107.29174839173044L221.19609375,107.85282494340623L221.422265625,107.58344519989832L221.6484375,107.62761964968273L221.874609375,107.46273033959525L222.10078125,107.92781299352646L222.32695312500002,107.84662680540765L222.553125,107.59555135028704L222.779296875,108.15943496142114L223.00546875,107.80430614522525L223.231640625,107.8470261991024L223.45781250000002,107.7619817171778L223.68398437500002,107.96280515619686L223.91015625,107.71896776982716L224.136328125,107.98412373661995L224.3625,107.93026587367058L224.58867187500002,107.91752672195435L224.81484375000002,108.20527857542038L225.041015625,108.13631534150669L225.26718749999998,108.0517267712525L225.49335937499998,107.492360830307L225.71953125,107.9918440920966L225.945703125,108.04062287296568L226.171875,108.14834990245956L226.39804687499998,108.39873583827699L226.62421874999998,108.04333196793283L226.850390625,108.40051427057811L227.0765625,108.06443954791342L227.302734375,108.44292912738665L227.52890625,108.34702942626818L227.75507812499998,108.37003977809633L227.98125,108.57348565118654L228.207421875,108.74857833981514L228.43359375,108.70426071115902L228.659765625,108.2186997107097L228.8859375,108.75302065270289L229.112109375,108.46806078723499L229.564453125,108.71011597343853L229.790625,108.655655252082L230.016796875,109.0484627187252L230.24296875000002,108.71951302886009L230.6953125,108.75590683732713L230.921484375,108.90879549724716L231.14765625,108.94347492711886L231.37382812500002,109.07947224804333L231.60000000000002,108.89129753197943L231.826171875,108.89682875786508L232.05234375,109.44946529184068L232.278515625,108.84991507019316L232.50468750000002,108.75883070060185L232.95703125,109.25564254607474L233.18320312499998,109.23554475392615L233.40937499999998,109.23365705353874L233.635546875,109.17621218306678L233.86171875,107.14733742816108L234.087890625,108.83257158739227L234.31406249999998,108.9269528388977L234.54023437499998,108.88004291909083L234.76640625,108.76273797665323L234.992578125,109.01272451877594L235.444921875,109.41138724769866L235.67109374999998,109.06008281452316L235.897265625,109.44503051468304L236.1234375,109.40227655002049L236.349609375,108.93261594005993L236.801953125,109.28896177666529L237.028125,109.61239154423987L237.254296875,109.36885935493878L237.706640625,109.55719232133457L237.9328125,109.52258071303368L238.158984375,109.2855443230697L238.38515625,109.31392011472157L238.611328125,109.72833251953125L238.8375,109.62516837460655L239.063671875,109.67692376886095L239.28984375000002,109.76610536660468L239.516015625,109.61790016293526L239.7421875,109.94695912088667L239.968359375,109.60800198146275L240.19453125,109.59202246580804L240.42070312500002,109.74287647860392L240.64687500000002,109.90325942209789L240.873046875,109.72867539525032L241.09921875,109.70256032262529L241.325390625,109.92829688532012L241.55156250000002,109.94580615418299L241.77773437500002,109.88750597834587L242.00390625,110.26028724227632L242.23007812499998,110.02238047548703L242.45624999999998,109.96785946828979L242.682421875,109.91748688050679L242.90859375,110.03044370668276L243.134765625,110.28696372679302L243.36093749999998,109.8602153318269L243.58710937499998,109.96040286336626L243.81328125,109.85674512812069L244.039453125,110.25499715975353L244.265625,109.61704862543515L244.491796875,109.9200904752527L244.71796874999998,110.1892403789929L244.944140625,110.07796025276184L245.1703125,110.01569628289768L245.396484375,110.15062353014946L245.62265625,110.1694025695324L245.848828125,109.85014006069729L246.075,109.9235870540142L246.301171875,110.1093503364495L246.52734375,110.08991192068373L246.753515625,110.09504752073968L246.9796875,110.22493713242667L247.20585937500002,109.98307033947536L247.43203125,110.019935131073L247.884375,110.16100023048266L248.110546875,109.95254309688295L248.56289062500002,110.00296466691154L248.7890625,110.31116095611027L249.015234375,110.26400612507547L249.24140625,110.16062344397818L249.46757812500002,110.14029204419681L249.69375000000002,110.10451239773205L249.919921875,109.6924360692501L250.37226562499998,110.34244177171162L250.5984375,110.13161841886385L250.824609375,109.82423598851477L251.05078125,109.95922728947231L251.27695312499998,110.4621129333973L251.50312499999998,109.87756635035788L251.729296875,110.17918017932347L251.95546875,109.82092403514045L252.4078125,110.09325024911335L252.63398437499998,109.96443824682916L252.86015625,109.96276154688427L253.086328125,110.05944119606698L253.3125,110.29588979908398L253.538671875,109.92125851341656L253.76484375,109.92300303493226L253.991015625,109.77754837274551L254.2171875,109.81419462817057L254.443359375,110.13515267627581L254.66953125,110.12634340780123L254.895703125,110.24823007413319L255.121875,110.12681815879687L255.348046875,110.203400015831L255.57421875,110.01442651237761L255.800390625,110.09273781946727L256.0265625,109.93254326922553L256.252734375,108.26761790258544L256.47890624999997,109.90296176075935L256.705078125,110.0093964125429L256.93125,109.95937423620904L257.157421875,110.26954488669122L257.38359375,110.05869892665318L257.609765625,110.2135770193168L257.8359375,110.08083513379097L258.062109375,110.0921839433057L258.28828125,109.80966565438679" style="fill: none;" fill="none"></path></g><g><path stroke="rgb(204, 51, 17)" stroke-width="2px" d="M24.87890625,-15.680217555591042L27.140625,30.06869492360522L29.40234375,-93.86212108816426L31.6640625,-2.1209824766431495L33.92578125,29.978198340960915L36.1875,43.56282883031028L38.44921875,39.60944918223788L40.7109375,16.532406142779735L42.97265625,34.76389937741416L45.234375,33.103506752422874L47.49609375,49.616936419691356L49.7578125,41.19644379615784L52.01953125,39.87377998658587L54.28125,57.82941274983543L56.54296875,47.972225649016224L58.8046875,37.99702147926601L61.06640625,49.04720508200782L63.328125,52.20785606758935L65.58984375,33.726606130599976L67.8515625,19.005436829158214L70.11328125,-1.2249389546258271L72.375,19.859310405594954L74.63671875,-7.28246022973741L76.8984375,13.45962177004131L79.16015625,-1.7344748803547532L81.421875,40.215171166828696L83.68359375,35.374466836452484L85.9453125,24.139951739992398L88.20703125,19.682703035218367L90.46875,49.3534345456532L92.73046875,27.798729555947432L94.9921875,53.72416553327015L97.25390625,19.842008369309553L99.515625,51.784596715654644L101.77734375,53.98460790089199L104.0390625,5.875180721282959L106.30078125,25.485396061624783L108.5625,44.800956819738644L110.82421875,54.06558685643333L113.0859375,10.61848574025288L115.34765625,56.68544370787484L117.609375,30.75792786904742L119.87109375,47.19645991495679L122.1328125,36.29438355139325L124.39453125,33.88209838526589L126.65625,32.944585740566254L128.91796875,21.3664262805666L131.1796875,63.16256197009767L133.44140625,51.836246609687805L135.703125,15.663174748420715L136.15546875,57.25774472951889L136.6078125,46.308148052011234L137.06015625,32.43342209713799L137.51250000000002,61.55486670562199L137.96484375,32.80818149021695L138.4171875,66.0408792921475L138.86953125000002,47.280129126140054L139.321875,24.776193431445535L139.77421875000002,26.204809606075287L140.2265625,49.193790103708L140.67890624999998,41.1345528449331L141.13125,54.88738082987922L141.58359374999998,35.0504982641765L142.0359375,59.404440624373294L142.48828125,14.100656185831326L142.94062499999998,34.72278443404605L143.39296875,54.0665363584246L143.8453125,44.183170131274636L144.29765625,17.254374299730557L144.75,28.659136610371718L145.20234375,22.68847969600131L145.6546875,52.318812157426564L146.10703125,37.336861380508964L146.55937500000002,7.679370147841297L147.01171875,47.41123575823647L147.4640625,43.20927498170306L147.91640625000002,21.347089597157066L148.36874999999998,12.507210986954817L148.82109375,45.267780227320515L149.2734375,15.454841954367481L149.72578124999998,44.2484747682299L150.178125,35.66079443693161L150.63046875,33.32618757656644L151.0828125,46.38910440036227L151.53515625,31.750617129462086L151.9875,31.887752345630105L152.43984375,6.874026673180708L152.8921875,39.38985800743103L153.34453125,45.05722439289093L153.796875,55.919097636427196L154.24921875,46.62140835183007L154.7015625,44.39829261813844L155.15390625,24.08420240879059L155.60625000000002,-0.18318455559867175L156.05859375,39.02077301910947L156.5109375,67.79757101195199L156.96328125000002,13.780357514108914L157.41562499999998,53.69473097154072L157.86796875,44.04016458136695L158.3203125,45.88740563392639L158.77265624999998,45.64780709573199L159.225,41.668662786483765L159.67734375,15.88945765154702L160.1296875,2.745953730174449L160.58203125,51.77684244939259L161.034375,37.11014140503747L161.48671875,13.048351764678955L161.9390625,28.18867344515664L162.39140625000002,24.134390371186385L162.84375,15.676618490900296L163.29609375,61.85530119282859L163.74843750000002,48.468792583261234L164.20078125,41.337866842746735L164.65312500000002,20.20646641935619L165.10546875,59.75878572463989L165.55781249999998,54.711489353861126L166.01015625,13.302622369357493L166.46249999999998,44.85346578700202L166.91484375,49.53607050010136L167.3671875,40.67134658779415L167.81953124999998,50.69260913985116L168.271875,29.944257412637967L168.72421875,23.93743652956826L169.1765625,29.65686727421624L169.62890625,24.346596530505593L170.08125,42.20039897305625L170.53359375,38.90000540869576L170.9859375,47.606727668217246L171.43828125000002,46.698235120092136L171.890625,28.065893794809085L172.34296875,60.832695083958754L172.79531250000002,30.33130004576276L173.24765625,48.43996841566903L173.70000000000002,30.284525769097456L174.15234375,25.389187395572662L174.60468749999998,49.0352760212762L175.05703125,41.96934595278333L175.50937499999998,33.24777076925548L175.96171875,58.67734063523156L176.4140625,28.816060653754647L176.86640624999998,45.499081926686415L177.31875,50.75752945457185L177.77109375,59.45621109008789L178.2234375,58.04079751457486L178.67578125,45.73426452704837L179.128125,41.70022242409843L179.58046875,28.725940857614773L180.0328125,43.251369569982785L180.48515625000002,60.24456149339676L180.9375,48.68907704523633L181.38984375,45.22216645308902L181.84218750000002,23.727234874452847L182.29453124999998,47.3015456710543L182.746875,60.04215178319386L183.19921875,49.291166807924L183.65156249999998,65.5800091113363L184.10390625,37.713376598698744L184.55625,44.19106004067828L185.00859375,24.960336531911594L185.4609375,11.980945740427273L185.91328125,22.456273709024686L186.365625,56.971093092645916L186.81796875,66.79537919589451L187.2703125,61.508800787585116L187.72265625,52.822681214128224L188.175,31.295813211372916L188.62734375,31.781377979687278L189.0796875,27.086798991475803L189.53203125000002,33.92602415595735L189.984375,35.25002932548523L190.43671875,51.61835097415107L190.88906250000002,60.68451248747962L191.34140624999998,29.34943209375652L191.79375,55.699031710624695L192.24609375,48.56487314190181L192.69843749999998,31.477740807192646L193.15078125,54.14577456031526L193.603125,42.544676337923306L194.05546875,17.27625805991036L194.5078125,61.120296222823L194.96015625,38.809312897069105L195.4125,61.33526045935494L195.86484375,27.624382904597695L196.31718750000002,40.25977515322822L196.76953125,60.43841061421803L197.221875,20.430729746818542L197.67421875000002,38.281593254634316L198.1265625,24.475789087159285L198.57890625000002,42.65296477930886L199.03125,23.17029920646121L199.48359374999998,43.61501376117977L199.9359375,38.946289862905246L200.38828124999998,62.061930911881575L200.840625,57.00366251809257L201.29296875,47.335893528802046L201.74531249999998,59.45460597957883L202.19765625,55.88496831485203L202.65,45.21233986105236L203.10234375,64.28775197267532L203.5546875,37.28083322729381L204.00703125,42.1518161211695L204.459375,60.21861597469875L204.91171875,52.04764644588742L205.36406250000002,40.76728396756309L205.81640625,33.33950321163448L206.26875,21.58847410338265L206.72109375000002,38.034323343208854L207.1734375,59.343129924365456L207.62578125000002,50.43682385342461L208.078125,49.6015333873885L208.53046874999998,52.850442843777785L208.9828125,37.59230755908149L209.43515624999998,24.446173667907715L209.8875,54.39633758578981L210.33984375,43.04541053090776L210.79218749999998,52.81272651468004L211.24453125,57.38134577444622L211.696875,57.304519006184165L212.14921875,63.661472516400465L212.6015625,36.406492607934126L213.05390625,60.99340206384659L213.50625,38.02454196555274L213.95859375,63.514488101005554L214.41093750000002,34.518483255590695L214.86328125,47.95592586483272L215.315625,11.500980019569397L215.76796875000002,52.09571686812809L216.22031249999998,43.940225728920524L216.67265625,63.84820790801729L217.125,33.969136067799155L217.57734374999998,42.00996353796552L218.0296875,22.21140769549777L218.48203125,29.383440843650277L218.934375,40.98818635940552L219.38671875,27.601180391652235L219.8390625,43.246863203389296L220.29140625,43.4469293015344L220.74375,64.22931992156165L221.19609375,36.72755992412567L221.6484375,43.084701827594216L222.10078125,60.7776164327349L222.553125,41.24446900401796L223.00546875,40.70341865505489L223.45781250000002,31.378495241914493L223.91015625,55.563102211271016L224.3625,66.5119754586901L224.81484375000002,39.210650810173576L225.26718749999998,44.77016582659314L225.71953125,37.11097787107738L226.171875,57.15118197032383L226.62421874999998,43.595315362725955L227.0765625,47.44125057118279L227.52890625,74.76420276505607L227.98125,55.81448663132531L228.43359375,44.31637169633592L228.8859375,48.848653665610726L229.33828125,36.49812708582195L229.790625,33.0153989962169L230.24296875000002,56.80411638532365L230.6953125,63.74579733610153L231.14765625,57.26502424478531L231.60000000000002,49.2872256210872L232.05234375,61.554135739803314L232.50468750000002,43.71609050886971L232.95703125,34.14991823264529L233.40937499999998,57.16889847176415L233.86171875,27.356073234762448L234.31406249999998,30.918793099267134L234.76640625,36.67512631416321L235.21875,47.397475515093106L235.67109374999998,55.51980944190706L236.1234375,51.572797485760276L236.57578125,32.44259308065685L237.028125,49.10311266354152L237.48046875,41.3905114531517L237.9328125,31.572992435523446L238.38515625,50.85767177173069L238.8375,26.42446106672287L239.28984375000002,46.743781072752796L239.7421875,21.357021689414978L240.19453125,39.10525608914239L240.64687500000002,68.47594497033528L241.09921875,52.66392598833356L241.55156250000002,48.25215541464942L242.00390625,65.49314475059509L242.45624999999998,50.98635189873832L242.90859375,16.851242882864796L243.36093749999998,51.56025049516133L243.81328125,48.06388273409436L244.265625,28.35704426254543L244.71796874999998,51.49688254083905L245.1703125,41.24796558277947L245.62265625,57.65783924715859L246.075,35.682324017797214L246.52734375,29.64282820905956L246.9796875,23.65965444701058L247.43203125,45.32288148573468L247.884375,40.33960867779595L248.33671875000002,38.61236659118106L248.7890625,41.73628842830658L249.015234375,64.29781970807484L249.24140625,19.583276612418018L249.46757812500002,41.2068355679512L249.69375000000002,50.88166553633553L249.919921875,63.8773033618927L250.14609374999998,48.36449807882309L250.37226562499998,63.83150119440896L250.5984375,40.633328829492825L250.824609375,42.69563961880547L251.05078125,64.17394737686429L251.27695312499998,79.14463223729815L251.50312499999998,33.19331758362907L251.729296875,35.06781537192208L251.95546875,63.43502382721219L252.181640625,31.679291444165358L252.4078125,64.05470198392868L252.63398437499998,46.300250606877455L252.86015625,58.21620670386723L253.086328125,51.119598678180154L253.3125,38.424011017595035L253.538671875,49.40650869267327L253.76484375,67.3916815178735L253.991015625,42.682165733405526L254.2171875,51.99671244621277L254.443359375,72.16667428186962L254.66953125,46.28561621904373L254.895703125,49.93565258809498L255.121875,41.474361521857105L255.348046875,44.485729694366455L255.57421875,42.969088656561695L255.800390625,43.21615510327476L256.0265625,58.35941571848733L256.252734375,52.132528909615104L256.47890624999997,53.890222881521495L256.705078125,50.96767835957664L256.93125,44.686443865299225L257.157421875,44.92832572971071L257.38359375,29.392498791217804L257.609765625,47.248916132109485L257.8359375,62.05711558035442L258.062109375,54.56829541070121" style="fill: none;" fill="none"></path></g><g><path stroke="rgb(0, 153, 136)" stroke-width="2px" d="M22.6171875,-50.98990574904852L24.87890625,8.80804165772031L27.140625,15.839540975434431L29.40234375,-30.303256579807822L31.6640625,20.845692259924732L33.92578125,43.08345843212945L36.1875,47.44116014242172L38.44921875,49.3007447208677L40.7109375,5.434325439589344L42.97265625,45.59084451198578L45.234375,53.93420140232358L47.49609375,58.165129525320864L49.7578125,42.649272271565025L52.01953125,50.93089646100998L54.28125,67.28647519009454L56.54296875,62.398069688252036L58.8046875,64.79527585847038L61.06640625,65.73132657153266L63.328125,67.16541368620736L65.58984375,65.07171658107212L67.8515625,65.93257577930177L70.11328125,44.7189906835556L72.375,61.180446420397075L74.63671875,49.30793380737305L76.8984375,34.7876670701163L79.16015625,47.35992497205734L81.421875,26.011065985475284L83.68359375,50.80937527758735L85.9453125,35.43541582141603L88.20703125,4.93405846187045L90.46875,62.94315918854305L92.73046875,72.39070400169918L94.9921875,47.1494068162782L97.25390625,54.321334464209414L99.515625,60.139023593493874L101.77734375,62.594880350998466L104.0390625,40.1207258616175L106.30078125,61.37920130150658L108.5625,66.99005724702563L110.82421875,18.865272249494296L113.0859375,37.583294825894484L115.34765625,60.2584724511419L117.609375,43.493635756628834L119.87109375,62.88116273709706L122.1328125,50.334059102194644L124.39453125,69.22140953370503L126.65625,58.575804208006176L128.91796875,54.4047173176493L131.1796875,70.73048469849995L133.44140625,50.32446611779076L135.703125,68.1299494590078L136.15546875,56.676687189510886L136.6078125,28.951658580984372L137.06015625,60.79829447610038L137.51250000000002,54.149354032107766L137.96484375,29.26870181730817L138.4171875,52.61701606852668L138.86953125000002,54.65947774478367L139.321875,36.65099690641674L139.77421875000002,49.58645439147949L140.2265625,45.3299198576382L140.67890624999998,34.731194308825906L141.13125,52.57437137195042L141.58359374999998,51.35951371703828L142.0359375,68.76830115488598L142.48828125,28.47662876333507L142.94062499999998,52.277116962841575L143.39296875,53.19270816871098L143.8453125,56.286690550191054L144.29765625,54.84811214038304L144.75,55.46363057409013L145.20234375,54.296564519405365L145.6546875,74.17165323666164L146.10703125,36.52150292055947L146.55937500000002,48.553268117564045L147.01171875,57.86564454010555L147.4640625,44.745410953249234L147.91640625000002,56.49330519778388L148.36874999999998,33.9503645641463L148.82109375,60.473557259355275L149.2734375,51.25973311492375L149.72578124999998,61.013032640729634L150.178125,40.132474064826965L150.63046875,59.10365195785249L151.0828125,27.840356928961597L151.53515625,65.3844569155148L151.9875,72.59496750150409L152.43984375,38.96758583613803L152.8921875,43.62673935719897L153.34453125,61.754872517926344L153.796875,51.31638673373631L154.24921875,45.01201754808426L154.7015625,51.514259934425354L155.15390625,58.234232170241214L155.60625000000002,58.00391765151704L156.05859375,71.13164175408227L156.5109375,77.4227254475866L156.96328125000002,30.080088947500485L157.41562499999998,34.603584255491L157.86796875,58.425270463739125L158.3203125,63.163104542664115L158.77265624999998,63.656189969607766L159.225,59.87777490275246L159.67734375,47.62748106888364L160.1296875,51.19268772431782L160.58203125,40.16069537401199L161.034375,45.40758309194018L161.48671875,49.2068721311433L161.9390625,46.56664620126995L162.39140625000002,32.215511390141074L162.84375,59.613903777939925L163.29609375,51.8292459164347L163.74843750000002,36.442716862474185L164.20078125,51.81566653081349L164.65312500000002,50.38478210142681L165.10546875,51.00534193856376L165.55781249999998,59.73085830892835L166.01015625,59.99281535829816L166.46249999999998,76.83548860890525L166.91484375,67.31954197372708L167.3671875,64.05332294532231L167.81953124999998,37.60043107611793L168.271875,56.36977951015744L168.72421875,72.59987326179233L169.1765625,51.208173649651656L169.62890625,58.48427523033959L170.08125,83.13454510484424L170.53359375,28.995531601565204L170.9859375,47.06597874845775L171.43828125000002,66.36568433046341L171.890625,73.36498347350529L172.34296875,70.50146632535117L172.79531250000002,56.494767129421234L173.24765625,74.29584960426602L173.70000000000002,57.35830904756273L174.15234375,76.8682690347944L174.60468749999998,44.44545121703828L175.05703125,35.76173554147991L175.50937499999998,60.87672635487148L175.96171875,57.39809016670499L176.4140625,48.52914624554771L176.86640624999998,57.561788831438335L177.31875,66.60400933027267L177.77109375,51.277276294572005L178.2234375,64.02204212972096L178.67578125,70.5516995021275L179.128125,29.665375113487244L179.58046875,44.00745197704862L180.0328125,65.99056322234017L180.48515625000002,46.70958392960685L180.9375,65.88874043737138L181.38984375,48.00085388762611L181.84218750000002,65.7647626059396L182.29453124999998,56.24730882474354L182.746875,58.3050228187016L183.19921875,55.92156935589654L183.65156249999998,78.65342320714679L184.10390625,65.49088403156826L184.55625,61.136799471718916L185.00859375,51.03299806799207L185.4609375,19.268328309059143L185.91328125,18.184810893876204L186.365625,54.5624401484217L186.81796875,77.78101173468998L187.2703125,72.98211563485009L187.72265625,45.71456612859453L188.175,67.8593338557652L188.62734375,53.29762060301644L189.0796875,45.05777450118745L189.53203125000002,41.03491542169024L189.984375,72.553264771189L190.43671875,67.89075031450817L190.88906250000002,49.656936075006215L191.34140624999998,66.2843964099884L191.79375,65.32177471263068L192.24609375,48.43510786976131L192.69843749999998,61.32208800315857L193.15078125,66.0378725358418L193.603125,50.98211681842804L194.05546875,41.22947290113996L194.5078125,73.47230734143939L194.96015625,67.88234797545842L195.4125,58.42232399327415L195.86484375,61.69252942289624L196.31718750000002,38.07065309797014L196.76953125,63.12582528591156L197.221875,58.16161787509918L197.67421875000002,74.75428574425834L198.1265625,54.30134970801217L198.57890625000002,70.86611276865005L199.03125,76.75088496719088L199.48359374999998,51.65676812614713L199.9359375,45.908294677734375L200.38828124999998,69.5305854678154L200.840625,73.95756314482007L201.29296875,63.78977585690362L201.74531249999998,50.925018591540194L202.19765625,45.335797727108L202.65,31.650082954338615L203.10234375,62.73780300787517L203.5546875,64.48475102867398L204.00703125,52.07524982520512L204.459375,75.0566719855581L204.91171875,66.24516539914268L205.36406250000002,54.40651835714067L205.81640625,46.9888128723417L206.26875,54.46417422805513L206.72109375000002,55.68270931925092L207.1734375,63.955855812345234L207.62578125000002,76.27525982686451L208.078125,67.8811497943742L208.53046874999998,55.078924017293104L208.9828125,50.715676009655L209.43515624999998,63.96737040792192L209.8875,50.23922193901879L210.33984375,77.36283900056567L210.79218749999998,62.02038643189839L211.24453125,62.13973732505525L211.696875,64.13327704157147L212.14921875,41.45404519353593L212.6015625,72.54642232826778L213.05390625,63.75605346475328L213.50625,61.57642642940793L213.95859375,54.60306526933397L214.41093750000002,68.89519531386239L214.86328125,52.14629668848855L215.315625,72.52893943446023L215.76796875000002,58.7094880597932L216.22031249999998,65.40889528819493L216.67265625,54.41997717108045L217.125,73.7065931899207L217.57734374999998,53.400083925042836L218.0296875,78.39745706319809L218.48203125,63.691464722156525L218.934375,40.25337731838226L219.38671875,29.0026151878493L219.8390625,73.88014858961105L220.29140625,52.79215397153581L220.74375,71.03146175827298L221.19609375,59.410800780568806L221.6484375,54.3213495356696L222.10078125,81.30306126390185L222.553125,60.635959778513225L223.00546875,72.71983454908643L223.45781250000002,77.16672916071755L223.91015625,61.00843584537506L224.3625,65.69559967517853L224.81484375000002,74.27910521200725L225.26718749999998,47.57259834664208L225.71953125,61.7238027027675L226.171875,67.86572415488106L226.62421874999998,68.87392194781985L227.0765625,53.705047386033186L227.52890625,64.27928181205476L227.98125,80.45219444377082L228.43359375,62.466463974543984L228.8859375,70.94318821600505L229.33828125,62.91670124019895L229.790625,40.906581938266754L230.24296875000002,74.69794109037944L230.6953125,76.79552663224084L231.14765625,39.768581194537006L231.60000000000002,67.89775854349136L232.05234375,45.804301602499805L232.50468750000002,70.57041071993964L232.95703125,62.0589844414166L233.40937499999998,72.33866978543145L233.86171875,67.48793539830616L234.31406249999998,67.00022294691631L234.76640625,54.56112893138612L235.21875,80.4588560291699L235.67109374999998,63.90643649441856L236.1234375,54.28343727758953L236.57578125,72.3166127034596L237.028125,45.27491656371524L237.48046875,71.62946715525219L237.9328125,50.89475509950093L238.38515625,59.26041775090354L238.8375,55.51904833316803L239.28984375000002,67.01456344127655L239.7421875,76.8558275444167L240.19453125,50.33259717055729L240.64687500000002,75.76605547325951L241.09921875,82.56173918928418L241.55156250000002,37.725350873810896L242.00390625,73.98033612115043L242.45624999999998,59.99444307599748L242.90859375,66.82340457609722L243.36093749999998,77.4840662905148L243.81328125,53.07710253340858L244.265625,73.47104133878436L244.71796874999998,65.94155083383832L245.1703125,69.06838146277836L245.62265625,61.19750731331962L246.075,70.42507662943432L246.52734375,48.82517986638206L246.9796875,55.02551829814911L247.43203125,64.1174595441137L247.884375,70.34833275420326L248.33671875000002,85.64787687574115L248.7890625,69.8448856983866L249.015234375,46.921910660607466L249.24140625,66.098286483969L249.46757812500002,53.66946366855076L249.69375000000002,43.13185289076398L249.919921875,70.90607474531446L250.14609374999998,61.97487815788814L250.37226562499998,85.97147619724274L250.5984375,88.75494128465652L250.824609375,45.193666321890674L251.05078125,61.68240140165601L251.27695312499998,81.33025771379471L251.50312499999998,45.13694488150733L251.729296875,56.24456581899098L251.95546875,62.49128666945866L252.181640625,59.097367158957894L252.4078125,85.16403025388718L252.63398437499998,66.78841618129185L252.86015625,77.69175854751042L253.086328125,75.62612450122833L253.3125,75.48746706758227L253.538671875,58.9928993327277L253.76484375,77.15967571735382L253.991015625,63.36861897366387L254.2171875,64.5946295091084L254.443359375,70.77075564009803L254.66953125,67.05437470333916L254.895703125,71.67484732185092L255.121875,72.87314144202641L255.348046875,64.8845591885703L255.57421875,77.09737030097416L255.800390625,68.00456244604928L256.0265625,53.271109904561726L256.252734375,68.22423651388713L256.47890624999997,66.20967211042131L256.705078125,51.710912346839905L256.93125,61.61843812465668L257.157421875,86.43880449874061L257.38359375,79.4184279186385L257.609765625,62.28357934100288L257.8359375,44.225701791899525L258.062109375,67.33065717560905" style="fill: none;" fill="none"></path></g><g><path stroke="rgb(0, 119, 187)" stroke-width="2px" d="M23.521875,-44.78162465776717L23.97421875,16.4252028465271L24.4265625,23.071942857333596L24.87890625,11.445034759385237L25.33125,-7.67914106164659L25.78359375,24.714927945818204L26.2359375,1.087716323988758L26.68828125,22.907829727445346L27.140625,19.880515950066695L27.59296875,28.201348543167114L28.0453125,14.047378574098843L28.49765625,11.927788700376254L28.950000000000003,3.029493110520491L29.40234375,-33.90682763712746L29.8546875,11.821127976690036L30.307031249999998,16.849826165607993L30.759375,-2.9032666172300026L31.211718750000003,37.9207523550306L31.6640625,16.56872836181094L32.11640625,35.735164557184476L32.56875,30.54366445541382L33.02109375,20.529915026255992L33.4734375,32.97401276656558L33.92578125,40.33902842657906L34.378125000000004,40.74696010351181L34.83046875,24.96797776222229L35.2828125,53.12073441062654L35.735156249999996,36.40712560926164L36.1875,44.87492001056671L36.639843750000004,21.376705016408664L37.092187499999994,42.54927313327789L37.54453125,43.75933052812303L37.996875,52.08271019799369L38.44921875,45.09012539046151L38.901562500000004,47.755204158169875L39.353906249999994,58.00624619211469L39.80625,47.69237124068397L40.25859375,50.788659555571414L40.7109375,1.5218195915222168L41.163281250000004,44.53465165410722L41.615624999999994,55.34991640704018L42.06796875,49.39041237320218L42.5203125,24.172295093536377L42.97265625,41.1806715130806L43.425000000000004,45.90712663957049L43.877343749999994,45.97715617929185L44.3296875,30.294495540005812L44.78203125,42.24439256531852L45.234375,48.29295385735375L45.68671875,41.37645731653484L46.1390625,65.76543328591755L46.59140625,42.149148472717826L47.04375,58.42566985743386L47.49609375,50.699202903679435L47.9484375,58.354314029216766L48.40078125,29.601464586598524L48.853125,55.33112983192716L49.30546875,53.44526062692914L49.7578125,38.39285077367509L50.21015625,63.83544991697583L50.6625,53.32228504759925L51.11484375,44.832765136446255L51.5671875,55.4085368514061L52.01953125,45.07816618680954L52.471875,50.94886917727334L52.92421875,56.87611275059837L53.3765625,48.10198338542665L53.82890625,60.25007764782224L54.28125,59.68495064122337L54.73359375,53.43462017604283L55.1859375,48.474180630275185L55.63828125,66.06214512245995L56.090625,55.47405248880386L56.54296875,56.418121218681335L56.9953125,58.89321669510433L57.44765625,65.26132308585304L57.900000000000006,63.47853513274873L58.352343749999996,50.95017285857881L58.8046875,56.215387472084586L59.25703125,28.356494154248935L59.709375,52.614868385451175L60.161718750000006,52.75629143204007L60.614062499999996,59.064579197338645L61.06640625,57.00697823933193L61.51875,53.954510194914675L61.97109375,14.697486008916599L62.423437500000006,35.48976350682122L62.875781249999996,61.486321704728255L63.328125,60.19281363487244L63.78046875,-30.4565031869071L64.2328125,39.806448238236555L64.68515625,54.086543721812106L65.1375,53.797367615359164L65.58984375,58.73457450526101L66.0421875,57.93565900836671L66.49453125,49.50131571292877L66.946875,60.92099876914705L67.39921875,49.500245639256065L67.8515625,57.889947269644054L68.30390625,57.910406776836936L68.75625000000001,40.01785561016629L69.20859375,21.74773422309329L69.6609375,40.30650421551297L70.11328125,40.55725563423974L70.565625,32.24169051647186L71.01796875,48.322757669857566L71.47031249999999,58.26534719978059L71.92265625,45.98937913349698L72.375,51.699111393519814L72.82734375,56.69766666207994L73.27968750000001,50.43833853517259L73.73203125,52.94194921425411L74.18437499999999,59.82263596568788L74.63671875,41.17743114914211L75.0890625,57.35264217853546L75.54140625,30.89113696983884L75.99375,52.45224733012063L76.44609375,43.182997890881126L76.8984375,28.16183117457797L77.35078125,31.176515068326694L77.80312500000001,50.0629084621157L78.25546875,56.31634364809308L78.70781249999999,17.575878688267295L79.16015625,40.970846644469674L79.6125,33.433632016181946L80.06484375,35.84735650675637L80.5171875,37.691304445266724L80.96953125,12.764917884554166L81.421875,19.79332755293163L81.87421875000001,48.04645259039742L82.32656250000001,40.41352665424347L82.77890624999999,41.613425884928006L83.23124999999999,60.894661392484394L83.68359375,45.48922519172939L84.1359375,17.639841965266612L84.58828125,51.47031909227371L85.040625,39.881051966122214L85.49296875,20.946354542459744L85.9453125,29.063782708985457L86.39765625000001,38.92953793491634L86.85000000000001,39.593202148165005L87.30234374999999,31.559789836406708L87.75468749999999,42.9693900857653L88.20703125,-5.219659617968972L88.659375,51.75344400746482L89.11171875,40.15093660354614L89.5640625,21.573402643203735L90.01640625,24.63715921129497L90.46875,55.18386659451893L90.92109375000001,31.129914113453452L91.3734375,31.739321070057997L91.82578124999999,61.29165118932724L92.278125,40.27541932889392L92.73046875,67.48108541965485L93.1828125,41.42492713247026L93.63515625,58.854957793440136L94.0875,47.29999331065585L94.53984375,51.77323283467973L94.9921875,40.49047399418694L95.44453125000001,32.78829469851087L95.896875,60.897065290382926L96.34921874999999,40.3481541957174L96.8015625,49.61821749380657L97.25390625,49.99167320558003L97.70625,52.730843271527974L98.15859375000001,38.16645483459743L98.6109375,29.893775556768674L99.06328125,15.714824642453891L99.515625,51.83720364740917L99.96796875,44.47737256969722L100.4203125,16.556339621543884L100.87265624999999,28.817733585834503L101.325,43.660318570477614L101.77734375,57.963902924742015L102.2296875,56.269380978175576L102.68203125000001,36.76294771262576L103.134375,62.44828025783811L103.58671875,67.68008144412723L104.0390625,34.29911815268653L104.49140625,42.225349775382455L104.94375,47.6895679490907L105.39609374999999,37.48334090198787L105.8484375,44.82281043699811L106.30078125,54.43642013413566L106.753125,62.747501492500305L107.20546875000001,64.39404344558716L107.6578125,33.36562958785464L108.11015624999999,5.5538119758878395L108.5625,60.199927364076885L109.01484375,57.910632848739624L109.4671875,57.15886087928499L109.91953125,43.63322008507592L110.371875,64.76268382583345L110.82421875,12.679583277021152L111.2765625,44.42518010309766L111.72890625000001,50.88122092826026L112.18125,56.64159329448427L112.63359374999999,57.67367181607655L113.0859375,28.855736272675642L113.53828125,45.956455528736115L113.990625,67.16599393742425L114.44296875,53.753019843782695L114.8953125,60.67138524566377L115.34765625,56.499544782297946L115.80000000000001,63.40590576614652L116.25234375000001,54.387980461120605L116.70468749999999,58.747249603271484L117.15703124999999,39.41935285500119L117.609375,36.635510981082916L118.06171875,33.50102405037197L118.5140625,61.08579765047345L118.96640625,74.52367733206067L119.41875,60.988616875239785L119.87109375,54.482960803168154L120.32343750000001,57.73336233411516L120.77578125000001,49.697553660188404L121.22812499999999,66.64728702817645L121.68046874999999,51.63880294561386L122.1328125,44.31380201237542L122.58515625,22.152568714959273L123.0375,61.889965551240095L123.48984375,34.31773140600751L123.9421875,67.00958232368741L124.39453125,66.23200801440647L124.84687500000001,70.0704602428845L125.29921875,58.213953520570485L125.75156249999999,51.4392944914954L126.20390625,36.42542236191886L126.65625,54.032783823353896L127.10859375,34.69325190782547L127.5609375,17.068286980901462L128.01328125,42.32363076720918L128.465625,56.02022713422775L128.91796875,45.52568305390221L129.3703125,44.758116194180076L129.82265625,58.0243997659002L130.275,50.4092355455671L130.72734375000002,57.68290308543614L131.1796875,65.18774421725954L131.63203124999998,59.611273808138705L132.084375,57.03397876024246L132.53671875,29.49794626235962L132.9890625,61.97860080855233L133.44140625,45.51850903885705L133.89375,60.17954321418489L134.34609375,21.679611223084578L134.7984375,65.47653600147792L135.25078125000002,37.960119009017944L135.703125,60.027374216488425L135.929296875,43.772096054894575L136.15546875,52.4628501023565L136.381640625,31.813924797943656L136.6078125,22.817611966814297L136.833984375,36.061371241297024L137.06015625,55.45266608680997L137.286328125,30.680535921028678L137.51250000000002,50.53587348972047L137.738671875,58.622766877923695L137.96484375,25.781663290091927L138.191015625,20.1709279162543L138.4171875,48.608414590358734L138.64335937500002,53.808467745780945L138.86953125000002,50.29635030882699L139.095703125,56.77896211828504L139.321875,30.765960957322818L139.548046875,43.35887429543902L139.77421875000002,44.55861527579171L140.00039062500002,58.506347383771626L140.2265625,41.32394081354141L140.45273437499998,48.945661119052346L140.67890624999998,32.528025652681094L140.905078125,39.02423945495059L141.13125,49.29720292772565L141.357421875,61.69367485386985L141.58359374999998,43.73918752159389L141.80976562499998,39.106190519673476L142.0359375,65.32882815599442L142.262109375,50.37639483383724L142.48828125,24.009327394621693L142.714453125,35.17751299483436L142.94062499999998,46.11095306703021L143.166796875,6.491015655653797L143.39296875,47.94526280675615L143.619140625,3.0456647872924805L143.8453125,49.32278673137937L144.071484375,45.7958841919899L144.29765625,49.20305905171803L144.523828125,22.23773753643036L144.75,48.724585405417855L144.976171875,40.38513955899646L145.20234375,48.238417778696316L145.42851562500002,37.55470426593507L145.6546875,66.43620369264058L145.880859375,41.64276248216629L146.10703125,31.974239919866818L146.333203125,37.10372096300125L146.55937500000002,44.10210074697221L146.78554687500002,31.650188454559867L147.01171875,51.7734739780426L147.237890625,45.71777634961265L147.4640625,38.67831176519394L147.69023437500002,66.39628693035671L147.91640625000002,51.68351243223462L148.142578125,42.775563572134274L148.36874999999998,29.340517325060688L148.59492187499998,34.43524358102252L148.82109375,53.82864089523042L149.047265625,38.45386004447937L149.2734375,45.83075201511383L149.49960937499998,42.875427067279816L149.72578124999998,52.31021388939449L149.951953125,42.11589329583305L150.178125,31.168821087905343L150.404296875,28.038019129208152L150.63046875,52.454515584877555L150.85664062499998,49.93932248864854L151.0828125,20.421747156551902L151.308984375,60.06759240797588L151.53515625,60.05389245067323L151.761328125,57.679579828466686L151.9875,64.52265575102398L152.213671875,55.145306263651165L152.43984375,33.34894548143657L152.666015625,32.76225121532167L152.8921875,38.958655995982014L153.118359375,13.48082731451305L153.34453125,55.633892859731404L153.570703125,48.610298522881095L153.796875,43.39366676126207L154.023046875,60.88503826516015L154.24921875,39.30613604613711L154.47539062500002,23.679187059402466L154.7015625,45.81484408889497L154.927734375,48.07045389073235L155.15390625,51.5795796428408L155.380078125,30.13238691432136L155.60625000000002,51.91286991323743L155.83242187500002,48.651428537709364L156.05859375,64.25751862355641L156.284765625,51.765697104590274L156.5109375,72.98014880929675L156.73710937500002,25.759071171283722L156.96328125000002,23.33447262219022L157.189453125,51.018883645534515L157.41562499999998,27.99017477887017L157.64179687499998,68.68734480653491L157.86796875,50.349997171333854L158.094140625,22.128966808319092L158.3203125,53.36198327371052L158.54648437499998,39.3417649780001L158.77265624999998,57.38304131371635L158.998828125,52.8248439686639L159.225,51.634522650923046L159.451171875,59.690557224409915L159.67734375,38.162159468446475L159.90351562499998,60.56849238702229L160.1296875,44.454320771353565L160.355859375,53.88995159523827L160.58203125,33.6267124925341L160.808203125,45.79112914630343L161.034375,35.61973977940423L161.260546875,54.54118185383933L161.48671875,43.54009353263038L161.712890625,22.19514558996471L161.9390625,39.988948549543124L162.165234375,56.7415246112006L162.39140625000002,28.383532353809898L162.617578125,15.078598022460938L162.84375,54.75301122665405L163.069921875,56.54026786770139L163.29609375,46.78787262950624L163.52226562500002,46.37382193974088L163.74843750000002,31.669600495270316L163.974609375,39.92338769776481L164.20078125,43.986849290984L164.426953125,69.5611880677087L164.65312500000002,44.42135948794228L164.87929687500002,61.006333376680104L165.10546875,43.57777971880776L165.33164062499998,66.29073395899364L165.55781249999998,51.869509322302676L165.783984375,58.54594010966164L166.01015625,51.81883907318115L166.236328125,45.6807683791433L166.46249999999998,68.61212314878192L166.68867187499998,53.78306479964937L166.91484375,60.40715994153703L167.141015625,62.27318003347942L167.3671875,56.77744743653706L167.593359375,46.62027799231666L167.81953124999998,33.020787043230854L168.045703125,53.5418159365654L168.271875,47.11283591815402L168.498046875,46.29389798641205L168.72421875,64.00654866865703L168.950390625,47.908443229539046L169.1765625,46.20316026040484L169.402734375,53.448146811553414L169.62890625,49.120271520955214L169.855078125,52.42511870179857L170.08125,73.98873846020017L170.307421875,36.55552674191338L170.53359375,21.537713425500044L170.759765625,31.240666738578255L170.9859375,38.27423838206698L171.212109375,47.63623005151749L171.43828125000002,58.71569750138691L171.664453125,50.549701554434634L171.890625,64.18497968571526L172.116796875,71.83428076335362L172.34296875,63.7072068623134L172.56914062500002,53.38203585147858L172.79531250000002,49.45983151878629L173.021484375,34.04086114679063L173.24765625,66.60515476124627L173.473828125,47.78203135728836L173.70000000000002,54.312080587659565L173.92617187500002,31.99719375371933L174.15234375,68.80827066728047L174.37851562499998,33.74977096489499L174.60468749999998,38.60482332536151L174.830859375,38.64782973698209L175.05703125,28.649995769773227L175.283203125,38.84710458346774L175.50937499999998,55.01578967060361L175.73554687499998,43.940602515424985L175.96171875,52.948460085051394L176.187890625,65.06895850385938L176.4140625,40.96528527566363L176.640234375,68.53163401569638L176.86640624999998,49.81083829062325L177.092578125,56.32294494765145L177.31875,61.481574194771895L177.544921875,65.97633576393127L177.77109375,45.78405309574944L177.997265625,55.08377702747072L178.2234375,52.98430001735687L178.449609375,56.15837213822773L178.67578125,60.539110575403484L178.901953125,55.70318389790398L179.128125,26.596019497939523L179.35429687500002,64.95427976335797L179.58046875,37.87459600823266L179.806640625,57.421677001885L180.0328125,58.46345400810242L180.258984375,57.16011934620994L180.48515625000002,41.01862317323685L180.71132812500002,71.96094131469727L180.9375,56.21795715604509L181.163671875,51.30013969966343L181.38984375,40.64924429144176L181.61601562500002,71.09191338505063L181.84218750000002,58.27044888905117L182.068359375,36.97311168909073L182.29453124999998,49.38405221700668L182.52070312499998,44.88138566698345L182.746875,50.54038739204407L182.973046875,60.6271128313882L183.19921875,49.4697636110442L183.42539062499998,35.96821454593112L183.65156249999998,70.91893823657718L183.877734375,57.20958387851715L184.10390625,57.06112999575478L184.330078125,66.39930875812259L184.55625,55.83382331473487L184.78242187499998,60.58587731633867L185.00859375,43.32761608702796L185.234765625,70.56226459571293L185.4609375,13.197468791689175L185.687109375,66.15642464160919L185.91328125,12.873507755143294L186.139453125,56.12398660182953L186.365625,43.424593397549216L186.591796875,52.8002473456519L186.81796875,70.8325486268316L187.044140625,66.27909125600542L187.2703125,66.32939979008266L187.496484375,69.85419232504708L187.72265625,39.989724729742306L187.948828125,55.480849717344555L188.175,59.05546849966049L188.40117187500002,72.9693124294281L188.62734375,45.96738233736585L188.853515625,45.645847805908744L189.0796875,37.76804832049777L189.305859375,70.08642845494407L189.53203125000002,35.665685125759666L189.75820312500002,38.80286231211255L189.984375,64.11064724411283L190.210546875,61.505168565682L190.43671875,57.44314629690987L190.66289062500002,57.32567933627537L190.88906250000002,42.95298480136054L191.115234375,67.54590776988438L191.34140624999998,57.48214370012283L191.56757812499998,63.43190403495515L191.79375,57.5696109192712L192.019921875,50.29544602121625L192.24609375,39.68669795138496L192.47226562499998,40.049068604196805L192.69843749999998,54.644398748874664L192.924609375,51.22512904235295L193.15078125,59.989454422678264L193.376953125,38.80963693346294L193.603125,46.111405210835585L193.82929687499998,60.42604448114122L194.05546875,36.48481145075391L194.281640625,69.98921753679004L194.5078125,63.320337550980696L194.733984375,32.30236067942212L194.96015625,58.903043287140974L195.186328125,69.25299931424004L195.4125,51.23498577730996L195.638671875,28.008094745022902L195.86484375,53.890124917030334L196.091015625,39.139882768903476L196.31718750000002,29.722179446901578L196.543359375,60.38227696078164L196.76953125,56.89936047792435L196.995703125,50.9844302875655L197.221875,51.470356770924155L197.44804687500002,25.890818340437733L197.67421875000002,67.3737992303712L197.900390625,70.02157596179417L198.1265625,48.16647416353226L198.352734375,54.785942367145L198.57890625000002,61.52121213504246L198.80507812500002,52.45940627370561L199.03125,69.2017035995211L199.25742187499998,56.28593697718212L199.48359374999998,44.71212563344409L199.709765625,43.274263117994565L199.9359375,40.397761906896335L200.162109375,67.75210041659219L200.38828124999998,60.668860776083804L200.61445312499998,26.442501604557037L200.840625,64.7701592700822L201.066796875,56.323555341788705L201.29296875,55.313955903053284L201.519140625,61.38846271378654L201.74531249999998,47.33160569838117L201.971484375,56.4450313108308L202.19765625,39.944985100201194L202.423828125,33.28113144636154L202.65,24.061037574495572L202.876171875,57.153050831386025L203.10234375,56.382854001862654L203.328515625,39.782868938786635L203.5546875,57.41657531261444L203.780859375,41.046090909412925L204.00703125,43.98234292439054L204.233203125,70.54934081860951L204.459375,66.15279241970607L204.685546875,39.75727006367276L204.91171875,56.665556916168754L205.137890625,47.26258594649178L205.36406250000002,46.502630174160004L205.590234375,53.75932724986757L205.81640625,41.26738515922L206.042578125,66.03674217632839L206.26875,47.64886747087749L206.49492187500002,48.69420887742723L206.72109375000002,47.45840189286639L206.947265625,70.61986771651677L207.1734375,56.47757812908718L207.399609375,29.24061615126473L207.62578125000002,66.7998252766473L207.85195312500002,51.01798689365387L208.078125,60.41587878125054L208.30429687499998,55.43129475627626L208.53046874999998,47.15028096096856L208.756640625,48.889610358646934L208.9828125,43.930971852370675L209.208984375,65.41830741507667L209.43515624999998,56.60040299381528L209.66132812499998,71.432339991842L209.8875,43.0666160753795L210.113671875,48.263639867305756L210.33984375,67.12320606197629L210.566015625,48.78008605752672L210.79218749999998,53.04151881592614L211.018359375,38.84148292882102L211.24453125,53.359722554683685L211.470703125,50.25249235970634L211.696875,56.626725299017764L211.923046875,55.57390091248921L212.14921875,31.77931318964275L212.375390625,61.231742135116036L212.6015625,63.65736554350171L212.827734375,35.97468773807796L213.05390625,56.08667720215661L213.28007812500002,54.770019369465956L213.50625,52.31777222667421L213.732421875,67.82752553905759L213.95859375,46.107366059507626L214.184765625,55.411392893110005L214.41093750000002,61.76787918806076L214.63710937500002,52.74788155726024L214.86328125,45.610640874930795L215.089453125,74.21068078279495L215.315625,63.37014119114194L215.54179687500002,51.96231183835438L215.76796875000002,51.60744677271161L215.994140625,74.69685594524655L216.22031249999998,57.48060641118458L216.44648437499998,53.691874929836814L216.67265625,48.29590786354882L216.898828125,68.69124077899116L217.125,66.28112590312958L217.35117187499998,55.45901870727539L217.57734374999998,46.45050552913119L217.803515625,41.630682706832886L218.0296875,67.93208379404885L218.255859375,54.15671644040516L218.48203125,55.857628686087466L218.70820312499998,48.04839680876049L218.934375,30.847648271492545L219.160546875,57.48343230996812L219.38671875,22.863760777882163L219.612890625,36.12868791818619L219.8390625,65.20151199613298L220.065234375,54.700532402311055L220.29140625,45.84534872429711L220.517578125,59.13120258705956L220.74375,62.95223220757076L220.969921875,60.32972277913774L221.19609375,54.58418826545987L221.422265625,43.24705159664154L221.6484375,45.400612541607444L221.874609375,68.58757174015045L222.10078125,74.14196999583926L222.32695312500002,46.61217708247048L222.553125,53.15589612722397L222.779296875,57.219191934381215L223.00546875,64.03750544786453L223.231640625,51.987955927848816L223.45781250000002,68.64919140509197L223.68398437500002,63.51635696206773L223.91015625,53.56030861820493L224.136328125,33.4320796557835L224.3625,58.79176316090992L224.58867187500002,46.28094406638826L224.81484375000002,67.05191051959991L225.041015625,61.86783311196736L225.26718749999998,43.9096457362175L225.49335937499998,45.477213237966794L225.71953125,53.53105491399765L225.945703125,43.538661743913394L226.171875,59.89946273394993L226.39804687499998,29.17904170070375L226.62421874999998,60.768935271671836L226.850390625,54.70630477155957L227.0765625,46.947758214814314L227.302734375,48.81756124326159L227.52890625,56.31422610793794L227.75507812499998,53.329353562423165L227.98125,72.41464501619339L228.207421875,49.36959115096501L228.43359375,56.830476369176594L228.659765625,60.5583342228617L228.8859375,63.28997609445027L229.112109375,48.64986864158084L229.33828125,55.04156186750957L229.564453125,67.839605314391L229.790625,34.70418625218528L230.016796875,55.356713635580874L230.24296875000002,64.80373848336083L230.469140625,62.04116997548512L230.6953125,67.74898816006524L230.921484375,58.457937853676924L231.14765625,34.049263485840385L231.37382812500002,40.98866864613126L231.60000000000002,59.716924743992934L231.826171875,61.60836285352707L232.05234375,39.48052037613732L232.278515625,67.07762996639524L232.50468750000002,62.76925714526857L232.73085937500002,57.810754282133914L232.95703125,55.32819843292236L233.18320312499998,57.38325984988893L233.40937499999998,62.78878222193036L233.635546875,45.053177705832894L233.86171875,61.782928041049416L234.087890625,62.03996425867081L234.31406249999998,60.60219217198235L234.54023437499998,70.58360578332629L234.76640625,46.4794804113252L234.992578125,74.18777969905308L235.21875,72.17284604481289L235.444921875,69.9619306581361L235.67109374999998,53.91068238871438L235.897265625,61.5392752800669L236.1234375,47.24108650854657L236.349609375,32.62421171154293L236.57578125,64.98137824875968L236.801953125,66.67705316202981L237.028125,39.71601194143295L237.254296875,40.037327936717446L237.48046875,63.04354264906475L237.706640625,69.39906437056405L237.9328125,45.27344709634781L238.158984375,66.81359305552074L238.38515625,49.72748558010373L238.611328125,52.25487148761749L238.8375,47.35021141597201L239.063671875,64.14932814666203L239.28984375000002,58.3887523157256L239.516015625,62.41605747597558L239.7421875,65.40481092248643L239.968359375,63.57555012192044L240.19453125,41.614511030060896L240.42070312500002,42.32643405880245L240.64687500000002,66.4093011362212L240.873046875,63.14283342872346L241.09921875,72.90036803483963L241.325390625,66.75050392321178L241.55156250000002,29.50440438304628L241.77773437500002,62.51274089302335L242.00390625,65.14245447942189L242.23007812499998,56.549913602215895L242.45624999999998,53.453934252262115L242.682421875,46.44298487050193L242.90859375,58.211436586720595L243.134765625,57.386771500110626L243.36093749999998,68.18606804098401L243.58710937499998,46.71513776268276L243.81328125,46.74780515262057L244.039453125,49.41982432774135L244.265625,64.22285426514489L244.491796875,66.97346356936863L244.71796874999998,56.689226644379744L244.944140625,61.91933982712882L245.1703125,60.44807142019272L245.396484375,49.190632632800515L245.62265625,53.85293608903885L245.848828125,32.49598372834069L246.075,61.31885517495019L246.301171875,51.203848140580305L246.52734375,44.304291921002516L246.753515625,48.96601512602399L246.9796875,50.20826515981129L247.20585937500002,42.370231722082394L247.43203125,55.99102618013109L247.658203125,53.34856213842119L247.884375,63.70636286054338L248.110546875,41.6679318206651L248.33671875000002,74.9832438315664L248.56289062500002,56.759120540959486L248.7890625,61.11196924107415L249.015234375,39.02202395030429L249.24140625,57.965590928282055L249.46757812500002,46.320039434092365L249.69375000000002,35.78364190884997L249.919921875,62.982458020959584L250.14609374999998,53.69821247884205L250.37226562499998,76.12695665870395L250.5984375,79.0689433642796L250.824609375,37.407998672553475L251.05078125,53.34682892050061L251.27695312499998,71.43889607701983L251.50312499999998,37.943412295409615L251.729296875,48.608505019119804L251.95546875,53.824827815805165L252.181640625,52.34718418121338L252.4078125,76.52461713552475L252.63398437499998,59.299799476351055L252.86015625,68.51574869666781L253.086328125,66.94058517898831L253.3125,64.61827663012913L253.538671875,52.19728343827384L253.76484375,66.11584473507745L253.991015625,53.572727501392365L254.2171875,55.25053519862038L254.443359375,63.45229572057724L254.66953125,58.71009091820035L254.895703125,61.95697326319558L255.121875,62.66876818452562L255.348046875,55.30596802915845L255.57421875,68.40996965340206L255.800390625,58.317923988614766L256.0265625,43.27464744022916L256.252734375,60.410731877599446L256.47890624999997,58.67291716166905L256.705078125,43.58392133883069L256.93125,53.14481860399246L257.157421875,76.79533070325851L257.38359375,69.59060002224786L257.609765625,53.8121451820646L257.8359375,37.786646502358565L258.062109375,56.400163573878146" style="fill: none;" fill="none"></path></g></g></g></g></g></g><g transform="translate(58, 177)" clip-path="url(#clip_1)"><clipPath id="clip_1"><rect width="271" height="23"></rect></clipPath><g><g><line x1="0" y1="0" x2="0" y2="5" style="visibility: inherit;" fill="rgb(0, 0, 0)" stroke="rgb(204, 204, 204)" stroke-width="1px"></line><line x1="22.6171875" y1="0" x2="22.6171875" y2="5" style="visibility: inherit;" fill="rgb(0, 0, 0)" stroke="rgb(204, 204, 204)" stroke-width="1px"></line><line x1="45.234375" y1="0" x2="45.234375" y2="5" style="visibility: inherit;" fill="rgb(0, 0, 0)" stroke="rgb(204, 204, 204)" stroke-width="1px"></line><line x1="67.8515625" y1="0" x2="67.8515625" y2="5" style="visibility: inherit;" fill="rgb(0, 0, 0)" stroke="rgb(204, 204, 204)" stroke-width="1px"></line><line x1="90.46875" y1="0" x2="90.46875" y2="5" style="visibility: inherit;" fill="rgb(0, 0, 0)" stroke="rgb(204, 204, 204)" stroke-width="1px"></line><line x1="113.0859375" y1="0" x2="113.0859375" y2="5" style="visibility: inherit;" fill="rgb(0, 0, 0)" stroke="rgb(204, 204, 204)" stroke-width="1px"></line><line x1="135.703125" y1="0" x2="135.703125" y2="5" style="visibility: inherit;" fill="rgb(0, 0, 0)" stroke="rgb(204, 204, 204)" stroke-width="1px"></line><line x1="158.3203125" y1="0" x2="158.3203125" y2="5" style="visibility: inherit;" fill="rgb(0, 0, 0)" stroke="rgb(204, 204, 204)" stroke-width="1px"></line><line x1="180.9375" y1="0" x2="180.9375" y2="5" style="visibility: inherit;" fill="rgb(0, 0, 0)" stroke="rgb(204, 204, 204)" stroke-width="1px"></line><line x1="203.5546875" y1="0" x2="203.5546875" y2="5" style="visibility: inherit;" fill="rgb(0, 0, 0)" stroke="rgb(204, 204, 204)" stroke-width="1px"></line><line x1="226.171875" y1="0" x2="226.171875" y2="5" style="visibility: inherit;" fill="rgb(0, 0, 0)" stroke="rgb(204, 204, 204)" stroke-width="1px"></line><line x1="248.7890625" y1="0" x2="248.7890625" y2="5" style="visibility: inherit;" fill="rgb(0, 0, 0)" stroke="rgb(204, 204, 204)" stroke-width="1px"></line><line x1="271.40625" y1="0" x2="271.40625" y2="5" style="visibility: inherit;" fill="rgb(0, 0, 0)" stroke="rgb(204, 204, 204)" stroke-width="1px"></line></g><g transform="translate(0, 8)"><text x="0" y="0" dx="0em" dy="0.95em" style="text-anchor: middle; visibility: hidden; font-family: &quot;Helvetica Neue&quot;, sans-serif; font-size: 12px; font-weight: 200;" fill="rgb(50, 49, 63)" stroke="none" stroke-width="1px">-100</text><text x="22.6171875" y="0" dx="0em" dy="0.95em" style="text-anchor: middle; visibility: inherit; font-family: &quot;Helvetica Neue&quot;, sans-serif; font-size: 12px; font-weight: 200;" fill="rgb(50, 49, 63)" stroke="none" stroke-width="1px">0</text><text x="45.234375" y="0" dx="0em" dy="0.95em" style="text-anchor: middle; visibility: hidden; font-family: &quot;Helvetica Neue&quot;, sans-serif; font-size: 12px; font-weight: 200;" fill="rgb(50, 49, 63)" stroke="none" stroke-width="1px">100</text><text x="67.8515625" y="0" dx="0em" dy="0.95em" style="text-anchor: middle; visibility: inherit; font-family: &quot;Helvetica Neue&quot;, sans-serif; font-size: 12px; font-weight: 200;" fill="rgb(50, 49, 63)" stroke="none" stroke-width="1px">200</text><text x="90.46875" y="0" dx="0em" dy="0.95em" style="text-anchor: middle; visibility: hidden; font-family: &quot;Helvetica Neue&quot;, sans-serif; font-size: 12px; font-weight: 200;" fill="rgb(50, 49, 63)" stroke="none" stroke-width="1px">300</text><text x="113.0859375" y="0" dx="0em" dy="0.95em" style="text-anchor: middle; visibility: inherit; font-family: &quot;Helvetica Neue&quot;, sans-serif; font-size: 12px; font-weight: 200;" fill="rgb(50, 49, 63)" stroke="none" stroke-width="1px">400</text><text x="135.703125" y="0" dx="0em" dy="0.95em" style="text-anchor: middle; visibility: hidden; font-family: &quot;Helvetica Neue&quot;, sans-serif; font-size: 12px; font-weight: 200;" fill="rgb(50, 49, 63)" stroke="none" stroke-width="1px">500</text><text x="158.3203125" y="0" dx="0em" dy="0.95em" style="text-anchor: middle; visibility: inherit; font-family: &quot;Helvetica Neue&quot;, sans-serif; font-size: 12px; font-weight: 200;" fill="rgb(50, 49, 63)" stroke="none" stroke-width="1px">600</text><text x="180.9375" y="0" dx="0em" dy="0.95em" style="text-anchor: middle; visibility: hidden; font-family: &quot;Helvetica Neue&quot;, sans-serif; font-size: 12px; font-weight: 200;" fill="rgb(50, 49, 63)" stroke="none" stroke-width="1px">700</text><text x="203.5546875" y="0" dx="0em" dy="0.95em" style="text-anchor: middle; visibility: inherit; font-family: &quot;Helvetica Neue&quot;, sans-serif; font-size: 12px; font-weight: 200;" fill="rgb(50, 49, 63)" stroke="none" stroke-width="1px">800</text><text x="226.171875" y="0" dx="0em" dy="0.95em" style="text-anchor: middle; visibility: hidden; font-family: &quot;Helvetica Neue&quot;, sans-serif; font-size: 12px; font-weight: 200;" fill="rgb(50, 49, 63)" stroke="none" stroke-width="1px">900</text><text x="248.7890625" y="0" dx="0em" dy="0.95em" style="text-anchor: middle; visibility: inherit; font-family: &quot;Helvetica Neue&quot;, sans-serif; font-size: 12px; font-weight: 200;" fill="rgb(50, 49, 63)" stroke="none" stroke-width="1px">1k</text><text x="271.40625" y="0" dx="0em" dy="0.95em" style="text-anchor: middle; visibility: hidden; font-family: &quot;Helvetica Neue&quot;, sans-serif; font-size: 12px; font-weight: 200;" fill="rgb(50, 49, 63)" stroke="none" stroke-width="1px">1.1k</text></g><line x1="0" y1="0" x2="271.40625" y2="0" fill="rgb(0, 0, 0)" stroke="rgb(204, 204, 204)" stroke-width="1px"></line></g></g></g></g></svg>