<svg viewBox="0 0 330 200" xmlns="http://www.w3.org/2000/svg"><g><g><g><g><g><line x1="39.15625" y1="177" x2="34.15625" y2="177" style="visibility: inherit;" fill="rgb(0, 0, 0)" stroke="rgb(204, 204, 204)" stroke-width="1px"></line><line x1="39.15625" y1="154.87500000000009" x2="34.15625" y2="154.87500000000009" style="visibility: inherit;" fill="rgb(0, 0, 0)" stroke="rgb(204, 204, 204)" stroke-width="1px"></line><line x1="39.15625" y1="132.75000000000006" x2="34.15625" y2="132.75000000000006" style="visibility: inherit;" fill="rgb(0, 0, 0)" stroke="rgb(204, 204, 204)" stroke-width="1px"></line><line x1="39.15625" y1="110.62500000000003" x2="34.15625" y2="110.62500000000003" style="visibility: inherit;" fill="rgb(0, 0, 0)" stroke="rgb(204, 204, 204)" stroke-width="1px"></line><line x1="39.15625" y1="88.5" x2="34.15625" y2="88.5" style="visibility: inherit;" fill="rgb(0, 0, 0)" stroke="rgb(204, 204, 204)" stroke-width="1px"></line><line x1="39.15625" y1="66.37499999999999" x2="34.15625" y2="66.37499999999999" style="visibility: inherit;" fill="rgb(0, 0, 0)" stroke="rgb(204, 204, 204)" stroke-width="1px"></line><line x1="39.15625" y1="44.25000000000006" x2="34.15625" y2="44.25000000000006" style="visibility: inherit;" fill="rgb(0, 0, 0)" stroke="rgb(204, 204, 204)" stroke-width="1px"></line><line x1="39.15625" y1="22.12500000000003" x2="34.15625" y2="22.12500000000003" style="visibility: inherit;" fill="rgb(0, 0, 0)" stroke="rgb(204, 204, 204)" stroke-width="1px"></line><line x1="39.15625" y1="0" x2="34.15625" y2="0" style="visibility: inherit;" fill="rgb(0, 0, 0)" stroke="rgb(204, 204, 204)" stroke-width="1px"></line></g><g transform="translate(29.15625, 0)"><text x="0" y="177" dx="0em" dy="0.3em" style="text-anchor: end; visibility: hidden; font-family: &quot;Helvetica Neue&quot;, sans-serif; font-size: 12px; font-weight: 200;" fill="rgb(50, 49, 63)" stroke="none" stroke-width="1px">3.2</text><text x="0" y="154.87500000000009" dx="0em" dy="0.3em" style="text-anchor: end; visibility: inherit; font-family: &quot;Helvetica Neue&quot;, sans-serif; font-size: 12px; font-weight: 200;" fill="rgb(50, 49, 63)" stroke="none" stroke-width="1px">3.3</text><text x="0" y="132.75000000000006" dx="0em" dy="0.3em" style="text-anchor: end; visibility: hidden; font-family: &quot;Helvetica Neue&quot;, sans-serif; font-size: 12px; font-weight: 200;" fill="rgb(50, 49, 63)" stroke="none" stroke-width="1px">3.4</text><text x="0" y="110.62500000000003" dx="0em" dy="0.3em" style="text-anchor: end; visibility: inherit; font-family: &quot;Helvetica Neue&quot;, sans-serif; font-size: 12px; font-weight: 200;" fill="rgb(50, 49, 63)" stroke="none" stroke-width="1px">3.5</text><text x="0" y="88.5" dx="0em" dy="0.3em" style="text-anchor: end; visibility: hidden; font-family: &quot;Helvetica Neue&quot;, sans-serif; font-size: 12px; font-weight: 200;" fill="rgb(50, 49, 63)" stroke="none" stroke-width="1px">3.6</text><text x="0" y="66.37499999999999" dx="0em" dy="0.3em" style="text-anchor: end; visibility: inherit; font-family: &quot;Helvetica Neue&quot;, sans-serif; font-size: 12px; font-weight: 200;" fill="rgb(50, 49, 63)" stroke="none" stroke-width="1px">3.7</text><text x="0" y="44.25000000000006" dx="0em" dy="0.3em" style="text-anchor: end; visibility: hidden; font-family: &quot;Helvetica Neue&quot;, sans-serif; font-size: 12px; font-weight: 200;" fill="rgb(50, 49, 63)" stroke="none" stroke-width="1px">3.8</text><text x="0" y="22.12500000000003" dx="0em" dy="0.3em" style="text-anchor: end; visibility: inherit; font-family: &quot;Helvetica Neue&quot;, sans-serif; font-size: 12px; font-weight: 200;" fill="rgb(50, 49, 63)" stroke="none" stroke-width="1px">3.9</text><text x="0" y="0" dx="0em" dy="0.3em" style="text-anchor: end; visibility: hidden; font-family: &quot;Helvetica Neue&quot;, sans-serif; font-size: 12px; font-weight: 200;" fill="rgb(50, 49, 63)" stroke="none" stroke-width="1px">4</text></g><line x1="39.15625" y1="0" x2="39.15625" y2="177" fill="rgb(0, 0, 0)" stroke="rgb(204, 204, 204)" stroke-width="1px"></line></g></g><g transform="translate(39, 0)" clip-path="url(#clip_0)"><clipPath id="clip_0"><rect width="290" height="177"></rect></clipPath><g><g><g><line x1="0" y1="0" x2="0" y2="177" fill="rgb(0, 0, 0)" stroke="rgb(60, 60, 60)" stroke-width="1px" opacity="0.25"></line><line x1="24.236979166666664" y1="0" x2="24.236979166666664" y2="177" fill="rgb(0, 0, 0)" stroke="rgb(60, 60, 60)" stroke-width="1px" opacity="0.25"></line><line x1="48.47395833333333" y1="0" x2="48.47395833333333" y2="177" fill="rgb(0, 0, 0)" stroke="rgb(60, 60, 60)" stroke-width="1px" opacity="0.25"></line><line x1="72.7109375" y1="0" x2="72.7109375" y2="177" fill="rgb(0, 0, 0)" stroke="rgb(60, 60, 60)" stroke-width="1px" opacity="0.25"></line><line x1="96.94791666666666" y1="0" x2="96.94791666666666" y2="177" fill="rgb(0, 0, 0)" stroke="rgb(60, 60, 60)" stroke-width="1px" opacity="0.25"></line><line x1="121.18489583333334" y1="0" x2="121.18489583333334" y2="177" fill="rgb(0, 0, 0)" stroke="rgb(60, 60, 60)" stroke-width="1px" opacity="0.25"></line><line x1="145.421875" y1="0" x2="145.421875" y2="177" fill="rgb(0, 0, 0)" stroke="rgb(60, 60, 60)" stroke-width="1px" opacity="0.25"></line><line x1="169.65885416666669" y1="0" x2="169.65885416666669" y2="177" fill="rgb(0, 0, 0)" stroke="rgb(60, 60, 60)" stroke-width="1px" opacity="0.25"></line><line x1="193.89583333333331" y1="0" x2="193.89583333333331" y2="177" fill="rgb(0, 0, 0)" stroke="rgb(60, 60, 60)" stroke-width="1px" opacity="0.25"></line><line x1="218.1328125" y1="0" x2="218.1328125" y2="177" fill="rgb(0, 0, 0)" stroke="rgb(60, 60, 60)" stroke-width="1px" opacity="0.25"></line><line x1="242.36979166666669" y1="0" x2="242.36979166666669" y2="177" fill="rgb(0, 0, 0)" stroke="rgb(60, 60, 60)" stroke-width="1px" opacity="0.25"></line><line x1="266.6067708333333" y1="0" x2="266.6067708333333" y2="177" fill="rgb(0, 0, 0)" stroke="rgb(60, 60, 60)" stroke-width="1px" opacity="0.25"></line><line x1="290.84375" y1="0" x2="290.84375" y2="177" fill="rgb(0, 0, 0)" stroke="rgb(60, 60, 60)" stroke-width="1px" opacity="0.25"></line></g><g><line x1="0" y1="177" x2="290.84375" y2="177" fill="rgb(0, 0, 0)" stroke="rgb(60, 60, 60)" stroke-width="1px" opacity="0.25"></line><line x1="0" y1="154.87500000000009" x2="290.84375" y2="154.87500000000009" fill="rgb(0, 0, 0)" stroke="rgb(60, 60, 60)" stroke-width="1px" opacity="0.25"></line><line x1="0" y1="132.75000000000006" x2="290.84375" y2="132.75000000000006" fill="rgb(0, 0, 0)" stroke="rgb(60, 60, 60)" stroke-width="1px" opacity="0.25"></line><line x1="0" y1="110.62500000000003" x2="290.84375" y2="110.62500000000003" fill="rgb(0, 0, 0)" stroke="rgb(60, 60, 60)" stroke-width="1px" opacity="0.25"></line><line x1="0" y1="88.5" x2="290.84375" y2="88.5" fill="rgb(0, 0, 0)" stroke="rgb(60, 60, 60)" stroke-width="1px" opacity="0.25"></line><line x1="0" y1="66.37499999999999" x2="290.84375" y2="66.37499999999999" fill="rgb(0, 0, 0)" stroke="rgb(60, 60, 60)" stroke-width="1px" opacity="0.25"></line><line x1="0" y1="44.25000000000006" x2="290.84375" y2="44.25000000000006" fill="rgb(0, 0, 0)" stroke="rgb(60, 60, 60)" stroke-width="1px" opacity="0.25"></line><line x1="0" y1="22.12500000000003" x2="290.84375" y2="22.12500000000003" fill="rgb(0, 0, 0)" stroke="rgb(60, 60, 60)" stroke-width="1px" opacity="0.25"></line><line x1="0" y1="0" x2="290.84375" y2="0" fill="rgb(0, 0, 0)" stroke="rgb(60, 60, 60)" stroke-width="1px" opacity="0.25"></line></g></g></g><g><g><line x1="0" y1="885.0000000000001" x2="290.84375" y2="885.0000000000001" fill="rgb(0, 0, 0)" stroke="rgb(153, 153, 153)" stroke-width="1.5px"></line></g></g><g><g><line x1="24.236979166666664" y1="0" x2="24.236979166666664" y2="177" fill="rgb(0, 0, 0)" stroke="rgb(153, 153, 153)" stroke-width="1.5px"></line></g></g><g><g><g><g><g><path stroke="rgb(0, 119, 187)" stroke-width="2px" d="M32.477552083333336,207.0025116205216L32.719921875000004,165.24425804615024L32.962291666666665,165.36199629306796L33.204661458333334,155.92157274484637L33.44703125,143.65026175975802L33.68940104166666,138.68874460458758L33.93177083333333,124.87006187438968L34.41651041666667,140.14564990997317L34.658880208333336,107.28697299957277L34.90125,80.57257622480394L35.143619791666666,64.10720944404603L35.385989583333334,87.0162132382393L35.628359375,73.51392567157747L35.87072916666667,35.52756875753403L36.11309895833333,28.294368088245392L36.35546875,15.484161972999573L36.59783854166666,32.3493218421936L36.84020833333334,26.696461737155914L37.082578125,42.55662649869919L37.324947916666666,12.138169705867767L37.567317708333334,49.961001276969924L37.8096875,11.052519679069519L38.052057291666664,24.278027415275574L38.29442708333333,23.715922236442566L38.536796875,19.801494777202606L38.77916666666667,12.05144852399826L39.02153645833333,26.503132581710815L39.263906250000005,27.049412727355957L39.506276041666666,-4.805007576942444L39.74864583333333,22.775229513645172L39.991015625,42.034505903720856L40.233385416666664,51.416640579700484L40.47575520833333,42.63110965490341L40.718125,20.638269782066345L40.96049479166667,10.324831902980804L41.20286458333333,23.90819638967514L41.445234375,25.212020874023438L41.68760416666667,21.94003701210022L41.929973958333335,22.54940629005432L42.172343749999996,17.899642288684845L42.41471354166667,38.85072022676468L42.65708333333333,17.664324045181274L42.899453125,26.159201860427856L43.14182291666667,19.47987735271454L43.38419270833334,37.05853521823883L43.6265625,19.969187378883362L43.868932291666674,41.912389397621155L44.111302083333335,38.442381620407104L44.353671874999996,25.19144833087921L44.596041666666665,10.579034686088562L44.83841145833333,35.86058020591736L45.08078125,24.64474618434906L45.32315104166666,43.56214910745621L45.56552083333334,27.91504204273224L45.807890625,54.76690560579301L46.05026041666667,32.6452499628067L46.292630208333335,37.569894790649414L46.535000000000004,11.656561195850372L46.777369791666665,7.604297697544098L47.019739583333326,15.995679795742035L47.262109375,39.0137180685997L47.50447916666666,43.85997623205185L47.74684895833333,17.59849190711975L47.98921875,32.54803150892258L48.23158854166667,33.06250333786011L48.47395833333333,-2.4511921405792236L48.716328125000004,15.167292058467865L48.958697916666665,24.720495343208313L49.20106770833333,24.516721665859222L49.4434375,47.76960343122485L49.68580729166667,-9.19740378856659L49.92817708333333,18.854050040245056L50.170546875,36.456603705883026L50.41291666666667,36.408179104328156L50.655286458333336,38.39875727891922L50.89765625,17.439872324466705L51.14002604166667,32.34562933444977L51.382395833333334,40.631089210510254L51.624765624999995,40.276555716991425L51.86713541666667,5.618783533573151L52.10950520833333,8.335414230823517L52.351875,41.30265086889267L52.59424479166667,41.87071681022644L52.836614583333336,38.16634029150009L53.078984375,44.14482682943344L53.321354166666666,-5.784999132156372L53.563723958333334,24.90337997674942L53.80609375,5.600531995296478L54.04846354166666,47.46671229600909L54.29083333333334,39.23901379108429L54.533203125,29.580521285533905L54.77557291666666,21.24547630548477L55.01794270833334,39.88789290189743L55.502682291666666,42.381232380867004L55.745052083333334,30.420777797698975L55.987421875,30.870208740234375L56.229791666666664,35.79311281442642L56.47216145833333,26.863521337509155L56.71453125,33.51958304643631L56.95690104166667,24.941149055957794L57.19927083333333,39.26465034484863L57.441640625000005,37.62839466333389L57.684010416666666,40.809859335422516L57.92638020833333,35.79400956630707L58.16875,29.449173510074615L58.411119791666664,25.555582344532013L58.65348958333333,29.477553069591522L58.895859375,41.0685458779335L59.13822916666667,54.99694883823396L59.38059895833333,42.569497525691986L59.62296875,37.24811911582947L59.86533854166667,21.30202442407608L60.107708333333335,32.74399816989899L60.350078124999996,55.66138923168184L60.59244791666667,35.266297459602356L60.83481770833333,55.00575810670854L61.31955729166667,28.977587521076202L61.56192708333334,39.92502897977829L61.804296875,35.14080494642258L62.046666666666674,55.40708094835283L62.289036458333335,38.715099692344666L62.531406249999996,33.41170907020569L62.773776041666665,36.19385540485382L63.01614583333333,42.32869327068329L63.258515625,51.39538228511812L63.50088541666666,48.168605268001585L63.74325520833334,51.71605020761491L63.985625,47.68404275178912L64.22799479166666,48.47307890653613L64.47036458333334,35.8063530921936L64.712734375,41.92779242992401L64.95510416666667,52.33317375183107L65.19747395833333,48.71773391962054L65.43984375000001,57.75166511535646L65.68221354166667,39.388824105262756L65.92458333333333,68.00744712352754L66.166953125,44.965302050113706L66.40932291666667,46.48772299289706L66.65169270833333,32.639763951301575L66.8940625,47.232607305049925L67.13643229166667,48.1066766381264L67.37880208333333,45.69900333881381L67.621171875,70.4420229792595L67.86354166666666,46.1685320734978L68.10591145833334,42.16121166944504L68.34828125,31.4222913980484L68.59065104166667,52.954622805118575L68.83302083333334,47.75161564350131L69.075390625,92.65182405710222L69.31776041666667,58.5842201113701L69.56013020833333,65.88894993066789L69.8025,52.441416978836074L70.04486979166667,42.83989459276199L70.28723958333333,63.39418619871141L70.52960937499999,30.32355934381485L70.77197916666667,54.57974821329118L71.01434895833333,36.76672160625458L71.25671875,33.610524237155914L71.74145833333334,49.54200714826585L71.983828125,64.04501706361772L72.22619791666666,41.06675237417221L72.46856770833334,44.206702709198L72.7109375,55.87481617927553L72.95330729166668,58.502246439456954L73.19567708333332,50.56193053722383L73.438046875,63.39539945125581L73.92278645833333,67.49703705310823L74.16515625,74.55305010080339L74.40752604166667,50.082432031631484L74.64989583333333,79.2010733485222L74.89226562500001,66.25556319952013L75.37700520833333,71.7211076617241L75.619375,59.13414001464845L75.86174479166665,70.07783621549608L76.10411458333333,41.43431514501572L76.346484375,51.47640645503999L76.58885416666666,58.32569181919099L76.83122395833333,75.12327879667284L77.07359375,66.00536942481996L77.31596354166666,56.75938278436662L77.55833333333334,42.15841591358185L77.800703125,48.58617514371875L78.04307291666666,65.2441853284836L78.28544270833333,64.29072707891466L78.77018229166666,58.061150014400496L79.01255208333333,59.733856022357955L79.25492187500001,72.41566836833955L79.49729166666665,67.02429056167604L79.73966145833333,47.49746561050418L79.98203125,64.10984694957735L80.22440104166667,58.46801161766054L80.46677083333333,49.949396252632155L80.709140625,60.01443386077882L80.95151041666666,73.44761878252031L81.19388020833334,67.14630156755449L81.43625,64.89165633916856L81.67861979166666,73.24236810207368L81.92098958333334,66.84947669506074L82.163359375,62.031017839908614L82.40572916666666,51.19166135787965L82.64809895833334,57.580543756485L82.89046875,68.59413385391237L83.13283854166667,59.21553343534471L83.37520833333333,57.6549741625786L83.617578125,58.349798619747176L83.85994791666667,84.14106845855714L84.10231770833335,76.26858919858934L84.34468749999999,49.92043644189836L84.58705729166667,62.65209764242174L84.82942708333334,68.9207097887993L85.07179687499999,49.328158199787154L85.31416666666667,64.51786905527116L85.55653645833334,61.101982891559615L85.79890625,80.92763721942903L86.04127604166666,62.456974983215346L86.28364583333334,71.12635016441347L86.526015625,76.8008378148079L86.76838541666667,58.82365286350252L87.01075520833334,55.402386188507094L87.253125,75.17402440309526L87.49549479166667,67.38578706979753L87.73786458333335,59.730796515941634L87.980234375,56.970224976539626L88.22260416666667,59.46398645639421L88.46497395833333,88.23722004890443L88.94971354166667,60.67797750234605L89.19208333333333,66.36586368083955L89.434453125,85.38533806800844L89.67682291666667,61.38620048761369L89.91919270833333,91.47159308195116L90.1615625,67.37376004457475L90.40393229166668,73.82061481475831L90.64630208333332,78.66951048374177L90.888671875,49.225295484066024L91.13104166666668,73.21298629045488L91.37341145833332,66.61152094602586L91.61578125,46.768353581428556L91.85815104166667,73.94800633192064L92.10052083333333,66.55080556869508L92.342890625,76.59331887960435L92.58526041666667,64.38309252262117L92.82763020833333,79.02831673622133L93.07000000000001,72.13651478290559L93.31236979166667,73.05647671222688L93.55473958333333,68.99487644433977L93.797109375,57.8440833091736L94.28184895833333,61.4687016606331L94.76658854166666,92.20603287220003L95.00895833333333,88.63611638545991L95.251328125,77.25686252117158L95.49369791666666,76.5151432156563L95.73606770833334,97.70317465066911L95.9784375,63.42973977327348L96.22080729166666,63.13818991184236L96.46317708333333,76.42499327659608L96.70554687500001,70.8077394962311L96.94791666666666,63.899954259395614L97.19028645833333,69.18229758739473L97.43265625000001,61.23591542243959L97.67502604166665,85.12881428003313L97.91739583333333,69.31396186351778L98.159765625,89.59358364343645L98.64450520833333,69.16420429944993L98.886875,76.48491740226747L99.12924479166666,87.11522519588472L99.37161458333334,84.81437087059022L99.613984375,89.38806921243669L100.09872395833334,54.52251434326173L100.34109375,81.05365723371507L100.58346354166666,89.0273639559746L100.82583333333334,108.56843143701555L101.068203125,85.90392440557481L101.31057291666667,75.85703283548357L101.55294270833333,89.82246637344362L101.7953125,65.69045126438142L102.03768229166667,71.7196834087372L102.28005208333335,68.64746421575548L102.52242187499999,71.54719054698946L102.76479166666667,76.59669488668443L103.00716145833334,73.68146002292634L103.24953124999999,85.99286109209062L103.49190104166667,57.167615890502944L103.73427083333334,84.54344630241395L103.976640625,68.21976631879808L104.21901041666666,104.37005013227464L104.46138020833334,73.97659689188005L104.70375,89.49135392904283L104.94611979166667,70.78801095485689L105.18848958333334,92.50892400741579L105.430859375,80.36463528871538L105.67322916666667,86.8375486135483L105.91559895833335,88.33807826042177L106.15796875,99.50543493032457L106.40033854166667,86.28741770982744L106.64270833333333,91.28575444221498L106.88507812499999,83.32565724849702L107.12744791666667,60.2415230870247L107.36981770833333,73.14620465040208L107.6121875,83.71305406093599L107.85455729166667,77.62548029422761L108.09692708333333,102.97866046428682L108.339296875,91.07280224561693L108.58166666666668,66.53239578008653L108.82403645833332,63.374721407890334L109.06640625,93.64758789539339L109.30877604166668,65.76989293098451L109.55114583333332,65.20747125148775L109.793515625,86.21546655893327L110.03588541666667,96.73067361116411L110.27825520833333,89.35014188289644L110.520625,68.44321578741075L110.76299479166667,66.54853731393816L111.00536458333333,85.68263769149782L111.24773437500001,94.9293100833893L111.49010416666667,77.0327800512314L111.73247395833333,97.94624716043474L111.97484375,66.55739933252336L112.21721354166665,83.61314535140993L112.45958333333333,76.53698176145555L112.701953125,83.18913996219636L112.94432291666666,57.50009983778001L113.18669270833333,98.82327049970628L113.4290625,78.23448032140733L113.91380208333334,77.1482500433922L114.156171875,80.60164153575899L114.39854166666666,86.41755223274232L114.64091145833333,88.45259875059129L114.88328125000001,81.65168523788454L115.12565104166666,76.88924700021745L115.36802083333333,88.27836513519289L115.61039062500001,112.41475850343707L115.85276041666665,88.15334737300874L116.09513020833333,83.37017834186555L116.3375,85.28506010770799L116.57986979166667,76.74766570329668L116.82223958333333,77.54867613315584L117.064609375,90.98681956529619L117.30697916666666,73.28662544488908L117.54934895833334,105.68553239107133L117.79171875,54.54456388950349L118.03408854166666,95.74055403470994L118.27645833333334,89.83607590198518L118.518828125,92.67223834991456L118.76119791666666,80.3809878230095L119.00356770833334,64.62521553039552L119.2459375,66.00035816431047L119.48830729166667,70.117504298687L119.973046875,89.76011574268342L120.21541666666667,80.16307711601259L120.45778645833335,72.33453869819643L120.70015624999999,79.70277965068819L120.94252604166667,75.33691674470903L121.18489583333334,83.39855790138246L121.42726562499999,119.40699666738513L121.66963541666667,92.08512961864473L121.91200520833334,96.59742683172227L122.154375,85.20182043313982L122.39674479166666,75.16716688871385L122.63911458333334,82.58288294076921L122.881484375,79.7464567422867L123.12385416666667,81.05022847652437L123.36622395833334,86.72624588012697L123.60859375,88.65573942661287L123.85096354166667,105.92016488313676L124.09333333333335,84.66920256614686L124.335703125,83.75530689954759L124.57807291666667,87.14972376823427L124.82044270833333,93.16249787807466L125.06281249999999,92.78781384229661L125.54755208333333,87.7336147427559L125.789921875,74.63824152946474L126.03229166666667,102.78707206249238L126.27466145833333,91.15794092416765L126.51703125,81.04711621999742L126.75940104166668,75.32568097114564L127.00177083333332,89.88734900951387L127.244140625,83.36849033832551L127.48651041666668,79.00093942880632L127.72888020833332,82.13962376117708L127.97125,90.73483228683473L128.21361979166667,81.3349735736847L128.45598958333332,106.73568159341814L128.94072916666667,86.9824004173279L129.42546875,89.8013135790825L129.66783854166667,78.09405952692033L129.91020833333334,103.83669376373292L130.152578125,88.89886468648912L130.39494791666667,89.19104754924776L130.63731770833334,95.49827277660371L130.87968750000002,120.20141333341601L131.12205729166666,97.63866126537324L131.36442708333334,85.18029838800432L131.60679687500001,96.2484320998192L131.84916666666666,94.37569767236711L132.09153645833334,97.94603615999223L132.33390625,104.70321983098985L132.57627604166666,68.63712519407274L132.81864583333333,91.84363961219789L133.061015625,96.13559961318971L133.30338541666666,85.38333356380464L133.54575520833333,72.81978696584703L133.788125,75.25562882423402L134.03049479166665,99.84351038932802L134.27286458333333,92.19484984874727L134.515234375,91.21786504983903L134.75760416666665,77.36800700426103L134.99997395833333,102.20692634582521L135.24234375,91.86373740434648L135.48471354166665,88.92924875020982L135.72708333333333,111.10703051090243L135.969453125,101.64244741201402L136.21182291666668,96.59399807453157L136.45419270833332,90.10800272226335L136.6965625,94.50730919837953L136.93893229166667,90.35851299762727L137.18130208333335,124.06535893678668L137.423671875,95.02520978450777L137.66604166666667,93.78579318523408L137.90841145833335,81.81700408458711L138.15078125,94.49058741331102L138.39315104166667,93.13580632209779L138.63552083333335,89.49683994054796L138.877890625,115.65060853958133L139.12026041666667,111.12412154674533L139.36263020833334,84.1683402657509L139.605,74.071441590786L139.84736979166667,87.5215592980385L140.08973958333334,87.49993175268175L140.332109375,93.76838564872743L140.57447916666666,95.73454052209856L140.81684895833334,72.51209557056428L141.05921874999999,87.44132637977602L141.30158854166666,88.54042768478395L141.54395833333334,102.97507345676424L141.78632812499998,103.53491038084032L142.02869791666666,106.07224345207216L142.27106770833333,102.93915063142778L142.5134375,100.49370825290681L142.75580729166666,98.79705369472505L142.99817708333333,121.5176868438721L143.240546875,80.9416687488556L143.48291666666668,106.94831728935243L143.72528645833333,102.80416309833528L144.21002604166668,95.13598501682283L144.45239583333333,108.54216188192369L144.694765625,111.24323129653934L144.93713541666668,81.81610733270647L145.17950520833332,102.29385852813722L145.421875,95.4877755045891L145.90661458333335,85.3381794691086L146.148984375,106.47404104471208L146.39135416666664,99.4962564110756L146.63372395833332,102.49388694763185L146.87609375,107.46537387371065L147.11846354166667,103.9545375108719L147.36083333333335,107.84411966800691L147.603203125,96.72471284866334L147.84557291666667,96.4184457063675L148.08794270833334,79.38928574323656L148.3303125,74.58121865987779L148.57268229166667,99.96784240007402L148.81505208333334,88.66697520017625L149.057421875,107.04258173704149L149.29979166666666,105.77837258577348L149.54216145833334,102.28220075368883L149.78453125000001,103.16059559583665L150.0269010416667,101.5822595357895L150.26927083333334,91.28749519586565L150.51164062499998,91.94935083389284L150.75401041666666,94.75201696157457L150.99638020833333,104.44437503814699L151.23875,71.99303448200227L151.48111979166669,124.63727563619616L152.45059895833333,98.75596135854722L152.69296875,106.47119253873826L152.93533854166668,101.30257844924928L153.17770833333333,95.86013853549959L153.420078125,106.55933797359468L153.66244791666665,94.70475286245347L153.90481770833333,98.3348572254181L154.1471875,90.69727420806886L154.38955729166668,95.32330065965654L154.63192708333332,88.68148148059846L154.874296875,105.74841052293779L155.11666666666667,99.54789876937868L155.35903645833335,87.90563285350801L155.60140625,96.1836549639702L155.84377604166667,81.92002505064012L156.08614583333332,102.40901201963426L156.328515625,111.65610641241076L156.57088541666667,108.17660361528398L156.81325520833335,116.70555800199512L157.05562500000002,90.1071059703827L157.2979947916667,114.88272517919543L157.54036458333331,106.3008624315262L157.782734375,103.51381033658983L158.02510416666667,106.44829899072649L158.26747395833334,95.77294260263444L158.75221354166666,98.97392481565477L158.9945833333333,97.0509195327759L159.23695312499999,104.96913313865663L159.47932291666666,101.58679604530336L159.72169270833334,95.5455368757248L159.9640625,119.12130206823352L160.20643229166666,106.4036723971367L160.44880208333333,98.21780472993852L160.691171875,101.91542923450471L160.93354166666666,96.14541113376619L161.17591145833333,113.81205618381503L161.41828125,74.6602910757065L161.66065104166665,110.67943811416629L161.90302083333333,96.68609976768495L162.145390625,87.17662632465364L162.38776041666668,91.28876119852067L162.63013020833336,108.38939756155015L162.8725,94.66540127992631L163.11486979166665,98.15408259630205L163.35723958333332,100.03974080085756L163.599609375,105.64486205577852L163.84197916666668,93.98044109344484L164.08434895833335,112.75789797306064L164.32671875,119.96947109699252L164.56908854166664,96.5576532483101L164.81145833333332,91.78144723176958L165.053828125,98.73053580522539L165.29619791666667,91.7652001976967L165.53856770833335,100.64452081918718L165.7809375,104.16701495647432L166.02330729166667,76.4135465025902L166.26567708333334,69.18973535299303L166.508046875,69.11340594291688L166.75041666666667,52.21105724573137L166.99278645833334,64.3616232275963L167.47752604166666,105.29259681701662L167.71989583333334,107.83557415008546L167.96226562500001,87.39706903696062L168.2046354166667,115.59780567884448L168.44700520833334,116.88190162181857L168.68937499999998,105.4682019352913L168.93174479166666,99.33848083019258L169.17411458333333,81.37685716152193L169.416484375,88.94781678915025L169.65885416666669,110.25390297174455L169.9012239583333,105.15106827020647L170.14359374999998,104.28422570228578L170.38596354166665,94.66271102428438L170.62833333333333,114.7905179858208L170.870703125,98.38048607110979L171.11307291666668,103.47783476114274L171.5978125,116.94942176342013L171.84018229166665,115.27017474174502L172.08255208333333,86.59421235322954L172.324921875,97.74205148220064L172.56729166666668,108.51061731576921L172.80966145833332,90.9464129805565L173.05203125,113.85942578315738L173.29440104166667,126.70639872550967L173.53677083333335,87.58401542901994L173.779140625,116.49360805749896L174.02151041666667,116.11971527338031L174.26388020833332,108.23990374803545L174.50625,110.67801386117938L174.74861979166667,102.86920398473741L174.99098958333335,103.65275412797929L175.23335937500002,91.38487190008165L175.4757291666667,108.79261940717699L175.71809895833331,103.68841320276262L175.96046875,120.32991260290149L176.20283854166667,127.29778021574023L176.44520833333334,96.72534584999086L176.68757812500002,106.00124180316926L176.92994791666666,91.95473134517671L177.1723177083333,100.33445566892625L177.41468749999999,110.12603670358659L177.65705729166666,110.2384999394417L177.89942708333334,102.86920398473741L178.141796875,108.07374089956285L178.38416666666666,118.22539418935779L178.62653645833333,99.54362601041795L178.86890625,111.99096411466601L179.11127604166666,103.59451800584795L179.35364583333333,115.98024398088458L179.596015625,107.12081015110017L179.83838541666665,121.86024606227878L180.08075520833333,108.63479107618333L180.323125,106.19077295064928L180.56549479166668,96.02113187313081L180.80786458333336,109.30540323257448L181.050234375,121.36703252792361L181.29260416666665,100.92583715915681L181.53497395833332,111.7020517587662L181.77734375,127.25452512502673L182.01971354166668,91.39943093061449L182.26208333333335,113.21170717477801L182.504453125,95.10349094867708L182.98919270833332,101.44864350557329L183.2315625,84.38746422529222L183.47393229166667,126.05588436126712L183.71630208333335,95.44858217239381L183.958671875,104.09390330314638L184.20104166666667,111.18135541677478L184.44341145833334,130.84712415933612L184.68578125,115.35911142826083L184.92815104166667,110.65601706504825L185.17052083333334,91.32505327463151L185.412890625,124.40127164125445L185.65526041666666,112.77477800846103L185.89763020833334,91.66465848684312L186.14000000000001,113.36294174194339L186.3823697916667,119.51450139284137L186.86710937499998,118.27529579401019L187.10947916666666,122.2835657000542L187.35184895833333,140.65764248371127L187.59421875,92.42373257875444L187.83658854166669,94.04189497232439L188.0789583333333,87.01241523027421L188.32132812499998,102.20914185047151L188.56369791666665,123.64757806062701L188.80606770833333,140.3476828336716L189.0484375,132.1420866250992L189.29080729166668,101.20646774768831L189.53317708333333,119.06886845827106L189.775546875,94.80402857065202L190.01791666666665,111.63611412048343L190.26028645833333,114.78988498449328L190.50265625,105.47004818916322L190.74502604166668,130.1582604646683L190.98739583333332,100.826033949852L191.229765625,100.43705463409425L191.47213541666667,101.03070437908174L191.71450520833335,104.88905847072603L191.956875,112.77425050735476L192.19924479166667,101.63553714752199L192.44161458333332,121.53804838657382L192.683984375,106.66109293699266L192.92635416666667,91.01351112127305L193.16872395833335,124.50708836317065L193.6534635416667,108.00495475530626L193.89583333333331,124.3732085824013L194.138203125,130.87956547737124L194.38057291666667,105.12796372175218L194.62294270833334,118.51567804813388L194.86531250000002,112.44957357645038L195.10768229166666,95.72857975959779L195.3500520833333,108.2068294286728L195.59242187499999,113.46237570047381L195.83479166666666,75.20873397588731L196.07716145833334,104.55794602632524L196.31953125,117.43873178958896L196.56190104166666,95.60298174619676L196.80427083333333,113.0288225412369L197.046640625,113.59477847814563L197.28901041666666,115.15349149703982L197.53138020833333,96.16640567779542L197.77375,99.12605613470079L198.01611979166665,98.93747448921205L198.25848958333333,100.03937155008317L198.500859375,122.63414293527606L198.74322916666668,115.03079473972323L198.98559895833336,116.71642452478412L199.22796875,131.55861765146258L199.47033854166665,113.39986681938174L199.71270833333332,125.0278374552727L199.955078125,102.20539659261705L200.19744791666668,90.68851768970491L200.43981770833335,101.87913715839387L200.6821875,112.4743661284447L200.92455729166664,110.44586062431337L201.16692708333332,110.9421864151955L201.409296875,117.24171012640002L201.65166666666667,117.61433690786365L201.89403645833335,104.28981721401216L202.13640625,128.1273812055588L202.37877604166667,103.78647565841676L202.62114583333334,101.42121344804765L202.863515625,101.68744325637819L203.10588541666667,109.79112625122072L203.34825520833334,105.93920767307283L203.590625,115.40574252605441L203.83299479166666,121.86425507068637L204.07536458333334,116.37703031301501L204.31773437500001,110.12751370668413L204.5601041666667,135.0313684344292L204.80247395833334,128.9978635311127L205.04484374999998,133.96597445011142L205.28721354166666,100.30887186527254L205.771953125,119.92922276258471L206.01432291666669,118.13323974609378L206.2566927083333,118.6378473043442L206.49906249999998,124.82480227947238L206.74143229166665,105.71296244859697L206.98380208333333,123.36700022220614L207.226171875,124.13767933845523L207.46854166666668,104.59946036338808L207.71091145833333,106.7981904745102L207.95328125,132.52658218145373L208.19565104166665,113.86253803968432L208.43802083333333,61.926045119762435L208.680390625,85.82548499107362L208.92276041666668,70.26995211839677L209.16513020833332,65.69662302732469L209.4075,100.93818068504335L209.64986979166667,113.30006361007693L209.89223958333335,113.71953248977664L210.134609375,125.54162353277209L210.37697916666667,96.39845341444017L210.61934895833332,124.49690759181979L210.86171875,133.85883897542956L211.10408854166667,103.5093265771866L211.34645833333335,108.87126982212068L211.58882812500002,132.38215237855914L211.8311979166667,128.12068194150928L212.07356770833331,111.5129426121712L212.3159375,102.07346856594087L212.80067708333334,104.57414031028749L213.04304687500002,96.30988597869874L213.28541666666666,111.54791593551639L213.5277864583333,114.10909205675128L213.77015624999999,91.47069633007051L214.01252604166666,111.55266344547275L214.25489583333334,118.23684096336368L214.497265625,128.41239005327228L214.73963541666666,123.39337527751925L214.98200520833333,123.45620065927508L215.224375,87.74827927351L215.46674479166666,113.09824168682101L215.70911458333333,122.28625595569613L215.951484375,108.0513221025467L216.19385416666665,86.68858230113985L216.43622395833333,130.23416787385943L216.67859375,114.14707213640216L216.92096354166668,110.45915365219118L217.16333333333336,99.06360000371934L217.405703125,125.14800220727923L217.64807291666665,92.8771197795868L217.89044270833332,103.01395028829576L218.1328125,125.2718594670296L218.37518229166668,117.43788778781894L218.61755208333335,100.68260639905931L218.859921875,135.48238188028338L219.10229166666664,96.23746007680894L219.34466145833332,102.22770988941194L219.58703125,109.0600097179413L219.82940104166667,121.94385498762134L220.07177083333335,104.96797263622285L220.314140625,111.6692411899567L220.79888020833334,127.35427558422091L221.04125,123.18575084209445L221.28361979166667,105.35368144512178L221.52598958333334,120.98158746957782L221.768359375,110.81843465566638L222.01072916666666,107.23881214857103L222.25309895833334,134.62899059057239L222.49546875000001,122.86207616329196L222.7378385416667,117.15810120105746L222.98020833333334,97.001228928566L223.22257812499998,112.78575003147128L223.46494791666666,102.14156895875932L223.70731770833333,116.9219917058945L223.9496875,109.20354276895524L224.19205729166669,111.50218158960345L224.4344270833333,106.79381221532823L224.67679687499998,118.69961768388751L224.91916666666665,107.35570639371873L225.16153645833333,119.09413576126101L225.40390625,122.27354317903522L225.64627604166668,124.93985027074817L225.88864583333333,120.01673519611361L226.131015625,131.69608443975451L226.37338541666665,113.44681441783908L226.61575520833333,93.31156969070436L226.858125,132.56551176309588L227.10049479166668,123.77850383520129L227.34286458333332,113.06226611137393L227.585234375,126.22679471969607L227.82760416666667,128.17823231220248L228.06997395833335,106.50199860334398L228.31234375,111.35490328073504L228.55471354166667,104.59481835365297L228.79708333333332,120.44195383787158L229.039453125,143.61386418342593L229.28182291666667,102.65799254179002L229.52419270833335,114.75459516048434L229.76656250000002,128.66379708051684L230.0089322916667,111.65288865566257L230.25130208333331,129.8659193515778L230.493671875,120.61333894729617L230.73604166666667,96.5703132748604L230.97841145833334,134.34224098920825L231.22078125000002,108.12264025211336L231.46315104166666,125.8315381407738L231.7055208333333,106.79291546344759L231.94789062499999,109.18940573930742L232.43263020833334,119.20095473527911L232.675,129.1099047660828L232.91736979166666,135.48739314079288L233.15973958333333,114.8120400309563L233.402109375,114.3873488903046L233.88684895833333,111.36513680219653L234.12921875,117.73518741130832L234.37158854166665,128.38765025138858L234.61395833333333,137.0015323162079L234.856328125,127.68654853105548L235.09869791666668,115.10031938552859L235.34106770833336,126.55384540557864L235.5834375,121.57813847064975L235.82580729166665,95.87591081857683L236.06817708333332,125.67539781332019L236.310546875,120.28375625610354L236.55291666666668,128.6325162649155L236.79528645833335,88.06994944810869L237.03765625,114.34968531131747L237.28002604166664,116.87140434980395L237.52239583333332,123.35687220096591L237.764765625,130.51827996969226L238.00713541666667,106.46185576915742L238.24950520833335,129.24821555614474L238.491875,123.97964000701907L238.73424479166667,126.30022287368777L238.97661458333334,122.57965207099917L239.218984375,140.67468076944354L239.46135416666667,118.10776144266131L239.70372395833334,114.3895643949509L239.94609375,125.85569769144061L240.18846354166666,116.22526824474338L240.43083333333334,121.79024666547778L240.67320312500001,111.77067965269092L240.9155729166667,109.8500481247902L241.15794270833334,117.96074688434604L241.40031249999998,124.4293347001076L241.64268229166666,103.37280929088594L241.88505208333333,134.41324263811114L242.127421875,116.33852273225787L242.36979166666669,99.6571969985962L242.6121614583333,118.29207032918933L242.85453124999998,114.39225465059283L243.09690104166665,108.44146192073823L243.33927083333333,142.86686986684802L243.581640625,120.46685189008716L243.82401041666668,119.84666883945468L244.06638020833333,145.55585950613025L244.30875,110.72564721107486L244.55111979166665,134.6040925383568L244.79348958333333,100.4132115840912L245.035859375,121.45401746034625L245.27822916666668,132.53866195678714L245.52059895833332,124.38375860452655L246.00533854166667,122.91920453310016L246.24770833333335,118.65398883819583L246.490078125,111.04045987129214L246.73244791666667,126.91217690706256L247.2171875,102.78184980154039L247.45955729166667,105.6645378470421L247.70192708333335,103.52879136800767L247.94429687500002,111.91806346178058L248.1866666666667,120.09886711835864L248.42903645833331,148.75699996948245L248.67140625,96.55343323946L248.91377604166667,129.10452425479892L249.15614583333334,122.89905399084094L249.64088541666666,123.74247550964358L249.8832552083333,121.31132841110232L250.12562499999999,123.60395371913913L250.36799479166666,118.21848392486575L250.61036458333334,89.27914023399354L250.852734375,131.07416063547137L251.09510416666666,114.52217817306521L251.33747395833333,141.06292158365252L251.57984375,136.0938084125519L251.82221354166666,124.81266975402835L252.306953125,124.99914139509204L252.54932291666665,121.34872823953631L252.79169270833333,120.44010758399966L253.0340625,122.3173785209656L253.27643229166668,118.60440373420718L253.761171875,130.76947599649432L254.00354166666665,121.60477727651599L254.24591145833332,120.97235620021823L254.73065104166668,127.39209741353991L254.97302083333335,124.95736330747607L255.215390625,127.51590192317965L255.45776041666664,135.368125140667L255.70013020833332,130.21422833204272L255.9425,136.67543113231662L256.1848697916667,128.33811789751056L256.42723958333335,100.4498201608658L256.669609375,130.7533344626427L256.91197916666664,116.51644885540011L257.15434895833334,135.98783344030383L257.39671875,105.19843786954881L257.6390885416667,100.3071838617325L257.88145833333334,129.44618672132495L258.123828125,124.7520071268082L258.36619791666664,108.06350737810136L258.60856770833334,137.9796248674393L258.8509375,129.20190095901492L259.0933072916667,116.48701429367068L259.33567708333334,105.75416028499605L259.578046875,116.79059118032458L259.8204166666667,123.0681708455086L260.06278645833333,130.8981862664223L260.30515625,122.31447726488116L260.5475260416667,116.1603328585625L260.78989583333333,125.64970850944522L261.032265625,137.7462583780289L261.2746354166667,115.64797103405002L261.51700520833333,121.77183687686923L261.75937500000003,140.5349984765053L262.0017447916667,119.33314651250842L262.2441145833333,128.32355886697772L262.486484375,101.92170649766923L262.7288541666667,136.5472483634949L262.9712239583333,126.47224098443988L263.21359375000003,111.55783295631412L263.4559635416667,111.05544090270999L263.6983333333333,136.62384152412417L263.94070312499997,105.4432511329651L264.1830729166667,134.6831122040749L264.4254427083333,118.46023768186572L264.6678125,119.60960984230044L264.9101822916667,100.01758575439455L265.1525520833333,114.25315260887149L265.63729166666667,137.09859251976016L265.8796614583333,144.22592371702197L266.36440104166667,124.88947391510013L266.6067708333333,114.79832500219348L266.849140625,113.37280601263049L267.09151041666667,113.12129348516467L267.3338802083333,129.2087057232857L267.57625,124.28954690694812L267.81861979166666,111.71624153852466L268.303359375,115.13254970312121L268.54572916666666,133.33455562591556L268.78809895833336,114.97809737920764L269.03046875,120.95125615596774L269.27283854166666,125.14399319887164L269.5152083333333,121.29750788211825L269.757578125,127.71740734577182L269.99994791666666,123.8911780714989L270.4846875,110.37881523370744L270.72705729166665,110.4815196990967L270.9694270833333,113.14814329147342L271.211796875,123.33904266357425L271.45416666666665,128.78127157688144L271.69653645833336,119.53945219516757L271.93890625,130.03255695104602L272.18127604166665,107.98427671194078L272.42364583333335,138.4234115481377L272.666015625,124.74372535943988L272.90838541666665,111.69129073619845L273.15075520833335,106.07155770063402L273.393125,133.89987856149676L273.63549479166664,102.42114454507829L273.87786458333335,108.4572869539261L274.120234375,82.45696842670442L274.3626041666667,100.44702440500261L274.60497395833335,88.37911784648897L274.84734375,100.38045376539232L275.08971354166664,119.5654579997063L275.33208333333334,131.6905984282494L275.574453125,114.14527863264087L275.8168229166667,116.39818310737613L276.05919270833334,95.59491097927095L276.3015625,135.54969102144244L276.54393229166664,119.28688466548923L276.78630208333334,129.78352367877963" style="fill: none;" fill="none"></path></g></g></g></g></g></g><g transform="translate(39, 177)" clip-path="url(#clip_1)"><clipPath id="clip_1"><rect width="290" height="23"></rect></clipPath><g><g><line x1="0" y1="0" x2="0" y2="5" style="visibility: inherit;" fill="rgb(0, 0, 0)" stroke="rgb(204, 204, 204)" stroke-width="1px"></line><line x1="24.236979166666664" y1="0" x2="24.236979166666664" y2="5" style="visibility: inherit;" fill="rgb(0, 0, 0)" stroke="rgb(204, 204, 204)" stroke-width="1px"></line><line x1="48.47395833333333" y1="0" x2="48.47395833333333" y2="5" style="visibility: inherit;" fill="rgb(0, 0, 0)" stroke="rgb(204, 204, 204)" stroke-width="1px"></line><line x1="72.7109375" y1="0" x2="72.7109375" y2="5" style="visibility: inherit;" fill="rgb(0, 0, 0)" stroke="rgb(204, 204, 204)" stroke-width="1px"></line><line x1="96.94791666666666" y1="0" x2="96.94791666666666" y2="5" style="visibility: inherit;" fill="rgb(0, 0, 0)" stroke="rgb(204, 204, 204)" stroke-width="1px"></line><line x1="121.18489583333334" y1="0" x2="121.18489583333334" y2="5" style="visibility: inherit;" fill="rgb(0, 0, 0)" stroke="rgb(204, 204, 204)" stroke-width="1px"></line><line x1="145.421875" y1="0" x2="145.421875" y2="5" style="visibility: inherit;" fill="rgb(0, 0, 0)" stroke="rgb(204, 204, 204)" stroke-width="1px"></line><line x1="169.65885416666669" y1="0" x2="169.65885416666669" y2="5" style="visibility: inherit;" fill="rgb(0, 0, 0)" stroke="rgb(204, 204, 204)" stroke-width="1px"></line><line x1="193.89583333333331" y1="0" x2="193.89583333333331" y2="5" style="visibility: inherit;" fill="rgb(0, 0, 0)" stroke="rgb(204, 204, 204)" stroke-width="1px"></line><line x1="218.1328125" y1="0" x2="218.1328125" y2="5" style="visibility: inherit;" fill="rgb(0, 0, 0)" stroke="rgb(204, 204, 204)" stroke-width="1px"></line><line x1="242.36979166666669" y1="0" x2="242.36979166666669" y2="5" style="visibility: inherit;" fill="rgb(0, 0, 0)" stroke="rgb(204, 204, 204)" stroke-width="1px"></line><line x1="266.6067708333333" y1="0" x2="266.6067708333333" y2="5" style="visibility: inherit;" fill="rgb(0, 0, 0)" stroke="rgb(204, 204, 204)" stroke-width="1px"></line><line x1="290.84375" y1="0" x2="290.84375" y2="5" style="visibility: inherit;" fill="rgb(0, 0, 0)" stroke="rgb(204, 204, 204)" stroke-width="1px"></line></g><g transform="translate(0, 8)"><text x="0" y="0" dx="0em" dy="0.95em" style="text-anchor: middle; visibility: hidden; font-family: &quot;Helvetica Neue&quot;, sans-serif; font-size: 12px; font-weight: 200;" fill="rgb(50, 49, 63)" stroke="none" stroke-width="1px">-100</text><text x="24.236979166666664" y="0" dx="0em" dy="0.95em" style="text-anchor: middle; visibility: inherit; font-family: &quot;Helvetica Neue&quot;, sans-serif; font-size: 12px; font-weight: 200;" fill="rgb(50, 49, 63)" stroke="none" stroke-width="1px">0</text><text x="48.47395833333333" y="0" dx="0em" dy="0.95em" style="text-anchor: middle; visibility: hidden; font-family: &quot;Helvetica Neue&quot;, sans-serif; font-size: 12px; font-weight: 200;" fill="rgb(50, 49, 63)" stroke="none" stroke-width="1px">100</text><text x="72.7109375" y="0" dx="0em" dy="0.95em" style="text-anchor: middle; visibility: inherit; font-family: &quot;Helvetica Neue&quot;, sans-serif; font-size: 12px; font-weight: 200;" fill="rgb(50, 49, 63)" stroke="none" stroke-width="1px">200</text><text x="96.94791666666666" y="0" dx="0em" dy="0.95em" style="text-anchor: middle; visibility: hidden; font-family: &quot;Helvetica Neue&quot;, sans-serif; font-size: 12px; font-weight: 200;" fill="rgb(50, 49, 63)" stroke="none" stroke-width="1px">300</text><text x="121.18489583333334" y="0" dx="0em" dy="0.95em" style="text-anchor: middle; visibility: inherit; font-family: &quot;Helvetica Neue&quot;, sans-serif; font-size: 12px; font-weight: 200;" fill="rgb(50, 49, 63)" stroke="none" stroke-width="1px">400</text><text x="145.421875" y="0" dx="0em" dy="0.95em" style="text-anchor: middle; visibility: hidden; font-family: &quot;Helvetica Neue&quot;, sans-serif; font-size: 12px; font-weight: 200;" fill="rgb(50, 49, 63)" stroke="none" stroke-width="1px">500</text><text x="169.65885416666669" y="0" dx="0em" dy="0.95em" style="text-anchor: middle; visibility: inherit; font-family: &quot;Helvetica Neue&quot;, sans-serif; font-size: 12px; font-weight: 200;" fill="rgb(50, 49, 63)" stroke="none" stroke-width="1px">600</text><text x="193.89583333333331" y="0" dx="0em" dy="0.95em" style="text-anchor: middle; visibility: hidden; font-family: &quot;Helvetica Neue&quot;, sans-serif; font-size: 12px; font-weight: 200;" fill="rgb(50, 49, 63)" stroke="none" stroke-width="1px">700</text><text x="218.1328125" y="0" dx="0em" dy="0.95em" style="text-anchor: middle; visibility: inherit; font-family: &quot;Helvetica Neue&quot;, sans-serif; font-size: 12px; font-weight: 200;" fill="rgb(50, 49, 63)" stroke="none" stroke-width="1px">800</text><text x="242.36979166666669" y="0" dx="0em" dy="0.95em" style="text-anchor: middle; visibility: hidden; font-family: &quot;Helvetica Neue&quot;, sans-serif; font-size: 12px; font-weight: 200;" fill="rgb(50, 49, 63)" stroke="none" stroke-width="1px">900</text><text x="266.6067708333333" y="0" dx="0em" dy="0.95em" style="text-anchor: middle; visibility: inherit; font-family: &quot;Helvetica Neue&quot;, sans-serif; font-size: 12px; font-weight: 200;" fill="rgb(50, 49, 63)" stroke="none" stroke-width="1px">1k</text><text x="290.84375" y="0" dx="0em" dy="0.95em" style="text-anchor: middle; visibility: hidden; font-family: &quot;Helvetica Neue&quot;, sans-serif; font-size: 12px; font-weight: 200;" fill="rgb(50, 49, 63)" stroke="none" stroke-width="1px">1.1k</text></g><line x1="0" y1="0" x2="290.84375" y2="0" fill="rgb(0, 0, 0)" stroke="rgb(204, 204, 204)" stroke-width="1px"></line></g></g></g></g></svg>