<svg viewBox="0 0 330 200" xmlns="http://www.w3.org/2000/svg"><g><g><g><g><g><line x1="58.59375" y1="177" x2="53.59375" y2="177" style="visibility: inherit;" fill="rgb(0, 0, 0)" stroke="rgb(204, 204, 204)" stroke-width="1px"></line><line x1="58.59375" y1="154.875" x2="53.59375" y2="154.875" style="visibility: inherit;" fill="rgb(0, 0, 0)" stroke="rgb(204, 204, 204)" stroke-width="1px"></line><line x1="58.59375" y1="132.75" x2="53.59375" y2="132.75" style="visibility: inherit;" fill="rgb(0, 0, 0)" stroke="rgb(204, 204, 204)" stroke-width="1px"></line><line x1="58.59375" y1="110.625" x2="53.59375" y2="110.625" style="visibility: inherit;" fill="rgb(0, 0, 0)" stroke="rgb(204, 204, 204)" stroke-width="1px"></line><line x1="58.59375" y1="88.5" x2="53.59375" y2="88.5" style="visibility: inherit;" fill="rgb(0, 0, 0)" stroke="rgb(204, 204, 204)" stroke-width="1px"></line><line x1="58.59375" y1="66.375" x2="53.59375" y2="66.375" style="visibility: inherit;" fill="rgb(0, 0, 0)" stroke="rgb(204, 204, 204)" stroke-width="1px"></line><line x1="58.59375" y1="44.25" x2="53.59375" y2="44.25" style="visibility: inherit;" fill="rgb(0, 0, 0)" stroke="rgb(204, 204, 204)" stroke-width="1px"></line><line x1="58.59375" y1="22.12500000000003" x2="53.59375" y2="22.12500000000003" style="visibility: inherit;" fill="rgb(0, 0, 0)" stroke="rgb(204, 204, 204)" stroke-width="1px"></line><line x1="58.59375" y1="0" x2="53.59375" y2="0" style="visibility: inherit;" fill="rgb(0, 0, 0)" stroke="rgb(204, 204, 204)" stroke-width="1px"></line></g><g transform="translate(48.59375, 0)"><text x="0" y="177" dx="0em" dy="0.3em" style="text-anchor: end; visibility: hidden; font-family: &quot;Helvetica Neue&quot;, sans-serif; font-size: 12px; font-weight: 200;" fill="rgb(50, 49, 63)" stroke="none" stroke-width="1px">-0.02</text><text x="0" y="154.875" dx="0em" dy="0.3em" style="text-anchor: end; visibility: inherit; font-family: &quot;Helvetica Neue&quot;, sans-serif; font-size: 12px; font-weight: 200;" fill="rgb(50, 49, 63)" stroke="none" stroke-width="1px">0</text><text x="0" y="132.75" dx="0em" dy="0.3em" style="text-anchor: end; visibility: hidden; font-family: &quot;Helvetica Neue&quot;, sans-serif; font-size: 12px; font-weight: 200;" fill="rgb(50, 49, 63)" stroke="none" stroke-width="1px">0.02</text><text x="0" y="110.625" dx="0em" dy="0.3em" style="text-anchor: end; visibility: inherit; font-family: &quot;Helvetica Neue&quot;, sans-serif; font-size: 12px; font-weight: 200;" fill="rgb(50, 49, 63)" stroke="none" stroke-width="1px">0.04</text><text x="0" y="88.5" dx="0em" dy="0.3em" style="text-anchor: end; visibility: hidden; font-family: &quot;Helvetica Neue&quot;, sans-serif; font-size: 12px; font-weight: 200;" fill="rgb(50, 49, 63)" stroke="none" stroke-width="1px">0.06</text><text x="0" y="66.375" dx="0em" dy="0.3em" style="text-anchor: end; visibility: inherit; font-family: &quot;Helvetica Neue&quot;, sans-serif; font-size: 12px; font-weight: 200;" fill="rgb(50, 49, 63)" stroke="none" stroke-width="1px">0.08</text><text x="0" y="44.25" dx="0em" dy="0.3em" style="text-anchor: end; visibility: hidden; font-family: &quot;Helvetica Neue&quot;, sans-serif; font-size: 12px; font-weight: 200;" fill="rgb(50, 49, 63)" stroke="none" stroke-width="1px">0.1</text><text x="0" y="22.12500000000003" dx="0em" dy="0.3em" style="text-anchor: end; visibility: inherit; font-family: &quot;Helvetica Neue&quot;, sans-serif; font-size: 12px; font-weight: 200;" fill="rgb(50, 49, 63)" stroke="none" stroke-width="1px">0.12</text><text x="0" y="0" dx="0em" dy="0.3em" style="text-anchor: end; visibility: hidden; font-family: &quot;Helvetica Neue&quot;, sans-serif; font-size: 12px; font-weight: 200;" fill="rgb(50, 49, 63)" stroke="none" stroke-width="1px">0.14</text></g><line x1="58.59375" y1="0" x2="58.59375" y2="177" fill="rgb(0, 0, 0)" stroke="rgb(204, 204, 204)" stroke-width="1px"></line></g></g><g transform="translate(58, 0)" clip-path="url(#clip_0)"><clipPath id="clip_0"><rect width="271" height="177"></rect></clipPath><g><g><g><line x1="0" y1="0" x2="0" y2="177" fill="rgb(0, 0, 0)" stroke="rgb(60, 60, 60)" stroke-width="1px" opacity="0.25"></line><line x1="22.6171875" y1="0" x2="22.6171875" y2="177" fill="rgb(0, 0, 0)" stroke="rgb(60, 60, 60)" stroke-width="1px" opacity="0.25"></line><line x1="45.234375" y1="0" x2="45.234375" y2="177" fill="rgb(0, 0, 0)" stroke="rgb(60, 60, 60)" stroke-width="1px" opacity="0.25"></line><line x1="67.8515625" y1="0" x2="67.8515625" y2="177" fill="rgb(0, 0, 0)" stroke="rgb(60, 60, 60)" stroke-width="1px" opacity="0.25"></line><line x1="90.46875" y1="0" x2="90.46875" y2="177" fill="rgb(0, 0, 0)" stroke="rgb(60, 60, 60)" stroke-width="1px" opacity="0.25"></line><line x1="113.0859375" y1="0" x2="113.0859375" y2="177" fill="rgb(0, 0, 0)" stroke="rgb(60, 60, 60)" stroke-width="1px" opacity="0.25"></line><line x1="135.703125" y1="0" x2="135.703125" y2="177" fill="rgb(0, 0, 0)" stroke="rgb(60, 60, 60)" stroke-width="1px" opacity="0.25"></line><line x1="158.3203125" y1="0" x2="158.3203125" y2="177" fill="rgb(0, 0, 0)" stroke="rgb(60, 60, 60)" stroke-width="1px" opacity="0.25"></line><line x1="180.9375" y1="0" x2="180.9375" y2="177" fill="rgb(0, 0, 0)" stroke="rgb(60, 60, 60)" stroke-width="1px" opacity="0.25"></line><line x1="203.5546875" y1="0" x2="203.5546875" y2="177" fill="rgb(0, 0, 0)" stroke="rgb(60, 60, 60)" stroke-width="1px" opacity="0.25"></line><line x1="226.171875" y1="0" x2="226.171875" y2="177" fill="rgb(0, 0, 0)" stroke="rgb(60, 60, 60)" stroke-width="1px" opacity="0.25"></line><line x1="248.7890625" y1="0" x2="248.7890625" y2="177" fill="rgb(0, 0, 0)" stroke="rgb(60, 60, 60)" stroke-width="1px" opacity="0.25"></line><line x1="271.40625" y1="0" x2="271.40625" y2="177" fill="rgb(0, 0, 0)" stroke="rgb(60, 60, 60)" stroke-width="1px" opacity="0.25"></line></g><g><line x1="0" y1="177" x2="271.40625" y2="177" fill="rgb(0, 0, 0)" stroke="rgb(60, 60, 60)" stroke-width="1px" opacity="0.25"></line><line x1="0" y1="154.875" x2="271.40625" y2="154.875" fill="rgb(0, 0, 0)" stroke="rgb(60, 60, 60)" stroke-width="1px" opacity="0.25"></line><line x1="0" y1="132.75" x2="271.40625" y2="132.75" fill="rgb(0, 0, 0)" stroke="rgb(60, 60, 60)" stroke-width="1px" opacity="0.25"></line><line x1="0" y1="110.625" x2="271.40625" y2="110.625" fill="rgb(0, 0, 0)" stroke="rgb(60, 60, 60)" stroke-width="1px" opacity="0.25"></line><line x1="0" y1="88.5" x2="271.40625" y2="88.5" fill="rgb(0, 0, 0)" stroke="rgb(60, 60, 60)" stroke-width="1px" opacity="0.25"></line><line x1="0" y1="66.375" x2="271.40625" y2="66.375" fill="rgb(0, 0, 0)" stroke="rgb(60, 60, 60)" stroke-width="1px" opacity="0.25"></line><line x1="0" y1="44.25" x2="271.40625" y2="44.25" fill="rgb(0, 0, 0)" stroke="rgb(60, 60, 60)" stroke-width="1px" opacity="0.25"></line><line x1="0" y1="22.12500000000003" x2="271.40625" y2="22.12500000000003" fill="rgb(0, 0, 0)" stroke="rgb(60, 60, 60)" stroke-width="1px" opacity="0.25"></line><line x1="0" y1="0" x2="271.40625" y2="0" fill="rgb(0, 0, 0)" stroke="rgb(60, 60, 60)" stroke-width="1px" opacity="0.25"></line></g></g></g><g><g><line x1="0" y1="154.875" x2="271.40625" y2="154.875" fill="rgb(0, 0, 0)" stroke="rgb(153, 153, 153)" stroke-width="1.5px"></line></g></g><g><g><line x1="22.6171875" y1="0" x2="22.6171875" y2="177" fill="rgb(0, 0, 0)" stroke="rgb(153, 153, 153)" stroke-width="1.5px"></line></g></g><g><g><g><g><g><path stroke="rgb(187, 187, 187)" stroke-width="2px" d="M28.0453125,-0.29576393589377403L28.271484375,6.021572828292875L28.49765625,12.48440099135044L28.723828125,19.0582681372762L28.950000000000003,25.603180417791037L29.176171874999998,31.779056221246748L29.40234375,36.79422353580597L29.628515625,40.70972413010895L29.8546875,45.72902078926563L30.080859375000003,51.04488021880388L30.307031249999998,55.279263474047184L30.533203125,58.295069720596075L30.759375,61.107309993356466L30.985546875,63.38499383255839L31.211718750000003,66.24320912361145L31.437890624999998,68.0594696123153L31.6640625,70.30053333565593L32.11640625,72.27077469415963L32.342578125,73.21590831689537L32.56875,75.77445352636278L32.794921875,75.74647124111652L33.02109375,77.12248260341585L33.247265625,77.39865415915847L33.4734375,78.25614017620683L33.699609375,79.84302010573447L33.92578125,80.89899489842355L34.151953125,82.02889402583241L34.378125000000004,81.78008658997715L34.604296875,82.34611176140606L34.83046875,83.30829850584269L35.056640625,83.34419330768287L35.2828125,84.99279910884798L35.508984375,85.47770450077951L35.735156249999996,85.3042967543006L35.961328125,86.64325528498739L36.1875,86.47107562702149L36.413671875,85.81486012972891L36.639843750000004,87.3370305094868L36.866015625,87.07883932348341L37.092187499999994,87.9964357400313L37.318359375,87.35877756681293L37.54453125,87.30907707195729L37.770703125,88.81140022259206L37.996875,89.75801332108676L38.223046875,90.4110473273322L38.44921875,90.00675069820136L38.675390625,90.02926428057253L38.901562500000004,90.45528324041516L39.127734375,91.63329623825848L39.353906249999994,92.02811021078378L39.580078125,92.65481449384242L39.80625,92.13633035961539L40.032421875,93.72503593750298L40.25859375,93.69818283431232L40.484765625,93.71270147804171L40.7109375,93.84648482501507L40.937109375000006,94.62009404506534L41.163281250000004,95.11491068825126L41.389453124999996,94.46096179727465L41.615624999999994,95.62421300634742L41.841796875,95.47470353264362L42.06796875,95.31325522530824L42.294140625,96.2700227200985L42.5203125,97.314845809713L42.746484375,96.88537336606532L42.97265625,96.9757779892534L43.198828125000006,96.99120739661157L43.425000000000004,97.16109572164714L43.651171874999996,97.7672604303807L43.877343749999994,98.24909972213209L44.103515625,97.40380392596126L44.3296875,98.26043275371194L44.555859375,98.24542369879782L44.78203125,99.03679074905813L45.008203125,98.12036472558975L45.234375,99.72778835054487L45.460546875000006,99.50608540512621L45.68671875,99.3879663683474L45.912890624999996,98.95053195487708L46.1390625,99.17293548770249L46.365234375,100.54313197452575L46.59140625,98.97203174605966L46.817578125,99.26233456190675L47.04375,98.95054019708186L47.269921875,99.17818577215075L47.49609375,99.61683591082692L47.722265625000006,100.13924333453178L47.9484375,99.8632737128064L48.174609374999996,99.32842468097806L48.40078125,99.9833131833002L48.626953125,99.61544709932059L48.853125,99.79263389669359L49.079296875000004,99.61371623631567L49.30546875,99.79596786852926L49.531640625,99.63353049661964L49.7578125,100.55027384497225L49.983984375,99.09353832900524L50.21015625,100.49914332758635L50.436328124999996,100.42152648512274L50.6625,99.11524417530745L50.888671875,100.0366320060566L51.11484375,100.77301530819386L51.341015625000004,99.72449971083552L51.5671875,100.25984327495098L51.793359375,99.9367364840582L52.01953125,100.56347373593599L52.245703125,100.62873963452876L52.471875,100.40364914294332L52.698046874999996,100.22194561734796L52.92421875,100.30845579877496L53.150390625,99.8892036890611L53.3765625,101.02031442057341L53.602734375000004,100.79936151579022L53.82890625,100.85220641177148L54.055078124999994,100.7736664423719L54.28125,100.43087314534932L54.507421875,100.4663764424622L54.73359375,100.69463194068521L54.959765625,100.50870428513736L55.1859375,99.89823714550585L55.412109375,100.64568560756743L55.63828125,100.41866231895983L55.864453125000004,101.12527065631002L56.090625,100.61391190811992L56.316796874999994,100.57563510909677L56.54296875,100.53808362409472L56.769140625,99.97667820844799L56.9953125,100.96632797922939L57.221484375,100.40800926927477L57.44765625,99.81175581179559L57.673828125,101.0551418568939L57.900000000000006,101.34541582502425L58.126171875000004,100.70078062545508L58.352343749999996,101.32938061561435L58.578515624999994,100.98615048173815L58.8046875,100.81542969401926L59.030859375,99.73934392165393L59.25703125,101.31204313784838L59.483203125,100.40745292045176L59.709375,100.0296591008082L59.935546875,100.91156264953315L60.161718750000006,100.04666689038277L60.387890625000004,99.30070614628494L60.614062499999996,99.76051814574748L60.840234374999994,99.87347756233066L61.06640625,100.81525660771877L61.292578125,99.77626487798989L61.51875,99.29081962164491L61.744921875,100.55429191980511L61.97109375,101.106379522942L62.197265625,100.957434640266L62.423437500000006,100.46401092968881L62.649609375,100.176135443151L62.875781249999996,100.38350931555033L63.101953125,99.6116762906313L63.328125,100.69111664034426L63.554296875,100.62629169970751L63.78046875,100.9007323924452L64.006640625,99.57586803194135L64.2328125,99.94994873832911L64.458984375,99.76559534389526L64.68515625,100.02668778598309L64.911328125,99.16846409160644L65.1375,100.39351535215974L65.36367187500001,100.09729463327676L65.58984375,100.06156055442989L65.81601562499999,101.16938705742359L66.0421875,100.25800938438624L66.268359375,100.23379378672689L66.49453125,100.88975377567112L66.946875,100.19805146567523L67.173046875,99.75746028777212L67.39921875,99.75851116888225L67.62539062500001,100.3955058446154L67.8515625,100.06780814565718L68.077734375,100.0525518245995L68.30390625,100.49462659936398L68.530078125,100.7159009501338L68.982421875,100.10811664815992L69.20859375,100.317996150814L69.43476562500001,100.56027576047927L69.6609375,99.55645763967186L69.88710937500001,100.28086089715362L70.11328125,101.46067069564015L70.33945312499999,100.77498519513756L70.565625,100.25041007157415L70.79179687499999,100.40099927410483L71.01796875,101.2249560020864L71.244140625,101.32728297449648L71.47031249999999,100.67371322494L71.696484375,101.5226273490116L71.92265625,100.40328236483037L72.148828125,101.05225708521903L72.375,101.35807173047215L72.601171875,101.10105505865067L72.82734375,99.7751933913678L73.053515625,100.75971238967031L73.505859375,100.2279953956604L73.73203125,100.00590918771923L73.95820312500001,99.44494060892612L74.18437499999999,100.17042771633714L74.410546875,100.50560933724046L74.63671875,100.20037164632231L74.86289062499999,101.30583263654262L75.0890625,100.54348638933152L75.315234375,100.85959142725915L75.54140625,100.90013895370066L75.767578125,100.88848859723657L75.99375,100.68611774314195L76.219921875,101.3988830074668L76.44609375,100.59042574558407L76.672265625,101.41849533375353L76.8984375,101.41518608853221L77.124609375,100.77180370409042L77.35078125,100.77939477469772L77.576953125,101.34793793968856L77.80312500000001,100.66751096583903L78.029296875,101.22483649011701L78.25546875,100.3580409027636L78.48164062500001,100.51679400913417L78.70781249999999,100.93717530090362L78.933984375,101.15657042898238L79.16015625,100.76863457635045L79.38632812499999,100.88974553346634L79.6125,100.99715794622898L79.838671875,99.81025160942227L80.06484375,100.40681827068329L80.291015625,100.56027576047927L80.5171875,101.38675048202276L80.743359375,101.55623906012625L80.96953125,100.85794298630208L81.19570312500001,100.80478076543659L81.421875,100.95531639363617L81.648046875,100.92476254049689L81.87421875000001,100.93221349362284L82.100390625,101.03970420733094L82.32656250000001,100.64663346111774L82.552734375,100.64014272484928L83.005078125,100.78371369000524L83.23124999999999,100.54944550339133L83.457421875,100.78881149366498L83.68359375,100.37280269153416L83.90976562499999,101.04199141915888L84.1359375,101.02187631838024L84.362109375,100.36911018379033L84.58828125,101.07126360945404L84.814453125,101.65206705406308L85.040625,100.97546446323395L85.266796875,101.33944434765726L85.49296875,102.02349789161235L85.71914062500001,100.71747109014541L85.9453125,100.98680161591619L86.171484375,101.81780542898923L86.39765625000001,101.72014354448766L86.623828125,101.67689669597894L86.85000000000001,102.38319595064968L87.076171875,101.77584436442703L87.30234374999999,101.28870945610106L87.528515625,102.20095256064087L87.980859375,101.33034083247185L88.43320312499999,101.28556917607784L88.659375,101.66671757306904L88.885546875,101.70621421840042L89.11171875,101.25136814732105L89.337890625,101.54677288793027L89.5640625,101.11727159656584L89.790234375,101.47181003540754L90.01640625,101.90321527607739L90.24257812500001,101.68131863884628L90.46875,101.93377325031906L90.694921875,101.83563331793994L90.92109375000001,101.35221564397216L91.14726562499999,102.28968813735992L91.3734375,101.6159455915913L91.599609375,100.81025771051645L92.051953125,102.10803818609565L92.278125,102.20801200903952L92.504296875,102.12589492276311L92.73046875,102.28811387624592L92.956640625,102.1215677652508L93.408984375,102.76114225108176L93.63515625,101.9856744138524L93.861328125,101.56781111564487L94.0875,102.83328214846551L94.313671875,102.11685322411358L94.53984375,102.29371857549995L94.76601562500001,102.57296447362751L94.9921875,102.40376437269151L95.218359375,102.92108223494142L95.44453125000001,102.06721866689622L95.67070312499999,102.49045588262379L95.896875,101.93570604734123L96.123046875,102.59072642493993L96.34921874999999,102.60354717448354L96.575390625,102.43850114475936L96.8015625,102.60585911292583L97.027734375,102.84173452947289L97.25390625,101.88139403890818L97.480078125,102.10145678557456L97.70625,102.47249199729413L97.932421875,102.12788953632116L98.15859375000001,101.52843810338527L98.384765625,101.85875270236284L98.6109375,102.7304070694372L98.83710937500001,101.17807022016495L99.06328125,101.80029898602515L99.28945312500001,102.9065800756216L99.515625,101.94967246335L99.74179687499999,102.19218697585166L99.96796875,102.76255166810006L100.19414062499999,101.40773513540626L100.4203125,102.87886154092848L100.646484375,101.75239941291511L100.87265624999999,103.17802472691983L101.098828125,102.70899382140487L101.325,102.39899625722319L101.551171875,102.92732570506632L101.77734375,102.33588569518179L102.003515625,103.90270409826189L102.2296875,103.01339492853731L102.455859375,102.8053328320384L102.68203125000001,103.19074244890362L102.908203125,103.41561040095985L103.134375,103.32285262830555L103.36054687500001,102.82750436291099L103.58671875,103.47011610120535L103.81289062500001,102.2930756835267L104.0390625,101.97317098919302L104.26523437499999,102.54583937767893L104.49140625,102.36507958453149L104.71757812499999,102.81226040516049L104.94375,102.52792494557798L105.169921875,102.95786307379603L105.39609374999999,102.77341077290475L105.622265625,102.42856516689062L105.8484375,101.96764871198684L106.30078125,102.73692253232002L106.526953125,102.31900978088379L106.753125,101.84111850522459L106.979296875,102.46439815219492L107.20546875000001,102.92958406917751L107.431640625,102.55691277980804L107.6578125,102.41596695687622L107.88398437500001,103.34317790530622L108.11015624999999,103.22012590896338L108.336328125,103.70622642058879L108.5625,102.9149047024548L108.78867187499999,102.84582678414881L109.01484375,102.21907304786146L109.241015625,102.15693918708712L109.4671875,102.35763275250793L109.693359375,101.36633454076946L109.91953125,103.39007605053484L110.145703125,102.60066240280867L110.371875,101.91109070274979L110.598046875,102.37180110253394L110.82421875,102.81949706096202L111.050390625,102.65701435692608L111.2765625,102.09636310301721L111.502734375,101.95719347521663L111.955078125,102.95891395490617L112.18125,102.18347908649594L112.40742187500001,102.22021871432662L112.63359374999999,101.9441007329151L112.859765625,102.51275516767055L113.0859375,102.08380610402673L113.31210937499999,101.82283729501069L113.53828125,102.65080797672272L113.764453125,102.43327146582305L113.990625,103.88369757402688L114.216796875,102.38697912264615L114.44296875,101.92792128492147L114.669140625,102.77731757797301L114.8953125,102.98322845902294L115.12148437500001,102.87616221886128L115.34765625,102.96458459179848L115.573828125,102.13164798170328L115.80000000000001,102.81352146249264L116.026171875,103.37899852730334L116.25234375000001,102.93427388370037L116.478515625,103.16796099487692L116.70468749999999,103.3615250531584L117.15703124999999,102.64392573572695L117.383203125,103.36860510706902L117.609375,102.41006553824991L117.83554687499999,103.8160785259679L118.06171875,102.93220096919686L118.287890625,103.26873431168497L118.5140625,103.48952237237245L118.740234375,103.89731369633228L118.96640625,102.92381864693016L119.192578125,102.86379479058087L119.41875,103.66047806292772L119.64492187500001,102.8237830074504L119.87109375,102.24885213375092L120.32343750000001,102.96503379195929L120.549609375,102.86945306416601L120.77578125000001,102.43035372532904L121.001953125,103.029207598418L121.22812499999999,102.22792929690331L121.454296875,102.03523067012429L121.68046874999999,102.2016078159213L121.906640625,102.3660810124129L122.1328125,102.52555943280458L122.35898437499999,102.65278198476881L122.58515625,102.57609651144594L122.811328125,102.51810847967863L123.0375,103.49180958420038L123.263671875,103.50906051881611L123.48984375,103.00559368170798L123.716015625,102.69971309881657L123.9421875,103.01152806915343L124.16835937500001,102.64391337241977L124.39453125,102.28420707117766L124.620703125,102.41786266397685L124.84687500000001,103.12008202727884L125.07304687499999,102.4091671379283L125.29921875,102.23690093681216L125.525390625,102.03495043516159L125.75156249999999,102.29281193297356L125.977734375,101.45947145484388L126.20390625,102.43500232882798L126.430078125,102.25567667931318L126.65625,102.6199903730303L126.882421875,102.00593375321478L127.10859375,102.80745107866824L127.334765625,102.55088360700756L127.5609375,101.72648592106998L127.787109375,101.41728785075247L128.01328125,101.49156247917563L128.23945312499998,102.10406132228673L128.465625,102.30571510456502L128.691796875,102.74000511690974L128.91796875,101.9008456422016L129.144140625,102.14632734842598L129.3703125,102.5484974887222L129.596484375,102.38506281003356L129.82265625,102.22341256868094L130.048828125,102.70468726940453L130.275,102.40336050465703L130.501171875,101.83472255431116L130.72734375000002,103.13991277199239L130.953515625,103.39694592822343L131.1796875,102.74702335428447L131.405859375,103.01522469799966L131.63203124999998,102.32292482815683L131.858203125,101.9601318212226L132.084375,101.01278928760439L132.310546875,103.03163080662489L132.53671875,101.66239041555673L132.762890625,102.5612729061395L132.9890625,101.97610109299421L133.215234375,102.94622508063912L133.44140625,102.0053032245487L133.667578125,102.73100875038654L133.89375,102.21177457552403L134.119921875,102.56958104856312L134.572265625,102.82979569584131L134.7984375,101.61171321943402L135.024609375,103.29328783974051L135.25078125000002,102.93104293942451L135.476953125,103.55509323254228L135.703125,102.68434962909669L136.15546875,102.52590972650796L136.381640625,102.51206282246858L136.6078125,102.23168774228543L136.833984375,102.25265591125935L137.06015625,102.27448126953095L137.286328125,103.24103226140141L137.51250000000002,102.27286991849542L137.738671875,103.56842499878258L137.96484375,102.81687191873789L138.191015625,102.73088923841715L138.4171875,102.59005056414753L138.64335937500002,103.3078683000058L138.86953125000002,103.79425728879869L139.095703125,102.47465145494789L139.321875,103.30067285522819L139.548046875,101.91135033220053L139.77421875000002,101.7321524368599L140.00039062500002,101.98866221308708L140.2265625,103.34199927002192L140.45273437499998,102.47973689530045L140.67890624999998,102.39244370441884L140.905078125,103.94495776109397L141.13125,101.72170956339687L141.357421875,102.5150877116248L142.262109375,102.12979760672897L142.48828125,101.86121712159365L142.714453125,103.02468674909323L142.94062499999998,102.1255611134693L143.166796875,102.74110957235098L143.39296875,102.71776764839888L143.619140625,103.03452382050455L143.8453125,102.30957657750696L144.071484375,102.57585748750716L144.29765625,101.86925327125937L144.523828125,102.08875142689794L144.75,102.53553662169725L144.976171875,101.89195230323821L145.20234375,101.51560911163688L145.42851562500002,102.54851397313178L145.6546875,102.48203234933317L145.880859375,102.07909156288952L146.10703125,102.26674183923751L146.333203125,102.56855901516974L146.55937500000002,102.44114277139306L146.78554687500002,102.77875172160566L147.01171875,102.36423475854099L147.237890625,102.65015684254467L147.4640625,102.31988345459104L147.69023437500002,102.25541704986244L147.91640625000002,101.91971204895526L148.142578125,102.42819426767528L148.36874999999998,103.21422036923468L148.59492187499998,102.61961123161018L148.82109375,102.86880192998797L149.047265625,102.34737120755017L149.2734375,102.0243674442172L149.49960937499998,102.25023270305246L149.72578124999998,102.9174391804263L149.951953125,102.5509206969291L150.178125,102.35834570322186L150.404296875,102.38001445960253L150.63046875,103.4253691714257L150.85664062499998,101.54245397262275L151.0828125,102.2929067183286L151.308984375,102.72634778358042L151.53515625,102.24345348961651L151.761328125,102.10009682178497L151.9875,102.46011632680893L152.213671875,103.4874123679474L152.43984375,103.82863964606076L152.666015625,102.61931039113551L152.8921875,102.83035204466432L153.118359375,102.633998000063L153.34453125,102.04819565825164L153.570703125,102.88821644335985L153.796875,102.66587472707033L154.023046875,102.04913526959717L154.24921875,102.56923487596214L154.47539062500002,102.00986940599978L154.7015625,102.77353028487414L154.927734375,101.87403375003487L155.15390625,101.7546536559239L155.380078125,103.23554295301437L155.60625000000002,101.88713061343879L155.83242187500002,101.60498758032918L156.284765625,102.96245810296386L156.5109375,102.09762003924698L156.73710937500002,103.07897403091192L156.96328125000002,102.27596486639231L157.189453125,102.06362506560981L157.41562499999998,101.75989569816738L157.64179687499998,102.12577953189611L157.86796875,103.01194842159748L158.094140625,102.83994184993207L158.3203125,102.9028175091371L158.54648437499998,102.18109296821058L158.77265624999998,102.28748746868223L158.998828125,102.60552942473441L159.225,102.35711761470884L159.451171875,102.2498741671443L159.67734375,102.40183981787413L160.1296875,102.92872687987983L160.355859375,101.91655116342008L160.58203125,102.74422512575984L160.808203125,102.7674186900258L161.034375,102.66884604189545L161.260546875,102.8791335336864L161.48671875,101.81188752595335L161.712890625,102.22329717781395L161.9390625,102.99127285089344L162.165234375,103.34863836597651L162.39140625000002,101.71422564145178L162.617578125,103.33194378018379L162.84375,101.92453785985708L163.069921875,102.53386757522821L163.29609375,104.14703189581633L163.52226562500002,102.17361316736788L163.74843750000002,102.13120290264487L163.974609375,102.81980202253908L164.20078125,102.14392886683345L164.426953125,102.26170585211366L164.65312500000002,103.10910753160715L164.87929687500002,102.56124405842274L165.10546875,102.41273601260036L165.33164062499998,102.23999588470906L165.55781249999998,102.94981456082314L165.783984375,102.7086394065991L166.01015625,102.95457443408668L166.236328125,102.54762793611735L166.46249999999998,102.97823780402541L166.68867187499998,102.4846039172262L166.91484375,102.64300672989339L167.141015625,102.46057376917452L167.3671875,102.82404263690114L167.593359375,102.79092957917601L167.81953124999998,102.02171757537872L168.045703125,101.75429924111813L168.271875,103.17614962533116L168.498046875,103.44431387912482L168.72421875,103.25162349455059L168.950390625,103.64261720515788L169.1765625,103.28884117025882L169.402734375,102.96582092251629L169.62890625,103.15462922863662L169.855078125,102.27315427456051L170.08125,102.54424451105297L170.307421875,103.23144657723606L170.759765625,102.28222894202918L170.9859375,103.14826212543994L171.212109375,101.82427555974573L171.43828125000002,101.90125775244087L171.664453125,102.20750923454762L171.890625,101.98224565666169L172.116796875,101.31503505818546L172.34296875,102.49594519101083L172.56914062500002,102.30318886879832L172.79531250000002,102.45848437026143L173.021484375,102.54055612441152L173.24765625,102.45283433888108L173.473828125,102.87538333050907L173.70000000000002,102.35902156401426L173.92617187500002,103.02090357709676L174.15234375,102.75413225591183L174.37851562499998,103.3144455794245L174.60468749999998,103.32584042754024L174.830859375,102.5911385351792L175.05703125,104.00212981458753L175.283203125,103.27354775927961L175.50937499999998,103.22408628836274L175.73554687499998,102.6859197691083L175.96171875,101.97004719357938L176.187890625,101.63301107659936L176.4140625,102.38319595064968L176.640234375,101.99638928007334L176.86640624999998,102.16507836431265L177.092578125,102.37781379092485L177.31875,101.86447279248387L177.544921875,103.30799193307757L177.77109375,102.54071272630244L177.997265625,101.76919702626765L178.2234375,102.57845790311694L178.449609375,102.95592615567148L178.67578125,103.03965459298342L178.901953125,103.14971275348216L179.128125,103.04935566801578L179.35429687500002,102.2001489456743L179.58046875,103.11149364989251L179.806640625,103.15124168246984L180.0328125,102.67161954380572L180.258984375,102.60320924408734L180.48515625000002,101.97788140922785L180.71132812500002,102.16207408066839L180.9375,102.46847804356366L181.163671875,102.43019712343812L181.38984375,102.21503436751664L181.61601562500002,102.64959225151688L181.84218750000002,102.33642143849283L182.068359375,103.14847230166197L182.29453124999998,103.51810221746564L182.52070312499998,102.40634830389172L182.746875,103.23298374842852L182.973046875,103.01118601765484L183.19921875,102.10802994389087L183.42539062499998,102.64607283007354L183.65156249999998,103.19999020267278L183.877734375,103.41846632491797L184.10390625,103.02022359520197L184.330078125,103.20550423767418L184.55625,103.19727027509362L184.78242187499998,102.60146601777524L185.00859375,102.64856197591871L185.234765625,102.6732638636604L185.4609375,102.87239553127438L185.687109375,102.22223393339664L185.91328125,103.07188573479652L186.139453125,102.11975035909563L186.365625,101.91014697030187L186.591796875,102.46291867643595L186.81796875,103.2202248154208L187.044140625,102.94874719530344L187.2703125,102.44039685185999L187.496484375,101.85060940403491L187.72265625,102.47956793010235L187.948828125,102.64268528390676L188.175,103.49363935366273L188.40117187500002,103.49591420218349L188.62734375,102.24890570808202L188.853515625,103.1543036615476L189.0796875,102.85510338563472L189.305859375,103.05419796332717L189.53203125000002,102.92077727336437L189.75820312500002,102.15102952625602L189.984375,102.5118237985298L190.210546875,102.52142184600234L190.43671875,102.76483063772321L190.66289062500002,101.92129867337644L190.88906250000002,102.64917602017522L191.115234375,102.9919157428667L191.34140624999998,103.12081146240234L191.56757812499998,102.92603992111981L191.79375,102.57987556234002L192.019921875,102.664485915564L192.24609375,101.90741880051792L192.47226562499998,102.60615995340049L192.69843749999998,102.87365246750414L192.924609375,103.21302112843841L193.15078125,102.62568161543459L193.376953125,102.17937034741044L193.603125,103.42949851602316L193.82929687499998,103.21592650562525L194.05546875,102.92904420476407L194.281640625,102.96805868111551L194.5078125,104.49844653904438L194.733984375,103.327999885194L194.96015625,102.7566790971905L195.186328125,102.60620528552681L195.4125,102.82251370791346L195.638671875,102.74436936434358L195.86484375,102.6151027455926L196.091015625,101.9794268226251L196.31718750000002,102.74921578075737L196.543359375,103.01641157548875L196.76953125,103.23628063034266L196.995703125,103.3121954575181L197.221875,103.32753007952124L197.44804687500002,102.83115978073329L197.67421875000002,103.24063663557172L197.900390625,103.25033771060407L198.1265625,102.65832898858935L198.57890625000002,102.78899266105145L198.80507812500002,103.06646648515016L199.03125,103.41275035589933L199.25742187499998,103.02328557427973L199.48359374999998,103.19878684077412L199.709765625,103.29566571582109L199.9359375,103.39500901009887L200.162109375,102.92395464330912L200.38828124999998,103.77944192569703L200.61445312499998,102.76527571678162L200.840625,103.00714321620762L201.066796875,103.14372067060322L201.29296875,102.46172355674207L201.519140625,104.18837067391723L201.74531249999998,101.8709758920595L201.971484375,102.25498021300882L202.19765625,103.06782232783735L202.423828125,103.117176650092L202.65,102.64356719981879L202.876171875,103.05601124837995L203.10234375,102.69121950678527L203.328515625,103.53736837115139L203.5546875,103.13354154769331L203.780859375,102.78796238545328L204.00703125,103.06588540971279L204.233203125,102.350276584737L204.459375,103.61885492876172L204.685546875,103.39013786707073L204.91171875,103.19253512844443L205.137890625,102.2938009975478L205.36406250000002,102.91124516353011L205.590234375,102.42920805886388L206.042578125,102.10197192337364L206.26875,102.60635776631534L206.49492187500002,102.6764123858884L206.72109375000002,102.83420939650387L206.947265625,102.2866632482037L207.1734375,102.47714060079306L207.399609375,102.39373360946774L207.62578125000002,102.245431618765L207.85195312500002,102.14504980668426L208.078125,102.52612402383238L208.30429687499998,102.48537044227123L208.53046874999998,102.47395498864353L208.756640625,102.47527786251158L208.9828125,102.27734955679625L209.208984375,101.5015932423994L209.43515624999998,103.30165367759764L209.66132812499998,102.69477189704776L209.8875,102.75490290205926L210.113671875,102.70260199159384L210.33984375,103.00499200075865L210.566015625,102.5827026385814L210.79218749999998,102.68117638025433L211.018359375,103.02077582292259L211.24453125,102.31530078873038L211.470703125,104.39692318160087L211.696875,103.09829375892878L211.923046875,103.56296453811228L212.14921875,102.94873071089387L212.375390625,102.3303634179756L212.6015625,103.49437703099102L212.827734375,102.37462405767292L213.05390625,103.53621034137905L213.28007812500002,102.59557284135371L213.50625,102.33704784605652L213.732421875,102.9565360788256L213.95859375,102.82397257816046L214.184765625,102.38799703493714L214.41093750000002,102.51123860199004L214.63710937500002,102.47910224553198L214.86328125,103.43877923861146L215.089453125,103.27369611896574L215.315625,103.61463904101402L215.54179687500002,103.35063297953457L215.76796875000002,103.19894344266504L215.994140625,103.45579114928842L216.22031249999998,102.48879919946194L216.44648437499998,103.50893276464194L216.898828125,102.39173899590969L217.125,102.44741096813232L217.35117187499998,102.66174538247287L217.57734374999998,102.4266076432541L217.803515625,103.05357567686588L218.255859375,103.310567622073L218.48203125,102.50910799205303L218.70820312499998,102.53512039035559L218.934375,102.22629321925342L219.160546875,101.98153682705015L219.38671875,102.85908849164844L219.612890625,102.94592011906207L219.8390625,103.4635594272986L220.065234375,102.57871341146529L220.29140625,103.08492902386934L220.517578125,102.23857410438359L220.74375,102.60451975464821L220.969921875,103.75361085589975L221.19609375,102.08948498312384L221.422265625,102.82111665420234L221.6484375,102.96420957148075L221.874609375,103.00026921741664L222.10078125,102.96715615969151L222.32695312500002,102.66110661160201L222.553125,102.0962023800239L222.779296875,102.23391313757747L223.00546875,102.56654379609972L223.231640625,102.41574029624462L223.45781250000002,102.89635974168777L223.68398437500002,103.21133147645742L223.91015625,102.30309820454568L224.136328125,103.35775012336671L224.3625,103.309549709782L224.58867187500002,103.76800998765975L224.81484375000002,103.0825305422768L225.041015625,103.304942317307L225.26718749999998,103.56661583483219L225.49335937499998,103.39687174838036L225.71953125,102.5337645476684L225.945703125,103.00885347370058L226.171875,103.05878475029022L226.39804687499998,103.04502438940108L226.62421874999998,103.78447791282088L226.850390625,102.59962388500571L227.0765625,102.78517239913344L227.302734375,103.04278250969946L227.52890625,103.26673969812691L227.75507812499998,103.13863523025066L227.98125,103.40665936656296L228.207421875,103.53923935163766L228.43359375,102.78715052828193L228.659765625,102.9375790078193L228.8859375,102.64246686547995L229.112109375,102.52915715519339L229.564453125,102.72046284936368L229.790625,101.86120475828648L230.016796875,102.75110324565321L230.24296875000002,101.04947946220636L230.469140625,103.16948168165982L230.6953125,103.34872903022915L230.921484375,102.76212719455361L231.14765625,102.83200872782618L231.37382812500002,103.0341570423916L231.60000000000002,103.00377215445042L231.826171875,102.39619802869856L232.05234375,103.25970085524023L232.278515625,102.87016601487994L232.50468750000002,102.52801973093301L232.95703125,103.10850172955543L233.18320312499998,102.4939959095791L233.40937499999998,103.24096632376313L233.635546875,101.97575904149562L233.86171875,102.81574685778469L234.087890625,103.04881168249995L234.31406249999998,103.24001434911042L234.54023437499998,102.48975117411464L234.76640625,102.49702491983771L234.992578125,101.84950082749128L235.21875,101.68733544833958L235.444921875,101.80770872812718L235.67109374999998,102.99074947088957L235.897265625,102.2724289605394L236.1234375,103.62124516814947L236.349609375,102.75562409497797L236.801953125,102.55048386007547L237.028125,103.16583038493991L237.254296875,103.99193832837045L237.706640625,102.52277356758714L237.9328125,102.62272678501904L238.158984375,102.37391522806138L238.38515625,102.37085324898362L238.611328125,102.54318126663566L238.8375,101.80683093331754L239.063671875,102.73864927422255L239.28984375000002,102.92526515386999L239.516015625,101.85232790373266L239.7421875,103.08701430168003L239.968359375,102.97980794403702L240.19453125,102.76755468640476L240.42070312500002,103.17501220107079L240.64687500000002,104.07098107226193L240.873046875,103.19258458167315L241.09921875,102.48205295484513L241.325390625,102.54572810791433L241.55156250000002,103.7539776340127L241.77773437500002,102.49692601338029L242.00390625,102.42948829382658L242.23007812499998,103.33679843880236L242.45624999999998,102.76049935910851L242.682421875,103.18107022158802L242.90859375,103.0320223113522L243.134765625,102.28192810155451L243.36093749999998,102.81342255603522L243.58710937499998,102.3036504322663L243.81328125,103.17878713086247L244.039453125,103.7178685348481L244.265625,103.23457861505449L244.491796875,102.96774959843606L244.71796874999998,101.98141731508076L244.944140625,104.34106988087296L245.1703125,103.09329486172646L245.396484375,103.36070495378226L245.62265625,103.55914427619427L245.848828125,102.91328923031688L246.075,102.73967542871833L246.301171875,103.3084287699312L246.52734375,102.02046476025134L246.753515625,102.89113006275147L246.9796875,103.24590340442955L247.20585937500002,102.64633245952427L247.43203125,103.08239866700023L247.884375,103.50027844961733L248.110546875,103.15000123064965L248.33671875000002,102.4986074231565L248.56289062500002,102.89148859865963L248.7890625,102.71480045467615L249.015234375,102.98578766360879L249.24140625,103.32394059933722L249.46757812500002,103.87916848249733L249.69375000000002,103.81827507354319L249.919921875,103.57197326794267L250.37226562499998,103.5173356924206L250.5984375,103.50865665078163L250.824609375,103.78799733426422L251.05078125,103.55776370689273L251.27695312499998,102.7752941166982L251.50312499999998,104.1335476487875L251.729296875,104.50006201118231L251.95546875,102.97477607801557L252.181640625,102.0376992104575L252.4078125,103.97427116241306L252.63398437499998,103.97069404553622L252.86015625,103.90479349717498L253.086328125,102.55003053881228L253.3125,101.91714048106223L253.538671875,103.09432101622224L253.76484375,102.36217008624226L253.991015625,103.01017634756863L254.2171875,103.13083810452372L254.443359375,103.57089766021818L254.66953125,103.60729935765266L254.895703125,102.71025075763464L255.121875,102.46344205643982L255.348046875,103.54476987104863L255.57421875,102.73132195416838" style="fill: none;" fill="none"></path></g><g><path stroke="rgb(238, 51, 119)" stroke-width="2px" d="M27.140625,-54.36063810065389L29.40234375,19.13773123361173L31.6640625,30.474875673651724L33.92578125,-13.942810993641615L36.1875,50.60422722436488L38.44921875,62.072867799550295L40.7109375,48.449484111741185L42.97265625,71.11110472306609L45.234375,31.31936373375359L47.49609375,60.658802177757025L49.7578125,51.715853383764625L52.01953125,33.65119061619046L54.28125,59.25223696231842L56.54296875,76.33256618119776L58.8046875,52.88688935525715L61.06640625,36.42825315892699L63.328125,67.04036220163107L65.58984375,52.842620473355055L67.8515625,51.78381036221981L70.11328125,42.50691215693951L72.375,7.750902783125667L74.63671875,76.24252009391785L76.8984375,55.64433545060456L79.16015625,59.43244452774525L81.421875,47.68323105946183L83.68359375,56.03175204433501L85.9453125,28.428229076787858L88.20703125,17.461052482947736L90.46875,57.162120977416635L92.73046875,36.28291011974218L94.9921875,42.650730388239026L97.25390625,41.86039361357689L99.515625,52.10315458662808L101.77734375,57.046359211206436L104.0390625,56.08388398960233L106.30078125,70.53068041987717L108.5625,46.517733849585056L110.82421875,64.40082908794284L113.0859375,37.21970263123515L115.34765625,50.4302342813462L117.609375,20.85393959842625L119.87109375,57.868065817281604L122.1328125,46.085290091112256L124.39453125,63.40011003613472L126.65625,66.32107323221862L128.91796875,63.514281056821346L131.1796875,57.55473016016185L133.44140625,72.29213848896325L135.703125,54.04473779909313L136.15546875,68.33349819481373L136.6078125,70.92727058753371L137.06015625,61.653281880542636L137.51250000000002,70.34276639297605L137.96484375,45.40430264733732L138.4171875,46.09224651195109L138.86953125000002,14.59302072599533L139.321875,62.227260779589415L139.77421875000002,61.47873670980334L140.2265625,30.803731402382283L140.67890624999998,60.566266944631934L141.13125,-12.098156109452248L141.58359374999998,63.986460484564304L142.0359375,46.901433208957314L142.48828125,47.062609523534775L142.94062499999998,59.99796692468226L143.39296875,56.96425036713481L143.8453125,43.648614121600986L144.29765625,13.955535639077453L144.75,59.00162448361516L145.20234375,57.558249581605196L145.6546875,32.69314970076087L146.10703125,69.0624470282346L146.55937500000002,49.164495376870036L147.01171875,35.009118581190734L147.4640625,65.66040282323956L147.91640625000002,30.979512903839378L148.36874999999998,40.076829951256514L148.82109375,40.55434208549559L149.2734375,32.65390856377783L149.72578124999998,56.223506938666105L150.178125,50.112744553014636L150.63046875,68.3031421545893L151.0828125,49.48565288633108L151.53515625,63.105113284662366L151.9875,55.36270755529404L152.43984375,69.71691929921508L152.8921875,43.40688673965633L153.34453125,32.400262953713565L153.796875,22.133937517181067L154.24921875,62.036429012194276L154.7015625,55.647599363699555L155.15390625,23.192953683435945L155.60625000000002,66.89207669533789L156.05859375,58.865784706547856L156.5109375,75.48792151920497L156.96328125000002,59.978136179968715L157.41562499999998,65.30266640894115L157.86796875,63.4178967140615L158.3203125,53.24187287315726L158.77265624999998,67.74540039896965L159.225,64.19040559977293L159.67734375,2.61421240121129L160.1296875,56.01199547946453L160.58203125,61.976557636633515L161.034375,59.68252126313746L161.48671875,22.550144132226734L161.9390625,55.91700406931341L162.39140625000002,57.91296110674739L162.84375,63.8569754473865L163.29609375,60.610321529209614L163.74843750000002,74.52697110548615L164.20078125,47.695165771991014L164.65312500000002,68.5792642571032L165.10546875,66.9518656488508L165.55781249999998,59.47272418253124L166.01015625,51.458028975874186L166.46249999999998,62.31317752227187L166.91484375,64.53118779882789L167.3671875,74.43318305723369L167.81953124999998,47.0228820964694L168.271875,24.1313286982477L168.72421875,48.255784057080746L169.1765625,41.00922936759889L169.62890625,34.32899656891826L170.08125,62.59165689535439L170.53359375,56.365462431684136L170.9859375,-64.83639796078205L171.43828125000002,13.61294015496972L171.890625,67.02139688841999L172.34296875,64.87994845211506L172.79531250000002,68.87821726687253L173.24765625,41.14521750435233L173.70000000000002,31.502637399360566L174.15234375,37.52597471885386L174.60468749999998,62.91986973211169L175.05703125,52.95954439043999L175.50937499999998,43.360145196318626L175.96171875,48.22242785431445L176.4140625,59.51691064238548L176.86640624999998,31.74799959361556L177.31875,55.85131369717419L177.77109375,64.92648394033313L178.2234375,35.79699917882684L178.67578125,54.29869661293924L179.128125,59.52348792180419L179.58046875,10.374017424881487L180.0328125,36.56522211804989L180.48515625000002,71.86487083509564L180.9375,64.70204870402813L181.38984375,46.152497028931975L181.84218750000002,34.91141548566523L182.29453124999998,47.49972661212087L182.746875,65.66466404311359L183.19921875,70.04283256083727L183.65156249999998,66.90010460279882L184.10390625,45.14711288921535L184.55625,69.7777714971453L185.00859375,68.97779958508909L185.4609375,50.831761529669166L185.91328125,37.82788668014112L186.365625,48.47212544828653L186.81796875,67.79612292721868L187.2703125,58.39344867691398L187.72265625,63.782754393294454L188.175,58.460960576310754L188.62734375,62.75917970761657L189.0796875,52.961143378168344L189.53203125000002,51.14678683876991L189.984375,57.787926860153675L190.43671875,59.74325807020068L190.88906250000002,40.99726168625057L191.34140624999998,46.05017005652189L191.79375,77.07887309789658L192.24609375,64.49087517522275L192.69843749999998,66.66199554875493L193.15078125,64.13294094800949L193.603125,56.24007377028465L194.05546875,41.6853951215744L194.5078125,31.560530645772843L194.96015625,51.63625841215253L195.4125,51.82666158489883L195.86484375,63.687169544398785L196.31718750000002,67.0440547093749L196.76953125,69.37860976159573L197.221875,64.44026803784072L197.67421875000002,73.61101488769054L198.1265625,69.79130519740283L198.57890625000002,43.241605807095766L199.03125,52.70647573471069L199.48359374999998,65.35563081689179L199.9359375,30.94298345223072L200.38828124999998,29.032860735431342L200.840625,41.76408345066011L201.29296875,57.33486934751272L201.74531249999998,39.92728338763118L202.19765625,47.68310742639005L202.65,42.95605462230742L203.10234375,14.766716949641733L203.5546875,39.94141052663326L204.00703125,35.28760619647804L204.459375,51.92652413807809L204.91171875,-14.74772822856903L205.36406250000002,36.462417097762255L205.81640625,73.5564762186259L206.26875,13.438897758722334L206.72109375000002,58.223115272819996L207.1734375,48.682417061179876L207.62578125000002,34.595961581915645L208.078125,40.95573745854199L208.53046874999998,58.27151349931955L208.9828125,46.140488136559725L209.43515624999998,53.16789084300399L209.8875,33.171906407922535L210.33984375,-20.063406329602003L210.79218749999998,67.14200507104397L211.24453125,64.19718069210649L211.696875,49.02644668892026L212.14921875,56.59307915903628L212.6015625,65.1292256936431L213.05390625,46.88601204380393L213.50625,74.0529866348952L213.95859375,44.66118546389043L214.41093750000002,36.01280482672158L214.86328125,47.12704708054662L215.315625,48.624919440597296L215.76796875000002,73.68367816507816L216.22031249999998,59.87881761230528L216.67265625,69.55208344571292L217.125,19.209149938076763L217.57734374999998,58.88670342229307L218.0296875,53.033963257446885L218.48203125,46.99236945435405L218.934375,70.6513215713203L219.38671875,60.485913690179586L219.8390625,53.47051987610757L220.29140625,78.87250049225986L220.74375,60.18849373050034L221.19609375,49.06445973739028L221.6484375,48.709575125947595L222.10078125,17.475220832973747L222.553125,55.30750126764178L223.00546875,56.87596811167896L223.45781250000002,39.61195311695337L223.91015625,52.92951803840697L224.3625,34.65536315180364L224.81484375000002,46.55054606683552L225.26718749999998,39.82902806438506L225.71953125,39.375772738829255L226.171875,58.07446710951626L226.62421874999998,19.726315319538145L227.0765625,63.447717010974884L227.52890625,73.26785893365741L227.98125,26.505256762728123L228.43359375,65.30194933712482L228.8859375,71.14538405276835L229.33828125,32.422739446163206L229.790625,66.73821945860982L230.24296875000002,37.2375057935715L230.6953125,56.60934102907777L231.14765625,64.30621681921184L231.60000000000002,41.97437506355345L232.05234375,46.326514698565006L232.50468750000002,68.19359501078725L232.95703125,59.62497418932617L233.40937499999998,53.17996567301452L233.86171875,63.02109224908054L234.31406249999998,51.72314773499966L234.76640625,57.633410247042775L235.21875,34.09630264341834L235.67109374999998,34.533807115629344L236.1234375,5.555706929415493L236.57578125,56.437614692375064L237.028125,56.814596654847264L237.48046875,54.44033065997064L237.9328125,51.54517380706966L238.38515625,53.34403500147164L238.8375,66.56214947998524L239.28984375000002,56.931363970041275L239.7421875,32.96924707666042L240.19453125,69.21321343816817L240.64687500000002,56.6076348926872L241.09921875,76.03898708894849L241.55156250000002,45.54752743989229L242.00390625,48.992497047409415L242.45624999999998,34.81009406223896L242.90859375,65.74065717123449L243.36093749999998,35.95737599954012L243.81328125,49.884188214316964L244.265625,59.39565956778824L244.71796874999998,52.77435853332281L245.1703125,57.05339805409312L245.62265625,66.42400188557804L246.075,54.18045394308865L246.52734375,56.76284385100007L246.9796875,41.15340201370418L247.43203125,61.66863710805774L247.884375,72.49511926621199L248.33671875000002,56.776138527318835L248.7890625,27.156193127855687L249.015234375,71.06177512742579L249.24140625,42.0730095282197L249.46757812500002,61.81293338723481L249.69375000000002,67.54027664847672L249.919921875,55.712292429059744L250.14609374999998,69.72368614934385L250.37226562499998,57.41203286871314L250.5984375,53.19312847405672L250.824609375,46.84533676318824L251.05078125,65.55934515036643L251.27695312499998,63.44648892246187L251.50312499999998,26.305943766608863L251.729296875,14.759397871792345L251.95546875,74.785240592435L252.181640625,59.177653251215816L252.4078125,62.021461168304086L252.63398437499998,62.14686631411314L252.86015625,65.03645143657923L253.086328125,53.120885549113154L253.3125,67.75229912437499L253.538671875,60.124839182943106L253.76484375,63.75564578175545L253.991015625,57.02868792414665L254.2171875,66.03796174004674L254.443359375,58.32982709817588L254.66953125,66.02159272134304L254.895703125,67.1660640668124L255.121875,59.75977544859052L255.348046875,46.11111291870475L255.57421875,49.81656092405319" style="fill: none;" fill="none"></path></g><g><path stroke="rgb(255, 112, 67)" stroke-width="2px" d="M27.140625,-114.77781246230006L29.40234375,16.12564222142103L31.6640625,60.66773672774434L33.92578125,1.5067732818424986L36.1875,48.75491549447179L38.44921875,57.74019625224173L40.7109375,60.54002376459539L42.97265625,62.59566260688007L45.234375,35.3207563441247L47.49609375,71.9732311014086L49.7578125,45.31078659184277L52.01953125,48.993593260645866L54.28125,61.02487970329821L56.54296875,77.460454210639L58.8046875,36.26918684877458L61.06640625,62.281659331172705L63.328125,79.98143969289958L65.58984375,63.59850814752281L67.8515625,53.14101301319897L70.11328125,50.9858660325408L72.375,53.861068507656455L74.63671875,71.01352526061237L76.8984375,56.33949948661029L79.16015625,60.12144339457154L81.421875,47.11091708578169L83.68359375,62.74688233807683L85.9453125,23.921663492918043L88.20703125,67.46724247187376L90.46875,75.99937505275011L92.73046875,48.943909250199795L94.9921875,71.41900052502751L97.25390625,69.75846001133323L99.515625,64.64599346928298L101.77734375,58.10878765024245L104.0390625,74.08290583826602L106.30078125,37.935043584555416L108.5625,59.69434882700443L110.82421875,65.52023588865995L113.0859375,56.107555601745844L115.34765625,67.42946844734251L117.609375,65.5099743437022L119.87109375,57.66902481392026L122.1328125,56.424542555585504L124.39453125,66.44698115251958L126.65625,52.37474347651005L128.91796875,71.46160448156297L131.1796875,66.15496807917953L133.44140625,64.11444544047117L135.703125,60.36101131886244L136.15546875,60.84795253537595L136.6078125,69.99162374250591L137.06015625,75.44686709716916L137.51250000000002,71.9246845152229L137.96484375,75.07023954950273L138.4171875,54.61414227448404L138.86953125000002,61.86343337595463L139.321875,70.52049305476248L139.77421875000002,37.5107101555914L140.2265625,86.15414636861533L140.67890624999998,34.707684667781024L141.13125,69.82142221368849L141.58359374999998,58.689731212332845L142.0359375,65.29653420858085L142.48828125,67.1132974717766L142.94062499999998,62.26572714932263L143.39296875,52.06854556873441L143.8453125,55.28477750904858L144.29765625,61.636649111285806L144.75,76.47771964967251L145.20234375,38.94149096868932L145.6546875,43.63855038955808L146.10703125,50.791572539135814L146.55937500000002,69.7688287049532L147.01171875,6.231880925595789L147.4640625,63.70746185258031L147.91640625000002,68.60029012151062L148.36874999999998,73.61214406974614L148.82109375,50.4402485601604L149.2734375,60.70316172391176L149.72578124999998,53.38009464740753L150.178125,72.93756081908941L150.63046875,68.2561121340841L151.0828125,34.05987209826711L151.53515625,58.70814429782331L151.9875,57.851375352591276L152.43984375,47.04690812341869L152.8921875,62.09490745514631L153.34453125,35.10835472680631L153.796875,66.11033654026687L154.24921875,57.23353143967688L154.7015625,60.25664027966559L155.15390625,62.36623259447515L155.60625000000002,73.90785789303482L156.05859375,67.10428049974144L156.5109375,76.97786487825215L156.96328125000002,66.6699987296015L157.41562499999998,67.263148996979L157.86796875,78.69169948808849L158.3203125,74.33927961811423L158.77265624999998,67.61974798701704L159.225,60.17104498296976L159.67734375,56.43688113614917L160.1296875,66.50648987106979L160.58203125,73.17136744223535L161.034375,59.65350870229304L161.48671875,60.13652662932873L161.9390625,74.36077528819442L162.39140625000002,65.26465336047113L162.84375,63.64517551101744L163.29609375,69.10942759551108L163.74843750000002,65.28625617921352L164.20078125,77.5335790514946L164.65312500000002,64.50292527861893L165.10546875,52.82300402596593L165.55781249999998,65.05475737340748L166.01015625,52.27150161936879L166.46249999999998,50.76523869484663L166.91484375,81.50452495738864L167.3671875,67.44993384182453L167.81953124999998,74.29028795287013L168.271875,43.77242027968168L168.72421875,70.91778380982578L169.1765625,56.89518893323839L169.62890625,45.14872011914849L170.08125,40.74281658232212L170.53359375,71.65690352395177L170.9859375,56.765440145507455L171.43828125000002,48.394607512280345L171.890625,40.995811058208346L172.34296875,63.935548385605216L172.79531250000002,44.65249818004668L173.24765625,52.28048562258482L173.70000000000002,48.3597594704479L174.15234375,72.55352352932096L174.60468749999998,66.43499698676169L175.05703125,65.83047247678041L175.50937499999998,74.69127121567726L175.96171875,56.14522247761488L176.4140625,79.75100413151085L176.86640624999998,61.13876224681735L177.31875,63.46036879532039L177.77109375,56.14143106341362L178.2234375,66.15936117433012L178.67578125,41.61780080012977L179.128125,58.18459944985807L179.58046875,40.09676784463227L180.0328125,52.69472235068679L180.48515625000002,42.28229559212923L180.9375,66.2185402046889L181.38984375,61.01823648624122L181.84218750000002,43.78482479788363L182.29453124999998,50.92558254674077L182.746875,62.360784497112036L183.19921875,76.37541740387678L183.65156249999998,82.69638898037374L184.10390625,74.5695256087929L184.55625,50.76163685135543L185.00859375,64.30250782705843L185.4609375,48.04411599598825L185.91328125,51.415392050519586L186.365625,69.63730784319341L186.81796875,51.297050474211574L187.2703125,60.565945498645306L187.72265625,56.989059403538704L188.175,63.315075209364295L188.62734375,63.06870746612549L189.0796875,82.4077964220196L189.53203125000002,58.86443298496306L189.984375,69.8719881400466L190.43671875,76.79396480508149L190.88906250000002,21.079157844185858L191.34140624999998,49.19265899062157L191.79375,68.17041793093085L192.24609375,48.804022550582886L192.69843749999998,56.97656422108412L193.15078125,67.35110156424344L193.603125,53.741910953074694L194.05546875,54.864301431924105L194.5078125,57.614758137613535L194.96015625,58.67421938292682L195.4125,53.8684123121202L195.86484375,69.68981068767607L196.31718750000002,73.18154656514525L196.76953125,65.70958405919373L197.221875,48.19797323271632L197.67421875000002,57.67491799034178L198.1265625,77.72886985167861L198.57890625000002,51.851948669180274L199.03125,53.71718433871865L199.48359374999998,78.81819260492921L199.9359375,53.92346199788153L200.38828124999998,57.11176934838295L200.840625,43.96403505653143L201.29296875,46.605208368971944L201.74531249999998,57.07637732103467L202.19765625,49.21872908435762L202.65,64.018802896142L203.10234375,59.303791953250766L203.5546875,62.894500225782394L204.00703125,65.1417620871216L204.459375,72.04680102132261L204.91171875,72.39829808659852L205.36406250000002,45.682163855060935L205.81640625,36.70535608381036L206.26875,46.136465940624475L206.72109375000002,53.982303097844124L207.1734375,51.624661630019546L207.62578125000002,34.759758917614846L208.078125,70.58759284391999L208.53046874999998,56.983232164755464L208.9828125,55.924710530787706L209.43515624999998,64.09483723528683L209.8875,48.367630776017904L210.33984375,58.0585266854614L210.79218749999998,66.27988693490624L211.24453125,36.08181680738929L211.696875,47.156949799507856L212.14921875,60.6074037887156L212.6015625,44.63896447978914L213.05390625,39.22985274530947L213.50625,72.76908191107213L213.95859375,68.39337781257927L214.41093750000002,40.107136538252234L214.86328125,72.23902572132647L215.315625,58.276293978095055L215.76796875000002,52.41578141413629L216.22031249999998,62.432170232757926L216.67265625,69.22102704830468L217.125,48.5779471155256L217.57734374999998,60.125193597748876L218.0296875,60.89558423683047L218.48203125,58.404221238568425L218.934375,47.681788673624396L219.38671875,66.80975355394185L219.8390625,54.30960104987025L220.29140625,63.88939203880727L220.74375,72.0817891806364L221.19609375,70.77241604402661L221.6484375,82.85415302217007L222.10078125,74.62052012979984L222.553125,70.56538834422827L223.00546875,51.01413679495454L223.45781250000002,72.54982277937233L223.91015625,52.78181772865355L224.3625,69.28951152786613L224.81484375000002,67.09270020201802L225.26718749999998,56.54909051209688L225.71953125,61.51919769309461L226.171875,75.97745078802109L226.62421874999998,63.658437218517065L227.0765625,77.03045014478266L227.52890625,60.03451286070049L227.98125,29.926670148968725L228.43359375,52.41702598705888L228.8859375,58.466326251626015L229.33828125,29.398930018767743L229.790625,61.69821013882756L230.24296875000002,76.35533115081489L230.6953125,48.386917535215616L231.14765625,73.13395607471466L231.60000000000002,73.60366284102201L232.05234375,75.35759577713907L232.50468750000002,66.53984607383609L232.95703125,79.57147242687643L233.40937499999998,69.02294214069843L233.86171875,62.622416803613305L234.31406249999998,48.12614241801202L234.76640625,72.7039684932679L235.21875,61.01720621064305L235.67109374999998,55.135708993300796L236.1234375,55.14273135177791L236.57578125,50.94922943226993L237.028125,67.93300122208893L237.48046875,66.50948179140687L237.9328125,51.371675396338105L238.38515625,72.26784046925604L238.8375,43.14181743375957L239.28984375000002,67.24716736190021L239.7421875,74.7184704914689L240.19453125,50.99060530029237L240.64687500000002,75.58179198950529L241.09921875,74.22969126328826L241.55156250000002,62.79261833243072L242.00390625,74.67726770974696L242.45624999999998,62.988362453877926L242.90859375,69.33368974551558L243.36093749999998,66.0807305406779L243.81328125,78.76006033457816L244.265625,69.48851956240833L244.71796874999998,65.59359975345433L245.1703125,62.80778398923576L245.62265625,68.19805404357612L246.075,69.07114255428314L246.52734375,59.87579272314906L246.9796875,79.06874738819897L247.43203125,74.67664954438806L247.884375,75.06871474161744L248.33671875000002,72.4155737478286L248.7890625,77.99238962307572L249.015234375,67.76328598335385L249.24140625,56.864940041676164L249.46757812500002,71.0161545239389L249.69375000000002,62.64795115403831L249.919921875,71.98925394751132L250.14609374999998,78.24888703599572L250.37226562499998,74.3151134736836L250.5984375,74.7989638634026L250.824609375,47.14188304916024L251.05078125,60.835795283317566L251.27695312499998,72.48422307148576L251.50312499999998,70.29604133404791L251.729296875,67.72209968604147L251.95546875,56.431606125086546L252.181640625,60.7504472527653L252.4078125,84.41597664915025L252.63398437499998,70.32217736542225L252.86015625,50.883736873045564L253.086328125,77.94873890653253L253.3125,82.17084127664566L253.538671875,56.67833652533591L253.76484375,67.12050940096378L253.991015625,77.15015992708504L254.2171875,67.83965825289488L254.443359375,67.00444267317653L254.66953125,61.11026070266962L254.895703125,50.089666379615664L255.121875,67.81559925712645L255.348046875,59.612948812544346L255.57421875,70.54826104268432" style="fill: none;" fill="none"></path></g><g><path stroke="rgb(51, 187, 238)" stroke-width="2px" d="M28.0453125,-6.617518521845341L28.49765625,1.1641613133251951L28.950000000000003,10.387139014899759L29.40234375,16.261292427778272L29.8546875,12.710154980421095L30.307031249999998,-70.43450345098972L30.759375,35.45718131773177L31.211718750000003,48.04512978717685L31.6640625,53.14276860281825L32.11640625,47.15436174720526L32.56875,19.815430037677316L33.02109375,33.96601811237636L33.4734375,60.72087422199547L33.92578125,0.1779155731201456L34.378125000000004,31.884243238717346L34.83046875,40.342904806137085L35.2828125,48.34775057807565L35.735156249999996,46.81395044736564L36.1875,40.67173580825329L36.639843750000004,65.47955236583948L37.092187499999994,41.86616315692663L37.54453125,41.665020391345024L37.996875,35.281745988875656L38.44921875,54.866535069420934L38.901562500000004,54.31110937334597L39.353906249999994,72.33498971164227L39.80625,41.37496896274388L40.25859375,55.99582427367568L40.7109375,56.202975606545806L41.163281250000004,53.76092571951449L41.615624999999994,55.05745750106871L42.06796875,56.552964348345995L42.5203125,57.34824644587934L42.97265625,58.94471205957234L43.425000000000004,64.39298250898719L43.877343749999994,43.871013533324L44.3296875,62.01972206309438L44.78203125,44.821545800194144L45.234375,28.49963129684332L45.68671875,68.08334727957845L46.1390625,46.45604918897152L46.59140625,50.36761825159192L47.04375,37.109726892784266L47.49609375,67.62835284881294L47.9484375,22.648490119725494L48.40078125,-5.824816234409809L48.853125,62.00261948816478L49.30546875,64.38579530641437L49.7578125,54.77029908634722L50.21015625,46.98486904799938L50.6625,66.20913584902883L51.11484375,60.03902958892286L51.5671875,16.631977345794468L52.01953125,51.223480554297566L52.471875,64.58312193118036L52.92421875,54.128775319084525L53.3765625,63.34708793275058L53.82890625,55.12520018219948L54.28125,56.84020518511534L54.73359375,64.66064810939133L55.1859375,62.56763911060989L55.63828125,10.69712833687666L56.090625,47.892352279275656L56.54296875,73.96796829253435L56.9953125,40.658919179812074L57.44765625,51.004114273935556L57.900000000000006,56.29552732408047L58.352343749999996,58.31032604165375L58.8046875,34.67936445213857L59.25703125,56.903447622433305L59.709375,50.9355226457119L60.161718750000006,50.6018534693867L60.614062499999996,64.73240474425256L61.06640625,60.14968118816614L61.51875,41.118446823209524L61.97109375,68.79600127413869L62.423437500000006,56.676712810993195L62.875781249999996,70.4550087377429L63.328125,72.31704643182456L63.78046875,36.35233421064916L64.2328125,39.05080733075738L64.68515625,54.48373411037028L65.1375,56.73253726400435L65.58984375,56.913527838885784L66.0421875,53.34986224025488L66.49453125,61.242556331679225L66.946875,37.84424745664003L67.39921875,36.1055461149663L67.8515625,47.88037635572255L68.30390625,40.86187523044646L68.75625000000001,60.92480285279453L69.20859375,45.0200757868588L69.6609375,62.20537772588432L70.11328125,48.079780016094446L70.565625,53.05678592249751L71.01796875,32.74512504413727L71.47031249999999,59.44818713888526L71.92265625,59.64760728366673L72.375,50.10254894569516L72.82734375,60.779822470620275L73.27968750000001,36.61456819809976L73.73203125,62.97318031266332L74.18437499999999,64.20410414412618L74.63671875,63.80586553551257L75.0890625,39.40990370884538L75.54140625,59.961272628977895L75.99375,60.314854972064495L76.44609375,63.51990224048495L76.8984375,50.7440479863435L77.35078125,53.41460475884378L77.80312500000001,49.91747847944498L78.25546875,67.22896857373416L78.70781249999999,51.48038183525205L79.16015625,51.592088436707854L79.6125,57.0064999088645L80.06484375,59.874952018260956L80.5171875,63.51682789810002L80.96953125,38.0129571463913L81.421875,43.00320827588439L81.87421875000001,57.012706289067864L82.32656250000001,42.0720534324646L82.77890624999999,43.8098728582263L83.23124999999999,64.39262809418142L83.68359375,60.55340910516679L84.1359375,62.764479445293546L84.58828125,49.34792564436793L85.040625,46.89364432543516L85.49296875,68.26017554104328L85.9453125,20.986886361613898L86.39765625000001,63.457739531993866L86.85000000000001,74.13934845663607L87.30234374999999,51.98397230543196L87.75468749999999,43.84230593405664L88.20703125,60.19040592201054L88.659375,56.361497931182384L89.11171875,68.7626368291676L89.5640625,42.99648263677955L90.01640625,51.36095228791237L90.46875,74.17717193439603L90.92109375000001,61.00223012454808L91.3734375,59.21376235038042L91.82578124999999,65.38142067566514L92.278125,38.4509149398655L92.73046875,44.50866346433759L93.1828125,45.768130050972104L93.63515625,38.55492332205179L94.0875,36.27841811813417L94.53984375,65.2296816855669L94.9921875,66.0698178615421L95.44453125000001,68.63555027358234L95.896875,57.5023921597749L96.34921874999999,34.14585477858785L96.8015625,60.47426745481789L97.25390625,65.06154070794582L97.70625,63.28991175815463L98.15859375000001,58.34631974995136L98.6109375,49.59785402007401L99.06328125,74.21415470726788L99.515625,59.707915496081114L99.96796875,54.81695820763707L100.4203125,27.933680305257468L100.87265624999999,41.89785443432629L101.325,63.23668359965086L101.77734375,51.94575320184231L102.2296875,73.73695577681065L102.68203125000001,60.4218387901783L103.134375,54.867260383442044L103.58671875,35.68057803623381L104.0390625,67.52699845656753L104.49140625,57.4452407117933L104.94375,66.88308444991708L105.39609374999999,51.595269927755L105.8484375,52.91370124742389L106.30078125,35.29995301924649L106.753125,46.073833426460624L107.20546875000001,65.2343550156802L107.6578125,62.186536045745015L108.11015624999999,52.53924964182079L108.5625,57.231701670214534L109.01484375,59.3815653976053L109.4671875,59.30856418982148L109.91953125,53.1284518931061L110.371875,56.410654440522194L110.82421875,60.799340011551976L111.2765625,63.661181872710586L111.72890625000001,60.144290786236525L112.18125,60.720305509865284L112.63359374999999,43.80161416903138L113.0859375,43.29773522168398L113.53828125,62.92516946978867L113.990625,21.279896741732983L114.44296875,72.34027296490967L114.8953125,58.01757116988301L115.34765625,61.262964030727744L115.80000000000001,45.715445877984166L116.25234375000001,43.20791167393327L116.70468749999999,64.08092439360917L117.15703124999999,16.335043676197557L117.609375,60.18389458023012L118.06171875,54.204092586413026L118.5140625,42.480182686820626L118.96640625,61.462293511256576L119.41875,53.109511306509376L119.87109375,49.84504598379135L120.32343750000001,36.151718946173816L120.77578125000001,57.02938026934862L121.22812499999999,60.52391849644482L121.68046874999999,47.63669557124376L122.1328125,51.04472361691296L122.58515625,49.659241961315274L123.0375,55.15000921860337L123.48984375,56.21050073951483L123.9421875,46.59910913743079L124.39453125,60.48611974529922L124.84687500000001,55.076439298689365L125.29921875,61.88913257047534L125.75156249999999,42.04885162599385L126.20390625,57.113904079422355L126.65625,52.815075024962425L127.10859375,49.454414930194616L127.5609375,39.768785789608955L128.01328125,54.62287076935172L128.465625,59.86371789313853L128.91796875,63.48535091802478L129.3703125,67.23526561819017L129.82265625,53.16144543886185L130.275,51.86886991560459L130.72734375000002,56.54719480499625L131.1796875,59.80368167348206L131.63203124999998,60.93537760153413L132.084375,81.80679957568645L132.53671875,51.60937234014273L132.9890625,58.82112019881606L133.44140625,58.76117464341223L133.89375,46.3535161614418L134.34609375,67.95879108086228L134.7984375,41.83406801149249L135.25078125000002,76.36622734554112L135.703125,55.21881514415145L135.929296875,59.9583466462791L136.15546875,60.9193053022027L136.381640625,44.58849745988846L136.6078125,66.3146195858717L136.833984375,62.00278433226049L137.06015625,71.07518519461155L137.286328125,62.84541789628565L137.51250000000002,64.16345359012485L137.738671875,54.09968033619225L137.96484375,71.16586593165994L138.191015625,65.86718325689435L138.4171875,50.74130333214998L138.64335937500002,47.83477223664522L138.86953125000002,57.853254575282335L139.095703125,60.19532651826739L139.321875,66.32373546436429L139.548046875,44.033640475943685L139.77421875000002,26.427120661363034L140.00039062500002,52.638081919401884L140.2265625,79.65308673866093L140.45273437499998,66.740477822721L140.67890624999998,35.462373906746535L140.905078125,62.19435789808631L141.13125,63.85765955038369L141.357421875,60.6988675352186L141.58359374999998,53.43230077251792L141.80976562499998,52.6921837516129L142.0359375,61.55631234124303L142.262109375,68.99127558991313L142.48828125,60.68911700695753L142.714453125,62.16362271644175L142.94062499999998,60.16167359612882L143.166796875,50.105359537526965L143.39296875,48.54142590612173L143.619140625,66.98096063174307L143.8453125,50.77368695475161L144.071484375,62.28639859892428L144.29765625,58.852696085348725L144.523828125,73.27425488457084L144.75,68.96723307855427L144.976171875,61.58156645670533L145.20234375,37.64873411692682L145.42851562500002,53.54911754094064L145.6546875,42.713667863979936L145.880859375,77.07780985347927L146.10703125,45.63873567804694L146.333203125,59.54167846776545L146.55937500000002,66.72656498104334L146.78554687500002,51.578200321644545L147.01171875,18.187380295246868L147.237890625,65.4371874332428L147.4640625,58.13597044162452L147.69023437500002,43.373522294685245L147.91640625000002,61.10271084308624L148.142578125,48.44691254384816L148.36874999999998,69.370804393664L148.59492187499998,68.01666784286499L148.82109375,48.483829379081726L149.047265625,32.02228368446234L149.2734375,56.38408981449902L149.49960937499998,68.83281096071005L149.72578124999998,49.0364939365536L149.951953125,56.35538221523166L150.178125,63.57737513445318L150.404296875,54.379758697003126L150.63046875,61.63263515755534L150.85664062499998,62.423614824190736L151.0828125,28.51891805604103L151.308984375,62.82626301236451L151.53515625,55.29643198661506L151.761328125,65.91712277568877L151.9875,55.001633048057556L152.213671875,67.78452614508569L152.43984375,46.021132769063115L152.666015625,67.20772016979754L152.8921875,55.283425787463784L153.118359375,43.369697911664844L153.34453125,26.670677812770037L153.570703125,57.437938118353486L153.796875,59.96388540789485L154.023046875,48.59913782402873L154.24921875,49.25415408052504L154.47539062500002,70.43887050077319L154.7015625,55.28453024290502L154.927734375,54.718958392739296L155.15390625,57.806776782497764L155.380078125,49.88638064078987L155.60625000000002,65.70143251866102L155.83242187500002,58.40059466846287L156.05859375,62.04249527491629L156.284765625,65.6854673679918L156.5109375,77.17515029199421L156.73710937500002,63.56215178221464L156.96328125000002,64.25329362228513L157.189453125,67.95683767832816L157.41562499999998,65.59928687475622L157.64179687499998,64.19876319542527L157.86796875,72.85434751957655L158.094140625,63.82882831804454L158.3203125,72.3045924603939L158.54648437499998,68.38985014893115L158.77265624999998,64.453389627859L158.998828125,60.038947166875005L159.225,59.37486448511481L159.451171875,65.09534198977053L159.67734375,55.56545755080879L159.90351562499998,52.91951200179756L160.1296875,62.02150237932801L160.355859375,64.6500898450613L160.58203125,65.91379292495549L160.808203125,44.227233381941915L161.034375,56.24882699176669L161.260546875,62.99696731567383L161.48671875,57.98470125719905L161.712890625,70.8343562129885L161.9390625,71.60158184543252L162.165234375,46.88866603374481L162.39140625000002,61.907314874231815L162.617578125,53.961310202255845L162.84375,61.549924632534385L163.069921875,52.49225259013474L163.29609375,63.43474378064275L163.52226562500002,67.2492526397109L163.74843750000002,61.86388669721782L163.974609375,69.2580840010196L164.20078125,73.09704748168588L164.426953125,66.38861810043454L164.65312500000002,61.803479578346014L164.87929687500002,58.823823641985655L165.10546875,53.21913263015449L165.33164062499998,49.15715981461108L165.55781249999998,64.47592381574214L165.783984375,46.10124699957669L166.01015625,50.98419286496937L166.236328125,68.61546402052045L166.46249999999998,49.565907234326005L166.68867187499998,62.88139512017369L166.91484375,80.72525746375322L167.141015625,64.58083059825003L167.3671875,64.11000289209187L167.593359375,51.98601637221873L167.81953124999998,71.84429004974663L168.045703125,61.85711984708905L168.271875,47.23987462185323L168.498046875,66.65337420254946L168.72421875,68.89792437851429L168.950390625,64.23527616262436L169.1765625,53.76343959197402L169.402734375,60.67470139078796L169.62890625,44.02468119934201L169.855078125,54.62291198037565L170.08125,33.72045810520652L170.307421875,66.78550498746336L170.53359375,65.3699722532183L170.759765625,68.63576457090676L170.9859375,55.168479999527335L171.212109375,65.47298332862556L171.43828125000002,49.308420756831765L171.664453125,62.568727081641555L171.890625,44.20797134935856L172.116796875,59.28754656761885L172.34296875,57.766332283616066L172.56914062500002,74.87022596597672L172.79531250000002,49.292636934667826L173.021484375,62.789543990045786L173.24765625,49.470429534092546L173.473828125,70.70854719914496L173.70000000000002,45.71584974601865L173.92617187500002,65.35882055014372L174.15234375,70.35653911717236L174.37851562499998,51.75535827130079L174.60468749999998,64.63061351515353L174.830859375,66.34809117950499L175.05703125,62.6947009395808L175.283203125,50.30515882372856L175.50937499999998,70.2967254370451L175.73554687499998,69.19145401753485L175.96171875,52.011830957606435L176.187890625,72.33841022662818L176.4140625,74.92456682212651L176.640234375,60.237848052755L176.86640624999998,60.11606123484671L177.092578125,51.15940565429628L177.31875,62.54148659482598L177.544921875,60.060896158218384L177.77109375,51.46830700524151L177.997265625,48.56722400709987L178.2234375,64.69795232824981L178.449609375,49.53178450651467L178.67578125,44.87493880279362L178.901953125,73.8355325460434L179.128125,54.97876092977822L179.35429687500002,73.06166369654238L179.58046875,38.23023814894262L179.806640625,51.05023765191436L180.0328125,52.071669364348054L180.258984375,46.959516026079655L180.48515625000002,44.617963341996074L180.71132812500002,36.33439093083146L180.9375,61.17013207823038L181.163671875,66.00449014641345L181.38984375,64.84759779833257L181.61601562500002,58.32553290948272L181.84218750000002,47.91661733016372L182.068359375,61.65045480430126L182.29453124999998,53.73330609127879L182.52070312499998,47.10982087254524L182.746875,55.91864426806569L182.973046875,59.03920069523156L183.19921875,67.60056013427675L183.42539062499998,33.75997947715226L183.65156249999998,80.58607959374785L183.877734375,47.773104060441256L184.10390625,72.49075913988054L184.330078125,39.914763478562236L184.55625,52.20369300059974L184.78242187499998,40.31231798417866L185.00859375,59.44207142293453L185.234765625,66.04590722545981L185.4609375,46.73744630254805L185.687109375,51.43561017885804L185.91328125,46.34036160260439L186.139453125,73.79662933945656L186.365625,66.54461006820202L186.591796875,57.0719182882458L186.81796875,60.03480958007276L187.044140625,51.015933595597744L187.2703125,60.87971799261868L187.496484375,56.48930980078876L187.72265625,53.24060357362032L187.948828125,61.487217938527465L188.175,62.24340725876391L188.40117187500002,46.743924675509334L188.62734375,57.06562948599458L188.853515625,57.06930550932884L189.0796875,78.19952447153628L189.305859375,57.443518090993166L189.53203125000002,51.303759628906846L189.75820312500002,31.473072610795526L189.984375,67.83721856027842L190.210546875,57.182841880247L190.43671875,73.70769594982266L190.66289062500002,56.468613624572754L190.88906250000002,21.513851724565058L191.115234375,57.96084007434547L191.34140624999998,47.08439367078245L191.56757812499998,70.59764833375812L191.79375,63.936380848288536L192.019921875,63.22224325686693L192.24609375,40.84483035095036L192.47226562499998,61.335520159453154L192.69843749999998,55.267979895696044L192.924609375,57.4366935454309L193.15078125,63.288576520979404L193.376953125,69.40544638037682L193.603125,49.27447111532092L193.82929687499998,19.441571870818763L194.05546875,48.79357967711985L194.281640625,46.829569425433874L194.5078125,52.40616276115179L194.733984375,64.30889553576708L194.96015625,57.86601350829005L195.186328125,51.64003334194422L195.4125,55.828721813857555L195.638671875,48.49856644123793L195.86484375,66.97542187012732L196.091015625,48.23645608685911L196.31718750000002,69.4208098500967L196.543359375,56.616256238892674L196.76953125,64.07564114034176L196.995703125,35.798936096951394L197.221875,40.82260112464428L197.44804687500002,40.90855083614588L197.67421875000002,54.56717819161713L197.900390625,45.1899476274848L198.1265625,71.94439162686467L198.352734375,57.271058198064566L198.57890625000002,49.11264366656542L198.80507812500002,43.77355770394206L199.03125,49.670896438881755L199.25742187499998,48.015993593260646L199.48359374999998,74.91350578330457L199.709765625,67.25318417139351L199.9359375,51.19980894215405L200.162109375,55.63239249587059L200.38828124999998,56.421583604067564L200.61445312499998,62.960643919184804L200.840625,41.727389154955745L201.066796875,53.87083552032709L201.29296875,48.35444324836135L201.519140625,49.26906422898173L201.74531249999998,55.115119965747L201.971484375,54.07525868341327L202.19765625,50.755397502332926L202.423828125,67.27759758196771L202.65,63.44198043644428L202.876171875,60.11402541026473L203.10234375,57.64670492336154L203.328515625,49.391197219491005L203.5546875,66.78051845356822L203.780859375,52.89434030838311L204.00703125,63.53661743178964L204.233203125,66.64679692313075L204.459375,71.33446023054421L204.685546875,67.08124353736639L204.91171875,68.53374256007373L205.137890625,20.21128664910796L205.36406250000002,48.02500232309103L205.590234375,27.753695279359846L205.81640625,39.57174764201045L206.042578125,61.991896379739046L206.26875,43.92301360331476L206.49492187500002,69.72230145893991L206.72109375000002,55.64512670226395L206.947265625,69.63115915842354L207.1734375,54.1556201800704L207.399609375,55.69400297664106L207.62578125000002,33.89989914558831L207.85195312500002,61.170849150046706L208.078125,67.69152110628784L208.30429687499998,64.31362656131387L208.53046874999998,55.97307578846812L208.756640625,49.742265690118074L208.9828125,52.26850969903171L209.208984375,42.08763944171369L209.43515624999998,58.92193060554564L209.66132812499998,56.653758270666L209.8875,44.65493787266314L210.113671875,56.92738298512995L210.33984375,58.967798475176096L210.566015625,55.82330668531358L210.79218749999998,59.25301997177303L211.018359375,51.59479187987745L211.24453125,33.69672055542472L211.470703125,46.66455224342644L211.696875,48.67892236635089L211.923046875,65.49442954547703L212.14921875,55.12700522504747L212.375390625,43.49202047288418L212.6015625,43.466980654746294L212.827734375,46.439671928063035L213.05390625,40.379145780578256L213.28007812500002,60.79504582285881L213.50625,70.3479095287621L213.732421875,57.522585561499L213.95859375,66.52126814424992L214.184765625,51.83509336039424L214.41093750000002,43.25803252123296L214.63710937500002,65.37946727313101L214.86328125,65.54882809706032L215.089453125,69.91111388616264L215.315625,54.57970634289086L215.54179687500002,48.775768272578716L215.76796875000002,48.920311817899346L215.994140625,60.19971961341798L216.22031249999998,59.41073456034064L216.44648437499998,46.02218777127564L216.67265625,60.20043668523431L216.898828125,54.9743843190372L217.125,46.661552080884576L217.35117187499998,47.9753512814641L217.57734374999998,54.836137818172574L217.803515625,52.88395513035357L218.0296875,58.59619867242873L218.255859375,61.245070204138756L218.48203125,54.40699094161391L218.70820312499998,69.32311499677598L218.934375,46.252260675653815L219.160546875,49.75317012704909L219.38671875,64.42005815170705L219.612890625,73.1332060340792L219.8390625,53.773758832365274L220.065234375,56.250714456662536L220.29140625,63.72064113803208L220.517578125,53.952524011954665L220.74375,69.2031826749444L220.969921875,56.26202276162803L221.19609375,66.30748183652759L221.422265625,44.07031004503369L221.6484375,78.49615317955613L221.874609375,49.96454146876931L222.10078125,71.83561925031245L222.32695312500002,66.11247951351106L222.553125,66.23697801679373L222.779296875,41.32752683199942L223.00546875,49.89064186066389L223.231640625,56.78581487573683L223.45781250000002,66.38389531709254L223.68398437500002,42.199955966323614L223.91015625,54.97506842203438L224.136328125,54.07708021067083L224.3625,71.94993038848042L224.58867187500002,31.9561564754695L224.81484375000002,62.98734042048454L225.041015625,57.02668506838381L225.26718749999998,54.67478841729462L225.49335937499998,60.7783471159637L225.71953125,59.41530898399651L225.945703125,74.04924467392266L226.171875,73.75164338573813L226.39804687499998,54.8805056065321L226.62421874999998,67.54007883556187L226.850390625,44.630829423666L227.0765625,74.48711180314422L227.302734375,56.862920701503754L227.52890625,59.69150526635349L227.75507812499998,57.97878335416317L227.98125,30.02564254403117L228.207421875,72.91481233388186L228.43359375,51.507803650572896L228.659765625,72.23979224637151L228.8859375,59.6023987904191L229.112109375,54.43475892953575L229.33828125,31.56393467634919L229.564453125,54.06530210003257L229.790625,59.01749072782695L230.016796875,64.76559610292315L230.24296875000002,76.43264303170145L230.469140625,69.31394966505468L230.6953125,46.3227480109781L230.921484375,50.956482572481036L231.14765625,68.27089864946902L231.37382812500002,63.650978023186326L231.60000000000002,69.0726261511445L231.826171875,55.58729939348996L232.05234375,71.92780831083655L232.278515625,62.99797286465764L232.50468750000002,59.756148878484964L232.73085937500002,52.675031723454595L232.95703125,73.10133342817426L233.18320312499998,54.290165930986404L233.40937499999998,61.954188292846084L233.635546875,44.39523424208164L233.86171875,59.83158153668046L234.087890625,62.450451442971826L234.31406249999998,41.9368318207562L234.54023437499998,62.968523466959596L234.76640625,68.84713591262698L234.992578125,60.9344379901886L235.21875,56.852148139849305L235.444921875,60.12119612842798L235.67109374999998,59.144280564039946L235.897265625,49.58496321178973L236.1234375,59.237491657957435L236.349609375,56.90685989521444L236.57578125,48.882513066753745L236.801953125,63.25906118564308L237.028125,63.13468631543219L237.254296875,64.04085079394281L237.48046875,64.8744673859328L237.706640625,67.15415408089757L237.9328125,52.62103703990579L238.158984375,59.74549170769751L238.38515625,66.83265039883554L238.611328125,57.78404478169978L238.8375,45.65978626906872L239.063671875,61.71030969545245L239.28984375000002,63.535661336034536L239.516015625,69.57608474604785L239.7421875,74.04810724966228L239.968359375,62.416213324293494L240.19453125,52.76245678961277L240.42070312500002,72.55233665183187L240.64687500000002,71.75786229036748L240.873046875,66.8871231302619L241.09921875,73.75023396871984L241.325390625,73.51211667247117L241.55156250000002,63.09697822853923L241.77773437500002,60.82169287092984L242.00390625,68.35586753860116L242.23007812499998,64.94603445008397L242.45624999999998,61.83513788692653L242.682421875,74.09221952967346L242.90859375,64.16991547867656L243.134765625,60.156390342861414L243.36093749999998,63.32044912688434L243.58710937499998,73.15675401315093L243.81328125,71.9408309943974L244.039453125,69.53725571930408L244.265625,62.171782499179244L244.491796875,56.73017999343574L244.71796874999998,63.360704055055976L244.944140625,55.95556110329926L245.1703125,61.04541103541851L245.396484375,56.3934941701591L245.62265625,63.243549356237054L245.848828125,76.5575948562473L246.075,67.6480599604547L246.301171875,70.10556398145854L246.52734375,56.16896002739668L246.753515625,56.69425222277641L246.9796875,77.40350057557225L247.20585937500002,75.74342162534595L247.43203125,71.57152252458036L247.658203125,74.30528052337468L247.884375,69.32342820055783L248.110546875,47.13735807873309L248.33671875000002,73.27199652045965L248.56289062500002,54.31823063828051L248.7890625,76.50841362029314L249.015234375,67.24000488594174L249.24140625,58.16064760275185L249.46757812500002,67.4974831212312L249.69375000000002,63.13442256487906L249.919921875,70.01747953891754L250.14609374999998,74.84971111826599L250.37226562499998,69.31449365057051L250.5984375,70.49415096826851L250.824609375,52.885273883119226L251.05078125,57.402900505810976L251.27695312499998,70.42832047864795L251.50312499999998,68.6981745455414L251.729296875,69.00601265206933L251.95546875,53.79139715060592L252.181640625,63.15220924280584L252.4078125,80.4873956758529L252.63398437499998,69.19202272966504L252.86015625,50.450386472046375L253.086328125,73.59767900034785L253.3125,77.88083138130605L253.538671875,55.512690955772996L253.76484375,65.57419760338962L253.991015625,73.92529839836061L254.2171875,64.38379245065153L254.443359375,63.633586971089244L254.66953125,57.48978158645332L254.895703125,50.65224630944431L255.121875,64.21794280596077L255.348046875,57.31256594136357L255.57421875,66.01546876318753" style="fill: none;" fill="none"></path></g></g></g></g></g></g><g transform="translate(58, 177)" clip-path="url(#clip_1)"><clipPath id="clip_1"><rect width="271" height="23"></rect></clipPath><g><g><line x1="0" y1="0" x2="0" y2="5" style="visibility: inherit;" fill="rgb(0, 0, 0)" stroke="rgb(204, 204, 204)" stroke-width="1px"></line><line x1="22.6171875" y1="0" x2="22.6171875" y2="5" style="visibility: inherit;" fill="rgb(0, 0, 0)" stroke="rgb(204, 204, 204)" stroke-width="1px"></line><line x1="45.234375" y1="0" x2="45.234375" y2="5" style="visibility: inherit;" fill="rgb(0, 0, 0)" stroke="rgb(204, 204, 204)" stroke-width="1px"></line><line x1="67.8515625" y1="0" x2="67.8515625" y2="5" style="visibility: inherit;" fill="rgb(0, 0, 0)" stroke="rgb(204, 204, 204)" stroke-width="1px"></line><line x1="90.46875" y1="0" x2="90.46875" y2="5" style="visibility: inherit;" fill="rgb(0, 0, 0)" stroke="rgb(204, 204, 204)" stroke-width="1px"></line><line x1="113.0859375" y1="0" x2="113.0859375" y2="5" style="visibility: inherit;" fill="rgb(0, 0, 0)" stroke="rgb(204, 204, 204)" stroke-width="1px"></line><line x1="135.703125" y1="0" x2="135.703125" y2="5" style="visibility: inherit;" fill="rgb(0, 0, 0)" stroke="rgb(204, 204, 204)" stroke-width="1px"></line><line x1="158.3203125" y1="0" x2="158.3203125" y2="5" style="visibility: inherit;" fill="rgb(0, 0, 0)" stroke="rgb(204, 204, 204)" stroke-width="1px"></line><line x1="180.9375" y1="0" x2="180.9375" y2="5" style="visibility: inherit;" fill="rgb(0, 0, 0)" stroke="rgb(204, 204, 204)" stroke-width="1px"></line><line x1="203.5546875" y1="0" x2="203.5546875" y2="5" style="visibility: inherit;" fill="rgb(0, 0, 0)" stroke="rgb(204, 204, 204)" stroke-width="1px"></line><line x1="226.171875" y1="0" x2="226.171875" y2="5" style="visibility: inherit;" fill="rgb(0, 0, 0)" stroke="rgb(204, 204, 204)" stroke-width="1px"></line><line x1="248.7890625" y1="0" x2="248.7890625" y2="5" style="visibility: inherit;" fill="rgb(0, 0, 0)" stroke="rgb(204, 204, 204)" stroke-width="1px"></line><line x1="271.40625" y1="0" x2="271.40625" y2="5" style="visibility: inherit;" fill="rgb(0, 0, 0)" stroke="rgb(204, 204, 204)" stroke-width="1px"></line></g><g transform="translate(0, 8)"><text x="0" y="0" dx="0em" dy="0.95em" style="text-anchor: middle; visibility: hidden; font-family: &quot;Helvetica Neue&quot;, sans-serif; font-size: 12px; font-weight: 200;" fill="rgb(50, 49, 63)" stroke="none" stroke-width="1px">-100</text><text x="22.6171875" y="0" dx="0em" dy="0.95em" style="text-anchor: middle; visibility: inherit; font-family: &quot;Helvetica Neue&quot;, sans-serif; font-size: 12px; font-weight: 200;" fill="rgb(50, 49, 63)" stroke="none" stroke-width="1px">0</text><text x="45.234375" y="0" dx="0em" dy="0.95em" style="text-anchor: middle; visibility: hidden; font-family: &quot;Helvetica Neue&quot;, sans-serif; font-size: 12px; font-weight: 200;" fill="rgb(50, 49, 63)" stroke="none" stroke-width="1px">100</text><text x="67.8515625" y="0" dx="0em" dy="0.95em" style="text-anchor: middle; visibility: inherit; font-family: &quot;Helvetica Neue&quot;, sans-serif; font-size: 12px; font-weight: 200;" fill="rgb(50, 49, 63)" stroke="none" stroke-width="1px">200</text><text x="90.46875" y="0" dx="0em" dy="0.95em" style="text-anchor: middle; visibility: hidden; font-family: &quot;Helvetica Neue&quot;, sans-serif; font-size: 12px; font-weight: 200;" fill="rgb(50, 49, 63)" stroke="none" stroke-width="1px">300</text><text x="113.0859375" y="0" dx="0em" dy="0.95em" style="text-anchor: middle; visibility: inherit; font-family: &quot;Helvetica Neue&quot;, sans-serif; font-size: 12px; font-weight: 200;" fill="rgb(50, 49, 63)" stroke="none" stroke-width="1px">400</text><text x="135.703125" y="0" dx="0em" dy="0.95em" style="text-anchor: middle; visibility: hidden; font-family: &quot;Helvetica Neue&quot;, sans-serif; font-size: 12px; font-weight: 200;" fill="rgb(50, 49, 63)" stroke="none" stroke-width="1px">500</text><text x="158.3203125" y="0" dx="0em" dy="0.95em" style="text-anchor: middle; visibility: inherit; font-family: &quot;Helvetica Neue&quot;, sans-serif; font-size: 12px; font-weight: 200;" fill="rgb(50, 49, 63)" stroke="none" stroke-width="1px">600</text><text x="180.9375" y="0" dx="0em" dy="0.95em" style="text-anchor: middle; visibility: hidden; font-family: &quot;Helvetica Neue&quot;, sans-serif; font-size: 12px; font-weight: 200;" fill="rgb(50, 49, 63)" stroke="none" stroke-width="1px">700</text><text x="203.5546875" y="0" dx="0em" dy="0.95em" style="text-anchor: middle; visibility: inherit; font-family: &quot;Helvetica Neue&quot;, sans-serif; font-size: 12px; font-weight: 200;" fill="rgb(50, 49, 63)" stroke="none" stroke-width="1px">800</text><text x="226.171875" y="0" dx="0em" dy="0.95em" style="text-anchor: middle; visibility: hidden; font-family: &quot;Helvetica Neue&quot;, sans-serif; font-size: 12px; font-weight: 200;" fill="rgb(50, 49, 63)" stroke="none" stroke-width="1px">900</text><text x="248.7890625" y="0" dx="0em" dy="0.95em" style="text-anchor: middle; visibility: inherit; font-family: &quot;Helvetica Neue&quot;, sans-serif; font-size: 12px; font-weight: 200;" fill="rgb(50, 49, 63)" stroke="none" stroke-width="1px">1k</text><text x="271.40625" y="0" dx="0em" dy="0.95em" style="text-anchor: middle; visibility: hidden; font-family: &quot;Helvetica Neue&quot;, sans-serif; font-size: 12px; font-weight: 200;" fill="rgb(50, 49, 63)" stroke="none" stroke-width="1px">1.1k</text></g><line x1="0" y1="0" x2="271.40625" y2="0" fill="rgb(0, 0, 0)" stroke="rgb(204, 204, 204)" stroke-width="1px"></line></g></g></g></g></svg>