<svg viewBox="0 0 330 200" xmlns="http://www.w3.org/2000/svg"><g><g><g><g><g><line x1="58.59375" y1="177" x2="53.59375" y2="177" style="visibility: inherit;" fill="rgb(0, 0, 0)" stroke="rgb(204, 204, 204)" stroke-width="1px"></line><line x1="58.59375" y1="157.33333333333334" x2="53.59375" y2="157.33333333333334" style="visibility: inherit;" fill="rgb(0, 0, 0)" stroke="rgb(204, 204, 204)" stroke-width="1px"></line><line x1="58.59375" y1="137.66666666666666" x2="53.59375" y2="137.66666666666666" style="visibility: inherit;" fill="rgb(0, 0, 0)" stroke="rgb(204, 204, 204)" stroke-width="1px"></line><line x1="58.59375" y1="118" x2="53.59375" y2="118" style="visibility: inherit;" fill="rgb(0, 0, 0)" stroke="rgb(204, 204, 204)" stroke-width="1px"></line><line x1="58.59375" y1="98.33333333333333" x2="53.59375" y2="98.33333333333333" style="visibility: inherit;" fill="rgb(0, 0, 0)" stroke="rgb(204, 204, 204)" stroke-width="1px"></line><line x1="58.59375" y1="78.66666666666666" x2="53.59375" y2="78.66666666666666" style="visibility: inherit;" fill="rgb(0, 0, 0)" stroke="rgb(204, 204, 204)" stroke-width="1px"></line><line x1="58.59375" y1="59" x2="53.59375" y2="59" style="visibility: inherit;" fill="rgb(0, 0, 0)" stroke="rgb(204, 204, 204)" stroke-width="1px"></line><line x1="58.59375" y1="39.33333333333334" x2="53.59375" y2="39.33333333333334" style="visibility: inherit;" fill="rgb(0, 0, 0)" stroke="rgb(204, 204, 204)" stroke-width="1px"></line><line x1="58.59375" y1="19.666666666666686" x2="53.59375" y2="19.666666666666686" style="visibility: inherit;" fill="rgb(0, 0, 0)" stroke="rgb(204, 204, 204)" stroke-width="1px"></line><line x1="58.59375" y1="0" x2="53.59375" y2="0" style="visibility: inherit;" fill="rgb(0, 0, 0)" stroke="rgb(204, 204, 204)" stroke-width="1px"></line></g><g transform="translate(48.59375, 0)"><text x="0" y="177" dx="0em" dy="0.3em" style="text-anchor: end; visibility: hidden; font-family: &quot;Helvetica Neue&quot;, sans-serif; font-size: 12px; font-weight: 200;" fill="rgb(50, 49, 63)" stroke="none" stroke-width="1px">-0.05</text><text x="0" y="157.33333333333334" dx="0em" dy="0.3em" style="text-anchor: end; visibility: inherit; font-family: &quot;Helvetica Neue&quot;, sans-serif; font-size: 12px; font-weight: 200;" fill="rgb(50, 49, 63)" stroke="none" stroke-width="1px">0</text><text x="0" y="137.66666666666666" dx="0em" dy="0.3em" style="text-anchor: end; visibility: hidden; font-family: &quot;Helvetica Neue&quot;, sans-serif; font-size: 12px; font-weight: 200;" fill="rgb(50, 49, 63)" stroke="none" stroke-width="1px">0.05</text><text x="0" y="118" dx="0em" dy="0.3em" style="text-anchor: end; visibility: inherit; font-family: &quot;Helvetica Neue&quot;, sans-serif; font-size: 12px; font-weight: 200;" fill="rgb(50, 49, 63)" stroke="none" stroke-width="1px">0.1</text><text x="0" y="98.33333333333333" dx="0em" dy="0.3em" style="text-anchor: end; visibility: hidden; font-family: &quot;Helvetica Neue&quot;, sans-serif; font-size: 12px; font-weight: 200;" fill="rgb(50, 49, 63)" stroke="none" stroke-width="1px">0.15</text><text x="0" y="78.66666666666666" dx="0em" dy="0.3em" style="text-anchor: end; visibility: inherit; font-family: &quot;Helvetica Neue&quot;, sans-serif; font-size: 12px; font-weight: 200;" fill="rgb(50, 49, 63)" stroke="none" stroke-width="1px">0.2</text><text x="0" y="59" dx="0em" dy="0.3em" style="text-anchor: end; visibility: hidden; font-family: &quot;Helvetica Neue&quot;, sans-serif; font-size: 12px; font-weight: 200;" fill="rgb(50, 49, 63)" stroke="none" stroke-width="1px">0.25</text><text x="0" y="39.33333333333334" dx="0em" dy="0.3em" style="text-anchor: end; visibility: inherit; font-family: &quot;Helvetica Neue&quot;, sans-serif; font-size: 12px; font-weight: 200;" fill="rgb(50, 49, 63)" stroke="none" stroke-width="1px">0.3</text><text x="0" y="19.666666666666686" dx="0em" dy="0.3em" style="text-anchor: end; visibility: hidden; font-family: &quot;Helvetica Neue&quot;, sans-serif; font-size: 12px; font-weight: 200;" fill="rgb(50, 49, 63)" stroke="none" stroke-width="1px">0.35</text><text x="0" y="0" dx="0em" dy="0.3em" style="text-anchor: end; visibility: hidden; font-family: &quot;Helvetica Neue&quot;, sans-serif; font-size: 12px; font-weight: 200;" fill="rgb(50, 49, 63)" stroke="none" stroke-width="1px">0.4</text></g><line x1="58.59375" y1="0" x2="58.59375" y2="177" fill="rgb(0, 0, 0)" stroke="rgb(204, 204, 204)" stroke-width="1px"></line></g></g><g transform="translate(58, 0)" clip-path="url(#clip_0)"><clipPath id="clip_0"><rect width="271" height="177"></rect></clipPath><g><g><g><line x1="0" y1="0" x2="0" y2="177" fill="rgb(0, 0, 0)" stroke="rgb(60, 60, 60)" stroke-width="1px" opacity="0.25"></line><line x1="22.6171875" y1="0" x2="22.6171875" y2="177" fill="rgb(0, 0, 0)" stroke="rgb(60, 60, 60)" stroke-width="1px" opacity="0.25"></line><line x1="45.234375" y1="0" x2="45.234375" y2="177" fill="rgb(0, 0, 0)" stroke="rgb(60, 60, 60)" stroke-width="1px" opacity="0.25"></line><line x1="67.8515625" y1="0" x2="67.8515625" y2="177" fill="rgb(0, 0, 0)" stroke="rgb(60, 60, 60)" stroke-width="1px" opacity="0.25"></line><line x1="90.46875" y1="0" x2="90.46875" y2="177" fill="rgb(0, 0, 0)" stroke="rgb(60, 60, 60)" stroke-width="1px" opacity="0.25"></line><line x1="113.0859375" y1="0" x2="113.0859375" y2="177" fill="rgb(0, 0, 0)" stroke="rgb(60, 60, 60)" stroke-width="1px" opacity="0.25"></line><line x1="135.703125" y1="0" x2="135.703125" y2="177" fill="rgb(0, 0, 0)" stroke="rgb(60, 60, 60)" stroke-width="1px" opacity="0.25"></line><line x1="158.3203125" y1="0" x2="158.3203125" y2="177" fill="rgb(0, 0, 0)" stroke="rgb(60, 60, 60)" stroke-width="1px" opacity="0.25"></line><line x1="180.9375" y1="0" x2="180.9375" y2="177" fill="rgb(0, 0, 0)" stroke="rgb(60, 60, 60)" stroke-width="1px" opacity="0.25"></line><line x1="203.5546875" y1="0" x2="203.5546875" y2="177" fill="rgb(0, 0, 0)" stroke="rgb(60, 60, 60)" stroke-width="1px" opacity="0.25"></line><line x1="226.171875" y1="0" x2="226.171875" y2="177" fill="rgb(0, 0, 0)" stroke="rgb(60, 60, 60)" stroke-width="1px" opacity="0.25"></line><line x1="248.7890625" y1="0" x2="248.7890625" y2="177" fill="rgb(0, 0, 0)" stroke="rgb(60, 60, 60)" stroke-width="1px" opacity="0.25"></line><line x1="271.40625" y1="0" x2="271.40625" y2="177" fill="rgb(0, 0, 0)" stroke="rgb(60, 60, 60)" stroke-width="1px" opacity="0.25"></line></g><g><line x1="0" y1="177" x2="271.40625" y2="177" fill="rgb(0, 0, 0)" stroke="rgb(60, 60, 60)" stroke-width="1px" opacity="0.25"></line><line x1="0" y1="157.33333333333334" x2="271.40625" y2="157.33333333333334" fill="rgb(0, 0, 0)" stroke="rgb(60, 60, 60)" stroke-width="1px" opacity="0.25"></line><line x1="0" y1="137.66666666666666" x2="271.40625" y2="137.66666666666666" fill="rgb(0, 0, 0)" stroke="rgb(60, 60, 60)" stroke-width="1px" opacity="0.25"></line><line x1="0" y1="118" x2="271.40625" y2="118" fill="rgb(0, 0, 0)" stroke="rgb(60, 60, 60)" stroke-width="1px" opacity="0.25"></line><line x1="0" y1="98.33333333333333" x2="271.40625" y2="98.33333333333333" fill="rgb(0, 0, 0)" stroke="rgb(60, 60, 60)" stroke-width="1px" opacity="0.25"></line><line x1="0" y1="78.66666666666666" x2="271.40625" y2="78.66666666666666" fill="rgb(0, 0, 0)" stroke="rgb(60, 60, 60)" stroke-width="1px" opacity="0.25"></line><line x1="0" y1="59" x2="271.40625" y2="59" fill="rgb(0, 0, 0)" stroke="rgb(60, 60, 60)" stroke-width="1px" opacity="0.25"></line><line x1="0" y1="39.33333333333334" x2="271.40625" y2="39.33333333333334" fill="rgb(0, 0, 0)" stroke="rgb(60, 60, 60)" stroke-width="1px" opacity="0.25"></line><line x1="0" y1="19.666666666666686" x2="271.40625" y2="19.666666666666686" fill="rgb(0, 0, 0)" stroke="rgb(60, 60, 60)" stroke-width="1px" opacity="0.25"></line><line x1="0" y1="0" x2="271.40625" y2="0" fill="rgb(0, 0, 0)" stroke="rgb(60, 60, 60)" stroke-width="1px" opacity="0.25"></line></g></g></g><g><g><line x1="0" y1="157.33333333333334" x2="271.40625" y2="157.33333333333334" fill="rgb(0, 0, 0)" stroke="rgb(153, 153, 153)" stroke-width="1.5px"></line></g></g><g><g><line x1="22.6171875" y1="0" x2="22.6171875" y2="177" fill="rgb(0, 0, 0)" stroke="rgb(153, 153, 153)" stroke-width="1.5px"></line></g></g><g><g><g><g><g><path stroke="rgb(0, 153, 136)" stroke-width="2px" d="M23.97421875,-3.3831482728322158L24.200390625,3.865455428759276L24.4265625,20.093464295069367L24.652734375,33.164355595906585L24.87890625,52.15021057923636L25.105078125,55.137414177258805L25.33125,56.12017218271893L25.557421875,56.63249297936758L25.78359375,56.845908204714476L26.009765625,57.36350401242575L26.2359375,57.466648062070206L26.462109375,57.50240091482799L26.68828125,57.74093691507976L26.914453125,57.78688812255861L27.140625,57.65768551826477L27.366796875,57.95694275697073L27.59296875,57.85924955209097L27.819140625,58.05267834663391L28.0453125,57.99945934613547L28.271484375,58.291566014289856L28.49765625,58.397382736206055L28.723828125,58.790488282839476L28.950000000000003,59.94146639108659L29.176171874999998,61.54633575677873L29.40234375,63.18051073948544L29.628515625,63.81241017580032L29.8546875,64.8658767739932L30.080859375000003,66.26532548666L30.307031249999998,68.64695781469345L30.533203125,70.72105113665263L30.759375,71.90982762972514L30.985546875,73.43415343761446L31.211718750000003,74.54560412963231L31.437890624999998,75.55064612627031L31.6640625,76.79874304930371L32.11640625,78.56390241781871L32.342578125,79.85497309764227L32.56875,80.42696013053259L32.794921875,80.91229631503424L33.02109375,81.68016209204991L33.247265625,81.32646673917772L33.4734375,81.91299521923067L33.699609375,82.25459321339926L33.92578125,82.00426463286082L34.151953125,83.16047086318335L34.378125000000004,83.77566023667653L34.604296875,83.43541030089061L34.83046875,84.04224757353465L35.056640625,84.26109019915265L35.2828125,84.60802181561789L35.508984375,84.99978516499202L35.735156249999996,85.54346883296968L35.961328125,85.25700642665228L36.1875,85.5954452753067L36.413671875,85.87824447949728L36.639843750000004,85.8292220433553L36.866015625,86.14060594638188L37.092187499999994,84.84425439437231L37.318359375,86.9706875483195L37.54453125,86.86297768354416L37.770703125,87.43919058640799L37.996875,87.07310481866202L38.223046875,87.96796941757204L38.44921875,87.7987294793129L38.675390625,88.06861076752345L38.901562500000004,88.58546221256256L39.127734375,88.29099351167679L39.353906249999994,88.37757402658464L39.580078125,88.57338829835257L39.80625,89.1628883679708L40.032421875,89.42792250712714L40.25859375,89.51419824361801L40.484765625,89.57200650374095L40.7109375,89.39553980032603L40.937109375000006,89.96348265806834L41.163281250000004,90.24148160219194L41.389453124999996,90.12365543842316L41.615624999999994,90.43641670544943L41.841796875,90.52343094348909L42.06796875,90.85150732596716L42.294140625,90.91927949587505L42.5203125,91.61718104283015L42.746484375,91.40773379802705L42.97265625,91.64832705259325L43.198828125000006,91.55381643772125L43.425000000000004,92.21590065956116L43.651171874999996,92.08229049046835L43.877343749999994,91.86442081133525L44.103515625,92.25341184933981L44.3296875,92.53230168422064L44.555859375,92.36795578400294L44.78203125,92.585344851017L45.008203125,92.97460550069809L45.234375,92.98986200491588L45.460546875000006,93.20045216878256L45.68671875,93.58120832840602L45.912890624999996,93.14366960525513L46.1390625,93.41270103057226L46.365234375,93.59688683350882L46.59140625,93.79604780673982L46.817578125,93.87058371305467L47.04375,93.66906070709229L47.269921875,94.07579922676086L47.49609375,94.30255436897279L47.722265625000006,94.41575024525325L47.9484375,94.155721505483L48.174609374999996,94.31138708194098L48.40078125,94.34699340661368L48.626953125,94.49203862746558L48.853125,94.28805981079738L49.079296875000004,94.47984749078752L49.30546875,94.41913211345674L49.531640625,94.52334874868393L49.7578125,94.70445160071056L49.983984375,94.77466199795406L50.21015625,94.87321678797404L50.436328124999996,94.85685253143312L50.6625,94.89718878269196L50.888671875,94.95417062441508L51.11484375,95.43525749444963L51.341015625000004,95.53743445873262L51.5671875,95.0436934232712L51.793359375,95.3014363249143L52.01953125,95.31373882293701L52.245703125,95.39784008264542L52.471875,95.11463059981665L52.698046874999996,95.66579306125641L52.92421875,95.32836818695068L53.150390625,95.89061403274536L53.3765625,95.6414166490237L53.602734375000004,95.74590289592744L53.82890625,95.76116526126862L54.055078124999994,95.8087810277939L54.28125,95.73019508520763L54.507421875,95.81956549485525L54.73359375,95.83829178412756L54.959765625,96.0073793331782L55.1859375,96.03240633010864L55.412109375,96.16704805692038L55.63828125,96.16070632139842L55.864453125000004,96.13427851597469L56.090625,96.12602605422339L56.316796874999994,96.07532733678819L56.54296875,95.99359397093455L56.769140625,96.15820362170538L56.9953125,96.83975849548976L57.221484375,96.54190792640051L57.44765625,96.64593700567882L57.673828125,96.47960418462755L57.900000000000006,96.58390287558238L58.126171875000004,96.6235475142797L58.352343749999996,96.78324554363887L58.578515624999994,96.71719654401144L58.8046875,97.03763002157211L59.030859375,96.79802143573761L59.25703125,96.71588951349258L59.483203125,96.84723728895187L59.709375,96.9744295279185L59.935546875,97.1271293759346L60.161718750000006,97.23568324247996L60.387890625000004,96.90348062912624L60.614062499999996,97.4099637468656L60.840234374999994,97.31524799267451L61.06640625,97.36067169904709L61.292578125,97.20143669843675L61.51875,97.02134782075883L61.744921875,97.04107636213304L61.97109375,97.38927984237672L62.197265625,97.49683145682017L62.423437500000006,97.56576999028525L62.649609375,97.65347584088644L62.875781249999996,97.5538074374199L63.101953125,97.56333762407303L63.328125,97.81142725547156L63.554296875,97.4324821829796L63.78046875,97.63180140654246L64.006640625,97.81805032491684L64.2328125,98.14510687192282L64.458984375,97.79424830277762L64.68515625,97.84115487337112L64.911328125,97.68330309788387L65.1375,97.80856116612753L65.36367187500001,97.85682751735052L65.58984375,98.24704353014629L65.81601562499999,98.11564300457637L66.0421875,98.19165591398875L66.268359375,98.07875309387843L66.49453125,98.10826971133551L66.946875,98.30069625377656L67.173046875,98.09196406602861L67.39921875,98.09954249858856L67.62539062500001,98.42878524462382L67.8515625,98.13430482149124L68.077734375,98.15539314349493L68.30390625,98.51973815759024L68.530078125,98.6317325035731L68.982421875,98.3886892994245L69.20859375,98.96295630931854L69.43476562500001,98.61188087860744L69.6609375,98.68866159518561L69.88710937500001,98.84059949715933L70.11328125,98.73346988360088L70.33945312499999,99.01445213953654L70.565625,98.41749672094981L70.79179687499999,98.73495274782181L71.01796875,99.07359673579535L71.244140625,98.96344278256099L71.47031249999999,98.56387827793758L71.696484375,99.1463508605957L71.92265625,99.14480938514075L72.148828125,99.09632031122844L72.375,98.9886221686999L72.601171875,99.4289683699608L72.82734375,99.3151101867358L73.053515625,99.32724271217982L73.505859375,99.26752372582754L73.73203125,99.60165464878082L73.95820312500001,98.94420657555263L74.18437499999999,98.95764613151552L74.410546875,99.29657145341238L74.63671875,99.46513150135677L74.86289062499999,99.47353635231654L75.0890625,99.92171301444372L75.315234375,99.70497453212738L75.54140625,99.82615911960602L75.767578125,99.73142578204474L75.99375,99.3692318002383L76.219921875,99.84095845619838L76.44609375,99.68084428707759L76.672265625,99.8834340174993L76.8984375,100.02393686771394L77.124609375,99.9626939892769L77.35078125,99.74480086565018L77.576953125,99.65618067979813L77.80312500000001,100.04388813177745L78.029296875,100.26636465390524L78.25546875,99.65312703450522L78.48164062500001,99.83944628636043L78.70781249999999,100.26358648141226L78.933984375,100.16026073694229L79.16015625,99.90466300646465L79.38632812499999,100.36857678492865L79.6125,100.02478673060736L79.838671875,99.77679673830669L80.06484375,100.19014660517375L80.291015625,100.44529889027278L80.5171875,100.48495525121689L80.743359375,100.19200458129248L80.96953125,100.05576276779175L81.19570312500001,100.39299422502518L81.421875,100.33806963761648L81.648046875,100.4252245426178L81.87421875000001,100.4131506284078L82.100390625,100.407131254673L82.32656250000001,100.512115697066L82.552734375,100.6416641076406L83.005078125,100.81120882431667L83.23124999999999,100.70449535051982L83.457421875,100.48443947235744L83.68359375,100.39680395523708L83.90976562499999,100.46540840466818L84.1359375,100.76681667566301L84.362109375,100.40243649482727L84.58828125,100.67128036419551L84.814453125,100.93937987089157L85.040625,100.69024695952734L85.266796875,100.780912677447L85.49296875,100.96968774000804L85.71914062500001,100.87028308709463L85.9453125,100.96223825216293L86.171484375,101.12860037883124L86.39765625000001,101.27382729450862L86.623828125,101.10102965434393L86.85000000000001,101.27290709813437L87.076171875,101.20422059297563L87.30234374999999,101.41171022256216L87.528515625,101.2047832608223L87.980859375,101.05083499352138L88.43320312499999,101.29592959086101L88.659375,101.0921207467715L88.885546875,101.64581521352133L89.11171875,101.32883393764496L89.337890625,101.50119785467784L89.5640625,101.62491444746654L89.790234375,101.42528458436331L90.01640625,101.52243856589L90.24257812500001,101.45842923720679L90.46875,101.70703464746477L90.694921875,102.011707564195L90.92109375000001,101.52358734607697L91.14726562499999,101.9493510723114L91.3734375,101.70427405834198L91.599609375,101.58290191491446L92.051953125,101.38394021987916L92.278125,101.9976057012876L92.504296875,102.09796571731569L92.73046875,102.10447742541632L92.956640625,101.71226276954016L93.408984375,102.0585613846779L93.63515625,101.72213290135066L93.861328125,101.98619409402212L94.0875,102.01217059294383L94.313671875,102.28474213679632L94.53984375,102.15670003493628L94.76601562500001,102.48049193620682L94.9921875,102.47750862439474L95.218359375,102.17853271961212L95.44453125000001,102.64031304915747L95.67070312499999,102.4205150604248L95.896875,102.5665625333786L96.123046875,102.52860003709793L96.34921874999999,102.6224776506424L96.575390625,102.4329582254092L96.8015625,102.57130418221156L97.027734375,102.99218559265138L97.25390625,102.62683246533076L97.480078125,102.79016439119975L97.70625,102.62598260243735L97.932421875,103.01509672403336L98.15859375000001,102.79120181004207L98.384765625,102.69890083869299L98.6109375,103.02156154314677L98.83710937500001,102.80006968975069L99.06328125,102.70971461137137L99.28945312500001,102.99343401193619L99.515625,102.74562571446101L99.74179687499999,102.80711476008098L99.96796875,102.97605578104655L100.19414062499999,103.01987940073015L100.4203125,102.8956528902054L100.646484375,103.33009107907614L100.87265624999999,102.92712126175563L101.098828125,102.80224416653316L101.325,103.2923923333486L101.551171875,103.37079658110937L101.77734375,103.39830283323924L102.003515625,103.45135772228241L102.2296875,102.92218619585039L102.455859375,103.03398126363754L102.68203125000001,103.3320076664289L102.908203125,103.16990071535112L103.134375,103.60789074500403L103.36054687500001,103.47482566038768L103.58671875,103.64621076981227L103.81289062500001,103.3764701485634L104.0390625,103.68176434437434L104.26523437499999,103.42428519328436L104.49140625,104.00364551941554L104.71757812499999,103.70245410998663L104.94375,103.53990171353023L105.169921875,103.95719025532405L105.39609374999999,103.77829118569693L105.622265625,103.74298963944118L105.8484375,103.76084848244986L106.30078125,103.86341228087744L106.526953125,104.0236671169599L106.753125,104.4119430979093L106.979296875,103.57864373922348L107.20546875000001,104.1783773303032L107.431640625,104.50635993480682L107.6578125,104.04760394493739L107.88398437500001,104.0967025756836L108.11015624999999,104.04920989274979L108.336328125,104.10210067033769L108.5625,104.2258524298668L108.78867187499999,104.27207911014557L109.01484375,104.11446177959442L109.241015625,104.26396731535594L109.4671875,104.50439059734344L109.693359375,104.43052285909654L109.91953125,104.69637169440588L110.145703125,104.42933891216914L110.371875,104.24285554885864L110.598046875,104.29782116413116L110.82421875,104.29602179924647L111.050390625,104.49953758716583L111.2765625,104.73817322651546L111.502734375,104.72493880987167L111.955078125,104.95368673404059L112.18125,104.81825375556946L112.40742187500001,104.89250246683757L112.63359374999999,104.8577460050583L112.859765625,104.9603625535965L113.0859375,104.98080029090247L113.31210937499999,104.99181334177653L113.53828125,105.0384092728297L113.764453125,105.50081674257915L113.990625,105.19219928979874L114.216796875,105.29145155350368L114.44296875,105.13853484392168L114.669140625,105.25722845395407L114.8953125,105.68332040309906L115.12148437500001,105.29066030184428L115.34765625,104.99167267481486L115.573828125,105.43697152535121L115.80000000000001,105.14118407169978L116.026171875,105.4111884435018L116.25234375000001,105.33667598168056L116.478515625,105.15857402483623L116.70468749999999,105.3673355182012L117.15703124999999,105.30564719438554L117.383203125,105.69435103734335L117.609375,105.511782904466L117.83554687499999,105.65869782368343L118.06171875,105.27590785423915L118.287890625,106.01980749766032L118.5140625,105.73629909753801L118.740234375,105.85467620690665L118.96640625,106.10413734118144L119.192578125,105.72514537970225L119.41875,106.32730547587077L119.64492187500001,105.93542490402858L119.87109375,105.92422429720561L120.32343750000001,106.11787581443787L120.549609375,106.1251787741979L120.77578125000001,105.78732603788376L121.001953125,106.26669559876125L121.22812499999999,106.10971126953761L121.454296875,106.46973663568498L121.68046874999999,106.48968203862509L121.906640625,106.21609065930049L122.1328125,106.56976842880249L122.35898437499999,106.03821728626887L122.58515625,106.02568034331004L122.811328125,106.17781752347948L123.0375,106.36110657453537L123.263671875,106.47458378473918L123.48984375,106.35448936621349L123.716015625,106.21515874067943L123.9421875,106.75084197521211L124.16835937500001,106.97626664241156L124.39453125,106.84428586562476L124.620703125,106.48289485772452L124.84687500000001,106.57984956105551L125.07304687499999,106.75005658467612L125.29921875,106.67843951781592L125.525390625,106.70407021045685L125.75156249999999,106.75631040334702L125.977734375,106.66730338335037L126.20390625,106.66716857751211L126.430078125,106.89164374272029L126.65625,106.58050014575323L126.882421875,106.80277152856192L127.10859375,106.92753726243973L127.334765625,106.81465788682303L127.5609375,106.82674938440324L127.787109375,107.20295731226604L128.01328125,106.66781330108644L128.23945312499998,107.23118448257448L128.465625,107.04934312899908L128.691796875,106.98071523507437L128.91796875,106.95172025760016L129.144140625,106.90703505277635L129.3703125,107.134077390035L129.596484375,107.04390400648117L129.82265625,107.04933140675227L130.048828125,107.0242164929708L130.275,106.84479578336081L130.501171875,106.99053847789766L130.72734375000002,107.18144698937735L130.953515625,107.0035032828649L131.1796875,107.29277902841568L131.405859375,107.21276297171912L131.63203124999998,107.55941911538443L131.858203125,107.05448919534683L132.084375,107.04779579242071L132.310546875,107.03538193305334L132.53671875,107.30838133891424L132.762890625,107.18579008181891L132.9890625,107.13674420118332L133.215234375,107.29797198375067L133.44140625,107.07213117678961L133.667578125,107.33659092585246L133.89375,107.31472307443619L134.119921875,107.34769189357758L134.572265625,107.50042104721071L134.7984375,107.19030314683916L135.024609375,107.19993883371353L135.25078125000002,107.18519810835521L135.476953125,107.15669546524684L135.703125,107.33101699749629L136.15546875,107.25788776079814L136.381640625,107.63886078198752L136.6078125,107.22639594475429L136.833984375,107.12036236127219L137.06015625,107.3054624994596L137.286328125,107.48947246869406L137.51250000000002,107.65536570549011L137.738671875,107.37098985910416L137.96484375,107.2075055440267L138.191015625,107.54480147361755L138.4171875,107.1885916988055L138.64335937500002,107.26815058787665L138.86953125000002,107.70627542336783L139.095703125,107.41064035892488L139.321875,107.56844524542491L139.548046875,107.49008788665137L139.77421875000002,107.40557634830476L140.00039062500002,107.493792116642L140.2265625,107.51076593001685L140.45273437499998,107.06026240189871L140.67890624999998,107.15605074167252L140.905078125,107.49420239528021L141.13125,107.2684495051702L141.357421875,107.49707434574763L142.262109375,107.63872597614925L142.48828125,107.49793593088786L142.714453125,107.57737759749095L142.94062499999998,107.70085388422012L143.166796875,107.68614832560222L143.39296875,107.58717153469722L143.619140625,107.79001329342525L143.8453125,107.46630344788234L144.071484375,107.6416448156039L144.29765625,107.36570312579474L144.523828125,107.7054372827212L144.75,107.55650027592978L144.976171875,107.66503069798152L145.20234375,107.734789788723L145.42851562500002,107.4792916973432L145.6546875,107.78969679276149L145.880859375,107.48919113477072L146.10703125,107.46967945496242L146.333203125,107.70957523584367L146.55937500000002,107.69341611862183L146.78554687500002,107.72497826814653L147.01171875,107.74660581350328L147.237890625,107.55661749839783L147.4640625,107.78883520762126L147.69023437500002,107.64230712254843L147.91640625000002,107.66219977537791L148.142578125,107.8649536172549L148.36874999999998,107.83996178706488L148.59492187499998,107.80289604266486L148.82109375,107.7583515048027L149.047265625,107.69222044944765L149.2734375,107.85896941026053L149.49960937499998,107.73265633980434L149.72578124999998,107.75918378432593L149.951953125,107.89925291140875L150.178125,107.53935062885286L150.404296875,107.73145480950674L150.63046875,107.66714070240657L150.85664062499998,107.80814760923386L151.0828125,107.74448994795482L151.308984375,108.0484360853831L151.53515625,107.98008952538173L151.761328125,107.52541873852412L151.9875,107.63807539145152L152.213671875,107.52170278628668L152.43984375,107.76121759414674L152.666015625,107.97972613573074L152.8921875,107.9725755651792L153.118359375,107.98055255413057L153.34453125,107.80667646725973L153.570703125,107.80659441153209L153.796875,108.00812327861786L154.023046875,108.00564402341843L154.24921875,108.38115447759628L154.47539062500002,108.07387922207515L154.7015625,108.0776068965594L154.927734375,107.58400652805965L155.15390625,108.14710809787115L155.380078125,108.18900926907858L155.60625000000002,107.77613415320715L155.83242187500002,107.82838020722072L156.284765625,107.66755684216818L156.5109375,108.25191377600035L156.73710937500002,108.21533450484276L156.96328125000002,108.16446874539058L157.189453125,107.94409636656444L157.41562499999998,108.20572519302368L157.64179687499998,108.31180273493132L157.86796875,108.16177262862524L158.094140625,108.13176367680232L158.3203125,108.03436938921611L158.54648437499998,108.29332261284193L158.77265624999998,108.2137900988261L158.998828125,108.4133760035038L159.225,108.15354947249095L159.451171875,108.1524182756742L159.67734375,107.95738939444225L160.1296875,107.91292691230775L160.355859375,108.07225569089255L160.58203125,108.06375706195831L160.808203125,108.33097446958224L161.034375,108.11138455073039L161.260546875,108.29142360885939L161.48671875,108.1363236308098L161.712890625,108.10833676656088L161.9390625,108.33832138776779L162.165234375,108.31671435634296L162.39140625000002,108.37188218037288L162.617578125,108.2938676973184L162.84375,108.4343002140522L163.069921875,108.2731369038423L163.29609375,108.56455488999686L163.52226562500002,108.40358792742094L163.74843750000002,108.28646802902222L163.974609375,108.19383590420088L164.20078125,108.22542442878088L164.426953125,108.12417352199554L164.65312500000002,108.49693803985915L164.87929687500002,108.293272793293L165.10546875,108.86437186598778L165.33164062499998,108.79964454968771L165.55781249999998,108.74586288134257L165.783984375,108.46781997879347L166.01015625,108.52174524466197L166.236328125,108.47322393457095L166.46249999999998,108.31497360269229L166.68867187499998,108.54616561532022L166.91484375,108.3560454249382L167.141015625,108.72686698039374L167.3671875,108.36481659611067L167.593359375,108.53945755958557L167.81953124999998,108.54945077498755L168.045703125,108.45002560814223L168.271875,108.32336966196696L168.498046875,108.3829890092214L168.72421875,108.65187097589175L168.950390625,108.66368113954863L169.1765625,108.46459343036017L169.402734375,108.66197555263838L169.62890625,108.68713442484538L169.855078125,108.62174480160078L170.08125,109.10081544518471L170.307421875,108.65230176846187L170.759765625,108.71155772606532L170.9859375,108.95657319823901L171.212109375,108.49118241667747L171.43828125000002,108.85861917336783L171.664453125,108.6135450899601L171.890625,108.85624248782794L172.116796875,108.73429302374522L172.34296875,108.89441305398941L172.56914062500002,108.74947040279707L172.79531250000002,108.91680547595024L173.021484375,108.66720074415208L173.24765625,108.698220739762L173.473828125,108.95985835790636L173.70000000000002,109.04015867908797L173.92617187500002,108.8632025718689L174.15234375,109.07588222622873L174.37851562499998,109.05041564504306L174.60468749999998,108.67218856016795L174.830859375,109.19781410694124L175.05703125,109.07670571406683L175.283203125,109.00906248887381L175.50937499999998,109.08539482951164L175.73554687499998,108.7022268176079L175.96171875,109.03948758045833L176.187890625,109.0406304995219L176.4140625,108.96028915047646L176.640234375,109.19497732321422L176.86640624999998,109.18470570445062L177.092578125,109.01867180069289L177.31875,109.09521807233493L177.544921875,109.21514837940535L177.77109375,109.12175430854163L177.997265625,109.17349630594255L178.2234375,109.31733706593513L178.449609375,109.2695777018865L178.67578125,109.51759406924248L178.901953125,109.36575873692831L179.128125,108.86671045422554L179.35429687500002,109.61187316974005L179.58046875,109.20587315162024L179.806640625,109.38981278737387L180.0328125,109.26023507118225L180.258984375,109.22321035464606L180.48515625000002,109.27069131533305L180.71132812500002,109.30986706415813L180.9375,109.05251978834471L181.163671875,109.48474247256915L181.38984375,109.54725428422293L181.61601562500002,109.2750021715959L181.84218750000002,109.47850623726845L182.068359375,109.11812627315521L182.29453124999998,109.42068918546042L182.52070312499998,109.52887673179309L182.746875,109.80471878250441L182.973046875,109.56300019224486L183.19921875,109.49407045046489L183.42539062499998,109.62215651075046L183.65156249999998,109.66274772087733L183.877734375,109.48957789937656L184.10390625,109.63515648245811L184.330078125,109.59915746251743L184.55625,109.77031105756761L184.78242187499998,109.8743108312289L185.00859375,109.64512332280478L185.234765625,109.27492597699165L185.4609375,109.65366297960281L185.687109375,109.68351661165556L185.91328125,109.89421227574348L186.139453125,109.79074000318846L186.365625,110.11432676513991L186.591796875,110.08015641570091L186.81796875,109.71671987573306L187.044140625,110.05666503310205L187.2703125,109.67408606410027L187.496484375,110.02393652002017L187.72265625,110.00539778669676L187.948828125,109.60806050896645L188.175,109.99936082959175L188.40117187500002,110.15770787000658L188.62734375,109.89150443673135L188.853515625,109.80955420931181L189.0796875,109.86695512135825L189.305859375,109.89571272333464L189.53203125000002,110.1271919310093L189.75820312500002,110.18158608675003L189.984375,110.20970775683722L190.210546875,110.00957969824474L190.43671875,110.47528111934662L190.66289062500002,110.25458637873332L190.88906250000002,110.05488618214926L191.115234375,110.09133357803027L191.34140624999998,110.25462447603545L191.56757812499998,110.34925817449889L191.79375,110.01784974336624L192.019921875,110.3649835685889L192.24609375,110.03812629977863L192.47226562499998,110.07122992475828L192.69843749999998,110.36210868755977L192.924609375,110.41533061861992L193.15078125,110.21968045830727L193.376953125,110.06576442718507L193.603125,110.23103931546211L193.82929687499998,110.40717486540477L194.05546875,110.22388581434886L194.281640625,110.27109130223593L194.5078125,110.76657016078632L194.733984375,110.83558195829391L194.96015625,110.38231491049132L195.186328125,110.34155958890915L195.4125,110.57932192087173L195.638671875,110.60809124509494L195.86484375,110.4162683983644L196.091015625,110.15211342771849L196.31718750000002,110.5317676961422L196.543359375,110.70613318681717L196.76953125,110.45335758725803L196.995703125,110.81868433952332L197.221875,110.97272052367529L197.44804687500002,110.64312611023585L197.67421875000002,110.65036166707675L197.900390625,110.91463679075241L198.1265625,110.80323734879495L198.57890625000002,111.12149634957314L198.80507812500002,110.92994311451913L199.03125,111.0164181292057L199.25742187499998,111.11089064677556L199.48359374999998,110.89575811227164L199.709765625,110.91014717022578L199.9359375,111.08628565073013L200.162109375,110.89576397339503L200.38828124999998,111.1182023982207L200.61445312499998,110.97100907564165L200.840625,111.02574610710144L201.066796875,110.88904419541359L201.29296875,110.99769770105681L201.519140625,111.1817457675934L201.74531249999998,111.1204091111819L201.971484375,111.06694980462392L202.19765625,111.20914358894031L202.423828125,111.23302766680717L202.65,111.13699902097385L202.876171875,111.19879577557246L203.10234375,111.11544473965964L203.328515625,111.42493843038876L203.5546875,111.19158073266348L203.780859375,111.50526805718741L204.00703125,111.59662538766862L204.233203125,111.30002030730247L204.459375,111.1453423301379L204.685546875,111.5448775291443L204.91171875,111.65608941515286L205.137890625,111.3988124728203L205.36406250000002,111.70545765757561L205.590234375,111.62905791401863L206.042578125,111.55500261982283L206.26875,111.31697067618371L206.49492187500002,111.70832667748134L206.72109375000002,111.68647640943527L206.947265625,111.7116528650125L207.1734375,111.49483818809192L207.399609375,111.5115218758583L207.62578125000002,111.48020882407825L207.85195312500002,111.64471297462782L208.078125,111.93360481659572L208.30429687499998,111.98765609661739L208.53046874999998,112.04869969685873L208.756640625,111.83725967009862L208.9828125,111.97698592146239L209.208984375,111.74013792475066L209.43515624999998,111.98786709705989L209.66132812499998,111.8919292986393L209.8875,111.77508487304053L210.113671875,112.03624774018924L210.33984375,112.0136267344157L210.566015625,111.82684445381165L210.79218749999998,111.90770744283994L211.018359375,111.9554873208205L211.24453125,112.15302476286888L211.470703125,112.29420457283656L211.696875,112.18814754486084L211.923046875,112.20789660016696L212.14921875,112.36151957511902L212.375390625,111.94165213902791L212.6015625,111.96717440088591L212.827734375,111.84943029284479L213.05390625,112.24678222338359L213.28007812500002,112.54886745413145L213.50625,112.35134173432986L213.732421875,112.24317177136739L213.95859375,112.47973550359409L214.184765625,112.4071396291256L214.41093750000002,112.38356912136078L214.63710937500002,112.1401830414931L214.86328125,112.52130552132925L215.089453125,112.49777897198996L215.315625,112.52467859784763L215.54179687500002,112.77437124649684L215.76796875000002,112.34323287010193L215.994140625,112.53184675176938L216.22031249999998,112.66578514377277L216.44648437499998,112.65142832199733L216.898828125,112.8014584283034L217.125,112.72460737824441L217.35117187499998,112.53122840325038L217.57734374999998,112.74078407883644L217.803515625,112.50474491715433L218.255859375,112.85078857342403L218.48203125,112.95989338556926L218.70820312499998,113.00068973501524L218.934375,112.73694797356924L219.160546875,112.66435796022415L219.38671875,112.64487851659457L219.612890625,112.9891667664051L219.8390625,112.90792866547902L220.065234375,112.87822449207306L220.29140625,112.92713849743208L220.517578125,112.84871080517769L220.74375,113.39315934975943L220.969921875,112.8440951704979L221.19609375,113.21197444200516L221.422265625,113.29673507809639L221.6484375,113.10730356971423L221.874609375,112.92660513520241L222.10078125,113.1794627904892L222.32695312500002,113.19151619076729L222.553125,113.15745134154956L222.779296875,113.35359383622806L223.00546875,113.12367661794028L223.231640625,113.30436333020529L223.45781250000002,113.29480383793513L223.68398437500002,113.22885740796727L223.91015625,113.24379155039787L224.136328125,113.08402318755786L224.3625,113.21318476398787L224.58867187500002,113.48546032110852L224.81484375000002,113.58386858304343L225.041015625,113.7427548468113L225.26718749999998,113.53146720925967L225.49335937499998,113.71804141998291L225.71953125,113.67028205593428L225.945703125,113.6530386308829L226.171875,113.71445441246033L226.39804687499998,113.57213168342909L226.62421874999998,113.54410965243976L226.850390625,113.5013234515985L227.0765625,113.09319877624512L227.302734375,113.5248734454314L227.52890625,113.61807116866112L227.75507812499998,113.5472277700901L227.98125,113.7924513121446L228.207421875,113.94428957502048L228.43359375,113.74150056640308L228.659765625,113.57931742072105L228.8859375,113.93582025170326L229.112109375,113.74106098214787L229.564453125,113.99729464451474L229.790625,113.95789324243864L230.016796875,114.09161184231442L230.24296875000002,113.8360932370027L230.469140625,114.0469237069289L230.6953125,114.16968786716461L230.921484375,114.14836803078651L231.14765625,114.26197418570518L231.37382812500002,114.0841535627842L231.60000000000002,113.85919192433357L231.826171875,113.82459078232449L232.05234375,114.30480727553368L232.278515625,114.4114562769731L232.50468750000002,114.0547600289186L232.95703125,114.35314689079922L233.18320312499998,114.49342115720114L233.40937499999998,114.44653216997783L233.635546875,114.5442458887895L233.86171875,114.05241557955742L234.087890625,114.34064218401909L234.31406249999998,114.34834956129393L234.54023437499998,114.33052295446396L234.76640625,114.07411052783331L234.992578125,114.46335652470589L235.21875,114.14592101176581L235.444921875,114.53786898652713L235.67109374999998,114.50201063354811L235.897265625,114.62958091497421L236.1234375,114.54012258847555L236.349609375,114.20426263411841L236.801953125,114.37314211328825L237.028125,114.63725312550864L237.254296875,114.57290678222975L237.706640625,114.41196033358574L237.9328125,114.78699603676796L238.158984375,114.50833185513815L238.38515625,114.60543894767761L238.611328125,114.44420823454857L238.8375,114.63140958547592L239.063671875,114.90260669589043L239.28984375000002,114.88473026951155L239.516015625,114.46318362156552L239.7421875,114.83893145124118L239.968359375,114.65214917063713L240.19453125,114.68831230203311L240.42070312500002,114.78580329815549L240.64687500000002,114.85331464807193L240.873046875,114.94630430142085L241.09921875,114.6756200393041L241.325390625,115.08998388051987L241.55156250000002,115.05694472789764L241.77773437500002,114.6790136297544L242.00390625,115.23534853259723L242.23007812499998,114.94423532485962L242.45624999999998,114.78832651178043L242.682421875,114.83713794747989L242.90859375,115.10197280844054L243.134765625,114.89033643404643L243.36093749999998,114.98960041999817L243.58710937499998,115.11301809549332L243.81328125,114.82779238621396L244.039453125,114.93865846594176L244.265625,114.50766954819362L244.491796875,114.6663594643275L244.71796874999998,114.99474062522253L244.944140625,114.69672301411629L245.1703125,115.01755504806837L245.396484375,115.30476181705794L245.62265625,115.17819671829542L245.848828125,115.23094096779823L246.075,115.14731738964717L246.301171875,115.25871683160464L246.52734375,114.66215703884762L246.753515625,114.81850250562033L246.9796875,115.21746917565665L247.20585937500002,115.1795594294866L247.43203125,115.04782775044441L247.884375,115.22207015752792L248.110546875,114.67085201541583L248.33671875000002,115.09864955147108L248.56289062500002,115.06587121884029L248.7890625,115.2304515639941L249.015234375,115.19059592485428L249.24140625,114.9755659600099L249.46757812500002,114.8693272372087L249.69375000000002,115.29709546764693L249.919921875,114.94966565569243L250.37226562499998,114.81628993153572L250.5984375,115.06606756647429L250.824609375,115.1907922724883L251.05078125,114.98689551154773L251.27695312499998,115.32594977815947L251.50312499999998,115.01544211308162L251.729296875,115.09824513395628L251.95546875,115.08628844221434L252.181640625,115.30724107225737L252.4078125,115.1079247792562L252.63398437499998,115.00801900029182L252.86015625,115.02256630857786L253.086328125,115.09699964523315L253.3125,115.17891177535057L253.538671875,115.0007219016552L253.76484375,114.82179059584936L253.991015625,114.93952884276709L254.2171875,114.84146052598953L254.443359375,114.90898652871451L254.66953125,115.05800266067187L254.895703125,114.97967167695364L255.121875,115.087018152078L255.348046875,115.48248866200447L255.57421875,115.03849098086357" style="fill: none;" fill="none"></path></g><g><path stroke="rgb(51, 187, 238)" stroke-width="2px" d="M22.6171875,-7.012180050214113L24.87890625,42.40778092543286L27.140625,52.80813340346019L29.40234375,51.27374990781149L31.6640625,58.51924721399945L33.92578125,47.26954762140912L36.1875,65.75638655821483L38.44921875,62.32977453867595L40.7109375,61.52641965945563L42.97265625,36.945565581321716L45.234375,53.53674137592316L47.49609375,70.39756987492245L49.7578125,55.76089704036713L52.01953125,61.05631653467816L54.28125,65.89345479011536L56.54296875,36.87206709384918L58.8046875,43.21860873699188L61.06640625,35.729605197906494L63.328125,37.667632540067046L65.58984375,54.85848331451416L67.8515625,63.46512103080751L70.11328125,28.97947831948599L72.375,43.45832868417105L74.63671875,56.86241312821707L76.8984375,-11.775597095489502L79.16015625,33.878756205240876L81.421875,2.1583446264266968L83.68359375,52.929622769355774L85.9453125,41.40164875984192L88.20703125,39.227113366127014L90.46875,45.55465324719748L92.73046875,44.623496572176634L94.9921875,40.38418118158978L97.25390625,11.486556967099517L99.515625,30.86996022860211L101.77734375,28.97684081395468L104.0390625,31.226117253303528L106.30078125,31.89051075776419L108.5625,37.059329986572266L110.82421875,46.907224694887816L113.0859375,35.43650213877362L115.34765625,31.515633304913848L117.609375,28.511995116869628L119.87109375,35.48890058199564L122.1328125,36.74493932723999L124.39453125,35.7998331785202L126.65625,40.89516564210257L128.91796875,41.355533440907806L131.1796875,30.522512833277403L133.44140625,22.31909696261087L135.703125,13.83701984087628L136.15546875,37.61597259839377L136.6078125,40.84105575084686L137.06015625,17.612075646718353L137.51250000000002,45.16524020830792L137.96484375,1.1085588137308946L138.4171875,41.23395029703778L138.86953125000002,46.8999451796214L139.321875,37.14136226971945L139.77421875000002,32.53800078233084L140.2265625,22.892818888028472L140.67890624999998,36.69844889640808L141.13125,32.93860856691998L141.58359374999998,18.0596310297648L142.0359375,39.85621118545532L142.48828125,29.107473532358824L142.94062499999998,36.15989371140799L143.39296875,14.443329612414061L143.8453125,30.570069988568633L144.29765625,25.895109017690032L144.75,32.88720651467642L145.20234375,37.211543361345946L145.6546875,47.35490902264914L146.10703125,26.314144174257933L146.55937500000002,30.40539586544037L147.01171875,30.856467922528594L147.4640625,36.55299925804138L147.91640625000002,36.25289801756543L148.36874999999998,25.52503768603006L148.82109375,36.190945943196624L149.2734375,37.5711701711019L149.72578124999998,38.91652071475983L150.178125,40.79334620634714L150.63046875,47.02674472332001L151.0828125,32.677343130111694L151.53515625,40.228861411412566L151.9875,38.482094248135894L152.43984375,43.80599880218506L152.8921875,47.769020835558564L153.34453125,30.20269477367401L153.796875,13.090746442476927L154.24921875,34.499789118766785L154.7015625,24.987303058306367L155.15390625,32.73094896475476L155.60625000000002,37.02252213160199L156.05859375,52.43472123146057L156.5109375,34.588268637657166L156.96328125000002,39.86604615052542L157.41562499999998,38.24891531467438L157.86796875,42.26476951440176L158.3203125,39.37878751754761L158.77265624999998,29.925182302792876L159.225,42.543301820755005L159.67734375,34.51645815372467L160.1296875,33.78741645812988L160.58203125,44.80131133397421L161.034375,30.419169505437225L161.48671875,34.51273047924042L161.9390625,20.799436608950316L162.39140625000002,30.352212031682342L162.84375,23.317328333854675L163.29609375,22.679778774579376L163.74843750000002,37.20273995399475L164.20078125,24.68749487400055L164.65312500000002,42.426184852918L165.10546875,35.45945429801941L165.55781249999998,35.9341818491618L166.01015625,42.06402603785199L166.46249999999998,32.22931885719299L166.91484375,40.09263718128204L167.3671875,35.17991387844086L167.81953124999998,49.20745774110158L168.271875,32.252458572387695L168.72421875,47.02036782105765L169.1765625,37.053351640701294L169.62890625,41.898449301719666L170.08125,37.96523694197339L170.53359375,38.75691060225171L170.9859375,31.096773982048035L171.43828125000002,41.48475948969525L171.890625,24.648459792137146L172.34296875,46.78210143248242L172.79531250000002,37.60020617643994L173.24765625,30.59903566042584L173.70000000000002,38.77425952752432L174.15234375,37.47765008608502L174.60468749999998,50.622051596641555L175.05703125,36.0709804693858L175.50937499999998,34.162153244018555L175.96171875,38.94887411594391L176.4140625,38.284844001134246L176.86640624999998,49.518062114715576L177.31875,26.649728655815125L177.77109375,44.852314829826355L178.2234375,29.936365326245635L178.67578125,41.69924143950146L179.128125,31.858004967371613L179.58046875,34.07290005683899L180.0328125,39.41822115580243L180.48515625000002,38.553131063779205L180.9375,28.251831571261107L181.38984375,32.041680852572114L181.84218750000002,40.019150416056334L182.29453124999998,35.410701473553985L182.746875,41.734267512957274L183.19921875,40.855286558469146L183.65156249999998,36.597344517707825L184.10390625,43.91135835647583L184.55625,29.934255321820586L185.00859375,38.006171027819335L185.4609375,42.80766193072L185.91328125,44.32488405704498L186.365625,37.37206780910492L186.81796875,42.54270398616791L187.2703125,37.79633108774823L187.72265625,35.39956533908844L188.175,39.46131213506064L188.62734375,22.032089471817017L189.0796875,44.54508646329245L189.53203125000002,28.753602345784515L189.984375,33.033933877944946L190.43671875,37.46964379151663L190.88906250000002,39.87399383385977L191.34140624999998,34.926830569903075L191.79375,34.304308931032836L192.24609375,28.998398025830596L192.69843749999998,42.67341876029968L193.15078125,27.57680598894754L193.603125,39.5368971824646L194.05546875,36.06304450829825L194.5078125,35.95115566253662L194.96015625,30.543776988983154L195.4125,38.90900675455728L195.86484375,27.535508513450623L196.31718750000002,31.679463426272093L196.76953125,38.60754573345184L197.221875,34.532201131184905L197.67421875000002,34.790031949679076L198.1265625,26.957425912221282L198.57890625000002,41.736260294914246L199.03125,42.72789204120636L199.48359374999998,36.292800545692444L199.9359375,43.62771515051523L200.38828124999998,51.94364114602408L200.840625,39.15737771987915L201.29296875,35.08067333698273L201.74531249999998,23.42601700623831L202.19765625,42.26652785142264L202.65,36.52797226111093L203.10234375,37.88529121875763L203.5546875,32.41369807720184L204.00703125,41.90374775727591L204.459375,53.32560026645662L204.91171875,42.597095211346954L205.36406250000002,26.140549421310425L205.81640625,37.86314789454144L206.26875,41.67571489016217L206.72109375000002,45.55923664569855L207.1734375,49.83197216192882L207.62578125000002,60.511126557985946L208.078125,55.16517245769501L208.53046874999998,46.1324896812439L208.9828125,40.684845089912415L209.43515624999998,40.096165577570616L209.8875,46.760344942410796L210.33984375,32.62456957499185L210.79218749999998,39.60407737890881L211.24453125,36.87435293197632L211.696875,47.470396598180145L212.14921875,50.05499962965648L212.6015625,37.509604930877686L213.05390625,41.755168279012054L213.50625,48.0014143784841L213.95859375,52.83781413237254L214.41093750000002,41.563368876775115L214.86328125,50.501453121503204L215.315625,49.6603115797043L215.76796875000002,37.53225231170654L216.22031249999998,39.18634339173636L216.67265625,41.90789743264517L217.125,37.10277263323468L217.57734374999998,47.94515931606293L218.0296875,34.856133699417114L218.48203125,56.88276294867198L218.934375,43.84054426352185L219.38671875,38.76243178049725L219.8390625,52.77477188905081L220.29140625,57.08643698692322L220.74375,49.23256679375966L221.19609375,42.61519436041516L221.6484375,49.16610165437062L222.10078125,42.677345712979644L222.553125,44.50513704617819L223.00546875,38.20857906341553L223.45781250000002,48.43323850631714L223.91015625,38.38188076019287L224.3625,40.68872515360516L224.81484375000002,46.9285591840744L225.26718749999998,47.173518975575774L225.71953125,45.067171891530364L226.171875,31.435500025749207L226.62421874999998,46.15895851453146L227.0765625,45.3921594619751L227.52890625,45.238093972206116L227.98125,46.87335912386578L228.43359375,45.06074810028076L228.8859375,41.28508273760477L229.33828125,42.51239025592804L229.790625,50.5203493833542L230.24296875000002,42.085864583651244L230.6953125,46.46558904647827L231.14765625,49.4287972052892L231.60000000000002,56.765223979949965L232.05234375,49.774122873942076L232.50468750000002,47.5672809680303L232.95703125,50.03865881760916L233.40937499999998,58.34150278568269L233.86171875,46.103055119514465L234.31406249999998,30.26345117886862L234.76640625,60.237441400686905L235.21875,63.4254763921102L235.67109374999998,38.7050162156423L236.1234375,43.01305913925171L236.57578125,53.24804588158926L237.028125,52.466336131095886L237.48046875,45.26490275065106L237.9328125,49.864560008049025L238.38515625,49.81434190273286L238.8375,48.83937919139862L239.28984375000002,49.499716798464476L239.7421875,46.339821060498565L240.19453125,41.00764060020447L240.64687500000002,64.87754627068838L241.09921875,56.2006219625473L241.55156250000002,47.424023389816284L242.00390625,44.919166803359985L242.45624999999998,39.4632463057836L242.90859375,50.66372418403627L243.36093749999998,53.18390174706778L243.81328125,43.00366961956024L244.265625,40.68359080950421L244.71796874999998,43.0235153834025L245.1703125,53.50061341126761L245.62265625,43.38357591629028L246.075,42.85233541329703L246.52734375,45.18893086910248L246.9796875,43.45223311583203L247.43203125,47.79580616950989L247.884375,63.43640152613324L248.33671875000002,36.78239190578461L248.7890625,47.786826928456634L249.015234375,53.33878779411317L249.24140625,52.59503467877707L249.46757812500002,49.08375287055971L249.69375000000002,34.04918595155081L249.919921875,44.3243213891983L250.14609374999998,51.04018414020538L250.37226562499998,46.59894132614136L250.5984375,41.43116537729901L250.824609375,48.10311659177145L251.05078125,28.87488071123758L251.27695312499998,44.06978452205658L251.50312499999998,53.673200050989806L251.729296875,39.06901542345685L251.95546875,55.4986703793208L252.181640625,56.71356403827667L252.4078125,45.89036667346954L252.63398437499998,59.280618866284684L252.86015625,51.340355714162186L253.086328125,49.57060122489929L253.3125,45.46209438641867L253.538671875,44.92064380645752L253.76484375,39.55578172206879L253.991015625,51.39269554615021L254.2171875,50.34140928586325L254.443359375,37.78802001476288L254.66953125,35.88733975092572L254.895703125,45.57346745332083L255.121875,52.371889988581344L255.348046875,50.31655812263489L255.57421875,51.86823193232219" style="fill: none;" fill="none"></path></g><g><path stroke="rgb(187, 187, 187)" stroke-width="2px" d="M22.6171875,-7.01153532663983L24.87890625,36.24654455979666L27.140625,51.56797830263774L29.40234375,53.20211811860402L31.6640625,67.94347061713538L33.92578125,36.64281511306763L36.1875,73.68966911236446L38.44921875,61.92277226845424L40.7109375,77.36738338073096L42.97265625,79.07760643959045L45.234375,77.36224903662999L47.49609375,74.64644475777945L49.7578125,67.34527850151062L52.01953125,79.44002900520961L54.28125,80.69699380795161L56.54296875,51.19909091790517L58.8046875,70.9982236623764L61.06640625,76.52758989731471L63.328125,49.11455893516542L65.58984375,70.68198674917221L67.8515625,70.43455356359482L70.11328125,39.08369167645773L72.375,50.205302278200804L74.63671875,52.33755552768707L76.8984375,43.23274576663971L79.16015625,54.276801983515426L81.421875,32.62999697526297L83.68359375,53.49621756871542L85.9453125,67.92370690902075L88.20703125,45.36955897013348L90.46875,37.51012070973715L92.73046875,44.69033682346344L94.9921875,43.96250251928967L97.25390625,37.47858786582947L99.515625,48.03434216976166L101.77734375,35.26824100812277L104.0390625,55.19516968727113L106.30078125,57.10012857119243L108.5625,42.72356653213501L110.82421875,45.431909600893675L113.0859375,34.14098286628723L115.34765625,40.24363144238791L117.609375,49.65530618031819L119.87109375,42.78891805807751L122.1328125,55.22794508934021L124.39453125,45.17883801460266L126.65625,38.300516645113646L128.91796875,42.26828618844351L131.1796875,53.026038249333695L133.44140625,41.85376409689587L135.703125,37.98576259613037L136.15546875,47.79774034023285L136.6078125,56.94935703277588L137.06015625,42.248217701911926L137.51250000000002,56.89171874523164L137.96484375,26.633692622184753L138.4171875,40.268470883369446L138.86953125000002,49.56171576182048L139.321875,48.12636180718741L139.77421875000002,45.78395211696625L140.2265625,40.08963628609976L140.67890624999998,50.061622699101775L141.13125,49.816076795260116L141.58359374999998,35.318705280621856L142.0359375,47.53416562080383L142.48828125,42.99926205476126L142.94062499999998,37.696879545847594L143.39296875,13.282194177309691L143.8453125,51.12822993596396L144.29765625,42.61551086107892L144.75,53.305496613184616L145.20234375,53.306035836537674L145.6546875,56.37700661023459L146.10703125,53.27041192849478L146.55937500000002,53.16268448034924L147.01171875,45.57939891020459L147.4640625,57.70155016581218L147.91640625000002,63.09448703130087L148.36874999999998,34.66629191239676L148.82109375,59.4204418261846L149.2734375,52.57913931210835L149.72578124999998,51.54887104034425L150.178125,51.910502354304015L150.63046875,47.48206023375192L151.0828125,36.75956869125366L151.53515625,62.03846498330435L151.9875,44.10625243186951L152.43984375,56.93817400932312L152.8921875,54.74907958507538L153.34453125,60.432693004608154L153.796875,50.686934232711806L154.24921875,52.73990992705028L154.7015625,35.31765027840933L155.15390625,51.878535787264525L155.60625000000002,52.66726716359457L156.05859375,52.94605735937755L156.5109375,55.98833207289378L156.96328125000002,56.202427188555404L157.41562499999998,57.969509005546584L157.86796875,52.73496313889821L158.3203125,49.47573308149974L158.77265624999998,58.72845415274304L159.225,51.5530207157135L159.67734375,59.17055869102478L160.1296875,48.80342706044516L160.58203125,56.29102392991385L161.034375,63.406205018361405L161.48671875,41.77862449487051L161.9390625,25.067776282628387L162.39140625000002,40.94687247276306L162.84375,57.47804208596547L163.29609375,50.788495779037476L163.74843750000002,54.380274256070464L164.20078125,53.632711410522475L164.65312500000002,53.51497316360475L165.10546875,51.86390642325084L165.55781249999998,47.047035932540894L166.01015625,45.46630267302197L166.46249999999998,45.80970589319867L166.91484375,61.03594913085303L167.3671875,57.2195782661438L167.81953124999998,48.901272654533386L168.271875,51.00076222419739L168.72421875,53.328507383664444L169.1765625,54.63090761502583L169.62890625,60.36588792006175L170.08125,44.1215030749639L170.53359375,55.30755086739859L170.9859375,52.725268840789795L171.43828125000002,55.380287408828735L171.890625,49.127265850702926L172.34296875,53.91838256518048L172.79531250000002,55.7618348201116L173.24765625,53.17676289876303L173.70000000000002,47.09516747792563L174.15234375,49.886726776758834L174.60468749999998,52.98072004318239L175.05703125,61.28039314349493L175.50937499999998,51.645239631334945L175.96171875,58.36777234077455L176.4140625,46.46258815129599L176.86640624999998,54.89391966660817L177.31875,42.301565647125244L177.77109375,61.86922504504521L178.2234375,40.960177222887694L178.67578125,55.183435718218504L179.128125,59.18396308024725L179.58046875,43.149810870488494L180.0328125,51.20908999443054L180.48515625000002,60.54391368230185L180.9375,52.880741000175476L181.38984375,55.24979535738629L181.84218750000002,53.397293527921036L182.29453124999998,61.73693362871806L182.746875,52.26241592566173L183.19921875,52.00785561402638L183.65156249999998,62.17191690206528L184.10390625,42.714563846588135L184.55625,53.60413257280986L185.00859375,57.11662177244824L185.4609375,47.220677574475616L185.91328125,57.6482608318329L186.365625,50.35546425978343L186.81796875,62.058902720610305L187.2703125,57.85270853837332L187.72265625,55.1834474404653L188.175,53.019380013147995L188.62734375,51.01126535733542L189.0796875,55.8358608086904L189.53203125000002,60.461330453554794L189.984375,42.20689678192139L190.43671875,58.53660786151886L190.88906250000002,47.47670316696167L191.34140624999998,58.860657652219146L191.79375,51.02102998892468L192.24609375,43.91598864396414L192.69843749999998,45.81537946065268L193.15078125,52.458247780799866L193.603125,53.29740826288861L194.05546875,58.94795322418213L194.5078125,54.7764979203542L194.96015625,45.21496597925821L195.4125,56.35778212547304L195.86484375,37.722973267237336L196.31718750000002,47.912864526112884L196.76953125,56.282513578732804L197.221875,57.42431902885437L197.67421875000002,51.00151244799298L198.1265625,46.381446758906065L198.57890625000002,65.22951845328014L199.03125,58.12839233875276L199.48359374999998,48.677764574686705L199.9359375,55.09955132007599L200.38828124999998,67.87117952108385L200.840625,55.74999535083772L201.29296875,56.302089730898544L201.74531249999998,44.84440231323242L202.19765625,57.170544107755035L202.65,51.065949638684586L203.10234375,52.60075513521831L203.5546875,51.90008127689363L204.00703125,61.577698628107726L204.459375,61.8271421790123L204.91171875,56.04924086729686L205.36406250000002,55.163308620452895L205.81640625,50.59769276777904L206.26875,53.31020895640056L206.72109375000002,60.58919672171275L207.1734375,61.97562787930171L207.62578125000002,64.68312694629033L208.078125,69.55360913276672L208.53046874999998,65.24154547850291L208.9828125,51.67139196395874L209.43515624999998,54.885514815648406L209.8875,60.7832350730896L210.33984375,44.4059551159541L210.79218749999998,57.10634136199951L211.24453125,54.116441647211715L211.696875,63.91158038377762L212.14921875,57.7935229142507L212.6015625,58.509599804878235L213.05390625,63.74151402711868L213.50625,62.30017000436783L213.95859375,62.55376323064168L214.41093750000002,63.22783931096396L214.86328125,64.05641460418701L215.315625,61.5647748510043L215.76796875000002,48.76089874903363L216.22031249999998,58.06636993090312L216.67265625,58.118815263112396L217.125,50.78088804086049L217.57734374999998,50.182830731074034L218.0296875,44.666188995043456L218.48203125,70.56923045714697L218.934375,65.3102964560191L219.38671875,61.579357326030745L219.8390625,61.036658326784774L220.29140625,52.633331259091705L220.74375,60.25195354223253L221.19609375,69.65952549378078L221.6484375,55.3819871346156L222.10078125,65.92910214265189L222.553125,62.2377490401268L223.00546875,54.59669037659964L223.45781250000002,63.91286396980287L223.91015625,65.10965261856715L224.3625,59.86861848831178L224.81484375000002,74.17097284396489L225.26718749999998,64.3370041648547L225.71953125,64.19030024607977L226.171875,55.79062465826671L226.62421874999998,56.35693812370302L227.0765625,53.96649066607159L227.52890625,63.1625346740087L227.98125,59.80676605304083L228.43359375,52.884257674217224L228.8859375,61.565507491429656L229.33828125,67.58312288920085L229.790625,63.09727692604065L230.24296875000002,60.048174003760025L230.6953125,62.531549572944655L231.14765625,73.04002805550894L231.60000000000002,50.03776792685193L232.05234375,51.612558007240295L232.50468750000002,72.07303647200267L232.95703125,69.50984998544058L233.40937499999998,65.88973883787791L233.86171875,57.770805199940995L234.31406249999998,60.185834209124266L234.76640625,71.76787708202998L235.21875,72.2483192284902L235.67109374999998,59.702449778715774L236.1234375,68.4885082046191L236.57578125,64.36898831526439L237.028125,72.20458352565765L237.48046875,59.73766340812048L237.9328125,69.19838988780975L238.38515625,58.39819157123566L238.8375,69.06514310836792L239.28984375000002,60.947938501834884L239.7421875,62.80776673555374L240.19453125,65.11884286006291L240.64687500000002,81.01464911301932L241.09921875,69.27564535538356L241.55156250000002,69.06477971871695L242.00390625,64.23485064506532L242.45624999999998,58.937473535537734L242.90859375,65.52828921874364L243.36093749999998,68.97085521618526L243.81328125,66.83024986584982L244.265625,69.75364927450818L244.71796874999998,61.37161566813788L245.1703125,67.77862652142844L245.62265625,57.943849007288634L246.075,63.58141158024472L246.52734375,59.24194131294887L246.9796875,59.781053304672255L247.43203125,70.96991443634033L247.884375,58.1814003388087L248.33671875000002,67.03091714779536L248.7890625,53.400552312533065L249.015234375,63.278661111990615L249.24140625,57.72341215610504L249.46757812500002,55.971698204676315L249.69375000000002,55.38330002625784L249.919921875,68.81613328059515L250.14609374999998,63.13097838560742L250.37226562499998,68.03161605199179L250.5984375,60.491099099318205L250.824609375,64.80507934093477L251.05078125,75.7411736647288L251.27695312499998,59.13399114211401L251.50312499999998,67.16628565390904L251.729296875,58.70101237297058L251.95546875,67.04602126280467L252.181640625,67.95450125137967L252.4078125,71.37577378749847L252.63398437499998,63.671420852343246L252.86015625,71.77769446372987L253.086328125,69.3825229406357L253.3125,65.35768363873164L253.538671875,63.176161785920456L253.76484375,67.7630652387937L253.991015625,57.816041350364685L254.2171875,61.35943625370662L254.443359375,68.65849250555038L254.66953125,72.60779364903769L254.895703125,68.27413761615755L255.121875,66.95949935913087L255.348046875,60.23575925827028L255.57421875,66.32403635978699" style="fill: none;" fill="none"></path></g><g><path stroke="rgb(204, 51, 17)" stroke-width="2px" d="M23.97421875,-3.534541090329469L24.4265625,16.012539903322875L24.87890625,37.237977027893066L25.33125,50.93890392780304L25.78359375,50.51951710383098L26.2359375,49.578795075416565L26.68828125,50.43707454204559L27.140625,51.42379466692607L27.59296875,50.61840597788493L28.0453125,52.18523665269217L28.49765625,56.19412783781689L28.950000000000003,34.23195922374725L29.40234375,50.71442290147145L29.8546875,53.191861152648926L30.307031249999998,52.971893191337585L30.759375,58.21282768249512L31.211718750000003,59.96991628408432L31.6640625,62.23373417059581L32.11640625,55.71867350737254L32.56875,51.3564738035202L33.02109375,49.27141431967419L33.4734375,62.144322733084365L33.92578125,33.40484921137491L34.378125000000004,58.31075533231099L34.83046875,53.43414827187857L35.2828125,24.608217318852752L35.735156249999996,55.24401628971101L36.1875,66.21695949633917L36.639843750000004,73.31734710931778L37.092187499999994,40.49796903133392L37.54453125,74.0911208987236L37.996875,71.61947929859161L38.44921875,56.70198245843251L38.901562500000004,67.62967193126678L39.353906249999994,45.4062027136485L39.80625,66.15748667716981L40.25859375,62.55670551458995L40.7109375,68.87643251816432L41.163281250000004,51.937428355216994L41.615624999999994,66.10765540599823L42.06796875,67.31662933031718L42.5203125,69.99059691031775L42.97265625,72.46576104561488L43.425000000000004,72.16908856232962L43.877343749999994,64.15503386656444L44.3296875,74.88832159837087L44.78203125,42.742626905441284L45.234375,70.28281493981679L45.68671875,70.47641956806183L46.1390625,75.57022227843602L46.59140625,69.33630212148032L47.04375,73.11928802728654L47.49609375,67.4130155046781L47.9484375,64.10488609472911L48.40078125,44.19041816393536L48.853125,67.15481543540955L49.30546875,73.4901916384697L49.7578125,62.344655930995955L50.21015625,69.38928081591924L50.6625,26.163384358088194L51.11484375,71.47525463501614L51.5671875,38.32874381542206L52.01953125,71.19206273555757L52.471875,66.60356505711874L52.92421875,58.58264112472534L53.3765625,79.25954157114029L53.82890625,61.09760228792827L54.28125,71.35045373439789L54.73359375,50.97354316711426L55.1859375,68.04877742131552L55.63828125,57.90985449155171L56.090625,74.57370235522589L56.54296875,41.05313464005789L56.9953125,36.21351126829785L57.44765625,64.69741636514665L57.900000000000006,61.98679331938426L58.352343749999996,55.90346300601959L58.8046875,62.027897377808884L59.25703125,60.549305915832534L59.709375,52.63780915737152L60.161718750000006,46.82688041528067L60.614062499999996,74.61164726813634L61.06640625,67.3633014559746L61.51875,69.20711123943329L61.97109375,41.8926702340444L62.423437500000006,66.66920377810797L62.875781249999996,41.79459019502005L63.328125,41.97624985376996L63.78046875,37.82025619347891L64.2328125,66.38493929306667L64.68515625,59.82399775584538L65.1375,63.87522969643277L65.58984375,62.86359393596649L66.0421875,64.16013890504837L66.49453125,50.19529147942862L66.946875,68.00035868088405L67.39921875,45.19509677092236L67.8515625,62.54568074146907L68.30390625,45.17380917072296L68.75625000000001,46.51701454321545L69.20859375,38.54933305581412L69.6609375,45.15037639935812L70.11328125,34.92169622580212L70.565625,54.52996734778088L71.01796875,72.20197532574336L71.47031249999999,29.426564812660217L71.92265625,62.04754386345547L72.375,41.300825715065L72.82734375,49.42700370152791L73.27968750000001,40.15121324857077L73.73203125,51.04017241795859L74.18437499999999,57.24709037939708L74.63671875,47.1154117981593L75.0890625,38.440069993337005L75.54140625,50.44346316655478L75.99375,38.97555394967398L76.44609375,47.32276662190756L76.8984375,37.56166342894235L77.35078125,47.344945112864195L77.80312500000001,41.330565055211395L78.25546875,42.479650020599365L78.70781249999999,50.80203497409822L79.16015625,48.08422032992047L79.6125,46.44865039984387L80.06484375,51.2548770904541L80.5171875,23.089330633481353L80.96953125,44.73525647322336L81.421875,23.332719643910735L81.87421875000001,51.753389080365494L82.32656250000001,60.2008093794187L82.77890624999999,43.17928059895834L83.23124999999999,42.62810055414835L83.68359375,47.12925577163696L84.1359375,34.44610122839612L84.58828125,30.718825300534576L85.040625,43.161521395047515L85.49296875,26.843767007191985L85.9453125,59.99504878123602L86.39765625000001,39.80112834771475L86.85000000000001,15.913322806358337L87.30234374999999,40.4983206987381L87.75468749999999,38.71291700998944L88.20703125,38.31621273358664L88.659375,39.41655659675598L89.11171875,20.989079117774963L89.5640625,25.841819683710753L90.01640625,41.929630478223174L90.46875,30.87092145284018L90.92109375000001,45.74796481927237L91.3734375,39.76507071654004L91.82578124999999,37.91876995563507L92.278125,33.43563183148703L92.73046875,39.128294825553894L93.1828125,29.50627609093985L93.63515625,31.958839734395355L94.0875,39.39672255516052L94.53984375,27.665308952331543L94.9921875,36.64167805512747L95.44453125000001,42.95848035812378L95.896875,44.31000852584839L96.34921874999999,35.08776529630026L96.8015625,19.232019821802794L97.25390625,31.987289627393096L97.70625,33.80073293050131L98.15859375000001,30.845730344454438L98.6109375,39.939204692840576L99.06328125,44.63783288002014L99.515625,39.68786799907684L99.96796875,25.387606064478575L100.4203125,39.30505458513895L100.87265624999999,44.362489024798094L101.325,42.83080164591473L101.77734375,27.697838187217712L102.2296875,35.84762477874756L102.68203125000001,36.89771536986035L103.134375,34.178974668184935L103.58671875,41.57516145706177L104.0390625,46.03307330608368L104.49140625,41.86751429239911L104.94375,33.22386944293976L105.39609374999999,45.004282037417084L105.8484375,45.29560331503552L106.30078125,50.62501732508342L106.753125,37.945250511169434L107.20546875000001,37.767388860384614L107.6578125,42.06974649429321L108.11015624999999,47.98717184861502L108.5625,36.085633277893066L109.01484375,41.94670979181927L109.4671875,46.173587878545135L109.91953125,43.309104482332856L110.371875,26.218748529752105L110.82421875,39.425336559613555L111.2765625,42.4527240196864L111.72890625000001,32.092567125956236L112.18125,29.031232039133698L112.63359374999999,39.79315721988678L113.0859375,25.37085497379303L113.53828125,22.87543479601544L113.990625,43.118688305219024L114.44296875,38.119595487912505L114.8953125,55.07597788174948L115.34765625,32.80068461100262L115.80000000000001,40.37890617052716L116.25234375000001,27.147502144177764L116.70468749999999,53.544747670491546L117.15703124999999,31.481990456581116L117.609375,41.48715082804364L118.06171875,15.212109724680602L118.5140625,45.2913598616918L118.96640625,40.07772648334503L119.41875,51.75642514228821L119.87109375,33.85184192657471L120.32343750000001,42.368441065152496L120.77578125000001,46.33950455983481L121.22812499999999,47.831770022710174L121.68046874999999,39.94955543677011L122.1328125,48.07146652539572L122.58515625,32.22904924551645L123.0375,41.19342648983002L123.48984375,49.72642505168915L123.9421875,51.673044800758376L124.39453125,38.238025347391755L124.84687500000001,43.431601961453765L125.29921875,46.3489878575007L125.75156249999999,41.32591132322946L126.20390625,40.73491080602011L126.65625,31.857711911201477L127.10859375,34.67339559396109L127.5609375,44.3216604391734L128.01328125,43.65069075425467L128.465625,48.10483976205191L128.91796875,34.50799469153088L129.3703125,52.29955200354259L129.82265625,38.696470697720855L130.275,47.023907939593016L130.72734375000002,30.68417433897656L131.1796875,44.67487517992657L131.63203124999998,46.27994382381439L132.084375,40.40260855356854L132.53671875,52.930794994036376L132.9890625,42.288835287094116L133.44140625,34.39918879667917L133.89375,42.371699849764525L134.34609375,39.206833879152924L134.7984375,38.665711522102356L135.25078125000002,42.887396653493255L135.703125,28.951051870981843L135.929296875,34.05936086177826L136.15546875,40.98563794294995L136.381640625,47.40321640173596L136.6078125,47.41634531815848L136.833984375,40.07875804106396L137.06015625,36.74926483631134L137.286328125,47.316073218981444L137.51250000000002,48.44633225599924L137.738671875,45.03917916615805L137.96484375,16.747981945673644L138.191015625,44.91853380203247L138.4171875,34.67351281642914L138.64335937500002,36.201871077219636L138.86953125000002,42.53359580039978L139.095703125,46.47520128885907L139.321875,43.89304820696512L139.548046875,46.528080344200134L139.77421875000002,38.26966369152069L140.00039062500002,33.8413505156835L140.2265625,34.74937919775647L140.45273437499998,30.19305908679962L140.67890624999998,42.1248644987742L140.905078125,43.45773084958395L141.13125,42.19464703400931L141.357421875,45.428064703941345L141.58359374999998,29.944172342618316L141.80976562499998,34.70122420787811L142.0359375,41.425140142440796L142.262109375,49.89091161886853L142.48828125,34.548917055130005L142.714453125,43.87655500570935L142.94062499999998,31.906054457028716L143.166796875,42.065971930821746L143.39296875,7.7341368198394775L143.619140625,37.09226950009665L143.8453125,42.94872744878134L144.071484375,46.856643199920654L144.29765625,35.88905119895935L144.523828125,29.018314123153687L144.75,46.78612216313681L144.976171875,51.557557225227356L145.20234375,47.594804803530394L145.42851562500002,39.822181502978026L145.6546875,48.41944142182669L145.880859375,38.51035658518475L146.10703125,43.590028127034515L146.333203125,36.64789084593457L146.55937500000002,47.19906175136566L146.78554687500002,51.64399707317352L147.01171875,38.6888981262843L147.237890625,45.02211157480875L147.4640625,47.8785300652186L147.69023437500002,37.945414622624725L147.91640625000002,55.43545230229695L148.142578125,43.43173090616864L148.36874999999998,27.981246948242188L148.59492187499998,46.19971676667532L148.82109375,49.685432354609176L149.047265625,25.44607663154602L149.2734375,45.16386870543164L149.49960937499998,36.12396502494812L149.72578124999998,43.150314927101135L149.951953125,56.973422805468246L150.178125,43.81321970621747L150.404296875,47.175230423609435L150.63046875,41.989624937375396L150.85664062499998,27.39717427889508L151.0828125,32.23931793371838L151.308984375,45.78029477596283L151.53515625,54.698369145393386L151.761328125,38.53328529993695L151.9875,38.63767190774283L152.213671875,55.491179863611876L152.43984375,49.87301174799602L152.666015625,50.52440528074901L152.8921875,46.71684368451437L153.118359375,35.41690254211426L153.34453125,50.890983382860824L153.570703125,45.03350559870401L153.796875,42.28291555245718L154.023046875,49.89405318101247L154.24921875,45.47927920023602L154.47539062500002,36.130775650342315L154.7015625,30.499162117640168L154.927734375,35.006096402804076L155.15390625,44.07741570472717L155.380078125,51.34917084376018L155.60625000000002,45.66041135787964L155.83242187500002,35.92093571027121L156.05859375,43.87247566382089L156.284765625,45.03855788707733L156.5109375,46.72506097952527L156.73710937500002,43.43636119365692L156.96328125000002,47.735424876213074L157.189453125,49.83989640076956L157.41562499999998,50.27805054187775L157.64179687499998,38.471731781959534L157.86796875,44.21188159783682L158.094140625,47.710081378618895L158.3203125,40.906125942866L158.54648437499998,48.505857825279236L158.77265624999998,48.410602847735106L158.998828125,44.51592151323953L159.225,41.78462628523508L159.451171875,29.183843970298767L159.67734375,51.94862310091655L159.90351562499998,48.4268850485484L160.1296875,40.13385260105133L160.355859375,45.629323959350586L160.58203125,49.69266498088837L160.808203125,46.34101672967276L161.034375,54.98129729429883L161.260546875,46.5380559762319L161.48671875,35.63922667503357L161.712890625,48.00135576725006L161.9390625,18.085162083307893L162.165234375,42.02211900552115L162.39140625000002,35.10544244448346L162.617578125,42.80895137786865L162.84375,48.57310835520428L163.069921875,47.69855841000876L163.29609375,41.42894987265271L163.52226562500002,39.27622958024344L163.74843750000002,46.90907680988312L163.974609375,41.14495499928793L164.20078125,44.522052248319L164.426953125,40.88704212506613L164.65312500000002,46.13449418544769L164.87929687500002,45.19333843390146L165.10546875,45.82500342528027L165.33164062499998,48.07295525074005L165.55781249999998,39.8814726273219L165.783984375,45.98655943075818L166.01015625,39.24480223655701L166.236328125,50.38180414835614L166.46249999999998,38.474873344103486L166.68867187499998,38.21343207359314L166.91484375,53.67151204744977L167.141015625,40.88392400741577L167.3671875,49.251158277193724L167.593359375,55.06069207191467L167.81953124999998,39.86449881394705L168.045703125,44.431228280067444L168.271875,42.10079872608185L168.498046875,48.30136322975159L168.72421875,45.3148864110311L168.950390625,36.06582268079123L169.1765625,48.54878469308218L169.402734375,62.08070023854573L169.62890625,51.90459434191388L169.855078125,42.634735345840454L170.08125,35.969571312268585L170.307421875,39.59392591317496L170.53359375,46.42949624856314L170.759765625,42.89586011568704L170.9859375,42.81653567155203L171.212109375,31.61222461859387L171.43828125000002,46.508551081021636L171.664453125,43.94391103585562L171.890625,44.44598658879599L172.116796875,42.26278845469159L172.34296875,44.154688755671174L172.56914062500002,53.3783034880956L172.79531250000002,47.79144549369812L173.021484375,42.23003649711609L173.24765625,44.294312437375396L173.473828125,30.41432821750641L173.70000000000002,39.09410103162131L173.92617187500002,41.75018632411957L174.15234375,41.79813031355539L174.37851562499998,48.12081718444824L174.60468749999998,45.72641932964325L174.830859375,58.808833599090576L175.05703125,52.23811570803325L175.283203125,44.901501377423614L175.50937499999998,45.33984307448071L175.73554687499998,37.71422847112021L175.96171875,50.21668457984924L176.187890625,45.07993741830191L176.4140625,40.00554088751477L176.640234375,41.18387285868329L176.86640624999998,47.13906729221344L177.092578125,48.06599223613739L177.31875,35.27797047297162L177.544921875,45.16294264793396L177.77109375,52.5971095164617L177.997265625,42.21625113487244L178.2234375,31.461511691411346L178.449609375,37.61585537592572L178.67578125,48.12713547547659L178.901953125,41.7578761180242L179.128125,49.30340433120729L179.35429687500002,44.74927628040314L179.58046875,35.60396615664166L179.806640625,41.80795355637869L180.0328125,42.14497987429303L180.258984375,49.22376338640849L180.48515625000002,53.211859305699676L180.71132812500002,47.61640890439352L180.9375,43.42237655321759L181.163671875,41.86279022693634L181.38984375,47.44960133234662L181.61601562500002,42.726497093836485L181.84218750000002,44.563830335934966L182.068359375,49.994829336802184L182.29453124999998,54.46701888243358L182.52070312499998,42.591949144999205L182.746875,44.28206268946332L182.973046875,36.32634961605072L183.19921875,45.42412602901459L183.42539062499998,42.93482486406964L183.65156249999998,53.572154283523574L183.877734375,53.3076769510905L184.10390625,34.363834500312805L184.330078125,49.9930944442749L184.55625,46.30201681454977L184.78242187499998,53.16893243789674L185.00859375,47.87380599975586L185.234765625,43.915894865989685L185.4609375,39.22380769252777L185.687109375,42.14085364341736L185.91328125,50.223506927490234L186.139453125,33.33156172434491L186.365625,38.01486893494925L186.591796875,59.87654272715251L186.81796875,54.82833369572958L187.044140625,41.626575231552124L187.2703125,48.55640415350598L187.496484375,54.390718777974456L187.72265625,46.51636981964111L187.948828125,42.15409978230795L188.175,44.248302618662535L188.40117187500002,53.039448499679565L188.62734375,41.39653786023459L188.853515625,26.959782083829253L189.0796875,48.21787738800049L189.305859375,55.25951309998831L189.53203125000002,51.40610579649609L189.75820312500002,47.726293245951325L189.984375,34.11418581008911L190.210546875,44.84454298019409L190.43671875,51.373529672622695L190.66289062500002,46.99993594487509L190.88906250000002,38.296109080314636L191.115234375,43.71665183703104L191.34140624999998,49.9520196914673L191.56757812499998,38.03030713399252L191.79375,42.93320719401041L192.019921875,41.961175044377654L192.24609375,36.20705231030783L192.47226562499998,54.10017116864523L192.69843749999998,37.764094909032195L192.924609375,39.871426661809295L193.15078125,45.83310349782309L193.376953125,50.763679782549545L193.603125,45.57869557539624L193.82929687499998,49.5816787481308L194.05546875,49.359424948692336L194.281640625,44.71025292078653L194.5078125,46.42572168509167L194.733984375,46.724510033925384L194.96015625,38.31520462036133L195.186328125,46.27967421213785L195.4125,47.37557534376782L195.638671875,53.83788589636487L195.86484375,28.64827795823416L196.091015625,46.94133643309277L196.31718750000002,42.45161040623984L196.543359375,43.73231275876364L196.76953125,49.075488686561584L196.995703125,35.43354813257855L197.221875,48.14875129858655L197.44804687500002,45.54471278190613L197.67421875000002,45.08627915382385L197.900390625,46.693891525268555L198.1265625,33.46414033571878L198.352734375,46.10548162460327L198.57890625000002,55.012115081151336L198.80507812500002,34.53997298081717L199.03125,48.57710564136505L199.25742187499998,57.459919492403685L199.48359374999998,40.62911752859753L199.709765625,42.32129418849945L199.9359375,47.61147383848828L200.162109375,55.52168114980063L200.38828124999998,60.88952068487805L200.61445312499998,52.746532996495574L200.840625,47.964125911394774L201.066796875,49.20653168360394L201.29296875,45.90385897954306L201.519140625,47.39210371176404L201.74531249999998,36.658581535021455L201.971484375,50.216649413108826L202.19765625,49.991382996241256L202.423828125,46.095189491907774L202.65,43.22661503156027L202.876171875,61.18307505051297L203.10234375,43.84404921531677L203.328515625,51.38457202911377L203.5546875,44.945518414179475L203.780859375,52.12569936116536L204.00703125,53.855996767679855L204.233203125,48.43419973055521L204.459375,54.4032733043035L204.685546875,58.698456923166916L204.91171875,47.36184859275818L205.137890625,43.48075334231058L205.36406250000002,45.43605927626294L205.590234375,47.249807357788086L205.81640625,40.76019569238028L206.042578125,53.43832139174144L206.26875,46.85816709200543L206.49492187500002,41.93635904788971L206.72109375000002,51.5465500354767L206.947265625,51.0192833741506L207.1734375,52.66940061251323L207.399609375,67.45988104740779L207.62578125000002,58.23534611860913L207.85195312500002,65.37052536010742L208.078125,60.60268902778627L208.30429687499998,55.72820369402568L208.53046874999998,56.82865305741629L208.756640625,48.18121019999185L208.9828125,44.204262137413025L209.208984375,41.345815698305785L209.43515624999998,47.03028484185538L209.66132812499998,42.54457954565686L209.8875,51.23970850308736L210.113671875,58.51659798622131L210.33984375,37.95119369029999L210.566015625,37.696035544077574L210.79218749999998,47.850783507029206L211.018359375,48.49289302031201L211.24453125,44.07313708464304L211.470703125,48.88171994686127L211.696875,55.32617751757306L211.923046875,61.81651010115942L212.14921875,49.935409267743424L212.375390625,60.17731799681981L212.6015625,50.53248190879823L212.827734375,42.94315938154858L213.05390625,55.48186067740123L213.28007812500002,46.36738006273907L213.50625,52.66037448247273L213.732421875,46.12299466133118L213.95859375,51.56854097048442L214.184765625,56.55560676256816L214.41093750000002,55.59403085708618L214.63710937500002,43.095454812049866L214.86328125,56.67804563045502L215.089453125,53.516450166702285L215.315625,53.293516476949065L215.54179687500002,54.892454385757446L215.76796875000002,40.00666622320813L215.994140625,55.39096637566885L216.22031249999998,50.885462204615294L216.44648437499998,37.53195925553641L216.67265625,50.15536550680797L216.898828125,50.17544571558636L217.125,43.36089336872101L217.35117187499998,55.351790626843766L217.57734374999998,43.42319711049399L217.803515625,56.474359869956984L218.0296875,34.652600328127534L218.255859375,51.29765156904858L218.48203125,60.29653910795848L218.70820312499998,49.01038332780202L218.934375,53.99638239542644L219.160546875,56.42767016092937L219.38671875,52.08149476846059L219.612890625,61.297800680001586L219.8390625,52.33168268203737L220.065234375,44.54655174414319L220.29140625,44.65205196539563L220.517578125,51.95060416062674L220.74375,53.17869706948598L220.969921875,48.39488331476849L221.19609375,61.98208683729172L221.422265625,51.82950162887575L221.6484375,47.49207103252411L221.874609375,51.90114800135295L222.10078125,58.4471553961436L222.32695312500002,53.684148629506424L222.553125,54.54302593072255L222.779296875,52.559047381083175L223.00546875,44.60649931430817L223.231640625,48.99850869178772L223.45781250000002,58.52027877171834L223.68398437500002,46.40096429983777L223.91015625,54.44644633928935L224.136328125,55.172440250714615L224.3625,51.40294078985852L224.58867187500002,44.56751112143198L224.81484375000002,63.83141193787257L225.041015625,58.41508332888286L225.26718749999998,54.55257956186931L225.49335937499998,63.07949427763623L225.71953125,56.63040641943614L225.945703125,50.88705643018088L226.171875,50.8072513739268L226.39804687499998,48.064456621805846L226.62421874999998,46.47624456882477L226.850390625,51.75253335634868L227.0765625,43.27461763223013L227.302734375,62.63223195075989L227.52890625,54.629688501358046L227.75507812499998,45.18310491243997L227.98125,50.68290177981061L228.207421875,46.34567046165466L228.43359375,45.05662186940512L228.659765625,53.620449940363585L228.8859375,52.765030701955155L229.112109375,54.28911034266156L229.33828125,57.39411079883577L229.564453125,55.63742661476137L229.790625,54.218296249707535L230.016796875,55.76563282807669L230.24296875000002,50.88242614269258L230.469140625,57.102133075396225L230.6953125,53.810080726941436L230.921484375,51.18267977237703L231.14765625,63.318042000134795L231.37382812500002,45.771737535794585L231.60000000000002,41.59240488211313L231.826171875,52.958858052889525L232.05234375,44.502487818400084L232.278515625,61.58284469445546L232.50468750000002,63.25842265288037L232.73085937500002,58.20097649097444L232.95703125,62.65322063366574L233.18320312499998,64.78271329402925L233.40937499999998,56.69165515899658L233.635546875,55.7008791367213L233.86171875,48.84980026880902L234.087890625,50.4535794655482L234.31406249999998,53.37149286270143L234.54023437499998,43.604411323865264L234.76640625,65.65597965319952L234.992578125,50.73095126946768L235.21875,62.71253520250322L235.444921875,54.2880318959554L235.67109374999998,51.767022053400694L235.897265625,63.20299400885901L236.1234375,60.13764405250551L236.349609375,56.69513666629791L236.57578125,54.76812823613486L236.801953125,55.464804808298766L237.028125,63.5797880490621L237.254296875,57.702054222424835L237.48046875,50.12532138824463L237.706640625,53.8426216840744L237.9328125,60.20022912820181L238.158984375,55.465695699056L238.38515625,50.352908809979766L238.611328125,58.12563761075339L238.8375,59.58574308951697L239.063671875,46.768269181251526L239.28984375000002,51.85512646039328L239.516015625,55.65956993897757L239.7421875,52.978891372680664L239.968359375,60.75411115090054L240.19453125,54.383052428563445L240.42070312500002,60.091317733128875L240.64687500000002,70.80824120839438L240.873046875,59.00059197346371L241.09921875,59.735846459865584L241.325390625,56.84509936968486L241.55156250000002,58.88403181234996L241.77773437500002,59.13329366842906L242.00390625,55.74071133136751L242.23007812499998,56.47727870941162L242.45624999999998,50.612626910209656L242.682421875,49.27714649836223L242.90859375,55.51642958323161L243.134765625,64.87151517470679L243.36093749999998,58.48715170224507L243.58710937499998,57.64154398441315L243.81328125,59.414545536041274L244.039453125,58.8812888065974L244.265625,61.65537609656651L244.491796875,39.93891163667044L244.71796874999998,52.99469296137492L244.944140625,59.86837818225226L245.1703125,58.86427982648215L245.396484375,58.56604242324829L245.62265625,49.757442116737366L245.848828125,64.5810437599818L246.075,55.00777784983319L246.301171875,44.40688117345175L246.52734375,50.75868610541026L246.753515625,47.72330407301587L246.9796875,51.02643394470216L247.20585937500002,47.059531847635895L247.43203125,61.67985800902049L247.658203125,57.78645439942679L247.884375,51.63895650704703L248.110546875,51.86310931046803L248.33671875000002,57.61843943595886L248.56289062500002,54.10546962420146L248.7890625,43.754409193992615L249.015234375,56.61057237784068L249.24140625,49.85451404253644L249.46757812500002,47.47372571627298L249.69375000000002,46.537716031074524L249.919921875,59.13566742340724L250.14609374999998,53.12069539229077L250.37226562499998,57.8926813999812L250.5984375,51.749298016230284L250.824609375,56.50198920567831L251.05078125,65.66733264923097L251.27695312499998,48.54162240028381L251.50312499999998,58.310978055000305L251.729296875,49.64483821392059L251.95546875,59.39380302031836L252.181640625,59.32594293355942L252.4078125,62.233200808366135L252.63398437499998,52.721107443173736L252.86015625,62.053926626841246L253.086328125,60.90441966056825L253.3125,58.7887768348058L253.538671875,53.99215066432954L253.76484375,57.26257546742758L253.991015625,48.560858607292175L254.2171875,51.41252958774567L254.443359375,60.761115193367004L254.66953125,63.44844027360281L254.895703125,61.918669482072204L255.121875,57.730480670928955L255.348046875,52.593792120615646L255.57421875,56.13473121325177" style="fill: none;" fill="none"></path></g></g></g></g></g></g><g transform="translate(58, 177)" clip-path="url(#clip_1)"><clipPath id="clip_1"><rect width="271" height="23"></rect></clipPath><g><g><line x1="0" y1="0" x2="0" y2="5" style="visibility: inherit;" fill="rgb(0, 0, 0)" stroke="rgb(204, 204, 204)" stroke-width="1px"></line><line x1="22.6171875" y1="0" x2="22.6171875" y2="5" style="visibility: inherit;" fill="rgb(0, 0, 0)" stroke="rgb(204, 204, 204)" stroke-width="1px"></line><line x1="45.234375" y1="0" x2="45.234375" y2="5" style="visibility: inherit;" fill="rgb(0, 0, 0)" stroke="rgb(204, 204, 204)" stroke-width="1px"></line><line x1="67.8515625" y1="0" x2="67.8515625" y2="5" style="visibility: inherit;" fill="rgb(0, 0, 0)" stroke="rgb(204, 204, 204)" stroke-width="1px"></line><line x1="90.46875" y1="0" x2="90.46875" y2="5" style="visibility: inherit;" fill="rgb(0, 0, 0)" stroke="rgb(204, 204, 204)" stroke-width="1px"></line><line x1="113.0859375" y1="0" x2="113.0859375" y2="5" style="visibility: inherit;" fill="rgb(0, 0, 0)" stroke="rgb(204, 204, 204)" stroke-width="1px"></line><line x1="135.703125" y1="0" x2="135.703125" y2="5" style="visibility: inherit;" fill="rgb(0, 0, 0)" stroke="rgb(204, 204, 204)" stroke-width="1px"></line><line x1="158.3203125" y1="0" x2="158.3203125" y2="5" style="visibility: inherit;" fill="rgb(0, 0, 0)" stroke="rgb(204, 204, 204)" stroke-width="1px"></line><line x1="180.9375" y1="0" x2="180.9375" y2="5" style="visibility: inherit;" fill="rgb(0, 0, 0)" stroke="rgb(204, 204, 204)" stroke-width="1px"></line><line x1="203.5546875" y1="0" x2="203.5546875" y2="5" style="visibility: inherit;" fill="rgb(0, 0, 0)" stroke="rgb(204, 204, 204)" stroke-width="1px"></line><line x1="226.171875" y1="0" x2="226.171875" y2="5" style="visibility: inherit;" fill="rgb(0, 0, 0)" stroke="rgb(204, 204, 204)" stroke-width="1px"></line><line x1="248.7890625" y1="0" x2="248.7890625" y2="5" style="visibility: inherit;" fill="rgb(0, 0, 0)" stroke="rgb(204, 204, 204)" stroke-width="1px"></line><line x1="271.40625" y1="0" x2="271.40625" y2="5" style="visibility: inherit;" fill="rgb(0, 0, 0)" stroke="rgb(204, 204, 204)" stroke-width="1px"></line></g><g transform="translate(0, 8)"><text x="0" y="0" dx="0em" dy="0.95em" style="text-anchor: middle; visibility: hidden; font-family: &quot;Helvetica Neue&quot;, sans-serif; font-size: 12px; font-weight: 200;" fill="rgb(50, 49, 63)" stroke="none" stroke-width="1px">-100</text><text x="22.6171875" y="0" dx="0em" dy="0.95em" style="text-anchor: middle; visibility: inherit; font-family: &quot;Helvetica Neue&quot;, sans-serif; font-size: 12px; font-weight: 200;" fill="rgb(50, 49, 63)" stroke="none" stroke-width="1px">0</text><text x="45.234375" y="0" dx="0em" dy="0.95em" style="text-anchor: middle; visibility: hidden; font-family: &quot;Helvetica Neue&quot;, sans-serif; font-size: 12px; font-weight: 200;" fill="rgb(50, 49, 63)" stroke="none" stroke-width="1px">100</text><text x="67.8515625" y="0" dx="0em" dy="0.95em" style="text-anchor: middle; visibility: inherit; font-family: &quot;Helvetica Neue&quot;, sans-serif; font-size: 12px; font-weight: 200;" fill="rgb(50, 49, 63)" stroke="none" stroke-width="1px">200</text><text x="90.46875" y="0" dx="0em" dy="0.95em" style="text-anchor: middle; visibility: hidden; font-family: &quot;Helvetica Neue&quot;, sans-serif; font-size: 12px; font-weight: 200;" fill="rgb(50, 49, 63)" stroke="none" stroke-width="1px">300</text><text x="113.0859375" y="0" dx="0em" dy="0.95em" style="text-anchor: middle; visibility: inherit; font-family: &quot;Helvetica Neue&quot;, sans-serif; font-size: 12px; font-weight: 200;" fill="rgb(50, 49, 63)" stroke="none" stroke-width="1px">400</text><text x="135.703125" y="0" dx="0em" dy="0.95em" style="text-anchor: middle; visibility: hidden; font-family: &quot;Helvetica Neue&quot;, sans-serif; font-size: 12px; font-weight: 200;" fill="rgb(50, 49, 63)" stroke="none" stroke-width="1px">500</text><text x="158.3203125" y="0" dx="0em" dy="0.95em" style="text-anchor: middle; visibility: inherit; font-family: &quot;Helvetica Neue&quot;, sans-serif; font-size: 12px; font-weight: 200;" fill="rgb(50, 49, 63)" stroke="none" stroke-width="1px">600</text><text x="180.9375" y="0" dx="0em" dy="0.95em" style="text-anchor: middle; visibility: hidden; font-family: &quot;Helvetica Neue&quot;, sans-serif; font-size: 12px; font-weight: 200;" fill="rgb(50, 49, 63)" stroke="none" stroke-width="1px">700</text><text x="203.5546875" y="0" dx="0em" dy="0.95em" style="text-anchor: middle; visibility: inherit; font-family: &quot;Helvetica Neue&quot;, sans-serif; font-size: 12px; font-weight: 200;" fill="rgb(50, 49, 63)" stroke="none" stroke-width="1px">800</text><text x="226.171875" y="0" dx="0em" dy="0.95em" style="text-anchor: middle; visibility: hidden; font-family: &quot;Helvetica Neue&quot;, sans-serif; font-size: 12px; font-weight: 200;" fill="rgb(50, 49, 63)" stroke="none" stroke-width="1px">900</text><text x="248.7890625" y="0" dx="0em" dy="0.95em" style="text-anchor: middle; visibility: inherit; font-family: &quot;Helvetica Neue&quot;, sans-serif; font-size: 12px; font-weight: 200;" fill="rgb(50, 49, 63)" stroke="none" stroke-width="1px">1k</text><text x="271.40625" y="0" dx="0em" dy="0.95em" style="text-anchor: middle; visibility: hidden; font-family: &quot;Helvetica Neue&quot;, sans-serif; font-size: 12px; font-weight: 200;" fill="rgb(50, 49, 63)" stroke="none" stroke-width="1px">1.1k</text></g><line x1="0" y1="0" x2="271.40625" y2="0" fill="rgb(0, 0, 0)" stroke="rgb(204, 204, 204)" stroke-width="1px"></line></g></g></g></g></svg>