<svg viewBox="0 0 330 200" xmlns="http://www.w3.org/2000/svg"><g><g><g><g><g><line x1="48.875" y1="177" x2="43.875" y2="177" style="visibility: inherit;" fill="rgb(0, 0, 0)" stroke="rgb(204, 204, 204)" stroke-width="1px"></line><line x1="48.875" y1="164.3571428571429" x2="43.875" y2="164.3571428571429" style="visibility: inherit;" fill="rgb(0, 0, 0)" stroke="rgb(204, 204, 204)" stroke-width="1px"></line><line x1="48.875" y1="151.7142857142857" x2="43.875" y2="151.7142857142857" style="visibility: inherit;" fill="rgb(0, 0, 0)" stroke="rgb(204, 204, 204)" stroke-width="1px"></line><line x1="48.875" y1="139.0714285714286" x2="43.875" y2="139.0714285714286" style="visibility: inherit;" fill="rgb(0, 0, 0)" stroke="rgb(204, 204, 204)" stroke-width="1px"></line><line x1="48.875" y1="126.42857142857139" x2="43.875" y2="126.42857142857139" style="visibility: inherit;" fill="rgb(0, 0, 0)" stroke="rgb(204, 204, 204)" stroke-width="1px"></line><line x1="48.875" y1="113.7857142857143" x2="43.875" y2="113.7857142857143" style="visibility: inherit;" fill="rgb(0, 0, 0)" stroke="rgb(204, 204, 204)" stroke-width="1px"></line><line x1="48.875" y1="101.14285714285721" x2="43.875" y2="101.14285714285721" style="visibility: inherit;" fill="rgb(0, 0, 0)" stroke="rgb(204, 204, 204)" stroke-width="1px"></line><line x1="48.875" y1="88.5" x2="43.875" y2="88.5" style="visibility: inherit;" fill="rgb(0, 0, 0)" stroke="rgb(204, 204, 204)" stroke-width="1px"></line><line x1="48.875" y1="75.8571428571429" x2="43.875" y2="75.8571428571429" style="visibility: inherit;" fill="rgb(0, 0, 0)" stroke="rgb(204, 204, 204)" stroke-width="1px"></line><line x1="48.875" y1="63.21428571428571" x2="43.875" y2="63.21428571428571" style="visibility: inherit;" fill="rgb(0, 0, 0)" stroke="rgb(204, 204, 204)" stroke-width="1px"></line><line x1="48.875" y1="50.57142857142861" x2="43.875" y2="50.57142857142861" style="visibility: inherit;" fill="rgb(0, 0, 0)" stroke="rgb(204, 204, 204)" stroke-width="1px"></line><line x1="48.875" y1="37.9285714285715" x2="43.875" y2="37.9285714285715" style="visibility: inherit;" fill="rgb(0, 0, 0)" stroke="rgb(204, 204, 204)" stroke-width="1px"></line><line x1="48.875" y1="25.285714285714306" x2="43.875" y2="25.285714285714306" style="visibility: inherit;" fill="rgb(0, 0, 0)" stroke="rgb(204, 204, 204)" stroke-width="1px"></line><line x1="48.875" y1="12.642857142857224" x2="43.875" y2="12.642857142857224" style="visibility: inherit;" fill="rgb(0, 0, 0)" stroke="rgb(204, 204, 204)" stroke-width="1px"></line><line x1="48.875" y1="0" x2="43.875" y2="0" style="visibility: inherit;" fill="rgb(0, 0, 0)" stroke="rgb(204, 204, 204)" stroke-width="1px"></line></g><g transform="translate(38.875, 0)"><text x="0" y="177" dx="0em" dy="0.3em" style="text-anchor: end; visibility: hidden; font-family: &quot;Helvetica Neue&quot;, sans-serif; font-size: 12px; font-weight: 200;" fill="rgb(50, 49, 63)" stroke="none" stroke-width="1px">3.25</text><text x="0" y="164.3571428571429" dx="0em" dy="0.3em" style="text-anchor: end; visibility: inherit; font-family: &quot;Helvetica Neue&quot;, sans-serif; font-size: 12px; font-weight: 200;" fill="rgb(50, 49, 63)" stroke="none" stroke-width="1px">3.3</text><text x="0" y="151.7142857142857" dx="0em" dy="0.3em" style="text-anchor: end; visibility: hidden; font-family: &quot;Helvetica Neue&quot;, sans-serif; font-size: 12px; font-weight: 200;" fill="rgb(50, 49, 63)" stroke="none" stroke-width="1px">3.35</text><text x="0" y="139.0714285714286" dx="0em" dy="0.3em" style="text-anchor: end; visibility: inherit; font-family: &quot;Helvetica Neue&quot;, sans-serif; font-size: 12px; font-weight: 200;" fill="rgb(50, 49, 63)" stroke="none" stroke-width="1px">3.4</text><text x="0" y="126.42857142857139" dx="0em" dy="0.3em" style="text-anchor: end; visibility: hidden; font-family: &quot;Helvetica Neue&quot;, sans-serif; font-size: 12px; font-weight: 200;" fill="rgb(50, 49, 63)" stroke="none" stroke-width="1px">3.45</text><text x="0" y="113.7857142857143" dx="0em" dy="0.3em" style="text-anchor: end; visibility: inherit; font-family: &quot;Helvetica Neue&quot;, sans-serif; font-size: 12px; font-weight: 200;" fill="rgb(50, 49, 63)" stroke="none" stroke-width="1px">3.5</text><text x="0" y="101.14285714285721" dx="0em" dy="0.3em" style="text-anchor: end; visibility: hidden; font-family: &quot;Helvetica Neue&quot;, sans-serif; font-size: 12px; font-weight: 200;" fill="rgb(50, 49, 63)" stroke="none" stroke-width="1px">3.55</text><text x="0" y="88.5" dx="0em" dy="0.3em" style="text-anchor: end; visibility: inherit; font-family: &quot;Helvetica Neue&quot;, sans-serif; font-size: 12px; font-weight: 200;" fill="rgb(50, 49, 63)" stroke="none" stroke-width="1px">3.6</text><text x="0" y="75.8571428571429" dx="0em" dy="0.3em" style="text-anchor: end; visibility: hidden; font-family: &quot;Helvetica Neue&quot;, sans-serif; font-size: 12px; font-weight: 200;" fill="rgb(50, 49, 63)" stroke="none" stroke-width="1px">3.65</text><text x="0" y="63.21428571428571" dx="0em" dy="0.3em" style="text-anchor: end; visibility: inherit; font-family: &quot;Helvetica Neue&quot;, sans-serif; font-size: 12px; font-weight: 200;" fill="rgb(50, 49, 63)" stroke="none" stroke-width="1px">3.7</text><text x="0" y="50.57142857142861" dx="0em" dy="0.3em" style="text-anchor: end; visibility: hidden; font-family: &quot;Helvetica Neue&quot;, sans-serif; font-size: 12px; font-weight: 200;" fill="rgb(50, 49, 63)" stroke="none" stroke-width="1px">3.75</text><text x="0" y="37.9285714285715" dx="0em" dy="0.3em" style="text-anchor: end; visibility: inherit; font-family: &quot;Helvetica Neue&quot;, sans-serif; font-size: 12px; font-weight: 200;" fill="rgb(50, 49, 63)" stroke="none" stroke-width="1px">3.8</text><text x="0" y="25.285714285714306" dx="0em" dy="0.3em" style="text-anchor: end; visibility: hidden; font-family: &quot;Helvetica Neue&quot;, sans-serif; font-size: 12px; font-weight: 200;" fill="rgb(50, 49, 63)" stroke="none" stroke-width="1px">3.85</text><text x="0" y="12.642857142857224" dx="0em" dy="0.3em" style="text-anchor: end; visibility: inherit; font-family: &quot;Helvetica Neue&quot;, sans-serif; font-size: 12px; font-weight: 200;" fill="rgb(50, 49, 63)" stroke="none" stroke-width="1px">3.9</text><text x="0" y="0" dx="0em" dy="0.3em" style="text-anchor: end; visibility: hidden; font-family: &quot;Helvetica Neue&quot;, sans-serif; font-size: 12px; font-weight: 200;" fill="rgb(50, 49, 63)" stroke="none" stroke-width="1px">3.95</text></g><line x1="48.875" y1="0" x2="48.875" y2="177" fill="rgb(0, 0, 0)" stroke="rgb(204, 204, 204)" stroke-width="1px"></line></g></g><g transform="translate(48, 0)" clip-path="url(#clip_0)"><clipPath id="clip_0"><rect width="281" height="177"></rect></clipPath><g><g><g><line x1="0" y1="0" x2="0" y2="177" fill="rgb(0, 0, 0)" stroke="rgb(60, 60, 60)" stroke-width="1px" opacity="0.25"></line><line x1="23.427083333333332" y1="0" x2="23.427083333333332" y2="177" fill="rgb(0, 0, 0)" stroke="rgb(60, 60, 60)" stroke-width="1px" opacity="0.25"></line><line x1="46.854166666666664" y1="0" x2="46.854166666666664" y2="177" fill="rgb(0, 0, 0)" stroke="rgb(60, 60, 60)" stroke-width="1px" opacity="0.25"></line><line x1="70.28125" y1="0" x2="70.28125" y2="177" fill="rgb(0, 0, 0)" stroke="rgb(60, 60, 60)" stroke-width="1px" opacity="0.25"></line><line x1="93.70833333333333" y1="0" x2="93.70833333333333" y2="177" fill="rgb(0, 0, 0)" stroke="rgb(60, 60, 60)" stroke-width="1px" opacity="0.25"></line><line x1="117.13541666666667" y1="0" x2="117.13541666666667" y2="177" fill="rgb(0, 0, 0)" stroke="rgb(60, 60, 60)" stroke-width="1px" opacity="0.25"></line><line x1="140.5625" y1="0" x2="140.5625" y2="177" fill="rgb(0, 0, 0)" stroke="rgb(60, 60, 60)" stroke-width="1px" opacity="0.25"></line><line x1="163.98958333333334" y1="0" x2="163.98958333333334" y2="177" fill="rgb(0, 0, 0)" stroke="rgb(60, 60, 60)" stroke-width="1px" opacity="0.25"></line><line x1="187.41666666666666" y1="0" x2="187.41666666666666" y2="177" fill="rgb(0, 0, 0)" stroke="rgb(60, 60, 60)" stroke-width="1px" opacity="0.25"></line><line x1="210.84375" y1="0" x2="210.84375" y2="177" fill="rgb(0, 0, 0)" stroke="rgb(60, 60, 60)" stroke-width="1px" opacity="0.25"></line><line x1="234.27083333333334" y1="0" x2="234.27083333333334" y2="177" fill="rgb(0, 0, 0)" stroke="rgb(60, 60, 60)" stroke-width="1px" opacity="0.25"></line><line x1="257.69791666666663" y1="0" x2="257.69791666666663" y2="177" fill="rgb(0, 0, 0)" stroke="rgb(60, 60, 60)" stroke-width="1px" opacity="0.25"></line><line x1="281.125" y1="0" x2="281.125" y2="177" fill="rgb(0, 0, 0)" stroke="rgb(60, 60, 60)" stroke-width="1px" opacity="0.25"></line></g><g><line x1="0" y1="177" x2="281.125" y2="177" fill="rgb(0, 0, 0)" stroke="rgb(60, 60, 60)" stroke-width="1px" opacity="0.25"></line><line x1="0" y1="164.3571428571429" x2="281.125" y2="164.3571428571429" fill="rgb(0, 0, 0)" stroke="rgb(60, 60, 60)" stroke-width="1px" opacity="0.25"></line><line x1="0" y1="151.7142857142857" x2="281.125" y2="151.7142857142857" fill="rgb(0, 0, 0)" stroke="rgb(60, 60, 60)" stroke-width="1px" opacity="0.25"></line><line x1="0" y1="139.0714285714286" x2="281.125" y2="139.0714285714286" fill="rgb(0, 0, 0)" stroke="rgb(60, 60, 60)" stroke-width="1px" opacity="0.25"></line><line x1="0" y1="126.42857142857139" x2="281.125" y2="126.42857142857139" fill="rgb(0, 0, 0)" stroke="rgb(60, 60, 60)" stroke-width="1px" opacity="0.25"></line><line x1="0" y1="113.7857142857143" x2="281.125" y2="113.7857142857143" fill="rgb(0, 0, 0)" stroke="rgb(60, 60, 60)" stroke-width="1px" opacity="0.25"></line><line x1="0" y1="101.14285714285721" x2="281.125" y2="101.14285714285721" fill="rgb(0, 0, 0)" stroke="rgb(60, 60, 60)" stroke-width="1px" opacity="0.25"></line><line x1="0" y1="88.5" x2="281.125" y2="88.5" fill="rgb(0, 0, 0)" stroke="rgb(60, 60, 60)" stroke-width="1px" opacity="0.25"></line><line x1="0" y1="75.8571428571429" x2="281.125" y2="75.8571428571429" fill="rgb(0, 0, 0)" stroke="rgb(60, 60, 60)" stroke-width="1px" opacity="0.25"></line><line x1="0" y1="63.21428571428571" x2="281.125" y2="63.21428571428571" fill="rgb(0, 0, 0)" stroke="rgb(60, 60, 60)" stroke-width="1px" opacity="0.25"></line><line x1="0" y1="50.57142857142861" x2="281.125" y2="50.57142857142861" fill="rgb(0, 0, 0)" stroke="rgb(60, 60, 60)" stroke-width="1px" opacity="0.25"></line><line x1="0" y1="37.9285714285715" x2="281.125" y2="37.9285714285715" fill="rgb(0, 0, 0)" stroke="rgb(60, 60, 60)" stroke-width="1px" opacity="0.25"></line><line x1="0" y1="25.285714285714306" x2="281.125" y2="25.285714285714306" fill="rgb(0, 0, 0)" stroke="rgb(60, 60, 60)" stroke-width="1px" opacity="0.25"></line><line x1="0" y1="12.642857142857224" x2="281.125" y2="12.642857142857224" fill="rgb(0, 0, 0)" stroke="rgb(60, 60, 60)" stroke-width="1px" opacity="0.25"></line><line x1="0" y1="0" x2="281.125" y2="0" fill="rgb(0, 0, 0)" stroke="rgb(60, 60, 60)" stroke-width="1px" opacity="0.25"></line></g></g></g><g><g><line x1="0" y1="998.785714285714" x2="281.125" y2="998.785714285714" fill="rgb(0, 0, 0)" stroke="rgb(153, 153, 153)" stroke-width="1.5px"></line></g></g><g><g><line x1="23.427083333333332" y1="0" x2="23.427083333333332" y2="177" fill="rgb(0, 0, 0)" stroke="rgb(153, 153, 153)" stroke-width="1.5px"></line></g></g><g><g><g><g><g><path stroke="rgb(0, 119, 187)" stroke-width="2px" d="M32.095104166666665,179.0045644896371L32.329375,165.38611364364624L32.56364583333333,157.7859379904611L32.797916666666666,142.237797669002L33.26645833333333,156.8975055558341L33.500729166666666,119.75799138205394L33.735,89.63448306492398L33.96927083333333,70.02386079515733L34.203541666666666,97.96007823944093L34.4378125,78.04501247406007L34.67208333333333,42.71178265980316L34.90635416666667,31.606889656611884L35.140625,11.568057060241728L35.37489583333333,31.258980069841698L35.60916666666667,24.784160205296132L35.8434375,43.797892366136864L36.077708333333334,10.174549852098778L36.31197916666667,49.697947025299115L36.54625,10.454035009656678L36.780520833333334,25.433318138122587L37.01479166666666,19.517950875418563L37.2490625,19.905287402016825L37.483333333333334,8.440668787275087L37.71760416666666,25.4007034982954L37.951875,23.297571659088163L38.186145833333335,-11.323802947998018L38.42041666666666,14.02470506940574L38.6546875,38.829073088509716L38.888958333333335,47.20422322409496L39.12322916666667,36.74854843957087L39.3575,14.775866644723123L39.591770833333335,4.541260038103417L39.82604166666667,21.097681045532255L40.060312499999995,18.87711238861087L40.294583333333335,20.187123707362616L40.52885416666667,18.92033733640403L40.763124999999995,11.57324164254328L40.997395833333336,36.82239859444758L41.23166666666667,10.20704392024453L41.465937499999995,22.05387476512368L41.700208333333336,17.338075160980253L41.93447916666667,34.847253595079735L42.168749999999996,17.895116329193144L42.403020833333336,42.92248167310444L42.63729166666667,33.27933944974629L42.871562499999996,20.638001510075185L43.10583333333333,4.076576777866961L43.34010416666667,32.6173406328474L43.574374999999996,18.556391716003446L43.80864583333333,40.60979625156952L44.04291666666667,24.471457549503896L44.277187500000004,53.0546626363482L44.51145833333333,31.07884597778323L44.74572916666667,30.899736745016952L44.980000000000004,4.43907553809035L45.21427083333333,-1.127357278551301L45.448541666666664,6.4430371693202915L45.682812500000004,30.398942266191796L45.91708333333333,44.81449249812539L46.151354166666664,12.145776271820097L46.385625000000005,30.95049742289956L46.61989583333333,28.86991248811998L46.854166666666664,-9.480503082275362L47.088437500000005,10.27836206981118L47.32270833333333,13.855784143720399L47.556979166666665,11.788100378853983L47.791250000000005,43.52232578822549L48.02552083333333,-17.626325879778108L48.259791666666665,10.56658867427285L48.4940625,32.59569801603047L48.72833333333333,32.29854910714289L48.962604166666665,33.76644904272899L49.196875,13.464709894997782L49.43114583333334,30.52481910160614L49.665416666666665,37.7567085538592L49.8996875,39.01198032924111L50.13395833333334,1.1219677243914248L50.368229166666666,6.701904569353417L50.6025,43.34412084306993L50.83677083333334,39.28591918945315L51.071041666666666,37.12497322899958L51.3053125,41.90986040660317L51.53958333333333,-10.567697933741954L51.773854166666666,21.541505404881093L52.008125,2.1486958776201845L52.24239583333333,46.90828003202168L52.47666666666667,33.12753970282421L52.7109375,27.812920842851952L52.94520833333333,16.205665928976913L53.17947916666667,37.68997212818695L53.41375,37.76617343085155L53.648020833333334,43.246397495269804L53.88229166666667,27.358064174652128L54.1165625,31.156855855669335L54.350833333333334,38.11046586717882L54.58510416666666,23.441473960876493L54.819375,29.139872482844794L55.053645833333334,25.37785516466417L55.28791666666666,39.035310949598085L55.5221875,38.55688251767842L55.756458333333335,39.50722851072041L55.99072916666666,33.9843823569162L56.225,24.876518113272567L56.459270833333335,21.730561801365468L56.69354166666667,28.013190405709423L56.9278125,40.54088953563149L57.162083333333335,54.61636734008793L57.39635416666667,44.114091600690614L57.630624999999995,36.85326494489399L57.864895833333335,22.631232261657743L58.09916666666667,34.087591716221425L58.333437499999995,54.48048305511479L58.567708333333336,33.69054916926797L58.80197916666667,56.67699766159062L59.036249999999995,16.589626448495096L59.270520833333336,29.833280222756542L59.50479166666667,40.11695950371882L59.739062499999996,37.51785605294367L59.973333333333336,58.73262425831388L60.20760416666667,41.41895280565538L60.441874999999996,30.09353419712616L60.67614583333333,37.30643360955378L60.91041666666667,41.872121470315136L61.144687499999996,52.90123517172681L61.37895833333333,51.27755662373136L61.61322916666667,56.403420516422855L61.847500000000004,42.952021735055126L62.08177083333333,50.74661922454838L62.31604166666667,36.37984023775377L62.550312500000004,43.41953842980524L62.78458333333333,53.831144264766166L63.018854166666664,51.41380262374882L63.253125000000004,57.7326630183629L63.48739583333333,38.98461055755618L63.721666666666664,68.4828341347831L63.955937500000005,43.66689123426167L64.19020833333333,45.44453981944497L64.42447916666666,37.235477175031434L64.65875,52.15911647251676L64.89302083333334,51.76563079016553L65.12729166666666,46.74177053996499L65.3615625,74.7248903683254L65.59583333333333,49.32260738100328L65.83010416666667,40.205097402845155L66.064375,35.60191174915863L66.29864583333334,53.15576199122842L66.53291666666667,48.79715599332539L66.76718749999999,102.73308910642353L67.00145833333333,61.38489982060025L67.23572916666667,74.07271814346315L67.47,53.7377614974976L67.70427083333334,48.47752046585086L67.93854166666667,68.13383940288003L68.17281249999999,29.178515706743553L68.40708333333333,57.89465107236593L68.64135416666667,34.862626484462226L68.875625,36.023852348327665L69.34416666666667,50.56075797762193L69.57843749999999,68.76828759057183L69.81270833333333,42.22189991814753L70.04697916666667,47.30164514269151L70.28125,62.01518828528272L70.51552083333334,58.40834672110425L70.74979166666667,57.07904393332349L70.98406250000001,70.37454353060045L71.45260416666666,77.13716799872266L71.686875,79.27243219103136L71.92114583333334,53.9696208408901L72.15541666666667,85.85444028036936L72.38968750000001,68.62776129586358L72.62395833333333,49.300603049142055L72.85822916666666,74.85860436303277L73.0925,63.186723027910546L73.32677083333333,78.18451390947618L73.56104166666667,41.308448859623525L73.79531250000001,54.366482530321434L74.02958333333332,60.57676812580655L74.26385416666666,76.94871446064542L74.498125,67.5786670957293L74.73239583333333,58.74474171229775L74.96666666666667,41.22217982155939L75.20093750000001,52.812072413308314L75.43520833333332,68.52569736753195L75.66947916666666,66.4874933787755L76.13802083333333,61.21983718872072L76.37229166666667,64.48365231922696L76.60656250000001,79.34628234590807L76.84083333333332,74.38445622580396L77.07510416666666,50.51723160062521L77.309375,68.14885057721823L77.54364583333333,59.34042610440939L77.77791666666667,52.59691224779405L78.01218750000001,63.00417750222344L78.24645833333334,78.41299724578859L78.48072916666666,70.385877268655L78.715,69.86669560841153L78.94927083333333,77.90683732713975L79.18354166666667,69.06935507910596L79.4178125,64.56612334932603L79.65208333333334,55.232368060520756L79.88635416666666,59.04092604773389L80.12062499999999,71.97549431664605L80.35489583333333,53.63955586297173L80.58916666666667,56.67862537928994L80.8234375,60.44624928065713L81.05770833333334,90.9689704350063L81.29197916666668,77.73411839348931L81.52624999999999,51.334888458251996L81.76052083333333,63.442033563341454L81.99479166666667,68.09302588871549L82.2290625,53.23154129300802L82.46333333333334,64.76223318917413L82.69760416666668,65.30323832375664L82.93187499999999,85.89561550957818L83.16614583333333,64.13170358112882L83.40041666666667,77.34400871821813L83.6346875,78.69615983963014L83.86895833333334,61.290431908198784L84.10322916666668,57.07982764925279L84.33749999999999,82.17338684626989L84.57177083333333,72.95857552119665L84.80604166666667,62.766530718122226L85.0403125,60.60166617802213L85.27458333333334,62.79016276768277L85.50885416666667,95.09782709394185L85.97739583333333,61.03662851878579L86.21166666666666,36.91017477852961L86.4459375,59.078363554818324L86.68020833333334,49.352026871272514L86.91447916666667,92.8889538901193L87.14874999999999,67.38798298154562L87.38302083333333,79.782872404371L87.61729166666666,82.17929485866003L87.8515625,52.1330729893276L88.08583333333334,76.53424930572511L88.32010416666667,67.84645680018838L88.55437500000001,50.550328527178124L88.78864583333333,80.18268809999742L89.02291666666666,65.76762015478955L89.2571875,85.76714638301306L89.49145833333334,66.2795072283064L89.72572916666667,81.91795573915758L89.96000000000001,76.04502970831739L90.19427083333333,78.25993149621148L90.42854166666666,70.56438364301412L90.6628125,58.84089762823926L91.13135416666667,64.92584896087648L91.59989583333332,97.30820744378228L91.83416666666666,95.73981101172313L92.0684375,85.17351170948575L92.30270833333333,80.3882628168379L92.53697916666667,101.82964549745834L92.77125000000001,62.43526002338956L93.00552083333332,63.777765410287074L93.23979166666666,83.02914435522898L93.4740625,74.2482102257865L93.70833333333333,66.14802380970548L93.94260416666667,73.0005947521755L94.17687500000001,65.39348622730802L94.41114583333332,89.78242451804027L94.64541666666666,75.3700694356646L94.8796875,99.71337134497509L95.34822916666667,70.65740469523843L95.58250000000001,78.40184436525621L95.81677083333334,95.96437576838903L96.05104166666666,89.81208515167238L96.2853125,98.1667381014143L96.75385416666667,56.539063658033115L96.988125,86.39996685300558L97.22239583333334,93.56511987958638L97.45666666666666,118.03580577032909L97.69093749999999,91.7005993979318L97.92520833333333,82.54963077817648L98.15947916666667,94.44227886199953L98.39375,69.23363399505617L98.62802083333334,75.862544468471L98.86229166666668,75.31979104450772L99.09656249999999,73.29310165132799L99.33083333333333,82.10496241705762L99.56510416666667,78.16112300327848L99.799375,94.30295828410559L100.03364583333334,61.11463839667188L100.26791666666668,87.35188027790616L100.50218749999999,73.2424012592861L100.73645833333333,111.9395206996373L100.97072916666667,78.87665564673291L101.205,96.5124343463353L101.43927083333334,75.87381792068483L101.67354166666668,99.56434474672592L101.90781249999999,86.30471522467478L102.14208333333333,93.84104817254205L102.37635416666667,97.23441757474629L102.610625,110.74863420213974L102.84489583333334,95.2383533886501L103.07916666666667,95.46780129841397L103.31343749999999,89.15490920203075L103.54770833333333,62.83374943052023L103.78197916666666,76.3403700419835L104.01625,90.11176606587003L104.25052083333334,83.2226016180856L104.48479166666667,114.1928245680673L104.71906249999999,98.27452918461393L104.95333333333333,75.91161714281358L105.18760416666666,70.08583463941305L105.421875,99.77444090162007L105.65614583333334,74.94969626835416L105.89041666666667,70.93230812890191L106.12468750000001,92.17143181392126L106.35895833333333,102.05023138863702L106.59322916666666,93.0934434618269L106.8275,77.13807228633337L107.06177083333334,68.91508361271451L107.29604166666667,91.2776942253113L107.53031250000001,103.28205197198052L107.76458333333333,84.07528454916819L107.99885416666666,105.30584764480592L108.233125,71.84690461839952L108.46739583333333,91.90291867937363L108.70166666666667,86.02432577950616L108.93593750000001,95.17059210368566L109.17020833333332,59.326982361929794L109.40447916666666,105.93909011568344L109.63875,81.88901853561403L110.10729166666667,86.45741925920763L110.34156250000001,85.57175997325353L110.57583333333332,91.48447465896608L110.81010416666666,94.15079682213921L111.044375,85.36118153163366L111.27864583333333,83.77867821284704L111.51291666666667,92.97793579101564L111.74718750000001,119.76070424488614L111.98145833333332,96.61684942245485L112.21572916666666,92.90969221932549L112.45,89.06339529582435L112.68427083333333,87.11923721858435L112.91854166666667,82.73977231979372L113.15281250000001,98.29171064921789L113.38708333333334,80.91962221690588L113.62135416666666,113.34755679539273L113.855625,61.346618311745814L114.08989583333333,104.70528009959631L114.32416666666667,96.8619716508048L114.5584375,97.11191674641202L114.79270833333334,91.97152396610807L115.02697916666666,65.03828205381124L115.26124999999999,68.22420787811281L115.49552083333333,72.91426542827062L115.9640625,99.27581671306066L116.19833333333334,88.19075775146486L116.43260416666668,78.59771306174146L116.66687499999999,81.75156681878228L116.90114583333333,82.70046595164709L117.13541666666667,90.73180593763081L117.3696875,132.45093400137768L117.60395833333334,98.93013770239696L117.83822916666668,109.50560045242311L118.07249999999999,93.58621992383686L118.30677083333333,85.5189495767866L118.54104166666667,89.88231815610615L118.7753125,86.51746395656042L119.00958333333334,89.85121066229686L119.24385416666668,92.75765132904054L119.47812499999999,92.56787150246758L119.71239583333333,117.10758468082975L119.94666666666667,86.3962894167219L120.1809375,92.96189975738527L120.41520833333334,92.89757476534164L120.64947916666667,100.36252927780153L120.88374999999999,103.11331190381733L121.35229166666666,96.07596485955376L121.5865625,83.0226334844317L121.82083333333334,108.66943584169663L122.05510416666667,98.12236772264755L122.28937499999999,89.98058407647271L122.52364583333333,83.14627974373956L122.75791666666666,99.57875306265697L122.9921875,95.765070778983L123.22645833333334,93.66145665305004L123.46072916666667,90.5187557765416L123.69500000000001,100.75884839466642L123.92927083333333,89.35132047108243L124.16354166666666,119.46741362980435L124.63208333333334,92.33902645111085L124.86635416666667,82.80825703484673L125.10062500000001,100.77078499112812L125.33489583333333,83.5735857827323L125.56916666666666,114.8199178831918L125.8034375,99.03961678913663L126.03770833333333,99.07488400595531L126.27197916666667,104.96776465007238L126.50625000000001,130.75955445425853L126.74052083333332,108.01467132568361L126.97479166666666,93.49657487869264L127.2090625,104.84176724297662L127.44333333333333,103.69187511716572L127.67760416666667,106.51897961752756L127.91187500000001,116.6690654754639L128.14614583333332,72.68680695125036L128.38041666666666,101.88842419215612L128.6146875,107.05877903529577L128.84895833333331,94.88128035409112L129.08322916666665,83.25105653490343L129.3175,83.50142363139562L129.55177083333334,107.17874785831998L129.78604166666668,101.8445361001151L130.02031250000002,95.08522735323227L130.25458333333333,83.68222086770196L130.48885416666667,110.260258606502L130.723125,101.93605000632152L130.95739583333332,93.43417903355191L131.19166666666666,122.32080275671825L131.4259375,109.90083442415512L131.66020833333334,102.9770659037999L131.89447916666666,98.71262638909478L132.12875,98.2532482828413L132.36302083333334,98.01897750582016L132.59729166666668,138.3336263384138L132.8315625,102.01430102757047L133.06583333333333,103.15068912506105L133.30010416666667,89.70887579236714L133.53437499999998,103.31508861269272L133.76864583333332,103.20494638170517L134.00291666666666,97.88333436420987L134.2371875,131.12072692598616L134.47145833333335,124.12817226137435L134.70572916666669,89.83686263220653L134.94,74.9832151957921L135.17427083333334,98.71389239174981L135.40854166666668,95.97510664803643L135.6428125,105.49044288907734L135.87708333333333,105.94674641745432L136.11135416666667,75.8929285321917L136.34562499999998,97.97412484032769L136.57989583333332,96.00530985423498L136.81416666666667,110.74748877116613L137.0484375,116.4645759037563L137.28270833333335,116.95572464806695L137.5169791666667,113.95614235741753L137.75125,107.22667510168894L137.98552083333334,107.82838807787216L138.21979166666665,133.14428145544872L138.4540625,87.99609477179392L138.68833333333333,115.23601075581144L138.92260416666667,110.71957642691477L139.39114583333333,100.16804715565274L139.62541666666667,120.686694758279L139.8596875,121.49729817254205L140.09395833333335,89.47665473393033L140.32822916666666,111.8488507952009L140.5625,100.88713666370938L141.03104166666668,90.50229774202622L141.2653125,116.43696498870852L141.49958333333333,111.41376788275583L141.73385416666667,109.35392127718247L141.96812500000001,116.12293604442053L142.20239583333333,115.90120472226826L142.43666666666667,118.53310367039273L142.67093749999998,106.22436271395004L142.90520833333332,106.91686616625107L143.13947916666666,88.74400091171266L143.37375,77.7655273165022L143.60802083333334,111.34226887566705L143.84229166666668,95.3041252408709L144.0765625,112.08716072355L144.31083333333333,114.71116222654072L144.54510416666668,107.96608093806677L144.77937500000002,110.49941253662111L145.01364583333336,109.86912407193867L145.24791666666667,100.15213169370381L145.48218749999998,96.27388327462334L145.71645833333332,102.87656940732685L145.95072916666666,114.5850442477635L146.185,71.80265481131421L146.41927083333334,133.90424476351058L147.35635416666668,103.77410500390191L147.59062500000002,116.5234148842948L147.82489583333336,109.346807547978L148.05916666666664,103.1900557790484L148.29343749999998,113.80934633527485L148.52770833333332,105.06946686335974L148.76197916666666,105.47585371562414L148.99625,93.88457454953877L149.23052083333334,99.35020944050382L149.46479166666666,95.17113467625211L149.6990625,115.31034319741387L149.93333333333334,102.06198712757657L150.16760416666668,95.81956917898998L150.40187500000002,101.75844791957311L150.63614583333336,83.98756865092687L150.87041666666664,111.45500339780537L151.10468749999998,115.86732407978604L151.33895833333332,112.75832298823767L151.57322916666666,130.08037417275568L151.8075,93.27719470432828L152.04177083333335,122.70524556296215L152.27604166666666,103.8232982499259L152.5103125,111.17991910661972L152.74458333333334,112.52881479263307L152.97885416666668,104.36834253583638L153.21312500000002,130.08893476213728L153.44739583333333,105.05053710937501L153.68166666666664,100.42637198311944L153.91593749999998,109.13604824883599L154.15020833333332,108.2214517593384L154.38447916666667,96.78287662778584L154.61875,123.59717457635064L154.85302083333332,112.98789146968298L155.08729166666666,100.65708589553834L155.3215625,105.34449086870468L155.55583333333334,99.71946021488736L155.79010416666668,118.28557000841414L156.02437500000002,71.04546465192526L156.25864583333333,115.74006067003523L156.49291666666667,101.26338059561596L156.72718749999999,85.08151551655362L156.96145833333333,97.62724011284966L157.19572916666667,108.43160820007326L157.43,102.20239285060339L157.66427083333332,100.3278046335493L157.89854166666666,103.92994390215195L158.1328125,112.54997512272428L158.36708333333334,96.69510044370381L158.60135416666668,119.28860582624165L158.835625,125.88453994478499L159.06989583333333,98.71280724661693L159.30416666666667,94.93897390365602L159.53843750000001,104.70570210048132L159.77270833333333,93.88596112387523L160.00697916666667,107.10218484061106L160.24124999999998,118.22859988893782L160.47552083333332,118.91796847752164L160.70979166666666,112.64552818025864L160.9440625,115.86690207890103L161.17833333333334,106.03211116790773L161.41260416666668,112.35579442977907L161.88114583333333,114.80382156372073L162.11541666666668,112.42216914040704L162.34968750000002,94.93945619038175L162.58395833333336,122.05313362394062L162.81822916666667,110.59484502247403L163.05249999999998,109.63744558606831L163.28677083333332,105.91786949975152L163.52104166666666,87.99115133285524L163.7553125,92.41372060775758L163.98958333333334,119.05927848815918L164.22385416666665,105.22651147842409L164.458125,105.48881517137802L164.69239583333334,96.76075172424318L164.92666666666668,120.01101105553765L165.16093750000002,98.55678749084474L165.39520833333336,102.46379225594659L165.86374999999998,122.61095850808282L166.09802083333332,120.80123785563879L166.33229166666666,90.1312383924212L166.5665625,102.18834624971664L166.80083333333334,113.82363407952447L167.03510416666666,88.02527311870031L167.269375,115.7922079222543L167.50364583333334,135.86027915137157L167.73791666666668,91.00182621819634L167.97218750000002,123.66626214981079L168.20645833333336,120.35524320602417L168.44072916666664,111.93789298193796L168.67499999999998,115.54738712310794L168.90927083333332,106.47925124849594L169.14354166666666,107.58820928846089L169.3778125,93.24801635742189L169.61208333333335,112.03272260938374L169.84635416666666,110.16506726401194L170.080625,127.11298452104842L170.31489583333334,133.1542286191668L170.54916666666668,99.94601440429689L170.78343750000002,113.00923265729634L171.01770833333333,96.92906979152136L171.25197916666664,103.92686932427544L171.48624999999998,115.42482600893294L171.72052083333332,116.390002318791L171.95479166666667,102.75846944536484L172.1890625,108.17424794605802L172.42333333333332,120.65371840340752L172.65760416666666,98.01120063236783L172.891875,113.11895288739888L173.12614583333334,108.08936548233034L173.36041666666668,126.33583974838257L173.59468750000002,110.48596879414151L173.82895833333333,128.39984607696533L174.06322916666667,106.41564968654089L174.29749999999999,105.4749494280134L174.53177083333333,101.13123403276718L174.76604166666667,113.4023566246033L175.0003125,126.2493898527963L175.23458333333332,99.48398372105191L175.46885416666666,114.83812420708794L175.703125,136.53945943287442L175.93739583333334,95.34126131875176L176.17166666666668,116.53498976571221L176.4059375,95.12200171606884L176.87447916666667,104.24005426679341L177.10875000000001,86.59360497338433L177.34302083333333,130.64386592592513L177.57729166666667,98.78683825901578L177.81156249999998,106.76585013525828L178.04583333333332,113.7275987352644L178.28010416666666,137.40582724979947L178.514375,122.1368706566947L178.74864583333334,118.3933610916138L178.98291666666668,91.61348635809765L179.2171875,125.78054686955045L179.45145833333333,119.68040350505285L179.68572916666668,89.77519021715439L179.92000000000002,113.4312938281468L180.15427083333336,122.68860667092461L180.38854166666667,125.35414511816845L180.62281249999998,123.60018886838643L180.85708333333332,124.89163214819774L181.09135416666666,144.461199760437L181.325625,94.23091670445035L181.55989583333334,92.15141691480366L181.79416666666665,87.12309551239015L182.0284375,103.49877956935339L182.26270833333334,128.98552301951818L182.49697916666668,141.6884730884007L182.73125000000002,132.83031279700145L182.96552083333336,102.3627531869071L183.19979166666664,120.87912716184346L183.43406249999998,90.90199286597118L183.66833333333332,114.74202857698714L183.90260416666666,114.28825705392022L184.136875,106.78508131844659L184.37114583333334,132.60502461024694L184.60541666666666,104.28719779423307L184.8396875,104.38926172256471L185.07395833333334,99.4920017378671L185.30822916666668,107.33157246453423L185.54250000000002,112.88829926082067L185.77677083333336,101.52520200184415L186.01104166666664,126.29605109351024L186.24531249999998,104.09337881633215L186.47958333333332,89.17377867017476L186.71385416666666,127.40922914232527L186.948125,84.58650847843717L187.18239583333335,110.65133285522462L187.41666666666666,123.50481666837422L187.6509375,136.8408886364528L187.88520833333334,105.50726263863702L188.11947916666668,124.71511520658221L188.35375000000002,118.13871370043074L188.58802083333333,87.88534968239922L188.82229166666664,111.98642308371409L189.05656249999998,116.49930054800853L189.29083333333332,74.47994899749757L189.52510416666667,99.89621829986574L189.759375,118.82175227573941L189.99364583333332,96.9476981163025L190.22791666666666,115.96890572139196L190.4621875,116.91189684186665L190.69645833333334,116.14216722760884L190.93072916666668,97.60975721904211L191.16500000000002,99.19726426260814L191.39927083333333,105.00001757485528L191.63354166666667,101.7868425505502L191.86781249999999,118.62516014916558L192.10208333333333,120.94532101494927L192.33635416666667,119.68100636346001L192.570625,142.33148186547416L192.80489583333332,119.21831253596716L193.03916666666666,127.59279952730452L193.2734375,104.34254019601006L193.50770833333334,86.68162230082922L193.74197916666668,104.24529913493566L193.97625,118.50669847215926L194.21052083333333,108.7343034063067L194.44479166666667,108.74412999834335L194.67906250000001,121.12274224417553L194.91333333333333,120.27494246619091L195.14760416666667,107.46667303357808L195.38187499999998,133.4329300607954L195.61614583333332,105.20179428373066L195.85041666666666,111.52716554914204L196.0846875,105.97821562630791L196.31895833333334,111.60415056773596L196.55322916666668,110.17163842064996L196.7875,119.68685409000943L197.02177083333333,128.2371345928737L197.25604166666668,121.23029218401228L197.49031250000002,111.76390804563252L197.72458333333336,138.21866124016898L197.95885416666667,137.56329386574882L198.19312499999998,144.92576244899206L198.42739583333332,103.8114219393049L198.66166666666666,106.64612245559694L198.8959375,126.41849163600378L199.13020833333334,119.70928042275567L199.36447916666665,121.59701095308577L199.59875,129.30009453637263L199.83302083333334,108.48080144609726L200.06729166666668,128.74130507877896L200.30156250000002,126.7653160776411L200.53583333333336,100.52903876985825L200.77010416666664,113.17188385554724L201.00437499999998,136.01973520006453L201.23864583333332,130.38065794536047L201.47291666666666,103.8790626525879L201.7071875,126.71256596701488L201.94145833333334,115.77152987888883L202.17572916666666,116.32670218603954L202.41,130.75732387815202L202.64427083333334,125.85005644389562L202.87854166666668,118.07523271015714L203.11281250000002,129.48746292931696L203.34708333333336,99.37558977944512L203.58135416666664,129.5553447859628L203.81562499999998,140.3638725961958L204.04989583333332,107.20991563796998L204.28416666666666,114.73780856813704L204.5184375,135.38100671768188L204.75270833333335,133.6417602130345L204.98697916666666,120.17342111042569L205.22125,104.87317616598948L205.68979166666668,108.1368707248143L205.92406250000002,98.66777372360231L206.15833333333333,113.47403648921423L206.39260416666664,117.56846993310113L206.62687499999998,92.25106940950668L206.86114583333332,114.33214514596123L207.09541666666667,124.34737157821655L207.3296875,126.9133781024388L207.56395833333332,127.38366794586182L207.79822916666666,124.33838898794994L208.0325,91.42250081471036L208.26677083333334,119.33243363244195L208.50104166666668,127.35521302904402L208.73531250000002,113.8083214759827L208.96958333333333,94.42286682128908L209.20385416666667,134.47310195650374L209.43812499999999,121.34658357075284L209.67239583333333,112.50005844661169L209.90666666666667,102.74816056660245L210.1409375,129.08499465669905L210.37520833333332,95.20435217448644L210.60947916666666,105.66141353334702L210.84375,130.31368037632535L211.07802083333334,120.74643802642822L211.31229166666668,108.60040855407716L211.5465625,141.58749430520194L211.78083333333333,101.67832803726198L212.01510416666667,100.7941156114851L212.24937500000001,110.62577165876118L212.48364583333333,121.81036254337857L212.71791666666667,111.75582974297662L212.95218749999998,115.95311083112446L213.42072916666666,134.5252492087228L213.655,129.58795942578996L213.88927083333334,109.20302581787111L214.12354166666668,125.42835698808943L214.3578125,114.12717328752791L214.59208333333333,112.08631672177998L214.82635416666668,139.00732060841153L215.06062500000002,126.65957471302579L215.29489583333336,124.60322468621392L215.52916666666667,101.59374700273789L215.76343749999998,112.75241497584753L215.99770833333332,107.66000972475327L216.23197916666666,124.28105715342932L216.46625,115.33114181246077L216.70052083333334,117.7536680357797L216.93479166666665,111.21464375087194L217.1690625,123.78363868168424L217.40333333333334,110.79619973046441L217.63760416666668,123.96395363126484L217.87187500000002,127.98911864416942L218.10614583333336,128.23267344066076L218.34041666666664,124.70348003932409L218.57468749999998,138.38083015169417L218.80895833333332,117.49166577202935L219.04322916666666,93.75092084067211L219.2775,139.14199917657035L219.51177083333334,129.22570180892944L219.74604166666666,115.00535712923323L219.9803125,131.98154844556535L220.21458333333334,135.1176178795951L220.44885416666668,107.57916641235353L220.68312500000002,112.5650465829032L220.91739583333336,107.89138678142004L221.15166666666664,127.99514722824097L221.38593749999998,149.09018775394986L221.62020833333332,108.39230183192663L221.85447916666666,122.75986453465055L222.08875,132.2761653491429L222.32302083333335,112.12694937842234L222.55729166666666,132.17470427921842L222.7915625,125.7423256465367L223.02583333333334,100.01787512642998L223.26010416666668,144.10756301879883L223.49437500000002,110.92913000924248L223.72864583333333,131.07563311713085L223.96291666666664,109.06231866564072L224.19718749999998,115.31896407263622L224.66572916666667,118.75163984298709L224.9,133.79157052721297L225.13427083333332,143.42934731074743L225.36854166666666,119.3726442881993L225.6028125,110.5428183419364L226.07135416666668,110.46125159944809L226.30562500000002,128.07382025037492L226.53989583333333,137.87937252862113L226.77416666666667,142.57817152568273L227.00843749999999,131.53458922249933L227.24270833333333,123.16715567452569L227.47697916666667,132.08771181106567L227.71125,128.98889902659826L227.94552083333332,95.21622848510744L228.17979166666666,135.1118907247271L228.4140625,124.54094941275463L228.64833333333334,132.42549337659563L228.88260416666668,95.32631043025427L229.116875,115.71401718684606L229.35114583333333,121.66941424778531L229.58541666666667,128.53675522123064L229.81968750000001,137.72377477373396L230.05395833333333,110.32693474633355L230.28822916666667,137.15847444534302L230.52249999999998,124.04142093658447L230.75677083333332,132.70099966866633L230.99104166666666,124.0968236242022L231.2253125,146.0838534491403L231.45958333333334,121.83507973807201L231.69385416666668,116.64796543121341L231.928125,132.4691403252738L232.16239583333333,123.87129429408483L232.39666666666668,122.48689024788995L232.63093750000002,118.3103474889483L232.86520833333336,112.32317978995188L233.09947916666667,125.79374946866717L233.33374999999998,128.79194518498014L233.56802083333332,113.57712527683805L233.80229166666666,142.94856773103987L234.0365625,118.73078094209944L234.27083333333334,106.36513015202115L234.50510416666665,119.3452745165144L234.739375,118.5852509226118L234.97364583333334,107.92062541416715L235.20791666666668,148.936217716762L235.44218750000002,123.06677974973408L235.67645833333336,120.23846953255791L235.91072916666664,151.9595526286534L236.14499999999998,110.69401523045133L236.37927083333332,138.75936494554793L236.61354166666666,106.34240239007134L236.8478125,127.285884312221L237.08208333333334,135.13479934419905L237.31635416666666,131.99740362167358L237.78489583333334,134.10210289273945L238.01916666666668,121.04111521584649L238.25343750000002,114.46893371854512L238.48770833333336,126.0068599155971L238.72197916666664,107.69606065750123L238.95624999999998,105.29119818551202L239.19052083333332,102.43286561965944L239.42479166666666,107.17169441495625L239.6590625,112.5977215085711L239.89333333333335,125.80110434123449L240.12760416666666,154.13382175990515L240.361875,98.67090858731953L240.59614583333334,136.98467036655973L240.83041666666668,131.53398636409216L241.29895833333333,130.48272187369213L241.53322916666664,125.24237516948156L241.76749999999998,130.26840570994787L242.00177083333332,120.20440803255354L242.23604166666667,105.27299186161588L242.4703125,145.3053823879787L242.70458333333332,120.80389043263028L242.93885416666666,150.4770635196141L243.173125,140.80570752280101L243.40739583333334,130.3500930241176L243.64166666666668,110.93817288534983L243.87593750000002,137.57378360203336L244.11020833333333,128.84921673366003L244.34447916666667,126.64136838912964L244.57874999999999,132.00451735087805L244.81302083333333,123.35759864534651L245.2815625,132.72849001203264L245.51583333333332,127.11919396264214L245.75010416666666,124.06848927906583L246.21864583333334,137.71720361709595L246.45291666666668,132.2493381500244L246.6871875,126.88365718296598L246.92145833333333,146.17711564472745L247.15572916666667,137.10246889931815L247.39000000000001,141.06620264053345L247.62427083333333,134.41390126092094L247.85854166666667,106.54297338213242L248.09281249999998,130.26442684446062L248.32708333333332,122.64086028507779L248.56135416666666,146.3530297279358L248.795625,114.27276359285628L249.02989583333334,104.90723766599385L249.26416666666668,137.69604328700476L249.4984375,124.93214423315868L249.73270833333333,113.85558557510379L249.96697916666668,147.02937657492504L250.20125000000002,135.694372517722L250.43552083333336,117.42908906936648L250.66979166666667,105.24140208108086L250.90406249999998,121.45949895041332L251.13833333333332,126.39003671918597L251.37260416666666,138.07777323041643L251.606875,128.71526159558977L251.84114583333334,113.69588838304793L252.07541666666665,129.01295307704382L252.3096875,144.990871156965L252.54395833333334,126.25807101385936L252.77822916666668,121.72970008850098L253.01250000000002,148.37971912111556L253.24677083333336,118.83206115450179L253.48104166666664,124.25260223661152L253.71531249999998,101.57897697176254L253.94958333333332,137.85363047463554L254.18385416666666,128.44307102475847L254.418125,115.4149994168963L254.65239583333334,116.77908713477001L254.88666666666666,139.14959519250053L255.1209375,105.05288825716293L255.35520833333334,75.46110105514528L255.58947916666668,81.04592105320523L255.82375000000002,123.70731680733819L256.05802083333333,102.68853787013464L256.29229166666664,114.07731689725605L256.7608333333333,133.14590917314803L256.9951041666667,133.87012297766552L257.229375,91.82412508555822L257.4636458333334,126.3097359793527L257.69791666666663,118.95890256336759L257.9321875,118.50386503764562L258.1664583333333,110.0765073640006L258.4007291666667,131.33281251362394L258.635,132.0992264066424L258.8692708333333,114.36644778932845L259.3378125,115.88125010899137L259.57208333333335,138.68720279421126L259.80635416666667,122.43196984699796L260.04062500000003,125.53964465005059L260.27489583333335,129.33500003814697L260.50916666666666,125.24707746505737L260.74343749999997,136.25328254699707L260.97770833333334,129.64312097004483L261.21197916666665,143.8837216922215L261.44625,115.05979524339949L261.68052083333333,119.84775699887959L261.91479166666664,121.24735307693481L262.1490625,124.69907917295184L262.3833333333333,130.29366547720775L262.6176041666667,126.07691206250873L262.851875,132.46100173677718L263.0861458333333,114.71248851503645L263.3204166666667,144.73917777197704L263.5546875,131.57341330392023L263.7889583333333,113.39162574495589L264.0232291666667,107.90404680797033L264.2575,146.6717006819589L264.4917708333333,114.23442179816112L264.7260416666667,129.0532240186419" style="fill: none;" fill="none"></path></g></g></g></g></g></g><g transform="translate(48, 177)" clip-path="url(#clip_1)"><clipPath id="clip_1"><rect width="281" height="23"></rect></clipPath><g><g><line x1="0" y1="0" x2="0" y2="5" style="visibility: inherit;" fill="rgb(0, 0, 0)" stroke="rgb(204, 204, 204)" stroke-width="1px"></line><line x1="23.427083333333332" y1="0" x2="23.427083333333332" y2="5" style="visibility: inherit;" fill="rgb(0, 0, 0)" stroke="rgb(204, 204, 204)" stroke-width="1px"></line><line x1="46.854166666666664" y1="0" x2="46.854166666666664" y2="5" style="visibility: inherit;" fill="rgb(0, 0, 0)" stroke="rgb(204, 204, 204)" stroke-width="1px"></line><line x1="70.28125" y1="0" x2="70.28125" y2="5" style="visibility: inherit;" fill="rgb(0, 0, 0)" stroke="rgb(204, 204, 204)" stroke-width="1px"></line><line x1="93.70833333333333" y1="0" x2="93.70833333333333" y2="5" style="visibility: inherit;" fill="rgb(0, 0, 0)" stroke="rgb(204, 204, 204)" stroke-width="1px"></line><line x1="117.13541666666667" y1="0" x2="117.13541666666667" y2="5" style="visibility: inherit;" fill="rgb(0, 0, 0)" stroke="rgb(204, 204, 204)" stroke-width="1px"></line><line x1="140.5625" y1="0" x2="140.5625" y2="5" style="visibility: inherit;" fill="rgb(0, 0, 0)" stroke="rgb(204, 204, 204)" stroke-width="1px"></line><line x1="163.98958333333334" y1="0" x2="163.98958333333334" y2="5" style="visibility: inherit;" fill="rgb(0, 0, 0)" stroke="rgb(204, 204, 204)" stroke-width="1px"></line><line x1="187.41666666666666" y1="0" x2="187.41666666666666" y2="5" style="visibility: inherit;" fill="rgb(0, 0, 0)" stroke="rgb(204, 204, 204)" stroke-width="1px"></line><line x1="210.84375" y1="0" x2="210.84375" y2="5" style="visibility: inherit;" fill="rgb(0, 0, 0)" stroke="rgb(204, 204, 204)" stroke-width="1px"></line><line x1="234.27083333333334" y1="0" x2="234.27083333333334" y2="5" style="visibility: inherit;" fill="rgb(0, 0, 0)" stroke="rgb(204, 204, 204)" stroke-width="1px"></line><line x1="257.69791666666663" y1="0" x2="257.69791666666663" y2="5" style="visibility: inherit;" fill="rgb(0, 0, 0)" stroke="rgb(204, 204, 204)" stroke-width="1px"></line><line x1="281.125" y1="0" x2="281.125" y2="5" style="visibility: inherit;" fill="rgb(0, 0, 0)" stroke="rgb(204, 204, 204)" stroke-width="1px"></line></g><g transform="translate(0, 8)"><text x="0" y="0" dx="0em" dy="0.95em" style="text-anchor: middle; visibility: hidden; font-family: &quot;Helvetica Neue&quot;, sans-serif; font-size: 12px; font-weight: 200;" fill="rgb(50, 49, 63)" stroke="none" stroke-width="1px">-100</text><text x="23.427083333333332" y="0" dx="0em" dy="0.95em" style="text-anchor: middle; visibility: inherit; font-family: &quot;Helvetica Neue&quot;, sans-serif; font-size: 12px; font-weight: 200;" fill="rgb(50, 49, 63)" stroke="none" stroke-width="1px">0</text><text x="46.854166666666664" y="0" dx="0em" dy="0.95em" style="text-anchor: middle; visibility: hidden; font-family: &quot;Helvetica Neue&quot;, sans-serif; font-size: 12px; font-weight: 200;" fill="rgb(50, 49, 63)" stroke="none" stroke-width="1px">100</text><text x="70.28125" y="0" dx="0em" dy="0.95em" style="text-anchor: middle; visibility: inherit; font-family: &quot;Helvetica Neue&quot;, sans-serif; font-size: 12px; font-weight: 200;" fill="rgb(50, 49, 63)" stroke="none" stroke-width="1px">200</text><text x="93.70833333333333" y="0" dx="0em" dy="0.95em" style="text-anchor: middle; visibility: hidden; font-family: &quot;Helvetica Neue&quot;, sans-serif; font-size: 12px; font-weight: 200;" fill="rgb(50, 49, 63)" stroke="none" stroke-width="1px">300</text><text x="117.13541666666667" y="0" dx="0em" dy="0.95em" style="text-anchor: middle; visibility: inherit; font-family: &quot;Helvetica Neue&quot;, sans-serif; font-size: 12px; font-weight: 200;" fill="rgb(50, 49, 63)" stroke="none" stroke-width="1px">400</text><text x="140.5625" y="0" dx="0em" dy="0.95em" style="text-anchor: middle; visibility: hidden; font-family: &quot;Helvetica Neue&quot;, sans-serif; font-size: 12px; font-weight: 200;" fill="rgb(50, 49, 63)" stroke="none" stroke-width="1px">500</text><text x="163.98958333333334" y="0" dx="0em" dy="0.95em" style="text-anchor: middle; visibility: inherit; font-family: &quot;Helvetica Neue&quot;, sans-serif; font-size: 12px; font-weight: 200;" fill="rgb(50, 49, 63)" stroke="none" stroke-width="1px">600</text><text x="187.41666666666666" y="0" dx="0em" dy="0.95em" style="text-anchor: middle; visibility: hidden; font-family: &quot;Helvetica Neue&quot;, sans-serif; font-size: 12px; font-weight: 200;" fill="rgb(50, 49, 63)" stroke="none" stroke-width="1px">700</text><text x="210.84375" y="0" dx="0em" dy="0.95em" style="text-anchor: middle; visibility: inherit; font-family: &quot;Helvetica Neue&quot;, sans-serif; font-size: 12px; font-weight: 200;" fill="rgb(50, 49, 63)" stroke="none" stroke-width="1px">800</text><text x="234.27083333333334" y="0" dx="0em" dy="0.95em" style="text-anchor: middle; visibility: hidden; font-family: &quot;Helvetica Neue&quot;, sans-serif; font-size: 12px; font-weight: 200;" fill="rgb(50, 49, 63)" stroke="none" stroke-width="1px">900</text><text x="257.69791666666663" y="0" dx="0em" dy="0.95em" style="text-anchor: middle; visibility: inherit; font-family: &quot;Helvetica Neue&quot;, sans-serif; font-size: 12px; font-weight: 200;" fill="rgb(50, 49, 63)" stroke="none" stroke-width="1px">1k</text><text x="281.125" y="0" dx="0em" dy="0.95em" style="text-anchor: middle; visibility: hidden; font-family: &quot;Helvetica Neue&quot;, sans-serif; font-size: 12px; font-weight: 200;" fill="rgb(50, 49, 63)" stroke="none" stroke-width="1px">1.1k</text></g><line x1="0" y1="0" x2="281.125" y2="0" fill="rgb(0, 0, 0)" stroke="rgb(204, 204, 204)" stroke-width="1px"></line></g></g></g></g></svg>