<svg viewBox="0 0 330 200" xmlns="http://www.w3.org/2000/svg"><g><g><g><g><g><line x1="39.15625" y1="177" x2="34.15625" y2="177" style="visibility: inherit;" fill="rgb(0, 0, 0)" stroke="rgb(204, 204, 204)" stroke-width="1px"></line><line x1="39.15625" y1="154.875" x2="34.15625" y2="154.875" style="visibility: inherit;" fill="rgb(0, 0, 0)" stroke="rgb(204, 204, 204)" stroke-width="1px"></line><line x1="39.15625" y1="132.75" x2="34.15625" y2="132.75" style="visibility: inherit;" fill="rgb(0, 0, 0)" stroke="rgb(204, 204, 204)" stroke-width="1px"></line><line x1="39.15625" y1="110.625" x2="34.15625" y2="110.625" style="visibility: inherit;" fill="rgb(0, 0, 0)" stroke="rgb(204, 204, 204)" stroke-width="1px"></line><line x1="39.15625" y1="88.5" x2="34.15625" y2="88.5" style="visibility: inherit;" fill="rgb(0, 0, 0)" stroke="rgb(204, 204, 204)" stroke-width="1px"></line><line x1="39.15625" y1="66.375" x2="34.15625" y2="66.375" style="visibility: inherit;" fill="rgb(0, 0, 0)" stroke="rgb(204, 204, 204)" stroke-width="1px"></line><line x1="39.15625" y1="44.25" x2="34.15625" y2="44.25" style="visibility: inherit;" fill="rgb(0, 0, 0)" stroke="rgb(204, 204, 204)" stroke-width="1px"></line><line x1="39.15625" y1="22.125" x2="34.15625" y2="22.125" style="visibility: inherit;" fill="rgb(0, 0, 0)" stroke="rgb(204, 204, 204)" stroke-width="1px"></line><line x1="39.15625" y1="0" x2="34.15625" y2="0" style="visibility: inherit;" fill="rgb(0, 0, 0)" stroke="rgb(204, 204, 204)" stroke-width="1px"></line></g><g transform="translate(29.15625, 0)"><text x="0" y="177" dx="0em" dy="0.3em" style="text-anchor: end; visibility: hidden; font-family: &quot;Helvetica Neue&quot;, sans-serif; font-size: 12px; font-weight: 200;" fill="rgb(50, 49, 63)" stroke="none" stroke-width="1px">65</text><text x="0" y="154.875" dx="0em" dy="0.3em" style="text-anchor: end; visibility: inherit; font-family: &quot;Helvetica Neue&quot;, sans-serif; font-size: 12px; font-weight: 200;" fill="rgb(50, 49, 63)" stroke="none" stroke-width="1px">70</text><text x="0" y="132.75" dx="0em" dy="0.3em" style="text-anchor: end; visibility: hidden; font-family: &quot;Helvetica Neue&quot;, sans-serif; font-size: 12px; font-weight: 200;" fill="rgb(50, 49, 63)" stroke="none" stroke-width="1px">75</text><text x="0" y="110.625" dx="0em" dy="0.3em" style="text-anchor: end; visibility: inherit; font-family: &quot;Helvetica Neue&quot;, sans-serif; font-size: 12px; font-weight: 200;" fill="rgb(50, 49, 63)" stroke="none" stroke-width="1px">80</text><text x="0" y="88.5" dx="0em" dy="0.3em" style="text-anchor: end; visibility: hidden; font-family: &quot;Helvetica Neue&quot;, sans-serif; font-size: 12px; font-weight: 200;" fill="rgb(50, 49, 63)" stroke="none" stroke-width="1px">85</text><text x="0" y="66.375" dx="0em" dy="0.3em" style="text-anchor: end; visibility: inherit; font-family: &quot;Helvetica Neue&quot;, sans-serif; font-size: 12px; font-weight: 200;" fill="rgb(50, 49, 63)" stroke="none" stroke-width="1px">90</text><text x="0" y="44.25" dx="0em" dy="0.3em" style="text-anchor: end; visibility: hidden; font-family: &quot;Helvetica Neue&quot;, sans-serif; font-size: 12px; font-weight: 200;" fill="rgb(50, 49, 63)" stroke="none" stroke-width="1px">95</text><text x="0" y="22.125" dx="0em" dy="0.3em" style="text-anchor: end; visibility: inherit; font-family: &quot;Helvetica Neue&quot;, sans-serif; font-size: 12px; font-weight: 200;" fill="rgb(50, 49, 63)" stroke="none" stroke-width="1px">100</text><text x="0" y="0" dx="0em" dy="0.3em" style="text-anchor: end; visibility: hidden; font-family: &quot;Helvetica Neue&quot;, sans-serif; font-size: 12px; font-weight: 200;" fill="rgb(50, 49, 63)" stroke="none" stroke-width="1px">105</text></g><line x1="39.15625" y1="0" x2="39.15625" y2="177" fill="rgb(0, 0, 0)" stroke="rgb(204, 204, 204)" stroke-width="1px"></line></g></g><g transform="translate(39, 0)" clip-path="url(#clip_0)"><clipPath id="clip_0"><rect width="290" height="177"></rect></clipPath><g><g><g><line x1="0" y1="0" x2="0" y2="177" fill="rgb(0, 0, 0)" stroke="rgb(60, 60, 60)" stroke-width="1px" opacity="0.25"></line><line x1="22.372596153846157" y1="0" x2="22.372596153846157" y2="177" fill="rgb(0, 0, 0)" stroke="rgb(60, 60, 60)" stroke-width="1px" opacity="0.25"></line><line x1="44.745192307692314" y1="0" x2="44.745192307692314" y2="177" fill="rgb(0, 0, 0)" stroke="rgb(60, 60, 60)" stroke-width="1px" opacity="0.25"></line><line x1="67.11778846153847" y1="0" x2="67.11778846153847" y2="177" fill="rgb(0, 0, 0)" stroke="rgb(60, 60, 60)" stroke-width="1px" opacity="0.25"></line><line x1="89.49038461538463" y1="0" x2="89.49038461538463" y2="177" fill="rgb(0, 0, 0)" stroke="rgb(60, 60, 60)" stroke-width="1px" opacity="0.25"></line><line x1="111.86298076923077" y1="0" x2="111.86298076923077" y2="177" fill="rgb(0, 0, 0)" stroke="rgb(60, 60, 60)" stroke-width="1px" opacity="0.25"></line><line x1="134.23557692307693" y1="0" x2="134.23557692307693" y2="177" fill="rgb(0, 0, 0)" stroke="rgb(60, 60, 60)" stroke-width="1px" opacity="0.25"></line><line x1="156.60817307692307" y1="0" x2="156.60817307692307" y2="177" fill="rgb(0, 0, 0)" stroke="rgb(60, 60, 60)" stroke-width="1px" opacity="0.25"></line><line x1="178.98076923076925" y1="0" x2="178.98076923076925" y2="177" fill="rgb(0, 0, 0)" stroke="rgb(60, 60, 60)" stroke-width="1px" opacity="0.25"></line><line x1="201.3533653846154" y1="0" x2="201.3533653846154" y2="177" fill="rgb(0, 0, 0)" stroke="rgb(60, 60, 60)" stroke-width="1px" opacity="0.25"></line><line x1="223.72596153846155" y1="0" x2="223.72596153846155" y2="177" fill="rgb(0, 0, 0)" stroke="rgb(60, 60, 60)" stroke-width="1px" opacity="0.25"></line><line x1="246.09855769230768" y1="0" x2="246.09855769230768" y2="177" fill="rgb(0, 0, 0)" stroke="rgb(60, 60, 60)" stroke-width="1px" opacity="0.25"></line><line x1="268.47115384615387" y1="0" x2="268.47115384615387" y2="177" fill="rgb(0, 0, 0)" stroke="rgb(60, 60, 60)" stroke-width="1px" opacity="0.25"></line><line x1="290.84375" y1="0" x2="290.84375" y2="177" fill="rgb(0, 0, 0)" stroke="rgb(60, 60, 60)" stroke-width="1px" opacity="0.25"></line></g><g><line x1="0" y1="177" x2="290.84375" y2="177" fill="rgb(0, 0, 0)" stroke="rgb(60, 60, 60)" stroke-width="1px" opacity="0.25"></line><line x1="0" y1="154.875" x2="290.84375" y2="154.875" fill="rgb(0, 0, 0)" stroke="rgb(60, 60, 60)" stroke-width="1px" opacity="0.25"></line><line x1="0" y1="132.75" x2="290.84375" y2="132.75" fill="rgb(0, 0, 0)" stroke="rgb(60, 60, 60)" stroke-width="1px" opacity="0.25"></line><line x1="0" y1="110.625" x2="290.84375" y2="110.625" fill="rgb(0, 0, 0)" stroke="rgb(60, 60, 60)" stroke-width="1px" opacity="0.25"></line><line x1="0" y1="88.5" x2="290.84375" y2="88.5" fill="rgb(0, 0, 0)" stroke="rgb(60, 60, 60)" stroke-width="1px" opacity="0.25"></line><line x1="0" y1="66.375" x2="290.84375" y2="66.375" fill="rgb(0, 0, 0)" stroke="rgb(60, 60, 60)" stroke-width="1px" opacity="0.25"></line><line x1="0" y1="44.25" x2="290.84375" y2="44.25" fill="rgb(0, 0, 0)" stroke="rgb(60, 60, 60)" stroke-width="1px" opacity="0.25"></line><line x1="0" y1="22.125" x2="290.84375" y2="22.125" fill="rgb(0, 0, 0)" stroke="rgb(60, 60, 60)" stroke-width="1px" opacity="0.25"></line><line x1="0" y1="0" x2="290.84375" y2="0" fill="rgb(0, 0, 0)" stroke="rgb(60, 60, 60)" stroke-width="1px" opacity="0.25"></line></g></g></g><g><g><line x1="0" y1="464.625" x2="290.84375" y2="464.625" fill="rgb(0, 0, 0)" stroke="rgb(153, 153, 153)" stroke-width="1.5px"></line></g></g><g><g><line x1="22.372596153846157" y1="0" x2="22.372596153846157" y2="177" fill="rgb(0, 0, 0)" stroke="rgb(153, 153, 153)" stroke-width="1.5px"></line></g></g><g><g><g><g><g><path stroke="rgb(204, 51, 17)" stroke-width="2px" d="M26.847115384615385,177.17700405120848L29.084375,164.12323379516602L31.321634615384617,162.13199729919432L33.55889423076923,155.36175270080565L35.79615384615385,152.75098514556885L38.033413461538466,158.901766204834L40.27067307692308,151.7332540512085L42.5079326923077,157.2645040512085L44.745192307692314,153.10499324798585L46.98245192307692,148.19324054718018L49.21971153846154,151.86599864959717L51.456971153846155,152.1314878463745L53.69423076923077,150.09599189758302L55.93149038461539,158.0167459487915L58.16875,152.61824054718016L60.40600961538462,150.00750675201417L62.643269230769235,148.635733795166L64.88052884615385,146.777241897583L67.11778846153847,144.21073379516602L69.35504807692308,146.025L71.5923076923077,150.051766204834L73.8295673076923,149.25526485443115L76.06682692307693,152.22000675201417L78.30408653846153,153.14925270080568L80.54134615384616,160.9814878463745L82.77860576923077,149.74198379516602L85.0158653846154,146.82150135040283L87.253125,147.52948379516602L89.49038461538463,141.6L91.72764423076923,145.53824729919432L93.96490384615385,143.104483795166L96.20216346153846,142.08675270080568L98.43942307692308,146.06925945281984L100.6766826923077,145.93651485443115L102.91394230769231,141.86548919677733L105.15120192307693,151.202241897583L107.38846153846154,141.33451080322266L109.62572115384616,140.49375L111.86298076923077,144.47625675201417L114.10024038461539,147.66226215362548L116.3375,146.90998649597168L118.57475961538461,142.83899459838867L120.81201923076924,143.14874324798583L123.04927884615384,156.335258102417L125.28653846153847,159.52126350402833L127.52379807692307,144.29925270080565L129.7610576923077,145.71525135040284L131.9983173076923,152.308491897583L134.23557692307693,161.02574729919434L134.68302884615383,147.44099864959716L135.13048076923076,151.86599864959717L135.57793269230768,147.66226215362548L136.0253846153846,144.34351215362548L136.47283653846154,138.01576080322266L136.92028846153846,146.99850540161134L137.3677403846154,142.97173919677735L137.8151923076923,156.1582540512085L138.26264423076924,149.78624324798585L138.71009615384617,138.59099864959717L139.15754807692306,139.5645040512085L139.605,143.06025810241698L140.05245192307692,155.4502378463745L140.49990384615384,152.75098514556885L140.94735576923077,144.56474189758302L141.3948076923077,142.70625L141.84225961538462,150.14025135040282L142.28971153846155,151.3349864959717L142.73716346153847,147.97201080322264L143.1846153846154,146.33474864959717L143.6320673076923,143.94524459838868L144.07951923076922,152.8395040512085L144.52697115384615,157.79551620483397L144.97442307692307,153.90149459838867L145.421875,146.6002378463745L145.8693269230769,143.98950405120848L146.31677884615385,149.03400135040283L146.76423076923075,157.92826080322266L147.2116826923077,142.04249324798585L147.6591346153846,150.49425945281982L148.10658653846156,145.8037364959717L148.55403846153845,145.14001350402833L149.0014903846154,151.15801620483398L149.4489423076923,144.56474189758302L149.8963942307692,150.14025135040282L150.34384615384616,161.55675945281982L150.79129807692306,147.66226215362548L151.23875,142.21949729919433L151.6862019230769,141.33451080322266L152.13365384615386,153.2377378463745L152.58110576923076,144.25499324798585L153.02855769230771,144.91875L153.4760096153846,142.1752378463745L153.92346153846157,146.2020040512085L154.37091346153846,154.56525135040283L154.81836538461536,147.57374324798585L155.26581730769232,147.485258102417L155.7132692307692,151.06949729919432L156.16072115384617,146.90998649597168L156.60817307692307,163.59225540161134L157.05562500000002,145.670991897583L157.50307692307692,142.61776485443116L157.95052884615387,143.37000675201415L158.39798076923077,144.25499324798585L158.84543269230767,155.05200405120848L159.29288461538462,158.85750675201416L159.74033653846152,147.08699054718016L160.18778846153847,156.24673919677736L160.63524038461537,142.57350540161133L161.08269230769233,146.68875675201417L161.53014423076922,149.43223514556885L161.97759615384618,147.3082540512085L162.42504807692308,145.18423919677736L162.8725,157.441508102417L163.31995192307693,154.875L163.76740384615383,150.6270040512085L164.21485576923078,154.166983795166L164.66230769230768,143.8125L165.10975961538463,141.15750675201417L165.55721153846153,143.85675945281983L166.00466346153848,139.43175945281982L166.45211538461538,147.39673919677733L166.8995673076923,154.60951080322266L167.34701923076923,140.3167459487915L167.79447115384613,165.84901485443115L168.2419230769231,142.97173919677735L168.68937499999998,151.24650135040284L169.13682692307694,142.26375675201416L169.58427884615384,150.93675270080567L170.0317307692308,149.60923919677734L170.4791826923077,156.8662364959717L170.92663461538461,155.14048919677734L171.37408653846154,145.89225540161132L171.82153846153847,148.59150810241698L172.2689903846154,150.71548919677736L172.7164423076923,149.74198379516602L173.16389423076924,134.91824054718018L173.61134615384614,139.5645040512085L174.0587980769231,143.19300270080566L174.50625,159.74249324798583L174.95370192307692,143.85675945281983L175.40115384615385,149.29949054718017L175.84860576923077,157.6627378463745L176.2960576923077,147.61800270080568L176.7435096153846,145.8037364959717L177.19096153846155,144.7417459487915L177.63841346153845,148.85699729919435L178.0858653846154,147.485258102417L178.5333173076923,144.3877378463745L178.98076923076925,145.18423919677736L179.42822115384615,140.62649459838866L179.87567307692308,159.1229959487915L180.323125,146.2020040512085L180.7705769230769,149.9189878463745L181.21802884615386,149.47649459838868L181.66548076923075,141.68848514556885L182.1129326923077,143.98950405120848L182.5603846153846,139.47598514556884L183.00783653846156,148.81273784637452L183.45528846153846,146.46749324798583L183.90274038461538,148.01623649597167L184.3501923076923,152.1314878463745L184.79764423076924,143.41426620483398L185.24509615384616,138.72374324798585L185.69254807692306,149.12248649597169L186.14000000000001,145.316983795166L186.5874519230769,149.16674594879152L187.03490384615387,142.83899459838867L187.48235576923076,151.68899459838866L187.9298076923077,150.804008102417L188.37725961538462,147.26399459838868L188.82471153846154,149.29949054718017L189.27216346153847,142.57350540161133L189.71961538461537,146.33474864959717L190.16706730769232,156.46800270080567L190.61451923076922,138.36973514556885L191.06197115384617,169.65448379516602L191.50942307692307,145.40550270080567L191.956875,147.21973514556885L192.40432692307692,154.34398784637452L192.85177884615385,148.10475540161133L193.29923076923077,159.38848514556884L193.7466826923077,150.71548919677736L194.19413461538463,143.98950405120848L194.64158653846152,164.16749324798585L195.08903846153848,147.13125L195.53649038461538,140.44949054718018L195.9839423076923,141.68848514556885L196.43139423076923,142.08675270080568L196.87884615384615,148.90125675201415L197.32629807692308,155.05200405120848L197.77375,159.4770040512085L198.22120192307693,141.8212635040283L198.66865384615383,149.21100540161132L199.11610576923078,147.44099864959716L199.56355769230768,147.92775135040284L200.0110096153846,150.58274459838867L200.45846153846153,156.5122621536255L200.90591346153846,140.05125675201415L201.3533653846154,138.67948379516602L201.8008173076923,149.9189878463745L202.24826923076924,156.379483795166L202.69572115384616,145.98074054718018L203.1431730769231,140.80349864959717L203.590625,139.87425270080567L204.03807692307691,156.60074729919432L204.48552884615384,140.53800945281984L204.93298076923077,161.77798919677736L205.3804326923077,144.25499324798585L205.82788461538462,152.57401485443114L206.27533653846154,140.3167459487915L206.72278846153847,139.87425270080567L207.1702403846154,152.6625L207.6176923076923,144.69748649597167L208.06514423076922,149.25526485443115L208.51259615384615,143.72401485443115L208.96004807692307,151.29076080322267L209.4075,145.8037364959717L209.85495192307692,137.26348514556884L210.30240384615385,148.94551620483398L210.74985576923078,141.20176620483397L211.1973076923077,148.32598514556884L211.6447596153846,140.80349864959717L212.09221153846153,139.96273784637452L212.53966346153845,147.44099864959716L212.98711538461538,145.0957540512085L213.4345673076923,144.8744905471802L213.88201923076923,145.22849864959716L214.32947115384616,160.71599864959717L214.77692307692308,151.77751350402832L215.224375,149.9189878463745L215.67182692307694,142.08675270080568L216.11927884615383,151.86599864959717L216.56673076923076,143.54701080322266L217.01418269230768,148.635733795166L217.4616346153846,148.37024459838867L217.90908653846154,148.50298919677735L218.35653846153846,143.458491897583L218.8039903846154,142.21949729919433L219.25144230769232,137.573233795166L219.69889423076924,141.99823379516602L220.14634615384617,146.06925945281984L220.59379807692306,144.65326080322265L221.04125,141.0689878463745L221.48870192307692,143.59123649597169L221.93615384615384,135.4935121536255L222.38360576923077,144.69748649597167L222.8310576923077,155.89276485443116L223.27850961538462,145.75951080322267L223.72596153846155,145.0957540512085L224.17341346153847,154.2997621536255L224.6208653846154,142.44076080322264L225.0683173076923,142.7505094528198L225.51576923076922,147.66226215362548L225.96322115384615,147.839266204834L226.41067307692308,140.80349864959717L226.858125,176.20349864959718L227.30557692307693,138.67948379516602L227.75302884615385,140.44949054718018L228.20048076923078,149.12248649597169L228.6479326923077,146.90998649597168L229.0953846153846,144.07798919677734L229.54283653846153,163.725L229.99028846153846,149.60923919677734L230.43774038461538,141.11324729919434L230.8851923076923,145.53824729919432L231.33264423076923,144.21073379516602L231.78009615384616,142.92751350402833L232.22754807692309,147.39673919677733L232.675,146.2020040512085L233.1224519230769,145.40550270080567L233.56990384615384,148.50298919677735L234.01735576923076,139.3875L234.4648076923077,151.64473514556886L234.9122596153846,157.39724864959717L235.35971153846154,144.91875L235.80716346153847,152.8837635040283L236.2546153846154,157.97248649597168L236.70206730769232,139.07775135040282L237.14951923076922,139.741508102417L237.59697115384617,144.520516204834L238.04442307692307,140.18400135040284L238.491875,148.2375L238.93932692307692,142.8832540512085L239.38677884615385,151.55625L239.83423076923077,165.71623649597169L240.2816826923077,136.55550270080568L240.72913461538462,140.22826080322267L241.17658653846152,140.71501350402832L241.62403846153848,144.78600540161133L242.07149038461537,157.6185121536255L242.5189423076923,147.61800270080568L242.96639423076923,142.44076080322264L243.41384615384615,149.34375L243.86129807692308,156.99901485443115L244.30875,143.41426620483398L244.75620192307693,148.2375L245.20365384615383,151.46776485443115L245.65110576923078,168.59249324798583L246.09855769230768,136.46698379516602L246.32228365384614,146.68875675201417L246.54600961538463,147.66226215362548L246.7697355769231,147.52948379516602L246.99346153846153,145.0957540512085L247.2171875,142.5292459487915L247.44091346153846,148.19324054718018L247.66463942307692,149.43223514556885L247.88836538461538,158.06100540161134L248.11209134615385,146.15774459838866L248.3358173076923,140.80349864959717L248.55954326923077,152.8837635040283L248.78326923076924,145.40550270080567L249.0069951923077,151.64473514556886L249.23072115384613,151.51199054718018L249.4544471153846,144.78600540161133L249.6781730769231,143.32574729919435L249.90189903846155,155.583016204834L250.12562499999999,146.5560121536255L250.34935096153845,140.847758102417L250.57307692307694,136.422758102417L250.7968028846154,142.83899459838867L251.02052884615384,143.14874324798583L251.2442548076923,146.73301620483397L251.46798076923076,143.32574729919435L251.69170673076925,144.520516204834L251.9154326923077,139.3432405471802L252.13915865384615,138.54673919677734L252.36288461538462,156.5122621536255L252.58661057692308,141.4229959487915L252.81033653846154,144.56474189758302L253.0340625,152.4854959487915L253.25778846153844,153.370516204834L253.4815144230769,144.21073379516602L253.7052403846154,143.59123649597169L253.92896634615386,148.01623649597167L254.1526923076923,151.60050945281984L254.37641826923075,141.37873649597168L254.60014423076925,138.32550945281983L254.8238701923077,144.83026485443116L255.04759615384614,146.777241897583L255.2713221153846,147.08699054718016L255.4950480769231,151.24650135040284L255.71877403846156,137.48474864959718L255.9425,139.25475540161133L256.16622596153843,150.9810121536255L256.3899519230769,147.52948379516602L256.6136778846154,147.92775135040284L256.83740384615385,142.352241897583L257.0611298076923,156.733491897583L257.2848557692308,150.18451080322265L257.50858173076927,145.8479959487915L257.7323076923077,151.15801620483398L257.95603365384613,149.60923919677734L258.1797596153846,143.19300270080566L258.40348557692306,168.902241897583L258.62721153846155,149.16674594879152L258.8509375,143.37000675201415L259.0746634615385,144.8744905471802L259.2983894230769,143.01599864959718L259.5221153846154,140.89198379516603L259.74584134615384,144.78600540161133L259.96956730769233,142.97173919677735L260.19329326923076,145.00723514556884L260.4170192307692,144.43199729919434L260.6407451923077,145.316983795166L260.8644711538462,141.33451080322266L261.0881971153846,144.60900135040282L261.31192307692305,150.4057405471802L261.53564903846154,141.73274459838868L261.75937500000003,146.86576080322266L261.98310096153847,150.848233795166L262.2068269230769,157.839741897583L262.4305528846154,143.54701080322266L262.65427884615383,136.73250675201416L262.8780048076923,148.989741897583L263.10173076923076,143.8125L263.32545673076925,146.5560121536255L263.5491826923077,150.14025135040282L263.7729086538462,149.87476215362548L263.9966346153846,147.75074729919433L264.22036057692304,144.65326080322265L264.44408653846153,143.59123649597169L264.6678125,152.22000675201417L264.89153846153846,142.61776485443116L265.1152644230769,140.3167459487915L265.3389903846154,142.48498649597167L265.5627163461539,153.10499324798585L265.7864423076923,151.55625L266.01016826923075,143.50275135040283L266.23389423076924,140.58223514556886L266.45762019230773,143.8125L266.68134615384616,142.57350540161133L266.9050721153846,139.29901485443116L267.1287980769231,146.2020040512085L267.3525240384615,146.5560121536255L267.57625,151.51199054718018L267.79997596153845,138.41399459838868L268.02370192307694,147.92775135040284L268.2474278846154,157.52999324798583L268.47115384615387,149.03400135040283" style="fill: none;" fill="none"></path></g><g><path stroke="rgb(0, 153, 136)" stroke-width="2px" d="M24.60985576923077,195.62364177703859L26.847115384615385,116.38673000335694L29.084375,91.62020702362061L31.321634615384617,80.70837821960448L33.55889423076923,74.58322105407716L35.79615384615385,69.14950389862061L38.033413461538466,61.84541130065918L40.27067307692308,63.29911994934082L42.5079326923077,57.52854480743407L44.745192307692314,58.91135730743407L46.98245192307692,56.04823322296143L49.21971153846154,58.35289821624757L51.456971153846155,51.80229663848877L53.69423076923077,52.91030216217041L55.93149038461539,52.015018844604484L58.16875,51.332491493225106L60.40600961538462,51.94412269592284L62.643269230769235,51.97069187164307L64.88052884615385,47.423379135131825L67.11778846153847,49.90535202026366L69.35504807692308,48.48709144592286L71.5923076923077,46.315339851379406L73.8295673076923,47.751358222961414L76.06682692307693,48.3984375L78.30408653846153,47.015625L80.54134615384616,45.13640441894532L82.77860576923077,45.87213764190673L85.0158653846154,44.294326972961414L87.253125,47.627256202697765L89.49038461538463,45.57964038848877L91.72764423076923,44.81730422973632L93.96490384615385,44.657754135131825L96.20216346153846,47.44998207092286L98.43942307692308,42.37077941894532L100.6766826923077,45.03006019592286L102.91394230769231,43.345837783813465L105.15120192307693,44.26772403717041L107.38846153846154,43.638368797302235L109.62572115384616,46.92697105407714L111.86298076923077,45.65053653717041L114.10024038461539,42.822860527038586L116.3375,46.1646686553955L118.57475961538461,42.24671115875245L120.81201923076924,41.24504985809327L123.04927884615384,42.84946346282959L125.28653846153847,44.01067485809327L127.52379807692307,41.351427841186535L129.7610576923077,49.20506687164307L131.9983173076923,41.20960178375245L134.23557692307693,42.787412452697765L134.68302884615383,44.54253101348877L135.13048076923076,43.26606273651123L135.57793269230768,45.75691452026368L136.0253846153846,42.71648254394532L136.47283653846154,42.45055446624755L136.92028846153846,43.186287689208996L137.3677403846154,43.59404182434082L137.8151923076923,41.369151878356945L138.26264423076924,42.21122932434082L138.71009615384617,42.46831226348877L139.15754807692306,44.32092990875245L139.605,41.05001792907714L140.05245192307692,45.19845542907714L140.49990384615384,41.856681060791004L140.94735576923077,42.113730239868175L141.3948076923077,40.91707077026368L141.84225961538462,45.278230476379406L142.28971153846155,43.48766384124755L142.73716346153847,40.65114269256591L143.1846153846154,42.95584144592286L143.6320673076923,42.512605476379406L144.07951923076922,42.67218933105468L144.52697115384615,44.14362201690673L144.97442307692307,44.21455192565918L145.421875,47.58292922973632L145.8693269230769,40.88162269592286L146.31677884615385,46.785144996643055L146.76423076923075,44.57797908782959L147.2116826923077,42.88491153717041L147.6591346153846,43.07106456756591L148.10658653846156,41.59075298309327L148.55403846153845,45.23393726348877L149.0014903846154,42.37965831756591L149.4489423076923,45.4732624053955L149.8963942307692,44.25L150.34384615384616,43.150839614868175L150.79129807692306,42.19350528717041L151.23875,45.43781433105468L151.6862019230769,41.768027114868175L152.13365384615386,43.01789245605468L152.58110576923076,42.83173942565918L153.02855769230771,43.45221576690673L153.4760096153846,41.617322158813465L153.92346153846157,42.39738235473632L154.37091346153846,39.24172725677491L154.81836538461536,41.75914821624755L155.26581730769232,42.45055446624755L155.7132692307692,42.982410621643055L156.16072115384617,42.14033317565918L156.60817307692307,41.26277389526368L157.05562500000002,43.133115577697765L157.50307692307692,41.01456985473632L157.95052884615387,42.858308601379406L158.39798076923077,39.676084327697765L158.84543269230767,41.182998847961414L159.29288461538462,43.443370628356945L159.74033653846152,41.15639591217041L160.18778846153847,41.10322380065918L160.63524038461537,41.62620105743409L161.08269230769233,42.69875850677491L161.53014423076922,42.57465648651123L161.97759615384618,41.732579040527355L162.42504807692308,45.295988273620594L162.8725,40.13701057434082L163.31995192307693,42.34421024322509L163.76740384615383,44.0638469696045L164.21485576923078,44.41842899322509L164.66230769230768,42.494881439208996L165.10975961538463,40.79296875L165.55721153846153,39.73813533782959L166.00466346153848,41.112068939208996L166.45211538461538,43.514266777038586L166.8995673076923,42.149178314208996L167.34701923076923,44.710926246643055L167.79447115384613,42.308728408813465L168.2419230769231,41.17411994934082L168.68937499999998,40.22566452026368L169.13682692307694,42.15805721282959L169.58427884615384,42.71648254394532L170.0317307692308,46.1646686553955L170.4791826923077,41.351427841186535L170.92663461538461,42.096006202697765L171.37408653846154,43.86884880065918L171.82153846153847,42.97356548309327L172.2689903846154,44.897079277038586L172.7164423076923,39.93313350677491L173.16389423076924,42.15805721282959L173.61134615384614,40.13701057434082L174.0587980769231,41.70597610473632L174.50625,42.734240341186535L174.95370192307692,41.66164913177491L175.40115384615385,40.93479480743409L175.84860576923077,44.152500915527355L176.2960576923077,42.57465648651123L176.7435096153846,40.27883663177491L177.19096153846155,41.99850711822509L177.63841346153845,39.755859375L178.0858653846154,43.097667503356945L178.5333173076923,40.65114269256591L178.98076923076925,39.835634422302235L179.42822115384615,43.40788879394532L179.87567307692308,41.26277389526368L180.323125,40.890467834472645L180.7705769230769,41.77690601348877L181.21802884615386,42.388537216186535L181.66548076923075,42.00735225677491L182.1129326923077,41.386875915527355L182.5603846153846,43.73586788177491L183.00783653846156,41.28049793243409L183.45528846153846,41.86552619934082L183.90274038461538,41.60847702026368L184.3501923076923,40.55364360809327L184.79764423076924,42.55693244934082L185.24509615384616,43.877693939208996L185.69254807692306,40.73979663848877L186.14000000000001,41.830078125L186.5874519230769,39.55198230743409L187.03490384615387,40.890467834472645L187.48235576923076,42.41510639190673L187.9298076923077,45.10983524322509L188.37725961538462,41.43120288848877L188.82471153846154,40.660021591186535L189.27216346153847,41.37799701690673L189.71961538461537,41.59075298309327L190.16706730769232,40.855019760131825L190.61451923076922,44.329775047302235L191.06197115384617,42.39738235473632L191.50942307692307,40.314318466186535L191.956875,39.70268726348877L192.40432692307692,40.314318466186535L192.85177884615385,40.72203884124755L193.29923076923077,44.09929504394532L193.7466826923077,41.945301246643055L194.19413461538463,42.31760730743409L194.64158653846152,43.0533405303955L195.08903846153848,41.99850711822509L195.53649038461538,41.63507995605468L195.9839423076923,40.509316635131825L196.43139423076923,40.784089851379406L196.87884615384615,42.273280334472645L197.32629807692308,43.39016475677491L197.77375,39.986339378356945L198.22120192307693,42.17578125L198.66865384615383,43.168563652038586L199.11610576923078,39.39243221282959L199.56355769230768,43.03561649322509L200.0110096153846,40.82841682434082L200.45846153846153,41.36027297973632L200.90591346153846,41.2982219696045L201.3533653846154,43.30154457092286L201.8008173076923,39.51653423309327L202.24826923076924,41.236170959472645L202.69572115384616,43.585196685791004L203.1431730769231,41.95418014526368L203.590625,41.77690601348877L204.03807692307691,41.36027297973632L204.48552884615384,45.81008663177491L204.93298076923077,39.99518451690673L205.3804326923077,39.97746047973632L205.82788461538462,39.93313350677491L206.27533653846154,40.890467834472645L206.72278846153847,42.99128952026368L207.1702403846154,41.20960178375245L207.6176923076923,42.822860527038586L208.06514423076922,41.076620864868175L208.51259615384615,41.892129135131825L208.96004807692307,40.908191871643055L209.4075,40.13701057434082L209.85495192307692,37.90324172973632L210.30240384615385,42.255556297302235L210.74985576923078,40.509316635131825L211.1973076923077,43.425646591186535L211.6447596153846,46.643318939208996L212.09221153846153,43.54086971282959L212.53966346153845,40.677745628356945L212.98711538461538,41.59075298309327L213.4345673076923,44.76413211822509L213.88201923076923,38.55032100677491L214.32947115384616,41.91873207092286L214.77692307692308,42.822860527038586L215.224375,39.87996139526368L215.67182692307694,42.12260913848877L216.11927884615383,42.06940326690673L216.56673076923076,42.31760730743409L217.01418269230768,40.53591957092286L217.4616346153846,39.79130744934082L217.90908653846154,40.349766540527355L218.35653846153846,40.27883663177491L218.8039903846154,41.93645610809327L219.25144230769232,41.28937683105468L219.69889423076924,39.80903148651123L220.14634615384617,42.042834091186535L220.59379807692306,40.438386726379406L221.04125,42.83173942565918L221.48870192307692,43.31926860809327L221.93615384615384,40.99684581756591L222.38360576923077,44.4095500946045L222.8310576923077,41.023448753356945L223.27850961538462,43.328113746643055L223.72596153846155,39.53425827026368L224.17341346153847,40.39409351348877L224.6208653846154,42.88491153717041L225.0683173076923,39.401277351379406L225.51576923076922,43.3990436553955L225.96322115384615,41.05001792907714L226.41067307692308,41.50209903717041L226.858125,42.76080951690673L227.30557692307693,41.22732582092286L227.75302884615385,41.93645610809327L228.20048076923078,40.91707077026368L228.6479326923077,46.333097648620594L229.0953846153846,41.93645610809327L229.54283653846153,44.79070129394532L229.99028846153846,41.404599952697765L230.43774038461538,40.074959564208996L230.8851923076923,40.544764709472645L231.33264423076923,41.351427841186535L231.78009615384616,39.676084327697765L232.22754807692309,40.93479480743409L232.675,43.186287689208996L233.1224519230769,40.66886672973632L233.56990384615384,43.602920722961414L234.01735576923076,43.06218566894532L234.4648076923077,43.079943466186535L234.9122596153846,39.51653423309327L235.35971153846154,41.41344509124755L235.80716346153847,43.150839614868175L236.2546153846154,41.076620864868175L236.70206730769232,43.0533405303955L237.14951923076922,45.34028148651123L237.59697115384617,44.74640808105468L238.04442307692307,41.99850711822509L238.491875,41.076620864868175L238.93932692307692,41.34254894256591L239.38677884615385,41.37799701690673L239.83423076923077,41.44892692565918L240.2816826923077,42.822860527038586L240.72913461538462,47.476551246643055L241.17658653846152,42.84946346282959L241.62403846153848,39.23288211822509L242.07149038461537,41.484375L242.5189423076923,41.838957023620594L242.96639423076923,40.801847648620594L243.41384615384615,43.425646591186535L243.86129807692308,41.218446922302235L244.30875,43.95746898651123L244.75620192307693,41.20960178375245L245.20365384615383,45.712587547302235L245.65110576923078,40.42954158782959L246.09855769230768,40.99684581756591L246.32228365384614,40.27883663177491L246.54600961538463,41.041172790527355L246.7697355769231,42.08712730407714L246.99346153846153,39.95973644256591L247.2171875,45.313712310791004L247.44091346153846,40.70431480407714L247.66463942307692,40.03063259124755L247.88836538461538,39.58743038177491L248.11209134615385,44.40070495605468L248.3358173076923,42.81401538848877L248.55954326923077,39.55198230743409L248.78326923076924,43.30154457092286L249.0069951923077,39.73813533782959L249.23072115384613,39.197400283813465L249.4544471153846,41.72370014190673L249.6781730769231,41.24504985809327L249.90189903846155,41.55530490875245L250.12562499999999,41.129792976379406L250.34935096153845,41.830078125L250.57307692307694,41.55530490875245L250.7968028846154,39.77358341217041L251.02052884615384,41.72370014190673L251.2442548076923,41.041172790527355L251.46798076923076,41.22732582092286L251.69170673076925,41.95418014526368L251.9154326923077,43.86884880065918L252.13915865384615,44.57797908782959L252.36288461538462,40.26999149322509L252.58661057692308,48.5845905303955L252.81033653846154,38.931505966186535L253.0340625,42.00735225677491L253.25778846153844,42.55693244934082L253.4815144230769,41.33367004394532L253.7052403846154,41.26277389526368L253.92896634615386,40.88162269592286L254.1526923076923,42.769688415527355L254.37641826923075,41.528701972961414L254.60014423076925,40.72203884124755L254.8238701923077,42.92035961151123L255.04759615384614,45.7923625946045L255.2713221153846,40.51819553375245L255.4950480769231,40.24338855743409L255.71877403846156,40.20794048309327L255.9425,40.03063259124755L256.16622596153843,43.07106456756591L256.3899519230769,41.55530490875245L256.6136778846154,41.67937316894532L256.83740384615385,41.3248249053955L257.0611298076923,39.507655334472645L257.2848557692308,42.840584564208996L257.50858173076927,40.25226745605468L257.7323076923077,40.25226745605468L257.95603365384613,44.037244033813465L258.1797596153846,41.838957023620594L258.40348557692306,43.24833869934082L258.62721153846155,41.93645610809327L258.8509375,43.877693939208996L259.0746634615385,39.507655334472645L259.2983894230769,40.75752067565918L259.5221153846154,40.39409351348877L259.74584134615384,40.677745628356945L259.96956730769233,41.99850711822509L260.19329326923076,43.70041980743409L260.4170192307692,41.36027297973632L260.6407451923077,41.2982219696045L260.8644711538462,41.59075298309327L261.0881971153846,39.108780097961414L261.31192307692305,41.564150047302235L261.53564903846154,44.48932514190673L261.75937500000003,41.617322158813465L261.98310096153847,40.46498966217041L262.2068269230769,40.784089851379406L262.4305528846154,40.27883663177491L262.65427884615383,41.856681060791004L262.8780048076923,39.507655334472645L263.10173076923076,42.00735225677491L263.32545673076925,39.746980476379406L263.5491826923077,39.99518451690673L263.7729086538462,44.515928077697765L263.9966346153846,43.97522678375245L264.22036057692304,39.53425827026368L264.44408653846153,41.81235408782959L264.6678125,40.94367370605468L264.89153846153846,39.693808364868175L265.1152644230769,39.04672908782959L265.3389903846154,40.25226745605468L265.5627163461539,40.801847648620594L265.7864423076923,43.602920722961414L266.01016826923075,42.15805721282959L266.23389423076924,39.28605422973632L266.45762019230773,41.750303077697765L266.68134615384616,43.72702274322509L266.9050721153846,41.892129135131825L267.1287980769231,39.2240032196045L267.3525240384615,40.81069278717041L267.57625,41.182998847961414L267.79997596153845,42.46831226348877L268.02370192307694,43.01789245605468L268.2474278846154,42.34421024322509L268.47115384615387,42.22895336151123" style="fill: none;" fill="none"></path></g><g><path stroke="rgb(0, 119, 187)" stroke-width="2px" d="M25.504759615384614,180.80550270080568L25.952211538461537,170.67224864959718L26.399663461538463,164.83125L26.847115384615385,158.4150135040283L27.294567307692308,153.016508102417L27.74201923076923,152.70675945281982L28.189471153846153,150.09599189758302L28.636923076923075,145.22849864959716L29.084375,145.93651485443115L29.531826923076924,142.48498649597167L29.979278846153846,141.86548919677733L30.42673076923077,141.0247621536255L30.87418269230769,140.6707540512085L31.321634615384617,138.45825405120848L31.769086538461536,140.22826080322267L32.21653846153846,136.95373649597167L32.66399038461538,135.40499324798583L33.11144230769231,134.65275135040284L33.55889423076923,134.91824054718018L34.00634615384615,134.0332540512085L34.45379807692308,133.41375675201417L34.90125,135.62625675201417L35.34870192307692,136.59976215362548L35.79615384615385,134.43148784637452L36.24360576923077,133.72350540161133L36.69105769230769,134.52000675201415L37.13850961538461,132.52873649597169L37.58596153846154,130.84724864959716L38.033413461538466,127.44001350402831L38.48086538461539,131.86501350402833L38.9283173076923,129.077241897583L39.37576923076923,129.43125L39.823221153846156,128.76749324798584L40.27067307692308,131.95349864959718L40.718125,129.29850540161132L41.16557692307692,129.43125L41.613028846153846,128.325L42.06048076923077,133.50224189758302L42.5079326923077,126.37798919677735L42.95538461538462,130.40475540161134L43.402836538461536,130.13926620483397L43.85028846153846,128.01525135040282L44.29774038461539,130.13926620483397L44.745192307692314,128.8560121536255L45.192644230769226,128.01525135040282L45.64009615384615,127.7939878463745L46.08754807692308,126.46650810241698L46.535000000000004,129.29850540161132L46.98245192307692,125.53726215362548L47.42990384615384,128.59048919677736L47.87735576923077,126.68773784637452L48.324807692307694,126.95326080322266L48.77225961538462,126.33376350402833L49.21971153846154,128.41348514556884L49.66716346153846,126.24524459838867L50.114615384615384,126.02401485443116L50.56206730769231,124.51949729919434L51.00951923076923,123.98848514556886L51.456971153846155,122.74949054718019L51.904423076923074,127.04174594879152L52.351875,128.63474864959716L52.799326923076926,125.36025810241699L53.246778846153845,129.87374324798583L53.69423076923077,124.43101215362549L54.14168269230769,123.9L54.589134615384616,124.69650135040283L55.03658653846154,125.5814878463745L55.48403846153846,125.97975540161133L55.93149038461539,123.3247621536255L56.378942307692306,122.92649459838867L56.82639423076923,123.3247621536255L57.27384615384615,124.74076080322266L57.72129807692308,123.3247621536255L58.16875,124.51949729919434L58.61620192307692,124.91776485443114L59.06365384615385,123.67873649597169L59.51110576923077,123.59025135040284L59.95855769230769,123.3247621536255L60.40600961538462,123.81151485443115L60.85346153846154,121.55475540161132L61.30091346153846,121.77598514556885L61.74836538461538,125.18325405120851L62.19581730769231,123.01501350402833L62.643269230769235,126.02401485443116L63.090721153846154,127.572758102417L63.53817307692307,126.59925270080566L63.985625,122.57248649597167L64.43307692307692,124.60801620483397L64.88052884615385,121.90876350402831L65.32798076923076,121.55475540161132L65.77543269230769,124.78498649597168L66.22288461538461,124.82924594879151L66.67033653846154,121.90876350402831L67.11778846153847,123.94425945281984L67.56524038461538,123.59025135040284L68.0126923076923,123.98848514556886L68.46014423076923,120.58125000000001L68.90759615384616,120.84673919677735L69.35504807692308,122.43974189758302L69.8025,123.81151485443115L70.24995192307692,119.60774459838868L70.69740384615385,122.2627378463745L71.14485576923077,121.46623649597169L71.5923076923077,121.28926620483398L72.03975961538461,123.19198379516601L72.48721153846154,124.47523784637451L72.93466346153845,123.05923919677736L73.38211538461537,120.62550945281981L73.8295673076923,122.30699729919434L74.27701923076923,123.10349864959716L74.72447115384615,119.96175270080568L75.17192307692308,121.42201080322266L75.619375,122.12999324798585L76.06682692307693,122.30699729919434L76.51427884615386,119.51925945281982L76.96173076923078,124.34249324798583L77.40918269230768,120.66973514556884L77.8566346153846,121.1122621536255L78.30408653846153,119.96175270080568L78.75153846153846,123.45750675201415L79.19899038461539,121.46623649597169L79.64644230769231,118.10326080322267L80.09389423076924,120.13875675201416L80.54134615384616,120.18301620483399L80.98879807692309,122.041508102417L81.43625,123.14775810241699L81.88370192307691,121.333491897583L82.33115384615384,121.333491897583L82.77860576923077,120.71399459838867L83.22605769230769,121.64324054718017L83.67350961538462,122.70526485443116L84.12096153846154,118.28026485443115L84.56841346153847,120.66973514556884L85.0158653846154,119.25373649597168L85.46331730769231,118.76698379516603L85.91076923076923,120.0502378463745L86.35822115384615,121.99724864959717L86.80567307692307,117.74925270080567L87.253125,122.79374999999999L87.70057692307692,118.01474189758301L88.14802884615385,119.96175270080568L88.59548076923078,118.98824729919434L89.0429326923077,118.41300945281984L89.49038461538463,120.80251350402833L89.93783653846154,119.34225540161134L90.38528846153845,121.6875L90.83274038461538,120.89099864959718L91.2801923076923,118.59001350402832L91.72764423076923,122.21851215362548L92.17509615384616,118.76698379516603L92.62254807692308,118.59001350402832L93.07000000000001,123.01501350402833L93.51745192307693,123.14775810241699L93.96490384615385,121.37775135040283L94.41235576923077,122.12999324798585L94.85980769230768,119.25373649597168L95.30725961538461,119.34225540161134L95.75471153846154,120.09449729919433L96.20216346153846,126.42224864959718L96.64961538461539,123.81151485443115L97.09706730769231,122.48400135040282L97.54451923076924,120.49276485443116L97.99197115384615,120.58125000000001L98.43942307692308,118.41300945281984L98.886875,123.85574054718018L99.33432692307692,117.30675945281982L99.78177884615384,118.63423919677734L100.22923076923077,121.59901485443115L100.6766826923077,119.65200405120851L101.12413461538462,120.71399459838867L101.57158653846155,122.9707540512085L102.01903846153846,122.43974189758302L102.46649038461538,119.20951080322266L102.91394230769231,117.66073379516601L103.36139423076924,118.23600540161132L103.80884615384615,122.43974189758302L104.25629807692307,119.475L104.70375,118.19174594879149L105.15120192307693,119.43074054718016L105.59865384615385,119.56348514556885L106.04610576923076,120.4042459487915L106.49355769230769,115.62523784637452L106.94100961538462,122.35125675201417L107.38846153846154,117.83773784637452L107.83591346153847,120.44850540161133L108.28336538461538,117.61650810241699L108.7308173076923,120.979483795166L109.17826923076923,117.04123649597167L109.62572115384616,124.16548919677734L110.07317307692308,119.69626350402831L110.520625,120.00601215362548L110.96807692307692,121.28926620483398L111.41552884615385,124.03274459838866L111.86298076923077,122.08573379516602L112.3104326923077,118.36875L112.75788461538461,120.31576080322264L113.20533653846154,120.31576080322264L113.65278846153846,120.71399459838867L114.10024038461539,119.29799594879151L114.5476923076923,119.475L114.99514423076923,120.71399459838867L115.44259615384615,121.6875L115.89004807692308,121.15648784637452L116.3375,122.57248649597167L116.78495192307692,115.802241897583L117.23240384615384,118.63423919677734L117.67985576923077,119.91749324798585L118.1273076923077,120.0502378463745L118.57475961538461,118.85550270080566L119.02221153846153,121.82024459838868L119.46966346153846,122.30699729919434L119.91711538461539,121.73175945281983L120.36456730769231,123.72299594879149L120.81201923076924,119.16525135040283L121.25947115384615,120.7582540512085L121.70692307692308,117.39524459838867L122.154375,123.59025135040284L122.60182692307691,118.63423919677734L123.04927884615384,118.63423919677734L123.49673076923077,123.41324729919432L123.94418269230769,118.45723514556886L124.39163461538462,121.1122621536255L124.83908653846154,123.14775810241699L125.28653846153847,119.96175270080568L125.73399038461538,122.2627378463745L126.18144230769231,118.59001350402832L126.62889423076922,119.96175270080568L127.07634615384615,115.18274459838867L127.52379807692307,119.25373649597168L127.97125,122.74949054718019L128.41870192307692,120.80251350402833L128.86615384615385,117.66073379516601L129.31360576923078,120.22724189758301L129.7610576923077,125.00625L130.2085096153846,118.23600540161132L130.65596153846153,120.22724189758301L131.10341346153845,119.96175270080568L131.55086538461538,120.53699054718018L131.9983173076923,117.12975540161133L132.44576923076923,115.62523784637452L132.89322115384616,116.06776485443115L133.34067307692308,118.85550270080566L133.788125,117.52798919677736L134.23557692307693,118.01474189758301L134.4593028846154,122.21851215362548L134.68302884615383,122.30699729919434L134.90675480769232,119.74048919677733L135.13048076923076,118.85550270080566L135.35420673076922,118.10326080322267L135.57793269230768,123.72299594879149L135.80165865384615,118.50149459838866L136.0253846153846,119.78474864959716L136.24911057692307,117.4395040512085L136.47283653846154,116.64300270080565L136.6965625,117.74925270080567L136.92028846153846,119.56348514556885L137.14401442307692,118.28026485443115L137.3677403846154,119.91749324798585L137.59146634615385,119.20951080322266L137.8151923076923,117.30675945281982L138.03891826923078,119.60774459838868L138.26264423076924,118.45723514556886L138.4863701923077,119.43074054718016L138.71009615384617,120.80251350402833L138.93382211538463,122.57248649597167L139.15754807692306,120.80251350402833L139.38127403846153,116.55448379516602L139.605,115.2270040512085L139.82872596153845,120.00601215362548L140.05245192307692,121.99724864959717L140.27617788461538,120.62550945281981L140.49990384615384,120.13875675201416L140.7236298076923,120.4042459487915L140.94735576923077,115.71375675201415L141.17108173076923,117.52798919677736L141.3948076923077,116.46599864959717L141.61853365384616,118.32449054718018L141.84225961538462,121.99724864959717L142.06598557692308,116.20050945281983L142.28971153846155,120.09449729919433L142.5134375,123.81151485443115L142.73716346153847,116.864266204834L142.96088942307694,118.19174594879149L143.1846153846154,119.91749324798585L143.40834134615383,119.38651485443114L143.6320673076923,118.85550270080566L143.85579326923076,118.722758102417L144.07951923076922,119.74048919677733L144.30324519230768,120.49276485443116L144.52697115384615,120.84673919677735L144.7506971153846,121.95298919677734L144.97442307692307,122.92649459838867L145.19814903846154,120.44850540161133L145.421875,125.40448379516602L145.64560096153846,117.66073379516601L145.8693269230769,115.75801620483398L146.0930528846154,117.61650810241699L146.31677884615385,124.87350540161134L146.54050480769232,118.19174594879149L146.76423076923075,121.1122621536255L146.98795673076924,124.12126350402832L147.2116826923077,119.51925945281982L147.43540865384617,118.94398784637451L147.6591346153846,120.49276485443116L147.88286057692306,122.9707540512085L148.10658653846156,117.57224864959716L148.3303125,117.92625675201415L148.55403846153845,121.20074729919435L148.77776442307692,118.98824729919434L149.0014903846154,118.41300945281984L149.22521634615384,117.61650810241699L149.4489423076923,121.46623649597169L149.67266826923077,116.64300270080565L149.8963942307692,120.84673919677735L150.1201201923077,119.16525135040283L150.34384615384616,119.91749324798585L150.56757211538462,119.34225540161134L150.79129807692306,120.80251350402833L151.01502403846155,118.89976215362549L151.23875,121.64324054718017L151.46247596153847,118.67849864959717L151.6862019230769,118.45723514556886L151.9099278846154,119.34225540161134L152.13365384615386,119.87323379516602L152.3573798076923,118.23600540161132L152.58110576923076,118.54575405120849L152.80483173076922,118.54575405120849L153.02855769230771,119.69626350402831L153.25228365384615,118.32449054718018L153.4760096153846,117.74925270080567L153.69973557692308,123.9L153.92346153846157,121.6875L154.1471875,121.15648784637452L154.37091346153846,116.15625L154.59463942307693,117.12975540161133L154.81836538461536,118.59001350402832L155.04209134615385,117.57224864959716L155.26581730769232,118.23600540161132L155.48954326923078,116.28899459838868L155.7132692307692,120.4042459487915L155.9369951923077,119.43074054718016L156.16072115384617,117.92625675201415L156.3844471153846,117.4395040512085L156.60817307692307,118.10326080322267L156.83189903846153,116.95275135040282L157.05562500000002,120.89099864959718L157.27935096153846,128.723233795166L157.50307692307692,117.35098514556884L157.72680288461538,119.82900810241699L157.95052884615387,119.38651485443114L158.1742548076923,118.01474189758301L158.39798076923077,117.17401485443116L158.62170673076923,116.77574729919434L158.84543269230767,117.52798919677736L159.06915865384616,119.25373649597168L159.29288461538462,121.59901485443115L159.51661057692309,118.85550270080566L159.74033653846152,117.92625675201415L159.9640625,121.90876350402831L160.18778846153847,117.48376350402833L160.4115144230769,118.45723514556886L160.63524038461537,118.59001350402832L160.85896634615384,115.71375675201415L161.08269230769233,119.82900810241699L161.30641826923076,117.35098514556884L161.53014423076922,119.20951080322266L161.7538701923077,116.37751350402831L161.97759615384618,120.22724189758301L162.2013221153846,118.98824729919434L162.42504807692308,120.53699054718018L162.64877403846154,118.01474189758301L162.8725,115.93498649597169L163.09622596153847,122.041508102417L163.31995192307693,118.59001350402832L163.5436778846154,116.95275135040282L163.76740384615383,121.24500675201415L163.99112980769232,114.91725540161133L164.21485576923078,121.24500675201415L164.43858173076922,118.36875L164.66230769230768,120.84673919677735L164.88603365384617,120.44850540161133L165.10975961538463,119.25373649597168L165.33348557692307,120.44850540161133L165.55721153846153,116.77574729919434L165.7809375,119.87323379516602L166.00466346153848,118.59001350402832L166.22838942307692,120.89099864959718L166.45211538461538,118.722758102417L166.67584134615385,116.55448379516602L166.8995673076923,119.82900810241699L167.12329326923077,123.76725540161132L167.34701923076923,123.54599189758301L167.5707451923077,120.27150135040284L167.79447115384613,121.1122621536255L168.01819711538462,118.50149459838866L168.2419230769231,117.04123649597167L168.46564903846152,118.722758102417L168.68937499999998,115.75801620483398L168.91310096153848,118.67849864959717L169.13682692307694,118.59001350402832L169.36055288461537,115.18274459838867L169.58427884615384,120.4042459487915L169.8080048076923,118.94398784637451L170.0317307692308,123.67873649597169L170.25545673076923,117.7935121536255L170.4791826923077,117.48376350402833L170.70290865384615,123.10349864959716L170.92663461538461,119.03250675201417L171.15036057692308,117.48376350402833L171.37408653846154,120.58125000000001L171.5978125,121.77598514556885L171.82153846153847,118.76698379516603L172.04526442307693,119.43074054718016L172.2689903846154,122.92649459838867L172.49271634615383,120.4042459487915L172.7164423076923,115.2270040512085L172.94016826923078,114.65176620483399L173.16389423076924,119.78474864959716L173.38762019230768,119.475L173.61134615384614,118.722758102417L173.83507211538463,122.92649459838867L174.0587980769231,117.92625675201415L174.28252403846153,121.28926620483398L174.50625,121.99724864959717L174.72997596153846,117.35098514556884L174.95370192307692,119.475L175.17742788461538,117.30675945281982L175.40115384615385,117.39524459838867L175.6248798076923,118.59001350402832L175.84860576923077,122.43974189758302L176.07233173076924,119.25373649597168L176.2960576923077,119.475L176.51978365384613,117.66073379516601L176.7435096153846,114.96151485443116L176.9672355769231,116.20050945281983L177.19096153846155,119.16525135040283L177.41468749999999,112.97024459838867L177.63841346153845,116.90849189758302L177.86213942307694,121.20074729919435L178.0858653846154,120.18301620483399L178.30959134615384,118.59001350402832L178.5333173076923,115.49249324798583L178.75704326923076,117.17401485443116L178.98076923076925,116.864266204834L179.2044951923077,121.333491897583L179.42822115384615,121.64324054718017L179.65194711538462,119.34225540161134L179.87567307692308,118.32449054718018L180.09939903846154,123.50176620483398L180.323125,116.77574729919434L180.54685096153844,116.99701080322265L180.7705769230769,117.4395040512085L180.9943028846154,117.21824054718019L181.21802884615386,116.82000675201417L181.4417548076923,115.2270040512085L181.66548076923075,119.20951080322266L181.88920673076925,117.97051620483398L182.1129326923077,118.01474189758301L182.33665865384614,118.59001350402832L182.5603846153846,121.46623649597169L182.7841105769231,116.28899459838868L183.00783653846156,118.67849864959717L183.2315625,118.50149459838866L183.45528846153846,118.36875L183.67901442307692,118.19174594879149L183.90274038461538,119.03250675201417L184.12646634615385,116.64300270080565L184.3501923076923,119.03250675201417L184.57391826923075,117.70499324798584L184.79764423076924,118.76698379516603L185.0213701923077,117.57224864959716L185.24509615384616,121.55475540161132L185.4688221153846,118.19174594879149L185.69254807692306,117.70499324798584L185.91627403846155,118.98824729919434L186.14000000000001,119.38651485443114L186.36372596153845,122.74949054718019L186.5874519230769,116.55448379516602L186.8111778846154,121.90876350402831L187.03490384615387,117.26249999999999L187.2586298076923,119.87323379516602L187.48235576923076,119.74048919677733L187.70608173076923,115.448233795166L187.9298076923077,122.6167459487915L188.15353365384615,117.83773784637452L188.37725961538462,119.65200405120851L188.60098557692308,119.07676620483397L188.82471153846154,117.39524459838867L189.0484375,118.45723514556886L189.27216346153847,119.78474864959716L189.4958894230769,118.14748649597169L189.71961538461537,119.34225540161134L189.94334134615386,120.0502378463745L190.16706730769232,115.802241897583L190.39079326923076,116.33325405120848L190.61451923076922,122.57248649597167L190.8382451923077,121.28926620483398L191.06197115384617,119.07676620483397L191.2856971153846,124.47523784637451L191.50942307692307,116.55448379516602L191.73314903846153,124.60801620483397L191.956875,117.97051620483398L192.18060096153846,119.07676620483397L192.40432692307692,118.23600540161132L192.62805288461539,117.92625675201415L192.85177884615385,117.7935121536255L193.0755048076923,118.28026485443115L193.29923076923077,122.30699729919434L193.5229567307692,115.5810121536255L193.7466826923077,118.23600540161132L193.97040865384616,119.51925945281982L194.19413461538463,118.19174594879149L194.41786057692306,117.12975540161133L194.64158653846152,120.979483795166L194.86531250000002,120.71399459838867L195.08903846153848,118.41300945281984L195.3127644230769,116.99701080322265L195.53649038461538,119.29799594879151L195.76021634615387,121.55475540161132L195.9839423076923,117.0854959487915L196.20766826923077,114.69599189758301L196.43139423076923,117.30675945281982L196.6551201923077,117.70499324798584L196.87884615384615,119.25373649597168L197.10257211538462,120.18301620483399L197.32629807692308,119.78474864959716L197.55002403846152,120.7582540512085L197.77375,116.7314878463745L197.99747596153847,119.51925945281982L198.22120192307693,120.53699054718018L198.44492788461537,121.15648784637452L198.66865384615383,119.82900810241699L198.89237980769232,117.12975540161133L199.11610576923078,115.62523784637452L199.33983173076922,119.03250675201417L199.56355769230768,120.4042459487915L199.78728365384617,120.93525810241698L200.0110096153846,116.864266204834L200.23473557692307,118.41300945281984L200.45846153846153,117.57224864959716L200.6821875,117.17401485443116L200.90591346153846,119.16525135040283L201.12963942307692,121.20074729919435L201.3533653846154,120.71399459838867L201.57709134615382,120.09449729919433L201.8008173076923,116.864266204834L202.02454326923078,118.81124324798583L202.24826923076924,117.52798919677736L202.47199519230767,118.32449054718018L202.69572115384616,121.1122621536255L202.91944711538463,121.15648784637452L203.1431730769231,118.32449054718018L203.36689903846153,117.39524459838867L203.590625,117.7935121536255L203.81435096153848,116.37751350402831L204.03807692307691,118.94398784637451L204.26180288461538,115.05000000000001L204.48552884615384,123.3247621536255L204.70925480769233,115.89076080322266L204.93298076923077,117.66073379516601L205.15670673076923,116.59874324798585L205.3804326923077,115.53675270080566L205.60415865384613,122.6167459487915L205.82788461538462,115.35974864959718L206.05161057692308,123.50176620483398L206.27533653846154,116.7314878463745L206.49906249999998,119.74048919677733L206.72278846153847,120.89099864959718L206.94651442307693,118.94398784637451L207.1702403846154,117.48376350402833L207.39396634615383,118.63423919677734L207.6176923076923,120.09449729919433L207.8414182692308,119.16525135040283L208.06514423076922,119.78474864959716L208.28887019230768,119.69626350402831L208.51259615384615,117.61650810241699L208.73632211538464,120.62550945281981L208.96004807692307,117.97051620483398L209.18377403846154,126.510733795166L209.4075,116.37751350402831L209.63122596153843,122.35125675201417L209.85495192307692,113.589741897583L210.0786778846154,118.89976215362549L210.30240384615385,118.05900135040284L210.52612980769229,118.19174594879149L210.74985576923078,116.68726215362548L210.97358173076924,115.93498649597169L211.1973076923077,122.43974189758302L211.42103365384614,118.722758102417L211.6447596153846,124.12126350402832L211.8684855769231,117.4395040512085L212.09221153846153,122.041508102417L212.3159375,119.65200405120851L212.53966346153845,117.61650810241699L212.76338942307694,120.18301620483399L212.98711538461538,120.0502378463745L213.21084134615384,124.07700405120849L213.4345673076923,122.92649459838867L213.6582932692308,118.19174594879149L213.88201923076923,116.15625L214.1057451923077,121.6875L214.32947115384616,118.98824729919434L214.5531971153846,120.7582540512085L214.77692307692308,121.73175945281983L215.00064903846155,118.54575405120849L215.224375,115.89076080322266L215.44810096153844,117.39524459838867L215.67182692307694,122.35125675201417L215.8955528846154,119.87323379516602L216.11927884615383,116.95275135040282L216.3430048076923,120.49276485443116L216.56673076923076,119.82900810241699L216.79045673076925,121.86450405120848L217.01418269230768,118.98824729919434L217.23790865384615,119.91749324798585L217.4616346153846,117.12975540161133L217.6853605769231,121.95298919677734L217.90908653846154,116.33325405120848L218.1328125,118.89976215362549L218.35653846153846,116.20050945281983L218.5802644230769,117.7935121536255L218.8039903846154,118.85550270080566L219.02771634615385,120.49276485443116L219.25144230769232,119.43074054718016L219.47516826923075,121.06800270080566L219.69889423076924,117.39524459838867L219.9226201923077,121.15648784637452L220.14634615384617,118.722758102417L220.3700721153846,119.96175270080568L220.59379807692306,118.19174594879149L220.81752403846156,116.42173919677734L221.04125,118.722758102417L221.26497596153845,121.37775135040283L221.48870192307692,119.91749324798585L221.7124278846154,121.1122621536255L221.93615384615384,118.28026485443115L222.1598798076923,116.46599864959717L222.38360576923077,121.64324054718017L222.6073317307692,122.79374999999999L222.8310576923077,116.68726215362548L223.05478365384616,117.74925270080567L223.27850961538462,121.51049594879152L223.50223557692306,122.35125675201417L223.72596153846155,115.53675270080566L223.9496875,118.76698379516603L224.17341346153847,117.88199729919432L224.3971394230769,122.52826080322265L224.6208653846154,120.53699054718018L224.84459134615386,117.04123649597167L225.0683173076923,115.49249324798583L225.29204326923076,118.89976215362549L225.51576923076922,122.12999324798585L225.73949519230771,116.37751350402831L225.96322115384615,118.50149459838866L226.1869471153846,121.82024459838868L226.41067307692308,117.0854959487915L226.63439903846157,118.01474189758301L226.858125,123.28050270080567L227.08185096153846,117.39524459838867L227.30557692307693,118.76698379516603L227.52930288461536,114.91725540161133L227.75302884615385,121.51049594879152L227.97675480769232,116.37751350402831L228.20048076923078,119.29799594879151L228.4242067307692,119.74048919677733L228.6479326923077,124.254008102417L228.87165865384617,119.16525135040283L229.0953846153846,119.120991897583L229.31911057692307,116.55448379516602L229.54283653846153,121.99724864959717L229.76656250000002,120.84673919677735L229.99028846153846,116.68726215362548L230.21401442307692,117.17401485443116L230.43774038461538,116.82000675201417L230.66146634615387,114.25349864959716L230.8851923076923,115.97924594879152L231.10891826923077,121.59901485443115L231.33264423076923,118.36875L231.55637019230767,117.4395040512085L231.78009615384616,115.71375675201415L232.00382211538462,121.95298919677734L232.22754807692309,117.35098514556884L232.45127403846152,118.94398784637451L232.675,121.95298919677734L232.89872596153847,120.27150135040284L233.1224519230769,116.77574729919434L233.34617788461537,120.0502378463745L233.56990384615384,121.37775135040283L233.79362980769233,118.54575405120849L234.01735576923076,120.27150135040284L234.24108173076922,119.82900810241699L234.4648076923077,121.1122621536255L234.68853365384618,118.32449054718018L234.9122596153846,117.39524459838867L235.13598557692308,117.39524459838867L235.35971153846154,121.51049594879152L235.5834375,116.59874324798585L235.80716346153847,120.0502378463745L236.03088942307693,121.90876350402831L236.2546153846154,120.0502378463745L236.47834134615383,117.17401485443116L236.70206730769232,119.69626350402831L236.92579326923078,118.63423919677734L237.14951923076922,123.63451080322267L237.37324519230768,115.27126350402833L237.59697115384617,123.59025135040284L237.82069711538463,122.57248649597167L238.04442307692307,119.56348514556885L238.26814903846153,120.49276485443116L238.491875,117.88199729919432L238.71560096153848,119.20951080322266L238.93932692307692,121.51049594879152L239.16305288461538,118.45723514556886L239.38677884615385,117.74925270080567L239.6105048076923,124.07700405120849L239.83423076923077,119.34225540161134L240.05795673076923,119.34225540161134L240.2816826923077,121.20074729919435L240.50540865384613,121.06800270080566L240.72913461538462,127.35149459838868L240.9528605769231,116.90849189758302L241.17658653846152,121.42201080322266L241.40031249999998,118.54575405120849L241.62403846153848,117.52798919677736L241.84776442307694,117.92625675201415L242.07149038461537,118.94398784637451L242.29521634615384,119.69626350402831L242.5189423076923,118.63423919677734L242.7426682692308,120.09449729919433L242.96639423076923,118.81124324798583L243.1901201923077,116.7314878463745L243.41384615384615,121.82024459838868L243.63757211538461,119.74048919677733L243.86129807692308,120.84673919677735L244.08502403846154,117.30675945281982L244.30875,122.35125675201417L244.53247596153847,119.34225540161134L244.75620192307693,120.18301620483399L244.9799278846154,116.99701080322265L245.20365384615383,125.80275135040284L245.4273798076923,121.28926620483398L245.65110576923078,116.95275135040282L245.87483173076924,117.83773784637452L246.09855769230768,119.51925945281982L246.32228365384614,116.95275135040282L246.54600961538463,118.59001350402832L246.7697355769231,120.979483795166L246.99346153846153,117.04123649597167L247.2171875,124.16548919677734L247.44091346153846,117.83773784637452L247.66463942307692,118.67849864959717L247.88836538461538,115.18274459838867L248.11209134615385,122.9707540512085L248.3358173076923,119.96175270080568L248.55954326923077,118.89976215362549L248.78326923076924,120.66973514556884L249.0069951923077,114.56324729919433L249.23072115384613,116.64300270080565L249.4544471153846,119.29799594879151L249.6781730769231,120.00601215362548L249.90189903846155,120.31576080322264L250.12562499999999,118.54575405120849L250.34935096153845,122.79374999999999L250.57307692307694,117.7935121536255L250.7968028846154,117.66073379516601L251.02052884615384,118.85550270080566L251.2442548076923,118.94398784637451L251.46798076923076,117.97051620483398L251.69170673076925,121.24500675201415L251.9154326923077,121.73175945281983L252.13915865384615,122.66100540161133L252.36288461538462,117.39524459838867L252.58661057692308,130.27201080322266L252.81033653846154,115.18274459838867L253.0340625,119.69626350402831L253.25778846153844,123.01501350402833L253.4815144230769,119.16525135040283L253.7052403846154,120.35998649597167L253.92896634615386,117.39524459838867L254.1526923076923,120.35998649597167L254.37641826923075,119.96175270080568L254.60014423076925,119.475L254.8238701923077,121.6875L255.04759615384614,124.87350540161134L255.2713221153846,119.475L255.4950480769231,119.20951080322266L255.71877403846156,116.64300270080565L255.9425,117.17401485443116L256.16622596153843,123.36898784637452L256.3899519230769,120.13875675201416L256.6136778846154,119.87323379516602L256.83740384615385,120.89099864959718L257.0611298076923,115.97924594879152L257.2848557692308,119.69626350402831L257.50858173076927,116.95275135040282L257.7323076923077,117.4395040512085L257.95603365384613,123.54599189758301L258.1797596153846,118.81124324798583L258.40348557692306,122.43974189758302L258.62721153846155,121.42201080322266L258.8509375,123.45750675201415L259.0746634615385,115.27126350402833L259.2983894230769,117.61650810241699L259.5221153846154,119.43074054718016L259.74584134615384,119.96175270080568L259.96956730769233,121.86450405120848L260.19329326923076,120.71399459838867L260.4170192307692,120.84673919677735L260.6407451923077,120.0502378463745L260.8644711538462,120.18301620483399L261.0881971153846,115.40400810241698L261.31192307692305,120.84673919677735L261.53564903846154,123.41324729919432L261.75937500000003,120.0502378463745L261.98310096153847,118.14748649597169L262.2068269230769,116.64300270080565L262.4305528846154,118.05900135040284L262.65427884615383,119.74048919677733L262.8780048076923,114.43050270080568L263.10173076923076,120.979483795166L263.32545673076925,117.52798919677736L263.5491826923077,114.96151485443116L263.7729086538462,121.82024459838868L263.9966346153846,124.51949729919434L264.22036057692304,118.89976215362549L264.44408653846153,119.25373649597168L264.6678125,119.16525135040283L264.89153846153846,116.864266204834L265.1152644230769,117.39524459838867L265.3389903846154,117.48376350402833L265.5627163461539,116.46599864959717L265.7864423076923,123.41324729919432L266.01016826923075,119.07676620483397L266.23389423076924,117.92625675201415L266.45762019230773,121.06800270080566L266.68134615384616,122.6167459487915L266.9050721153846,120.00601215362548L267.1287980769231,115.35974864959718L267.3525240384615,117.57224864959716L267.57625,119.38651485443114L267.79997596153845,120.35998649597167L268.02370192307694,121.02374324798583L268.2474278846154,120.62550945281981L268.47115384615387,120.58125000000001" style="fill: none;" fill="none"></path></g></g></g></g></g></g><g transform="translate(39, 177)" clip-path="url(#clip_1)"><clipPath id="clip_1"><rect width="290" height="23"></rect></clipPath><g><g><line x1="0" y1="0" x2="0" y2="5" style="visibility: inherit;" fill="rgb(0, 0, 0)" stroke="rgb(204, 204, 204)" stroke-width="1px"></line><line x1="22.372596153846157" y1="0" x2="22.372596153846157" y2="5" style="visibility: inherit;" fill="rgb(0, 0, 0)" stroke="rgb(204, 204, 204)" stroke-width="1px"></line><line x1="44.745192307692314" y1="0" x2="44.745192307692314" y2="5" style="visibility: inherit;" fill="rgb(0, 0, 0)" stroke="rgb(204, 204, 204)" stroke-width="1px"></line><line x1="67.11778846153847" y1="0" x2="67.11778846153847" y2="5" style="visibility: inherit;" fill="rgb(0, 0, 0)" stroke="rgb(204, 204, 204)" stroke-width="1px"></line><line x1="89.49038461538463" y1="0" x2="89.49038461538463" y2="5" style="visibility: inherit;" fill="rgb(0, 0, 0)" stroke="rgb(204, 204, 204)" stroke-width="1px"></line><line x1="111.86298076923077" y1="0" x2="111.86298076923077" y2="5" style="visibility: inherit;" fill="rgb(0, 0, 0)" stroke="rgb(204, 204, 204)" stroke-width="1px"></line><line x1="134.23557692307693" y1="0" x2="134.23557692307693" y2="5" style="visibility: inherit;" fill="rgb(0, 0, 0)" stroke="rgb(204, 204, 204)" stroke-width="1px"></line><line x1="156.60817307692307" y1="0" x2="156.60817307692307" y2="5" style="visibility: inherit;" fill="rgb(0, 0, 0)" stroke="rgb(204, 204, 204)" stroke-width="1px"></line><line x1="178.98076923076925" y1="0" x2="178.98076923076925" y2="5" style="visibility: inherit;" fill="rgb(0, 0, 0)" stroke="rgb(204, 204, 204)" stroke-width="1px"></line><line x1="201.3533653846154" y1="0" x2="201.3533653846154" y2="5" style="visibility: inherit;" fill="rgb(0, 0, 0)" stroke="rgb(204, 204, 204)" stroke-width="1px"></line><line x1="223.72596153846155" y1="0" x2="223.72596153846155" y2="5" style="visibility: inherit;" fill="rgb(0, 0, 0)" stroke="rgb(204, 204, 204)" stroke-width="1px"></line><line x1="246.09855769230768" y1="0" x2="246.09855769230768" y2="5" style="visibility: inherit;" fill="rgb(0, 0, 0)" stroke="rgb(204, 204, 204)" stroke-width="1px"></line><line x1="268.47115384615387" y1="0" x2="268.47115384615387" y2="5" style="visibility: inherit;" fill="rgb(0, 0, 0)" stroke="rgb(204, 204, 204)" stroke-width="1px"></line><line x1="290.84375" y1="0" x2="290.84375" y2="5" style="visibility: inherit;" fill="rgb(0, 0, 0)" stroke="rgb(204, 204, 204)" stroke-width="1px"></line></g><g transform="translate(0, 8)"><text x="0" y="0" dx="0em" dy="0.95em" style="text-anchor: middle; visibility: hidden; font-family: &quot;Helvetica Neue&quot;, sans-serif; font-size: 12px; font-weight: 200;" fill="rgb(50, 49, 63)" stroke="none" stroke-width="1px">-100</text><text x="22.372596153846157" y="0" dx="0em" dy="0.95em" style="text-anchor: middle; visibility: inherit; font-family: &quot;Helvetica Neue&quot;, sans-serif; font-size: 12px; font-weight: 200;" fill="rgb(50, 49, 63)" stroke="none" stroke-width="1px">0</text><text x="44.745192307692314" y="0" dx="0em" dy="0.95em" style="text-anchor: middle; visibility: hidden; font-family: &quot;Helvetica Neue&quot;, sans-serif; font-size: 12px; font-weight: 200;" fill="rgb(50, 49, 63)" stroke="none" stroke-width="1px">100</text><text x="67.11778846153847" y="0" dx="0em" dy="0.95em" style="text-anchor: middle; visibility: inherit; font-family: &quot;Helvetica Neue&quot;, sans-serif; font-size: 12px; font-weight: 200;" fill="rgb(50, 49, 63)" stroke="none" stroke-width="1px">200</text><text x="89.49038461538463" y="0" dx="0em" dy="0.95em" style="text-anchor: middle; visibility: hidden; font-family: &quot;Helvetica Neue&quot;, sans-serif; font-size: 12px; font-weight: 200;" fill="rgb(50, 49, 63)" stroke="none" stroke-width="1px">300</text><text x="111.86298076923077" y="0" dx="0em" dy="0.95em" style="text-anchor: middle; visibility: inherit; font-family: &quot;Helvetica Neue&quot;, sans-serif; font-size: 12px; font-weight: 200;" fill="rgb(50, 49, 63)" stroke="none" stroke-width="1px">400</text><text x="134.23557692307693" y="0" dx="0em" dy="0.95em" style="text-anchor: middle; visibility: hidden; font-family: &quot;Helvetica Neue&quot;, sans-serif; font-size: 12px; font-weight: 200;" fill="rgb(50, 49, 63)" stroke="none" stroke-width="1px">500</text><text x="156.60817307692307" y="0" dx="0em" dy="0.95em" style="text-anchor: middle; visibility: inherit; font-family: &quot;Helvetica Neue&quot;, sans-serif; font-size: 12px; font-weight: 200;" fill="rgb(50, 49, 63)" stroke="none" stroke-width="1px">600</text><text x="178.98076923076925" y="0" dx="0em" dy="0.95em" style="text-anchor: middle; visibility: hidden; font-family: &quot;Helvetica Neue&quot;, sans-serif; font-size: 12px; font-weight: 200;" fill="rgb(50, 49, 63)" stroke="none" stroke-width="1px">700</text><text x="201.3533653846154" y="0" dx="0em" dy="0.95em" style="text-anchor: middle; visibility: inherit; font-family: &quot;Helvetica Neue&quot;, sans-serif; font-size: 12px; font-weight: 200;" fill="rgb(50, 49, 63)" stroke="none" stroke-width="1px">800</text><text x="223.72596153846155" y="0" dx="0em" dy="0.95em" style="text-anchor: middle; visibility: hidden; font-family: &quot;Helvetica Neue&quot;, sans-serif; font-size: 12px; font-weight: 200;" fill="rgb(50, 49, 63)" stroke="none" stroke-width="1px">900</text><text x="246.09855769230768" y="0" dx="0em" dy="0.95em" style="text-anchor: middle; visibility: inherit; font-family: &quot;Helvetica Neue&quot;, sans-serif; font-size: 12px; font-weight: 200;" fill="rgb(50, 49, 63)" stroke="none" stroke-width="1px">1k</text><text x="268.47115384615387" y="0" dx="0em" dy="0.95em" style="text-anchor: middle; visibility: hidden; font-family: &quot;Helvetica Neue&quot;, sans-serif; font-size: 12px; font-weight: 200;" fill="rgb(50, 49, 63)" stroke="none" stroke-width="1px">1.1k</text><text x="290.84375" y="0" dx="0em" dy="0.95em" style="text-anchor: middle; visibility: hidden; font-family: &quot;Helvetica Neue&quot;, sans-serif; font-size: 12px; font-weight: 200;" fill="rgb(50, 49, 63)" stroke="none" stroke-width="1px">1.2k</text></g><line x1="0" y1="0" x2="290.84375" y2="0" fill="rgb(0, 0, 0)" stroke="rgb(204, 204, 204)" stroke-width="1px"></line></g></g></g></g></svg>