<svg viewBox="0 0 330 200" xmlns="http://www.w3.org/2000/svg"><g><g><g><g><g><line x1="48.875" y1="177" x2="43.875" y2="177" style="visibility: inherit;" fill="rgb(0, 0, 0)" stroke="rgb(204, 204, 204)" stroke-width="1px"></line><line x1="48.875" y1="162.25" x2="43.875" y2="162.25" style="visibility: inherit;" fill="rgb(0, 0, 0)" stroke="rgb(204, 204, 204)" stroke-width="1px"></line><line x1="48.875" y1="147.5" x2="43.875" y2="147.5" style="visibility: inherit;" fill="rgb(0, 0, 0)" stroke="rgb(204, 204, 204)" stroke-width="1px"></line><line x1="48.875" y1="132.75" x2="43.875" y2="132.75" style="visibility: inherit;" fill="rgb(0, 0, 0)" stroke="rgb(204, 204, 204)" stroke-width="1px"></line><line x1="48.875" y1="118" x2="43.875" y2="118" style="visibility: inherit;" fill="rgb(0, 0, 0)" stroke="rgb(204, 204, 204)" stroke-width="1px"></line><line x1="48.875" y1="103.25" x2="43.875" y2="103.25" style="visibility: inherit;" fill="rgb(0, 0, 0)" stroke="rgb(204, 204, 204)" stroke-width="1px"></line><line x1="48.875" y1="88.50000000000001" x2="43.875" y2="88.50000000000001" style="visibility: inherit;" fill="rgb(0, 0, 0)" stroke="rgb(204, 204, 204)" stroke-width="1px"></line><line x1="48.875" y1="73.75000000000001" x2="43.875" y2="73.75000000000001" style="visibility: inherit;" fill="rgb(0, 0, 0)" stroke="rgb(204, 204, 204)" stroke-width="1px"></line><line x1="48.875" y1="59.00000000000003" x2="43.875" y2="59.00000000000003" style="visibility: inherit;" fill="rgb(0, 0, 0)" stroke="rgb(204, 204, 204)" stroke-width="1px"></line><line x1="48.875" y1="44.25000000000003" x2="43.875" y2="44.25000000000003" style="visibility: inherit;" fill="rgb(0, 0, 0)" stroke="rgb(204, 204, 204)" stroke-width="1px"></line><line x1="48.875" y1="29.5" x2="43.875" y2="29.5" style="visibility: inherit;" fill="rgb(0, 0, 0)" stroke="rgb(204, 204, 204)" stroke-width="1px"></line><line x1="48.875" y1="14.75" x2="43.875" y2="14.75" style="visibility: inherit;" fill="rgb(0, 0, 0)" stroke="rgb(204, 204, 204)" stroke-width="1px"></line><line x1="48.875" y1="0" x2="43.875" y2="0" style="visibility: inherit;" fill="rgb(0, 0, 0)" stroke="rgb(204, 204, 204)" stroke-width="1px"></line></g><g transform="translate(38.875, 0)"><text x="0" y="177" dx="0em" dy="0.3em" style="text-anchor: end; visibility: hidden; font-family: &quot;Helvetica Neue&quot;, sans-serif; font-size: 12px; font-weight: 200;" fill="rgb(50, 49, 63)" stroke="none" stroke-width="1px">-0.2</text><text x="0" y="162.25" dx="0em" dy="0.3em" style="text-anchor: end; visibility: inherit; font-family: &quot;Helvetica Neue&quot;, sans-serif; font-size: 12px; font-weight: 200;" fill="rgb(50, 49, 63)" stroke="none" stroke-width="1px">0</text><text x="0" y="147.5" dx="0em" dy="0.3em" style="text-anchor: end; visibility: hidden; font-family: &quot;Helvetica Neue&quot;, sans-serif; font-size: 12px; font-weight: 200;" fill="rgb(50, 49, 63)" stroke="none" stroke-width="1px">0.2</text><text x="0" y="132.75" dx="0em" dy="0.3em" style="text-anchor: end; visibility: inherit; font-family: &quot;Helvetica Neue&quot;, sans-serif; font-size: 12px; font-weight: 200;" fill="rgb(50, 49, 63)" stroke="none" stroke-width="1px">0.4</text><text x="0" y="118" dx="0em" dy="0.3em" style="text-anchor: end; visibility: hidden; font-family: &quot;Helvetica Neue&quot;, sans-serif; font-size: 12px; font-weight: 200;" fill="rgb(50, 49, 63)" stroke="none" stroke-width="1px">0.6</text><text x="0" y="103.25" dx="0em" dy="0.3em" style="text-anchor: end; visibility: inherit; font-family: &quot;Helvetica Neue&quot;, sans-serif; font-size: 12px; font-weight: 200;" fill="rgb(50, 49, 63)" stroke="none" stroke-width="1px">0.8</text><text x="0" y="88.50000000000001" dx="0em" dy="0.3em" style="text-anchor: end; visibility: hidden; font-family: &quot;Helvetica Neue&quot;, sans-serif; font-size: 12px; font-weight: 200;" fill="rgb(50, 49, 63)" stroke="none" stroke-width="1px">1</text><text x="0" y="73.75000000000001" dx="0em" dy="0.3em" style="text-anchor: end; visibility: inherit; font-family: &quot;Helvetica Neue&quot;, sans-serif; font-size: 12px; font-weight: 200;" fill="rgb(50, 49, 63)" stroke="none" stroke-width="1px">1.2</text><text x="0" y="59.00000000000003" dx="0em" dy="0.3em" style="text-anchor: end; visibility: hidden; font-family: &quot;Helvetica Neue&quot;, sans-serif; font-size: 12px; font-weight: 200;" fill="rgb(50, 49, 63)" stroke="none" stroke-width="1px">1.4</text><text x="0" y="44.25000000000003" dx="0em" dy="0.3em" style="text-anchor: end; visibility: inherit; font-family: &quot;Helvetica Neue&quot;, sans-serif; font-size: 12px; font-weight: 200;" fill="rgb(50, 49, 63)" stroke="none" stroke-width="1px">1.6</text><text x="0" y="29.5" dx="0em" dy="0.3em" style="text-anchor: end; visibility: hidden; font-family: &quot;Helvetica Neue&quot;, sans-serif; font-size: 12px; font-weight: 200;" fill="rgb(50, 49, 63)" stroke="none" stroke-width="1px">1.8</text><text x="0" y="14.75" dx="0em" dy="0.3em" style="text-anchor: end; visibility: inherit; font-family: &quot;Helvetica Neue&quot;, sans-serif; font-size: 12px; font-weight: 200;" fill="rgb(50, 49, 63)" stroke="none" stroke-width="1px">2</text><text x="0" y="0" dx="0em" dy="0.3em" style="text-anchor: end; visibility: hidden; font-family: &quot;Helvetica Neue&quot;, sans-serif; font-size: 12px; font-weight: 200;" fill="rgb(50, 49, 63)" stroke="none" stroke-width="1px">2.2</text></g><line x1="48.875" y1="0" x2="48.875" y2="177" fill="rgb(0, 0, 0)" stroke="rgb(204, 204, 204)" stroke-width="1px"></line></g></g><g transform="translate(48, 0)" clip-path="url(#clip_0)"><clipPath id="clip_0"><rect width="281" height="177"></rect></clipPath><g><g><g><line x1="0" y1="0" x2="0" y2="177" fill="rgb(0, 0, 0)" stroke="rgb(60, 60, 60)" stroke-width="1px" opacity="0.25"></line><line x1="21.625" y1="0" x2="21.625" y2="177" fill="rgb(0, 0, 0)" stroke="rgb(60, 60, 60)" stroke-width="1px" opacity="0.25"></line><line x1="43.25" y1="0" x2="43.25" y2="177" fill="rgb(0, 0, 0)" stroke="rgb(60, 60, 60)" stroke-width="1px" opacity="0.25"></line><line x1="64.875" y1="0" x2="64.875" y2="177" fill="rgb(0, 0, 0)" stroke="rgb(60, 60, 60)" stroke-width="1px" opacity="0.25"></line><line x1="86.5" y1="0" x2="86.5" y2="177" fill="rgb(0, 0, 0)" stroke="rgb(60, 60, 60)" stroke-width="1px" opacity="0.25"></line><line x1="108.125" y1="0" x2="108.125" y2="177" fill="rgb(0, 0, 0)" stroke="rgb(60, 60, 60)" stroke-width="1px" opacity="0.25"></line><line x1="129.75" y1="0" x2="129.75" y2="177" fill="rgb(0, 0, 0)" stroke="rgb(60, 60, 60)" stroke-width="1px" opacity="0.25"></line><line x1="151.375" y1="0" x2="151.375" y2="177" fill="rgb(0, 0, 0)" stroke="rgb(60, 60, 60)" stroke-width="1px" opacity="0.25"></line><line x1="173" y1="0" x2="173" y2="177" fill="rgb(0, 0, 0)" stroke="rgb(60, 60, 60)" stroke-width="1px" opacity="0.25"></line><line x1="194.625" y1="0" x2="194.625" y2="177" fill="rgb(0, 0, 0)" stroke="rgb(60, 60, 60)" stroke-width="1px" opacity="0.25"></line><line x1="216.25" y1="0" x2="216.25" y2="177" fill="rgb(0, 0, 0)" stroke="rgb(60, 60, 60)" stroke-width="1px" opacity="0.25"></line><line x1="237.875" y1="0" x2="237.875" y2="177" fill="rgb(0, 0, 0)" stroke="rgb(60, 60, 60)" stroke-width="1px" opacity="0.25"></line><line x1="259.5" y1="0" x2="259.5" y2="177" fill="rgb(0, 0, 0)" stroke="rgb(60, 60, 60)" stroke-width="1px" opacity="0.25"></line><line x1="281.125" y1="0" x2="281.125" y2="177" fill="rgb(0, 0, 0)" stroke="rgb(60, 60, 60)" stroke-width="1px" opacity="0.25"></line></g><g><line x1="0" y1="177" x2="281.125" y2="177" fill="rgb(0, 0, 0)" stroke="rgb(60, 60, 60)" stroke-width="1px" opacity="0.25"></line><line x1="0" y1="162.25" x2="281.125" y2="162.25" fill="rgb(0, 0, 0)" stroke="rgb(60, 60, 60)" stroke-width="1px" opacity="0.25"></line><line x1="0" y1="147.5" x2="281.125" y2="147.5" fill="rgb(0, 0, 0)" stroke="rgb(60, 60, 60)" stroke-width="1px" opacity="0.25"></line><line x1="0" y1="132.75" x2="281.125" y2="132.75" fill="rgb(0, 0, 0)" stroke="rgb(60, 60, 60)" stroke-width="1px" opacity="0.25"></line><line x1="0" y1="118" x2="281.125" y2="118" fill="rgb(0, 0, 0)" stroke="rgb(60, 60, 60)" stroke-width="1px" opacity="0.25"></line><line x1="0" y1="103.25" x2="281.125" y2="103.25" fill="rgb(0, 0, 0)" stroke="rgb(60, 60, 60)" stroke-width="1px" opacity="0.25"></line><line x1="0" y1="88.50000000000001" x2="281.125" y2="88.50000000000001" fill="rgb(0, 0, 0)" stroke="rgb(60, 60, 60)" stroke-width="1px" opacity="0.25"></line><line x1="0" y1="73.75000000000001" x2="281.125" y2="73.75000000000001" fill="rgb(0, 0, 0)" stroke="rgb(60, 60, 60)" stroke-width="1px" opacity="0.25"></line><line x1="0" y1="59.00000000000003" x2="281.125" y2="59.00000000000003" fill="rgb(0, 0, 0)" stroke="rgb(60, 60, 60)" stroke-width="1px" opacity="0.25"></line><line x1="0" y1="44.25000000000003" x2="281.125" y2="44.25000000000003" fill="rgb(0, 0, 0)" stroke="rgb(60, 60, 60)" stroke-width="1px" opacity="0.25"></line><line x1="0" y1="29.5" x2="281.125" y2="29.5" fill="rgb(0, 0, 0)" stroke="rgb(60, 60, 60)" stroke-width="1px" opacity="0.25"></line><line x1="0" y1="14.75" x2="281.125" y2="14.75" fill="rgb(0, 0, 0)" stroke="rgb(60, 60, 60)" stroke-width="1px" opacity="0.25"></line><line x1="0" y1="0" x2="281.125" y2="0" fill="rgb(0, 0, 0)" stroke="rgb(60, 60, 60)" stroke-width="1px" opacity="0.25"></line></g></g></g><g><g><line x1="0" y1="162.25" x2="281.125" y2="162.25" fill="rgb(0, 0, 0)" stroke="rgb(153, 153, 153)" stroke-width="1.5px"></line></g></g><g><g><line x1="21.625" y1="0" x2="21.625" y2="177" fill="rgb(0, 0, 0)" stroke="rgb(153, 153, 153)" stroke-width="1.5px"></line></g></g><g><g><g><g><g><path stroke="rgb(255, 112, 67)" stroke-width="2px" d="M24.868750000000002,-0.7039185762405396L25.084999999999997,0.8607024550438211L25.30125,3.063634991645813L25.5175,3.688161134719877L25.73375,5.248315989971161L25.950000000000003,4.434118032455444L26.166249999999998,8.803005278110504L26.3825,8.017644047737122L26.59875,10.442179799079923L26.815,8.251116037368774L27.03125,12.272397637367277L27.2475,14.629290163516998L27.463749999999997,17.74486994743347L27.896250000000002,15.550957679748535L28.1125,16.264912843704224L28.32875,18.851136475801468L28.544999999999998,15.752480685710935L28.76125,12.957867741584778L28.9775,18.8882198035717L29.19375,14.797422349452972L29.41,15.790153056383133L29.62625,17.608431786298752L29.8425,17.611148416996002L30.05875,18.85675436258316L30.275000000000002,19.49635824561119L30.7075,25.457868039608L30.923750000000002,22.57966375350952L31.14,20.29090678691864L31.356250000000003,19.132707774639158L31.572499999999998,25.288610517978668L31.78875,24.315687477588654L32.005,20.927583038806944L32.22125,21.564593374729185L32.4375,20.73840355873108L32.653749999999995,22.780140548944473L32.87,22.190394312143326L33.08625,25.4208462536335L33.3025,21.256242603063612L33.518750000000004,26.430210828781128L33.735,21.805766880512266L33.95125,23.757362723350525L34.1675,23.086882442235947L34.38375,23.036092877388L34.6,22.82527706027031L34.81625,24.220368027687073L35.0325,24.516199439764023L35.248749999999994,19.410120606422453L35.464999999999996,24.074795305728912L35.68125,27.094756722450256L35.8975,28.91950613260269L36.11375,27.780991703271866L36.33,25.02911514043808L36.54625,22.523142009973526L36.978750000000005,25.412142485380173L37.195,25.500085711479187L37.411249999999995,25.83720287680626L37.6275,24.56842204928398L37.84375,28.944755852222443L38.06,25.74428355693817L38.27625,26.38860857486725L38.4925,25.692210406064987L38.70875,28.725095599889755L38.925000000000004,27.103363782167435L39.14125,29.580438643693952L39.3575,28.96947807073593L39.79,25.24956664443016L40.00625,29.17495733499527L40.2225,28.292175441980362L40.43875,30.660163074731855L40.655,28.460465878248215L40.87125,32.38832703232768L41.087500000000006,29.820249438285856L41.30375,30.762383997440367L41.52,27.676722317934036L41.73625,26.01221016049385L41.9525,27.54765158891678L42.168749999999996,31.27420952916148L42.385,32.30293339490893L42.60125,27.86014324426651L42.8175,31.047753304243116L43.033750000000005,30.137286394834547L43.25,26.597499012947083L43.46625,28.454030364751816L43.6825,30.00896295905116L43.89875,30.01924043893817L44.114999999999995,33.14169532060626L44.33125,25.104873090982437L44.5475,29.679424226284056L44.76375,31.420204252004652L44.980000000000004,32.21083170175555L45.19625,32.59173145890239L45.4125,28.98995390534401L45.628750000000004,31.358873456716566L45.845,32.46728515625003L46.061249999999994,32.64502665400508L46.277499999999996,28.0908722281456L46.49375,27.339068859815598L46.71,32.416020840406446L46.92625,32.78492873907092L47.1425,31.8148102462292L47.35875,32.42621040344241L47.575,25.58042412996292L47.791250000000005,29.59101504087451L48.00749999999999,25.88204926252365L48.223749999999995,32.39574721455577L48.44,31.72570651769641L48.65625,30.992348104715376L48.8725,28.968546152114868L49.08875,31.409126728773145L49.52125,32.490152329206495L49.737500000000004,30.781637787818937L49.95375000000001,30.100589901208906L50.38625,29.201024681329727L50.6025,30.356586188077955L50.81875,29.770637959241895L51.035,31.24294629693034L51.25125,31.196447074413328L51.4675,31.56732431054118L51.68375,30.661710411310224L51.900000000000006,30.14220094680789L52.11625,28.760886549949646L52.332499999999996,29.58771815896037L52.54875,31.453278571367292L52.765,33.012949883937864L52.981249999999996,31.75053423643115L53.1975,30.864112585783033L53.63,30.30722966790202L53.846250000000005,33.25328817963603L54.0625,30.64377537369731L54.27875,32.78218573331836L54.71125,29.656987845897703L54.927499999999995,31.168111473321943L55.14375,30.972733855247526L55.36,34.38843539357188L55.57625,31.302395671606092L55.792500000000004,29.765204697847395L56.00875,30.88313779234889L56.225,30.999847412109403L56.44125,33.648975551128416L56.6575,31.925304144620924L56.87375,34.09610307216647L57.089999999999996,31.90429201722148L57.30625,32.693846881389646L57.5225,30.143677949905424L57.73875,31.175575613975553L57.955,32.762967109680204L58.17125,33.260075360536604L58.60375,30.82956126332286L58.82,35.29994851350787L59.036249999999995,31.942245721817045L59.46875,30.32631641626361L59.685,32.44184201955798L59.90125,32.26261472702029L60.1175,32.16567760705951L60.550000000000004,32.246446818113355L60.76625,31.31940758228305L60.982499999999995,29.957311809062986L61.19875,31.708193480968504L61.415,31.110640227794676L61.63125,39.19240555167201L61.847500000000004,33.46275886893275L62.06375,35.459368139505415L62.28,32.97306200861934L62.49625,31.352235734462766L62.712500000000006,33.967762053012876L62.928749999999994,28.742450386285782L63.5775,29.986280411481886L64.4425,30.269741922616987L64.65875,31.1024375855923L64.875,32.65182262659076L65.09125,33.400381863117246L65.30749999999999,32.59194245934489L65.52374999999999,34.66360634565356L65.95625,35.31330308318141L66.1725,35.86509561538699L66.38875,31.61286523938182L66.605,36.81036001443866L66.82125,34.96834373474124L67.25375,35.685490280389814L67.47,33.66491487622264L67.68625,35.55507442355159L67.9025,30.152311384677915L68.11875,32.716634929180174L68.335,33.29128584265712L68.55125,35.36978086829188L68.7675,34.33312690258029L68.98375,32.41379654407504L69.2,30.365799874067335L69.41624999999999,31.61548516154292L69.6325,34.321750462055235L69.84875,34.14673438668254L70.28125,33.19869181513789L70.49749999999999,32.98944091796878L70.71375,35.38418164849284L70.92999999999999,34.605792224407224L71.14625000000001,31.47313019633296L71.3625,34.62189859151843L71.57875,32.930308043956785L71.795,31.47634795308116L72.01125,32.73034995794299L72.2275,35.19300645589831L72.44375,33.98014074563983L72.87625,35.69521388411525L73.0925,34.07465136051181L73.30874999999999,33.27161884307864L73.525,31.590121150016813L73.74125,32.42149806022647L73.95750000000001,34.405376970768L74.17375,32.356589049100904L74.39,32.939662396907835L74.60625,32.19032949209216L74.82249999999999,37.02998510003093L75.03875000000001,35.812433421611814L75.255,31.501764714717893L75.47125,33.35359251499179L75.6875,33.87249535322192L75.90375,31.600548088550596L76.12,33.89439544081691L76.33625,33.43518814444545L76.5525,36.48948988318446L76.76875,32.8084289133549L76.985,34.76368209719661L77.4175,33.09856331348422L77.63374999999999,32.24605998396876L77.85000000000001,35.388375282287626L78.06625,33.958486825227766L78.2825,33.023350447416334L78.49875,32.63195341825488L78.715,32.964991241693525L78.93125,37.08671784400943L79.36375,32.338381469249754L79.58,33.13037163019183L79.79625,36.83018526434901L80.22875,37.510371565818815L80.445,33.1930739283562L80.66125000000001,35.470313787460356L80.8775,36.70973917841914L81.09374999999999,31.12634217739108L81.31,34.7737222015858L81.52624999999999,33.23784118890765L81.7425,30.201817363500624L81.95875,35.045103937387495L82.17500000000001,33.67266914248469L82.39125,35.5538963377476L82.6075,33.25763127207759L82.82375,35.971000254154234L83.04,35.23597142100337L83.25625,34.477583080530195L83.68875,32.61481842398646L84.12125,33.005951702594786L84.55375000000001,36.94535633921626L84.77,37.862329095602064L84.98625000000001,35.41221833229068L85.2025,34.69653999805453L85.41874999999999,38.28354752063754L85.635,33.14368224143985L85.85125,32.34202122688296L86.06750000000001,35.70845416188243L86.28375,34.66854727268222L86.5,32.592751294374494L86.71625,33.558403611183195L86.9325,32.71157971024516L87.14874999999999,36.41018888354304L87.365,34.03579211235049L88.01375,33.7555747330189L88.22999999999999,34.387855142354994L88.44625,37.453295946121244L88.6625,36.205914080143L88.87875000000001,36.90632125735286L89.31125,31.769629776477842L89.5275,35.88329440355304L89.74374999999999,36.76157495379451L89.96000000000001,39.877998739481L90.17625,36.35962790250781L90.3925,35.9620854854584L90.60875,36.624486207962065L90.825,33.24883958697322L91.04125,34.35314556956294L91.25750000000001,33.984536588192015L91.47375,33.411907762289076L91.69,35.13794413208964L91.90625,34.285097926855116L92.12249999999999,36.404597371816664L92.33875,31.92453047633174L92.55499999999999,36.013974010944395L92.77125000000001,33.649274468421964L92.9875,38.49079391360286L93.20375,34.471525609493284L93.63625,33.72322133183482L93.8525,37.88204005360606L94.06875,35.8536488413811L94.285,36.31396389007571L94.50125,36.88924780488017L94.7175,39.138661980628996L94.93375,35.67230275273326L95.15,37.271475106477766L95.36625,36.18785595893863L95.58250000000001,31.914789289236097L95.79875,34.16169783473018L96.01499999999999,35.97109696269038L96.23125,34.9827533066273L96.44749999999999,39.51978152990344L96.66375000000001,37.20376154780391L96.88,33.37968623638156L97.09625,32.98556378483775L97.3125,36.84480583667758L97.52875,33.7599969506264L97.745,32.23221307992938L97.96125,36.34137636423114L98.1775,37.80154338479045L98.39375,37.09213352203372L98.61,33.41855427622798L98.82625,32.54952257871631L99.0425,36.12923300266269L99.25874999999999,37.24647155404094L99.47500000000001,35.48885545134547L99.69125,38.46665194630626L99.90750000000001,32.85098066926005L100.12375,35.667247533798246L100.33999999999999,35.23125907778743L100.55625,34.83843779563907L100.7725,31.120680332183866L100.98875000000001,38.514689713716535L101.205,34.30670788884166L101.6375,34.480299711227445L101.85375,34.51316303014758L102.07,36.33999606966975L102.28625,36.01262009143832L102.5025,34.72471734881404L102.71875,34.69179248809817L102.935,36.633603185415296L103.15124999999999,40.51645970344546L103.3675,36.655529648065595L103.58375,35.393641501665144L103.80000000000001,34.78607451915744L104.01625,34.67310136556628L104.2325,34.22779372334483L104.44875,36.51202297210696L104.66499999999999,34.085526674985914L104.88125000000001,39.37577372789386L105.0975,30.981929957866697L105.31375,38.24079355597499L105.53,36.05230575799945L105.74625,36.65227672457698L105.96249999999999,36.254602432251005L106.17875000000001,31.687067061662702L106.395,32.57608225941661L106.61125,32.21497258543971L107.04374999999999,35.88670557737353L107.26,34.33321481943133L107.47625,33.29362443089488L107.69250000000001,34.56877043843272L107.90875,33.96404317021373L108.34125,41.98831087350848L108.5575,36.29541343450549L108.77375,38.10636869072917L108.99,35.65474575757983L109.20625,34.548197895288496L109.4225,34.85242536664012L109.85499999999999,35.600070267915754L110.2875,35.92754295468333L110.50375000000001,38.7099618315697L110.72,35.302331060171156L111.1525,35.961848109960584L111.36874999999999,36.953189730644254L111.58500000000001,36.78755438327792L112.0175,36.25416284799579L112.23375,33.71322518587115L112.45,39.18008840084079L112.66625,35.676408469677L112.8825,35.61235225200656L113.09875,34.16280558705333L113.315,36.40764808654788L113.53125,35.52946424484256L113.7475,34.7163916230202L113.96375,35.04295876622203L114.17999999999999,35.96223494410518L114.39625000000001,34.234598487615614L114.6125,38.07116678357127L115.045,35.375117421150236L115.4775,36.94630584120753L115.69375,34.19839432835582L115.91,38.93141558766368L116.12625,36.283632576465635L116.3425,36.59074372053149L116.55875,37.04333087801936L116.775,40.75758045911792L116.99125,37.543929427862196L117.2075,36.12572512030604L117.64,37.31552144885066L117.85625,37.03591948747638L118.07249999999999,38.83676430583003L118.28875000000001,33.000157982111006L118.505,36.54130807518962L118.72125000000001,36.88820159435275L118.9375,35.41596359014514L119.15375,33.34228640794757L119.37,33.71988049149516L119.58624999999999,38.24920719861987L119.8025,36.95553711056712L120.01875,35.87676218152049L120.235,33.78958097100261L120.45125,38.68970578908923L120.6675,36.228236168623L120.88374999999999,35.34414431452754L121.10000000000001,39.73370960354808L121.31625,38.19684392213824L121.5325,37.10452100634578L121.74875,36.53252518177035L121.96499999999999,36.1707033813L122.18125,36.173806846141844L122.3975,42.04493811726573L122.61375000000001,36.59814631938937L122.83,36.69828361272815L123.04625,34.96801844239238L123.2625,36.668725967407255L123.47875,36.9711863100529L123.69500000000001,36.65181955695155L123.91125,40.674024283885984L124.1275,39.669205009937315L124.34375,35.328037947416334L124.77624999999999,35.39631417393687L124.9925,34.85602116584781L125.20875,36.789374262094526L125.64125,32.487356573343305L125.85749999999999,35.0986277163029L126.07375,36.29183521866801L126.28999999999999,37.809921860694914L126.50625000000001,37.544509679079084L126.7225,38.77240037918094L126.93875,37.42442405223849L127.155,37.540931463241606L127.37125,37.42016008496287L127.5875,41.45325770974162L127.80375,34.53985458612445L128.02,38.66392856836322L128.23624999999998,37.35827541351321L128.66875,37.0647298395634L128.885,39.55848252773288L129.10125,39.24679970741275L129.3175,34.15488427877429L129.53375,38.22845882177356L129.75,36.52228286862376L130.1825,34.686666935682325L130.39875,38.31087207794192L130.61499999999998,37.73318803310397L130.83125,38.19641312956813L131.04749999999999,38.72882878780368L131.26375000000002,38.081110179424314L131.48,38.82229319214824L131.69625000000002,37.16202741861346L131.9125,36.771993100643186L132.12875,34.552180528640775L132.345,33.293817847967176L132.7775,35.17435050010684L132.99375,38.53334566950801L133.21,38.03432962298396L133.42625,38.19142824411395L133.6425,38.182645350694685L133.85875,37.920046508312254L134.07500000000002,36.4569782316685L134.5075,37.204544007778196L134.72375,38.35992968082431L134.94,32.991146504879026L135.15625,41.798428058624296L136.2375,38.3100192844868L136.45374999999999,37.32045358419421L136.88625,38.17712417244914L137.1025,37.26538246870044L137.31875,36.81035122275355L137.535,35.91643905639651L137.75125,36.489938259124784L137.9675,35.643466025590925L138.18375,38.42432877421382L138.4,36.00799566507342L138.61625,34.89607608318332L138.83249999999998,36.541501492261915L139.04875,34.12444746494296L139.265,37.64961427450183L139.48125000000002,38.17720329761508L139.6975,38.207974195480375L139.91375,40.830823987722425L140.13,35.82417032122615L140.34625,39.536934107542066L140.5625,38.25244253873828L140.77875,38.19628125429156L140.99499999999998,38.16137826442721L141.21125,36.90411454439166L141.64374999999998,36.88566958904269L141.85999999999999,36.293954014778166L142.07625000000002,37.69109344482425L142.29250000000002,37.42881110310557L142.50875,36.10560095310214L142.725,40.21966120600703L142.94125,37.97812438011172L143.1575,36.66475212574008L143.37375,36.803150832653074L143.59,36.5193464457989L143.80624999999998,38.952392548322706L144.0225,32.33094370365146L144.23875,38.496701925992994L144.455,35.928114414215116L144.67125,34.13975378870967L144.8875,34.87743771076205L145.10375000000002,37.6266240179539L145.32,36.209254920482664L145.53625,36.62388837337497L145.7525,36.608432590961485L146.185,35.988847374916105L146.40125,38.13302507996562L146.61749999999998,40.14128333330157L146.83375,36.571797639131574L147.05,35.50907632708552L147.26625,36.59451535344127L147.4825,34.997707962989836L147.69875,36.89069843292239L147.91500000000002,38.320112138986616L148.13125,39.626090586185484L148.3475,38.2544910013676L148.56375,38.193327248096494L148.78,36.55219218134883L148.99625,38.01616600155833L149.42874999999998,38.425568401813536L149.64499999999998,38.0342065393925L149.86125,35.15601983666423L150.07750000000001,39.314451724290876L150.29375,40.07924920320514L150.51,37.33043214678767L150.72625000000002,36.81569656729701L150.9425,34.12727838754657L151.15875,35.368013739585905L151.375,37.98761940002444L151.59124999999997,36.633919686079054L151.8075,36.885133296251325L152.02375,35.052365869283705L152.24,39.27764093875888L152.45624999999998,35.864075779914884L152.6725,37.48730218410495L153.105,39.61188322305682L153.32125,39.29279780387881L153.5375,34.55287507176402L153.75375,36.374863892793684L153.97,38.228555530309706L154.18625,34.747927397489576L154.40249999999997,38.31599763035777L154.61875,41.51139712333682L155.05125,39.27609360218051L155.48375,37.55397832393649L155.70000000000002,38.2060136497021L155.91625,37.13766565918925L156.1325,36.79439431428912L156.34875,35.08248618245128L156.565,37.68196767568591L156.78125,37.340419501066236L156.9975,40.430397897958784L157.21375,41.23330733180049L157.64625,38.47612938284877L157.8625,34.88371497392657L158.07874999999999,37.129823476076155L158.295,38.23725050687793L158.7275,35.60893228650096L158.94375,37.134570986032514L159.16,38.98615261912349L159.5925,37.364033967256574L159.80875,36.47626718878749L160.025,39.427125960588484L160.24124999999998,37.16019874811175L160.4575,40.26317125558856L160.67375,37.767677813768415L160.89,37.33027389645579L161.10625,35.498218595981626L161.32250000000002,37.60526022315028L161.53875,40.127911180257826L161.755,36.22024452686313L161.97125,38.01182290911677L162.18749999999997,41.33701404929164L162.40375,35.219926595687895L162.62,38.050875574350385L162.83625,35.19714733958247L163.485,33.495314478874235L163.70125,40.40942093729976L163.9175,35.70065593719485L164.13375,36.995398610830335L164.35000000000002,37.693423241376905L164.56625,41.71417734026912L164.7825,38.89138704538348L164.99875,38.25685596466067L165.215,35.09162953495982L165.43125,40.856653958559065L165.6475,38.86834403872493L165.86374999999998,34.44614401459697L166.08,38.515269964933424L166.29625000000001,39.0229985713959L166.72875,39.89175772666934L166.945,40.25817757844928L167.16125000000002,42.83385998010638L167.3775,35.334236085414915L167.59375,35.197613298893L167.81,34.093975484371214L168.02625,37.1206537485123L168.2425,40.82970744371417L168.45875,42.949602514505415L168.67499999999998,41.47199279069903L168.89124999999999,36.07435530424121L169.10750000000002,39.306723833084135L169.32375,34.24064716696742L169.54,38.66600340604785L169.75625,38.92518228292468L169.97250000000003,36.929170846939115L170.18875,40.64808881282809L170.405,36.52942171692851L170.62125,36.04533395171168L170.83749999999998,35.793988466262846L171.05375,36.89904174208644L171.27,38.51599088311198L171.7025,39.91771078109744L172.13500000000002,34.067380636930494L172.78375,37.76490843296054L173,39.670189678669004L173.21625,41.81022650003436L173.4325,36.43281868100169L173.64874999999998,38.76285260915759L173.865,38.68367469310763L174.08125,36.00139310956004L174.29749999999999,38.45897680521014L174.51375,38.03092724084857L174.73,32.17708921432498L174.94625000000002,36.18490195274356L175.1625,38.44920924305919L175.37875,35.07925084233287L175.595,38.52385944128039L176.0275,38.85111233592036L176.24375,35.17654842138293L176.45999999999998,35.64098677039149L176.67625,36.80670267343524L176.8925,35.97589722275737L177.10875000000001,39.836827278137235L177.325,39.53227451443675L177.54125,39.02255019545558L177.75750000000002,41.8956025540829L177.97375,39.33195596933368L178.19,40.53150227665904L178.40625,36.26175886392596L178.6225,34.02351012825969L179.055,37.86644360423091L179.27124999999998,36.527188628912L179.48749999999998,38.13109970092776L179.70375,39.16436007618907L179.92000000000002,38.78691545128825L180.3525,40.32147771120074L180.56875000000002,36.820672661066084L180.785,38.05608904361728L181.00125,36.355812311172514L181.2175,38.145808190107374L181.43374999999997,37.49815112352374L181.65,38.242657393217115L181.86625,40.559714794158964L182.0825,38.842347025871305L182.29874999999998,37.85899704694751L182.51500000000001,41.37885367870334L182.73125000000002,41.12614548206332L182.9475,41.846228450536756L183.16375,36.00628128647807L183.59625,38.761472314596205L183.8125,38.8576269745827L184.02875,38.71849855780604L184.24499999999998,40.295049905777006L184.46125,37.21534898877147L184.6775,40.363809674978285L184.89375,39.99123564362529L185.10999999999999,36.53829252719882L185.32625,38.23985284566882L185.54250000000002,41.86677461862567L185.75875,39.839543908834486L185.975,35.88567695021632L186.19125,38.99526959657672L186.4075,38.13332399725917L186.62375,38.71082341670993L186.84,40.00602325797084L187.05624999999998,39.23513314127925L187.2725,39.057848811149626L187.48875,40.87688362598422L187.705,35.62975099682811L187.92125,39.92453312873843L188.1375,42.29807710647586L188.35375000000002,36.97087860107425L188.57,37.35268390178683L188.78625,40.62821081280711L189.0025,41.57464450597766L189.21875000000003,37.90557539463046L189.435,36.14404699206355L189.8675,37.10092520713809L190.08374999999998,35.84214052557948L190.3,38.458844929933576L190.51625,38.1848960220814L190.7325,34.32105591893199L190.94875,37.769770234823255L191.16500000000002,39.485027998685865L191.38125,40.20917272567752L191.5975,39.61642852425578L191.81375,40.19954583048823L192.02999999999997,34.35409507155421L192.24625,38.31131166219714L192.4625,39.87163355946544L192.67875,37.22418463230136L192.89499999999998,34.3582974970341L193.11125,40.67313632369044L193.32750000000001,38.71174654364589L193.54375,37.25816449522975L193.76,35.26651373505595L193.97625,39.918361365795164L194.1925,34.950470238924055L194.40875,37.240976750850706L194.625,40.37524765729907L195.0575,36.4935868084431L195.27375,41.40125489234927L195.49,35.307518154382734L195.70624999999998,36.02418115735057L195.9225,36.351486802101164L196.13875000000002,39.45336914062503L196.355,36.7547174394131L196.57125,38.14390918612483L197.00375000000003,40.78425443172458L197.22,40.26201075315478L197.43625,36.96317708492282L197.6525,39.18663820624354L197.86875,37.532218903303175L198.085,37.91398024559024L198.30125,41.712542086839704L198.51749999999998,39.20469632744792L198.73375,38.58898824453357L198.95000000000002,35.00006413459781L199.16625,37.85771346092227L199.3825,35.891277253627806L199.59875,39.45134705305102L199.81500000000003,37.57507836818698L200.03125,38.25954622030261L200.2475,36.61461314558986L200.46375,38.9034931957722L200.67999999999998,37.47530153393748L200.89625,38.460172474384336L201.1125,39.6840629577637L201.32874999999999,39.01077812910083L201.545,39.766397088766126L201.76125000000002,41.22143855690959L201.97750000000002,38.22817748785022L202.19375,33.89192497730258L202.41,41.674078464508085L202.62625,39.64123865962031L202.8425,37.681088507175474L203.05875,40.855528622865705L203.275,40.595101326704054L203.7075,36.70661813020709L203.92375,36.41409239172938L204.14,38.932312339544325L204.35625,43.5907185673714L204.5725,36.24688333272937L204.78875000000002,38.54873991012576L205.005,40.3067076802254L205.4375,40.68424901366237L205.65375,38.802028357982664L205.87,35.17311966419223L206.08625,41.556366592645674L206.30249999999998,36.962544083595304L206.51875,40.20424938201907L206.735,37.658256500959425L206.95125,37.44831985235217L207.38375,38.53978118300441L207.60000000000002,40.287401139736204L207.81625,41.80678015947345L208.0325,38.530541121959715L208.24875,38.10263222455981L208.68125,37.038108617067365L208.8975,39.67392614483836L209.11374999999998,40.98933807015422L209.32999999999998,40.624131470918684L209.54625000000001,39.97104114294055L209.76250000000002,39.151497840881376L209.97875,40.75494295358661L210.41125000000002,35.69867780804637L210.6275,39.55855286121371L210.84375,39.443364202976255L211.06,39.66674333810809L211.27624999999998,34.51880729198459L211.4925,37.4248460531235L211.70875,39.042313903570204L211.92499999999998,39.47761660814288L212.14124999999999,40.57754433155063L212.35750000000002,36.54211691021922L212.57375000000002,41.20625531673434L212.79,39.31666722893718L213.00625,40.38842639327052L213.2225,39.38929533958438L213.43875,42.45851656794551L213.655,38.862242609262495L213.87125,38.03639566898349L214.08749999999998,40.39125731587413L214.30375,38.09276795387271L214.52,39.03277492523196L214.73625,37.97896838188174L214.9525,36.365993082523374L215.16875,39.014013469219236L215.38500000000002,39.87142255902293L215.60125,36.9420154988766L215.8175,41.24414747953418L216.03375,38.388432323932676L216.25,35.54493761062625L216.46625,38.54416823387149L216.6825,38.63420388102534L216.89874999999998,36.730285346508055L217.115,42.99151247739795L217.33125,38.49870643019679L217.5475,38.63992726802829L217.76375,43.45149344205859L217.98,37.21406540274623L218.19625000000002,40.974541664123564L218.4125,36.32468095421794L218.62875,39.170707672834425L218.845,41.032241493463545L219.06125,39.42536762356761L219.49375,40.45473328232768L219.70999999999998,38.998276352882414L219.92624999999998,37.82723268866542L220.1425,40.96622473001483L220.575,35.76637378335002L220.79125,35.330253452062635L221.00750000000002,35.94584724307063L221.22375,37.54960885643962L221.44,39.033566176891355L221.65625,43.805912643671064L221.87249999999997,34.285581469535856L222.08875,39.81725698709491L222.305,39.91749098896983L222.73749999999998,39.41687485575679L222.95375,37.89288020133975L223.17000000000002,39.1139221787453L223.38625,38.54916191101077L223.6025,35.716129302978544L223.81875,41.15092045068744L224.25125,42.16956904530528L224.4675,41.8915759623051L224.68374999999997,40.517892748117475L225.11625,41.110276490449934L225.3325,39.46731275320056L225.54874999999998,38.89641588926318L225.765,39.63933965563777L225.98125000000002,39.39810460805896L226.41375,39.918422907590895L226.63,38.29510858654979L226.84625,38.828667163848905L227.27875,40.48528438806537L227.495,39.750158846378355L227.71125,40.32302504777911L227.9275,41.10230243206027L228.14375,40.74336430430415L228.35999999999999,41.75299263000491L228.57625,39.81515577435496L228.79250000000002,36.23090884089473L229.00875,39.69863077998164L229.225,38.341273725032835L229.44125,42.15503638982776L229.65750000000003,36.7251510024071L229.87375,35.14875790476802L230.09,41.536189675331144L230.30625,39.01772356033328L230.52249999999998,36.758673697710066L230.73875,41.9010358154774L231.17125,38.6127873361111L231.3875,35.916421473026304L231.60375000000002,38.99199029803279L231.82,40.31690603494647L232.2525,39.72532233595851L232.46874999999997,38.10122555494311L232.685,39.79271939396861L232.90125,41.95114842057231L233.1175,38.22460806369784L233.33374999999998,38.046286314725904L233.55,42.79142251610759L233.76625,38.30811148881915L233.9825,40.83887717127803L234.19875,35.42652240395549L234.415,41.23196220397952L234.63125000000002,40.251715689897566L234.8475,36.842783749103575L235.06375,37.47398278117183L235.28,41.42839482426646L235.49625,36.855118483305006L235.7125,40.84642922878268L235.92875,38.323910146951704L236.14499999999998,38.50125601887706L236.36125,35.25827592611316L236.57750000000001,37.860561966896086L237.01,41.781046897172956L237.22625,42.86457812786105L237.65875,39.18806245923045L237.875,38.01984092593196L238.09125,37.4932365715504L238.3075,37.106727719306974L238.52375,39.5273511707783L238.74,39.73728781938556L238.95624999999998,38.458080053329496L239.38875000000002,37.41516640782359L239.605,41.029507279396086L239.82125,38.36552119255069L240.25375000000003,38.72257789969447L240.47,38.59963497519496L240.68625,39.79860982298854L240.9025,39.99598315358165L241.335,36.89872524142268L241.55125,37.93514183163646L241.76749999999998,37.59457832574847L241.98375,39.016061931848554L242.20000000000002,38.79026508331302L242.41625000000002,38.755661010742216L242.6325,40.049208015203504L242.84875,37.35345757007602L243.065,42.17425501346591L243.28125,38.987638413906126L243.4975,36.75063809752467L243.71375,35.82833757996562L243.92999999999998,41.22196605801585L244.14625,35.58369135856631L244.3625,40.1554203629494L244.57874999999999,37.906551271677046L244.795,39.40984150767329L245.01125,38.22088038921359L245.22750000000002,36.42402699589732L245.44375,39.681355118751554L245.66,41.729342997074156L245.87625,38.17166453599933L246.0925,37.74475789070132L246.30875,34.669830858707456L246.525,41.55549621582034L246.74124999999998,38.37240508198741L246.9575,40.99396249651912L247.17375,40.24605384469035L247.39000000000001,39.00693616271022L247.60625,36.334008932113676L248.03875000000002,39.54985788464549L248.255,37.36479005217555L248.47125,37.42999798059466L248.6875,39.221444487571745L248.90375,41.381948351860075L249.12,37.845071017742185L249.55249999999998,36.79592406749728L249.76874999999998,43.06231191754344L249.985,38.733813673257856L250.20125000000002,39.01593005657199L250.4175,38.79461696743968L251.06625,39.31471547484401L251.2825,37.563482135534315L251.49875,38.87393555045131L251.71499999999997,40.382940381765394L251.93125,42.159317940473585L252.1475,41.20472556352618L252.36375,38.26445198059085L252.57999999999998,39.953448981046705L252.79625000000001,38.9559971392155L253.01250000000002,39.36963713169101L253.22875,38.91152000427249L253.445,40.908779859542875L253.66125,39.32644358277324L253.8775,41.119595676660566L254.09375,41.00148817896846L254.31,41.309865325689344L254.52624999999998,42.662079244852094L254.7425,40.833698868751554L254.95875,37.18264392018321L255.175,38.68121302127841L255.39124999999999,39.28979983925822L255.6075,38.574578672647505L255.82375000000002,42.0464942455292L256.04,40.63133186101916L256.25625,39.42763587832454L256.47249999999997,39.03021654486659L256.90500000000003,34.79900708794597L257.3375,40.34386134147647L257.55375000000004,39.76062974333766L257.77,38.78823420405391L257.98625,40.478523582220106L258.2025,41.39974272251132L258.635,37.45994246006015L258.85125,41.90005114674571L259.0675,40.2252263426781L259.28375,39.71393710374835L259.5,40.480774253606825" style="fill: none;" fill="none"></path></g><g><path stroke="rgb(0, 153, 136)" stroke-width="2px" d="M21.625,-119.83960384130478L23.7875,52.851079612970366L25.950000000000003,76.4249106347561L28.1125,82.00871205329898L30.275000000000002,84.60417574644092L32.4375,87.50356799364091L34.6,90.26009975373746L36.7625,85.68038350343707L38.925000000000004,88.55106650292875L41.087500000000006,84.09541851282121L43.25,89.19598056375982L45.4125,93.41390578448774L47.575,89.59854742884637L49.737500000000004,87.49908423423769L51.900000000000006,93.43243865668775L54.0625,86.74765890836717L56.225,86.58250710368158L58.3875,87.86829105019571L60.550000000000004,93.12054923176767L62.712500000000006,91.43462492525579L64.875,94.90839554369451L67.03750000000001,90.42646041512491L69.2,91.84750883281232L71.3625,91.22258706390859L73.525,86.73388233780864L75.6875,86.4063041508198L77.85000000000001,83.83924639225009L80.0125,92.66921928524972L82.17500000000001,94.94433155655862L84.33749999999999,91.5242605507374L86.5,94.56191962957384L88.6625,92.67825713753702L90.825,92.74022972583772L92.9875,93.89920680224897L95.15,94.37918005883695L97.3125,93.10674189031126L99.47500000000001,92.09632670879365L101.6375,91.16555100679399L103.80000000000001,94.63970406353475L105.96249999999999,93.60123021900655L108.125,94.18804882466794L110.2875,92.54348939657213L112.45,95.13098342716695L114.6125,93.76580616831781L116.775,94.15964728593828L118.9375,86.76182231307031L121.10000000000001,83.94629395008089L123.2625,92.4682897180319L125.42500000000001,93.34890885651113L127.5875,91.54829262197019L129.75,86.4153683781624L130.1825,92.3065578788519L130.61499999999998,90.04688820242883L131.04749999999999,89.45602981746198L131.48,95.33371528983118L131.9125,95.99189160764219L132.345,93.54784271121027L132.7775,94.11682298779489L133.21,89.21651794016363L133.6425,92.96365281939508L134.07500000000002,98.00607106089593L134.5075,96.47878392040731L134.94,93.80379503965379L135.3725,90.56211172044279L135.805,92.64158262312414L136.2375,93.76063665747644L136.67,94.21095116436483L137.1025,89.35099555552007L137.535,90.19456653296949L137.9675,92.50422573089601L138.4,92.75381287932397L138.83249999999998,95.5790868252516L139.265,89.81066441535951L139.6975,84.19040387868884L140.13,91.67118719220163L140.5625,91.85185192525388L140.99499999999998,95.23462420701982L141.4275,89.38750742375852L141.85999999999999,87.28412753343584L142.29250000000002,93.96564117074014L142.725,90.39243219792844L143.1575,92.33686721324922L143.59,93.55322761833669L144.0225,93.37073421478273L144.455,92.16505131125452L144.8875,89.76555867493154L145.32,85.23657923936845L145.7525,90.4778434187174L146.185,95.23329226672651L146.61749999999998,94.92407551407815L147.05,91.76049312949182L147.4825,93.65451222658159L147.91500000000002,93.50903621315958L148.3475,94.59663359820844L148.78,91.66037341952325L149.2125,89.97134125232698L149.64499999999998,91.27476131916048L150.07750000000001,91.91593012213708L150.51,90.26103167235853L150.9425,92.3407399505377L151.375,86.92410802841188L151.8075,91.51710411906244L152.24,95.21312414109708L152.6725,93.55400128662588L153.105,93.81473189592363L153.5375,83.20271959900857L153.97,83.2488495707512L154.40249999999997,89.23087476193906L154.835,90.93094928562643L155.26749999999998,95.8909366875887L155.70000000000002,92.76226608455183L156.1325,88.69398853182794L156.565,92.26175984740259L156.9975,94.82212713360788L157.43,84.98271054029468L157.8625,88.36460804939271L158.295,89.56749519705774L158.7275,88.42756530642511L159.16,92.2154144793749L159.5925,96.2700473368168L160.025,94.61764572560789L160.4575,97.13673605024816L160.89,94.10674332082273L161.32250000000002,88.487700432539L161.755,94.34667280316354L162.18749999999997,85.95883375406267L162.62,94.83209690451623L163.05249999999998,89.40870857238771L163.485,95.92354504764081L163.9175,90.53184634447099L164.35000000000002,94.8580719381571L164.7825,85.83291044831279L165.215,87.80735588073732L165.6475,93.70062021911146L166.08,89.93665365874769L166.5125,90.2313025891781L166.945,89.93822297453882L167.3775,97.81570909917356L167.81,95.60005939006807L168.2425,93.46864281594755L168.67499999999998,80.40552189946176L169.10750000000002,94.19543384015562L169.54,87.53192996978761L169.97250000000003,87.58893525600436L170.405,92.97382040321828L170.83749999999998,92.71666800975801L171.27,93.51494862139226L171.7025,92.2621906399727L172.13500000000002,92.98327586054803L172.5675,94.43429513275625L173,93.83133059740068L173.4325,94.21808122098447L173.865,86.84689944982532L174.29749999999999,93.58278086781503L174.73,92.24916136264802L175.1625,90.643122702837L175.595,94.65095742046834L176.0275,93.07085423171522L176.45999999999998,95.43472295999528L176.8925,89.49392198026182L177.325,92.116741001606L177.75750000000002,90.38333719968797L178.19,88.7128115296364L178.6225,93.03045204281808L179.055,98.48797848820688L179.48749999999998,92.98019437491895L179.92000000000002,91.5882552266121L180.3525,87.30133286118509L180.785,94.89996431767942L181.2175,94.36911357939245L181.65,91.96286453306676L182.0825,92.30432918667795L182.51500000000001,92.13791577517988L182.9475,95.48998749256135L183.38,90.80815581977369L183.8125,87.92624583840373L184.24499999999998,95.90529350936414L184.6775,81.10251790285113L185.10999999999999,93.44977146387102L185.54250000000002,95.35125030577184L185.975,89.0904407799244L186.4075,91.80189757049085L186.84,86.67318454384805L187.2725,92.23126149177553L187.705,92.67233593761922L188.1375,83.21720829606058L188.57,91.92719227075578L189.0025,97.01796917617322L189.435,94.68072606623174L189.8675,97.6622018814087L190.3,87.27123892307283L190.7325,81.41224896907808L191.16500000000002,86.60168176889421L191.5975,93.50296555459501L192.02999999999997,92.34675785899164L192.4625,91.99841810762884L192.89499999999998,92.59217335283758L193.32750000000001,89.28409962356092L193.76,89.26878890395166L194.1925,94.99629920721055L194.625,97.60677030682565L195.0575,91.30466623604299L195.49,85.8132522404194L195.9225,93.76345439255239L196.355,97.33698865771295L196.7875,96.07512249052526L197.22,87.1450342833996L197.6525,95.75357539951803L198.085,80.90018606185915L198.51749999999998,92.73225566744806L198.95000000000002,87.1711895465851L199.3825,95.01743881404401L199.81500000000003,96.67006461322309L200.2475,86.78021451830865L200.67999999999998,93.98937872052194L201.1125,89.7432409822941L201.545,92.4380243420601L201.97750000000002,90.68527883291246L202.41,93.78622046113016L202.8425,96.66558524966241L203.275,90.61198695003988L203.7075,91.66480442881586L204.14,89.0120673030615L204.5725,97.18243522942068L205.005,97.16119451820852L205.4375,91.57916902005674L205.87,95.8135742545128L206.30249999999998,94.7239020317793L206.735,93.7158957719803L207.1675,85.71475899219514L207.60000000000002,94.17466348409654L208.0325,89.63610550761224L208.465,93.04690568149091L208.8975,91.38708828389646L209.32999999999998,95.56675648689271L209.76250000000002,92.23938500881196L210.195,90.75087799131872L210.6275,89.70178818702699L211.06,93.37778954207899L211.4925,92.13780148327352L211.92499999999998,96.12255363166334L212.35750000000002,94.20558384060861L212.79,94.0144350230694L213.2225,91.84762312471868L213.655,93.14165806770326L214.08749999999998,95.0037325769663L214.52,98.75950968265535L214.9525,94.58732759952547L215.38500000000002,85.1377079486847L215.8175,92.1691526323557L216.25,93.82972611486913L216.6825,84.62085357308389L217.115,96.43821029365064L217.5475,93.62831300497056L217.98,88.35363602638246L218.4125,90.70299847424032L218.845,94.64287346601488L219.2775,79.69989246129992L219.70999999999998,95.10593152046205L220.1425,96.49410782754423L220.575,92.50958426296712L221.00750000000002,92.9065596163273L221.44,90.53876540064813L221.87249999999997,86.9848673641682L222.305,92.92572988569738L222.73749999999998,94.53257298469545L223.17000000000002,93.37123534083368L223.6025,95.00721408426763L224.035,93.22142063081266L224.4675,88.6761106401682L224.9,90.67261880636217L225.3325,93.16831006109716L225.765,92.42877988517286L226.1975,97.47867545485498L226.63,88.20783472061159L227.0625,81.4716543853283L227.495,92.95274233818056L227.9275,86.41378587484361L228.35999999999999,90.25509288907053L228.79250000000002,96.06187342107297L229.225,96.41879825294019L229.65750000000003,93.24547468125822L230.09,96.2834326773882L230.52249999999998,91.8258329331875L230.955,96.15910945832731L231.3875,88.23188877105714L231.82,79.98969277739526L232.2525,97.30437590181829L232.685,95.6986009925604L233.1175,95.1162793338299L233.55,92.308755800128L233.9825,88.73718647658826L234.415,93.93562635779382L234.8475,95.04250830411912L235.28,89.06452728807928L235.7125,87.85114726424219L236.14499999999998,94.66996943950654L236.57750000000001,92.34047180414201L237.01,89.23917850852014L237.44250000000002,84.3054167032242L237.875,97.38487696647645L238.09125,93.10082948207857L238.3075,91.29154025018217L238.52375,92.83246769011022L238.74,92.42812930047513L238.95624999999998,93.87059865891935L239.17249999999999,91.8704946935177L239.38875000000002,92.56915232539178L239.605,85.22367304563525L239.82125,90.93676938116552L240.0375,93.04560011625291L240.25375000000003,89.32453697919847L240.47,92.5436300635338L240.68625,89.72812807559968L240.9025,89.61188001930715L241.11874999999998,93.57549695670606L241.335,95.4730854779482L241.55125,88.05469235777858L241.76749999999998,88.92396143078805L241.98375,94.70622634887697L242.20000000000002,96.17036721110345L242.41625000000002,94.97412657737733L242.6325,95.13697496056558L242.84875,95.38190691173078L243.065,92.95058397948743L243.28125,94.69284100830556L243.4975,95.66612890362741L243.71375,97.10898070037366L243.92999999999998,90.08310554921628L244.14625,93.32856489717962L244.3625,94.50397363305093L244.57874999999999,88.00552925467494L244.795,90.21590834856035L245.01125,94.37002351880075L245.22750000000002,91.56657053530218L245.44375,92.46221026778223L245.66,88.901129424572L245.87625,96.27304969727994L246.0925,94.1678543239832L246.30875,94.44216808676721L246.525,91.81732697784902L246.74124999999998,93.89404168725015L246.9575,89.59930351376535L247.17375,95.922296628356L247.39000000000001,95.09906521439554L247.60625,91.03147780895235L247.8225,92.80137149989606L248.03875000000002,91.4089092463255L248.255,94.30908395349981L248.47125,87.0026001930237L248.6875,89.33989165723325L248.90375,93.03156858682634L249.12,89.89741636812688L249.33625,92.54096178710462L249.55249999999998,92.86578817665578L249.76874999999998,78.29976385831834L249.985,92.31174057722093L250.20125000000002,94.17399971187116L250.4175,95.40331466495992L250.63375,94.82174029946329L250.85000000000002,94.70135575532915L251.06625,95.93942722678186L251.2825,96.35643003880979L251.49875,94.38031418621541L251.71499999999997,94.0786143243313L251.93125,93.27688737213613L252.1475,93.89905294775964L252.36375,91.87886437773706L252.57999999999998,89.2255294173956L252.79625000000001,96.66743589937688L253.01250000000002,92.48713909089567L253.22875,90.18638147413732L253.445,87.40216469764711L253.66125,95.63692292571069L253.8775,97.80990219116212L254.09375,91.36426067352296L254.31,93.87361420691015L254.52624999999998,93.29930616915227L254.7425,89.00028204917909L254.95875,87.69600918889047L255.175,89.24172370135786L255.39124999999999,93.66084223985673L255.6075,97.02221995592119L255.82375000000002,91.50637386739255L256.04,94.91387276351453L256.25625,93.43412666022779L256.47249999999997,95.7064519673586L256.68875,89.21787625551225L256.90500000000003,89.48718754947187L257.12125,94.71295638382436L257.3375,92.33912228047849L257.55375000000004,93.9416047036648L257.77,95.59519758820535L257.98625,96.07663905620576L258.2025,92.5830607712269L258.41875,92.6377890110016L258.635,91.45583926141263L258.85125,95.91573803126813L259.0675,90.9043456465006L259.28375,87.64282828569414L259.5,94.23893949389459" style="fill: none;" fill="none"></path></g><g><path stroke="rgb(0, 119, 187)" stroke-width="2px" d="M21.625,-189.34548819065088L23.7875,70.8516768217087L25.950000000000003,113.79797717928886L28.1125,127.64512518793344L30.275000000000002,134.03695280104876L32.4375,138.71554473787546L34.6,139.54384016245604L36.7625,143.22929038107395L38.925000000000004,141.6233374401927L41.087500000000006,145.45023708045483L43.25,146.17791936174035L45.4125,146.12525167316198L47.575,145.73061380907893L49.737500000000004,148.05005595460534L51.900000000000006,148.2173441387713L54.0625,148.3226784169674L56.225,148.2796837799251L58.3875,148.73241380229592L60.550000000000004,148.21246914938092L62.712500000000006,150.329644292593L64.875,149.18236015737057L67.03750000000001,150.09883618354797L69.2,150.8113539069891L71.3625,149.44194125384092L73.525,149.37574096396565L75.6875,150.76542504504323L77.85000000000001,150.8366596736014L80.0125,151.48658499494195L82.17500000000001,151.65545238554478L84.33749999999999,150.77387825027108L86.5,151.1417564228177L88.6625,151.4460377432406L90.825,152.33695743978024L92.9875,150.9811993725598L95.15,152.62771275267005L97.3125,150.9942759051919L99.47500000000001,152.09916653484106L101.6375,151.14817655086517L103.80000000000001,152.33982023224235L105.96249999999999,150.51595548540354L108.125,151.2791847474873L110.2875,152.3292438350618L112.45,151.26194535195827L114.6125,152.6146263293922L116.775,153.55558335222304L118.9375,152.76318822428584L121.10000000000001,152.5945461206138L123.2625,152.04470644146204L125.42500000000001,150.35936238616705L127.5875,152.68639834970236L129.75,152.66002659127116L130.1825,152.37559140101075L130.61499999999998,152.09388383105397L131.04749999999999,151.677382145077L131.48,153.0626099407673L131.9125,152.6831729002297L132.345,151.90237125754356L132.7775,151.97723795101047L133.21,153.59998575784266L133.6425,153.09215439856052L134.07500000000002,152.0710628144443L134.5075,152.86640590429306L134.94,152.89545033499599L135.3725,150.6346014738083L135.805,152.60939197987318L136.2375,152.52456540614367L136.67,153.3331806436181L137.1025,150.920599386096L137.535,151.69768104702234L137.9675,153.01630413532257L138.4,152.20838563889265L138.83249999999998,152.56518518924713L139.265,152.56471483409405L139.6975,150.79253420606256L140.13,152.3893767632544L140.5625,151.36372119560838L140.99499999999998,153.2394926007837L141.4275,151.35801649093628L141.85999999999999,152.27109562978148L142.29250000000002,153.0725203678012L142.725,152.98634756729007L143.1575,152.17748506367207L143.59,152.18403267115355L144.0225,152.7494808882475L144.455,152.68571259826422L144.8875,152.2520781159401L145.32,152.2416709586978L145.7525,152.3063590787351L146.185,151.20546536892653L146.61749999999998,153.11993612349033L147.05,152.61254160106182L147.4825,153.2283628769219L147.91500000000002,152.4132901467383L148.3475,152.98388589546084L148.78,152.4804531261325L149.2125,154.10257232747972L149.64499999999998,153.01748881489038L150.07750000000001,152.47003717720509L150.51,152.4224961400032L150.9425,152.97316443547606L151.375,152.67650990188122L151.8075,152.26863066107035L152.24,152.75501964986324L152.6725,152.23884992673993L153.105,153.74151265621185L153.5375,152.83933740481734L153.97,153.1879529953003L154.40249999999997,152.51356481015682L154.835,152.7236926779151L155.26749999999998,153.1462985407561L155.70000000000002,152.54446868225932L156.1325,152.82625317946076L156.565,152.31494745612144L156.9975,151.34939954057336L157.43,153.40202338434756L157.8625,153.61363704688847L158.295,151.83793699741364L158.7275,152.06682632118464L159.16,152.4033599384129L159.5925,153.04008674249053L160.025,153.07175768911839L160.4575,153.5890225265175L160.89,152.09841594472528L161.32250000000002,152.1674603447318L161.755,152.26648548990488L162.18749999999997,153.6606308016926L162.62,152.7144207470119L163.05249999999998,153.16315330006182L163.485,152.07507951557636L163.9175,151.7201119326055L164.35000000000002,151.42059240862727L164.7825,153.4230470508337L165.215,153.1087684854865L165.6475,152.34908117353916L166.08,152.36964492499828L166.5125,151.6199537590146L166.945,153.8806146979332L167.3775,152.9339974783361L167.81,153.06760966219008L168.2425,152.4071436598897L168.67499999999998,152.95442166179419L169.10750000000002,153.3449796345085L169.54,153.39123763516545L169.97250000000003,151.96153819933534L170.405,152.15711802616715L170.83749999999998,154.09179536998272L171.27,153.7711933851242L171.7025,153.5387714523822L172.13500000000002,153.9228702839464L172.5675,152.99336223304272L173,153.55155456252396L173.4325,151.9079067222774L173.865,153.10177909582853L174.29749999999999,153.7045793365687L174.73,153.0623961929232L175.1625,153.10675409063697L175.595,152.16666689515114L176.0275,152.64599945768714L176.45999999999998,153.2052638232708L176.8925,152.51546930894256L177.325,153.18274886719882L177.75750000000002,154.0431037209928L178.19,153.8278222773224L178.6225,152.38841956853867L179.055,152.49744195863605L179.48749999999998,154.1108584906906L179.92000000000002,152.40997568145394L180.3525,154.1566615216434L180.785,154.04251962341368L181.2175,152.5418630465865L181.65,152.03028697893023L182.0825,151.64412869513035L182.51500000000001,153.25246967747808L182.9475,153.3724866192788L183.38,153.22219166345894L183.8125,153.66573877073824L184.24499999999998,152.6414750367403L184.6775,153.36480982974172L185.10999999999999,153.74048457853496L185.54250000000002,154.4710236079991L185.975,153.04136318527162L186.4075,153.42756927385926L186.84,152.3672656752169L187.2725,152.91293919458985L187.705,153.6672773156315L188.1375,151.58042084798217L188.57,153.82042682170868L189.0025,153.46408828534186L189.435,153.65931809321046L189.8675,152.70339597389102L190.3,152.24641187489033L190.7325,152.89008301123977L191.16500000000002,153.42888857610524L191.5975,152.56956234946847L192.02999999999997,152.33133625611663L192.4625,153.38368447870016L192.89499999999998,152.575724221766L193.32750000000001,153.0431764703244L193.76,153.19943328760564L194.1925,153.35482742078602L194.625,153.87593037821352L195.0575,153.62901809997857L195.49,152.99915815144777L195.9225,153.23713313229382L196.355,153.46720273979008L196.7875,152.44776014611125L197.22,153.92547921650112L197.6525,151.306599419564L198.085,153.93787384405732L198.51749999999998,153.6399115473032L198.95000000000002,153.77770197950304L199.3825,153.01056756079197L199.81500000000003,152.6851982846856L200.2475,152.6233180090785L200.67999999999998,152.2358277849853L201.1125,153.73830314166844L201.545,153.07815968431532L201.97750000000002,153.66449199989438L202.41,154.31338374875486L202.8425,154.2601935043931L203.275,153.03030269593L203.7075,153.21280214376748L204.14,153.29714132845402L204.5725,151.3733118250966L205.005,152.3066590949893L205.4375,153.78180769644678L205.87,152.61281634122133L206.30249999999998,152.2503681331873L206.735,154.56820030137897L207.1675,152.89390080049634L207.60000000000002,152.76452016457915L208.0325,154.1095935869962L208.465,152.63241850212216L208.8975,153.7145617455244L209.32999999999998,153.640917096287L209.76250000000002,153.49805935658514L210.195,153.86911187693477L210.6275,153.66044507734478L211.06,154.01095692440867L211.4925,152.94566624239087L211.92499999999998,153.16034875251353L212.35750000000002,153.49943800270557L212.79,153.18095206655562L213.2225,153.67816581763327L213.655,153.48400090262294L214.08749999999998,152.14084461703897L214.52,152.6374978981912L214.9525,152.22587010264397L215.38500000000002,153.61499756015837L215.8175,152.51087015867233L216.25,153.80815912410617L216.6825,153.6128952484578L217.115,152.98343861848116L217.5475,154.2543843984604L217.98,151.85733585059643L218.4125,153.48549493961036L218.845,153.20380879938602L219.2775,153.24820186384022L219.70999999999998,153.36323556862772L220.1425,152.5606288984418L220.575,153.69511728547513L221.00750000000002,151.17861776053905L221.44,152.78452784195542L221.87249999999997,151.4241431504488L222.305,152.3864040747285L222.73749999999998,154.06412189267576L223.17000000000002,153.36580054275692L223.6025,153.85841019824147L224.035,153.00314847752452L224.4675,153.6776322722435L224.9,152.51387801393867L225.3325,154.0696084536612L225.765,152.6815530322492L226.1975,152.44438633695245L226.63,153.08396879024804L227.0625,153.41612140089273L227.495,153.10418472066522L227.9275,152.91911095753312L228.35999999999999,153.42736871354282L228.79250000000002,153.05657994374633L229.225,152.5112558938563L229.65750000000003,152.21623991057277L230.09,152.89464040100574L230.52249999999998,154.1207573786378L230.955,153.66750480048358L231.3875,153.3909387178719L231.82,152.65201736614108L232.2525,152.3640479184687L232.685,151.01679580658674L233.1175,152.35056806728244L233.55,154.25208702124655L233.9825,153.0423588436097L234.415,154.0087826307863L234.8475,153.97563248313963L235.28,153.16845193877816L235.7125,153.43404984474182L236.14499999999998,151.64174944534898L236.57750000000001,153.5952552817762L237.01,151.6838868930936L237.44250000000002,154.10077442787588L237.875,153.4046735279262L238.09125,154.0720234196633L238.3075,153.32728911563754L238.52375,152.7725227959454L238.74,153.50229365192354L238.95624999999998,152.90162539482117L239.17249999999999,153.69990710541606L239.38875000000002,153.94145865365863L239.605,154.030757997185L239.82125,151.44131001457572L240.0375,152.64489610120654L240.25375000000003,152.8673894740641L240.47,152.2049788609147L240.68625,153.34425541944802L240.9025,154.02260755561292L241.11874999999998,153.1756825502962L241.335,153.2683595493436L241.55125,152.98727948591113L241.76749999999998,153.55239966325462L241.98375,152.73239095136523L242.20000000000002,153.63171549886465L242.41625000000002,153.14123398065567L242.6325,152.51292521506548L242.84875,152.38766018673778L243.065,152.84949949383736L243.28125,153.6086202915758L243.4975,152.34750965982676L243.71375,152.8057575635612L243.92999999999998,153.3711151164025L244.14625,151.20648630335927L244.3625,154.23771975934505L244.57874999999999,153.48220245353878L244.795,151.75222685933113L245.01125,153.70116871222854L245.22750000000002,152.99378203600645L245.44375,153.28479010984302L245.66,153.25922718644142L245.87625,152.77399650216103L246.0925,153.44018534198403L246.30875,153.14264669455588L246.525,151.50003187730908L246.74124999999998,153.71594313904643L246.9575,153.44896603748202L247.17375,154.06780450977385L247.39000000000001,153.977985907346L247.60625,152.14838788285851L247.8225,152.96771578863263L248.03875000000002,152.5955219976604L248.255,153.3729404900223L248.47125,153.61388706043363L248.6875,153.15023227036L248.90375,153.24906070157886L249.12,153.41479385644197L249.33625,152.03952264413238L249.55249999999998,152.60786222666502L249.76874999999998,152.84362994506955L249.985,153.65750975348055L250.20125000000002,152.83980006724596L250.4175,153.59336451999843L250.63375,154.0061945784837L250.85000000000002,153.13881187140942L251.06625,152.9404044188559L251.2825,153.6564217824489L251.49875,152.66709730401635L251.71499999999997,153.0278212428093L251.93125,153.53178590908647L252.1475,152.85434700921178L252.36375,153.81628703698516L252.57999999999998,153.37426583655179L252.79625000000001,150.8074372112751L253.01250000000002,153.7367393206805L253.22875,153.44479877874255L253.445,154.04185749962926L253.66125,153.3775017261505L253.8775,152.86828842386603L254.09375,154.49692116491497L254.31,153.6145332492888L254.52624999999998,154.08945183642209L254.7425,153.6470058877021L254.95875,152.9960942491889L255.175,151.9226756542921L255.39124999999999,153.63505469076335L255.6075,152.36545898392797L255.82375000000002,153.38018538802862L256.04,153.9842856992036L256.25625,153.92119436897337L256.47249999999997,153.4804468639195L256.68875,153.4670703150332L256.90500000000003,152.6628641076386L257.12125,153.1125785820186L257.3375,154.67854199372232L257.55375000000004,153.53099960274994L257.77,153.72386774420738L257.98625,152.70686209574342L258.2025,153.92024266906083L258.41875,153.68903179094195L258.635,153.68502772785723L258.85125,152.9128831475973L259.0675,153.07966910675168L259.28375,152.9715511612594L259.5,153.39046561531723" style="fill: none;" fill="none"></path></g><g><path stroke="rgb(238, 51, 119)" stroke-width="2px" d="M22.490000000000002,-10.27678006887436L22.9225,16.814015120267868L23.355,39.445333540439634L23.7875,53.36983299255374L24.22,59.43439891934396L24.6525,74.20486947894098L25.084999999999997,78.13600113987924L25.5175,82.37717157602313L25.950000000000003,85.78577822446826L26.3825,90.05969329178335L26.815,90.50842529535295L27.2475,92.02005444467069L27.68,94.91933239996435L28.1125,93.92482137680055L28.544999999999998,97.22282423079015L28.9775,96.10149314999582L29.41,95.59940440952779L29.8425,97.8288614600897L30.275000000000002,98.57709100842477L30.7075,99.24217759072782L31.14,100.38270531594755L31.572499999999998,101.60873657464983L32.005,100.21175979077817L32.4375,101.90219862759115L32.87,102.09893016517164L33.3025,101.06007827818395L33.735,101.48432104289533L34.1675,101.67047178745271L34.6,101.7627844810486L35.0325,101.03266580402853L35.464999999999996,102.65351405739786L35.8975,102.29554301500322L36.33,103.57063627243043L36.7625,104.69547963142396L37.195,103.70204558968545L37.6275,104.4868397563696L38.06,104.71427185833456L38.4925,104.33019830286504L38.925000000000004,102.2265019118786L39.3575,104.58402743935586L39.79,103.90360376238824L40.2225,105.49833191931249L40.655,102.20136208832265L41.087500000000006,105.41445484757425L41.52,104.95619705319406L41.9525,104.56760896742345L42.385,103.93091513216497L42.8175,103.52464257180692L43.25,105.56141225993635L43.6825,106.28925389051439L44.114999999999995,106.3824105858803L44.5475,105.4393001496792L44.980000000000004,105.5611221343279L45.4125,104.72636042535306L45.845,105.18964706361295L46.277499999999996,104.71630273759367L46.71,104.46740134060384L47.1425,106.60964047908784L47.575,105.5283203572035L48.00749999999999,105.19923879206182L48.44,106.29910936951639L48.8725,107.09174132347108L49.305,106.28002701699735L49.737500000000004,107.31419293582441L50.169999999999995,105.00859989225866L50.6025,104.69566865265371L51.035,107.04841589927675L51.4675,103.60381609201433L51.900000000000006,107.53696104884149L52.332499999999996,106.5376409739256L52.765,107.35263018310071L53.1975,106.30561521649362L53.63,105.57649879157545L54.0625,106.02998709678651L54.495,107.01309090852739L54.927499999999995,106.12666486203672L55.36,107.54741875827314L55.792500000000004,107.7050536721945L56.225,107.02098584175111L56.6575,106.99736697971822L57.089999999999996,106.74840404093267L57.5225,107.37056082487108L57.955,107.20500020682813L58.3875,106.35072095692159L58.82,107.77159793674947L59.2525,108.39443607628347L59.685,105.8974744230509L60.1175,106.28616800904275L60.550000000000004,106.45793555676939L60.982499999999995,105.02322925627233L61.415,105.32261250913145L61.847500000000004,107.68061278760435L62.28,107.2575437128544L62.712500000000006,106.94297721982004L63.144999999999996,108.03816622495653L63.5775,106.2263054251671L64.01,106.97795054316522L64.4425,108.11413078010084L64.875,106.56352369487287L65.30749999999999,106.74699737131597L65.74,106.59231646358968L66.1725,108.45292276144029L66.605,108.67795473337175L67.03750000000001,107.65023751556875L67.47,108.24383890628816L67.9025,107.33114330470563L68.335,107.39859311282636L68.7675,107.2585635483265L69.2,108.64182530343534L69.6325,107.61806873977186L70.065,107.33899867534639L70.49749999999999,107.69127710163595L70.92999999999999,108.0104416459799L71.3625,106.41739709675313L71.795,106.78081458806993L72.2275,109.00859682261945L72.66,108.41339534521104L73.0925,107.73163533210756L73.525,107.46241635084154L73.95750000000001,108.95485325157644L74.39,107.00782468914987L74.82249999999999,107.7426732927561L75.255,109.53311754763128L75.6875,108.58059561252595L76.12,106.66834256052972L76.5525,106.73418349027635L76.985,108.50204630196096L77.4175,108.32482790946962L77.85000000000001,107.5671692788601L78.2825,107.50470875203611L78.715,107.46459668874742L79.1475,108.27434165775777L79.58,106.93371078372003L80.0125,108.23366253077985L80.445,108.14445769786836L80.8775,108.5015188008547L81.31,109.06625269353391L81.7425,109.28927576541902L82.17500000000001,109.19452777504922L82.6075,108.49800212681295L83.04,109.08909788727762L83.4725,107.63407400250436L83.905,108.48369365930559L84.33749999999999,106.76674349606039L84.77,109.5704866051674L85.2025,108.58001536130907L85.635,108.27772645652296L86.06750000000001,108.80833981931211L86.5,108.98468343913557L86.9325,109.83020617067815L87.365,106.20221181213857L87.7975,106.30281066894533L88.22999999999999,108.77482591569425L88.6625,107.5117245167494L89.095,109.34028512239458L89.5275,109.00498783588411L89.96000000000001,108.03148894011976L90.3925,107.38936623930933L90.825,107.88914716243745L91.25750000000001,107.40516050159933L91.69,108.15406261384489L92.12249999999999,109.02265472710134L92.55499999999999,108.22956120967866L92.9875,106.46908341348173L93.42,107.48278668522836L93.8525,107.08618497848512L94.285,107.24748162925245L94.7175,107.22235938906671L95.15,108.95653246343137L95.58250000000001,107.77082866430284L96.01499999999999,109.42942841351034L96.44749999999999,109.82417507469656L96.88,107.74193039536478L97.3125,107.76732517778875L97.745,108.63653710484506L98.1775,106.92629060149194L98.61,107.2431649118662L99.0425,107.82211495935918L99.47500000000001,110.01742070913316L99.90750000000001,108.75957234203817L100.33999999999999,106.88324651122095L100.7725,107.06365188956262L101.205,109.1404545158148L101.6375,108.71008394658567L102.07,108.82206363976003L102.5025,107.90083570778371L102.935,109.96181330084802L103.3675,107.73239141702653L103.80000000000001,109.72390151023866L104.2325,108.43347115814687L104.66499999999999,108.97777757048608L105.0975,107.6072901338339L105.53,109.73255692422391L105.96249999999999,104.87483879923822L106.395,109.38719315826894L106.8275,107.70075893402101L107.26,107.42821229994298L107.69250000000001,108.14680507779123L108.125,107.52291193604471L108.5575,109.63804630935194L108.99,108.87013217806818L109.4225,108.972084954381L109.85499999999999,109.09744998812677L110.2875,108.9949213564396L110.72,107.90344244241716L111.1525,107.79792903363706L111.58500000000001,108.01763764023782L112.0175,108.9800106585026L112.45,106.73546707630159L112.8825,110.84119720757009L113.315,109.63876283168794L113.7475,108.1063105762005L114.17999999999999,109.7286050617695L114.6125,109.89058746397497L115.045,108.64526285231115L115.4775,107.72201283276083L115.91,108.721398845315L116.3425,105.65705700218679L116.775,109.49381871521474L117.2075,108.71854154765607L117.64,109.35561342537405L118.07249999999999,108.57180392742158L118.505,110.19897779822351L118.9375,109.46937343478204L119.37,107.12645529210569L119.8025,109.2252722978592L120.235,108.31608018279077L120.6675,107.2406460940838L121.10000000000001,109.04217226803304L121.5325,107.64438225328924L121.96499999999999,109.1795907020569L122.3975,109.28823395073415L122.83,110.88475121557714L123.2625,109.32288198173048L123.69500000000001,108.4847222864628L124.1275,109.39142195880414L124.56,109.40342700481416L124.9925,109.23374308645727L125.42500000000001,107.51093326509L125.85749999999999,109.03466416895391L126.28999999999999,109.42007406055929L126.7225,108.30177171528341L127.155,109.34221489727499L127.5875,109.72322894632818L128.02,110.703211709857L128.45250000000001,110.39804352819921L128.885,109.65324273705484L129.3175,110.92390498518945L129.75,108.35490426421167L129.96625,108.18521155416967L130.1825,108.78269886970521L130.39875,110.30992446839811L130.61499999999998,109.5811421275139L130.83125,110.71558161079885L131.04749999999999,107.91905207931997L131.26375000000002,107.6101034730673L131.48,109.46382148563863L131.69625000000002,109.25798615813257L131.9125,109.64964693784715L132.12875,110.21159386634828L132.345,108.82344833016397L132.56125,109.45452427864076L132.7775,109.55952337384225L132.99375,109.4999816864729L133.21,108.73499958217145L133.42625,109.31289902329446L133.6425,110.8973497003317L133.85875,109.49155925214292L134.07500000000002,108.08734251558782L134.29125,107.66942097246648L134.5075,109.85702081024648L134.72375,110.50911767780782L134.94,110.47388499975206L135.15625,109.13924126327039L135.3725,109.30599315464498L135.58875,109.06211180984975L135.805,109.14583942294122L136.02125,110.41271245479585L136.2375,110.42277014255525L136.45374999999999,109.3558288216591L136.67,111.28878629207613L136.88625,109.4923153370619L137.1025,107.25736787915231L137.31875,110.46200743317605L137.535,109.6013673990965L137.75125,107.16252757608892L137.9675,109.9963822066784L138.18375,109.49759034812452L138.4,109.88244196772577L138.61625,109.53261202573778L138.83249999999998,109.97348426282407L139.04875,109.64872381091119L139.265,109.23307931423189L139.48125000000002,109.03785994648935L139.6975,108.1812465041876L139.91375,109.64700064063074L140.13,108.27017879486085L140.34625,110.14141424000265L140.5625,106.35011433064939L140.77875,110.03950102627279L140.99499999999998,110.50984738767148L141.21125,110.46787148714067L141.4275,107.16918727755548L141.64374999999998,110.25383791327478L141.85999999999999,107.99168018996717L142.07625000000002,106.60705572366716L142.29250000000002,109.57132621109487L142.50875,109.37828718125822L142.725,109.40706676244737L142.94125,106.64088173210622L143.1575,109.59058879315855L143.37375,110.58817690610887L143.59,107.66695930063726L143.80624999999998,109.35735417902471L144.0225,109.10613617300989L144.23875,110.98482257127763L144.455,110.42936390638353L144.67125,109.7573802471161L144.8875,109.19631688296796L145.10375000000002,109.85460309684278L145.32,109.44728872179986L145.53625,108.73813821375371L145.7525,108.31713078916074L145.96875,110.01583820581438L146.185,107.92197091877462L146.40125,109.64243775606157L146.61749999999998,109.57978381216527L146.83375,108.35903196036817L147.05,108.32495538890363L147.26625,108.80116140842439L147.4825,110.9470490962267L147.69875,110.914642944932L147.91500000000002,110.35905240476133L148.13125,110.20946188271047L148.3475,110.57987315952779L148.56375,107.89756080508234L148.78,109.81558120250703L148.99625,109.63246358931066L149.2125,110.672634229064L149.42874999999998,109.69024693965913L149.64499999999998,108.7391052991152L149.86125,109.73853527009489L150.07750000000001,109.046423047781L150.29375,109.81800770759584L150.51,110.28645946085454L150.72625000000002,109.43095377087594L150.9425,109.35599586367609L151.15875,107.90316550433637L151.375,109.19057591259481L151.59124999999997,110.62600313127042L151.8075,109.2086516171694L152.02375,104.77562023699285L152.24,110.229638800025L152.45624999999998,109.88102211058141L152.6725,109.51165264844896L152.88875000000002,110.18574631214143L153.105,109.59088331460954L153.32125,110.68544371426107L153.5375,110.53142657876016L153.75375,108.12235100567342L153.97,109.05841930210592L154.18625,109.30657780170442L154.40249999999997,108.52286940813066L154.61875,108.11886510252954L154.835,110.8081097006798L155.05125,109.92688833177091L155.26749999999998,110.38602969050409L155.48375,109.77514824271204L155.70000000000002,109.34055766463281L155.91625,110.41749513149263L156.1325,110.25704248249532L156.34875,110.39183220267297L156.565,107.96576669812204L156.78125,109.89737464487554L156.9975,106.21448940038682L157.21375,108.71413251757623L157.43,110.2365886271L157.64625,108.22447521984579L157.8625,110.06471997499467L158.07874999999999,110.2062880843878L158.295,108.45245680212976L158.51125000000002,110.88632053136827L158.7275,109.12269970774652L158.94375,109.72109696269037L159.16,108.68644310534002L159.37625000000003,108.00798876583578L159.5925,109.54579515755178L159.80875,110.05224457383157L160.025,109.60084868967535L160.24124999999998,110.05805587768556L160.4575,110.97253619134428L160.67375,108.36420147120954L160.89,109.55575613677503L161.10625,111.16266077756883L161.32250000000002,110.15978886187078L161.53875,109.59519124031068L161.755,108.97792702913286L161.97125,109.27306389808656L162.18749999999997,109.41075487434865L162.40375,109.6026729643345L162.62,110.12574745714666L162.83625,108.99858309328557L163.05249999999998,110.20612983405591L163.26875,109.8663136214018L163.485,109.3345001935959L163.70125,110.48168762028219L163.9175,108.89556212723257L164.13375,109.97769547998907L164.35000000000002,108.10585780441762L164.56625,110.73403975367548L164.7825,110.7253403812647L164.99875,108.06063337624074L165.215,110.47721265256406L165.43125,109.73101837933065L165.6475,108.89700835943223L165.86374999999998,108.00690738856794L166.08,109.59776280820371L166.29625000000001,108.97849409282209L166.5125,107.06792464852334L166.72875,109.97688224911691L166.945,111.16305200755598L167.16125000000002,111.9400611370802L167.3775,109.02824623882772L167.59375,110.26197901368143L167.81,110.46145355701448L168.02625,108.50842906534673L168.2425,109.30702178180219L168.45875,109.24118964374067L168.67499999999998,108.54717402160169L168.89124999999999,111.2508018165827L169.10750000000002,110.48101066052915L169.32375,109.64735670387746L169.54,110.5506100356579L169.75625,110.24829475581647L169.97250000000003,107.05445578694345L170.18875,108.7576293796301L170.405,110.41467739641668L170.62125,110.75569367408754L170.83749999999998,111.81489831209184L171.05375,110.8408015817404L171.27,110.05358090996744L171.48624999999998,110.74855922162534L171.7025,110.33176741003992L171.91875000000002,109.54784801602365L172.13500000000002,110.64998684823514L172.35125,110.60484594106676L172.5675,110.84018176794054L172.78375,110.20510999858381L173,111.08647203445436L173.21625,109.9855068922043L173.4325,109.08537460863592L173.64874999999998,110.5481088012457L173.865,109.61080527305604L174.08125,108.53669433295728L174.29749999999999,111.20089581608774L174.51375,109.93958352506162L174.73,109.68358284235002L174.94625000000002,109.77868689596654L175.1625,110.81220662593843L175.37875,110.87032845616342L175.595,108.7657572925091L175.81125,110.34506483376028L176.0275,108.06975035369398L176.24375,109.57798151671888L176.45999999999998,108.64230445027353L176.67625,110.54394154250623L176.8925,108.39875279366971L177.10875000000001,109.27969722449781L177.325,110.27725896239282L177.54125,109.48484240472318L177.75750000000002,109.67938920855524L177.97375,110.91682767868043L178.19,110.27290707826616L178.40625,110.56547237932683L178.6225,109.84523995220663L178.83875,109.75319540500642L179.055,108.22866006195547L179.27124999999998,108.94685721397401L179.48749999999998,110.38667148351671L179.70375,108.98505268990995L179.92000000000002,107.7597731202841L180.13625,108.51849554479124L180.3525,109.5770056396723L180.56875000000002,107.64078645408155L180.785,110.75523211061956L181.00125,108.2111338376999L181.2175,108.69028067588808L181.43374999999997,110.54825386404993L181.65,108.50354528427125L181.86625,109.6307404190302L182.0825,109.23435410857202L182.29874999999998,109.43895860016347L182.51500000000001,110.26859475672246L182.73125000000002,110.82827782630922L182.9475,110.54364702105524L183.16375,110.2792370915413L183.38,108.75536552071573L183.59625,109.94303865730764L183.8125,110.77689921855928L184.02875,109.2568344473839L184.24499999999998,108.15426921844484L184.46125,107.98442265391351L184.6775,109.10139745473863L184.89375,108.74396270513536L185.10999999999999,110.29616108536722L185.32625,106.76510824263097L185.54250000000002,110.49625983834268L185.75875,108.11550228297712L185.975,110.28496047854425L186.19125,111.4877904802561L186.4075,110.77753661572935L186.62375,109.60518738627435L186.84,107.10029123723508L187.05624999999998,110.67053301632406L187.2725,108.97261245548727L187.48875,108.03394621610643L187.705,110.25099819898607L187.92125,109.85623835027219L188.1375,108.13195592164995L188.35375000000002,108.4811001121998L188.57,110.8953364044428L188.78625,108.13156908750535L189.0025,110.00238692760469L189.21875000000003,109.96674983203413L189.435,110.41727533936502L189.65125,111.03325596451761L189.8675,109.34266766905786L190.08374999999998,109.68461586534978L190.3,109.00193712115289L190.51625,108.69589416682722L190.7325,109.01652252674104L190.94875,109.4992563724518L191.16500000000002,111.07022939622404L191.38125,109.71877156198026L191.5975,107.9419588148594L191.81375,106.77801883220674L192.02999999999997,109.22416894137861L192.24625,110.1260199993849L192.4625,111.33090725541116L192.67875,110.56374481320383L192.89499999999998,108.75396764278413L193.11125,107.88570082187654L193.32750000000001,109.34599532186986L193.54375,109.6999397724867L193.76,110.52170297503473L193.97625,110.29769083857538L194.1925,109.21427389979364L194.40875,109.05928967893125L194.625,109.84254969656469L194.84125,109.49996849894525L195.0575,110.20373849570753L195.27375,109.23170341551305L195.49,109.34181487560274L195.70624999999998,109.91225017607213L195.9225,107.82153910398485L196.13875000000002,108.21115581691267L196.355,110.09407101571561L196.57125,110.53028805553915L196.7875,109.96422222256662L197.00375000000003,109.40109281241895L197.22,109.38374681770803L197.43625,111.21875612437726L197.6525,108.7590448409319L197.86875,111.04594676196577L198.085,110.64736692607404L198.30125,109.421019166708L198.51749999999998,111.04394665360452L198.73375,108.88824744522573L198.95000000000002,111.18715001642705L199.16625,108.95364879071714L199.3825,109.78349155187608L199.59875,110.29436758160593L199.81500000000003,109.76175850629808L200.03125,109.74435976147653L200.2475,109.75591203570367L200.46375,110.15482595562936L200.67999999999998,108.93770506978036L200.89625,109.72720278799535L201.1125,109.22085008025171L201.32874999999999,108.5452794134617L201.545,110.9217949807644L201.76125000000002,109.14948797225954L201.97750000000002,110.24374066293241L202.19375,105.9400305747986L202.41,109.77978146076204L202.62625,108.51359418034555L202.8425,111.56649364531042L203.05875,110.1549050807953L203.275,111.2556548267603L203.49124999999998,109.55567701160909L203.7075,110.57618504762651L203.92375,109.4307647496462L204.14,107.95037685334684L204.35625,110.20458249747755L204.5725,108.68057465553285L204.78875000000002,109.44518750905992L205.005,108.89792269468309L205.22125,109.5360671579838L205.4375,109.89982752501966L205.65375,109.40775690972806L205.87,108.59904935956003L206.08625,106.03433458507062L206.30249999999998,108.45360851287843L206.51875,110.35208939015867L206.735,111.34177377820016L206.95125,108.82148338854314L207.1675,109.64416532218458L207.38375,109.1804083287716L207.60000000000002,107.89773224294187L207.81625,109.65974418818952L208.0325,111.12706764042379L208.24875,109.8871191442013L208.465,106.10919578373434L208.68125,109.91618005931379L208.8975,111.45312926173212L209.11374999999998,109.17695759236814L209.32999999999998,109.14360193908216L209.54625000000001,109.60102012753488L209.76250000000002,109.40329073369504L209.97875,109.56235429644586L210.195,110.01545576751234L210.41125000000002,110.03489857912065L210.6275,109.69976393878461L210.84375,109.57052177190782L211.06,110.99736830592157L211.27624999999998,109.3728099614382L211.4925,109.36300723254682L211.70875,109.7817244231701L211.92499999999998,108.55740314722063L212.14124999999999,108.18512803316118L212.35750000000002,111.6435088068247L212.57375000000002,109.46634030342103L212.79,109.45336377620698L213.00625,108.80890688300134L213.2225,109.75904187560083L213.43875,110.28483739495279L213.655,110.2561896890402L213.87125,109.82162548601629L214.08749999999998,108.02620074152948L214.30375,108.50322438776494L214.52,108.99096949398519L214.73625,110.44376468658449L214.9525,107.93441554903985L215.16875,107.8403445184231L215.38500000000002,110.57769282162191L215.60125,110.12285938858987L215.8175,108.72668704390527L216.03375,107.15328751504423L216.25,111.75705341994764L216.46625,110.38451312482358L216.6825,109.98537941277029L216.89874999999998,107.15631185472013L217.115,108.86432087421419L217.33125,110.50891546905042L217.5475,110.88340169191362L217.76375,109.12525369226934L217.98,107.66894622147085L218.19625000000002,111.051147043705L218.4125,109.47985312342645L218.62875,107.95403859019281L218.845,109.70210692286493L219.06125,109.15928630530836L219.2775,107.75710484385492L219.49375,109.74481692910196L219.70999999999998,111.01138225197793L219.92624999999998,110.7005829960108L220.1425,107.6131190210581L220.35875000000001,110.45821821689607L220.575,110.70241606235506L220.79125,109.71408119797708L221.00750000000002,106.15775665640832L221.22375,109.41335721313955L221.44,110.25345987081529L221.65625,110.23711612820627L221.87249999999997,107.54449552297594L222.08875,109.25091764330865L222.305,110.58989128470422L222.52125,110.47690933942796L222.73749999999998,109.60563576221467L222.95375,111.734129101038L223.17000000000002,110.79482546448709L223.38625,108.31637030839921L223.6025,110.94915030896665L223.81875,108.6181097328663L224.035,110.44871440529825L224.25125,109.6346571147442L224.4675,109.8230497390032L224.68374999999997,108.90062613785268L224.9,107.91160991787912L225.11625,109.51680457592012L225.3325,110.53443333506586L225.54874999999998,108.47458986938001L225.765,108.86775842309L225.98125000000002,110.91291537880899L226.1975,109.60160917043687L226.41375,110.13599856197835L226.63,108.28655330836774L226.84625,110.19106967747213L227.0625,109.60521376132967L227.27875,109.63143496215345L227.495,108.35049083828928L227.71125,110.4431009143591L227.9275,108.05504626035692L228.14375,107.59305639564992L228.35999999999999,109.05216841399671L228.57625,109.41376163065435L228.79250000000002,109.83189417421819L229.00875,109.99975821375848L229.225,107.92225664854051L229.44125,110.3443087488413L229.65750000000003,107.50374166667463L229.87375,108.79677875339986L230.09,108.37272940576078L230.30625,109.1379532814026L230.52249999999998,110.56340633332731L230.73875,108.1435345709324L230.955,108.09849476814271L231.17125,108.93451808393003L231.3875,109.40396769344808L231.60375000000002,106.34341946244241L231.82,108.79757000505926L232.03625,109.43261979520322L232.2525,107.42313949763776L232.46874999999997,107.31744585931303L232.685,105.60952915251256L232.90125,110.40737150609495L233.1175,109.77771541476251L233.33374999999998,109.40496115386487L233.55,110.16127905249597L233.76625,110.74916145205499L233.9825,108.43495695292951L234.19875,108.88551323115827L234.415,109.22632730007173L234.63125000000002,108.208404019475L234.8475,110.77783992886545L235.06375,109.57020087540151L235.28,108.88071736693384L235.49625,108.4984109401703L235.7125,108.95951284468175L235.92875,109.55101741850378L236.14499999999998,109.35744209587575L236.36125,108.4986966699362L236.57750000000001,110.57300685346128L236.79375,109.245387673378L237.01,106.18602631986143L237.22625,107.3958588987589L237.44250000000002,111.52745856344701L237.65875,111.05566596984865L237.875,108.72323191165925L238.09125,110.7544012963772L238.3075,108.57027417421342L238.52375,108.7250386029482L238.74,110.32626821100713L238.95624999999998,108.67389737069608L239.17249999999999,110.14368249475957L239.38875000000002,108.94153384864332L239.605,111.15235252678396L239.82125,106.97433276474477L240.0375,109.44356983900072L240.25375000000003,109.46703484654428L240.47,107.49839192628862L240.68625,111.14484442770483L240.9025,110.45301353931428L241.11874999999998,109.64402025938035L241.335,108.69971854984762L241.55125,108.14415878057481L241.76749999999998,110.81723986566068L241.98375,108.44608283042909L242.20000000000002,109.89611303806306L242.41625000000002,109.6159572005272L242.6325,108.68204726278783L242.84875,108.99219593405725L243.065,109.07391025125982L243.28125,108.84647375345232L243.4975,108.03817941248418L243.71375,108.79113888740541L243.92999999999998,108.45559982955457L244.14625,104.95067587494852L244.3625,110.16805744171144L244.57874999999999,109.29121872782709L244.795,106.6821630895138L245.01125,110.3934103101492L245.22750000000002,108.97124974429609L245.44375,109.86329367756845L245.66,108.88486264646055L245.87625,108.5497939437628L246.0925,109.61518792808057L246.30875,109.20204026997091L246.525,107.38915523886682L246.74124999999998,108.44151555001737L246.9575,109.47064822912218L247.17375,110.71411779522897L247.39000000000001,110.47740606963636L247.60625,107.25991307199003L247.8225,109.53279665112497L248.03875000000002,109.3818829804659L248.255,108.83883817493917L248.47125,110.39494006335737L248.6875,109.94571132957937L248.90375,110.61018688976766L249.12,110.02574203908445L249.33625,107.68679773807527L249.55249999999998,109.78819949924947L249.76874999999998,108.09562867879869L249.985,109.379153162241L250.20125000000002,107.66076995432378L250.4175,110.89083506166936L250.63375,110.45975676178934L250.85000000000002,108.49783068895341L251.06625,109.79092052578928L251.2825,108.66876302659513L251.49875,108.45728343725206L251.71499999999997,109.43445286154748L251.93125,109.4922230243683L252.1475,108.20929197967054L252.36375,110.74071264266969L252.57999999999998,110.00877408683301L252.79625000000001,106.46656459569932L253.01250000000002,109.34506779909135L253.22875,109.37779045104982L253.445,111.43808229267599L253.66125,108.66223080456258L253.8775,108.86381974816324L254.09375,112.29964984953405L254.31,108.17629238963129L254.52624999999998,109.34106318652631L254.7425,110.3818360567093L254.95875,108.70051859319211L255.175,106.3455074876547L255.39124999999999,110.30360324680807L255.6075,107.63138374686243L255.82375000000002,109.23971703648569L256.04,110.80216652154924L256.25625,110.3330553919077L256.47249999999997,110.14919488132001L256.68875,109.91321726143362L256.90500000000003,108.4469004571438L257.12125,109.9326073229313L257.3375,110.24142844974996L257.55375000000004,109.6011651903391L257.77,110.00065936148168L257.98625,108.5010220706463L258.2025,111.04774026572706L258.41875,110.56437781453134L258.635,109.90416622161867L258.85125,109.17466735839845L259.0675,108.99012988805772L259.28375,109.14703069627286L259.5,107.09869994223119" style="fill: none;" fill="none"></path></g></g></g></g></g></g><g transform="translate(48, 177)" clip-path="url(#clip_1)"><clipPath id="clip_1"><rect width="281" height="23"></rect></clipPath><g><g><line x1="0" y1="0" x2="0" y2="5" style="visibility: inherit;" fill="rgb(0, 0, 0)" stroke="rgb(204, 204, 204)" stroke-width="1px"></line><line x1="21.625" y1="0" x2="21.625" y2="5" style="visibility: inherit;" fill="rgb(0, 0, 0)" stroke="rgb(204, 204, 204)" stroke-width="1px"></line><line x1="43.25" y1="0" x2="43.25" y2="5" style="visibility: inherit;" fill="rgb(0, 0, 0)" stroke="rgb(204, 204, 204)" stroke-width="1px"></line><line x1="64.875" y1="0" x2="64.875" y2="5" style="visibility: inherit;" fill="rgb(0, 0, 0)" stroke="rgb(204, 204, 204)" stroke-width="1px"></line><line x1="86.5" y1="0" x2="86.5" y2="5" style="visibility: inherit;" fill="rgb(0, 0, 0)" stroke="rgb(204, 204, 204)" stroke-width="1px"></line><line x1="108.125" y1="0" x2="108.125" y2="5" style="visibility: inherit;" fill="rgb(0, 0, 0)" stroke="rgb(204, 204, 204)" stroke-width="1px"></line><line x1="129.75" y1="0" x2="129.75" y2="5" style="visibility: inherit;" fill="rgb(0, 0, 0)" stroke="rgb(204, 204, 204)" stroke-width="1px"></line><line x1="151.375" y1="0" x2="151.375" y2="5" style="visibility: inherit;" fill="rgb(0, 0, 0)" stroke="rgb(204, 204, 204)" stroke-width="1px"></line><line x1="173" y1="0" x2="173" y2="5" style="visibility: inherit;" fill="rgb(0, 0, 0)" stroke="rgb(204, 204, 204)" stroke-width="1px"></line><line x1="194.625" y1="0" x2="194.625" y2="5" style="visibility: inherit;" fill="rgb(0, 0, 0)" stroke="rgb(204, 204, 204)" stroke-width="1px"></line><line x1="216.25" y1="0" x2="216.25" y2="5" style="visibility: inherit;" fill="rgb(0, 0, 0)" stroke="rgb(204, 204, 204)" stroke-width="1px"></line><line x1="237.875" y1="0" x2="237.875" y2="5" style="visibility: inherit;" fill="rgb(0, 0, 0)" stroke="rgb(204, 204, 204)" stroke-width="1px"></line><line x1="259.5" y1="0" x2="259.5" y2="5" style="visibility: inherit;" fill="rgb(0, 0, 0)" stroke="rgb(204, 204, 204)" stroke-width="1px"></line><line x1="281.125" y1="0" x2="281.125" y2="5" style="visibility: inherit;" fill="rgb(0, 0, 0)" stroke="rgb(204, 204, 204)" stroke-width="1px"></line></g><g transform="translate(0, 8)"><text x="0" y="0" dx="0em" dy="0.95em" style="text-anchor: middle; visibility: hidden; font-family: &quot;Helvetica Neue&quot;, sans-serif; font-size: 12px; font-weight: 200;" fill="rgb(50, 49, 63)" stroke="none" stroke-width="1px">-100</text><text x="21.625" y="0" dx="0em" dy="0.95em" style="text-anchor: middle; visibility: inherit; font-family: &quot;Helvetica Neue&quot;, sans-serif; font-size: 12px; font-weight: 200;" fill="rgb(50, 49, 63)" stroke="none" stroke-width="1px">0</text><text x="43.25" y="0" dx="0em" dy="0.95em" style="text-anchor: middle; visibility: hidden; font-family: &quot;Helvetica Neue&quot;, sans-serif; font-size: 12px; font-weight: 200;" fill="rgb(50, 49, 63)" stroke="none" stroke-width="1px">100</text><text x="64.875" y="0" dx="0em" dy="0.95em" style="text-anchor: middle; visibility: inherit; font-family: &quot;Helvetica Neue&quot;, sans-serif; font-size: 12px; font-weight: 200;" fill="rgb(50, 49, 63)" stroke="none" stroke-width="1px">200</text><text x="86.5" y="0" dx="0em" dy="0.95em" style="text-anchor: middle; visibility: hidden; font-family: &quot;Helvetica Neue&quot;, sans-serif; font-size: 12px; font-weight: 200;" fill="rgb(50, 49, 63)" stroke="none" stroke-width="1px">300</text><text x="108.125" y="0" dx="0em" dy="0.95em" style="text-anchor: middle; visibility: inherit; font-family: &quot;Helvetica Neue&quot;, sans-serif; font-size: 12px; font-weight: 200;" fill="rgb(50, 49, 63)" stroke="none" stroke-width="1px">400</text><text x="129.75" y="0" dx="0em" dy="0.95em" style="text-anchor: middle; visibility: hidden; font-family: &quot;Helvetica Neue&quot;, sans-serif; font-size: 12px; font-weight: 200;" fill="rgb(50, 49, 63)" stroke="none" stroke-width="1px">500</text><text x="151.375" y="0" dx="0em" dy="0.95em" style="text-anchor: middle; visibility: inherit; font-family: &quot;Helvetica Neue&quot;, sans-serif; font-size: 12px; font-weight: 200;" fill="rgb(50, 49, 63)" stroke="none" stroke-width="1px">600</text><text x="173" y="0" dx="0em" dy="0.95em" style="text-anchor: middle; visibility: hidden; font-family: &quot;Helvetica Neue&quot;, sans-serif; font-size: 12px; font-weight: 200;" fill="rgb(50, 49, 63)" stroke="none" stroke-width="1px">700</text><text x="194.625" y="0" dx="0em" dy="0.95em" style="text-anchor: middle; visibility: inherit; font-family: &quot;Helvetica Neue&quot;, sans-serif; font-size: 12px; font-weight: 200;" fill="rgb(50, 49, 63)" stroke="none" stroke-width="1px">800</text><text x="216.25" y="0" dx="0em" dy="0.95em" style="text-anchor: middle; visibility: hidden; font-family: &quot;Helvetica Neue&quot;, sans-serif; font-size: 12px; font-weight: 200;" fill="rgb(50, 49, 63)" stroke="none" stroke-width="1px">900</text><text x="237.875" y="0" dx="0em" dy="0.95em" style="text-anchor: middle; visibility: inherit; font-family: &quot;Helvetica Neue&quot;, sans-serif; font-size: 12px; font-weight: 200;" fill="rgb(50, 49, 63)" stroke="none" stroke-width="1px">1k</text><text x="259.5" y="0" dx="0em" dy="0.95em" style="text-anchor: middle; visibility: hidden; font-family: &quot;Helvetica Neue&quot;, sans-serif; font-size: 12px; font-weight: 200;" fill="rgb(50, 49, 63)" stroke="none" stroke-width="1px">1.1k</text><text x="281.125" y="0" dx="0em" dy="0.95em" style="text-anchor: middle; visibility: hidden; font-family: &quot;Helvetica Neue&quot;, sans-serif; font-size: 12px; font-weight: 200;" fill="rgb(50, 49, 63)" stroke="none" stroke-width="1px">1.2k</text></g><line x1="0" y1="0" x2="281.125" y2="0" fill="rgb(0, 0, 0)" stroke="rgb(204, 204, 204)" stroke-width="1px"></line></g></g></g></g></svg>