<svg viewBox="0 0 330 200" xmlns="http://www.w3.org/2000/svg"><g><g><g><g><g><line x1="29.4375" y1="177" x2="24.4375" y2="177" style="visibility: inherit;" fill="rgb(0, 0, 0)" stroke="rgb(204, 204, 204)" stroke-width="1px"></line><line x1="29.4375" y1="157.33333333333334" x2="24.4375" y2="157.33333333333334" style="visibility: inherit;" fill="rgb(0, 0, 0)" stroke="rgb(204, 204, 204)" stroke-width="1px"></line><line x1="29.4375" y1="137.66666666666669" x2="24.4375" y2="137.66666666666669" style="visibility: inherit;" fill="rgb(0, 0, 0)" stroke="rgb(204, 204, 204)" stroke-width="1px"></line><line x1="29.4375" y1="118" x2="24.4375" y2="118" style="visibility: inherit;" fill="rgb(0, 0, 0)" stroke="rgb(204, 204, 204)" stroke-width="1px"></line><line x1="29.4375" y1="98.33333333333334" x2="24.4375" y2="98.33333333333334" style="visibility: inherit;" fill="rgb(0, 0, 0)" stroke="rgb(204, 204, 204)" stroke-width="1px"></line><line x1="29.4375" y1="78.66666666666666" x2="24.4375" y2="78.66666666666666" style="visibility: inherit;" fill="rgb(0, 0, 0)" stroke="rgb(204, 204, 204)" stroke-width="1px"></line><line x1="29.4375" y1="59" x2="24.4375" y2="59" style="visibility: inherit;" fill="rgb(0, 0, 0)" stroke="rgb(204, 204, 204)" stroke-width="1px"></line><line x1="29.4375" y1="39.33333333333334" x2="24.4375" y2="39.33333333333334" style="visibility: inherit;" fill="rgb(0, 0, 0)" stroke="rgb(204, 204, 204)" stroke-width="1px"></line><line x1="29.4375" y1="19.666666666666686" x2="24.4375" y2="19.666666666666686" style="visibility: inherit;" fill="rgb(0, 0, 0)" stroke="rgb(204, 204, 204)" stroke-width="1px"></line><line x1="29.4375" y1="0" x2="24.4375" y2="0" style="visibility: inherit;" fill="rgb(0, 0, 0)" stroke="rgb(204, 204, 204)" stroke-width="1px"></line></g><g transform="translate(19.4375, 0)"><text x="0" y="177" dx="0em" dy="0.3em" style="text-anchor: end; visibility: hidden; font-family: &quot;Helvetica Neue&quot;, sans-serif; font-size: 12px; font-weight: 200;" fill="rgb(50, 49, 63)" stroke="none" stroke-width="1px">28</text><text x="0" y="157.33333333333334" dx="0em" dy="0.3em" style="text-anchor: end; visibility: inherit; font-family: &quot;Helvetica Neue&quot;, sans-serif; font-size: 12px; font-weight: 200;" fill="rgb(50, 49, 63)" stroke="none" stroke-width="1px">30</text><text x="0" y="137.66666666666669" dx="0em" dy="0.3em" style="text-anchor: end; visibility: hidden; font-family: &quot;Helvetica Neue&quot;, sans-serif; font-size: 12px; font-weight: 200;" fill="rgb(50, 49, 63)" stroke="none" stroke-width="1px">32</text><text x="0" y="118" dx="0em" dy="0.3em" style="text-anchor: end; visibility: inherit; font-family: &quot;Helvetica Neue&quot;, sans-serif; font-size: 12px; font-weight: 200;" fill="rgb(50, 49, 63)" stroke="none" stroke-width="1px">34</text><text x="0" y="98.33333333333334" dx="0em" dy="0.3em" style="text-anchor: end; visibility: hidden; font-family: &quot;Helvetica Neue&quot;, sans-serif; font-size: 12px; font-weight: 200;" fill="rgb(50, 49, 63)" stroke="none" stroke-width="1px">36</text><text x="0" y="78.66666666666666" dx="0em" dy="0.3em" style="text-anchor: end; visibility: inherit; font-family: &quot;Helvetica Neue&quot;, sans-serif; font-size: 12px; font-weight: 200;" fill="rgb(50, 49, 63)" stroke="none" stroke-width="1px">38</text><text x="0" y="59" dx="0em" dy="0.3em" style="text-anchor: end; visibility: hidden; font-family: &quot;Helvetica Neue&quot;, sans-serif; font-size: 12px; font-weight: 200;" fill="rgb(50, 49, 63)" stroke="none" stroke-width="1px">40</text><text x="0" y="39.33333333333334" dx="0em" dy="0.3em" style="text-anchor: end; visibility: inherit; font-family: &quot;Helvetica Neue&quot;, sans-serif; font-size: 12px; font-weight: 200;" fill="rgb(50, 49, 63)" stroke="none" stroke-width="1px">42</text><text x="0" y="19.666666666666686" dx="0em" dy="0.3em" style="text-anchor: end; visibility: hidden; font-family: &quot;Helvetica Neue&quot;, sans-serif; font-size: 12px; font-weight: 200;" fill="rgb(50, 49, 63)" stroke="none" stroke-width="1px">44</text><text x="0" y="0" dx="0em" dy="0.3em" style="text-anchor: end; visibility: hidden; font-family: &quot;Helvetica Neue&quot;, sans-serif; font-size: 12px; font-weight: 200;" fill="rgb(50, 49, 63)" stroke="none" stroke-width="1px">46</text></g><line x1="29.4375" y1="0" x2="29.4375" y2="177" fill="rgb(0, 0, 0)" stroke="rgb(204, 204, 204)" stroke-width="1px"></line></g></g><g transform="translate(29, 0)" clip-path="url(#clip_0)"><clipPath id="clip_0"><rect width="300" height="177"></rect></clipPath><g><g><g><line x1="0" y1="0" x2="0" y2="177" fill="rgb(0, 0, 0)" stroke="rgb(60, 60, 60)" stroke-width="1px" opacity="0.25"></line><line x1="33.39583333333333" y1="0" x2="33.39583333333333" y2="177" fill="rgb(0, 0, 0)" stroke="rgb(60, 60, 60)" stroke-width="1px" opacity="0.25"></line><line x1="66.79166666666666" y1="0" x2="66.79166666666666" y2="177" fill="rgb(0, 0, 0)" stroke="rgb(60, 60, 60)" stroke-width="1px" opacity="0.25"></line><line x1="100.1875" y1="0" x2="100.1875" y2="177" fill="rgb(0, 0, 0)" stroke="rgb(60, 60, 60)" stroke-width="1px" opacity="0.25"></line><line x1="133.58333333333331" y1="0" x2="133.58333333333331" y2="177" fill="rgb(0, 0, 0)" stroke="rgb(60, 60, 60)" stroke-width="1px" opacity="0.25"></line><line x1="166.97916666666669" y1="0" x2="166.97916666666669" y2="177" fill="rgb(0, 0, 0)" stroke="rgb(60, 60, 60)" stroke-width="1px" opacity="0.25"></line><line x1="200.375" y1="0" x2="200.375" y2="177" fill="rgb(0, 0, 0)" stroke="rgb(60, 60, 60)" stroke-width="1px" opacity="0.25"></line><line x1="233.77083333333334" y1="0" x2="233.77083333333334" y2="177" fill="rgb(0, 0, 0)" stroke="rgb(60, 60, 60)" stroke-width="1px" opacity="0.25"></line><line x1="267.16666666666663" y1="0" x2="267.16666666666663" y2="177" fill="rgb(0, 0, 0)" stroke="rgb(60, 60, 60)" stroke-width="1px" opacity="0.25"></line><line x1="300.5625" y1="0" x2="300.5625" y2="177" fill="rgb(0, 0, 0)" stroke="rgb(60, 60, 60)" stroke-width="1px" opacity="0.25"></line></g><g><line x1="0" y1="177" x2="300.5625" y2="177" fill="rgb(0, 0, 0)" stroke="rgb(60, 60, 60)" stroke-width="1px" opacity="0.25"></line><line x1="0" y1="157.33333333333334" x2="300.5625" y2="157.33333333333334" fill="rgb(0, 0, 0)" stroke="rgb(60, 60, 60)" stroke-width="1px" opacity="0.25"></line><line x1="0" y1="137.66666666666669" x2="300.5625" y2="137.66666666666669" fill="rgb(0, 0, 0)" stroke="rgb(60, 60, 60)" stroke-width="1px" opacity="0.25"></line><line x1="0" y1="118" x2="300.5625" y2="118" fill="rgb(0, 0, 0)" stroke="rgb(60, 60, 60)" stroke-width="1px" opacity="0.25"></line><line x1="0" y1="98.33333333333334" x2="300.5625" y2="98.33333333333334" fill="rgb(0, 0, 0)" stroke="rgb(60, 60, 60)" stroke-width="1px" opacity="0.25"></line><line x1="0" y1="78.66666666666666" x2="300.5625" y2="78.66666666666666" fill="rgb(0, 0, 0)" stroke="rgb(60, 60, 60)" stroke-width="1px" opacity="0.25"></line><line x1="0" y1="59" x2="300.5625" y2="59" fill="rgb(0, 0, 0)" stroke="rgb(60, 60, 60)" stroke-width="1px" opacity="0.25"></line><line x1="0" y1="39.33333333333334" x2="300.5625" y2="39.33333333333334" fill="rgb(0, 0, 0)" stroke="rgb(60, 60, 60)" stroke-width="1px" opacity="0.25"></line><line x1="0" y1="19.666666666666686" x2="300.5625" y2="19.666666666666686" fill="rgb(0, 0, 0)" stroke="rgb(60, 60, 60)" stroke-width="1px" opacity="0.25"></line><line x1="0" y1="0" x2="300.5625" y2="0" fill="rgb(0, 0, 0)" stroke="rgb(60, 60, 60)" stroke-width="1px" opacity="0.25"></line></g></g></g><g><g><line x1="0" y1="452.3333333333333" x2="300.5625" y2="452.3333333333333" fill="rgb(0, 0, 0)" stroke="rgb(153, 153, 153)" stroke-width="1.5px"></line></g></g><g><g><line x1="33.39583333333333" y1="0" x2="33.39583333333333" y2="177" fill="rgb(0, 0, 0)" stroke="rgb(153, 153, 153)" stroke-width="1.5px"></line></g></g><g><g><g><g><g><path stroke="rgb(204, 51, 17)" stroke-width="2px" d="M53.43333333333334,179.26166216532388L55.103125,165.4949992497762L56.77291666666667,167.7566614151001L58.442708333333336,155.56333033243814L60.112500000000004,159.59499549865723L61.782291666666666,162.15166441599527L63.452083333333334,168.7399984995524L65.121875,146.31999174753824L66.79166666666666,142.18999099731445L68.46145833333333,141.9933385848999L70.13125,149.46667416890463L71.80104166666668,151.53166516621908L73.47083333333333,133.04498799641928L75.140625,144.55000750223797L76.81041666666665,138.2566614151001L78.48020833333334,130.09499549865723L80.15,116.72165616353354L81.81979166666666,126.06333033243816L83.48958333333334,119.17998949686687L85.159375,131.17666816711426L86.82916666666665,121.7366771697998L88.49895833333333,123.60499699910483L90.16875,122.91666666666666L91.83854166666667,113.57499249776205L93.50833333333334,116.32835133870444L95.178125,117.1149984995524L96.84791666666668,119.4750150044759L98.51770833333333,104.42998949686685L100.1875,109.34665616353352L101.85729166666667,114.2633228302002L103.52708333333334,110.72331682840984L105.19687499999999,109.64168167114258L106.86666666666667,103.93833033243816L108.53645833333333,102.07001050313313L110.20625,105.90500450134277L111.87604166666667,119.77000300089517L113.54583333333333,110.625L115.215625,116.13168017069498L116.88541666666667,104.6266606648763L117.219375,100.79166666666666L117.55333333333334,110.82167116800944L117.88729166666667,114.7549819946289L118.22125,100.69334983825684L118.55520833333333,107.57665316263835L118.88916666666667,116.03332583109537L119.223125,101.18500900268555L119.55708333333334,104.52834383646648L119.89104166666667,106.4950180053711L120.22500000000001,98.6283213297526L120.55895833333332,102.65998649597168L120.89291666666666,96.56333033243816L121.22687499999999,107.96999549865723L121.56083333333333,102.46331532796223L121.89479166666666,106.00332132975261L122.22875,115.6399834950765L122.56270833333333,95.67832883199056L122.89666666666668,112.78834533691406L123.23062499999999,107.87167867024739L123.56458333333333,104.6266606648763L123.89854166666666,112.98501650492351L124.2325,104.1350015004476L124.56645833333333,107.7733243306478L124.90041666666667,105.02000300089519L125.234375,104.42998949686685L125.56833333333334,103.74165916442871L125.90229166666666,99.02166366577148L126.23625,103.93833033243816L126.57020833333333,110.13334083557129L126.90416666666667,92.33499399820964L127.238125,103.25L127.57208333333334,87.90998649597168L127.90604166666667,83.28834533691406L128.24,101.87333933512369L128.57395833333334,89.38500150044759L128.90791666666667,82.6000150044759L129.241875,86.43500900268555L129.57583333333332,95.97331682840984L129.90979166666668,100.8899834950765L130.24375,97.64500300089519L130.57770833333333,92.2366771697998L130.91166666666666,97.93999099731445L131.245625,94.9899984995524L131.57958333333332,96.56333033243816L131.91354166666667,95.97331682840984L132.2475,100.4966786702474L132.58145833333333,102.26668167114258L132.91541666666666,100.8899834950765L133.24937500000001,90.56499099731445L133.58333333333331,88.30332883199056L133.91729166666667,88.59831682840984L134.25125,99.21833483378093L134.58520833333333,115.73833783467612L134.91916666666665,90.07333183288574L135.253125,88.30332883199056L135.58708333333334,92.6299819946289L135.92104166666667,113.28000450134277L136.255,90.36831982930502L136.58895833333332,102.95501200358072L136.92291666666665,90.56499099731445L137.256875,105.61001650492351L137.59083333333334,95.67832883199056L137.92479166666666,98.03834533691406L138.25875,90.95833333333333L138.59270833333335,85.55000750223795L138.92666666666665,107.67500750223795L139.260625,98.53000450134277L139.59458333333333,94.20335133870442L139.92854166666666,82.0100015004476L140.2625,85.55000750223795L140.59645833333335,83.78000450134277L140.93041666666667,83.48501650492351L141.264375,98.33333333333334L141.59833333333333,91.05665016174316L141.93229166666666,92.1383228302002L142.26624999999999,78.7649834950765L142.60020833333334,101.97165616353354L142.93416666666667,92.72833633422852L143.268125,98.2350165049235L143.60208333333335,105.41334533691406L143.93604166666665,81.91168467203775L144.26999999999998,87.61499849955241L144.60395833333334,84.07499249776204L144.93791666666667,86.82835133870442L145.271875,85.84499549865723L145.60583333333335,81.71501350402832L145.93979166666668,83.18999099731445L146.27375,93.21999549865723L146.60770833333333,94.10499699910481L146.94166666666666,97.44833183288574L147.275625,84.7633228302002L147.60958333333332,84.8616771697998L147.94354166666668,82.69833183288574L148.2775,82.79664866129558L148.61145833333333,95.08831532796225L148.9454166666667,92.92500750223796L149.279375,87.1233393351237L149.61333333333332,94.4983393351237L149.94729166666667,81.91168467203775L150.28125,82.69833183288574L150.61520833333333,78.56834983825684L150.94916666666668,85.45165316263835L151.28312499999998,102.26668167114258L151.61708333333334,92.6299819946289L151.95104166666667,90.36831982930502L152.28500000000003,86.33665466308594L152.61895833333332,84.7633228302002L152.95291666666665,76.69999249776204L153.286875,81.125L153.6208333333333,87.51668167114258L153.95479166666667,93.12167867024739L154.28875,81.61665916442871L154.62270833333335,84.27166366577148L154.95666666666665,88.69667116800944L155.290625,98.43165016174316L155.62458333333333,89.28668467203777L155.95854166666666,81.51834233601888L156.29250000000002,80.14168167114258L156.62645833333332,81.41998799641927L156.96041666666667,86.63168017069498L157.294375,84.3700180053711L157.62833333333336,78.3716786702474L157.96229166666666,76.60167566935222L158.29625,73.35665766398112L158.63020833333334,88.59831682840984L158.96416666666664,73.65168317159018L159.298125,80.63334083557129L159.63208333333333,67.35831832885742L159.96604166666668,84.07499249776204L160.3,74.92998949686687L160.63395833333334,75.91334533691406L160.96791666666667,86.13998349507649L161.301875,68.24331982930502L161.63583333333335,84.56665166219076L161.96979166666665,67.65334383646648L162.30375,78.27332433064778L162.63770833333334,78.3716786702474L162.9716666666667,79.74833933512369L163.305625,76.5033213297526L163.63958333333332,79.55166816711426L163.97354166666668,67.65334383646648L164.30749999999998,87.81166966756186L164.64145833333333,76.79834683736165L164.97541666666666,88.20501200358073L165.30937500000002,67.55498949686687L165.64333333333335,72.3733393351237L165.97729166666664,76.40500450134277L166.31125,89.77834383646648L166.64520833333333,74.04498799641928L166.97916666666669,83.38666216532388L167.31312499999999,84.3700180053711L167.64708333333334,85.74667867024739L167.98104166666667,83.28834533691406L168.31500000000003,76.79834683736165L168.64895833333333,86.04166666666667L168.98291666666665,73.94667116800943L169.316875,111.51000150044759L169.65083333333334,95.97331682840984L169.98479166666667,77.68334833780925L170.31875,81.51834233601888L170.65270833333335,76.69999249776204L170.98666666666668,76.9950180053711L171.32062499999998,74.92998949686687L171.65458333333333,72.96331532796225L171.98854166666666,86.63168017069498L172.32250000000002,83.87832132975261L172.65645833333332,78.56834983825684L172.99041666666668,74.34001350402832L173.324375,83.18999099731445L173.6583333333333,74.63500150044759L173.99229166666666,83.28834533691406L174.32625,69.32499249776205L174.66020833333334,77.29000600179037L174.99416666666667,68.93165016174316L175.328125,83.78000450134277L175.66208333333333,68.93165016174316L175.99604166666668,88.5L176.33,69.71833483378093L176.6639583333333,80.73165766398112L176.99791666666667,80.14168167114258L177.331875,70.89832433064778L177.66583333333335,86.2383378346761L177.99979166666665,86.43500900268555L178.33375,79.74833933512369L178.66770833333334,81.61665916442871L179.00166666666667,83.58333333333333L179.335625,84.66500600179036L179.66958333333332,78.3716786702474L180.00354166666668,70.89832433064778L180.3375,72.57001050313315L180.67145833333333,72.66832733154297L181.00541666666666,84.27166366577148L181.33937500000002,68.24331982930502L181.67333333333335,74.63500150044759L182.00729166666665,84.95999399820964L182.34125,83.09167416890463L182.67520833333333,89.48331832885742L183.0091666666667,90.95833333333333L183.343125,86.82835133870442L183.67708333333334,87.22165616353352L184.01104166666667,69.42334683736165L184.345,69.81665166219075L184.67895833333333,93.02332433064778L185.01291666666665,82.99331982930501L185.346875,80.23999849955241L185.68083333333334,71.58665466308594L186.01479166666667,86.43500900268555L186.34875,95.97331682840984L186.68270833333332,81.41998799641927L187.01666666666668,82.99331982930501L187.35062499999998,71.97999699910481L187.68458333333334,72.66832733154297L188.01854166666666,76.30665016174316L188.35250000000002,86.72999699910483L188.68645833333332,100.39832433064778L189.02041666666668,77.4866771697998L189.354375,77.4866771697998L189.68833333333333,79.35499699910481L190.02229166666666,77.58499399820963L190.35625,84.17334683736166L190.69020833333335,88.89334233601889L191.02416666666667,72.07835133870442L191.358125,64.80166816711426L191.69208333333333,71.48833783467612L192.02604166666666,70.89832433064778L192.36,85.2549819946289L192.6939583333333,77.19165166219075L193.02791666666667,77.09333483378093L193.361875,75.52000300089519L193.69583333333335,80.63334083557129L194.02979166666665,83.58333333333333L194.36374999999998,66.76834233601889L194.69770833333334,72.17666816711426L195.03166666666667,70.89832433064778L195.365625,74.04498799641928L195.69958333333332,80.33831532796223L196.03354166666668,73.55332883199056L196.3675,101.57835133870444L196.70145833333333,77.09333483378093L197.03541666666666,77.58499399820963L197.369375,81.61665916442871L197.70333333333335,79.6499849955241L198.03729166666665,73.65168317159018L198.37125,76.89666366577148L198.70520833333333,89.8766606648763L199.0391666666667,83.48501650492351L199.373125,77.78166516621907L199.70708333333332,70.99667867024739L200.04104166666667,82.5016606648763L200.375,72.57001050313315L200.5419791666667,92.04000600179036L200.70895833333333,72.8649984995524L200.8759375,72.2749849955241L201.04291666666666,82.89500300089519L201.20989583333332,79.35499699910481L201.376875,80.33831532796223L201.54385416666668,73.06166966756184L201.71083333333334,82.5016606648763L201.87781249999998,75.2250150044759L202.0447916666667,84.17334683736166L202.21177083333333,73.94667116800943L202.37875,76.0116621653239L202.54572916666666,75.91334533691406L202.71270833333332,83.58333333333333L202.87968750000002,79.74833933512369L203.04666666666668,70.1116771697998L203.21364583333335,89.38500150044759L203.38062499999998,80.73165766398112L203.54760416666664,71.58665466308594L203.71458333333334,68.24331982930502L203.8815625,81.91168467203775L204.04854166666667,86.63168017069498L204.21552083333333,71.97999699910481L204.38250000000002,72.57001050313315L204.54947916666669,67.94833183288574L204.71645833333332,76.0116621653239L204.88343749999999,74.14334233601888L205.05041666666665,88.10665766398111L205.21739583333334,80.14168167114258L205.384375,90.27000300089517L205.55135416666667,76.30665016174316L205.71833333333333,77.4866771697998L205.88531250000003,76.20833333333334L206.05229166666666,82.99331982930501L206.21927083333333,89.67998949686687L206.38625,87.61499849955241L206.55322916666665,79.84665616353354L206.72020833333335,84.66500600179036L206.8871875,75.32333183288574L207.05416666666667,69.32499249776205L207.22114583333334,84.17334683736166L207.38812499999997,96.85831832885742L207.55510416666667,80.23999849955241L207.72208333333333,61.94999249776204L207.8890625,74.24165916442871L208.05604166666666,88.30332883199056L208.22302083333335,75.12666066487631L208.39000000000001,75.61831982930501L208.55697916666668,83.28834533691406L208.72395833333331,74.14334233601888L208.89093749999998,93.51498349507649L209.05791666666667,74.14334233601888L209.22489583333333,71.68500900268555L209.391875,77.78166516621907L209.55885416666666,77.29000600179037L209.72583333333336,78.96165466308594L209.89281250000002,83.78000450134277L210.05979166666665,78.17500750223796L210.22677083333332,77.29000600179037L210.39374999999998,83.38666216532388L210.56072916666668,75.81499099731445L210.72770833333334,68.24331982930502L210.8946875,83.09167416890463L211.06166666666667,81.51834233601888L211.2286458333333,82.10831832885742L211.39562500000002,87.1233393351237L211.56260416666666,78.8633378346761L211.72958333333332,79.35499699910481L211.8965625,82.40334383646648L212.06354166666668,73.45501200358073L212.23052083333334,74.14334233601888L212.3975,80.04332733154297L212.56447916666667,86.43500900268555L212.7314583333333,77.97833633422852L212.8984375,89.8766606648763L213.06541666666666,77.97833633422852L213.23239583333333,77.68334833780925L213.399375,81.61665916442871L213.56635416666668,86.63168017069498L213.73333333333335,67.35831832885742L213.9003125,82.89500300089519L214.06729166666665,101.38168017069499L214.2342708333333,83.28834533691406L214.40125,78.56834983825684L214.56822916666667,89.67998949686687L214.73520833333333,77.29000600179037L214.9021875,76.5033213297526L215.06916666666666,81.91168467203775L215.23614583333335,75.61831982930501L215.403125,82.69833183288574L215.57010416666665,90.7616621653239L215.73708333333332,82.69833183288574L215.9040625,78.27332433064778L216.07104166666667,77.97833633422852L216.23802083333334,93.51498349507649L216.405,74.83167266845703L216.57197916666667,79.6499849955241L216.73895833333336,81.61665916442871L216.9059375,90.07333183288574L217.07291666666666,78.46999549865723L217.23989583333332,69.2266756693522L217.406875,80.43666966756184L217.57385416666668,82.20667266845703L217.74083333333334,93.61333783467612L217.9078125,83.97667566935222L218.07479166666664,73.25834083557129L218.24177083333333,71.29166666666667L218.40875,76.20833333333334L218.57572916666666,94.30166816711426L218.74270833333333,72.57001050313315L218.90968750000002,73.94667116800943L219.07666666666668,82.99331982930501L219.24364583333335,82.10831832885742L219.41062499999998,70.5049819946289L219.57760416666665,81.02668317159016L219.74458333333334,76.0116621653239L219.9115625,68.83333333333333L220.07854166666667,72.66832733154297L220.24552083333333,70.80000750223796L220.4125,78.96165466308594L220.5794791666667,69.03000450134277L220.74645833333335,86.33665466308594L220.9134375,83.97667566935222L221.08041666666665,75.2250150044759L221.24739583333334,82.5016606648763L221.414375,89.48331832885742L221.58135416666667,77.19165166219075L221.74833333333333,76.9950180053711L221.9153125,77.29000600179037L222.0822916666667,71.29166666666667L222.24927083333333,82.79664866129558L222.41625,80.63334083557129L222.58322916666665,88.79498799641927L222.75020833333335,73.94667116800943L222.9171875,76.9950180053711L223.08416666666668,70.0133228302002L223.25114583333334,76.40500450134277L223.41812499999997,72.8649984995524L223.58510416666667,91.54834683736165L223.75208333333333,77.4866771697998L223.9190625,64.21165466308594L224.08604166666666,87.61499849955241L224.25302083333332,85.74667867024739L224.42000000000002,68.14500300089517L224.58697916666668,71.97999699910481L224.75395833333332,80.73165766398112L224.92093749999998,70.20999399820964L225.08791666666667,89.58167266845703L225.25489583333334,88.5L225.421875,82.20667266845703L225.58885416666666,72.47165616353352L225.75583333333333,79.25668017069499L225.92281250000002,72.96331532796225L226.08979166666668,72.8649984995524L226.25677083333332,85.15666516621907L226.42374999999998,81.22331682840982L226.59072916666668,73.06166966756184L226.75770833333334,72.47165616353352L226.9246875,70.1116771697998L227.09166666666667,84.07499249776204L227.25864583333333,75.81499099731445L227.42562500000003,76.79834683736165L227.59260416666666,78.27332433064778L227.75958333333332,83.87832132975261L227.9265625,85.05834833780925L228.09354166666665,79.74833933512369L228.26052083333335,64.01498349507649L228.4275,68.14500300089517L228.59447916666667,84.66500600179036L228.7614583333333,79.6499849955241L228.9284375,99.41500600179037L229.09541666666667,88.69667116800944L229.26239583333333,93.31834983825684L229.429375,93.21999549865723L229.59635416666666,74.83167266845703L229.76333333333335,93.61333783467612L229.9303125,92.33499399820964L230.09729166666665,77.09333483378093L230.2642708333333,71.48833783467612L230.43125,74.24165916442871L230.59822916666667,75.42164866129556L230.76520833333333,65.88334083557129L230.9321875,79.84665616353354L231.09916666666666,77.58499399820963L231.26614583333335,74.34001350402832L231.43312500000002,91.84333483378093L231.60010416666665,66.375L231.76708333333332,79.15832583109538L231.93406249999998,71.58665466308594L232.10104166666667,74.24165916442871L232.26802083333334,77.09333483378093L232.435,80.33831532796223L232.60197916666667,70.0133228302002L232.76895833333336,81.125L232.9359375,72.76668167114258L233.10291666666666,72.57001050313315L233.26989583333332,79.55166816711426L233.436875,65.98165766398111L233.60385416666668,79.84665616353354L233.77083333333334,79.74833933512369L233.9378125,90.95833333333333L234.10479166666664,74.63500150044759L234.27177083333333,78.96165466308594L234.43875,71.88168017069499L234.60572916666666,67.94833183288574L234.77270833333333,78.56834983825684L234.9396875,78.17500750223796L235.10666666666668,74.73331832885742L235.27364583333335,80.83001200358072L235.440625,66.57167116800944L235.60760416666665,80.73165766398112L235.77458333333334,75.42164866129556L235.9415625,76.69999249776204L236.10854166666667,84.95999399820964L236.27552083333333,81.61665916442871L236.4425,79.35499699910481L236.6094791666667,67.26000150044759L236.77645833333335,90.17164866129558L236.9434375,82.30498949686685L237.11041666666665,76.69999249776204L237.27739583333332,80.23999849955241L237.444375,77.3883228302002L237.61135416666667,67.16168467203777L237.77833333333334,69.32499249776205L237.9453125,76.1100165049235L238.1122916666667,74.34001350402832L238.27927083333333,66.96501350402832L238.44625,74.83167266845703L238.61322916666666,78.17500750223796L238.78020833333332,82.5016606648763L238.9471875,73.45501200358073L239.11416666666668,84.8616771697998L239.28114583333334,82.20667266845703L239.44812499999998,86.04166666666667L239.6151041666667,77.97833633422852L239.78208333333333,66.375L239.9490625,80.23999849955241L240.11604166666666,72.17666816711426L240.28302083333332,75.61831982930501L240.45000000000002,79.84665616353354L240.61697916666668,74.24165916442871L240.78395833333335,78.27332433064778L240.95093749999998,87.41832733154297L241.11791666666664,58.213315327962235L241.28489583333334,79.55166816711426L241.451875,81.32167116800944L241.61885416666667,82.10831832885742L241.78583333333333,70.0133228302002L241.95281250000002,70.99667867024739L242.11979166666669,74.63500150044759L242.28677083333332,74.04498799641928L242.45374999999999,70.1116771697998L242.62072916666665,68.14500300089517L242.78770833333334,76.9950180053711L242.9546875,84.46833483378092L243.12166666666667,61.556650161743164L243.28864583333333,73.84831682840984L243.45562500000003,79.84665616353354L243.62260416666666,82.99331982930501L243.78958333333333,83.48501650492351L243.9565625,80.43666966756184L244.12354166666665,66.27668317159016L244.29052083333335,81.51834233601888L244.4575,67.7516606648763L244.62447916666667,79.45335133870444L244.79145833333334,76.1100165049235L244.95843749999997,72.76668167114258L245.12541666666667,76.0116621653239L245.29239583333333,67.65334383646648L245.459375,78.8633378346761L245.62635416666666,69.42334683736165L245.79333333333335,72.66832733154297L245.96031250000001,70.80000750223796L246.12729166666668,78.7649834950765L246.29427083333331,86.72999699910483L246.46124999999998,65.09665616353352L246.62822916666667,74.73331832885742L246.79520833333333,74.34001350402832L246.9621875,76.30665016174316L247.12916666666666,80.14168167114258L247.29614583333336,84.95999399820964L247.46312500000002,82.69833183288574L247.63010416666665,85.35333633422852L247.79708333333332,79.84665616353354L247.96406249999998,69.81665166219075L248.13104166666668,78.3716786702474L248.29802083333334,85.05834833780925L248.465,82.5016606648763L248.63197916666667,85.94334983825684L248.7989583333333,88.00834083557129L248.96593750000002,84.8616771697998L249.13291666666666,86.04166666666667L249.29989583333332,79.45335133870444L249.466875,72.07835133870442L249.63385416666668,69.81665166219075L249.80083333333334,66.86665916442871L249.9678125,79.74833933512369L250.13479166666667,83.48501650492351L250.3017708333333,69.12832132975261L250.46875,83.38666216532388L250.63572916666666,81.22331682840982L250.80270833333333,97.44833183288574L250.9696875,78.27332433064778L251.13666666666668,82.79664866129558L251.30364583333335,84.27166366577148L251.470625,88.40168317159016L251.63760416666665,73.06166966756184L251.8045833333333,65.58831532796223L251.9715625,72.47165616353352L252.13854166666667,84.8616771697998L252.30552083333333,80.33831532796223L252.4725,82.0100015004476L252.63947916666666,76.69999249776204L252.80645833333335,80.33831532796223L252.9734375,74.04498799641928L253.14041666666665,69.91500600179036L253.30739583333332,93.31834983825684L253.474375,78.17500750223796L253.64135416666667,76.89666366577148L253.80833333333334,72.76668167114258L253.9753125,82.30498949686685L254.14229166666667,72.47165616353352L254.30927083333336,95.38334083557129L254.47625,76.60167566935222L254.64322916666666,100.9883378346761L254.81020833333332,81.81333033243816L254.9771875,79.15832583109538L255.14416666666668,88.89334233601889L255.31114583333334,89.18833033243814L255.478125,86.92666816711426L255.64510416666664,72.2749849955241L255.81208333333333,81.02668317159016L255.9790625,72.2749849955241L256.1460416666667,86.2383378346761L256.3130208333333,67.45667266845703L256.48,84.17334683736166L256.64697916666665,74.63500150044759L256.81395833333335,76.60167566935222L256.9809375,69.32499249776205L257.1479166666667,85.15666516621907L257.31489583333337,84.66500600179036L257.481875,74.92998949686687L257.64885416666664,74.73331832885742L257.81583333333333,69.81665166219075L257.98281249999997,92.1383228302002L258.14979166666666,77.58499399820963L258.31677083333335,78.8633378346761L258.48375,95.18666966756184L258.6507291666667,79.25668017069499L258.81770833333337,73.94667116800943L258.9846875,61.65500450134277L259.15166666666664,78.17500750223796L259.31864583333333,83.68165016174316L259.48562499999997,73.35665766398112L259.65260416666666,82.30498949686685L259.81958333333336,78.66666666666666L259.9865625,73.75L260.1535416666667,73.25834083557129L260.3205208333334,69.81665166219075L260.4875,79.84665616353354L260.65447916666665,86.63168017069498L260.82145833333334,83.58333333333333L260.9884375,83.18999099731445L261.15541666666667,83.09167416890463L261.32239583333336,85.05834833780925L261.489375,73.84831682840984L261.65635416666663,74.73331832885742L261.8233333333333,69.42334683736165L261.9903125,78.96165466308594L262.15729166666665,89.67998949686687L262.32427083333334,86.2383378346761L262.49125,81.41998799641927L262.6582291666667,69.32499249776205L262.82520833333336,76.5033213297526L262.9921875,82.79664866129558L263.15916666666664,82.69833183288574L263.3261458333333,78.46999549865723L263.493125,98.43165016174316L263.66010416666666,71.88168017069499L263.82708333333335,87.41832733154297L263.9940625,67.85001500447592L264.1610416666667,77.97833633422852L264.32802083333337,81.51834233601888L264.495,73.25834083557129L264.66197916666664,81.02668317159016L264.82895833333333,84.17334683736166L264.9959375,76.9950180053711L265.16291666666666,63.228336334228516L265.32989583333335,62.736677169799805L265.496875,77.3883228302002L265.6638541666666,92.04000600179036L265.8308333333333,73.84831682840984L265.9978125,80.23999849955241L266.16479166666664,83.87832132975261L266.33177083333334,74.43833033243816L266.49875000000003,75.61831982930501L266.66572916666667,84.95999399820964L266.83270833333336,79.6499849955241L266.9996875,74.63500150044759L267.16666666666663,68.83333333333333L267.3336458333333,73.45501200358073L267.500625,80.14168167114258L267.66760416666665,79.94501050313313L267.83458333333334,72.07835133870442L268.00156250000003,77.78166516621907L268.16854166666667,69.91500600179036L268.33552083333336,83.97667566935222L268.5025,73.06166966756184L268.66947916666663,72.57001050313315L268.8364583333333,72.3733393351237L269.0034375,77.8799819946289L269.17041666666665,79.25668017069499L269.33739583333335,70.60333633422852L269.504375,77.58499399820963L269.6713541666667,76.60167566935222L269.8383333333333,78.3716786702474L270.0053125,77.68334833780925L270.17229166666664,85.6483243306478L270.33927083333333,84.27166366577148L270.50625,78.8633378346761L270.67322916666666,66.47331682840984L270.84020833333335,72.07835133870442L271.0071875,94.00668017069499L271.1741666666667,87.02498499552408L271.3411458333333,76.9950180053711L271.508125,72.57001050313315L271.67510416666664,80.92832883199057L271.84208333333333,90.36831982930502L272.0090625,74.83167266845703L272.17604166666666,83.09167416890463L272.3430208333333,66.17832883199056L272.51,71.97999699910481L272.6769791666667,77.68334833780925L272.8439583333333,78.56834983825684L273.0109375,81.51834233601888L273.17791666666665,81.22331682840982L273.34489583333334,73.65168317159018L273.51187500000003,86.82835133870442L273.67885416666667,72.8649984995524" style="fill: none;" fill="none"></path></g><g><path stroke="rgb(0, 153, 136)" stroke-width="2px" d="M45.084375,181.52270539601645L46.75416666666667,176.16479460398355L48.42395833333334,165.21261501312256L50.09375,156.44690640767416L51.76354166666667,152.9012362162272L53.43333333333334,145.4159345626831L55.103125,140.5307772954305L56.77291666666667,138.89583333333331L58.442708333333336,138.0685052871704L60.112500000000004,134.6213207244873L61.782291666666666,133.28183364868164L63.452083333333334,130.24834124247232L65.121875,120.06435330708823L66.79166666666666,119.98557980855307L68.46145833333333,119.86738204956055L70.13125,115.86865170796713L71.80104166666668,111.81084124247234L73.47083333333333,107.35905075073242L75.140625,107.20146624247234L76.81041666666665,105.665007909139L78.48020833333334,97.68724060058594L80.15,95.65833536783855L81.81979166666666,91.8171895345052L83.48958333333334,88.3699862162272L85.159375,91.18681399027507L86.82916666666665,92.03385416666667L88.49895833333333,89.70947329203288L90.16875,88.42910385131836L91.83854166666667,88.13362820943196L93.50833333333334,85.25768280029297L95.178125,83.09088643391927L96.84791666666668,80.01796976725261L98.51770833333333,78.83606719970703L100.1875,76.45260620117188L101.85729166666667,82.1847661336263L103.52708333333334,74.12818781534831L105.19687499999999,75.17219924926758L106.86666666666667,70.07037734985352L108.53645833333333,70.07037734985352L110.20625,70.58251762390137L111.87604166666667,70.32646624247234L113.54583333333333,71.70534006754556L115.215625,73.71455192565918L116.88541666666667,71.33105341593425L117.219375,73.75393867492676L117.55333333333334,70.91741752624512L117.88729166666667,71.35074679056804L118.22125,73.73424530029297L118.55520833333333,73.81301879882812L118.88916666666667,68.5142256418864L119.223125,66.91868718465169L119.55708333333334,70.14918835957845L119.89104166666667,70.8189131418864L120.22500000000001,68.75058364868164L120.55895833333332,68.02177874247232L120.89291666666666,68.33694775899251L121.22687499999999,71.40986442565918L121.56083333333333,70.42493311564128L121.89479166666666,68.90816815694173L122.22875,72.47356923421223L122.56270833333333,72.05989583333334L122.89666666666668,68.84908803304036L123.23062499999999,69.0657901763916L123.56458333333333,72.02050908406575L123.89854166666666,70.60224850972493L124.2325,68.23844337463379L124.56645833333333,73.59635416666667L124.90041666666667,67.21412531534831L125.234375,65.02763557434082L125.56833333333334,68.9475924173991L125.90229166666666,68.77031453450522L126.23625,65.5003890991211L126.57020833333333,68.06116549173991L126.90416666666667,68.27783012390137L127.238125,66.99746068318684L127.57208333333334,61.225876490275056L127.90604166666667,55.08004315694173L128.24,53.44511795043945L128.57395833333334,57.30595715840657L128.90791666666667,54.62702051798503L129.241875,55.78919219970703L129.57583333333332,55.355825424194336L129.90979166666668,56.87259038289389L130.24375,54.43001174926758L130.57770833333333,55.45432980855307L130.91166666666666,57.81809743245442L131.245625,57.660512924194336L131.57958333333332,57.62112617492676L131.91354166666667,59.965200424194336L132.2475,56.064974466959626L132.58145833333333,56.10436121622722L132.91541666666666,59.57125790913899L133.24937500000001,57.79840405782063L133.58333333333331,58.05449295043945L133.91729166666667,60.20159594217935L134.25125,55.41494305928548L134.58520833333333,54.055762608846024L134.91916666666665,54.5482095082601L135.253125,54.823991775512695L135.58708333333334,56.38014348347981L135.92104166666667,54.843685150146484L136.255,53.99664497375488L136.58895833333332,54.62702051798503L136.92291666666665,57.89690844217937L137.256875,55.2376651763916L137.59083333333334,55.49371655782063L137.92479166666666,52.87386004130046L138.25875,52.302602132161454L138.59270833333335,55.434636433919266L138.92666666666665,52.12532424926758L139.260625,55.17854754130046L139.59458333333333,56.12405459086099L139.92854166666666,47.12200673421225L140.2625,47.69322713216147L140.59645833333335,49.30849647521973L140.93041666666667,48.00839614868164L141.264375,47.397751490275056L141.59833333333333,48.75693194071451L141.93229166666666,51.475292841593415L142.26624999999999,49.229685465494796L142.60020833333334,46.35377756754556L142.93416666666667,48.87512969970703L143.268125,52.460186640421554L143.60208333333335,51.0813128153483L143.93604166666665,47.08258247375488L144.26999999999998,50.234310150146484L144.60395833333334,46.72802670796713L144.93791666666667,46.53105545043945L145.271875,48.67815844217935L145.60583333333335,50.72675704956055L145.93979166666668,49.4857743581136L146.27375,50.29339027404785L146.60770833333333,46.491668701171875L146.94166666666666,51.888966242472335L147.275625,48.06751378377277L147.60958333333332,46.82653109232584L147.94354166666668,48.02812703450522L148.2775,47.358364741007506L148.61145833333333,48.50088055928549L148.9454166666667,48.284178415934235L149.279375,47.65384038289389L149.61333333333332,49.28880310058594L149.94729166666667,48.67815844217935L150.28125,47.45686912536621L150.61520833333333,43.98997243245441L150.94916666666668,46.90530459086102L151.28312499999998,48.284178415934235L151.61708333333334,48.69785181681314L151.95104166666667,48.54026730855307L152.28500000000003,48.02812703450522L152.61895833333332,45.40827051798502L152.95291666666665,47.220473607381166L153.286875,44.50215021769205L153.6208333333333,44.22636795043945L153.95479166666667,46.885611216227204L154.28875,45.13248825073242L154.62270833333335,44.40364583333334L154.95666666666665,47.33867136637369L155.290625,43.93089230855304L155.62458333333333,45.50673739115396L155.95854166666666,44.3248348236084L156.29250000000002,41.76409594217935L156.62645833333332,42.31562296549481L156.96041666666667,41.42923355102539L157.294375,40.2473309834798L157.62833333333336,46.64925320943195L157.96229166666666,42.15803845723471L158.29625,41.09433364868164L158.63020833333334,40.08974647521973L158.96416666666664,40.995866775512695L159.298125,43.75361442565918L159.63208333333333,46.64925320943195L159.96604166666668,42.21715609232584L160.3,46.43255106608072L160.63395833333334,40.4049154917399L160.96791666666667,41.78378931681314L161.301875,40.129133224487305L161.63583333333335,40.109439849853516L161.96979166666665,37.86383247375488L162.30375,39.47910181681317L162.63770833333334,39.5578753153483L162.9716666666667,39.065428415934235L163.305625,43.93089230855304L163.63958333333332,40.148826599121094L163.97354166666668,41.98076057434082L164.30749999999998,40.34583536783853L164.64145833333333,38.513901392618834L164.97541666666666,40.42460886637369L165.30937500000002,38.35631688435873L165.64333333333335,39.5578753153483L165.97729166666664,41.31103579203287L166.31125,42.039878209431976L166.64520833333333,39.223012924194336L166.97916666666669,40.38522211710614L167.31312499999999,41.13375790913901L167.64708333333334,38.553288141886384L167.98104166666667,39.85335095723468L168.31500000000003,37.17441431681314L168.64895833333333,39.08512179056805L168.98291666666665,38.513901392618834L169.316875,42.965691884358705L169.65083333333334,39.045735041300446L169.98479166666667,40.7200845082601L170.31875,40.2473309834798L170.65270833333335,39.61699295043945L170.98666666666668,41.23222478230795L171.32062499999998,38.43509038289386L171.65458333333333,43.6157232920329L171.98854166666666,45.605241775512695L172.32250000000002,40.05035972595215L172.65645833333332,42.965691884358705L172.99041666666668,38.31689262390137L173.324375,38.76995277404785L173.6583333333333,35.99251174926758L173.99229166666666,43.57633654276529L174.32625,35.34248034159344L174.66020833333334,35.81523386637369L174.99416666666667,30.949769973754883L175.328125,32.880208333333314L175.66208333333333,33.530239741007506L175.99604166666668,32.21048355102539L176.33,36.32737414042154L176.6639583333333,34.18027114868164L176.99791666666667,34.6530621846517L177.331875,34.39697329203287L177.66583333333335,34.41666666666666L177.99979166666665,34.77122243245444L178.33375,37.19410769144693L178.66770833333334,39.81396420796713L179.00166666666667,34.90911356608072L179.335625,35.08639144897461L179.66958333333332,34.790915807088226L180.00354166666668,36.741047541300446L180.3375,34.88942019144696L180.67145833333333,35.57887585957846L181.00541666666666,36.42587852478027L181.33937500000002,37.2531878153483L181.67333333333335,34.90911356608072L182.00729166666665,36.89863204956055L182.34125,37.17441431681314L182.67520833333333,35.34248034159344L183.0091666666667,37.4107723236084L183.343125,33.98329989115399L183.67708333333334,35.26370684305826L184.01104166666667,35.55914497375488L184.345,36.68196741739908L184.67895833333333,35.00761795043945L185.01291666666665,34.04241752624512L185.346875,35.24397595723471L185.68083333333334,38.80937703450522L186.01479166666667,37.13502756754556L186.34875,32.78170394897461L186.68270833333332,37.90325673421225L187.01666666666668,33.54993311564127L187.35062499999998,32.880208333333314L187.68458333333334,37.01682980855304L188.01854166666666,35.34248034159344L188.35250000000002,34.4954776763916L188.68645833333332,33.6484375L189.02041666666668,36.01220512390137L189.354375,36.228907267252595L189.68833333333333,37.095603307088226L190.02229166666666,33.96360651652017L190.35625,35.165202458699554L190.69020833333335,35.22428258260092L191.02416666666667,38.39570363362631L191.358125,33.17568397521973L191.69208333333333,32.44684155782065L192.02604166666666,32.111979166666686L192.36,35.77584711710611L192.6939583333333,34.00299326578775L193.02791666666667,33.215070724487305L193.361875,35.46067810058594L193.69583333333335,33.943913141886384L194.02979166666665,36.85924530029297L194.36374999999998,31.777116775512695L194.69770833333334,31.836196899414062L195.03166666666667,31.284669876098633L195.365625,32.28925704956055L195.69958333333332,33.41204198201498L196.03354166666668,32.40745480855307L196.3675,33.904526392618806L196.70145833333333,35.79554049173993L197.03541666666666,34.278775533040374L197.369375,35.06669807434082L197.70333333333335,36.11070950826007L198.03729166666665,33.92421976725262L198.37125,38.49420801798502L198.70520833333333,36.97744305928549L199.0391666666667,35.34248034159344L199.373125,35.42129135131836L199.70708333333332,34.67275555928549L200.04104166666667,35.99251174926758L200.375,38.76995277404785L200.5419791666667,35.61826260884604L200.70895833333333,38.15930811564127L200.8759375,36.56376965840656L201.04291666666666,34.69244893391925L201.20989583333332,35.697036107381194L201.376875,35.61826260884604L201.54385416666668,34.33785565694174L201.71083333333334,36.209213892618806L201.87781249999998,36.13040288289389L202.0447916666667,40.109439849853516L202.21177083333333,37.05621655782065L202.37875,35.38186709086099L202.54572916666666,36.30768076578778L202.71270833333332,33.82571538289389L202.87968750000002,36.051629384358705L203.04666666666668,37.92295010884601L203.21364583333335,38.35631688435873L203.38062499999998,35.953125L203.54760416666664,41.64589818318686L203.71458333333334,34.20000203450522L203.8815625,39.223012924194336L204.04854166666667,34.90911356608072L204.21552083333333,38.533594767252595L204.38250000000002,34.21969540913901L204.54947916666669,35.57887585957846L204.71645833333332,35.79554049173993L204.88343749999999,38.336623509724944L205.05041666666665,37.13502756754556L205.21739583333334,35.34248034159344L205.384375,37.52897008260089L205.55135416666667,37.01682980855304L205.71833333333333,40.62158012390137L205.88531250000003,37.37138557434082L206.05229166666666,35.362173716227204L206.21927083333333,34.51517105102539L206.38625,33.76663525899252L206.55322916666665,32.95901934305829L206.72020833333335,36.32737414042154L206.8871875,37.94264348347983L207.05416666666667,35.73646036783856L207.22114583333334,35.854620615641295L207.38812499999997,35.48037147521973L207.55510416666667,33.215070724487305L207.72208333333333,34.810646692911774L207.8890625,32.56503931681317L208.05604166666666,34.83034006754559L208.22302083333335,37.2531878153483L208.39000000000001,37.76536560058594L208.55697916666668,35.57887585957846L208.72395833333331,38.553288141886384L208.89093749999998,35.125815709431976L209.05791666666667,38.04114786783853L209.22489583333333,40.75947125752765L209.391875,35.18489583333334L209.55885416666666,33.943913141886384L209.72583333333336,37.39107894897461L209.89281250000002,35.48037147521973L210.05979166666665,35.46067810058594L210.22677083333332,39.47910181681317L210.39374999999998,38.02141698201498L210.56072916666668,36.81985855102539L210.72770833333334,39.63668632507324L210.8946875,38.376010258992494L211.06166666666667,37.804752349853516L211.2286458333333,36.89863204956055L211.39562500000002,38.04114786783853L211.56260416666666,35.42129135131836L211.72958333333332,33.86510213216147L211.8965625,32.05289904276532L212.06354166666668,34.613637924194336L212.23052083333334,37.430503209431976L212.3975,35.89404487609863L212.56447916666667,39.51848856608072L212.7314583333333,38.31689262390137L212.8984375,37.647167841593415L213.06541666666666,36.544076283772796L213.23239583333333,36.99713643391928L213.399375,36.52438290913901L213.56635416666668,33.352961858113616L213.73333333333335,37.4107723236084L213.9003125,38.553288141886384L214.06729166666665,34.456053415934235L214.2342708333333,37.21380106608075L214.40125,38.1002279917399L214.56822916666667,40.03066635131836L214.73520833333333,34.633331298828125L214.9021875,36.918325424194336L215.06916666666666,35.93343162536621L215.23614583333335,36.42587852478027L215.403125,38.80937703450522L215.57010416666665,39.026041666666686L215.73708333333332,37.39107894897461L215.9040625,32.131672541300446L216.07104166666667,36.09101613362631L216.23802083333334,36.957749684651674L216.405,38.39570363362631L216.57197916666667,37.21380106608075L216.73895833333336,33.47115961710614L216.9059375,34.67275555928549L217.07291666666666,35.42129135131836L217.23989583333332,35.81523386637369L217.406875,35.59856923421222L217.57385416666668,39.00634829203287L217.74083333333334,35.65764935811359L217.9078125,35.2045892079671L218.07479166666664,35.97281837463379L218.24177083333333,36.46526527404785L218.40875,33.234764099121094L218.57572916666666,36.13040288289389L218.74270833333333,37.86383247375488L218.90968750000002,40.4049154917399L219.07666666666668,33.70751762390137L219.24364583333335,33.727248509724916L219.41062499999998,34.92880694071451L219.57760416666665,31.245245615641267L219.74458333333334,33.3332684834798L219.9115625,31.580145517985017L220.07854166666667,38.336623509724944L220.24552083333333,31.14677874247235L220.4125,31.560414632161468L220.5794791666667,31.678612391153962L220.74645833333335,34.37727991739911L220.9134375,35.165202458699554L221.08041666666665,33.037792841593415L221.24739583333334,37.68655459086099L221.414375,32.26956367492676L221.58135416666667,34.101497650146484L221.74833333333333,33.88483301798502L221.9153125,32.44684155782065L222.0822916666667,37.50927670796713L222.24927083333333,30.575520833333343L222.41625,29.76790491739908L222.58322916666665,37.98203023274738L222.75020833333335,30.63460095723471L222.9171875,32.328643798828125L223.08416666666668,34.55455780029297L223.25114583333334,31.895314534505218L223.41812499999997,34.31816228230795L223.58510416666667,35.55914497375488L223.75208333333333,36.918325424194336L223.9190625,32.8013973236084L224.08604166666666,30.930076599121094L224.25302083333332,33.392348607381166L224.42000000000002,30.63460095723471L224.58697916666668,39.597299575805664L224.75395833333332,31.402830123901367L224.92093749999998,34.92880694071451L225.08791666666667,32.97871271769205L225.25489583333334,35.677342732747405L225.421875,38.19873237609863L225.58885416666666,35.08639144897461L225.75583333333333,38.75025939941406L225.92281250000002,35.61826260884604L226.08979166666668,35.38186709086099L226.25677083333332,34.062110900878906L226.42374999999998,35.874313990275056L226.59072916666668,34.18027114868164L226.75770833333334,33.78632863362628L226.9246875,37.804752349853516L227.09166666666667,34.57425117492676L227.25864583333333,38.15930811564127L227.42562500000003,32.131672541300446L227.59260416666666,33.68782424926758L227.75958333333332,34.51517105102539L227.9265625,34.71214230855307L228.09354166666665,32.95901934305829L228.26052083333335,37.824445724487305L228.4275,34.298468907674135L228.59447916666667,38.4153970082601L228.7614583333333,31.836196899414062L228.9284375,36.42587852478027L229.09541666666667,31.85589027404785L229.26239583333333,37.39107894897461L229.429375,35.44098472595215L229.59635416666666,36.97744305928549L229.76333333333335,33.352961858113616L229.9303125,34.062110900878906L230.09729166666665,43.300554275512695L230.2642708333333,36.741047541300446L230.43125,33.66813087463379L230.59822916666667,35.06669807434082L230.76520833333333,35.874313990275056L230.9321875,32.62411944071454L231.09916666666666,36.46526527404785L231.26614583333335,34.436360041300475L231.43312500000002,34.86972681681314L231.60010416666665,35.1060848236084L231.76708333333332,34.41666666666666L231.93406249999998,39.43971506754556L232.10104166666667,35.22428258260092L232.26802083333334,31.836196899414062L232.435,37.430503209431976L232.60197916666667,36.918325424194336L232.76895833333336,33.66813087463379L232.9359375,35.61826260884604L233.10291666666666,34.51517105102539L233.26989583333332,35.55914497375488L233.436875,36.209213892618806L233.60385416666668,42.965691884358705L233.77083333333334,34.14088439941406L233.9378125,39.597299575805664L234.10479166666664,34.968231201171875L234.27177083333333,37.4107723236084L234.43875,36.24860064188641L234.60572916666666,39.597299575805664L234.77270833333333,32.3483746846517L234.9396875,32.91959508260092L235.10666666666668,33.3332684834798L235.27364583333335,37.13502756754556L235.440625,31.48164113362631L235.60760416666665,33.68782424926758L235.77458333333334,33.29388173421225L235.9415625,34.456053415934235L236.10854166666667,35.61826260884604L236.27552083333333,33.09687296549478L236.4425,35.165202458699554L236.6094791666667,34.14088439941406L236.77645833333335,39.242706298828125L236.9434375,34.18027114868164L237.11041666666665,36.26829401652017L237.27739583333332,33.27418835957843L237.444375,37.824445724487305L237.61135416666667,33.943913141886384L237.77833333333334,30.555827458699525L237.9453125,35.539451599121094L238.1122916666667,36.031936009724944L238.27927083333333,33.8060220082601L238.44625,32.97871271769205L238.61322916666666,38.11992136637372L238.78020833333332,33.62874412536621L238.9471875,36.44557189941406L239.11416666666668,34.69244893391925L239.28114583333334,33.98329989115399L239.44812499999998,33.92421976725262L239.6151041666667,38.75025939941406L239.78208333333333,36.209213892618806L239.9490625,31.16647211710611L240.11604166666666,32.111979166666686L240.28302083333332,33.31357510884604L240.45000000000002,31.48164113362631L240.61697916666668,31.737730026245117L240.78395833333335,36.56376965840656L240.95093749999998,34.21969540913901L241.11791666666664,35.99251174926758L241.28489583333334,39.51848856608072L241.451875,35.89404487609863L241.61885416666667,30.949769973754883L241.78583333333333,39.754884084065765L241.95281250000002,33.15599060058594L242.11979166666669,40.05035972595215L242.28677083333332,35.61826260884604L242.45374999999999,34.90911356608072L242.62072916666665,43.33994102478027L242.78770833333334,35.61826260884604L242.9546875,38.5729815165202L243.12166666666667,32.62411944071454L243.28864583333333,38.13961474100748L243.45562500000003,35.953125L243.62260416666666,36.26829401652017L243.78958333333333,36.87893867492676L243.9565625,31.678612391153962L244.12354166666665,32.89990170796713L244.29052083333335,35.22428258260092L244.4575,36.68196741739908L244.62447916666667,35.65764935811359L244.79145833333334,32.07259241739908L244.95843749999997,36.07132275899252L245.12541666666667,35.539451599121094L245.29239583333333,33.3332684834798L245.459375,38.73056602478027L245.62635416666666,32.62411944071454L245.79333333333335,33.037792841593415L245.96031250000001,31.993781407674163L246.12729166666668,34.71214230855307L246.29427083333331,31.560414632161468L246.46124999999998,36.32737414042154L246.62822916666667,32.21048355102539L246.79520833333333,32.76201057434082L246.9621875,36.13040288289389L247.12916666666666,35.79554049173993L247.29614583333336,33.3332684834798L247.46312500000002,33.17568397521973L247.63010416666665,32.40745480855307L247.79708333333332,36.031936009724944L247.96406249999998,39.51848856608072L248.13104166666668,39.30182393391928L248.29802083333334,36.13040288289389L248.465,37.21380106608075L248.63197916666667,35.26370684305826L248.7989583333333,35.59856923421222L248.96593750000002,33.569626490275056L249.13291666666666,32.93928845723468L249.29989583333332,31.836196899414062L249.466875,37.52897008260089L249.63385416666668,31.422561009724944L249.80083333333334,31.028580983479827L249.9678125,31.954394658406585L250.13479166666667,38.02141698201498L250.3017708333333,34.16057777404785L250.46875,33.98329989115399L250.63572916666666,36.44557189941406L250.80270833333333,34.20000203450522L250.9696875,35.97281837463379L251.13666666666668,38.376010258992494L251.30364583333335,38.92753728230795L251.470625,32.6438128153483L251.63760416666665,31.36344337463379L251.8045833333333,36.56376965840656L251.9715625,33.352961858113616L252.13854166666667,33.904526392618806L252.30552083333333,32.03316815694171L252.4725,34.23938878377277L252.63947916666666,35.34248034159344L252.80645833333335,33.6484375L252.9734375,34.968231201171875L253.14041666666665,34.101497650146484L253.30739583333332,40.58219337463379L253.474375,32.17105929056805L253.64135416666667,33.17568397521973L253.80833333333334,36.48495864868164L253.9753125,33.62874412536621L254.14229166666667,39.45940844217935L254.30927083333336,34.41666666666666L254.47625,35.697036107381194L254.64322916666666,30.752798716227232L254.81020833333332,42.1186517079671L254.9771875,35.57887585957846L255.14416666666668,30.910383224487305L255.31114583333334,33.54993311564127L255.478125,34.90911356608072L255.64510416666664,34.948500315348326L255.81208333333333,37.01682980855304L255.9790625,34.16057777404785L256.1460416666667,35.697036107381194L256.3130208333333,34.810646692911774L256.48,33.13629722595215L256.64697916666665,32.91959508260092L256.81395833333335,35.61826260884604L256.9809375,36.97744305928549L257.1479166666667,37.88356335957846L257.31489583333337,32.36806805928546L257.481875,33.41204198201498L257.64885416666664,29.984569549560547L257.81583333333333,31.737730026245117L257.98281249999997,36.81985855102539L258.14979166666666,30.83160972595215L258.31677083333335,33.58935737609863L258.48375,32.880208333333314L258.6507291666667,32.97871271769205L258.81770833333337,31.205858866373717L258.9846875,34.69244893391925L259.15166666666664,31.284669876098633L259.31864583333333,35.63795598347983L259.48562499999997,36.81985855102539L259.65260416666666,33.92421976725262L259.81958333333336,43.41875203450519L259.9865625,32.328643798828125L260.1535416666667,32.89990170796713L260.3205208333334,34.41666666666666L260.4875,34.633331298828125L260.65447916666665,33.96360651652017L260.82145833333334,32.54534594217935L260.9884375,34.55455780029297L261.15541666666667,32.89990170796713L261.32239583333336,37.095603307088226L261.489375,31.85589027404785L261.65635416666663,39.45940844217935L261.8233333333333,33.29388173421225L261.9903125,33.41204198201498L262.15729166666665,35.59856923421222L262.32427083333334,33.47115961710614L262.49125,33.76663525899252L262.6582291666667,33.392348607381166L262.82520833333336,37.2531878153483L262.9921875,34.53486442565918L263.15916666666664,33.88483301798502L263.3261458333333,32.97871271769205L263.493125,36.760740915934264L263.66010416666666,33.569626490275056L263.82708333333335,37.05621655782065L263.9940625,37.627474466959626L264.1610416666667,36.85924530029297L264.32802083333337,32.860514958699554L264.495,34.633331298828125L264.66197916666664,37.272918701171875L264.82895833333333,37.23349444071451L264.9959375,35.1060848236084L265.16291666666666,37.37138557434082L265.32989583333335,36.72135416666666L265.496875,36.34710502624512L265.6638541666666,34.16057777404785L265.8308333333333,39.61699295043945L265.9978125,32.82112820943195L266.16479166666664,34.278775533040374L266.33177083333334,35.48037147521973L266.49875000000003,37.90325673421225L266.66572916666667,37.94264348347983L266.83270833333336,32.40745480855307L266.9996875,34.456053415934235L267.16666666666663,35.97281837463379L267.3336458333333,33.943913141886384L267.500625,33.569626490275056L267.66760416666665,35.77584711710611L267.83458333333334,33.45146624247232L268.00156250000003,35.73646036783856L268.16854166666667,36.85924530029297L268.33552083333336,35.362173716227204L268.5025,34.456053415934235L268.66947916666663,36.66227404276529L268.8364583333333,32.99840609232584L269.0034375,35.75615374247232L269.17041666666665,37.2531878153483L269.33739583333335,34.062110900878906L269.504375,38.23811912536621L269.6713541666667,33.07717959086102L269.8383333333333,35.953125L270.0053125,35.165202458699554L270.17229166666664,36.11070950826007L270.33927083333333,32.663543701171875L270.50625,35.38186709086099L270.67322916666666,37.647167841593415L270.84020833333335,33.8060220082601L271.0071875,39.951855341593415L271.1741666666667,35.63795598347983L271.3411458333333,34.633331298828125L271.508125,36.28798739115396L271.67510416666664,35.65764935811359L271.84208333333333,33.25445747375488L272.0090625,36.13040288289389L272.17604166666666,35.38186709086099L272.3430208333333,37.86383247375488L272.51,36.85924530029297L272.6769791666667,32.328643798828125L272.8439583333333,28.960251490275056L273.0109375,35.42129135131836L273.17791666666665,36.7016607920329L273.34489583333334,32.21048355102539L273.51187500000003,38.21842575073242L273.67885416666667,37.13502756754556" style="fill: none;" fill="none"></path></g><g><path stroke="rgb(0, 119, 187)" stroke-width="2px" d="M49.091875,178.8683385848999L49.75979166666667,176.41000525156656L50.09375,172.8699992497762L50.76166666666667,174.93500900268555L51.095625000000005,179.8516756693522L51.42958333333333,169.82167116800943L51.76354166666667,170.70667266845703L52.097500000000004,166.3800007502238L52.43145833333334,166.7733243306478L53.099375,162.83999474843344L53.43333333333334,163.1350015004476L53.767291666666665,162.54500675201416L54.10125,163.03666591644287L54.435208333333335,162.7416591644287L54.76916666666667,161.46333408355713L55.103125,155.95667266845703L55.437083333333334,159.69333108266196L55.77104166666667,159.20167191823325L56.105000000000004,151.6300007502238L56.43895833333333,156.2516606648763L57.106875,152.71167341868082L57.44083333333334,159.30000750223795L57.774791666666665,152.61333783467612L58.10875,152.61333783467612L58.442708333333336,153.9899984995524L58.77666666666667,150.3516756693522L59.110625,152.0233243306478L59.444583333333334,151.82667191823325L59.77854166666667,152.81000900268555L60.44645833333333,148.08999474843344L60.78041666666667,148.3850015004476L61.44833333333334,149.17166741689047L61.782291666666666,150.84333483378092L62.11625,156.64500300089517L62.450208333333336,148.08999474843344L62.78416666666667,145.72999699910483L63.118125,144.2550007502238L63.78604166666667,145.04166666666666L64.12,143.07499249776203L64.45395833333333,142.09167416890463L64.78791666666666,137.3716786702474L65.121875,135.01166216532388L65.45583333333333,142.28832658131918L65.78979166666666,142.58333333333334L66.45770833333333,139.2399984995524L66.79166666666666,135.30665016174316L67.125625,131.96331532796225L67.45958333333333,138.74833933512372L67.79354166666667,132.2583408355713L68.1275,132.15998649597168L68.46145833333333,136.19165166219074L68.79541666666667,128.42334683736166L69.46333333333332,129.70165316263837L69.79729166666667,132.84831682840982L70.13125,131.57001050313315L70.46520833333334,129.80000750223795L70.79916666666666,127.34167416890463L71.13312499999999,122.32665316263834L71.46708333333333,129.8983243306478L71.80104166666668,131.0783513387044L72.13499999999999,131.4716561635335L72.46895833333333,125.375L72.80291666666668,121.34333483378093L73.136875,124.58831532796223L73.47083333333333,124.09665616353354L73.80479166666666,127.04664866129556L74.13875,124.19501050313313L74.47270833333334,122.42500750223796L74.80666666666666,123.50668017069499L75.140625,122.91666666666666L75.47458333333334,123.8999849955241L75.80854166666667,122.32665316263834L76.47645833333333,119.27834383646646L76.81041666666665,118.8850015004476L77.81229166666667,115.34499549865723L78.14625000000001,113.28000450134277L78.81416666666668,111.80498949686687L79.148125,112.29664866129558L79.81604166666666,112.39500300089517L80.48395833333333,111.51000150044759L80.81791666666668,108.16666666666667L81.151875,103.44667116800944L81.48583333333335,111.60831832885742L81.81979166666666,109.14998499552408L82.15374999999999,111.51000150044759L82.82166666666667,103.93833033243816L83.155625,106.19999249776204L83.48958333333334,101.97165616353354L83.82354166666667,109.2483393351237L84.49145833333333,109.34665616353352L84.82541666666667,105.31499099731445L85.159375,107.96999549865723L85.49333333333334,105.11831982930501L85.82729166666667,107.28166516621907L86.16125000000001,104.33167266845703L86.49520833333334,110.82167116800944L87.163125,106.8883228302002L87.49708333333334,109.83831532796223L88.165,106.4950180053711L88.49895833333333,104.23331832885742L89.166875,110.42832883199056L89.50083333333333,106.69165166219076L89.83479166666666,100.10333633422852L90.50270833333333,105.61001650492351L90.83666666666667,102.75834083557129L91.170625,103.93833033243816L91.83854166666667,106.19999249776204L92.1725,101.28332583109538L92.50645833333333,106.4950180053711L92.84041666666667,105.21667416890463L93.50833333333334,100.69334983825684L93.84229166666667,99.5133228302002L94.17625000000001,96.95667266845703L94.51020833333334,99.6116771697998L94.84416666666667,92.1383228302002L95.178125,100.79166666666666L95.51208333333334,97.25166066487631L95.84604166666666,99.70999399820963L96.18,97.44833183288574L96.84791666666668,97.05498949686687L97.18187499999999,96.07167116800943L98.18375,95.38334083557129L99.51958333333334,96.36665916442871L99.85354166666666,95.48165766398112L100.1875,94.79332733154297L100.52145833333333,99.41500600179037L100.85541666666667,100.39832433064778L101.189375,100.4966786702474L101.85729166666667,98.6283213297526L102.19125000000001,92.2366771697998L102.52520833333332,94.79332733154297L102.85916666666667,98.2350165049235L103.193125,93.02332433064778L104.19500000000001,93.71165466308594L104.52895833333334,96.66168467203777L104.86291666666668,91.25332132975261L105.19687499999999,92.04000600179036L105.53083333333333,88.79498799641927L105.86479166666666,89.77834383646648L106.19875,91.44999249776205L106.53270833333333,86.92666816711426L106.86666666666667,86.82835133870442L107.200625,94.3999849955241L107.53458333333333,92.53166516621908L107.86854166666666,93.51498349507649L108.53645833333333,87.02498499552408L108.87041666666667,89.18833033243814L109.204375,90.56499099731445L109.87229166666667,86.43500900268555L110.20625,86.33665466308594L110.54020833333333,95.48165766398112L110.87416666666667,87.32001050313313L111.208125,91.44999249776205L111.54208333333334,90.7616621653239L111.87604166666667,88.20501200358073L112.54395833333334,90.46667416890462L112.87791666666666,91.44999249776205L113.54583333333333,87.22165616353352L113.87979166666666,87.32001050313313L114.21375,92.82665316263834L114.88166666666667,88.69667116800944L115.215625,93.31834983825684L115.54958333333333,87.61499849955241L115.88354166666666,87.32001050313313L116.2175,91.94165166219075L116.55145833333333,90.86001650492351L116.88541666666667,88.40168317159016L117.05239583333332,91.15500450134277L117.219375,89.48331832885742L117.38635416666666,89.77834383646648L117.55333333333334,88.99165916442871L117.7203125,86.92666816711426L117.88729166666667,91.25332132975261L118.22125,92.6299819946289L118.38822916666668,87.32001050313313L118.55520833333333,89.18833033243814L118.7221875,85.15666516621907L119.05614583333335,88.5L119.223125,82.69833183288574L119.39010416666666,90.7616621653239L119.72406249999999,85.94334983825684L120.05802083333333,89.48331832885742L120.39197916666667,88.79498799641927L120.55895833333332,84.07499249776204L120.7259375,86.92666816711426L120.89291666666666,84.27166366577148L121.05989583333334,83.18999099731445L121.39385416666667,86.2383378346761L121.56083333333333,86.72999699910483L121.72781250000001,85.94334983825684L121.89479166666666,86.53332583109538L122.06177083333333,86.43500900268555L122.22875,91.25332132975261L122.39572916666667,88.99165916442871L122.56270833333333,88.79498799641927L123.39760416666667,84.46833483378092L123.73156250000001,89.28668467203777L123.89854166666666,84.7633228302002L124.2325,81.32167116800944L124.39947916666665,86.04166666666667L124.56645833333333,91.3516756693522L124.7334375,91.44999249776205L124.90041666666667,84.56665166219076L125.06739583333334,80.63334083557129L125.234375,77.4866771697998L125.40135416666666,84.3700180053711L125.56833333333334,86.82835133870442L125.7353125,83.28834533691406L125.90229166666666,86.04166666666667L126.40322916666668,79.94501050313313L126.57020833333333,87.02498499552408L126.7371875,79.15832583109538L126.90416666666667,83.68165016174316L127.07114583333333,88.30332883199056L127.40510416666666,77.4866771697998L127.57208333333334,76.69999249776204L127.7390625,73.84831682840984L127.90604166666667,69.32499249776205L128.07302083333335,72.8649984995524L128.24,68.83333333333333L128.40697916666667,72.57001050313315L128.57395833333334,70.1116771697998L128.7409375,74.24165916442871L128.90791666666667,67.45667266845703L129.07489583333333,65.68666966756186L129.241875,70.89832433064778L129.40885416666669,71.68500900268555L129.57583333333332,76.5033213297526L129.74281249999999,70.60333633422852L129.90979166666668,70.30834833780924L130.07677083333334,71.29166666666667L130.24375,69.91500600179036L130.41072916666667,69.03000450134277L130.7446875,71.97999699910481L131.07864583333333,66.47331682840984L131.41260416666668,75.12666066487631L131.57958333333332,74.24165916442871L131.7465625,74.34001350402832L131.91354166666667,76.5033213297526L132.08052083333334,76.69999249776204L132.2475,74.83167266845703L132.41447916666667,73.15998649597168L132.58145833333333,73.45501200358073L132.7484375,73.45501200358073L132.91541666666666,78.17500750223796L133.08239583333332,77.68334833780925L133.24937500000001,75.32333183288574L133.41635416666668,67.7516606648763L133.58333333333331,73.35665766398112L133.7503125,75.2250150044759L133.91729166666667,80.43666966756184L134.08427083333333,72.8649984995524L134.25125,72.07835133870442L134.41822916666666,72.8649984995524L134.58520833333333,70.5049819946289L134.7521875,70.5049819946289L134.91916666666665,73.75L135.08614583333332,76.60167566935222L135.253125,74.14334233601888L135.42010416666668,77.68334833780925L135.58708333333334,73.06166966756184L135.7540625,78.27332433064778L135.92104166666667,74.04498799641928L136.08802083333333,75.42164866129556L136.255,71.38998349507649L136.42197916666666,72.57001050313315L136.58895833333332,72.47165616353352L136.92291666666665,79.74833933512369L137.08989583333334,72.76668167114258L137.42385416666667,68.04664866129558L137.59083333333334,72.8649984995524L137.7578125,72.57001050313315L137.92479166666666,67.45667266845703L138.09177083333333,70.30834833780924L138.25875,69.32499249776205L138.42572916666666,72.8649984995524L138.7596875,74.43833033243816L138.92666666666665,69.6200180053711L139.260625,72.17666816711426L139.42760416666667,70.1116771697998L139.59458333333333,73.25834083557129L139.7615625,72.76668167114258L139.92854166666666,63.425007502237946L140.2625,65.58831532796223L140.42947916666665,74.34001350402832L140.59645833333335,66.66998799641927L140.7634375,64.60499699910483L141.09739583333334,63.818349838256836L141.264375,63.129981994628906L141.43135416666667,64.9983393351237L141.59833333333333,62.736677169799805L141.7653125,65.19501050313313L142.09927083333335,73.65168317159018L142.26624999999999,69.32499249776205L142.43322916666668,67.65334383646648L142.7671875,63.523324330647796L142.93416666666667,65.98165766398111L143.268125,70.30834833780924L143.60208333333335,68.04664866129558L143.7690625,68.34167416890462L143.93604166666665,64.60499699910483L144.26999999999998,68.24331982930502L144.43697916666667,66.375L144.60395833333334,64.9983393351237L144.93791666666667,62.93334833780925L145.10489583333333,70.70165316263834L145.271875,66.76834233601889L145.43885416666666,70.80000750223796L145.60583333333335,68.04664866129558L145.7728125,62.54000600179036L145.93979166666668,71.19334983825684L146.27375,68.6366621653239L146.60770833333333,64.60499699910483L146.94166666666666,69.81665166219075L147.275625,65.39168167114258L147.77656249999998,63.71999549865723L147.94354166666668,67.55498949686687L148.2775,65.39168167114258L148.44447916666667,63.228336334228516L148.61145833333333,64.50668017069498L148.7784375,64.89998499552408L148.9454166666667,68.04664866129558L149.279375,67.06333033243814L149.44635416666668,65.98165766398111L149.61333333333332,69.81665166219075L149.7803125,63.818349838256836L149.94729166666667,67.35831832885742L150.11427083333334,67.35831832885742L150.28125,65.29332733154297L150.44822916666666,64.1133378346761L150.61520833333333,60.278343836466476L150.78218750000002,58.311669667561844L150.94916666666668,63.228336334228516L151.11614583333332,62.146663665771484L151.45010416666668,67.65334383646648L151.61708333333334,65.48999849955241L151.7840625,64.50668017069498L151.95104166666667,67.65334383646648L152.11802083333333,66.375L152.28500000000003,68.34167416890462L152.45197916666666,60.96667416890463L152.61895833333332,65.78498649597168L152.7859375,64.01498349507649L152.95291666666665,66.08001200358073L153.11989583333335,65.39168167114258L153.286875,62.343334833780915L153.45385416666667,64.21165466308594L153.6208333333333,64.60499699910483L153.7878125,63.62167867024739L153.95479166666667,66.375L154.12177083333333,60.08167266845703L154.28875,64.01498349507649L154.45572916666666,64.80166816711426L154.7896875,59.49165916442871L154.95666666666665,67.26000150044759L155.45760416666667,61.85167566935222L155.62458333333333,64.80166816711426L155.7915625,56.93500900268555L155.95854166666666,64.01498349507649L156.12552083333335,61.16334533691406L156.29250000000002,57.82001050313313L156.45947916666665,56.05000750223796L156.62645833333332,59.09831682840982L156.79343749999998,56.14832433064778L157.12739583333334,57.62333933512369L157.294375,58.114998499552414L157.46135416666667,55.95165316263835L157.96229166666666,54.378321329752595L158.12927083333332,57.82001050313313L158.46322916666668,56.83665466308594L158.96416666666664,58.50834083557129L159.13114583333333,60.86831982930501L159.298125,63.523324330647796L159.46510416666666,63.228336334228516L159.63208333333333,61.45833333333333L159.7990625,55.361677169799805L159.96604166666668,58.213315327962235L160.13302083333335,62.83499399820964L160.3,66.47331682840984L160.46697916666665,65.29332733154297L160.63395833333334,56.93500900268555L160.96791666666667,59.59001350402832L161.13489583333333,56.34499549865723L161.301875,56.93500900268555L161.4688541666667,59.8850015004476L161.63583333333335,58.50834083557129L161.8028125,56.83665466308594L161.96979166666665,52.411684672037765L162.30375,55.754981994628906L162.47072916666667,64.70335133870442L162.63770833333334,58.606657663981125L162.8046875,51.723316828409835L163.8065625,58.606657663981125L164.14052083333334,55.165006001790374L164.30749999999998,57.03332583109538L164.4744791666667,52.11665916442871L164.64145833333333,58.40998649597168L164.8084375,58.80332883199057L164.97541666666666,59.09831682840982L165.14239583333332,59.294987996419266L165.30937500000002,56.14832433064778L165.47635416666668,57.72165616353354L165.64333333333335,57.13168017069499L165.81031249999998,56.54166666666666L165.97729166666664,63.71999549865723L166.14427083333334,58.70501200358072L166.31125,60.67164866129558L166.47822916666667,56.83665466308594L166.64520833333333,57.13168017069499L166.81218750000002,54.47667566935222L167.14614583333332,55.853336334228516L167.31312499999999,57.62333933512369L167.48010416666665,54.08333333333334L167.8140625,61.94999249776204L167.98104166666667,60.17998949686685L168.14802083333333,50.2483393351237L168.31500000000003,52.018342336018875L168.48197916666666,59.98331832885742L168.64895833333333,51.82167116800943L168.8159375,58.901683171590165L168.98291666666665,52.90334383646646L169.14989583333335,59L169.316875,66.375L169.48385416666667,53.98501650492349L169.65083333333334,57.72165616353354L169.81781249999997,58.01668167114258L169.98479166666667,56.54166666666666L170.15177083333333,56.34499549865723L170.31875,61.75332132975261L170.48572916666666,56.93500900268555L170.65270833333335,57.32835133870444L170.81968750000001,59.393342336018875L170.98666666666668,58.606657663981125L171.32062499999998,57.52498499552409L171.48760416666667,60.57333183288574L171.65458333333333,64.01498349507649L171.8215625,59.8850015004476L171.98854166666666,66.375L172.15552083333336,60.47501500447591L172.32250000000002,57.52498499552409L172.48947916666665,53.49331982930501L172.65645833333332,60.77000300089519L172.82343749999998,57.22999699910481L172.99041666666668,52.21501350402832L173.15739583333334,50.83831532796225L173.324375,58.50834083557129L173.49135416666667,51.91998799641928L173.82531250000002,56.93500900268555L173.99229166666666,61.45833333333333L174.15927083333332,56.83665466308594L174.49322916666668,57.42666816711426L174.66020833333334,54.181650161743164L174.8271875,53.39500300089519L174.99416666666667,47.691651662190765L175.1611458333333,51.330012003580734L175.328125,53.68999099731445L175.49510416666666,49.26498349507649L175.66208333333333,51.52668317159018L175.8290625,51.428328831990555L175.99604166666668,50.05166816711426L176.16302083333335,49.16666666666667L176.33,53.8866621653239L176.6639583333333,50.05166816711426L176.99791666666667,52.21501350402832L177.16489583333333,44.74165916442871L177.331875,47.888322830200195L177.8328125,54.47667566935222L178.50072916666667,51.330012003580734L178.66770833333334,64.01498349507649L178.8346875,55.361677169799805L179.00166666666667,53.59167416890462L179.16864583333336,49.56000900268555L179.335625,54.47667566935222L179.50260416666666,50.64168167114258L179.66958333333332,52.80498949686687L180.17052083333334,54.870018005371094L180.3375,52.60831832885742L180.50447916666664,55.55834833780925L180.67145833333333,55.55834833780925L181.00541666666666,55.853336334228516L181.17239583333333,48.675007502237975L181.33937500000002,54.08333333333334L181.67333333333335,52.70667266845703L181.84031249999998,49.16666666666667L182.00729166666665,57.91832733154297L182.17427083333334,53.19833183288574L182.34125,57.91832733154297L182.50822916666667,55.853336334228516L182.67520833333333,50.7399984995524L182.8421875,61.261662165323884L183.0091666666667,54.870018005371094L183.17614583333335,59.8850015004476L183.343125,53.19833183288574L183.51010416666665,58.80332883199057L183.67708333333334,57.62333933512369L183.8440625,56.63998349507651L184.01104166666667,55.853336334228516L184.17802083333333,59.196671168009445L184.67895833333333,54.181650161743164L184.8459375,56.83665466308594L185.01291666666665,53.19833183288574L185.17989583333335,52.018342336018875L185.346875,54.08333333333334L185.51385416666668,56.7383378346761L185.68083333333334,58.114998499552414L185.84781249999997,53.98501650492349L186.01479166666667,60.278343836466476L186.18177083333333,54.28000450134277L186.34875,50.44501050313315L186.51572916666666,51.91998799641928L186.68270833333332,56.7383378346761L186.84968750000002,54.181650161743164L187.18364583333332,55.65666516621907L187.35062499999998,51.82167116800943L187.51760416666667,52.80498949686687L187.68458333333334,60.278343836466476L187.8515625,51.330012003580734L188.01854166666666,54.378321329752595L188.18552083333333,61.94999249776204L188.35250000000002,54.870018005371094L188.51947916666668,56.93500900268555L188.68645833333332,53.10001500447591L188.85343749999998,56.54166666666666L189.02041666666668,57.32835133870444L189.18739583333334,51.91998799641928L189.354375,57.82001050313313L189.52135416666667,56.54166666666666L189.68833333333333,58.40998649597168L189.85531250000003,57.91832733154297L190.02229166666666,57.62333933512369L190.18927083333332,57.42666816711426L190.35625,56.246678670247405L190.69020833333335,54.378321329752595L191.02416666666667,60.3766606648763L191.358125,55.361677169799805L191.8590625,50.44501050313315L192.02604166666666,53.10001500447591L192.19302083333335,53.98501650492349L192.36,57.13168017069499L192.52697916666665,60.3766606648763L192.6939583333333,53.49331982930501L192.8609375,58.01668167114258L193.02791666666667,54.771663665771484L193.19489583333333,54.08333333333334L193.361875,54.67334683736165L193.52885416666666,56.05000750223796L193.69583333333335,53.78834533691406L193.86281250000002,47.495018005371094L194.02979166666665,57.13168017069499L194.36374999999998,53.39500300089519L194.53072916666667,47.790006001790346L194.69770833333334,48.96999549865723L195.03166666666667,48.478336334228516L195.19864583333336,54.870018005371094L195.365625,55.55834833780925L195.53260416666666,48.084993998209626L195.69958333333332,54.08333333333334L195.8665625,55.06665166219075L196.03354166666668,50.14998499552409L196.20052083333334,59.294987996419266L196.3675,52.60831832885742L196.70145833333333,57.42666816711426L196.8684375,53.19833183288574L197.03541666666666,53.68999099731445L197.20239583333333,58.80332883199057L197.369375,56.05000750223796L197.70333333333335,54.28000450134277L197.8703125,60.17998949686685L198.03729166666665,49.85499699910481L198.20427083333334,54.771663665771484L198.37125,60.47501500447591L198.53822916666667,62.441651662190765L198.70520833333333,61.65500450134277L198.8721875,55.853336334228516L199.0391666666667,56.7383378346761L199.20614583333335,60.3766606648763L199.373125,57.82001050313313L199.54010416666665,54.67334683736165L199.70708333333332,52.70667266845703L199.8740625,57.42666816711426L200.20802083333334,59.8850015004476L200.375,59.8850015004476L200.5419791666667,56.05000750223796L200.70895833333333,61.45833333333333L200.8759375,55.06665166219075L201.04291666666666,55.165006001790374L201.20989583333332,55.65666516621907L201.376875,57.52498499552409L201.87781249999998,59.78668467203775L202.0447916666667,61.85167566935222L202.37875,57.72165616353354L202.54572916666666,54.08333333333334L202.71270833333332,54.47667566935222L202.87968750000002,59.78668467203775L203.04666666666668,59.49165916442871L203.21364583333335,62.736677169799805L203.38062499999998,55.95165316263835L203.54760416666664,65.39168167114258L203.71458333333334,53.78834533691406L203.8815625,61.85167566935222L204.04854166666667,54.870018005371094L204.21552083333333,59.294987996419266L204.38250000000002,55.754981994628906L204.54947916666669,56.63998349507651L204.71645833333332,54.96833483378093L205.05041666666665,55.55834833780925L205.21739583333334,53.00166066487631L205.384375,56.63998349507651L205.55135416666667,57.03332583109538L205.71833333333333,59.393342336018875L205.88531250000003,60.3766606648763L206.05229166666666,57.03332583109538L206.21927083333333,54.96833483378093L206.38625,52.70667266845703L206.55322916666665,52.70667266845703L206.72020833333335,58.50834083557129L206.8871875,56.63998349507651L207.05416666666667,54.57499249776204L207.22114583333334,57.52498499552409L207.38812499999997,58.01668167114258L207.55510416666667,53.98501650492349L207.72208333333333,51.723316828409835L207.8890625,52.11665916442871L208.05604166666666,53.49331982930501L208.22302083333335,58.901683171590165L208.39000000000001,55.95165316263835L208.55697916666668,56.246678670247405L208.72395833333331,58.80332883199057L209.05791666666667,59.688330332438156L209.22489583333333,58.213315327962235L209.391875,56.246678670247405L209.55885416666666,53.19833183288574L209.72583333333336,59.78668467203775L209.89281250000002,55.165006001790374L210.05979166666665,53.00166066487631L210.22677083333332,58.213315327962235L210.56072916666668,54.870018005371094L210.72770833333334,61.06499099731445L210.8946875,60.3766606648763L211.06166666666667,63.818349838256836L211.2286458333333,59.294987996419266L211.39562500000002,58.70501200358072L211.72958333333332,51.625L211.8965625,51.330012003580734L212.06354166666668,52.313330332438156L212.23052083333334,59.294987996419266L212.56447916666667,57.42666816711426L212.7314583333333,58.213315327962235L212.8984375,58.213315327962235L213.06541666666666,56.83665466308594L213.399375,58.50834083557129L213.56635416666668,53.68999099731445L213.73333333333335,57.91832733154297L213.9003125,57.72165616353354L214.06729166666665,53.8866621653239L214.2342708333333,59.09831682840982L214.40125,60.57333183288574L214.56822916666667,61.261662165323884L214.73520833333333,55.263322830200195L214.9021875,55.65666516621907L215.06916666666666,55.95165316263835L215.23614583333335,58.01668167114258L215.403125,58.213315327962235L215.73708333333332,57.13168017069499L215.9040625,53.19833183288574L216.23802083333334,58.114998499552414L216.405,62.146663665771484L216.57197916666667,60.17998949686685L216.73895833333336,54.378321329752595L217.07291666666666,54.47667566935222L217.23989583333332,57.03332583109538L217.406875,50.54332733154297L217.57385416666668,62.245018005371094L217.9078125,55.754981994628906L218.24177083333333,55.263322830200195L218.57572916666666,57.62333933512369L218.74270833333333,57.42666816711426L218.90968750000002,58.901683171590165L219.07666666666668,53.49331982930501L219.24364583333335,53.8866621653239L219.57760416666665,53.68999099731445L219.9115625,53.59167416890462L220.07854166666667,57.62333933512369L220.24552083333333,51.82167116800943L220.4125,49.75668017069499L220.5794791666667,55.459993998209626L220.9134375,54.57499249776204L221.08041666666665,53.78834533691406L221.24739583333334,57.82001050313313L221.414375,52.411684672037765L221.58135416666667,54.96833483378093L221.74833333333333,54.870018005371094L221.9153125,55.06665166219075L222.0822916666667,58.70501200358072L222.24927083333333,48.675007502237975L222.41625,50.7399984995524L222.58322916666665,59.49165916442871L222.75020833333335,49.068349838256836L222.9171875,51.13334083557129L223.08416666666668,58.606657663981125L223.25114583333334,54.47667566935222L223.41812499999997,54.47667566935222L223.58510416666667,54.47667566935222L223.75208333333333,53.59167416890462L223.9190625,54.47667566935222L224.08604166666666,52.411684672037765L224.25302083333332,50.64168167114258L224.42000000000002,53.10001500447591L224.58697916666668,62.146663665771484L224.75395833333332,53.10001500447591L224.92093749999998,54.378321329752595L225.08791666666667,52.21501350402832L225.25489583333334,57.32835133870444L225.421875,55.55834833780925L225.75583333333333,58.213315327962235L225.92281250000002,54.771663665771484L226.08979166666668,55.853336334228516L226.25677083333332,55.263322830200195L226.42374999999998,56.34499549865723L226.59072916666668,53.29664866129556L226.75770833333334,52.018342336018875L226.9246875,55.459993998209626L227.09166666666667,54.378321329752595L227.25864583333333,55.06665166219075L227.42562500000003,47.101675669352204L227.59260416666666,55.55834833780925L227.9265625,52.60831832885742L228.09354166666665,50.54332733154297L228.26052083333335,59.688330332438156L228.4275,51.625L228.7614583333333,51.231657663981125L228.9284375,55.65666516621907L229.09541666666667,49.26498349507649L229.26239583333333,57.03332583109538L229.429375,53.59167416890462L229.59635416666666,55.55834833780925L229.9303125,53.19833183288574L230.09729166666665,60.77000300089519L230.43125,48.87167867024738L230.59822916666667,53.78834533691406L230.76520833333333,52.510001500447586L230.9321875,52.60831832885742L231.09916666666666,55.361677169799805L231.26614583333335,48.183348337809235L231.60010416666665,54.181650161743164L231.93406249999998,59L232.26802083333334,46.61001650492349L232.435,56.83665466308594L232.60197916666667,58.213315327962235L232.76895833333336,54.08333333333334L232.9359375,54.870018005371094L233.26989583333332,53.8866621653239L233.436875,53.49331982930501L233.60385416666668,64.01498349507649L233.9378125,59.294987996419266L234.10479166666664,53.19833183288574L234.27177083333333,56.63998349507651L234.43875,55.65666516621907L234.60572916666666,59.8850015004476L234.77270833333333,49.75668017069499L234.9396875,48.87167867024738L235.10666666666668,54.378321329752595L235.27364583333335,52.90334383646646L235.440625,48.773324330647796L235.60760416666665,50.05166816711426L235.77458333333334,51.723316828409835L235.9415625,52.411684672037765L236.10854166666667,54.96833483378093L236.27552083333333,51.723316828409835L236.4425,51.82167116800943L236.6094791666667,52.411684672037765L236.9434375,53.98501650492349L237.27739583333332,52.80498949686687L237.444375,57.91832733154297L237.77833333333334,50.14998499552409L237.9453125,54.57499249776204L238.1122916666667,57.42666816711426L238.27927083333333,51.13334083557129L238.44625,53.29664866129556L238.61322916666666,58.606657663981125L238.78020833333332,55.06665166219075L238.9471875,53.68999099731445L239.11416666666668,51.82167116800943L239.28114583333334,53.59167416890462L239.44812499999998,49.363337834676116L239.6151041666667,60.96667416890463L239.9490625,49.46165466308594L240.11604166666666,51.330012003580734L240.28302083333332,51.231657663981125L240.45000000000002,51.330012003580734L240.61697916666668,51.231657663981125L240.78395833333335,59L241.11791666666664,53.8866621653239L241.451875,55.459993998209626L241.61885416666667,50.64168167114258L241.95281250000002,49.46165466308594L242.11979166666669,59.294987996419266L242.28677083333332,54.870018005371094L242.45374999999999,58.213315327962235L242.62072916666665,65.88334083557129L242.78770833333334,56.63998349507651L242.9546875,57.22999699910481L243.28864583333333,60.278343836466476L243.45562500000003,58.114998499552414L243.62260416666666,57.13168017069499L243.9565625,48.281665166219085L244.12354166666665,53.59167416890462L244.29052083333335,55.06665166219075L244.4575,59.78668467203775L244.79145833333334,48.478336334228516L244.95843749999997,57.82001050313313L245.12541666666667,54.378321329752595L245.29239583333333,54.28000450134277L245.459375,60.67164866129558L245.62635416666666,54.08333333333334L245.79333333333335,51.625L245.96031250000001,53.49331982930501L246.12729166666668,52.70667266845703L246.29427083333331,51.91998799641928L246.46124999999998,56.83665466308594L246.62822916666667,51.91998799641928L246.9621875,57.22999699910481L247.12916666666666,57.03332583109538L247.29614583333336,52.510001500447586L247.46312500000002,52.21501350402832L247.63010416666665,51.625L247.79708333333332,57.91832733154297L247.96406249999998,62.736677169799805L248.13104166666668,62.146663665771484L248.29802083333334,59.294987996419266L248.465,57.32835133870444L248.63197916666667,56.34499549865723L248.7989583333333,54.47667566935222L248.96593750000002,55.06665166219075L249.13291666666666,50.14998499552409L249.29989583333332,48.773324330647796L249.466875,58.50834083557129L249.63385416666668,47.59333483378094L249.9678125,51.625L250.13479166666667,60.08167266845703L250.3017708333333,55.55834833780925L250.46875,51.428328831990555L250.63572916666666,54.181650161743164L250.80270833333333,49.068349838256836L251.13666666666668,56.83665466308594L251.30364583333335,57.91832733154297L251.470625,49.56000900268555L251.63760416666665,51.52668317159018L251.8045833333333,54.47667566935222L252.4725,52.90334383646646L252.63947916666666,53.10001500447591L252.80645833333335,51.625L252.9734375,49.46165466308594L253.14041666666665,53.10001500447591L253.30739583333332,59L253.474375,52.018342336018875L253.64135416666667,53.59167416890462L253.80833333333334,57.91832733154297L253.9753125,51.330012003580734L254.14229166666667,60.3766606648763L254.30927083333336,53.19833183288574L254.47625,57.32835133870444L254.64322916666666,48.773324330647796L254.81020833333332,62.146663665771484L254.9771875,54.771663665771484L255.14416666666668,49.068349838256836L255.31114583333334,54.28000450134277L255.478125,54.771663665771484L255.64510416666664,54.378321329752595L255.81208333333333,57.52498499552409L255.9790625,54.57499249776204L256.1460416666667,55.55834833780925L256.3130208333333,54.57499249776204L256.48,55.361677169799805L256.81395833333335,52.70667266845703L257.1479166666667,53.68999099731445L257.31489583333337,47.691651662190765L257.481875,54.378321329752595L257.64885416666664,50.64168167114258L257.81583333333333,50.2483393351237L258.14979166666666,48.084993998209626L258.48375,54.67334683736165L258.6507291666667,54.57499249776204L258.81770833333337,48.281665166219085L258.9846875,53.98501650492349L259.31864583333333,51.82167116800943L259.48562499999997,58.80332883199057L259.65260416666666,56.14832433064778L259.81958333333336,63.03166516621907L259.9865625,54.181650161743164L260.3205208333334,54.47667566935222L260.4875,54.870018005371094L260.65447916666665,58.40998649597168L260.82145833333334,53.39500300089519L261.15541666666667,48.773324330647796L261.32239583333336,53.10001500447591L261.489375,50.54332733154297L261.9903125,54.96833483378093L262.15729166666665,56.14832433064778L262.32427083333334,51.625L262.49125,52.60831832885742L262.6582291666667,51.330012003580734L262.82520833333336,58.80332883199057L262.9921875,54.96833483378093L263.15916666666664,56.14832433064778L263.3261458333333,52.313330332438156L263.493125,58.901683171590165L263.66010416666666,55.95165316263835L263.82708333333335,55.95165316263835L263.9940625,58.213315327962235L264.32802083333337,52.018342336018875L264.495,54.378321329752595L264.66197916666664,57.91832733154297L264.9959375,54.08333333333334L265.16291666666666,54.47667566935222L265.32989583333335,55.165006001790374L265.496875,56.246678670247405L265.6638541666666,54.96833483378093L265.8308333333333,59.98331832885742L265.9978125,50.936669667561844L266.16479166666664,53.19833183288574L266.33177083333334,57.52498499552409L266.49875000000003,56.63998349507651L266.66572916666667,55.754981994628906L266.9996875,55.06665166219075L267.16666666666663,54.181650161743164L267.3336458333333,56.7383378346761L267.500625,55.95165316263835L267.66760416666665,54.28000450134277L267.83458333333334,52.313330332438156L268.00156250000003,57.32835133870444L268.16854166666667,59L268.33552083333336,54.181650161743164L268.5025,52.11665916442871L268.66947916666663,60.278343836466476L268.8364583333333,54.870018005371094L269.0034375,54.67334683736165L269.17041666666665,57.13168017069499L269.504375,59.49165916442871L269.6713541666667,55.06665166219075L269.8383333333333,54.181650161743164L270.0053125,56.7383378346761L270.17229166666664,57.91832733154297L270.33927083333333,50.44501050313315L270.50625,57.72165616353354L271.1741666666667,51.52668317159018L271.3411458333333,55.55834833780925L271.508125,57.13168017069499L271.67510416666664,57.82001050313313L272.0090625,58.50834083557129L272.17604166666666,55.95165316263835L272.3430208333333,59.8850015004476L272.51,52.80498949686687L272.6769791666667,52.018342336018875L273.0109375,56.05000750223796L273.17791666666665,58.70501200358072L273.34489583333334,52.018342336018875L273.51187500000003,60.278343836466476L273.67885416666667,56.7383378346761" style="fill: none;" fill="none"></path></g></g></g></g></g></g><g transform="translate(29, 177)" clip-path="url(#clip_1)"><clipPath id="clip_1"><rect width="300" height="23"></rect></clipPath><g><g><line x1="0" y1="0" x2="0" y2="5" style="visibility: inherit;" fill="rgb(0, 0, 0)" stroke="rgb(204, 204, 204)" stroke-width="1px"></line><line x1="33.39583333333333" y1="0" x2="33.39583333333333" y2="5" style="visibility: inherit;" fill="rgb(0, 0, 0)" stroke="rgb(204, 204, 204)" stroke-width="1px"></line><line x1="66.79166666666666" y1="0" x2="66.79166666666666" y2="5" style="visibility: inherit;" fill="rgb(0, 0, 0)" stroke="rgb(204, 204, 204)" stroke-width="1px"></line><line x1="100.1875" y1="0" x2="100.1875" y2="5" style="visibility: inherit;" fill="rgb(0, 0, 0)" stroke="rgb(204, 204, 204)" stroke-width="1px"></line><line x1="133.58333333333331" y1="0" x2="133.58333333333331" y2="5" style="visibility: inherit;" fill="rgb(0, 0, 0)" stroke="rgb(204, 204, 204)" stroke-width="1px"></line><line x1="166.97916666666669" y1="0" x2="166.97916666666669" y2="5" style="visibility: inherit;" fill="rgb(0, 0, 0)" stroke="rgb(204, 204, 204)" stroke-width="1px"></line><line x1="200.375" y1="0" x2="200.375" y2="5" style="visibility: inherit;" fill="rgb(0, 0, 0)" stroke="rgb(204, 204, 204)" stroke-width="1px"></line><line x1="233.77083333333334" y1="0" x2="233.77083333333334" y2="5" style="visibility: inherit;" fill="rgb(0, 0, 0)" stroke="rgb(204, 204, 204)" stroke-width="1px"></line><line x1="267.16666666666663" y1="0" x2="267.16666666666663" y2="5" style="visibility: inherit;" fill="rgb(0, 0, 0)" stroke="rgb(204, 204, 204)" stroke-width="1px"></line><line x1="300.5625" y1="0" x2="300.5625" y2="5" style="visibility: inherit;" fill="rgb(0, 0, 0)" stroke="rgb(204, 204, 204)" stroke-width="1px"></line></g><g transform="translate(0, 8)"><text x="0" y="0" dx="0em" dy="0.95em" style="text-anchor: middle; visibility: hidden; font-family: &quot;Helvetica Neue&quot;, sans-serif; font-size: 12px; font-weight: 200;" fill="rgb(50, 49, 63)" stroke="none" stroke-width="1px">-200</text><text x="33.39583333333333" y="0" dx="0em" dy="0.95em" style="text-anchor: middle; visibility: inherit; font-family: &quot;Helvetica Neue&quot;, sans-serif; font-size: 12px; font-weight: 200;" fill="rgb(50, 49, 63)" stroke="none" stroke-width="1px">0</text><text x="66.79166666666666" y="0" dx="0em" dy="0.95em" style="text-anchor: middle; visibility: inherit; font-family: &quot;Helvetica Neue&quot;, sans-serif; font-size: 12px; font-weight: 200;" fill="rgb(50, 49, 63)" stroke="none" stroke-width="1px">200</text><text x="100.1875" y="0" dx="0em" dy="0.95em" style="text-anchor: middle; visibility: inherit; font-family: &quot;Helvetica Neue&quot;, sans-serif; font-size: 12px; font-weight: 200;" fill="rgb(50, 49, 63)" stroke="none" stroke-width="1px">400</text><text x="133.58333333333331" y="0" dx="0em" dy="0.95em" style="text-anchor: middle; visibility: inherit; font-family: &quot;Helvetica Neue&quot;, sans-serif; font-size: 12px; font-weight: 200;" fill="rgb(50, 49, 63)" stroke="none" stroke-width="1px">600</text><text x="166.97916666666669" y="0" dx="0em" dy="0.95em" style="text-anchor: middle; visibility: inherit; font-family: &quot;Helvetica Neue&quot;, sans-serif; font-size: 12px; font-weight: 200;" fill="rgb(50, 49, 63)" stroke="none" stroke-width="1px">800</text><text x="200.375" y="0" dx="0em" dy="0.95em" style="text-anchor: middle; visibility: inherit; font-family: &quot;Helvetica Neue&quot;, sans-serif; font-size: 12px; font-weight: 200;" fill="rgb(50, 49, 63)" stroke="none" stroke-width="1px">1k</text><text x="233.77083333333334" y="0" dx="0em" dy="0.95em" style="text-anchor: middle; visibility: inherit; font-family: &quot;Helvetica Neue&quot;, sans-serif; font-size: 12px; font-weight: 200;" fill="rgb(50, 49, 63)" stroke="none" stroke-width="1px">1.2k</text><text x="267.16666666666663" y="0" dx="0em" dy="0.95em" style="text-anchor: middle; visibility: inherit; font-family: &quot;Helvetica Neue&quot;, sans-serif; font-size: 12px; font-weight: 200;" fill="rgb(50, 49, 63)" stroke="none" stroke-width="1px">1.4k</text><text x="300.5625" y="0" dx="0em" dy="0.95em" style="text-anchor: middle; visibility: hidden; font-family: &quot;Helvetica Neue&quot;, sans-serif; font-size: 12px; font-weight: 200;" fill="rgb(50, 49, 63)" stroke="none" stroke-width="1px">1.6k</text></g><line x1="0" y1="0" x2="300.5625" y2="0" fill="rgb(0, 0, 0)" stroke="rgb(204, 204, 204)" stroke-width="1px"></line></g></g></g></g></svg>