<svg viewBox="0 0 330 200" xmlns="http://www.w3.org/2000/svg"><g><g><g><g><g><line x1="39.15625" y1="177" x2="34.15625" y2="177" style="visibility: inherit;" fill="rgb(0, 0, 0)" stroke="rgb(204, 204, 204)" stroke-width="1px"></line><line x1="39.15625" y1="154.87499999999997" x2="34.15625" y2="154.87499999999997" style="visibility: inherit;" fill="rgb(0, 0, 0)" stroke="rgb(204, 204, 204)" stroke-width="1px"></line><line x1="39.15625" y1="132.74999999999994" x2="34.15625" y2="132.74999999999994" style="visibility: inherit;" fill="rgb(0, 0, 0)" stroke="rgb(204, 204, 204)" stroke-width="1px"></line><line x1="39.15625" y1="110.62500000000003" x2="34.15625" y2="110.62500000000003" style="visibility: inherit;" fill="rgb(0, 0, 0)" stroke="rgb(204, 204, 204)" stroke-width="1px"></line><line x1="39.15625" y1="88.5" x2="34.15625" y2="88.5" style="visibility: inherit;" fill="rgb(0, 0, 0)" stroke="rgb(204, 204, 204)" stroke-width="1px"></line><line x1="39.15625" y1="66.37499999999999" x2="34.15625" y2="66.37499999999999" style="visibility: inherit;" fill="rgb(0, 0, 0)" stroke="rgb(204, 204, 204)" stroke-width="1px"></line><line x1="39.15625" y1="44.24999999999994" x2="34.15625" y2="44.24999999999994" style="visibility: inherit;" fill="rgb(0, 0, 0)" stroke="rgb(204, 204, 204)" stroke-width="1px"></line><line x1="39.15625" y1="22.124999999999915" x2="34.15625" y2="22.124999999999915" style="visibility: inherit;" fill="rgb(0, 0, 0)" stroke="rgb(204, 204, 204)" stroke-width="1px"></line><line x1="39.15625" y1="0" x2="34.15625" y2="0" style="visibility: inherit;" fill="rgb(0, 0, 0)" stroke="rgb(204, 204, 204)" stroke-width="1px"></line></g><g transform="translate(29.15625, 0)"><text x="0" y="177" dx="0em" dy="0.3em" style="text-anchor: end; visibility: hidden; font-family: &quot;Helvetica Neue&quot;, sans-serif; font-size: 12px; font-weight: 200;" fill="rgb(50, 49, 63)" stroke="none" stroke-width="1px">2</text><text x="0" y="154.87499999999997" dx="0em" dy="0.3em" style="text-anchor: end; visibility: inherit; font-family: &quot;Helvetica Neue&quot;, sans-serif; font-size: 12px; font-weight: 200;" fill="rgb(50, 49, 63)" stroke="none" stroke-width="1px">2.1</text><text x="0" y="132.74999999999994" dx="0em" dy="0.3em" style="text-anchor: end; visibility: hidden; font-family: &quot;Helvetica Neue&quot;, sans-serif; font-size: 12px; font-weight: 200;" fill="rgb(50, 49, 63)" stroke="none" stroke-width="1px">2.2</text><text x="0" y="110.62500000000003" dx="0em" dy="0.3em" style="text-anchor: end; visibility: inherit; font-family: &quot;Helvetica Neue&quot;, sans-serif; font-size: 12px; font-weight: 200;" fill="rgb(50, 49, 63)" stroke="none" stroke-width="1px">2.3</text><text x="0" y="88.5" dx="0em" dy="0.3em" style="text-anchor: end; visibility: hidden; font-family: &quot;Helvetica Neue&quot;, sans-serif; font-size: 12px; font-weight: 200;" fill="rgb(50, 49, 63)" stroke="none" stroke-width="1px">2.4</text><text x="0" y="66.37499999999999" dx="0em" dy="0.3em" style="text-anchor: end; visibility: inherit; font-family: &quot;Helvetica Neue&quot;, sans-serif; font-size: 12px; font-weight: 200;" fill="rgb(50, 49, 63)" stroke="none" stroke-width="1px">2.5</text><text x="0" y="44.24999999999994" dx="0em" dy="0.3em" style="text-anchor: end; visibility: hidden; font-family: &quot;Helvetica Neue&quot;, sans-serif; font-size: 12px; font-weight: 200;" fill="rgb(50, 49, 63)" stroke="none" stroke-width="1px">2.6</text><text x="0" y="22.124999999999915" dx="0em" dy="0.3em" style="text-anchor: end; visibility: inherit; font-family: &quot;Helvetica Neue&quot;, sans-serif; font-size: 12px; font-weight: 200;" fill="rgb(50, 49, 63)" stroke="none" stroke-width="1px">2.7</text><text x="0" y="0" dx="0em" dy="0.3em" style="text-anchor: end; visibility: hidden; font-family: &quot;Helvetica Neue&quot;, sans-serif; font-size: 12px; font-weight: 200;" fill="rgb(50, 49, 63)" stroke="none" stroke-width="1px">2.8</text></g><line x1="39.15625" y1="0" x2="39.15625" y2="177" fill="rgb(0, 0, 0)" stroke="rgb(204, 204, 204)" stroke-width="1px"></line></g></g><g transform="translate(39, 0)" clip-path="url(#clip_0)"><clipPath id="clip_0"><rect width="290" height="177"></rect></clipPath><g><g><g><line x1="0" y1="0" x2="0" y2="177" fill="rgb(0, 0, 0)" stroke="rgb(60, 60, 60)" stroke-width="1px" opacity="0.25"></line><line x1="32.31597222222222" y1="0" x2="32.31597222222222" y2="177" fill="rgb(0, 0, 0)" stroke="rgb(60, 60, 60)" stroke-width="1px" opacity="0.25"></line><line x1="64.63194444444444" y1="0" x2="64.63194444444444" y2="177" fill="rgb(0, 0, 0)" stroke="rgb(60, 60, 60)" stroke-width="1px" opacity="0.25"></line><line x1="96.94791666666666" y1="0" x2="96.94791666666666" y2="177" fill="rgb(0, 0, 0)" stroke="rgb(60, 60, 60)" stroke-width="1px" opacity="0.25"></line><line x1="129.26388888888889" y1="0" x2="129.26388888888889" y2="177" fill="rgb(0, 0, 0)" stroke="rgb(60, 60, 60)" stroke-width="1px" opacity="0.25"></line><line x1="161.57986111111111" y1="0" x2="161.57986111111111" y2="177" fill="rgb(0, 0, 0)" stroke="rgb(60, 60, 60)" stroke-width="1px" opacity="0.25"></line><line x1="193.89583333333331" y1="0" x2="193.89583333333331" y2="177" fill="rgb(0, 0, 0)" stroke="rgb(60, 60, 60)" stroke-width="1px" opacity="0.25"></line><line x1="226.21180555555557" y1="0" x2="226.21180555555557" y2="177" fill="rgb(0, 0, 0)" stroke="rgb(60, 60, 60)" stroke-width="1px" opacity="0.25"></line><line x1="258.52777777777777" y1="0" x2="258.52777777777777" y2="177" fill="rgb(0, 0, 0)" stroke="rgb(60, 60, 60)" stroke-width="1px" opacity="0.25"></line><line x1="290.84375" y1="0" x2="290.84375" y2="177" fill="rgb(0, 0, 0)" stroke="rgb(60, 60, 60)" stroke-width="1px" opacity="0.25"></line></g><g><line x1="0" y1="177" x2="290.84375" y2="177" fill="rgb(0, 0, 0)" stroke="rgb(60, 60, 60)" stroke-width="1px" opacity="0.25"></line><line x1="0" y1="154.87499999999997" x2="290.84375" y2="154.87499999999997" fill="rgb(0, 0, 0)" stroke="rgb(60, 60, 60)" stroke-width="1px" opacity="0.25"></line><line x1="0" y1="132.74999999999994" x2="290.84375" y2="132.74999999999994" fill="rgb(0, 0, 0)" stroke="rgb(60, 60, 60)" stroke-width="1px" opacity="0.25"></line><line x1="0" y1="110.62500000000003" x2="290.84375" y2="110.62500000000003" fill="rgb(0, 0, 0)" stroke="rgb(60, 60, 60)" stroke-width="1px" opacity="0.25"></line><line x1="0" y1="88.5" x2="290.84375" y2="88.5" fill="rgb(0, 0, 0)" stroke="rgb(60, 60, 60)" stroke-width="1px" opacity="0.25"></line><line x1="0" y1="66.37499999999999" x2="290.84375" y2="66.37499999999999" fill="rgb(0, 0, 0)" stroke="rgb(60, 60, 60)" stroke-width="1px" opacity="0.25"></line><line x1="0" y1="44.24999999999994" x2="290.84375" y2="44.24999999999994" fill="rgb(0, 0, 0)" stroke="rgb(60, 60, 60)" stroke-width="1px" opacity="0.25"></line><line x1="0" y1="22.124999999999915" x2="290.84375" y2="22.124999999999915" fill="rgb(0, 0, 0)" stroke="rgb(60, 60, 60)" stroke-width="1px" opacity="0.25"></line><line x1="0" y1="0" x2="290.84375" y2="0" fill="rgb(0, 0, 0)" stroke="rgb(60, 60, 60)" stroke-width="1px" opacity="0.25"></line></g></g></g><g><g><line x1="0" y1="619.5" x2="290.84375" y2="619.5" fill="rgb(0, 0, 0)" stroke="rgb(153, 153, 153)" stroke-width="1.5px"></line></g></g><g><g><line x1="32.31597222222222" y1="0" x2="32.31597222222222" y2="177" fill="rgb(0, 0, 0)" stroke="rgb(153, 153, 153)" stroke-width="1.5px"></line></g></g><g><g><g><g><g><path stroke="rgb(0, 119, 187)" stroke-width="2px" d="M32.477552083333336,-51.971719443798094L32.80071180555556,68.14782571792601L33.12387152777778,119.55069851875305L33.28545138888889,201.3390329182148L36.35546875,180.0331313610077L37.16336805555555,151.67767864465714L37.324947916666666,149.21915423870087L37.48652777777777,129.19647824764252L37.64810763888889,120.70872169733047L37.8096875,127.12872666120529L38.132847222222225,106.09646630287169L38.617586805555554,89.68981039524077L38.77916666666667,83.63789570331572L39.10232638888889,84.4659141898155L39.263906250000005,67.55470347404479L39.42548611111111,56.40063983201979L39.58706597222222,47.35673886537549L39.91022569444444,52.3087082505226L40.233385416666664,34.575914561748476L40.39496527777778,26.44606751203534L40.87970486111111,33.306483149528475L41.04128472222222,22.78399658203122L41.20286458333333,36.95563030242917L41.364444444444445,23.361979544162722L41.52602430555556,28.26183182001111L42.01076388888888,24.100586593151064L42.172343749999996,28.052097380161257L42.33392361111111,27.917320847511263L42.49550347222222,15.203911185264559L42.65708333333333,26.5274609327316L42.81866319444445,32.999424755573244L42.980243055555555,35.410579562187166L43.14182291666667,31.100790023803683L43.30340277777778,23.72226279973981L43.464982638888884,18.537296175956698L43.78814236111111,25.338737189769716L43.94972222222222,25.283877074718447L44.111302083333335,26.615289866924257L44.27288194444445,22.975743234157534L44.596041666666665,23.40987664461133L44.91920138888889,24.491412162780733L45.08078125,32.08067607879636L45.40394097222222,33.51869684457776L45.56552083333334,29.224732339382143L45.88868055555555,20.492531776428194L46.05026041666667,31.269326627254458L46.211840277777775,27.62355548143384L46.37342013888889,34.98678517341611L46.535000000000004,27.612319707870455L46.69657986111111,38.591674983501406L47.019739583333326,32.0361022353172L47.18131944444444,25.200848400592776L47.342899305555555,21.686003029346438L47.50447916666666,25.396920561790438L47.82763888888889,35.8580587506294L48.31237847222222,30.50371152162549L48.47395833333333,22.183067321777315L48.79711805555556,30.98774653673169L49.12027777777778,37.370931923389406L49.281857638888894,18.561613976955385L49.4434375,29.834681868553133L49.92817708333333,35.30497384071347L50.089756944444446,26.393950402736635L50.57449652777778,31.70182478427884L51.05923611111111,32.96265792846677L51.382395833333334,30.42400610446927L51.54397569444445,34.18545824289319L51.705555555555556,15.616575300693484L52.351875,31.926329255104037L52.51345486111111,30.80560040473935L52.67503472222222,25.588034212589235L52.836614583333336,32.39453923702237L53.15977430555556,35.46116691827771L53.321354166666666,30.873278796672793L53.80609375,27.398892760276766L54.29083333333334,33.80818945169446L54.452413194444446,33.4037016034126L54.77557291666666,32.402293503284426L55.09873263888889,27.897856056690188L55.2603125,31.410485923290224L55.42189236111111,36.81563150882718L55.58347222222223,38.229492723941775L55.745052083333334,35.35424244403836L55.90663194444444,33.58764123916623L56.229791666666664,33.5905952453613L56.39137152777778,40.00527244806287L56.55295138888889,33.33713096380231L56.71453125,38.79639816284177L57.03769097222223,31.22559678554532L57.19927083333333,35.63371253013608L57.360850694444444,36.106248021125765L57.684010416666666,36.55705046653745L57.84559027777778,32.88010400533673L58.00717013888889,36.8382085561752L58.33032986111111,42.185487270355196L58.49190972222222,37.34967362880704L58.81506944444445,38.769917607307406L58.976649305555554,40.722726702690096L59.29980902777778,36.572453498840304L59.46138888888889,40.98700475692746L59.62296875,41.87531661987302L59.94612847222222,35.90490084886548L60.107708333333335,47.927389562129946L60.59244791666667,35.530902564525576L60.75402777777778,40.65040630102155L60.915607638888886,40.147275745868654L61.0771875,38.74902856349942L61.40034722222222,40.73090296983716L61.56192708333334,38.18813663721082L61.88508680555556,39.134790122508974L62.208246527777774,56.46699947118758L62.36982638888889,42.84386140108106L62.531406249999996,47.7697722315788L62.69298611111111,41.428575932979555L63.01614583333333,44.54647672176358L63.17772569444445,31.836337566375704L63.66246527777778,35.227325677871676L64.30878472222223,36.13615733385083L64.95510416666667,42.43119728565213L65.43984375000001,51.178906381130204L65.60142361111112,51.19320166110991L65.76300347222222,40.27113300561902L65.92458333333333,53.07063084840773L66.08616319444444,48.86792403459546L66.57090277777777,43.97825253009793L66.7324826388889,49.494911849498735L66.8940625,37.03312021493909L67.05564236111111,43.55287563800809L67.54038194444445,48.05900108814237L67.70196180555556,42.52962899208066L67.86354166666666,38.091181933879824L68.02512152777778,41.61831808090207L68.18670138888889,48.48548573255536L68.34828125,47.393241941928835L68.67144097222221,45.592564165592165L68.83302083333334,44.99590766429898L68.99460069444444,50.7650817632675L69.31776041666667,41.144674837589235L69.47934027777778,47.24728238582608L69.64092013888889,45.0917018651962L69.8025,41.274914860725374L69.96407986111112,44.53840595483777L70.12565972222222,51.869932830333696L70.28723958333333,48.51033103466031L70.61039930555556,51.360208511352525L70.77197916666667,45.671161830425234L71.09513888888888,38.321752667427035L71.74145833333334,41.50485259294507L71.90303819444445,40.63331526517865L72.22619791666666,49.29134917259215L72.38777777777777,37.71438789367673L72.54935763888889,41.8756858706474L72.7109375,43.92682117223737L72.87251736111111,38.054731607437105L73.03409722222223,44.114189565181704L73.51883680555555,41.66004341840741L74.00357638888889,43.91463589668271L74.16515625,39.67431825399396L74.3267361111111,48.93022191524503L74.48831597222222,44.38949239253995L74.81147569444445,39.547348737716646L75.13463541666667,51.19093340635298L75.45779513888888,40.675409853458376L75.78095486111111,50.657735288143144L76.10411458333333,53.98658376932143L76.26569444444445,43.20345890522L76.42727430555556,49.07190871238707L76.58885416666666,51.4001930952072L76.75043402777779,36.99783039093015L77.07359375,43.18826687335965L77.23517361111111,36.27911013364789L77.55833333333334,44.878644168376894L77.71991319444446,49.48794883489607L77.88149305555555,43.69203042984006L78.20465277777778,49.495333850383744L79.01255208333333,42.577842593193026L79.33571180555556,55.985338211059556L79.49729166666665,55.70755612850188L79.82045138888888,47.72287738323209L79.98203125,57.281883180141435L80.14361111111111,43.99555456638333L80.30519097222222,43.24022573232648L80.46677083333333,50.878811001777635L80.62835069444444,48.036951541900606L80.78993055555556,42.63212245702741L80.95151041666666,46.90804642438886L81.11309027777779,42.839430391788454L81.2746701388889,52.998415946960435L81.92098958333334,47.04477471113202L82.08256944444445,48.45399391651151L82.40572916666666,52.27468442916869L82.89046875,41.58234250545499L83.53678819444444,53.49300098419188L83.69836805555556,51.938349723815904L83.85994791666667,54.69491225481032L84.02152777777776,46.16279286146161L84.34468749999999,48.16582006216046L84.50626736111111,48.21667116880414L84.66784722222222,50.4343385696411L84.82942708333334,50.81994187831877L84.99100694444444,54.11925029754637L85.15258680555556,41.103793501853914L85.6373263888889,61.440701901912675L85.79890625,50.53841453790663L86.12206597222222,49.460413277149186L86.44522569444445,54.46043801307677L86.76838541666667,55.76605600118636L87.09154513888889,54.03569412231444L87.41470486111112,55.018375933170304L87.57628472222223,44.752465903758974L87.73786458333335,49.93574452400206L87.89944444444444,56.38708305358885L88.06102430555555,53.023261249065385L88.22260416666667,63.493736207485185L88.38418402777778,59.49564707279204L88.5457638888889,47.95255136489865L88.70734374999999,47.59975862503049L89.03050347222222,51.51139032840727L89.35366319444445,56.21390444040297L89.51524305555554,60.957721889019L89.83840277777777,49.81183451414107L90.1615625,56.65236335992812L90.32314236111111,57.63240766525267L90.48472222222222,55.04337948560713L90.64630208333332,63.53973430395125L90.80788194444445,47.360167622566195L90.96946180555555,55.666147291660295L91.13104166666668,54.75299012660979L91.29262152777778,53.33206039667128L91.45420138888889,44.863715887069674L91.61578125,63.97534471750258L91.7773611111111,53.37811124324797L92.10052083333333,54.4673482775688L92.26210069444446,52.96439212560652L92.58526041666667,58.27759426832198L92.90842013888889,53.691130399703965L93.07000000000001,60.32007855176924L93.2315798611111,69.20361918210982L93.39315972222222,60.389128446578965L93.55473958333333,57.27312666177748L93.87789930555556,54.95713305473326L94.03947916666665,54.70034551620482L94.36263888888888,53.627619266509996L94.52421875,67.90870946645735L94.68579861111111,45.69843363761899L94.84737847222223,65.71868312358855L95.00895833333333,59.681327462196336L95.33211805555555,62.08077174425124L95.49369791666666,50.05944353342055L95.65527777777778,51.148627817630754L95.81685763888889,50.64238500595091L96.62475694444444,57.04814743995665L96.78633680555556,55.21798235177992L97.10949652777778,77.16878038644789L97.27107638888889,61.32602316141127L97.43265625000001,66.2408564686775L97.75581597222224,57.80410927534102L97.91739583333333,58.793648600578294L98.24055555555556,61.56851541996001L98.56371527777779,61.64832633733748L99.37161458333334,64.31563568115233L99.53319444444443,64.44882971048354L100.01793402777778,57.81988155841826L100.17951388888889,71.76426780223845L100.34109375,62.24012982845305L100.5026736111111,63.601188182830796L100.66425347222221,59.1223872900009L100.82583333333334,66.79758113622664L101.14899305555556,61.03668880462645L101.47215277777778,64.25186079740523L101.7953125,70.6981353163719L102.11847222222222,63.23911142349242L102.60321180555556,59.78651118278502L102.76479166666667,71.97431874275206L103.24953124999999,69.33602195978163L103.41111111111111,77.4856503009796L103.57269097222222,69.25494503974913L103.73427083333334,65.71541261672972L104.05743055555554,69.78745740652083L104.21901041666666,70.45453530550002L104.70375,68.20141983032225L104.86532986111112,69.55831092596053L105.18848958333334,60.24707239866255L105.67322916666667,69.04600185155867L105.83480902777778,67.49741685390471L106.15796875,73.25899493694304L106.31954861111112,68.63059473037718L106.48112847222222,65.39358419179915L106.64270833333333,76.79214459657668L106.80428819444445,74.24041074514388L106.96586805555555,71.11101043224333L107.12744791666667,69.98258006572722L107.28902777777778,69.60467827320097L107.4506076388889,68.9694086909294L107.6121875,82.9723475575447L107.77376736111111,70.00067335367201L107.93534722222222,71.12936747074126L108.09692708333333,68.06426954269408L108.42008680555556,72.26296734809874L108.74324652777777,81.63471025228499L108.90482638888889,78.97726517915724L109.38956597222223,69.28216409683226L109.55114583333332,67.91245472431181L110.19746527777778,68.89967304468153L110.6822048611111,75.80276352167128L110.84378472222222,77.90427517890929L111.16694444444445,75.36963236331938L111.32852430555555,76.65161830186842L111.65168402777778,68.14392220973967L111.81326388888888,80.04186791181563L111.97484375,77.27797311544417L112.45958333333333,81.90447431802748L112.62116319444445,82.91047167778014L112.94432291666666,80.0438196659088L113.59064236111111,80.15770715475081L113.75222222222223,80.23356181383132L114.07538194444446,84.21445441246031L114.23696180555555,81.67648833990096L114.39854166666666,83.95524036884306L114.56012152777778,79.66454637050627L114.72170138888889,79.0717406272888L114.88328125000001,74.38594830036162L115.0448611111111,70.68341803550719L115.36802083333333,75.22235405445097L115.52960069444444,85.93273651599883L115.69118055555556,84.8785255551338L115.85276041666665,83.83122485876082L116.01434027777778,85.59508305788039L116.17592013888888,82.87433785200118L116.3375,80.5731142759323L116.82223958333333,84.67517387866972L116.98381944444444,72.2439773082733L117.14539930555556,94.51554876565932L118.11487847222222,84.57864117622374L118.43803819444445,87.35957425832747L118.59961805555557,83.64406746625899L118.76119791666666,83.90760701894759L118.92277777777778,81.18723106384276L119.08435763888889,84.15774804353713L119.2459375,80.31817299127577L119.40751736111112,86.94532763957976L119.56909722222221,82.14316856861113L119.73067708333333,78.2384471297264L119.89225694444444,84.44581639766692L120.05383680555556,77.87805837392806L120.21541666666667,86.62049245834349L120.37699652777776,88.96417987346648L120.53857638888888,86.74007695913313L120.70015624999999,94.3734927177429L120.86173611111111,81.40387576818465L121.02331597222222,90.25228482484816L121.34647569444444,87.73452204465865L121.50805555555556,86.58847314119338L121.66963541666667,85.04173439741133L121.9927951388889,84.76279181241988L122.31595486111111,87.25296628475188L122.63911458333334,83.36053562164305L122.80069444444445,93.97580963373183L123.28543402777777,85.23606580495833L123.44701388888889,80.27264964580534L123.60859375,88.77248597145079L123.93175347222223,88.55235975980757L124.09333333333335,80.80690276622771L124.25491319444444,76.69234138727187L124.57807291666667,86.03834223747252L124.73965277777778,81.93058562278746L124.9012326388889,83.03021442890166L125.06281249999999,84.61873126029967L125.38597222222222,81.15721625089644L125.54755208333333,88.5133774280548L125.70913194444445,92.06994813680647L125.87071180555554,83.04234695434569L126.03229166666667,80.8259983062744L126.19387152777777,81.47872817516325L126.3554513888889,79.49880552291869L126.51703125,83.32387429475783L126.67861111111111,88.44411653280257L127.00177083333332,87.90126514434813L127.16335069444445,86.68964785337447L127.32493055555555,82.86980134248732L127.80967013888889,87.23645550012587L127.97125,87.7324120402336L128.1328298611111,79.91516214609145L128.45598958333332,93.18677347898482L128.61756944444446,82.22714674472807L128.77914930555556,86.04282599687575L128.94072916666667,79.08408415317534L129.26388888888889,87.68556994199751L129.5870486111111,86.69792962074278L129.74862847222224,80.17210793495177L129.91020833333334,91.02660369873045L130.23336805555556,86.35410439968108L130.55652777777777,91.9372288584709L130.87968750000002,79.20730841159819L131.0412673611111,85.94993305206297L131.20284722222223,90.80457848310469L131.68758680555555,98.46157354116438L132.33390625,87.72639852762221L132.49548611111112,88.35502159595488L132.65706597222223,86.9987107515335L132.81864583333333,87.83669900894164L132.98022569444444,83.32851630449294L133.30338541666666,89.40042328834532L133.4649652777778,95.07301193475722L133.94970486111112,91.40434724092482L134.11128472222222,82.40354311466216L134.43444444444444,90.74813586473464L134.75760416666665,84.00725197792052L134.9191840277778,88.97008788585661L135.4039236111111,88.94756358861922L135.72708333333333,94.172092795372L135.88866319444443,89.13857173919676L136.05024305555557,96.20988231897353L136.21182291666668,89.44009137153624L136.37340277777778,90.21620374917983L136.5349826388889,84.08927839994429L136.6965625,89.8793942928314L136.8581423611111,96.90934878587721L137.0197222222222,86.09003734588622L137.18130208333335,90.25798183679579L137.34288194444443,99.3612794280052L137.50446180555556,84.26641327142714L137.66604166666667,92.27071505784987L138.3123611111111,81.78151381015776L138.4739409722222,96.86393094062804L138.79710069444445,90.12948256731032L139.12026041666667,100.46845149993895L139.28184027777777,93.07531249523161L139.44342013888888,93.264790892601L139.605,84.56492614746092L139.76657986111113,99.12305992841719L139.92815972222223,94.17124879360198L140.08973958333334,82.36572128534316L140.25131944444445,93.7206573486328L140.41289930555556,94.99768477678298L140.73605902777777,96.0058448910713L140.8976388888889,97.12789249420165L141.05921874999999,103.98461562395094L141.22079861111112,83.61616265773772L141.38237847222223,85.2726216316223L141.70553819444444,91.77581351995467L141.86711805555555,98.83372557163237L142.02869791666666,104.40149974822997L142.3518576388889,87.80188393592833L142.5134375,96.2434313893318L142.67501736111112,83.65103048086165L142.83659722222222,93.82304531335829L142.99817708333333,93.36280059814452L143.15975694444444,88.77586197853087L143.32133680555555,100.98635208606719L143.48291666666668,88.42011523246764L143.64449652777776,87.09097069501875L144.1292361111111,94.16876953840254L144.45239583333333,97.64695358276366L144.77555555555554,83.76887422800063L145.2602951388889,92.09310543537138L145.421875,97.98413228988646L145.5834548611111,103.30936145782469L145.74503472222221,88.67611151933669L145.90661458333335,95.21316897869109L146.06819444444446,94.57410138845442L146.22977430555557,88.70385807752608L146.39135416666664,95.97197932004927L146.55293402777778,95.16906988620757L146.7145138888889,78.28439247608183L146.87609375,90.44540297985075L147.0376736111111,95.0983319878578L147.1992534722222,85.91870498657225L147.68399305555556,96.19126152992247L147.84557291666667,88.25542938709258L148.00715277777778,89.30705559253691L148.3303125,89.21637815237044L148.4918923611111,99.73511946201323L148.81505208333334,96.68595206737517L148.97663194444445,104.20437258481978L149.13821180555556,95.93969625234602L149.29979166666666,99.23668366670607L149.46137152777777,89.93240815401076L149.6229513888889,85.52703541517256L150.1076909722222,89.86109000444411L150.26927083333334,95.20256620645522L150.43085069444444,97.66441386938094L151.0771701388889,90.93946051597594L151.23875,96.27634745836257L151.56190972222223,95.43181818723677L151.7234895833333,92.9535652399063L151.88506944444444,94.9631334543228L152.04664930555555,100.56493145227431L152.36980902777776,94.41463780403136L152.69296875,101.56354379653929L152.8545486111111,104.14239120483397L153.01612847222222,90.64247739315032L153.33928819444446,96.62982594966887L153.50086805555557,98.43498748540877L153.66244791666665,96.11572337150572L153.82402777777776,99.99765676259993L153.9856076388889,92.6296795606613L154.1471875,100.11597526073454L154.3087673611111,99.80190110206603L154.47034722222222,90.60265105962752L154.95508680555557,98.66835397481917L155.11666666666667,89.71201819181441L155.43982638888892,95.12834680080412L155.7629861111111,101.5378017425537L155.9245659722222,98.59904032945632L156.08614583333332,98.38872563838957L156.24772569444445,102.3998440504074L156.57088541666667,99.43887484073637L156.73246527777778,105.10924798250197L156.89404513888888,93.2639996409416L157.05562500000002,93.62507414817809L157.21720486111113,103.2383598089218L157.3787847222222,104.5508353114128L157.54036458333331,94.96951621770857L157.70194444444445,92.76218783855437L158.18668402777777,93.05489820241927L158.34826388888888,99.29418128728865L158.67142361111112,88.09053254127501L158.83300347222223,96.5141977071762L158.9945833333333,101.28175270557402L159.15616319444447,101.94571834802626L159.47932291666666,101.51100468635558L159.80248263888888,95.37289631366728L159.9640625,101.08198803663252L160.12564236111112,94.80546337366103L160.28722222222223,87.3704935312271L160.44880208333333,102.71618646383284L160.61038194444444,98.80444926023482L160.77196180555558,95.08029145002364L160.93354166666666,91.26397919654845L161.25670138888887,88.29520297050475L161.41828125,95.70058000087737L161.57986111111111,104.60358542203902L161.90302083333333,93.32682502269743L162.22618055555557,90.95122379064559L162.38776041666668,92.85777103900908L162.5493402777778,92.27672857046126L162.71092013888887,101.42966401576994L162.8725,95.46726626157759L163.0340798611111,97.21171241998671L163.35723958333332,104.70386338233946L163.51881944444443,101.83467936515807L163.68039930555557,94.97458022832869L164.00355902777778,96.5369330048561L164.1651388888889,98.38461112976073L164.48829861111113,100.64838212728499L164.97303819444443,98.16253316402434L165.29619791666667,101.33450281620024L165.45777777777778,96.93625134229659L165.61935763888889,98.12518608570097L166.10409722222224,95.76773089170455L166.26567708333334,100.64796012639998L166.58883680555556,100.3637425303459L166.75041666666667,101.9039402604103L167.07357638888888,98.19170397520064L167.23515625,86.89495128393172L167.39673611111112,107.14492750167845L167.71989583333334,98.72120958566664L167.88147569444445,101.23575460910796L168.36621527777777,93.33515954017638L168.52779513888888,94.31810510158537L168.85095486111112,111.94961857795714L169.01253472222223,93.77198320627211L169.17411458333333,97.29743134975432L169.33569444444444,102.57534366846083L169.65885416666669,103.80178374052046L169.8204340277778,98.12492233514784L169.98201388888887,88.85124188661574L170.14359374999998,105.60773652791976L170.46675347222222,103.04856491088866L170.78991319444444,93.53893321752547L171.11307291666668,99.27914750576018L171.2746527777778,102.67694038152693L171.4362326388889,104.89334177970885L171.5978125,97.57785093784331L171.75939236111108,97.0630098581314L172.40571180555554,103.2319242954254L172.56729166666668,103.44994050264357L172.72887152777778,100.69110971689223L172.8904513888889,98.73619061708449L173.37519097222224,92.44895768165587L173.53677083333335,101.34631884098052L173.69835069444443,101.03514593839644L173.85993055555554,102.33453941345213L174.02151041666667,87.58423697948454L174.18309027777778,95.88657689094542L174.3446701388889,100.09102445840834L174.50625,98.92540526390074L174.6678298611111,104.07851082086562L174.82940972222224,93.34338855743407L175.15256944444445,101.65849399566649L175.31414930555556,103.01923584938048L175.4757291666667,100.3947068452835L175.63730902777777,108.16026163101195L175.79888888888888,99.08149284124373L175.96046875,96.15602445602416L176.1220486111111,103.45115375518797L176.44520833333334,99.78750032186507L176.60678819444445,97.49629926681517L176.76836805555556,92.89817762374877L177.0915277777778,102.17270207405089L177.2531076388889,93.87743067741393L177.5762673611111,99.27318674325942L177.73784722222223,92.36466300487517L178.38416666666666,109.89500176906584L178.5457465277778,98.54180645942687L178.86890625,111.3246880173683L179.0304861111111,96.10976260900496L179.19206597222222,104.92989760637282L179.35364583333333,94.75999277830122L179.51522569444444,100.07498842477797L179.67680555555555,104.42961555719374L179.83838541666665,101.29050922393797L180.1615451388889,103.14952862262724L180.323125,100.12905728816985L180.4847048611111,98.56971126794814L180.64628472222222,105.82749348878859L180.96944444444443,92.18853038549422L181.13102430555554,91.8700252175331L181.29260416666665,93.80315852165221L181.45418402777779,98.22535854578017L181.6157638888889,99.7563777565956L181.77734375,112.77310055494307L182.74682291666664,96.83333587646483L182.90840277777778,100.81327897310256L183.0699826388889,99.52074301242827L183.2315625,93.26415789127348L183.3931423611111,106.28430944681166L184.03946180555556,104.76922076940535L184.5242013888889,103.53265267610549L184.68578125,102.97977876663207L185.0089409722222,102.66776186227797L185.49368055555556,98.68322950601576L185.65526041666666,101.04421895742415L185.9784201388889,105.3060586452484L186.14000000000001,103.50084435939787L186.3015798611111,105.32853019237517L186.4631597222222,106.66495424509047L186.78631944444444,107.55047035217284L186.94789930555555,103.17210566997527L187.10947916666666,94.1916103363037L187.27105902777777,103.11872255802153L187.4326388888889,100.7852159142494L187.59421875,109.18519628047942L187.75579861111112,95.9203369617462L187.91737847222223,92.35453498363493L188.0789583333333,106.94663983583449L188.40211805555555,96.7868102788925L188.56369791666665,109.19870030879973L188.8868576388889,100.26467782258986L189.2100173611111,101.8675426840782L189.37159722222222,104.93195486068724L189.69475694444446,104.82597988843916L190.01791666666665,103.87827140092848L190.17949652777776,108.18257492780684L190.3410763888889,99.37320095300673L190.50265625,98.74721539020537L190.98739583333332,105.4014308452606L191.14897569444446,92.77548086643218L191.31055555555557,107.98808526992796L191.47213541666667,105.05665612220763L191.79529513888892,98.86163038015364L191.956875,108.93526625633238L192.2800347222222,106.40436869859694L192.44161458333332,102.20308613777159L193.24951388888888,108.82860553264616L193.41109375000002,110.48327100276946L193.7342534722222,104.83526390790938L193.89583333333331,101.22868609428404L194.21899305555556,97.48722624778746L194.38057291666667,104.02560245990752L194.54215277777777,104.72876143455504L194.70373263888888,101.36610013246535L195.02689236111112,99.03280448913573L195.18847222222223,107.60438096523283L195.3500520833333,101.46168333292006L195.67321180555555,103.10453277826308L195.83479166666666,101.95257586240767L195.99637152777777,105.25831979513167L196.15795138888888,105.31861317157744L196.48111111111112,97.6468480825424L196.64269097222223,100.85553181171416L196.96585069444444,103.23250454664229L197.45059027777776,106.01153862476347L197.77375,110.86412680149077L197.93532986111111,101.95969712734221L198.09690972222222,97.12652099132536L198.25848958333333,96.79519754648207L198.58164930555557,93.6788265109062L198.9048090277778,99.73037195205687L199.06638888888887,105.67072016000746L199.22796875,101.3090772628784L199.3895486111111,96.5924788713455L199.55112847222222,105.52966636419295L199.71270833333332,111.1892784833908L199.87428819444443,101.18585300445555L200.03586805555557,100.71220976114272L200.19744791666668,91.23681288957594L200.6821875,107.55891036987303L200.84376736111113,104.88938552141188L201.0053472222222,102.05596607923506L201.81324652777778,98.92677676677702L201.97482638888889,102.86446702480315L202.13640625,107.40129303932189L202.29798611111113,97.2251636981964L202.62114583333334,96.88128572702406L202.78272569444442,111.38461214303969L202.94430555555556,101.71936762332915L203.10588541666667,102.63811630010603L203.26746527777777,102.9108343720436L204.07536458333334,102.33158540725707L204.23694444444445,106.07156825065611L204.39852430555553,111.20874327421187L204.5601041666667,108.97873234748839L204.72168402777777,101.37781065702437L204.88326388888888,105.63105207681654L205.20642361111112,104.12108016014098L205.36800347222223,103.86840713024138L205.52958333333333,108.06552243232726L205.69116319444444,103.31136596202849L205.85274305555555,108.02184534072875L206.01432291666669,108.5707629919052L206.1759027777778,109.03522771596907L206.33748263888887,111.36245709657668L206.49906249999998,108.08989298343657L206.82222222222222,101.2581734061241L206.98380208333333,104.81553536653517L207.14538194444444,102.29191732406615L207.30696180555555,112.17702430486678L207.46854166666668,108.00132554769515L207.6301215277778,105.30257713794707L207.7917013888889,104.46079087257384L208.11486111111108,94.21524238586424L208.43802083333333,106.92627829313277L208.76118055555554,105.62424731254576L208.92276041666668,108.84812307357787L209.08434027777778,112.46493440866469L209.4075,101.91855204105376L209.73065972222224,107.50832301378249L209.89223958333335,106.56098377704619L210.21539930555554,111.62895065546034L210.53855902777778,102.58098793029784L210.7001388888889,103.51693314313887L210.86171875,97.8802145719528L211.18487847222224,106.20349627733229L211.66961805555556,104.24251091480254L211.8311979166667,105.67873817682265L212.3159375,106.09662455320357L212.4775173611111,119.59136885404587L212.63909722222223,104.08072632551192L213.12383680555556,107.2065923810005L213.6085763888889,113.93829774856567L213.77015624999999,106.46075856685637L213.9317361111111,103.06243818998335L214.09331597222223,105.75374883413313L214.25489583333334,109.16831624507903L214.41647569444444,117.07255107164383L214.57805555555555,113.74792259931564L214.73963541666666,105.79732042551039L214.9012152777778,113.03289484977722L215.0627951388889,111.45587754249571L215.3859548611111,108.79405421018599L215.54753472222222,105.05422961711882L215.70911458333333,110.24025124311446L216.19385416666665,117.8072018623352L216.3554340277778,112.92507362365721L216.67859375,126.19404745101929L216.8401736111111,107.58085441589354L217.00175347222222,105.90461415052413L217.16333333333336,110.13316851854323L217.48649305555554,112.74456274509429L217.64807291666665,117.40018200874329L217.9712326388889,116.10231828689575L218.1328125,114.85488367080688L218.2943923611111,108.2337952852249L218.45597222222221,111.72152709960936L218.61755208333335,111.09163802862166L218.77913194444446,121.50672537088394L218.94071180555557,112.55450409650801L219.10229166666664,124.57382780313492L219.26387152777778,113.08042269945145L219.4254513888889,119.15881794691086L219.58703125,111.55188274383544L219.7486111111111,112.9385249018669L219.9101909722222,108.52344614267348L220.07177083333335,112.96885621547698L220.39493055555556,109.38717645406722L220.55651041666667,112.32340586185454L220.71809027777778,121.00354206562042L220.8796701388889,121.18974995613098L221.2028298611111,113.20058745145798L221.3644097222222,113.92964673042297L222.01072916666666,121.22324627637863L222.49546875000001,125.95229369401932L222.98020833333334,114.43061453104019L223.14178819444444,121.30717170238495L223.30336805555555,118.88504487276077L223.46494791666666,117.87208449840546L223.7881076388889,117.76853603124619L223.9496875,116.46128278970718L224.11126736111112,116.97506886720657L224.27284722222223,119.52659171819687L224.4344270833333,121.01208758354187L224.75758680555555,108.23121052980422L224.91916666666665,119.56647080183029L225.08074652777776,111.65701371431349L225.2423263888889,121.87249463796616L225.40390625,113.0545751452446L225.5654861111111,119.24084436893463L225.72706597222222,124.98068940639496L225.88864583333333,124.93062955141068L226.05022569444446,117.11469841003418L226.21180555555557,118.98041707277298L226.37338541666665,124.79817402362823L226.6965451388889,121.54011619091034L226.858125,123.05203986167908L227.18128472222222,120.46417218446732L227.34286458333332,110.44439417123793L227.50444444444446,119.73811966180801L227.82760416666667,125.04805129766464L227.98918402777778,116.8013100028038L228.15076388888892,122.99617749452591L228.31234375,122.92422634363174L228.4739236111111,127.30459553003311L228.6355034722222,123.5393453836441L229.28182291666667,122.01692444086075L229.60498263888888,130.86591374874115L230.0897222222222,124.82032907009125L230.25130208333331,122.29802978038788L230.57446180555556,133.36247098445892L230.73604166666667,122.38411796092987L230.89762152777777,127.01779317855835L231.22078125000002,136.57669347524643L231.38236111111112,130.6909943819046L231.54394097222223,122.9267583489418L231.7055208333333,130.93628239631653L231.86710069444447,129.6843112707138L232.02868055555555,130.67923110723495L232.19026041666666,128.26528054475784L232.35184027777777,131.41393464803696L232.51342013888888,119.28415220975876L232.675,137.84338188171387L232.99815972222223,125.27028751373291L233.15973958333333,133.99283480644226L233.32131944444444,137.33740282058716L233.64447916666666,136.25301879644394L233.80605902777776,130.94572466611862L233.96763888888887,131.69060897827148L234.12921875,136.3392652273178L234.29079861111111,130.75967502593994L234.45237847222222,129.99806892871857L234.77553819444444,128.09173268079758L234.93711805555557,140.4370520710945L235.09869791666668,131.06493991613388L235.2602777777778,123.1504715681076L235.42185763888887,138.72072172164917L235.5834375,130.3177873492241L235.7450173611111,143.9886115193367L236.06817708333332,128.47881299257278L236.22975694444443,138.5475958585739L236.39133680555557,133.23982697725296L236.55291666666668,131.4106113910675L236.71449652777778,136.2392510175705L236.8760763888889,132.65614700317383L237.03765625,132.3947702050209L237.19923611111113,130.73187571763992L237.3608159722222,134.57065951824188L237.68397569444443,129.08886802196503L237.84555555555556,134.82523155212402L238.16871527777778,133.58950746059418L238.81503472222224,138.49700850248337L238.97661458333334,141.8022249341011L239.29977430555556,139.82567828893661L239.46135416666667,139.46481478214264L239.62293402777777,137.6957870721817L239.94609375,131.5029240846634L240.26925347222223,133.7816761136055L240.43083333333334,135.19337457418442L240.59241319444445,136.96614754199982L240.9155729166667,135.95814567804337L241.07715277777777,143.9171878695488L241.23873263888888,150.32506030797958L241.40031249999998,142.6318786740303L241.72347222222223,134.56432950496674L241.88505208333333,137.95104485750198L242.04663194444444,133.76321357488632L242.20821180555555,140.8351571559906L242.36979166666669,139.52357840538025L242.69295138888887,147.38592964410782L242.85453124999998,137.044586956501L243.01611111111112,135.2279258966446L243.33927083333333,145.259836435318L243.50085069444444,138.37262374162674L243.9855902777778,141.82707023620605L244.30875,147.45825004577637L244.47032986111108,144.18120217323303L244.79348958333333,136.66610491275787L244.95506944444443,140.5879173874855L245.11664930555554,135.66828382015228L245.27822916666668,130.44945162534714L245.43980902777778,146.14297878742218L245.6013888888889,137.58000057935715L245.76296875,135.13487470149994L246.24770833333335,137.82275658845901L246.40928819444443,145.32820057868958L246.57086805555554,140.192977309227L246.73244791666667,138.8925815820694L246.89402777777778,147.7512241601944L247.0556076388889,133.61155700683594L247.2171875,144.7178817987442L247.54034722222224,132.69286108016968L247.70192708333335,148.8883055448532L247.86350694444445,141.83587950468063L248.02508680555556,140.27321022748947L248.1866666666667,145.11946839094162L248.34824652777777,135.5781866312027L248.8329861111111,127.10266810655594L249.15614583333334,146.3337231874466L249.31772569444445,143.80245637893677L249.47930555555556,152.01601785421371L249.64088541666666,143.7910623550415L249.8024652777778,139.50490486621857L249.9640451388889,140.02085369825363L250.12562499999999,135.60751569271088L250.2872048611111,151.10053968429565L250.44878472222223,135.70156913995743L250.61036458333334,144.68079847097397L251.09510416666666,143.40857130289078L251.2566840277778,147.41330695152283L251.7414236111111,137.1292508840561L251.90300347222222,146.87457007169724L252.06458333333333,135.6188042163849L252.22616319444444,132.64950048923492L252.38774305555555,150.61312866210938L252.54932291666665,141.1113567352295L252.8724826388889,141.24703001976013L253.0340625,143.9598627090454L253.1956423611111,142.105801820755L253.51880208333336,138.07959687709808L253.68038194444443,142.75024992227554L253.84196180555554,139.6405781507492L254.16512152777779,149.63883411884308L254.3267013888889,141.29598212242126L254.48828125,141.46589022874832L254.81144097222221,141.63258057832718L254.97302083333335,140.39511573314667L255.13460069444446,137.8102548122406L255.45776041666664,140.20985734462738L255.61934027777778,146.6678951382637L255.9425,141.9192774295807L256.10407986111113,140.92783910036087L256.2656597222222,144.60404706001282L256.42723958333335,148.19880884885788L256.5888194444444,139.0038315653801L256.75039930555556,146.55875515937805L257.0735590277778,145.1829795241356L257.2351388888889,133.98302328586578L257.7198784722222,143.71088218688965L258.0430381944445,146.12425249814987L258.52777777777777,153.61397695541382L259.1740972222222,146.89778012037277L259.98199652777777,142.27454942464828L260.4667361111111,145.80416482686996L260.6283159722222,146.31309789419174L260.78989583333333,136.37998831272125L260.95147569444447,149.26773709058762L261.11305555555555,141.58088546991348L261.2746354166667,140.75582098960876L261.5977951388889,146.72191125154495L261.75937500000003,144.24719256162643L262.0825347222222,143.5001454949379L262.2441145833333,139.6866289973259L262.56727430555554,145.43496680259705L262.7288541666667,145.23383063077927L262.89043402777776,141.03845608234406L263.0520138888889,137.02570241689682L263.3751736111111,146.95158523321152L263.5367534722222,141.8754420876503L263.6983333333333,141.28226709365845L263.85991319444446,146.20775592327118L264.02149305555554,142.2081897854805L264.1830729166667,145.42330902814865L264.34465277777775,142.87758868932724L264.5062326388889,141.20314192771912L264.6678125,143.13791048526764L264.8293923611111,145.7116938829422" style="fill: none;" fill="none"></path></g></g></g></g></g></g><g transform="translate(39, 177)" clip-path="url(#clip_1)"><clipPath id="clip_1"><rect width="290" height="23"></rect></clipPath><g><g><line x1="0" y1="0" x2="0" y2="5" style="visibility: inherit;" fill="rgb(0, 0, 0)" stroke="rgb(204, 204, 204)" stroke-width="1px"></line><line x1="32.31597222222222" y1="0" x2="32.31597222222222" y2="5" style="visibility: inherit;" fill="rgb(0, 0, 0)" stroke="rgb(204, 204, 204)" stroke-width="1px"></line><line x1="64.63194444444444" y1="0" x2="64.63194444444444" y2="5" style="visibility: inherit;" fill="rgb(0, 0, 0)" stroke="rgb(204, 204, 204)" stroke-width="1px"></line><line x1="96.94791666666666" y1="0" x2="96.94791666666666" y2="5" style="visibility: inherit;" fill="rgb(0, 0, 0)" stroke="rgb(204, 204, 204)" stroke-width="1px"></line><line x1="129.26388888888889" y1="0" x2="129.26388888888889" y2="5" style="visibility: inherit;" fill="rgb(0, 0, 0)" stroke="rgb(204, 204, 204)" stroke-width="1px"></line><line x1="161.57986111111111" y1="0" x2="161.57986111111111" y2="5" style="visibility: inherit;" fill="rgb(0, 0, 0)" stroke="rgb(204, 204, 204)" stroke-width="1px"></line><line x1="193.89583333333331" y1="0" x2="193.89583333333331" y2="5" style="visibility: inherit;" fill="rgb(0, 0, 0)" stroke="rgb(204, 204, 204)" stroke-width="1px"></line><line x1="226.21180555555557" y1="0" x2="226.21180555555557" y2="5" style="visibility: inherit;" fill="rgb(0, 0, 0)" stroke="rgb(204, 204, 204)" stroke-width="1px"></line><line x1="258.52777777777777" y1="0" x2="258.52777777777777" y2="5" style="visibility: inherit;" fill="rgb(0, 0, 0)" stroke="rgb(204, 204, 204)" stroke-width="1px"></line><line x1="290.84375" y1="0" x2="290.84375" y2="5" style="visibility: inherit;" fill="rgb(0, 0, 0)" stroke="rgb(204, 204, 204)" stroke-width="1px"></line></g><g transform="translate(0, 8)"><text x="0" y="0" dx="0em" dy="0.95em" style="text-anchor: middle; visibility: hidden; font-family: &quot;Helvetica Neue&quot;, sans-serif; font-size: 12px; font-weight: 200;" fill="rgb(50, 49, 63)" stroke="none" stroke-width="1px">-200</text><text x="32.31597222222222" y="0" dx="0em" dy="0.95em" style="text-anchor: middle; visibility: inherit; font-family: &quot;Helvetica Neue&quot;, sans-serif; font-size: 12px; font-weight: 200;" fill="rgb(50, 49, 63)" stroke="none" stroke-width="1px">0</text><text x="64.63194444444444" y="0" dx="0em" dy="0.95em" style="text-anchor: middle; visibility: inherit; font-family: &quot;Helvetica Neue&quot;, sans-serif; font-size: 12px; font-weight: 200;" fill="rgb(50, 49, 63)" stroke="none" stroke-width="1px">200</text><text x="96.94791666666666" y="0" dx="0em" dy="0.95em" style="text-anchor: middle; visibility: inherit; font-family: &quot;Helvetica Neue&quot;, sans-serif; font-size: 12px; font-weight: 200;" fill="rgb(50, 49, 63)" stroke="none" stroke-width="1px">400</text><text x="129.26388888888889" y="0" dx="0em" dy="0.95em" style="text-anchor: middle; visibility: inherit; font-family: &quot;Helvetica Neue&quot;, sans-serif; font-size: 12px; font-weight: 200;" fill="rgb(50, 49, 63)" stroke="none" stroke-width="1px">600</text><text x="161.57986111111111" y="0" dx="0em" dy="0.95em" style="text-anchor: middle; visibility: inherit; font-family: &quot;Helvetica Neue&quot;, sans-serif; font-size: 12px; font-weight: 200;" fill="rgb(50, 49, 63)" stroke="none" stroke-width="1px">800</text><text x="193.89583333333331" y="0" dx="0em" dy="0.95em" style="text-anchor: middle; visibility: inherit; font-family: &quot;Helvetica Neue&quot;, sans-serif; font-size: 12px; font-weight: 200;" fill="rgb(50, 49, 63)" stroke="none" stroke-width="1px">1k</text><text x="226.21180555555557" y="0" dx="0em" dy="0.95em" style="text-anchor: middle; visibility: inherit; font-family: &quot;Helvetica Neue&quot;, sans-serif; font-size: 12px; font-weight: 200;" fill="rgb(50, 49, 63)" stroke="none" stroke-width="1px">1.2k</text><text x="258.52777777777777" y="0" dx="0em" dy="0.95em" style="text-anchor: middle; visibility: inherit; font-family: &quot;Helvetica Neue&quot;, sans-serif; font-size: 12px; font-weight: 200;" fill="rgb(50, 49, 63)" stroke="none" stroke-width="1px">1.4k</text><text x="290.84375" y="0" dx="0em" dy="0.95em" style="text-anchor: middle; visibility: hidden; font-family: &quot;Helvetica Neue&quot;, sans-serif; font-size: 12px; font-weight: 200;" fill="rgb(50, 49, 63)" stroke="none" stroke-width="1px">1.6k</text></g><line x1="0" y1="0" x2="290.84375" y2="0" fill="rgb(0, 0, 0)" stroke="rgb(204, 204, 204)" stroke-width="1px"></line></g></g></g></g></svg>