<svg viewBox="0 0 330 200" xmlns="http://www.w3.org/2000/svg"><g><g><g><g><g><line x1="58.59375" y1="177" x2="53.59375" y2="177" style="visibility: inherit;" fill="rgb(0, 0, 0)" stroke="rgb(204, 204, 204)" stroke-width="1px"></line><line x1="58.59375" y1="165.2" x2="53.59375" y2="165.2" style="visibility: inherit;" fill="rgb(0, 0, 0)" stroke="rgb(204, 204, 204)" stroke-width="1px"></line><line x1="58.59375" y1="153.4" x2="53.59375" y2="153.4" style="visibility: inherit;" fill="rgb(0, 0, 0)" stroke="rgb(204, 204, 204)" stroke-width="1px"></line><line x1="58.59375" y1="141.6" x2="53.59375" y2="141.6" style="visibility: inherit;" fill="rgb(0, 0, 0)" stroke="rgb(204, 204, 204)" stroke-width="1px"></line><line x1="58.59375" y1="129.8" x2="53.59375" y2="129.8" style="visibility: inherit;" fill="rgb(0, 0, 0)" stroke="rgb(204, 204, 204)" stroke-width="1px"></line><line x1="58.59375" y1="118" x2="53.59375" y2="118" style="visibility: inherit;" fill="rgb(0, 0, 0)" stroke="rgb(204, 204, 204)" stroke-width="1px"></line><line x1="58.59375" y1="106.2" x2="53.59375" y2="106.2" style="visibility: inherit;" fill="rgb(0, 0, 0)" stroke="rgb(204, 204, 204)" stroke-width="1px"></line><line x1="58.59375" y1="94.39999999999999" x2="53.59375" y2="94.39999999999999" style="visibility: inherit;" fill="rgb(0, 0, 0)" stroke="rgb(204, 204, 204)" stroke-width="1px"></line><line x1="58.59375" y1="82.6" x2="53.59375" y2="82.6" style="visibility: inherit;" fill="rgb(0, 0, 0)" stroke="rgb(204, 204, 204)" stroke-width="1px"></line><line x1="58.59375" y1="70.79999999999998" x2="53.59375" y2="70.79999999999998" style="visibility: inherit;" fill="rgb(0, 0, 0)" stroke="rgb(204, 204, 204)" stroke-width="1px"></line><line x1="58.59375" y1="58.999999999999986" x2="53.59375" y2="58.999999999999986" style="visibility: inherit;" fill="rgb(0, 0, 0)" stroke="rgb(204, 204, 204)" stroke-width="1px"></line><line x1="58.59375" y1="47.19999999999999" x2="53.59375" y2="47.19999999999999" style="visibility: inherit;" fill="rgb(0, 0, 0)" stroke="rgb(204, 204, 204)" stroke-width="1px"></line><line x1="58.59375" y1="35.400000000000006" x2="53.59375" y2="35.400000000000006" style="visibility: inherit;" fill="rgb(0, 0, 0)" stroke="rgb(204, 204, 204)" stroke-width="1px"></line><line x1="58.59375" y1="23.599999999999994" x2="53.59375" y2="23.599999999999994" style="visibility: inherit;" fill="rgb(0, 0, 0)" stroke="rgb(204, 204, 204)" stroke-width="1px"></line><line x1="58.59375" y1="11.800000000000011" x2="53.59375" y2="11.800000000000011" style="visibility: inherit;" fill="rgb(0, 0, 0)" stroke="rgb(204, 204, 204)" stroke-width="1px"></line><line x1="58.59375" y1="0" x2="53.59375" y2="0" style="visibility: inherit;" fill="rgb(0, 0, 0)" stroke="rgb(204, 204, 204)" stroke-width="1px"></line></g><g transform="translate(48.59375, 0)"><text x="0" y="177" dx="0em" dy="0.3em" style="text-anchor: end; visibility: hidden; font-family: &quot;Helvetica Neue&quot;, sans-serif; font-size: 12px; font-weight: 200;" fill="rgb(50, 49, 63)" stroke="none" stroke-width="1px">-0.04</text><text x="0" y="165.2" dx="0em" dy="0.3em" style="text-anchor: end; visibility: inherit; font-family: &quot;Helvetica Neue&quot;, sans-serif; font-size: 12px; font-weight: 200;" fill="rgb(50, 49, 63)" stroke="none" stroke-width="1px">-0.02</text><text x="0" y="153.4" dx="0em" dy="0.3em" style="text-anchor: end; visibility: hidden; font-family: &quot;Helvetica Neue&quot;, sans-serif; font-size: 12px; font-weight: 200;" fill="rgb(50, 49, 63)" stroke="none" stroke-width="1px">0</text><text x="0" y="141.6" dx="0em" dy="0.3em" style="text-anchor: end; visibility: hidden; font-family: &quot;Helvetica Neue&quot;, sans-serif; font-size: 12px; font-weight: 200;" fill="rgb(50, 49, 63)" stroke="none" stroke-width="1px">0.02</text><text x="0" y="129.8" dx="0em" dy="0.3em" style="text-anchor: end; visibility: inherit; font-family: &quot;Helvetica Neue&quot;, sans-serif; font-size: 12px; font-weight: 200;" fill="rgb(50, 49, 63)" stroke="none" stroke-width="1px">0.04</text><text x="0" y="118" dx="0em" dy="0.3em" style="text-anchor: end; visibility: hidden; font-family: &quot;Helvetica Neue&quot;, sans-serif; font-size: 12px; font-weight: 200;" fill="rgb(50, 49, 63)" stroke="none" stroke-width="1px">0.06</text><text x="0" y="106.2" dx="0em" dy="0.3em" style="text-anchor: end; visibility: hidden; font-family: &quot;Helvetica Neue&quot;, sans-serif; font-size: 12px; font-weight: 200;" fill="rgb(50, 49, 63)" stroke="none" stroke-width="1px">0.08</text><text x="0" y="94.39999999999999" dx="0em" dy="0.3em" style="text-anchor: end; visibility: inherit; font-family: &quot;Helvetica Neue&quot;, sans-serif; font-size: 12px; font-weight: 200;" fill="rgb(50, 49, 63)" stroke="none" stroke-width="1px">0.1</text><text x="0" y="82.6" dx="0em" dy="0.3em" style="text-anchor: end; visibility: hidden; font-family: &quot;Helvetica Neue&quot;, sans-serif; font-size: 12px; font-weight: 200;" fill="rgb(50, 49, 63)" stroke="none" stroke-width="1px">0.12</text><text x="0" y="70.79999999999998" dx="0em" dy="0.3em" style="text-anchor: end; visibility: hidden; font-family: &quot;Helvetica Neue&quot;, sans-serif; font-size: 12px; font-weight: 200;" fill="rgb(50, 49, 63)" stroke="none" stroke-width="1px">0.14</text><text x="0" y="58.999999999999986" dx="0em" dy="0.3em" style="text-anchor: end; visibility: inherit; font-family: &quot;Helvetica Neue&quot;, sans-serif; font-size: 12px; font-weight: 200;" fill="rgb(50, 49, 63)" stroke="none" stroke-width="1px">0.16</text><text x="0" y="47.19999999999999" dx="0em" dy="0.3em" style="text-anchor: end; visibility: hidden; font-family: &quot;Helvetica Neue&quot;, sans-serif; font-size: 12px; font-weight: 200;" fill="rgb(50, 49, 63)" stroke="none" stroke-width="1px">0.18</text><text x="0" y="35.400000000000006" dx="0em" dy="0.3em" style="text-anchor: end; visibility: hidden; font-family: &quot;Helvetica Neue&quot;, sans-serif; font-size: 12px; font-weight: 200;" fill="rgb(50, 49, 63)" stroke="none" stroke-width="1px">0.2</text><text x="0" y="23.599999999999994" dx="0em" dy="0.3em" style="text-anchor: end; visibility: inherit; font-family: &quot;Helvetica Neue&quot;, sans-serif; font-size: 12px; font-weight: 200;" fill="rgb(50, 49, 63)" stroke="none" stroke-width="1px">0.22</text><text x="0" y="11.800000000000011" dx="0em" dy="0.3em" style="text-anchor: end; visibility: hidden; font-family: &quot;Helvetica Neue&quot;, sans-serif; font-size: 12px; font-weight: 200;" fill="rgb(50, 49, 63)" stroke="none" stroke-width="1px">0.24</text><text x="0" y="0" dx="0em" dy="0.3em" style="text-anchor: end; visibility: hidden; font-family: &quot;Helvetica Neue&quot;, sans-serif; font-size: 12px; font-weight: 200;" fill="rgb(50, 49, 63)" stroke="none" stroke-width="1px">0.26</text></g><line x1="58.59375" y1="0" x2="58.59375" y2="177" fill="rgb(0, 0, 0)" stroke="rgb(204, 204, 204)" stroke-width="1px"></line></g></g><g transform="translate(58, 0)" clip-path="url(#clip_0)"><clipPath id="clip_0"><rect width="271" height="177"></rect></clipPath><g><g><g><line x1="0" y1="0" x2="0" y2="177" fill="rgb(0, 0, 0)" stroke="rgb(60, 60, 60)" stroke-width="1px" opacity="0.25"></line><line x1="22.6171875" y1="0" x2="22.6171875" y2="177" fill="rgb(0, 0, 0)" stroke="rgb(60, 60, 60)" stroke-width="1px" opacity="0.25"></line><line x1="45.234375" y1="0" x2="45.234375" y2="177" fill="rgb(0, 0, 0)" stroke="rgb(60, 60, 60)" stroke-width="1px" opacity="0.25"></line><line x1="67.8515625" y1="0" x2="67.8515625" y2="177" fill="rgb(0, 0, 0)" stroke="rgb(60, 60, 60)" stroke-width="1px" opacity="0.25"></line><line x1="90.46875" y1="0" x2="90.46875" y2="177" fill="rgb(0, 0, 0)" stroke="rgb(60, 60, 60)" stroke-width="1px" opacity="0.25"></line><line x1="113.0859375" y1="0" x2="113.0859375" y2="177" fill="rgb(0, 0, 0)" stroke="rgb(60, 60, 60)" stroke-width="1px" opacity="0.25"></line><line x1="135.703125" y1="0" x2="135.703125" y2="177" fill="rgb(0, 0, 0)" stroke="rgb(60, 60, 60)" stroke-width="1px" opacity="0.25"></line><line x1="158.3203125" y1="0" x2="158.3203125" y2="177" fill="rgb(0, 0, 0)" stroke="rgb(60, 60, 60)" stroke-width="1px" opacity="0.25"></line><line x1="180.9375" y1="0" x2="180.9375" y2="177" fill="rgb(0, 0, 0)" stroke="rgb(60, 60, 60)" stroke-width="1px" opacity="0.25"></line><line x1="203.5546875" y1="0" x2="203.5546875" y2="177" fill="rgb(0, 0, 0)" stroke="rgb(60, 60, 60)" stroke-width="1px" opacity="0.25"></line><line x1="226.171875" y1="0" x2="226.171875" y2="177" fill="rgb(0, 0, 0)" stroke="rgb(60, 60, 60)" stroke-width="1px" opacity="0.25"></line><line x1="248.7890625" y1="0" x2="248.7890625" y2="177" fill="rgb(0, 0, 0)" stroke="rgb(60, 60, 60)" stroke-width="1px" opacity="0.25"></line><line x1="271.40625" y1="0" x2="271.40625" y2="177" fill="rgb(0, 0, 0)" stroke="rgb(60, 60, 60)" stroke-width="1px" opacity="0.25"></line></g><g><line x1="0" y1="177" x2="271.40625" y2="177" fill="rgb(0, 0, 0)" stroke="rgb(60, 60, 60)" stroke-width="1px" opacity="0.25"></line><line x1="0" y1="165.2" x2="271.40625" y2="165.2" fill="rgb(0, 0, 0)" stroke="rgb(60, 60, 60)" stroke-width="1px" opacity="0.25"></line><line x1="0" y1="153.4" x2="271.40625" y2="153.4" fill="rgb(0, 0, 0)" stroke="rgb(60, 60, 60)" stroke-width="1px" opacity="0.25"></line><line x1="0" y1="141.6" x2="271.40625" y2="141.6" fill="rgb(0, 0, 0)" stroke="rgb(60, 60, 60)" stroke-width="1px" opacity="0.25"></line><line x1="0" y1="129.8" x2="271.40625" y2="129.8" fill="rgb(0, 0, 0)" stroke="rgb(60, 60, 60)" stroke-width="1px" opacity="0.25"></line><line x1="0" y1="118" x2="271.40625" y2="118" fill="rgb(0, 0, 0)" stroke="rgb(60, 60, 60)" stroke-width="1px" opacity="0.25"></line><line x1="0" y1="106.2" x2="271.40625" y2="106.2" fill="rgb(0, 0, 0)" stroke="rgb(60, 60, 60)" stroke-width="1px" opacity="0.25"></line><line x1="0" y1="94.39999999999999" x2="271.40625" y2="94.39999999999999" fill="rgb(0, 0, 0)" stroke="rgb(60, 60, 60)" stroke-width="1px" opacity="0.25"></line><line x1="0" y1="82.6" x2="271.40625" y2="82.6" fill="rgb(0, 0, 0)" stroke="rgb(60, 60, 60)" stroke-width="1px" opacity="0.25"></line><line x1="0" y1="70.79999999999998" x2="271.40625" y2="70.79999999999998" fill="rgb(0, 0, 0)" stroke="rgb(60, 60, 60)" stroke-width="1px" opacity="0.25"></line><line x1="0" y1="58.999999999999986" x2="271.40625" y2="58.999999999999986" fill="rgb(0, 0, 0)" stroke="rgb(60, 60, 60)" stroke-width="1px" opacity="0.25"></line><line x1="0" y1="47.19999999999999" x2="271.40625" y2="47.19999999999999" fill="rgb(0, 0, 0)" stroke="rgb(60, 60, 60)" stroke-width="1px" opacity="0.25"></line><line x1="0" y1="35.400000000000006" x2="271.40625" y2="35.400000000000006" fill="rgb(0, 0, 0)" stroke="rgb(60, 60, 60)" stroke-width="1px" opacity="0.25"></line><line x1="0" y1="23.599999999999994" x2="271.40625" y2="23.599999999999994" fill="rgb(0, 0, 0)" stroke="rgb(60, 60, 60)" stroke-width="1px" opacity="0.25"></line><line x1="0" y1="11.800000000000011" x2="271.40625" y2="11.800000000000011" fill="rgb(0, 0, 0)" stroke="rgb(60, 60, 60)" stroke-width="1px" opacity="0.25"></line><line x1="0" y1="0" x2="271.40625" y2="0" fill="rgb(0, 0, 0)" stroke="rgb(60, 60, 60)" stroke-width="1px" opacity="0.25"></line></g></g></g><g><g><line x1="0" y1="153.4" x2="271.40625" y2="153.4" fill="rgb(0, 0, 0)" stroke="rgb(153, 153, 153)" stroke-width="1.5px"></line></g></g><g><g><line x1="22.6171875" y1="0" x2="22.6171875" y2="177" fill="rgb(0, 0, 0)" stroke="rgb(153, 153, 153)" stroke-width="1.5px"></line></g></g><g><g><g><g><g><path stroke="rgb(51, 187, 238)" stroke-width="2px" d="M23.521875,-22.70195398330688L23.748046875,8.273684644699102L23.97421875,11.344998294115072L24.200390625,12.336243206262594L24.4265625,13.294686341285711L24.652734375,13.89775198101998L24.87890625,14.380389118194586L25.105078125,14.775074237585073L25.33125,14.953343236446386L25.557421875,15.168783479928976L25.78359375,15.605009311437612L26.009765625,32.482301706075674L26.2359375,39.50512614250181L26.462109375,40.98573383092881L26.68828125,41.50231566429139L26.914453125,42.05188390016556L27.140625,42.43950050473214L27.366796875,42.75075253248215L27.59296875,43.72654166221619L27.819140625,46.01105224490166L28.0453125,50.48798050880433L28.271484375,54.05569028258323L28.49765625,56.69774990677834L28.723828125,58.38003005981446L28.950000000000003,59.79523640275002L29.176171874999998,60.78251626491546L29.40234375,61.92997183799743L29.628515625,62.98334758877755L29.8546875,63.605825269222265L30.080859375000003,64.36368610858918L30.307031249999998,65.11226292848588L30.533203125,65.52205216288567L30.759375,66.46348338723183L30.985546875,66.51586424708367L31.211718750000003,67.30945449471473L31.437890624999998,67.57065545916558L31.6640625,67.75060366988181L32.11640625,68.52095749378203L32.342578125,68.95819436907769L32.56875,69.20372855067252L32.794921875,69.82299726605414L33.02109375,69.95545279383659L33.247265625,69.74992957115172L33.4734375,70.16829949021339L33.699609375,70.4011033117771L33.92578125,70.70730012059211L34.151953125,71.15879710912705L34.378125000000004,71.53259318470954L34.604296875,71.55780773758887L34.83046875,71.76392000317574L35.056640625,71.8877948462963L35.2828125,72.12423842549323L35.508984375,72.33501907587052L35.735156249999996,72.54976477622986L35.961328125,72.7387772142887L36.1875,72.67297145128249L36.413671875,73.06009572148324L36.639843750000004,73.23490958809853L36.866015625,73.65564447045327L37.092187499999994,74.05488368272782L37.318359375,74.15679689645768L37.54453125,73.84197544455527L37.770703125,74.0741726398468L37.996875,74.43467568755149L38.223046875,74.92964755892753L38.44921875,74.83739640712737L38.675390625,75.0420228779316L38.901562500000004,75.31175177693366L39.127734375,75.91712962985038L39.353906249999994,75.40536563992501L39.580078125,75.70720177292824L39.80625,75.91068532466889L40.032421875,75.96397172808646L40.25859375,76.24869045019149L40.484765625,76.56250964999198L40.7109375,76.79572668075562L40.937109375000006,77.41073142886161L41.163281250000004,77.30303328633308L41.389453124999996,76.83463867902755L41.615624999999994,77.06770625114441L41.841796875,77.13778477311135L42.06796875,77.26359378695489L42.294140625,77.69969653487205L42.5203125,77.84823205471038L42.746484375,77.92575713396072L42.97265625,78.72856985926629L43.198828125000006,78.4690656900406L43.425000000000004,78.53974204659461L43.651171874999996,78.70904352664947L43.877343749999994,78.96481122970582L44.103515625,79.0129017472267L44.3296875,79.03597992062568L44.555859375,79.01484470963479L44.78203125,79.32694073915482L45.008203125,79.62505798935891L45.234375,79.62336998581887L45.460546875000006,79.66587338745595L45.68671875,79.79017902314664L45.912890624999996,79.82152577638627L46.1390625,80.2144305795431L46.365234375,80.19537020623683L46.59140625,80.08674893677234L46.817578125,80.41916255056857L47.04375,80.35920325815677L47.269921875,80.46895865499972L47.49609375,80.75776551067828L47.722265625000006,80.34185286760331L47.9484375,80.59838984310628L48.174609374999996,81.17446940541267L48.40078125,80.89531142413615L48.626953125,81.18283029794692L48.853125,80.5820856630802L49.079296875000004,81.08064454197884L49.30546875,81.09855320453644L49.531640625,81.26984160542487L49.7578125,81.22423473894595L49.983984375,81.0345321536064L50.21015625,81.56076725721358L50.436328124999996,81.59492734968661L50.6625,81.69475693404674L50.888671875,81.88755419254302L51.11484375,82.1642900645733L51.341015625000004,81.69164028167724L51.5671875,81.60800937712192L51.793359375,81.88466612398624L52.01953125,82.0905937641859L52.245703125,81.61098096668721L52.471875,82.14897494912147L52.698046874999996,82.50332821309567L52.92421875,81.911054366827L53.150390625,82.29903582632541L53.3765625,82.16687921583652L53.602734375000004,82.45853457748889L53.82890625,82.37497840225696L54.055078124999994,82.30189312398433L54.28125,82.59708274304866L54.507421875,82.33777638673781L54.73359375,82.4533870458603L54.959765625,82.8352187216282L55.1859375,82.7995552510023L55.412109375,82.53110993802547L55.63828125,82.43665646910667L55.864453125000004,82.87886943817139L56.090625,82.86962937712669L56.316796874999994,82.84691605865956L56.54296875,83.33521504104137L56.769140625,83.2476454615593L57.221484375,83.13916046321391L57.44765625,83.06844014823437L57.673828125,83.20029344558715L57.900000000000006,83.31635687649249L58.126171875000004,83.82896486818791L58.352343749999996,83.12065836191177L58.578515624999994,83.86196445822715L58.8046875,83.64480983614921L59.030859375,83.51638969182967L59.25703125,83.61001234650612L59.483203125,83.3906773865223L59.709375,83.965055757761L59.935546875,83.69519058763981L60.161718750000006,83.70743740499019L60.387890625000004,83.76906711757184L60.614062499999996,84.03378036022187L60.840234374999994,83.91902249455453L61.06640625,84.15623974204064L61.292578125,84.0912076473236L61.51875,83.89398377537727L61.744921875,84.0767365336418L61.97109375,84.2610102534294L62.197265625,84.2827257156372L62.423437500000006,84.28765785098075L62.649609375,84.4857257246971L62.875781249999996,84.12653263807296L63.101953125,84.13705188930035L63.328125,84.31175585985183L63.554296875,84.40770391523837L63.78046875,84.26219273507594L64.006640625,84.47496470212936L64.2328125,84.57347553372382L64.458984375,84.23434946835042L64.68515625,84.74697064757346L64.911328125,84.97504454255103L65.1375,84.4646916180849L65.36367187500001,84.929173925519L65.58984375,84.96214274466038L65.81601562499999,85.2070263415575L66.0421875,85.0708519309759L66.268359375,85.11344324946404L66.49453125,84.95114874243735L66.946875,84.86465614438056L67.173046875,85.23683454990386L67.39921875,85.1543113976717L67.62539062500001,85.21223981082439L67.8515625,85.4647370070219L68.077734375,85.46881195306777L68.30390625,85.56501496732234L68.530078125,85.195654296875L68.982421875,85.64153339862823L69.20859375,85.6865204513073L69.43476562500001,85.50686236619948L69.6609375,85.61769474446774L69.88710937500001,85.86920727193356L70.33945312499999,86.12757291793822L70.565625,86.03420082628726L70.79179687499999,86.0311369240284L71.01796875,86.35006409287453L71.244140625,85.87946716845036L71.47031249999999,85.8124701321125L71.696484375,86.09418649375439L71.92265625,86.06138911247254L72.148828125,86.14459362030028L72.375,86.42925080060958L72.601171875,86.22688818871974L72.82734375,86.38558250069617L73.053515625,86.2539402037859L73.505859375,86.1090884000063L73.73203125,86.55145961940288L73.95820312500001,86.68089520335197L74.18437499999999,86.32792223393918L74.410546875,86.82920653522015L74.63671875,86.19427982866765L74.86289062499999,86.81556183993816L75.0890625,86.89324077367782L75.315234375,86.87368806600571L75.54140625,86.85660142600535L75.767578125,87.00028393566608L75.99375,86.6323870807886L76.219921875,87.16296527683734L76.44609375,87.02554244697095L76.672265625,86.80273477137088L76.8984375,87.180500292778L77.124609375,87.38852474987506L77.35078125,86.95033397674561L77.576953125,86.98159720897674L77.80312500000001,87.06288512945174L78.029296875,87.06883710026742L78.25546875,87.11197350323201L78.48164062500001,87.54478376507758L78.70781249999999,87.74377476572991L78.933984375,87.27062825262546L79.16015625,87.28760939240455L79.38632812499999,87.3759262651205L79.6125,87.30822149813174L79.838671875,87.5107775270939L80.06484375,87.48966869115829L80.291015625,87.58875098228454L80.5171875,87.94459443688393L80.743359375,88.15395523011684L80.96953125,87.61166211366654L81.19570312500001,87.71897781789302L81.421875,87.36927095949649L81.648046875,87.91895348727702L81.87421875000001,87.8911365956068L82.100390625,88.2126133531332L82.32656250000001,88.10501191914081L82.552734375,88.21677621603011L83.005078125,88.59473955035209L83.23124999999999,88.24575800597668L83.457421875,88.06412179172038L83.68359375,88.33588596582412L83.90976562499999,88.28227427005768L84.1359375,88.3807147681713L84.362109375,88.31227589547635L84.58828125,88.12052045166492L84.814453125,88.59546926021575L85.040625,88.22499204576015L85.266796875,88.76997102200984L85.49296875,88.74491471946239L85.71914062500001,88.21919392943381L85.9453125,88.49627267718314L86.171484375,88.70027493834495L86.39765625000001,89.06594310104846L86.623828125,88.91582507789134L86.85000000000001,88.9295269191265L87.076171875,89.12901464998721L87.30234374999999,88.88381894826888L87.528515625,89.06697172820567L87.980859375,89.2662924170494L88.43320312499999,88.77847697734832L88.659375,89.14345938861369L88.885546875,89.24791339933871L89.11171875,89.66355789601802L89.337890625,88.94252102971076L89.5640625,89.31333232820033L89.790234375,89.17548310160636L90.01640625,89.34135142862796L90.24257812500001,89.72576785981654L90.46875,89.7305065780878L90.694921875,89.49184309840201L90.92109375000001,89.54819340407848L91.14726562499999,89.75228797793388L91.3734375,89.77594200670718L91.599609375,89.79960043132304L92.051953125,89.86264120936393L92.278125,90.12996558248996L92.504296875,89.77119449675082L92.73046875,89.99864418208598L92.956640625,89.94661498963832L93.408984375,90.00996347665786L93.63515625,90.07084589600562L93.861328125,90.32764662206172L94.0875,89.78083897531032L94.313671875,90.26479046940803L94.53984375,90.29555257558822L94.76601562500001,90.7823569715023L94.9921875,90.04636105298995L95.218359375,90.25822747647761L95.44453125000001,90.55506553649901L95.67070312499999,90.4896641910076L95.896875,90.4734655112028L96.123046875,90.96415143609046L96.34921874999999,90.30635755658149L96.575390625,90.49941416978835L96.8015625,90.56663539409637L97.027734375,90.86131069958209L97.25390625,91.50684017837047L97.480078125,90.89328605830669L97.70625,90.94143811762332L97.932421875,91.35349560678004L98.15859375000001,90.6964622080326L98.384765625,91.11373316645621L98.6109375,90.73808204531669L98.83710937500001,91.40154656171798L99.06328125,91.43865186870097L99.28945312500001,91.24612275660037L99.515625,91.05014730393886L99.74179687499999,91.56922597587108L99.96796875,91.75995718836784L100.19414062499999,91.16261493563651L100.4203125,91.72156389951705L100.646484375,91.66025508344173L100.87265624999999,91.38963822424411L101.098828125,91.68855112195014L101.325,91.53162833452224L101.551171875,92.00248461365699L101.77734375,91.8473069757223L102.003515625,91.94551449418067L102.2296875,91.87604699432849L102.455859375,92.1196909636259L102.68203125000001,91.89446557462215L102.908203125,92.00487595200538L103.134375,92.25688960552215L103.36054687500001,92.25452903807162L103.58671875,91.93897787630557L103.81289062500001,92.2801436126232L104.0390625,91.96669805943965L104.26523437499999,92.32077438533305L104.49140625,92.93307569026946L104.71757812499999,92.8503679126501L104.94375,92.40428660213946L105.169921875,92.55569700300693L105.39609374999999,92.94854026436805L105.622265625,92.57408041656016L105.8484375,92.96371910870074L106.30078125,92.54757788181304L106.526953125,92.86133114397525L106.753125,93.21495030224322L106.979296875,92.9475336164236L107.20546875000001,93.07062160372733L107.431640625,93.14285408854484L107.6578125,93.21446675956248L107.88398437500001,93.42998612821101L108.11015624999999,93.43094881772994L108.336328125,93.31354905068874L108.5625,93.41329071819781L108.78867187499999,93.56433186829089L109.01484375,93.64078875780105L109.241015625,93.34197696447372L109.4671875,93.8229612648487L109.693359375,93.58946729600429L109.91953125,93.73206842839717L110.145703125,93.6807381749153L110.371875,93.84949017465114L110.598046875,93.97078026235103L110.82421875,93.74173928201198L111.050390625,94.03233964145183L111.2765625,93.65302238762378L111.502734375,93.99071101248263L111.955078125,94.02251053750514L112.18125,94.24909424185752L112.40742187500001,94.25944645106792L112.63359374999999,94.45483286082744L112.859765625,95.00411536693572L113.0859375,94.33741551041602L113.31210937499999,94.59796589016914L113.53828125,94.85397096872329L113.764453125,94.43836603462695L113.990625,94.64308042228221L114.216796875,94.67750866115092L114.44296875,94.6863267213106L114.669140625,94.68376394510268L114.8953125,94.81610518097877L115.12148437500001,94.86113619208335L115.34765625,94.8477640390396L115.573828125,94.66948624849319L115.80000000000001,95.25389593243598L116.026171875,95.09314876198768L116.25234375000001,95.2126057833433L116.478515625,94.81137965023517L116.70468749999999,95.28541412353515L117.15703124999999,95.77030193209647L117.383203125,95.53330008089542L117.609375,95.64455446004867L117.83554687499999,95.11838529407977L118.06171875,95.48471283316611L118.287890625,95.93584057092666L118.5140625,95.94246950149535L118.740234375,95.70760842561721L118.96640625,95.72835240662097L119.192578125,95.92481140196323L119.41875,96.26676838994025L119.64492187500001,95.9056543201208L119.87109375,95.96028585135936L120.32343750000001,96.04578938484191L120.77578125000001,96.34570893049239L121.001953125,96.40977393984794L121.22812499999999,95.85442956686019L121.454296875,96.38320986330508L121.68046874999999,96.48345705270766L121.906640625,96.28573205471038L122.1328125,96.59545872509479L122.35898437499999,96.30252856910228L122.58515625,96.40429672002792L122.811328125,96.51821937561034L123.0375,96.46586049497127L123.263671875,96.51993815004825L123.48984375,96.52891885638236L123.716015625,96.62866491973399L123.9421875,96.68296236693858L124.16835937500001,96.7142827451229L124.39453125,96.92399960160255L124.620703125,97.06410829126834L124.84687500000001,96.8989520907402L125.07304687499999,97.15312410295009L125.29921875,96.77693229317664L125.525390625,96.93581562638282L125.75156249999999,97.17364829182624L125.977734375,96.92831631898879L126.20390625,97.18975905478L126.430078125,97.20056403577327L126.65625,97.30063539147376L126.882421875,97.17512089908122L127.10859375,96.95567164719104L127.334765625,97.6420121282339L127.5609375,97.45187875032424L127.787109375,97.26577196419238L128.01328125,97.1454006075859L128.23945312499998,97.44865220189094L128.465625,97.67044004201888L128.691796875,97.42474761009215L128.91796875,97.5296499967575L129.144140625,97.48196829259395L129.3703125,97.67072577178477L129.596484375,97.6404032498598L129.82265625,97.62001093626021L130.048828125,97.46121991574763L130.275,97.88631107807159L130.501171875,97.7037825077772L130.72734375000002,97.88668032884597L130.953515625,97.9137059688568L131.1796875,97.97843475043773L131.405859375,97.81248290240764L131.63203124999998,97.61148739755153L131.858203125,97.60807622373103L132.084375,97.92992223203181L132.310546875,98.03168159127235L132.53671875,97.79144000411033L132.762890625,97.85319719612598L132.9890625,97.60277923345565L133.215234375,97.79594574272632L133.44140625,97.8030626118183L133.667578125,98.26225672066211L133.89375,98.02024800479411L134.119921875,98.01827866733073L134.572265625,98.11350140869617L134.7984375,97.89432030320167L135.024609375,97.62067031264304L135.25078125000002,98.18200182318687L135.476953125,97.88409996926784L135.703125,98.23523108065127L136.15546875,97.90492307543754L136.381640625,97.92570222318172L136.6078125,97.9650977641344L136.833984375,98.11083752810954L137.06015625,98.44981413483619L137.286328125,97.98556480705737L137.51250000000002,98.20573497712611L137.738671875,98.37034609317779L137.96484375,97.99626428782939L138.191015625,98.21373980641364L138.4171875,98.11550591289996L138.64335937500002,97.93360155224799L138.86953125000002,98.01935125291347L139.095703125,98.03537849485873L139.321875,98.19183971881866L139.548046875,98.34074888527392L139.77421875000002,98.2937265574932L140.00039062500002,98.15995667278766L140.2265625,98.22861973345279L140.45273437499998,98.03856987655162L140.67890624999998,98.05199917554854L140.905078125,98.06469436883926L141.13125,98.26116655170917L141.357421875,98.15477397441863L142.262109375,98.6216564118862L142.48828125,98.50860852897166L142.714453125,98.24356559813022L142.94062499999998,97.98577141165732L143.166796875,98.19809060692786L143.39296875,98.17069571614265L143.619140625,98.15065946578979L143.8453125,98.48184224367141L144.071484375,98.2122364282608L144.29765625,98.41560129225253L144.523828125,98.2130628466606L144.75,98.5499294489622L144.976171875,98.39122634530067L145.20234375,98.23443103730678L145.42851562500002,98.2905923217535L145.6546875,98.30329191088676L145.880859375,98.20998575687408L146.10703125,98.36148847043513L146.333203125,98.39823331832885L146.55937500000002,98.58489398062228L146.78554687500002,98.43569908440112L147.01171875,98.39888390302657L147.237890625,98.35204180479049L147.4640625,98.40230386853217L147.69023437500002,98.46682604551314L148.142578125,98.4503372400999L148.36874999999998,98.70708082020282L148.59492187499998,98.67200639247893L148.82109375,98.6051368355751L149.047265625,98.40203572213649L149.2734375,98.48599191904067L149.49960937499998,98.92725099027156L149.72578124999998,98.41768052577972L149.951953125,98.66602804660796L150.178125,98.47478691637515L150.404296875,98.84975668191909L150.63046875,98.57319664359092L150.85664062499998,98.48591718971728L151.0828125,98.48323572576045L151.308984375,98.39687060713767L151.53515625,98.86217054128646L151.761328125,98.36169067919253L151.9875,98.68649508953094L152.213671875,98.66557087898254L152.43984375,98.68258278965949L152.666015625,98.99527665376662L152.8921875,98.5636005192995L153.118359375,99.03897132873534L153.34453125,98.8942514002323L153.570703125,98.63268118500709L153.796875,98.58645010888576L154.023046875,98.56598306596278L154.24921875,98.97858563959598L154.47539062500002,98.95125229060649L154.7015625,98.70963040888309L154.927734375,98.57188668251037L155.15390625,98.75166785120963L155.380078125,98.90985224545001L155.60625000000002,98.59480220973491L155.83242187500002,99.02468484044074L156.284765625,98.96840486824512L156.5109375,98.56575887799262L156.73710937500002,98.841325455904L156.96328125000002,99.10461444556712L157.189453125,99.23127185702323L157.41562499999998,98.91732517778873L157.64179687499998,99.1654133439064L157.86796875,99.2444945514202L158.094140625,99.14886739253997L158.3203125,98.75636261105537L158.54648437499998,98.92330791950225L158.77265624999998,99.05542057156562L158.998828125,99.24707051515578L159.225,98.83656915426253L159.451171875,98.94094403982162L159.67734375,99.0964249908924L160.1296875,99.2597832918167L160.355859375,98.87108970582484L160.58203125,99.08366825580596L160.808203125,99.12966195642947L161.034375,99.03545025885104L161.260546875,99.34339661300181L161.48671875,98.89518771469592L161.712890625,99.311992713809L161.9390625,99.4025119036436L162.165234375,99.28660232722758L162.39140625000002,99.11035102009772L162.617578125,99.23465665578841L162.84375,98.86736642718314L163.069921875,99.36979804337024L163.29609375,99.40604616105556L163.52226562500002,99.43199921548366L163.74843750000002,99.7580960035324L163.974609375,99.38584726452827L164.20078125,99.19134441912173L164.426953125,99.12149448096751L164.65312500000002,99.10230223238467L164.87929687500002,99.41516313850879L165.10546875,99.6968487292528L165.33164062499998,99.19458855092525L165.55781249999998,99.31182127594947L165.783984375,99.51465424299239L166.01015625,99.48735166490077L166.236328125,99.33554124236106L166.46249999999998,99.17054768800735L166.68867187499998,99.67548933029174L166.91484375,99.53099798560142L167.141015625,99.79277480542659L167.3671875,99.37709953784942L167.593359375,99.38709128797053L167.81953124999998,99.45349048972129L168.045703125,99.63737297952174L168.271875,99.38998814821242L168.498046875,99.80120603144168L168.72421875,99.89566389620303L168.950390625,99.87018559277057L169.1765625,99.70070827901363L169.402734375,99.67670258283614L169.62890625,99.6405951321125L169.855078125,99.64766364693641L170.08125,99.72052913308143L170.307421875,100.01791667342185L170.759765625,99.67331338822841L170.9859375,99.43415317833423L171.212109375,99.68920435905456L171.43828125000002,99.90836788117885L171.664453125,99.72222153246402L171.890625,99.8510241150856L172.116796875,99.48108758926391L172.34296875,99.609934130311L172.56914062500002,99.8235720783472L172.79531250000002,100.22217389345168L173.021484375,99.49159365296363L173.24765625,100.09348560273646L173.473828125,99.79548264443874L173.70000000000002,99.9246720612049L173.92617187500002,100.12029145061969L174.37851562499998,99.96688973307609L174.60468749999998,99.85979821681975L174.830859375,99.99877717494964L175.05703125,100.03451977074145L175.283203125,100.00235099494456L175.50937499999998,100.15333499908446L175.73554687499998,100.18340256214141L175.96171875,100.15202064216136L176.187890625,99.74009063243865L176.4140625,100.11881444752215L176.640234375,100.28994459807872L176.86640624999998,100.01598250269889L177.092578125,100.23478116989135L177.31875,100.54091643691062L177.544921875,100.1758461087942L177.77109375,100.09571869075297L177.997265625,99.7886646926403L178.2234375,100.46170335412025L178.449609375,100.21572079658507L178.67578125,100.37459533810615L178.901953125,100.12982603311538L179.128125,100.05779136121272L179.35429687500002,100.42406175434589L179.58046875,100.04603248238563L179.806640625,100.76073493957519L180.0328125,100.22991057634353L180.258984375,100.1503897845745L180.71132812500002,100.3643398374319L180.9375,100.0026323288679L181.163671875,100.1224234342575L181.38984375,100.4857398211956L181.61601562500002,100.15669781863689L181.84218750000002,100.52874874472617L182.068359375,100.1936536669731L182.29453124999998,100.41467223465442L182.52070312499998,100.6101817280054L182.746875,100.75121354460715L182.973046875,100.73979314565658L183.19921875,100.39787132441997L183.42539062499998,100.67789968252181L183.65156249999998,100.70536930263042L183.877734375,100.44001426696776L184.10390625,100.42640913426875L184.330078125,100.5755776554346L184.55625,100.71709741055965L184.78242187499998,100.69499511420726L185.00859375,100.47950212061404L185.234765625,100.41145008206367L185.4609375,100.73776226639747L185.687109375,100.65239500403403L185.91328125,100.72281640172004L186.139453125,101.14494916200637L186.365625,100.9256273895502L186.591796875,101.15706849992274L186.81796875,100.98798241615295L187.044140625,100.75392577946185L187.2703125,100.73328729867934L187.496484375,101.06596466302871L187.72265625,101.03023525476455L187.948828125,100.79253006875514L188.175,100.93311790525912L188.40117187500002,101.303533577919L188.62734375,100.73594678342342L188.853515625,101.01710047721862L189.0796875,101.10202815532683L189.305859375,101.09908294081687L189.53203125000002,101.03461790978908L189.75820312500002,100.97566526532172L189.984375,101.3455929994583L190.210546875,101.07442226409911L190.43671875,101.03831481337546L190.66289062500002,101.41265157759189L190.88906250000002,101.38338405787944L191.115234375,101.49262514114379L191.34140624999998,101.22414466142654L191.56757812499998,101.1193609625101L192.019921875,101.40707764923572L192.24609375,101.38970088362693L192.47226562499998,101.3222510755062L192.69843749999998,101.56974140703677L192.924609375,101.50293339192866L193.15078125,101.19924660921096L193.376953125,101.65047105550765L193.603125,101.62590269148349L193.82929687499998,101.3566441476345L194.05546875,101.8276059269905L194.281640625,101.62928749024867L194.5078125,101.50592256486415L194.733984375,101.677118653059L194.96015625,101.66701261103152L195.186328125,101.6416222244501L195.4125,101.3507141560316L195.638671875,101.85075882971286L195.86484375,102.07029599845409L196.091015625,101.58277947604655L196.31718750000002,102.0710301041603L196.543359375,101.71268101930617L196.76953125,101.76834996938705L196.995703125,101.46391149759292L197.221875,102.04242635667323L197.44804687500002,101.97600517570972L197.67421875000002,102.07201916873454L197.900390625,102.20887933075427L198.1265625,101.7998329937458L198.57890625000002,101.96475181877612L198.80507812500002,102.4415908396244L199.03125,101.98121424913406L199.25742187499998,102.26982329189777L199.48359374999998,102.38712195456027L199.709765625,102.18393292427062L199.9359375,102.41703566312789L200.162109375,102.47739058136939L200.38828124999998,102.56065223515033L200.61445312499998,101.98690246939658L200.840625,102.51408707499503L201.066796875,102.73143950998782L201.29296875,102.37176288068294L201.519140625,102.40766372680663L201.74531249999998,102.59618822634219L201.971484375,102.3385039359331L202.19765625,102.74540070593356L202.423828125,102.5035722196102L202.65,102.57102202773093L202.876171875,102.66406003534793L203.10234375,102.74527322649955L203.328515625,102.64593597650527L203.5546875,102.68695797920226L203.780859375,102.90735233724116L204.00703125,102.75494847595691L204.233203125,102.70145107209682L204.459375,102.90010798871516L204.685546875,103.08919076025485L204.91171875,103.06826654970645L205.137890625,102.90300484895705L205.36406250000002,102.94732812941074L205.590234375,103.02766215205192L206.042578125,102.93050963580608L206.26875,102.71354843080043L206.49492187500002,103.05425699949264L206.72109375000002,102.8987804442644L206.947265625,103.23578331768512L207.1734375,103.26808836460113L207.399609375,103.07685163021087L207.62578125000002,103.32053516209125L207.85195312500002,103.1111304104328L208.078125,103.49170927107333L208.30429687499998,103.22137814164161L208.53046874999998,103.14869288504123L208.756640625,103.43536336123942L208.9828125,103.27368427217006L209.208984375,103.36454633772372L209.43515624999998,103.45615130066871L209.66132812499998,103.44605405032634L209.8875,103.48254833519458L210.113671875,103.62292517125606L210.33984375,103.54040641486644L210.566015625,103.43025099635123L210.79218749999998,103.5863957196474L211.018359375,103.76881439387797L211.24453125,103.86347007155418L211.470703125,103.97762131094932L211.696875,103.83087489902972L211.923046875,103.74125685691833L212.14921875,104.22903273403644L212.375390625,104.10280611515044L212.6015625,103.79831928908824L212.827734375,103.87474540770053L213.05390625,104.20456987023353L213.28007812500002,103.79905779063701L213.50625,104.42808088064193L213.732421875,104.23108559250831L213.95859375,104.22146309316157L214.184765625,104.00222923755645L214.41093750000002,104.26481489241122L214.63710937500002,104.05868504345416L214.86328125,104.06714704036712L215.089453125,104.38886996507644L215.315625,104.15962677597999L215.54179687500002,104.31685287654399L215.76796875000002,104.29297465980052L215.994140625,104.4239092260599L216.22031249999998,104.67162814140319L216.44648437499998,104.50064305365085L216.898828125,104.50500372946262L217.125,104.59299091398715L217.35117187499998,104.46430262327193L217.57734374999998,104.71896257400512L217.803515625,104.69958130419253L218.255859375,104.99750953316688L218.48203125,104.99377746284007L218.70820312499998,104.57526248097419L218.934375,104.45687364935874L219.160546875,104.7220440596342L219.38671875,104.56269037127494L219.612890625,105.05509067475795L219.8390625,104.87310718894004L220.065234375,104.73755698800086L220.29140625,104.93405115008353L220.517578125,104.88432537913322L220.74375,104.61708892285823L220.969921875,105.02428461015224L221.19609375,105.3129156321287L221.422265625,105.30906487405299L221.6484375,104.82359681427478L221.874609375,104.97612815499305L222.10078125,105.3717539846897L222.32695312500002,105.12925293445586L222.553125,105.00775184631347L222.779296875,105.48333805203437L223.00546875,105.30098971128463L223.231640625,105.22381190359592L223.45781250000002,105.32114025354385L223.68398437500002,105.35416621863841L223.91015625,105.49160663187503L224.136328125,105.46087090075015L224.3625,105.29595207571982L224.58867187500002,105.54353471994399L224.81484375000002,105.53075600564479L225.041015625,105.49660030901431L225.26718749999998,105.32868791520595L225.49335937499998,105.9267994403839L225.71953125,105.59442099332809L225.945703125,106.02491025030612L226.171875,106.03224251568317L226.39804687499998,105.89518014490604L226.62421874999998,106.12190891206264L226.850390625,105.82592364549636L227.0765625,106.08232874572276L227.302734375,105.94443116486072L227.52890625,105.09580057263373L227.75507812499998,105.87889354825019L227.98125,106.25594694316386L228.207421875,106.07729111015796L228.43359375,106.12448927164077L228.659765625,106.33443471193313L228.8859375,106.35942947268485L229.112109375,105.98924677968024L229.564453125,106.04431349933147L229.790625,106.2900235146284L230.016796875,106.25163462162017L230.24296875000002,105.88282343149184L230.6953125,106.48706276118754L230.921484375,106.36554408967494L231.14765625,106.66460644602775L231.37382812500002,106.38670567572116L231.60000000000002,106.3449451714754L231.826171875,106.43096741437911L232.05234375,106.68133702278136L232.278515625,106.5290078908205L232.50468750000002,106.65015731155871L232.95703125,106.47411260902881L233.18320312499998,106.82214465141296L233.40937499999998,106.74835603833198L233.635546875,106.66284810900687L233.86171875,106.47266637682914L234.087890625,106.8591444581747L234.31406249999998,106.92324463427066L234.54023437499998,106.69910062253474L234.76640625,106.81877304017543L234.992578125,107.05708924829959L235.444921875,106.79485526084899L235.67109374999998,107.19038877785205L235.897265625,106.68979901969432L236.1234375,106.99089225530624L236.349609375,106.97686072587966L236.801953125,106.81742791235446L237.028125,107.2234806805849L237.254296875,107.20799412727355L237.706640625,107.30159040689468L237.9328125,107.1696623802185L238.158984375,107.33083594739436L238.38515625,107.14284774065017L238.611328125,107.05715518593787L238.8375,107.4253509581089L239.063671875,107.21657481193542L239.28984375000002,107.23261524140834L239.516015625,107.18964588046073L239.7421875,107.16943819224834L239.968359375,107.42667850255965L240.19453125,107.36315418183803L240.42070312500002,107.61100936830043L240.64687500000002,107.50474427044391L240.873046875,107.43019957244395L241.09921875,107.26850729584693L241.325390625,107.66061205565929L241.55156250000002,107.41805385947227L241.77773437500002,107.39443939328193L242.00390625,107.81601388156413L242.23007812499998,107.77345333397388L242.45624999999998,107.2820157200098L242.682421875,107.33646262586116L242.90859375,107.87795130312442L243.134765625,107.58082751333713L243.36093749999998,107.49291945397853L243.58710937499998,107.53065336644649L243.81328125,107.34561916589736L244.039453125,107.65056755542754L244.265625,107.51562837660312L244.491796875,107.68742669522761L244.71796874999998,107.5336117684841L244.944140625,107.78170872628688L245.1703125,107.5062344610691L245.396484375,108.17177381515502L245.62265625,107.49941650927066L245.848828125,107.65769761204719L246.075,107.82006684839725L246.301171875,107.8557962566614L246.52734375,107.88159106075763L246.753515625,107.69317645728587L246.9796875,107.51664381623267L247.20585937500002,107.79674250781535L247.43203125,107.60174732804298L247.884375,107.59509641826152L248.110546875,107.70979274213313L248.56289062500002,107.7033879995346L248.7890625,107.57491070926189L249.015234375,107.88441758751868L249.24140625,107.55724381804465L249.46757812500002,107.56119128465652L249.69375000000002,107.97887984812259L249.919921875,107.58262101709842L250.37226562499998,107.53927361369132L250.5984375,107.74277914464473L250.824609375,107.47081276178359L251.05078125,107.51499097943305L251.27695312499998,107.86818374097346L251.50312499999998,107.65876140594482L251.729296875,107.79502812922L251.95546875,107.80391652286052L252.4078125,107.9408733934164L252.63398437499998,107.46384095549583L252.86015625,107.6312829941511L253.086328125,107.71444354355334L253.3125,107.81992178559302L253.538671875,107.53551956415176L253.76484375,107.57455464601516L253.991015625,107.52823565304278L254.2171875,107.66297701895236L254.443359375,107.86361206471919L254.66953125,107.96414498388766L254.895703125,108.04505046606063L255.121875,107.55898896753787L255.348046875,107.8136445224285L255.57421875,107.52676744163035L255.800390625,107.70459685623645L256.0265625,107.86953766047954L256.252734375,107.96344604492187L256.47890624999997,107.63001259565353L256.705078125,107.69670631885528L256.93125,107.76915859580039L257.157421875,107.74771127998828L257.38359375,107.73539412915706L257.609765625,108.03196404278277L257.8359375,107.44605537652969L258.062109375,107.77369510531425" style="fill: none;" fill="none"></path></g><g><path stroke="rgb(0, 119, 187)" stroke-width="2px" d="M24.87890625,-12.286427056789393L27.140625,0.21564807891846272L29.40234375,-3.0386469125747624L31.6640625,10.292994046211248L33.92578125,34.015378171205526L36.1875,11.037790441513067L38.44921875,33.95655300617216L40.7109375,22.99975719451905L42.97265625,21.363712513446814L45.234375,18.9590108036995L47.49609375,4.52455844879151L49.7578125,-2.846302425861353L52.01953125,13.83367817997933L54.28125,24.16882272958756L56.54296875,12.25150015354157L58.8046875,5.737512075901037L61.06640625,18.579341882467276L63.328125,17.981542462110525L65.58984375,18.866662943363195L67.8515625,14.649959766864782L70.11328125,16.79738160371781L72.375,5.04224803447724L74.63671875,30.57565774917603L76.8984375,24.359452837705618L79.16015625,4.726186954975134L81.421875,10.297767931222921L83.68359375,7.238753849267965L85.9453125,24.229511731863028L88.20703125,6.452029907703405L90.46875,18.0408423781395L92.73046875,6.009561979770666L94.9921875,12.244211846590048L97.25390625,17.87490811347962L99.515625,-15.112514233589167L101.77734375,29.706784301996237L104.0390625,18.670555615425116L106.30078125,23.658711576461798L108.5625,22.935551518201834L110.82421875,6.333922410011297L113.0859375,-0.1049143433570805L115.34765625,22.393315547704702L117.609375,18.34654685258866L119.87109375,21.400022172927862L122.1328125,28.849568629264837L124.39453125,41.277696901559835L126.65625,32.35422443747521L128.91796875,38.21432214379311L131.1796875,42.53103073835371L133.44140625,31.433822923898703L135.703125,28.905888164043432L136.15546875,18.953428083658224L136.6078125,36.199496501684195L137.06015625,19.83972665071488L137.51250000000002,18.05200781822205L137.96484375,34.69029825329781L138.4171875,30.813692623376852L138.86953125000002,12.185254806280142L139.321875,21.386403852701193L139.77421875000002,19.2909584581852L140.2265625,33.765228354930855L140.67890624999998,22.117810511589056L141.13125,28.513277882337576L141.58359374999998,30.992304497957235L142.0359375,26.936348491907125L142.48828125,32.72729080319402L142.94062499999998,12.462122553586966L143.39296875,29.706863427162176L143.8453125,45.71316357851029L144.29765625,31.280425602197653L144.75,38.016887271404244L145.20234375,26.053258889913565L145.6546875,7.609112375974661L146.10703125,15.851739162206655L146.55937500000002,23.609214389324194L147.01171875,33.76449864506722L147.4640625,23.885633760690695L147.91640625000002,29.50350295901299L148.36874999999998,26.249788218736654L148.82109375,45.9558580458164L149.2734375,31.08666565418244L149.72578124999998,35.314815604686714L150.178125,28.006375694274908L150.63046875,16.878994816541677L151.0828125,31.991330051422125L151.53515625,30.300530755519873L151.9875,39.17510386705399L152.43984375,22.97133367657662L152.8921875,12.278991752862936L153.34453125,5.142209494113928L153.796875,26.433121228218084L154.24921875,20.33524360656739L154.7015625,52.388162577152244L155.15390625,40.490990543365484L155.60625000000002,28.08011155724526L156.05859375,29.4870273411274L156.5109375,26.229954177141195L156.96328125000002,22.194535547494894L157.41562499999998,22.701165193319326L157.86796875,29.859390372037893L158.3203125,32.95244585871697L158.77265624999998,29.018105232715612L159.225,26.82476442456246L159.67734375,32.29068692922593L160.1296875,34.229666703939415L160.58203125,40.36289569139478L161.034375,35.10884400606156L161.48671875,44.18520387411118L161.9390625,46.23007070422173L162.39140625000002,34.6061882019043L162.84375,36.32901560664175L163.29609375,28.138866388797766L163.74843750000002,36.796953046321875L164.20078125,29.373869562149054L164.65312500000002,21.474100911617285L165.10546875,15.844398105144506L165.55781249999998,29.481840246915823L166.01015625,29.517147654294973L166.46249999999998,0.01943525075913044L166.91484375,35.649919474124914L167.3671875,24.0465831398964L167.81953124999998,11.165058875083929L168.271875,39.862771892547585L168.72421875,19.165184611082083L169.1765625,43.45514234304429L169.62890625,48.77109628319741L170.08125,30.40972348451615L170.53359375,27.930019909143454L170.9859375,24.485384935140615L171.43828125000002,8.819894456863409L171.890625,38.1111517190933L172.34296875,9.864575231075293L172.79531250000002,29.10510774850846L173.24765625,47.86645826101304L173.70000000000002,36.00587722063065L174.15234375,40.51900085210801L174.60468749999998,15.868601614236837L175.05703125,36.081345045566565L175.50937499999998,41.08527328968049L175.96171875,26.183367037773138L176.4140625,37.907668167352654L176.86640624999998,47.993480527400976L177.31875,31.84838604331017L177.77109375,41.11940261125565L178.2234375,50.40508370995522L178.67578125,35.54896455407143L179.128125,34.139701390266396L179.58046875,45.69682862758634L180.0328125,19.085074776411062L180.48515625000002,26.589437389373785L180.9375,17.849649602174765L181.38984375,54.1972364127636L181.84218750000002,27.40049671530724L182.29453124999998,29.836945199966436L182.746875,34.33187004327772L183.19921875,11.93760182857514L183.65156249999998,48.72233759760854L184.10390625,36.266752892732626L184.55625,33.236821705102926L185.00859375,19.18680336475373L185.4609375,26.476270818710333L185.91328125,33.570993655920034L186.365625,26.525205338001257L186.81796875,21.629757696390158L187.2703125,18.340498173236853L187.72265625,16.812178009748465L188.175,38.68105512261391L188.62734375,45.99751304984093L189.0796875,35.471008682250954L189.53203125000002,40.19023578763009L189.984375,39.244777971506096L190.43671875,31.857371145486837L190.88906250000002,40.51238071322442L191.34140624999998,25.550497585535055L191.79375,36.8521296620369L192.24609375,40.13159524798394L192.69843749999998,23.386837506294256L193.15078125,28.594873511791235L193.603125,35.53159218430517L194.05546875,39.52788781523702L194.5078125,34.912868553400045L194.96015625,30.483327472209908L195.4125,35.5242071688175L195.86484375,26.798020118474966L196.31718750000002,38.61932870149613L196.76953125,25.576705598831182L197.221875,25.685827994346624L197.67421875000002,34.39342942237852L198.1265625,33.73848404884336L198.57890625000002,30.993412250280386L199.03125,25.806757622957235L199.48359374999998,19.991989845037466L199.9359375,39.14371755123139L200.38828124999998,42.10715722441671L200.840625,35.022667908668524L201.29296875,36.7020468056202L201.74531249999998,31.24468740224839L202.19765625,41.68122645616529L202.65,32.48017411828042L203.10234375,36.199478918313986L203.5546875,14.293782228231436L204.00703125,39.95447795987127L204.459375,27.78649564981461L204.91171875,35.19131001234055L205.36406250000002,29.23648189902306L205.81640625,31.885311120748526L206.26875,27.523386889696127L206.72109375000002,40.90351399183274L207.1734375,19.274975174665457L207.62578125000002,39.101684504747396L208.078125,26.28806721568108L208.53046874999998,39.41152107119558L208.9828125,25.558506810665136L209.43515624999998,34.90328561663625L209.8875,36.93591442108155L210.33984375,32.57811349034307L210.79218749999998,36.50879677534104L211.24453125,35.44852834343911L211.696875,35.623403751850105L212.14921875,43.06445744037629L212.6015625,44.399685823917395L213.05390625,38.49083822369576L213.50625,46.594310218095785L213.95859375,41.06457766294477L214.41093750000002,28.644177281856543L214.86328125,11.907094681262976L215.315625,36.26531105637551L215.76796875000002,41.18715133666993L216.22031249999998,30.55412691235543L216.67265625,17.656865531206137L217.125,53.2428550362587L217.57734374999998,41.48004632592202L218.0296875,48.54684677124024L218.48203125,36.02077912688256L218.934375,39.497371876239754L219.38671875,45.38958560824392L219.8390625,41.23747494220734L220.29140625,43.22058018445966L220.74375,40.24465631842611L221.19609375,37.32133310437203L221.6484375,40.27091708183289L222.10078125,36.84221264123917L222.553125,35.84867309927938L223.00546875,45.57654079198838L223.45781250000002,35.6422531247139L223.91015625,28.174938672780996L224.3625,48.279447668790795L224.81484375000002,42.07757320404053L225.26718749999998,34.1242192327976L225.71953125,42.81495820879934L226.171875,46.841778570413595L226.62421874999998,33.01764499545098L227.0765625,50.589392596483236L227.52890625,20.35522710680962L227.98125,51.615707540512076L228.43359375,30.31857129335404L228.8859375,37.19042491316793L229.33828125,39.40463718175886L229.790625,52.25603234171868L230.24296875000002,53.06033965349198L230.6953125,31.33252512812612L231.14765625,51.74698498249053L231.60000000000002,49.49592676162719L232.05234375,46.384162569046L232.50468750000002,36.52859565019605L232.95703125,57.03013714551925L233.40937499999998,54.31543182730674L233.86171875,57.190752440691L234.31406249999998,37.919018232822424L234.76640625,47.98510205149648L235.21875,47.451226973533636L235.67109374999998,48.68414651751516L236.1234375,39.65990375876427L236.57578125,34.87124871611596L237.028125,53.990271353721624L237.48046875,36.35992717146871L237.9328125,56.1289454638958L238.38515625,38.83442606925965L238.8375,30.82678344249723L239.28984375000002,41.71503048539162L239.7421875,32.92645763754845L240.19453125,56.11297976374625L240.64687500000002,54.37254261374473L241.09921875,40.772781634330755L241.55156250000002,49.04984545111655L242.00390625,56.81745749115943L242.45624999999998,55.21088253855706L242.90859375,44.366295003891L243.36093749999998,49.47025504112243L243.81328125,45.97318645715711L244.265625,55.10379102230071L244.71796874999998,59.44686588048934L245.1703125,44.25365593433381L245.62265625,54.121891671419135L246.075,54.33368336558341L246.52734375,50.493888521194464L246.9796875,50.88765051364898L247.43203125,55.49215492010116L247.884375,51.83307316303252L248.33671875000002,34.76434182524679L248.7890625,42.55429353713987L249.015234375,58.327754700183874L249.24140625,47.056955063343054L249.46757812500002,42.48243909478188L249.69375000000002,38.43226801753042L249.919921875,42.26355251073838L250.14609374999998,46.89404513835905L250.37226562499998,29.62255116701124L250.5984375,56.890604311227804L250.824609375,39.40631639361382L251.05078125,48.55756383538247L251.27695312499998,44.07919373512266L251.50312499999998,35.74416633844376L251.729296875,36.534116828441626L251.95546875,49.116178715229026L252.181640625,48.978078925609594L252.4078125,35.84442671537397L252.63398437499998,53.434179687500006L252.86015625,54.65023677945136L253.086328125,54.080087208747855L253.3125,62.769094222784034L253.538671875,65.64684134125709L253.76484375,34.99311905503271L253.991015625,40.66736932992933L254.2171875,56.44648354649543L254.443359375,50.624664837121955L254.66953125,35.01107167601586L254.895703125,44.39878907203675L255.121875,53.35679527521134L255.348046875,55.81440534591674L255.57421875,59.02967404723168L255.800390625,58.242941313982L256.0265625,57.54155825972556L256.252734375,61.827768498659125L256.47890624999997,64.38497077822686L256.705078125,50.91423656940459L256.93125,50.25457006096839L257.157421875,57.77877550721168L257.38359375,24.462447428703314L257.609765625,50.137130731344214L257.8359375,51.96469348073006" style="fill: none;" fill="none"></path></g><g><path stroke="rgb(238, 51, 119)" stroke-width="2px" d="M24.87890625,-18.22264317274093L27.140625,8.84242754578591L29.40234375,14.163243287801748L31.6640625,14.975287282466894L33.92578125,15.759953969717031L36.1875,26.826162302494055L38.44921875,31.775160098075872L40.7109375,37.68075477480889L42.97265625,32.78295975327492L45.234375,48.1537177801132L47.49609375,57.47684266567231L49.7578125,14.20321907997132L52.01953125,24.535611832141882L54.28125,43.85065388083456L56.54296875,18.132952862977987L58.8046875,8.875378781557089L61.06640625,31.681458318233496L63.328125,29.249440842866903L65.58984375,34.83270596861837L67.8515625,30.977094882726647L70.11328125,46.07506450414658L72.375,36.89724858999253L74.63671875,43.10829278230668L76.8984375,42.53633212447164L79.16015625,31.99504014253614L81.421875,33.49482249617577L83.68359375,19.57856085300446L85.9453125,33.33351265788079L88.20703125,23.359178864955908L90.46875,24.97870396971703L92.73046875,42.32126992344854L94.9921875,39.220820629596716L97.25390625,46.95916514992712L99.515625,41.25738810896874L101.77734375,40.538571143150335L104.0390625,37.73572039008141L106.30078125,31.076678299903875L108.5625,36.39179702997208L110.82421875,12.30328317880631L113.0859375,25.320111477375036L115.34765625,39.89786829948426L117.609375,25.964621120691305L119.87109375,24.525984936952597L122.1328125,46.43255200386048L124.39453125,57.57951196432113L126.65625,49.02770798802375L128.91796875,37.058162802457815L131.1796875,35.523398333787924L133.44140625,37.78792541623113L135.703125,41.285416001081444L136.15546875,35.38667004704476L136.6078125,40.51068391799927L137.06015625,38.95537328124047L137.51250000000002,47.19596039652822L137.96484375,50.21171938776969L138.4171875,38.61652415394781L138.86953125000002,17.35506456494332L139.321875,46.54653620123864L139.77421875000002,23.73872470259667L140.2265625,49.675110095739356L140.67890624999998,53.607068175077444L141.13125,39.92983486652375L141.58359374999998,41.61757465600968L142.0359375,43.85501455664635L142.48828125,45.963076019287115L142.94062499999998,45.6913162410259L143.39296875,39.15170919299126L143.8453125,44.555377775430685L144.29765625,53.49390160441398L144.75,51.933746749162665L145.20234375,51.77898671627045L145.6546875,40.38906853795052L146.10703125,44.20310374498365L146.55937500000002,32.118290776014305L147.01171875,53.7971180319786L147.4640625,37.414067798852926L147.91640625000002,54.44235738515853L148.36874999999998,33.8640381038189L148.82109375,53.33206426501273L149.2734375,43.52087777256966L149.72578124999998,38.301518076658255L150.178125,40.82161944508553L150.63046875,44.84552096724508L151.0828125,35.43397810459135L151.53515625,55.47624197006226L151.9875,47.639808619022375L152.43984375,42.0477254331112L152.8921875,30.52344393134115L153.34453125,46.52471523880956L153.796875,47.96569880247117L154.24921875,48.979450428485876L154.7015625,52.038235926628104L155.15390625,55.28083797693252L155.60625000000002,52.35675867795945L156.05859375,49.41631805300712L156.5109375,46.3022240638733L156.96328125000002,37.870013380050665L157.41562499999998,35.69230418801308L157.86796875,41.77667778134344L158.3203125,53.776079529523855L158.77265624999998,36.196876579523064L159.225,49.79055371284484L159.67734375,48.856586629152275L160.1296875,44.99891828894613L160.58203125,48.58995240330697L161.034375,48.92122309803963L161.48671875,53.678878659009925L161.9390625,57.75102015733718L162.39140625000002,60.23633282780648L162.84375,43.13885267972947L163.29609375,51.44946556687354L163.74843750000002,39.07247852683068L164.20078125,49.470492416620246L164.65312500000002,33.41545116305352L165.10546875,36.18025150299073L165.55781249999998,43.88544257879255L166.01015625,41.17122080326081L166.46249999999998,14.258044028282171L166.91484375,49.43635430335999L167.3671875,37.40692895054818L167.81953124999998,44.81516327857969L168.271875,50.167338961362844L168.72421875,39.373672866821266L169.1765625,60.46966415047645L169.62890625,43.240176850557305L170.08125,50.71031343340873L170.53359375,51.58121775984763L170.9859375,45.32532718181611L171.43828125000002,36.36793639659882L171.890625,44.539781326055504L172.34296875,45.722236597538L172.79531250000002,52.640483939647666L173.24765625,42.823143267631536L173.70000000000002,49.94475107789039L174.15234375,50.90221833586692L174.60468749999998,43.20849161744118L175.05703125,44.64491229653356L175.50937499999998,56.0744458079338L175.96171875,54.207443559169775L176.4140625,59.83542319536208L176.86640624999998,46.757985019683844L177.31875,56.84840422272683L177.77109375,59.85533636212348L178.2234375,48.72624989748002L178.67578125,49.22914307713508L179.128125,47.92126562595368L179.58046875,49.38807916045188L180.0328125,42.92085405588148L180.48515625000002,37.801816278696066L180.9375,54.95797213315964L181.38984375,46.77765201926229L181.84218750000002,40.949793422222115L182.29453124999998,55.606499576568595L182.746875,50.5452847123146L183.19921875,46.692196840047814L183.65156249999998,47.423383706808096L184.10390625,38.17119013667107L184.55625,42.156540119647985L185.00859375,26.82588976025582L185.4609375,29.767895305156713L185.91328125,53.06328486800193L186.365625,33.389331066608406L186.81796875,44.43240847587583L187.2703125,47.06026073694227L187.72265625,31.57379534244538L188.175,53.01842089891433L188.62734375,63.31431057453155L189.0796875,46.395662093162514L189.53203125000002,64.66656845211982L189.984375,48.99858992695806L190.43671875,49.24956616163254L190.88906250000002,47.211504095792776L191.34140624999998,44.33179643154145L191.79375,56.3762203991413L192.24609375,39.9877369046211L192.69843749999998,28.464035654068L193.15078125,45.70052113533018L193.603125,47.51858007311819L194.05546875,57.15323832035064L194.5078125,57.645027601718894L194.96015625,60.91971930265426L195.4125,37.67722930908201L195.86484375,39.01753928661347L196.31718750000002,51.47308003306388L196.76953125,45.40372263789175L197.221875,40.66764187216759L197.67421875000002,58.66954025030135L198.1265625,52.86477741003036L198.57890625000002,48.303835803270346L199.03125,41.94763209819794L199.48359374999998,45.96166055798528L199.9359375,47.02956017255781L200.38828124999998,57.51484032869338L200.840625,47.125978583097464L201.29296875,50.135451519489294L201.74531249999998,57.22669284939765L202.19765625,52.5602773964405L202.65,48.39718591570852L203.10234375,55.419799351692205L203.5546875,55.52150156497956L204.00703125,53.069272005558005L204.459375,51.72734435796738L204.91171875,48.61877154707909L205.36406250000002,55.08820336461066L205.81640625,55.26987474560737L206.26875,49.09201916456222L206.72109375000002,53.61839186549186L207.1734375,44.34614446163178L207.62578125000002,51.351983362436286L208.078125,50.024289453029624L208.53046874999998,42.41920929551125L208.9828125,54.60663881301879L209.43515624999998,51.71568658351899L209.8875,47.38298591375349L210.33984375,33.31832062602044L210.79218749999998,58.900067025423056L211.24453125,54.42853685617446L211.696875,56.52728792428971L212.14921875,49.09348737597465L212.6015625,56.47818636298179L213.05390625,52.13060137033462L213.50625,55.04704069495202L213.95859375,51.62454318404197L214.41093750000002,43.553837800025946L214.86328125,56.99125152230263L215.315625,63.83526187539101L215.76796875000002,52.54288744330407L216.22031249999998,59.0848682463169L216.67265625,53.793126606941215L217.125,48.627607190608984L217.57734374999998,36.21725570559502L218.0296875,68.40073119997979L218.48203125,42.20955398082734L218.934375,60.70084151029586L219.38671875,50.30788283944129L219.8390625,65.14420312047005L220.29140625,60.390556567907325L220.74375,55.530899876356116L221.19609375,53.31085872054099L221.6484375,51.98946844935416L222.10078125,60.63282024264335L222.553125,66.8090581536293L223.00546875,57.2726557791233L223.45781250000002,53.76335796117782L223.91015625,58.132139706611625L224.3625,68.79281398057937L224.81484375000002,56.424135082960134L225.26718749999998,48.134200239181496L225.71953125,61.195426547527305L226.171875,60.76089751124381L226.62421874999998,65.00721987485885L227.0765625,42.78375651836393L227.52890625,53.22097253203391L227.98125,45.8807594716549L228.43359375,42.94730823636053L228.8859375,58.2765079677105L229.33828125,63.72906711101531L229.790625,57.075458282232276L230.24296875000002,64.7027286529541L230.6953125,49.83798485398292L231.14765625,59.89774745106696L231.60000000000002,65.60366537570953L232.05234375,56.03410955667495L232.50468750000002,67.84680228829384L232.95703125,65.57086359858512L233.40937499999998,62.986767554283134L233.86171875,61.77992414832114L234.31406249999998,60.093511903285986L234.76640625,62.76307191848754L235.21875,56.68645259141921L235.67109374999998,57.85991396903992L236.1234375,33.9028709769249L236.57578125,66.63174744844436L237.028125,66.57562133073806L237.48046875,61.46448727846146L237.9328125,50.76308112740516L238.38515625,60.528673940896994L238.8375,60.0569297015667L239.28984375000002,66.64321180582046L239.7421875,66.97344508171082L240.19453125,64.06869869828223L240.64687500000002,68.45819365382194L241.09921875,58.29052191376685L241.55156250000002,64.96370982527732L242.00390625,79.77752778828143L242.45624999999998,68.97545244693755L242.90859375,62.756319904327384L243.36093749999998,61.22935366034508L243.81328125,68.41908823847771L244.265625,72.92142447233199L244.71796874999998,68.30491062402726L245.1703125,62.83144485354423L245.62265625,69.10178017020226L246.075,68.0185302734375L246.52734375,71.43837269544602L246.9796875,65.50739642381667L247.43203125,68.9916291475296L247.884375,60.46518918275834L248.33671875000002,57.58780252337456L248.7890625,63.41284778118133L249.015234375,69.24983214735984L249.24140625,60.834730082750326L249.46757812500002,71.99396323561669L249.69375000000002,58.13981484770774L249.919921875,59.70917459726334L250.14609374999998,60.006148928403846L250.37226562499998,60.62480222582816L250.5984375,56.923951172828666L250.824609375,64.48232989907264L251.05078125,65.5579398214817L251.27695312499998,59.37712144255637L251.50312499999998,54.8597338438034L251.729296875,64.92024373412131L251.95546875,67.56019335389136L252.181640625,68.92902355790139L252.4078125,72.51623328924178L252.63398437499998,59.92700617909432L252.86015625,67.46318590044974L253.086328125,62.702989542484275L253.3125,63.86295568346978L253.538671875,71.82455625534058L253.76484375,68.61795615553856L253.991015625,62.40681525468827L254.2171875,69.1841582596302L254.443359375,62.575096899271L254.66953125,73.82400524020194L254.895703125,64.8445649087429L255.121875,56.15786131620406L255.348046875,70.63337084054946L255.57421875,52.89642747640609L255.800390625,73.95566951632499L256.0265625,48.598278129100805L256.252734375,63.06590151190758L256.47890624999997,73.7510870039463L256.705078125,54.81191586852073L256.93125,61.610438042879096L257.157421875,68.87423377633094L257.38359375,69.59067698717116L257.609765625,73.97988181710242L257.8359375,69.41555541157722" style="fill: none;" fill="none"></path></g><g><path stroke="rgb(255, 112, 67)" stroke-width="2px" d="M24.87890625,-16.882473862171167L25.33125,3.761598432064062L25.78359375,-5.603269374370569L26.2359375,2.9626452565193233L26.68828125,7.355630511045462L27.140625,8.981731796264654L27.59296875,-43.203284478187555L28.0453125,-35.9493178486824L28.49765625,10.047582948207861L28.950000000000003,-2.2389728188514653L29.40234375,6.239974462985998L29.8546875,-148.72833344936373L30.759375,-10.651859378814692L31.211718750000003,22.845383995771414L31.6640625,7.834900432825094L32.11640625,11.425600463151937L32.56875,21.211343818902975L33.02109375,30.584458225965506L33.4734375,20.386490339040762L33.92578125,11.132301056385046L34.378125000000004,42.24073808789254L34.83046875,32.78063874840737L35.2828125,-46.88174310922622L35.735156249999996,25.668183082342154L36.1875,24.867453986406332L36.639843750000004,3.0830561757087764L37.092187499999994,19.37180679440499L37.54453125,31.086481028795248L37.996875,36.52998473644257L38.44921875,29.674272650480248L38.901562500000004,35.80482017397881L39.353906249999994,30.685712063312536L39.80625,28.040091806650167L40.25859375,35.87263923287392L40.7109375,33.47625445723534L41.163281250000004,14.126203918457037L41.615624999999994,33.61813467144964L42.06796875,29.152758681774145L42.5203125,22.876445019245153L42.97265625,27.962285393476492L43.425000000000004,31.755264514684654L43.877343749999994,32.4524363517761L44.3296875,30.335521662235237L44.78203125,43.51605992913244L45.234375,46.11799430251122L45.68671875,33.756885045766836L46.1390625,18.930657619237905L46.59140625,32.9253498852253L47.04375,22.56515782475472L47.49609375,51.25888820886611L47.9484375,26.401321703195578L48.40078125,39.394755327701574L48.853125,34.150849246978765L49.30546875,40.94914283752442L49.7578125,11.251322889328009L50.21015625,33.41603141427041L50.6625,47.17757698297498L51.11484375,34.016019964218145L51.5671875,29.64050378799439L52.01953125,21.390878820419317L52.471875,37.61844810247422L52.92421875,31.835937017202383L53.3765625,36.41047936081887L53.82890625,3.1642913460731563L54.28125,37.48396169543267L54.73359375,31.86240878105164L55.1859375,41.82189341783524L55.63828125,10.307509118318563L56.090625,32.34346341490746L56.54296875,14.390244597196585L56.9953125,28.61825939416886L57.44765625,32.93692853450776L57.900000000000006,35.59816282391546L58.352343749999996,-0.3207150459289494L58.8046875,7.061100268363958L59.25703125,17.185385042428976L59.709375,31.363691651821142L60.161718750000006,20.168122464418417L60.614062499999996,15.54913815259934L61.06640625,26.01444360017777L61.51875,26.967251265048986L61.97109375,27.329626941680914L62.423437500000006,30.597329252958303L62.875781249999996,29.505929464101797L63.328125,23.646192216873175L63.78046875,25.305376613140112L64.2328125,20.370260888338095L64.68515625,16.820266360044485L65.1375,40.5928158402443L65.58984375,27.845364773273474L66.0421875,26.344764792919165L66.49453125,28.796669059991842L66.946875,26.251194888353353L67.39921875,24.817763382196432L67.8515625,24.422418886423117L68.30390625,26.773535275459295L68.75625000000001,32.05625664591787L69.20859375,28.51320754885674L69.6609375,-5.209524965286249L70.11328125,41.23524185419083L70.565625,8.831868731975561L71.01796875,33.66725381612778L71.47031249999999,-1.0375187158584538L71.92265625,18.90416827201844L72.375,30.908730739355065L72.82734375,26.80813055634499L73.27968750000001,25.68483453392983L73.73203125,34.08106964230535L74.18437499999999,26.258518362045294L74.63671875,35.443253332376486L75.0890625,24.77004211544991L75.54140625,20.827999973297125L75.99375,27.711221241950994L76.44609375,23.67814999222756L76.8984375,35.99334027767179L77.35078125,28.22920095324517L77.80312500000001,39.54701852202416L78.25546875,26.148499214649206L78.70781249999999,29.8499481022358L79.16015625,26.741568708419805L79.6125,18.22686564326287L80.06484375,1.8433758258819637L80.5171875,11.948538684844976L80.96953125,20.215456897020346L81.421875,26.635584944486624L81.87421875000001,21.068654769659048L82.32656250000001,12.85595487952233L82.77890624999999,4.872023427486425L83.23124999999999,20.520079994201666L83.68359375,15.896814131736761L84.1359375,16.410204583406454L84.58828125,31.26853045225144L85.040625,33.51523678898812L85.49296875,21.481529885530477L85.9453125,27.976211422681814L86.39765625000001,20.907951557636267L86.85000000000001,18.270577901601797L87.30234374999999,14.01512097716332L87.75468749999999,19.53522663712502L88.20703125,20.055122935771948L88.659375,36.063840800523735L89.11171875,35.04593070745469L89.5640625,27.445263975858694L90.01640625,12.85846930146218L90.46875,18.700649553537374L90.92109375000001,30.467326605319982L91.3734375,11.989156270027166L91.82578124999999,9.215353244543081L92.278125,22.77381967902184L92.73046875,37.01736059188843L93.1828125,2.4477338433265743L93.63515625,27.435470038652426L94.0875,27.99899947047234L94.53984375,18.516876959800726L94.9921875,34.39953964352608L95.44453125000001,39.819481635093695L95.896875,32.29633998274804L96.34921874999999,38.444655501842504L96.8015625,24.637314045429235L97.25390625,44.04338520169259L97.70625,13.064344191551214L98.15859375000001,33.521259093284584L98.6109375,21.73610191941262L99.06328125,30.63359495401383L99.515625,34.81248509287835L99.96796875,34.17582642436028L100.4203125,31.331593209505087L100.87265624999999,27.50088017582894L101.325,38.340403699874855L101.77734375,34.105941319465614L102.2296875,34.39446684122086L102.68203125000001,34.68261432051659L103.134375,28.36708974242211L103.58671875,25.59371750950814L104.0390625,30.58740344047544L104.49140625,41.94537263512609L104.94375,30.204129928350454L105.39609374999999,23.051733636856085L105.8484375,32.67020639181138L106.30078125,23.76135450005532L106.753125,32.763811463117605L107.20546875000001,28.11012637019158L107.6578125,30.997816884517675L108.11015624999999,36.885371023416496L108.5625,31.46884020566941L109.01484375,35.929477477073675L109.4671875,36.630922073125845L109.91953125,31.3483149945736L110.371875,32.81743195056916L110.82421875,8.546613717079168L111.2765625,30.820532554388024L111.72890625000001,20.84446679949761L112.18125,35.79859566092492L112.63359374999999,21.34131129980088L113.0859375,20.732627773284918L113.53828125,32.72053878903387L113.990625,29.009744340181356L114.44296875,41.00392382740975L114.8953125,33.85194953680036L115.34765625,33.125949764251686L115.80000000000001,32.92473446726797L116.25234375000001,45.44543039202691L116.70468749999999,47.66247358322144L117.15703124999999,42.6371815443039L117.609375,22.02554177641869L118.06171875,35.15099134445191L118.5140625,37.48577278256414L118.96640625,41.97304885983468L119.41875,42.00215812921522L119.87109375,16.316010469198233L120.32343750000001,39.36426576375962L120.77578125000001,33.78811311125756L121.22812499999999,35.13606306314469L121.68046874999999,48.876825088262564L122.1328125,42.08618026375771L122.58515625,42.731023991107946L123.0375,37.94398661851881L123.48984375,41.41205143332482L123.9421875,17.869386935234076L124.39453125,52.072497123479835L124.84687500000001,32.444400751590734L125.29921875,45.20074900388718L125.75156249999999,37.03852217793465L126.20390625,37.7083342909813L126.65625,43.98752283453942L127.10859375,38.88242866992951L127.5609375,24.860174471139914L128.01328125,36.00984227061272L128.465625,44.137930983304955L128.91796875,31.247878783941275L129.3703125,45.2285483121872L129.82265625,22.220831477642065L130.275,36.61887746453283L130.72734375000002,37.957367563247686L131.1796875,30.251350069046026L131.63203124999998,27.578510755300528L132.084375,46.781423652172066L132.53671875,29.77945637106893L132.9890625,36.81835200786588L133.44140625,30.755298250913626L133.89375,43.59201129674912L134.34609375,37.138149553537346L134.7984375,37.004146689176565L135.25078125000002,44.123231285810476L135.703125,35.75080406069756L135.929296875,45.02571534514425L136.15546875,29.73212193846703L136.381640625,42.35952254533768L136.6078125,35.95417332053182L136.833984375,11.364885085821157L137.06015625,30.77615212798119L137.286328125,45.4285239815712L137.51250000000002,41.62972476482392L137.738671875,27.503623181581503L137.96484375,44.74748488664625L138.191015625,28.828943336009985L138.4171875,31.760082358121878L138.64335937500002,40.6419086098671L138.86953125000002,13.567870372533804L139.095703125,35.82785438895226L139.321875,40.32579478025437L139.548046875,27.306953185796743L139.77421875000002,16.61662455797196L140.00039062500002,36.57023307085038L140.2265625,44.558920824527746L140.45273437499998,47.2908226788044L140.67890624999998,47.8887100160122L140.905078125,34.94359549283982L141.13125,35.58688309192658L141.357421875,41.46680604815484L141.58359374999998,35.612238311767584L141.80976562499998,35.93064677119253L142.0359375,37.36568715572355L142.262109375,44.741260373592354L142.48828125,43.02369918823243L142.714453125,37.484093570709234L142.94062499999998,38.95990099906919L143.166796875,33.70842527747155L143.39296875,31.221609228849417L143.619140625,33.07484369874001L143.8453125,35.28571512699128L144.071484375,43.99957623481751L144.29765625,43.79977639913557L144.523828125,38.29350005984307L144.75,47.80683305263517L144.976171875,38.00143148899076L145.20234375,45.019227081537224L145.42851562500002,44.64558925628663L145.6546875,36.03469636440275L145.880859375,53.71644552946091L146.10703125,38.35416268706322L146.333203125,45.046832972764975L146.55937500000002,23.132520431280142L146.78554687500002,43.786114120483376L147.01171875,46.859643274545675L147.237890625,42.241740339994436L147.4640625,31.457138472795492L147.69023437500002,36.014475488662725L147.91640625000002,49.30984195470809L148.142578125,39.2282320201397L148.36874999999998,28.918732815980917L148.59492187499998,42.13682036995888L148.82109375,47.76607480049134L149.047265625,46.01711850762368L149.2734375,36.8153100848198L149.49960937499998,48.617874795198446L149.72578124999998,32.89516803026197L149.951953125,53.35669856667518L150.178125,34.26165964603422L150.404296875,45.35561453700063L150.63046875,38.68595209121705L150.85664062499998,41.96357142329214L151.0828125,29.47412993907929L151.308984375,39.3606699645519L151.53515625,50.13685818910598L151.761328125,36.97496708631513L151.9875,43.86994283795357L152.213671875,38.14659979343412L152.43984375,35.69111731052399L152.666015625,44.692721480131155L152.8921875,24.127106183767324L153.118359375,42.81109865903855L153.34453125,38.49783640503881L153.570703125,21.838560217618948L153.796875,42.495565080642706L154.023046875,44.61306881308556L154.24921875,41.47454273104668L154.47539062500002,22.135297173261648L154.7015625,46.93078559041021L154.927734375,37.01816942691801L155.15390625,46.54832970499993L155.380078125,33.972483539581276L155.60625000000002,46.89430888891218L155.83242187500002,34.52243860960007L156.05859375,43.505896741151815L156.284765625,29.023802244663244L156.5109375,39.62832402586935L156.73710937500002,40.54617595076559L156.96328125000002,30.814949834346777L157.189453125,41.2544868528843L157.41562499999998,28.957592064142233L157.64179687499998,38.161554449796654L157.86796875,33.522147053480154L158.094140625,43.499698603153234L158.3203125,47.61863824129105L158.54648437499998,41.394942814111715L158.77265624999998,30.700921678543068L158.998828125,43.80654599666596L159.225,43.63268163204194L159.451171875,34.72092848420141L159.67734375,43.10893457531927L159.90351562499998,31.0099406182766L160.1296875,36.752150619029976L160.355859375,38.7456124663353L160.58203125,41.565844380855566L160.808203125,30.68028759360314L161.034375,42.58027296662328L161.260546875,37.69874256253243L161.48671875,46.99460443258286L161.712890625,25.70269923806191L161.9390625,51.14653047323226L162.165234375,33.742959016561514L162.39140625000002,56.85749482512473L162.617578125,39.188546353578545L162.84375,39.149862939119345L163.069921875,46.711292380094505L163.29609375,42.96552460789681L163.52226562500002,36.01857241392136L163.74843750000002,32.628938221931435L163.974609375,39.3227865934372L164.20078125,44.21037446856499L164.426953125,47.92838689088822L164.65312500000002,29.66792505383492L164.87929687500002,44.00893058776853L165.10546875,31.869697088003164L165.33164062499998,36.2339599072933L165.55781249999998,36.73870813250542L165.783984375,42.69527699947358L166.01015625,35.22543054223058L166.236328125,36.84486773014069L166.46249999999998,4.032100999355322L166.68867187499998,31.973562055826193L166.91484375,43.13676905035973L167.141015625,52.30722632408143L167.3671875,32.23333876729009L167.593359375,38.948647642135626L167.81953124999998,37.29500200748441L168.045703125,43.89849823117254L168.271875,42.977683508396154L168.498046875,44.840026164054876L168.72421875,29.25027605295182L168.950390625,43.16740807294843L169.1765625,55.4723296701908L169.402734375,48.69114469885827L169.62890625,37.37308096289635L169.855078125,44.53684490323067L170.08125,44.14727654457093L170.307421875,45.92255514264107L170.53359375,45.33040877580643L170.759765625,47.86574613451958L170.9859375,40.34316715002058L171.212109375,42.058864498138405L171.43828125000002,31.653817260265356L171.664453125,36.09686236977575L171.890625,36.699743384122826L172.116796875,29.483739250898367L172.34296875,39.30887814760209L172.56914062500002,39.43233978152276L172.79531250000002,46.63707297444341L173.021484375,27.214192116260534L173.24765625,37.60912012457848L173.473828125,54.60757073163985L173.70000000000002,42.72312026619909L173.92617187500002,22.49935206174851L174.15234375,43.156392091512686L174.37851562499998,46.8480294585228L174.60468749999998,37.59614359736443L174.830859375,28.7668124973774L175.05703125,37.069249117374426L175.283203125,41.21340330839158L175.50937499999998,47.14975129961965L175.73554687499998,34.24229156374932L175.96171875,47.3714951813221L176.187890625,49.63892351984977L176.4140625,52.79967498183251L176.640234375,34.27630659341813L176.86640624999998,38.76670371890066L177.092578125,32.84710388779641L177.31875,48.878135049343086L177.544921875,50.83694886565209L177.77109375,50.45138072371482L177.997265625,58.95884823203086L178.2234375,44.35308110117913L178.449609375,42.384271138906485L178.67578125,42.55958613157273L178.901953125,54.30833693742751L179.128125,43.49309604763985L179.35429687500002,56.174002850055686L179.58046875,42.57687058448789L179.806640625,39.950170034170156L180.0328125,36.67953130006791L180.258984375,37.13462408781052L180.48515625000002,31.942887866497045L180.71132812500002,38.50994255542753L180.9375,50.848773682117454L181.163671875,28.504380697011953L181.38984375,42.16509442925454L181.61601562500002,41.83153789639471L181.84218750000002,35.104931706190115L182.068359375,25.259976351261145L182.29453124999998,47.68178012371064L182.52070312499998,50.97698282599448L182.746875,43.34196698069573L182.973046875,38.50659292340276L183.19921875,41.175660604238516L183.42539062499998,42.6848588526249L183.65156249999998,39.66637443900109L183.877734375,42.35663887262342L184.10390625,32.91061502099038L184.330078125,32.601279580593115L184.55625,35.068859422206884L184.78242187499998,46.33863922357557L185.00859375,21.023922675848013L185.234765625,35.3389224052429L185.4609375,22.399452143907553L185.687109375,41.412526184320456L185.91328125,48.70191451311112L186.139453125,52.04866286516189L186.365625,26.412619018554693L186.591796875,37.62969266772271L186.81796875,38.27910807132719L187.044140625,46.177892053127295L187.2703125,40.019149595499016L187.496484375,33.82730644345284L187.72265625,24.625541979074484L187.948828125,38.35431214571L188.175,47.66027566194535L188.40117187500002,41.106795334815985L188.62734375,56.566155964136115L188.853515625,38.2830994963646L189.0796875,41.83742832541466L189.305859375,35.629241430759436L189.53203125000002,58.67404159307479L189.75820312500002,47.33838569521902L189.984375,40.354051256179815L190.210546875,33.22668489217759L190.43671875,45.507974439859396L190.66289062500002,50.13779010772704L190.88906250000002,40.277062469720846L191.115234375,40.308800452947594L191.34140624999998,37.490230166912056L191.56757812499998,41.17071088552473L191.79375,49.203014189004904L192.019921875,35.27057584524155L192.24609375,34.80349999070168L192.47226562499998,47.281310075521446L192.69843749999998,25.631759130954748L192.924609375,41.2651511669159L193.15078125,41.53334152102468L193.376953125,46.3617789387703L193.603125,40.683519655466085L193.82929687499998,46.203484648466116L194.05546875,50.87354865074157L194.281640625,51.01556074023247L194.5078125,51.03931587338447L194.733984375,46.35737430453301L194.96015625,53.90145775079726L195.186328125,39.01079606413842L195.4125,33.363923096656805L195.638671875,31.143547856807686L195.86484375,31.403491610288626L196.091015625,43.93835093975065L196.31718750000002,43.71464651226998L196.543359375,33.96129172444344L196.76953125,37.72611986994744L196.995703125,33.597570919990545L197.221875,35.721844249963766L197.44804687500002,34.434486591815954L197.67421875000002,51.68317493200301L197.900390625,40.09667467474938L198.1265625,44.965782427787786L198.352734375,26.618502700328833L198.57890625000002,43.24147801995278L198.80507812500002,36.64076876044271L199.03125,35.99653165936468L199.25742187499998,44.897374325990654L199.48359374999998,38.647945636510855L199.709765625,28.579004520177847L199.9359375,39.93766825795174L200.162109375,27.791876161098486L200.38828124999998,50.99185835719108L200.61445312499998,34.7227219879627L200.840625,39.35273986458779L201.066796875,47.38596629500387L201.29296875,42.933021748065954L201.519140625,42.74938102960587L201.74531249999998,49.80115648508071L201.971484375,38.32944926023484L202.19765625,45.391308778524404L202.423828125,41.7914302289486L202.65,42.10835289359093L202.876171875,37.117955052852636L203.10234375,47.332970017194754L203.328515625,51.12855147719384L203.5546875,49.11631059050559L203.780859375,57.60836627483367L204.00703125,46.55547734498978L204.233203125,33.56748577356339L204.459375,46.99665289521218L204.685546875,52.492405587434774L204.91171875,41.81769978404046L205.137890625,54.13442861437797L205.36406250000002,46.977733188867546L205.590234375,47.077334189414984L205.81640625,47.68835630416868L206.042578125,50.41506227254867L206.26875,42.42135446667672L206.49492187500002,37.473912799358374L206.72109375000002,45.948226863145834L206.947265625,32.67003934979439L207.1734375,37.85590272545815L207.399609375,43.935651892423635L207.62578125000002,43.26922457814217L207.85195312500002,40.30159127116204L208.078125,41.34454008340836L208.30429687499998,48.29975646138189L208.53046874999998,34.416525179147726L208.756640625,42.988928073644615L208.9828125,48.3013301730156L209.208984375,49.92468845248223L209.43515624999998,43.011214995384194L209.66132812499998,39.11712270379064L209.8875,39.171648734807974L210.113671875,43.71118258833883L210.33984375,25.364122653007513L210.566015625,39.87370874881745L210.79218749999998,49.01273574829101L211.018359375,51.47004690170287L211.24453125,46.74966808557508L211.470703125,40.48515286445618L211.696875,50.35405676960944L211.923046875,45.83358328938482L212.14921875,40.50580453276635L212.375390625,28.911550009250647L212.6015625,47.96870555877686L212.827734375,47.80454721450806L213.05390625,44.60036482810972L213.28007812500002,46.69407826066018L213.50625,46.69275071620939L213.732421875,39.5821061372757L213.95859375,44.54026486873627L214.184765625,44.80855193138123L214.41093750000002,37.79510822296143L214.63710937500002,45.646847897768L214.86328125,48.53340428471566L215.089453125,54.3195727109909L215.315625,58.262634688615805L215.54179687500002,42.03821282982824L215.76796875000002,46.07373695969582L215.994140625,50.50642546415328L216.22031249999998,50.62418129444123L216.44648437499998,43.760547900199896L216.67265625,47.96225246191025L216.898828125,42.204577887058264L217.125,41.0094625890255L217.35117187499998,50.37519198060035L217.57734374999998,29.290322178602224L217.803515625,48.41812770962713L218.0296875,59.842245543003074L218.255859375,47.16530379056931L218.48203125,34.07881017923356L218.70820312499998,52.65095483660697L218.934375,53.42884313464164L219.160546875,51.49056669473647L219.38671875,42.75191303491593L219.612890625,58.43810793161393L219.8390625,54.647766315937034L220.065234375,60.55380936861039L220.29140625,54.3199771285057L220.517578125,46.79243963360787L220.74375,47.184539997577644L220.969921875,59.33398064374923L221.19609375,45.25480028390885L221.422265625,41.17415722608567L221.6484375,45.08869018554688L221.874609375,47.04188611507416L222.10078125,51.81871634125709L222.32695312500002,47.839819455146795L222.553125,55.65616380572318L222.779296875,51.248092019557944L223.00546875,48.33571445345879L223.231640625,55.24732407331466L223.45781250000002,45.23378815650938L223.68398437500002,46.97891127467156L223.91015625,49.006388151645666L224.136328125,55.14361735582351L224.3625,59.302611911296836L224.58867187500002,49.47953906059264L224.81484375000002,50.08920725584029L225.041015625,50.9136211514473L225.26718749999998,41.981611961126305L225.49335937499998,46.68329965472222L225.71953125,56.42002057433129L225.945703125,62.14022498726844L226.171875,52.37340133786202L226.39804687499998,55.601954275369636L226.62421874999998,56.17887344360352L226.850390625,49.95919581651687L227.0765625,35.53766723871232L227.302734375,40.79453226327897L227.52890625,47.50257920622826L227.75507812499998,39.324905389547325L227.98125,38.39458685517312L228.207421875,49.164691233634954L228.43359375,34.698254728317266L228.659765625,53.11366122364997L228.8859375,51.09149452447892L229.112109375,54.21317573785781L229.33828125,56.311539971828466L229.564453125,52.882879489660255L229.790625,49.66827895641326L230.016796875,49.48011931180953L230.24296875000002,56.18834208846093L230.469140625,56.44008319973945L230.6953125,42.966500484943396L230.921484375,57.090122812986365L231.14765625,53.2096840083599L231.37382812500002,54.511451238393775L231.60000000000002,57.35532399415969L231.826171875,52.89819460511207L232.05234375,47.62604084014893L232.278515625,51.40799518823624L232.50468750000002,60.35736795663834L232.73085937500002,50.64855184555054L232.95703125,57.90361743569375L233.18320312499998,50.90726476311684L233.40937499999998,54.420870506763464L233.635546875,55.219436848163596L233.86171875,52.94900175333022L234.087890625,52.024749481678015L234.31406249999998,52.74031352400779L234.54023437499998,51.81272041201592L234.76640625,55.939106607437125L234.992578125,56.01264026165008L235.21875,49.7850413262844L235.444921875,57.768251860141746L235.67109374999998,48.404948973655706L235.897265625,47.185647749900795L236.1234375,26.310064011812216L236.349609375,66.9581211745739L236.57578125,56.970995479822164L236.801953125,50.6893013060093L237.028125,57.96282064318656L237.254296875,54.415542745590216L237.48046875,55.207260364294044L237.706640625,55.719121062755576L237.9328125,42.89482187628744L238.158984375,60.605003350973135L238.38515625,51.9189063847065L238.611328125,59.02176153063775L238.8375,52.216997259855276L239.063671875,54.076939785480505L239.28984375000002,58.149274700880056L239.516015625,45.13043310642243L239.7421875,58.60576536655425L239.968359375,61.52868416309357L240.19453125,56.517669820785514L240.42070312500002,58.1457404434681L240.64687500000002,60.89232441186904L240.873046875,58.616895639896384L241.09921875,47.51868557333944L241.325390625,64.73366659283637L241.55156250000002,55.9645761191845L241.77773437500002,50.296884441375724L242.00390625,72.18208771347999L242.23007812499998,65.58164220452308L242.45624999999998,59.91545390486718L242.682421875,61.33153941631316L242.90859375,52.13892709612847L243.134765625,51.51530649662017L243.36093749999998,52.41418596506118L243.58710937499998,61.380632185935966L243.81328125,60.52781235575675L244.039453125,60.873140954971305L244.265625,64.31412737965584L244.491796875,59.799852037429815L244.71796874999998,60.89670267105102L244.944140625,52.85927381515502L245.1703125,53.610356265306464L245.396484375,55.360921436548225L245.62265625,59.949196392297736L245.848828125,54.70474522709847L246.075,59.709710890054694L246.301171875,65.12133594751359L246.52734375,63.37833162546157L246.753515625,56.370048636198035L246.9796875,58.69814839363097L247.20585937500002,57.97011774182319L247.43203125,60.80990236401557L247.658203125,48.41912996172903L247.884375,53.604606503248206L248.110546875,58.89933731555938L248.33671875000002,49.91412084698676L248.56289062500002,59.22434833049775L248.7890625,54.564772808551794L249.015234375,61.28928657770156L249.24140625,52.731091046333304L249.46757812500002,63.44976406693459L249.69375000000002,50.1236267030239L249.919921875,50.44635187983512L250.14609374999998,50.181572699546805L250.37226562499998,50.91974016427994L250.5984375,49.29682146906852L250.824609375,55.34154456257821L251.05078125,56.689881348609916L251.27695312499998,52.855510973930365L251.50312499999998,47.66933109760285L251.729296875,58.59644618034362L251.95546875,61.35880243182183L252.181640625,60.883893185853964L252.4078125,64.79307200908661L252.63398437499998,52.14145030975341L252.86015625,57.97133099436759L253.086328125,53.67854457497597L253.3125,54.65816687941552L253.538671875,63.14317163228988L253.76484375,60.82954298853873L253.991015625,52.21153762340546L254.2171875,61.87250938415528L254.443359375,52.01232683062554L254.66953125,67.09406700134276L254.895703125,58.4181595981121L255.121875,45.980914348363854L255.348046875,60.77668737769126L255.57421875,44.63384356498719L255.800390625,66.01105448007583L256.0265625,39.44830548167229L256.252734375,57.21563290953635L256.47890624999997,65.94665538668632L256.705078125,45.055097156763054L256.93125,51.71139624118804L257.157421875,61.13359462618827L257.38359375,61.280257517099386L257.609765625,65.87858136892318L257.8359375,62.6569650709629" style="fill: none;" fill="none"></path></g></g></g></g></g></g><g transform="translate(58, 177)" clip-path="url(#clip_1)"><clipPath id="clip_1"><rect width="271" height="23"></rect></clipPath><g><g><line x1="0" y1="0" x2="0" y2="5" style="visibility: inherit;" fill="rgb(0, 0, 0)" stroke="rgb(204, 204, 204)" stroke-width="1px"></line><line x1="22.6171875" y1="0" x2="22.6171875" y2="5" style="visibility: inherit;" fill="rgb(0, 0, 0)" stroke="rgb(204, 204, 204)" stroke-width="1px"></line><line x1="45.234375" y1="0" x2="45.234375" y2="5" style="visibility: inherit;" fill="rgb(0, 0, 0)" stroke="rgb(204, 204, 204)" stroke-width="1px"></line><line x1="67.8515625" y1="0" x2="67.8515625" y2="5" style="visibility: inherit;" fill="rgb(0, 0, 0)" stroke="rgb(204, 204, 204)" stroke-width="1px"></line><line x1="90.46875" y1="0" x2="90.46875" y2="5" style="visibility: inherit;" fill="rgb(0, 0, 0)" stroke="rgb(204, 204, 204)" stroke-width="1px"></line><line x1="113.0859375" y1="0" x2="113.0859375" y2="5" style="visibility: inherit;" fill="rgb(0, 0, 0)" stroke="rgb(204, 204, 204)" stroke-width="1px"></line><line x1="135.703125" y1="0" x2="135.703125" y2="5" style="visibility: inherit;" fill="rgb(0, 0, 0)" stroke="rgb(204, 204, 204)" stroke-width="1px"></line><line x1="158.3203125" y1="0" x2="158.3203125" y2="5" style="visibility: inherit;" fill="rgb(0, 0, 0)" stroke="rgb(204, 204, 204)" stroke-width="1px"></line><line x1="180.9375" y1="0" x2="180.9375" y2="5" style="visibility: inherit;" fill="rgb(0, 0, 0)" stroke="rgb(204, 204, 204)" stroke-width="1px"></line><line x1="203.5546875" y1="0" x2="203.5546875" y2="5" style="visibility: inherit;" fill="rgb(0, 0, 0)" stroke="rgb(204, 204, 204)" stroke-width="1px"></line><line x1="226.171875" y1="0" x2="226.171875" y2="5" style="visibility: inherit;" fill="rgb(0, 0, 0)" stroke="rgb(204, 204, 204)" stroke-width="1px"></line><line x1="248.7890625" y1="0" x2="248.7890625" y2="5" style="visibility: inherit;" fill="rgb(0, 0, 0)" stroke="rgb(204, 204, 204)" stroke-width="1px"></line><line x1="271.40625" y1="0" x2="271.40625" y2="5" style="visibility: inherit;" fill="rgb(0, 0, 0)" stroke="rgb(204, 204, 204)" stroke-width="1px"></line></g><g transform="translate(0, 8)"><text x="0" y="0" dx="0em" dy="0.95em" style="text-anchor: middle; visibility: hidden; font-family: &quot;Helvetica Neue&quot;, sans-serif; font-size: 12px; font-weight: 200;" fill="rgb(50, 49, 63)" stroke="none" stroke-width="1px">-100</text><text x="22.6171875" y="0" dx="0em" dy="0.95em" style="text-anchor: middle; visibility: inherit; font-family: &quot;Helvetica Neue&quot;, sans-serif; font-size: 12px; font-weight: 200;" fill="rgb(50, 49, 63)" stroke="none" stroke-width="1px">0</text><text x="45.234375" y="0" dx="0em" dy="0.95em" style="text-anchor: middle; visibility: hidden; font-family: &quot;Helvetica Neue&quot;, sans-serif; font-size: 12px; font-weight: 200;" fill="rgb(50, 49, 63)" stroke="none" stroke-width="1px">100</text><text x="67.8515625" y="0" dx="0em" dy="0.95em" style="text-anchor: middle; visibility: inherit; font-family: &quot;Helvetica Neue&quot;, sans-serif; font-size: 12px; font-weight: 200;" fill="rgb(50, 49, 63)" stroke="none" stroke-width="1px">200</text><text x="90.46875" y="0" dx="0em" dy="0.95em" style="text-anchor: middle; visibility: hidden; font-family: &quot;Helvetica Neue&quot;, sans-serif; font-size: 12px; font-weight: 200;" fill="rgb(50, 49, 63)" stroke="none" stroke-width="1px">300</text><text x="113.0859375" y="0" dx="0em" dy="0.95em" style="text-anchor: middle; visibility: inherit; font-family: &quot;Helvetica Neue&quot;, sans-serif; font-size: 12px; font-weight: 200;" fill="rgb(50, 49, 63)" stroke="none" stroke-width="1px">400</text><text x="135.703125" y="0" dx="0em" dy="0.95em" style="text-anchor: middle; visibility: hidden; font-family: &quot;Helvetica Neue&quot;, sans-serif; font-size: 12px; font-weight: 200;" fill="rgb(50, 49, 63)" stroke="none" stroke-width="1px">500</text><text x="158.3203125" y="0" dx="0em" dy="0.95em" style="text-anchor: middle; visibility: inherit; font-family: &quot;Helvetica Neue&quot;, sans-serif; font-size: 12px; font-weight: 200;" fill="rgb(50, 49, 63)" stroke="none" stroke-width="1px">600</text><text x="180.9375" y="0" dx="0em" dy="0.95em" style="text-anchor: middle; visibility: hidden; font-family: &quot;Helvetica Neue&quot;, sans-serif; font-size: 12px; font-weight: 200;" fill="rgb(50, 49, 63)" stroke="none" stroke-width="1px">700</text><text x="203.5546875" y="0" dx="0em" dy="0.95em" style="text-anchor: middle; visibility: inherit; font-family: &quot;Helvetica Neue&quot;, sans-serif; font-size: 12px; font-weight: 200;" fill="rgb(50, 49, 63)" stroke="none" stroke-width="1px">800</text><text x="226.171875" y="0" dx="0em" dy="0.95em" style="text-anchor: middle; visibility: hidden; font-family: &quot;Helvetica Neue&quot;, sans-serif; font-size: 12px; font-weight: 200;" fill="rgb(50, 49, 63)" stroke="none" stroke-width="1px">900</text><text x="248.7890625" y="0" dx="0em" dy="0.95em" style="text-anchor: middle; visibility: inherit; font-family: &quot;Helvetica Neue&quot;, sans-serif; font-size: 12px; font-weight: 200;" fill="rgb(50, 49, 63)" stroke="none" stroke-width="1px">1k</text><text x="271.40625" y="0" dx="0em" dy="0.95em" style="text-anchor: middle; visibility: hidden; font-family: &quot;Helvetica Neue&quot;, sans-serif; font-size: 12px; font-weight: 200;" fill="rgb(50, 49, 63)" stroke="none" stroke-width="1px">1.1k</text></g><line x1="0" y1="0" x2="271.40625" y2="0" fill="rgb(0, 0, 0)" stroke="rgb(204, 204, 204)" stroke-width="1px"></line></g></g></g></g></svg>