<svg viewBox="0 0 330 200" xmlns="http://www.w3.org/2000/svg"><g><g><g><g><g><line x1="58.59375" y1="177" x2="53.59375" y2="177" style="visibility: inherit;" fill="rgb(0, 0, 0)" stroke="rgb(204, 204, 204)" stroke-width="1px"></line><line x1="58.59375" y1="154.875" x2="53.59375" y2="154.875" style="visibility: inherit;" fill="rgb(0, 0, 0)" stroke="rgb(204, 204, 204)" stroke-width="1px"></line><line x1="58.59375" y1="132.75" x2="53.59375" y2="132.75" style="visibility: inherit;" fill="rgb(0, 0, 0)" stroke="rgb(204, 204, 204)" stroke-width="1px"></line><line x1="58.59375" y1="110.62499999999999" x2="53.59375" y2="110.62499999999999" style="visibility: inherit;" fill="rgb(0, 0, 0)" stroke="rgb(204, 204, 204)" stroke-width="1px"></line><line x1="58.59375" y1="88.49999999999999" x2="53.59375" y2="88.49999999999999" style="visibility: inherit;" fill="rgb(0, 0, 0)" stroke="rgb(204, 204, 204)" stroke-width="1px"></line><line x1="58.59375" y1="66.375" x2="53.59375" y2="66.375" style="visibility: inherit;" fill="rgb(0, 0, 0)" stroke="rgb(204, 204, 204)" stroke-width="1px"></line><line x1="58.59375" y1="44.25" x2="53.59375" y2="44.25" style="visibility: inherit;" fill="rgb(0, 0, 0)" stroke="rgb(204, 204, 204)" stroke-width="1px"></line><line x1="58.59375" y1="22.125" x2="53.59375" y2="22.125" style="visibility: inherit;" fill="rgb(0, 0, 0)" stroke="rgb(204, 204, 204)" stroke-width="1px"></line><line x1="58.59375" y1="0" x2="53.59375" y2="0" style="visibility: inherit;" fill="rgb(0, 0, 0)" stroke="rgb(204, 204, 204)" stroke-width="1px"></line></g><g transform="translate(48.59375, 0)"><text x="0" y="177" dx="0em" dy="0.3em" style="text-anchor: end; visibility: hidden; font-family: &quot;Helvetica Neue&quot;, sans-serif; font-size: 12px; font-weight: 200;" fill="rgb(50, 49, 63)" stroke="none" stroke-width="1px">-0.05</text><text x="0" y="154.875" dx="0em" dy="0.3em" style="text-anchor: end; visibility: inherit; font-family: &quot;Helvetica Neue&quot;, sans-serif; font-size: 12px; font-weight: 200;" fill="rgb(50, 49, 63)" stroke="none" stroke-width="1px">0</text><text x="0" y="132.75" dx="0em" dy="0.3em" style="text-anchor: end; visibility: hidden; font-family: &quot;Helvetica Neue&quot;, sans-serif; font-size: 12px; font-weight: 200;" fill="rgb(50, 49, 63)" stroke="none" stroke-width="1px">0.05</text><text x="0" y="110.62499999999999" dx="0em" dy="0.3em" style="text-anchor: end; visibility: inherit; font-family: &quot;Helvetica Neue&quot;, sans-serif; font-size: 12px; font-weight: 200;" fill="rgb(50, 49, 63)" stroke="none" stroke-width="1px">0.1</text><text x="0" y="88.49999999999999" dx="0em" dy="0.3em" style="text-anchor: end; visibility: hidden; font-family: &quot;Helvetica Neue&quot;, sans-serif; font-size: 12px; font-weight: 200;" fill="rgb(50, 49, 63)" stroke="none" stroke-width="1px">0.15</text><text x="0" y="66.375" dx="0em" dy="0.3em" style="text-anchor: end; visibility: inherit; font-family: &quot;Helvetica Neue&quot;, sans-serif; font-size: 12px; font-weight: 200;" fill="rgb(50, 49, 63)" stroke="none" stroke-width="1px">0.2</text><text x="0" y="44.25" dx="0em" dy="0.3em" style="text-anchor: end; visibility: hidden; font-family: &quot;Helvetica Neue&quot;, sans-serif; font-size: 12px; font-weight: 200;" fill="rgb(50, 49, 63)" stroke="none" stroke-width="1px">0.25</text><text x="0" y="22.125" dx="0em" dy="0.3em" style="text-anchor: end; visibility: inherit; font-family: &quot;Helvetica Neue&quot;, sans-serif; font-size: 12px; font-weight: 200;" fill="rgb(50, 49, 63)" stroke="none" stroke-width="1px">0.3</text><text x="0" y="0" dx="0em" dy="0.3em" style="text-anchor: end; visibility: hidden; font-family: &quot;Helvetica Neue&quot;, sans-serif; font-size: 12px; font-weight: 200;" fill="rgb(50, 49, 63)" stroke="none" stroke-width="1px">0.35</text></g><line x1="58.59375" y1="0" x2="58.59375" y2="177" fill="rgb(0, 0, 0)" stroke="rgb(204, 204, 204)" stroke-width="1px"></line></g></g><g transform="translate(58, 0)" clip-path="url(#clip_0)"><clipPath id="clip_0"><rect width="271" height="177"></rect></clipPath><g><g><g><line x1="0" y1="0" x2="0" y2="177" fill="rgb(0, 0, 0)" stroke="rgb(60, 60, 60)" stroke-width="1px" opacity="0.25"></line><line x1="22.6171875" y1="0" x2="22.6171875" y2="177" fill="rgb(0, 0, 0)" stroke="rgb(60, 60, 60)" stroke-width="1px" opacity="0.25"></line><line x1="45.234375" y1="0" x2="45.234375" y2="177" fill="rgb(0, 0, 0)" stroke="rgb(60, 60, 60)" stroke-width="1px" opacity="0.25"></line><line x1="67.8515625" y1="0" x2="67.8515625" y2="177" fill="rgb(0, 0, 0)" stroke="rgb(60, 60, 60)" stroke-width="1px" opacity="0.25"></line><line x1="90.46875" y1="0" x2="90.46875" y2="177" fill="rgb(0, 0, 0)" stroke="rgb(60, 60, 60)" stroke-width="1px" opacity="0.25"></line><line x1="113.0859375" y1="0" x2="113.0859375" y2="177" fill="rgb(0, 0, 0)" stroke="rgb(60, 60, 60)" stroke-width="1px" opacity="0.25"></line><line x1="135.703125" y1="0" x2="135.703125" y2="177" fill="rgb(0, 0, 0)" stroke="rgb(60, 60, 60)" stroke-width="1px" opacity="0.25"></line><line x1="158.3203125" y1="0" x2="158.3203125" y2="177" fill="rgb(0, 0, 0)" stroke="rgb(60, 60, 60)" stroke-width="1px" opacity="0.25"></line><line x1="180.9375" y1="0" x2="180.9375" y2="177" fill="rgb(0, 0, 0)" stroke="rgb(60, 60, 60)" stroke-width="1px" opacity="0.25"></line><line x1="203.5546875" y1="0" x2="203.5546875" y2="177" fill="rgb(0, 0, 0)" stroke="rgb(60, 60, 60)" stroke-width="1px" opacity="0.25"></line><line x1="226.171875" y1="0" x2="226.171875" y2="177" fill="rgb(0, 0, 0)" stroke="rgb(60, 60, 60)" stroke-width="1px" opacity="0.25"></line><line x1="248.7890625" y1="0" x2="248.7890625" y2="177" fill="rgb(0, 0, 0)" stroke="rgb(60, 60, 60)" stroke-width="1px" opacity="0.25"></line><line x1="271.40625" y1="0" x2="271.40625" y2="177" fill="rgb(0, 0, 0)" stroke="rgb(60, 60, 60)" stroke-width="1px" opacity="0.25"></line></g><g><line x1="0" y1="177" x2="271.40625" y2="177" fill="rgb(0, 0, 0)" stroke="rgb(60, 60, 60)" stroke-width="1px" opacity="0.25"></line><line x1="0" y1="154.875" x2="271.40625" y2="154.875" fill="rgb(0, 0, 0)" stroke="rgb(60, 60, 60)" stroke-width="1px" opacity="0.25"></line><line x1="0" y1="132.75" x2="271.40625" y2="132.75" fill="rgb(0, 0, 0)" stroke="rgb(60, 60, 60)" stroke-width="1px" opacity="0.25"></line><line x1="0" y1="110.62499999999999" x2="271.40625" y2="110.62499999999999" fill="rgb(0, 0, 0)" stroke="rgb(60, 60, 60)" stroke-width="1px" opacity="0.25"></line><line x1="0" y1="88.49999999999999" x2="271.40625" y2="88.49999999999999" fill="rgb(0, 0, 0)" stroke="rgb(60, 60, 60)" stroke-width="1px" opacity="0.25"></line><line x1="0" y1="66.375" x2="271.40625" y2="66.375" fill="rgb(0, 0, 0)" stroke="rgb(60, 60, 60)" stroke-width="1px" opacity="0.25"></line><line x1="0" y1="44.25" x2="271.40625" y2="44.25" fill="rgb(0, 0, 0)" stroke="rgb(60, 60, 60)" stroke-width="1px" opacity="0.25"></line><line x1="0" y1="22.125" x2="271.40625" y2="22.125" fill="rgb(0, 0, 0)" stroke="rgb(60, 60, 60)" stroke-width="1px" opacity="0.25"></line><line x1="0" y1="0" x2="271.40625" y2="0" fill="rgb(0, 0, 0)" stroke="rgb(60, 60, 60)" stroke-width="1px" opacity="0.25"></line></g></g></g><g><g><line x1="0" y1="154.875" x2="271.40625" y2="154.875" fill="rgb(0, 0, 0)" stroke="rgb(153, 153, 153)" stroke-width="1.5px"></line></g></g><g><g><line x1="22.6171875" y1="0" x2="22.6171875" y2="177" fill="rgb(0, 0, 0)" stroke="rgb(153, 153, 153)" stroke-width="1.5px"></line></g></g><g><g><g><g><g><path stroke="rgb(0, 153, 136)" stroke-width="2px" d="M24.652734375,-4.973858043551445L24.87890625,20.683057263493538L25.105078125,38.73948606848717L25.33125,40.08562932908535L25.557421875,40.63573385775089L25.78359375,41.08681324124336L26.009765625,41.513759449124336L26.2359375,41.62733043730259L26.462109375,41.903055265545845L26.68828125,42.02289032936096L26.914453125,42.15117859840393L27.140625,42.387894719839096L27.366796875,42.3681925535202L27.59296875,42.509866163134575L27.819140625,42.55736763775349L28.0453125,42.746489971876144L28.271484375,42.797024577856064L28.49765625,42.8837061971426L28.723828125,43.06560176610947L28.950000000000003,44.039012745022774L29.176171874999998,45.77013950049877L29.40234375,48.19408620893955L29.628515625,51.363992013037205L29.8546875,54.07580926269293L30.080859375000003,55.92363904416561L30.307031249999998,57.02665704488754L30.533203125,57.719786904752254L30.759375,58.8357023075223L30.985546875,59.13288324326277L31.211718750000003,59.83554109185934L31.437890624999998,60.287101820111275L31.6640625,60.485785111784935L32.11640625,61.669128343462944L32.342578125,61.94365310668945L32.56875,62.30058013647795L32.794921875,62.688313230872154L33.02109375,63.16502916812897L33.247265625,63.11196255683899L33.4734375,63.28688192367554L33.699609375,63.806958451867104L33.92578125,64.10946714878082L34.151953125,64.56851179897785L34.378125000000004,64.73776052892208L34.604296875,64.70935459434986L34.83046875,65.53751154989004L35.056640625,65.58085235953331L35.2828125,65.79686406254768L35.508984375,65.89784096181393L35.735156249999996,66.49325783550739L35.961328125,66.40889722108841L36.1875,66.5346007347107L36.413671875,66.94415259361267L36.639843750000004,67.36770960688591L36.866015625,67.68671590089798L37.092187499999994,67.92322102189064L37.318359375,68.22621106356382L37.54453125,67.86858509480953L37.770703125,68.44084466993809L37.996875,68.86336646229029L38.223046875,69.31449859589338L38.44921875,69.04338940232992L38.675390625,69.7922167852521L38.901562500000004,69.7233383283019L39.127734375,70.42918096482754L39.353906249999994,70.15391770005226L39.580078125,70.3357143625617L39.80625,70.62794997543097L40.032421875,70.84386277198792L40.25859375,71.18988371640444L40.484765625,71.4533441439271L40.7109375,71.71667269617319L40.937109375000006,72.27118845283985L41.163281250000004,72.23910979181528L41.389453124999996,72.33194998651743L41.615624999999994,72.31054662913084L41.841796875,72.74095456302166L42.06796875,72.69086173921824L42.294140625,73.08105430752039L42.5203125,73.3915810212493L42.746484375,73.29862873256207L42.97265625,73.94266142696142L43.198828125000006,73.99191684275866L43.425000000000004,74.49556830525398L43.651171874999996,74.84710163623095L43.877343749999994,74.72002002596855L44.103515625,75.00129020959139L44.3296875,75.06903453916311L44.555859375,75.23761729896069L44.78203125,75.60579988360405L45.008203125,75.57840938866138L45.234375,75.85294733941555L45.460546875000006,76.00017949193716L45.68671875,76.18622253835201L45.912890624999996,76.17256685346365L46.1390625,76.41002147644758L46.365234375,76.73061027377844L46.59140625,76.70177574455738L46.817578125,77.11422226577997L47.04375,76.92397899180651L47.269921875,76.98752968758345L47.49609375,77.0430162101984L47.722265625000006,77.19359799474478L47.9484375,77.43431653082371L48.174609374999996,77.84529923647642L48.40078125,77.55360431224108L48.626953125,77.64176293462515L48.853125,77.61629122495651L49.079296875000004,77.65067770332098L49.30546875,78.03014221787453L49.531640625,78.07412921637297L49.7578125,78.15394672751427L49.983984375,78.15576001256704L50.21015625,78.19104983657598L50.436328124999996,78.53202655166388L50.6625,78.25886669754982L50.888671875,78.40208984166384L51.11484375,78.676205791533L51.341015625000004,78.349056199193L51.5671875,78.52518881857395L51.793359375,78.75570680201054L52.01953125,79.11386027187109L52.245703125,78.52171390503645L52.471875,78.6917143240571L52.698046874999996,79.14819400012493L52.92421875,78.79585622996092L53.150390625,79.11299648880959L53.3765625,78.9214674308896L53.602734375000004,79.1779648438096L53.82890625,79.46210331469774L54.055078124999994,79.42260007560253L54.28125,79.46212968975306L54.507421875,79.53326321393251L54.73359375,79.50298465043306L54.959765625,79.72497030347586L55.1859375,79.60375714302063L55.412109375,79.65693584829569L55.63828125,79.7553873360157L55.864453125000004,79.76381416618824L56.090625,79.69202126562595L56.316796874999994,79.73004750162363L56.54296875,80.06961315125227L56.769140625,80.07654979079962L57.221484375,80.40687098354101L57.44765625,80.11737837642431L57.673828125,80.280158624053L57.900000000000006,80.36082013696432L58.126171875000004,80.76351448148489L58.352343749999996,80.25483857095242L58.578515624999994,80.66865659505129L58.8046875,80.53260746598244L59.030859375,80.68893241882324L59.25703125,80.8233265131712L59.483203125,80.44467962533236L59.709375,81.12483955174685L59.935546875,80.69413489848375L60.161718750000006,80.6975043118L60.387890625000004,80.82895758748055L60.614062499999996,80.81365346163511L60.840234374999994,80.79501289129257L61.06640625,80.92595185339451L61.292578125,80.90721897035837L61.51875,80.9874387010932L61.744921875,80.91424792259932L61.97109375,81.22172172367573L62.197265625,81.46551295369864L62.423437500000006,81.16978264600039L62.649609375,81.40970993041992L62.875781249999996,80.87676237523556L63.101953125,81.2825294137001L63.328125,81.30616805702448L63.554296875,80.98238128423691L63.78046875,81.40672295540571L64.006640625,81.43980386853218L64.2328125,81.26649997383356L64.458984375,81.48341502249241L64.68515625,81.55442326515913L64.911328125,82.06869068741798L65.1375,81.60882841050625L65.36367187500001,81.77407472580671L65.58984375,81.85352298617363L65.81601562499999,81.77048771828413L66.0421875,81.84762816131115L66.268359375,82.14264634251595L66.49453125,82.13251832127571L66.946875,81.72779309749603L67.173046875,82.16021212935448L67.39921875,82.07178316265345L67.62539062500001,81.96393556147814L67.8515625,82.28139891475439L68.077734375,82.4251561537385L68.30390625,82.39199611544609L68.530078125,81.68595566600561L68.982421875,82.43529736250639L69.20859375,82.43586442619562L69.43476562500001,82.08919729292393L69.6609375,82.18671246618032L69.88710937500001,82.28497273474932L70.33945312499999,82.4198415800929L70.565625,82.26469031721354L70.79179687499999,82.48347799479961L71.01796875,82.77319478988647L71.244140625,82.62554063647985L71.47031249999999,82.5728300884366L71.696484375,82.55316089093685L71.92265625,82.76012594997883L72.148828125,82.51590612530708L72.375,82.73318383097649L72.601171875,82.37805030494928L72.82734375,82.97538596391678L73.053515625,82.44196365773678L73.505859375,82.51086848974228L73.73203125,83.0841237232089L73.95820312500001,83.1432104408741L74.18437499999999,83.05923226475716L74.410546875,82.93172205984592L74.63671875,82.58752758800983L74.86289062499999,83.34003429114819L75.0890625,83.08264672011137L75.315234375,83.0686877220869L75.54140625,82.95628383010626L75.767578125,83.03138020634651L75.99375,83.07532104849815L76.219921875,83.07482651621103L76.44609375,83.37591096013784L76.672265625,83.42172443121672L76.8984375,83.46732690185308L77.124609375,83.26474669575691L77.35078125,83.11570125818253L77.576953125,82.99965101480484L77.80312500000001,83.17367362976074L78.029296875,83.56008137762547L78.25546875,82.99833226203918L78.48164062500001,83.46250686049461L78.70781249999999,83.99519725888968L78.933984375,83.32681379467249L79.16015625,83.58915328234434L79.38632812499999,83.37000954151154L79.6125,83.16296535730362L79.838671875,83.42278602719307L80.06484375,83.53124025464058L80.291015625,83.59981539845467L80.5171875,83.83021469414234L80.743359375,83.8596096932888L80.96953125,83.50106719136238L81.19570312500001,83.93473244458437L81.421875,83.14879535883665L81.648046875,84.00610334426165L81.87421875000001,83.74768714606762L82.100390625,83.61227101832628L82.32656250000001,84.19653783738613L82.552734375,83.92561986297369L83.005078125,84.07788305729628L83.23124999999999,83.69781191647053L83.457421875,83.71155991405249L83.68359375,84.01784683763981L83.90976562499999,83.8470156043768L84.1359375,84.0382017865777L84.362109375,83.89408848434687L84.58828125,83.6600296497345L84.814453125,84.32283478975296L85.040625,83.54748069494963L85.266796875,84.17090787738562L85.49296875,84.13327067345381L85.71914062500001,83.77399626374245L85.9453125,84.25629711896181L86.171484375,83.99278394132853L86.39765625000001,83.99506538361311L86.623828125,83.82616612315178L86.85000000000001,84.06819022446871L87.076171875,84.17324866354465L87.30234374999999,83.82768268883228L87.528515625,84.09455868601799L87.980859375,84.10324267297983L88.43320312499999,84.091063991189L88.659375,84.46041367202997L88.885546875,84.19424320757389L89.11171875,84.3370443508029L89.337890625,83.88722437620163L89.5640625,84.39305837452412L89.790234375,84.40190061181784L90.01640625,84.40489418059587L90.24257812500001,84.3016951829195L90.46875,84.78213659673929L90.694921875,84.11063428223133L90.92109375000001,84.07690058648586L91.14726562499999,84.41345288604498L91.3734375,84.39812897890806L91.599609375,84.09204646199942L92.051953125,84.41272757202387L92.278125,84.72515988349915L92.504296875,84.0383864119649L92.73046875,84.59687161445618L92.956640625,84.61938931792974L93.408984375,84.33996538817883L93.63515625,84.26134794205427L93.861328125,84.67057011276484L94.0875,84.23981930315495L94.313671875,84.71839468181133L94.53984375,84.34629540145397L94.76601562500001,84.93602845072746L94.9921875,84.21199361979961L95.218359375,84.19865443557501L95.44453125000001,84.63249112665653L95.67070312499999,84.4885888248682L95.896875,84.60421047359705L96.123046875,84.84967651963234L96.34921874999999,84.11121453344822L96.575390625,84.52881737798452L96.8015625,84.49725303053856L97.027734375,84.69747266918421L97.25390625,85.06882026046515L97.480078125,84.71293504536152L97.70625,84.82270802557468L97.932421875,85.37073551863432L98.15859375000001,84.64282355457544L98.384765625,84.6151824966073L98.6109375,84.7206497490406L98.83710937500001,84.97166115045547L99.06328125,84.92776646465063L99.28945312500001,84.94433659315109L99.515625,84.97427228093147L99.74179687499999,85.07172811031342L99.96796875,84.95186007767916L100.19414062499999,84.76781494170427L100.4203125,84.90683126449585L100.646484375,85.02725317329168L100.87265624999999,84.77634727209806L101.098828125,84.96579929441214L101.325,84.97333596646786L101.551171875,85.26364620029926L101.77734375,85.04360570758581L102.003515625,85.32992671430111L102.2296875,84.86153870075941L102.455859375,85.19675246626139L102.68203125000001,85.01649215072393L102.908203125,85.11311057209969L103.134375,85.2922433540225L103.36054687500001,85.3662781342864L103.58671875,85.06623550504446L103.81289062500001,84.90726645290852L104.0390625,84.9385538622737L104.26523437499999,84.96449372917414L104.49140625,85.86069832742214L104.71757812499999,85.46667478233576L104.94375,85.19567768275738L105.169921875,85.46629893779755L105.39609374999999,85.62162163853645L105.622265625,85.40588687360287L105.8484375,85.23053891211748L106.30078125,85.32935965061188L106.526953125,85.40233942866325L106.753125,85.88518756628036L106.979296875,85.50905949622393L107.20546875000001,85.37982831895351L107.431640625,85.62922424823046L107.6578125,85.69367169588804L107.88398437500001,85.67840053886175L108.11015624999999,85.85300340503454L108.336328125,85.33251806348562L108.5625,85.49104533344507L108.78867187499999,85.80686024576426L109.01484375,85.41912715137005L109.241015625,85.40620337426662L109.4671875,85.85072855651379L109.693359375,86.02248951047659L109.91953125,85.83890593796968L110.145703125,85.69309144467115L110.371875,85.90183681994677L110.598046875,85.94973392039537L110.82421875,85.86493811756372L111.050390625,86.11049647629261L111.2765625,85.53141894936562L111.502734375,85.6744706556201L111.955078125,85.91974548250437L112.18125,85.98668537288904L112.40742187500001,85.810018658638L112.63359374999999,86.01432643085718L112.859765625,86.47029838711023L113.0859375,85.72990442812443L113.31210937499999,86.52412328124046L113.53828125,86.16056292504072L113.764453125,85.75635860860348L113.990625,86.19620881229639L114.216796875,85.8847985342145L114.44296875,86.11956290155649L114.669140625,85.79704213142395L114.8953125,85.81841911375523L115.12148437500001,86.43614269047976L115.34765625,86.13729353249073L115.573828125,85.78901092708111L115.80000000000001,86.48417825996876L116.026171875,86.08869749307632L116.25234375000001,86.4566031396389L116.478515625,86.13642974942923L116.70468749999999,86.30830939114094L117.15703124999999,86.51427219808102L117.383203125,86.50164514034986L117.609375,86.41286011040211L117.83554687499999,85.75557395070791L118.06171875,86.41858349740505L118.287890625,86.75088281929493L118.5140625,86.60277369618416L118.740234375,86.21339216083288L118.96640625,86.50889828056097L119.192578125,86.52566622197628L119.41875,87.09422010183334L119.64492187500001,86.30881051719189L119.87109375,86.38484320789576L120.32343750000001,86.52015383541584L120.77578125000001,86.68205051869154L121.001953125,86.69433470070362L121.22812499999999,86.36352556943893L121.454296875,87.08695377409458L121.68046874999999,86.99348057806492L121.906640625,86.68806403130293L122.1328125,86.77043332904577L122.35898437499999,86.23159754276276L122.58515625,86.48557613790035L122.811328125,86.26314870268106L123.0375,86.62281873822212L123.263671875,86.26035294681787L123.48984375,86.80888815969229L123.716015625,86.1573385745287L123.9421875,86.80466155707836L124.16835937500001,86.80200427025557L124.39453125,86.70239228010178L124.620703125,86.91063652932644L124.84687500000001,86.75886786729097L125.07304687499999,87.13221996277571L125.29921875,86.43789663165808L125.525390625,86.73335000127554L125.75156249999999,87.15234412997961L125.977734375,86.57091262936592L126.20390625,86.90419442206621L126.430078125,86.89111898839474L126.65625,87.00065459311008L126.882421875,86.79085421562195L127.10859375,86.70171312242746L127.334765625,87.05628617852926L127.5609375,86.82265593856573L127.787109375,86.7310553714633L128.01328125,87.00288987904787L128.23945312499998,87.21203088015318L128.465625,87.21748392283916L128.691796875,87.09484650939703L128.91796875,87.18410629034042L129.144140625,86.73297415673733L129.3703125,87.12721529603004L129.596484375,86.87108713388443L129.82265625,86.92877597361803L130.048828125,87.02290854603052L130.275,86.81271254271269L130.501171875,86.47714271396399L130.72734375000002,87.15359035134315L130.953515625,87.32421058416367L131.1796875,87.12269856780767L131.405859375,87.26371939480305L131.63203124999998,87.13807522505522L131.858203125,86.92384383827448L132.084375,87.08356457948685L132.310546875,87.10186227411032L132.53671875,87.00883745402098L132.762890625,86.86863425374031L132.9890625,87.10326015204191L133.215234375,87.01273436844349L133.44140625,86.8582095131278L133.667578125,87.13370355963707L133.89375,86.60808167606592L134.119921875,86.84049866348505L134.572265625,86.76438684761524L134.7984375,86.76624628901482L135.024609375,86.45671523362398L135.25078125000002,86.70395500212908L135.476953125,86.85685119777918L135.703125,86.98875944316387L136.15546875,87.01726428419352L136.381640625,86.9768972620368L136.6078125,87.19534865766764L136.833984375,87.28054668009281L137.06015625,87.51699245721102L137.286328125,86.67210052907467L137.51250000000002,87.00861326605082L137.738671875,86.94288003444672L137.96484375,87.17297601699829L138.191015625,87.1605269908905L138.4171875,87.04005233198404L138.64335937500002,86.8416987285018L138.86953125000002,87.12106331437826L139.095703125,86.99124529212713L139.321875,87.07712247222662L139.548046875,87.22759875655174L139.77421875000002,87.31236818432808L140.00039062500002,87.12229634821415L140.2265625,87.23593327403069L140.45273437499998,86.97215634584427L140.67890624999998,86.91714457422495L140.905078125,87.17156495153904L141.13125,87.23524092882872L141.357421875,86.67349840700626L142.262109375,87.11024294793606L142.48828125,87.09354753792286L142.714453125,87.20328095555305L142.94062499999998,86.93548183143139L143.166796875,86.75232685357332L143.39296875,87.03561472892761L143.619140625,86.84632095694542L143.8453125,87.02586255222559L144.071484375,87.10572621971369L144.29765625,86.96833196282387L144.523828125,87.17755208909512L144.75,87.00615379214287L144.976171875,86.8793820887804L145.20234375,86.92793856561184L145.42851562500002,86.82081627845764L145.6546875,87.02445148676634L145.880859375,86.97441800683737L146.10703125,86.73416103422642L146.333203125,87.20395351946354L146.55937500000002,87.32114448398352L146.78554687500002,86.80689684301615L147.01171875,86.97619172930717L147.237890625,86.69869317859411L147.4640625,87.17964890599251L147.69023437500002,87.21388372778893L148.142578125,87.04512293636799L148.36874999999998,87.01764672249556L148.59492187499998,87.11574874073267L148.82109375,86.71621940284967L149.047265625,87.19260565191507L149.2734375,86.87064535170794L149.49960937499998,87.35770690441132L149.72578124999998,87.09472122788429L149.951953125,87.2643853649497L150.178125,87.01535868644714L150.404296875,87.06956601887941L150.63046875,87.15515966713428L150.85664062499998,86.87237951159477L151.0828125,86.99889405816793L151.308984375,86.96789018064737L151.53515625,87.27084725350142L151.761328125,87.15934670716524L151.9875,87.09937642514706L152.213671875,87.13486406207085L152.43984375,87.25325509160757L152.666015625,87.19797956943512L152.8921875,86.87421917170286L153.118359375,87.57541320472956L153.34453125,86.85561157017946L153.570703125,87.04844619333744L153.796875,86.962720669806L154.023046875,86.98262064903975L154.24921875,87.40661944448948L154.47539062500002,87.10093914717436L154.7015625,86.79213340580463L154.927734375,87.04576912522316L155.15390625,87.22186218202114L155.380078125,87.30748220533133L155.60625000000002,87.25610359758139L155.83242187500002,87.4626796245575L156.284765625,87.5058424025774L156.5109375,87.01560265570879L156.73710937500002,87.27436172962189L156.96328125000002,87.39984764903784L157.189453125,87.31825641542673L157.41562499999998,87.08701311796904L157.64179687499998,87.39380116760731L157.86796875,87.25841141492128L158.094140625,87.12298869341612L158.3203125,87.27732892334461L158.54648437499998,86.91465213149786L158.77265624999998,87.07077927142382L158.998828125,87.40327640622854L159.225,86.93393229693174L159.451171875,86.86263392865658L159.67734375,87.49265487492085L160.1296875,87.21379141509533L160.355859375,87.30733054876328L160.58203125,87.33582879602909L160.808203125,87.15429588407278L161.034375,87.11861043423414L161.260546875,87.44565452635288L161.48671875,87.32311601936817L161.712890625,87.33917842805386L161.9390625,87.51321423053741L162.165234375,87.46926679462194L162.39140625000002,87.0789819136262L162.617578125,87.23884112387896L162.84375,87.07103642821312L163.069921875,87.49739579111338L163.29609375,87.52404119074345L163.52226562500002,86.94523400813341L163.74843750000002,87.57082394510508L163.974609375,87.43291537463665L164.20078125,87.18931536376476L164.426953125,87.22876585274935L164.65312500000002,87.30363144725561L164.87929687500002,87.60486095398664L165.10546875,87.76733788847923L165.33164062499998,87.21384416520596L165.55781249999998,87.39681451767683L165.783984375,87.36655573546886L166.01015625,87.41379345953465L166.236328125,87.3864557147026L166.46249999999998,87.11160126328468L166.68867187499998,87.29836962372065L166.91484375,87.11356620490551L167.141015625,87.1859195753932L167.3671875,87.57729902118444L167.593359375,87.24265891313553L167.81953124999998,87.57460876554251L168.045703125,87.37275387346745L168.271875,87.24720861017704L168.498046875,87.4104240462184L168.72421875,87.5930515229702L168.950390625,87.57755617797375L169.1765625,87.71857041120529L169.402734375,87.43340990692377L169.62890625,87.54919639974833L169.855078125,87.51033275574446L170.08125,87.47603199630976L170.307421875,87.71135683357716L170.759765625,87.32390067726374L170.9859375,87.34328634291887L171.212109375,87.08967040479183L171.43828125000002,87.75386023521423L171.664453125,87.35860365629196L171.890625,87.53850131481886L172.116796875,87.13782466202974L172.34296875,87.305959045887L172.56914062500002,87.25880704075098L172.79531250000002,87.72817093133926L173.021484375,87.14798565208912L173.24765625,87.4741066172719L173.473828125,87.2944661155343L173.70000000000002,87.24120828509331L173.92617187500002,87.07689169049263L174.37851562499998,87.48984593153L174.60468749999998,87.12980664521456L174.830859375,87.13511462509632L175.05703125,87.30721186101437L175.283203125,87.47777274996042L175.50937499999998,87.53728146851063L175.73554687499998,87.32581286877394L175.96171875,87.42163344472647L176.187890625,87.52625669538975L176.4140625,87.51296366751194L176.640234375,87.1497066244483L176.86640624999998,87.29842237383127L177.092578125,87.70997873693705L177.31875,87.40849207341671L177.544921875,87.53251417726278L177.77109375,87.7236805781722L177.997265625,87.44753374904394L178.2234375,87.67358775436878L178.449609375,87.64729841798544L178.67578125,87.60553351789713L178.901953125,86.9266461879015L179.128125,87.21563766896725L179.35429687500002,87.27254844456911L179.58046875,87.34251487255096L179.806640625,87.71705384552479L180.0328125,87.47135701775551L180.258984375,87.30230610072613L180.71132812500002,87.33633651584387L180.9375,87.1657492518425L181.163671875,87.55364719033241L181.38984375,87.4542396068573L181.61601562500002,87.61794957518578L181.84218750000002,87.86817631870508L182.068359375,87.38697662204504L182.29453124999998,87.67330422252417L182.52070312499998,87.6832673996687L182.746875,87.93873618543148L182.973046875,87.62650828063488L183.19921875,87.46460500359535L183.42539062499998,87.79517016559839L183.65156249999998,87.76430475711823L183.877734375,87.33663982897997L184.10390625,87.5695249736309L184.330078125,87.58341803401709L184.55625,87.38511058688164L184.78242187499998,87.53842878341675L185.00859375,87.29142639040947L185.234765625,87.28258415311575L185.4609375,87.49197571724653L185.687109375,87.59539890289307L185.91328125,87.48326535522938L186.139453125,87.94269903749228L186.365625,87.69667252153158L186.591796875,87.84331123530865L186.81796875,87.81089629232883L187.044140625,87.44483030587435L187.2703125,87.46782935410738L187.496484375,87.47820134460926L187.72265625,87.46087293326855L187.948828125,87.52176634222269L188.175,87.51626054942608L188.40117187500002,87.64319050312042L188.62734375,87.3516867980361L188.853515625,87.61858917027712L189.0796875,87.77247443050146L189.305859375,87.66597195714712L189.53203125000002,87.67244043946266L189.75820312500002,87.47020310908556L189.984375,87.85286559909582L190.210546875,87.46467753499746L190.43671875,87.4851577654481L190.66289062500002,88.09866133332253L190.88906250000002,87.7109941765666L191.115234375,87.74187936633825L191.34140624999998,87.8006034269929L191.56757812499998,87.77026551961899L192.019921875,87.82267275452614L192.24609375,87.50847331434488L192.47226562499998,87.61239103227854L192.69843749999998,87.8272817954421L192.924609375,87.85077537596226L193.15078125,87.65921994298697L193.376953125,88.14892559498549L193.603125,87.74052105098963L193.82929687499998,87.31077908724546L194.05546875,88.04566725343466L194.281640625,87.85712517052889L194.5078125,87.70535650849342L194.733984375,87.5645334944129L194.96015625,87.77904841303825L195.186328125,87.62367955595255L195.4125,87.55515716224909L195.638671875,87.9915786087513L195.86484375,87.74697634577751L196.091015625,87.4473359361291L196.31718750000002,87.84410908073187L196.543359375,87.70622029155493L196.76953125,87.74275633692741L196.995703125,87.47690237313509L197.221875,88.30338451266289L197.44804687500002,87.86830819398165L197.67421875000002,87.99324683099985L197.900390625,88.06348360329866L198.1265625,87.76061224937439L198.57890625000002,88.01509197056293L198.80507812500002,88.31847763806581L199.03125,87.83315024524927L199.25742187499998,87.84534211456776L199.48359374999998,88.06245497614145L199.709765625,88.1211328804493L199.9359375,88.13987235724926L200.162109375,88.17942175269127L200.38828124999998,88.23925356566906L200.61445312499998,87.92313534021378L200.840625,88.2533708140254L201.066796875,88.03424685448408L201.29296875,87.89094458520412L201.519140625,87.889797270298L201.74531249999998,88.11345773935318L201.971484375,87.64865673333406L202.19765625,88.17524790018797L202.423828125,88.2018141746521L202.65,88.28476372361183L202.876171875,88.17523471266031L203.10234375,88.33436860889196L203.328515625,88.00098131597042L203.5546875,88.13317968696356L203.780859375,88.31851720064878L204.00703125,88.42209204286337L204.233203125,87.91979889571667L204.459375,87.87108416855335L204.685546875,88.24905849248171L204.91171875,88.5053449049592L205.137890625,88.04128240048885L205.36406250000002,88.0962546095252L205.590234375,88.33465214073658L206.042578125,88.08435286581516L206.26875,88.3008920699358L206.49492187500002,88.3963104262948L206.72109375000002,88.3785402327776L206.947265625,88.42980015277863L207.1734375,88.1957281306386L207.399609375,88.37816438823938L207.62578125000002,88.42999796569347L207.85195312500002,87.93537995964289L208.078125,88.35631265491247L208.30429687499998,88.1222076639533L208.53046874999998,88.15946242958307L208.756640625,88.37704344838858L208.9828125,88.2769435197115L209.208984375,88.39234757423401L209.43515624999998,88.25067396461964L209.66132812499998,88.14223951846361L209.8875,88.23498740047216L210.113671875,88.38146786391735L210.33984375,88.17750296741724L210.566015625,88.04612222313881L210.79218749999998,88.25903485715389L211.018359375,88.31351253390312L211.24453125,88.86616225540638L211.470703125,88.67312322556973L211.696875,88.15618532896042L211.923046875,88.3050197660923L212.14921875,88.73778826743364L212.375390625,88.69347817450762L212.6015625,88.54942421615124L212.827734375,88.51758952438831L213.05390625,88.84528639912605L213.28007812500002,88.38590546697378L213.50625,89.08005076646805L213.732421875,88.714927688241L213.95859375,88.84540508687496L214.184765625,88.6352948024869L214.41093750000002,88.5657833442092L214.63710937500002,88.4997006431222L214.86328125,88.63699599355459L215.089453125,88.69432217627764L215.315625,88.38748797029257L215.54179687500002,88.48593286424875L215.76796875000002,88.86918219923973L215.994140625,88.86806125938892L216.22031249999998,88.7440984994173L216.44648437499998,88.95179546624422L216.898828125,88.96493683755398L217.125,88.84007732570171L217.35117187499998,88.57291779667139L217.57734374999998,88.71183521300554L217.803515625,88.58643501251936L218.255859375,89.2223244085908L218.48203125,89.1248553916812L218.70820312499998,88.66612724214792L218.934375,88.57301670312881L219.160546875,88.93135479837656L219.38671875,88.55018909275532L219.612890625,88.67204184830189L219.8390625,88.80587547272444L220.065234375,88.76523151248693L220.29140625,88.6831457465887L220.517578125,88.77038783580065L220.74375,88.53811591118574L220.969921875,88.95293618738651L221.19609375,89.19405034929514L221.422265625,89.22737523168325L221.6484375,88.79282641410828L221.874609375,88.89390221983194L222.10078125,88.85035040974617L222.32695312500002,88.68481396883726L222.553125,88.76796133071184L222.779296875,89.31796035915613L223.00546875,89.1951383203268L223.231640625,88.991430580616L223.45781250000002,88.99731881171465L223.68398437500002,88.91481104493141L223.91015625,89.15727692842484L224.136328125,89.17329977452755L224.3625,88.76998561620712L224.58867187500002,89.01172618567944L224.81484375000002,89.23234692960978L225.041015625,88.74790969491005L225.26718749999998,89.1897973716259L225.49335937499998,88.88407091796398L225.71953125,89.01797707378864L225.945703125,89.31397772580385L226.171875,89.36553436517715L226.39804687499998,89.1750603094697L226.62421874999998,89.39453373849392L226.850390625,89.34349141269922L227.0765625,88.97772214561701L227.302734375,89.02940406650305L227.52890625,88.04068236798048L227.75507812499998,88.87557155638933L227.98125,89.52426604181528L228.207421875,89.16628400981426L228.43359375,89.17129527032375L228.659765625,89.55391160398722L228.8859375,89.42117913812399L229.112109375,89.14911384880543L229.564453125,89.12873911857605L229.790625,89.6299706697464L230.016796875,89.30760155618191L230.24296875000002,89.22610922902822L230.6953125,89.610057502985L230.921484375,89.34852904826403L231.14765625,89.54007129371166L231.37382812500002,89.43075328320265L231.60000000000002,89.12699836492538L231.826171875,89.16371244192123L232.05234375,89.59782607108355L232.278515625,89.13894626498222L232.50468750000002,89.28054074943066L232.95703125,89.37483157217503L233.18320312499998,89.62295490503311L233.40937499999998,89.45285557955503L233.635546875,89.55420832335949L233.86171875,89.33339636027813L234.087890625,89.54106695204973L234.31406249999998,89.49761404842138L234.54023437499998,89.33017860352993L234.76640625,89.23954731971025L234.992578125,89.38234846293926L235.444921875,89.28577619791031L235.67109374999998,89.55308078974485L235.897265625,89.48629255592823L236.1234375,89.65755897760391L236.349609375,89.35675806552172L236.801953125,89.20160680264235L237.028125,89.53809975832701L237.254296875,89.50214396417141L237.706640625,89.59178618341684L237.9328125,89.37824054807425L238.158984375,89.69207073748112L238.38515625,89.38730697333813L238.611328125,88.94629626721144L238.8375,89.77739404141903L239.063671875,89.39750752598047L239.28984375000002,89.74097009003162L239.516015625,89.4695905521512L239.7421875,89.74572419375181L239.968359375,89.40609260648489L240.19453125,89.22098587453365L240.42070312500002,89.61235213279724L240.64687500000002,89.50277696549892L240.873046875,89.51073563843966L241.09921875,89.6391360014677L241.325390625,89.72259986400604L241.55156250000002,89.47408090531826L241.77773437500002,89.523547321558L242.00390625,90.09386173635721L242.23007812499998,89.9918891787529L242.45624999999998,89.55753817409277L242.682421875,89.47612497210503L242.90859375,89.89057599753141L243.134765625,89.58893767744303L243.36093749999998,89.85905121266842L243.58710937499998,89.51481058448553L243.81328125,89.50282971560955L244.039453125,89.68365709483624L244.265625,90.03635092824697L244.491796875,89.80001724511385L244.71796874999998,89.91369373351336L244.944140625,90.06873949617147L245.1703125,89.49922292679548L245.396484375,90.00716033577919L245.62265625,89.54882781207561L245.848828125,90.15035051107407L246.075,89.7957840487361L246.301171875,89.78655937314034L246.52734375,89.9264592602849L246.753515625,89.95781260728836L246.9796875,89.5881398320198L247.20585937500002,89.76179319620132L247.43203125,89.82248879224062L247.884375,89.78406693041325L248.110546875,89.55999764800072L248.56289062500002,89.69067945331335L248.7890625,89.78171295672655L249.015234375,89.82571973651648L249.24140625,89.56743541359901L249.46757812500002,89.93331677466631L249.69375000000002,89.96403052657843L249.919921875,89.62811122834682L250.37226562499998,89.60902228206396L250.5984375,89.6366171836853L250.824609375,89.79104972630739L251.05078125,89.66504289954901L251.27695312499998,89.9594082981348L251.50312499999998,89.93885553628206L251.729296875,89.72004148364067L251.95546875,89.72637149691582L252.4078125,89.96494705975056L252.63398437499998,89.61620948463678L252.86015625,89.72459777444601L253.086328125,89.67585007846355L253.3125,89.92639332264662L253.538671875,89.44796960055828L253.76484375,89.47392265498638L253.991015625,89.2765185534954L254.2171875,89.9315430521965L254.443359375,89.73451479524374L254.66953125,89.96245461702347L254.895703125,90.0020567625761L255.121875,89.82523839175701L255.348046875,89.9434579834342L255.57421875,89.46157253533602L255.800390625,89.66456155478954L256.0265625,89.76532085984945L256.252734375,89.92653838545084L256.47890624999997,89.61160044372082L256.705078125,89.75011564046144L256.93125,89.69297408312559L257.157421875,89.28797851502895L257.38359375,89.35372493416071L257.609765625,89.73764023929834L257.8359375,89.30398817360401L258.062109375,89.44640028476715" style="fill: none;" fill="none"></path></g><g><path stroke="rgb(51, 187, 238)" stroke-width="2px" d="M22.6171875,-29.53769874572754L24.87890625,19.247001439332962L27.140625,36.37046541273594L29.40234375,11.286930620670319L31.6640625,29.951950639486313L33.92578125,43.24528183043003L36.1875,36.63243564963341L38.44921875,7.263785183429718L40.7109375,43.968947410583496L42.97265625,42.052852392196655L45.234375,36.66587921977043L47.49609375,26.633309304714203L49.7578125,31.97789776325226L52.01953125,14.825777292251587L54.28125,15.548058182001114L56.54296875,26.51989656686783L58.8046875,20.710236757993698L61.06640625,39.26279354095459L63.328125,33.88048875331879L65.58984375,26.967349380254745L67.8515625,10.222618013620377L70.11328125,28.839543119072914L72.375,8.765554457902908L74.63671875,17.105676636099815L76.8984375,19.63702256977558L79.16015625,5.15060256421566L81.421875,-23.603073924779892L83.68359375,17.168528392910957L85.9453125,1.765970841050148L88.20703125,10.932067438960075L90.46875,17.674626141786575L92.73046875,15.63121873140335L94.9921875,24.0768411308527L97.25390625,6.068164363503456L99.515625,-6.643741920590401L101.77734375,19.235581040382385L104.0390625,13.855452194809914L106.30078125,21.92116829752922L108.5625,29.80484376847744L110.82421875,26.181807920336723L113.0859375,22.189349859952927L115.34765625,23.018673911690712L117.609375,15.086652964353561L119.87109375,29.180018708109856L122.1328125,26.71600829064846L124.39453125,20.928332090377808L126.65625,29.805437207221985L128.91796875,30.205151170492172L131.1796875,29.151164397597313L133.44140625,21.449753746390343L135.703125,3.30260793864727L136.15546875,13.382745265960693L136.6078125,34.748623698949814L137.06015625,19.772445291280746L137.51250000000002,15.614180445671082L137.96484375,36.88799674808979L138.4171875,23.228184163570404L138.86953125000002,11.509707525372505L139.321875,13.581969246268272L139.77421875000002,9.508750766515732L140.2265625,22.446348398923874L140.67890624999998,27.914424866437912L141.13125,24.50601603090763L141.58359374999998,32.838687255978584L142.0359375,8.341258943080902L142.48828125,21.60729195177555L142.94062499999998,11.401754423975945L143.39296875,21.761282712221146L143.8453125,2.9494459480047226L144.29765625,24.888823583722115L144.75,29.47336207330227L145.20234375,13.275649353861809L145.6546875,17.860332906246185L146.10703125,16.11862975358963L146.55937500000002,18.558454245328903L147.01171875,34.583740040659904L147.4640625,12.674416780471802L147.91640625000002,6.903607428073883L148.36874999999998,25.989784330129623L148.82109375,20.148039266467094L149.2734375,18.625526010990143L149.72578124999998,24.511172354221344L150.178125,22.071453362703323L150.63046875,22.67862032353878L151.0828125,11.032872900366783L151.53515625,17.330286607146263L151.9875,18.850004106760025L152.43984375,12.070348888635635L152.8921875,28.33258818089962L153.34453125,10.263248786330223L153.796875,23.200437605381012L154.24921875,-6.96198333799839L154.7015625,37.63112711906433L155.15390625,22.784384295344353L155.60625000000002,21.830108419060707L156.05859375,23.574950203299522L156.5109375,4.967717930674553L156.96328125000002,17.484488368034363L157.41562499999998,19.205078288912773L157.86796875,32.87861908972263L158.3203125,19.029420420527458L158.77265624999998,25.409388050436974L159.225,24.66798524558544L159.67734375,26.238567039370537L160.1296875,33.50236277282238L160.58203125,31.766369819641113L161.034375,20.958702966570854L161.48671875,40.67463706433773L161.9390625,22.948845952749252L162.39140625000002,25.050977423787117L162.84375,26.66651549935341L163.29609375,16.23661856353283L163.74843750000002,29.633748784661293L164.20078125,10.887876033782959L164.65312500000002,20.701071426272392L165.10546875,23.2151021361351L165.55781249999998,34.88411235809326L166.01015625,29.119527518749237L166.46249999999998,19.06207273900509L166.91484375,21.089127615094185L167.3671875,27.103510603308678L167.81953124999998,16.812161833047867L168.271875,39.540087684988976L168.72421875,8.227595642209053L169.1765625,22.883290752768517L169.62890625,36.48943009972572L170.08125,28.87814301252365L170.53359375,20.471674382686615L170.9859375,23.84844633936882L171.43828125000002,20.43873193860054L171.890625,34.58042997121811L172.34296875,17.252572506666183L172.79531250000002,23.266652181744576L173.24765625,36.77769626677036L173.70000000000002,32.1336952149868L174.15234375,31.360418155789375L174.60468749999998,18.6963562220335L175.05703125,36.29393818974495L175.50937499999998,11.940768241882324L175.96171875,25.367781400680542L176.4140625,33.05291864275932L176.86640624999998,36.840205147862434L177.31875,27.267022758722305L177.77109375,20.903117537498474L178.2234375,36.67707543075085L178.67578125,26.346335515379906L179.128125,28.687108486890793L179.58046875,31.290062695741653L180.0328125,22.444805458188057L180.48515625000002,12.456756636500359L180.9375,23.95295749604702L181.38984375,41.31444315612316L181.84218750000002,35.67043188214302L182.29453124999998,24.435726508498192L182.746875,21.943020030856133L183.19921875,13.420830845832825L183.65156249999998,33.74162408709526L184.10390625,13.179802402853966L184.55625,30.61275127530098L185.00859375,32.39904145896435L185.4609375,27.15744759142399L185.91328125,21.045978024601936L186.365625,23.239736437797546L186.81796875,25.504351437091827L187.2703125,25.611790224909782L187.72265625,22.66544598340988L188.175,21.043221831321716L188.62734375,19.00498393177986L189.0796875,22.88530844449997L189.53203125000002,23.28164640069008L189.984375,28.457289442420006L190.43671875,17.441035464406013L190.88906250000002,33.05591221153736L191.34140624999998,23.626276060938835L191.79375,25.063663825392723L192.24609375,30.956958934664726L192.69843749999998,-10.762984871864319L193.15078125,15.79131531715393L193.603125,18.729074478149414L194.05546875,23.735851228237152L194.5078125,29.038424223661423L194.96015625,6.624823093414307L195.4125,26.778622671961784L195.86484375,21.005479127168655L196.31718750000002,39.512182876467705L196.76953125,4.236126646399498L197.221875,16.443900123238564L197.67421875000002,26.476733788847923L198.1265625,24.480128914117813L198.57890625000002,12.768720790743828L199.03125,14.767936795949936L199.48359374999998,2.7241634130477905L199.9359375,23.964509770274162L200.38828124999998,20.408506125211716L200.840625,2.725363478064537L201.29296875,23.66277913749218L201.74531249999998,25.65383206307888L202.19765625,39.46472096443176L202.65,26.79559502005577L203.10234375,28.970284268260002L203.5546875,23.780886635184288L204.00703125,39.46764859557152L204.459375,22.939350932836533L204.91171875,20.64775425195694L205.36406250000002,23.632975324988365L205.81640625,-9.9376170784235L206.26875,20.013618797063828L206.72109375000002,32.6434722840786L207.1734375,13.49580194056034L207.62578125000002,35.265126407146454L208.078125,23.552940219640732L208.53046874999998,16.635224774479866L208.9828125,19.731827706098557L209.43515624999998,16.457140401005745L209.8875,19.59519173204899L210.33984375,27.8198439180851L210.79218749999998,19.881400644779205L211.24453125,2.4717013835906982L211.696875,25.222402095794678L212.14921875,31.451596722006798L212.6015625,28.42587675154209L213.05390625,27.66922916471958L213.50625,36.63109052181244L213.95859375,18.73437586426735L214.41093750000002,21.252521082758904L214.86328125,14.62440374493599L215.315625,25.787659093737602L215.76796875000002,29.868460401892662L216.22031249999998,17.51838031411171L216.67265625,13.653155520558357L217.125,27.881864860653877L217.57734374999998,27.287239238619804L218.0296875,35.336141243577L218.48203125,25.420109510421753L218.934375,35.63788506388664L219.38671875,39.998749896883965L219.8390625,28.719826743006706L220.29140625,32.32546824216843L220.74375,33.494990944862366L221.19609375,24.29876084625721L221.6484375,27.59837257862091L222.10078125,26.93130786716938L222.553125,19.69728957116604L223.00546875,22.4553554803133L223.45781250000002,26.04045081138611L223.91015625,34.60110801458359L224.3625,34.12543389201164L224.81484375000002,12.725808575749397L225.26718749999998,19.635440066456795L225.71953125,28.050533339381218L226.171875,39.935357451438904L226.62421874999998,25.958648577332497L227.0765625,32.92597550153732L227.52890625,16.379465863108635L227.98125,33.857674330472946L228.43359375,11.772099763154984L228.8859375,28.135883018374443L229.33828125,26.720703050494194L229.790625,30.271787747740746L230.24296875000002,35.59713560342789L230.6953125,23.815767645835876L231.14765625,35.71082527935505L231.60000000000002,38.67528918385506L232.05234375,8.475507974624634L232.50468750000002,27.380765184760094L232.95703125,41.03667426109314L233.40937499999998,41.53185273706913L233.86171875,36.76698799431324L234.31406249999998,33.03260985016823L234.76640625,35.8976134210825L235.21875,32.59589168429375L235.67109374999998,32.94482047855854L236.1234375,28.76463796198368L236.57578125,25.405510917305946L237.028125,36.39949116110802L237.48046875,25.668180093169212L237.9328125,37.002332612872124L238.38515625,36.97043198347092L238.8375,21.52927453815937L239.28984375000002,30.465261965990067L239.7421875,22.608897864818573L240.19453125,41.50469961762428L240.64687500000002,45.864568792283535L241.09921875,27.86673876643181L241.55156250000002,27.89846795797348L242.00390625,42.67358931899071L242.45624999999998,32.7264613956213L242.90859375,29.22597724199295L243.36093749999998,27.015615731477737L243.81328125,35.54660099744797L244.265625,26.678015023469925L244.71796874999998,39.83918081223965L245.1703125,30.904169261455536L245.62265625,38.837377086281776L246.075,41.90008807182312L246.52734375,16.462243974208832L246.9796875,34.06667026877403L247.43203125,40.940220683813095L247.884375,33.82010306417942L248.33671875000002,24.75064466893673L248.7890625,27.81994941830635L249.015234375,36.048030361533165L249.24140625,30.883385717868805L249.46757812500002,32.120164811611176L249.69375000000002,26.157226368784904L249.919921875,34.967826783657074L250.14609374999998,39.63040906190872L250.37226562499998,18.477482825517654L250.5984375,33.94036012887955L250.824609375,19.17737129330635L251.05078125,34.07300028204918L251.27695312499998,33.093457102775574L251.50312499999998,31.436681628227234L251.729296875,17.51298661530018L251.95546875,29.21296115219593L252.181640625,35.32454940676689L252.4078125,21.100719451904297L252.63398437499998,36.79875674843788L252.86015625,33.427655428647995L253.086328125,27.108680114150047L253.3125,39.13829009234905L253.538671875,45.36768253147602L253.76484375,25.020751610398293L253.991015625,32.09563601016998L254.2171875,27.61253598332405L254.443359375,30.80902124941349L254.66953125,27.37086135149002L254.895703125,28.045838579535484L255.121875,36.50718051195145L255.348046875,36.34551461040974L255.57421875,22.634046480059624L255.800390625,38.23783251643181L256.0265625,34.93798340857029L256.252734375,42.58167225122452L256.47890624999997,41.64117734134197L256.705078125,37.31794971227646L256.93125,23.70339672267437L257.157421875,35.2929784655571L257.38359375,10.235528603196144L257.609765625,38.04231423139572L257.8359375,34.59647919237614" style="fill: none;" fill="none"></path></g><g><path stroke="rgb(187, 187, 187)" stroke-width="2px" d="M24.87890625,-11.495749846100807L27.140625,37.462550953030586L29.40234375,24.908235624432564L31.6640625,34.812517270445824L33.92578125,42.29186314344406L36.1875,37.9850407987833L38.44921875,39.75638951361179L40.7109375,55.343651577830315L42.97265625,52.513951018452644L45.234375,48.93673523515463L47.49609375,57.11792133003473L49.7578125,52.64489657431841L52.01953125,11.887279629707336L54.28125,31.6124449968338L56.54296875,33.67198075354099L58.8046875,46.20859842002392L61.06640625,38.085213258862495L63.328125,39.01617358624935L65.58984375,45.164614386856556L67.8515625,34.65871113538742L70.11328125,46.84730335325003L72.375,31.250117674469948L74.63671875,25.593987062573433L76.8984375,41.88009577989578L79.16015625,27.23500344157219L81.421875,-0.3414488285779953L83.68359375,17.85418751835823L85.9453125,-4.342465594410896L88.20703125,36.95916983485222L90.46875,31.70697319507599L92.73046875,48.68912621587515L94.9921875,35.7894888818264L97.25390625,44.914104111492634L99.515625,42.31151255965233L101.77734375,33.2810101211071L104.0390625,17.318642020225525L106.30078125,36.95012319087982L108.5625,40.4873873591423L110.82421875,37.61910009384155L113.0859375,42.52114149928093L115.34765625,39.51606000959873L117.609375,21.028056174516678L119.87109375,24.8587164580822L122.1328125,48.577513575553894L124.39453125,53.179525539278984L126.65625,48.38393385708332L128.91796875,30.210188806056976L131.1796875,32.71248261630535L133.44140625,38.628407523036L135.703125,29.6713859885931L136.15546875,27.40214216709137L136.6078125,35.596146538853645L137.06015625,33.588978454470634L137.51250000000002,41.34522284567356L137.96484375,30.60818839073181L138.4171875,35.22191087901592L138.86953125000002,26.971068263053894L139.321875,36.89895558357239L139.77421875000002,19.57918207347393L140.2265625,47.58593677729368L140.67890624999998,48.27790613472462L141.13125,40.18879535794258L141.58359374999998,36.43078516423702L142.0359375,33.54279573261738L142.48828125,39.797653287649155L142.94062499999998,44.347633861005306L143.39296875,29.173807382583618L143.8453125,18.89534282684326L144.29765625,47.26321819424629L144.75,42.546158239245415L145.20234375,42.16568487882614L145.6546875,44.51886731386185L146.10703125,41.94637629389763L146.55937500000002,29.515113785862923L147.01171875,51.08000519871712L147.4640625,22.139883443713188L147.91640625000002,42.4638416916132L148.36874999999998,39.61093108355999L148.82109375,31.143166825175285L149.2734375,39.8514584004879L149.72578124999998,32.99768927693367L150.178125,42.2608592659235L150.63046875,47.772929325699806L151.0828125,34.52029484510422L151.53515625,39.39742501080036L151.9875,34.182232573628426L152.43984375,35.96402581036091L152.8921875,49.59129157662392L153.34453125,34.59393399953842L153.796875,40.4181792140007L154.24921875,16.41110274195671L154.7015625,35.560658901929855L155.15390625,36.66932116448879L155.60625000000002,46.91059689223766L156.05859375,42.17714484035969L156.5109375,33.630703791975975L156.96328125000002,31.245752602815628L157.41562499999998,33.24663023650646L157.86796875,35.761874198913574L158.3203125,35.808043733239174L158.77265624999998,43.582948476076126L159.225,43.0642566382885L159.67734375,34.39812558889389L160.1296875,43.30037932097912L160.58203125,42.31972838938236L161.034375,35.22847826778889L161.48671875,49.07518449425697L161.9390625,42.79302875697613L162.39140625000002,48.294456481933594L162.84375,39.723658069968224L163.29609375,43.00613920390606L163.74843750000002,41.08562636375427L164.20078125,29.53158500790596L164.65312500000002,36.77950295805931L165.10546875,40.314155995845795L165.55781249999998,36.01044590771198L166.01015625,41.548864647746086L166.46249999999998,34.76272116601467L166.91484375,45.744516134262085L167.3671875,31.58101911842823L167.81953124999998,37.840663745999336L168.271875,44.78468830883503L168.72421875,31.091827780008316L169.1765625,48.17169378697872L169.62890625,40.08399407565594L170.08125,37.686277359724045L170.53359375,40.98693090677261L170.9859375,37.44763585925102L171.43828125000002,40.901713103055954L171.890625,44.541925705969334L172.34296875,47.43561214953661L172.79531250000002,49.36084612458944L173.24765625,40.5112172216177L173.70000000000002,43.724833086133L174.15234375,43.88502198457718L174.60468749999998,36.824854865670204L175.05703125,42.491298124194145L175.50937499999998,35.37731270492077L175.96171875,37.98262748122215L176.4140625,44.52502588927746L176.86640624999998,42.42674517631531L177.31875,47.32270713150501L177.77109375,36.2014013081789L178.2234375,38.33698953688145L178.67578125,28.477268546819687L179.128125,47.91058733314276L179.58046875,38.595174953341484L180.0328125,38.54491728544235L180.48515625000002,33.47234795987606L180.9375,55.437322586774826L181.38984375,53.109921768307686L181.84218750000002,48.41866980493069L182.29453124999998,47.22926690429449L182.746875,42.64452400803566L183.19921875,31.174566328525543L183.65156249999998,33.01132518053055L184.10390625,35.04110987484455L184.55625,41.69333401322365L185.00859375,42.77957747876644L185.4609375,37.64078038930893L185.91328125,47.36646334826946L186.365625,41.33125725388527L186.81796875,42.37130481004715L187.2703125,38.621932446956635L187.72265625,36.923431634902954L188.175,38.36451190710068L188.62734375,34.15947090089321L189.0796875,39.04415751993656L189.53203125000002,42.55391250550747L189.984375,39.89872249960899L190.43671875,24.177923530340195L190.88906250000002,43.1834587007761L191.34140624999998,42.26683321595192L191.79375,35.74685360491276L192.24609375,36.99238921701908L192.69843749999998,19.77021659910679L193.15078125,40.8497014939785L193.603125,36.05031180381775L194.05546875,42.51005078852177L194.5078125,47.04758233577013L194.96015625,34.41707606613636L195.4125,38.37978306412697L195.86484375,25.11982950568199L196.31718750000002,51.42483267188072L196.76953125,34.329695507884026L197.221875,31.163910806179047L197.67421875000002,35.67095938324928L198.1265625,36.9422370493412L198.57890625000002,27.09729927778244L199.03125,32.05238091945648L199.48359374999998,0.88176029920578L199.9359375,42.10038024187088L200.38828124999998,42.955657348036766L200.840625,25.174412682652473L201.29296875,38.593104511499405L201.74531249999998,48.76047733426094L202.19765625,44.56648747622967L202.65,26.808874860405922L203.10234375,46.69623363018036L203.5546875,49.421713158488274L204.00703125,45.75318693369627L204.459375,47.973076432943344L204.91171875,30.779560312628746L205.36406250000002,41.160610646009445L205.81640625,26.28369475901127L206.26875,33.02020038664341L206.72109375000002,35.85810358822346L207.1734375,31.74960847198963L207.62578125000002,41.61033171415329L208.078125,45.40957271307707L208.53046874999998,27.658811017870903L208.9828125,47.70830384641886L209.43515624999998,39.88327990472317L209.8875,29.391296088695526L210.33984375,29.15105889737606L210.79218749999998,47.60432019084692L211.24453125,44.21344417333603L211.696875,57.074580520391464L212.14921875,32.16121758520603L212.6015625,36.33207651972771L213.05390625,45.34490107744932L213.50625,38.59210225939751L213.95859375,42.92387540638447L214.41093750000002,34.04167990386486L214.86328125,34.35012298822403L215.315625,46.55340611189604L215.76796875000002,41.98749500513077L216.22031249999998,44.890742406249046L216.67265625,43.208805128932L217.125,32.99064713716507L217.57734374999998,31.846457675099373L218.0296875,55.09384683519602L218.48203125,33.86434721946716L218.934375,39.95002198219299L219.38671875,47.44494891911745L219.8390625,47.60013974457979L220.29140625,50.33709901571274L220.74375,47.24209836870432L221.19609375,44.690496392548084L221.6484375,42.555270820856094L222.10078125,48.89220095425844L222.553125,44.79269973188639L223.00546875,38.56345894932747L223.45781250000002,44.38836354017258L223.91015625,45.4499199539423L224.3625,49.240562684834L224.81484375000002,41.14857043325901L225.26718749999998,42.255557879805565L225.71953125,47.03149355202913L226.171875,45.31129925698042L226.62421874999998,51.31529047340155L227.0765625,33.43162487447262L227.52890625,38.67000098526478L227.98125,27.519062787294388L228.43359375,28.64734809100628L228.8859375,46.55952512472868L229.33828125,48.22085029631853L229.790625,41.3678262680769L230.24296875000002,52.90577224642038L230.6953125,37.17772673070431L231.14765625,51.38614705950022L231.60000000000002,49.8898506090045L232.05234375,25.712648436427116L232.50468750000002,49.35828774422407L232.95703125,49.47364564239979L233.40937499999998,42.744577780365944L233.86171875,39.691612377762794L234.31406249999998,47.16597995907068L234.76640625,56.850207924842834L235.21875,46.79135526716709L235.67109374999998,45.89376597851515L236.1234375,29.406329870224L236.57578125,48.559631288051605L237.028125,48.83587042987347L237.48046875,46.83193988353014L237.9328125,38.98481364548206L238.38515625,52.65198487043381L238.8375,45.10796736180782L239.28984375000002,49.388480588793755L239.7421875,45.16563642024994L240.19453125,55.79179014265537L240.64687500000002,50.750369757413864L241.09921875,48.72334785014391L241.55156250000002,48.655524395406246L242.00390625,64.54447093605995L242.45624999999998,43.33370420336723L242.90859375,40.2800662368536L243.36093749999998,49.739453449845314L243.81328125,51.0515531077981L244.265625,49.51215981692076L244.71796874999998,48.275736786425114L245.1703125,44.18828237056732L245.62265625,54.90412446856499L246.075,58.04087682813406L246.52734375,42.8006247729063L246.9796875,46.84454715996981L247.43203125,52.95636619627476L247.884375,48.95051620155573L248.33671875000002,44.58814139664173L248.7890625,42.262257143855095L249.015234375,46.51252477616072L249.24140625,41.98526631295681L249.46757812500002,57.4735823571682L249.69375000000002,45.34755177050829L249.919921875,46.386854231357574L250.14609374999998,53.72681453078985L250.37226562499998,48.567444898188114L250.5984375,38.74104219675064L250.824609375,32.613088220357895L251.05078125,51.34334693849087L251.27695312499998,48.87370544672012L251.50312499999998,45.76045326143503L251.729296875,43.74259668588638L251.95546875,50.96427145600319L252.181640625,49.50109548121691L252.4078125,58.69439794868231L252.63398437499998,38.91671325266361L252.86015625,44.82405307888985L253.086328125,24.46899864077568L253.3125,43.457653775811195L253.538671875,49.673219092190266L253.76484375,47.95470620691776L253.991015625,53.565939880907536L254.2171875,44.0057669878006L254.443359375,41.82679179310799L254.66953125,57.08944945782423L254.895703125,47.242493994534016L255.121875,38.98838746547699L255.348046875,56.519524075090885L255.57421875,36.33202376961708L255.800390625,50.4043158441782L256.0265625,26.87040786445141L256.252734375,43.15165038406849L256.47890624999997,51.089968375861645L256.705078125,40.97378294169903L256.93125,43.160894840955734L257.157421875,50.30176962912083L257.38359375,44.37789264321327L257.609765625,56.14526204019785L257.8359375,58.07645018398762" style="fill: none;" fill="none"></path></g><g><path stroke="rgb(204, 51, 17)" stroke-width="2px" d="M24.87890625,-15.132553473114967L25.33125,32.51778195798397L25.78359375,-2.815969705581665L26.2359375,33.514482110738754L26.68828125,38.91621212661266L27.140625,37.59437347948551L27.59296875,38.643823742866516L28.0453125,33.68681672215462L28.49765625,15.93066792190075L28.950000000000003,32.898861944675446L29.40234375,24.19680806994438L29.8546875,34.06959789991379L30.307031249999998,15.807641476392746L30.759375,9.626634076237679L31.211718750000003,23.583891347050667L31.6640625,31.64943601191044L32.11640625,41.77824850380421L32.56875,42.30415391921997L33.02109375,39.964673325419426L33.4734375,37.916004091501236L33.92578125,38.24210527539253L34.378125000000004,24.689784228801727L34.83046875,16.064283952116966L35.2828125,27.568305015563965L35.735156249999996,25.004319950938225L36.1875,33.01433193683624L36.639843750000004,24.108478009700775L37.092187499999994,33.884471386671066L37.54453125,39.878044456243515L37.996875,32.51854683458805L38.44921875,36.276266902685165L38.901562500000004,35.352098152041435L39.353906249999994,42.38662871718407L39.80625,32.08116929233074L40.25859375,35.54155017435551L40.7109375,50.506169714033604L41.163281250000004,42.70538444817066L41.615624999999994,45.02043514698744L42.06796875,45.307283654809L42.5203125,23.7681342959404L42.97265625,46.7933861464262L43.425000000000004,44.9728347659111L43.877343749999994,41.85281078517437L44.3296875,35.10500344634056L44.78203125,46.35853401571512L45.234375,43.120119005441666L45.68671875,35.50393934547901L46.1390625,39.44371323287487L46.59140625,48.65869599580765L47.04375,32.1930390894413L47.49609375,51.98405637592077L47.9484375,42.1910444945097L48.40078125,40.287398502230644L48.853125,37.63981769979L49.30546875,39.878426894545555L49.7578125,46.587185963988304L50.21015625,32.86262261867523L50.6625,52.09443598240614L51.11484375,48.60431722551584L51.5671875,39.800528168678284L52.01953125,6.940005004405975L52.471875,29.595162078738213L52.92421875,41.79772648215294L53.3765625,38.997091233730316L53.82890625,27.385776445269585L54.28125,25.72078514099121L54.73359375,31.70138168334961L55.1859375,48.69796185940504L55.63828125,32.4972226023674L56.090625,44.576984748244286L56.54296875,28.968701764941216L56.9953125,39.95450574159622L57.44765625,37.772523790597916L57.900000000000006,30.506987303495407L58.352343749999996,32.08970162272453L58.8046875,40.7957908809185L59.25703125,30.904789075255394L59.709375,24.866549849510193L60.161718750000006,42.16667394340038L60.614062499999996,26.545941933989525L61.06640625,31.198092877864838L61.51875,16.940647915005684L61.97109375,44.29217371344566L62.423437500000006,39.970607712864876L62.875781249999996,21.378620222210884L63.328125,33.126874297857285L63.78046875,27.60519053041935L64.2328125,26.58260326087475L64.68515625,26.340625315904617L65.1375,41.97375360131264L65.58984375,38.15399940311909L66.0421875,31.510333970189095L66.49453125,32.41888868808746L66.946875,31.161233738064766L67.39921875,38.26517026126385L67.8515625,28.649115219712257L68.30390625,18.61578042805195L68.75625000000001,-1.3164027482271194L69.20859375,33.37481300532818L69.6609375,13.155471414327621L70.11328125,42.09587010741234L70.565625,34.64622254669666L71.01796875,36.16311791539192L71.47031249999999,15.022983580827713L71.92265625,25.680629119277L72.375,26.641643822193146L72.82734375,34.21119238436222L73.27968750000001,27.802700132131577L73.73203125,39.42714969813824L74.18437499999999,30.039542198181152L74.63671875,20.23407469689846L75.0890625,42.977601394057274L75.54140625,23.912906974554062L75.99375,28.38499541580677L76.44609375,31.63921567797661L76.8984375,31.019942566752434L77.35078125,33.85160806775093L77.80312500000001,36.464004546403885L78.25546875,30.642660588026047L78.70781249999999,28.34936271607876L79.16015625,23.119729936122894L79.6125,31.820346370339394L80.06484375,36.41325893998146L80.5171875,30.796862348914146L80.96953125,35.427596747875214L81.421875,-3.3348857313394547L81.87421875000001,23.110089853405952L82.32656250000001,34.28397434949875L82.77890624999999,30.545244321227074L83.23124999999999,24.907206997275352L83.68359375,12.149869680404663L84.1359375,26.770169466733932L84.58828125,24.732551380991936L85.040625,35.339662313461304L85.49296875,26.110977709293365L85.9453125,-6.230893179774284L86.39765625000001,20.015570551156998L86.85000000000001,12.614373967051506L87.30234374999999,22.474780708551407L87.75468749999999,11.476409018039703L88.20703125,30.764144092798233L88.659375,13.253876745700836L89.11171875,32.051378667354584L89.5640625,30.784611135721207L90.01640625,23.671364217996597L90.46875,23.827715545892715L90.92109375000001,24.987136602401733L91.3734375,-26.811718091368675L91.82578124999999,10.398368194699287L92.278125,18.87073490023613L92.73046875,42.23961415886879L93.1828125,21.575299009680748L93.63515625,30.643939778208733L94.0875,24.979580149054527L94.53984375,25.89627157151699L94.9921875,33.87657205760479L95.44453125000001,36.73978212475777L95.896875,30.066141441464424L96.34921874999999,20.766402438282967L96.8015625,16.59103336930275L97.25390625,41.184915259480476L97.70625,26.691439926624298L98.15859375000001,17.46458838880062L98.6109375,36.613498359918594L99.06328125,33.75813487172127L99.515625,34.42931409180164L99.96796875,28.96653901040554L100.4203125,34.47272743284702L100.87265624999999,15.057970091700554L101.325,38.31723462045193L101.77734375,27.390101954340935L102.2296875,31.185657039284706L102.68203125000001,23.85345759987831L103.134375,35.76978671550751L103.58671875,40.09128677845001L104.0390625,10.081616967916489L104.49140625,27.92009550333023L104.94375,30.190209701657295L105.39609374999999,27.327579885721207L105.8484375,27.46213223040104L106.30078125,30.715627178549767L106.753125,22.924712777137756L107.20546875000001,31.301311656832695L107.6578125,27.562515690922737L108.11015624999999,41.316539973020554L108.5625,34.268597692251205L109.01484375,35.74130165576935L109.4671875,28.66207855939865L109.91953125,28.471531972289085L110.371875,31.902491480112076L110.82421875,30.30028599500656L111.2765625,36.37312929332256L111.72890625000001,21.141851350665092L112.18125,34.787170842289925L112.63359374999999,26.07869464159012L113.0859375,35.77361109852791L113.53828125,30.563733235001564L113.990625,33.25091618299484L114.44296875,31.803796023130417L114.8953125,27.527647867798805L115.34765625,31.110580444335938L115.80000000000001,20.67849437892437L116.25234375000001,30.651667669415474L116.70468749999999,33.35187989473343L117.15703124999999,35.02262096107006L117.609375,13.751270726323128L118.06171875,16.998936787247658L118.5140625,28.042647197842598L118.96640625,15.60377548635006L119.41875,41.534938618540764L119.87109375,17.787023440003395L120.32343750000001,29.87103196978569L120.77578125000001,38.082799941301346L121.22812499999999,22.772317707538605L121.68046874999999,32.198722913861275L122.1328125,43.525793731212616L122.58515625,39.18936538696289L123.0375,12.532255232334137L123.48984375,35.72095330059528L123.9421875,21.85399103164673L124.39453125,46.05764738470316L124.84687500000001,18.640375167131424L125.29921875,35.48266786336899L125.75156249999999,34.900517642498016L126.20390625,37.503933414816856L126.65625,43.53399637341499L127.10859375,35.914612144231796L127.5609375,20.08328850567341L128.01328125,18.077650174498558L128.465625,42.09784823656082L128.91796875,24.412397772073746L129.3703125,37.476147294044495L129.82265625,26.412906154990196L130.275,28.822583958506584L130.72734375000002,25.714613378047943L131.1796875,26.840063363313675L131.63203124999998,15.815303429961205L132.084375,40.426474168896675L132.53671875,29.474667638540268L132.9890625,25.89733976125717L133.44140625,32.18680138885975L133.89375,32.84328970313072L134.34609375,30.876950204372406L134.7984375,27.82860043644905L135.25078125000002,33.92835947871208L135.703125,22.905762299895287L135.929296875,36.3393032848835L136.15546875,20.28307954967022L136.381640625,24.36786349117756L136.6078125,29.497191935777664L136.833984375,17.394140616059303L137.06015625,26.90815056860447L137.286328125,32.47832487523556L137.51250000000002,34.08995944261551L137.738671875,28.597947612404823L137.96484375,22.023938700556755L138.191015625,18.024873688817024L138.4171875,28.13080582022667L138.64335937500002,37.66960832476616L138.86953125000002,20.925575897097588L139.095703125,34.76636092364788L139.321875,28.89411310851574L139.548046875,25.83169224858284L139.77421875000002,12.080991223454475L140.00039062500002,15.414059713482857L140.2265625,42.941731318831444L140.45273437499998,35.22284719347954L140.67890624999998,41.897582441568375L140.905078125,18.14317899942398L141.13125,33.31781651079655L141.357421875,38.58677449822426L141.58359374999998,31.573185727000237L141.80976562499998,24.396256238222122L142.0359375,28.375025644898415L142.262109375,29.814365163445473L142.48828125,34.7249520868063L142.714453125,26.05097445845604L142.94062499999998,38.55503211915493L143.166796875,16.79587523639202L143.39296875,22.704863503575325L143.619140625,23.818906277418137L143.8453125,13.748567283153534L144.071484375,26.252651318907738L144.29765625,41.106251657009125L144.523828125,35.623787596821785L144.75,37.290822967886925L144.976171875,30.483711317181587L145.20234375,35.75889381766319L145.42851562500002,37.80578273534775L145.6546875,39.02548398077488L145.880859375,19.44147790968418L146.10703125,35.02308252453804L146.333203125,29.0033717751503L146.55937500000002,21.42335231602192L146.78554687500002,24.779881417751312L147.01171875,45.42626812309027L147.237890625,29.44821345806122L147.4640625,18.742473006248474L147.69023437500002,32.70648229122162L147.91640625000002,37.30064767599106L148.142578125,33.288421511650085L148.36874999999998,31.492082431912422L148.59492187499998,45.673230953514576L148.82109375,27.30153451859951L149.047265625,19.523425206542015L149.2734375,34.50654025375843L149.49960937499998,30.492296397686005L149.72578124999998,26.631159737706184L149.951953125,25.330909073352814L150.178125,34.612066850066185L150.404296875,36.35502281785011L150.63046875,40.473065704107285L150.85664062499998,35.357228100299835L151.0828125,31.356541022658348L151.308984375,27.049534052610397L151.53515625,33.09707048535347L151.761328125,36.1985791772604L151.9875,25.410179302096367L152.213671875,36.43780092895031L152.43984375,29.794636622071266L152.666015625,29.451866403222084L152.8921875,41.98844450712204L153.118359375,37.35465060174465L153.34453125,26.839285299181938L153.570703125,22.006953164935112L153.796875,33.5538073182106L154.023046875,32.1190043091774L154.24921875,9.012530475854874L154.47539062500002,15.001659348607063L154.7015625,31.089124336838722L154.927734375,35.533598095178604L155.15390625,30.77789868414402L155.380078125,23.703343972563744L155.60625000000002,40.61575475335121L155.83242187500002,29.72223709523678L156.05859375,33.8972105383873L156.284765625,29.83367170393467L156.5109375,26.190999627113342L156.73710937500002,32.51816439628601L156.96328125000002,24.690100729465485L157.189453125,36.520051538944244L157.41562499999998,28.948155596852303L157.64179687499998,36.94916050136089L157.86796875,29.336792036890984L158.094140625,28.895919799804688L158.3203125,29.834845393896103L158.54648437499998,27.004590958356857L158.77265624999998,36.37240397930145L158.998828125,45.36409552395344L159.225,36.10444660484791L159.451171875,21.272381499409676L159.67734375,30.296435236930847L159.90351562499998,33.00822611153126L160.1296875,36.89836214482784L160.355859375,33.42048141360283L160.58203125,36.99358928203583L160.808203125,22.431921243667603L161.034375,29.24174952507019L161.260546875,34.69882759451866L161.48671875,43.123033449053764L161.712890625,6.737444579601288L161.9390625,38.14334388077259L162.165234375,36.25602404773235L162.39140625000002,41.6406234651804L162.617578125,38.68587876856327L162.84375,33.50986647605896L163.069921875,31.43894988298416L163.29609375,36.2091423869133L163.52226562500002,33.06705567240715L163.74843750000002,35.397041246294975L163.974609375,42.92900535464287L164.20078125,25.87005476653576L164.426953125,31.032760843634605L164.65312500000002,32.716452062129974L164.87929687500002,28.3619172424078L165.10546875,33.82515388727188L165.33164062499998,39.01117551326752L165.55781249999998,30.704299092292786L165.783984375,25.217430397868156L166.01015625,34.98871582746506L166.236328125,29.226873993873596L166.46249999999998,28.58104120194912L166.68867187499998,24.23627834022045L166.91484375,39.22809715569019L167.141015625,36.88505592942238L167.3671875,26.077863827347755L167.593359375,28.203746035695076L167.81953124999998,31.893603086471558L168.045703125,26.079670518636703L168.271875,39.53704136610031L168.498046875,39.079631969332695L168.72421875,24.73923745751381L168.950390625,31.233738765120506L169.1765625,41.647902980446815L169.402734375,44.035372987389565L169.62890625,33.23683190345764L169.855078125,36.702158108353615L170.08125,31.449539467692375L170.307421875,32.344880282878876L170.53359375,35.779519110918045L170.759765625,38.515654161572456L170.9859375,32.7752420604229L171.212109375,28.776374861598015L171.43828125000002,34.87823072075844L171.664453125,39.152097433805466L171.890625,37.71765048801899L172.116796875,28.58639533817768L172.34296875,41.35701249539852L172.56914062500002,33.40726751089096L172.79531250000002,40.89025314152241L173.021484375,26.19659113883972L173.24765625,34.11752137541771L173.473828125,43.87865240871906L173.70000000000002,38.59588707983494L173.92617187500002,27.414643943309784L174.15234375,37.34385001659393L174.37851562499998,36.552862107753754L174.60468749999998,32.76548328995705L174.830859375,22.945957884192467L175.05703125,34.49447366595268L175.283203125,40.90665842592716L175.50937499999998,28.173427909612656L175.73554687499998,29.240008771419525L175.96171875,32.89956088364124L176.187890625,42.50472302734852L176.4140625,39.177483424544334L176.640234375,27.27175708115101L176.86640624999998,37.107911959290504L177.092578125,33.43637238442898L177.31875,42.34872776269913L177.544921875,19.996791511774063L177.77109375,31.06314490735531L177.997265625,32.32873874902725L178.2234375,32.23906356096268L178.449609375,25.604919523000717L178.67578125,19.70030951499939L178.901953125,28.999296829104424L179.128125,41.51618595421314L179.35429687500002,35.01573707163334L179.58046875,31.34654487669468L179.806640625,36.77066731452942L180.0328125,34.44422918558121L180.258984375,29.216534972190857L180.48515625000002,28.5558530241251L180.71132812500002,26.54500561952591L180.9375,47.78056490421295L181.163671875,30.90671445429325L181.38984375,46.93896326422691L181.61601562500002,31.499731197953224L181.84218750000002,41.425482138991356L182.068359375,32.03886370360851L182.29453124999998,39.85842141509056L182.52070312499998,34.994241401553154L182.746875,33.85065856575966L182.973046875,25.386481314897537L183.19921875,23.860948115587234L183.42539062499998,40.37921006977558L183.65156249999998,28.669648200273514L183.877734375,22.530748575925827L184.10390625,27.928588271141052L184.330078125,20.19927281141281L184.55625,34.9505774974823L184.78242187499998,22.767346009612083L185.00859375,35.93527700006962L185.234765625,26.56142409145832L185.4609375,31.311782553792L185.687109375,33.61468094587326L185.91328125,39.60204268991947L186.139453125,30.162753269076347L186.365625,34.87467008829117L186.591796875,31.878951743245125L186.81796875,37.427907317876816L187.044140625,14.35305717587471L187.2703125,33.199379324913025L187.496484375,26.81772369146347L187.72265625,32.45555001497269L187.948828125,23.474830493330956L188.175,31.266628459095955L188.40117187500002,24.737351641058922L188.62734375,28.646279901266098L188.853515625,38.01090154051781L189.0796875,31.365508541464806L189.305859375,27.490234851837158L189.53203125000002,36.940311670303345L189.75820312500002,30.476946115493774L189.984375,33.549508184194565L190.210546875,31.26894946396351L190.43671875,17.67958465218544L190.66289062500002,34.632705330848694L190.88906250000002,36.572036772966385L191.115234375,37.2831214517355L191.34140624999998,35.22979702055454L191.56757812499998,29.875713542103767L191.79375,29.885168999433517L192.019921875,26.106691762804985L192.24609375,30.444715797901154L192.47226562499998,39.48336812853813L192.69843749999998,15.612110003829002L192.924609375,25.404719665646553L193.15078125,34.4315427839756L193.376953125,30.430433705449104L193.603125,32.6077736467123L193.82929687499998,33.30946880578995L194.05546875,35.65959173440933L194.281640625,36.66308346390724L194.5078125,40.92828597128391L194.733984375,24.909686252474785L194.96015625,30.163109332323074L195.186328125,37.87492494285107L195.4125,33.1448093354702L195.638671875,34.13659054040909L195.86484375,19.79816097021103L196.091015625,34.923266127705574L196.31718750000002,45.78922185301781L196.543359375,9.639557853341103L196.76953125,26.554368764162064L196.995703125,29.19045004248619L197.221875,24.95097640156746L197.44804687500002,30.080568596720695L197.67421875000002,32.20455180108547L197.900390625,35.88913384079933L198.1265625,30.213248312473297L198.352734375,30.247140258550644L198.57890625000002,23.72820246219635L198.80507812500002,19.73893578350544L199.03125,25.764950171113014L199.25742187499998,26.329771980643272L199.48359374999998,0.5072081387042999L199.709765625,14.105764657258987L199.9359375,33.726141929626465L200.162109375,26.567833229899406L200.38828124999998,36.57741728425026L200.61445312499998,36.98190513253212L200.840625,21.638625517487526L201.066796875,40.23588801920414L201.29296875,30.78850145637989L201.519140625,31.175594955682755L201.74531249999998,39.631503626704216L201.971484375,34.11309036612511L202.19765625,38.349095687270164L202.423828125,29.73674337565899L202.65,21.384251296520233L202.876171875,27.816138222813606L203.10234375,40.06261709332466L203.328515625,35.47910723090172L203.5546875,41.09873476624489L203.780859375,35.81465068459511L204.00703125,39.572515815496445L204.233203125,25.06983558833599L204.459375,40.83871628344059L204.685546875,41.16599115729332L204.91171875,22.29024763405323L205.137890625,40.2351099550724L205.36406250000002,33.82231856882572L205.590234375,37.24585349857807L205.81640625,23.198063850402832L206.042578125,35.00704649090767L206.26875,28.732420831918716L206.49492187500002,36.28663229942322L206.72109375000002,28.672641769051552L206.947265625,30.604390382766724L207.1734375,28.196848958730698L207.399609375,36.5297179967165L207.62578125000002,34.99149839580059L207.85195312500002,27.982050508260727L208.078125,40.345120310783386L208.30429687499998,25.708098739385605L208.53046874999998,21.454923257231712L208.756640625,30.661888003349304L208.9828125,41.54522489011288L209.208984375,39.55537202954292L209.43515624999998,33.74591003358364L209.66132812499998,36.08012880384922L209.8875,20.90761448442936L210.113671875,37.79540415108204L210.33984375,22.134766682982445L210.566015625,26.875709250569344L210.79218749999998,40.16058723628521L211.018359375,41.82701598107815L211.24453125,34.624397188425064L211.470703125,18.2286209911108L211.696875,49.40542656183243L211.923046875,32.303234070539474L212.14921875,26.593641221523285L212.375390625,27.125270023941994L212.6015625,30.984138429164886L212.827734375,38.32707251608372L213.05390625,38.09672597050667L213.28007812500002,29.841571033000946L213.50625,32.94745798408985L213.732421875,28.89101403951645L213.95859375,34.46095097064972L214.184765625,33.14265976846218L214.41093750000002,27.516135156154633L214.63710937500002,31.030426651239395L214.86328125,24.913510635495186L215.089453125,34.17975331842899L215.315625,39.55417196452618L215.54179687500002,36.720145896077156L215.76796875000002,32.67727191746235L215.994140625,43.40748842060566L216.22031249999998,37.68441791832447L216.44648437499998,35.58793070912361L216.67265625,36.327605947852135L216.898828125,35.26922772824764L217.125,30.011690139770508L217.35117187499998,41.090743124485016L217.57734374999998,26.322940841317177L217.803515625,33.001922473311424L218.0296875,45.81507600098848L218.255859375,30.87313900887966L218.48203125,26.842621743679047L218.70820312499998,38.92101238667965L218.934375,34.49973548948765L219.160546875,38.27818635106087L219.38671875,40.75790311396122L219.612890625,43.41517674922943L219.8390625,35.62440741062164L220.065234375,31.625302836298943L220.29140625,41.816189020872116L220.517578125,36.24266508221626L220.74375,39.13099738955498L220.969921875,41.2914836704731L221.19609375,36.94875168800354L221.422265625,28.967317074537277L221.6484375,33.625995844602585L221.874609375,38.2546202391386L222.10078125,41.331046253442764L222.32695312500002,30.18838982284069L222.553125,35.66497224569321L222.779296875,33.1873654872179L223.00546875,31.155919164419174L223.231640625,37.818060323596L223.45781250000002,36.40062528848648L223.68398437500002,40.60060228407383L223.91015625,35.69368149340153L224.136328125,39.85224965214729L224.3625,42.07653719186783L224.58867187500002,20.54197709262371L224.81484375000002,32.57521364092827L225.041015625,33.59791959822178L225.26718749999998,35.272392734885216L225.49335937499998,41.527276664972305L225.71953125,40.86617271602154L225.945703125,47.716506488621235L226.171875,36.30684877932072L226.39804687499998,44.20214246213436L226.62421874999998,43.635131523013115L226.850390625,39.14790380001068L227.0765625,26.018177077174187L227.302734375,31.034686222672462L227.52890625,31.711417391896248L227.75507812499998,33.511264353990555L227.98125,20.369774356484413L228.207421875,37.03332330286503L228.43359375,21.648621663451195L228.659765625,46.18048920482397L228.8859375,41.09198275208473L229.112109375,30.877517268061638L229.33828125,40.197129875421524L229.564453125,42.93417486548424L229.790625,33.447331219911575L230.016796875,20.504102513194084L230.24296875000002,45.79457598924637L230.469140625,34.374216601252556L230.6953125,31.078521564602852L230.921484375,45.5399973616004L231.14765625,42.20258358120918L231.37382812500002,38.59575520455837L231.60000000000002,43.1093316078186L231.826171875,33.81270486116409L232.05234375,15.171699330210686L232.278515625,34.83777138590813L232.50468750000002,43.18504120409489L232.73085937500002,36.54092739522457L232.95703125,42.932658299803734L233.18320312499998,36.70478242635727L233.40937499999998,36.98265682160854L233.635546875,44.630394235253334L233.86171875,32.81243088841438L234.087890625,37.42919969558716L234.31406249999998,39.596675366163254L234.54023437499998,33.70628151297569L234.76640625,50.75470845401287L234.992578125,49.10131558030844L235.21875,38.1463770121336L235.444921875,42.413280710577965L235.67109374999998,38.96275091171265L235.897265625,36.836182951927185L236.1234375,24.10581412911415L236.349609375,53.07111746817827L236.57578125,40.437538504600525L236.801953125,37.84872132539749L237.028125,41.475027680397034L237.254296875,43.98245143890381L237.48046875,40.563795894384384L237.706640625,42.275576546788216L237.9328125,32.57401357591152L238.158984375,42.57294210791588L238.38515625,45.01442163437605L238.611328125,43.26259705424309L238.8375,39.3751644641161L239.063671875,41.77085030078888L239.28984375000002,39.846275702118874L239.516015625,33.042803809046745L239.7421875,38.753464847803116L239.968359375,39.672622337937355L240.19453125,47.83185779303312L240.42070312500002,46.18391136825085L240.64687500000002,41.899916633963585L240.873046875,43.843534022569656L241.09921875,40.512496411800385L241.325390625,42.28467594087124L241.55156250000002,38.66046640276909L241.77773437500002,39.09266124665737L242.00390625,55.49514330178499L242.23007812499998,49.692321226000786L242.45624999999998,36.5251946747303L242.682421875,45.89183400571346L242.90859375,32.96981084346771L243.134765625,26.777620419859886L243.36093749999998,41.97643066942692L243.58710937499998,44.78008586168289L243.81328125,42.61919076740742L244.039453125,48.919479355216026L244.265625,42.14524421095848L244.491796875,45.47502241283655L244.71796874999998,40.5521644949913L244.944140625,32.741679802536964L245.1703125,36.5360611975193L245.396484375,37.845951944589615L245.62265625,46.19087438285351L245.848828125,42.67671476304531L246.075,49.155720725655556L246.301171875,49.54598582535982L246.52734375,37.0778312087059L246.753515625,35.98207953572273L246.9796875,39.69460594654083L247.20585937500002,42.858267456293106L247.43203125,43.465460792183876L247.658203125,39.99682451784611L247.884375,41.74785125255585L248.110546875,35.03289404511452L248.33671875000002,38.54630197584629L248.56289062500002,44.70054528862238L248.7890625,34.96000657975674L249.015234375,39.40504740178585L249.24140625,35.905855625867844L249.46757812500002,48.75859811156988L249.69375000000002,38.87169103324413L249.919921875,38.60677997767925L250.14609374999998,44.305717304348946L250.37226562499998,42.25414681434631L250.5984375,31.65724302828312L250.824609375,27.700233042240143L251.05078125,44.030744165182114L251.27695312499998,39.820006147027016L251.50312499999998,36.572880774736404L251.729296875,36.857507184147835L251.95546875,43.86408019065857L252.181640625,41.08566592633724L252.4078125,51.08047994971275L252.63398437499998,32.029671996831894L252.86015625,35.526133954524994L253.086328125,19.111591905355453L253.3125,36.7406525015831L253.538671875,41.297312557697296L253.76484375,41.97025890648365L253.991015625,45.68964942544699L254.2171875,36.99638503789902L254.443359375,34.648398488759995L254.66953125,47.83725808560848L254.895703125,39.06395199894905L255.121875,29.86238095164299L255.348046875,48.16568686813116L255.57421875,28.105485767126083L255.800390625,44.124375611543655L256.0265625,17.54854018986225L256.252734375,36.24894234538078L256.47890624999997,43.277498960494995L256.705078125,31.894460275769234L256.93125,34.87381289899349L257.157421875,41.86483781039715L257.38359375,38.271684899926186L257.609765625,46.82026232779026L257.8359375,50.24835354834795" style="fill: none;" fill="none"></path></g></g></g></g></g></g><g transform="translate(58, 177)" clip-path="url(#clip_1)"><clipPath id="clip_1"><rect width="271" height="23"></rect></clipPath><g><g><line x1="0" y1="0" x2="0" y2="5" style="visibility: inherit;" fill="rgb(0, 0, 0)" stroke="rgb(204, 204, 204)" stroke-width="1px"></line><line x1="22.6171875" y1="0" x2="22.6171875" y2="5" style="visibility: inherit;" fill="rgb(0, 0, 0)" stroke="rgb(204, 204, 204)" stroke-width="1px"></line><line x1="45.234375" y1="0" x2="45.234375" y2="5" style="visibility: inherit;" fill="rgb(0, 0, 0)" stroke="rgb(204, 204, 204)" stroke-width="1px"></line><line x1="67.8515625" y1="0" x2="67.8515625" y2="5" style="visibility: inherit;" fill="rgb(0, 0, 0)" stroke="rgb(204, 204, 204)" stroke-width="1px"></line><line x1="90.46875" y1="0" x2="90.46875" y2="5" style="visibility: inherit;" fill="rgb(0, 0, 0)" stroke="rgb(204, 204, 204)" stroke-width="1px"></line><line x1="113.0859375" y1="0" x2="113.0859375" y2="5" style="visibility: inherit;" fill="rgb(0, 0, 0)" stroke="rgb(204, 204, 204)" stroke-width="1px"></line><line x1="135.703125" y1="0" x2="135.703125" y2="5" style="visibility: inherit;" fill="rgb(0, 0, 0)" stroke="rgb(204, 204, 204)" stroke-width="1px"></line><line x1="158.3203125" y1="0" x2="158.3203125" y2="5" style="visibility: inherit;" fill="rgb(0, 0, 0)" stroke="rgb(204, 204, 204)" stroke-width="1px"></line><line x1="180.9375" y1="0" x2="180.9375" y2="5" style="visibility: inherit;" fill="rgb(0, 0, 0)" stroke="rgb(204, 204, 204)" stroke-width="1px"></line><line x1="203.5546875" y1="0" x2="203.5546875" y2="5" style="visibility: inherit;" fill="rgb(0, 0, 0)" stroke="rgb(204, 204, 204)" stroke-width="1px"></line><line x1="226.171875" y1="0" x2="226.171875" y2="5" style="visibility: inherit;" fill="rgb(0, 0, 0)" stroke="rgb(204, 204, 204)" stroke-width="1px"></line><line x1="248.7890625" y1="0" x2="248.7890625" y2="5" style="visibility: inherit;" fill="rgb(0, 0, 0)" stroke="rgb(204, 204, 204)" stroke-width="1px"></line><line x1="271.40625" y1="0" x2="271.40625" y2="5" style="visibility: inherit;" fill="rgb(0, 0, 0)" stroke="rgb(204, 204, 204)" stroke-width="1px"></line></g><g transform="translate(0, 8)"><text x="0" y="0" dx="0em" dy="0.95em" style="text-anchor: middle; visibility: hidden; font-family: &quot;Helvetica Neue&quot;, sans-serif; font-size: 12px; font-weight: 200;" fill="rgb(50, 49, 63)" stroke="none" stroke-width="1px">-100</text><text x="22.6171875" y="0" dx="0em" dy="0.95em" style="text-anchor: middle; visibility: inherit; font-family: &quot;Helvetica Neue&quot;, sans-serif; font-size: 12px; font-weight: 200;" fill="rgb(50, 49, 63)" stroke="none" stroke-width="1px">0</text><text x="45.234375" y="0" dx="0em" dy="0.95em" style="text-anchor: middle; visibility: hidden; font-family: &quot;Helvetica Neue&quot;, sans-serif; font-size: 12px; font-weight: 200;" fill="rgb(50, 49, 63)" stroke="none" stroke-width="1px">100</text><text x="67.8515625" y="0" dx="0em" dy="0.95em" style="text-anchor: middle; visibility: inherit; font-family: &quot;Helvetica Neue&quot;, sans-serif; font-size: 12px; font-weight: 200;" fill="rgb(50, 49, 63)" stroke="none" stroke-width="1px">200</text><text x="90.46875" y="0" dx="0em" dy="0.95em" style="text-anchor: middle; visibility: hidden; font-family: &quot;Helvetica Neue&quot;, sans-serif; font-size: 12px; font-weight: 200;" fill="rgb(50, 49, 63)" stroke="none" stroke-width="1px">300</text><text x="113.0859375" y="0" dx="0em" dy="0.95em" style="text-anchor: middle; visibility: inherit; font-family: &quot;Helvetica Neue&quot;, sans-serif; font-size: 12px; font-weight: 200;" fill="rgb(50, 49, 63)" stroke="none" stroke-width="1px">400</text><text x="135.703125" y="0" dx="0em" dy="0.95em" style="text-anchor: middle; visibility: hidden; font-family: &quot;Helvetica Neue&quot;, sans-serif; font-size: 12px; font-weight: 200;" fill="rgb(50, 49, 63)" stroke="none" stroke-width="1px">500</text><text x="158.3203125" y="0" dx="0em" dy="0.95em" style="text-anchor: middle; visibility: inherit; font-family: &quot;Helvetica Neue&quot;, sans-serif; font-size: 12px; font-weight: 200;" fill="rgb(50, 49, 63)" stroke="none" stroke-width="1px">600</text><text x="180.9375" y="0" dx="0em" dy="0.95em" style="text-anchor: middle; visibility: hidden; font-family: &quot;Helvetica Neue&quot;, sans-serif; font-size: 12px; font-weight: 200;" fill="rgb(50, 49, 63)" stroke="none" stroke-width="1px">700</text><text x="203.5546875" y="0" dx="0em" dy="0.95em" style="text-anchor: middle; visibility: inherit; font-family: &quot;Helvetica Neue&quot;, sans-serif; font-size: 12px; font-weight: 200;" fill="rgb(50, 49, 63)" stroke="none" stroke-width="1px">800</text><text x="226.171875" y="0" dx="0em" dy="0.95em" style="text-anchor: middle; visibility: hidden; font-family: &quot;Helvetica Neue&quot;, sans-serif; font-size: 12px; font-weight: 200;" fill="rgb(50, 49, 63)" stroke="none" stroke-width="1px">900</text><text x="248.7890625" y="0" dx="0em" dy="0.95em" style="text-anchor: middle; visibility: inherit; font-family: &quot;Helvetica Neue&quot;, sans-serif; font-size: 12px; font-weight: 200;" fill="rgb(50, 49, 63)" stroke="none" stroke-width="1px">1k</text><text x="271.40625" y="0" dx="0em" dy="0.95em" style="text-anchor: middle; visibility: hidden; font-family: &quot;Helvetica Neue&quot;, sans-serif; font-size: 12px; font-weight: 200;" fill="rgb(50, 49, 63)" stroke="none" stroke-width="1px">1.1k</text></g><line x1="0" y1="0" x2="271.40625" y2="0" fill="rgb(0, 0, 0)" stroke="rgb(204, 204, 204)" stroke-width="1px"></line></g></g></g></g></svg>