<svg viewBox="0 0 330 200" xmlns="http://www.w3.org/2000/svg"><g><g><g><g><g><line x1="58.59375" y1="177" x2="53.59375" y2="177" style="visibility: inherit;" fill="rgb(0, 0, 0)" stroke="rgb(204, 204, 204)" stroke-width="1px"></line><line x1="58.59375" y1="157.33333333333334" x2="53.59375" y2="157.33333333333334" style="visibility: inherit;" fill="rgb(0, 0, 0)" stroke="rgb(204, 204, 204)" stroke-width="1px"></line><line x1="58.59375" y1="137.66666666666666" x2="53.59375" y2="137.66666666666666" style="visibility: inherit;" fill="rgb(0, 0, 0)" stroke="rgb(204, 204, 204)" stroke-width="1px"></line><line x1="58.59375" y1="118" x2="53.59375" y2="118" style="visibility: inherit;" fill="rgb(0, 0, 0)" stroke="rgb(204, 204, 204)" stroke-width="1px"></line><line x1="58.59375" y1="98.33333333333333" x2="53.59375" y2="98.33333333333333" style="visibility: inherit;" fill="rgb(0, 0, 0)" stroke="rgb(204, 204, 204)" stroke-width="1px"></line><line x1="58.59375" y1="78.66666666666666" x2="53.59375" y2="78.66666666666666" style="visibility: inherit;" fill="rgb(0, 0, 0)" stroke="rgb(204, 204, 204)" stroke-width="1px"></line><line x1="58.59375" y1="58.999999999999986" x2="53.59375" y2="58.999999999999986" style="visibility: inherit;" fill="rgb(0, 0, 0)" stroke="rgb(204, 204, 204)" stroke-width="1px"></line><line x1="58.59375" y1="39.33333333333334" x2="53.59375" y2="39.33333333333334" style="visibility: inherit;" fill="rgb(0, 0, 0)" stroke="rgb(204, 204, 204)" stroke-width="1px"></line><line x1="58.59375" y1="19.666666666666657" x2="53.59375" y2="19.666666666666657" style="visibility: inherit;" fill="rgb(0, 0, 0)" stroke="rgb(204, 204, 204)" stroke-width="1px"></line><line x1="58.59375" y1="0" x2="53.59375" y2="0" style="visibility: inherit;" fill="rgb(0, 0, 0)" stroke="rgb(204, 204, 204)" stroke-width="1px"></line></g><g transform="translate(48.59375, 0)"><text x="0" y="177" dx="0em" dy="0.3em" style="text-anchor: end; visibility: hidden; font-family: &quot;Helvetica Neue&quot;, sans-serif; font-size: 12px; font-weight: 200;" fill="rgb(50, 49, 63)" stroke="none" stroke-width="1px">-0.02</text><text x="0" y="157.33333333333334" dx="0em" dy="0.3em" style="text-anchor: end; visibility: inherit; font-family: &quot;Helvetica Neue&quot;, sans-serif; font-size: 12px; font-weight: 200;" fill="rgb(50, 49, 63)" stroke="none" stroke-width="1px">0</text><text x="0" y="137.66666666666666" dx="0em" dy="0.3em" style="text-anchor: end; visibility: hidden; font-family: &quot;Helvetica Neue&quot;, sans-serif; font-size: 12px; font-weight: 200;" fill="rgb(50, 49, 63)" stroke="none" stroke-width="1px">0.02</text><text x="0" y="118" dx="0em" dy="0.3em" style="text-anchor: end; visibility: inherit; font-family: &quot;Helvetica Neue&quot;, sans-serif; font-size: 12px; font-weight: 200;" fill="rgb(50, 49, 63)" stroke="none" stroke-width="1px">0.04</text><text x="0" y="98.33333333333333" dx="0em" dy="0.3em" style="text-anchor: end; visibility: hidden; font-family: &quot;Helvetica Neue&quot;, sans-serif; font-size: 12px; font-weight: 200;" fill="rgb(50, 49, 63)" stroke="none" stroke-width="1px">0.06</text><text x="0" y="78.66666666666666" dx="0em" dy="0.3em" style="text-anchor: end; visibility: inherit; font-family: &quot;Helvetica Neue&quot;, sans-serif; font-size: 12px; font-weight: 200;" fill="rgb(50, 49, 63)" stroke="none" stroke-width="1px">0.08</text><text x="0" y="58.999999999999986" dx="0em" dy="0.3em" style="text-anchor: end; visibility: hidden; font-family: &quot;Helvetica Neue&quot;, sans-serif; font-size: 12px; font-weight: 200;" fill="rgb(50, 49, 63)" stroke="none" stroke-width="1px">0.1</text><text x="0" y="39.33333333333334" dx="0em" dy="0.3em" style="text-anchor: end; visibility: inherit; font-family: &quot;Helvetica Neue&quot;, sans-serif; font-size: 12px; font-weight: 200;" fill="rgb(50, 49, 63)" stroke="none" stroke-width="1px">0.12</text><text x="0" y="19.666666666666657" dx="0em" dy="0.3em" style="text-anchor: end; visibility: hidden; font-family: &quot;Helvetica Neue&quot;, sans-serif; font-size: 12px; font-weight: 200;" fill="rgb(50, 49, 63)" stroke="none" stroke-width="1px">0.14</text><text x="0" y="0" dx="0em" dy="0.3em" style="text-anchor: end; visibility: hidden; font-family: &quot;Helvetica Neue&quot;, sans-serif; font-size: 12px; font-weight: 200;" fill="rgb(50, 49, 63)" stroke="none" stroke-width="1px">0.16</text></g><line x1="58.59375" y1="0" x2="58.59375" y2="177" fill="rgb(0, 0, 0)" stroke="rgb(204, 204, 204)" stroke-width="1px"></line></g></g><g transform="translate(58, 0)" clip-path="url(#clip_0)"><clipPath id="clip_0"><rect width="271" height="177"></rect></clipPath><g><g><g><line x1="0" y1="0" x2="0" y2="177" fill="rgb(0, 0, 0)" stroke="rgb(60, 60, 60)" stroke-width="1px" opacity="0.25"></line><line x1="22.6171875" y1="0" x2="22.6171875" y2="177" fill="rgb(0, 0, 0)" stroke="rgb(60, 60, 60)" stroke-width="1px" opacity="0.25"></line><line x1="45.234375" y1="0" x2="45.234375" y2="177" fill="rgb(0, 0, 0)" stroke="rgb(60, 60, 60)" stroke-width="1px" opacity="0.25"></line><line x1="67.8515625" y1="0" x2="67.8515625" y2="177" fill="rgb(0, 0, 0)" stroke="rgb(60, 60, 60)" stroke-width="1px" opacity="0.25"></line><line x1="90.46875" y1="0" x2="90.46875" y2="177" fill="rgb(0, 0, 0)" stroke="rgb(60, 60, 60)" stroke-width="1px" opacity="0.25"></line><line x1="113.0859375" y1="0" x2="113.0859375" y2="177" fill="rgb(0, 0, 0)" stroke="rgb(60, 60, 60)" stroke-width="1px" opacity="0.25"></line><line x1="135.703125" y1="0" x2="135.703125" y2="177" fill="rgb(0, 0, 0)" stroke="rgb(60, 60, 60)" stroke-width="1px" opacity="0.25"></line><line x1="158.3203125" y1="0" x2="158.3203125" y2="177" fill="rgb(0, 0, 0)" stroke="rgb(60, 60, 60)" stroke-width="1px" opacity="0.25"></line><line x1="180.9375" y1="0" x2="180.9375" y2="177" fill="rgb(0, 0, 0)" stroke="rgb(60, 60, 60)" stroke-width="1px" opacity="0.25"></line><line x1="203.5546875" y1="0" x2="203.5546875" y2="177" fill="rgb(0, 0, 0)" stroke="rgb(60, 60, 60)" stroke-width="1px" opacity="0.25"></line><line x1="226.171875" y1="0" x2="226.171875" y2="177" fill="rgb(0, 0, 0)" stroke="rgb(60, 60, 60)" stroke-width="1px" opacity="0.25"></line><line x1="248.7890625" y1="0" x2="248.7890625" y2="177" fill="rgb(0, 0, 0)" stroke="rgb(60, 60, 60)" stroke-width="1px" opacity="0.25"></line><line x1="271.40625" y1="0" x2="271.40625" y2="177" fill="rgb(0, 0, 0)" stroke="rgb(60, 60, 60)" stroke-width="1px" opacity="0.25"></line></g><g><line x1="0" y1="177" x2="271.40625" y2="177" fill="rgb(0, 0, 0)" stroke="rgb(60, 60, 60)" stroke-width="1px" opacity="0.25"></line><line x1="0" y1="157.33333333333334" x2="271.40625" y2="157.33333333333334" fill="rgb(0, 0, 0)" stroke="rgb(60, 60, 60)" stroke-width="1px" opacity="0.25"></line><line x1="0" y1="137.66666666666666" x2="271.40625" y2="137.66666666666666" fill="rgb(0, 0, 0)" stroke="rgb(60, 60, 60)" stroke-width="1px" opacity="0.25"></line><line x1="0" y1="118" x2="271.40625" y2="118" fill="rgb(0, 0, 0)" stroke="rgb(60, 60, 60)" stroke-width="1px" opacity="0.25"></line><line x1="0" y1="98.33333333333333" x2="271.40625" y2="98.33333333333333" fill="rgb(0, 0, 0)" stroke="rgb(60, 60, 60)" stroke-width="1px" opacity="0.25"></line><line x1="0" y1="78.66666666666666" x2="271.40625" y2="78.66666666666666" fill="rgb(0, 0, 0)" stroke="rgb(60, 60, 60)" stroke-width="1px" opacity="0.25"></line><line x1="0" y1="58.999999999999986" x2="271.40625" y2="58.999999999999986" fill="rgb(0, 0, 0)" stroke="rgb(60, 60, 60)" stroke-width="1px" opacity="0.25"></line><line x1="0" y1="39.33333333333334" x2="271.40625" y2="39.33333333333334" fill="rgb(0, 0, 0)" stroke="rgb(60, 60, 60)" stroke-width="1px" opacity="0.25"></line><line x1="0" y1="19.666666666666657" x2="271.40625" y2="19.666666666666657" fill="rgb(0, 0, 0)" stroke="rgb(60, 60, 60)" stroke-width="1px" opacity="0.25"></line><line x1="0" y1="0" x2="271.40625" y2="0" fill="rgb(0, 0, 0)" stroke="rgb(60, 60, 60)" stroke-width="1px" opacity="0.25"></line></g></g></g><g><g><line x1="0" y1="157.33333333333334" x2="271.40625" y2="157.33333333333334" fill="rgb(0, 0, 0)" stroke="rgb(153, 153, 153)" stroke-width="1.5px"></line></g></g><g><g><line x1="22.6171875" y1="0" x2="22.6171875" y2="177" fill="rgb(0, 0, 0)" stroke="rgb(153, 153, 153)" stroke-width="1.5px"></line></g></g><g><g><g><g><g><path stroke="rgb(187, 187, 187)" stroke-width="2px" d="M28.0453125,-4.946051994959532L28.271484375,5.424942115942628L28.49765625,16.39941214521727L28.723828125,25.13513817389807L28.950000000000003,32.21495031317076L29.176171874999998,38.29193889101347L29.40234375,42.04342418909073L29.628515625,45.12341523170471L29.8546875,49.02907738089563L30.080859375000003,52.82696812351546L30.307031249999998,55.69925560553868L30.533203125,57.78161750733851L30.759375,60.75056224068004L30.985546875,62.33109475672245L31.211718750000003,64.39275224010149L31.437890624999998,65.12411787112553L31.6640625,67.03972348570822L32.11640625,68.89553831517695L32.342578125,69.87551814814408L32.56875,71.41578474640846L32.794921875,73.61449727416037L33.02109375,74.07770185669263L33.247265625,75.96178928017616L33.4734375,77.70194216569263L33.699609375,77.98430178562799L33.92578125,80.23837995032468L34.151953125,81.68700788418451L34.378125000000004,82.54930368562539L34.604296875,82.65306022266546L34.83046875,83.67688125868636L35.056640625,83.80347419778505L35.2828125,85.48880360027154L35.508984375,86.80171722173691L35.735156249999996,86.02484729389349L35.961328125,87.21495572725931L36.1875,87.67604297896226L36.413671875,87.14165505270162L36.639843750000004,88.52101916074753L36.866015625,89.37801797191301L37.092187499999994,89.20391330122946L37.318359375,88.30528586109479L37.54453125,89.10595927635828L37.770703125,90.43482247988382L37.996875,90.72724125285943L38.223046875,92.29227109750111L38.44921875,93.0341061602036L38.675390625,92.07268410921097L38.901562500000004,93.00965794920921L39.127734375,92.98823554317156L39.353906249999994,91.28046536445618L39.580078125,91.72747859358786L39.80625,93.19221729040144L40.032421875,93.90840993821621L40.25859375,92.37816586097081L40.484765625,93.76350098848341L40.7109375,93.84847262501717L40.937109375000006,94.96745632588862L41.163281250000004,94.35578948756059L41.389453124999996,95.72850122054417L41.615624999999994,95.42123915255068L41.841796875,96.21673646320899L42.06796875,95.3382822771867L42.294140625,95.18832543492317L42.5203125,96.46789292742808L42.746484375,96.4463020140926L42.97265625,96.1775255476435L43.198828125000006,97.15308389564355L43.425000000000004,97.403961956501L43.651171874999996,99.14116962750752L43.877343749999994,98.7471592699488L44.103515625,96.76013586670159L44.3296875,97.55871393034855L44.555859375,98.05329383909702L44.78203125,98.81899466365576L45.008203125,98.203148111701L45.234375,98.7591782361269L45.460546875000006,98.32903405278921L45.68671875,98.52307020624478L45.912890624999996,99.01476717491944L46.1390625,98.00467215726772L46.365234375,99.0811407342553L46.59140625,99.49304217100143L46.817578125,99.71210898458958L47.04375,98.83344233284393L47.269921875,99.50617475062607L47.49609375,99.24530713756879L47.722265625000006,99.30460705359776L47.9484375,99.32339561730622L48.174609374999996,99.72312423338492L48.40078125,99.96026162306467L48.626953125,98.9430709828933L48.853125,98.18361958116293L49.079296875000004,98.73980722328027L49.30546875,99.09076396624246L49.531640625,99.27679602305093L49.7578125,99.21404903382063L49.983984375,99.19604805856943L50.21015625,99.6432920694351L50.436328124999996,99.46734847128391L50.6625,99.89852934082349L50.888671875,100.7083973934253L51.11484375,100.46701435248056L51.341015625000004,99.52049420773983L51.5671875,99.45871064066887L51.793359375,98.77853459616502L52.01953125,100.50836824129024L52.245703125,99.78788598378499L52.471875,100.46548679719368L52.698046874999996,100.74067753056684L52.92421875,100.99014159540334L53.150390625,99.96880421042442L53.3765625,101.03205961734056L53.602734375000004,100.8308142820994L53.82890625,101.13995190958181L54.055078124999994,100.11750823756059L54.28125,100.41426424185434L54.507421875,100.13282774885495L54.73359375,99.98883826285599L54.959765625,99.96629491696754L55.1859375,100.00270348290601L55.412109375,99.34058336168528L55.63828125,100.26714271803696L55.864453125000004,100.26062954465547L56.090625,100.93153768777847L56.316796874999994,100.73231077690919L56.54296875,101.9805469016234L56.769140625,100.59751959145069L57.221484375,100.78264683733383L57.44765625,99.1510273044308L57.673828125,99.92015322297812L57.900000000000006,100.31731759756804L58.126171875000004,100.24002036948998L58.352343749999996,100.52642782777546L58.578515624999994,100.99348976214726L58.8046875,100.4165244375666L59.030859375,99.55808232476313L59.25703125,100.57075623671213L59.483203125,101.26561439534028L59.709375,100.08768244584401L59.935546875,99.93145420153935L60.161718750000006,100.26442828526099L60.387890625000004,100.3977725058794L60.614062499999996,100.00352404018243L60.840234374999994,100.333087682724L61.06640625,100.80746503174305L61.292578125,100.8797363465031L61.51875,100.70891024172305L61.744921875,100.7011845484376L61.97109375,101.10095345973969L62.197265625,100.56072272608677L62.423437500000006,100.66712775826454L62.649609375,100.71408268312612L62.875781249999996,100.7349482824405L63.101953125,100.02662785599628L63.328125,100.84097966800132L63.554296875,100.2879497061173L63.78046875,101.56981768955787L64.006640625,101.03391686081885L64.2328125,100.22915897518396L64.458984375,100.48304818818966L64.68515625,100.97744860003391L64.911328125,100.9605795542399L65.1375,101.47066579759121L65.36367187500001,101.13723381360371L65.58984375,101.33218576759099L65.81601562499999,101.09265997012456L66.0421875,100.5718442077438L66.268359375,101.01574737826982L66.49453125,100.27149826536575L66.946875,101.34097012629111L67.173046875,100.71856644252935L67.39921875,101.38617037733395L67.62539062500001,101.91753982504208L67.8515625,100.47201096018155L68.077734375,101.34732211877902L68.30390625,101.76108446220556L68.530078125,101.35548373311758L68.982421875,101.43360518167415L69.20859375,101.10156887769698L69.43476562500001,101.67641320824622L69.6609375,101.08133701235056L69.88710937500001,101.47800319145122L70.33945312499999,101.90590183188517L70.565625,102.32609309504429L70.79179687499999,100.79303934176762L71.01796875,102.17233018577097L71.244140625,100.81553872923055L71.47031249999999,101.61090782781442L71.696484375,101.78203431516886L71.92265625,102.02892681211233L72.148828125,101.6495033254226L72.375,102.09380578498045L72.601171875,101.85961360981067L72.82734375,101.62859743088484L73.053515625,101.3670960838596L73.505859375,101.19684143861134L73.73203125,100.60968142251173L73.95820312500001,102.06609732409318L74.18437499999999,101.76622759799162L74.410546875,101.89530785133441L74.63671875,102.2812408482035L74.86289062499999,102.35942457119623L75.0890625,101.86770562330881L75.315234375,102.36230751127005L75.54140625,101.81813150892654L75.767578125,101.19799534728129L75.99375,100.53386412809292L76.219921875,100.89395689715941L76.44609375,102.3241149658958L76.672265625,102.8846544921398L76.8984375,101.95456014573574L77.124609375,102.29122673720121L77.35078125,102.10339971135059L77.576953125,101.41103985657294L77.80312500000001,102.16712111234663L78.029296875,102.16809186091025L78.25546875,101.32991824547449L78.48164062500001,101.2485035782059L78.70781249999999,102.32332737743853L78.933984375,102.43282048900922L79.16015625,102.47921128074327L79.38632812499999,102.26181488732496L79.6125,102.35389313598473L79.838671875,102.35606907804807L80.06484375,102.82834741224845L80.291015625,102.35634015500546L80.5171875,102.42618276675542L80.743359375,103.55532819032669L80.96953125,103.83468398451804L81.19570312500001,102.56599253912766L81.421875,101.84244051824012L81.648046875,101.40169869114955L81.87421875000001,102.64213585853575L82.100390625,101.84394243111213L82.32656250000001,102.31757981330156L82.552734375,102.40516697615385L83.005078125,103.18168157339096L83.23124999999999,103.14412276198466L83.457421875,102.17123488833506L83.68359375,102.64524958034356L83.90976562499999,102.38185435781875L84.1359375,102.85819518317778L84.362109375,102.39302346110343L84.58828125,102.26611548662186L84.814453125,103.18513963619867L85.040625,102.20405351618925L85.266796875,101.69606262445448L85.49296875,102.2296409830451L85.71914062500001,101.91373375803232L85.9453125,102.56855678061643L86.171484375,102.66531660159428L86.39765625000001,101.5546483695507L86.623828125,101.80437618494034L86.85000000000001,102.92529405653477L87.076171875,102.97319408754507L87.30234374999999,102.37902636577685L87.528515625,103.15079711625972L87.980859375,103.34752206007639L88.43320312499999,103.54875640571117L88.659375,103.0358201911052L88.885546875,102.6379891137282L89.11171875,102.77782819171746L89.337890625,103.122180181245L89.5640625,103.40617725253105L89.790234375,103.5605738957723L90.01640625,102.8342964525024L90.24257812500001,103.21324372291565L90.46875,102.83885347594817L90.694921875,102.8001517454783L90.92109375000001,103.49629202485083L91.14726562499999,103.77840254704157L91.3734375,103.75003470977147L91.599609375,103.04300006727377L92.051953125,103.44783885031939L92.278125,103.23651970922947L92.504296875,102.8779325162371L92.73046875,103.40630546460548L92.956640625,103.10186772545178L93.408984375,103.59612893561521L93.63515625,102.59659492969513L93.861328125,102.90714655319849L94.0875,102.6676683773597L94.313671875,103.40460207561651L94.53984375,103.37536239624022L94.76601562500001,103.01362118621667L94.9921875,103.15001319100459L95.218359375,103.81744495530923L95.44453125000001,104.14992816994587L95.67070312499999,103.86475154757498L95.896875,103.48917442311843L96.123046875,102.36429663002491L96.34921874999999,102.74266877770424L96.575390625,102.39201241731644L96.8015625,102.63599633177121L97.027734375,102.32667188098033L97.25390625,102.90064803262551L97.480078125,103.38956463088591L97.70625,102.40735757102568L97.932421875,102.93236037343739L98.15859375000001,102.8995820408066L98.384765625,102.91331172237793L98.6109375,102.43812480568884L98.83710937500001,103.67352507015069L99.06328125,103.66163797924915L99.28945312500001,103.92352762569983L99.515625,103.60411471625169L99.74179687499999,103.07691765576601L99.96796875,103.83741673330465L100.19414062499999,102.88982693354288L100.4203125,103.42508303870757L100.646484375,103.37988278766473L100.87265624999999,104.2078836907943L101.098828125,103.52048747489849L101.325,103.53412191321452L101.551171875,103.91052692135175L101.77734375,103.3509105220437L102.003515625,104.49155840029319L102.2296875,104.13630838443835L102.455859375,103.67339685807625L102.68203125000001,103.19806707650423L102.908203125,103.47588432580231L103.134375,103.51505860934654L103.36054687500001,104.19424925247827L103.58671875,103.88545596599577L103.81289062500001,103.5645374804735L104.0390625,103.43540594230095L104.26523437499999,102.90715754280487L104.49140625,103.8970390111208L104.71757812499999,103.38756818572679L104.94375,104.18955669055381L105.169921875,104.10576826830705L105.39609374999999,103.93466009696324L105.622265625,103.4173573454221L105.8484375,103.1236967469255L106.30078125,103.94446648905674L106.526953125,103.0613343939185L106.753125,103.85091929634412L106.979296875,103.76541649550198L107.20546875000001,103.96595116953054L107.431640625,103.0746501336495L107.6578125,104.07595712939897L107.88398437500001,103.9962385247151L108.11015624999999,103.68423260996738L108.336328125,103.93120203415552L108.5625,103.20134197920561L108.78867187499999,103.54063142339388L109.01484375,104.16902810583511L109.241015625,103.41179660459359L109.4671875,103.32803748796383L109.693359375,103.06071164955695L109.91953125,104.10392567763725L110.145703125,104.25775086134672L110.371875,104.38196638226508L110.598046875,103.04691236714521L110.82421875,104.04403964926799L111.050390625,104.70294714222351L111.2765625,104.14419892181952L111.502734375,104.47378454357384L111.955078125,103.15817114214101L112.18125,104.00240003069241L112.40742187500001,103.97676494220892L112.63359374999999,104.53094881276289L112.859765625,104.6913897395134L113.0859375,103.59082461893559L113.31210937499999,103.03353435297807L113.53828125,104.1697094614307L113.764453125,103.06656544655561L113.990625,103.12516935418049L114.216796875,103.87468981494506L114.44296875,103.32122026880582L114.669140625,104.41913689424594L114.8953125,104.04264030605555L115.12148437500001,103.34825103729963L115.34765625,102.89913879334927L115.573828125,103.34462080399194L115.80000000000001,103.84307271738847L116.026171875,103.59567103534937L116.25234375000001,103.36429219941297L116.478515625,103.39864937216043L116.70468749999999,103.99899325271447L117.15703124999999,104.69957699626684L117.383203125,104.00662370274463L117.609375,102.66303808987139L117.83554687499999,103.99739243338504L118.06171875,104.05124883105357L118.287890625,103.80346617599328L118.5140625,104.91686349362135L118.740234375,103.75719260672727L118.96640625,103.94374483823775L119.192578125,103.19093115876117L119.41875,103.36809826642275L119.64492187500001,103.45501140008369L119.87109375,103.19404488056898L120.32343750000001,103.98201431085666L120.77578125000001,103.59332292278607L121.001953125,102.921227902174L121.22812499999999,102.71648054569958L121.454296875,103.74719206492105L121.68046874999999,103.31327844659486L121.906640625,102.13038652141888L122.1328125,103.07467943926652L122.35898437499999,103.17360421270132L122.58515625,104.41990982989469L122.811328125,103.64286773155132L123.0375,103.48683730016151L123.263671875,104.75388030459483L123.48984375,103.32344749569893L123.716015625,104.05650918930769L123.9421875,104.27099333703516L124.16835937500001,104.52529282867908L124.39453125,103.57117886592944L124.620703125,104.04664418598016L124.84687500000001,103.44852753231922L125.07304687499999,104.07447719573975L125.29921875,104.65745749821265L125.525390625,104.1446604852875L125.75156249999999,104.10939850161472L125.977734375,104.06934504956007L126.20390625,103.86186860750118L126.430078125,103.55140123764673L126.65625,103.94053220997253L126.882421875,103.02167656769355L127.10859375,103.86475887397924L127.334765625,104.24698837349811L127.5609375,103.98336969564357L127.787109375,103.93995342403649L128.01328125,104.60822039842606L128.23945312499998,104.46115382264057L128.465625,103.83296227951844L128.691796875,104.02438290665546L128.91796875,104.94194543858369L129.144140625,103.7619620958964L129.3703125,104.49860640118519L129.596484375,104.1246117800474L129.82265625,103.813221283257L130.048828125,103.20486964285374L130.275,104.6424273798863L130.501171875,104.03998814771572L130.72734375000002,104.1758673042059L130.953515625,104.0028908997774L131.1796875,104.21780730535586L131.405859375,103.79679182171822L131.63203124999998,104.23085929453373L131.858203125,103.61899830649295L132.084375,104.11853086451688L132.310546875,104.06798966477314L132.53671875,103.74521027257045L132.762890625,103.51415746162334L132.9890625,103.80325371026993L133.215234375,103.75903886059919L133.44140625,104.32665203015009L133.667578125,103.92238470663627L133.89375,103.93761263787745L134.119921875,104.42704941083987L134.572265625,104.05141367514928L134.7984375,103.54210403064886L135.024609375,105.01052058239777L135.25078125000002,104.3720647469163L135.476953125,104.38923051208258L135.703125,105.02874134977658L136.15546875,104.23607935756444L136.381640625,104.23092523217201L136.6078125,104.97210091849168L136.833984375,103.58845452715953L137.06015625,104.68338564286628L137.286328125,104.92483828465143L137.51250000000002,104.62510776023069L137.738671875,105.07930452873309L137.96484375,104.63720731685558L138.191015625,103.75085893025L138.4171875,103.96346751848856L138.64335937500002,103.82872761785984L138.86953125000002,104.30507943282524L139.095703125,104.45842840025821L139.321875,104.21289861450592L139.548046875,103.24242845426002L139.77421875000002,103.76577182610829L140.00039062500002,102.9031866316994L140.2265625,104.49551465859015L140.45273437499998,103.92451669027407L140.67890624999998,104.4810047149658L140.905078125,104.53679528335729L141.13125,104.47763090580702L141.357421875,104.15287704765797L142.262109375,103.50584565599759L142.48828125,104.73930076013008L142.714453125,104.5456052844723L142.94062499999998,104.27828310926755L143.166796875,105.30368664860725L143.39296875,104.99513879666725L143.619140625,104.64134673525889L143.8453125,104.51663301885128L144.071484375,104.02831718573967L144.29765625,104.36125097423792L144.523828125,105.03772352139154L144.75,105.34292686978975L144.976171875,104.7732842862606L145.20234375,105.60548688222964L145.42851562500002,104.6708208595713L145.6546875,104.85234351456165L145.880859375,104.27569688856602L146.10703125,104.57257377852996L146.333203125,105.15588376919428L146.55937500000002,105.06700349599123L146.78554687500002,104.9522866581877L147.01171875,104.47298230230808L147.237890625,104.7052952547868L147.4640625,104.78092206269501L147.69023437500002,105.01789460827906L148.142578125,103.68806065618992L148.36874999999998,104.69394665459791L148.59492187499998,104.97307166705528L148.82109375,105.0079160456856L149.047265625,105.0243455072244L149.2734375,105.39623012393713L149.49960937499998,104.66878045598665L149.72578124999998,104.29919266700745L149.951953125,104.80331888049841L150.178125,104.33800795674324L150.404296875,104.53789790719748L150.63046875,105.4523064220945L150.85664062499998,104.77298024048407L151.0828125,104.19586838781834L151.308984375,103.95286987473567L151.53515625,104.1444553459684L151.761328125,104.77976449082294L151.9875,105.39087085922559L152.213671875,103.99851337323585L152.43984375,105.25048596411943L152.666015625,104.4752241820097L152.8921875,104.40016517043112L153.118359375,104.80318700522184L153.34453125,104.85294427971044L153.570703125,105.00867799172798L153.796875,104.77184098462263L154.023046875,104.35687344769636L154.24921875,105.1803356433908L154.47539062500002,104.57383392006159L154.7015625,104.40157550324996L154.927734375,104.53163383156061L155.15390625,105.12884567429622L155.380078125,104.71631782998641L155.60625000000002,104.79891937474409L155.83242187500002,105.21134098619223L156.284765625,105.09204880893229L156.5109375,104.14929809918006L156.73710937500002,104.56417405605316L156.96328125000002,105.04957398027182L157.189453125,104.4704437032342L157.41562499999998,104.44128461430469L157.64179687499998,104.07893531272808L157.86796875,104.1198313012719L158.094140625,104.2814188102881L158.3203125,104.06320185959339L158.54648437499998,104.67499324679373L158.77265624999998,104.84011940906444L158.998828125,104.09614869952202L159.225,104.49484795580307L159.451171875,104.40354996919632L159.67734375,104.19736297428608L160.1296875,104.84720404197772L160.355859375,104.66645432263611L160.58203125,104.83187354107697L160.808203125,105.18454832583666L161.034375,105.10645984609921L161.260546875,105.12002834677696L161.48671875,103.29433236519495L161.712890625,103.56424076110123L161.9390625,104.44174984097481L162.165234375,105.57760991404453L162.39140625000002,104.70929913471142L162.617578125,103.86173306902249L162.84375,104.13355731964111L163.069921875,105.20128915955623L163.29609375,105.57962833841641L163.52226562500002,104.52616467078526L163.74843750000002,105.03623626132806L163.974609375,105.21470746894677L164.20078125,104.78277197976907L164.426953125,104.7020716369152L164.65312500000002,105.2258142977953L164.87929687500002,104.1745448882381L165.10546875,104.74491278578837L165.33164062499998,105.30617762605348L165.55781249999998,104.5309781183799L165.783984375,104.5825633307298L166.01015625,105.83091667791207L166.236328125,104.88949204732974L166.46249999999998,104.51109059403339L166.68867187499998,103.46033036957184L166.91484375,104.20127527415752L167.141015625,104.63095789402723L167.3671875,103.28868004431327L167.593359375,104.3155635173122L167.81953124999998,104.1297036310037L168.045703125,103.52945499370495L168.271875,104.29882634679475L168.498046875,103.93482860426107L168.72421875,103.904757378002L168.950390625,104.47022024790445L169.1765625,104.63437199840942L169.402734375,104.27680683881044L169.62890625,103.95303471883138L169.855078125,104.69844140360752L170.08125,104.82421378542979L170.307421875,104.65600687017043L170.759765625,104.9496235102415L170.9859375,104.78799936920404L171.212109375,104.00494229296842L171.43828125000002,104.95377758145331L171.664453125,104.00074060012896L171.890625,104.54754678159952L172.116796875,104.61867151409388L172.34296875,104.64719686905542L172.56914062500002,105.58699870109558L172.79531250000002,104.84688534339269L173.021484375,104.13668203105529L173.24765625,104.32588275770345L173.473828125,104.8486913020412L173.70000000000002,104.70099465548992L173.92617187500002,103.69124397883812L174.37851562499998,104.6343426927924L174.60468749999998,104.65342431267102L174.830859375,104.90131686379512L175.05703125,104.02788859109083L175.283203125,104.34104841450849L175.50937499999998,105.06075773636499L175.73554687499998,105.52385608603556L175.96171875,104.9113540376226L176.187890625,105.07554608335097L176.4140625,104.3202341000239L176.640234375,105.8110474695762L176.86640624999998,104.71343855311473L177.092578125,104.92666255931059L177.31875,105.53368445734182L177.544921875,105.20566668609777L177.77109375,104.9218161428968L177.997265625,105.08371136089166L178.2234375,105.61801503350337L178.449609375,105.38781941185394L178.67578125,104.89366809775431L178.901953125,105.70149574677149L179.128125,105.34524933993815L179.35429687500002,105.6174069419503L179.58046875,106.03497901558876L179.806640625,105.78121068825324L180.0328125,105.15015818427005L180.258984375,105.53815722713867L180.71132812500002,106.24874517569938L180.9375,105.53218620767196L181.163671875,105.6253670801719L181.38984375,105.63567533095677L181.61601562500002,105.16592094302177L181.84218750000002,104.94926451643308L182.068359375,106.3507030804952L182.29453124999998,106.05263564984003L182.52070312499998,105.77144825458527L182.746875,106.54343879719575L182.973046875,105.75528254359959L183.19921875,105.45682315031686L183.42539062499998,105.75430446863174L183.65156249999998,106.01538821061452L183.877734375,107.11900111536184L184.10390625,106.52873836706081L184.330078125,106.54595175385475L184.55625,106.48481657356022L184.78242187499998,105.94404368599255L185.00859375,105.76094951728979L185.234765625,105.08473339428504L185.4609375,106.11273780713478L185.687109375,105.69022773702939L185.91328125,106.13880515346924L186.139453125,105.7385233938694L186.365625,107.07811977962652L186.591796875,105.5442381426692L186.81796875,105.98452573269606L187.044140625,106.69093763083218L187.2703125,105.7682576055328L187.496484375,106.2414663930734L187.72265625,106.02739618718624L187.948828125,107.19834973663092L188.175,105.70008175075054L188.40117187500002,105.94219010571638L188.62734375,105.88701495528221L188.853515625,107.96953437477349L189.0796875,106.91443325579165L189.305859375,107.57150182127951L189.53203125000002,107.69935123870769L189.75820312500002,107.67115557193756L189.984375,105.50082553426424L190.210546875,106.22472555935381L190.43671875,106.33403551081815L190.66289062500002,107.28108681986728L190.88906250000002,107.11226814985275L191.115234375,107.00291423996289L191.34140624999998,106.66258810957272L191.56757812499998,107.85789828995863L192.019921875,108.27160202215114L192.24609375,106.91119498511155L192.47226562499998,105.60211307307084L192.69843749999998,107.49112750341494L192.924609375,108.53912201027075L193.15078125,107.93080700188875L193.376953125,108.05393088857332L193.603125,107.56812434891859L193.82929687499998,107.16932618618011L194.05546875,106.98115115612745L194.281640625,108.28910846511522L194.5078125,107.74095056205988L194.733984375,107.00774600356817L194.96015625,108.59937069565056L195.186328125,108.41766488055387L195.4125,108.16231404989958L195.638671875,108.53840768585601L195.86484375,107.44650970151027L196.091015625,108.28243777404228L196.31718750000002,108.42479713509479L196.543359375,108.71503996600707L196.76953125,108.90987836072841L196.995703125,108.25700782487789L197.221875,108.21744524190822L197.44804687500002,108.43818613886832L197.67421875000002,108.03706916918357L197.900390625,108.56881958991289L198.1265625,108.74444082627693L198.57890625000002,108.12944047401348L198.80507812500002,108.44796322534481L199.03125,108.38348720471063L199.25742187499998,108.57294069230556L199.48359374999998,108.86686870455742L199.709765625,108.48645981649557L199.9359375,108.95800551027058L200.162109375,109.57643828292687L200.38828124999998,109.66475075980027L200.61445312499998,108.96996952841678L200.840625,108.80827578653891L201.066796875,108.12367093066374L201.29296875,108.36810175577799L201.519140625,108.90949006130298L201.74531249999998,108.16647178431352L201.971484375,108.56050045788287L202.19765625,109.10475338747104L202.423828125,108.39063411206007L202.65,108.50854526211818L202.876171875,108.7396420314908L203.10234375,108.79356802999973L203.328515625,108.65624923507372L203.5546875,108.05096735805272L203.780859375,106.97908511012791L204.00703125,108.52897860358158L204.233203125,108.1612663740913L204.459375,108.52120895187059L204.685546875,108.53534891208012L204.91171875,107.84638484567404L205.137890625,108.534854379793L205.36406250000002,108.16269502292076L205.590234375,108.11305863410234L206.042578125,108.94378129641214L206.26875,107.7925943856438L206.49492187500002,107.95857041080792L206.72109375000002,108.27420655886331L206.947265625,107.65672988196214L207.1734375,108.02017448097466L207.399609375,108.70369502902031L207.62578125000002,107.73134198288122L207.85195312500002,107.88826257238784L208.078125,108.39100043227275L208.30429687499998,108.28258430212736L208.53046874999998,108.4696383923292L208.756640625,108.05755745867887L208.9828125,107.40331688523293L209.208984375,108.00090237458546L209.43515624999998,107.56048290928204L209.66132812499998,107.90948350230852L209.8875,108.22828832020362L210.113671875,108.80000061293443L210.33984375,107.91364856312671L210.566015625,107.5423793643713L210.79218749999998,107.52191305408874L211.018359375,108.13129405428965L211.24453125,108.21513009816408L211.470703125,109.24142745882273L211.696875,108.38248715053001L211.923046875,108.18225285907586L212.14921875,108.7861756881078L212.375390625,108.2748732616504L212.6015625,108.38132591545582L212.827734375,107.21415645380814L213.05390625,107.93592815846205L213.28007812500002,107.7591053918004L213.50625,109.14614757150412L213.732421875,108.8187891766429L213.95859375,107.83749059091011L214.184765625,108.23136907319227L214.41093750000002,107.55144578963518L214.63710937500002,107.07065783689418L214.86328125,107.35866245130697L215.089453125,108.97420052687326L215.315625,108.04669240117073L215.54179687500002,108.3391075109442L215.76796875000002,108.09661818295717L215.994140625,107.98817274719477L216.22031249999998,107.7400530775388L216.44648437499998,108.06366035342215L216.898828125,108.27234198898077L217.125,107.58692756543556L217.35117187499998,107.3885102222363L217.57734374999998,107.33191374937692L217.803515625,107.72838211556275L218.255859375,107.5580322270592L218.48203125,108.47500864664713L218.70820312499998,107.74636111160119L218.934375,109.09500560661156L219.160546875,107.80226157605648L219.38671875,108.08659566193819L219.612890625,108.39887998004754L219.8390625,108.35809755076964L220.065234375,108.74782562504211L220.29140625,108.46503741045792L220.517578125,107.81543445090452L220.74375,107.54498756428559L220.969921875,107.94353662927945L221.19609375,108.23675764352083L221.422265625,107.31860533605018L221.6484375,107.90020094811915L221.874609375,107.75420769055684L222.10078125,107.59035632262626L222.32695312500002,108.16963312774897L222.553125,107.65539281318584L222.779296875,108.9609727039933L223.00546875,108.19392015784977L223.231640625,106.44230511287847L223.45781250000002,108.60782170295715L223.68398437500002,108.27953285475571L223.91015625,108.12155359983443L224.136328125,108.1763990620772L224.3625,108.33934928228457L224.58867187500002,107.59023177375396L224.81484375000002,108.82381508996089L225.041015625,108.04011329015096L225.26718749999998,107.35825217266877L225.49335937499998,108.22725163400172L225.71953125,106.95794110745192L225.945703125,107.70710257440804L226.171875,108.13275200873613L226.39804687499998,108.06289840737978L226.62421874999998,107.68663992732763L226.850390625,108.27338233838478L227.0765625,108.18955728411674L227.302734375,107.87315186361471L227.52890625,106.92851094156502L227.75507812499998,107.6686352888743L227.98125,108.64709489295879L228.207421875,107.92829404522975L228.43359375,107.66000478466351L228.659765625,107.496299944818L228.8859375,107.098930430909L229.112109375,106.30307046324015L229.564453125,106.51290234426656L229.790625,107.79635283102591L230.016796875,108.42212666074434L230.24296875000002,107.84322350223859L230.6953125,108.17637708286443L230.921484375,107.69217868894339L231.14765625,107.02888267983992L231.37382812500002,107.2719104985396L231.60000000000002,108.50796281298001L231.826171875,107.3267339815696L232.05234375,107.92279924203952L232.278515625,108.02953396240869L232.50468750000002,107.31116537253061L232.95703125,108.55380778759717L233.18320312499998,108.65885743498802L233.40937499999998,107.37809207538763L233.635546875,107.7571932002902L233.86171875,107.79725764195123L234.087890625,107.42765520016351L234.31406249999998,107.5894185428818L234.54023437499998,107.60046309729417L234.76640625,107.34914911538363L234.992578125,107.9151761184136L235.444921875,108.42931386331716L235.67109374999998,107.8968344653646L235.897265625,108.12405556688705L236.1234375,108.67272998144229L236.349609375,107.55710910012324L236.801953125,107.05227955182393L237.028125,107.43169204890728L237.254296875,108.52162655691305L237.706640625,108.04451279590526L237.9328125,108.22659958402315L238.158984375,107.05756555249293L238.38515625,107.679602916042L238.611328125,108.06270792086919L238.8375,109.12508415927489L239.063671875,109.04214926312366L239.28984375000002,109.01185091833273L239.516015625,107.97102529803911L239.7421875,108.95739741871753L239.968359375,108.74335285524526L240.19453125,108.23932554821172L240.42070312500002,108.08907564977804L240.64687500000002,107.65485065927108L240.873046875,109.25329257051149L241.09921875,108.55739039927721L241.325390625,108.08839429418245L241.55156250000002,107.67730975151062L241.77773437500002,108.36362898598114L242.00390625,108.32158275196949L242.23007812499998,108.22439067314068L242.45624999999998,108.60580694178739L242.682421875,108.14055462926626L242.90859375,108.67439307520786L243.134765625,108.68566108494997L243.36093749999998,108.79866720736025L243.58710937499998,108.435548633337L243.81328125,109.1890729740262L244.039453125,108.25048732509215L244.265625,108.76884141564369L244.491796875,108.2895407229662L244.71796874999998,108.53812195609012L244.944140625,108.82909742742775L245.1703125,107.96315307666858L245.396484375,108.7156590471665L245.62265625,107.48850831389427L245.848828125,108.13945933183034L246.075,108.24480936179557L246.301171875,108.53171867877244L246.52734375,107.38956522444883L246.753515625,108.59232269475856L246.9796875,108.47266786048809L247.20585937500002,107.98507001499334L247.43203125,108.35395446916421L247.884375,107.8022102912267L248.110546875,108.26695341865221L248.56289062500002,107.86220255245765L248.7890625,108.35924413303533L249.015234375,108.0411975979805L249.24140625,107.49891913433869L249.46757812500002,108.14966867615779L249.69375000000002,108.4115216905872L249.919921875,107.58313981443642L250.37226562499998,108.14089530706406L250.5984375,108.84247910479704L250.824609375,108.4259730229775L251.05078125,108.43033955991267L251.27695312499998,108.06159797062476L251.50312499999998,108.59994215518236L251.729296875,108.0506230170528L251.95546875,108.74335285524526L252.4078125,108.53124612569809L252.63398437499998,108.70366938660541L252.86015625,108.0277316669623L253.086328125,108.5719626173377L253.3125,108.68973456571499L253.538671875,108.63673535734415L253.76484375,107.78815092146397L253.991015625,108.54269729554652L254.2171875,107.59204505880673L254.443359375,109.01712959259748L254.66953125,109.34165266901255L254.895703125,108.6070524305105L255.121875,107.83592274039984L255.348046875,107.16002897918224L255.57421875,107.83528534322976L255.800390625,108.40181786815324L256.0265625,107.01399542639652L256.252734375,108.83338703711827L256.47890624999997,108.58512083937724L256.705078125,108.31349440167347L256.93125,108.81968666116396L257.157421875,108.66015420854092L257.38359375,108.7613721465071L257.609765625,108.45198542128006L257.8359375,107.16153089205423L258.062109375,108.45602593322594" style="fill: none;" fill="none"></path></g><g><path stroke="rgb(238, 51, 119)" stroke-width="2px" d="M27.140625,-19.762004872163118L29.40234375,2.8601145148277283L31.6640625,50.66289483507475L33.92578125,39.61610586941242L36.1875,27.945971777041763L38.44921875,71.04767689108847L40.7109375,67.76144756873447L42.97265625,74.33116613825162L45.234375,53.15511044363181L47.49609375,63.685329298178345L49.7578125,72.93733970820904L52.01953125,57.97436787684758L54.28125,74.16620482007663L56.54296875,7.7024281422297065L58.8046875,61.08433123926321L61.06640625,75.67143655320008L63.328125,61.0921851446231L65.58984375,61.030716612935066L67.8515625,65.56431754430135L70.11328125,67.31652969121932L72.375,41.091746255755424L74.63671875,49.83225642641385L76.8984375,72.7972588588794L79.16015625,66.49737908442815L81.421875,57.37152935564518L83.68359375,41.497797558705L85.9453125,57.908027286330835L88.20703125,72.19077911476292L90.46875,55.05994624396163L92.73046875,49.41270988682906L94.9921875,59.71430097023645L97.25390625,52.69985500971475L99.515625,30.357106069723756L101.77734375,65.31050892174243L104.0390625,54.127111822366714L106.30078125,20.674662083387375L108.5625,56.16720769802727L110.82421875,43.88723104198775L113.0859375,58.810830776890114L115.34765625,43.905312607685715L117.609375,63.95236208041507L119.87109375,61.09592893719673L122.1328125,71.03843829532464L124.39453125,64.43602931002775L126.65625,70.15745283663271L128.91796875,55.80745926996072L131.1796875,78.55998865266639L133.44140625,73.61248983939487L135.703125,54.28997778892517L136.15546875,63.49356066683927L136.6078125,48.93003172179064L137.06015625,75.74574094514053L137.51250000000002,79.15242367982864L137.96484375,61.19161910315353L138.4171875,79.78865595161915L138.86953125000002,66.85315660138923L139.321875,76.25313839813073L139.77421875000002,74.6020452827215L140.2265625,62.76280312736829L140.67890624999998,75.99976935982704L141.13125,61.815184021989495L141.58359374999998,68.45232016344865L142.0359375,66.11074275275071L142.48828125,63.53980493048826L142.94062499999998,80.7859041194121L143.39296875,66.16471637288728L143.8453125,40.16630417605242L144.29765625,56.274722680449486L144.75,57.078656345605836L145.20234375,67.02244782447814L145.6546875,45.44982119401297L146.10703125,66.86490082740784L146.55937500000002,70.49035731951395L147.01171875,63.05868728955586L147.4640625,40.829937199751555L147.91640625000002,62.93254126111664L148.36874999999998,65.84365135927993L148.82109375,72.28169979155062L149.2734375,74.0981571773688L149.72578124999998,62.107785955071435L150.178125,73.26080778241156L150.63046875,70.19763816396394L151.0828125,67.76687643428643L151.53515625,58.22079881032306L151.9875,71.23867624998093L152.43984375,74.66127193470795L152.8921875,75.65909156203269L153.34453125,62.64715583622454L153.796875,60.439937353134155L154.24921875,70.63330279290676L154.7015625,67.35599703093368L155.15390625,72.40944297611713L155.60625000000002,60.742847537000955L156.05859375,63.55293384691079L156.5109375,66.62382549544174L156.96328125000002,43.92302785317102L157.41562499999998,64.20126201212406L157.86796875,74.48847136398155L158.3203125,69.96038721501827L158.77265624999998,68.33638714253901L159.225,58.380023553967476L159.67734375,66.9274390141169L160.1296875,63.79327653845151L160.58203125,55.89248951772848L161.034375,23.29253285129866L161.48671875,54.88537268340586L161.9390625,64.52202664315699L162.39140625000002,59.18430156012376L162.84375,69.4345565289259L163.29609375,75.78490057587622L163.74843750000002,34.072911779085814L164.20078125,50.07834301888944L164.65312500000002,54.637879421313585L165.10546875,74.98657160997391L165.55781249999998,75.06780678033829L166.01015625,76.22669007877509L166.46249999999998,57.30766508976616L166.91484375,57.971232175827026L167.3671875,71.50137912730375L167.81953124999998,52.55848471323648L168.271875,66.96644479036331L168.72421875,62.37207866211732L169.1765625,59.76453079779941L169.62890625,65.18938880662121L170.08125,76.64222907523315L170.53359375,70.46701539556184L170.9859375,64.44977364440759L171.43828125000002,65.991109897693L171.890625,67.64066446820894L172.34296875,45.0907980799675L172.79531250000002,71.00897882382073L173.24765625,64.45891699691613L173.70000000000002,73.16526414453982L174.15234375,64.07137219111124L174.60468749999998,58.91731273631254L175.05703125,71.17904664576054L175.50937499999998,61.314717347423226L175.96171875,69.80336771905421L176.4140625,66.06038837631542L176.86640624999998,77.11217394967873L177.31875,64.7355986535549L177.77109375,64.80287702381611L178.2234375,72.17806780338287L178.67578125,37.1205640733242L179.128125,72.27439536650975L179.58046875,69.47348171472548L180.0328125,43.377987335125596L180.48515625000002,66.73321603735286L180.9375,69.76242777208485L181.38984375,76.74118681748708L181.84218750000002,47.146279404560715L182.29453124999998,43.09968654314676L182.746875,60.00460241238275L183.19921875,50.873404408494636L183.65156249999998,61.22163538138071L184.10390625,70.5634894867738L184.55625,43.78460277120274L185.00859375,68.90961966415244L185.4609375,30.39089544614157L185.91328125,73.67122562229633L186.365625,66.34213990469772L186.81796875,62.28032277524471L187.2703125,49.05425090591113L187.72265625,66.97246709465979L188.175,72.72131335238613L188.62734375,58.12305725117524L189.0796875,59.72614776591459L189.53203125000002,60.95625104010104L189.984375,65.40934211512406L190.43671875,36.42141264180344L190.88906250000002,47.518702511986106L191.34140624999998,39.042697514096915L191.79375,52.1824789941311L192.24609375,-9.433679739634186L192.69843749999998,52.460435445109994L193.15078125,52.14205189545949L193.603125,57.98030959069729L194.05546875,60.192033812403665L194.5078125,56.750001177191734L194.96015625,44.29283543427786L195.4125,60.47301606833935L195.86484375,30.450253973404557L196.31718750000002,9.593563566605269L196.76953125,18.732740024725587L197.221875,31.114436477422714L197.67421875000002,60.5312609821558L198.1265625,48.07769250373045L198.57890625000002,42.97212651868662L199.03125,63.66921853522459L199.48359374999998,63.62108405927816L199.9359375,27.6911740899086L200.38828124999998,49.69131838778654L200.840625,75.76281146705149L201.29296875,41.557837441563606L201.74531249999998,69.2037235101064L202.19765625,47.23143420120081L202.65,56.55663538972534L203.10234375,39.25790331264338L203.5546875,38.500865961114556L204.00703125,43.366440922021866L204.459375,48.97045882046223L204.91171875,23.50618545214334L205.36406250000002,54.85152469575405L205.81640625,63.099641889333725L206.26875,33.87269580364227L206.72109375000002,28.865875095129013L207.1734375,70.83707207441329L207.62578125000002,70.96134254336357L208.078125,75.95318808158238L208.53046874999998,48.983455861608206L208.9828125,25.410772154728562L209.43515624999998,76.77145951986311L209.8875,49.94884149730207L210.33984375,29.85801675915718L210.79218749999998,39.80394754807156L211.24453125,41.37961533168951L211.696875,57.65940575798351L212.14921875,60.82305701076983L212.6015625,77.69571472207706L213.05390625,56.65752730270226L213.50625,58.36147309839724L213.95859375,59.36362995704013L214.41093750000002,65.49424048761526L214.86328125,42.482869242628425L215.315625,36.23060376942158L215.76796875000002,58.65682975947857L216.22031249999998,65.10118622581163L216.67265625,26.564343810081482L217.125,48.80163648724556L217.57734374999998,54.422959352533L218.0296875,69.79700840016204L218.48203125,43.28620214263597L218.934375,80.72214242319265L219.38671875,16.276987930138915L219.8390625,20.600064635276794L220.29140625,36.66018015642962L220.74375,28.26187167565027L221.19609375,76.60942143698531L221.6484375,42.93762648105621L222.10078125,57.88412855565548L222.553125,26.845619122187315L223.00546875,50.906204720338195L223.45781250000002,27.15375303228697L223.91015625,65.24314996103445L224.3625,60.52874069909254L224.81484375000002,55.47786632180214L225.26718749999998,71.27881029248238L225.71953125,50.61062826712927L226.171875,42.1358028203249L226.62421874999998,16.585165798664093L227.0765625,70.51597775518894L227.52890625,73.87199840446313L227.98125,71.65036888420582L228.43359375,78.55841347575188L228.8859375,61.983390937248856L229.33828125,53.70355041325092L229.790625,61.78448638816674L230.24296875000002,62.88130038976668L230.6953125,36.286628782749176L231.14765625,78.66272681951523L231.60000000000002,35.86639356116453L232.05234375,59.51808521151541L232.50468750000002,75.75510408977668L232.95703125,56.357818757494286L233.40937499999998,71.79247914751369L233.86171875,37.7097681562106L234.31406249999998,51.575991923610374L234.76640625,48.02726486325264L235.21875,51.36664724846682L235.67109374999998,61.373218685388565L236.1234375,51.201444158951446L236.57578125,39.80695870021978L237.028125,45.035828068852425L237.48046875,41.732279126842826L237.9328125,33.45898840824762L238.38515625,52.71900623043378L238.8375,30.76924561460814L239.28984375000002,68.20755232373871L239.7421875,40.45283984641236L240.19453125,33.59443897008896L240.64687500000002,32.760532985130936L241.09921875,54.55402872463067L241.55156250000002,34.81616816421351L242.00390625,75.23844606180984L242.45624999999998,71.6579883446296L242.90859375,60.17288991808891L243.36093749999998,43.70136749247709L243.81328125,9.615528126557678L244.265625,18.653600205977767L244.71796874999998,15.036144147316605L245.1703125,53.69179153442384L245.62265625,38.37471260627112L246.075,69.56828538576761L246.52734375,54.50681004921594L246.9796875,76.81161554157732L247.43203125,35.25121737519902L247.884375,38.628836264212936L248.33671875000002,-21.61981980999309L248.7890625,72.97550294796623L249.015234375,49.27379393577576L249.24140625,39.695216382543265L249.46757812500002,65.16112353901067L249.69375000000002,44.013567556937545L249.919921875,41.436688020825386L250.14609374999998,52.95405193169913L250.37226562499998,60.45546933015187L250.5984375,58.870694826046616L250.824609375,57.83581091960271L251.05078125,63.48964104056357L251.27695312499998,68.87064319352308L251.50312499999998,60.488379538059235L251.729296875,32.72756416598955L251.95546875,49.63800414403279L252.181640625,35.49753841261068L252.4078125,0.17450381318730024L252.63398437499998,49.16902635494867L252.86015625,43.773583859205246L253.086328125,11.702600906292588L253.3125,65.93641828993955L253.538671875,76.64967270195483L253.76484375,74.77927832802136L253.991015625,15.444810976584762L254.2171875,34.31616305311522L254.443359375,65.27993583679199L254.66953125,61.62967213988303L254.895703125,59.91337402661641L255.121875,51.79983555277188L255.348046875,64.33379666507244L255.57421875,45.145973230401665L255.800390625,17.903420368830382L256.0265625,42.929120525717735L256.252734375,60.6756131251653L256.47890624999997,57.228100339571625L256.705078125,16.246524741252273L256.93125,57.822799225648225L257.157421875,44.01306936144829L257.38359375,55.92654264469941L257.609765625,64.64026015500225L257.8359375,17.962134172519058" style="fill: none;" fill="none"></path></g><g><path stroke="rgb(255, 112, 67)" stroke-width="2px" d="M27.140625,-17.229354838530213L29.40234375,13.41897228360176L31.6640625,45.54743820428848L33.92578125,57.766210079193115L36.1875,34.964227467775345L38.44921875,55.679928551117555L40.7109375,59.98752456406751L42.97265625,78.14442767699559L45.234375,68.29468524952728L47.49609375,84.6785765538613L49.7578125,86.90542247394721L52.01953125,71.63421416282654L54.28125,55.16410573323567L56.54296875,14.200963368018478L58.8046875,78.78390554587045L61.06640625,77.84266773859659L63.328125,60.69178982575734L65.58984375,60.75039373338221L67.8515625,79.47639727592468L70.11328125,80.17303575078645L72.375,62.96164173881212L74.63671875,81.01511800289154L76.8984375,77.10097187757492L79.16015625,45.25499745210013L81.421875,62.39670270681381L83.68359375,43.61202199260393L85.9453125,59.63680226604143L88.20703125,68.97750612596668L90.46875,43.7443368534247L92.73046875,71.47355344394842L94.9921875,73.06594008207321L97.25390625,64.29856398701666L99.515625,50.699021334449455L101.77734375,84.35710126161575L104.0390625,59.78689098358154L106.30078125,80.73713957269986L108.5625,73.1482961922884L110.82421875,57.33373243610063L113.0859375,34.00353073080382L115.34765625,62.14818374812603L117.609375,70.47191676000752L119.87109375,72.40731099247931L122.1328125,73.09082055091856L124.39453125,73.80320346852143L126.65625,81.78037557999292L128.91796875,69.99913656711577L131.1796875,69.12491337954998L133.44140625,75.11874726911385L135.703125,76.9456228017807L136.15546875,68.91959090034166L136.6078125,48.04700952271622L137.06015625,79.748126283288L137.51250000000002,75.59012811879317L137.96484375,61.78029568493366L138.4171875,80.58312390247981L138.86953125000002,83.33022511502107L139.321875,82.20547553400198L139.77421875000002,62.4058533857266L140.2265625,67.28565622369447L140.67890624999998,85.8262870858113L141.13125,71.73800000548363L141.58359374999998,72.60738043983777L142.0359375,72.89124197264512L142.48828125,78.10046192506948L142.94062499999998,75.47905983030796L143.39296875,83.41193650166193L143.8453125,64.93029052019119L144.29765625,81.78113019963105L144.75,69.3223599741856L145.20234375,84.40344076852003L145.6546875,82.9679637302955L146.10703125,77.05604636669158L146.55937500000002,63.845264703035355L147.01171875,67.68499654034771L147.4640625,59.02590470016003L147.91640625000002,68.84429744382699L148.36874999999998,86.7302188426256L148.82109375,83.4361356149117L149.2734375,76.12497760852176L149.72578124999998,82.09772610664368L150.178125,81.82009201745191L150.63046875,74.5575740089019L151.0828125,82.3300537119309L151.53515625,74.40245937804382L151.9875,79.6933980435133L152.43984375,79.98217559357484L152.8921875,72.43415493766464L153.34453125,79.59504839281242L153.796875,82.08447996775308L154.24921875,81.31022556622823L154.7015625,50.87051047881444L155.15390625,80.76733901103337L155.60625000000002,83.75013797481853L156.05859375,67.52213790019353L156.5109375,61.31862964729467L156.96328125000002,68.81811287502447L157.41562499999998,68.22239561875661L157.86796875,77.76142524182796L158.3203125,67.34572541217008L158.77265624999998,72.18091777463752L159.225,74.20299802223842L159.67734375,74.5901765078306L160.1296875,77.82028557360172L160.58203125,80.72554187476634L161.034375,67.95186814169088L161.48671875,74.61214839418729L161.9390625,72.92316311597824L162.39140625000002,80.60774794717628L162.84375,76.59017497301102L163.29609375,78.46186612049738L163.74843750000002,78.77580986917019L164.20078125,78.69269181291263L164.65312500000002,83.12344468136628L165.10546875,84.94500857094923L165.55781249999998,79.96734695136547L166.01015625,69.05755441884197L166.46249999999998,71.36600915590921L166.91484375,75.03887480994065L167.3671875,73.31119146446385L167.81953124999998,75.03002451360226L168.271875,68.90765618781248L168.72421875,82.57339290281136L169.1765625,59.003639757633195L169.62890625,67.14565596481162L170.08125,75.26487972835699L170.53359375,72.73095490038395L170.9859375,77.80659252405167L171.43828125000002,86.38317439953485L171.890625,71.10055887699126L172.34296875,66.31791148583092L172.79531250000002,71.98077506323655L173.24765625,59.104451080163315L173.70000000000002,70.28463921447594L174.15234375,66.13680277268091L174.60468749999998,66.07857251167297L175.05703125,79.25015058616796L175.50937499999998,58.073611348867416L175.96171875,81.82721328238645L176.4140625,73.70932292441525L176.86640624999998,75.1704643567403L177.31875,50.39824313422045L177.77109375,67.11748594045639L178.2234375,79.13218082487583L178.67578125,68.36356810232003L179.128125,55.59026068945725L179.58046875,70.29010471204916L180.0328125,54.46212630967297L180.48515625000002,71.04264365136623L180.9375,55.375838816165924L181.38984375,60.343529199560464L181.84218750000002,77.44242627422014L182.29453124999998,68.395196189483L182.746875,45.21649719774723L183.19921875,35.05657679339251L183.65156249999998,50.748643070459366L184.10390625,82.08123437066872L184.55625,52.98753359913826L185.00859375,75.73644373814265L185.4609375,41.13162387410799L185.91328125,48.16922127207121L186.365625,66.98336878418922L186.81796875,60.96412692467371L187.2703125,61.638163442413L187.72265625,48.24133506913981L188.175,80.71966609855492L188.62734375,54.49524165689945L189.0796875,68.12204585969448L189.53203125000002,61.87817644576231L189.984375,70.10148643453915L190.43671875,59.55306879182655L190.88906250000002,37.705328355232865L191.34140624999998,54.40383011102675L191.79375,78.59771963457266L192.24609375,53.20486405491829L192.69843749999998,51.34847776591778L193.15078125,73.912982309858L193.603125,64.98134090503056L194.05546875,62.82724617918332L194.5078125,68.62173593540984L194.96015625,72.71919602155684L195.4125,16.832182844479888L195.86484375,57.583518862724304L196.31718750000002,68.14651604990163L196.76953125,62.502122337619454L197.221875,35.6920031607151L197.67421875000002,73.76529665291308L198.1265625,40.506828119357436L198.57890625000002,48.020150924722344L199.03125,54.96141343315442L199.48359374999998,26.069679647684097L199.9359375,51.301749959588065L200.38828124999998,46.29263608654341L200.840625,50.1186016102632L201.29296875,28.356118539969145L201.74531249999998,72.40488595267136L202.19765625,35.034619559844344L202.65,33.39570292830467L203.10234375,69.63522674143313L203.5546875,43.33579457302889L204.00703125,68.6027019371589L204.459375,44.99110037088394L204.91171875,49.31051387389502L205.36406250000002,61.9587302605311L205.81640625,42.00594963133335L206.26875,45.251290291547775L206.72109375000002,44.06926288207373L207.1734375,47.081440726915986L207.62578125000002,75.9555398573478L208.078125,51.14601258436839L208.53046874999998,62.06099953750768L208.9828125,36.75757004817328L209.43515624999998,61.47830130159855L209.8875,67.79310496151447L210.33984375,67.70806738734244L210.79218749999998,63.94916776816048L211.24453125,1.3624949157238007L211.696875,21.35008329153061L212.14921875,55.610884517431245L212.6015625,56.09371653695899L213.05390625,56.18408773342766L213.50625,72.25695852438608L213.95859375,64.7782676319281L214.41093750000002,25.040832698345184L214.86328125,61.72616821030775L215.315625,57.847262089451135L215.76796875000002,58.215597063302994L216.22031249999998,51.19076226154964L216.67265625,45.784755090872466L217.125,62.99228808780511L217.57734374999998,15.653628150622069L218.0296875,58.448862448334694L218.48203125,61.58075373868145L218.934375,71.46177258590855L219.38671875,58.97483966251214L219.8390625,65.88372679054737L220.29140625,61.52547601858774L220.74375,62.34861951569715L221.19609375,36.11911054948965L221.6484375,24.479468951622636L222.10078125,53.25182630618414L222.553125,59.72192775706449L223.00546875,45.51690907776356L223.45781250000002,-25.077164630095155L223.91015625,52.99266940852007L224.3625,60.41606060167152L224.81484375000002,55.47882608075936L225.26718749999998,84.47173750897248L225.71953125,55.0265598197778L226.171875,50.20275268952052L226.62421874999998,21.891226162513107L227.0765625,61.07567875583966L227.52890625,25.324979960918427L227.98125,61.11526331802207L228.43359375,53.16291306416194L228.8859375,55.419819220900536L229.33828125,62.982060427467005L229.790625,52.946696221828475L230.24296875000002,68.32360989352067L230.6953125,73.14902883271375L231.14765625,60.36826314032078L231.60000000000002,39.77211432158947L232.05234375,47.14255026479563L232.50468750000002,72.20740272601445L232.95703125,31.620222121477127L233.40937499999998,80.98348258932431L233.86171875,75.96906439960001L234.31406249999998,32.913728098074614L234.76640625,41.73885091145834L235.21875,41.29509060581526L235.67109374999998,71.40566698213418L236.1234375,64.94502391914524L236.57578125,83.29847247898579L237.028125,38.93147537112236L237.48046875,36.946268916130066L237.9328125,62.90884766976038L238.38515625,72.79051856696606L238.8375,52.12131084501743L239.28984375000002,55.33578536411126L239.7421875,72.12889297803241L240.19453125,63.88629989326L240.64687500000002,52.270036851366356L241.09921875,66.42041520774364L241.55156250000002,48.280780429641396L242.00390625,72.153722162048L242.45624999999998,46.76268353064856L242.90859375,50.57338082790375L243.36093749999998,58.98053960502148L243.81328125,60.188150818149225L244.265625,67.98445598781109L244.71796874999998,67.42610339323679L245.1703125,77.81505452096461L245.62265625,52.77459898591043L246.075,60.57089682916799L246.52734375,69.55916401247183L246.9796875,68.83337377508481L247.43203125,59.362772767742456L247.884375,52.867629667123154L248.33671875000002,21.497475892305374L248.7890625,81.67103632291158L249.015234375,60.64022659262021L249.24140625,56.74368581672509L249.46757812500002,66.27279548843701L249.69375000000002,74.48737972974776L249.919921875,30.771135826905578L250.14609374999998,53.478197544813156L250.37226562499998,62.615088164806366L250.5984375,45.768153458833694L250.824609375,39.506935119628906L251.05078125,58.86165404319763L251.27695312499998,64.72331227362156L251.50312499999998,52.93878370523454L251.729296875,64.1775317887465L251.95546875,39.38788105050725L252.181640625,55.07108237842718L252.4078125,35.877654244502395L252.63398437499998,35.83420866727829L252.86015625,42.97765062749386L253.086328125,51.14815189441046L253.3125,38.06488629678884L253.538671875,73.91503370304902L253.76484375,55.20264994601408L253.991015625,22.157233248154313L254.2171875,70.05665616691113L254.443359375,57.91472361981869L254.66953125,57.24629180133343L254.895703125,56.074609274665505L255.121875,70.62715593973795L255.348046875,53.356725762287766L255.57421875,33.4991517563661L255.800390625,57.08703775207199L256.0265625,28.930332799752563L256.252734375,73.81615655124187L256.47890624999997,79.73326100905736L256.705078125,61.50532840689023L256.93125,63.53003150721389L257.157421875,35.70146887501082L257.38359375,58.88616086542606L257.609765625,74.05097513397533L257.8359375,62.77757315834363" style="fill: none;" fill="none"></path></g><g><path stroke="rgb(51, 187, 238)" stroke-width="2px" d="M28.0453125,-24.758788406848907L28.49765625,4.291811128457397L28.950000000000003,13.69482605655989L29.40234375,9.126930226882308L29.8546875,13.851816246906935L30.307031249999998,9.912452638149261L30.759375,40.8639830003182L31.211718750000003,-24.34839254617691L31.6640625,45.45075164735317L32.11640625,53.82359354694684L32.56875,55.090812385082245L33.02109375,52.38787473738195L33.4734375,57.793500935037926L33.92578125,48.03818853199482L34.378125000000004,60.63600658377011L34.83046875,69.70799991488457L35.2828125,56.98680521547793L35.735156249999996,64.24883235494295L36.1875,29.735284835100174L36.639843750000004,45.08783821264902L37.092187499999994,70.96699852744737L37.54453125,62.40409504870573L37.996875,63.16810713708401L38.44921875,46.1487088749806L38.901562500000004,58.72236444552739L39.353906249999994,48.782455960909516L39.80625,45.3068830470244L40.25859375,64.5973933637142L40.7109375,58.010999898115784L41.163281250000004,66.93552736441293L41.615624999999994,65.22622596720853L42.06796875,66.460893591245L42.5203125,64.94577853878337L42.97265625,68.86006386578082L43.425000000000004,44.914861808220536L43.877343749999994,68.4305973748366L44.3296875,73.01127045353252L44.78203125,76.0262616376082L45.234375,59.7719304660956L45.68671875,67.57422130803265L46.1390625,71.65273531277974L46.59140625,66.18443172673383L47.04375,52.86795935531457L47.49609375,80.52650545040765L47.9484375,62.462772220373154L48.40078125,82.15059343973796L48.853125,52.81625692049663L49.30546875,76.94867791235447L49.7578125,83.09621976315975L50.21015625,78.92871192594367L50.6625,77.19727013508478L51.11484375,72.54745777944723L51.5671875,-14.456193606058747L52.01953125,64.6211162606875L52.471875,75.54610375563303L52.92421875,71.70137531061967L53.3765625,62.05323354899883L53.82890625,55.12279213964939L54.28125,53.325742398699134L54.73359375,77.33773928383987L55.1859375,84.61548888683319L55.63828125,71.3356045782566L56.090625,70.32417249182859L56.54296875,13.052197833855956L56.9953125,70.69443430999914L57.44765625,69.20810469985008L57.900000000000006,52.11640948057176L58.352343749999996,65.29233211278915L58.8046875,69.8088551958402L59.25703125,81.65310861170292L59.709375,42.35967575510344L60.161718750000006,72.75961579382418L60.614062499999996,52.292638808488846L61.06640625,73.12855153282483L61.51875,44.69594884912172L61.97109375,39.51799066364765L62.423437500000006,74.01183015604813L62.875781249999996,74.9082303692897L63.328125,54.67133178313573L63.78046875,60.91970693568388L64.2328125,42.97392881413302L64.68515625,60.057850718498216L65.1375,51.43578652540843L65.58984375,61.28651801745096L66.0421875,75.29212662577629L66.49453125,57.170573413372026L66.946875,11.937265634536743L67.39921875,70.00089490413666L67.8515625,71.01848117013772L68.30390625,57.638298387328774L68.75625000000001,62.501419002811105L69.20859375,71.10254433254399L69.6609375,50.13433872660002L70.11328125,70.04198870559533L70.565625,64.51200412213801L71.01796875,17.397561460733414L71.47031249999999,63.55362985531488L71.92265625,51.54385098814964L72.375,58.33422620097795L72.82734375,61.07364201545715L73.27968750000001,48.366059775153786L73.73203125,73.39202368259429L74.18437499999999,67.33736598491667L74.63671875,75.8238623936971L75.0890625,52.823143740495055L75.54140625,58.154428914189324L75.99375,50.25884364048639L76.44609375,62.84321041405201L76.8984375,71.2274741778771L77.35078125,53.23893916110198L77.80312500000001,49.53116319080195L78.25546875,57.401223272085176L78.70781249999999,51.46079154312612L79.16015625,35.76454188923043L79.6125,54.88951942821343L80.06484375,67.18529913822809L80.5171875,77.20307997365792L80.96953125,53.904821390906974L81.421875,59.68234319488205L81.87421875000001,69.94184408585228L82.32656250000001,69.69376471141973L82.77890624999999,40.31588004529476L83.23124999999999,63.939841255545616L83.68359375,34.62261189023653L84.1359375,54.625549082954706L84.58828125,60.86654654641944L85.040625,68.51416234175362L85.49296875,66.5246919194857L85.9453125,53.27454548577468L86.39765625000001,50.969658707578986L86.85000000000001,74.96468764046827L87.30234374999999,56.351869717240334L87.75468749999999,59.38620260854562L88.20703125,59.61584142347175L88.659375,60.71801835298537L89.11171875,66.81368193527062L89.5640625,66.77491060396035L90.01640625,45.23624918361506L90.46875,49.18199409047763L90.92109375000001,68.16408476730187L91.3734375,54.506883313258484L91.82578124999999,62.730713476737336L92.278125,54.54239439467588L92.73046875,64.82406498491764L93.1828125,33.16306028763452L93.63515625,58.272581835587815L94.0875,63.99293570717175L94.53984375,58.01472171147664L94.9921875,64.27992561459541L95.44453125000001,64.1915691792965L95.896875,64.55025527874626L96.34921874999999,46.73727556069693L96.8015625,71.05315704147019L97.25390625,56.13328644633293L97.70625,71.78473513821758L98.15859375000001,77.63297872245312L98.6109375,44.94372051457566L99.06328125,68.94937273363271L99.515625,51.331509813666344L99.96796875,51.058769762516036L100.4203125,70.3590315232674L100.87265624999999,73.69914654890695L101.325,48.58657721678418L101.77734375,79.15753018359342L102.2296875,69.61280794441699L102.68203125000001,56.11874353388943L103.134375,62.19419356683889L103.58671875,57.52775027354558L104.0390625,55.410983577370644L104.49140625,64.88832487662633L104.94375,59.694021483262375L105.39609374999999,75.88890621066093L105.8484375,68.35373606781162L106.30078125,74.84476905564468L106.753125,73.19399097561836L107.20546875000001,63.09262319405873L107.6578125,70.15715245405832L108.11015624999999,54.45044069488843L108.5625,67.07759366929531L109.01484375,64.28772823512554L109.4671875,73.77961244682471L109.91953125,74.0124968588352L110.371875,71.96240776777267L110.82421875,62.353806609908716L111.2765625,67.14108428855737L111.72890625000001,64.50246514379978L112.18125,52.61333750188351L112.63359374999999,60.21135354042052L113.0859375,38.8317776620388L113.53828125,61.9302818328142L113.990625,65.65821274121602L114.44296875,73.77775886654852L114.8953125,63.982070649663584L115.34765625,56.79559339086212L115.80000000000001,71.255431736509L116.25234375000001,74.75479348500568L116.70468749999999,71.22178888817626L117.15703124999999,72.98735707004865L117.609375,65.0406921058893L118.06171875,67.34823104242483L118.5140625,61.98919344941774L118.96640625,73.15275064607461L119.41875,70.19280273715653L119.87109375,67.97873406608899L120.32343750000001,71.30038655300933L120.77578125000001,60.414888376990945L121.22812499999999,60.02371700108051L121.68046874999999,78.2523675908645L122.1328125,68.40853757162888L122.58515625,58.798236687978104L123.0375,63.659335215886415L123.48984375,76.93309465050697L123.9421875,62.53720116118589L124.39453125,67.03573792179424L124.84687500000001,80.64270954827467L125.29921875,75.46063392361005L125.75156249999999,63.19996234277883L126.20390625,71.94069230556488L126.65625,78.16406976679961L127.10859375,66.71503922839959L127.5609375,73.69756404558817L128.01328125,44.45745241145292L128.465625,61.514581655462564L128.91796875,67.69573704898356L129.3703125,69.72186147173245L129.82265625,70.50383057693638L130.275,67.08278808991112L130.72734375000002,74.5717359483242L131.1796875,65.5336345632871L131.63203124999998,63.6001525223255L132.084375,82.25682630141576L132.53671875,60.36016013721624L132.9890625,65.21193947891392L133.44140625,68.87766921520232L133.89375,58.659445285797105L134.34609375,72.22755766411622L134.7984375,58.952831144134194L135.25078125000002,50.49436555802822L135.703125,67.8980850080649L135.929296875,73.87319260835648L136.15546875,62.96963484585285L136.381640625,61.320695693294184L136.6078125,42.601439769069344L136.833984375,75.32576214770475L137.06015625,72.58644157648087L137.286328125,79.30819036066532L137.51250000000002,73.88688565790652L137.738671875,62.93361824254194L137.96484375,55.43448668221632L138.191015625,68.11011847356954L138.4171875,74.15733254452545L138.64335937500002,69.68114864329496L138.86953125000002,77.6891136318445L139.095703125,60.68776030341782L139.321875,74.75529168049495L139.548046875,68.25225804249443L139.77421875000002,56.369980588555336L140.00039062500002,74.4772912710905L140.2265625,62.08515469233194L140.45273437499998,62.41622757414976L140.67890624999998,78.85899386306603L140.905078125,67.36868636310099L141.13125,66.92696279784043L141.357421875,66.62299761176108L141.58359374999998,67.05127722521623L141.80976562499998,71.44017434616882L142.0359375,67.07409897446632L142.262109375,70.55600190162659L142.48828125,72.62712509930134L142.714453125,65.26602299511433L142.94062499999998,73.30796052018799L143.166796875,80.10791134337585L143.39296875,80.82921782135963L143.619140625,75.89881150921184L143.8453125,60.69779015084107L144.071484375,73.34272430837154L144.29765625,74.54322890937327L144.523828125,77.72731350362301L144.75,65.66918769478798L144.976171875,63.892248933513955L145.20234375,76.35178110500176L145.42851562500002,70.26816945771374L145.6546875,74.39896468321483L145.880859375,64.32179601490498L146.10703125,69.87072667976219L146.333203125,74.29220432043074L146.55937500000002,56.22943817575772L146.78554687500002,65.61134573320547L147.01171875,60.386322726805986L147.237890625,69.45477740466595L147.4640625,55.357303013404206L147.69023437500002,75.19634121656416L147.91640625000002,63.723521843552575L148.142578125,74.22713119784991L148.36874999999998,78.44257569809754L148.59492187499998,71.10649326443671L148.82109375,77.15260837475458L149.047265625,67.48508827388287L149.2734375,71.0160194983085L149.49960937499998,76.2539149969816L149.72578124999998,73.49673265218733L149.951953125,63.430275186896324L150.178125,72.69150221347807L150.404296875,69.27975693345068L150.63046875,68.3279178192218L150.85664062499998,65.31823827823003L151.0828125,76.27504434684911L151.308984375,76.11381216843922L151.53515625,68.78967910011608L151.761328125,78.53878603875636L151.9875,71.95408497254053L152.213671875,72.52511224647361L152.43984375,71.65011978646118L152.666015625,77.54020446538925L152.8921875,64.48470593988894L153.118359375,75.59790876011054L153.34453125,75.60179175436495L153.570703125,78.78289450208347L153.796875,73.31087642908096L154.023046875,66.21007414162159L154.24921875,75.37016748388608L154.47539062500002,76.64213383197784L154.7015625,46.83434309065342L154.927734375,74.54552940030892L155.15390625,75.68973058462143L155.380078125,64.65266375740369L155.60625000000002,76.21276258428891L155.83242187500002,78.99177028735478L156.05859375,62.69359791278839L156.284765625,69.347760617733L156.5109375,61.427492688099534L156.73710937500002,72.43449195226033L156.96328125000002,66.34755411744118L157.189453125,67.43234548966089L157.41562499999998,65.62505343556404L157.64179687499998,74.68326580027738L157.86796875,72.68005104362965L158.094140625,72.45261747638382L158.3203125,61.208836153149605L158.54648437499998,75.28965030113856L158.77265624999998,67.46628872056802L158.998828125,81.16681120296319L159.225,68.3324675162633L159.451171875,74.01791839798291L159.67734375,73.86532405018805L159.90351562499998,70.30932187040646L160.1296875,72.40632925430931L160.355859375,68.34745733936627L160.58203125,75.6812319556872L160.808203125,50.0668112585942L161.034375,64.26275252302487L161.260546875,63.40895535051823L161.48671875,65.50742801527181L161.712890625,70.3594271490971L161.9390625,68.61624113221963L162.165234375,76.64623661835988L162.39140625000002,73.46733179191746L162.617578125,60.3629954556624L162.84375,72.28548021614552L163.069921875,70.696163341403L163.29609375,74.39674478272596L163.52226562500002,69.9656915316979L163.74843750000002,72.44055821498235L163.974609375,69.70924540360767L164.20078125,74.3604058176279L164.426953125,67.40156726539135L164.65312500000002,74.62548977633315L164.87929687500002,83.13353314002354L165.10546875,78.70817250510056L165.33164062499998,77.9464022964239L165.55781249999998,75.59518333772817L165.783984375,47.58405403792858L166.01015625,64.9250081827243L166.236328125,71.36671249071756L166.46249999999998,68.37139270206292L166.68867187499998,69.42918627460797L166.91484375,69.75633220374584L167.141015625,76.0296903947989L167.3671875,69.04396393895148L167.593359375,78.03917655348776L167.81953124999998,68.60561051964758L168.045703125,61.167244156201676L168.271875,65.24732601145902L168.498046875,69.90751255551973L168.72421875,76.41606297592323L168.950390625,66.726461092631L169.1765625,59.643132279316575L169.402734375,75.9968681037426L169.62890625,63.91660190125306L169.855078125,74.73036725322406L170.08125,67.93681238094963L170.307421875,67.71086607376733L170.53359375,64.57117948929468L170.759765625,72.44948177536327L170.9859375,72.9016601194938L171.212109375,74.72755391399065L171.43828125000002,79.73040371139844L171.664453125,55.56040559212366L171.890625,67.17790679633617L172.116796875,55.358204161127404L172.34296875,63.72877487540245L172.56914062500002,64.34705013036728L172.79531250000002,66.02155110736686L173.021484375,68.23233022292455L173.24765625,57.707232524951294L173.473828125,67.76871536175409L173.70000000000002,64.5323935051759L173.92617187500002,65.60963868101436L174.15234375,60.63564758996168L174.37851562499998,72.82998590668042L174.60468749999998,61.00237808128196L174.830859375,62.40842495361963L175.05703125,71.18969923754533L175.283203125,59.66092078884442L175.50937499999998,55.40360588828722L175.73554687499998,65.67077752451101L175.96171875,75.51669556895891L176.187890625,58.30607082943121L176.4140625,68.07451214889684L176.640234375,55.56469886501628L176.86640624999998,70.44150485595067L177.092578125,54.44707787533601L177.31875,46.27848879992962L177.544921875,75.25961204369861L177.77109375,59.87460269530614L177.997265625,73.46513387064138L178.2234375,74.98293771346408L178.449609375,80.3806587209304L178.67578125,67.56479955216248L178.901953125,73.45495749513307L179.128125,54.30100402732688L179.35429687500002,51.59109896918139L179.58046875,66.7165045092503L179.806640625,62.329666107892976L180.0328125,51.43847531576952L180.258984375,60.27589916189511L180.48515625000002,68.21978009243804L180.71132812500002,51.5357040266196L180.9375,55.09493715067704L181.163671875,54.59740103781223L181.38984375,54.127947032451615L181.61601562500002,58.81671387950577L181.84218750000002,75.96724012494087L182.068359375,64.10084631542364L182.29453124999998,67.19724117716153L182.52070312499998,62.32677950461705L182.746875,46.2757926831643L182.973046875,58.95497045417626L183.19921875,33.47129676739377L183.42539062499998,70.750005086263L183.65156249999998,48.14318323135376L183.877734375,57.96469702323276L184.10390625,77.98475602269173L184.330078125,60.188209429383264L184.55625,49.29902607202531L184.78242187499998,63.813578004638345L185.00859375,70.6808804621299L185.234765625,31.64949843287468L185.4609375,41.86151689787707L185.687109375,57.39572846889496L185.91328125,43.8537640273571L186.139453125,42.41504139204821L186.365625,61.66458978255588L186.591796875,61.727662796775476L186.81796875,59.722858210404695L187.044140625,62.882992789149284L187.2703125,60.4319002876679L187.496484375,51.998849997917816L187.72265625,53.07967778543632L187.948828125,63.933350061376885L188.175,77.17181820670763L188.40117187500002,31.63557826479277L188.62734375,51.54793179531893L188.853515625,73.12893250584601L189.0796875,66.32873258491357L189.305859375,52.77210800846419L189.53203125000002,59.795323674877466L189.75820312500002,50.14576059083143L189.984375,66.00579933822155L190.210546875,72.59669121603169L190.43671875,53.276186600327506L190.66289062500002,82.15320163965225L190.88906250000002,35.08841001987457L191.115234375,54.45446289082368L191.34140624999998,51.05976615349452L191.56757812499998,51.3262860874335L191.79375,76.25703604519367L192.019921875,20.325353781382233L192.24609375,50.60780027508736L192.47226562499998,62.91242295503615L192.69843749999998,46.00932403405508L192.924609375,74.74483690162498L193.15078125,66.293880879879L193.376953125,37.667165115475655L193.603125,64.44396380583443L193.82929687499998,47.04427387813726L194.05546875,59.118429859479264L194.281640625,29.306836714347213L194.5078125,66.09373084207375L194.733984375,65.43661099175611L194.96015625,69.57660818099974L195.186328125,40.116074348489434L195.4125,10.882512519756972L195.638671875,30.513114521900803L195.86484375,50.12769367794195L196.091015625,51.75510785480341L196.31718750000002,68.56782825291155L196.543359375,53.05142717063427L196.76953125,61.118516241510704L196.995703125,60.27235318223633L197.221875,38.138465374708176L197.44804687500002,61.587369481722504L197.67421875000002,68.16378438472748L197.900390625,62.168433929483086L198.1265625,37.63813057541847L198.352734375,41.37805480758348L198.57890625000002,39.37656175593534L198.80507812500002,51.01714113354683L199.03125,53.552773013710976L199.25742187499998,33.67624559998512L199.48359374999998,18.404180099566787L199.709765625,46.51034751534462L199.9359375,47.959656804800034L200.162109375,50.14886698623499L200.38828124999998,43.572503368059785L200.61445312499998,68.68623027205467L200.840625,52.185380250215545L201.066796875,50.01329187552133L201.29296875,24.114833811918885L201.519140625,81.51821485658485L201.74531249999998,66.76321766277152L201.971484375,34.27824158469838L202.19765625,42.511156489451736L202.423828125,61.406802922487245L202.65,25.872159789005906L202.876171875,73.21245351433754L203.10234375,63.14985706408818L203.328515625,57.53706213335194L203.5546875,37.33052416642508L203.780859375,70.57026641070843L204.00703125,64.01834367712338L204.233203125,57.32029581069946L204.459375,34.83605202535787L204.685546875,52.5394873470068L204.91171875,51.180300156275436L205.137890625,45.5036409596602L205.36406250000002,55.381765877207116L205.590234375,59.00018169482547L205.81640625,36.87038934727511L206.042578125,59.57537036637464L206.26875,46.65664115548134L206.49492187500002,51.647563566764205L206.72109375000002,45.63994138439497L206.947265625,37.02348921696347L207.1734375,41.281756550073624L207.399609375,35.87179312109947L207.62578125000002,71.64233181873956L207.85195312500002,38.80932223300138L208.078125,51.70084117849669L208.30429687499998,68.00880895555018L208.53046874999998,58.12768753866354L208.756640625,75.62848184506097L208.9828125,32.80211765567461L209.208984375,45.44841452439627L209.43515624999998,55.17438467840351L209.66132812499998,43.787504027287184L209.8875,60.59463437894979L210.113671875,70.32276582221188L210.33984375,62.72921889026958L210.566015625,43.37312992910543L210.79218749999998,63.7427536547184L211.018359375,55.53480713566144L211.24453125,1.9326943059762414L211.470703125,46.063905745744705L211.696875,25.579162230094283L211.923046875,50.31116149326165L212.14921875,49.783110906680434L212.375390625,53.38759190340838L212.6015625,54.913601318995134L212.827734375,7.849864701429993L213.05390625,51.79093397160371L213.28007812500002,70.5824209153652L213.50625,69.5105386674404L213.732421875,64.9000251442194L213.95859375,63.12233908971149L214.184765625,42.52388245364031L214.41093750000002,22.32316165169081L214.63710937500002,60.817305783430726L214.86328125,59.59290977815786L215.089453125,50.399803658326476L215.315625,51.87548067669074L215.54179687500002,61.87972964346409L215.76796875000002,53.81462602814038L215.994140625,53.71127244333425L216.22031249999998,47.47848055263361L216.44648437499998,81.78197273612022L216.67265625,42.2181735833486L216.898828125,73.16754998266697L217.125,62.52708339691161L217.35117187499998,30.77733396490416L217.57734374999998,10.865559220314026L217.803515625,46.68748531738916L218.0296875,53.506059860189765L218.255859375,58.012018268307045L218.48203125,59.09982079267502L218.70820312499998,49.288065771261856L218.934375,69.66627604266007L219.160546875,15.937702149152756L219.38671875,57.032719790935516L219.612890625,53.42030429840088L219.8390625,64.52233435213566L220.065234375,62.85332817832628L220.29140625,54.30029336611429L220.517578125,59.50525667766729L220.74375,63.46747866769631L220.969921875,59.51608510315418L221.19609375,36.55929556985697L221.422265625,66.09812668462594L221.6484375,24.783045838276536L221.874609375,77.93695856134096L222.10078125,50.575329651435226L222.32695312500002,42.068443859616934L222.553125,56.433581103881195L222.779296875,57.138725534081445L223.00546875,38.04019631445408L223.231640625,58.64008892575899L223.45781250000002,-28.45542824268341L223.68398437500002,56.32047607501346L223.91015625,47.15537879864374L224.136328125,65.98242078224816L224.3625,57.00749498109022L224.58867187500002,44.1867344478766L224.81484375000002,51.51484575370948L225.041015625,61.59835176169871L225.26718749999998,84.08244901895523L225.49335937499998,58.36697522799173L225.71953125,48.0886234988769L225.945703125,77.38000530997913L226.171875,52.574133912722274L226.39804687499998,57.55723172426222L226.62421874999998,21.71870399514836L226.850390625,77.76922786235808L227.0765625,51.76384092867376L227.302734375,29.311642835537583L227.52890625,20.403130888938904L227.75507812499998,55.976274276773125L227.98125,54.33878629406291L228.207421875,63.902286107341425L228.43359375,50.17309540510179L228.659765625,43.19386014342308L228.8859375,48.637026836474746L229.112109375,45.55213442941508L229.33828125,59.66070832312106L229.564453125,68.98648097117741L229.790625,54.74454454084237L230.016796875,67.87428884704907L230.24296875000002,68.83195977906385L230.469140625,44.48507295548916L230.6953125,62.49223169187704L230.921484375,74.90441331267357L231.14765625,54.97742895285286L231.37382812500002,47.18524122238159L231.60000000000002,35.904490863283485L231.826171875,39.03063825269541L232.05234375,41.09347528715929L232.278515625,38.815044154723495L232.50468750000002,67.62126414974529L232.73085937500002,70.35374918580054L232.95703125,33.1555580496788L233.18320312499998,33.147879978020995L233.40937499999998,78.9638420343399L233.635546875,54.67142702639103L233.86171875,70.29137217998503L234.087890625,30.496659417947143L234.31406249999998,24.208729008833558L234.54023437499998,49.86840490500133L234.76640625,37.02015570302805L234.992578125,3.546642551819474L235.21875,35.47398402293524L235.444921875,58.39907220502694L235.67109374999998,62.25103913744289L235.897265625,37.345704476038605L236.1234375,64.09486796955267L236.349609375,14.252848962942778L236.57578125,79.76999559998512L236.801953125,62.39942080279191L237.028125,35.972025657693536L237.254296875,45.85955767830214L237.48046875,30.608137985070556L237.706640625,68.62281291683514L237.9328125,61.047552689909935L238.158984375,55.60714072485764L238.38515625,68.93257328867912L238.611328125,58.19437979658444L238.8375,54.22954228023687L239.063671875,59.759270439545304L239.28984375000002,51.49825877447924L239.516015625,29.056801189978927L239.7421875,67.71045579512914L239.968359375,79.05244756738345L240.19453125,59.16590495904286L240.42070312500002,65.48475279410678L240.64687500000002,48.22713649769625L240.873046875,63.1744591295719L241.09921875,60.09948667387167L241.325390625,79.92709568639596L241.55156250000002,45.49298836787543L241.77773437500002,37.82675617933273L242.00390625,70.307373046875L242.23007812499998,65.54838994145393L242.45624999999998,44.158073554436385L242.682421875,66.55382902920245L242.90859375,48.42352076371512L243.134765625,44.010527099172265L243.36093749999998,56.59880617260933L243.58710937499998,51.51000300049782L243.81328125,55.35109022259711L244.039453125,58.11082948247591L244.265625,65.71276514728862L244.491796875,78.77500396470228L244.71796874999998,67.7267863502105L244.944140625,42.77424033979577L245.1703125,73.6548877408107L245.396484375,61.37968790034452L245.62265625,52.64505350589752L245.848828125,60.226892843842506L246.075,53.84303782383601L246.301171875,61.827624256412165L246.52734375,65.76050399740535L246.753515625,57.41334847112496L246.9796875,65.1326897641023L247.20585937500002,60.438545336325944L247.43203125,51.488250906268746L247.658203125,59.0777902950843L247.884375,50.81562838455042L248.110546875,82.24369738499324L248.33671875000002,21.918319205443055L248.56289062500002,62.27970735728741L248.7890625,81.21005164086817L249.015234375,60.92602962255478L249.24140625,52.305892273783684L249.46757812500002,67.29488016664982L249.69375000000002,72.01783201595147L249.919921875,26.540972580512374L250.14609374999998,48.415263906121254L250.37226562499998,65.32736697793007L250.5984375,44.80815273026627L250.824609375,34.99039005736509L251.05078125,56.625752687454224L251.27695312499998,60.75649662812549L251.50312499999998,48.08882863819599L251.729296875,61.10024418930212L251.95546875,41.092251777648926L252.181640625,53.86137581368287L252.4078125,40.36380205551782L252.63398437499998,30.88796266913414L252.86015625,38.26232556502026L253.086328125,45.91429324448109L253.3125,28.57223281264305L253.538671875,70.94416945179303L253.76484375,51.338433265686035L253.991015625,19.29789884885153L254.2171875,66.1698155502478L254.443359375,48.92603150506815L254.66953125,52.248980765541404L254.895703125,52.94614674150944L255.121875,65.71514622867107L255.348046875,51.01969804863134L255.57421875,43.68169609705606L255.800390625,57.2341079910596L256.0265625,25.80109366774559L256.252734375,71.6456287006537L256.47890624999997,77.57573019961515L256.705078125,54.30186121662456L256.93125,60.14320332805315L257.157421875,29.532416701316833L257.38359375,56.53896410266556L257.609765625,65.90577926735082L257.8359375,61.401593849062905" style="fill: none;" fill="none"></path></g></g></g></g></g></g><g transform="translate(58, 177)" clip-path="url(#clip_1)"><clipPath id="clip_1"><rect width="271" height="23"></rect></clipPath><g><g><line x1="0" y1="0" x2="0" y2="5" style="visibility: inherit;" fill="rgb(0, 0, 0)" stroke="rgb(204, 204, 204)" stroke-width="1px"></line><line x1="22.6171875" y1="0" x2="22.6171875" y2="5" style="visibility: inherit;" fill="rgb(0, 0, 0)" stroke="rgb(204, 204, 204)" stroke-width="1px"></line><line x1="45.234375" y1="0" x2="45.234375" y2="5" style="visibility: inherit;" fill="rgb(0, 0, 0)" stroke="rgb(204, 204, 204)" stroke-width="1px"></line><line x1="67.8515625" y1="0" x2="67.8515625" y2="5" style="visibility: inherit;" fill="rgb(0, 0, 0)" stroke="rgb(204, 204, 204)" stroke-width="1px"></line><line x1="90.46875" y1="0" x2="90.46875" y2="5" style="visibility: inherit;" fill="rgb(0, 0, 0)" stroke="rgb(204, 204, 204)" stroke-width="1px"></line><line x1="113.0859375" y1="0" x2="113.0859375" y2="5" style="visibility: inherit;" fill="rgb(0, 0, 0)" stroke="rgb(204, 204, 204)" stroke-width="1px"></line><line x1="135.703125" y1="0" x2="135.703125" y2="5" style="visibility: inherit;" fill="rgb(0, 0, 0)" stroke="rgb(204, 204, 204)" stroke-width="1px"></line><line x1="158.3203125" y1="0" x2="158.3203125" y2="5" style="visibility: inherit;" fill="rgb(0, 0, 0)" stroke="rgb(204, 204, 204)" stroke-width="1px"></line><line x1="180.9375" y1="0" x2="180.9375" y2="5" style="visibility: inherit;" fill="rgb(0, 0, 0)" stroke="rgb(204, 204, 204)" stroke-width="1px"></line><line x1="203.5546875" y1="0" x2="203.5546875" y2="5" style="visibility: inherit;" fill="rgb(0, 0, 0)" stroke="rgb(204, 204, 204)" stroke-width="1px"></line><line x1="226.171875" y1="0" x2="226.171875" y2="5" style="visibility: inherit;" fill="rgb(0, 0, 0)" stroke="rgb(204, 204, 204)" stroke-width="1px"></line><line x1="248.7890625" y1="0" x2="248.7890625" y2="5" style="visibility: inherit;" fill="rgb(0, 0, 0)" stroke="rgb(204, 204, 204)" stroke-width="1px"></line><line x1="271.40625" y1="0" x2="271.40625" y2="5" style="visibility: inherit;" fill="rgb(0, 0, 0)" stroke="rgb(204, 204, 204)" stroke-width="1px"></line></g><g transform="translate(0, 8)"><text x="0" y="0" dx="0em" dy="0.95em" style="text-anchor: middle; visibility: hidden; font-family: &quot;Helvetica Neue&quot;, sans-serif; font-size: 12px; font-weight: 200;" fill="rgb(50, 49, 63)" stroke="none" stroke-width="1px">-100</text><text x="22.6171875" y="0" dx="0em" dy="0.95em" style="text-anchor: middle; visibility: inherit; font-family: &quot;Helvetica Neue&quot;, sans-serif; font-size: 12px; font-weight: 200;" fill="rgb(50, 49, 63)" stroke="none" stroke-width="1px">0</text><text x="45.234375" y="0" dx="0em" dy="0.95em" style="text-anchor: middle; visibility: hidden; font-family: &quot;Helvetica Neue&quot;, sans-serif; font-size: 12px; font-weight: 200;" fill="rgb(50, 49, 63)" stroke="none" stroke-width="1px">100</text><text x="67.8515625" y="0" dx="0em" dy="0.95em" style="text-anchor: middle; visibility: inherit; font-family: &quot;Helvetica Neue&quot;, sans-serif; font-size: 12px; font-weight: 200;" fill="rgb(50, 49, 63)" stroke="none" stroke-width="1px">200</text><text x="90.46875" y="0" dx="0em" dy="0.95em" style="text-anchor: middle; visibility: hidden; font-family: &quot;Helvetica Neue&quot;, sans-serif; font-size: 12px; font-weight: 200;" fill="rgb(50, 49, 63)" stroke="none" stroke-width="1px">300</text><text x="113.0859375" y="0" dx="0em" dy="0.95em" style="text-anchor: middle; visibility: inherit; font-family: &quot;Helvetica Neue&quot;, sans-serif; font-size: 12px; font-weight: 200;" fill="rgb(50, 49, 63)" stroke="none" stroke-width="1px">400</text><text x="135.703125" y="0" dx="0em" dy="0.95em" style="text-anchor: middle; visibility: hidden; font-family: &quot;Helvetica Neue&quot;, sans-serif; font-size: 12px; font-weight: 200;" fill="rgb(50, 49, 63)" stroke="none" stroke-width="1px">500</text><text x="158.3203125" y="0" dx="0em" dy="0.95em" style="text-anchor: middle; visibility: inherit; font-family: &quot;Helvetica Neue&quot;, sans-serif; font-size: 12px; font-weight: 200;" fill="rgb(50, 49, 63)" stroke="none" stroke-width="1px">600</text><text x="180.9375" y="0" dx="0em" dy="0.95em" style="text-anchor: middle; visibility: hidden; font-family: &quot;Helvetica Neue&quot;, sans-serif; font-size: 12px; font-weight: 200;" fill="rgb(50, 49, 63)" stroke="none" stroke-width="1px">700</text><text x="203.5546875" y="0" dx="0em" dy="0.95em" style="text-anchor: middle; visibility: inherit; font-family: &quot;Helvetica Neue&quot;, sans-serif; font-size: 12px; font-weight: 200;" fill="rgb(50, 49, 63)" stroke="none" stroke-width="1px">800</text><text x="226.171875" y="0" dx="0em" dy="0.95em" style="text-anchor: middle; visibility: hidden; font-family: &quot;Helvetica Neue&quot;, sans-serif; font-size: 12px; font-weight: 200;" fill="rgb(50, 49, 63)" stroke="none" stroke-width="1px">900</text><text x="248.7890625" y="0" dx="0em" dy="0.95em" style="text-anchor: middle; visibility: inherit; font-family: &quot;Helvetica Neue&quot;, sans-serif; font-size: 12px; font-weight: 200;" fill="rgb(50, 49, 63)" stroke="none" stroke-width="1px">1k</text><text x="271.40625" y="0" dx="0em" dy="0.95em" style="text-anchor: middle; visibility: hidden; font-family: &quot;Helvetica Neue&quot;, sans-serif; font-size: 12px; font-weight: 200;" fill="rgb(50, 49, 63)" stroke="none" stroke-width="1px">1.1k</text></g><line x1="0" y1="0" x2="271.40625" y2="0" fill="rgb(0, 0, 0)" stroke="rgb(204, 204, 204)" stroke-width="1px"></line></g></g></g></g></svg>