<svg viewBox="0 0 330 200" xmlns="http://www.w3.org/2000/svg"><g><g><g><g><g><line x1="39.15625" y1="177" x2="34.15625" y2="177" style="visibility: inherit;" fill="rgb(0, 0, 0)" stroke="rgb(204, 204, 204)" stroke-width="1px"></line><line x1="39.15625" y1="154.87499999999997" x2="34.15625" y2="154.87499999999997" style="visibility: inherit;" fill="rgb(0, 0, 0)" stroke="rgb(204, 204, 204)" stroke-width="1px"></line><line x1="39.15625" y1="132.74999999999994" x2="34.15625" y2="132.74999999999994" style="visibility: inherit;" fill="rgb(0, 0, 0)" stroke="rgb(204, 204, 204)" stroke-width="1px"></line><line x1="39.15625" y1="110.62499999999991" x2="34.15625" y2="110.62499999999991" style="visibility: inherit;" fill="rgb(0, 0, 0)" stroke="rgb(204, 204, 204)" stroke-width="1px"></line><line x1="39.15625" y1="88.4999999999999" x2="34.15625" y2="88.4999999999999" style="visibility: inherit;" fill="rgb(0, 0, 0)" stroke="rgb(204, 204, 204)" stroke-width="1px"></line><line x1="39.15625" y1="66.37499999999999" x2="34.15625" y2="66.37499999999999" style="visibility: inherit;" fill="rgb(0, 0, 0)" stroke="rgb(204, 204, 204)" stroke-width="1px"></line><line x1="39.15625" y1="44.24999999999994" x2="34.15625" y2="44.24999999999994" style="visibility: inherit;" fill="rgb(0, 0, 0)" stroke="rgb(204, 204, 204)" stroke-width="1px"></line><line x1="39.15625" y1="22.124999999999915" x2="34.15625" y2="22.124999999999915" style="visibility: inherit;" fill="rgb(0, 0, 0)" stroke="rgb(204, 204, 204)" stroke-width="1px"></line><line x1="39.15625" y1="0" x2="34.15625" y2="0" style="visibility: inherit;" fill="rgb(0, 0, 0)" stroke="rgb(204, 204, 204)" stroke-width="1px"></line></g><g transform="translate(29.15625, 0)"><text x="0" y="177" dx="0em" dy="0.3em" style="text-anchor: end; visibility: hidden; font-family: &quot;Helvetica Neue&quot;, sans-serif; font-size: 12px; font-weight: 200;" fill="rgb(50, 49, 63)" stroke="none" stroke-width="1px">3.3</text><text x="0" y="154.87499999999997" dx="0em" dy="0.3em" style="text-anchor: end; visibility: inherit; font-family: &quot;Helvetica Neue&quot;, sans-serif; font-size: 12px; font-weight: 200;" fill="rgb(50, 49, 63)" stroke="none" stroke-width="1px">3.4</text><text x="0" y="132.74999999999994" dx="0em" dy="0.3em" style="text-anchor: end; visibility: hidden; font-family: &quot;Helvetica Neue&quot;, sans-serif; font-size: 12px; font-weight: 200;" fill="rgb(50, 49, 63)" stroke="none" stroke-width="1px">3.5</text><text x="0" y="110.62499999999991" dx="0em" dy="0.3em" style="text-anchor: end; visibility: inherit; font-family: &quot;Helvetica Neue&quot;, sans-serif; font-size: 12px; font-weight: 200;" fill="rgb(50, 49, 63)" stroke="none" stroke-width="1px">3.6</text><text x="0" y="88.4999999999999" dx="0em" dy="0.3em" style="text-anchor: end; visibility: hidden; font-family: &quot;Helvetica Neue&quot;, sans-serif; font-size: 12px; font-weight: 200;" fill="rgb(50, 49, 63)" stroke="none" stroke-width="1px">3.7</text><text x="0" y="66.37499999999999" dx="0em" dy="0.3em" style="text-anchor: end; visibility: inherit; font-family: &quot;Helvetica Neue&quot;, sans-serif; font-size: 12px; font-weight: 200;" fill="rgb(50, 49, 63)" stroke="none" stroke-width="1px">3.8</text><text x="0" y="44.24999999999994" dx="0em" dy="0.3em" style="text-anchor: end; visibility: hidden; font-family: &quot;Helvetica Neue&quot;, sans-serif; font-size: 12px; font-weight: 200;" fill="rgb(50, 49, 63)" stroke="none" stroke-width="1px">3.9</text><text x="0" y="22.124999999999915" dx="0em" dy="0.3em" style="text-anchor: end; visibility: inherit; font-family: &quot;Helvetica Neue&quot;, sans-serif; font-size: 12px; font-weight: 200;" fill="rgb(50, 49, 63)" stroke="none" stroke-width="1px">4</text><text x="0" y="0" dx="0em" dy="0.3em" style="text-anchor: end; visibility: hidden; font-family: &quot;Helvetica Neue&quot;, sans-serif; font-size: 12px; font-weight: 200;" fill="rgb(50, 49, 63)" stroke="none" stroke-width="1px">4.1</text></g><line x1="39.15625" y1="0" x2="39.15625" y2="177" fill="rgb(0, 0, 0)" stroke="rgb(204, 204, 204)" stroke-width="1px"></line></g></g><g transform="translate(39, 0)" clip-path="url(#clip_0)"><clipPath id="clip_0"><rect width="290" height="177"></rect></clipPath><g><g><g><line x1="0" y1="0" x2="0" y2="177" fill="rgb(0, 0, 0)" stroke="rgb(60, 60, 60)" stroke-width="1px" opacity="0.25"></line><line x1="24.236979166666664" y1="0" x2="24.236979166666664" y2="177" fill="rgb(0, 0, 0)" stroke="rgb(60, 60, 60)" stroke-width="1px" opacity="0.25"></line><line x1="48.47395833333333" y1="0" x2="48.47395833333333" y2="177" fill="rgb(0, 0, 0)" stroke="rgb(60, 60, 60)" stroke-width="1px" opacity="0.25"></line><line x1="72.7109375" y1="0" x2="72.7109375" y2="177" fill="rgb(0, 0, 0)" stroke="rgb(60, 60, 60)" stroke-width="1px" opacity="0.25"></line><line x1="96.94791666666666" y1="0" x2="96.94791666666666" y2="177" fill="rgb(0, 0, 0)" stroke="rgb(60, 60, 60)" stroke-width="1px" opacity="0.25"></line><line x1="121.18489583333334" y1="0" x2="121.18489583333334" y2="177" fill="rgb(0, 0, 0)" stroke="rgb(60, 60, 60)" stroke-width="1px" opacity="0.25"></line><line x1="145.421875" y1="0" x2="145.421875" y2="177" fill="rgb(0, 0, 0)" stroke="rgb(60, 60, 60)" stroke-width="1px" opacity="0.25"></line><line x1="169.65885416666669" y1="0" x2="169.65885416666669" y2="177" fill="rgb(0, 0, 0)" stroke="rgb(60, 60, 60)" stroke-width="1px" opacity="0.25"></line><line x1="193.89583333333331" y1="0" x2="193.89583333333331" y2="177" fill="rgb(0, 0, 0)" stroke="rgb(60, 60, 60)" stroke-width="1px" opacity="0.25"></line><line x1="218.1328125" y1="0" x2="218.1328125" y2="177" fill="rgb(0, 0, 0)" stroke="rgb(60, 60, 60)" stroke-width="1px" opacity="0.25"></line><line x1="242.36979166666669" y1="0" x2="242.36979166666669" y2="177" fill="rgb(0, 0, 0)" stroke="rgb(60, 60, 60)" stroke-width="1px" opacity="0.25"></line><line x1="266.6067708333333" y1="0" x2="266.6067708333333" y2="177" fill="rgb(0, 0, 0)" stroke="rgb(60, 60, 60)" stroke-width="1px" opacity="0.25"></line><line x1="290.84375" y1="0" x2="290.84375" y2="177" fill="rgb(0, 0, 0)" stroke="rgb(60, 60, 60)" stroke-width="1px" opacity="0.25"></line></g><g><line x1="0" y1="177" x2="290.84375" y2="177" fill="rgb(0, 0, 0)" stroke="rgb(60, 60, 60)" stroke-width="1px" opacity="0.25"></line><line x1="0" y1="154.87499999999997" x2="290.84375" y2="154.87499999999997" fill="rgb(0, 0, 0)" stroke="rgb(60, 60, 60)" stroke-width="1px" opacity="0.25"></line><line x1="0" y1="132.74999999999994" x2="290.84375" y2="132.74999999999994" fill="rgb(0, 0, 0)" stroke="rgb(60, 60, 60)" stroke-width="1px" opacity="0.25"></line><line x1="0" y1="110.62499999999991" x2="290.84375" y2="110.62499999999991" fill="rgb(0, 0, 0)" stroke="rgb(60, 60, 60)" stroke-width="1px" opacity="0.25"></line><line x1="0" y1="88.4999999999999" x2="290.84375" y2="88.4999999999999" fill="rgb(0, 0, 0)" stroke="rgb(60, 60, 60)" stroke-width="1px" opacity="0.25"></line><line x1="0" y1="66.37499999999999" x2="290.84375" y2="66.37499999999999" fill="rgb(0, 0, 0)" stroke="rgb(60, 60, 60)" stroke-width="1px" opacity="0.25"></line><line x1="0" y1="44.24999999999994" x2="290.84375" y2="44.24999999999994" fill="rgb(0, 0, 0)" stroke="rgb(60, 60, 60)" stroke-width="1px" opacity="0.25"></line><line x1="0" y1="22.124999999999915" x2="290.84375" y2="22.124999999999915" fill="rgb(0, 0, 0)" stroke="rgb(60, 60, 60)" stroke-width="1px" opacity="0.25"></line><line x1="0" y1="0" x2="290.84375" y2="0" fill="rgb(0, 0, 0)" stroke="rgb(60, 60, 60)" stroke-width="1px" opacity="0.25"></line></g></g></g><g><g><line x1="0" y1="907.1250000000001" x2="290.84375" y2="907.1250000000001" fill="rgb(0, 0, 0)" stroke="rgb(153, 153, 153)" stroke-width="1.5px"></line></g></g><g><g><line x1="24.236979166666664" y1="0" x2="24.236979166666664" y2="177" fill="rgb(0, 0, 0)" stroke="rgb(153, 153, 153)" stroke-width="1.5px"></line></g></g><g><g><g><g><g><path stroke="rgb(0, 119, 187)" stroke-width="2px" d="M32.477552083333336,210.71397775411603L32.719921875000004,170.54086500406262L32.962291666666665,169.47209501266477L33.204661458333334,156.77725338935846L33.44703125,150.1244094371795L33.68940104166666,139.65361797809595L33.93177083333333,129.24190664291376L34.41651041666667,142.62577021121973L34.658880208333336,110.93767100572582L34.90125,81.92215615510935L35.143619791666666,66.23205775022501L35.385989583333334,89.08076816797251L35.628359375,74.22876352071756L35.87072916666667,39.32554507255546L36.11309895833333,26.94926136732093L36.35546875,13.05050396919242L36.59783854166666,33.26972687244407L36.84020833333334,28.890992939472113L37.082578125,42.54857683181754L37.324947916666666,13.744167923927222L37.567317708333334,50.58885419368738L37.8096875,8.150546193122779L38.052057291666664,24.6706675887107L38.29442708333333,20.05877816677085L38.536796875,20.449761986732398L38.77916666666667,10.269201636314307L39.02153645833333,24.52607953548423L39.263906250000005,22.265315294265662L39.506276041666666,-14.588232994079675L39.74864583333333,19.8082151412963L39.991015625,36.41964697837821L40.233385416666664,50.45233690738672L40.47575520833333,38.89304691553107L40.718125,20.291511654853736L40.96049479166667,3.702445864677344L41.20286458333333,22.798355162143622L41.445234375,18.74772691726676L41.68760416666667,16.99283623695365L41.929973958333335,21.85681843757621L42.172343749999996,8.656525254249487L42.41471354166667,37.62604200839988L42.65708333333333,12.070090413093482L42.899453125,22.729252517223273L43.14182291666667,14.268609523773108L43.38419270833334,34.6691873073577L43.6265625,18.643914699554358L43.868932291666674,39.86924046277991L44.111302083333335,35.189092397689734L44.353671874999996,21.705320119857703L44.596041666666665,6.948265671729956L44.83841145833333,34.106396377086554L45.08078125,21.906825542449866L45.32315104166666,45.51302754878992L45.56552083333334,26.860430181026373L45.807890625,52.96809518337244L46.05026041666667,32.10241967439643L46.292630208333335,34.70305287837974L46.535000000000004,12.849631547927771L46.777369791666665,3.1103786230086428L47.019739583333326,17.14022004604331L47.262109375,36.69880056381217L47.50447916666666,44.2492403984069L47.74684895833333,13.292310476303015L47.98921875,33.062788188457404L48.23158854166667,31.5263884663581L48.47395833333333,-4.568771481514062L48.716328125000004,15.965369582176123L48.958697916666665,23.14260238409034L49.20106770833333,20.994670629501258L49.4434375,43.67162668704978L49.68580729166667,-10.129477143287744L49.92817708333333,15.028422117233191L50.170546875,36.53406196832648L50.41291666666667,33.62684512138358L50.655286458333336,38.21014398336402L50.89765625,18.293231964111243L51.14002604166667,32.45800817012778L51.382395833333334,42.10484290122977L51.624765624999995,37.18958759307853L51.86713541666667,13.137858152389441L52.10950520833333,13.44676280021659L52.351875,40.16395533084861L52.59424479166667,39.17362475395194L52.836614583333336,36.68028527498237L53.078984375,34.30895680189124L53.321354166666666,-8.953255176544275L53.563723958333334,19.861492753028784L53.80609375,-0.5866656303406614L54.04846354166666,44.790403783321324L54.29083333333334,35.241578757762824L54.533203125,26.12604314088813L54.77557291666666,17.528988361358557L55.01794270833334,36.08157151937476L55.2603125,32.35952371358863L55.502682291666666,42.868875503539954L55.745052083333334,29.38330972194663L55.987421875,28.33790802955619L56.229791666666664,36.33450829982749L56.47216145833333,27.278263807296668L56.71453125,28.343024790286933L56.95690104166667,22.793818652629767L57.19927083333333,35.66247189044944L57.441640625000005,39.01996368169776L57.684010416666666,38.376992583274756L57.92638020833333,31.04219520092002L58.16875,28.894474446773444L58.411119791666664,20.941709518432532L58.65348958333333,27.65911960601798L58.895859375,40.87175631523124L59.13822916666667,49.82598209381098L59.38059895833333,35.48924052715293L59.62296875,32.53048682212821L59.86533854166667,18.006904363632117L60.107708333333335,31.598234117031012L60.350078124999996,46.29088068008417L60.59244791666667,35.35240674018851L60.83481770833333,49.20400553941721L61.31955729166667,23.147349894046698L61.56192708333334,40.12307399511329L61.804296875,37.789409101009284L62.046666666666674,56.96966582536692L62.289036458333335,41.54437297582618L62.531406249999996,29.413219034671698L62.773776041666665,35.03464007377616L63.01614583333333,40.80386692285529L63.258515625,54.073473751544896L63.50088541666666,46.76346892118448L63.74325520833334,51.754420638084355L63.985625,44.51510095596308L64.22799479166666,45.654081344604435L64.47036458333334,32.65429133176795L64.712734375,36.52250969409934L64.95510416666667,47.32884460687632L65.19747395833333,49.12852013111109L65.43984375000001,51.84536182880396L65.68221354166667,36.97167688608161L65.92458333333333,64.74661463499064L66.166953125,40.06821388006202L66.40932291666667,40.74220204353324L66.65169270833333,31.10808008909217L66.8940625,46.3957479000091L67.13643229166667,47.04225325584406L67.37880208333333,44.920907557010594L67.621171875,63.69467192888254L67.86354166666666,41.53936171531669L68.10591145833334,37.09922665357581L68.34828125,32.527058064937506L68.59065104166667,45.26162052154535L68.83302083333334,37.55382710695258L69.075390625,93.70373511314386L69.31776041666667,53.63807433843607L69.56013020833333,66.39384233951563L69.8025,50.33085340261454L70.04486979166667,42.98909300565711L70.28723958333333,60.70722216367716L70.52960937499999,23.354816079139624L70.77197916666667,48.50221806764597L71.01434895833333,33.29979443550101L71.25671875,28.506813883781348L71.74145833333334,43.5515674352645L71.983828125,59.78878998756403L72.22619791666666,36.745062410831366L72.46856770833334,39.073927044868384L72.7109375,49.680866539478245L72.95330729166668,51.472049295902195L73.19567708333332,50.04621380567545L73.438046875,60.70326590538019L73.92278645833333,71.45062619447702L74.16515625,70.03966623544687L74.40752604166667,45.17368608713144L74.64989583333333,78.7382122278213L74.89226562500001,65.05024427175516L75.37700520833333,71.66647964715952L75.619375,57.81778210401529L75.86174479166665,70.57012134790415L76.10411458333333,33.590500295162116L76.346484375,52.17446976900095L76.58885416666666,52.05483251810068L76.83122395833333,67.20951730012888L77.07359375,63.205256402492466L77.31596354166666,52.44096332788462L77.55833333333334,32.011478483676825L77.800703125,45.164876818656865L78.04307291666666,58.35825973749155L78.28544270833333,59.11084556579584L78.77018229166666,57.58441561460489L79.01255208333333,52.3159983158111L79.25492187500001,69.28169989585871L79.49729166666665,64.72282433509821L79.73966145833333,48.266530573368016L79.98203125,60.38296723365778L80.22440104166667,57.26744019985193L80.46677083333333,46.46326804161066L80.709140625,51.97934710979456L80.95151041666666,68.62838977575296L81.19388020833334,60.65346980094904L81.43625,61.72107928991312L81.67861979166666,67.95445436239237L81.92098958333334,61.26004332303995L82.163359375,56.149243354797306L82.40572916666666,48.3491899967193L82.64809895833334,50.71962171792978L82.89046875,66.90852516889566L83.13283854166667,50.21955066919321L83.37520833333333,49.908641517162266L83.617578125,50.94950670003885L83.85994791666667,76.06241011619562L84.10231770833335,67.62946093082422L84.34468749999999,46.46569454669947L84.58705729166667,52.66984605789179L84.82942708333334,60.0663610696792L85.07179687499999,44.2418026328086L85.31416666666667,62.75033944845194L85.55653645833334,55.14604175090784L85.79890625,78.66863483190531L86.04127604166666,53.1046124696731L86.28364583333334,69.17008066177362L86.526015625,70.70811563730234L86.76838541666667,55.71157568693155L87.01075520833334,46.694102525711L87.253125,69.8985069394111L87.49549479166667,58.429103136062565L87.73786458333335,53.905992150306645L87.980234375,53.1380032896995L88.22260416666667,57.52554649114603L88.46497395833333,82.1393283605575L88.94971354166667,49.73968291282648L89.19208333333333,59.11089831590647L89.434453125,78.91249859333033L89.67682291666667,51.04640865325922L89.91919270833333,83.75395649671549L90.1615625,59.857523381709996L90.40393229166668,71.19536840915674L90.64630208333332,72.58739107847208L90.888671875,42.20654511451713L91.13104166666668,65.63761675357813L91.37341145833332,54.52744120359415L91.61578125,41.309845983982L91.85815104166667,65.54910206794733L92.10052083333333,61.27961361408228L92.342890625,76.2633352875709L92.58526041666667,56.72100180387491L92.82763020833333,70.28157824277872L93.07000000000001,64.6228101253509L93.31236979166667,69.9739395976066L93.55473958333333,60.54485732316965L93.797109375,52.155268728733006L94.28184895833333,56.063840925693455L94.76658854166666,86.53852933645243L95.00895833333333,82.59493106603617L95.251328125,71.33383744955057L95.49369791666666,70.49695694446558L95.73606770833334,91.33214288949961L95.9784375,56.644197642803135L96.22080729166666,53.715880751609745L96.46317708333333,69.21544575691217L96.70554687500001,64.00885158777231L96.94791666666666,57.75311046838755L97.19028645833333,61.76591688394541L97.43265625000001,55.271903514862004L97.67502604166665,78.77693080902094L97.91739583333333,63.144963026046696L98.159765625,85.04665070772165L98.64450520833333,60.562686860561314L98.886875,65.65391653776163L99.12924479166666,79.79205393791193L99.37161458333334,81.89804935455317L99.613984375,84.33563196659082L100.09872395833334,47.074430823326054L100.34109375,72.72971087694162L100.58346354166666,79.83968728780741L100.82583333333334,100.68811351060862L101.068203125,78.3169498443603L101.31057291666667,72.24915736913675L101.55294270833333,83.34751689434046L101.7953125,58.85753953456873L102.03768229166667,61.72097378969187L102.28005208333335,65.44507884979242L102.52242187499999,62.936863839626255L102.76479166666667,69.01958459615702L103.00716145833334,66.047748863697L103.24953124999999,77.29206794500345L103.49190104166667,47.01492869853968L103.73427083333334,76.9745122790336L103.976640625,57.6256662011146L104.21901041666666,101.36431717872614L104.46138020833334,68.34738993644709L104.70375,83.82712090015406L104.94611979166667,68.27385628223414L105.18848958333334,85.47471785545343L105.430859375,75.27326846122736L105.67322916666667,74.99480062723154L105.91559895833335,85.46907359361643L106.15796875,95.3904726505279L106.40033854166667,77.97929638624186L106.64270833333333,81.42118835449213L106.88507812499999,77.7609109282493L107.12744791666667,52.6855655908584L107.36981770833333,66.06156939268106L107.6121875,75.98381245136255L107.85455729166667,72.25807213783258L108.09692708333333,98.57046031951899L108.339296875,85.72501713037485L108.58166666666668,62.175468742847386L108.82403645833332,60.01292520761484L109.06640625,85.37132763862604L109.30877604166668,63.97066050767893L109.55114583333332,55.80942714214319L109.793515625,76.98163354396814L110.03588541666667,88.79138106107706L110.27825520833333,82.03546339273447L110.520625,59.32928377389902L110.76299479166667,59.02528488636011L111.00536458333333,78.6122977137565L111.24773437500001,91.8740975260734L111.49010416666667,70.75342798233027L111.73247395833333,91.68778413534159L111.97484375,56.862213850021305L112.21721354166665,76.3411944508552L112.45958333333333,70.86689347028727L112.701953125,78.1121739149093L112.94432291666666,47.734070956706944L113.18669270833333,98.64357197284693L113.4290625,66.57941722869867L113.91380208333334,69.02849936485285L114.156171875,71.10047096014017L114.39854166666666,80.13202840089792L114.64091145833333,78.33884114027018L114.88328125000001,70.79436206817621L115.12565104166666,68.75704729557032L115.36802083333333,77.9940664172172L115.61039062500001,103.1808727383613L115.85276041666665,80.68848931789393L116.09513020833333,75.05161249637598L116.3375,73.12159144878382L116.57986979166667,70.74372196197504L116.82223958333333,68.87093478441233L117.064609375,82.26624512672419L117.30697916666666,68.45199340581888L117.54934895833334,102.20109218358988L117.79171875,45.209134161472264L118.03408854166666,89.60104250907892L118.27645833333334,81.04128205776209L118.518828125,85.97626590728754L118.76119791666666,72.13189387321466L119.00356770833334,54.48561036586756L119.2459375,58.96240675449366L119.48830729166667,59.873031914234105L119.973046875,77.47611308097834L120.21541666666667,72.48843187093729L120.45778645833335,60.25320196151728L120.70015624999999,71.67249315977091L120.94252604166667,69.28038114309305L121.18489583333334,77.54052096605295L121.42726562499999,117.63018304109568L121.66963541666667,84.09735971689219L121.91200520833334,91.43115484714502L122.154375,77.65293145179743L122.39674479166666,69.72875708341593L122.63911458333334,73.10138815641398L122.881484375,77.75658541917795L123.12385416666667,72.57045829296106L123.36622395833334,80.04899972677225L123.60859375,80.20914906263346L123.85096354166667,97.4161296486854L124.09333333333335,74.03195285797113L124.335703125,76.34309345483774L124.57807291666667,75.38805270195002L124.82044270833333,83.64903652667994L125.06281249999999,84.48217177391047L125.54755208333333,82.6187213659286L125.789921875,71.3491877317428L126.03229166666667,97.77551615238184L126.27466145833333,78.64880079030985L126.51703125,76.39473581314081L126.75940104166668,70.03259772062296L127.00177083333332,85.720480620861L127.244140625,76.91237264871592L127.48651041666668,78.8424464464187L127.72888020833332,78.47113841772074L127.97125,82.58591079711908L128.21361979166667,74.16709864139551L128.45598958333332,99.59861272573465L128.94072916666667,77.51952642202372L129.42546875,88.32791858911509L129.66783854166667,68.54019159078592L129.91020833333334,98.33825433254236L130.152578125,81.13296175003046L130.39494791666667,86.21585690975184L130.63731770833334,92.30517143011087L130.87968750000002,114.16592502593988L131.12205729166666,93.44235831499094L131.36442708333334,80.52986973524088L131.60679687500001,94.79956591129297L131.84916666666666,88.4017687439918L132.09153645833334,90.3095292448997L132.33390625,99.90482711791987L132.57627604166666,61.28430837392801L132.81864583333333,89.48884302377695L133.061015625,92.79110544919962L133.30338541666666,77.315699994564L133.54575520833333,66.13995605707163L133.788125,67.77800524234766L134.03049479166665,91.5081700086593L134.27286458333333,81.8874465823173L134.515234375,83.81757313013071L134.75760416666665,72.25443238019938L134.99997395833333,95.1637526750564L135.24234375,85.25000238418573L135.48471354166665,80.30415201187128L135.72708333333333,102.98379832506174L135.969453125,97.18334341049189L136.21182291666668,84.27961134910578L136.45419270833332,85.48215562105173L136.6965625,83.69909638166422L136.93893229166667,80.43618553876871L137.18130208333335,120.67729318141932L137.423671875,87.07457596063608L137.66604166666667,86.92096763849253L137.90841145833335,76.45276093482966L138.15078125,84.16809761524195L138.39315104166667,87.37836384773249L138.63552083333335,83.35057640075678L138.877890625,114.50463348627085L139.12026041666667,105.08879148960108L139.36263020833334,76.86732405424112L139.605,62.934912085533085L139.84736979166667,81.32687115669245L140.08973958333334,81.3076701164245L140.332109375,85.90526425838465L140.57447916666666,89.9838500618934L140.81684895833334,58.817132949829045L141.05921874999999,81.48971074819559L141.30158854166666,81.77334809303278L141.54395833333334,98.86717969179148L141.78632812499998,95.12260758876795L142.02869791666666,101.39449024200434L142.27106770833333,89.94233572483057L142.5134375,89.80471068620676L142.75580729166666,91.45204389095301L142.99817708333333,115.1722388863563L143.240546875,76.13515251874918L143.48291666666668,98.5968353748321L143.72528645833333,95.53680145740503L144.21002604166668,86.1928578615188L144.45239583333333,100.90122395753855L144.694765625,99.93911468982691L144.93713541666668,71.89594262838358L145.17950520833332,97.82636725902552L145.421875,90.44968628883356L145.90661458333335,80.68152630329126L146.148984375,99.37199825048441L146.39135416666664,92.76399189233774L146.63372395833332,95.98538839817041L146.87609375,102.68892520666117L147.11846354166667,94.51582306623453L147.36083333333335,99.90688437223429L147.603203125,85.72797113656992L147.84557291666667,90.73174113035196L148.08794270833334,72.86132240295404L148.3303125,65.6665238142013L148.57268229166667,94.71437448263163L148.81505208333334,79.84839105606073L149.057421875,99.14248251914972L149.29979166666666,100.96014583110804L149.54216145833334,96.5327762961387L149.78453125000001,97.12305003404612L150.0269010416667,90.49621188640589L150.26927083333334,86.85017699003214L150.51164062499998,80.86652094125742L150.75401041666666,90.58572882413858L150.99638020833333,98.09665882587427L151.23875,67.39635819196695L151.48111979166669,116.55476653575892L152.45059895833333,90.77198946475977L152.69296875,99.84653824567789L152.93533854166668,97.25212955474848L153.17770833333333,84.19589692354197L153.420078125,97.08021694421763L153.66244791666665,88.76848751306528L153.90481770833333,90.85449063777918L154.1471875,81.13855326175684L154.38955729166668,83.86283272504801L154.63192708333332,82.44960451126093L154.874296875,100.57575577497477L155.11666666666667,83.25567895174021L155.35903645833335,75.78810954093927L155.60140625,86.07786262035364L155.84377604166667,74.05769491195673L156.08614583333332,97.4563779830932L156.328515625,101.76157826185221L156.57088541666667,99.85666626691813L156.81325520833335,115.8582540750503L157.05562500000002,79.83567827939981L157.2979947916667,107.32745343446726L157.54036458333331,97.76881688833231L157.782734375,93.95071113109583L158.02510416666667,100.24759733676905L158.26747395833334,89.89385837316507L158.75221354166666,88.45662885904306L158.9945833333333,87.61399859189981L159.23695312499999,94.45062392950052L159.47932291666666,89.00828951597208L159.72169270833334,85.3016447424888L159.9640625,107.72482001781458L160.20643229166666,97.55565369129175L160.44880208333333,88.88068699836725L160.691171875,88.18823629617685L160.93354166666666,84.01454204320902L161.17591145833333,105.26634836196894L161.41828125,60.45829439163202L161.66065104166665,96.71360367536539L161.90302083333333,83.81810063123697L162.145390625,74.94737827777857L162.38776041666668,81.35799372196192L162.63013020833336,94.80863893032068L162.8725,85.45314306020731L163.11486979166665,88.56471383571619L163.35723958333332,88.12994742393488L163.599609375,96.21685588359827L163.84197916666668,79.27024984359736L164.08434895833335,99.94475895166391L164.32671875,109.38032948970789L164.56908854166664,85.66129499673838L164.81145833333332,82.67875099182123L165.053828125,85.88115745782846L165.29619791666667,82.1988832354545L165.53856770833335,89.05012035369867L165.7809375,98.54197525978083L166.02330729166667,108.96930062770838L166.26567708333334,98.39100444316858L166.508046875,96.98611074686045L166.75041666666667,92.20315271615976L166.99278645833334,93.48677390813822L167.47752604166666,100.15723639726633L167.71989583333334,101.3127275705337L167.96226562500001,77.14726889133448L168.2046354166667,103.95160460472101L168.44700520833334,111.03689396381374L168.68937499999998,95.5308934450149L168.93174479166666,89.65442562103266L169.17411458333333,72.8495591282844L169.416484375,76.66376137733454L169.65885416666669,101.54435330629343L169.9012239583333,88.77402627468103L170.14359374999998,88.25079792737955L170.38596354166665,80.4550700783729L170.62833333333333,104.40546655654902L170.870703125,85.49233639240259L171.11307291666668,92.2589623332023L171.5978125,106.10138261318201L171.84018229166665,103.64607596397394L172.08255208333333,76.55377739667887L172.324921875,90.27371191978449L172.56729166666668,97.00647228956217L172.80966145833332,76.12085723876947L173.05203125,99.38080751895899L173.29440104166667,117.25618475675577L173.53677083333335,75.70360386371607L173.779140625,105.1548346281051L174.02151041666667,106.51926898956293L174.26388020833332,94.67475914955133L174.50625,101.45283186435694L174.74861979166667,92.7600883841514L174.99098958333335,90.03517591953272L175.23335937500002,76.82259196043009L175.4757291666667,95.81674629449839L175.71809895833331,95.3959059119224L175.96046875,110.01987183094019L176.20283854166667,117.79328638315195L176.44520833333334,85.15552693605417L176.68757812500002,102.25700730085367L176.92994791666666,78.98502999544138L177.1723177083333,89.55240690708155L177.41468749999999,101.979225218296L177.65705729166666,99.18035709857935L177.89942708333334,91.25549697875971L178.141796875,92.34294050931925L178.38416666666666,104.6923216581344L178.62653645833333,87.2027587294578L178.86890625,95.71715408563608L179.11127604166666,91.64062553644175L179.35364583333333,108.78805124759668L179.596015625,92.97583633661264L179.83838541666665,113.50433313846582L180.08075520833333,93.34244960546488L180.323125,95.35402232408518L180.56549479166668,85.05830848217005L180.80786458333336,98.12060737609858L181.050234375,113.26637738943094L181.29260416666665,90.41539871692652L181.53497395833332,104.21656841039652L181.77734375,118.97441411018366L182.01971354166668,82.80165874958033L182.26208333333335,100.43755048513407L182.504453125,86.71777421236033L182.98919270833332,92.38688135147089L183.2315625,72.08383852243418L183.47393229166667,115.6864469647407L183.71630208333335,86.26111650466913L183.958671875,93.16288822889322L184.20104166666667,96.9320946335792L184.44341145833334,123.30008143186564L184.68578125,101.19156056642527L184.92815104166667,99.78803837299341L185.17052083333334,81.46354669332499L185.412890625,113.17554169893259L185.65526041666666,104.74127376079554L185.89763020833334,75.65560126304621L186.14000000000001,100.94010078907007L186.3823697916667,109.16373753547663L186.86710937499998,106.41424351930613L187.10947916666666,108.8860609531402L187.35184895833333,124.0880098342895L187.59421875,82.89054268598551L187.83658854166669,79.1102060079574L188.0789583333333,76.52017557620997L188.32132812499998,89.89918613433832L188.56369791666665,113.49552386999125L188.80606770833333,127.09218138456339L189.0484375,114.27189999818796L189.29080729166668,85.54297649860376L189.53317708333333,105.0982865095138L189.775546875,77.41080844402308L190.01791666666665,104.22210717201227L190.26028645833333,105.62520736455912L190.50265625,91.73520648479456L190.74502604166668,114.02666473388666L190.98739583333332,89.83915650844568L191.229765625,89.97651779651636L191.47213541666667,84.95054000616068L191.71450520833335,91.83580094575876L191.956875,100.74835413694376L192.19924479166667,87.64928841590876L192.44161458333332,113.56478476524347L192.683984375,92.8280832767486L192.92635416666667,76.61269927024836L193.16872395833335,113.60592985153193L193.6534635416667,101.1759465336799L193.89583333333331,110.3586857914924L194.138203125,120.2109294533729L194.38057291666667,88.56903934478754L194.62294270833334,106.16077923774714L194.86531250000002,103.84879463911051L195.10768229166666,84.55111616849894L195.3500520833333,98.46960210800165L195.59242187499999,101.86681473255152L195.83479166666666,64.94152629375452L196.07716145833334,85.19915127754206L196.31953125,104.84651023149485L196.56190104166666,84.48813253641123L196.80427083333333,98.88706648349756L197.046640625,96.84452944993967L197.28901041666666,107.69617670774454L197.53138020833333,81.89113909006113L197.77375,88.94899839162821L198.01611979166665,92.01409631967539L198.25848958333333,91.2488504648208L198.500859375,107.22722822427744L198.74322916666668,105.82138502597803L198.98559895833336,100.73601061105722L199.22796875,125.74969106912607L199.47033854166665,106.63858973979944L199.71270833333332,114.18338531255716L199.955078125,93.21020507812494L200.19744791666668,76.66777038574213L200.43981770833335,89.61686754226679L200.6821875,103.70214933156961L200.92455729166664,97.39724510908121L201.16692708333332,100.04218840599054L201.409296875,108.95722085237497L201.65166666666667,106.8282263875007L201.89403645833335,93.57518309354776L202.13640625,118.38450962305063L202.37877604166667,94.37260651588434L202.62114583333334,97.3298304677009L202.863515625,89.81309795379633L203.10588541666667,102.63079458475107L203.34825520833334,96.14933574199671L203.590625,101.18290954828257L203.83299479166666,111.23491787910457L204.07536458333334,103.54437375068659L204.31773437500001,101.21276611089701L204.5601041666667,120.92527145147318L204.80247395833334,118.03071463108057L205.04484374999998,124.54466754198069L205.28721354166666,84.80806195735926L205.771953125,111.87219196557994L206.01432291666669,109.4217910766601L206.2566927083333,105.24456256628031L206.49906249999998,114.09286612272257L206.74143229166665,98.13258165121073L206.98380208333333,112.21870744228359L207.226171875,116.37293690443033L207.46854166666668,93.43349629640574L207.71091145833333,99.53942710161203L207.95328125,122.98120701313013L208.19565104166665,114.48047393560404L208.43802083333333,91.37228572368616L208.680390625,110.0840687155723L208.92276041666668,102.2775798439979L209.16513020833332,106.65188276767725L209.4075,118.92034524679178L209.64986979166667,109.13013571500773L209.89223958333335,111.03388720750804L210.134609375,121.75307893753046L210.37697916666667,87.23989480733866L210.61934895833332,116.51694470643992L210.86171875,126.0941492915153L211.10408854166667,97.68072420358652L211.34645833333335,101.2192016243934L211.58882812500002,121.17583447694773L211.8311979166667,122.32320213317865L212.07356770833331,104.53528457880014L212.3159375,86.96253472566599L212.80067708333334,95.0354116559028L213.04304687500002,91.0454460382461L213.28541666666666,104.91571837663645L213.5277864583333,101.6281732320785L213.77015624999999,80.33126556873316L214.01252604166666,103.69297081232065L214.25489583333334,109.95509469509119L214.497265625,117.55897039175028L214.73963541666666,116.52728372812265L214.98200520833333,114.74037373065943L215.224375,82.9412355422973L215.46674479166666,105.16886615753168L215.70911458333333,115.2859153747558L215.951484375,95.65195494890207L216.19385416666665,74.41359990835184L216.43622395833333,122.47549170255655L216.67859375,111.59324938058849L216.92096354166668,101.34200388193125L217.16333333333336,88.84302341938013L217.405703125,114.28128951787943L217.64807291666665,85.78230375051493L217.89044270833332,97.76934438943857L218.1328125,120.94547474384302L218.37518229166668,107.09018343687052L218.61755208333335,98.74179267883295L218.859921875,126.84277886152262L219.10229166666664,92.2535290718078L219.34466145833332,93.2253971099853L219.58703125,101.14239746332163L219.82940104166667,114.93602389097208L220.07177083333335,95.88410818576807L220.314140625,103.82521533966059L220.79888020833334,120.78332090377802L221.04125,115.97557032108301L221.28361979166667,94.46439170837397L221.52598958333334,112.29150259494777L221.768359375,103.05960023403162L222.01072916666666,103.08940404653544L222.25309895833334,129.14125943183893L222.49546875000001,117.54003310203547L222.7378385416667,109.21427214145655L222.98020833333334,89.69361895322794L223.22257812499998,103.07489776611322L223.46494791666666,94.20596891641611L223.70731770833333,114.0335749983787L223.9496875,99.67204087972635L224.19205729166669,109.67377835512156L224.4344270833333,99.76139956712717L224.67679687499998,113.29069519042963L224.91916666666665,95.83863759040827L225.16153645833333,116.43945479393L225.40390625,115.96470379829401L225.64627604166668,115.26265257596964L225.88864583333333,115.83319777250284L226.131015625,126.55318075418467L226.37338541666665,107.06992739439005L226.61575520833333,84.55137991905207L226.858125,129.4240527749061L227.10049479166668,115.56396120786661L227.34286458333332,107.49540978670115L227.585234375,129.08212655782694L227.82760416666667,122.97482424974436L228.06997395833335,99.61011224985117L228.31234375,101.46981739997858L228.55471354166667,93.98673945665354L228.79708333333332,112.74394029378887L229.039453125,140.62189900875086L229.28182291666667,95.58142805099482L229.52419270833335,112.5508748888969L229.76656250000002,123.16351139545435L230.0089322916667,105.14523410797113L230.25130208333331,123.24564331769938L230.493671875,114.69564163684839L230.73604166666667,91.67280310392374L230.97841145833334,133.76158887147898L231.22078125000002,103.4075927138328L231.46315104166666,119.75121223926539L231.7055208333333,105.21185749769205L231.94789062499999,105.53078466653818L232.43263020833334,110.71026527881618L232.675,121.93448656797403L232.91736979166666,132.64180952310556L233.15973958333333,115.11078500747675L233.402109375,108.04612094163889L233.88684895833333,104.61045348644251L234.12921875,117.19620788097376L234.37158854166665,125.5976652503013L234.61395833333333,128.2893978953361L234.856328125,121.32659429311747L235.09869791666668,110.8601810932159L235.34106770833336,123.27112162113184L235.5834375,119.34382313489908L235.82580729166665,91.03647851943964L236.06817708333332,123.09889250993723L236.310546875,116.02774018049234L236.55291666666668,118.59667056798929L236.79528645833335,86.52344280481333L237.03765625,104.47003269195551L237.28002604166664,114.8312621712684L237.52239583333332,119.39868324995035L237.764765625,129.5004876852035L238.00713541666667,100.04878216981882L238.24950520833335,123.57939326763147L238.491875,119.5259165167808L238.73424479166667,119.73649495840067L238.97661458333334,116.12363988161081L239.218984375,136.21816152334208L239.46135416666667,113.93034303188318L239.70372395833334,106.47432589530939L239.94609375,125.10983222723002L240.18846354166666,112.64877909421917L240.43083333333334,117.69190067052836L240.67320312500001,110.15137785673136L240.9155729166667,102.34562748670572L241.15794270833334,111.75619447231288L241.40031249999998,120.79318517446512L241.64268229166666,104.83263695240015L241.88505208333333,130.15163505077356L242.127421875,116.8223150968551L242.36979166666669,97.71786028146738L242.6121614583333,110.28109037876123L242.85453124999998,113.60914760828013L243.09690104166665,99.55314213037485L243.33927083333333,139.43433576822275L243.581640625,115.5019798278808L243.82401041666668,110.07077568769449L244.06638020833333,143.65255111455912L244.30875,104.2621972560882L244.55111979166665,129.32799482345575L244.79348958333333,98.2632964253425L245.035859375,119.12311667203898L245.27822916666668,127.15184175968164L245.52059895833332,119.67103207111353L246.00533854166667,120.93882822990412L246.24770833333335,114.04291176795954L246.490078125,105.54703170061106L246.73244791666667,124.11253863573069L247.2171875,99.44510990381235L247.45955729166667,99.94961196184153L247.70192708333335,100.61236435174936L247.94429687500002,107.97812604904169L248.1866666666667,118.25775110721582L248.42903645833331,140.28836005926127L248.67140625,90.86213940381998L248.91377604166667,124.04549324512476L249.15614583333334,120.79809093475336L249.64088541666666,118.13711160421366L249.8832552083333,112.58331620693203L250.12562499999999,119.75189799070353L250.36799479166666,115.24397903680796L250.61036458333334,95.97104036808008L250.852734375,129.1792395114898L251.09510416666666,111.03146070241924L251.33747395833333,137.76964777708048L251.57984375,134.6647235155105L251.82221354166666,127.4028267860412L252.306953125,129.06076276302332L252.54932291666665,122.82496118545527L252.79169270833333,116.55571603775019L253.0340625,120.31975293159479L253.27643229166668,114.3611004352569L253.761171875,122.90693485736841L254.00354166666665,118.44839000701899L254.24591145833332,115.59466177225107L254.73065104166668,127.8661310076713L254.97302083333335,125.00723326206202L255.215390625,124.88880926370615L255.45776041666664,130.65550410747522L255.70013020833332,127.82461667060846L255.9425,130.4541041851043L256.1848697916667,126.32709378004068L256.42723958333335,98.55210328102106L256.669609375,125.01351052522654L256.91197916666664,111.19356179237361L257.15434895833334,137.8847485184669L257.39671875,103.88492846488947L257.6390885416667,97.25824856758112L257.88145833333334,131.16839343309397L258.123828125,119.64935177564615L258.36619791666664,108.79527801275248L258.60856770833334,138.00792002677912L258.8509375,124.43146580457682L259.0933072916667,114.84766745567316L259.33567708333334,100.31058096885675L259.578046875,118.44047749042505L259.8204166666667,127.02555799484247L260.06278645833333,129.36017239093775L260.30515625,124.15436947345728L260.5475260416667,110.98583185672756L260.78989583333333,121.04870671033854L261.032265625,135.8814575672149L261.2746354166667,115.46642625331873L261.51700520833333,114.29584854841227L261.75937500000003,138.7683128714561L262.0017447916667,116.22940385341639L262.2441145833333,125.56812518835062L262.486484375,99.01572400331492L262.7288541666667,130.76828384399408L262.9712239583333,126.1183088421821L263.21359375000003,105.95758581161493L263.4559635416667,113.3260377645492L263.6983333333333,133.1289567947387L263.94070312499997,105.81943327188486L264.1830729166667,130.86444729566568L264.4254427083333,115.50762408971781L264.6678125,115.94439500570292L264.9101822916667,93.4446793198585L265.1525520833333,108.63855743408197L265.63729166666667,133.2540800571441L265.8796614583333,137.50457847118372L266.36440104166667,120.04123234748835L266.6067708333333,111.28619098663326L266.849140625,110.32445096969599L267.09151041666667,109.06709933280939L267.3338802083333,123.46766853332514L267.57625,123.90902870893473L267.81861979166666,112.48942101001735L268.303359375,111.81574934720989L268.54572916666666,130.08585566282267L268.78809895833336,109.8064448833465L269.03046875,117.01063299179071L269.27283854166666,115.56469970941538L269.5152083333333,119.3746291995048L269.757578125,123.17938917875284L269.99994791666666,125.63812458515162L270.4846875,105.10588252544397L270.72705729166665,111.51106470823284L270.9694270833333,112.52808684110637L271.211796875,118.23448830842966L271.45416666666665,125.41203761100763L271.69653645833336,118.25221234560007L271.93890625,128.23258602619165L272.18127604166665,106.8863570094108L272.42364583333335,140.60987198352808L272.666015625,118.30496245622629L272.90838541666665,107.3100458979606L273.15075520833335,101.82034188508982L273.393125,135.88905358314508L273.63549479166664,102.91105592250818L273.87786458333335,121.51507043838495L274.120234375,108.37781363725657L274.3626041666667,123.92902100086206L274.60497395833335,111.79438555240627L274.84734375,104.32924264669413L275.08971354166664,122.29260706901545L275.33208333333334,102.45814347267145L275.574453125,72.7825664877891L275.8168229166667,69.41383892297739L276.05919270833334,52.2156148552894L276.3015625,91.90822684764856L276.54393229166664,73.23479318618769" style="fill: none;" fill="none"></path></g></g></g></g></g></g><g transform="translate(39, 177)" clip-path="url(#clip_1)"><clipPath id="clip_1"><rect width="290" height="23"></rect></clipPath><g><g><line x1="0" y1="0" x2="0" y2="5" style="visibility: inherit;" fill="rgb(0, 0, 0)" stroke="rgb(204, 204, 204)" stroke-width="1px"></line><line x1="24.236979166666664" y1="0" x2="24.236979166666664" y2="5" style="visibility: inherit;" fill="rgb(0, 0, 0)" stroke="rgb(204, 204, 204)" stroke-width="1px"></line><line x1="48.47395833333333" y1="0" x2="48.47395833333333" y2="5" style="visibility: inherit;" fill="rgb(0, 0, 0)" stroke="rgb(204, 204, 204)" stroke-width="1px"></line><line x1="72.7109375" y1="0" x2="72.7109375" y2="5" style="visibility: inherit;" fill="rgb(0, 0, 0)" stroke="rgb(204, 204, 204)" stroke-width="1px"></line><line x1="96.94791666666666" y1="0" x2="96.94791666666666" y2="5" style="visibility: inherit;" fill="rgb(0, 0, 0)" stroke="rgb(204, 204, 204)" stroke-width="1px"></line><line x1="121.18489583333334" y1="0" x2="121.18489583333334" y2="5" style="visibility: inherit;" fill="rgb(0, 0, 0)" stroke="rgb(204, 204, 204)" stroke-width="1px"></line><line x1="145.421875" y1="0" x2="145.421875" y2="5" style="visibility: inherit;" fill="rgb(0, 0, 0)" stroke="rgb(204, 204, 204)" stroke-width="1px"></line><line x1="169.65885416666669" y1="0" x2="169.65885416666669" y2="5" style="visibility: inherit;" fill="rgb(0, 0, 0)" stroke="rgb(204, 204, 204)" stroke-width="1px"></line><line x1="193.89583333333331" y1="0" x2="193.89583333333331" y2="5" style="visibility: inherit;" fill="rgb(0, 0, 0)" stroke="rgb(204, 204, 204)" stroke-width="1px"></line><line x1="218.1328125" y1="0" x2="218.1328125" y2="5" style="visibility: inherit;" fill="rgb(0, 0, 0)" stroke="rgb(204, 204, 204)" stroke-width="1px"></line><line x1="242.36979166666669" y1="0" x2="242.36979166666669" y2="5" style="visibility: inherit;" fill="rgb(0, 0, 0)" stroke="rgb(204, 204, 204)" stroke-width="1px"></line><line x1="266.6067708333333" y1="0" x2="266.6067708333333" y2="5" style="visibility: inherit;" fill="rgb(0, 0, 0)" stroke="rgb(204, 204, 204)" stroke-width="1px"></line><line x1="290.84375" y1="0" x2="290.84375" y2="5" style="visibility: inherit;" fill="rgb(0, 0, 0)" stroke="rgb(204, 204, 204)" stroke-width="1px"></line></g><g transform="translate(0, 8)"><text x="0" y="0" dx="0em" dy="0.95em" style="text-anchor: middle; visibility: hidden; font-family: &quot;Helvetica Neue&quot;, sans-serif; font-size: 12px; font-weight: 200;" fill="rgb(50, 49, 63)" stroke="none" stroke-width="1px">-100</text><text x="24.236979166666664" y="0" dx="0em" dy="0.95em" style="text-anchor: middle; visibility: inherit; font-family: &quot;Helvetica Neue&quot;, sans-serif; font-size: 12px; font-weight: 200;" fill="rgb(50, 49, 63)" stroke="none" stroke-width="1px">0</text><text x="48.47395833333333" y="0" dx="0em" dy="0.95em" style="text-anchor: middle; visibility: hidden; font-family: &quot;Helvetica Neue&quot;, sans-serif; font-size: 12px; font-weight: 200;" fill="rgb(50, 49, 63)" stroke="none" stroke-width="1px">100</text><text x="72.7109375" y="0" dx="0em" dy="0.95em" style="text-anchor: middle; visibility: inherit; font-family: &quot;Helvetica Neue&quot;, sans-serif; font-size: 12px; font-weight: 200;" fill="rgb(50, 49, 63)" stroke="none" stroke-width="1px">200</text><text x="96.94791666666666" y="0" dx="0em" dy="0.95em" style="text-anchor: middle; visibility: hidden; font-family: &quot;Helvetica Neue&quot;, sans-serif; font-size: 12px; font-weight: 200;" fill="rgb(50, 49, 63)" stroke="none" stroke-width="1px">300</text><text x="121.18489583333334" y="0" dx="0em" dy="0.95em" style="text-anchor: middle; visibility: inherit; font-family: &quot;Helvetica Neue&quot;, sans-serif; font-size: 12px; font-weight: 200;" fill="rgb(50, 49, 63)" stroke="none" stroke-width="1px">400</text><text x="145.421875" y="0" dx="0em" dy="0.95em" style="text-anchor: middle; visibility: hidden; font-family: &quot;Helvetica Neue&quot;, sans-serif; font-size: 12px; font-weight: 200;" fill="rgb(50, 49, 63)" stroke="none" stroke-width="1px">500</text><text x="169.65885416666669" y="0" dx="0em" dy="0.95em" style="text-anchor: middle; visibility: inherit; font-family: &quot;Helvetica Neue&quot;, sans-serif; font-size: 12px; font-weight: 200;" fill="rgb(50, 49, 63)" stroke="none" stroke-width="1px">600</text><text x="193.89583333333331" y="0" dx="0em" dy="0.95em" style="text-anchor: middle; visibility: hidden; font-family: &quot;Helvetica Neue&quot;, sans-serif; font-size: 12px; font-weight: 200;" fill="rgb(50, 49, 63)" stroke="none" stroke-width="1px">700</text><text x="218.1328125" y="0" dx="0em" dy="0.95em" style="text-anchor: middle; visibility: inherit; font-family: &quot;Helvetica Neue&quot;, sans-serif; font-size: 12px; font-weight: 200;" fill="rgb(50, 49, 63)" stroke="none" stroke-width="1px">800</text><text x="242.36979166666669" y="0" dx="0em" dy="0.95em" style="text-anchor: middle; visibility: hidden; font-family: &quot;Helvetica Neue&quot;, sans-serif; font-size: 12px; font-weight: 200;" fill="rgb(50, 49, 63)" stroke="none" stroke-width="1px">900</text><text x="266.6067708333333" y="0" dx="0em" dy="0.95em" style="text-anchor: middle; visibility: inherit; font-family: &quot;Helvetica Neue&quot;, sans-serif; font-size: 12px; font-weight: 200;" fill="rgb(50, 49, 63)" stroke="none" stroke-width="1px">1k</text><text x="290.84375" y="0" dx="0em" dy="0.95em" style="text-anchor: middle; visibility: hidden; font-family: &quot;Helvetica Neue&quot;, sans-serif; font-size: 12px; font-weight: 200;" fill="rgb(50, 49, 63)" stroke="none" stroke-width="1px">1.1k</text></g><line x1="0" y1="0" x2="290.84375" y2="0" fill="rgb(0, 0, 0)" stroke="rgb(204, 204, 204)" stroke-width="1px"></line></g></g></g></g></svg>